<svg width="68" height="68" viewBox="0 0 68 68" fill="none" xmlns="http://www.w3.org/2000/svg">
<rect width="68" height="68" rx="34" fill="#EF233C"/>
<path fill-rule="evenodd" clip-rule="evenodd" d="M34 17.4147C29.6013 17.4147 25.3828 19.1621 22.2724 22.2724C19.1621 25.3828 17.4147 29.6013 17.4147 34C17.4147 38.3988 19.1621 42.6173 22.2724 45.7277C25.3828 48.838 29.6013 50.5854 34 50.5854H42.2927C44.869 50.5854 46.1571 50.5854 47.1725 50.1652C47.8435 49.8874 48.4531 49.4801 48.9666 48.9666C49.4801 48.4531 49.8874 47.8435 50.1652 47.1725C50.5854 46.1571 50.5854 44.869 50.5854 42.2927V34C50.5854 29.6013 48.838 25.3828 45.7277 22.2724C42.6173 19.1621 38.3988 17.4147 34 17.4147ZM26.6288 32.1572C26.6288 31.6685 26.8229 31.1997 27.1685 30.8542C27.5141 30.5086 27.9828 30.3144 28.4716 30.3144H39.5285C40.0172 30.3144 40.486 30.5086 40.8316 30.8542C41.1772 31.1997 41.3713 31.6685 41.3713 32.1572C41.3713 32.646 41.1772 33.1147 40.8316 33.4603C40.486 33.8059 40.0172 34 39.5285 34H28.4716C27.9828 34 27.5141 33.8059 27.1685 33.4603C26.8229 33.1147 26.6288 32.646 26.6288 32.1572ZM32.1572 39.5285C32.1572 39.0397 32.3514 38.571 32.697 38.2254C33.0426 37.8798 33.5113 37.6857 34 37.6857H39.5285C40.0172 37.6857 40.486 37.8798 40.8316 38.2254C41.1772 38.571 41.3713 39.0397 41.3713 39.5285C41.3713 40.0172 41.1772 40.486 40.8316 40.8316C40.486 41.1772 40.0172 41.3713 39.5285 41.3713H34C33.5113 41.3713 33.0426 41.1772 32.697 40.8316C32.3514 40.486 32.1572 40.0172 32.1572 39.5285Z" fill="white"/>
</svg>
