<svg width="14" height="14" viewBox="0 0 14 14" fill="none" xmlns="http://www.w3.org/2000/svg">
<path d="M14 10.4378V13.1881C14 13.5964 13.6843 13.9352 13.2771 13.964C12.9369 13.988 12.6593 14 12.4444 14C5.57153 14 0 8.42847 0 1.55556C0 1.34066 0.0120167 1.06312 0.03605 0.722945C0.0648433 0.315685 0.40362 0 0.811891 0H3.5623C3.76194 0 3.92915 0.151216 3.94919 0.349844C3.96719 0.528166 3.98392 0.671331 3.99939 0.779349C4.15672 1.87812 4.47808 2.92395 4.93788 3.89125C5.01168 4.04651 4.96355 4.23235 4.82366 4.33227L3.14498 5.5314C4.16696 7.91863 6.08137 9.83305 8.4686 10.8551L9.66552 9.17926C9.76671 9.0377 9.95478 8.98901 10.1119 9.0636C11.0791 9.52303 12.1249 9.84402 13.2235 10.001C13.3308 10.0164 13.4731 10.0329 13.6502 10.0508C13.8488 10.0709 14 10.2381 14 10.4378Z" fill="#EF233C"/>
</svg>
