<svg width="116" height="116" viewBox="0 0 116 116" fill="none" xmlns="http://www.w3.org/2000/svg">
<path d="M95.181 59.8559C115.848 71.7877 115.957 91.1342 95.4246 103.068C74.8926 115.002 41.4893 115 20.8227 103.068C0.156149 91.1365 0.0447903 71.7807 20.5768 59.8559C41.1088 47.9311 74.5122 47.9149 95.181 59.8559Z" fill="#F0F0F0"/>
<path d="M50.5759 54.3296L48.2559 52.991C48.009 52.8485 47.729 52.7734 47.4439 52.7734C47.1589 52.7734 46.8788 52.8485 46.6319 52.991L30.9255 62.0599C27.7216 61.5843 24.1975 62.0599 21.6919 63.5169C19.1863 64.9738 18.3743 66.9969 19.1817 68.8389L8.85073 74.8036C8.74471 74.8647 8.65665 74.9526 8.59542 75.0585C8.53419 75.1644 8.50195 75.2845 8.50195 75.4069C8.50195 75.5292 8.53419 75.6493 8.59542 75.7552C8.65665 75.8611 8.74471 75.949 8.85073 76.0101L11.1707 77.3464C11.4176 77.4889 11.6977 77.5639 11.9827 77.5639C12.2678 77.5639 12.5478 77.4889 12.7947 77.3464L22.4204 71.79C26.2275 73.6112 31.8605 73.4929 35.4124 71.4327C38.9643 69.3725 39.143 66.1361 36.0272 63.9391L50.5759 55.5337C50.6814 55.4725 50.7689 55.3847 50.8298 55.2791C50.8907 55.1734 50.9227 55.0536 50.9227 54.9317C50.9227 54.8098 50.8907 54.69 50.8298 54.5843C50.7689 54.4787 50.6814 54.3908 50.5759 54.3296Z" fill="#E0E0E0"/>
<path d="M69.7174 62.7536C73.5013 64.939 73.5222 68.484 69.7615 70.6694C66.0008 72.8549 59.8806 72.8549 56.0944 70.6694C52.3081 68.484 52.2896 64.939 56.0503 62.7536C59.811 60.5681 65.9312 60.5681 69.7174 62.7536Z" fill="#E1E1E1"/>
<path d="M97.6967 74.6483C101.483 76.8337 101.502 80.3763 97.7408 82.5641C93.9801 84.7519 87.8623 84.7495 84.076 82.5641C80.2898 80.3786 80.2689 76.8337 84.0296 74.6483C87.7903 72.4628 93.9105 72.4605 97.6967 74.6483Z" fill="#E1E1E1"/>
<path d="M44.509 90.6772C48.2952 92.8626 48.3161 96.4076 44.553 98.593C40.79 100.778 34.6745 100.778 30.8882 98.593C27.102 96.4076 27.0811 92.8626 30.8441 90.6772C34.6072 88.4917 40.7227 88.4917 44.509 90.6772Z" fill="#E1E1E1"/>
<path d="M58.0871 104.602C56.4237 102.904 55.4469 97.8368 57.0686 96.4819H65.3278C66.9518 97.8345 65.9728 102.89 64.3117 104.602L64.2653 104.648L64.2073 104.704C64.1609 104.75 64.1098 104.794 64.0588 104.839L64.017 104.871C63.9776 104.901 63.9358 104.934 63.8917 104.964C63.8477 104.994 63.7479 105.061 63.676 105.103C62.3072 105.892 60.0893 105.892 58.7205 105.103C58.6462 105.059 58.572 105.013 58.5024 104.964C58.4328 104.915 58.4235 104.906 58.3864 104.873L58.3377 104.836C58.2843 104.794 58.2379 104.75 58.1915 104.709L58.1265 104.641L58.0871 104.602Z" fill="#37474F"/>
<path d="M64.6012 95.9484C66.4874 97.0365 66.4874 98.802 64.6012 99.8924C62.7151 100.983 59.662 100.98 57.7781 99.8924C55.8943 98.8043 55.8943 97.0411 57.7781 95.9484C59.662 94.8557 62.7267 94.8603 64.6012 95.9484Z" fill="#455A64"/>
<path d="M63.6932 96.4726C65.0852 97.2707 65.0852 98.5606 63.6932 99.3726C62.3012 100.185 60.0671 100.171 58.682 99.3726C57.297 98.5745 57.29 97.2846 58.682 96.4726C60.074 95.6606 62.3128 95.6722 63.6932 96.4726Z" fill="#2E353A"/>
<path d="M58.6942 97.8461C60.0862 97.048 62.3204 97.048 63.7054 97.8461C64.0399 98.0267 64.3245 98.2874 64.5337 98.6048C64.3233 98.9223 64.037 99.1822 63.7008 99.3611C62.3088 100.159 60.0746 100.159 58.6896 99.3611C58.3535 99.1817 58.0685 98.9199 57.8613 98.6001C58.0724 98.2838 58.3586 98.0248 58.6942 97.8461Z" fill="#EBEBEB"/>
<path d="M59.7825 94.4681C60.0284 94.0993 60.3927 93.8162 60.6154 93.4311C61.0794 92.6237 60.5226 91.8349 60.7569 91.0137C60.8179 90.8367 60.9153 90.6745 61.0427 90.5374C61.1702 90.4004 61.3249 90.2915 61.497 90.2179C61.8422 90.076 62.2051 89.9816 62.5758 89.9372C62.7739 89.9163 62.967 89.8613 63.1465 89.7748C63.3599 89.6541 63.4249 89.443 63.5595 89.2574C63.7132 89.0538 63.8882 88.8672 64.0815 88.7006C64.4557 88.3203 64.9633 88.1007 65.4967 88.0881C66.6195 88.1392 66.5894 89.1066 66.2692 89.8374C65.9491 90.5682 65.8609 90.8049 66.5615 91.5774C67.2622 92.35 67.2575 93.2803 66.4293 93.8069C65.6011 94.3336 65.0373 94.4055 65.3783 95.417C65.673 96.3241 65.8563 97.0967 65.0187 98.0665C64.7563 98.3974 64.4207 98.6629 64.0382 98.842C63.6558 99.0212 63.237 99.1091 62.8147 99.0989C61.1397 99.0293 59.7755 97.6721 59.4971 96.0597C59.3967 95.5369 59.4864 94.9955 59.75 94.5331L59.7825 94.4681Z" fill="#EF233C"/>
<path opacity="0.3" d="M59.7825 94.4681C60.0284 94.0993 60.3927 93.8162 60.6154 93.4311C61.0794 92.6237 60.5226 91.8349 60.7569 91.0137C60.8179 90.8367 60.9153 90.6745 61.0427 90.5374C61.1702 90.4004 61.3249 90.2915 61.497 90.2179C61.8422 90.076 62.2051 89.9816 62.5758 89.9372C62.7739 89.9163 62.967 89.8613 63.1465 89.7748C63.3599 89.6541 63.4249 89.443 63.5595 89.2574C63.7132 89.0538 63.8882 88.8672 64.0815 88.7006C64.4557 88.3203 64.9633 88.1007 65.4967 88.0881C66.6195 88.1392 66.5894 89.1066 66.2692 89.8374C65.9491 90.5682 65.8609 90.8049 66.5615 91.5774C67.2622 92.35 67.2575 93.2803 66.4293 93.8069C65.6011 94.3336 65.0373 94.4055 65.3783 95.417C65.673 96.3241 65.8563 97.0967 65.0187 98.0665C64.7563 98.3974 64.4207 98.6629 64.0382 98.842C63.6558 99.0212 63.237 99.1091 62.8147 99.0989C61.1397 99.0293 59.7755 97.6721 59.4971 96.0597C59.3967 95.5369 59.4864 94.9955 59.75 94.5331L59.7825 94.4681Z" fill="#EF233C"/>
<path opacity="0.3" d="M59.7825 94.4681C60.0284 94.0993 60.3927 93.8162 60.6154 93.4311C61.0794 92.6237 60.5226 91.8349 60.7569 91.0137C60.8179 90.8367 60.9153 90.6745 61.0427 90.5374C61.1702 90.4004 61.3249 90.2915 61.497 90.2179C61.8422 90.076 62.2051 89.9816 62.5758 89.9372C62.7739 89.9163 62.967 89.8613 63.1465 89.7748C63.3599 89.6541 63.4249 89.443 63.5595 89.2574C63.7132 89.0538 63.8882 88.8672 64.0815 88.7006C64.4557 88.3203 64.9633 88.1007 65.4967 88.0881C66.6195 88.1392 66.5894 89.1066 66.2692 89.8374C65.9491 90.5682 65.8609 90.8049 66.5615 91.5774C67.2622 92.35 67.2575 93.2803 66.4293 93.8069C65.6011 94.3336 65.0373 94.4055 65.3783 95.417C65.673 96.3241 65.8563 97.0967 65.0187 98.0665C64.7563 98.3974 64.4207 98.6629 64.0382 98.842C63.6558 99.0212 63.237 99.1091 62.8147 99.0989C61.1397 99.0293 59.7755 97.6721 59.4971 96.0597C59.3967 95.5369 59.4864 94.9955 59.75 94.5331L59.7825 94.4681Z" fill="black"/>
<path d="M65.506 92.4706C65.5005 92.4495 65.487 92.4314 65.4683 92.4202C65.4497 92.4089 65.4274 92.4053 65.4062 92.4103C64.5001 92.6479 63.6214 92.98 62.7846 93.4009C63.2664 92.1133 63.9647 90.9175 64.8494 89.8652C64.8572 89.8575 64.8634 89.8483 64.8676 89.8381C64.8718 89.828 64.874 89.8171 64.874 89.8061C64.874 89.7951 64.8718 89.7842 64.8676 89.7741C64.8634 89.7639 64.8572 89.7547 64.8494 89.7469C64.8336 89.7324 64.8129 89.7244 64.7914 89.7244C64.7699 89.7244 64.7492 89.7324 64.7334 89.7469C63.9944 90.6201 63.3878 91.5972 62.9331 92.6469C62.7092 92.1541 62.4248 91.6912 62.0863 91.2688C62.0785 91.2611 62.0693 91.2549 62.0591 91.2507C62.049 91.2464 62.0381 91.2443 62.0271 91.2443C62.0161 91.2443 62.0052 91.2464 61.9951 91.2507C61.9849 91.2549 61.9757 91.2611 61.968 91.2688C61.9602 91.2764 61.9541 91.2854 61.9499 91.2954C61.9457 91.3053 61.9436 91.316 61.9436 91.3268C61.9436 91.3376 61.9457 91.3483 61.9499 91.3583C61.9541 91.3683 61.9602 91.3773 61.968 91.3848C62.3279 91.8349 62.6246 92.3321 62.8496 92.8627C62.7544 93.0831 62.6547 93.3151 62.5688 93.5587C62.5551 93.5749 62.5477 93.5955 62.548 93.6167C61.9402 95.2674 61.6383 97.0151 61.6571 98.774C61.6568 98.7847 61.6586 98.7953 61.6624 98.8053C61.6662 98.8153 61.6719 98.8244 61.6792 98.8321C61.6865 98.8399 61.6953 98.8461 61.7051 98.8505C61.7148 98.8549 61.7253 98.8573 61.736 98.8576H61.7638C61.7805 98.8522 61.7952 98.8417 61.8056 98.8275C61.816 98.8133 61.8217 98.7963 61.8218 98.7787C61.8038 97.0378 62.1033 95.3081 62.7057 93.6747C63.7056 93.0576 65.4433 92.6005 65.4596 92.5936C65.4806 92.5881 65.4987 92.5746 65.51 92.556C65.5213 92.5373 65.5248 92.515 65.5199 92.4938C65.5199 92.4938 65.5083 92.4729 65.506 92.4706Z" fill="white"/>
<path d="M61.3283 99.2567C61.2819 99.2845 60.8968 99.4191 60.8411 99.4353C60.224 99.614 59.4189 99.5188 58.6904 99.4098C58.2125 99.3379 57.5652 99.2381 57.2103 98.8808C57.1175 98.7968 57.0516 98.6872 57.0211 98.5658C56.9905 98.4444 56.9966 98.3167 57.0386 98.1988C57.15 97.9668 57.4655 97.8113 57.491 97.5468C56.969 97.3728 56.3519 97.5097 55.8856 97.2197C55.5479 96.9896 55.2933 96.6569 55.1594 96.2708C55.0472 96.0278 55.0347 95.7504 55.1246 95.4983C55.2499 95.2384 55.5886 95.1758 55.874 95.1317C55.9502 95.1262 56.0245 95.1049 56.092 95.0691C56.1254 95.0495 56.1524 95.0207 56.1697 94.9861C56.187 94.9515 56.1939 94.9126 56.1895 94.8742C56.1663 94.7814 56.0688 94.735 55.9784 94.7072C55.7835 94.6445 55.5909 94.6074 55.3984 94.5355C55.2073 94.4718 55.0437 94.345 54.9344 94.1759C54.8353 93.9581 54.8045 93.7155 54.8462 93.4799C54.8794 93.0741 54.9359 92.6705 55.0156 92.2712C55.0712 91.9249 55.1038 91.5754 55.113 91.2248C56.1236 91.0344 57.1629 91.0581 58.1638 91.2944C58.716 91.4081 59.5164 91.6656 59.7576 92.241C59.8204 92.4058 59.8411 92.5836 59.818 92.7584C59.8056 92.8369 59.7878 92.9144 59.7646 92.9904C59.753 93.0368 59.7043 93.2224 59.8226 93.1412C59.8476 93.1186 59.8674 93.0909 59.8806 93.06L60.268 92.2874C60.2982 92.2066 60.3515 92.1364 60.4212 92.0856C60.5766 91.9881 61.0012 92.0647 61.4327 92.4127C61.7159 92.6626 61.9077 92.9997 61.9779 93.3708C62.0691 93.9605 62.0462 94.5622 61.9106 95.1433L62.2864 94.619C62.7296 94.0065 63.001 95.1271 63.0196 95.3684C63.062 96.1219 62.9425 96.8758 62.6692 97.5793C62.3996 98.2597 61.9326 98.8439 61.3283 99.2567Z" fill="#EF233C"/>
<path d="M60.1544 96.3612C60.1917 95.3705 60.4467 94.4002 60.9014 93.5192V93.5007C60.9058 93.4918 60.9083 93.4823 60.9089 93.4724C60.9095 93.4626 60.9081 93.4528 60.9049 93.4435C60.9017 93.4342 60.8966 93.4257 60.89 93.4184C60.8835 93.4111 60.8755 93.4051 60.8666 93.4009C60.8485 93.3921 60.8276 93.3908 60.8084 93.3973C60.7893 93.4038 60.7736 93.4176 60.7646 93.4357V93.4566C60.3405 94.2861 60.0842 95.1912 60.0106 96.12C58.8088 94.0969 57.0479 92.176 56.1222 91.6772C56.1034 91.6672 56.0815 91.665 56.0611 91.6711C56.0407 91.6772 56.0235 91.691 56.0132 91.7096C56.0078 91.7184 56.0043 91.7282 56.0028 91.7384C56.0013 91.7486 56.0018 91.759 56.0044 91.7689C56.007 91.7789 56.0116 91.7882 56.0179 91.7964C56.0242 91.8045 56.0321 91.8113 56.041 91.8164C56.9551 92.3128 58.6951 94.2152 59.8783 96.2244C58.9237 95.8223 57.862 95.7513 56.8623 96.0225C56.8434 96.0289 56.8277 96.0424 56.8186 96.0602C56.8095 96.0779 56.8077 96.0986 56.8136 96.1176C56.8183 96.1307 56.8263 96.1423 56.8369 96.1513C56.8475 96.1602 56.8603 96.1662 56.8739 96.1687H56.911C57.9427 95.8911 59.0395 95.9915 60.0036 96.4517C60.5212 97.2953 60.8835 98.2249 61.0731 99.1963C61.0748 99.2114 61.0807 99.2257 61.0902 99.2375C61.0996 99.2494 61.1122 99.2584 61.1265 99.2636H61.1636C61.1837 99.2607 61.2019 99.2501 61.2145 99.2341C61.227 99.2181 61.2329 99.1979 61.2309 99.1777C61.1195 98.3077 60.7066 97.3287 60.1544 96.3612Z" fill="white"/>
<path d="M28.6094 70.6091V72.5881C28.6094 72.6804 28.646 72.7689 28.7113 72.8342C28.7766 72.8994 28.8651 72.9361 28.9574 72.9361C29.0497 72.9361 29.1382 72.8994 29.2034 72.8342C29.2687 72.7689 29.3054 72.6804 29.3054 72.5881V70.6091H28.6094Z" fill="#EF233C"/>
<path d="M29.3015 61.204C29.3015 61.1117 29.2648 61.0231 29.1995 60.9579C29.1343 60.8926 29.0458 60.856 28.9535 60.856C28.8612 60.856 28.7727 60.8926 28.7074 60.9579C28.6421 61.0231 28.6055 61.1117 28.6055 61.204V70.6092H29.3015V61.204Z" fill="#263238"/>
<path d="M30.1441 60.538C30.1112 60.5026 30.0713 60.4744 30.027 60.4553C29.9826 60.4361 29.9347 60.4264 29.8864 60.4268C29.8381 60.4271 29.7904 60.4375 29.7463 60.4574C29.7023 60.4772 29.6628 60.5059 29.6305 60.5418C29.5981 60.5777 29.5736 60.62 29.5585 60.6659C29.5434 60.7117 29.538 60.7603 29.5426 60.8084C29.5473 60.8565 29.5619 60.9031 29.5856 60.9452C29.6093 60.9873 29.6414 61.024 29.6801 61.0531L35.9441 66.6999L36.4382 66.2081L30.1441 60.538Z" fill="#263238"/>
<path d="M37.5328 67.2102L36.4238 66.208L35.9297 66.6998L37.0665 67.7253C37.13 67.783 37.2126 67.8153 37.2985 67.8158C37.3473 67.8156 37.3955 67.8054 37.4402 67.7858C37.4849 67.7663 37.5251 67.7378 37.5583 67.7021C37.6197 67.6332 37.6514 67.543 37.6466 67.4509C37.6418 67.3589 37.6009 67.2724 37.5328 67.2102Z" fill="#EF233C"/>
<path d="M20.3779 67.2102C20.3098 67.2724 20.2689 67.3589 20.2641 67.4509C20.2594 67.543 20.2911 67.6332 20.3524 67.7021C20.3857 67.7378 20.4259 67.7663 20.4706 67.7858C20.5152 67.8054 20.5635 67.8156 20.6122 67.8158C20.6981 67.8153 20.7807 67.783 20.8442 67.7253L21.981 66.6998L21.4892 66.208L20.3779 67.2102Z" fill="#EF233C"/>
<path d="M28.258 60.5637C28.2276 60.5294 28.1907 60.5015 28.1494 60.4817C28.1081 60.4618 28.0632 60.4503 28.0175 60.448C27.9717 60.4456 27.9259 60.4523 27.8828 60.4678C27.8396 60.4833 27.8 60.5072 27.7662 60.5382L21.4883 66.2082L21.9801 66.7001L28.2441 61.0532C28.3105 60.9899 28.3492 60.903 28.3518 60.8113C28.3544 60.7196 28.3207 60.6306 28.258 60.5637Z" fill="#263238"/>
<path d="M31.0023 60.3315H26.9121V61.5171C26.9121 61.821 27.1163 62.1249 27.5176 62.3569C27.9663 62.5845 28.4622 62.7032 28.9653 62.7032C29.4684 62.7032 29.9644 62.5845 30.413 62.3569C30.8097 62.1249 31.0092 61.821 31.0069 61.5171L31.0023 60.3315Z" fill="#37474F"/>
<path d="M30.3917 59.4941C31.1921 59.9581 31.1968 60.7075 30.3917 61.1692C29.9434 61.3979 29.4473 61.5172 28.944 61.5172C28.4408 61.5172 27.9447 61.3979 27.4964 61.1692C26.6936 60.7052 26.689 59.9558 27.4964 59.4941C27.9448 59.2658 28.4408 59.1467 28.944 59.1467C29.4472 59.1467 29.9433 59.2658 30.3917 59.4941Z" fill="#455A64"/>
<path d="M28.377 16.9846V60.2062C28.3826 60.2563 28.4012 60.304 28.4309 60.3447C28.4606 60.3853 28.5004 60.4176 28.5463 60.4382C28.6734 60.5034 28.8141 60.5373 28.957 60.5373C29.0998 60.5373 29.2405 60.5034 29.3676 60.4382C29.4135 60.4179 29.4532 60.3856 29.4826 60.3449C29.5119 60.3041 29.5299 60.2562 29.5346 60.2062V16.9846H28.377Z" fill="#263238"/>
<path d="M10.0137 27.0418V64.236L47.5652 42.5579V5.19897L10.0137 27.0418Z" fill="#455A64"/>
<path d="M11.4043 27.84L46.1741 7.6189V41.7531L11.4043 61.828V27.84Z" fill="#FAFAFA"/>
<path d="M11.0716 26.4478C11.3778 26.6472 11.6326 26.9161 11.8152 27.2325C11.9979 27.549 12.1032 27.9042 12.1226 28.269C12.1226 28.9372 11.6586 29.197 11.0646 28.8699C10.7584 28.6706 10.5036 28.4017 10.321 28.0852C10.1384 27.7687 10.0331 27.4136 10.0137 27.0487C10.016 26.3713 10.4893 26.1022 11.0716 26.4478Z" fill="#263238"/>
<path d="M49.881 6.31732C49.881 6.29876 49.881 6.28252 49.881 6.26628C49.881 6.25004 49.881 6.25004 49.881 6.24308V6.23148C49.881 6.23148 49.881 6.21988 49.881 6.21292C49.882 6.19592 49.882 6.17888 49.881 6.16188C49.8819 6.1441 49.8819 6.12629 49.881 6.10852C49.8819 6.09152 49.8819 6.07448 49.881 6.05748C49.881 6.03892 49.881 6.02268 49.881 6.00412C49.8799 5.9972 49.8799 5.99016 49.881 5.98324V5.97164V5.94844L49.867 5.89276C49.8621 5.87916 49.8582 5.8652 49.8554 5.851V5.83708C49.8554 5.81852 49.8554 5.79996 49.8369 5.7814C49.8317 5.76327 49.8255 5.74545 49.8183 5.72804V5.69556L49.7974 5.64452C49.7974 5.6306 49.7858 5.619 49.7812 5.6074V5.56796C49.7725 5.5514 49.7648 5.53436 49.758 5.51692L49.7302 5.46124C49.7302 5.445 49.7139 5.43108 49.707 5.41716L49.6768 5.36148L49.6606 5.33596V5.32436L49.6304 5.27796L49.5886 5.21068C49.5678 5.1782 49.5446 5.14804 49.5214 5.11556C49.5051 5.09468 49.4912 5.0738 49.475 5.05524L49.4355 5.00652L49.3961 4.9578L49.3543 4.91372L49.3242 4.88356L49.2801 4.83948L49.2662 4.82788L49.243 4.807L49.1966 4.76524L49.1757 4.749L49.1594 4.7374L49.113 4.70028L49.0782 4.67708L49.0342 4.64924L48.9901 4.6214H48.9785L48.946 4.60284L48.9019 4.57964H48.8741L48.83 4.56108L48.7882 4.54484H48.7743H48.7465L48.7024 4.53324H48.6815H48.6583C48.6429 4.53195 48.6274 4.53195 48.6119 4.53324H48.5841H48.4611L48.257 4.40796H48.243L48.1827 4.4242L48.1038 4.46132L10.3203 26.3644C10.3458 26.3488 10.373 26.3363 10.4015 26.3273C10.4224 26.3187 10.4442 26.3125 10.4665 26.3088H10.5454H10.5639C10.5902 26.3064 10.6166 26.3064 10.6428 26.3088L10.731 26.3204L10.8238 26.3482L10.9235 26.39L11.0279 26.4456C11.0627 26.4642 11.0975 26.4874 11.1323 26.5106C11.1648 26.5338 11.1973 26.557 11.2274 26.5825C11.2576 26.608 11.2878 26.6336 11.3156 26.6614H11.3272L11.4154 26.7496C11.4455 26.782 11.4757 26.8168 11.5035 26.8516C11.5314 26.8864 11.5615 26.9236 11.5894 26.963C11.6149 26.9955 11.6381 27.0326 11.6636 27.0674L11.7054 27.1347L11.7402 27.1927C11.7447 27.2024 11.7501 27.2118 11.7564 27.2205L11.8098 27.318V27.3296C11.8306 27.369 11.8492 27.4108 11.8678 27.4525C11.884 27.4943 11.9026 27.5337 11.9165 27.5755C11.9327 27.6172 11.9466 27.659 11.9606 27.7008C11.9738 27.7403 11.9847 27.7806 11.993 27.8214C11.993 27.8632 12.0093 27.9049 12.0162 27.9444C12.0162 27.9861 12.0278 28.0279 12.0325 28.0696C12.0325 28.1114 12.0325 28.1508 12.0325 28.1926C12.0325 28.2344 12.0325 28.2692 12.0325 28.3063C12.0303 28.3391 12.0256 28.3716 12.0186 28.4037V28.4176C12.0186 28.4478 12.0046 28.4756 11.9954 28.5035C11.9967 28.5088 11.9967 28.5144 11.9954 28.5197C11.9867 28.545 11.9766 28.5698 11.9652 28.594C11.9513 28.6218 11.9374 28.6473 11.9234 28.6705L11.8817 28.7239L11.8654 28.7424C11.8654 28.7564 11.8399 28.768 11.826 28.7819L11.8098 28.7958C11.7904 28.8118 11.7694 28.8258 11.7471 28.8376L49.5817 7.04116C49.6027 7.02779 49.6229 7.01306 49.642 6.99708L49.6582 6.98316L49.6977 6.94604L49.7139 6.92748C49.7291 6.91073 49.7431 6.8929 49.7557 6.87412C49.771 6.85096 49.7849 6.82695 49.7974 6.8022C49.8046 6.78636 49.8108 6.77009 49.816 6.75348C49.8166 6.74498 49.8166 6.73645 49.816 6.72796C49.8168 6.72257 49.8168 6.71711 49.816 6.71172C49.817 6.70713 49.817 6.70238 49.816 6.6978C49.8227 6.68063 49.8274 6.66272 49.8299 6.64444C49.831 6.63752 49.831 6.63048 49.8299 6.62356V6.58876C49.8299 6.58876 49.8299 6.57484 49.8299 6.56788V6.51916C49.8311 6.50914 49.8311 6.49902 49.8299 6.489V6.46812C49.8299 6.45188 49.8299 6.43564 49.8299 6.41708V6.36604L49.881 6.31732Z" fill="#37474F"/>
<path d="M14.3094 37.0688L18.0214 37.389L18.0353 42.312C15.6689 43.6785 13.7456 42.5835 13.7363 39.8621C13.7547 38.9038 13.9489 37.957 14.3094 37.0688Z" fill="#EF233C"/>
<path d="M20.1664 31.8792C21.4447 31.9952 22.3077 33.0879 22.3124 34.9091C22.3124 37.6304 20.4077 40.9411 18.0413 42.3122L18.0273 37.3845L20.1478 31.907L20.1664 31.8792Z" fill="#EF233C"/>
<path d="M18.0125 32.466C18.6517 32.0578 19.4009 31.8562 20.1585 31.8883V31.9162L18.0265 37.3891L14.3145 37.0689C15.0476 35.1711 16.428 33.3801 18.0125 32.466Z" fill="#EF233C"/>
<g opacity="0.2">
<path d="M18.0125 32.466C18.6517 32.0578 19.4009 31.8562 20.1585 31.8883V31.9162L18.0265 37.3891L14.3145 37.0689C15.0476 35.1711 16.428 33.3801 18.0125 32.466Z" fill="white"/>
</g>
<path d="M14.3094 37.0688L18.0214 37.389L18.0353 42.312C15.6689 43.6785 13.7456 42.5835 13.7363 39.8621C13.7547 38.9038 13.9489 37.957 14.3094 37.0688Z" fill="#EF233C"/>
<path d="M16.0069 50.8984L16.0092 51.7081L13.7797 52.9934L13.7773 52.186L16.0069 50.8984Z" fill="#E0E0E0"/>
<path d="M17.0225 47.0752L17.0249 47.8826L13.7699 49.7618L13.7676 48.9544L17.0225 47.0752Z" fill="#E0E0E0"/>
<path d="M20.9612 46.4209L20.9635 47.2283L13.7738 51.3787L13.7715 50.5691L20.9612 46.4209Z" fill="#E0E0E0"/>
<path d="M32.6706 38.041L32.6729 38.8484L26.0238 42.6857L26.0215 41.8783L32.6706 38.041Z" fill="#E0E0E0"/>
<g opacity="0.1">
<path d="M20.1664 31.8792C21.4447 31.9952 22.3077 33.0879 22.3124 34.9091C22.3124 37.6304 20.4077 40.9411 18.0413 42.3122L18.0273 37.3845L20.1478 31.907L20.1664 31.8792Z" fill="black"/>
</g>
<path d="M25.3289 28.2436C25.6862 28.0371 25.9762 28.2018 25.9785 28.6125C25.9666 28.837 25.9017 29.0556 25.7892 29.2503C25.6767 29.4451 25.5198 29.6105 25.3312 29.733C24.974 29.9395 24.684 29.7725 24.6816 29.3618C24.6934 29.1375 24.7582 28.9192 24.8707 28.7248C24.9832 28.5304 25.1403 28.3655 25.3289 28.2436Z" fill="#EF233C"/>
<path d="M25.3348 30.8094C25.6921 30.603 25.9821 30.7677 25.9844 31.1806C25.9723 31.4046 25.9077 31.6226 25.7956 31.8169C25.6835 32.0112 25.5273 32.1763 25.3394 32.2989C24.9798 32.5054 24.6898 32.3406 24.6875 31.9277C24.6994 31.7034 24.7643 31.4852 24.8768 31.2908C24.9893 31.0965 25.1463 30.9315 25.3348 30.8094Z" fill="#EF233C"/>
<path d="M25.3426 33.3754C25.6999 33.169 25.9922 33.336 25.9922 33.7466C25.9807 33.9707 25.9163 34.1889 25.8041 34.3833C25.692 34.5777 25.5355 34.7427 25.3472 34.8649C24.9876 35.0737 24.6976 34.9043 24.6953 34.4937C24.7072 34.2694 24.7721 34.0512 24.8846 33.8568C24.9971 33.6624 25.1541 33.4975 25.3426 33.3754Z" fill="#EF233C"/>
<path d="M25.3481 35.9414C25.7054 35.7349 25.9977 35.9019 25.9977 36.3126C25.9862 36.5366 25.9217 36.7548 25.8096 36.9492C25.6975 37.1436 25.5409 37.3086 25.3527 37.4308C24.9931 37.6373 24.7031 37.4726 24.7031 37.0619C24.7144 36.8375 24.7788 36.6189 24.8909 36.4241C25.003 36.2293 25.1597 36.0639 25.3481 35.9414Z" fill="#EF233C"/>
<path d="M28.9778 26.4526L28.9801 27.3064L26.848 28.5383L26.8457 27.6822L28.9778 26.4526Z" fill="#E0E0E0"/>
<path d="M31.8231 24.8076L31.8254 25.6637L29.6957 26.8933L29.6934 26.0395L31.8231 24.8076Z" fill="#E0E0E0"/>
<path d="M32.653 32.0437L32.6553 32.8975L29.5883 34.6699L29.5859 33.8139L32.653 32.0437Z" fill="#E0E0E0"/>
<path d="M30.7732 30.5566L30.7755 31.4127L26.8617 33.6724L26.8594 32.8163L30.7732 30.5566Z" fill="#E0E0E0"/>
<path d="M29.5474 28.6936L29.5497 29.5474L26.8539 31.1041L26.8516 30.2503L29.5474 28.6936Z" fill="#E0E0E0"/>
<path d="M28.9989 34.1526L29.0012 35.0087L26.8715 36.2383L26.8691 35.3845L28.9989 34.1526Z" fill="#E0E0E0"/>
<path d="M22.6835 47.0449L22.6858 47.8523L17.141 51.0539L17.1387 50.2442L22.6835 47.0449Z" fill="#E0E0E0"/>
<path d="M19.7791 43.8643L19.7837 44.6739L13.7679 48.147L13.7656 47.3373L19.7791 43.8643Z" fill="#E0E0E0"/>
<path d="M32.6755 39.658L32.6779 40.4653L29.7152 42.1752L29.7129 41.3678L32.6755 39.658Z" fill="#E0E0E0"/>
<path d="M32.6794 41.2727L32.6817 42.0824L28.6449 44.4117L28.6426 43.602L32.6794 41.2727Z" fill="#E0E0E0"/>
<path d="M38.3507 34.7605L38.353 35.5679L35.098 37.4471L35.0957 36.6397L38.3507 34.7605Z" fill="#E0E0E0"/>
<path d="M43.6322 31.7122L43.6346 32.5195L39.266 35.0414L39.2637 34.234L43.6322 31.7122Z" fill="#E0E0E0"/>
<path d="M38.1203 24.1697L38.1412 31.4406L36.9232 32.1458L36.9023 24.8726L38.1203 24.1697Z" fill="#EF233C"/>
<path d="M39.9504 24.3252L39.969 30.3874L38.751 31.0903L38.7324 25.0305L39.9504 24.3252Z" fill="#EF233C"/>
<path d="M41.7707 20.5388L41.7963 29.3316L40.5783 30.0346L40.5527 21.2418L41.7707 20.5388Z" fill="#EF233C"/>
<path d="M43.593 17.9729L43.6232 28.276L42.4052 28.979L42.375 18.6782L43.593 17.9729Z" fill="#EF233C"/>
<path d="M37.3307 38.5862L37.333 39.3959L35.1058 40.6811L35.1035 39.8715L37.3307 38.5862Z" fill="#E0E0E0"/>
<path d="M27.5102 44.2563V45.066L23.8168 47.1981L23.8145 46.3908L27.5102 44.2563Z" fill="#E0E0E0"/>
<path d="M28.5805 42.0222V42.8296L22.0961 46.5741L22.0938 45.7667L28.5805 42.0222Z" fill="#E0E0E0"/>
<path d="M25.5568 40.5281L25.5591 41.3378L20.9144 44.0174L20.9121 43.21L25.5568 40.5281Z" fill="#E0E0E0"/>
<path d="M24.8866 42.5349L24.8889 43.3423L18.1586 47.2283L18.1562 46.4209L24.8866 42.5349Z" fill="#E0E0E0"/>
<path d="M43.6427 34.9438L43.645 35.7512L38.4691 38.7394L38.4668 37.932L43.6427 34.9438Z" fill="#E0E0E0"/>
<path d="M43.6372 33.3291L43.6395 34.1365L35.1019 39.0641L35.0996 38.2568L43.6372 33.3291Z" fill="#E0E0E0"/>
<path d="M41.1056 31.5496L41.1079 32.3592L35.0922 35.8323L35.0898 35.0249L41.1056 31.5496Z" fill="#E0E0E0"/>
<path d="M43.6237 28.884L43.626 29.3063L35.1 34.2293L35.0977 33.8048L43.6237 28.884Z" fill="#395A65"/>
<path d="M36.302 28.2227L36.3159 32.4961L35.0979 33.1991L35.084 28.9256L36.302 28.2227Z" fill="#EF233C"/>
<path d="M100.159 43.3513C99.8227 47.0865 100.11 47.4693 97.5723 47.2791V43.3513H100.159Z" fill="#F28F8F"/>
<path d="M97.4062 36.6558C99.6566 36.512 101.524 37.2799 100.327 43.7179C99.2251 44.3165 97.4062 43.9847 97.4062 43.9847V36.6558Z" fill="#37474F"/>
<path d="M93.2463 80.4853C93.0862 80.9911 92.5317 81.2811 92.0027 81.3228C91.4738 81.3646 90.9518 81.2161 90.4298 81.121C89.2698 80.9099 88.1353 81.121 86.9707 81.0932C86.5905 81.0953 86.2113 81.0533 85.8408 80.9679C85.4643 80.8828 85.1237 80.6825 84.8664 80.3948C84.7206 80.2201 84.6244 80.0093 84.588 79.7847C84.5641 79.9543 84.5765 80.127 84.6245 80.2914C84.6725 80.4558 84.755 80.6081 84.8664 80.7382C85.1249 81.0244 85.465 81.2245 85.8408 81.3112C86.2137 81.3964 86.5952 81.4377 86.9776 81.4342C88.1376 81.462 89.2698 81.2509 90.4367 81.4644C90.9587 81.5572 91.4807 81.6963 92.0097 81.6639C92.5387 81.6314 93.0931 81.3344 93.2532 80.8287C93.303 80.6539 93.3172 80.4708 93.295 80.2904C93.2846 80.3567 93.2683 80.4219 93.2463 80.4853Z" fill="#263238"/>
<path d="M93.2154 79.5178C93.1435 79.1652 93.0716 78.8102 93.002 78.4576C92.9745 78.268 92.9132 78.0849 92.821 77.917C92.7744 77.8349 92.707 77.7666 92.6255 77.7189C92.544 77.6712 92.4514 77.6459 92.357 77.6456C91.719 77.562 90.8188 77.33 90.2876 77.6966C89.4469 78.2713 88.4447 78.5623 87.427 78.5272C86.898 78.5063 86.3691 78.3972 85.8424 78.4622C85.3158 78.5272 84.7729 78.8195 84.6152 79.3252C84.5713 79.4759 84.5625 79.6347 84.5896 79.7892C84.626 80.0139 84.7222 80.2247 84.868 80.3994C85.1254 80.685 85.465 80.8836 85.8401 80.9678C86.2129 81.0537 86.5944 81.0958 86.9769 81.0931C88.1369 81.1209 89.2691 80.9098 90.436 81.1209C90.958 81.216 91.48 81.3529 92.009 81.3228C92.538 81.2926 93.0924 80.991 93.2525 80.4852C93.2722 80.4217 93.2862 80.3564 93.2943 80.2904C93.3085 80.0303 93.2819 79.7696 93.2154 79.5178Z" fill="#37474F"/>
<path d="M90.1229 76.583L90.0765 77.975C90.0714 78.1168 90.1214 78.2551 90.2162 78.3607C90.311 78.4663 90.4431 78.531 90.5846 78.5411C91.0482 78.5747 91.5138 78.57 91.9766 78.5272C92.1645 78.5101 92.3399 78.4259 92.4708 78.29C92.6016 78.154 92.679 77.9755 92.6889 77.7871L92.7445 76.7663L90.1229 76.583Z" fill="#FFA8A7"/>
<path d="M99.1495 75.8475C99.1445 76.0525 99.08 76.2516 98.9639 76.4206C98.7999 76.6198 98.5674 76.7505 98.312 76.7872C98.0061 76.84 97.6915 76.8055 97.4042 76.6878C97.117 76.57 96.8688 76.3737 96.688 76.1213C96.514 75.8684 96.4165 75.5715 96.2518 75.314C96.0017 74.9699 95.694 74.6717 95.3424 74.4323C94.9921 74.1916 94.6833 73.8954 94.4283 73.5554C94.3081 73.3881 94.2295 73.1946 94.1988 72.9909C94.1681 72.7871 94.1864 72.5791 94.252 72.3838C94.2201 72.4309 94.1921 72.4805 94.1685 72.5323C94.0907 72.7372 94.0648 72.9582 94.0932 73.1756C94.1215 73.3929 94.2032 73.5999 94.3309 73.7781C94.5881 74.1282 94.9017 74.4332 95.2589 74.6806C95.6188 74.9283 95.9329 75.2368 96.1869 75.5923C96.3539 75.8568 96.456 76.1631 96.6323 76.4229C96.8142 76.6833 97.0661 76.8868 97.3588 77.01C97.6515 77.1331 97.9731 77.1709 98.2865 77.1189C98.5477 77.08 98.7851 76.9452 98.9523 76.7407C99.1021 76.5038 99.1698 76.2242 99.1449 75.945C99.1541 75.9079 99.1518 75.8777 99.1495 75.8475Z" fill="#263238"/>
<path d="M98.7324 74.1123C98.3101 73.3769 97.4448 72.841 96.7743 72.319C96.4093 72.0008 95.9594 71.796 95.4797 71.7297C95.2401 71.7012 94.9974 71.7447 94.7826 71.8546C94.5677 71.9645 94.3905 72.1358 94.2733 72.3468C94.2733 72.3584 94.2733 72.3723 94.2571 72.3839C94.1915 72.5792 94.1733 72.7873 94.2039 72.991C94.2346 73.1947 94.3132 73.3882 94.4334 73.5555C94.6884 73.8956 94.9972 74.1918 95.3475 74.4325C95.6991 74.6718 96.0068 74.9701 96.2569 75.3141C96.4216 75.5716 96.5191 75.8686 96.6931 76.1215C96.8739 76.3738 97.1221 76.5702 97.4093 76.6879C97.6966 76.8057 98.0112 76.8401 98.3171 76.7873C98.5725 76.7507 98.805 76.6199 98.969 76.4207C99.0851 76.2517 99.1496 76.0527 99.1546 75.8477C99.1581 75.7812 99.1581 75.7146 99.1546 75.6482C99.1435 75.1091 98.9984 74.5813 98.7324 74.1123Z" fill="#37474F"/>
<path d="M96.9082 73.4744V74.7318C97.217 74.8763 97.5563 74.9438 97.8969 74.9284C98.2376 74.9131 98.5694 74.8153 98.864 74.6436L98.9823 73.5138L96.9082 73.4744Z" fill="#FFA8A7"/>
<path d="M99.3117 50.6758C99.6876 51.8056 99.2235 57.1718 99.0055 62.3291C99.8221 64.2779 99.6017 69.8065 99.1308 73.7343C99.1308 73.7343 98.3141 74.2354 96.8363 73.7343L94.9803 62.8952L94.7251 56.7681C94.7251 56.7681 94.2611 62.2039 93.7251 65.6908C94.2263 68.3611 94.101 68.8646 92.8598 77.0774C92.428 77.2948 91.9513 77.4081 91.4678 77.4081C90.9843 77.4081 90.5076 77.2948 90.0758 77.0774C89.3798 65.5377 89.6327 55.0211 89.7649 51.2395L99.3117 50.6758Z" fill="#455A64"/>
<path d="M89.5527 42.0035V51.5549C95.1764 53.9097 98.8188 51.7869 99.3153 50.6757C99.0555 46.7873 99.9742 42.2401 99.9046 40.3076C99.835 38.375 99.596 36.1989 96.6009 36.635L93.4155 36.9459L91.7915 37.338L89.5527 42.0035Z" fill="#EF233C"/>
<path d="M91.5192 29.5149C90.8371 29.2574 90.169 28.2761 90.8534 27.8445C91.0436 27.703 91.5981 27.8677 92.0458 27.8445C91.6538 27.4896 91.5586 27.065 91.7558 26.9328C91.953 26.8005 92.4797 27.3017 93.4332 27.2065C94.3867 27.1114 97.6742 26.0465 98.0871 28.457C98.134 28.3743 98.1989 28.3032 98.277 28.2491C98.3552 28.195 98.4446 28.1593 98.5385 28.1446C98.6324 28.1298 98.7284 28.1365 98.8194 28.1641C98.9104 28.1917 98.9939 28.2395 99.0638 28.3039L98.3678 28.7679C99.3817 30.1924 99.0522 31.8419 96.5977 35.1015C96.313 35.4499 95.9083 35.6793 95.4632 35.7445C95.018 35.8098 94.5645 35.7062 94.1918 35.4541L93.178 32.9555L92.1897 31.7537L91.5192 29.5149Z" fill="#263238"/>
<path d="M91.2917 31.5103L90.6328 32.6587L91.3543 32.9255L91.2917 31.5103Z" fill="#F28F8F"/>
<path d="M91.5186 29.5149C91.0809 31.1026 91.0166 32.7701 91.3307 34.3869C91.3651 34.6656 91.4688 34.9312 91.6323 35.1595C91.8508 35.3931 92.1525 35.5315 92.4721 35.5446C92.7879 35.556 93.1039 35.5256 93.4117 35.4541V36.9459C94.5439 37.2127 95.7085 37.3194 96.5971 36.635V35.1084C95.9579 35.3132 95.2778 35.3554 94.6181 35.2314C93.8363 34.8091 93.6901 33.3754 93.7899 33.0042C93.8595 33.0962 93.9548 33.1656 94.0638 33.2036C94.1728 33.2416 94.2906 33.2465 94.4024 33.2176C94.51 33.1882 94.6105 33.1373 94.6978 33.0679C94.7852 32.9985 94.8575 32.9121 94.9104 32.8139C95.0136 32.617 95.0774 32.4019 95.0984 32.1806C95.155 31.913 95.1138 31.634 94.9824 31.3941C94.8827 31.26 94.7444 31.1594 94.586 31.106C94.4277 31.0525 94.2568 31.0486 94.0961 31.0948C93.9371 31.1448 93.7895 31.2257 93.6617 31.3328C93.5339 31.4398 93.4285 31.571 93.3514 31.7189C93.299 31.8099 93.2547 31.9054 93.2192 32.0043C93.2063 32.0431 93.1803 32.0763 93.1457 32.0981C93.1111 32.1199 93.0699 32.129 93.0293 32.1238C92.9887 32.1186 92.9512 32.0994 92.9232 32.0695C92.8952 32.0397 92.8784 32.001 92.8758 31.9602C92.8378 31.5307 92.918 31.0991 93.1078 30.712C92.9785 30.6988 92.8539 30.6567 92.743 30.5888C92.6322 30.521 92.538 30.4291 92.4675 30.3199C92.393 30.2181 92.3431 30.1003 92.3218 29.9759C92.3005 29.8516 92.3082 29.7239 92.3445 29.6031C92.0662 29.622 91.7867 29.5921 91.5186 29.5149Z" fill="#FFA8A7"/>
<path opacity="0.2" d="M94.8885 60.4984L94.6797 55.5035C95.9696 55.5035 97.169 54.5383 98.0785 53.6243C97.2038 55.1833 95.5079 55.8747 95.5079 55.8747L94.8885 60.4984Z" fill="black"/>
<path d="M89.5519 48.7941V46.0101L90.5101 44.2005L87.6217 42.4048L86.0951 45.4997C85.9724 45.7479 85.906 46.0202 85.9007 46.2971C85.8955 46.574 85.9515 46.8487 86.0648 47.1014C86.1781 47.3541 86.3458 47.5786 86.556 47.759C86.7662 47.9393 87.0136 48.0709 87.2806 48.1445L89.5519 48.7941Z" fill="#FFA8A7"/>
<path d="M89.5505 46.0125L88.5645 47.4601L89.5505 47.0472V46.0125Z" fill="#F28F8F"/>
<path d="M91.7952 37.3379L91.0668 37.4423C90.5725 37.5137 90.1046 37.7102 89.7076 38.013C89.3105 38.3159 88.9973 38.7152 88.7978 39.173L87.248 42.7481C88.4428 44.6528 90.742 44.509 90.742 44.509L92.3103 41.4745C92.6494 40.8153 92.7817 40.0691 92.6898 39.3335C92.5979 38.598 92.2861 37.9073 91.7952 37.3518V37.3379Z" fill="#37474F"/>
<path d="M74.0449 31.9603L74.8198 31.385C75.0612 31.2061 75.2445 30.96 75.3464 30.6774L75.5297 30.1739C75.6573 29.8277 75.883 29.5262 76.1793 29.3062C76.622 28.9775 77.0211 28.594 77.3672 28.1648C77.4784 28.2863 77.5442 28.4425 77.5535 28.6069C77.5628 28.7714 77.515 28.934 77.4182 29.0673C77.2762 29.2594 77.1212 29.4416 76.9542 29.6125L77.3811 29.6403C77.6893 29.6625 77.9967 29.5879 78.2604 29.4269L79.3438 28.768C79.3749 28.7492 79.4105 28.739 79.4468 28.7383C79.4832 28.7376 79.519 28.7466 79.5508 28.7642C79.5826 28.7819 79.6092 28.8076 79.6278 28.8389C79.6464 28.8701 79.6565 28.9056 79.657 28.942C79.6417 29.4787 79.5358 30.0089 79.3438 30.5103C79.2552 30.7489 79.116 30.9656 78.9358 31.1454C78.7556 31.3252 78.5386 31.4639 78.2998 31.552C77.7244 31.7724 77.1653 31.9626 76.8452 32.0694C76.663 32.1303 76.4915 32.2195 76.3371 32.3338L75.198 33.176L74.0449 31.9603Z" fill="#FFA8A7"/>
<path d="M74.8872 31.2109L73.9082 31.842C73.9399 32.2065 74.0754 32.5543 74.2987 32.8442C74.5219 33.1341 74.8236 33.3539 75.168 33.4776L76.0658 32.6285C76.0658 32.6285 75.2004 32.4939 74.8872 31.2109Z" fill="#37474F"/>
<path d="M74.2716 32.8093C74.0661 32.525 73.9404 32.191 73.9074 31.8418L70.8496 33.8162L69.0446 28.7678C68.926 28.4374 68.7186 28.1461 68.4452 27.9259C68.1718 27.7057 67.843 27.5652 67.4949 27.5197L66.6133 27.406L67.4346 33.3197L68.8405 36.1385C68.9664 36.3907 69.1476 36.6113 69.3704 36.784C69.5933 36.9566 69.8522 37.0768 70.128 37.1356C70.4037 37.1945 70.6891 37.1904 70.963 37.1238C71.237 37.0573 71.4924 36.9298 71.7103 36.751L75.1671 33.4774C74.8101 33.3464 74.4989 33.1143 74.2716 32.8093Z" fill="#455A64"/>
<path d="M70.5275 65.874C70.3384 66.0561 70.1135 66.197 69.8671 66.2876C69.6207 66.3783 69.3581 66.4168 69.0961 66.4006C68.5731 66.3654 68.0608 66.2365 67.5834 66.0201C67.1009 65.8206 66.493 65.2638 65.9594 65.2731C65.4481 65.2698 64.9375 65.2349 64.4305 65.1687C64.4121 64.4717 64.4846 63.7752 64.6463 63.0969L67.0893 63.032C67.7481 63.9345 69.0311 64.6861 70.0009 64.9692C70.15 65.0111 70.285 65.0929 70.3913 65.2057C70.4975 65.3185 70.5711 65.4581 70.6041 65.6095C70.6053 65.6148 70.6053 65.6204 70.6041 65.6257C70.5903 65.7117 70.5645 65.7952 70.5275 65.874Z" fill="#455A64"/>
<path d="M65.9586 65.2731C66.4829 65.2731 67.0907 65.8206 67.5826 66.0201C68.0599 66.2365 68.5723 66.3654 69.0952 66.4006C69.3573 66.4168 69.6198 66.3783 69.8662 66.2876C70.1126 66.197 70.3375 66.0561 70.5266 65.874C70.5661 65.7956 70.5942 65.712 70.6102 65.6257C70.6114 65.6204 70.6114 65.6148 70.6102 65.6095C70.6334 65.7173 70.6334 65.8288 70.6102 65.9366C70.5936 66.0227 70.5655 66.1063 70.5266 66.1849C70.3369 66.3661 70.1119 66.5063 69.8657 66.5969C69.6194 66.6875 69.3572 66.7265 69.0952 66.7115C68.572 66.6766 68.0594 66.5469 67.5826 66.3287C67.1 66.1292 66.4922 65.5724 65.9586 65.584C65.4553 65.588 64.9523 65.5586 64.4529 65.4958C64.4413 65.3868 64.4343 65.2777 64.4297 65.1687C64.9367 65.2349 65.4473 65.2698 65.9586 65.2731Z" fill="#263238"/>
<path d="M59.0636 66.1036C59.0618 66.3522 59.0859 66.6002 59.1355 66.8437C59.2141 67.2777 59.4566 67.6649 59.813 67.9248C60.141 68.1119 60.5118 68.211 60.8894 68.2125C61.2216 68.2465 61.5572 68.2118 61.8754 68.1104C62.1141 68.0251 62.3169 67.8616 62.4508 67.6464C62.4522 67.6502 62.4522 67.6543 62.4508 67.658C62.4048 67.8191 62.3204 67.9666 62.2048 68.0878C62.0892 68.209 61.9459 68.3004 61.7873 68.354C61.4701 68.4565 61.135 68.4913 60.8036 68.4561C60.4259 68.4552 60.0549 68.356 59.7271 68.1684C59.3713 67.909 59.1288 67.5228 59.0497 67.0896C58.9994 66.8454 58.9745 66.5966 58.9754 66.3472C58.9748 66.1773 58.9392 66.0093 58.871 65.8537C58.8027 65.698 58.7033 65.5581 58.5787 65.4424C58.5184 65.3844 58.4604 65.3264 58.407 65.2638C58.3685 65.22 58.3391 65.1689 58.3208 65.1134C58.3025 65.058 58.2955 64.9995 58.3003 64.9413C58.3003 64.8949 58.3003 64.8485 58.3142 64.8044C58.4047 64.9088 58.6158 65.1594 58.6692 65.2104C58.7915 65.3253 58.8894 65.4635 58.9572 65.617C59.0249 65.7704 59.0611 65.9359 59.0636 66.1036Z" fill="#263238"/>
<path d="M60.9318 63.5239C60.8518 64.0322 60.9177 64.5527 61.122 65.025C61.3275 65.4941 61.5951 65.9334 61.9178 66.3311C62.0753 66.52 62.2143 66.7236 62.3331 66.939C62.4498 67.151 62.4915 67.3963 62.4514 67.635C62.3175 67.8501 62.1147 68.0137 61.876 68.099C61.5578 68.2003 61.2222 68.235 60.89 68.201C60.5124 68.1996 60.1416 68.1005 59.8135 67.9134C59.4572 67.6534 59.2147 67.2663 59.1361 66.8322C59.0865 66.5887 59.0624 66.3407 59.0642 66.0922C59.063 65.9223 59.0272 65.7545 58.959 65.5989C58.8908 65.4434 58.7916 65.3033 58.6675 65.1874C58.6141 65.1363 58.403 64.8858 58.3125 64.7814C58.3622 64.4113 58.4869 64.0552 58.6791 63.735L60.9318 63.5239Z" fill="#455A64"/>
<path d="M68.1468 39.396L67.9449 53.3299L67.286 63.0739C65.6226 64.1272 64.4162 63.2642 64.4162 63.2642C63.7852 58.645 63.6993 55.8054 64.045 53.8821L63.7295 46.363L62.7806 54.1674L61.1891 63.7374C59.4816 64.8441 58.2752 63.7374 58.2752 63.7374C58.2752 60.1948 57.9596 56.2346 58.9364 53.6802C58.5191 48.9615 58.6749 44.2095 59.4004 39.5282L68.1468 39.396Z" fill="#263238"/>
<path opacity="0.3" d="M64.0785 43.4999L63.7305 46.3697L63.8766 49.8915L64.5193 44.0915C66.0041 43.5091 66.1966 42.6995 66.1966 42.6995C65.5688 43.1396 64.8405 43.4149 64.0785 43.4999Z" fill="black"/>
<path d="M64.9842 27.2297L66.6082 27.4014C67.9422 28.5777 68.6313 31.0461 68.3436 33.7721C68.1671 35.6412 68.0997 37.5189 68.1418 39.3958C64.5272 42.036 59.9638 40.115 59.3907 39.5397L59.6575 36.1989C59.6878 35.8223 59.6257 35.444 59.4766 35.0969C59.1332 34.3034 58.5254 32.7444 58.4442 31.5333C58.3947 30.4563 58.6215 29.3845 59.103 28.4199L61.4787 27.3875L64.9842 27.2297Z" fill="#37474F"/>
<path d="M59.4814 35.097C59.0342 34.1001 58.7049 33.0544 58.5 31.9812C58.8364 32.183 59.196 32.3826 59.3306 32.719C59.7759 33.7979 59.8922 34.9845 59.6646 36.1294C59.6831 35.7757 59.6204 35.4226 59.4814 35.097Z" fill="#37474F"/>
<path d="M65.4379 29.6055C66.2742 31.6224 66.7288 33.7771 66.7788 35.9599L66.12 37.4099L65.069 36.0319C65.1501 33.92 65.1075 31.8052 64.9414 29.6983L65.4379 29.6055Z" fill="#EF233C"/>
<path d="M65.4933 28.4199C65.5226 28.8159 65.5039 29.214 65.4376 29.6054C65.2799 29.682 65.1042 29.714 64.9296 29.6982C64.6093 29.414 64.3346 29.0823 64.1152 28.7146L64.9296 28.4199H65.4933Z" fill="#EF233C"/>
<path d="M64.9287 28.4198C64.2327 28.6797 63.604 29.9278 63.604 29.9278C61.7619 28.3642 61.4766 27.3758 61.4766 27.3758C61.7022 27.0056 62.0527 26.7283 62.4649 26.594L64.9287 28.4198Z" fill="#37474F"/>
<path d="M64.9297 28.4199C65.4656 28.4338 65.9389 29.1808 65.9389 29.1808C66.0247 27.8747 64.9297 26.8608 64.9297 26.8608V28.4199Z" fill="#37474F"/>
<path d="M62.4238 25.144L64.9294 26.0396V26.9676C64.3654 26.8873 63.8242 26.6905 63.3402 26.3899C62.9072 26.0855 62.5854 25.6481 62.4238 25.144Z" fill="#F28F8F"/>
<path d="M62.4231 25.1442C62.5847 25.6482 62.9065 26.0857 63.3395 26.39C63.8235 26.6907 64.3647 26.8874 64.9287 26.9677V28.42C64.9287 28.42 62.2793 27.2299 62.2793 26.6707V25.0908L62.4231 25.1442Z" fill="#FFA8A7"/>
<path d="M67.2516 21.4669C67.6077 21.4793 67.9567 21.3659 68.2376 21.1468C68.3971 21.0196 68.5296 20.8618 68.6274 20.6828C68.6456 20.6474 68.6534 20.6076 68.6497 20.5679C68.6461 20.5283 68.6312 20.4906 68.6068 20.4591C68.5824 20.4277 68.5496 20.4039 68.5121 20.3905C68.4747 20.377 68.4341 20.3746 68.3954 20.3835C68.2028 20.4182 68.0056 20.4182 67.813 20.3835C68.0345 20.0945 68.1963 19.7643 68.2891 19.4123C68.3818 19.0602 68.4038 18.6932 68.3536 18.3326C68.3474 18.2925 68.332 18.2545 68.3085 18.2214C68.2849 18.1884 68.254 18.1613 68.2182 18.1424C68.1823 18.1235 68.1425 18.1132 68.102 18.1124C68.0615 18.1115 68.0213 18.1202 67.9847 18.1377C67.1929 18.5384 66.3096 18.724 65.4234 18.676C64.9594 18.6412 64.4838 18.5414 64.0106 18.5043C63.5358 18.4475 63.0545 18.5213 62.6186 18.7177C62.4029 18.8183 62.2186 18.9753 62.085 19.1722C61.9514 19.3691 61.8737 19.5984 61.8599 19.836C61.8063 19.7603 61.7372 19.697 61.6572 19.6502C61.5772 19.6034 61.4881 19.5742 61.3959 19.5645C61.2984 19.5522 61.1994 19.5603 61.1051 19.5882C61.0109 19.6162 60.9234 19.6634 60.8484 19.7269C61.1222 19.8754 61.389 20.0285 61.6627 20.177C61.382 20.0772 61.0294 20.2976 60.8902 20.5598C60.7703 20.8341 60.7185 21.1334 60.7394 21.4321C60.7211 21.8273 60.7389 22.2234 60.7927 22.6153C60.8454 23.0092 60.9997 23.3826 61.2405 23.6988C61.4521 23.9585 61.7352 24.1505 62.0548 24.2509C62.4904 24.3717 62.9524 24.3572 63.3795 24.2092C63.8028 24.0606 64.2057 23.8595 64.579 23.6106C65.5334 22.9792 66.4281 22.2616 67.2516 21.4669Z" fill="#E0E0E0"/>
<path d="M67.3123 20.6781C67.586 22.3193 67.4055 24.0041 66.7903 25.5501C66.68 25.9247 66.4472 26.2515 66.1291 26.4781C65.7811 26.6776 65.3473 26.6359 64.9506 26.5755C64.3078 26.5014 63.6811 26.3244 63.0946 26.0512C62.5017 25.7703 62.0397 25.2718 61.8047 24.6592C61.5937 24.7022 61.3747 24.6833 61.1742 24.6047C60.9738 24.5261 60.8003 24.3911 60.6748 24.2161C60.4221 23.8497 60.2914 23.4129 60.3013 22.9679C60.3013 22.6895 60.3523 22.3601 60.6029 22.2371C60.7271 22.1966 60.8602 22.1919 60.987 22.2235C61.1138 22.2551 61.2291 22.3217 61.3198 22.4158C61.6515 22.6859 61.894 23.0497 62.0158 23.4598C62.1991 22.78 62.4798 22.1235 62.67 21.4437C62.7142 21.1715 62.8551 20.9244 63.0667 20.7477C63.3521 20.5644 63.7233 20.6688 64.0527 20.7477C65.1274 21.0033 66.2496 20.9793 67.3123 20.6781Z" fill="#FFA8A7"/>
<path d="M65.3309 22.7429L66.1243 24.0816L65.1777 24.2579L65.3309 22.7429Z" fill="#F28F8F"/>
<path d="M64.264 24.7195L64.9855 25.0698C64.9245 25.1528 64.8376 25.2132 64.7384 25.2413C64.6393 25.2695 64.5336 25.2638 64.438 25.2252C64.3554 25.1737 64.2931 25.0953 64.2614 25.0032C64.2297 24.9111 64.2306 24.811 64.264 24.7195Z" fill="#F28F8F"/>
<path opacity="0.3" d="M64.264 24.7195L64.9855 25.0698C64.9245 25.1528 64.8376 25.2132 64.7384 25.2413C64.6393 25.2695 64.5336 25.2638 64.438 25.2252C64.3554 25.1737 64.2931 25.0953 64.2614 25.0032C64.2297 24.9111 64.2306 24.811 64.264 24.7195Z" fill="black"/>
<path d="M64.6877 25.2486C64.6038 25.267 64.5163 25.2589 64.4372 25.2254C64.3716 25.1882 64.3183 25.1325 64.2841 25.0652C64.2499 24.998 64.2362 24.9222 64.2446 24.8472C64.3557 24.8451 64.4634 24.8855 64.5458 24.9601C64.6281 25.0346 64.6789 25.1379 64.6877 25.2486Z" fill="#F28F8F"/>
<path d="M63.9565 22.7962C63.951 22.8499 63.9614 22.9039 63.9865 22.9516C64.0116 22.9993 64.0501 23.0386 64.0974 23.0644C64.1447 23.0903 64.1986 23.1017 64.2522 23.0971C64.3059 23.0924 64.3571 23.0721 64.3993 23.0385C64.4414 23.005 64.4728 22.9597 64.4893 22.9085C64.5059 22.8572 64.507 22.8021 64.4924 22.7503C64.4778 22.6984 64.4483 22.6519 64.4074 22.6168C64.3666 22.5816 64.3162 22.5593 64.2628 22.5526C64.2266 22.5481 64.1899 22.5509 64.1548 22.5607C64.1197 22.5706 64.0869 22.5874 64.0584 22.6101C64.0299 22.6327 64.0062 22.6609 63.9887 22.6929C63.9712 22.7248 63.9603 22.76 63.9565 22.7962Z" fill="#263238"/>
<path d="M66.2398 22.9378C66.2341 22.9917 66.2445 23.0461 66.2698 23.0941C66.295 23.1421 66.334 23.1815 66.3816 23.2073C66.4293 23.2332 66.4836 23.2443 66.5376 23.2392C66.5915 23.2341 66.6428 23.2132 66.6849 23.179C66.7269 23.1447 66.7579 23.0988 66.7738 23.0469C66.7897 22.9951 66.7898 22.9397 66.7742 22.8878C66.7586 22.8359 66.7279 22.7898 66.6861 22.7553C66.6442 22.7208 66.593 22.6996 66.5391 22.6942C66.4671 22.6871 66.3953 22.7087 66.3392 22.7543C66.2832 22.8 66.2474 22.8659 66.2398 22.9378Z" fill="#263238"/>
<path d="M66.6133 21.8867L67.1701 22.3507C67.2036 22.2787 67.2144 22.1982 67.2011 22.1199C67.1879 22.0416 67.1512 21.9692 67.0958 21.9122C67.0255 21.8641 66.9433 21.8362 66.8581 21.8317C66.773 21.8272 66.6883 21.8462 66.6133 21.8867Z" fill="#E0E0E0"/>
<path d="M64.2956 21.6201L63.6529 21.975C63.6349 21.8981 63.6405 21.8175 63.6691 21.7438C63.6977 21.6701 63.7478 21.6068 63.813 21.5621C63.891 21.5262 63.9773 21.5126 64.0625 21.5228C64.1477 21.5331 64.2284 21.5667 64.2956 21.6201Z" fill="#E0E0E0"/>
<path d="M53.5707 34.3034L52.7053 33.8719C52.4368 33.7379 52.2134 33.5282 52.0627 33.2687L51.7913 32.8047C51.6038 32.4876 51.3281 32.2321 50.9978 32.0692C50.5032 31.8247 50.0417 31.5183 49.6244 31.1575C49.5369 31.2971 49.5003 31.4626 49.5205 31.6262C49.5408 31.7897 49.6168 31.9412 49.7357 32.0553C49.9129 32.2183 50.1013 32.3687 50.2995 32.5054L49.8842 32.6098C49.5852 32.6864 49.2697 32.6677 48.9817 32.5564L47.7962 32.0924C47.7619 32.0786 47.7244 32.0743 47.6877 32.0801C47.6511 32.0859 47.6168 32.1016 47.5884 32.1254C47.5601 32.1493 47.5387 32.1804 47.5267 32.2155C47.5147 32.2505 47.5124 32.2882 47.5201 32.3244C47.628 32.8504 47.8266 33.3537 48.1071 33.8116C48.2354 34.0305 48.4094 34.2192 48.6172 34.3649C48.8249 34.5107 49.0616 34.6099 49.3112 34.656C49.9167 34.7697 50.5013 34.8579 50.8331 34.9066C51.0235 34.9332 51.2084 34.9904 51.3806 35.076L52.652 35.707L53.5707 34.3034Z" fill="#FFA8A7"/>
<path d="M54.3945 35.6351C54.5449 35.2796 54.5969 34.8902 54.5453 34.5076L56.1693 35.2778C56.4669 34.0944 56.6992 32.8954 56.8653 31.6865C57.0602 30.0509 57.0161 28.9512 59.1181 28.4199L59.35 32.7189C59.35 32.7189 59.0925 37.969 57.5845 38.5514C56.3387 39.0316 55.4571 37.8554 53.5547 36.6165C53.9286 36.3831 54.2218 36.0406 54.3945 35.6351Z" fill="#455A64"/>
<path d="M53.0509 33.9788L54.545 34.5077C54.6029 34.9195 54.538 35.3393 54.3585 35.7144C54.179 36.0895 53.8928 36.4034 53.5358 36.6166C53.0994 36.3176 52.6853 35.9873 52.2969 35.6283C52.2969 35.6283 52.9442 35.4009 53.0509 33.9788Z" fill="#37474F"/>
<path d="M67.627 86.5245L84.0966 76.9985L94.815 83.237L78.4938 92.7165L67.627 86.5245Z" fill="#E6B5E4"/>
<path d="M67.627 99.4955V86.5244L78.4938 92.7165V105.769L67.627 99.4955Z" fill="#EF233C"/>
<path d="M78.4941 105.769L94.8153 96.2894V83.2371L78.4941 92.7166V105.769Z" fill="#EF233C"/>
<path opacity="0.3" d="M78.4941 105.769L94.8153 96.2894V83.2371L78.4941 92.7166V105.769Z" fill="black"/>
<path d="M66.375 85.056L84.3643 74.6531L96.0664 81.4669L78.2418 91.8188L66.375 85.056Z" fill="#EF233C"/>
<path d="M66.375 86.7379V85.0559L78.2418 91.8187V93.5889L66.375 86.7379Z" fill="#EF233C"/>
<path d="M78.2422 93.5888L96.0667 83.2346V81.4668L78.2422 91.8186V93.5888Z" fill="#EF233C"/>
<path opacity="0.3" d="M66.375 86.7379V85.0559L78.2418 91.8187V93.5889L66.375 86.7379Z" fill="white"/>
<path opacity="0.2" d="M78.2422 93.5888L96.0667 83.2346V81.4668L78.2422 91.8186V93.5888Z" fill="black"/>
<g opacity="0.2">
<path d="M11.4023 27.84L76.998 74.8873L80.137 73.0638L46.1722 7.6189L11.4023 27.84Z" fill="#EF233C"/>
<path d="M76.998 74.8874V77.6969L11.4023 61.8281V27.8401L76.998 74.8874Z" fill="#EF233C"/>
</g>
<path d="M76.5547 75.1447L80.5776 72.8062L81.8721 73.5114L77.7379 75.9034L76.5547 75.1447Z" fill="#37474F"/>
<path d="M76.5547 75.1448V78.5714L77.7124 79.2744L77.7379 75.9034L76.5547 75.1448Z" fill="#263238"/>
<path d="M70.4863 80.0958L83.353 72.6555L91.7236 77.5298L78.9752 84.9353L70.4863 80.0958Z" fill="#455A64"/>
<path d="M78.8281 76.5229L83.5748 73.7783L86.6651 75.5763L81.9601 78.3093L78.8281 76.5229Z" fill="#263238"/>
<path d="M70.4863 84.2091V80.0957L78.9752 84.9352V89.1112L70.4863 84.2091Z" fill="#37474F"/>
<path d="M78.9746 89.1112L91.723 81.7058V77.5298L78.9746 84.9352V89.1112Z" fill="#263238"/>
<path d="M77.8989 86.5893C77.9384 86.6147 77.9714 86.6488 77.9955 86.6891C78.0197 86.7293 78.0343 86.7745 78.0381 86.8213C78.0381 86.9094 77.9755 86.9465 77.8989 86.9025L74.1568 84.7425C74.1175 84.717 74.0845 84.6828 74.0604 84.6426C74.0363 84.6024 74.0216 84.5573 74.0176 84.5105C74.0176 84.4224 74.0802 84.3876 74.1568 84.4317L77.8989 86.5893Z" fill="#263238"/>
<path d="M77.9009 86.0719C77.94 86.0975 77.9727 86.1317 77.9964 86.1719C78.0202 86.2122 78.0343 86.2573 78.0378 86.3039C78.0378 86.3921 77.9751 86.4269 77.8986 86.3828L74.1587 84.2159C74.1192 84.1906 74.086 84.1565 74.0619 84.1163C74.0377 84.076 74.0232 84.0307 74.0195 83.9839C74.0195 83.8958 74.0822 83.861 74.1587 83.9051L77.9009 86.0719Z" fill="#263238"/>
<path d="M77.895 87.1137C77.9345 87.1391 77.9675 87.1733 77.9916 87.2135C78.0158 87.2537 78.0303 87.2989 78.0342 87.3457C78.0342 87.4338 77.9716 87.471 77.895 87.4269L74.1529 85.267C74.1138 85.2412 74.081 85.2069 74.0569 85.1668C74.0328 85.1266 74.0181 85.0816 74.0137 85.035C74.0137 84.9468 74.0786 84.912 74.1552 84.9561L77.895 87.1137Z" fill="#263238"/>
<path d="M77.9007 85.5408C77.94 85.5663 77.973 85.6005 77.9971 85.6407C78.0212 85.6809 78.0359 85.7261 78.0399 85.7728C78.0399 85.8609 77.9773 85.8957 77.9007 85.8516L74.1586 83.6917C74.1191 83.6663 74.0861 83.6322 74.062 83.5919C74.0378 83.5517 74.0232 83.5065 74.0194 83.4597C74.0157 83.442 74.0177 83.4236 74.0251 83.4071C74.0326 83.3906 74.045 83.3768 74.0607 83.3678C74.0764 83.3588 74.0945 83.355 74.1125 83.3569C74.1305 83.3589 74.1474 83.3664 74.1609 83.3785L77.9007 85.5408Z" fill="#263238"/>
<path d="M80.0513 86.5894C80.0119 86.6148 79.9788 86.6489 79.9547 86.6892C79.9306 86.7294 79.916 86.7746 79.9121 86.8214C79.9121 86.9095 79.9747 86.9467 80.0513 86.9026L85.1878 83.9283C85.2272 83.9029 85.2603 83.8688 85.2844 83.8285C85.3085 83.7883 85.3231 83.7431 85.327 83.6963C85.327 83.6082 85.2643 83.5734 85.1878 83.6175L80.0513 86.5894Z" fill="black"/>
<path d="M80.0392 86.0721C80.0001 86.0976 79.9674 86.1318 79.9437 86.1721C79.9199 86.2123 79.9058 86.2575 79.9023 86.3041C79.9023 86.3922 79.965 86.427 80.0415 86.3829L85.178 83.4087C85.2175 83.3836 85.2505 83.3494 85.2743 83.3091C85.2981 83.2688 85.312 83.2234 85.3149 83.1767C85.3149 83.0885 85.2523 83.0514 85.1757 83.0955L80.0392 86.0721Z" fill="black"/>
<path d="M80.0533 87.1138C80.0135 87.1388 79.9801 87.1729 79.9559 87.2132C79.9318 87.2535 79.9174 87.2989 79.9141 87.3458C79.9141 87.434 79.9767 87.4711 80.0533 87.427L85.1897 84.4528C85.229 84.4272 85.262 84.393 85.2861 84.3528C85.3102 84.3126 85.3249 84.2675 85.3289 84.2208C85.3289 84.1326 85.2663 84.0978 85.1874 84.1419L80.0533 87.1138Z" fill="black"/>
<path d="M80.0396 85.5407C80 85.566 79.9669 85.6001 79.9428 85.6403C79.9186 85.6806 79.9041 85.7259 79.9004 85.7727C79.9004 85.8608 79.963 85.8956 80.0396 85.8516L85.1761 82.8773C85.2155 82.8519 85.2485 82.8177 85.2727 82.7775C85.2968 82.7373 85.3114 82.6921 85.3153 82.6453C85.3153 82.5572 85.2526 82.5224 85.1761 82.5664L80.0396 85.5407Z" fill="black"/>
<path d="M86.0259 83.1465C85.9865 83.1719 85.9534 83.2061 85.9293 83.2463C85.9052 83.2865 85.8906 83.3318 85.8867 83.3785C85.8867 83.4667 85.9494 83.5038 86.0259 83.4597L91.1624 80.504C91.2017 80.4785 91.2347 80.4443 91.2588 80.4041C91.2829 80.3639 91.2975 80.3187 91.3016 80.272C91.3016 80.1839 91.239 80.1491 91.1624 80.1931L86.0259 83.1465Z" fill="black"/>
<path d="M86.0236 82.6222C85.9844 82.6477 85.9516 82.6818 85.9278 82.7221C85.9041 82.7624 85.89 82.8076 85.8867 82.8542C85.8867 82.9447 85.9494 82.9795 86.0259 82.9354L91.1624 79.9612C91.2019 79.9361 91.2349 79.9019 91.2587 79.8616C91.2824 79.8213 91.2964 79.7759 91.2993 79.7292C91.2993 79.641 91.2366 79.6039 91.1601 79.648L86.0236 82.6222Z" fill="black"/>
<path d="M86.0279 83.6708C85.9881 83.6958 85.9547 83.7299 85.9306 83.7702C85.9064 83.8105 85.892 83.8559 85.8887 83.9028C85.8887 83.991 85.9513 84.0281 86.0279 83.984L91.176 81.0167C91.2153 80.9912 91.2482 80.957 91.2723 80.9168C91.2965 80.8766 91.3111 80.8314 91.3152 80.7847C91.3152 80.6966 91.2525 80.6618 91.1736 80.7058L86.0279 83.6708Z" fill="black"/>
<path d="M86.022 82.0978C85.9827 82.1234 85.9497 82.1576 85.9256 82.1978C85.9015 82.238 85.8869 82.2831 85.8828 82.3298C85.8828 82.418 85.9455 82.4528 86.022 82.4087L91.1585 79.4345C91.1979 79.4091 91.231 79.3749 91.2551 79.3347C91.2792 79.2945 91.2938 79.2492 91.2977 79.2025C91.2977 79.1143 91.2351 79.0772 91.1585 79.1236L86.022 82.0978Z" fill="black"/>
<path d="M39.8753 93.5981C40.8061 94.5233 41.9664 95.1839 43.237 95.5121C43.6013 95.6049 44.0305 95.7163 44.165 96.0689C44.2996 96.4216 44.0699 96.7649 43.7869 96.9969C43.311 97.3192 42.731 97.4501 42.1629 97.3635C41.6051 97.2733 41.06 97.1176 40.5389 96.8995C40.0144 96.6841 39.4622 96.5435 38.8986 96.4819C38.6312 96.4804 38.364 96.4649 38.0982 96.4355C37.9653 96.4196 37.8371 96.3764 37.7217 96.3085C37.6063 96.2406 37.5062 96.1496 37.4277 96.0411C37.4277 94.4171 37.85 93.8278 37.85 93.8278L39.8753 93.5981Z" fill="#37474F"/>
<path d="M39.9047 92.8767V93.981C39.1623 94.793 37.9837 94.2525 37.8399 93.821L37.8027 92.8767H39.9047Z" fill="#8C4C4C"/>
<path d="M34.3646 88.9187C35.6846 87.7262 36.4178 87.7726 36.7356 88.0116C37.0534 88.2505 37.6265 89.0138 36.1626 90.3037C34.6986 91.5936 34.81 92.3917 33.7915 92.3917C32.773 92.3917 32.9633 91.3732 32.9633 91.3732C32.9754 91.0202 33.0291 90.6697 33.1234 90.3292L34.3646 88.9187Z" fill="#37474F"/>
<path d="M34.8422 89.6842V90.4638C34.2204 90.9974 33.1787 90.6958 33.123 90.3269L33.1764 89.552L34.8422 89.6842Z" fill="#8C4C4C"/>
<path d="M40.8908 68.0062L41.4615 81.5666L39.9048 92.8766C39.0765 93.4079 37.8029 92.8766 37.8029 92.8766C37.6335 89.3966 36.8749 84.4619 37.4734 81.8218L36.3273 74.5324L35.9608 80.388C35.8958 83.8263 35.0049 87.4872 34.8472 89.6843C34.5767 89.7892 34.2861 89.8318 33.9969 89.8089C33.7077 89.786 33.4274 89.6982 33.1768 89.552C32.6617 84.9793 31.6433 82.5155 32.62 79.2489C31.9402 73.0939 31.3602 69.2729 32.214 67.7139L40.8908 68.0062Z" fill="#455A64"/>
<path opacity="0.2" d="M36.1186 73.1427L36.3366 74.5347L36.2183 76.3907L35.7798 73.493C35.3948 73.4422 35.0257 73.3075 34.6985 73.0982C34.3714 72.8889 34.0942 72.6103 33.8867 72.282C34.5484 72.7484 35.3151 73.044 36.1186 73.1427Z" fill="black"/>
<path d="M38.2552 55.3065L34.2555 54.7705C32.5828 54.6081 31.8636 56.4456 31.8868 58.1415C31.8984 59.1414 32.5828 62.9485 32.9122 65.5655C32.251 67.1593 31.5898 69.1986 31.5898 70.4862C34.6337 73.0893 40.3177 71.2054 40.9905 70.4166C40.9905 66.2406 40.6726 59.9488 40.6726 59.9488L38.2552 55.3065Z" fill="#F5F5F5"/>
<path d="M40.3865 50.481L41.0106 51.5667L40.3262 51.8196L40.3865 50.481Z" fill="#632C2C"/>
<path d="M40.4566 49.9961C40.3568 49.0426 40.0784 48.1401 39.4567 47.6877C39.6237 48.8731 39.3709 50.0795 38.7421 51.0981C38.6792 50.7831 38.5165 50.4968 38.2781 50.2815C38.1625 50.1701 38.018 50.0932 37.861 50.0596C37.704 50.0259 37.5407 50.0369 37.3895 50.0913C37.1837 50.19 37.0241 50.3646 36.9441 50.5785C36.8624 50.7839 36.8411 51.0084 36.8828 51.2255C36.9244 51.4426 37.0272 51.6433 37.1791 51.804C37.3309 51.9646 37.5256 52.0785 37.74 52.1323C37.9544 52.186 38.1798 52.1774 38.3895 52.1073C38.3043 52.5308 38.0973 52.9201 37.794 53.2275C37.4906 53.535 37.1042 53.7472 36.6819 53.8381C36.1258 53.9517 35.5485 53.8976 35.0231 53.6826L34.7656 54.9656C35.8119 56.0815 37.5983 55.3321 37.5983 55.3321L37.8303 54.0677C39.8882 54.1907 40.0807 54.1559 40.3058 53.0214C40.495 52.0247 40.5458 51.0067 40.4566 49.9961Z" fill="#8C4C4C"/>
<path d="M40.7027 47.7109C40.5176 47.2923 40.2475 46.9167 39.9097 46.608C39.5718 46.2993 39.1735 46.0642 38.7399 45.9175C37.8702 45.6289 36.943 45.558 36.0395 45.711C35.4747 45.7746 34.9253 45.9355 34.4155 46.1866C33.9028 46.4471 33.4855 46.8628 33.223 47.3745L33.1163 46.4975C33.0089 46.5224 32.9098 46.5745 32.8285 46.6489C32.7473 46.7233 32.6865 46.8174 32.6523 46.9221C32.6235 47.034 32.623 47.1514 32.651 47.2636C32.6789 47.3758 32.7344 47.4793 32.8123 47.5647H32.7311C32.3687 47.5647 32.0098 47.6361 31.675 47.7749C31.3402 47.9137 31.036 48.1171 30.7798 48.3735C30.5236 48.6299 30.3205 48.9342 30.182 49.2692C30.0435 49.6041 29.9724 49.9631 29.9727 50.3255V55.0096C30.6909 55.009 31.3796 54.7232 31.8872 54.2151C32.3949 53.707 32.6801 53.0181 32.6801 52.2998V51.2233C33.0194 52.0211 33.5559 52.7196 34.2391 53.2533C34.481 53.4295 34.7445 53.5738 35.0233 53.6825C35.5486 53.8975 36.126 53.9516 36.6821 53.838C37.1043 53.7471 37.4908 53.5349 37.7941 53.2274C38.0975 52.92 38.3044 52.5307 38.3896 52.1073C38.1799 52.1773 37.9546 52.1859 37.7402 52.1322C37.5257 52.0784 37.3311 51.9645 37.1792 51.8039C37.0273 51.6432 36.9245 51.4425 36.8829 51.2254C36.8413 51.0083 36.8626 50.7838 36.9443 50.5784C37.0242 50.3645 37.1839 50.19 37.3897 50.0912C37.5408 50.0368 37.7041 50.0259 37.8611 50.0595C38.0182 50.0931 38.1626 50.17 38.2783 50.2814C38.5167 50.4967 38.6794 50.783 38.7423 51.0981C39.3711 50.0795 39.6239 48.873 39.4568 47.6877C40.0786 48.1517 40.357 49.0425 40.4567 49.9961C40.6836 49.6652 40.8248 49.2833 40.8677 48.8845C40.9106 48.4856 40.8539 48.0824 40.7027 47.7109Z" fill="#263238"/>
<path d="M38.3086 58.6497L40.7098 60.3873C40.7539 60.9465 40.7771 62.0879 40.8188 63.35C40.4244 62.9045 40.095 62.3454 39.747 61.8605C39.0567 60.8978 38.5675 59.8057 38.3086 58.6497Z" fill="#E6E6E6"/>
<path d="M51.5387 52.0956L48.7292 60.2365L42.9199 57.014L45.6993 48.9636L51.5387 52.0956Z" fill="#EF233C"/>
<path d="M43.7832 56.6845L46.0962 49.9797L50.6736 52.4343L48.335 59.2087L43.7832 56.6845Z" fill="white"/>
<path d="M46.9043 50.4763L49.447 51.8103L49.5584 51.4715L49.0642 51.0377L47.6722 50.3371L47.0365 50.2188L46.9043 50.4763Z" fill="#455A64"/>
<path d="M47.6719 50.3371L47.7809 50.0796L49.1404 50.8081L49.0639 51.0378L47.6719 50.3371Z" fill="#37474F"/>
<path d="M46.9922 49.6551L50.0662 51.307L50.1984 50.9868L47.0966 49.3582L46.9922 49.6551Z" fill="#455A64"/>
<path d="M47.8223 49.7385C48.0914 48.8917 49.6968 49.6897 49.3836 50.5574L47.8223 49.7385Z" fill="#37474F"/>
<path d="M42.5051 58.6659L44.6488 61.4499L48.3747 57.7843C48.5831 57.5797 48.7163 57.3107 48.7529 57.021C48.9315 55.629 49.3166 54.6384 49.8108 54.8124C50.1217 54.9214 49.7226 56.2763 49.7226 56.2763L50.1866 56.0095L50.7272 54.4412H50.9731C51.1015 54.4415 51.2266 54.4817 51.3313 54.556C51.436 54.6304 51.5151 54.7353 51.5577 54.8564L51.7897 55.5269C51.9267 55.9242 51.9331 56.3548 51.8079 56.756C51.6826 57.1571 51.4324 57.5077 51.0937 57.7564L50.2748 58.362C50.1552 58.4545 50.0531 58.5677 49.9732 58.696C48.6805 60.6811 47.2181 62.5503 45.6023 64.2826C45.4205 64.4667 45.1803 64.5818 44.9229 64.608C44.6655 64.6343 44.407 64.5701 44.1917 64.4264C41.9112 62.9184 40.0273 60.3711 40.0273 60.3711L42.5051 58.6659Z" fill="#8C4C4C"/>
<path d="M38.2551 55.3066L38.6194 55.3507C39.2161 55.4228 39.7925 55.6132 40.3148 55.9108C40.837 56.2084 41.2947 56.6071 41.6609 57.0838L44.3915 60.6403C44.3329 61.2632 44.0786 61.8516 43.6653 62.3212C43.2519 62.7909 42.7005 63.1177 42.0901 63.255L39.0903 60.0882C37.522 58.3737 38.2551 55.3066 38.2551 55.3066Z" fill="#EF233C"/>
</svg>
