<svg width="116" height="116" viewBox="0 0 116 116" fill="none" xmlns="http://www.w3.org/2000/svg">
<path d="M104.377 92.4497H96.6934V92.5077H104.377V92.4497Z" fill="#EBEBEB"/>
<path d="M76.8423 93.0808H74.8262V93.1388H76.8423V93.0808Z" fill="#EBEBEB"/>
<path d="M96.4618 90.2966H92.0098V90.3546H96.4618V90.2966Z" fill="#EBEBEB"/>
<path d="M22.19 90.6865H12.1699V90.7445H22.19V90.6865Z" fill="#EBEBEB"/>
<path d="M25.7264 90.6865H24.2578V90.7445H25.7264V90.6865Z" fill="#EBEBEB"/>
<path d="M52.2357 91.6655H30.502V91.7235H52.2357V91.6655Z" fill="#EBEBEB"/>
<path d="M54.9845 78.3696H10.19C9.83862 78.3696 9.50167 78.23 9.25324 77.9816C9.0048 77.7332 8.86523 77.3962 8.86523 77.0449V14.0731C8.86829 13.7238 9.00921 13.3898 9.25731 13.1439C9.50542 12.898 9.84062 12.76 10.19 12.76H54.9845C55.3359 12.76 55.6728 12.8996 55.9212 13.148C56.1697 13.3964 56.3092 13.7334 56.3092 14.0847V77.0449C56.3092 77.3962 56.1697 77.7332 55.9212 77.9816C55.6728 78.23 55.3359 78.3696 54.9845 78.3696ZM10.19 12.8064C9.85419 12.807 9.53235 12.9407 9.29493 13.1781C9.0575 13.4155 8.92385 13.7374 8.92323 14.0731V77.0449C8.92385 77.3807 9.0575 77.7025 9.29493 77.9399C9.53235 78.1773 9.85419 78.311 10.19 78.3116H54.9845C55.3203 78.311 55.6421 78.1773 55.8795 77.9399C56.117 77.7025 56.2506 77.3807 56.2512 77.0449V14.0731C56.2506 13.7374 56.117 13.4155 55.8795 13.1781C55.6421 12.9407 55.3203 12.807 54.9845 12.8064H10.19Z" fill="#EBEBEB"/>
<path d="M105.169 78.3696H60.3696C60.0185 78.369 59.6819 78.2292 59.4336 77.9809C59.1853 77.7326 59.0455 77.396 59.0449 77.0449V14.0731C59.0486 13.724 59.1897 13.3904 59.4377 13.1446C59.6856 12.8988 60.0205 12.7606 60.3696 12.76H105.169C105.517 12.7612 105.851 12.8997 106.098 13.1455C106.346 13.3913 106.486 13.7246 106.489 14.0731V77.0449C106.489 77.3954 106.35 77.7317 106.103 77.98C105.855 78.2283 105.519 78.3684 105.169 78.3696ZM60.3696 12.8064C60.0339 12.807 59.712 12.9407 59.4746 13.1781C59.2372 13.4155 59.1035 13.7374 59.1029 14.0731V77.0449C59.1035 77.3807 59.2372 77.7025 59.4746 77.9399C59.712 78.1773 60.0339 78.311 60.3696 78.3116H105.169C105.505 78.311 105.826 78.1773 106.064 77.9399C106.301 77.7025 106.435 77.3807 106.436 77.0449V14.0731C106.435 13.7374 106.301 13.4155 106.064 13.1781C105.826 12.9407 105.505 12.807 105.169 12.8064H60.3696Z" fill="#EBEBEB"/>
<path d="M116 88.7168H0V88.7748H116V88.7168Z" fill="#EBEBEB"/>
<path d="M102.823 73.0498H84.2051V88.675H102.823V73.0498Z" fill="#F0F0F0"/>
<path d="M99.2482 77.3813H101.631V74.9987H99.2482V77.3813Z" fill="#FAFAFA"/>
<path d="M94.631 77.3813H97.0137V74.9987H94.631V77.3813Z" fill="#FAFAFA"/>
<path d="M90.0138 77.3813H92.3965V74.9987H90.0138V77.3813Z" fill="#FAFAFA"/>
<path d="M85.3967 77.3813H87.7793V74.9987H85.3967V77.3813Z" fill="#FAFAFA"/>
<path d="M99.2482 81.7126H101.631V79.33H99.2482V81.7126Z" fill="#FAFAFA"/>
<path d="M94.631 81.7126H97.0137V79.33H94.631V81.7126Z" fill="#FAFAFA"/>
<path d="M90.0138 81.7126H92.3965V79.33H90.0138V81.7126Z" fill="#FAFAFA"/>
<path d="M85.3967 81.7126H87.7793V79.33H85.3967V81.7126Z" fill="#FAFAFA"/>
<path d="M99.2482 86.0442H101.631V83.6616H99.2482V86.0442Z" fill="#FAFAFA"/>
<path d="M94.631 86.0442H97.0137V83.6616H94.631V86.0442Z" fill="#FAFAFA"/>
<path d="M90.0138 86.0442H92.3965V83.6616H90.0138V86.0442Z" fill="#FAFAFA"/>
<path d="M85.3967 86.0442H87.7793V83.6616H85.3967V86.0442Z" fill="#FAFAFA"/>
<path d="M88.7324 45.9174V40.0618H88.1362V45.9174H88.7324Z" fill="#EBEBEB"/>
<path d="M102.225 45.9175V40.0618H101.628V45.9175H102.225Z" fill="#EBEBEB"/>
<path d="M95.4805 45.9174V40.0618H94.8842V45.9174H95.4805Z" fill="#EBEBEB"/>
<path d="M102.822 45.3213H87.5352V45.9175H102.822V45.3213Z" fill="#F5F5F5"/>
<path d="M102.822 39.7625H87.5352V40.3587H102.822V39.7625Z" fill="#F5F5F5"/>
<path d="M88.7305 40.361V34.5054H88.1342V40.361H88.7305Z" fill="#EBEBEB"/>
<path d="M102.225 40.3586V34.5029H101.628V40.3586H102.225Z" fill="#EBEBEB"/>
<path d="M95.4766 40.361V34.5054H94.8803V40.361H95.4766Z" fill="#EBEBEB"/>
<path d="M102.822 34.2061H87.5352V34.8023H102.822V34.2061Z" fill="#F5F5F5"/>
<path d="M102.823 45.8711H84.2051V73.0499H102.823V45.8711Z" fill="#FAFAFA"/>
<path d="M101.633 47.0635H94.6309V53.7776H101.633V47.0635Z" fill="#F0F0F0"/>
<path d="M92.3982 47.0635H85.3965V53.7776H92.3982V47.0635Z" fill="#F0F0F0"/>
<path d="M101.633 55.7263H94.6309V62.4404H101.633V55.7263Z" fill="#F0F0F0"/>
<path d="M92.3982 55.7263H85.3965V62.4404H92.3982V55.7263Z" fill="#F0F0F0"/>
<path d="M101.633 64.3894H94.6309V71.1035H101.633V64.3894Z" fill="#F0F0F0"/>
<path d="M92.3982 64.3894H85.3965V71.1035H92.3982V64.3894Z" fill="#F0F0F0"/>
<path d="M63.2215 58.0488H45.5918V88.5336H63.2215V58.0488Z" fill="#EBEBEB"/>
<path d="M59.8365 53.7869V58.0487H58.4445H50.3662H48.9766V53.7869H59.8365Z" fill="#EBEBEB"/>
<path d="M59.8344 61.4336H62.0918V59.1762H59.8344V61.4336Z" fill="#FAFAFA"/>
<path d="M55.4633 61.4336H57.7207V59.1762H55.4633V61.4336Z" fill="#FAFAFA"/>
<path d="M51.0903 61.4336H53.3477V59.1762H51.0903V61.4336Z" fill="#FAFAFA"/>
<path d="M46.7231 61.4336H48.9805V59.1762H46.7231V61.4336Z" fill="#FAFAFA"/>
<path d="M59.8344 65.533H62.0918V63.2756H59.8344V65.533Z" fill="#FAFAFA"/>
<path d="M55.4633 65.533H57.7207V63.2756H55.4633V65.533Z" fill="#FAFAFA"/>
<path d="M51.0903 65.533H53.3477V63.2756H51.0903V65.533Z" fill="#FAFAFA"/>
<path d="M46.7231 65.533H48.9805V63.2756H46.7231V65.533Z" fill="#FAFAFA"/>
<path d="M59.8344 69.6372H62.0918V67.3799H59.8344V69.6372Z" fill="#FAFAFA"/>
<path d="M55.4633 69.6372H57.7207V67.3799H55.4633V69.6372Z" fill="#FAFAFA"/>
<path d="M51.0903 69.6372H53.3477V67.3799H51.0903V69.6372Z" fill="#FAFAFA"/>
<path d="M55.4633 57.8887H57.7207V55.6313H55.4633V57.8887Z" fill="#FAFAFA"/>
<path d="M51.0903 57.8887H53.3477V55.6313H51.0903V57.8887Z" fill="#FAFAFA"/>
<path d="M46.7231 69.6372H48.9805V67.3799H46.7231V69.6372Z" fill="#FAFAFA"/>
<path d="M59.8344 73.7366H62.0918V71.4792H59.8344V73.7366Z" fill="#FAFAFA"/>
<path d="M55.4633 73.7366H57.7207V71.4792H55.4633V73.7366Z" fill="#FAFAFA"/>
<path d="M51.0903 73.7366H53.3477V71.4792H51.0903V73.7366Z" fill="#FAFAFA"/>
<path d="M46.7231 73.7366H48.9805V71.4792H46.7231V73.7366Z" fill="#FAFAFA"/>
<path d="M59.8344 77.8359H62.0918V75.5786H59.8344V77.8359Z" fill="#FAFAFA"/>
<path d="M55.4633 77.8359H57.7207V75.5786H55.4633V77.8359Z" fill="#FAFAFA"/>
<path d="M51.0903 77.8359H53.3477V75.5786H51.0903V77.8359Z" fill="#FAFAFA"/>
<path d="M46.7231 77.8359H48.9805V75.5786H46.7231V77.8359Z" fill="#FAFAFA"/>
<path d="M59.8344 81.9402H62.0918V79.6828H59.8344V81.9402Z" fill="#FAFAFA"/>
<path d="M55.4633 81.9402H57.7207V79.6828H55.4633V81.9402Z" fill="#FAFAFA"/>
<path d="M51.0903 81.9402H53.3477V79.6828H51.0903V81.9402Z" fill="#FAFAFA"/>
<path d="M46.7231 81.9402H48.9805V79.6828H46.7231V81.9402Z" fill="#FAFAFA"/>
<path d="M59.8344 86.0396H62.0918V83.7822H59.8344V86.0396Z" fill="#FAFAFA"/>
<path d="M55.4633 86.0396H57.7207V83.7822H55.4633V86.0396Z" fill="#FAFAFA"/>
<path d="M51.0903 86.0396H53.3477V83.7822H51.0903V86.0396Z" fill="#FAFAFA"/>
<path d="M46.7231 86.0396H48.9805V83.7822H46.7231V86.0396Z" fill="#FAFAFA"/>
<path d="M63.5867 57.6104H45.2285V58.0697H63.5867V57.6104Z" fill="#F5F5F5"/>
<path d="M49.4395 53.7868V49.2744H48.9801V53.7868H49.4395Z" fill="#EBEBEB"/>
<path d="M59.8379 53.7868V49.2744H59.3785V53.7868H59.8379Z" fill="#EBEBEB"/>
<path d="M54.6387 53.7868V49.2744H54.1793V53.7868H54.6387Z" fill="#EBEBEB"/>
<path d="M60.2966 53.3276H48.5156V53.787H60.2966V53.3276Z" fill="#F5F5F5"/>
<path d="M60.2966 49.0449H48.5156V49.5043H60.2966V49.0449Z" fill="#F5F5F5"/>
<path d="M49.4395 49.5041V44.9917H48.9801V49.5041H49.4395Z" fill="#EBEBEB"/>
<path d="M59.8379 49.5041V44.9917H59.3785V49.5041H59.8379Z" fill="#EBEBEB"/>
<path d="M54.6387 49.5041V44.9917H54.1793V49.5041H54.6387Z" fill="#EBEBEB"/>
<path d="M60.2966 44.7622H48.5156V45.2216H60.2966V44.7622Z" fill="#F5F5F5"/>
<path d="M49.4395 45.2214V40.709H48.9801V45.2214H49.4395Z" fill="#EBEBEB"/>
<path d="M59.8379 45.2214V40.709H59.3785V45.2214H59.8379Z" fill="#EBEBEB"/>
<path d="M54.6387 45.2214V40.709H54.1793V45.2214H54.6387Z" fill="#EBEBEB"/>
<path d="M60.2966 40.4771H48.5156V40.9364H60.2966V40.4771Z" fill="#F5F5F5"/>
<path d="M49.4395 40.9387V36.4263H48.9801V40.9387H49.4395Z" fill="#EBEBEB"/>
<path d="M59.8359 40.9387V36.4263H59.3766V40.9387H59.8359Z" fill="#EBEBEB"/>
<path d="M54.6387 40.9387V36.4263H54.1793V40.9387H54.6387Z" fill="#EBEBEB"/>
<path d="M60.2966 36.1943H48.5156V36.6537H60.2966V36.1943Z" fill="#F5F5F5"/>
<path d="M87.1323 52.2952H66.1758V88.5336H87.1323V52.2952Z" fill="#EBEBEB"/>
<path d="M83.1097 47.2305V52.2927H81.4555H71.853H70.2012V47.2305H83.1097Z" fill="#EBEBEB"/>
<path d="M83.1068 56.3181H85.791V53.6362H83.1068V56.3181Z" fill="#FAFAFA"/>
<path d="M77.9095 56.3181H80.5938V53.6362H77.9095V56.3181Z" fill="#FAFAFA"/>
<path d="M72.7165 56.3181H75.3984V53.6362H72.7165V56.3181Z" fill="#FAFAFA"/>
<path d="M67.5193 56.3181H70.2012V53.6362H67.5193V56.3181Z" fill="#FAFAFA"/>
<path d="M83.1068 61.1946H85.791V58.5103H83.1068V61.1946Z" fill="#FAFAFA"/>
<path d="M77.9095 61.1946H80.5938V58.5103H77.9095V61.1946Z" fill="#FAFAFA"/>
<path d="M72.7165 61.1946H75.3984V58.5103H72.7165V61.1946Z" fill="#FAFAFA"/>
<path d="M67.5193 61.1946H70.2012V58.5103H67.5193V61.1946Z" fill="#FAFAFA"/>
<path d="M83.1068 66.0688H85.791V63.3846H83.1068V66.0688Z" fill="#FAFAFA"/>
<path d="M77.9095 66.0688H80.5938V63.3846H77.9095V66.0688Z" fill="#FAFAFA"/>
<path d="M72.7165 66.0688H75.3984V63.3846H72.7165V66.0688Z" fill="#FAFAFA"/>
<path d="M77.9095 52.105H80.5938V49.4231H77.9095V52.105Z" fill="#FAFAFA"/>
<path d="M72.7165 52.105H75.3984V49.4231H72.7165V52.105Z" fill="#FAFAFA"/>
<path d="M67.5193 66.0688H70.2012V63.3846H67.5193V66.0688Z" fill="#FAFAFA"/>
<path d="M83.1068 70.9434H85.791V68.2614H83.1068V70.9434Z" fill="#FAFAFA"/>
<path d="M77.9095 70.9434H80.5938V68.2614H77.9095V70.9434Z" fill="#FAFAFA"/>
<path d="M72.7165 70.9434H75.3984V68.2614H72.7165V70.9434Z" fill="#FAFAFA"/>
<path d="M67.5193 70.9434H70.2012V68.2614H67.5193V70.9434Z" fill="#FAFAFA"/>
<path d="M83.1068 75.8198H85.791V73.1356H83.1068V75.8198Z" fill="#FAFAFA"/>
<path d="M77.9095 75.8198H80.5938V73.1356H77.9095V75.8198Z" fill="#FAFAFA"/>
<path d="M72.7165 75.8198H75.3984V73.1356H72.7165V75.8198Z" fill="#FAFAFA"/>
<path d="M67.5193 75.8198H70.2012V73.1356H67.5193V75.8198Z" fill="#FAFAFA"/>
<path d="M83.1068 80.6943H85.791V78.0101H83.1068V80.6943Z" fill="#FAFAFA"/>
<path d="M77.9095 80.6943H80.5938V78.0101H77.9095V80.6943Z" fill="#FAFAFA"/>
<path d="M72.7165 80.6943H75.3984V78.0101H72.7165V80.6943Z" fill="#FAFAFA"/>
<path d="M67.5193 80.6943H70.2012V78.0101H67.5193V80.6943Z" fill="#FAFAFA"/>
<path d="M83.1068 85.5686H85.791V82.8844H83.1068V85.5686Z" fill="#FAFAFA"/>
<path d="M77.9095 85.5686H80.5938V82.8844H77.9095V85.5686Z" fill="#FAFAFA"/>
<path d="M72.7165 85.5686H75.3984V82.8844H72.7165V85.5686Z" fill="#FAFAFA"/>
<path d="M67.5193 85.5686H70.2012V82.8844H67.5193V85.5686Z" fill="#FAFAFA"/>
<path d="M87.5661 51.7754H65.7441V52.3229H87.5661V51.7754Z" fill="#F5F5F5"/>
<path d="M70.7461 47.2329V41.8667H70.1986V47.2329H70.7461Z" fill="#EBEBEB"/>
<path d="M83.1074 47.2307V41.8645H82.5599V47.2307H83.1074Z" fill="#EBEBEB"/>
<path d="M76.9258 47.2307V41.8645H76.3783V47.2307H76.9258Z" fill="#EBEBEB"/>
<path d="M83.6578 46.6831H69.6543V47.2306H83.6578V46.6831Z" fill="#F5F5F5"/>
<path d="M83.6578 41.5906H69.6543V42.1381H83.6578V41.5906Z" fill="#F5F5F5"/>
<path d="M70.748 42.1381V36.772H70.2005V42.1381H70.748Z" fill="#EBEBEB"/>
<path d="M83.1074 42.1381V36.772H82.5599V42.1381H83.1074Z" fill="#EBEBEB"/>
<path d="M76.9297 42.1381V36.772H76.3822V42.1381H76.9297Z" fill="#EBEBEB"/>
<path d="M83.6578 36.5005H69.6543V37.048H83.6578V36.5005Z" fill="#F5F5F5"/>
<path d="M70.748 37.048V31.6819H70.2005V37.048H70.748Z" fill="#EBEBEB"/>
<path d="M83.1094 37.048V31.6819H82.5619V37.048H83.1094Z" fill="#EBEBEB"/>
<path d="M76.9297 37.048V31.6819H76.3822V37.048H76.9297Z" fill="#EBEBEB"/>
<path d="M83.6578 31.4082H69.6543V31.9557H83.6578V31.4082Z" fill="#F5F5F5"/>
<path d="M83.1074 31.9558V26.5896H82.5599V31.9558H83.1074Z" fill="#EBEBEB"/>
<path d="M76.9258 31.9558V26.5896H76.3783V31.9558H76.9258Z" fill="#EBEBEB"/>
<path d="M73.108 38.3868V37.25C73.1037 37.217 73.0875 37.1868 73.0626 37.1649C73.0376 37.1429 73.0055 37.1309 72.9723 37.1309C72.9391 37.1309 72.907 37.1429 72.882 37.1649C72.857 37.1868 72.8409 37.217 72.8366 37.25V38.4981C72.8372 38.5342 72.8518 38.5687 72.8773 38.5942C72.9028 38.6198 72.9373 38.6344 72.9734 38.635C73.4026 38.6768 73.7135 39.2104 73.3586 39.563C73.2804 39.6332 73.1839 39.6798 73.0803 39.6975C72.9767 39.7152 72.8702 39.7032 72.7732 39.6629C72.6761 39.6227 72.5924 39.5557 72.5318 39.4699C72.4712 39.3841 72.4361 39.2828 72.4306 39.1779C72.412 39.0062 72.1406 39.0039 72.1591 39.1779C72.2264 39.8507 73.0152 40.2984 73.5511 39.7556C74.0499 39.2521 73.7066 38.5376 73.108 38.3868Z" fill="#EBEBEB"/>
<path d="M53.1277 30.2272V32.691L50.5293 30.0996L50.4017 30.2272H50.2207V53.6128H53.4826V30.2272H53.1277ZM50.5757 48.068L52.8585 50.3509H50.5757V48.068ZM50.5757 42.268L52.8585 44.5509H50.5757V42.268ZM50.5757 36.468L52.8585 38.7532H50.5757V36.468ZM50.5757 30.668L52.8585 32.9509H50.5757V30.668ZM52.8585 33.3128L50.5757 35.591V33.3082L52.8585 33.3128ZM53.1161 33.568V35.8509H50.8309L53.1161 33.568ZM52.8585 39.1128L50.5757 41.3934V39.1082L52.8585 39.1128ZM53.1161 39.3703V41.6532H50.8309L53.1161 39.3703ZM52.8585 44.9151L50.5757 47.1934V44.9105L52.8585 44.9151ZM53.1161 45.1703V47.4532H50.8309L53.1161 45.1703ZM52.8585 50.7174L50.5757 52.9957V50.7128L52.8585 50.7174ZM50.8309 53.2555L53.1161 50.9726V53.2555H50.8309ZM53.1161 50.1003L50.8309 47.8151H53.1277L53.1161 50.1003ZM53.1161 44.3003L50.8309 42.0174H53.1277L53.1161 44.3003ZM53.1161 38.5003L50.8309 36.2174H53.1277L53.1161 38.5003Z" fill="#F0F0F0"/>
<path d="M50.5762 22.5225V27.0557H50.9381V25.3157L52.7941 27.1717L52.9217 27.0441H53.1282V22.5225H50.5762ZM52.4971 22.8844L50.9381 24.4434V22.8844H52.4971ZM52.7523 26.6196L51.2026 25.0559H52.7593L52.7523 26.6196ZM51.1956 24.6986L52.7523 23.1396V24.6986H51.1956Z" fill="#F0F0F0"/>
<path d="M44.6273 30.2273H40.2773V34.5773H44.6273V30.2273Z" fill="#E6E6E6"/>
<path d="M73.0312 36.5028H72.79V28.1369L52.5294 21.4205H51.1908L40.3424 28.1531L40.2148 27.949L51.1212 21.1792H52.5688L52.5874 21.1838L73.0312 27.9629V36.5028Z" fill="#E6E6E6"/>
<path d="M70.5527 30.4153H70.8032L73.3552 27.8633H40.0957V30.4014H70.5527V30.4153ZM70.9146 28.2322H72.4736L70.9146 29.7889V28.2322ZM40.4576 30.0464V28.4874L42.0167 30.0464H40.4576ZM42.2719 29.7889L40.7128 28.2322H42.2719V29.7889ZM42.6338 28.2322H44.1928L42.6338 29.7889V28.2322ZM44.448 30.0464H42.889L44.448 28.4874V30.0464ZM44.8099 30.0464V28.4874L46.3667 30.0464H44.8099ZM46.6311 29.7889L45.0744 28.2322H46.6311V29.7889ZM46.9931 28.2322H48.5521L46.9931 29.7889V28.2322ZM48.8073 30.0464H47.2506L48.8073 28.4874V30.0464ZM49.1692 30.0464V28.4874L50.7283 30.0464H49.1692ZM50.9835 29.7889L49.4151 28.2322H50.9742L50.9835 29.7889ZM51.3454 28.2322H52.8951L51.3384 29.7889L51.3454 28.2322ZM53.1596 30.0464H51.6006L53.1596 28.4874V30.0464ZM53.5215 30.0464V28.4874L55.0783 30.0464H53.5215ZM55.3335 29.7889L53.7767 28.2322H55.3335V29.7889ZM55.6954 28.2322H57.2544L55.6791 29.7889L55.6954 28.2322ZM57.5096 30.0464H55.9506L57.5096 28.4874V30.0464ZM57.8715 30.0464V28.4874L59.4306 30.0464H57.8715ZM59.6858 29.7889L58.1267 28.2322H59.6858V29.7889ZM60.0477 28.2322H61.6044L60.0477 29.7889V28.2322ZM61.8619 30.0464H60.3029L61.8619 28.4874V30.0464ZM62.2215 30.0464V28.4874L63.7806 30.0464H62.2215ZM64.0311 29.7889L62.4744 28.2322H64.0311V29.7889ZM64.3931 28.2322H65.9521L64.3931 29.7889V28.2322ZM66.2073 30.0464H64.6483L66.2073 28.4874V30.0464ZM66.5692 28.2322H68.1259L66.5692 29.7889V28.2322ZM68.3835 30.0464H66.8151L68.3742 28.4874L68.3835 30.0464ZM68.7454 30.0464V28.4874L70.3021 30.0464H68.7454ZM69.0006 28.2322H70.5573V29.7889L69.0006 28.2322Z" fill="#F0F0F0"/>
<path d="M55.0932 31.2133H48.4023L48.6459 28.3992C48.6779 28.0324 48.8462 27.6909 49.1177 27.4422C49.3891 27.1935 49.744 27.0557 50.1122 27.0559H53.2999C53.6607 27.0558 54.009 27.1883 54.2785 27.4283C54.548 27.6683 54.7199 27.999 54.7615 28.3574L55.0932 31.2133Z" fill="#F0F0F0"/>
<path d="M50.7658 28.2251H49.4805V29.5104H50.7658V28.2251Z" fill="#FAFAFA"/>
<path d="M52.3908 28.2251H51.1055V29.5104H52.3908V28.2251Z" fill="#FAFAFA"/>
<path d="M54.0138 28.2251H52.7285V29.5104H54.0138V28.2251Z" fill="#FAFAFA"/>
<path d="M51.8516 22.7058C52.3359 22.7058 52.7285 22.3132 52.7285 21.8289C52.7285 21.3445 52.3359 20.9519 51.8516 20.9519C51.3672 20.9519 50.9746 21.3445 50.9746 21.8289C50.9746 22.3132 51.3672 22.7058 51.8516 22.7058Z" fill="#E6E6E6"/>
<path d="M72.974 37.9993C72.7752 37.9993 72.5846 37.9204 72.4441 37.7798C72.3036 37.6393 72.2246 37.4487 72.2246 37.25V36.5029H73.7233V37.25C73.7233 37.4487 73.6444 37.6393 73.5038 37.7798C73.3633 37.9204 73.1727 37.9993 72.974 37.9993Z" fill="#E6E6E6"/>
<path d="M74.3147 32.3454V31.3733C74.3147 31.3426 74.327 31.3131 74.3487 31.2913C74.3705 31.2695 74.4 31.2573 74.4307 31.2573C74.4615 31.2573 74.491 31.2695 74.5128 31.2913C74.5345 31.3131 74.5467 31.3426 74.5467 31.3733V32.4405C74.5461 32.4711 74.5337 32.5003 74.5121 32.5219C74.4905 32.5435 74.4613 32.5559 74.4307 32.5565C74.0642 32.5936 73.7974 33.0484 74.1013 33.3523C74.168 33.4132 74.2508 33.4539 74.3398 33.4695C74.4288 33.4851 74.5204 33.475 74.6039 33.4405C74.6874 33.4059 74.7593 33.3483 74.8112 33.2743C74.8631 33.2003 74.8929 33.1131 74.8971 33.0228C74.9133 32.8744 75.1453 32.8744 75.1291 33.0228C75.0711 33.5982 74.3983 33.981 73.9389 33.517C73.4795 33.053 73.8043 32.48 74.3147 32.3454Z" fill="#EBEBEB"/>
<path d="M91.0996 25.3647V45.3677H93.8836V25.3647H93.7282L93.6191 25.2556L91.4082 27.4712V25.3647H91.0996ZM93.582 42.5767H91.6402L93.5936 40.6233L93.582 42.5767ZM93.582 37.6143H91.6402L93.5936 35.6608L93.582 37.6143ZM93.582 32.6518H91.6402L93.5936 30.7007L93.582 32.6518ZM93.582 27.6916H91.6402L93.5936 25.7382L93.582 27.6916ZM93.582 28.0002V29.9536L91.6402 28.0002H93.582ZM93.3616 30.1717H91.4082V28.2183L93.3616 30.1717ZM93.582 32.9557V34.9068L91.6402 32.9627L93.582 32.9557ZM93.3616 35.1272H91.4082V33.1761L93.3616 35.1272ZM93.582 37.9112V39.8647L91.6402 37.9228L93.582 37.9112ZM93.3616 40.0827H91.4082V38.1316L93.3616 40.0827ZM93.582 42.8667V44.8202L91.6402 42.8853L93.582 42.8667ZM91.4082 45.0568V43.1034L93.3593 45.0568H91.4082ZM91.4082 40.4052H93.3593L91.4082 42.3587V40.4052ZM91.4082 35.4427H93.3593L91.4082 37.3962V35.4427ZM91.4082 30.4803H93.3593L91.4082 32.4337V30.4803Z" fill="#EBEBEB"/>
<path d="M91.4082 18.7759V22.6526H91.5636L91.6727 22.7616L93.2642 21.1655V22.6526H93.5728V18.7759H91.4082ZM93.2642 19.0844V20.4161L91.9325 19.0821L93.2642 19.0844ZM91.7121 20.9404H93.0461L91.7191 22.2721L91.7121 20.9404ZM91.7121 20.6319V19.3048L93.0531 20.6481L91.7121 20.6319Z" fill="#EBEBEB"/>
<path d="M98.6752 29.0859H102.396V25.3647H98.6752V29.0859Z" fill="#F0F0F0"/>
<path d="M74.3809 30.733H74.5873V23.5781L91.9154 17.8315H93.0615L102.339 23.592L102.448 23.4157L93.1195 17.625H91.8829L91.8667 17.632L74.3809 23.4296V30.733Z" fill="#E6E6E6"/>
<path d="M76.499 25.5199H102.543V23.3484H74.1094L76.2855 25.5245H76.499V25.5199ZM76.1904 24.9909L74.8564 23.6639H76.1904V24.9909ZM100.908 25.209L102.239 23.8773V25.209H100.908ZM100.687 23.6639H102.021L100.687 24.9909V23.6639ZM100.379 24.9956L99.0471 23.6639H100.379V24.9956ZM98.8267 23.882L100.161 25.2137H98.8313L98.8267 23.882ZM97.1864 25.2137L98.5181 23.882V25.2137H97.1864ZM96.9753 23.6639H98.3093L96.9753 24.9909V23.6639ZM96.6667 24.9956L95.3258 23.6639H96.6575L96.6667 24.9956ZM95.1147 23.882L96.4487 25.2137H95.1147V23.882ZM93.4744 25.2137L94.8061 23.882V25.2137H93.4744ZM93.254 23.6639H94.588L93.254 24.9956V23.6639ZM92.9455 24.9956L91.6045 23.6639H92.9362L92.9455 24.9956ZM91.3934 23.882L92.7274 25.2137H91.3841L91.3934 23.882ZM89.7531 25.2137L91.0848 23.882V25.2137H89.7531ZM89.5327 23.6639H90.8667L89.5327 24.9956V23.6639ZM89.2242 24.9956L87.8809 23.6639H89.2149L89.2242 24.9956ZM87.6721 23.882L89.0061 25.2137H87.6721V23.882ZM86.0295 25.2137L87.3635 23.882V25.2137H86.0295ZM85.8115 23.6639H87.1455L85.8115 24.9956V23.6639ZM85.5029 24.9956L84.1596 23.6639H85.4936L85.5029 24.9956ZM83.9508 23.882L85.2848 25.2137H83.9508V23.882ZM82.3083 25.2137L83.6423 23.882V25.2137H82.3083ZM82.0809 23.6639H83.4149L82.0809 24.9956V23.6639ZM81.7723 24.9956L80.4383 23.6639H81.7723V24.9956ZM80.2203 23.882L81.5543 25.2137H80.2203V23.882ZM79.9117 24.9956L78.5777 23.6639H79.9117V24.9956ZM78.3596 23.882L79.6913 25.2137H78.3596V23.882ZM76.7171 25.2137L78.0511 23.882V25.2137H76.7171ZM76.499 24.9956V23.6639H77.8307L76.499 24.9956Z" fill="#EBEBEB"/>
<path d="M89.7246 26.2161H95.4481L95.2393 23.8079C95.2142 23.4922 95.0711 23.1975 94.8385 22.9826C94.6059 22.7676 94.3009 22.6481 93.9841 22.6479H91.2581C90.9495 22.6481 90.6516 22.7616 90.4211 22.9669C90.1906 23.1722 90.0435 23.455 90.0076 23.7615L89.7246 26.2161Z" fill="#EBEBEB"/>
<path d="M93.4238 24.7498H94.5234V23.6501H93.4238V24.7498Z" fill="#FAFAFA"/>
<path d="M92.0351 24.7498H93.1348V23.6501H92.0351V24.7498Z" fill="#FAFAFA"/>
<path d="M90.6464 24.7498H91.7461V23.6501H90.6464V24.7498Z" fill="#FAFAFA"/>
<path d="M91.7461 18.1817C91.7461 18.3299 91.79 18.4748 91.8724 18.5981C91.9547 18.7213 92.0718 18.8173 92.2087 18.8741C92.3456 18.9308 92.4963 18.9456 92.6416 18.9167C92.787 18.8878 92.9205 18.8164 93.0253 18.7116C93.1301 18.6068 93.2015 18.4733 93.2304 18.3279C93.2593 18.1826 93.2445 18.0319 93.1878 17.895C93.1311 17.758 93.035 17.641 92.9118 17.5587C92.7885 17.4763 92.6437 17.4324 92.4955 17.4324C92.397 17.4324 92.2996 17.4518 92.2087 17.4894C92.1178 17.5271 92.0352 17.5823 91.9656 17.6519C91.896 17.7214 91.8408 17.804 91.8031 17.895C91.7655 17.9859 91.7461 18.0833 91.7461 18.1817Z" fill="#E6E6E6"/>
<path d="M74.4294 32.0161C74.5134 32.0164 74.5966 32.0001 74.6742 31.9682C74.7519 31.9363 74.8225 31.8893 74.882 31.8301C74.9415 31.7708 74.9887 31.7004 75.0209 31.6228C75.0531 31.5452 75.0697 31.4621 75.0697 31.3781V30.7378H73.7891V31.3781C73.7897 31.5475 73.8574 31.7098 73.9774 31.8294C74.0974 31.949 74.26 32.0161 74.4294 32.0161Z" fill="#E6E6E6"/>
<path d="M56.8809 98.3008C81.7241 98.3008 101.863 97.125 101.863 95.6746C101.863 94.2241 81.7241 93.0483 56.8809 93.0483C32.0378 93.0483 11.8984 94.2241 11.8984 95.6746C11.8984 97.125 32.0378 98.3008 56.8809 98.3008Z" fill="#F5F5F5"/>
<path d="M42.8784 83.1047H86.9375V79.7013H42.8784V83.1047Z" fill="#EF233C"/>
<path opacity="0.2" d="M42.8784 83.1047H86.9375V79.7013H42.8784V83.1047Z" fill="black"/>
<path d="M93.5993 80.4622H95.5064C96.5795 80.4877 97.6 80.9319 98.35 81.6998C99.0999 82.4678 99.5197 83.4986 99.5197 84.572C99.5197 85.6454 99.0999 86.6763 98.35 87.4442C97.6 88.2122 96.5795 88.6564 95.5064 88.6819H93.5993C92.5262 88.6564 91.5057 88.2122 90.7557 87.4442C90.0058 86.6763 89.5859 85.6454 89.5859 84.572C89.5859 83.4986 90.0058 82.4678 90.7557 81.6998C91.5057 80.9319 92.5262 80.4877 93.5993 80.4622Z" fill="#263238"/>
<path opacity="0.5" d="M97.3947 86.1463C98.2631 84.0499 97.2676 81.6464 95.1711 80.778C93.0747 79.9096 90.6712 80.9052 89.8028 83.0016C88.9344 85.0981 89.93 87.5016 92.0264 88.3699C94.1229 89.2383 96.5264 88.2428 97.3947 86.1463Z" fill="black"/>
<path d="M61.1091 80.4621H63.0138C63.5617 80.4491 64.1067 80.5458 64.6168 80.7464C65.1268 80.9471 65.5915 81.2478 65.9837 81.6307C66.3758 82.0136 66.6874 82.4711 66.9002 82.9762C67.1129 83.4813 67.2225 84.0239 67.2225 84.572C67.2225 85.1201 67.1129 85.6626 66.9002 86.1677C66.6874 86.6728 66.3758 87.1303 65.9837 87.5132C65.5915 87.8962 65.1268 88.1968 64.6168 88.3975C64.1067 88.5982 63.5617 88.6949 63.0138 88.6819H61.1091C60.5611 88.6949 60.0161 88.5982 59.5061 88.3975C58.9961 88.1968 58.5314 87.8962 58.1392 87.5132C57.7471 87.1303 57.4355 86.6728 57.2227 86.1677C57.01 85.6626 56.9004 85.1201 56.9004 84.572C56.9004 84.0239 57.01 83.4813 57.2227 82.9762C57.4355 82.4711 57.7471 82.0136 58.1392 81.6307C58.5314 81.2478 58.9961 80.9471 59.5061 80.7464C60.0161 80.5458 60.5611 80.4491 61.1091 80.4621Z" fill="#263238"/>
<path opacity="0.5" d="M64.9045 86.1441C65.7729 84.0477 64.7773 81.6442 62.6809 80.7758C60.5844 79.9075 58.181 80.903 57.3126 82.9994C56.4442 85.0959 57.4397 87.4994 59.5362 88.3678C61.6327 89.2361 64.0361 88.2406 64.9045 86.1441Z" fill="black"/>
<path d="M82.1286 80.4621H84.0333C84.5813 80.4491 85.1263 80.5458 85.6363 80.7464C86.1463 80.9471 86.6111 81.2478 87.0032 81.6307C87.3953 82.0136 87.7069 82.4711 87.9197 82.9762C88.1324 83.4813 88.242 84.0239 88.242 84.572C88.242 85.1201 88.1324 85.6626 87.9197 86.1677C87.7069 86.6728 87.3953 87.1303 87.0032 87.5132C86.6111 87.8962 86.1463 88.1968 85.6363 88.3975C85.1263 88.5982 84.5813 88.6949 84.0333 88.6819H82.1286C81.5807 88.6949 81.0357 88.5982 80.5257 88.3975C80.0156 88.1968 79.5509 87.8962 79.1588 87.5132C78.7666 87.1303 78.455 86.6728 78.2423 86.1677C78.0295 85.6626 77.9199 85.1201 77.9199 84.572C77.9199 84.0239 78.0295 83.4813 78.2423 82.9762C78.455 82.4711 78.7666 82.0136 79.1588 81.6307C79.5509 81.2478 80.0156 80.9471 80.5257 80.7464C81.0357 80.5458 81.5807 80.4491 82.1286 80.4621Z" fill="#263238"/>
<path opacity="0.5" d="M82.1286 80.4621H84.0333C84.5813 80.4491 85.1263 80.5458 85.6363 80.7464C86.1463 80.9471 86.6111 81.2478 87.0032 81.6307C87.3953 82.0136 87.7069 82.4711 87.9197 82.9762C88.1324 83.4813 88.242 84.0239 88.242 84.572C88.242 85.1201 88.1324 85.6626 87.9197 86.1677C87.7069 86.6728 87.3953 87.1303 87.0032 87.5132C86.6111 87.8962 86.1463 88.1968 85.6363 88.3975C85.1263 88.5982 84.5813 88.6949 84.0333 88.6819H82.1286C81.5807 88.6949 81.0357 88.5982 80.5257 88.3975C80.0156 88.1968 79.5509 87.8962 79.1588 87.5132C78.7666 87.1303 78.455 86.6728 78.2423 86.1677C78.0295 85.6626 77.9199 85.1201 77.9199 84.572C77.9199 84.0239 78.0295 83.4813 78.2423 82.9762C78.455 82.4711 78.7666 82.0136 79.1588 81.6307C79.5509 81.2478 80.0156 80.9471 80.5257 80.7464C81.0357 80.5458 81.5807 80.4491 82.1286 80.4621Z" fill="black"/>
<path d="M72.1267 80.4621H74.0314C74.5793 80.4491 75.1243 80.5458 75.6343 80.7464C76.1444 80.9471 76.6091 81.2478 77.0012 81.6307C77.3934 82.0136 77.705 82.4711 77.9177 82.9762C78.1305 83.4813 78.2401 84.0239 78.2401 84.572C78.2401 85.1201 78.1305 85.6626 77.9177 86.1677C77.705 86.6728 77.3934 87.1303 77.0012 87.5132C76.6091 87.8962 76.1444 88.1968 75.6343 88.3975C75.1243 88.5982 74.5793 88.6949 74.0314 88.6819H72.1267C71.5787 88.6949 71.0337 88.5982 70.5237 88.3975C70.0137 88.1968 69.5489 87.8962 69.1568 87.5132C68.7647 87.1303 68.4531 86.6728 68.2403 86.1677C68.0276 85.6626 67.918 85.1201 67.918 84.572C67.918 84.0239 68.0276 83.4813 68.2403 82.9762C68.4531 82.4711 68.7647 82.0136 69.1568 81.6307C69.5489 81.2478 70.0137 80.9471 70.5237 80.7464C71.0337 80.5458 71.5787 80.4491 72.1267 80.4621Z" fill="#263238"/>
<path opacity="0.5" d="M72.1267 80.4621H74.0314C74.5793 80.4491 75.1243 80.5458 75.6343 80.7464C76.1444 80.9471 76.6091 81.2478 77.0012 81.6307C77.3934 82.0136 77.705 82.4711 77.9177 82.9762C78.1305 83.4813 78.2401 84.0239 78.2401 84.572C78.2401 85.1201 78.1305 85.6626 77.9177 86.1677C77.705 86.6728 77.3934 87.1303 77.0012 87.5132C76.6091 87.8962 76.1444 88.1968 75.6343 88.3975C75.1243 88.5982 74.5793 88.6949 74.0314 88.6819H72.1267C71.5787 88.6949 71.0337 88.5982 70.5237 88.3975C70.0137 88.1968 69.5489 87.8962 69.1568 87.5132C68.7647 87.1303 68.4531 86.6728 68.2403 86.1677C68.0276 85.6626 67.918 85.1201 67.918 84.572C67.918 84.0239 68.0276 83.4813 68.2403 82.9762C68.4531 82.4711 68.7647 82.0136 69.1568 81.6307C69.5489 81.2478 70.0137 80.9471 70.5237 80.7464C71.0337 80.5458 71.5787 80.4491 72.1267 80.4621Z" fill="black"/>
<path d="M48.8649 80.4621H50.7697C51.3176 80.4491 51.8626 80.5458 52.3726 80.7464C52.8826 80.9471 53.3474 81.2478 53.7395 81.6307C54.1317 82.0136 54.4433 82.4711 54.656 82.9762C54.8688 83.4813 54.9784 84.0239 54.9784 84.572C54.9784 85.1201 54.8688 85.6626 54.656 86.1677C54.4433 86.6728 54.1317 87.1303 53.7395 87.5132C53.3474 87.8962 52.8826 88.1968 52.3726 88.3975C51.8626 88.5982 51.3176 88.6949 50.7697 88.6819H48.8649C48.317 88.6949 47.772 88.5982 47.262 88.3975C46.752 88.1968 46.2872 87.8962 45.8951 87.5132C45.5029 87.1303 45.1913 86.6728 44.9786 86.1677C44.7658 85.6626 44.6563 85.1201 44.6563 84.572C44.6562 84.0239 44.7658 83.4813 44.9786 82.9762C45.1913 82.4711 45.5029 82.0136 45.8951 81.6307C46.2872 81.2478 46.752 80.9471 47.262 80.7464C47.772 80.5458 48.317 80.4491 48.8649 80.4621Z" fill="#263238"/>
<path opacity="0.5" d="M48.8649 80.4621H50.7697C51.3176 80.4491 51.8626 80.5458 52.3726 80.7464C52.8826 80.9471 53.3474 81.2478 53.7395 81.6307C54.1317 82.0136 54.4433 82.4711 54.656 82.9762C54.8688 83.4813 54.9784 84.0239 54.9784 84.572C54.9784 85.1201 54.8688 85.6626 54.656 86.1677C54.4433 86.6728 54.1317 87.1303 53.7395 87.5132C53.3474 87.8962 52.8826 88.1968 52.3726 88.3975C51.8626 88.5982 51.3176 88.6949 50.7697 88.6819H48.8649C48.317 88.6949 47.772 88.5982 47.262 88.3975C46.752 88.1968 46.2872 87.8962 45.8951 87.5132C45.5029 87.1303 45.1913 86.6728 44.9786 86.1677C44.7658 85.6626 44.6563 85.1201 44.6563 84.572C44.6562 84.0239 44.7658 83.4813 44.9786 82.9762C45.1913 82.4711 45.5029 82.0136 45.8951 81.6307C46.2872 81.2478 46.752 80.9471 47.262 80.7464C47.772 80.5458 48.317 80.4491 48.8649 80.4621Z" fill="black"/>
<path d="M52.6604 86.1446C53.5287 84.0482 52.5332 81.6447 50.4367 80.7763C48.3403 79.9079 45.9368 80.9035 45.0684 82.9999C44.2001 85.0964 45.1956 87.4999 47.2921 88.3682C49.3885 89.2366 51.792 88.2411 52.6604 86.1446Z" fill="#263238"/>
<path d="M46.0918 84.5731C46.0918 85.1237 46.2551 85.662 46.561 86.1198C46.8669 86.5776 47.3017 86.9345 47.8104 87.1452C48.3191 87.3559 48.8789 87.411 49.419 87.3036C49.959 87.1962 50.4551 86.931 50.8444 86.5417C51.2338 86.1523 51.4989 85.6563 51.6063 85.1162C51.7137 84.5762 51.6586 84.0164 51.4479 83.5077C51.2372 82.999 50.8804 82.5642 50.4225 82.2583C49.9647 81.9524 49.4264 81.7891 48.8758 81.7891C48.5098 81.7876 48.1471 81.8585 47.8086 81.9979C47.4702 82.1372 47.1626 82.3423 46.9038 82.6011C46.645 82.8599 46.44 83.1674 46.3006 83.5059C46.1613 83.8443 46.0903 84.2071 46.0918 84.5731ZM50.523 85.1554L50.4024 85.0255C50.3727 84.9953 50.3503 84.9586 50.337 84.9184C50.3238 84.8782 50.3199 84.8354 50.3258 84.7935C50.3506 84.6484 50.3506 84.5001 50.3258 84.355C50.3199 84.3131 50.3238 84.2703 50.337 84.2301C50.3503 84.1898 50.3727 84.1532 50.4024 84.123L50.523 83.9931C50.5599 83.9542 50.6067 83.9262 50.6584 83.9121C50.7101 83.8981 50.7647 83.8985 50.8162 83.9133C50.8676 83.9282 50.9141 83.9569 50.9503 83.9963C50.9866 84.0357 51.0113 84.0844 51.0218 84.1369C51.0806 84.4279 51.0806 84.7276 51.0218 85.0185C51.0104 85.0705 50.9849 85.1184 50.9482 85.157C50.9116 85.1955 50.8651 85.2234 50.8137 85.2375C50.7624 85.2515 50.7082 85.2514 50.657 85.2369C50.6057 85.2224 50.5594 85.1943 50.523 85.1554ZM49.1844 86.3038L49.2377 86.1298C49.2516 86.088 49.2746 86.0499 49.3051 86.0182C49.3356 85.9864 49.3729 85.962 49.4141 85.9465C49.5435 85.8949 49.6646 85.8245 49.7737 85.7377C49.8059 85.712 49.8433 85.6933 49.8832 85.6829C49.9232 85.6725 49.9649 85.6706 50.0057 85.6774L50.1866 85.7192C50.2392 85.7314 50.2873 85.7578 50.3257 85.7957C50.3641 85.8335 50.3913 85.8813 50.4043 85.9336C50.4173 85.986 50.4155 86.0409 50.3992 86.0923C50.3829 86.1437 50.3527 86.1896 50.3119 86.2249C50.0904 86.4197 49.8326 86.5688 49.5533 86.6634C49.5029 86.6785 49.4495 86.6798 49.3984 86.6673C49.3474 86.6548 49.3006 86.6288 49.263 86.5921C49.2254 86.5555 49.1982 86.5094 49.1844 86.4587C49.1706 86.408 49.1706 86.3545 49.1844 86.3038ZM49.5625 82.4874C49.8423 82.5811 50.1003 82.7303 50.3212 82.9259C50.3613 82.9613 50.3909 83.007 50.4069 83.0581C50.4228 83.1092 50.4243 83.1637 50.4114 83.2157C50.3985 83.2676 50.3716 83.315 50.3336 83.3527C50.2956 83.3903 50.2479 83.4168 50.1959 83.4293L50.0149 83.4711C49.9742 83.4789 49.9323 83.4776 49.8921 83.4672C49.852 83.4567 49.8147 83.4375 49.7829 83.4108C49.6733 83.3248 49.5523 83.2545 49.4233 83.202C49.3822 83.1871 49.345 83.163 49.3144 83.1317C49.2839 83.1004 49.2609 83.0625 49.247 83.021L49.1937 82.847C49.1783 82.7958 49.1772 82.7414 49.1906 82.6896C49.2039 82.6379 49.2312 82.5908 49.2695 82.5535C49.3078 82.5162 49.3556 82.4901 49.4076 82.478C49.4597 82.4659 49.5141 82.4684 49.5649 82.4851L49.5625 82.4874ZM48.5371 82.847L48.4837 83.021C48.4699 83.0625 48.4469 83.1004 48.4163 83.1317C48.3858 83.163 48.3486 83.1871 48.3074 83.202C48.1784 83.2545 48.0574 83.3248 47.9478 83.4108C47.9161 83.4375 47.8788 83.4567 47.8386 83.4672C47.7985 83.4776 47.7565 83.4789 47.7158 83.4711L47.5349 83.4293C47.4828 83.4168 47.4352 83.3903 47.3972 83.3527C47.3592 83.315 47.3323 83.2676 47.3193 83.2157C47.3064 83.1637 47.308 83.1092 47.3239 83.0581C47.3398 83.007 47.3695 82.9613 47.4096 82.9259C47.6305 82.7303 47.8885 82.5811 48.1682 82.4874C48.2185 82.4712 48.2723 82.4689 48.3238 82.4808C48.3753 82.4927 48.4226 82.5183 48.4607 82.555C48.4988 82.5916 48.5262 82.6379 48.5401 82.689C48.554 82.74 48.5537 82.7938 48.5394 82.8447L48.5371 82.847ZM47.5256 85.7192L47.7065 85.6774C47.7473 85.6706 47.789 85.6725 47.829 85.6829C47.8689 85.6933 47.9063 85.712 47.9385 85.7377C48.0476 85.8245 48.1687 85.8949 48.2981 85.9465C48.3394 85.962 48.3766 85.9864 48.4071 86.0182C48.4376 86.0499 48.4606 86.088 48.4745 86.1298L48.5278 86.3038C48.5425 86.3555 48.5428 86.4102 48.5286 86.4621C48.5145 86.5139 48.4864 86.5609 48.4475 86.5979C48.4085 86.635 48.3602 86.6606 48.3077 86.6722C48.2552 86.6837 48.2005 86.6807 48.1497 86.6634C47.8703 86.5688 47.6125 86.4197 47.391 86.2249C47.3504 86.1885 47.3206 86.1416 47.3051 86.0893C47.2896 86.037 47.2888 85.9814 47.303 85.9287C47.3172 85.8761 47.3458 85.8284 47.3855 85.791C47.4252 85.7535 47.4745 85.7279 47.5279 85.7168L47.5256 85.7192ZM46.702 85.0232C46.6432 84.7322 46.6432 84.4325 46.702 84.1416C46.7125 84.089 46.7372 84.0404 46.7735 84.0009C46.8097 83.9615 46.8562 83.9328 46.9076 83.918C46.9591 83.9031 47.0137 83.9027 47.0654 83.9168C47.1171 83.9308 47.1639 83.9588 47.2008 83.9977L47.3237 84.1276C47.3527 84.1583 47.3745 84.195 47.3873 84.2352C47.4002 84.2753 47.4038 84.3179 47.398 84.3596C47.3763 84.505 47.3763 84.6528 47.398 84.7981C47.4038 84.8399 47.4002 84.8824 47.3873 84.9226C47.3745 84.9628 47.3527 84.9995 47.3237 85.0301L47.2008 85.16C47.1637 85.1983 47.1168 85.2257 47.0653 85.2392C47.0138 85.2528 46.9595 85.252 46.9084 85.237C46.8573 85.2219 46.8112 85.1932 46.7753 85.1539C46.7393 85.1145 46.7148 85.0661 46.7043 85.0139L46.702 85.0232Z" fill="#EF233C"/>
<path d="M75.924 86.1451C76.7924 84.0486 75.7969 81.6452 73.7004 80.7768C71.604 79.9084 69.2005 80.904 68.3321 83.0004C67.4637 85.0969 68.4593 87.5003 70.5557 88.3687C72.6522 89.2371 75.0557 88.2416 75.924 86.1451Z" fill="#263238"/>
<path d="M69.3535 84.5733C69.3558 85.1211 69.5204 85.656 69.8264 86.1104C70.1324 86.5648 70.5662 86.9183 71.073 87.1264C71.5798 87.3344 72.1369 87.3877 72.6739 87.2794C73.2109 87.1711 73.7038 86.9062 74.0904 86.518C74.477 86.1298 74.7399 85.6358 74.8459 85.0983C74.9519 84.5608 74.8963 84.004 74.6862 83.4981C74.476 82.9922 74.1207 82.5599 73.665 82.2557C73.2093 81.9516 72.6738 81.7893 72.1259 81.7893C71.7609 81.7893 71.3994 81.8614 71.0623 82.0014C70.7252 82.1415 70.419 82.3467 70.1614 82.6054C69.9038 82.8641 69.6999 83.1711 69.5612 83.5088C69.4226 83.8465 69.352 84.2083 69.3535 84.5733ZM73.7847 85.1556L73.6641 85.0257C73.6348 84.9952 73.6127 84.9585 73.5995 84.9184C73.5862 84.8782 73.5822 84.8356 73.5875 84.7937C73.6123 84.6486 73.6123 84.5003 73.5875 84.3552C73.5822 84.3133 73.5862 84.2707 73.5995 84.2305C73.6127 84.1904 73.6348 84.1537 73.6641 84.1232L73.7755 83.984C73.8123 83.9451 73.8592 83.9171 73.9109 83.9031C73.9625 83.889 74.0171 83.8894 74.0686 83.9043C74.1201 83.9191 74.1665 83.9478 74.2028 83.9872C74.239 84.0267 74.2638 84.0753 74.2743 84.1279C74.3361 84.4185 74.3361 84.7189 74.2743 85.0095C74.2641 85.0622 74.2396 85.1111 74.2035 85.1508C74.1673 85.1905 74.121 85.2195 74.0694 85.2346C74.0179 85.2497 73.9632 85.2504 73.9113 85.2364C73.8595 85.2225 73.8125 85.1945 73.7755 85.1556H73.7847ZM72.4484 86.304L72.5018 86.13C72.5159 86.0884 72.539 86.0504 72.5695 86.0187C72.6 85.987 72.6371 85.9625 72.6781 85.9467C72.8082 85.8951 72.9302 85.8248 73.04 85.7379C73.0721 85.7118 73.1094 85.6929 73.1494 85.6825C73.1895 85.6721 73.2313 85.6704 73.272 85.6776L73.453 85.7194C73.5055 85.7316 73.5537 85.7581 73.5921 85.7959C73.6305 85.8338 73.6577 85.8815 73.6707 85.9339C73.6836 85.9862 73.6819 86.0411 73.6656 86.0925C73.6492 86.1439 73.619 86.1898 73.5783 86.2251C73.3572 86.4205 73.0992 86.5695 72.8196 86.6636C72.7691 86.6792 72.7154 86.681 72.664 86.6687C72.6126 86.6564 72.5655 86.6305 72.5275 86.5938C72.4896 86.557 72.4622 86.5107 72.4483 86.4597C72.4344 86.4088 72.4344 86.355 72.4484 86.304ZM72.8266 82.4876C73.1066 82.5808 73.3647 82.73 73.5852 82.9261C73.6253 82.9615 73.655 83.0073 73.6709 83.0584C73.6868 83.1095 73.6884 83.1639 73.6755 83.2159C73.6625 83.2678 73.6356 83.3152 73.5976 83.3529C73.5596 83.3905 73.512 83.4171 73.4599 83.4295L73.279 83.4713C73.2383 83.4795 73.1962 83.4783 73.156 83.4679C73.1158 83.4574 73.0785 83.438 73.047 83.411C72.9366 83.325 72.8148 83.2547 72.6851 83.2022C72.6442 83.1868 72.6072 83.1627 72.5767 83.1314C72.5462 83.1001 72.523 83.0625 72.5087 83.0212L72.4554 82.8472C72.44 82.796 72.4389 82.7416 72.4523 82.6899C72.4657 82.6381 72.493 82.591 72.5312 82.5537C72.5695 82.5164 72.6173 82.4903 72.6693 82.4782C72.7214 82.4662 72.7758 82.4686 72.8266 82.4853V82.4876ZM71.8011 82.8472L71.7478 83.0212C71.734 83.0624 71.7113 83.1 71.6812 83.1313C71.6511 83.1626 71.6144 83.1868 71.5738 83.2022C71.4438 83.2542 71.322 83.3245 71.2119 83.411C71.1801 83.4377 71.1428 83.457 71.1027 83.4674C71.0625 83.4778 71.0206 83.4792 70.9799 83.4713L70.8012 83.4295C70.7492 83.4171 70.7016 83.3905 70.6636 83.3529C70.6255 83.3152 70.5986 83.2678 70.5857 83.2159C70.5728 83.1639 70.5744 83.1095 70.5903 83.0584C70.6062 83.0073 70.6358 82.9615 70.6759 82.9261C70.8965 82.73 71.1546 82.5808 71.4346 82.4876C71.4846 82.4725 71.5378 82.471 71.5886 82.4834C71.6393 82.4958 71.6859 82.5216 71.7233 82.5581C71.7607 82.5946 71.7877 82.6404 71.8014 82.6909C71.8151 82.7413 71.815 82.7945 71.8011 82.8449V82.8472ZM70.7919 85.7194L70.9706 85.6776C71.0113 85.6709 71.053 85.6727 71.093 85.6831C71.133 85.6935 71.1703 85.7122 71.2026 85.7379C71.312 85.8254 71.434 85.8957 71.5645 85.9467C71.6052 85.9626 71.6419 85.9873 71.672 86.019C71.702 86.0506 71.7248 86.0886 71.7385 86.13L71.7919 86.304C71.8072 86.3556 71.808 86.4103 71.7942 86.4623C71.7805 86.5143 71.7526 86.5614 71.7138 86.5986C71.6749 86.6358 71.6266 86.6615 71.574 86.673C71.5215 86.6845 71.4668 86.6812 71.416 86.6636C71.1364 86.5695 70.8785 86.4205 70.6574 86.2251C70.6159 86.1893 70.5853 86.1426 70.5691 86.0902C70.5529 86.0379 70.5518 85.982 70.5658 85.929C70.5799 85.8761 70.6085 85.8281 70.6485 85.7906C70.6885 85.7531 70.7382 85.7277 70.7919 85.7171V85.7194ZM69.966 85.0234C69.9072 84.7325 69.9072 84.4327 69.966 84.1418C69.9762 84.0888 70.0009 84.0396 70.0373 83.9998C70.0738 83.9599 70.1205 83.9309 70.1724 83.916C70.2243 83.9011 70.2793 83.9009 70.3313 83.9154C70.3834 83.9298 70.4304 83.9584 70.4671 83.9979L70.5878 84.1279C70.6168 84.1585 70.6385 84.1952 70.6514 84.2354C70.6642 84.2756 70.6679 84.3181 70.662 84.3599C70.6404 84.5052 70.6404 84.653 70.662 84.7983C70.6679 84.8401 70.6642 84.8827 70.6514 84.9228C70.6385 84.963 70.6168 84.9997 70.5878 85.0303L70.4671 85.1603C70.4302 85.1998 70.383 85.2284 70.3309 85.2427C70.2787 85.257 70.2235 85.2566 70.1716 85.2414C70.1196 85.2263 70.0729 85.197 70.0366 85.1569C70.0003 85.1167 69.9759 85.0673 69.966 85.0141V85.0234Z" fill="#EF233C"/>
<path d="M85.924 86.1456C86.7924 84.0491 85.7969 81.6457 83.7004 80.7773C81.604 79.9089 79.2005 80.9045 78.3321 83.0009C77.4637 85.0974 78.4593 87.5008 80.5557 88.3692C82.6522 89.2376 85.0557 88.242 85.924 86.1456Z" fill="#263238"/>
<path d="M86.3984 82.469H88.0364V84.1696H86.8764C86.8255 83.5777 86.6633 83.0007 86.3984 82.469Z" fill="#263238"/>
<path d="M77.383 84.1696H76.8703C76.8237 83.5786 76.6663 83.0017 76.4062 82.469H77.8632C77.5975 83.0006 77.4345 83.5775 77.383 84.1696Z" fill="#263238"/>
<g opacity="0.8">
<path d="M86.3984 82.469H88.0364V84.1696H86.8764C86.8255 83.5777 86.6633 83.0007 86.3984 82.469Z" fill="white"/>
<path d="M77.383 84.1696H76.8703C76.8237 83.5786 76.6663 83.0017 76.4062 82.469H77.8632C77.5975 83.0006 77.4345 83.5775 77.383 84.1696Z" fill="white"/>
</g>
<path d="M79.3555 84.5733C79.3578 85.1211 79.5223 85.656 79.8284 86.1104C80.1344 86.5648 80.5682 86.9183 81.075 87.1264C81.5817 87.3344 82.1388 87.3877 82.6758 87.2794C83.2129 87.1711 83.7058 86.9062 84.0923 86.518C84.4789 86.1298 84.7418 85.6358 84.8478 85.0983C84.9539 84.5608 84.8983 84.004 84.6881 83.4981C84.478 82.9922 84.1226 82.5599 83.6669 82.2557C83.2113 81.9516 82.6757 81.7893 82.1279 81.7893C81.7628 81.7893 81.4014 81.8614 81.0643 82.0014C80.7271 82.1415 80.421 82.3467 80.1634 82.6054C79.9058 82.8641 79.7018 83.1711 79.5632 83.5088C79.4246 83.8465 79.354 84.2083 79.3555 84.5733ZM83.7867 85.1556L83.6661 85.0257C83.6364 84.9955 83.614 84.9589 83.6007 84.9186C83.5874 84.8784 83.5836 84.8357 83.5895 84.7937C83.6142 84.6486 83.6142 84.5003 83.5895 84.3552C83.5836 84.3133 83.5874 84.2705 83.6007 84.2303C83.614 84.1901 83.6364 84.1534 83.6661 84.1232L83.7867 83.9933C83.8236 83.9544 83.8704 83.9264 83.9221 83.9124C83.9738 83.8983 84.0284 83.8987 84.0798 83.9135C84.1313 83.9284 84.1777 83.9571 84.214 83.9965C84.2503 84.036 84.275 84.0846 84.2855 84.1371C84.3442 84.4281 84.3442 84.7278 84.2855 85.0187C84.274 85.0707 84.2486 85.1186 84.2119 85.1572C84.1752 85.1958 84.1287 85.2236 84.0774 85.2377C84.0261 85.2518 83.9719 85.2516 83.9206 85.2371C83.8694 85.2227 83.8231 85.1945 83.7867 85.1556ZM82.4504 86.304L82.5037 86.13C82.5179 86.0884 82.541 86.0504 82.5715 86.0187C82.6019 85.987 82.639 85.9625 82.6801 85.9467C82.8102 85.8951 82.9321 85.8248 83.042 85.7379C83.074 85.7117 83.1113 85.6927 83.1513 85.6822C83.1914 85.6718 83.2332 85.6702 83.274 85.6776L83.4549 85.7194C83.5075 85.7316 83.5556 85.7581 83.594 85.7959C83.6325 85.8338 83.6597 85.8815 83.6726 85.9339C83.6856 85.9862 83.6838 86.0411 83.6675 86.0925C83.6512 86.1439 83.621 86.1898 83.5802 86.2251C83.3591 86.4205 83.1012 86.5695 82.8216 86.6636C82.7711 86.6792 82.7173 86.681 82.6659 86.6687C82.6146 86.6564 82.5674 86.6305 82.5295 86.5938C82.4915 86.557 82.4641 86.5107 82.4502 86.4597C82.4363 86.4088 82.4364 86.355 82.4504 86.304ZM82.8239 82.4853C83.1039 82.5785 83.362 82.7277 83.5825 82.9238C83.6227 82.9592 83.6523 83.0049 83.6682 83.056C83.6841 83.1071 83.6857 83.1616 83.6728 83.2135C83.6599 83.2655 83.6329 83.3129 83.5949 83.3505C83.5569 83.3882 83.5093 83.4148 83.4573 83.4272L83.2763 83.469C83.2356 83.4774 83.1935 83.4763 83.1533 83.4658C83.1131 83.4554 83.0758 83.4358 83.0443 83.4087C82.9339 83.3227 82.8121 83.2524 82.6824 83.1999C82.6415 83.1845 82.6045 83.1603 82.574 83.1291C82.5435 83.0978 82.5203 83.0602 82.5061 83.0189L82.4527 82.8449C82.4378 82.7939 82.4372 82.7397 82.4508 82.6884C82.4644 82.637 82.4918 82.5903 82.53 82.5533C82.5682 82.5163 82.6157 82.4904 82.6675 82.4785C82.7193 82.4665 82.7734 82.4688 82.8239 82.4853ZM81.7985 82.8449L81.7451 83.0189C81.7314 83.0601 81.7086 83.0977 81.6785 83.129C81.6484 83.1603 81.6117 83.1845 81.5711 83.1999C81.4411 83.2519 81.3193 83.3222 81.2092 83.4087C81.1774 83.4354 81.1401 83.4546 81.1 83.4651C81.0599 83.4755 81.0179 83.4768 80.9772 83.469L80.7985 83.4272C80.7465 83.4148 80.6989 83.3882 80.6609 83.3505C80.6229 83.3129 80.5959 83.2655 80.583 83.2135C80.5701 83.1616 80.5717 83.1071 80.5876 83.056C80.6035 83.0049 80.6331 82.9592 80.6733 82.9238C80.8938 82.7277 81.1519 82.5785 81.4319 82.4853C81.4824 82.4688 81.5365 82.4665 81.5883 82.4785C81.6401 82.4904 81.6876 82.5163 81.7258 82.5533C81.764 82.5903 81.7914 82.637 81.805 82.6884C81.8186 82.7397 81.8179 82.7939 81.8031 82.8449H81.7985ZM80.7893 85.7171L80.9679 85.6753C81.0086 85.6685 81.0503 85.6704 81.0903 85.6808C81.1303 85.6912 81.1676 85.7099 81.1999 85.7356C81.3093 85.823 81.4314 85.8934 81.5618 85.9444C81.6025 85.9603 81.6392 85.9849 81.6693 86.0166C81.6994 86.0483 81.7221 86.0862 81.7358 86.1277L81.7892 86.3017C81.8045 86.3532 81.8053 86.408 81.7916 86.46C81.7778 86.512 81.7499 86.5591 81.7111 86.5963C81.6722 86.6335 81.6239 86.6592 81.5714 86.6707C81.5188 86.6821 81.4641 86.6789 81.4133 86.6613C81.1337 86.5672 80.8758 86.4181 80.6547 86.2228C80.6139 86.1866 80.584 86.1396 80.5685 86.0873C80.553 86.0349 80.5524 85.9793 80.5669 85.9266C80.5814 85.874 80.6103 85.8264 80.6505 85.7894C80.6906 85.7524 80.7403 85.7273 80.7939 85.7171H80.7893ZM79.9633 85.0211C79.9045 84.7301 79.9045 84.4304 79.9633 84.1395C79.9735 84.0864 79.9982 84.0373 80.0347 83.9974C80.0711 83.9576 80.1178 83.9286 80.1697 83.9137C80.2216 83.8988 80.2766 83.8986 80.3287 83.913C80.3807 83.9275 80.4277 83.9561 80.4645 83.9956L80.5851 84.1255C80.6141 84.1562 80.6358 84.1929 80.6487 84.2331C80.6615 84.2732 80.6652 84.3158 80.6593 84.3575C80.6377 84.5029 80.6377 84.6507 80.6593 84.796C80.6652 84.8378 80.6615 84.8803 80.6487 84.9205C80.6358 84.9607 80.6141 84.9974 80.5851 85.028L80.4645 85.1579C80.4275 85.1962 80.3808 85.2236 80.3295 85.2373C80.2781 85.251 80.224 85.2504 80.1729 85.2356C80.1218 85.2208 80.0757 85.1924 80.0396 85.1533C80.0035 85.1143 79.9788 85.0662 79.968 85.0141L79.9633 85.0211Z" fill="#EF233C"/>
<path d="M56.7516 82.469H63.584V62.1644H56.7516V82.469Z" fill="#EF233C"/>
<path opacity="0.2" d="M56.7516 82.469H63.584V62.1644H56.7516V82.469Z" fill="black"/>
<path d="M45.9773 62.176H56.7119V82.4807H53.1275C52.7344 81.6831 52.1259 81.0115 51.3709 80.5418C50.6159 80.0722 49.7444 79.8233 48.8552 79.8233C47.9661 79.8233 47.0946 80.0722 46.3396 80.5418C45.5845 81.0115 44.976 81.6831 44.583 82.4807H37.0801V71.0616L45.9773 62.176Z" fill="#EF233C"/>
<path d="M39.2246 74.3421V72.5673C39.2246 72.3717 39.2631 72.178 39.3379 71.9973C39.4128 71.8166 39.5225 71.6523 39.6608 71.514L46.4282 64.7443C46.708 64.4656 47.0866 64.3088 47.4815 64.3081H52.8523V74.3421H39.2246Z" fill="#263238"/>
<path opacity="0.5" d="M39.2246 74.3421V72.5673C39.2246 72.3717 39.2631 72.178 39.3379 71.9973C39.4128 71.8166 39.5225 71.6523 39.6608 71.514L46.4282 64.7443C46.708 64.4656 47.0866 64.3088 47.4815 64.3081H52.8523V74.3421H39.2246Z" fill="white"/>
<path d="M88.6791 82.469H101.33V78.2744H88.6791V82.469Z" fill="#EF233C"/>
<path opacity="0.2" d="M88.6791 82.469H101.33V78.2744H88.6791V82.469Z" fill="black"/>
<path d="M91.0599 80.678H98.9502C99.1514 80.678 99.3145 80.5149 99.3145 80.3137V79.5203C99.3145 79.3191 99.1514 79.1561 98.9502 79.1561H91.0599C90.8587 79.1561 90.6957 79.3191 90.6957 79.5203V80.3137C90.6957 80.5149 90.8587 80.678 91.0599 80.678Z" fill="white"/>
<path d="M45.3424 75.2815H46.7344C46.8455 75.2896 46.9494 75.3394 47.0253 75.421C47.1011 75.5025 47.1433 75.6098 47.1433 75.7211C47.1433 75.8325 47.1011 75.9398 47.0253 76.0213C46.9494 76.1029 46.8455 76.1527 46.7344 76.1608H45.3424C45.2314 76.1527 45.1274 76.1029 45.0516 76.0213C44.9758 75.9398 44.9336 75.8325 44.9336 75.7211C44.9336 75.6098 44.9758 75.5025 45.0516 75.421C45.1274 75.3394 45.2314 75.2896 45.3424 75.2815Z" fill="white"/>
<path d="M38.2015 80.8821H36.9928C36.8451 80.8821 36.7035 80.8234 36.5991 80.719C36.4946 80.6146 36.436 80.473 36.436 80.3253V76.9775C36.436 76.8299 36.4946 76.6882 36.5991 76.5838C36.7035 76.4794 36.8451 76.4207 36.9928 76.4207H38.2015C38.3358 76.4207 38.4689 76.4472 38.593 76.4986C38.7172 76.55 38.8299 76.6254 38.9249 76.7204C39.0199 76.8154 39.0953 76.9282 39.1467 77.0523C39.1981 77.1764 39.2246 77.3095 39.2246 77.4438V79.859C39.2246 79.9933 39.1981 80.1264 39.1467 80.2505C39.0953 80.3746 39.0199 80.4874 38.9249 80.5824C38.8299 80.6774 38.7172 80.7528 38.593 80.8042C38.4689 80.8556 38.3358 80.8821 38.2015 80.8821Z" fill="#EF233C"/>
<path opacity="0.2" d="M38.2015 80.8821H36.9928C36.8451 80.8821 36.7035 80.8234 36.5991 80.719C36.4946 80.6146 36.436 80.473 36.436 80.3253V76.9775C36.436 76.8299 36.4946 76.6882 36.5991 76.5838C36.7035 76.4794 36.8451 76.4207 36.9928 76.4207H38.2015C38.3358 76.4207 38.4689 76.4472 38.593 76.4986C38.7172 76.55 38.8299 76.6254 38.9249 76.7204C39.0199 76.8154 39.0953 76.9282 39.1467 77.0523C39.1981 77.1764 39.2246 77.3095 39.2246 77.4438V79.859C39.2246 79.9933 39.1981 80.1264 39.1467 80.2505C39.0953 80.3746 39.0199 80.4874 38.9249 80.5824C38.8299 80.6774 38.7172 80.7528 38.593 80.8042C38.4689 80.8556 38.3358 80.8821 38.2015 80.8821Z" fill="black"/>
<path d="M37.2738 80.4598C37.3784 80.4598 37.4787 80.4182 37.5527 80.3443C37.6266 80.2703 37.6682 80.17 37.6682 80.0654V77.2327C37.6676 77.1285 37.6258 77.0287 37.5519 76.9553C37.478 76.8818 37.378 76.8406 37.2738 76.8406C37.171 76.8424 37.0731 76.8845 37.001 76.9579C36.929 77.0312 36.8887 77.1299 36.8887 77.2327V80.0654C36.8886 80.1684 36.9289 80.2673 37.0009 80.341C37.0729 80.4147 37.1708 80.4574 37.2738 80.4598Z" fill="white"/>
<path d="M40.2222 73.1704C40.3268 73.1704 40.4271 73.1288 40.501 73.0548C40.575 72.9809 40.6166 72.8806 40.6166 72.7759V69.9432C40.6166 69.8386 40.575 69.7383 40.501 69.6643C40.4271 69.5904 40.3268 69.5488 40.2222 69.5488C40.118 69.5494 40.0182 69.5913 39.9448 69.6652C39.8713 69.7391 39.8301 69.839 39.8301 69.9432V72.7759C39.8301 72.8801 39.8713 72.9801 39.9448 73.054C40.0182 73.1279 40.118 73.1697 40.2222 73.1704Z" fill="#263238"/>
<path d="M62.1759 67.5537H64.99C65.7048 67.5546 66.3925 67.8274 66.9135 68.3168C67.4345 68.8062 67.7497 69.4755 67.7952 70.1889C67.8406 70.9022 67.6129 71.6061 67.1583 72.1577C66.7037 72.7093 66.0562 73.0672 65.3473 73.1588L66.4911 82.128H59.3594V70.3655C59.3606 69.6194 59.6579 68.9042 60.1859 68.377C60.714 67.8498 61.4297 67.5537 62.1759 67.5537Z" fill="#263238"/>
<path d="M62.1759 67.5537C62.8905 67.5551 63.5778 67.8284 64.0983 68.318C64.6188 68.8075 64.9336 69.4768 64.9788 70.19C65.0239 70.9032 64.7961 71.6068 64.3415 72.1582C63.8869 72.7095 63.2395 73.0673 62.5308 73.1588L63.6769 82.128H59.3594V70.3655C59.3606 69.6194 59.6579 68.9042 60.1859 68.377C60.714 67.8498 61.4297 67.5537 62.1759 67.5537Z" fill="#263238"/>
<path opacity="0.2" d="M62.1759 67.5537C62.8905 67.5551 63.5778 67.8284 64.0983 68.318C64.6188 68.8075 64.9336 69.4768 64.9788 70.19C65.0239 70.9032 64.7961 71.6068 64.3415 72.1582C63.8869 72.7095 63.2395 73.0673 62.5308 73.1588L63.6769 82.128H59.3594V70.3655C59.3606 69.6194 59.6579 68.9042 60.1859 68.377C60.714 67.8498 61.4297 67.5537 62.1759 67.5537Z" fill="white"/>
<path d="M69.9785 57.1392C69.1686 59.0932 68.7515 61.1878 68.7512 63.3031C68.7509 65.4183 69.1674 67.513 69.9768 69.4673C70.7862 71.4216 71.9727 73.1973 73.4686 74.6929C74.9645 76.1885 76.7404 77.3748 78.6948 78.1839L69.9925 77.9333C67.2807 76.8099 65.1262 74.6553 64.0028 71.9435C62.8795 69.2317 62.8793 66.1847 64.0022 63.4728L69.9785 57.1392Z" fill="#EF233C"/>
<path opacity="0.6" d="M69.9785 57.1392C69.1686 59.0932 68.7515 61.1878 68.7512 63.3031C68.7509 65.4183 69.1674 67.513 69.9768 69.4673C70.7862 71.4216 71.9727 73.1973 73.4686 74.6929C74.9645 76.1885 76.7404 77.3748 78.6948 78.1839L69.9925 77.9333C67.2807 76.8099 65.1262 74.6553 64.0028 71.9435C62.8795 69.2317 62.8793 66.1847 64.0022 63.4728L69.9785 57.1392Z" fill="white"/>
<path d="M92.3928 51.708C91.2699 54.42 91.2701 57.4669 92.3935 60.1788C93.5168 62.8906 95.6713 65.0451 98.3831 66.1686C98.9394 64.8258 99.2258 63.3865 99.2259 61.933C99.2259 60.4795 98.9396 59.0403 98.3834 57.6974C97.8271 56.3546 97.0118 55.1345 95.9839 54.1068C94.956 53.0792 93.7358 52.264 92.3928 51.708Z" fill="#EF233C"/>
<path opacity="0.2" d="M92.3928 51.708C91.2699 54.42 91.2701 57.4669 92.3935 60.1788C93.5168 62.8906 95.6713 65.0451 98.3831 66.1686C98.9394 64.8258 99.2258 63.3865 99.2259 61.933C99.2259 60.4795 98.9396 59.0403 98.3834 57.6974C97.8271 56.3546 97.0118 55.1345 95.9839 54.1068C94.956 53.0792 93.7358 52.264 92.3928 51.708Z" fill="white"/>
<path d="M92.7612 55.0118C92.4098 56.6296 92.5613 58.3161 93.1953 59.8453C93.8293 61.3746 94.9155 62.6735 96.3085 63.568C96.4605 63.6662 96.634 63.7262 96.8142 63.743C96.9944 63.7598 97.1759 63.733 97.3435 63.6647C97.5111 63.5964 97.6597 63.4886 97.7768 63.3507C97.8939 63.2127 97.9759 63.0485 98.016 62.872C98.369 61.2532 98.2183 59.5653 97.5842 58.0346C96.9501 56.5039 95.863 55.2039 94.4688 54.3089C94.3163 54.2107 94.1423 54.1509 93.9617 54.1345C93.7811 54.1181 93.5992 54.1456 93.4315 54.2146C93.2638 54.2836 93.1153 54.3922 92.9986 54.531C92.8819 54.6698 92.8004 54.8348 92.7612 55.0118Z" fill="#263238"/>
<path opacity="0.1" d="M92.7612 55.0118C92.4098 56.6296 92.5613 58.3161 93.1953 59.8453C93.8293 61.3746 94.9155 62.6735 96.3085 63.568C96.4605 63.6662 96.634 63.7262 96.8142 63.743C96.9944 63.7598 97.1759 63.733 97.3435 63.6647C97.5111 63.5964 97.6597 63.4886 97.7768 63.3507C97.8939 63.2127 97.9759 63.0485 98.016 62.872C98.369 61.2532 98.2183 59.5653 97.5842 58.0346C96.9501 56.5039 95.863 55.2039 94.4688 54.3089C94.3163 54.2107 94.1423 54.1509 93.9617 54.1345C93.7811 54.1181 93.5992 54.1456 93.4315 54.2146C93.2638 54.2836 93.1153 54.3922 92.9986 54.531C92.8819 54.6698 92.8004 54.8348 92.7612 55.0118Z" fill="white"/>
<path opacity="0.7" d="M95.0042 62.5354C94.2119 61.7581 93.587 60.827 93.1681 59.7992C92.7492 58.7714 92.545 57.6687 92.5682 56.5591C93.3603 57.3365 93.985 58.2677 94.4039 59.2955C94.8228 60.3232 95.0271 61.4258 95.0042 62.5354Z" fill="black"/>
<path d="M69.9793 57.1392C69.1693 59.0933 68.7523 61.1878 68.752 63.3031C68.7517 65.4184 69.1681 67.513 69.9775 69.4673C70.787 71.4216 71.9735 73.1973 73.4694 74.6929C74.9652 76.1885 76.7411 77.3748 78.6955 78.1839L92.4067 72.5046C90.4528 71.6952 88.6774 70.5089 87.182 69.0133C85.6866 67.5178 84.5004 65.7423 83.6912 63.7883C82.882 61.8343 82.4657 59.74 82.466 57.6251C82.4662 55.5101 82.8831 53.416 83.6928 51.4622L69.9793 57.1392Z" fill="#EF233C"/>
<path opacity="0.7" d="M69.9793 57.1392C69.1693 59.0933 68.7523 61.1878 68.752 63.3031C68.7517 65.4184 69.1681 67.513 69.9775 69.4673C70.787 71.4216 71.9735 73.1973 73.4694 74.6929C74.9652 76.1885 76.7411 77.3748 78.6955 78.1839L92.4067 72.5046C90.4528 71.6952 88.6774 70.5089 87.182 69.0133C85.6866 67.5178 84.5004 65.7423 83.6912 63.7883C82.882 61.8343 82.4657 59.74 82.466 57.6251C82.4662 55.5101 82.8831 53.416 83.6928 51.4622L69.9793 57.1392Z" fill="white"/>
<path d="M83.6917 51.4575C82.882 53.4113 82.4651 55.5055 82.4648 57.6204C82.4646 59.7354 82.8809 61.8296 83.6901 63.7837C84.4993 65.7377 85.6854 67.5132 87.1809 69.0087C88.6763 70.5043 90.4517 71.6906 92.4056 72.4999L98.3819 66.1686C95.6702 65.0452 93.5157 62.8906 92.3923 60.1788C91.269 57.467 91.2687 54.42 92.3917 51.7081L83.6917 51.4575Z" fill="#EF233C"/>
<path opacity="0.8" d="M83.6917 51.4575C82.882 53.4113 82.4651 55.5055 82.4648 57.6204C82.4646 59.7354 82.8809 61.8296 83.6901 63.7837C84.4993 65.7377 85.6854 67.5132 87.1809 69.0087C88.6763 70.5043 90.4517 71.6906 92.4056 72.4999L98.3819 66.1686C95.6702 65.0452 93.5157 62.8906 92.3923 60.1788C91.269 57.467 91.2687 54.42 92.3917 51.7081L83.6917 51.4575Z" fill="white"/>
<path d="M88.6794 78.272V82.4689H86.3989C86.0058 81.6713 85.3973 80.9996 84.6423 80.53C83.8872 80.0604 83.0158 79.8115 82.1266 79.8115C81.2374 79.8115 80.366 80.0604 79.6109 80.53C78.8559 80.9996 78.2474 81.6713 77.8543 82.4689H76.3974C76.0043 81.6713 75.3958 80.9996 74.6407 80.53C73.8857 80.0604 73.0143 79.8115 72.1251 79.8115C71.2359 79.8115 70.3645 80.0604 69.6094 80.53C68.8544 80.9996 68.2459 81.6713 67.8528 82.4689H56.7168V78.272H88.6794Z" fill="#EF233C"/>
<path opacity="0.1" d="M67.5117 76.5088C68.5743 75.3094 70.08 74.0844 71.9197 72.9175C73.6572 75.2561 75.9993 77.0768 78.6941 78.1839L69.9918 77.9333C69.1068 77.5681 68.2731 77.0893 67.5117 76.5088Z" fill="black"/>
<path opacity="0.1" d="M71.9355 72.9175C75.017 71.0258 78.3222 69.5256 81.7747 68.4515C83.1203 68.02 84.4496 67.6604 85.7465 67.3611C87.469 69.6362 89.7676 71.4102 92.4049 72.4999L78.6937 78.1839C76.0048 77.0743 73.6686 75.2537 71.9355 72.9175Z" fill="black"/>
<path opacity="0.1" d="M97.877 66.7045L92.4064 72.5045C89.7691 71.4148 87.4705 69.6408 85.748 67.3657C90.5388 66.259 94.868 66.0549 97.877 66.7045Z" fill="black"/>
<path d="M101.973 82.469H88.0371V84.1696H101.973V82.469Z" fill="#263238"/>
<path d="M44.5907 82.469C44.3306 83.0017 44.1732 83.5786 44.1267 84.1696H36.125V82.469H44.5907Z" fill="#263238"/>
<path d="M67.3785 84.0768H53.6046C53.5574 83.52 53.413 82.9758 53.1777 82.469H67.7937C67.5625 82.9766 67.422 83.5207 67.3785 84.0768Z" fill="#263238"/>
<path opacity="0.5" d="M101.973 82.469H88.0371V84.1696H101.973V82.469Z" fill="white"/>
<path opacity="0.8" d="M44.5907 82.469C44.3306 83.0017 44.1732 83.5786 44.1267 84.1696H36.125V82.469H44.5907Z" fill="white"/>
<path opacity="0.8" d="M67.3785 84.0768H53.6046C53.5574 83.52 53.413 82.9758 53.1777 82.469H67.7937C67.5625 82.9766 67.422 83.5207 67.3785 84.0768Z" fill="white"/>
<path d="M96.0487 68.644L97.1345 78.272H88.4043L89.4877 68.6719C90.3642 69.533 91.5453 70.0131 92.774 70.0079C94.0026 70.0027 95.1796 69.5125 96.0487 68.644Z" fill="#263238"/>
<path opacity="0.5" d="M96.0487 68.644L97.1345 78.272H88.4043L89.4877 68.6719C90.3642 69.533 91.5453 70.0131 92.774 70.0079C94.0026 70.0027 95.1796 69.5125 96.0487 68.644Z" fill="white"/>
<path d="M86.9375 78.2722L88.0209 68.6697H89.4825L88.3991 78.2722H86.9375Z" fill="#263238"/>
<path opacity="0.2" d="M86.9375 78.2722L88.0209 68.6697H89.4825L88.3991 78.2722H86.9375Z" fill="white"/>
<path d="M26.7578 36.4355C26.7578 36.4355 30.6461 38.2266 44.2576 36.7673L41.9933 54.8447C36.9661 55.1064 31.9288 54.5852 27.0617 53.2996L26.7578 36.4355Z" fill="#EF233C"/>
<path opacity="0.8" d="M26.7578 36.4355C26.7578 36.4355 30.6461 38.2266 44.2576 36.7673L41.9933 54.8447C36.9661 55.1064 31.9288 54.5852 27.0617 53.2996L26.7578 36.4355Z" fill="white"/>
<path opacity="0.1" d="M28.1172 38.1733L28.3701 52.2673C32.4439 53.2365 36.626 53.6748 40.8122 53.5712L42.7332 38.2592C34.7663 39.0016 30.349 38.6002 28.1172 38.1733Z" fill="black"/>
<path d="M43.1067 54.4503C43.0812 54.7241 42.58 54.9143 41.9908 54.8447C41.4015 54.7751 40.9421 54.5176 40.97 54.2438L42.2831 36.2986C42.3202 35.9158 43.0162 35.6676 43.8375 35.7488C44.6588 35.83 45.2944 36.2128 45.2573 36.5863L43.1067 54.4503Z" fill="#EF233C"/>
<path opacity="0.6" d="M43.1067 54.4503C43.0812 54.7241 42.58 54.9143 41.9908 54.8447C41.4015 54.7751 40.9421 54.5176 40.97 54.2438L42.2831 36.2986C42.3202 35.9158 43.0162 35.6676 43.8375 35.7488C44.6588 35.83 45.2944 36.2128 45.2573 36.5863L43.1067 54.4503Z" fill="white"/>
<path opacity="0.1" d="M43.1067 54.4503C43.0812 54.724 42.58 54.9143 41.9908 54.8447C41.4015 54.7751 40.9421 54.5176 40.97 54.2438C40.9978 53.97 41.4966 53.7914 42.0859 53.8471C42.6752 53.9028 43.1345 54.1742 43.1067 54.4503Z" fill="black"/>
<path d="M36.8008 45.7226L37.1557 45.7365C37.1557 45.6832 37.1557 45.6553 37.1766 45.5997H36.9632C36.9771 45.5185 36.9841 45.4767 36.9957 45.3955H36.8541C36.8333 45.5161 36.8217 45.5857 36.8008 45.7226Z" fill="#EF233C"/>
<path d="M37.5131 45.6135H37.8495C37.8495 45.6692 37.8495 45.697 37.8309 45.7527L37.4922 45.7411C37.5015 45.704 37.5038 45.6669 37.5131 45.6135ZM38.1859 45.6321H38.5246C38.5246 45.6878 38.513 45.7156 38.506 45.7713H38.1673C38.1743 45.7156 38.1789 45.6878 38.1859 45.6321Z" fill="#EF233C"/>
<path d="M38.8604 45.646H39.1968C39.1968 45.704 39.1968 45.7318 39.1805 45.7875H38.8418C38.8488 45.7318 38.8534 45.704 38.8604 45.646ZM39.5355 45.646H39.8719C39.8719 45.704 39.8719 45.7318 39.858 45.7875H39.5192C39.5262 45.7388 39.5285 45.704 39.5355 45.6553V45.646ZM40.2106 45.646H40.5493C40.5493 45.7017 40.5493 45.7318 40.5331 45.7875H40.1967C40.2013 45.7411 40.2036 45.704 40.2106 45.6553V45.646Z" fill="#EF233C"/>
<path d="M40.873 45.7944H41.228C41.2419 45.6506 41.2489 45.5787 41.2605 45.4348H41.119C41.119 45.5207 41.119 45.5647 41.1004 45.6506H40.887C40.8823 45.7039 40.88 45.7364 40.873 45.7944Z" fill="#EF233C"/>
<path d="M41.1806 44.7481H41.3198C41.3198 44.885 41.3012 44.9546 41.2896 45.0915H41.1504C41.162 44.9546 41.169 44.885 41.1806 44.7481ZM41.2409 44.0637H41.3801C41.3685 44.2006 41.3615 44.2702 41.3499 44.4071H41.2107C41.2223 44.2679 41.2293 44.2006 41.2409 44.0637Z" fill="#EF233C"/>
<path d="M41.2974 43.3839H41.4342C41.4342 43.5231 41.418 43.5904 41.4064 43.7296H41.2695C41.2835 43.5835 41.2974 43.5139 41.2974 43.3839ZM41.3531 42.6879H41.4899C41.4783 42.8248 41.4737 42.8944 41.4621 43.0313H41.3252C41.3391 42.8944 41.3461 42.8271 41.3554 42.6879H41.3531ZM41.4087 41.9919H41.5433C41.5433 42.1311 41.527 42.2007 41.5178 42.3376H41.3809C41.3948 42.2077 41.3995 42.1381 41.4111 41.9919H41.4087Z" fill="#EF233C"/>
<path d="M41.4391 41.6556H41.5714C41.5714 41.5118 41.5876 41.4399 41.5992 41.2937L41.2675 41.3146L41.2559 41.4584H41.4554C41.4484 41.528 41.4461 41.5675 41.4391 41.6556Z" fill="#EF233C"/>
<path d="M39.9944 41.3656L40.3122 41.354C40.3122 41.4097 40.3122 41.4399 40.2983 41.4955L39.9805 41.5095C39.9874 41.4515 39.9897 41.4236 39.9944 41.3656ZM40.6301 41.3378L40.9479 41.3215L40.9363 41.4677L40.6162 41.4816C40.6231 41.4236 40.6254 41.3958 40.6301 41.3378Z" fill="#EF233C"/>
<path d="M38.0908 41.412H38.4087C38.4087 41.4677 38.3971 41.4955 38.3901 41.5512H38.0723C38.0815 41.4955 38.0839 41.4677 38.0908 41.412ZM38.7265 41.412H39.0443C39.0443 41.4677 39.0443 41.4978 39.0281 41.5535H38.7103C38.7149 41.4886 38.7195 41.4584 38.7265 41.4027V41.412ZM39.3599 41.3981L39.6777 41.3865C39.6777 41.4445 39.6777 41.4723 39.6638 41.528H39.3459C39.3506 41.4723 39.3552 41.4445 39.3599 41.3888V41.3981Z" fill="#EF233C"/>
<path d="M37.3926 41.76H37.5271C37.5387 41.6765 37.5434 41.637 37.555 41.5535H37.7545C37.7545 41.4978 37.7661 41.47 37.7731 41.4143H37.4413C37.4227 41.5558 37.4111 41.6254 37.3926 41.76Z" fill="#EF233C"/>
<path d="M37.2499 42.7529H37.3845L37.3381 43.0823H37.2012C37.2221 42.9501 37.2313 42.8851 37.2499 42.7529ZM37.345 42.094H37.4796L37.4332 42.4234H37.2986L37.345 42.094Z" fill="#EF233C"/>
<path d="M36.9553 44.725H37.0945C37.076 44.8549 37.0644 44.9222 37.0458 45.0521H36.9043C36.9252 44.9222 36.9345 44.8549 36.9553 44.725ZM37.0551 44.0684H37.1943C37.1734 44.1983 37.1641 44.2656 37.1433 44.3955H37.0064C37.0249 44.2656 37.0365 44.2007 37.0551 44.08V44.0684ZM37.1525 43.4119H37.2894L37.243 43.7413H37.1038C37.1201 43.616 37.134 43.5418 37.1525 43.4119Z" fill="#EF233C"/>
<path d="M32.5371 45.3978L32.8897 45.4349C32.9013 45.3816 32.906 45.356 32.9176 45.305L32.7088 45.2818C32.725 45.2052 32.7343 45.1658 32.7505 45.0869L32.6113 45.073L32.5371 45.3978Z" fill="#EF233C"/>
<path d="M33.2528 45.3374L33.5869 45.3676L33.5591 45.4998L33.2227 45.472L33.2528 45.3374ZM33.9233 45.3977L34.2574 45.4256C34.2574 45.4789 34.2411 45.5044 34.2319 45.5578L33.8955 45.53C33.9071 45.472 33.9117 45.4488 33.9233 45.3977Z" fill="#EF233C"/>
<path d="M34.5939 45.4512L34.9303 45.4767C34.9187 45.5301 34.914 45.5556 34.9048 45.6089L34.5684 45.5834C34.5684 45.5301 34.5823 45.5045 34.5939 45.4512ZM35.2644 45.4976L35.6008 45.5208L35.5776 45.6553L35.2412 45.6321L35.2644 45.4976ZM35.9372 45.5393L36.2736 45.5579L36.2504 45.6948L35.914 45.6762L35.9372 45.5393Z" fill="#EF233C"/>
<path d="M36.5898 45.7039L36.9425 45.7202C36.9634 45.5833 36.975 45.516 36.9958 45.3792H36.8543C36.8543 45.4627 36.8358 45.5021 36.8218 45.5856L36.6107 45.574C36.6014 45.6297 36.5991 45.6575 36.5898 45.7039Z" fill="#EF233C"/>
<path d="M36.9553 44.7249H37.0945C37.076 44.8548 37.0644 44.9221 37.0458 45.052H36.9043C36.9252 44.9198 36.9345 44.8548 36.9553 44.7249ZM37.0551 44.0684H37.1943C37.1734 44.1983 37.1641 44.2656 37.1433 44.3955H37.0064C37.0249 44.2656 37.0365 44.2006 37.0551 44.08V44.0684Z" fill="#EF233C"/>
<path d="M37.1542 43.4118H37.2911L37.2447 43.7412H37.1055C37.1217 43.6159 37.1356 43.5417 37.1542 43.4118ZM37.2516 42.7529H37.3862L37.3398 43.0823H37.2029C37.2238 42.9501 37.2331 42.8851 37.2516 42.7529ZM37.3468 42.094H37.4813L37.4349 42.4234H37.3004L37.3468 42.094Z" fill="#EF233C"/>
<path d="M37.392 41.76H37.5266L37.573 41.4143H37.2412C37.2412 41.47 37.2296 41.4978 37.2227 41.5512H37.4222C37.4106 41.637 37.4036 41.6788 37.392 41.76Z" fill="#EF233C"/>
<path d="M35.9725 41.4026H36.2904L36.2672 41.5395L35.9609 41.5279L35.9725 41.4026ZM36.6059 41.4026H36.9237C36.9237 41.4583 36.9121 41.4861 36.9029 41.5418H36.585C36.5943 41.4954 36.5989 41.4675 36.6059 41.4119V41.4026Z" fill="#EF233C"/>
<path d="M34.0728 41.3354L34.3883 41.3494C34.3883 41.4027 34.372 41.4306 34.3628 41.4839L34.0449 41.4677C34.0565 41.4167 34.0612 41.3888 34.0728 41.3354ZM34.7061 41.3633L35.0216 41.3749L34.9984 41.5094H34.6806C34.6899 41.4445 34.6945 41.4166 34.7061 41.3633ZM35.3395 41.3865H35.655C35.655 41.4422 35.6434 41.47 35.6341 41.5234H35.3163L35.3395 41.3865Z" fill="#EF233C"/>
<path d="M33.3555 41.6301H33.4877C33.5039 41.5512 33.5132 41.5118 33.5295 41.4306H33.729C33.729 41.3772 33.7429 41.3517 33.7545 41.2983L33.4227 41.2798C33.3949 41.4329 33.381 41.4979 33.3555 41.6301Z" fill="#EF233C"/>
<path d="M33.1552 42.5743H33.2897L33.2248 42.8875H33.0879C33.1157 42.7622 33.1297 42.6996 33.1552 42.5743ZM33.2874 41.9456H33.422L33.357 42.2588H33.2225L33.2874 41.9456Z" fill="#EF233C"/>
<path d="M32.7493 44.4488L32.8885 44.4628L32.8189 44.776L32.6797 44.762L32.7493 44.4488ZM32.8862 43.8248H33.023C32.9952 43.95 32.9836 44.0127 32.9558 44.138L32.8166 44.1264L32.8862 43.8248ZM33.0207 43.2007H33.1576C33.1321 43.326 33.1182 43.3886 33.0903 43.5162L32.9534 43.5046C32.9813 43.384 32.9952 43.326 33.0207 43.2007Z" fill="#EF233C"/>
<path d="M28.3047 44.8247L28.6527 44.8804L28.6875 44.7574L28.4787 44.7226C28.5019 44.6507 28.5135 44.6136 28.5344 44.5393L28.3952 44.5161C28.3604 44.6391 28.3441 44.7017 28.3047 44.8247Z" fill="#EF233C"/>
<path d="M29.0234 44.8083L29.3552 44.8594L29.3204 44.9847L28.9863 44.9336C29.0002 44.8849 29.0002 44.8594 29.0234 44.8083ZM29.687 44.9081L30.021 44.9568L29.9862 45.0821L29.6522 45.0357L29.687 44.9081Z" fill="#EF233C"/>
<path d="M30.3528 45.0081L30.6869 45.0521C30.673 45.1032 30.666 45.1287 30.6544 45.1797L30.3203 45.1333C30.3342 45.08 30.3389 45.0545 30.3528 45.0081ZM31.0186 45.0939L31.3527 45.1357C31.3527 45.1867 31.3342 45.2122 31.3226 45.2656L30.9885 45.2215L31.0186 45.0939ZM31.6868 45.1751L32.0209 45.2145C32.0093 45.2656 32.0023 45.2911 31.9907 45.3445L31.6566 45.305C31.6682 45.2401 31.6752 45.2238 31.6868 45.1705V45.1751Z" fill="#EF233C"/>
<path d="M32.3281 45.3769L32.6784 45.414C32.7086 45.2841 32.7225 45.2168 32.7504 45.0869L32.6112 45.073C32.5926 45.1519 32.5856 45.1913 32.5671 45.2679L32.356 45.247C32.3444 45.298 32.3397 45.3236 32.3281 45.3769Z" fill="#EF233C"/>
<path d="M32.7493 44.4488L32.8885 44.4627L32.8189 44.7759L32.6797 44.762L32.7493 44.4488ZM32.8862 43.8247H33.023C32.9952 43.95 32.9836 44.0126 32.9558 44.1379L32.8166 44.1263L32.8862 43.8247Z" fill="#EF233C"/>
<path d="M33.0224 43.2007H33.1592C33.1337 43.326 33.1198 43.3886 33.092 43.5162L32.9551 43.5046C32.9829 43.384 32.9968 43.326 33.0224 43.2007ZM33.1569 42.5743H33.2915L33.2265 42.8875H33.0896C33.1175 42.7622 33.1314 42.6996 33.1569 42.5743ZM33.2892 41.9456H33.4237L33.3588 42.2588H33.2242L33.2892 41.9456Z" fill="#EF233C"/>
<path d="M33.3554 41.63H33.4876C33.5155 41.4977 33.5294 41.4305 33.5549 41.2982L33.2232 41.2959C33.2232 41.3493 33.2069 41.3748 33.1953 41.4281L33.3948 41.4397L33.3554 41.63Z" fill="#EF233C"/>
<path d="M31.9579 41.1985L32.2734 41.224C32.2618 41.275 32.2572 41.3029 32.2456 41.3539L31.9277 41.3284C31.9393 41.2774 31.9463 41.2518 31.9579 41.1985ZM32.5913 41.2472L32.9068 41.2681L32.8789 41.4003L32.5611 41.3771L32.5913 41.2472Z" fill="#EF233C"/>
<path d="M30.0658 41.0222L30.3929 41.064C30.379 41.115 30.3744 41.1405 30.3604 41.1916L30.0449 41.1568C30.0472 41.0965 30.0519 41.064 30.0658 41.0222ZM30.6968 41.0872L31.0124 41.1173C30.9984 41.1684 30.9938 41.1939 30.9799 41.2449L30.6644 41.2148C30.6783 41.1637 30.6829 41.1382 30.6968 41.0872ZM31.3279 41.1452L31.6434 41.173L31.6132 41.3029L31.2977 41.2751L31.3279 41.1452Z" fill="#EF233C"/>
<path d="M29.334 41.2612L29.4662 41.2774C29.4871 41.2009 29.4964 41.1638 29.5173 41.0895L29.7168 41.1127C29.7307 41.0617 29.7377 41.0362 29.7493 40.9851L29.4198 40.948L29.334 41.2612Z" fill="#EF233C"/>
<path d="M29.0835 42.152L29.2158 42.1706C29.1833 42.2889 29.167 42.3492 29.1322 42.4675L29 42.4559L29.0835 42.152ZM29.2506 41.5581L29.3828 41.5743C29.3503 41.695 29.3341 41.753 29.2993 41.8736L29.167 41.8551C29.1995 41.7367 29.2181 41.6764 29.2506 41.5581Z" fill="#EF233C"/>
<path d="M28.5722 43.927L28.709 43.9479C28.6742 44.0662 28.658 44.1265 28.6232 44.2425L28.4863 44.2216L28.5722 43.927ZM28.7438 43.3377L28.8807 43.3563L28.7949 43.6532L28.658 43.6323L28.7438 43.3377ZM28.9155 42.7461L29.0501 42.7647C29.0153 42.883 28.999 42.9433 28.9666 43.0616L28.8297 43.0407L28.9155 42.7461Z" fill="#EF233C"/>
<path d="M34.7598 50.7662L35.1379 50.808C35.1379 50.7546 35.1518 50.7268 35.1634 50.6734L34.9314 50.6502L34.9709 50.4484L34.8201 50.4321C34.8015 50.576 34.7853 50.634 34.7598 50.7662Z" fill="#EF233C"/>
<path d="M35.6287 50.7222L36.0927 50.7686L36.0695 50.9031L35.6055 50.8567C35.6124 50.808 35.6171 50.7755 35.6287 50.7222ZM36.5567 50.8103L37.0207 50.8498L36.9975 50.9866L36.5335 50.9472L36.5567 50.8103Z" fill="#EF233C"/>
<path d="M37.4994 50.887L37.9634 50.9218C37.9634 50.9774 37.9495 51.0053 37.9425 51.0586C37.7546 51.047 37.6595 51.0401 37.4785 51.0238L37.4994 50.887ZM38.4274 50.9519L38.8914 50.9821C38.8914 51.0378 38.8798 51.0656 38.8728 51.1213L38.4088 51.0911C38.4251 51.0401 38.4274 51.0076 38.4367 50.9519H38.4274ZM39.3554 51.0076L39.8194 51.0285C39.8194 51.0865 39.8078 51.1143 39.8008 51.17L39.3368 51.1468C39.3647 51.0911 39.367 51.0633 39.374 51.0076H39.3554Z" fill="#EF233C"/>
<path d="M40.2969 51.1909L40.6797 51.2048C40.6959 51.0633 40.7029 50.9937 40.7191 50.8499H40.566L40.5428 51.0633H40.3108C40.3085 51.1051 40.3038 51.1329 40.2969 51.1909Z" fill="#EF233C"/>
<path d="M40.664 49.9703H40.8148C40.7962 50.1467 40.7869 50.2348 40.766 50.4088H40.6152C40.6361 50.2325 40.6454 50.1443 40.664 49.9703ZM40.7591 49.0911H40.9076L40.8612 49.5295H40.7127L40.7591 49.0911Z" fill="#EF233C"/>
<path d="M40.8488 48.2119H40.9949C40.9787 48.3882 40.9694 48.4764 40.9508 48.6527H40.8047C40.8325 48.488 40.8325 48.3882 40.8488 48.2119ZM40.9369 47.3326H41.0831C41.0645 47.509 41.0576 47.5971 41.039 47.7734H40.8928C40.9114 47.5971 40.9207 47.509 40.9369 47.328V47.3326ZM41.0228 46.4487H41.1666C41.1504 46.6251 41.1411 46.7132 41.1248 46.8895H40.981C40.9972 46.7132 41.0065 46.632 41.0228 46.4487Z" fill="#EF233C"/>
<path d="M41.0656 46.0056H41.2094C41.2094 45.8618 41.228 45.7898 41.2419 45.646H40.887C40.887 45.704 40.887 45.7318 40.873 45.7898H41.0865C41.0795 45.878 41.0656 45.9198 41.0656 46.0056Z" fill="#EF233C"/>
<path d="M39.1373 45.6506H39.5758C39.5758 45.7063 39.5642 45.7342 39.5596 45.7922H39.1211C39.1281 45.7342 39.1304 45.704 39.1373 45.6506ZM40.012 45.6506H40.4505C40.4505 45.7086 40.4505 45.7365 40.4342 45.7922H39.9957C40.0027 45.7411 40.005 45.704 40.012 45.6576V45.6506Z" fill="#EF233C"/>
<path d="M36.517 45.5718L36.9531 45.5903C36.9531 45.646 36.9415 45.6739 36.9323 45.7272L36.4961 45.7063L36.517 45.5718ZM37.3893 45.6089L37.8255 45.6228C37.8255 45.6785 37.8255 45.7063 37.8069 45.762L37.3684 45.7458C37.3777 45.6901 37.3823 45.6623 37.3893 45.6089ZM38.2616 45.6344H38.7001C38.7001 45.6901 38.6885 45.7179 38.6815 45.7736H38.2431C38.2523 45.7179 38.2547 45.6901 38.2616 45.6344Z" fill="#EF233C"/>
<path d="M35.6699 45.8664H35.8114L35.8462 45.6623H36.0574L36.0806 45.5277L35.7279 45.5068L35.6699 45.8664Z" fill="#EF233C"/>
<path d="M35.4477 47.1168H35.5915C35.5613 47.2839 35.5474 47.3674 35.5173 47.5344L35.3711 47.5228C35.4013 47.3674 35.4175 47.2839 35.4477 47.1168ZM35.5961 46.2839H35.74C35.7098 46.451 35.6959 46.5345 35.6657 46.7015H35.5219C35.5521 46.5345 35.566 46.451 35.5961 46.2839Z" fill="#EF233C"/>
<path d="M34.9832 49.6062L35.1317 49.6224C35.0992 49.7871 35.0853 49.8707 35.0528 50.0354L34.9043 50.0192C34.9345 49.8544 34.9507 49.7732 34.9832 49.6062ZM35.1409 48.7803L35.2871 48.7919C35.2569 48.9589 35.2407 49.0424 35.2105 49.2072L35.0621 49.1932C35.0922 49.0285 35.1085 48.9519 35.1409 48.7803ZM35.2941 47.9497H35.4402C35.4101 48.1167 35.3938 48.2003 35.3637 48.365L35.2175 48.3534C35.2477 48.1979 35.2639 48.1167 35.2941 47.9497Z" fill="#EF233C"/>
<path d="M29.0586 49.9056C29.2071 49.9334 29.2906 49.9497 29.4298 49.9752C29.446 49.9265 29.453 49.901 29.4669 49.8499L29.2349 49.8105C29.2558 49.7339 29.2674 49.6968 29.2883 49.6226L29.1398 49.5947C29.112 49.72 29.0934 49.7826 29.0586 49.9056Z" fill="#EF233C"/>
<path d="M29.929 49.9333L30.393 50.0146C30.3814 50.0633 30.3744 50.0888 30.3605 50.1398L29.8965 50.0586L29.929 49.9333ZM30.857 50.0911L31.321 50.1653L31.2908 50.293L30.8268 50.2187C30.8291 50.1677 30.8361 50.1422 30.857 50.0911Z" fill="#EF233C"/>
<path d="M31.7841 50.2373L32.2481 50.3046C32.2365 50.3579 32.2318 50.3835 32.2179 50.4345C32.0323 50.409 31.9395 50.3951 31.7539 50.3649C31.7539 50.3139 31.7585 50.2883 31.7841 50.2373ZM32.7121 50.3719L33.1761 50.4345L33.1482 50.5667L32.6842 50.5018C32.6819 50.4507 32.6865 50.4229 32.6981 50.3719H32.7121ZM33.6401 50.4948L34.1041 50.5528L34.0762 50.6851L33.6122 50.6271C33.6099 50.576 33.6169 50.5482 33.6401 50.4948Z" fill="#EF233C"/>
<path d="M34.5312 50.7407L34.9094 50.7824C34.9349 50.6502 34.9489 50.5829 34.9744 50.4484L34.8236 50.4321L34.7841 50.634L34.5521 50.6084L34.5312 50.7407Z" fill="#EF233C"/>
<path d="M34.9832 49.6062L35.1317 49.6224C35.0992 49.7872 35.0853 49.8707 35.0528 50.0354L34.9043 50.0192C34.9345 49.8544 34.9507 49.7732 34.9832 49.6062ZM35.1409 48.7803L35.2871 48.7919C35.2569 48.9589 35.2407 49.0424 35.2105 49.2072L35.0621 49.1932C35.0922 49.0285 35.1085 48.952 35.1409 48.7803Z" fill="#EF233C"/>
<path d="M35.2953 47.9497H35.4415C35.4113 48.1167 35.3951 48.2003 35.3649 48.365L35.2188 48.3534C35.2489 48.1979 35.2652 48.1167 35.2953 47.9497ZM35.4484 47.1168H35.5923C35.5621 47.2839 35.5482 47.3674 35.518 47.5344L35.3719 47.5228C35.402 47.3674 35.4183 47.2839 35.4484 47.1168ZM35.5969 46.2839H35.7408C35.7106 46.451 35.6967 46.5345 35.6665 46.7015H35.5227C35.5528 46.5345 35.5667 46.451 35.5969 46.2839Z" fill="#EF233C"/>
<path d="M35.6705 45.8664H35.812L35.87 45.5277L35.5173 45.5068L35.4941 45.6414H35.7053L35.6705 45.8664Z" fill="#EF233C"/>
<path d="M33.7798 45.3838L34.2136 45.4209C34.202 45.4743 34.1974 45.4998 34.1881 45.5532L33.752 45.516L33.7798 45.3838ZM34.6475 45.4557L35.0836 45.4859C35.072 45.5392 35.0674 45.5671 35.0581 45.6204L34.622 45.588C34.6336 45.5346 34.6382 45.5091 34.6475 45.4557Z" fill="#EF233C"/>
<path d="M31.179 45.1101L31.6105 45.1635L31.5803 45.2911L31.1465 45.2377C31.1604 45.1867 31.1674 45.1611 31.179 45.1101ZM32.0443 45.2122L32.4782 45.2586C32.4666 45.3119 32.4596 45.3375 32.448 45.3885L32.0142 45.3421C32.0165 45.2887 32.0327 45.2632 32.0443 45.2122ZM32.9097 45.3027L33.3435 45.3444C33.3435 45.3978 33.3273 45.4233 33.3157 45.4767L32.8818 45.4349C32.8934 45.3815 32.9004 45.356 32.9097 45.3027Z" fill="#EF233C"/>
<path d="M30.3164 45.3259L30.4556 45.3445C30.4765 45.2679 30.4858 45.2308 30.5043 45.1542L30.7154 45.1821C30.727 45.131 30.734 45.1055 30.7479 45.0545C30.6087 45.0359 30.5368 45.0289 30.3976 45.0081L30.3164 45.3259Z" fill="#EF233C"/>
<path d="M30.0028 46.4974L30.1467 46.5183L30.0423 46.9081L29.8984 46.8849L30.0028 46.4974ZM30.2116 45.7156L30.3532 45.7365L30.2488 46.1285L30.1072 46.1077L30.2116 45.7156Z" fill="#EF233C"/>
<path d="M29.3649 48.8244L29.5111 48.8499C29.4693 49.0054 29.4484 49.0819 29.4043 49.2374L29.2559 49.2095C29.2999 49.0564 29.3208 48.9775 29.3649 48.8244ZM29.5807 48.0495L29.7268 48.0751C29.6827 48.2305 29.6619 48.3071 29.6201 48.4625L29.4739 48.437C29.5157 48.2815 29.5366 48.205 29.5807 48.0495ZM29.7941 47.2747L29.9379 47.2979C29.8962 47.4533 29.873 47.5299 29.8312 47.6853L29.6874 47.6621C29.7291 47.5067 29.75 47.4301 29.7941 47.2747Z" fill="#EF233C"/>
<path d="M23.4492 48.6248L23.8158 48.7223C23.8343 48.6759 23.8413 48.6527 23.8599 48.6063L23.6279 48.5483C23.6557 48.4787 23.6673 48.4439 23.6951 48.3766L23.549 48.3372L23.4492 48.6248Z" fill="#EF233C"/>
<path d="M24.3112 48.72L24.7636 48.836L24.7218 48.952C24.5409 48.9056 24.4481 48.8847 24.2578 48.836C24.2857 48.7919 24.2926 48.7687 24.3112 48.72ZM25.2183 48.952L25.6823 49.061L25.6429 49.1793L25.1789 49.0703C25.1928 49.0192 25.1997 48.9961 25.2183 48.952Z" fill="#EF233C"/>
<path d="M26.1293 49.1631L26.5933 49.2652L26.5538 49.3858C26.3706 49.3464 26.2801 49.3255 26.0898 49.2814C26.1038 49.235 26.113 49.2118 26.1293 49.1631ZM27.041 49.3672L27.505 49.4647L27.4656 49.5853L27.0016 49.4879C27.0178 49.4392 27.0248 49.416 27.041 49.3672ZM27.9551 49.5575L28.4191 49.6503L28.3843 49.7732L27.9203 49.6804C27.9319 49.6317 27.9389 49.6085 27.9551 49.5575Z" fill="#EF233C"/>
<path d="M28.8359 49.8638L29.2071 49.9334C29.2419 49.8105 29.2605 49.7478 29.2953 49.6226L29.1468 49.5947C29.1259 49.669 29.1143 49.7061 29.0935 49.7826L28.8615 49.7386L28.8359 49.8638Z" fill="#EF233C"/>
<path d="M29.3649 48.8244L29.5111 48.85C29.4693 49.0054 29.4484 49.082 29.4043 49.2374L29.2559 49.2096C29.2999 49.0564 29.3208 48.9776 29.3649 48.8244ZM29.5807 48.0496L29.7268 48.0751C29.6827 48.2305 29.6619 48.3071 29.6201 48.4625L29.4739 48.437C29.5157 48.2816 29.5366 48.205 29.5807 48.0496Z" fill="#EF233C"/>
<path d="M29.7942 47.2746L29.9381 47.2978C29.8963 47.4533 29.8731 47.5298 29.8313 47.6876L29.6875 47.6621C29.7293 47.5066 29.7501 47.4301 29.7942 47.2746ZM30.003 46.4974L30.1469 46.5183L30.0425 46.9081L29.8986 46.8849L30.003 46.4974ZM30.2118 45.7156L30.3533 45.7365L30.2489 46.1285L30.1074 46.1077L30.2118 45.7156Z" fill="#EF233C"/>
<path d="M30.3163 45.3259L30.4555 45.3445L30.5367 45.0266L30.1887 44.9802C30.1748 45.0313 30.1679 45.0568 30.1562 45.1055L30.3651 45.1357C30.3442 45.2122 30.3349 45.2401 30.3163 45.3259Z" fill="#EF233C"/>
<path d="M28.4668 44.7202L28.896 44.7898L28.8612 44.9128C28.6872 44.8873 28.6014 44.8733 28.4297 44.8432L28.4668 44.7202ZM29.3275 44.8548L29.7567 44.9197L29.7219 45.045L29.2904 44.9801C29.3043 44.9313 29.3113 44.9058 29.3275 44.8548Z" fill="#EF233C"/>
<path d="M25.8972 44.2539L26.3241 44.3374L26.2847 44.4581L25.8555 44.3722C25.8717 44.3258 25.881 44.3119 25.8972 44.2539ZM26.751 44.4209L27.1802 44.4998L27.1407 44.6205L26.7115 44.5416C26.7278 44.4929 26.7371 44.4673 26.751 44.4209ZM27.6094 44.5764L28.0363 44.6506L28.0015 44.7713L27.5699 44.697L27.6094 44.5764Z" fill="#EF233C"/>
<path d="M25.0195 44.3885L25.1587 44.4187L25.2214 44.2423L25.4279 44.2864C25.4441 44.2377 25.4534 44.2145 25.4696 44.1681L25.1239 44.0962L25.0195 44.3885Z" fill="#EF233C"/>
<path d="M24.6303 45.472L24.7695 45.5045C24.7184 45.6483 24.6906 45.7202 24.6396 45.8664L24.498 45.8316L24.6303 45.472ZM24.8901 44.7505L25.0293 44.7806C24.9783 44.9268 24.9528 44.9987 24.8994 45.1426L24.7602 45.1124C24.8252 44.9662 24.8391 44.8943 24.8901 44.7505Z" fill="#EF233C"/>
<path d="M23.8299 47.6249L23.976 47.662L23.8415 48.0193L23.6953 47.9799C23.751 47.8384 23.7765 47.7664 23.8299 47.6249ZM24.099 46.9104L24.2428 46.9452L24.1083 47.3024L23.9644 47.2676C24.0201 47.1238 24.0456 47.0519 24.099 46.9104ZM24.3658 46.1912L24.5073 46.226L24.3751 46.5856L24.2336 46.5508L24.3658 46.1912Z" fill="#EF233C"/>
<path d="M20.2383 49.815L21.8484 50.678L22.3564 48.4207L20.454 47.8894L20.2383 49.815Z" fill="#FFC3BD"/>
<path d="M22.0408 38.693C22.0408 38.693 19.751 38.4934 19.2197 41.477C18.6884 44.4605 17.0296 47.8175 19.2197 49.6109L20.4818 50.3742C21.0752 49.6778 21.4858 48.8446 21.6766 47.9498L20.962 47.4533L21.5096 45.3931C21.5096 45.3931 22.9688 39.389 22.0408 38.693Z" fill="#EF233C"/>
<path opacity="0.5" d="M22.0408 38.693C22.0408 38.693 19.751 38.4934 19.2197 41.477C18.6884 44.4605 17.0296 47.8175 19.2197 49.6109L20.4818 50.3742C21.0752 49.6778 21.4858 48.8446 21.6766 47.9498L20.962 47.4533L21.5096 45.3931C21.5096 45.3931 22.9688 39.389 22.0408 38.693Z" fill="white"/>
<path d="M23.8966 89.1229L22.7366 92.698C22.7092 92.7919 22.7122 92.892 22.7451 92.9841C22.778 93.0761 22.8392 93.1555 22.9199 93.2107C23.3099 93.4735 23.7142 93.7144 24.1309 93.9322C24.6764 94.1323 25.2325 94.3019 25.7967 94.4403C25.8925 94.4655 25.9773 94.5217 26.0378 94.6002C26.0982 94.6787 26.1309 94.7751 26.1308 94.8742C26.1308 94.9935 26.0833 95.108 25.9989 95.1924C25.9145 95.2768 25.8 95.3242 25.6807 95.3242H19.9781C19.9138 95.3221 19.8506 95.3067 19.7925 95.2788C19.7345 95.251 19.6829 95.2113 19.641 95.1625C19.5991 95.1136 19.5678 95.0565 19.5492 94.9949C19.5305 94.9333 19.5249 94.8685 19.5327 94.8046L20.514 88.6589C20.5324 88.5457 20.5933 88.4437 20.6842 88.3739C20.7752 88.304 20.8894 88.2715 21.0036 88.283L23.5045 88.5382C23.5719 88.5438 23.6372 88.5645 23.6955 88.5987C23.7539 88.633 23.8037 88.6799 23.8414 88.7361C23.8791 88.7923 23.9036 88.8562 23.9131 88.9232C23.9227 88.9902 23.917 89.0584 23.8966 89.1229Z" fill="#263238"/>
<path d="M21.6421 54.6521L27.9293 54.8841C27.9293 54.8841 28.3933 71.1241 27.9525 75.7316C27.5604 79.8635 24.904 86.7261 24.3889 88.8721C24.3635 88.9764 24.3004 89.0675 24.2117 89.1279C24.123 89.1883 24.015 89.2137 23.9087 89.1992L20.6491 88.77C20.5924 88.7629 20.5376 88.7446 20.488 88.7162C20.4383 88.6878 20.3948 88.6499 20.3599 88.6046C20.3249 88.5593 20.2993 88.5076 20.2844 88.4523C20.2696 88.3971 20.2658 88.3395 20.2733 88.2828C20.5053 86.566 21.1201 82.8981 22.6141 76.829C22.8689 75.7919 23.0089 74.7299 23.0317 73.6622C23.0781 71.377 23.0967 67.2381 22.7394 64.1896C22.4262 61.5379 21.2987 58.7887 21.6421 54.6521Z" fill="#EF233C"/>
<path d="M23.8966 89.1229L22.7366 92.698C22.7092 92.7919 22.7122 92.892 22.7451 92.9841C22.778 93.0761 22.8392 93.1555 22.9199 93.2107C23.3099 93.4735 23.7142 93.7144 24.1309 93.9322C24.6764 94.1323 25.2325 94.3019 25.7967 94.4403C25.8925 94.4655 25.9773 94.5217 26.0378 94.6002C26.0982 94.6787 26.1309 94.7751 26.1308 94.8742C26.1308 94.9935 26.0833 95.108 25.9989 95.1924C25.9145 95.2768 25.8 95.3242 25.6807 95.3242H19.9781C19.9138 95.3221 19.8506 95.3067 19.7925 95.2788C19.7345 95.251 19.6829 95.2113 19.641 95.1625C19.5991 95.1136 19.5678 95.0565 19.5492 94.9949C19.5305 94.9333 19.5249 94.8685 19.5327 94.8046L20.514 88.6589C20.5324 88.5457 20.5933 88.4437 20.6842 88.3739C20.7752 88.304 20.8894 88.2715 21.0036 88.283L23.5045 88.5382C23.5719 88.5438 23.6372 88.5645 23.6955 88.5987C23.7539 88.633 23.8037 88.6799 23.8414 88.7361C23.8791 88.7923 23.9036 88.8562 23.9131 88.9232C23.9227 88.9902 23.917 89.0584 23.8966 89.1229Z" fill="#263238"/>
<path d="M21.6421 54.6521L27.9293 54.8841C27.9293 54.8841 28.3933 71.1241 27.9525 75.7316C27.5604 79.8635 24.904 86.7261 24.3889 88.8721C24.3635 88.9764 24.3004 89.0675 24.2117 89.1279C24.123 89.1883 24.015 89.2137 23.9087 89.1992L20.6491 88.77C20.5924 88.7629 20.5376 88.7446 20.488 88.7162C20.4383 88.6878 20.3948 88.6499 20.3599 88.6046C20.3249 88.5593 20.2993 88.5076 20.2844 88.4523C20.2696 88.3971 20.2658 88.3395 20.2733 88.2828C20.5053 86.566 21.1201 82.8981 22.6141 76.829C22.8689 75.7919 23.0089 74.7299 23.0317 73.6622C23.0781 71.377 23.0967 67.2381 22.7394 64.1896C22.4262 61.5379 21.2987 58.7887 21.6421 54.6521Z" fill="#EF233C"/>
<path opacity="0.2" d="M21.6421 54.6521L27.9293 54.8841C27.9293 54.8841 28.3933 71.1241 27.9525 75.7316C27.5604 79.8635 24.904 86.7261 24.3889 88.8721C24.3635 88.9764 24.3004 89.0675 24.2117 89.1279C24.123 89.1883 24.015 89.2137 23.9087 89.1992L20.6491 88.77C20.5924 88.7629 20.5376 88.7446 20.488 88.7162C20.4383 88.6878 20.3948 88.6499 20.3599 88.6046C20.3249 88.5593 20.2993 88.5076 20.2844 88.4523C20.2696 88.3971 20.2658 88.3395 20.2733 88.2828C20.5053 86.566 21.1201 82.8981 22.6141 76.829C22.8689 75.7919 23.0089 74.7299 23.0317 73.6622C23.0781 71.377 23.0967 67.2381 22.7394 64.1896C22.4262 61.5379 21.2987 58.7887 21.6421 54.6521Z" fill="black"/>
<path opacity="0.2" d="M26.1016 58.6125C26.2288 63.3079 26.9221 67.9708 28.1664 72.5001C28.2476 69.7393 28.0643 62.6145 28.0248 59.8189L27.2314 58.6125H26.1016Z" fill="black"/>
<path d="M34.3735 88.8328L34.0789 92.749C34.072 92.831 34.0881 92.9133 34.1254 92.9866C34.1627 93.06 34.2197 93.1215 34.29 93.1643C34.7552 93.4545 35.2353 93.7201 35.7284 93.96C36.3072 94.1558 36.8957 94.3215 37.4916 94.4565C37.5857 94.4826 37.6686 94.539 37.7273 94.6171C37.786 94.6951 37.8174 94.7904 37.8164 94.888C37.8164 95.0062 37.7694 95.1195 37.6859 95.203C37.6024 95.2865 37.4891 95.3335 37.3709 95.3335H31.5709C31.4552 95.3335 31.3439 95.2885 31.2608 95.208C31.1776 95.1274 31.1291 95.0177 31.1255 94.902L30.9515 88.9512C30.9471 88.8339 30.9888 88.7196 31.0678 88.6328C31.1467 88.5461 31.2566 88.4938 31.3737 88.4872L33.9095 88.3596C33.9719 88.3568 34.0343 88.3673 34.0924 88.3902C34.1506 88.4132 34.2033 88.4481 34.247 88.4927C34.2908 88.5374 34.3247 88.5907 34.3465 88.6493C34.3682 88.7079 34.3775 88.7704 34.3735 88.8328Z" fill="#263238"/>
<path d="M31.6846 55.1487C31.6846 55.1487 34.9883 72.1798 35.3015 75.7201C35.5869 78.931 34.8862 86.3759 34.7795 88.7446C34.7753 88.8468 34.7316 88.9433 34.6576 89.0139C34.5836 89.0844 34.4851 89.1235 34.3828 89.1228H31.0327C30.9293 89.1234 30.8298 89.0834 30.7556 89.0114C30.6814 88.9393 30.6384 88.841 30.636 88.7377C30.5942 86.9675 30.5223 82.7057 30.687 78.3812C30.7457 76.709 30.5101 75.0395 29.991 73.4489C28.8078 69.7601 26.6572 62.807 25.8962 58.6681C25.7338 57.7819 25.4531 55.0884 25.4531 55.0884L31.6846 55.1487Z" fill="#EF233C"/>
<path opacity="0.2" d="M31.6846 55.1487C31.6846 55.1487 34.9883 72.1798 35.3015 75.7201C35.5869 78.931 34.8862 86.3759 34.7795 88.7446C34.7753 88.8468 34.7316 88.9433 34.6576 89.0139C34.5836 89.0844 34.4851 89.1235 34.3828 89.1228H31.0327C30.9293 89.1234 30.8298 89.0834 30.7556 89.0114C30.6814 88.9393 30.6384 88.841 30.636 88.7377C30.5942 86.9675 30.5223 82.7057 30.687 78.3812C30.7457 76.709 30.5101 75.0395 29.991 73.4489C28.8078 69.7601 26.6572 62.807 25.8962 58.6681C25.7338 57.7819 25.4531 55.0884 25.4531 55.0884L31.6846 55.1487Z" fill="black"/>
<path d="M24.1699 38.1082C24.1699 38.1082 25.4227 37.983 25.4088 35.6769C25.4088 35.6769 26.5688 35.1503 27.3182 35.8347C28.0675 36.5191 26.6222 38.1059 27.5641 38.7787C28.506 39.4515 24.1699 38.1082 24.1699 38.1082Z" fill="#FFC3BD"/>
<path opacity="0.1" d="M26.623 36.7649C26.8153 37.0667 27.0444 37.3434 27.3051 37.5885C27.3724 37.2916 27.4698 36.9807 27.5186 36.6953L26.623 36.7649Z" fill="black"/>
<path d="M38.2812 46.0774L42.1673 45.6459L42.898 44.4836L43.826 43.9221L44.5569 44.2817L44.058 46.7734L43.2623 47.082H42.332L38.2812 48.1677V46.0774Z" fill="#FFC3BD"/>
<path d="M31.7841 39.1708C31.7841 39.1708 33.712 39.0385 35.4961 42.0916L37.2221 45.5461H38.5515C38.5515 45.5461 39.2823 47.4717 38.5515 48.5992C38.5515 48.5992 35.9624 49.5968 31.7771 44.4232L30.9141 41.036L31.7841 39.1708Z" fill="#EF233C"/>
<path opacity="0.5" d="M31.7841 39.1708C31.7841 39.1708 33.712 39.0385 35.4961 42.0916L37.2221 45.5461H38.5515C38.5515 45.5461 39.2823 47.4717 38.5515 48.5992C38.5515 48.5992 35.9624 49.5968 31.7771 44.4232L30.9141 41.036L31.7841 39.1708Z" fill="white"/>
<path d="M21.3934 55.9562C21.3934 55.9562 28.3 57.1162 32.1071 55.9562C32.1071 55.9562 31.2209 52.2442 32.5479 45.8642C32.5479 45.8642 31.2209 42.5002 32.5479 39.1362C32.5479 39.1362 27.2374 37.5423 21.6578 38.5144C21.3149 40.4752 21.1079 42.4573 21.0384 44.4466C20.9386 47.3281 20.8621 49.14 21.3934 55.9562Z" fill="#EF233C"/>
<path d="M23.8066 38.693C23.8066 38.693 23.5398 37.1641 26.1266 37.4309C28.7134 37.6977 29.1797 39.0248 29.1797 39.0248L23.8066 38.693Z" fill="#EF233C"/>
<path d="M21.1403 52.395C23.7201 52.6725 26.313 52.8103 28.9076 52.8079C29.8356 52.8079 30.81 52.7894 31.8192 52.7476C31.8192 52.4182 31.8192 52.0516 31.8192 51.6874C28.2315 51.8335 24.6378 51.7109 21.0684 51.3208C21.0985 51.6595 21.1124 52.0168 21.1403 52.395Z" fill="#263238"/>
<path d="M28.7299 48.4741C28.6928 45.9221 28.9085 40.4307 30.3098 38.9807C30.4232 38.854 30.5693 38.7609 30.732 38.7115C30.3237 38.6327 29.8574 38.5538 29.34 38.4795C28.542 39.5143 28.02 41.5466 27.788 44.5278C27.6627 46.1518 27.6557 47.6505 27.6627 48.4323C25.9191 48.3508 24.1808 48.1812 22.4543 47.9243C22.4775 46.6042 22.568 42.7947 22.8348 40.9295C22.9379 40.0273 23.1386 39.1389 23.4333 38.28C23.0482 38.3125 22.6584 38.3566 22.2733 38.4123C22.0527 39.1873 21.8891 39.9774 21.7838 40.7763C21.517 42.6532 21.4242 46.2887 21.3964 47.7479L20.9648 47.6714C20.9648 48.0124 20.9648 48.3674 20.9788 48.7595C23.9924 49.2929 27.0474 49.5584 30.108 49.5529C30.7112 49.5529 31.3376 49.5413 31.9756 49.5181C32.0104 49.1748 32.0521 48.8221 32.1008 48.4509C30.9246 48.5043 29.7948 48.5043 28.7299 48.4741Z" fill="#263238"/>
<path opacity="0.8" d="M21.1403 52.395C23.7201 52.6725 26.313 52.8103 28.9076 52.8079C29.8356 52.8079 30.81 52.7894 31.8192 52.7476C31.8192 52.4182 31.8192 52.0516 31.8192 51.6874C28.2315 51.8335 24.6378 51.7109 21.0684 51.3208C21.0985 51.6595 21.1124 52.0168 21.1403 52.395Z" fill="white"/>
<path opacity="0.8" d="M28.7299 48.4741C28.6928 45.9221 28.9085 40.4307 30.3098 38.9807C30.4232 38.854 30.5693 38.7609 30.732 38.7115C30.3237 38.6327 29.8574 38.5538 29.34 38.4795C28.542 39.5143 28.02 41.5466 27.788 44.5278C27.6627 46.1518 27.6557 47.6505 27.6627 48.4323C25.9191 48.3508 24.1808 48.1812 22.4543 47.9243C22.4775 46.6042 22.568 42.7947 22.8348 40.9295C22.9379 40.0273 23.1386 39.1389 23.4333 38.28C23.0482 38.3125 22.6584 38.3566 22.2733 38.4123C22.0527 39.1873 21.8891 39.9774 21.7838 40.7763C21.517 42.6532 21.4242 46.2887 21.3964 47.7479L20.9648 47.6714C20.9648 48.0124 20.9648 48.3674 20.9788 48.7595C23.9924 49.2929 27.0474 49.5584 30.108 49.5529C30.7112 49.5529 31.3376 49.5413 31.9756 49.5181C32.0104 49.1748 32.0521 48.8221 32.1008 48.4509C30.9246 48.5043 29.7948 48.5043 28.7299 48.4741Z" fill="white"/>
<path d="M23.0781 44.175L27.0592 44.5346V47.0588L23.0781 46.6598V44.175Z" fill="white"/>
<path d="M30.0501 33.0112C30.064 33.1574 29.9991 33.285 29.9016 33.292C29.8042 33.2989 29.7114 33.1852 29.7021 33.0414C29.6928 32.8976 29.7531 32.77 29.8506 32.763C29.948 32.7561 30.0362 32.8651 30.0501 33.0112Z" fill="#263238"/>
<path d="M29.6357 33.1921L30.2923 34.373C30.1539 34.4495 29.9996 34.4924 29.8417 34.4985C29.6837 34.5045 29.5266 34.4735 29.3828 34.4078L29.6357 33.1921Z" fill="#BA4D3C"/>
<path d="M24.3262 32.48C24.4143 34.4335 24.4097 35.264 25.3795 36.2802C26.8689 37.3242 29.2214 37.2755 29.7179 35.3336C30.1656 33.5867 29.9499 30.6936 28.0475 29.8747C27.6298 29.6969 27.1738 29.6285 26.7223 29.676C26.2709 29.7235 25.8391 29.8853 25.4676 30.146C25.0961 30.4068 24.7971 30.7579 24.599 31.1663C24.401 31.5747 24.3102 32.0269 24.3355 32.48H24.3262Z" fill="#FFC3BD"/>
<path d="M29.2789 32.3269C29.2906 32.332 29.3032 32.3347 29.316 32.3347C29.3288 32.3347 29.3414 32.332 29.3531 32.3269C29.4385 32.283 29.5332 32.26 29.6292 32.26C29.7252 32.26 29.8199 32.283 29.9053 32.3269C29.9223 32.3375 29.9427 32.3409 29.9622 32.3366C29.9817 32.3322 29.9987 32.3205 30.0097 32.3037C30.0203 32.2864 30.0239 32.2656 30.0195 32.2457C30.0152 32.2258 30.0034 32.2084 29.9865 32.197C29.8807 32.1378 29.7622 32.105 29.641 32.1014C29.5199 32.0978 29.3996 32.1234 29.2905 32.1761C29.2811 32.1802 29.2726 32.186 29.2656 32.1933C29.2585 32.2007 29.253 32.2094 29.2493 32.2189C29.2456 32.2284 29.2439 32.2385 29.2442 32.2487C29.2445 32.2589 29.2468 32.2689 29.251 32.2782C29.2556 32.2967 29.2652 32.3136 29.2789 32.3269Z" fill="#263238"/>
<path d="M28.5363 33.7559C28.5363 33.7559 28.8681 32.3175 28.5363 31.9185C28.2045 31.5194 28.3925 31.4289 28.7497 31.0786C29.107 30.7283 29.3993 30.0114 28.6685 29.6495C27.9377 29.2876 26.4993 29.0648 25.3254 29.7492C24.1515 30.4336 24.0865 31.3338 24.0657 32.002C24.0448 32.6701 24.2977 34.953 24.5297 35.482C24.719 35.8311 25.0171 36.1089 25.3788 36.2731C25.3788 36.2731 25.6456 35.9785 26.388 36.2731C26.388 36.2731 28.2254 34.6189 28.5363 33.7559Z" fill="#263238"/>
<path d="M28.3794 33.0251C28.6213 33.3435 28.7272 33.7447 28.6741 34.141C28.5975 34.6653 28.0755 34.7187 27.6904 34.3985C27.3401 34.1085 26.9642 33.4868 27.2264 33.0437C27.2859 32.9449 27.3696 32.8628 27.4695 32.8053C27.5695 32.7477 27.6825 32.7165 27.7978 32.7147C27.9131 32.7128 28.027 32.7404 28.1288 32.7947C28.2305 32.849 28.3168 32.9283 28.3794 33.0251Z" fill="#FFC3BD"/>
<path d="M23.6895 31.7168C23.6901 32.2975 23.8135 32.8714 24.0514 33.4011C25.4921 33.2202 26.6173 32.5543 26.9027 31.7168H23.6895Z" fill="#263238"/>
<path opacity="0.6" d="M23.6895 31.7168C23.6901 32.2975 23.8135 32.8714 24.0514 33.4011C25.4921 33.2202 26.6173 32.5543 26.9027 31.7168H23.6895Z" fill="white"/>
<path d="M31.8233 31.4267H30.4058C30.3037 29.6333 29.2667 28.2251 27.4362 28.2251C25.6057 28.2251 23.6453 29.6333 23.4505 31.4267H23.1117C23.0396 31.4332 22.9725 31.4664 22.9236 31.5199C22.8748 31.5733 22.8477 31.6431 22.8477 31.7155C22.8477 31.788 22.8748 31.8578 22.9236 31.9112C22.9725 31.9647 23.0396 31.9979 23.1117 32.0044H31.8233C31.8955 31.9979 31.9626 31.9647 32.0115 31.9112C32.0603 31.8578 32.0874 31.788 32.0874 31.7155C32.0874 31.6431 32.0603 31.5733 32.0115 31.5199C31.9626 31.4664 31.8955 31.4332 31.8233 31.4267Z" fill="#EF233C"/>
<path opacity="0.1" d="M23.4531 31.4268H30.4131C30.3941 31.0712 30.3326 30.7192 30.2298 30.3782H23.7826C23.6076 30.7038 23.4958 31.0596 23.4531 31.4268Z" fill="black"/>
</svg>
