<svg width="43" height="71" viewBox="0 0 43 71" fill="none" xmlns="http://www.w3.org/2000/svg">
<path d="M39.2785 19.2224L10.1456 0.485281C9.81082 0.225429 9.42245 0.0637987 9.01651 0.0153783C8.61057 -0.0330421 8.20021 0.033315 7.82348 0.208297C7.74384 0.249194 7.66781 0.298288 7.59639 0.354936L1.25996 4.48526H1.30391C0.505448 4.9822 0 6.16345 0 7.83351V43.8577C0 46.9046 1.66286 50.4483 3.72128 51.7681L32.8542 70.5053C33.2231 70.8046 33.6633 70.9759 34.1195 70.9976C34.5757 71.0194 35.0275 70.8906 35.4181 70.6275L35.3668 70.6682L41.6593 66.5949C42.4797 66.1142 42.9998 64.9656 42.9998 63.2141V27.1002C42.9998 24.0534 41.3663 20.5096 39.2785 19.2224Z" fill="#EF233C"/>
<path d="M41.9594 22.6114C41.3722 21.2137 40.4431 20.028 39.2784 19.1899L10.1454 0.485281C9.81063 0.225429 9.42225 0.0637987 9.01631 0.0153783C8.61037 -0.0330421 8.20001 0.033315 7.82328 0.208297C7.74364 0.249194 7.66762 0.298288 7.5962 0.354936L1.25977 4.48526C1.64649 4.26286 2.08089 4.16344 2.51516 4.19794C2.94942 4.23243 3.36671 4.39951 3.72109 4.68078L32.854 23.4179C34.0584 24.2934 35.0117 25.5346 35.601 26.9943L41.9594 22.6114Z" fill="#EF233C"/>
<path d="M36.5759 67.2874C36.5759 68.9167 36.107 70.0491 35.3672 70.546L41.6597 66.4727C42.4801 65.9921 43.0002 64.8434 43.0002 63.0919V27.1002C42.9692 25.5348 42.6132 23.9986 41.96 22.6115L35.6016 26.9617C36.212 28.3079 36.5448 29.7885 36.5759 31.2957V67.2874Z" fill="#EF233C"/>
<path opacity="0.3" d="M41.9594 22.6114C41.3722 21.2137 40.4431 20.028 39.2784 19.1899L10.1454 0.485281C9.81063 0.225429 9.42225 0.0637987 9.01631 0.0153783C8.61037 -0.0330421 8.20001 0.033315 7.82328 0.208297C7.74364 0.249194 7.66762 0.298288 7.5962 0.354936L1.25977 4.48526C1.64649 4.26286 2.08089 4.16344 2.51516 4.19794C2.94942 4.23243 3.36671 4.39951 3.72109 4.68078L32.854 23.4179C34.0584 24.2934 35.0117 25.5346 35.601 26.9943L41.9594 22.6114Z" fill="black"/>
<path opacity="0.6" d="M36.5759 67.2874C36.5759 68.9167 36.107 70.0491 35.3672 70.546L41.6597 66.4727C42.4801 65.9921 43.0002 64.8434 43.0002 63.0919V27.1002C42.9692 25.5348 42.6132 23.9986 41.96 22.6115L35.6016 26.9617C36.212 28.3079 36.5448 29.7885 36.5759 31.2957V67.2874Z" fill="black"/>
<path d="M27.0448 51.8088C25.924 49.7559 24.7959 47.7355 23.6751 45.6663C23.4974 45.2743 23.2489 44.9274 22.9451 44.647C22.6414 44.3667 22.2889 44.159 21.9097 44.037C21.3677 43.9148 20.8256 43.7763 20.2688 43.597C20.0706 43.5051 19.9038 43.3453 19.7927 43.1408C17.9587 39.6501 16.5007 35.9314 15.4488 32.0615C15.4264 31.9787 15.42 31.8917 15.4301 31.806C15.4402 31.7203 15.4666 31.638 15.5074 31.5645C15.8517 31.1816 16.2399 30.8313 16.5915 30.4892C16.9431 30.147 17.1263 29.3568 16.8699 28.3303C16.3278 26.1552 15.8077 23.9801 15.2656 21.8131C15.1607 21.1973 14.9119 20.6232 14.5441 20.1484C14.1763 19.6736 13.7026 19.3149 13.1706 19.1084C11.9893 18.7431 10.7352 18.7944 9.58116 19.255C9.13432 19.4424 8.8999 19.8905 8.89258 20.6644C9.08304 22.1552 9.20757 23.6297 9.46395 25.145C11.2709 36.0723 15.6173 46.1198 22.5031 55.2874C22.6829 55.5914 22.9244 55.8442 23.2081 56.0253C23.4919 56.2064 23.8099 56.3109 24.1366 56.3302C25.2766 56.3 26.3719 55.8307 27.2353 55.0023C27.8872 54.3506 27.8213 53.1937 27.0448 51.8088Z" fill="#EF233C"/>
<path d="M26.958 40.705C26.8047 38.3617 26.224 36.0777 25.2512 33.9922C24.5248 32.363 23.6005 30.8526 22.5042 29.5034C22.2185 29.145 21.9767 29.0309 21.8302 29.2998C21.6837 29.5686 21.8302 29.9515 22.1086 30.3018L22.3943 30.6684C24.419 33.2676 25.695 36.4832 26.0569 39.8985C26.0534 40.1476 26.0755 40.3963 26.1229 40.6398C26.2149 40.92 26.3626 41.1734 26.5551 41.3812C26.7089 41.5034 26.8847 41.3812 27.0092 41.3812C26.9653 41.0472 26.9726 40.8761 26.958 40.705Z" fill="#EF233C"/>
<path d="M20.3206 34.0167C21.2404 35.1419 21.7994 36.5742 21.9102 38.09C21.9584 38.3205 22.0348 38.5425 22.1372 38.7499C22.5841 39.1572 22.8039 39.0187 22.8039 38.5055C22.6472 36.562 21.9245 34.7285 20.7454 33.2835C20.4671 32.9658 20.24 32.868 20.1081 33.1369C20.0607 33.2904 20.0556 33.4561 20.0934 33.6129C20.1313 33.7696 20.2104 33.9103 20.3206 34.0167Z" fill="#EF233C"/>
<g opacity="0.9">
<path d="M27.0448 51.8088C25.924 49.7559 24.7959 47.7355 23.6751 45.6663C23.4974 45.2743 23.2489 44.9274 22.9451 44.647C22.6414 44.3667 22.2889 44.159 21.9097 44.037C21.3677 43.9148 20.8256 43.7763 20.2688 43.597C20.0706 43.5051 19.9038 43.3453 19.7927 43.1408C17.9587 39.6501 16.5007 35.9314 15.4488 32.0615C15.4264 31.9787 15.42 31.8917 15.4301 31.806C15.4402 31.7203 15.4666 31.638 15.5074 31.5645C15.8517 31.1816 16.2399 30.8313 16.5915 30.4892C16.9431 30.147 17.1263 29.3568 16.8699 28.3303C16.3278 26.1552 15.8077 23.9801 15.2656 21.8131C15.1607 21.1973 14.9119 20.6232 14.5441 20.1484C14.1763 19.6736 13.7026 19.3149 13.1706 19.1084C11.9893 18.7431 10.7352 18.7944 9.58116 19.255C9.13432 19.4424 8.8999 19.8905 8.89258 20.6644C9.08304 22.1552 9.20757 23.6297 9.46395 25.145C11.2709 36.0723 15.6173 46.1198 22.5031 55.2874C22.6829 55.5914 22.9244 55.8442 23.2081 56.0253C23.4919 56.2064 23.8099 56.3109 24.1366 56.3302C25.2766 56.3 26.3719 55.8307 27.2353 55.0023C27.8872 54.3506 27.8213 53.1937 27.0448 51.8088Z" fill="white"/>
<path d="M26.957 40.705C26.8037 38.3617 26.223 36.0777 25.2502 33.9922C24.5238 32.363 23.5995 30.8526 22.5032 29.5034C22.2175 29.145 21.9758 29.0309 21.8292 29.2998C21.6827 29.5686 21.8292 29.9515 22.1076 30.3018L22.3933 30.6684C24.418 33.2676 25.694 36.4832 26.056 39.8985C26.0524 40.1476 26.0745 40.3963 26.1219 40.6398C26.2139 40.92 26.3617 41.1734 26.5541 41.3812C26.7079 41.5034 26.8837 41.3812 27.0083 41.3812C26.9643 41.0472 26.9716 40.8761 26.957 40.705Z" fill="white"/>
<path d="M20.3206 34.0166C21.2404 35.1419 21.7994 36.5742 21.9102 38.0899C21.9584 38.3204 22.0348 38.5424 22.1372 38.7498C22.5841 39.1571 22.8039 39.0186 22.8039 38.5054C22.6472 36.5619 21.9245 34.7284 20.7454 33.2834C20.4671 32.9657 20.24 32.868 20.1081 33.1368C20.0607 33.2903 20.0556 33.4561 20.0934 33.6128C20.1313 33.7696 20.2104 33.9102 20.3206 34.0166Z" fill="white"/>
</g>
</svg>
