<svg width="44" height="69" viewBox="0 0 44 69" fill="none" xmlns="http://www.w3.org/2000/svg">
<g opacity="0.9">
<path d="M42.9352 21.9982C42.3342 20.6421 41.3833 19.4924 40.1918 18.681L10.3814 0.471615C10.0388 0.219082 9.64137 0.0620023 9.22599 0.0149458C8.81061 -0.0321106 8.39071 0.0323712 8.00522 0.202424C7.92372 0.242169 7.84593 0.289886 7.77285 0.344938L1.28906 4.35891C1.68478 4.14277 2.12928 4.04615 2.57365 4.07968C3.01801 4.1132 3.44501 4.27558 3.80762 4.54892L33.6181 22.7583C34.8504 23.6091 35.8259 24.8153 36.429 26.2339L42.9352 21.9982Z" fill="#EF233C"/>
<path d="M37.4262 65.4473C37.4262 67.0308 36.9465 68.1313 36.1895 68.6538L42.6283 64.6556C43.4678 64.1885 44 63.0722 44 61.37V26.3606C43.9682 24.8392 43.6039 23.3463 42.9356 21.9982L36.4293 26.226C37.0539 27.5342 37.3944 28.9731 37.4262 30.4379V65.4473Z" fill="#EF233C"/>
<path d="M15.3808 34.3331L8.19238 21.9982V38.7113L15.3808 34.3331Z" fill="#EF233C"/>
<path d="M22.0596 37.8879L29.233 51.0065V34.3173L22.0596 37.8879Z" fill="#EF233C"/>
<path d="M9.28027 21.4362L16.6635 34.1035C16.6948 34.1313 16.7225 34.1632 16.746 34.1985C16.7525 34.2298 16.7525 34.2622 16.746 34.2935L18.9422 38.0621L20.8012 37.1358C20.8301 37.1026 20.8629 37.0734 20.8986 37.0487C20.9719 37.0035 21.0539 36.9765 21.1385 36.9695L28.6342 33.2564L9.28027 21.4362Z" fill="#EF233C"/>
<path d="M20.9735 38.4263L18.9646 39.4238C18.8872 39.4619 18.8027 39.4809 18.7173 39.4793C18.6138 39.4805 18.5118 39.4534 18.4212 39.4007C18.3306 39.348 18.2544 39.2714 18.2001 39.1784L16.0038 35.4099L8.79297 39.8118L28.1994 51.6399L20.9735 38.4263Z" fill="#EF233C"/>
<path d="M40.192 18.681L10.3816 0.471615C10.039 0.219082 9.64157 0.0620023 9.22619 0.0149458C8.81081 -0.0321106 8.39091 0.0323712 8.00542 0.202424C7.92393 0.242169 7.84613 0.289886 7.77305 0.344938L1.28926 4.35891H1.33424C0.517203 4.84977 0 5.98983 0 7.61284V42.6223C0 45.5912 1.70153 49.0273 3.80782 50.3098L33.6183 68.5192C33.9957 68.8101 34.4462 68.9766 34.913 68.9977C35.3798 69.0188 35.8421 68.8937 36.2418 68.6379L36.1893 68.6854L42.6281 64.6873C43.4676 64.2202 43.9998 63.1039 43.9998 61.4017V26.3606C43.9998 23.3996 42.3283 19.9635 40.192 18.681Z" fill="#EF233C"/>
<path opacity="0.3" d="M42.9352 21.9982C42.3342 20.6421 41.3833 19.4924 40.1918 18.681L10.3814 0.471615C10.0388 0.219082 9.64137 0.0620023 9.22599 0.0149458C8.81061 -0.0321106 8.39071 0.0323712 8.00522 0.202424C7.92372 0.242169 7.84593 0.289886 7.77285 0.344938L1.28906 4.35891C1.68478 4.14277 2.12928 4.04615 2.57365 4.07968C3.01801 4.1132 3.44501 4.27558 3.80762 4.54892L33.6181 22.7583C34.8504 23.6091 35.8259 24.8153 36.429 26.2339L42.9352 21.9982Z" fill="black"/>
<path opacity="0.6" d="M37.4262 65.4473C37.4262 67.0308 36.9465 68.1313 36.1895 68.6538L42.6283 64.6556C43.4678 64.1885 44 63.0722 44 61.37V26.3606C43.9682 24.8392 43.6039 23.3463 42.9356 21.9982L36.4293 26.226C37.0539 27.5342 37.3944 28.9731 37.4262 30.4379V65.4473Z" fill="black"/>
<path d="M15.3808 34.3331L8.19238 21.9982V38.7113L15.3808 34.3331Z" fill="white"/>
<path d="M22.0596 37.8879L29.233 51.0065V34.3173L22.0596 37.8879Z" fill="white"/>
<path d="M9.28027 21.4362L16.6635 34.1035C16.6948 34.1313 16.7225 34.1632 16.746 34.1985C16.7525 34.2298 16.7525 34.2622 16.746 34.2935L18.9422 38.0621L20.8012 37.1358C20.8301 37.1026 20.8629 37.0734 20.8986 37.0487C20.9719 37.0035 21.0539 36.9765 21.1385 36.9695L28.6342 33.2564L9.28027 21.4362Z" fill="white"/>
<path d="M20.9735 38.4263L18.9646 39.4238C18.8872 39.4619 18.8027 39.4809 18.7173 39.4793C18.6138 39.4805 18.5118 39.4534 18.4212 39.4007C18.3306 39.348 18.2544 39.2714 18.2001 39.1784L16.0038 35.4099L8.79297 39.8118L28.1994 51.6399L20.9735 38.4263Z" fill="white"/>
</g>
</svg>
