<svg width="109" height="49" viewBox="0 0 109 49" fill="none" xmlns="http://www.w3.org/2000/svg">
<path d="M96.5598 32.0389L91.5625 24.9797L87.9584 29.0212L92.9557 36.0804L96.5598 32.0389Z" fill="#EF233C"/>
<path d="M96.9882 32.796C96.8816 32.9157 96.7491 32.9929 96.6076 33.0178C96.4661 33.0428 96.3219 33.0143 96.1933 32.9361C96.0646 32.8579 95.9573 32.7334 95.8848 32.5784C95.8124 32.4233 95.7781 32.2448 95.7864 32.0652C95.7946 31.8857 95.8449 31.7133 95.931 31.5697C96.0171 31.4262 96.1351 31.3181 96.2701 31.259C96.405 31.1999 96.5509 31.1925 96.6892 31.2377C96.8275 31.283 96.952 31.3788 97.047 31.5132C97.1735 31.6936 97.2383 31.9296 97.2273 32.1698C97.2163 32.41 97.1304 32.6351 96.9882 32.796Z" fill="#455A64"/>
<path d="M96.9222 32.3679L96.1953 32.3309L96.2262 31.7119L96.3794 31.7236L96.3593 32.1441L96.9284 32.1733L96.9222 32.3679Z" fill="white"/>
<path d="M91.4064 34.0244C91.3925 34.0029 92.1921 33.0764 93.1928 31.9532C94.1935 30.83 95.0179 29.9384 95.0318 29.9599C95.0457 29.9813 94.2476 30.9078 93.247 32.0291C92.2463 33.1503 91.4219 34.0458 91.4064 34.0244Z" fill="#263238"/>
<path d="M94.595 34.398C94.5795 34.4155 93.4257 32.8135 92.0213 30.8163C90.617 28.8191 89.491 27.1859 89.508 27.1684C89.525 27.1508 90.6757 28.7529 92.0817 30.7501C93.4876 32.7473 94.612 34.3786 94.595 34.398Z" fill="#FAFAFA"/>
<path d="M89.5198 31.2134C89.5043 31.192 90.3008 30.2732 91.2984 29.1617C92.296 28.0502 93.1157 27.1645 93.1312 27.1859C93.1467 27.2073 92.3486 28.1261 91.351 29.2376C90.3534 30.3492 89.5337 31.2329 89.5198 31.2134Z" fill="#FAFAFA"/>
<path d="M92.1682 35.0464C92.1527 35.0249 92.957 34.1003 93.9608 32.9791C94.9646 31.8578 95.792 30.9682 95.8075 30.9896C95.823 31.011 95.0202 31.9337 94.0149 33.055C93.0096 34.1762 92.1837 35.0658 92.1682 35.0464Z" fill="#FAFAFA"/>
<path d="M91.0309 29.3446C90.9911 29.3042 90.9571 29.2555 90.9304 29.2006C90.8506 29.0593 90.7837 28.9071 90.7309 28.747C90.6512 28.5078 90.6022 28.2542 90.5855 27.9957C90.5678 27.838 90.5821 27.6772 90.6273 27.5285C90.6549 27.4423 90.706 27.3713 90.7716 27.3285C90.8371 27.2857 90.9126 27.2737 90.9845 27.2949C91.0535 27.3124 91.1183 27.3501 91.1737 27.4049C91.229 27.4596 91.2733 27.53 91.3032 27.6102C91.3555 27.7527 91.385 27.9069 91.3898 28.0638C91.4054 28.3231 91.3801 28.5837 91.3155 28.8307C91.2739 28.9972 91.2135 29.1552 91.1361 29.2999C91.1114 29.3554 91.0789 29.4049 91.0402 29.4459C91.1308 29.2443 91.2049 29.0317 91.2614 28.8113C91.3156 28.571 91.3345 28.3204 91.3171 28.0716C91.3095 27.9273 91.2806 27.786 91.232 27.655C91.2076 27.5885 91.171 27.5303 91.1253 27.485C91.0797 27.4396 91.0261 27.4085 90.9691 27.3942C90.9148 27.3786 90.8579 27.3877 90.8084 27.4197C90.7589 27.4518 90.7199 27.5047 90.6984 27.5693C90.6586 27.7035 90.6453 27.8478 90.6597 27.9898C90.6727 28.2394 90.7144 28.4853 90.7835 28.7198C90.8548 28.9348 90.9374 29.1436 91.0309 29.3446Z" fill="#FAFAFA"/>
<path d="M90.9922 29.5082C91.0217 29.4634 91.058 29.4263 91.0989 29.3992C91.2044 29.3139 91.3176 29.2447 91.4361 29.1928C91.6126 29.1149 91.7981 29.0741 91.9851 29.0721C92.0956 29.0707 92.2059 29.0824 92.3146 29.1072C92.3774 29.1201 92.4372 29.1507 92.4894 29.1967C92.5187 29.2222 92.543 29.2558 92.5604 29.295C92.5779 29.3341 92.5879 29.3777 92.5899 29.4225C92.5886 29.4672 92.5794 29.511 92.5631 29.5507C92.5468 29.5904 92.5237 29.625 92.4955 29.6522C92.449 29.7003 92.3968 29.739 92.3409 29.7671C92.2373 29.821 92.1287 29.8576 92.0176 29.8761C91.8303 29.9058 91.6401 29.8825 91.4608 29.808C91.3412 29.7589 91.2288 29.6852 91.1283 29.5899C91.0892 29.5578 91.0551 29.5169 91.0278 29.4693C91.168 29.5833 91.3192 29.6743 91.4778 29.7398C91.6503 29.8009 91.8311 29.8155 92.0083 29.7827C92.1117 29.7642 92.2127 29.7282 92.3084 29.6756C92.4058 29.6269 92.5126 29.5393 92.5126 29.4245C92.5109 29.3949 92.5039 29.3662 92.4921 29.3406C92.4803 29.315 92.464 29.2931 92.4445 29.2765C92.4018 29.2397 92.3533 29.2152 92.3022 29.2045C92.2002 29.1798 92.0967 29.1667 91.9929 29.1656C91.8127 29.1635 91.6334 29.1957 91.4608 29.261C91.3001 29.329 91.1435 29.4117 90.9922 29.5082Z" fill="#FAFAFA"/>
<path d="M87.5009 28.1399L96.9634 41.6863H108.86V48.4546H96.32L85.0664 32.2316L87.5009 28.1399Z" fill="#263238"/>
<path d="M76.9141 17.593C76.9461 17.5954 76.9778 17.6026 77.0084 17.6144C77.0994 17.6377 77.1893 17.6676 77.2775 17.704C77.6025 17.8366 77.9105 18.0281 78.1916 18.2724C78.6076 18.6346 78.9734 19.0805 79.2743 19.5922C79.6487 20.2188 79.9411 20.9167 80.1404 21.6595C80.3292 22.4015 80.4537 23.1671 80.5116 23.9428C80.5598 24.5743 80.5826 25.2084 80.5797 25.8427C80.5797 26.3839 80.5673 26.816 80.558 27.1236C80.558 27.2657 80.5487 27.3825 80.5441 27.472C80.545 27.5126 80.5419 27.5531 80.5348 27.5927C80.5311 27.5526 80.5311 27.5121 80.5348 27.472C80.5348 27.3805 80.5348 27.2657 80.5348 27.1236C80.5348 26.8219 80.5348 26.3839 80.5348 25.8447C80.5348 25.3054 80.5116 24.6611 80.4498 23.9526C80.3883 23.1843 80.2634 22.4262 80.077 21.6906C79.8836 20.9589 79.6002 20.2699 79.2372 19.6486C78.9425 19.14 78.5842 18.6949 78.1762 18.3308C77.9005 18.0873 77.6004 17.8909 77.2837 17.7468C77.0471 17.6417 76.9125 17.6028 76.9141 17.593Z" fill="#263238"/>
<path d="M81.0691 27.5927C81.0664 27.5487 81.0664 27.5044 81.0691 27.4603C81.0691 27.363 81.0691 27.2365 81.0691 27.071C81.0691 26.7382 81.0691 26.2574 81.0691 25.6656C81.0691 25.0738 81.0443 24.3672 80.9824 23.5886C80.9209 22.744 80.7966 21.9085 80.6112 21.093C80.4208 20.2799 80.1413 19.5042 79.7807 18.7882C79.4863 18.2038 79.1263 17.6761 78.7119 17.2212C78.4321 16.9173 78.1248 16.6559 77.7963 16.4426C77.5628 16.2927 77.4266 16.2246 77.4297 16.2148C77.4641 16.2259 77.4977 16.2402 77.5303 16.2577C77.6256 16.3016 77.719 16.3516 77.8102 16.4076C78.148 16.6116 78.4635 16.8693 78.7491 17.1745C79.1738 17.6265 79.5424 18.156 79.8425 18.7454C80.2114 19.466 80.4963 20.2493 80.6886 21.0716C80.8674 21.8961 80.9829 22.7402 81.0335 23.5925C81.0907 24.3711 81.1031 25.0855 81.1031 25.6792C81.1031 26.2729 81.0938 26.7518 81.0845 27.0847C81.0845 27.2423 81.0752 27.3689 81.0721 27.474C81.0742 27.5136 81.0731 27.5534 81.0691 27.5927Z" fill="#263238"/>
<path d="M65.4643 6.59104C65.5091 6.69226 65.4333 15.8121 65.4333 15.8121H64.8425L64.6445 6.58325L65.4643 6.59104Z" fill="#263238"/>
<path d="M64.7851 14.5759L65.4656 14.6207L65.4594 15.9113L66.2296 16.4174L66.225 17.2661L65.7208 18.144L65.7007 16.9216L65.0712 16.5089L64.5345 16.8612L64.567 18.1791L64.0117 17.3226L64.0427 16.5381L64.7572 15.8685L64.7851 14.5759Z" fill="#263238"/>
<path d="M68.5884 8.01971L74.311 16.7171C74.4536 16.9342 74.6289 17.1138 74.8267 17.2455C75.0245 17.3772 75.2411 17.4585 75.4639 17.4847C75.6868 17.511 75.9115 17.4816 76.1253 17.3983C76.3391 17.315 76.5378 17.1794 76.7099 16.9994C76.8824 16.8199 77.0251 16.5993 77.1297 16.3503C77.2344 16.1014 77.299 15.8288 77.3198 15.5484C77.3406 15.2679 77.3173 14.985 77.2511 14.7159C77.185 14.4468 77.0772 14.1968 76.9342 13.9802L71.2115 5.28279C71.0689 5.06568 70.8937 4.88612 70.6958 4.7544C70.498 4.62268 70.2814 4.54138 70.0586 4.51516C69.8358 4.48894 69.611 4.51831 69.3972 4.6016C69.1834 4.68489 68.9847 4.82046 68.8126 5.00053C68.6401 5.18001 68.4975 5.40057 68.3928 5.64956C68.2881 5.89855 68.2235 6.17108 68.2027 6.45155C68.1819 6.73201 68.2052 7.0149 68.2714 7.28399C68.3376 7.55308 68.4453 7.80309 68.5884 8.01971Z" fill="#455A64"/>
<path d="M65.1391 7.98073H70.2431C70.5265 7.98073 70.7983 7.83901 70.9988 7.58676C71.1992 7.3345 71.3118 6.99237 71.3118 6.63563C71.3118 6.27889 71.1992 5.93675 70.9988 5.6845C70.7983 5.43224 70.5265 5.29053 70.2431 5.29053H65.1391C64.8556 5.29053 64.5838 5.43224 64.3833 5.6845C64.1829 5.93675 64.0703 6.27889 64.0703 6.63563C64.0703 6.99237 64.1829 7.3345 64.3833 7.58676C64.5838 7.83901 64.8556 7.98073 65.1391 7.98073Z" fill="#455A64"/>
<path d="M72.906 28.8348C72.906 30.4979 73.9773 31.8462 75.2987 31.8462C76.6202 31.8462 77.6914 30.4979 77.6914 28.8348V15.9074C77.6914 14.2443 76.6202 12.896 75.2987 12.896C73.9773 12.896 72.906 14.2443 72.906 15.9074V28.8348Z" fill="#455A64"/>
<path d="M76.1332 29.9548C76.5668 29.3423 76.5238 28.4035 76.0371 27.8578C75.5505 27.3121 74.8045 27.3662 74.371 27.9787C73.9374 28.5912 73.9804 29.53 74.4671 30.0757C74.9537 30.6214 75.6996 30.5672 76.1332 29.9548Z" fill="#263238"/>
<path d="M76.1362 16.5463C76.5971 15.9663 76.5971 15.0259 76.1362 14.4459C75.6753 13.8658 74.9281 13.8658 74.4673 14.4459C74.0064 15.0259 74.0064 15.9663 74.4673 16.5463C74.9281 17.1264 75.6753 17.1264 76.1362 16.5463Z" fill="#263238"/>
<path d="M70.0794 7.53693C70.4749 7.53693 70.7955 7.13341 70.7955 6.63565C70.7955 6.13789 70.4749 5.73438 70.0794 5.73438C69.6839 5.73438 69.3633 6.13789 69.3633 6.63565C69.3633 7.13341 69.6839 7.53693 70.0794 7.53693Z" fill="#263238"/>
<path d="M65.0208 7.24688C65.289 7.24688 65.5065 6.97322 65.5065 6.63565C65.5065 6.29807 65.289 6.02441 65.0208 6.02441C64.7526 6.02441 64.5352 6.29807 64.5352 6.63565C64.5352 6.97322 64.7526 7.24688 65.0208 7.24688Z" fill="#263238"/>
<path d="M72.92 16.1547C72.9127 16.1284 72.9091 16.1007 72.9091 16.0729C72.9053 15.9958 72.9053 15.9184 72.9091 15.8413C72.9132 15.5553 72.9518 15.2717 73.0236 15.0003C73.1284 14.5951 73.2967 14.2205 73.5185 13.8986C73.7855 13.4938 74.1344 13.1874 74.5283 13.0116C74.9223 12.8358 75.3466 12.7972 75.7565 12.9C76.0903 12.9744 76.409 13.1319 76.6938 13.3632C76.8849 13.5183 77.0569 13.7078 77.2042 13.9258C77.2438 13.988 77.2804 14.053 77.314 14.1205C77.3372 14.1633 77.3496 14.1867 77.3465 14.1905C77.1505 13.896 76.9199 13.6407 76.6629 13.4333C76.3818 13.2153 76.0698 13.0679 75.7442 12.9992C75.3471 12.9077 74.9379 12.9494 74.5578 13.1203C74.1776 13.2912 73.84 13.5851 73.5788 13.9725C73.3577 14.2801 73.1854 14.6383 73.0715 15.0276C72.9756 15.3913 72.9245 15.7714 72.92 16.1547Z" fill="#263238"/>
<path d="M68.6645 5.09985C68.6769 5.11153 68.5934 5.2731 68.5098 5.55925C68.3964 5.93154 68.3438 6.32877 68.3552 6.72721C68.371 7.12605 68.4493 7.51703 68.5856 7.87765C68.6939 8.15407 68.7882 8.3059 68.7774 8.31564C68.7666 8.32537 68.7465 8.28644 68.7016 8.22025C68.638 8.12468 68.5825 8.02094 68.5361 7.91074C68.4639 7.74935 68.4064 7.57828 68.3644 7.40074C68.3154 7.18294 68.2853 6.95905 68.2747 6.73305C68.2688 6.50591 68.2833 6.27865 68.318 6.05563C68.3466 5.87472 68.3912 5.69841 68.4511 5.53005C68.4904 5.41597 68.5385 5.30708 68.5949 5.20497C68.6367 5.12905 68.6599 5.09985 68.6645 5.09985Z" fill="#263238"/>
<path d="M10.8732 15.333C10.8732 15.3427 10.7185 15.3875 10.4679 15.5004C10.1043 15.6664 9.75991 15.8929 9.44405 16.1739C8.97396 16.59 8.56076 17.0995 8.22063 17.6826C7.80489 18.3931 7.48027 19.1813 7.25861 20.0185C7.04642 20.8645 6.9049 21.7361 6.83637 22.6191C6.76831 23.4309 6.74821 24.1667 6.74202 24.7837C6.73583 25.4008 6.74202 25.903 6.74202 26.2495V26.6486C6.74573 26.6945 6.74573 26.7408 6.74202 26.7868C6.73474 26.7413 6.73112 26.695 6.73119 26.6486L6.71727 26.2495C6.70799 25.905 6.69562 25.4028 6.69562 24.7837C6.69213 24.0577 6.71846 23.332 6.7745 22.6094C6.841 21.7214 6.98307 20.8449 7.19829 19.9951C7.42289 19.1464 7.75337 18.348 8.17733 17.63C8.52051 17.0432 8.93863 16.5321 9.41466 16.1175C9.73643 15.8379 10.0886 15.6183 10.4602 15.4654C10.5617 15.4234 10.665 15.3883 10.7695 15.3603C10.8033 15.3471 10.838 15.3379 10.8732 15.333Z" fill="#263238"/>
<path d="M6.12143 26.7869C6.11418 26.7361 6.11056 26.6847 6.1106 26.6331C6.1106 26.5241 6.10287 26.3781 6.09823 26.1971C6.08895 25.8078 6.07812 25.2666 6.07812 24.5853C6.07812 23.904 6.09359 23.0961 6.15855 22.1988C6.22604 21.2243 6.36743 20.2603 6.58079 19.3197C6.80154 18.3788 7.12754 17.4821 7.549 16.6568C7.89225 15.9824 8.31344 15.3762 8.79871 14.8581C9.12573 14.5093 9.48636 14.2137 9.8721 13.9783C9.97684 13.914 10.0842 13.8568 10.1938 13.807C10.2303 13.7847 10.2687 13.7677 10.3083 13.7563C10.2734 13.7821 10.2372 13.8048 10.2 13.8245C10.1288 13.8712 10.0175 13.9199 9.89066 14.0191C9.51228 14.2625 9.15863 14.5625 8.83738 14.9126C8.36227 15.4332 7.94966 16.0378 7.61242 16.7074C7.19855 17.527 6.87786 18.4155 6.65967 19.347C6.44768 20.2815 6.30529 21.2388 6.23434 22.2065C6.16474 23.1 6.14463 23.9079 6.1369 24.5872C6.12916 25.2666 6.1369 25.8155 6.1369 26.1951C6.1369 26.3781 6.1369 26.5241 6.1369 26.6331C6.13547 26.6849 6.13029 26.7363 6.12143 26.7869Z" fill="#263238"/>
<path d="M23.9155 2.61782C23.8676 2.73461 24.1568 9.44454 24.1568 9.44454L24.8327 9.43092L24.8543 2.58667L23.9155 2.61782Z" fill="#263238"/>
<path d="M25.17 5.84351L23.5692 6.00313L23.6465 9.04761L21.8555 10.3032L21.9081 12.3043L23.1392 14.3326L23.1284 11.4497L24.59 10.4258L25.8737 11.2142L25.8613 14.3248L27.1296 12.2614L27.0182 10.4141L25.3014 8.89383L25.17 5.84351Z" fill="#263238"/>
<path d="M20.4078 4.37961L13.8468 14.3384C13.6834 14.5867 13.4826 14.792 13.2561 14.9426C13.0296 15.0932 12.7817 15.1862 12.5266 15.2162C12.2715 15.2462 12.0142 15.2127 11.7694 15.1175C11.5246 15.0223 11.2971 14.8674 11.0999 14.6615C10.7029 14.245 10.4535 13.6471 10.4065 12.9992C10.3595 12.3513 10.5188 11.7065 10.8494 11.2063L17.4103 1.24558C17.7407 0.744601 18.2156 0.429168 18.7307 0.368578C19.2457 0.307989 19.7588 0.507199 20.1572 0.922446C20.5544 1.33936 20.8038 1.9376 20.8508 2.58579C20.8978 3.23398 20.7384 3.87914 20.4078 4.37961Z" fill="#455A64"/>
<path d="M24.3668 1.24365H18.5281C17.8524 1.24365 17.3047 1.93303 17.3047 2.78341V2.78536C17.3047 3.63575 17.8524 4.32512 18.5281 4.32512H24.3668C25.0424 4.32512 25.5902 3.63575 25.5902 2.78536V2.78341C25.5902 1.93303 25.0424 1.24365 24.3668 1.24365Z" fill="#455A64"/>
<path d="M12.7212 31.6553C11.9946 31.6553 11.2977 31.2921 10.7837 30.6457C10.2698 29.9992 9.98088 29.1224 9.98047 28.2079V13.402C9.98088 12.4875 10.2698 11.6107 10.7837 10.9642C11.2977 10.3177 11.9946 9.95459 12.7212 9.95459C13.4476 9.95459 14.1443 10.3178 14.658 10.9643C15.1717 11.6108 15.4603 12.4877 15.4603 13.402V28.2079C15.4603 29.1222 15.1717 29.999 14.658 30.6456C14.1443 31.2921 13.4476 31.6553 12.7212 31.6553Z" fill="#455A64"/>
<path d="M13.7315 29.5635C14.2588 28.8998 14.2588 27.8238 13.7315 27.1602C13.2042 26.4965 12.3493 26.4965 11.822 27.1602C11.2946 27.8238 11.2947 28.8998 11.822 29.5635C12.3493 30.2271 13.2042 30.2271 13.7315 29.5635Z" fill="#263238"/>
<path d="M14.0538 13.2072C14.1733 12.2808 13.6734 11.4079 12.9374 11.2575C12.2013 11.1071 11.5077 11.7362 11.3882 12.6627C11.2687 13.5891 11.7686 14.462 12.5047 14.6124C13.2408 14.7628 13.9343 14.1336 14.0538 13.2072Z" fill="#263238"/>
<path d="M18.6986 3.81706C19.1514 3.81706 19.5184 3.35515 19.5184 2.78536C19.5184 2.21557 19.1514 1.75366 18.6986 1.75366C18.2459 1.75366 17.8789 2.21557 17.8789 2.78536C17.8789 3.35515 18.2459 3.81706 18.6986 3.81706Z" fill="#263238"/>
<path d="M24.8879 2.28905C24.9658 2.38705 25.0189 2.51191 25.0404 2.64786C25.0619 2.7838 25.0509 2.92472 25.0087 3.05279C24.9666 3.18086 24.8952 3.29033 24.8037 3.36734C24.7121 3.44436 24.6044 3.48547 24.4943 3.48547C24.3842 3.48547 24.2765 3.44436 24.1849 3.36734C24.0934 3.29033 24.022 3.18086 23.9799 3.05279C23.9377 2.92472 23.9267 2.7838 23.9482 2.64786C23.9697 2.51191 24.0228 2.38705 24.1007 2.28905C24.2053 2.15818 24.3468 2.08472 24.4943 2.08472C24.6418 2.08472 24.7833 2.15818 24.8879 2.28905Z" fill="#263238"/>
<path d="M15.4474 13.6843C15.4444 13.2443 15.387 12.8076 15.2773 12.3898C15.1509 11.9406 14.9577 11.5257 14.7081 11.1674C14.4077 10.7224 14.0191 10.3853 13.5818 10.1905C13.1444 9.99558 12.6739 9.94982 12.218 10.0578C11.8434 10.1348 11.4842 10.302 11.1601 10.5503C10.8688 10.7895 10.608 11.0828 10.3867 11.4204C10.3967 11.3923 10.4097 11.3661 10.4254 11.3426C10.4642 11.2687 10.5066 11.1978 10.5522 11.1304C10.7209 10.8804 10.9185 10.6639 11.1384 10.488C11.4638 10.2244 11.8276 10.045 12.2087 9.96049C12.6772 9.84394 13.162 9.88835 13.6121 10.0891C14.0623 10.2898 14.4612 10.6394 14.7669 11.1012C15.0205 11.4695 15.2135 11.8977 15.3345 12.3606C15.4172 12.6709 15.462 12.9951 15.4675 13.3223C15.4723 13.4104 15.4723 13.4989 15.4675 13.587C15.4657 13.6207 15.4589 13.6538 15.4474 13.6843Z" fill="#263238"/>
<path d="M20.3222 1.01196C20.3222 1.01196 20.3531 1.05284 20.3995 1.1346C20.4602 1.25284 20.512 1.37797 20.5542 1.50835C20.6234 1.70099 20.6752 1.90274 20.7089 2.10985C20.7495 2.36606 20.7656 2.62746 20.7568 2.88849C20.7463 3.14758 20.712 3.40428 20.6547 3.6535C20.607 3.85628 20.5422 4.05206 20.4614 4.23748C20.4085 4.36247 20.3458 4.4805 20.2743 4.58981C20.2232 4.66768 20.1923 4.70856 20.1877 4.70272C20.183 4.69688 20.2866 4.51974 20.4104 4.20439C20.4823 4.01685 20.5403 3.82136 20.5836 3.62041C20.6344 3.37713 20.6655 3.12799 20.6764 2.87681C20.6841 2.62526 20.6706 2.3734 20.6362 2.12542C20.6072 1.92595 20.5631 1.73041 20.5047 1.54144C20.4073 1.20662 20.3083 1.03143 20.3222 1.01196Z" fill="#263238"/>
<path d="M85.068 26.1057H2.72197C1.37831 26.1057 0.289062 27.4766 0.289062 29.1677V29.1697C0.289062 30.8608 1.37831 32.2317 2.72197 32.2317H85.068C86.4117 32.2317 87.501 30.8608 87.501 29.1697V29.1677C87.501 27.4766 86.4117 26.1057 85.068 26.1057Z" fill="#455A64"/>
<path d="M76.1053 29.7046C76.2593 28.8865 75.8573 28.0662 75.2073 27.8724C74.5573 27.6786 73.9055 28.1846 73.7515 29.0027C73.5975 29.8207 73.9996 30.641 74.6496 30.8349C75.2995 31.0287 75.9513 30.5227 76.1053 29.7046Z" fill="#263238"/>
<path d="M86.5554 29.4021C86.7291 28.5867 86.3446 27.7484 85.6967 27.5298C85.0487 27.3112 84.3827 27.7951 84.209 28.6106C84.0353 29.4261 84.4198 30.2644 85.0677 30.4829C85.7157 30.7015 86.3817 30.2176 86.5554 29.4021Z" fill="#263238"/>
<path d="M64.7688 30.4262C65.2412 29.8318 65.2412 28.8679 64.7688 28.2735C64.2965 27.679 63.5307 27.679 63.0584 28.2735C62.586 28.8679 62.586 29.8318 63.0584 30.4262C63.5307 31.0207 64.2965 31.0207 64.7688 30.4262Z" fill="#263238"/>
<path d="M53.36 30.753C53.9777 30.4327 54.2721 29.543 54.0176 28.7656C53.7632 27.9883 53.0563 27.6178 52.4386 27.938C51.821 28.2582 51.5266 29.148 51.781 29.9253C52.0355 30.7026 52.7424 31.0732 53.36 30.753Z" fill="#263238"/>
<path d="M43.0663 29.7036C43.2203 28.8856 42.8182 28.0653 42.1682 27.8714C41.5182 27.6776 40.8665 28.1836 40.7125 29.0017C40.5584 29.8197 40.9605 30.64 41.6105 30.8339C42.2605 31.0277 42.9123 30.5217 43.0663 29.7036Z" fill="#263238"/>
<path d="M31.7429 30.4118C32.2078 29.808 32.1957 28.8443 31.716 28.2593C31.2363 27.6742 30.4706 27.6893 30.0058 28.2931C29.5409 28.8968 29.5529 29.8605 30.0326 30.4456C30.5123 31.0306 31.278 31.0155 31.7429 30.4118Z" fill="#263238"/>
<path d="M20.0944 30.5818C20.709 30.2624 21.0014 29.3764 20.7476 28.6029C20.4937 27.8295 19.7898 27.4615 19.1752 27.7809C18.5607 28.1004 18.2683 28.9864 18.5221 29.7598C18.7759 30.5333 19.4799 30.9013 20.0944 30.5818Z" fill="#263238"/>
<path d="M6.02666 29.6978C6.18011 28.8796 5.77747 28.0597 5.12734 27.8666C4.47722 27.6735 3.82581 28.1802 3.67236 28.9984C3.51892 29.8167 3.92156 30.6365 4.57168 30.8297C5.2218 31.0228 5.87322 30.516 6.02666 29.6978Z" fill="#263238"/>
<path d="M19.6805 48.7133H5.875L6.05905 32.2314H19.8631L19.6805 48.7133Z" fill="#263238"/>
<path d="M80.8665 48.6685H67.0625L67.1692 32.2314H80.9748L80.8665 48.6685Z" fill="#263238"/>
<path d="M15.5985 26.1055C15.5985 26.1328 14.3348 26.1562 12.7758 26.1562C11.2168 26.1562 9.95312 26.1328 9.95312 26.1055C9.95312 26.0783 11.2168 26.0549 12.7758 26.0549C14.3348 26.0549 15.5985 26.0763 15.5985 26.1055Z" fill="#263238"/>
<path d="M84.7192 31.6553L84.8336 31.6455C84.9467 31.6376 85.059 31.6174 85.1693 31.5852C85.3514 31.5313 85.5272 31.4475 85.692 31.336C85.9178 31.1776 86.1186 30.9684 86.2844 30.7189C86.5157 30.3676 86.6678 29.9445 86.725 29.4939C86.7821 29.0434 86.7421 28.5817 86.6092 28.1572C86.4786 27.7371 86.2618 27.3681 85.9808 27.088C85.6998 26.8079 85.3648 26.6267 85.01 26.563C84.7405 26.5331 84.4698 26.524 84.1995 26.5357L65.2915 26.5513L2.91908 26.5669C2.54389 26.5689 2.17673 26.7038 1.85962 26.9562C1.70044 27.0787 1.55658 27.2302 1.43274 27.4058C1.30666 27.5796 1.20235 27.7765 1.1234 27.9898C0.957738 28.4094 0.889041 28.8791 0.925136 29.3455C0.961232 29.8118 1.10067 30.256 1.32756 30.6275C1.55173 30.9975 1.85321 31.2819 2.19834 31.4489C2.36949 31.5329 2.54907 31.5866 2.73194 31.6085C2.9129 31.6241 3.10159 31.6085 3.28874 31.6202H14.2809H30.8426L58.8837 31.6319L77.787 31.6475L82.9266 31.6572H77.787L58.8837 31.6728L30.8426 31.6845H3.28874C3.10159 31.6845 2.91599 31.6845 2.7242 31.6728C2.53395 31.6501 2.3471 31.5944 2.16895 31.5073C1.99117 31.4297 1.82298 31.321 1.66938 31.1842C1.51355 31.0397 1.37545 30.8672 1.25951 30.6722C1.02394 30.2857 0.879202 29.8238 0.841746 29.339C0.80429 28.8542 0.875614 28.3658 1.04762 27.9295C1.13134 27.7102 1.24084 27.5081 1.37242 27.3299C1.50073 27.1476 1.64979 26.9901 1.81476 26.8627C2.14637 26.6062 2.52831 26.4714 2.91754 26.4734L65.29 26.487L84.1964 26.5046C84.4678 26.4936 84.7395 26.5033 85.01 26.5338C85.2652 26.5811 85.5113 26.6881 85.7353 26.8491C86.1428 27.1423 86.4578 27.6027 86.6278 28.1533C86.7608 28.5828 86.8 29.0493 86.7413 29.5042C86.6825 29.9592 86.528 30.3861 86.2937 30.7404C86.1262 30.9908 85.9232 31.2 85.6951 31.3574C85.5291 31.4677 85.3523 31.5502 85.1693 31.6027C85.0578 31.6332 84.9445 31.6521 84.8305 31.6592L84.7192 31.6553Z" fill="#263238"/>
<path d="M69.4146 19.6624H61.4492V26.1056H69.4146V19.6624Z" fill="#EF233C"/>
<path d="M70.1913 19.7675C70.1898 19.9576 70.1436 20.143 70.0585 20.3001C69.9735 20.4573 69.8534 20.5793 69.7134 20.6507C69.5734 20.7222 69.4197 20.7399 69.2717 20.7016C69.1237 20.6633 68.988 20.5708 68.8817 20.4357C68.7754 20.3005 68.7032 20.1288 68.6743 19.9422C68.6454 19.7555 68.661 19.5623 68.7192 19.3868C68.7773 19.2113 68.8755 19.0614 69.0012 18.9559C69.1269 18.8505 69.2746 18.7942 69.4257 18.7942C69.527 18.7939 69.6273 18.819 69.7207 18.8679C69.8142 18.9169 69.8991 18.9887 69.9703 19.0793C70.0415 19.1698 70.0978 19.2773 70.1357 19.3955C70.1736 19.5136 70.1925 19.6401 70.1913 19.7675Z" fill="#455A64"/>
<path d="M69.3416 20.2172L68.9766 19.7559L69.0864 19.6176L69.34 19.9388L69.7638 19.3899L69.8752 19.5242L69.3416 20.2172Z" fill="white"/>
<path d="M67.0285 26.1951C67.0068 26.1951 66.9883 24.7449 66.9883 22.9559C66.9883 21.167 67.0068 19.7148 67.0285 19.7148C67.0501 19.7148 67.0687 21.1651 67.0687 22.9559C67.0687 24.7468 67.0517 26.1951 67.0285 26.1951Z" fill="#263238"/>
<path d="M47.3297 20.291H40.082V26.1542H47.3297V20.291Z" fill="#EF233C"/>
<path d="M44.5402 26.1522C44.5186 26.1522 44.5 24.8382 44.5 23.2187C44.5 21.5991 44.5186 20.2852 44.5402 20.2852C44.5619 20.2852 44.5804 21.5991 44.5804 23.2187C44.5804 24.8382 44.5681 26.1522 44.5402 26.1522Z" fill="#263238"/>
<path d="M21.6209 15.333H16.4922V26.1055H21.6209V15.333Z" fill="#EF233C"/>
<path d="M20.5051 26.0745C20.4834 26.0745 20.4648 23.6841 20.4648 20.7331C20.4648 17.782 20.4834 15.3916 20.5051 15.3916C20.5267 15.3916 20.5453 17.784 20.5453 20.7331C20.5453 23.6822 20.5267 26.0745 20.5051 26.0745Z" fill="#263238"/>
<path d="M107.118 35.6394L99.6055 35.6675L99.6198 41.7428L107.132 41.7147L107.118 35.6394Z" fill="#EF233C"/>
<path d="M107.851 35.7453C107.851 35.9251 107.809 36.1009 107.73 36.2506C107.651 36.4003 107.538 36.5172 107.406 36.5863C107.275 36.6555 107.129 36.6739 106.989 36.6392C106.849 36.6045 106.72 36.5182 106.619 36.3914C106.518 36.2645 106.449 36.1027 106.42 35.9265C106.392 35.7502 106.406 35.5674 106.461 35.4011C106.515 35.2349 106.607 35.0926 106.726 34.9924C106.845 34.8922 106.984 34.8385 107.127 34.8381C107.222 34.8376 107.316 34.8607 107.404 34.9061C107.492 34.9514 107.571 35.0182 107.639 35.1025C107.706 35.1867 107.759 35.2869 107.796 35.3972C107.832 35.5075 107.851 35.6258 107.851 35.7453Z" fill="#455A64"/>
<path d="M107.05 36.1812L106.703 35.7412L106.811 35.605L107.048 35.9028L107.442 35.385L107.555 35.5213L107.05 36.1812Z" fill="white"/>
<path d="M104.889 41.8186C104.867 41.8186 104.845 40.456 104.841 38.7625C104.836 37.0689 104.851 35.7063 104.875 35.7063C104.898 35.7063 104.918 37.0689 104.921 38.7625C104.924 40.456 104.906 41.8186 104.889 41.8186Z" fill="#263238"/>
<path d="M107.221 39.0582C107.221 39.0874 105.503 39.1107 103.384 39.1107C101.265 39.1107 99.5469 39.0874 99.5469 39.0582C99.5469 39.029 101.264 39.0076 103.384 39.0076C105.505 39.0076 107.221 39.0309 107.221 39.0582Z" fill="#FAFAFA"/>
<path d="M101.958 41.7309C101.937 41.7309 101.918 40.3682 101.918 38.6942C101.918 37.0201 101.937 35.6575 101.958 35.6575C101.98 35.6575 101.998 37.0201 101.998 38.6942C101.998 40.3682 101.98 41.7309 101.958 41.7309Z" fill="#FAFAFA"/>
<path d="M105.993 41.7776C105.972 41.7776 105.953 40.415 105.953 38.7175C105.953 37.0201 105.969 35.6614 105.993 35.6614C106.018 35.6614 106.034 37.024 106.034 38.7214C106.034 40.4189 106.017 41.7776 105.993 41.7776Z" fill="#FAFAFA"/>
<path d="M101.85 39.068C101.799 39.0789 101.747 39.0789 101.695 39.068C101.558 39.0503 101.423 39.0124 101.293 38.9551C101.098 38.8719 100.915 38.7504 100.75 38.595C100.645 38.5071 100.559 38.3873 100.5 38.2465C100.469 38.164 100.461 38.0708 100.477 37.9818C100.496 37.8912 100.538 37.8111 100.597 37.754C100.654 37.7005 100.719 37.6644 100.788 37.6488C100.858 37.6333 100.929 37.6386 100.996 37.6645C101.118 37.7074 101.232 37.7809 101.33 37.8806C101.495 38.04 101.633 38.2384 101.737 38.4646C101.806 38.6151 101.858 38.7769 101.892 38.9454C101.909 39.008 101.917 39.0739 101.915 39.14C101.855 38.9212 101.777 38.7105 101.683 38.5113C101.576 38.3003 101.44 38.1161 101.279 37.9682C101.188 37.8783 101.082 37.8121 100.97 37.7735C100.914 37.753 100.856 37.749 100.798 37.7618C100.741 37.7746 100.687 37.804 100.641 37.8475C100.595 37.8889 100.563 37.949 100.55 38.0174C100.536 38.0857 100.542 38.1579 100.566 38.2212C100.62 38.3467 100.696 38.4542 100.789 38.5346C100.947 38.6884 101.121 38.8123 101.307 38.9025C101.485 38.9732 101.666 39.0285 101.85 39.068Z" fill="#FAFAFA"/>
<path d="M101.92 39.2141C101.912 39.1567 101.912 39.0982 101.92 39.0408C101.938 38.885 101.972 38.7327 102.02 38.5873C102.134 38.2386 102.318 37.9332 102.554 37.7016C102.603 37.6518 102.66 37.6159 102.721 37.5964C102.756 37.586 102.792 37.5857 102.827 37.5955C102.861 37.6053 102.894 37.6249 102.922 37.6529C102.948 37.6835 102.967 37.7208 102.98 37.7622C102.993 37.8036 102.999 37.848 102.996 37.8923C102.994 37.9697 102.981 38.046 102.959 38.1181C102.922 38.2521 102.87 38.3786 102.804 38.4938C102.702 38.6867 102.568 38.8494 102.412 38.9707C102.303 39.0513 102.185 39.1085 102.062 39.1401C102.017 39.1566 101.97 39.1612 101.924 39.1537C102.087 39.0981 102.243 39.0156 102.388 38.9085C102.539 38.7868 102.667 38.6271 102.766 38.4393C102.823 38.3286 102.869 38.2088 102.902 38.0831C102.936 37.9605 102.956 37.8008 102.886 37.7249C102.867 37.7077 102.846 37.6958 102.823 37.6901C102.8 37.6844 102.776 37.685 102.753 37.6918C102.704 37.7084 102.657 37.7375 102.617 37.7775C102.533 37.8585 102.456 37.9491 102.385 38.0481C102.265 38.2166 102.165 38.4069 102.09 38.6126C102.023 38.8083 101.966 39.0092 101.92 39.2141Z" fill="#FAFAFA"/>
</svg>
