<svg width="116" height="116" viewBox="0 0 116 116" fill="none" xmlns="http://www.w3.org/2000/svg">
<path d="M116 88.7168H0V88.7748H116V88.7168Z" fill="#EBEBEB"/>
<path d="M104.375 92.4497H96.6914V92.5077H104.375V92.4497Z" fill="#EBEBEB"/>
<path d="M76.8442 93.0808H74.8281V93.1388H76.8442V93.0808Z" fill="#EBEBEB"/>
<path d="M96.4599 90.2966H92.0078V90.3546H96.4599V90.2966Z" fill="#EBEBEB"/>
<path d="M22.192 90.6865H12.1719V90.7445H22.192V90.6865Z" fill="#EBEBEB"/>
<path d="M25.7264 90.6865H24.2578V90.7445H25.7264V90.6865Z" fill="#EBEBEB"/>
<path d="M52.2338 91.6655H30.5V91.7235H52.2338V91.6655Z" fill="#EBEBEB"/>
<path d="M54.9826 78.3696H10.1857C9.83475 78.369 9.49839 78.2292 9.25046 77.9808C9.00253 77.7324 8.86328 77.3958 8.86328 77.0449V14.0731C8.86634 13.7242 9.00693 13.3906 9.25454 13.1447C9.50214 12.8989 9.83675 12.7606 10.1857 12.76H54.9826C55.3339 12.76 55.6709 12.8996 55.9193 13.148C56.1677 13.3964 56.3073 13.7334 56.3073 14.0847V77.0449C56.3073 77.3962 56.1677 77.7332 55.9193 77.9816C55.6709 78.23 55.3339 78.3696 54.9826 78.3696ZM10.1857 12.8064C9.85013 12.807 9.52853 12.9408 9.29147 13.1782C9.05442 13.4157 8.92128 13.7376 8.92128 14.0731V77.0449C8.92128 77.3804 9.05442 77.7023 9.29147 77.9398C9.52853 78.1773 9.85013 78.311 10.1857 78.3116H54.9826C55.3183 78.311 55.6402 78.1773 55.8776 77.9399C56.115 77.7025 56.2487 77.3807 56.2493 77.0449V14.0731C56.2487 13.7374 56.115 13.4155 55.8776 13.1781C55.6402 12.9407 55.3183 12.807 54.9826 12.8064H10.1857Z" fill="#EBEBEB"/>
<path d="M105.167 78.3696H60.3677C60.0165 78.369 59.68 78.2292 59.4317 77.9809C59.1834 77.7326 59.0436 77.396 59.043 77.0449V14.0731C59.0466 13.724 59.1877 13.3904 59.4357 13.1446C59.6837 12.8988 60.0185 12.7606 60.3677 12.76H105.167C105.515 12.7612 105.849 12.8997 106.097 13.1455C106.344 13.3913 106.484 13.7246 106.487 14.0731V77.0449C106.487 77.3954 106.348 77.7317 106.101 77.98C105.853 78.2283 105.517 78.3684 105.167 78.3696ZM60.3677 12.8064C60.0319 12.807 59.7101 12.9407 59.4727 13.1781C59.2352 13.4155 59.1016 13.7374 59.101 14.0731V77.0449C59.1016 77.3807 59.2352 77.7025 59.4727 77.9399C59.7101 78.1773 60.0319 78.311 60.3677 78.3116H105.167C105.503 78.311 105.824 78.1773 106.062 77.9399C106.299 77.7025 106.433 77.3807 106.434 77.0449V14.0731C106.433 13.7374 106.299 13.4155 106.062 13.1781C105.824 12.9407 105.503 12.807 105.167 12.8064H60.3677Z" fill="#EBEBEB"/>
<path d="M101.146 88.7168H108.5V75.697H101.146V88.7168Z" fill="#F0F0F0"/>
<path d="M94.7042 88.7168H102.059V78.5529H94.7042V88.7168Z" fill="#F0F0F0"/>
<path d="M90.0011 88.7168H97.3555V70.1777H90.0011V88.7168Z" fill="#F0F0F0"/>
<path d="M85.1144 88.7168H92.4688V55.1464H85.1144V88.7168Z" fill="#F0F0F0"/>
<path d="M66.9262 88.7168H86.6602V57.7587H66.9262V88.7168Z" fill="#F0F0F0"/>
<path d="M16.8067 77.0657H6.39453V88.7167H16.8067V77.0657Z" fill="#F5F5F5"/>
<path d="M25.9278 79.6201H15.5156V88.7145H25.9278V79.6201Z" fill="#F5F5F5"/>
<path d="M32.584 72.1265H22.1719V88.7168H32.584V72.1265Z" fill="#F5F5F5"/>
<path d="M39.5059 58.675H29.0938V88.7167H39.5059V58.675Z" fill="#F5F5F5"/>
<path d="M37.4033 88.7168H54.4414L54.4414 52.0167H37.4033V88.7168Z" fill="#F0F0F0"/>
<path d="M39.0239 58.0232H39.8359V53.5572H39.0239V58.0232Z" fill="#F5F5F5"/>
<path d="M39.0239 65.0042H39.8359V60.5382H39.0239V65.0042Z" fill="#F5F5F5"/>
<path d="M39.0239 71.9895H39.8359V67.5235H39.0239V71.9895Z" fill="#F5F5F5"/>
<path d="M39.0239 78.9729H39.8359V74.5069H39.0239V78.9729Z" fill="#F5F5F5"/>
<path d="M39.0239 85.9561H39.8359V81.4901H39.0239V85.9561Z" fill="#F5F5F5"/>
<path d="M41.8989 58.0232H42.7109V53.5572H41.8989V58.0232Z" fill="#F5F5F5"/>
<path d="M41.8989 65.0042H42.7109V60.5382H41.8989V65.0042Z" fill="#F5F5F5"/>
<path d="M41.8989 71.9895H42.7109V67.5235H41.8989V71.9895Z" fill="#F5F5F5"/>
<path d="M41.8989 78.9729H42.7109V74.5069H41.8989V78.9729Z" fill="#F5F5F5"/>
<path d="M41.8989 85.9561H42.7109V81.4901H41.8989V85.9561Z" fill="#F5F5F5"/>
<path d="M44.7739 58.0232H45.5859V53.5572H44.7739V58.0232Z" fill="#F5F5F5"/>
<path d="M44.7739 65.0042H45.5859V60.5382H44.7739V65.0042Z" fill="#F5F5F5"/>
<path d="M44.7739 71.9895H45.5859V67.5235H44.7739V71.9895Z" fill="#F5F5F5"/>
<path d="M44.7739 78.9729H45.5859V74.5069H44.7739V78.9729Z" fill="#F5F5F5"/>
<path d="M44.7739 85.9561H45.5859V81.4901H44.7739V85.9561Z" fill="#F5F5F5"/>
<path d="M47.6489 58.0232H48.4609V53.5572H47.6489V58.0232Z" fill="#F5F5F5"/>
<path d="M47.6489 65.0042H48.4609V60.5382H47.6489V65.0042Z" fill="#F5F5F5"/>
<path d="M47.6489 71.9895H48.4609V67.5235H47.6489V71.9895Z" fill="#F5F5F5"/>
<path d="M47.6489 78.9729H48.4609V74.5069H47.6489V78.9729Z" fill="#F5F5F5"/>
<path d="M47.6489 85.9561H48.4609V81.4901H47.6489V85.9561Z" fill="#F5F5F5"/>
<path d="M50.5239 58.0232H51.3359V53.5572H50.5239V58.0232Z" fill="#F5F5F5"/>
<path d="M50.5239 65.0042H51.3359V60.5382H50.5239V65.0042Z" fill="#F5F5F5"/>
<path d="M50.5239 71.9895H51.3359V67.5235H50.5239V71.9895Z" fill="#F5F5F5"/>
<path d="M50.5239 78.9729H51.3359V74.5069H50.5239V78.9729Z" fill="#F5F5F5"/>
<path d="M50.5239 85.9561H51.3359V81.4901H50.5239V85.9561Z" fill="#F5F5F5"/>
<path opacity="0.5" d="M54.4414 52.0168H50.9289L49.4023 88.7169H54.4414V52.0168Z" fill="#E0E0E0"/>
<path d="M82.5595 26.7195L61.8906 29.0766V88.7168H82.5595V26.7195Z" fill="#F0F0F0"/>
<path d="M99.0956 26.7195H82.5586V88.7168H99.0956V26.7195Z" fill="#E6E6E6"/>
<path d="M99.0965 31.856H61.8906V32.1738H99.0965V31.856Z" fill="#E0E0E0"/>
<path d="M99.0965 35.2314H61.8906V35.5493H99.0965V35.2314Z" fill="#E0E0E0"/>
<path d="M99.0965 38.6072H61.8906V38.925H99.0965V38.6072Z" fill="#E0E0E0"/>
<path d="M99.0965 41.9827H61.8906V42.3005H99.0965V41.9827Z" fill="#E0E0E0"/>
<path d="M99.0965 45.3584H61.8906V45.6762H99.0965V45.3584Z" fill="#E0E0E0"/>
<path d="M99.0965 48.7339H61.8906V49.0517H99.0965V48.7339Z" fill="#E0E0E0"/>
<path d="M99.0965 52.1096H61.8906V52.4275H99.0965V52.1096Z" fill="#E0E0E0"/>
<path d="M99.0965 55.4851H61.8906V55.8029H99.0965V55.4851Z" fill="#E0E0E0"/>
<path d="M99.0965 58.8608H61.8906V59.1787H99.0965V58.8608Z" fill="#E0E0E0"/>
<path d="M99.0965 62.2363H61.8906V62.5542H99.0965V62.2363Z" fill="#E0E0E0"/>
<path d="M99.0965 65.6118H61.8906V65.9297H99.0965V65.6118Z" fill="#E0E0E0"/>
<path d="M99.0965 68.9897H61.8906V69.3076H99.0965V68.9897Z" fill="#E0E0E0"/>
<path d="M99.0965 72.3655H61.8906V72.6833H99.0965V72.3655Z" fill="#E0E0E0"/>
<path d="M99.0965 75.741H61.8906V76.0588H99.0965V75.741Z" fill="#E0E0E0"/>
<path d="M99.0965 79.1167H61.8906V79.4345H99.0965V79.1167Z" fill="#E0E0E0"/>
<path d="M99.0965 82.4922H61.8906V82.81H99.0965V82.4922Z" fill="#E0E0E0"/>
<path d="M99.0965 85.8679H61.8906V86.1858H99.0965V85.8679Z" fill="#E0E0E0"/>
<path d="M25.059 88.7168H34.8633L34.8633 37.5399H25.059L25.059 88.7168Z" fill="#F0F0F0"/>
<path d="M25.0588 37.5399H34.8631L31.2555 33.0205H17.2148L25.0588 37.5399Z" fill="#FAFAFA"/>
<path d="M25.0588 37.5399L17.2148 33.0205V88.7167H25.0588V37.5399Z" fill="#EBEBEB"/>
<path d="M17.2174 40.1963H34.8633V39.9248H17.2174V40.1963Z" fill="#E0E0E0"/>
<path d="M17.2174 43.094H34.8633V42.8226H17.2174V43.094Z" fill="#E0E0E0"/>
<path d="M17.2174 45.9917H34.8633V45.7203H17.2174V45.9917Z" fill="#E0E0E0"/>
<path d="M17.2174 48.887H34.8633V48.6155H17.2174V48.887Z" fill="#E0E0E0"/>
<path d="M17.2174 51.7847H34.8633V51.5132H17.2174V51.7847Z" fill="#E0E0E0"/>
<path d="M17.2174 54.6802H34.8633V54.4087H17.2174V54.6802Z" fill="#E0E0E0"/>
<path d="M17.2174 57.5779H34.8633V57.3064H17.2174V57.5779Z" fill="#E0E0E0"/>
<path d="M17.2174 60.4753H34.8633V60.2039H17.2174V60.4753Z" fill="#E0E0E0"/>
<path d="M17.2174 63.3708H34.8633V63.0994H17.2174V63.3708Z" fill="#E0E0E0"/>
<path d="M17.2174 66.2686H34.8633V65.9971H17.2174V66.2686Z" fill="#E0E0E0"/>
<path d="M17.2174 69.1638H34.8633V68.8924H17.2174V69.1638Z" fill="#E0E0E0"/>
<path d="M17.2174 72.0615H34.8633V71.7901H17.2174V72.0615Z" fill="#E0E0E0"/>
<path d="M17.2174 74.9568H34.8633V74.6854H17.2174V74.9568Z" fill="#E0E0E0"/>
<path d="M17.2174 77.8545H34.8633V77.5831H17.2174V77.8545Z" fill="#E0E0E0"/>
<path d="M17.2174 80.7522H34.8633V80.4808H17.2174V80.7522Z" fill="#E0E0E0"/>
<path d="M17.2174 83.6477H34.8633V83.3763H17.2174V83.6477Z" fill="#E0E0E0"/>
<path d="M17.2174 86.5454H34.8633V86.274H17.2174V86.5454Z" fill="#E0E0E0"/>
<path d="M59.708 88.7146H72.9297V43.0848H59.708L59.708 88.7146Z" fill="#F0F0F0"/>
<path d="M68.2014 52.7683H70.3242V45.4441H68.2014V52.7683Z" fill="#E6E6E6"/>
<path d="M62.9983 52.7683H65.1211V45.4441H62.9983V52.7683Z" fill="#E6E6E6"/>
<path d="M68.2014 62.2527H70.3242V54.9284H68.2014V62.2527Z" fill="#E6E6E6"/>
<path d="M62.9983 62.2527H65.1211V54.9284H62.9983V62.2527Z" fill="#E6E6E6"/>
<path d="M68.2014 71.7368H70.3242V64.4126H68.2014V71.7368Z" fill="#E6E6E6"/>
<path d="M62.9983 71.7368H65.1211V64.4126H62.9983V71.7368Z" fill="#E6E6E6"/>
<path d="M68.2014 81.2209H70.3242V73.8967H68.2014V81.2209Z" fill="#E6E6E6"/>
<path d="M62.9983 81.2209H65.1211V73.8967H62.9983V81.2209Z" fill="#E6E6E6"/>
<path d="M59.705 43.087H72.9267L69.8271 39.9248H56.6055L59.705 43.087Z" fill="white"/>
<path d="M59.7053 43.087L56.6057 39.9248L53.5039 43.087V88.7167H59.7053V43.087Z" fill="#E6E6E6"/>
<path d="M44.1402 34.7815C47.6587 34.7815 50.511 31.9292 50.511 28.4108C50.511 24.8923 47.6587 22.04 44.1402 22.04C40.6218 22.04 37.7695 24.8923 37.7695 28.4108C37.7695 31.9292 40.6218 34.7815 44.1402 34.7815Z" fill="#FAFAFA"/>
<path d="M91.1372 18.7179C89.5526 18.5648 88.098 17.4442 86.0332 17.1356C85.0054 16.9825 84.4092 17.3676 83.8014 17.7296C83.0404 18.1936 82.1101 18.4256 80.9431 18.3977C79.4084 18.3569 77.8893 18.0783 76.44 17.5718C75.1315 17.1264 73.765 16.5928 72.728 16.7853C70.8047 17.138 70.749 18.4093 69.1575 18.5903C67.566 18.7712 67.276 19.6296 68.5961 19.6296H92.7751C93.9305 19.6296 92.7241 18.8687 91.1372 18.7179Z" fill="#F5F5F5"/>
<path d="M22.9442 18.4533C22.2761 18.8454 20.956 18.6088 18.7891 18.27C17.5177 18.0728 16.8867 18.4788 16.0051 18.8431C15.6525 18.9916 14.1027 19.4996 16.1257 19.4996H27.3777C30.4958 19.4996 27.5958 18.9428 27.097 18.7271H27.0715C25.5797 18.0636 23.6101 18.0636 22.9442 18.4533Z" fill="#F5F5F5"/>
<path d="M30.1591 27.339H42.4551C43.5316 27.339 42.4087 26.6291 40.9309 26.4875C39.453 26.346 38.0982 25.302 36.1656 25.0143C34.233 24.7267 34.182 26.2903 31.6439 26.2741C29.593 26.2648 28.0711 27.339 30.1591 27.339Z" fill="#F5F5F5"/>
<path d="M57.9981 99.1939C82.8412 99.1939 102.981 98.0181 102.981 96.5676C102.981 95.1172 82.8412 93.9414 57.9981 93.9414C33.155 93.9414 13.0156 95.1172 13.0156 96.5676C13.0156 98.0181 33.155 99.1939 57.9981 99.1939Z" fill="#F5F5F5"/>
<path d="M31.8153 42.319C31.7451 42.319 31.6778 42.2911 31.6282 42.2415C31.5786 42.1919 31.5508 42.1246 31.5508 42.0545V20.8126C31.5508 20.7424 31.5786 20.6752 31.6282 20.6256C31.6778 20.576 31.7451 20.5481 31.8153 20.5481C31.8854 20.5481 31.9527 20.576 32.0023 20.6256C32.0519 20.6752 32.0797 20.7424 32.0797 20.8126V42.0545C32.0797 42.1246 32.0519 42.1919 32.0023 42.2415C31.9527 42.2911 31.8854 42.319 31.8153 42.319Z" fill="#EF233C"/>
<path d="M38.8945 42.319C38.8244 42.319 38.7571 42.2912 38.7075 42.2416C38.6579 42.192 38.6301 42.1247 38.6301 42.0546V20.8126C38.6266 20.7757 38.6309 20.7384 38.6427 20.7032C38.6545 20.668 38.6735 20.6356 38.6985 20.6081C38.7235 20.5807 38.7539 20.5588 38.7879 20.5438C38.8218 20.5287 38.8586 20.521 38.8957 20.521C38.9328 20.521 38.9696 20.5287 39.0035 20.5438C39.0375 20.5588 39.068 20.5807 39.093 20.6081C39.118 20.6356 39.137 20.668 39.1487 20.7032C39.1605 20.7384 39.1648 20.7757 39.1613 20.8126V42.0546C39.1607 42.1249 39.1324 42.1922 39.0824 42.2417C39.0324 42.2913 38.9649 42.319 38.8945 42.319Z" fill="#EF233C"/>
<path d="M38.8949 28.1577C38.8246 28.1579 38.7571 28.1304 38.7069 28.0811L35.3545 24.7287L32.0021 28.0719C31.951 28.1147 31.8857 28.1368 31.8191 28.1338C31.7525 28.1309 31.6894 28.1031 31.6422 28.056C31.5951 28.0088 31.5673 27.9457 31.5643 27.8791C31.5614 27.8125 31.5835 27.7472 31.6263 27.696L34.9787 24.3599L31.6263 21.0005C31.586 20.9638 31.5578 20.9156 31.5457 20.8624C31.5336 20.8092 31.5381 20.7536 31.5586 20.703C31.5791 20.6525 31.6145 20.6094 31.6602 20.5796C31.706 20.5498 31.7597 20.5348 31.8142 20.5365H38.8949C38.9475 20.5366 38.999 20.5523 39.0428 20.5816C39.0865 20.611 39.1206 20.6526 39.1408 20.7012C39.1611 20.7498 39.1664 20.8034 39.1561 20.8551C39.1458 20.9068 39.1202 20.9542 39.0828 20.9912L35.7304 24.3599L39.0828 27.7123C39.1245 27.7484 39.1539 27.7967 39.1668 27.8503C39.1797 27.904 39.1755 27.9603 39.1548 28.0115C39.1341 28.0626 39.0979 28.106 39.0513 28.1356C39.0046 28.1651 38.95 28.1794 38.8949 28.1763V28.1577ZM32.4545 21.0771L35.3545 23.9771L38.2545 21.0771H32.4545Z" fill="#EF233C"/>
<path d="M31.8132 21.0772C31.7606 21.0776 31.7091 21.0622 31.6653 21.0332C31.6215 21.0042 31.5873 20.9627 31.5671 20.9142C31.5469 20.8656 31.5417 20.8122 31.5521 20.7606C31.5624 20.7091 31.5879 20.6618 31.6253 20.6248L35.1656 17.0845C35.1902 17.0596 35.2194 17.0399 35.2517 17.0265C35.2839 17.013 35.3185 17.0061 35.3535 17.0061C35.3884 17.0061 35.423 17.013 35.4553 17.0265C35.4876 17.0399 35.5168 17.0596 35.5414 17.0845L39.0817 20.6248C39.1066 20.6494 39.1263 20.6787 39.1397 20.7109C39.1532 20.7432 39.1601 20.7778 39.1601 20.8127C39.1601 20.8477 39.1532 20.8823 39.1397 20.9145C39.1263 20.9468 39.1066 20.976 39.0817 21.0006C39.0315 21.0497 38.964 21.0771 38.8938 21.0771C38.8236 21.0771 38.7562 21.0497 38.7059 21.0006L35.3535 17.6482L32.0011 21.0006C31.951 21.0499 31.8835 21.0774 31.8132 21.0772Z" fill="#EF233C"/>
<path d="M45.9758 21.0772C45.9057 21.0769 45.8383 21.0495 45.7879 21.0006L42.4355 17.6482L39.0831 21.0006C39.0329 21.0497 38.9654 21.0771 38.8952 21.0771C38.825 21.0771 38.7575 21.0497 38.7073 21.0006C38.6824 20.976 38.6627 20.9468 38.6493 20.9145C38.6358 20.8823 38.6289 20.8477 38.6289 20.8127C38.6289 20.7778 38.6358 20.7432 38.6493 20.7109C38.6627 20.6787 38.6824 20.6494 38.7073 20.6248L42.2476 17.0845C42.2722 17.0596 42.3015 17.0399 42.3337 17.0265C42.366 17.013 42.4006 17.0061 42.4355 17.0061C42.4705 17.0061 42.5051 17.013 42.5373 17.0265C42.5696 17.0399 42.5988 17.0596 42.6234 17.0845L46.1707 20.6248C46.2081 20.6618 46.2336 20.7091 46.2439 20.7606C46.2543 20.8122 46.249 20.8656 46.2289 20.9142C46.2087 20.9627 46.1745 21.0042 46.1307 21.0332C46.0869 21.0622 46.0354 21.0776 45.9828 21.0772H45.9758Z" fill="#EF233C"/>
<path d="M45.9733 21.0772C45.9031 21.0769 45.8358 21.0495 45.7854 21.0006C45.7606 20.976 45.7409 20.9468 45.7274 20.9145C45.714 20.8823 45.707 20.8477 45.707 20.8127C45.707 20.7778 45.714 20.7432 45.7274 20.7109C45.7409 20.6787 45.7606 20.6494 45.7854 20.6248L49.3257 17.0845C49.3503 17.0596 49.3796 17.0399 49.4118 17.0265C49.4441 17.013 49.4787 17.0061 49.5136 17.0061C49.5486 17.0061 49.5832 17.013 49.6154 17.0265C49.6477 17.0399 49.677 17.0596 49.7016 17.0845L53.2419 20.6248C53.2667 20.6494 53.2864 20.6787 53.2999 20.7109C53.3133 20.7432 53.3203 20.7778 53.3203 20.8127C53.3203 20.8477 53.3133 20.8823 53.2999 20.9145C53.2864 20.9468 53.2667 20.976 53.2419 21.0006C53.1916 21.0497 53.1242 21.0771 53.054 21.0771C52.9837 21.0771 52.9163 21.0497 52.866 21.0006L49.5136 17.6482L46.1682 21.0006C46.1426 21.0259 46.1121 21.0457 46.0786 21.0588C46.0451 21.072 46.0093 21.0782 45.9733 21.0772Z" fill="#EF233C"/>
<path d="M31.8132 35.2383C31.7606 35.2387 31.7091 35.2234 31.6653 35.1943C31.6215 35.1653 31.5873 35.1239 31.5671 35.0753C31.5469 35.0268 31.5417 34.9733 31.5521 34.9218C31.5624 34.8702 31.5879 34.8229 31.6253 34.7859L38.7059 27.7053C38.757 27.6625 38.8223 27.6404 38.889 27.6433C38.9556 27.6463 39.0187 27.6741 39.0658 27.7212C39.113 27.7684 39.1408 27.8315 39.1437 27.8981C39.1467 27.9647 39.1245 28.03 39.0817 28.0811L32.0011 35.1618C31.951 35.2111 31.8835 35.2386 31.8132 35.2383Z" fill="#EF233C"/>
<path d="M38.8933 35.2383C38.823 35.2386 38.7555 35.2111 38.7054 35.1618L31.6247 28.0719C31.5819 28.0207 31.5598 27.9554 31.5628 27.8888C31.5657 27.8222 31.5935 27.7591 31.6406 27.7119C31.6878 27.6648 31.7509 27.637 31.8175 27.634C31.8841 27.6311 31.9494 27.6532 32.0006 27.696L39.0812 34.7767C39.1186 34.8137 39.144 34.8609 39.1544 34.9125C39.1648 34.964 39.1595 35.0175 39.1394 35.066C39.1192 35.1146 39.085 35.156 39.0412 35.1851C38.9973 35.2141 38.9459 35.2294 38.8933 35.2291V35.2383Z" fill="#EF233C"/>
<path d="M38.8931 42.319H31.8124C31.7599 42.3194 31.7085 42.3042 31.6648 42.2753C31.621 42.2463 31.5868 42.205 31.5665 42.1566C31.5468 42.1079 31.5418 42.0545 31.5521 42.0029C31.5624 41.9514 31.5876 41.904 31.6245 41.8666L34.9769 38.5119L31.6245 35.1595C31.5817 35.1084 31.5596 35.0431 31.5625 34.9765C31.5655 34.9098 31.5933 34.8467 31.6404 34.7996C31.6876 34.7524 31.7507 34.7246 31.8173 34.7217C31.8839 34.7188 31.9492 34.7409 32.0003 34.7837L35.3527 38.1361L38.7051 34.7837C38.7563 34.7409 38.8216 34.7188 38.8882 34.7217C38.9548 34.7246 39.0179 34.7524 39.0651 34.7996C39.1122 34.8467 39.14 34.9098 39.143 34.9765C39.1459 35.0431 39.1238 35.1084 39.081 35.1595L35.7286 38.5119L39.081 41.8643C39.1183 41.9013 39.1438 41.9486 39.1542 42.0001C39.1645 42.0517 39.1593 42.1051 39.1391 42.1537C39.119 42.2022 39.0848 42.2437 39.041 42.2727C38.9971 42.3018 38.9456 42.3171 38.8931 42.3167V42.319ZM32.4527 41.7901H38.2527L35.3527 38.8901L32.4527 41.7901Z" fill="#263238"/>
<path d="M29.3363 24.6361H25.5547L26.0303 20.8127H28.8584L29.3363 24.6361Z" fill="#EF233C"/>
<path d="M29.3367 24.9004H25.5551C25.5175 24.9003 25.4804 24.8924 25.4461 24.8773C25.4117 24.8621 25.3809 24.84 25.3556 24.8123C25.3311 24.7837 25.3127 24.7505 25.3015 24.7146C25.2904 24.6787 25.2866 24.6408 25.2906 24.6035L25.7685 20.7801C25.7764 20.7161 25.8074 20.6572 25.8557 20.6145C25.904 20.5718 25.9662 20.5482 26.0307 20.5481H28.8588C28.9235 20.5481 28.986 20.5716 29.0347 20.6143C29.0833 20.657 29.1148 20.7159 29.1232 20.7801L29.5872 24.6035C29.5918 24.6406 29.5885 24.6783 29.5774 24.7141C29.5664 24.7499 29.5478 24.7829 29.523 24.811C29.4983 24.839 29.4678 24.8615 29.4337 24.877C29.3995 24.8924 29.3625 24.9004 29.3251 24.9004H29.3367ZM25.8567 24.3691H29.0351L28.6244 21.0771H26.2673L25.8567 24.3691Z" fill="#EF233C"/>
<path d="M53.0556 21.0771H24.9557C24.9187 21.0806 24.8815 21.0763 24.8462 21.0645C24.811 21.0527 24.7787 21.0337 24.7512 21.0087C24.7238 20.9837 24.7018 20.9533 24.6868 20.9193C24.6718 20.8853 24.6641 20.8486 24.6641 20.8115C24.6641 20.7743 24.6718 20.7376 24.6868 20.7037C24.7018 20.6697 24.7238 20.6392 24.7512 20.6142C24.7787 20.5892 24.811 20.5702 24.8462 20.5585C24.8815 20.5467 24.9187 20.5424 24.9557 20.5458H53.0556C53.0925 20.5424 53.1298 20.5467 53.165 20.5585C53.2002 20.5702 53.2326 20.5892 53.2601 20.6142C53.2875 20.6392 53.3094 20.6697 53.3245 20.7037C53.3395 20.7376 53.3472 20.7743 53.3472 20.8115C53.3472 20.8486 53.3395 20.8853 53.3245 20.9193C53.3094 20.9533 53.2875 20.9837 53.2601 21.0087C53.2326 21.0337 53.2002 21.0527 53.165 21.0645C53.1298 21.0763 53.0925 21.0806 53.0556 21.0771Z" fill="#263238"/>
<path d="M49.515 17.5368H35.363C35.2969 17.5306 35.2354 17.5 35.1906 17.4508C35.1459 17.4017 35.1211 17.3377 35.1211 17.2712C35.1211 17.2047 35.1459 17.1407 35.1906 17.0915C35.2354 17.0424 35.2969 17.0117 35.363 17.0056H49.515C49.552 17.0021 49.5893 17.0064 49.6245 17.0182C49.6597 17.0299 49.6921 17.0489 49.7195 17.0739C49.747 17.099 49.7689 17.1294 49.7839 17.1634C49.7989 17.1973 49.8067 17.2341 49.8067 17.2712C49.8067 17.3083 49.7989 17.345 49.7839 17.379C49.7689 17.413 49.747 17.4434 49.7195 17.4684C49.6921 17.4934 49.6597 17.5124 49.6245 17.5242C49.5893 17.536 49.552 17.5403 49.515 17.5368Z" fill="#EF233C"/>
<path d="M56.7735 32.7004H29.474C28.03 32.7004 26.8594 33.8711 26.8594 35.3151V92.8766C26.8594 94.3206 28.03 95.4912 29.474 95.4912H56.7735C58.2175 95.4912 59.3881 94.3206 59.3881 92.8766V35.3151C59.3881 33.8711 58.2175 32.7004 56.7735 32.7004Z" fill="#EF233C"/>
<path opacity="0.2" d="M56.7735 32.7004H29.474C28.03 32.7004 26.8594 33.8711 26.8594 35.3151V92.8766C26.8594 94.3206 28.03 95.4912 29.474 95.4912H56.7735C58.2175 95.4912 59.3881 94.3206 59.3881 92.8766V35.3151C59.3881 33.8711 58.2175 32.7004 56.7735 32.7004Z" fill="black"/>
<path d="M60.1172 32.7004H32.8178C31.3737 32.7004 30.2031 33.8711 30.2031 35.3151V92.8766C30.2031 94.3206 31.3737 95.4912 32.8178 95.4912H60.1172C61.5612 95.4912 62.7318 94.3206 62.7318 92.8766V35.3151C62.7318 33.8711 61.5612 32.7004 60.1172 32.7004Z" fill="#EF233C"/>
<path d="M61.6406 92.8764L61.6406 35.3126C61.6406 34.4708 60.9582 33.7883 60.1164 33.7883H32.8146C31.9728 33.7883 31.2904 34.4708 31.2904 35.3126L31.2904 92.8764C31.2904 93.7182 31.9728 94.4007 32.8146 94.4007H60.1164C60.9582 94.4007 61.6406 93.7182 61.6406 92.8764Z" fill="white"/>
<path opacity="0.1" d="M61.2052 68.7312L59.9549 42.9817C59.9043 41.94 59.0188 41.1365 57.977 41.1871L35.6895 42.2693C34.6478 42.3199 33.8443 43.2054 33.8949 44.2471L35.1452 69.9966C35.1958 71.0384 36.0813 71.8419 37.1231 71.7913L59.4106 70.7091C60.4523 70.6585 61.2558 69.773 61.2052 68.7312Z" fill="black"/>
<path d="M60.7695 36.7672V35.6768C60.7695 35.1156 60.3146 34.6606 59.7534 34.6606H33.1778C32.6166 34.6606 32.1616 35.1156 32.1616 35.6768V36.7672C32.1616 37.3284 32.6166 37.7834 33.1778 37.7834H59.7534C60.3146 37.7834 60.7695 37.3284 60.7695 36.7672Z" fill="#EF233C"/>
<path d="M35.1862 36.9529C34.9922 36.9529 34.8061 36.876 34.6687 36.739C34.5313 36.602 34.4537 36.4162 34.4531 36.2221C34.4537 36.0279 34.5312 35.8418 34.6685 35.7044C34.8059 35.5671 34.992 35.4896 35.1862 35.489C35.3805 35.4896 35.5666 35.5671 35.704 35.7044C35.8413 35.8418 35.9188 36.0279 35.9194 36.2221C35.9188 36.4162 35.8412 36.602 35.7038 36.739C35.5664 36.876 35.3803 36.9529 35.1862 36.9529Z" fill="white"/>
<path d="M37.3659 36.9529C37.1719 36.9529 36.9858 36.876 36.8484 36.739C36.7109 36.602 36.6334 36.4162 36.6328 36.2221C36.6334 36.0279 36.7109 35.8418 36.8482 35.7044C36.9856 35.5671 37.1717 35.4896 37.3659 35.489C37.56 35.4896 37.7458 35.5671 37.8828 35.7046C38.0198 35.842 38.0967 36.0281 38.0967 36.2221C38.0961 36.4158 38.0189 36.6013 37.882 36.7382C37.7451 36.8751 37.5596 36.9523 37.3659 36.9529Z" fill="white"/>
<path d="M39.5456 36.9529C39.3516 36.9529 39.1655 36.876 39.028 36.739C38.8906 36.602 38.8131 36.4162 38.8125 36.2221C38.8131 36.0279 38.8905 35.8418 39.0279 35.7044C39.1653 35.5671 39.3514 35.4896 39.5456 35.489C39.7397 35.4896 39.9255 35.5671 40.0625 35.7046C40.1995 35.842 40.2764 36.0281 40.2764 36.2221C40.2758 36.4158 40.1986 36.6013 40.0617 36.7382C39.9248 36.8751 39.7393 36.9523 39.5456 36.9529Z" fill="white"/>
<path d="M58.7316 35.3127H57.7154C57.4951 35.3127 57.3164 35.4914 57.3164 35.7118V36.7279C57.3164 36.9483 57.4951 37.127 57.7154 37.127H58.7316C58.952 37.127 59.1306 36.9483 59.1306 36.7279V35.7118C59.1306 35.4914 58.952 35.3127 58.7316 35.3127Z" fill="white"/>
<path d="M41.2468 82.0568C43.8404 80.9825 45.0721 78.009 43.9978 75.4154C42.9234 72.8217 39.95 71.5901 37.3563 72.6644C34.7627 73.7387 33.5311 76.7122 34.6054 79.3058C35.6797 81.8994 38.6532 83.1311 41.2468 82.0568Z" fill="#EF233C"/>
<path d="M57.4491 75.0497H47.538C47.3696 75.0491 47.2083 74.9819 47.0892 74.8628C46.9701 74.7437 46.903 74.5824 46.9023 74.414C46.903 74.2456 46.9701 74.0843 47.0892 73.9652C47.2083 73.8461 47.3696 73.7789 47.538 73.7783H57.4491C57.6177 73.7783 57.7793 73.8453 57.8986 73.9645C58.0178 74.0837 58.0847 74.2454 58.0847 74.414C58.0847 74.5826 58.0178 74.7443 57.8986 74.8635C57.7793 74.9827 57.6177 75.0497 57.4491 75.0497Z" fill="#EF233C"/>
<path d="M57.4491 77.996H47.538C47.3696 77.9954 47.2083 77.9282 47.0892 77.8091C46.9701 77.69 46.903 77.5287 46.9023 77.3603C46.903 77.1919 46.9701 77.0306 47.0892 76.9115C47.2083 76.7924 47.3696 76.7252 47.538 76.7246H57.4491C57.6177 76.7246 57.7793 76.7916 57.8986 76.9108C58.0178 77.03 58.0847 77.1917 58.0847 77.3603C58.0847 77.5289 58.0178 77.6906 57.8986 77.8098C57.7793 77.929 57.6177 77.996 57.4491 77.996Z" fill="#EF233C"/>
<path d="M57.4491 79.6711H47.538C47.1869 79.6711 46.9023 79.9557 46.9023 80.3068C46.9023 80.6579 47.1869 80.9425 47.538 80.9425H57.4491C57.8001 80.9425 58.0847 80.6579 58.0847 80.3068C58.0847 79.9557 57.8001 79.6711 57.4491 79.6711Z" fill="#EF233C"/>
<path d="M56.4351 85.2971H36.497C35.2388 85.2971 34.2188 86.3171 34.2188 87.5754V90.4081C34.2188 91.6663 35.2388 92.6863 36.497 92.6863H56.4351C57.6933 92.6863 58.7133 91.6663 58.7133 90.4081V87.5754C58.7133 86.3171 57.6933 85.2971 56.4351 85.2971Z" fill="#E0E0E0"/>
<path d="M63.9484 66.8677L61.9437 41.166C61.8626 40.1261 60.9539 39.349 59.9141 39.4301L37.6679 41.1652C36.6281 41.2463 35.8509 42.155 35.932 43.1949L37.9367 68.8966C38.0178 69.9365 38.9265 70.7136 39.9663 70.6325L62.2125 68.8974C63.2524 68.8163 64.0296 67.9076 63.9484 66.8677Z" fill="white"/>
<path d="M39.8141 70.76C39.3088 70.7591 38.8225 70.5674 38.4526 70.2232C38.0826 69.8791 37.8563 69.4079 37.8189 68.904L35.8144 43.2008C35.774 42.6712 35.9453 42.1472 36.2906 41.7436C36.6359 41.3401 37.127 41.0899 37.6565 41.0478L59.9053 39.3124C60.4349 39.2721 60.9588 39.4433 61.3624 39.7886C61.766 40.1339 62.0162 40.6251 62.0582 41.1545L64.0627 66.8578C64.1037 67.3878 63.9328 67.9123 63.5874 68.3164C63.2421 68.7205 62.7505 68.971 62.2206 69.0131L39.9718 70.7461C39.9185 70.76 39.8674 70.76 39.8141 70.76ZM38.0509 68.904C38.0888 69.3713 38.3102 69.8045 38.6668 70.1089C39.0233 70.4132 39.4859 70.5639 39.9533 70.528L62.2021 68.7927C62.6695 68.7542 63.1027 68.5323 63.407 68.1754C63.7113 67.8185 63.862 67.3556 63.8261 66.888L61.8216 41.1847C61.7837 40.717 61.5619 40.2834 61.2049 39.979C60.8478 39.6746 60.3847 39.5241 59.9169 39.5607L37.6704 41.296C37.203 41.3345 36.7698 41.5565 36.4654 41.9134C36.1611 42.2703 36.0105 42.7331 36.0464 43.2008L38.0509 68.904Z" fill="#EF233C"/>
<path d="M62.9822 66.4124L62.5379 60.7155C62.4738 59.8941 61.756 59.2802 60.9346 59.3443L39.7478 60.9968C38.9264 61.0609 38.3125 61.7787 38.3765 62.6001L38.8209 68.2969C38.885 69.1183 39.6028 69.7322 40.4241 69.6682L61.611 68.0156C62.4324 67.9515 63.0463 67.2338 62.9822 66.4124Z" fill="#EF233C"/>
<path opacity="0.2" d="M50.4137 57.7746L49.2385 42.7079C49.1737 41.8763 48.4469 41.2547 47.6153 41.3196L38.2894 42.047C37.4578 42.1119 36.8363 42.8386 36.9011 43.6702L38.0763 58.7369C38.1412 59.5685 38.8679 60.1901 39.6995 60.1252L49.0254 59.3978C49.857 59.3329 50.4786 58.6062 50.4137 57.7746Z" fill="#EF233C"/>
<path opacity="0.2" d="M61.1609 44.0517L60.9615 41.4958C60.9094 40.8277 60.3256 40.3284 59.6575 40.3805L51.6662 41.0038C50.9981 41.0559 50.4987 41.6398 50.5508 42.3078L50.7502 44.8637C50.8023 45.5318 51.3861 46.0311 52.0542 45.979L60.0456 45.3557C60.7137 45.3036 61.213 44.7197 61.1609 44.0517Z" fill="#EF233C"/>
<path opacity="0.4" d="M61.6687 50.6032L61.4694 48.0473C61.4172 47.3792 60.8334 46.8799 60.1653 46.932L52.174 47.5553C51.5059 47.6074 51.0065 48.1913 51.0587 48.8594L51.258 51.4152C51.3101 52.0833 51.894 52.5826 52.562 52.5305L60.5534 51.9072C61.2215 51.8551 61.7208 51.2713 61.6687 50.6032Z" fill="#EF233C"/>
<path opacity="0.6" d="M62.1804 57.1547L61.9811 54.5988C61.929 53.9308 61.3451 53.4314 60.677 53.4835L52.6857 54.1068C52.0176 54.1589 51.5183 54.7428 51.5704 55.4109L51.7697 57.9667C51.8218 58.6348 52.4057 59.1342 53.0738 59.082L61.0651 58.4587C61.7332 58.4066 62.2325 57.8228 62.1804 57.1547Z" fill="#EF233C"/>
<path d="M52.4917 36.3405C52.4604 36.3405 52.4303 36.3281 52.4081 36.3059C52.3859 36.2837 52.3734 36.2536 52.3734 36.2222V20.8128C52.37 20.7956 52.3704 20.7779 52.3746 20.7609C52.3788 20.7439 52.3868 20.728 52.3979 20.7145C52.409 20.7009 52.4229 20.69 52.4388 20.6825C52.4546 20.675 52.4719 20.6711 52.4894 20.6711C52.5069 20.6711 52.5242 20.675 52.5401 20.6825C52.5559 20.69 52.5699 20.7009 52.5809 20.7145C52.592 20.728 52.6 20.7439 52.6042 20.7609C52.6085 20.7779 52.6089 20.7956 52.6054 20.8128V36.2222C52.6054 36.2528 52.5936 36.2822 52.5724 36.3043C52.5512 36.3263 52.5223 36.3393 52.4917 36.3405Z" fill="#263238"/>
<path d="M53.9668 38.7438H51.0204C50.903 38.7437 50.7888 38.7057 50.6948 38.6355C50.6007 38.5653 50.5318 38.4666 50.4984 38.3541L49.865 36.2011C49.8417 36.1201 49.8375 36.0348 49.8527 35.9518C49.8679 35.8689 49.9022 35.7907 49.9528 35.7232C50.0034 35.6558 50.0689 35.601 50.1443 35.5631C50.2196 35.5253 50.3027 35.5054 50.387 35.5051H54.6001C54.6845 35.5054 54.7675 35.5253 54.8429 35.5631C54.9182 35.601 54.9838 35.6558 55.0344 35.7232C55.085 35.7907 55.1192 35.8689 55.1344 35.9518C55.1497 36.0348 55.1455 36.1201 55.1221 36.2011L54.4888 38.3541C54.4557 38.4668 54.3869 38.5657 54.2927 38.636C54.1986 38.7062 54.0842 38.7441 53.9668 38.7438Z" fill="#263238"/>
<path d="M52.491 42.0801C52.4209 42.0801 52.3536 42.0522 52.304 42.0026C52.2544 41.953 52.2266 41.8857 52.2266 41.8156C52.2266 41.7454 52.2544 41.6782 52.304 41.6286C52.3536 41.579 52.4209 41.5511 52.491 41.5511C52.7372 41.5511 52.9732 41.4533 53.1472 41.2793C53.3213 41.1053 53.419 40.8692 53.419 40.6231C53.419 40.377 53.3213 40.1409 53.1472 39.9669C52.9732 39.7929 52.7372 39.6951 52.491 39.6951C52.4209 39.6951 52.3536 39.6672 52.304 39.6176C52.2544 39.568 52.2266 39.5008 52.2266 39.4306V38.7439C52.2328 38.6777 52.2634 38.6163 52.3125 38.5715C52.3617 38.5268 52.4257 38.502 52.4922 38.502C52.5587 38.502 52.6227 38.5268 52.6719 38.5715C52.721 38.6163 52.7517 38.6777 52.7578 38.7439V39.187C53.1139 39.2545 53.432 39.4523 53.6501 39.7418C53.8681 40.0313 53.9705 40.3916 53.9372 40.7525C53.9038 41.1133 53.7372 41.4488 53.4698 41.6935C53.2024 41.9381 52.8534 42.0743 52.491 42.0754V42.0801Z" fill="#263238"/>
<path d="M93.433 45.6042C93.7276 46.284 93.9689 46.9289 94.2056 47.6064C94.4422 48.2838 94.658 48.952 94.8412 49.648C95.0419 50.3585 95.203 51.0795 95.3238 51.8079C95.3922 52.1972 95.4403 52.5898 95.4676 52.9841C95.503 53.4481 95.4913 53.9145 95.4328 54.3761L95.4189 54.4712C95.4124 54.5168 95.4024 54.5618 95.3888 54.6058C95.1801 55.2403 94.9298 55.8603 94.6394 56.4618C94.368 57.0441 94.0594 57.594 93.7532 58.1392C93.4469 58.6844 93.1128 59.2064 92.7672 59.7237C92.4215 60.2411 92.0712 60.7422 91.6768 61.241C91.5451 61.4054 91.36 61.5184 91.1536 61.5604C90.9472 61.6024 90.7327 61.5707 90.5473 61.4708C90.3618 61.3709 90.2173 61.2092 90.1388 61.0137C90.0604 60.8183 90.0529 60.6015 90.1177 60.4012V60.3803C90.3033 59.8212 90.5098 59.2504 90.707 58.689C90.9042 58.1276 91.1084 57.5708 91.2963 57.014C91.4842 56.4572 91.6721 55.9027 91.8392 55.3621C92.0062 54.8216 92.1524 54.2787 92.2544 53.7845L92.2104 54.0165C92.2056 53.7932 92.1831 53.5705 92.1431 53.3507C92.0967 53.0839 92.0387 52.7916 91.9644 52.4969C91.8902 52.2023 91.809 51.9007 91.7185 51.5968C91.628 51.2928 91.5352 50.9866 91.4332 50.6688C91.229 50.054 91.0179 49.4322 90.7928 48.8128L90.1131 46.973L90.1015 46.9405C89.9246 46.4997 89.9301 46.0066 90.1167 45.5698C90.3034 45.1329 90.6559 44.7881 91.0968 44.6112C91.5376 44.4343 92.0307 44.4398 92.4675 44.6265C92.9044 44.8131 93.2491 45.1657 93.426 45.6065L93.433 45.6042Z" fill="#EF233C"/>
<path opacity="0.7" d="M93.433 45.6042C93.7276 46.284 93.9689 46.9289 94.2056 47.6064C94.4422 48.2838 94.658 48.952 94.8412 49.648C95.0419 50.3585 95.203 51.0795 95.3238 51.8079C95.3922 52.1972 95.4403 52.5898 95.4676 52.9841C95.503 53.4481 95.4913 53.9145 95.4328 54.3761L95.4189 54.4712C95.4124 54.5168 95.4024 54.5618 95.3888 54.6058C95.1801 55.2403 94.9298 55.8603 94.6394 56.4618C94.368 57.0441 94.0594 57.594 93.7532 58.1392C93.4469 58.6844 93.1128 59.2064 92.7672 59.7237C92.4215 60.2411 92.0712 60.7422 91.6768 61.241C91.5451 61.4054 91.36 61.5184 91.1536 61.5604C90.9472 61.6024 90.7327 61.5707 90.5473 61.4708C90.3618 61.3709 90.2173 61.2092 90.1388 61.0137C90.0604 60.8183 90.0529 60.6015 90.1177 60.4012V60.3803C90.3033 59.8212 90.5098 59.2504 90.707 58.689C90.9042 58.1276 91.1084 57.5708 91.2963 57.014C91.4842 56.4572 91.6721 55.9027 91.8392 55.3621C92.0062 54.8216 92.1524 54.2787 92.2544 53.7845L92.2104 54.0165C92.2056 53.7932 92.1831 53.5705 92.1431 53.3507C92.0967 53.0839 92.0387 52.7916 91.9644 52.4969C91.8902 52.2023 91.809 51.9007 91.7185 51.5968C91.628 51.2928 91.5352 50.9866 91.4332 50.6688C91.229 50.054 91.0179 49.4322 90.7928 48.8128L90.1131 46.973L90.1015 46.9405C89.9246 46.4997 89.9301 46.0066 90.1167 45.5698C90.3034 45.1329 90.6559 44.7881 91.0968 44.6112C91.5376 44.4343 92.0307 44.4398 92.4675 44.6265C92.9044 44.8131 93.2491 45.1657 93.426 45.6065L93.433 45.6042Z" fill="white"/>
<path d="M90.2246 60.0881L89.0391 60.7099L90.6979 62.4336C91.0156 62.2069 91.2992 61.9358 91.54 61.6286C91.703 61.4085 91.7725 61.1329 91.7334 60.8618C91.6943 60.5907 91.5498 60.346 91.3312 60.1809C91.1744 60.0624 90.9872 59.9908 90.7913 59.9743C90.5955 59.9579 90.3989 59.9974 90.2246 60.0881Z" fill="#7F3E3B"/>
<path d="M88.3935 62.6842L89.0779 63.1899C89.2098 63.2868 89.3717 63.3342 89.535 63.3235C89.6984 63.3129 89.8528 63.2451 89.9711 63.1319L90.688 62.4359L89.0292 60.7122L88.2682 61.7121C88.1567 61.8579 88.1072 62.0418 88.1307 62.2239C88.1542 62.406 88.2486 62.5714 88.3935 62.6842Z" fill="#7F3E3B"/>
<path d="M71.3255 49.0981L70.1028 47.5205L68.6992 49.4577C68.6992 49.4577 69.9799 50.7499 70.7756 50.1815L71.3255 49.0981Z" fill="#7F3E3B"/>
<path d="M68.051 47.2444L67.6728 48.0054C67.6005 48.1526 67.5826 48.3206 67.622 48.4797C67.6615 48.6389 67.7559 48.779 67.8886 48.8754L68.7006 49.4577L70.1042 47.5205L68.9906 46.9382C68.9089 46.8962 68.8196 46.8708 68.7281 46.8635C68.6365 46.8562 68.5444 46.8671 68.457 46.8956C68.3697 46.9241 68.2888 46.9695 68.2191 47.0294C68.1494 47.0893 68.0923 47.1624 68.051 47.2444Z" fill="#7F3E3B"/>
<path d="M91.6092 96.7764H90.1384L89.9574 96.607L89.686 96.7764C88.7881 96.7764 87.5771 96.7439 86.9994 96.5444C86.9827 96.4769 86.9849 96.4062 87.0057 96.3399C87.0266 96.2736 87.0654 96.2143 87.1177 96.1686C87.1177 96.1686 89.4957 95.4331 89.7092 94.939H91.5118" fill="#263238"/>
<path d="M89.7835 75.9778C89.4888 68.3729 89.9691 62.3617 89.2475 59.4455L82.5195 58.3574C82.5195 58.3574 83.7584 71.2404 85.2479 76.5694C86.7373 81.8985 89.4239 95.0598 89.4239 95.0598H91.7137C91.7137 95.0598 91.7694 82.2186 89.7835 75.9778Z" fill="#EF233C"/>
<path opacity="0.2" d="M84.9145 64.728L83.6641 67.976C84.0631 70.818 84.541 73.725 85.0561 75.813C85.6105 72.0221 85.2092 65.8045 84.9145 64.728Z" fill="black"/>
<path d="M72.5515 94.5956C72.5515 94.5956 75.9363 94.8531 76.3075 94.4448L78.0823 94.99L77.5859 96.7764L76.4908 96.4423L76.3679 96.2266L76.0477 96.3055C75.1615 96.034 72.8183 95.28 72.3125 94.9135C72.3196 94.8438 72.3457 94.7773 72.3878 94.7213C72.4299 94.6653 72.4865 94.6219 72.5515 94.5956Z" fill="#263238"/>
<path d="M82.6704 76.4394C84.9333 70.8894 86.4318 65.0577 87.1248 59.1043L79.7797 57.9026C79.7797 57.9026 78.6893 71.1892 78.2137 76.6505C77.7219 82.3276 75.8125 94.424 75.8125 94.424L78.1859 95.1432C78.1859 95.1432 82.4245 83.5015 82.6704 76.4394Z" fill="#EF233C"/>
<path d="M89.8663 38.5237C89.4348 39.9157 89.1703 41.9318 89.5879 43.0709C88.7759 43.6323 87.4999 44.2866 85.9525 44.0383C84.405 43.7901 84.8458 42.7855 85.3376 42.3076C86.5278 41.9109 86.6531 41.3518 86.4559 40.8158L89.8663 38.5237Z" fill="#7F3E3B"/>
<path d="M90.9778 43.6276C90.6166 43.1936 90.2226 42.788 89.7993 42.4143C89.4373 42.1637 86.4329 41.7902 85.7161 41.8157C84.9992 41.8412 84.0039 42.7576 84.0039 42.7576L90.9778 43.6276Z" fill="#EF233C"/>
<path opacity="0.7" d="M90.9778 43.6276C90.6166 43.1936 90.2226 42.788 89.7993 42.4143C89.4373 42.1637 86.4329 41.7902 85.7161 41.8157C84.9992 41.8412 84.0039 42.7576 84.0039 42.7576L90.9778 43.6276Z" fill="white"/>
<path d="M85.8405 36.8602C85.7941 36.997 85.6851 37.0922 85.5969 37.055C85.5088 37.0179 85.4693 36.888 85.5157 36.7488C85.5621 36.6096 85.6711 36.5168 85.7593 36.5562C85.8475 36.5957 85.8869 36.7233 85.8405 36.8602Z" fill="#263238"/>
<path d="M85.7878 37.0552C85.486 37.4193 85.1355 37.7402 84.7461 38.0087C84.8174 38.1074 84.9093 38.1895 85.0154 38.2492C85.1216 38.3089 85.2395 38.3448 85.3609 38.3544L85.7878 37.0552Z" fill="#630F0F"/>
<path d="M85.8392 35.9114C85.8448 35.9244 85.8537 35.9356 85.8652 35.9438C85.8767 35.952 85.8902 35.9568 85.9042 35.9578C86.0101 35.9686 86.112 36.0043 86.2015 36.0619C86.291 36.1196 86.3656 36.1976 86.4192 36.2896C86.4237 36.2997 86.4302 36.3088 86.4383 36.3163C86.4464 36.3239 86.456 36.3296 86.4664 36.3333C86.4769 36.337 86.4879 36.3385 86.499 36.3378C86.51 36.3371 86.5208 36.3341 86.5306 36.329C86.5508 36.319 86.5662 36.3015 86.5736 36.2803C86.581 36.259 86.5797 36.2357 86.57 36.2153C86.5048 36.0976 86.4121 35.9973 86.2998 35.923C86.1875 35.8487 86.059 35.8025 85.9251 35.7885C85.9101 35.7876 85.8951 35.7906 85.8816 35.7972C85.8681 35.8038 85.8565 35.8137 85.8479 35.826C85.8393 35.8383 85.834 35.8527 85.8325 35.8676C85.831 35.8826 85.8333 35.8976 85.8392 35.9114Z" fill="#263238"/>
<path d="M90.6046 38.0318C89.9434 39.6837 89.6418 40.6859 88.5166 41.2636C86.8067 42.1336 84.9809 40.6534 85.134 38.8322C85.2709 37.1943 86.3265 34.7676 88.1964 34.6562C88.6097 34.6329 89.0221 34.7146 89.3953 34.8937C89.7685 35.0728 90.0903 35.3434 90.3307 35.6804C90.5711 36.0174 90.7223 36.4097 90.7702 36.8209C90.8181 37.232 90.7611 37.6486 90.6046 38.0318Z" fill="#7F3E3B"/>
<path d="M86.8894 38.0851C86.8442 38.4593 86.8781 38.8389 86.9888 39.1992C87.0995 39.5595 87.2846 39.8926 87.5322 40.1768C87.7797 40.4611 88.0842 40.6903 88.4258 40.8495C88.7675 41.0087 89.1388 41.0944 89.5156 41.1011C91.1768 41.1011 91.2023 38.7347 90.9076 38.1895C91.7892 38.0364 92.2996 36.8253 91.7614 36.0597C92.5711 35.4241 90.6988 34.4589 88.4206 34.3337C85.908 34.1945 86.3674 35.6746 87.2049 36.1224C86.3999 36.3613 86.3164 37.7951 86.8894 38.0851Z" fill="#263238"/>
<path d="M86.4062 34.967C86.4062 34.967 86.5663 36.9135 88.2019 38.0851C89.8375 39.2567 91.2922 39.3657 91.2922 39.3657L91.6958 38.0851C91.6958 38.0851 88.0024 35.8602 86.7542 34.6167C86.6314 34.7265 86.5152 34.8434 86.4062 34.967Z" fill="#EF233C"/>
<path opacity="0.6" d="M86.4062 34.967C86.4062 34.967 86.5663 36.9135 88.2019 38.0851C89.8375 39.2567 91.2922 39.3657 91.2922 39.3657L91.6958 38.0851C91.6958 38.0851 88.0024 35.8602 86.7542 34.6167C86.6314 34.7265 86.5152 34.8434 86.4062 34.967Z" fill="white"/>
<path d="M87.7581 38.1084C87.5447 38.4225 87.2194 38.6432 86.8486 38.7255C86.3846 38.816 86.2362 38.3427 86.4426 37.8857C86.6282 37.475 87.0969 36.9321 87.5307 37.0481C87.9646 37.1641 88.0365 37.7093 87.7581 38.1084Z" fill="#7F3E3B"/>
<path d="M90.9081 43.4188C88.5556 42.7715 85.1522 42.3028 82.8368 42.3655C82.2641 42.3832 81.7135 42.5905 81.2713 42.955C80.8292 43.3195 80.5205 43.8204 80.3939 44.3792C79.6097 47.7804 79.4891 53.9098 79.2617 60.0648C84.31 62.6168 89.9639 61.6052 89.9639 61.6052C90.2632 60.4012 90.1959 56.3017 90.0915 54.1024C90.7179 51.9401 91.8524 49.525 92.7131 46.6575C92.8111 46.3263 92.842 45.9789 92.804 45.6357C92.766 45.2924 92.6598 44.9602 92.4917 44.6585C92.3236 44.3569 92.0969 44.0918 91.8249 43.8789C91.553 43.666 91.2413 43.5096 90.9081 43.4188Z" fill="#EF233C"/>
<path opacity="0.7" d="M90.9081 43.4188C88.5556 42.7715 85.1522 42.3028 82.8368 42.3655C82.2641 42.3832 81.7135 42.5905 81.2713 42.955C80.8292 43.3195 80.5205 43.8204 80.3939 44.3792C79.6097 47.7804 79.4891 53.9098 79.2617 60.0648C84.31 62.6168 89.9639 61.6052 89.9639 61.6052C90.2632 60.4012 90.1959 56.3017 90.0915 54.1024C90.7179 51.9401 91.8524 49.525 92.7131 46.6575C92.8111 46.3263 92.842 45.9789 92.804 45.6357C92.766 45.2924 92.6598 44.9602 92.4917 44.6585C92.3236 44.3569 92.0969 44.0918 91.8249 43.8789C91.553 43.666 91.2413 43.5096 90.9081 43.4188Z" fill="white"/>
<path d="M83.4874 42.0244C81.5479 41.9131 80.3415 42.8712 79.8473 45.7991C79.3532 48.7269 78.8196 55.3644 79.0261 57.7587C85.5383 60.4986 89.5774 59.3827 90.4474 58.7447C90.7885 58.2227 90.6632 56.601 90.4915 55.9607C90.9273 54.8108 91.1453 53.5897 91.1341 52.36C92.0993 51.432 92.5261 49.6526 92.5586 48.9612C93.4077 47.8291 93.5214 45.2655 93.0505 44.5347C92.5795 43.8039 91.2107 42.456 83.4874 42.0244Z" fill="#263238"/>
<path opacity="0.2" d="M79.9637 58.2483C79.9329 58.2483 79.9034 58.2361 79.8816 58.2143C79.8599 58.1926 79.8477 58.1631 79.8477 58.1323C79.8477 53.4273 80.4764 46.4882 81.3603 44.0545C81.3708 44.0256 81.3923 44.002 81.4201 43.989C81.448 43.9759 81.4799 43.9745 81.5088 43.9849C81.5233 43.9898 81.5366 43.9976 81.5481 44.0079C81.5595 44.0181 81.5687 44.0305 81.5752 44.0443C81.5817 44.0582 81.5853 44.0732 81.5859 44.0886C81.5864 44.1039 81.5839 44.1191 81.5784 44.1334C80.7873 46.3119 80.0843 52.8543 80.0797 58.1323C80.0797 58.1475 80.0767 58.1626 80.0708 58.1767C80.065 58.1908 80.0565 58.2035 80.0457 58.2143C80.0349 58.2251 80.0221 58.2336 80.008 58.2395C79.994 58.2453 79.9789 58.2483 79.9637 58.2483Z" fill="white"/>
<path d="M83.4572 45.24C83.1045 45.8826 82.7473 46.4557 82.3621 47.0473C81.977 47.6389 81.5733 48.2073 81.1325 48.7687C80.6891 49.3499 80.2119 49.9046 79.7034 50.4298C79.4302 50.7149 79.1405 50.9837 78.8357 51.2349C78.48 51.5361 78.0908 51.7953 77.6757 52.0074L77.5922 52.0492C77.5503 52.0696 77.5069 52.0866 77.4623 52.1002C76.7658 52.3051 76.0368 52.3759 75.314 52.309C74.9909 52.284 74.67 52.2367 74.3535 52.1675C74.0505 52.1055 73.7508 52.0281 73.4557 51.9355C72.8898 51.7538 72.3391 51.528 71.8085 51.2604C71.5463 51.1281 71.2934 50.9866 71.0429 50.8381C70.7923 50.6897 70.5603 50.5365 70.2981 50.3463C70.13 50.2253 70.009 50.0497 69.9558 49.8494C69.9026 49.6492 69.9205 49.4367 70.0064 49.2481C70.0923 49.0596 70.241 48.9067 70.427 48.8154C70.613 48.7242 70.825 48.7003 71.0266 48.7478L71.1055 48.7664L71.8317 48.9357C72.0776 48.9937 72.3258 49.0448 72.5717 49.0912C73.0504 49.1856 73.5336 49.2553 74.0194 49.3C74.4632 49.3404 74.9097 49.3404 75.3534 49.3C75.7074 49.2734 76.0543 49.1863 76.3789 49.0425L76.1654 49.1376C76.3314 49.0157 76.4866 48.8799 76.6294 48.7316C76.8081 48.5483 77.0006 48.3395 77.1862 48.1168C77.3718 47.8941 77.5574 47.6528 77.7384 47.4092C77.9193 47.1656 78.1073 46.9127 78.2859 46.6529C78.6409 46.1378 78.9958 45.6065 79.3415 45.066C79.6872 44.5254 80.0375 43.9663 80.3577 43.442L80.3739 43.4141C80.4938 43.2117 80.6524 43.0348 80.8406 42.8937C81.0288 42.7525 81.243 42.6498 81.471 42.5914C81.6989 42.5331 81.9361 42.5201 82.169 42.5534C82.4019 42.5867 82.626 42.6655 82.8285 42.7854C83.0309 42.9053 83.2078 43.0639 83.3489 43.2521C83.4901 43.4404 83.5928 43.6546 83.6512 43.8825C83.7096 44.1104 83.7225 44.3476 83.6892 44.5805C83.6559 44.8135 83.5771 45.0375 83.4572 45.24Z" fill="#EF233C"/>
<path opacity="0.7" d="M83.4572 45.24C83.1045 45.8826 82.7473 46.4557 82.3621 47.0473C81.977 47.6389 81.5733 48.2073 81.1325 48.7687C80.6891 49.3499 80.2119 49.9046 79.7034 50.4298C79.4302 50.7149 79.1405 50.9837 78.8357 51.2349C78.48 51.5361 78.0908 51.7953 77.6757 52.0074L77.5922 52.0492C77.5503 52.0696 77.5069 52.0866 77.4623 52.1002C76.7658 52.3051 76.0368 52.3759 75.314 52.309C74.9909 52.284 74.67 52.2367 74.3535 52.1675C74.0505 52.1055 73.7508 52.0281 73.4557 51.9355C72.8898 51.7538 72.3391 51.528 71.8085 51.2604C71.5463 51.1281 71.2934 50.9866 71.0429 50.8381C70.7923 50.6897 70.5603 50.5365 70.2981 50.3463C70.13 50.2253 70.009 50.0497 69.9558 49.8494C69.9026 49.6492 69.9205 49.4367 70.0064 49.2481C70.0923 49.0596 70.241 48.9067 70.427 48.8154C70.613 48.7242 70.825 48.7003 71.0266 48.7478L71.1055 48.7664L71.8317 48.9357C72.0776 48.9937 72.3258 49.0448 72.5717 49.0912C73.0504 49.1856 73.5336 49.2553 74.0194 49.3C74.4632 49.3404 74.9097 49.3404 75.3534 49.3C75.7074 49.2734 76.0543 49.1863 76.3789 49.0425L76.1654 49.1376C76.3314 49.0157 76.4866 48.8799 76.6294 48.7316C76.8081 48.5483 77.0006 48.3395 77.1862 48.1168C77.3718 47.8941 77.5574 47.6528 77.7384 47.4092C77.9193 47.1656 78.1073 46.9127 78.2859 46.6529C78.6409 46.1378 78.9958 45.6065 79.3415 45.066C79.6872 44.5254 80.0375 43.9663 80.3577 43.442L80.3739 43.4141C80.4938 43.2117 80.6524 43.0348 80.8406 42.8937C81.0288 42.7525 81.243 42.6498 81.471 42.5914C81.6989 42.5331 81.9361 42.5201 82.169 42.5534C82.4019 42.5867 82.626 42.6655 82.8285 42.7854C83.0309 42.9053 83.2078 43.0639 83.3489 43.2521C83.4901 43.4404 83.5928 43.6546 83.6512 43.8825C83.7096 44.1104 83.7225 44.3476 83.6892 44.5805C83.6559 44.8135 83.5771 45.0375 83.4572 45.24Z" fill="white"/>
<path d="M91.7277 38.8995C91.6977 38.9289 91.6603 38.9496 91.6194 38.9594C91.5786 38.9692 91.5358 38.9677 91.4957 38.9551C90.1914 38.4567 88.9909 37.7204 87.9554 36.7836C86.1992 35.1735 86.0484 33.3291 86.8279 34.2107C87.2594 33.7467 89.0922 33.1807 90.7905 33.9161C92.5861 34.6979 93.4515 37.12 91.7277 38.8995Z" fill="#EF233C"/>
<path d="M90.2266 33.7212C90.6683 34.1405 90.9847 34.6743 91.1404 35.2631C91.2961 35.8518 91.2849 36.4723 91.1082 37.0551C91.4859 36.9731 91.849 36.8338 92.1846 36.6421C92.1846 36.6421 92.4561 35.3406 91.9526 34.5031C91.4492 33.6655 90.3356 33.4544 90.2266 33.7212Z" fill="#EF233C"/>
<path opacity="0.2" d="M91.1082 37.0552C91.2849 36.4724 91.2961 35.8519 91.1404 35.2632C90.9847 34.6744 90.6683 34.1406 90.2266 33.7213C90.2414 33.6953 90.2621 33.6731 90.2871 33.6565C90.3121 33.64 90.3406 33.6296 90.3704 33.6262C90.723 33.8536 91.6951 35.234 91.1082 37.0552Z" fill="black"/>
</svg>
