<svg width="116" height="97" viewBox="0 0 116 97" fill="none" xmlns="http://www.w3.org/2000/svg">
<path d="M107.079 29.2514C104.417 21.9221 100.396 15.5453 94.4552 11.9757C86.5177 7.20718 77.1078 7.08885 68.8733 10.7457C64.1746 12.8293 60.0094 16.3329 55.9618 19.9045C52.3627 23.0861 48.2547 27.9361 43.8081 28.9507C37.7853 30.3397 23.556 19.0877 12.884 22.1917C2.212 25.2957 -0.881329 42.7557 1.748 53.6198C4.37734 64.4837 14.5853 64.4837 18.2973 73.4078C22.0093 82.3317 35.3107 89.8978 51.7053 84.8538C68.1 79.8098 76.6067 76.8997 85.268 80.9737C93.9293 85.0478 105.839 86.2118 109.86 69.1398C111.479 62.2856 111.928 55.0802 111.178 47.9937C110.511 41.7974 109.246 35.213 107.079 29.2514Z" fill="#EF233C"/>
<path opacity="0.7" d="M107.079 29.2514C104.417 21.9221 100.396 15.5453 94.4552 11.9757C86.5177 7.20718 77.1078 7.08885 68.8733 10.7457C64.1746 12.8293 60.0094 16.3329 55.9618 19.9045C52.3627 23.0861 48.2547 27.9361 43.8081 28.9507C37.7853 30.3397 23.556 19.0877 12.884 22.1917C2.212 25.2957 -0.881329 42.7557 1.748 53.6198C4.37734 64.4837 14.5853 64.4837 18.2973 73.4078C22.0093 82.3317 35.3107 89.8978 51.7053 84.8538C68.1 79.8098 76.6067 76.8997 85.268 80.9737C93.9293 85.0478 105.839 86.2118 109.86 69.1398C111.479 62.2856 111.928 55.0802 111.178 47.9937C110.511 41.7974 109.246 35.213 107.079 29.2514Z" fill="white"/>
<path d="M111.938 33.595V29.521H107.982V5.30011H105.567V29.521H101.512V23.3227C102.127 23.1491 102.669 22.6936 103.03 22.0453C103.392 21.397 103.547 20.6027 103.466 19.8182C103.385 19.0336 103.073 18.3153 102.592 17.8041C102.111 17.2928 101.494 17.0255 100.864 17.0545C100.234 17.0835 99.6348 17.4067 99.1846 17.9608C98.7344 18.5148 98.4654 19.2599 98.4303 20.0498C98.3953 20.8397 98.5967 21.6175 98.995 22.2309C99.3934 22.8442 99.9601 23.2488 100.584 23.3654V29.521H54.6123V28.0951H52.1964V29.521H24.2466V28.0951H21.8307V29.521H17.2433V20.0519H18.725V18.2496H20.3351V15.0758H18.725V13.2716H17.2433V8.98029H18.2657V5.95001H17.2433V4.01001H13.9953V5.95001H12.9745V8.98029H13.9953V31.558C13.9953 31.8255 14.0373 32.0904 14.1189 32.3375C14.2006 32.5847 14.3202 32.8092 14.471 32.9984C14.6218 33.1875 14.8008 33.3376 14.9978 33.44C15.1949 33.5423 15.4061 33.595 15.6193 33.595H21.8307V44.6705H14.5846V43.2446H12.1687V44.6705H7.57975V35.2013H9.05991V33.3971H10.6731V30.2233H9.06301V28.421H7.57975V24.1278H8.60055V21.0995H7.57975V4.14581H4.33175V21.0995H3.3125V24.1278H4.33175V46.7075C4.33175 47.2477 4.50285 47.7658 4.80741 48.1478C5.11197 48.5299 5.52504 48.7445 5.95575 48.7445H12.1687V88.4117H14.5846V48.7445H21.8307V88.4776H24.2466V48.7445H42.5344V88.4815H44.9503V48.7445H52.1964V88.369H54.6123V48.7445H105.567V49.8813H107.982V48.7445H111.67V44.6705H107.989V33.595H111.938ZM44.9503 44.6705V43.2446H42.5344V44.6705H24.2466V33.595H52.1964V44.6705H44.9503ZM105.567 44.6705H54.6123V33.595H105.567V44.6705Z" fill="#263238"/>
<path d="M101.02 20.3079L101.637 21.7008" stroke="white" stroke-miterlimit="10"/>
<path d="M101.451 22.4952C102.41 22.1946 102.993 20.9761 102.754 19.7734C102.514 18.5707 101.543 17.8394 100.584 18.1399C99.6249 18.4405 99.0419 19.659 99.2815 20.8617C99.5211 22.0644 100.493 22.7957 101.451 22.4952Z" stroke="white" stroke-miterlimit="10"/>
<path d="M68.072 4.57642H57.7031V88.4193H68.072V4.57642Z" fill="white" stroke="#263238" stroke-linecap="round" stroke-linejoin="round"/>
<path d="M66.7031 18.4609V31.6238" stroke="#263238" stroke-linecap="round" stroke-linejoin="round"/>
<path d="M66.5938 11.1957V10.2354" stroke="#263238" stroke-linecap="round" stroke-linejoin="round"/>
<path d="M67.9619 16.9652C68.4975 16.9652 68.9317 16.4206 68.9317 15.7489C68.9317 15.0771 68.4975 14.5325 67.9619 14.5325C67.4264 14.5325 66.9922 15.0771 66.9922 15.7489C66.9922 16.4206 67.4264 16.9652 67.9619 16.9652Z" fill="white" stroke="#263238" stroke-linecap="round" stroke-linejoin="round"/>
<path d="M65.4229 16.9652C65.9585 16.9652 66.3926 16.4206 66.3926 15.7489C66.3926 15.0771 65.9585 14.5325 65.4229 14.5325C64.8873 14.5325 64.4531 15.0771 64.4531 15.7489C64.4531 16.4206 64.8873 16.9652 65.4229 16.9652Z" fill="white" stroke="#263238" stroke-linecap="round" stroke-linejoin="round"/>
<path d="M62.8877 16.9652C63.4233 16.9652 63.8575 16.4206 63.8575 15.7489C63.8575 15.0771 63.4233 14.5325 62.8877 14.5325C62.3521 14.5325 61.918 15.0771 61.918 15.7489C61.918 16.4206 62.3521 16.9652 62.8877 16.9652Z" fill="white" stroke="#263238" stroke-linecap="round" stroke-linejoin="round"/>
<path d="M60.3526 16.9652C60.8882 16.9652 61.3223 16.4206 61.3223 15.7489C61.3223 15.0771 60.8882 14.5325 60.3526 14.5325C59.817 14.5325 59.3828 15.0771 59.3828 15.7489C59.3828 16.4206 59.817 16.9652 60.3526 16.9652Z" fill="white" stroke="#263238" stroke-linecap="round" stroke-linejoin="round"/>
<path d="M57.8135 16.9652C58.3491 16.9652 58.7833 16.4206 58.7833 15.7489C58.7833 15.0771 58.3491 14.5325 57.8135 14.5325C57.2779 14.5325 56.8438 15.0771 56.8438 15.7489C56.8438 16.4206 57.2779 16.9652 57.8135 16.9652Z" fill="white" stroke="#263238" stroke-linecap="round" stroke-linejoin="round"/>
<path d="M67.9635 14.5343C67.7716 14.5347 67.584 14.4637 67.4243 14.3303C67.2646 14.1968 67.1401 14.007 67.0665 13.7848C66.9928 13.5625 66.9734 13.3179 67.0106 13.0818C67.0479 12.8457 67.1401 12.6288 67.2757 12.4585C67.4112 12.2882 67.584 12.1722 67.7722 12.1251C67.9603 12.078 68.1554 12.102 68.3327 12.194C68.51 12.286 68.6615 12.4419 68.7682 12.642C68.8748 12.842 68.9317 13.0773 68.9317 13.3179C68.9317 13.6402 68.8297 13.9493 68.6482 14.1774C68.4667 14.4054 68.2204 14.5338 67.9635 14.5343Z" fill="white" stroke="#263238" stroke-linecap="round" stroke-linejoin="round"/>
<path d="M65.4268 14.5343C65.235 14.5343 65.0475 14.463 64.888 14.3293C64.7285 14.1957 64.6043 14.0057 64.5309 13.7834C64.4575 13.5612 64.4382 13.3166 64.4757 13.0806C64.5131 12.8447 64.6054 12.6279 64.7411 12.4578C64.8767 12.2877 65.0495 12.1719 65.2376 12.1249C65.4257 12.078 65.6207 12.1021 65.7979 12.1942C65.9751 12.2862 66.1266 12.4421 66.2331 12.6422C66.3397 12.8422 66.3966 13.0774 66.3966 13.3179C66.3966 13.6405 66.2944 13.9499 66.1125 14.1781C65.9307 14.4062 65.684 14.5343 65.4268 14.5343Z" fill="white" stroke="#263238" stroke-linecap="round" stroke-linejoin="round"/>
<path d="M62.8877 14.5343C62.6959 14.5343 62.5084 14.463 62.349 14.3293C62.1895 14.1957 62.0652 14.0057 61.9918 13.7834C61.9184 13.5612 61.8992 13.3166 61.9366 13.0806C61.974 12.8447 62.0664 12.6279 62.202 12.4578C62.3376 12.2877 62.5104 12.1719 62.6985 12.1249C62.8867 12.078 63.0816 12.1021 63.2588 12.1942C63.436 12.2862 63.5875 12.4421 63.6941 12.6422C63.8006 12.8422 63.8575 13.0774 63.8575 13.3179C63.8575 13.6405 63.7553 13.9499 63.5735 14.1781C63.3916 14.4062 63.1449 14.5343 62.8877 14.5343Z" fill="white" stroke="#263238" stroke-linecap="round" stroke-linejoin="round"/>
<path d="M60.3502 14.5343C60.1583 14.5347 59.9707 14.4637 59.811 14.3303C59.6513 14.1968 59.5268 14.007 59.4532 13.7848C59.3795 13.5625 59.3601 13.3179 59.3974 13.0818C59.4346 12.8457 59.5268 12.6288 59.6624 12.4585C59.798 12.2882 59.9707 12.1722 60.1589 12.1251C60.3471 12.078 60.5421 12.102 60.7194 12.194C60.8967 12.286 61.0483 12.4419 61.1549 12.642C61.2615 12.842 61.3184 13.0773 61.3184 13.3179C61.3184 13.6402 61.2165 13.9493 61.0349 14.1774C60.8534 14.4054 60.6071 14.5338 60.3502 14.5343Z" fill="white" stroke="#263238" stroke-linecap="round" stroke-linejoin="round"/>
<path d="M57.8135 14.5343C57.6217 14.5343 57.4342 14.463 57.2747 14.3293C57.1153 14.1957 56.991 14.0057 56.9176 13.7834C56.8442 13.5612 56.825 13.3166 56.8624 13.0806C56.8998 12.8447 56.9922 12.6279 57.1278 12.4578C57.2634 12.2877 57.4362 12.1719 57.6243 12.1249C57.8124 12.078 58.0074 12.1021 58.1846 12.1942C58.3618 12.2862 58.5133 12.4421 58.6198 12.6422C58.7264 12.8422 58.7833 13.0774 58.7833 13.3179C58.7833 13.6405 58.6811 13.9499 58.4992 14.1781C58.3174 14.4062 58.0707 14.5343 57.8135 14.5343Z" fill="white" stroke="#263238" stroke-linecap="round" stroke-linejoin="round"/>
<path d="M69.3516 16.0456V12.9727L56.4926 12.9727V16.0456H69.3516Z" fill="white" stroke="#263238" stroke-linecap="round" stroke-linejoin="round"/>
<path d="M69.3083 14.4548H56.5391" stroke="#263238" stroke-linecap="round" stroke-linejoin="round"/>
<path d="M67.9635 43.9447C67.7716 43.9451 67.584 43.8741 67.4243 43.7407C67.2646 43.6072 67.1401 43.4174 67.0665 43.1952C66.9928 42.9729 66.9734 42.7283 67.0106 42.4922C67.0479 42.2561 67.1401 42.0392 67.2757 41.8689C67.4112 41.6986 67.584 41.5826 67.7722 41.5355C67.9603 41.4884 68.1554 41.5124 68.3327 41.6044C68.51 41.6964 68.6615 41.8523 68.7682 42.0524C68.8748 42.2524 68.9317 42.4877 68.9317 42.7283C68.9317 43.0506 68.8297 43.3597 68.6482 43.5878C68.4667 43.8158 68.2204 43.9442 67.9635 43.9447Z" fill="white" stroke="#263238" stroke-linecap="round" stroke-linejoin="round"/>
<path d="M65.4268 43.9447C65.235 43.9447 65.0475 43.8734 64.888 43.7397C64.7285 43.6061 64.6043 43.4161 64.5309 43.1938C64.4575 42.9716 64.4382 42.727 64.4757 42.491C64.5131 42.2551 64.6054 42.0383 64.7411 41.8682C64.8767 41.6981 65.0495 41.5823 65.2376 41.5353C65.4257 41.4884 65.6207 41.5125 65.7979 41.6046C65.9751 41.6966 66.1266 41.8525 66.2331 42.0526C66.3397 42.2526 66.3966 42.4878 66.3966 42.7283C66.3966 43.0509 66.2944 43.3603 66.1125 43.5885C65.9307 43.8166 65.684 43.9447 65.4268 43.9447Z" fill="white" stroke="#263238" stroke-linecap="round" stroke-linejoin="round"/>
<path d="M62.8877 43.9447C62.6959 43.9447 62.5084 43.8734 62.349 43.7397C62.1895 43.6061 62.0652 43.4161 61.9918 43.1938C61.9184 42.9716 61.8992 42.727 61.9366 42.491C61.974 42.2551 62.0664 42.0383 62.202 41.8682C62.3376 41.6981 62.5104 41.5823 62.6985 41.5353C62.8867 41.4884 63.0816 41.5125 63.2588 41.6046C63.436 41.6966 63.5875 41.8525 63.6941 42.0526C63.8006 42.2526 63.8575 42.4878 63.8575 42.7283C63.8575 43.0509 63.7553 43.3603 63.5735 43.5885C63.3916 43.8166 63.1449 43.9447 62.8877 43.9447Z" fill="white" stroke="#263238" stroke-linecap="round" stroke-linejoin="round"/>
<path d="M60.3502 43.9447C60.1583 43.9451 59.9707 43.8741 59.811 43.7407C59.6513 43.6072 59.5268 43.4174 59.4532 43.1952C59.3795 42.9729 59.3601 42.7283 59.3974 42.4922C59.4346 42.2561 59.5268 42.0392 59.6624 41.8689C59.798 41.6986 59.9707 41.5826 60.1589 41.5355C60.3471 41.4884 60.5421 41.5124 60.7194 41.6044C60.8967 41.6964 61.0483 41.8523 61.1549 42.0524C61.2615 42.2524 61.3184 42.4877 61.3184 42.7283C61.3184 43.0506 61.2165 43.3597 61.0349 43.5878C60.8534 43.8158 60.6071 43.9442 60.3502 43.9447Z" fill="white" stroke="#263238" stroke-linecap="round" stroke-linejoin="round"/>
<path d="M57.8135 43.9447C57.6217 43.9447 57.4342 43.8734 57.2747 43.7397C57.1153 43.6061 56.991 43.4161 56.9176 43.1938C56.8442 42.9716 56.825 42.727 56.8624 42.491C56.8998 42.2551 56.9922 42.0383 57.1278 41.8682C57.2634 41.6981 57.4362 41.5823 57.6243 41.5353C57.8124 41.4884 58.0074 41.5125 58.1846 41.6046C58.3618 41.6966 58.5133 41.8525 58.6198 42.0526C58.7264 42.2526 58.7833 42.4878 58.7833 42.7283C58.7833 43.0509 58.6811 43.3603 58.4992 43.5885C58.3174 43.8166 58.0707 43.9447 57.8135 43.9447Z" fill="white" stroke="#263238" stroke-linecap="round" stroke-linejoin="round"/>
<path d="M67.9619 41.5141C68.4975 41.5141 68.9317 40.9695 68.9317 40.2977C68.9317 39.6259 68.4975 39.0813 67.9619 39.0813C67.4264 39.0813 66.9922 39.6259 66.9922 40.2977C66.9922 40.9695 67.4264 41.5141 67.9619 41.5141Z" fill="white" stroke="#263238" stroke-linecap="round" stroke-linejoin="round"/>
<path d="M65.4229 41.5141C65.9585 41.5141 66.3926 40.9695 66.3926 40.2977C66.3926 39.6259 65.9585 39.0813 65.4229 39.0813C64.8873 39.0813 64.4531 39.6259 64.4531 40.2977C64.4531 40.9695 64.8873 41.5141 65.4229 41.5141Z" fill="white" stroke="#263238" stroke-linecap="round" stroke-linejoin="round"/>
<path d="M62.8877 41.5141C63.4233 41.5141 63.8575 40.9695 63.8575 40.2977C63.8575 39.6259 63.4233 39.0813 62.8877 39.0813C62.3521 39.0813 61.918 39.6259 61.918 40.2977C61.918 40.9695 62.3521 41.5141 62.8877 41.5141Z" fill="white" stroke="#263238" stroke-linecap="round" stroke-linejoin="round"/>
<path d="M60.3526 41.5141C60.8882 41.5141 61.3223 40.9695 61.3223 40.2977C61.3223 39.6259 60.8882 39.0813 60.3526 39.0813C59.817 39.0813 59.3828 39.6259 59.3828 40.2977C59.3828 40.9695 59.817 41.5141 60.3526 41.5141Z" fill="white" stroke="#263238" stroke-linecap="round" stroke-linejoin="round"/>
<path d="M57.8135 41.5141C58.3491 41.5141 58.7833 40.9695 58.7833 40.2977C58.7833 39.6259 58.3491 39.0813 57.8135 39.0813C57.2779 39.0813 56.8438 39.6259 56.8438 40.2977C56.8438 40.9695 57.2779 41.5141 57.8135 41.5141Z" fill="white" stroke="#263238" stroke-linecap="round" stroke-linejoin="round"/>
<path d="M69.3555 43.0254V39.9524H56.4965V43.0254H69.3555Z" fill="white" stroke="#263238" stroke-linecap="round" stroke-linejoin="round"/>
<path d="M69.3083 41.4346H56.5391" stroke="#263238" stroke-linecap="round" stroke-linejoin="round"/>
<path d="M67.9619 80.4459C68.4975 80.4459 68.9317 79.9013 68.9317 79.2296C68.9317 78.5578 68.4975 78.0132 67.9619 78.0132C67.4264 78.0132 66.9922 78.5578 66.9922 79.2296C66.9922 79.9013 67.4264 80.4459 67.9619 80.4459Z" fill="white" stroke="#263238" stroke-linecap="round" stroke-linejoin="round"/>
<path d="M65.4229 80.4459C65.9585 80.4459 66.3926 79.9013 66.3926 79.2296C66.3926 78.5578 65.9585 78.0132 65.4229 78.0132C64.8873 78.0132 64.4531 78.5578 64.4531 79.2296C64.4531 79.9013 64.8873 80.4459 65.4229 80.4459Z" fill="white" stroke="#263238" stroke-linecap="round" stroke-linejoin="round"/>
<path d="M62.8877 80.4459C63.4233 80.4459 63.8575 79.9013 63.8575 79.2296C63.8575 78.5578 63.4233 78.0132 62.8877 78.0132C62.3521 78.0132 61.918 78.5578 61.918 79.2296C61.918 79.9013 62.3521 80.4459 62.8877 80.4459Z" fill="white" stroke="#263238" stroke-linecap="round" stroke-linejoin="round"/>
<path d="M60.3526 80.4459C60.8882 80.4459 61.3223 79.9013 61.3223 79.2296C61.3223 78.5578 60.8882 78.0132 60.3526 78.0132C59.817 78.0132 59.3828 78.5578 59.3828 79.2296C59.3828 79.9013 59.817 80.4459 60.3526 80.4459Z" fill="white" stroke="#263238" stroke-linecap="round" stroke-linejoin="round"/>
<path d="M57.8135 80.4459C58.3491 80.4459 58.7833 79.9013 58.7833 79.2296C58.7833 78.5578 58.3491 78.0132 57.8135 78.0132C57.2779 78.0132 56.8438 78.5578 56.8438 79.2296C56.8438 79.9013 57.2779 80.4459 57.8135 80.4459Z" fill="white" stroke="#263238" stroke-linecap="round" stroke-linejoin="round"/>
<path d="M67.9635 78.0131C67.7716 78.0135 67.5839 77.9424 67.4241 77.8089C67.2644 77.6754 67.1399 77.4854 67.0663 77.2631C66.9927 77.0407 66.9734 76.796 67.0107 76.5599C67.0481 76.3237 67.1405 76.1068 67.2762 75.9366C67.4119 75.7664 67.5849 75.6505 67.7731 75.6036C67.9614 75.5567 68.1565 75.581 68.3338 75.6733C68.511 75.7656 68.6625 75.9218 68.7689 76.1221C68.8754 76.3225 68.932 76.5579 68.9317 76.7986C68.9313 77.1206 68.8292 77.4292 68.6477 77.6568C68.4662 77.8845 68.2202 78.0126 67.9635 78.0131Z" fill="white" stroke="#263238" stroke-linecap="round" stroke-linejoin="round"/>
<path d="M65.4268 78.0131C65.2349 78.0131 65.0474 77.9417 64.8879 77.8079C64.7283 77.6742 64.6041 77.4841 64.5307 77.2617C64.4573 77.0394 64.4382 76.7947 64.4758 76.5587C64.5133 76.3227 64.6058 76.1059 64.7416 75.9359C64.8774 75.7659 65.0503 75.6502 65.2385 75.6035C65.4268 75.5567 65.6218 75.5811 65.799 75.6735C65.9761 75.7658 66.1275 75.922 66.2339 76.1223C66.3402 76.3226 66.3969 76.558 66.3965 76.7986C66.3965 76.9583 66.3715 77.1164 66.3227 77.2638C66.2739 77.4113 66.2025 77.5453 66.1124 77.6581C66.0223 77.7709 65.9154 77.8603 65.7978 77.9212C65.6801 77.9821 65.5541 78.0133 65.4268 78.0131Z" fill="white" stroke="#263238" stroke-linecap="round" stroke-linejoin="round"/>
<path d="M62.8877 78.0131C62.6959 78.0131 62.5083 77.9417 62.3488 77.8079C62.1893 77.6742 62.065 77.4841 61.9916 77.2617C61.9183 77.0394 61.8992 76.7947 61.9367 76.5587C61.9743 76.3227 62.0668 76.1059 62.2025 75.9359C62.3383 75.7659 62.5113 75.6502 62.6995 75.6035C62.8877 75.5567 63.0827 75.5811 63.2599 75.6735C63.4371 75.7658 63.5884 75.922 63.6948 76.1223C63.8012 76.3226 63.8578 76.558 63.8575 76.7986C63.8571 77.1209 63.7547 77.4298 63.5729 77.6575C63.3911 77.8852 63.1447 78.0131 62.8877 78.0131Z" fill="white" stroke="#263238" stroke-linecap="round" stroke-linejoin="round"/>
<path d="M60.3502 78.0131C60.1583 78.0135 59.9706 77.9424 59.8109 77.8089C59.6511 77.6754 59.5266 77.4854 59.453 77.2631C59.3794 77.0407 59.3601 76.796 59.3975 76.5599C59.4348 76.3237 59.5272 76.1068 59.6629 75.9366C59.7987 75.7664 59.9716 75.6505 60.1599 75.6036C60.3481 75.5567 60.5432 75.581 60.7205 75.6733C60.8978 75.7656 61.0492 75.9218 61.1556 76.1221C61.2621 76.3225 61.3187 76.5579 61.3184 76.7986C61.318 77.1206 61.2159 77.4292 61.0344 77.6568C60.8529 77.8845 60.6069 78.0126 60.3502 78.0131Z" fill="white" stroke="#263238" stroke-linecap="round" stroke-linejoin="round"/>
<path d="M57.8135 78.0131C57.6216 78.0131 57.4341 77.9417 57.2746 77.8079C57.1151 77.6742 56.9908 77.4841 56.9174 77.2617C56.8441 77.0394 56.825 76.7947 56.8625 76.5587C56.9 76.3227 56.9926 76.1059 57.1283 75.9359C57.2641 75.7659 57.4371 75.6502 57.6253 75.6035C57.8135 75.5567 58.0085 75.5811 58.1857 75.6735C58.3629 75.7658 58.5142 75.922 58.6206 76.1223C58.727 76.3226 58.7836 76.558 58.7833 76.7986C58.7833 76.9583 58.7582 77.1164 58.7094 77.2638C58.6607 77.4113 58.5892 77.5453 58.4991 77.6581C58.4091 77.7709 58.3022 77.8603 58.1845 77.9212C58.0669 77.9821 57.9408 78.0133 57.8135 78.0131Z" fill="white" stroke="#263238" stroke-linecap="round" stroke-linejoin="round"/>
<path d="M69.3555 79.5263V76.4534H56.4965V79.5263H69.3555Z" fill="white" stroke="#263238" stroke-linecap="round" stroke-linejoin="round"/>
<path d="M69.3083 77.9355H56.5391" stroke="#263238" stroke-linecap="round" stroke-linejoin="round"/>
<path d="M49.6328 4.46387H46.957V88.3495H49.6328V4.46387Z" fill="white" stroke="#263238" stroke-linecap="round" stroke-linejoin="round"/>
<path d="M46.7783 33.3194C46.9363 33.3194 47.0645 33.1587 47.0645 32.9605C47.0645 32.7622 46.9363 32.6016 46.7783 32.6016C46.6203 32.6016 46.4922 32.7622 46.4922 32.9605C46.4922 33.1587 46.6203 33.3194 46.7783 33.3194Z" fill="white" stroke="#263238" stroke-linecap="round" stroke-linejoin="round"/>
<path d="M47.5283 33.3194C47.6863 33.3194 47.8145 33.1587 47.8145 32.9605C47.8145 32.7622 47.6863 32.6016 47.5283 32.6016C47.3703 32.6016 47.2422 32.7622 47.2422 32.9605C47.2422 33.1587 47.3703 33.3194 47.5283 33.3194Z" fill="white" stroke="#263238" stroke-linecap="round" stroke-linejoin="round"/>
<path d="M48.2783 33.3194C48.4363 33.3194 48.5645 33.1587 48.5645 32.9605C48.5645 32.7622 48.4363 32.6016 48.2783 32.6016C48.1203 32.6016 47.9922 32.7622 47.9922 32.9605C47.9922 33.1587 48.1203 33.3194 48.2783 33.3194Z" fill="white" stroke="#263238" stroke-linecap="round" stroke-linejoin="round"/>
<path d="M49.0283 33.3194C49.1863 33.3194 49.3145 33.1587 49.3145 32.9605C49.3145 32.7622 49.1863 32.6016 49.0283 32.6016C48.8703 32.6016 48.7422 32.7622 48.7422 32.9605C48.7422 33.1587 48.8703 33.3194 49.0283 33.3194Z" fill="white" stroke="#263238" stroke-linecap="round" stroke-linejoin="round"/>
<path d="M49.7783 33.3194C49.9363 33.3194 50.0645 33.1587 50.0645 32.9605C50.0645 32.7622 49.9363 32.6016 49.7783 32.6016C49.6203 32.6016 49.4922 32.7622 49.4922 32.9605C49.4922 33.1587 49.6203 33.3194 49.7783 33.3194Z" fill="white" stroke="#263238" stroke-linecap="round" stroke-linejoin="round"/>
<path d="M46.7783 34.0371C46.9363 34.0371 47.0645 33.8765 47.0645 33.6782C47.0645 33.48 46.9363 33.3193 46.7783 33.3193C46.6203 33.3193 46.4922 33.48 46.4922 33.6782C46.4922 33.8765 46.6203 34.0371 46.7783 34.0371Z" fill="white" stroke="#263238" stroke-linecap="round" stroke-linejoin="round"/>
<path d="M47.5283 34.0371C47.6863 34.0371 47.8145 33.8765 47.8145 33.6782C47.8145 33.48 47.6863 33.3193 47.5283 33.3193C47.3703 33.3193 47.2422 33.48 47.2422 33.6782C47.2422 33.8765 47.3703 34.0371 47.5283 34.0371Z" fill="white" stroke="#263238" stroke-linecap="round" stroke-linejoin="round"/>
<path d="M48.2783 34.0371C48.4363 34.0371 48.5645 33.8765 48.5645 33.6782C48.5645 33.48 48.4363 33.3193 48.2783 33.3193C48.1203 33.3193 47.9922 33.48 47.9922 33.6782C47.9922 33.8765 48.1203 34.0371 48.2783 34.0371Z" fill="white" stroke="#263238" stroke-linecap="round" stroke-linejoin="round"/>
<path d="M49.0283 34.0371C49.1863 34.0371 49.3145 33.8765 49.3145 33.6782C49.3145 33.48 49.1863 33.3193 49.0283 33.3193C48.8703 33.3193 48.7422 33.48 48.7422 33.6782C48.7422 33.8765 48.8703 34.0371 49.0283 34.0371Z" fill="white" stroke="#263238" stroke-linecap="round" stroke-linejoin="round"/>
<path d="M49.7783 34.0371C49.9363 34.0371 50.0645 33.8765 50.0645 33.6782C50.0645 33.48 49.9363 33.3193 49.7783 33.3193C49.6203 33.3193 49.4922 33.48 49.4922 33.6782C49.4922 33.8765 49.6203 34.0371 49.7783 34.0371Z" fill="white" stroke="#263238" stroke-linecap="round" stroke-linejoin="round"/>
<path d="M46.3672 32.8733V33.7812H50.1689V32.8733H46.3672Z" fill="white" stroke="#263238" stroke-linecap="round" stroke-linejoin="round"/>
<path d="M46.3789 33.3428H50.1543" stroke="#263238" stroke-linecap="round" stroke-linejoin="round"/>
<path d="M46.7783 13.6712C46.9363 13.6712 47.0645 13.5105 47.0645 13.3123C47.0645 13.1141 46.9363 12.9534 46.7783 12.9534C46.6203 12.9534 46.4922 13.1141 46.4922 13.3123C46.4922 13.5105 46.6203 13.6712 46.7783 13.6712Z" fill="white" stroke="#263238" stroke-linecap="round" stroke-linejoin="round"/>
<path d="M47.5283 13.6712C47.6863 13.6712 47.8145 13.5105 47.8145 13.3123C47.8145 13.1141 47.6863 12.9534 47.5283 12.9534C47.3703 12.9534 47.2422 13.1141 47.2422 13.3123C47.2422 13.5105 47.3703 13.6712 47.5283 13.6712Z" fill="white" stroke="#263238" stroke-linecap="round" stroke-linejoin="round"/>
<path d="M48.2783 13.6712C48.4363 13.6712 48.5645 13.5105 48.5645 13.3123C48.5645 13.1141 48.4363 12.9534 48.2783 12.9534C48.1203 12.9534 47.9922 13.1141 47.9922 13.3123C47.9922 13.5105 48.1203 13.6712 48.2783 13.6712Z" fill="white" stroke="#263238" stroke-linecap="round" stroke-linejoin="round"/>
<path d="M49.0283 13.6712C49.1863 13.6712 49.3145 13.5105 49.3145 13.3123C49.3145 13.1141 49.1863 12.9534 49.0283 12.9534C48.8703 12.9534 48.7422 13.1141 48.7422 13.3123C48.7422 13.5105 48.8703 13.6712 49.0283 13.6712Z" fill="white" stroke="#263238" stroke-linecap="round" stroke-linejoin="round"/>
<path d="M49.7783 13.6712C49.9363 13.6712 50.0645 13.5105 50.0645 13.3123C50.0645 13.1141 49.9363 12.9534 49.7783 12.9534C49.6203 12.9534 49.4922 13.1141 49.4922 13.3123C49.4922 13.5105 49.6203 13.6712 49.7783 13.6712Z" fill="white" stroke="#263238" stroke-linecap="round" stroke-linejoin="round"/>
<path d="M46.7783 14.3889C46.9363 14.3889 47.0645 14.2283 47.0645 14.03C47.0645 13.8318 46.9363 13.6711 46.7783 13.6711C46.6203 13.6711 46.4922 13.8318 46.4922 14.03C46.4922 14.2283 46.6203 14.3889 46.7783 14.3889Z" fill="white" stroke="#263238" stroke-linecap="round" stroke-linejoin="round"/>
<path d="M47.5283 14.3889C47.6863 14.3889 47.8145 14.2283 47.8145 14.03C47.8145 13.8318 47.6863 13.6711 47.5283 13.6711C47.3703 13.6711 47.2422 13.8318 47.2422 14.03C47.2422 14.2283 47.3703 14.3889 47.5283 14.3889Z" fill="white" stroke="#263238" stroke-linecap="round" stroke-linejoin="round"/>
<path d="M48.2783 14.3889C48.4363 14.3889 48.5645 14.2283 48.5645 14.03C48.5645 13.8318 48.4363 13.6711 48.2783 13.6711C48.1203 13.6711 47.9922 13.8318 47.9922 14.03C47.9922 14.2283 48.1203 14.3889 48.2783 14.3889Z" fill="white" stroke="#263238" stroke-linecap="round" stroke-linejoin="round"/>
<path d="M49.0283 14.3889C49.1863 14.3889 49.3145 14.2283 49.3145 14.03C49.3145 13.8318 49.1863 13.6711 49.0283 13.6711C48.8703 13.6711 48.7422 13.8318 48.7422 14.03C48.7422 14.2283 48.8703 14.3889 49.0283 14.3889Z" fill="white" stroke="#263238" stroke-linecap="round" stroke-linejoin="round"/>
<path d="M49.7783 14.3889C49.9363 14.3889 50.0645 14.2283 50.0645 14.03C50.0645 13.8318 49.9363 13.6711 49.7783 13.6711C49.6203 13.6711 49.4922 13.8318 49.4922 14.03C49.4922 14.2283 49.6203 14.3889 49.7783 14.3889Z" fill="white" stroke="#263238" stroke-linecap="round" stroke-linejoin="round"/>
<path d="M46.3672 13.2249V14.1328H50.1689V13.2249H46.3672Z" fill="white" stroke="#263238" stroke-linecap="round" stroke-linejoin="round"/>
<path d="M46.3789 13.6943H50.1543" stroke="#263238" stroke-linecap="round" stroke-linejoin="round"/>
<path d="M46.7783 41.2366C46.9363 41.2366 47.0645 41.0759 47.0645 40.8777C47.0645 40.6795 46.9363 40.5188 46.7783 40.5188C46.6203 40.5188 46.4922 40.6795 46.4922 40.8777C46.4922 41.0759 46.6203 41.2366 46.7783 41.2366Z" fill="white" stroke="#263238" stroke-linecap="round" stroke-linejoin="round"/>
<path d="M47.5283 41.2366C47.6863 41.2366 47.8145 41.0759 47.8145 40.8777C47.8145 40.6795 47.6863 40.5188 47.5283 40.5188C47.3703 40.5188 47.2422 40.6795 47.2422 40.8777C47.2422 41.0759 47.3703 41.2366 47.5283 41.2366Z" fill="white" stroke="#263238" stroke-linecap="round" stroke-linejoin="round"/>
<path d="M48.2783 41.2366C48.4363 41.2366 48.5645 41.0759 48.5645 40.8777C48.5645 40.6795 48.4363 40.5188 48.2783 40.5188C48.1203 40.5188 47.9922 40.6795 47.9922 40.8777C47.9922 41.0759 48.1203 41.2366 48.2783 41.2366Z" fill="white" stroke="#263238" stroke-linecap="round" stroke-linejoin="round"/>
<path d="M49.0283 41.2366C49.1863 41.2366 49.3145 41.0759 49.3145 40.8777C49.3145 40.6795 49.1863 40.5188 49.0283 40.5188C48.8703 40.5188 48.7422 40.6795 48.7422 40.8777C48.7422 41.0759 48.8703 41.2366 49.0283 41.2366Z" fill="white" stroke="#263238" stroke-linecap="round" stroke-linejoin="round"/>
<path d="M49.7783 41.2366C49.9363 41.2366 50.0645 41.0759 50.0645 40.8777C50.0645 40.6795 49.9363 40.5188 49.7783 40.5188C49.6203 40.5188 49.4922 40.6795 49.4922 40.8777C49.4922 41.0759 49.6203 41.2366 49.7783 41.2366Z" fill="white" stroke="#263238" stroke-linecap="round" stroke-linejoin="round"/>
<path d="M46.7783 41.9563C46.9363 41.9563 47.0645 41.7956 47.0645 41.5974C47.0645 41.3992 46.9363 41.2385 46.7783 41.2385C46.6203 41.2385 46.4922 41.3992 46.4922 41.5974C46.4922 41.7956 46.6203 41.9563 46.7783 41.9563Z" fill="white" stroke="#263238" stroke-linecap="round" stroke-linejoin="round"/>
<path d="M47.5283 41.9563C47.6863 41.9563 47.8145 41.7956 47.8145 41.5974C47.8145 41.3992 47.6863 41.2385 47.5283 41.2385C47.3703 41.2385 47.2422 41.3992 47.2422 41.5974C47.2422 41.7956 47.3703 41.9563 47.5283 41.9563Z" fill="white" stroke="#263238" stroke-linecap="round" stroke-linejoin="round"/>
<path d="M48.2783 41.9563C48.4363 41.9563 48.5645 41.7956 48.5645 41.5974C48.5645 41.3992 48.4363 41.2385 48.2783 41.2385C48.1203 41.2385 47.9922 41.3992 47.9922 41.5974C47.9922 41.7956 48.1203 41.9563 48.2783 41.9563Z" fill="white" stroke="#263238" stroke-linecap="round" stroke-linejoin="round"/>
<path d="M49.0283 41.9563C49.1863 41.9563 49.3145 41.7956 49.3145 41.5974C49.3145 41.3992 49.1863 41.2385 49.0283 41.2385C48.8703 41.2385 48.7422 41.3992 48.7422 41.5974C48.7422 41.7956 48.8703 41.9563 49.0283 41.9563Z" fill="white" stroke="#263238" stroke-linecap="round" stroke-linejoin="round"/>
<path d="M49.7783 41.9563C49.9363 41.9563 50.0645 41.7956 50.0645 41.5974C50.0645 41.3992 49.9363 41.2385 49.7783 41.2385C49.6203 41.2385 49.4922 41.3992 49.4922 41.5974C49.4922 41.7956 49.6203 41.9563 49.7783 41.9563Z" fill="white" stroke="#263238" stroke-linecap="round" stroke-linejoin="round"/>
<path d="M46.3672 40.7923V41.7002H50.1689V40.7923H46.3672Z" fill="white" stroke="#263238" stroke-linecap="round" stroke-linejoin="round"/>
<path d="M46.3789 41.2617H50.1543" stroke="#263238" stroke-linecap="round" stroke-linejoin="round"/>
<path d="M47.4156 29.3249C49.0173 29.3249 50.3156 27.0293 50.3156 24.1975C50.3156 21.3657 49.0173 19.0701 47.4156 19.0701C45.814 19.0701 44.5156 21.3657 44.5156 24.1975C44.5156 27.0293 45.814 29.3249 47.4156 29.3249Z" fill="white" stroke="#263238" stroke-linecap="round" stroke-linejoin="round"/>
<path d="M46.5328 29.3249C48.1344 29.3249 49.4328 27.0293 49.4328 24.1975C49.4328 21.3657 48.1344 19.0701 46.5328 19.0701C44.9312 19.0701 43.6328 21.3657 43.6328 24.1975C43.6328 27.0293 44.9312 29.3249 46.5328 29.3249Z" fill="white" stroke="#263238" stroke-linecap="round" stroke-linejoin="round"/>
<path d="M46.1708 21.3535H44.6411V23.2431C44.505 23.8949 44.505 24.5797 44.6411 25.2316V27.1211H46.1708C47.0709 27.1211 47.801 25.831 47.801 24.2383C47.801 22.6456 47.0709 21.3535 46.1708 21.3535Z" fill="white" stroke="#263238" stroke-linecap="round" stroke-linejoin="round"/>
<path d="M44.6419 27.1211C45.5422 27.1211 46.2721 25.8305 46.2721 24.2383C46.2721 22.6462 45.5422 21.3555 44.6419 21.3555C43.7416 21.3555 43.0117 22.6462 43.0117 24.2383C43.0117 25.8305 43.7416 27.1211 44.6419 27.1211Z" fill="white" stroke="#263238" stroke-linecap="round" stroke-linejoin="round"/>
<path d="M96.9886 46.3872H93.4375V52.8396H96.9886V46.3872Z" fill="white" stroke="#263238" stroke-linecap="round" stroke-linejoin="round"/>
<path d="M98.7026 43.9292H91.4766V49.6134H98.7026V43.9292Z" fill="white" stroke="#263238" stroke-linecap="round" stroke-linejoin="round"/>
<path d="M95.1511 45.8887C97.3661 45.8887 99.1616 43.6365 99.1616 40.8583C99.1616 38.0801 97.3661 35.8279 95.1511 35.8279C92.9362 35.8279 91.1406 38.0801 91.1406 40.8583C91.1406 43.6365 92.9362 45.8887 95.1511 45.8887Z" fill="white" stroke="#263238" stroke-linecap="round" stroke-linejoin="round"/>
<path d="M95.1506 48.5387C98.5324 48.5387 101.274 45.1 101.274 40.8582C101.274 36.6164 98.5324 33.1777 95.1506 33.1777C91.7688 33.1777 89.0273 36.6164 89.0273 40.8582C89.0273 45.1 91.7688 48.5387 95.1506 48.5387Z" stroke="#263238" stroke-width="4" stroke-linecap="round" stroke-linejoin="round"/>
<path d="M96.1467 40.8582C96.147 40.6103 96.0887 40.3678 95.9791 40.1614C95.8695 39.9551 95.7136 39.7941 95.531 39.699C95.3485 39.6038 95.1475 39.5787 94.9536 39.6269C94.7597 39.675 94.5815 39.7942 94.4416 39.9694C94.3017 40.1446 94.2064 40.3679 94.1677 40.6111C94.1291 40.8542 94.1488 41.1063 94.2244 41.3354C94.2999 41.5645 94.428 41.7604 94.5923 41.8982C94.7567 42.036 94.9499 42.1095 95.1476 42.1095C95.4123 42.1095 95.6662 41.9777 95.8535 41.7431C96.0409 41.5085 96.1463 41.1903 96.1467 40.8582Z" stroke="#263238" stroke-width="4" stroke-linecap="round" stroke-linejoin="round"/>
<path d="M95.1484 33.1777V48.3835" stroke="#263238" stroke-width="4" stroke-linecap="round" stroke-linejoin="round"/>
<path d="M89.0273 40.8582H101.274" stroke="#263238" stroke-width="4" stroke-linecap="round" stroke-linejoin="round"/>
<path d="M1.61328 51.6602H99.7617C103.16 51.6658 106.419 53.3618 108.822 56.3763C111.225 59.3908 112.577 63.4777 112.582 67.7408V88.4193H102.219V67.7408C102.219 66.9234 101.96 66.1396 101.499 65.5616C101.038 64.9836 100.413 64.6587 99.7617 64.6582H1.61328" fill="white"/>
<path d="M1.61328 51.6602H99.7617C103.16 51.6658 106.419 53.3618 108.822 56.3763C111.225 59.3908 112.577 63.4777 112.582 67.7408V88.4193H102.219V67.7408C102.219 66.9234 101.96 66.1396 101.499 65.5616C101.038 64.9836 100.413 64.6587 99.7617 64.6582H1.61328" stroke="#263238" stroke-linecap="round" stroke-linejoin="round"/>
<path d="M47.582 63.374H50.2593" stroke="#263238" stroke-linecap="round" stroke-linejoin="round"/>
<path d="M37.2109 63.374H46.8946" stroke="#263238" stroke-linecap="round" stroke-linejoin="round"/>
<path d="M83.5859 63.374H86.2632" stroke="#263238" stroke-linecap="round" stroke-linejoin="round"/>
<path d="M58.707 63.374H82.9" stroke="#263238" stroke-linecap="round" stroke-linejoin="round"/>
<path d="M92.045 52.2227C92.0453 52.4634 91.9887 52.6988 91.8823 52.8991C91.7759 53.0993 91.6246 53.2555 91.4474 53.3479C91.2702 53.4403 91.0752 53.4646 90.887 53.4179C90.6988 53.3712 90.5258 53.2555 90.39 53.0855C90.2543 52.9154 90.1618 52.6987 90.1242 52.4627C90.0867 52.2267 90.1058 51.982 90.1791 51.7596C90.2525 51.5373 90.3768 51.3472 90.5363 51.2134C90.6958 51.0797 90.8834 51.0083 91.0752 51.0083C91.3322 51.0083 91.5786 51.1362 91.7604 51.3639C91.9422 51.5916 92.0446 51.9005 92.045 52.2227Z" fill="white" stroke="#263238" stroke-linecap="round" stroke-linejoin="round"/>
<path d="M92.045 55.4063C92.045 55.6469 91.9881 55.8821 91.8816 56.0821C91.775 56.2821 91.6235 56.438 91.4463 56.5301C91.2691 56.6222 91.0742 56.6463 90.886 56.5993C90.6979 56.5524 90.5251 56.4366 90.3895 56.2664C90.2539 56.0963 90.1615 55.8796 90.1241 55.6436C90.0867 55.4077 90.1059 55.1631 90.1793 54.9408C90.2527 54.7186 90.377 54.5286 90.5365 54.3949C90.6959 54.2613 90.8834 54.1899 91.0752 54.1899C91.3324 54.1899 91.5791 54.3181 91.761 54.5462C91.9428 54.7743 92.045 55.0837 92.045 55.4063Z" fill="white" stroke="#263238" stroke-linecap="round" stroke-linejoin="round"/>
<path d="M92.045 58.588C92.0453 58.8286 91.9887 59.064 91.8823 59.2643C91.7759 59.4646 91.6246 59.6208 91.4474 59.7131C91.2702 59.8055 91.0752 59.8299 90.887 59.7832C90.6988 59.7364 90.5258 59.6207 90.39 59.4507C90.2543 59.2807 90.1618 59.0639 90.1242 58.8279C90.0867 58.5919 90.1058 58.3473 90.1791 58.1249C90.2525 57.9025 90.3768 57.7124 90.5363 57.5787C90.6958 57.4449 90.8834 57.3735 91.0752 57.3735C91.3322 57.3735 91.5786 57.5014 91.7604 57.7291C91.9422 57.9568 92.0446 58.2657 92.045 58.588Z" fill="white" stroke="#263238" stroke-linecap="round" stroke-linejoin="round"/>
<path d="M92.045 61.7716C92.045 62.0121 91.9881 62.2473 91.8816 62.4473C91.775 62.6474 91.6235 62.8033 91.4463 62.8953C91.2691 62.9874 91.0742 63.0115 90.886 62.9646C90.6979 62.9176 90.5251 62.8018 90.3895 62.6317C90.2539 62.4616 90.1615 62.2448 90.1241 62.0089C90.0867 61.7729 90.1059 61.5283 90.1793 61.3061C90.2527 61.0838 90.377 60.8938 90.5365 60.7602C90.6959 60.6265 90.8834 60.5552 91.0752 60.5552C91.3324 60.5552 91.5791 60.6833 91.761 60.9114C91.9428 61.1396 92.045 61.4489 92.045 61.7716Z" fill="white" stroke="#263238" stroke-linecap="round" stroke-linejoin="round"/>
<path d="M92.045 64.953C92.045 65.1935 91.9881 65.4287 91.8816 65.6287C91.775 65.8288 91.6235 65.9847 91.4463 66.0767C91.2691 66.1688 91.0742 66.1929 90.886 66.146C90.6979 66.099 90.5251 65.9832 90.3895 65.8131C90.2539 65.6429 90.1615 65.4262 90.1241 65.1903C90.0867 64.9543 90.1059 64.7097 90.1793 64.4875C90.2527 64.2652 90.377 64.0752 90.5365 63.9416C90.6959 63.8079 90.8834 63.7366 91.0752 63.7366C91.3324 63.7366 91.5791 63.8647 91.761 64.0928C91.9428 64.321 92.045 64.6303 92.045 64.953Z" fill="white" stroke="#263238" stroke-linecap="round" stroke-linejoin="round"/>
<path d="M89.1377 53.4391C89.6733 53.4391 90.1075 52.8945 90.1075 52.2227C90.1075 51.5509 89.6733 51.0063 89.1377 51.0063C88.6021 51.0063 88.168 51.5509 88.168 52.2227C88.168 52.8945 88.6021 53.4391 89.1377 53.4391Z" fill="white" stroke="#263238" stroke-linecap="round" stroke-linejoin="round"/>
<path d="M89.1377 56.6227C89.6733 56.6227 90.1075 56.0781 90.1075 55.4063C90.1075 54.7345 89.6733 54.1899 89.1377 54.1899C88.6021 54.1899 88.168 54.7345 88.168 55.4063C88.168 56.0781 88.6021 56.6227 89.1377 56.6227Z" fill="white" stroke="#263238" stroke-linecap="round" stroke-linejoin="round"/>
<path d="M89.1377 59.8043C89.6733 59.8043 90.1075 59.2597 90.1075 58.588C90.1075 57.9162 89.6733 57.3716 89.1377 57.3716C88.6021 57.3716 88.168 57.9162 88.168 58.588C88.168 59.2597 88.6021 59.8043 89.1377 59.8043Z" fill="white" stroke="#263238" stroke-linecap="round" stroke-linejoin="round"/>
<path d="M89.1377 62.9879C89.6733 62.9879 90.1075 62.4433 90.1075 61.7716C90.1075 61.0998 89.6733 60.5552 89.1377 60.5552C88.6021 60.5552 88.168 61.0998 88.168 61.7716C88.168 62.4433 88.6021 62.9879 89.1377 62.9879Z" fill="white" stroke="#263238" stroke-linecap="round" stroke-linejoin="round"/>
<path d="M89.1377 66.1693C89.6733 66.1693 90.1075 65.6247 90.1075 64.953C90.1075 64.2812 89.6733 63.7366 89.1377 63.7366C88.6021 63.7366 88.168 64.2812 88.168 64.953C88.168 65.6247 88.6021 66.1693 89.1377 66.1693Z" fill="white" stroke="#263238" stroke-linecap="round" stroke-linejoin="round"/>
<path d="M91.3093 50.4788H88.8594V66.6079H91.3093V50.4788Z" fill="white" stroke="#263238" stroke-linecap="round" stroke-linejoin="round"/>
<path d="M90.043 50.5349V66.5516" stroke="#263238" stroke-linecap="round" stroke-linejoin="round"/>
<path d="M100.505 53.4391C101.041 53.4391 101.475 52.8945 101.475 52.2227C101.475 51.5509 101.041 51.0063 100.505 51.0063C99.9693 51.0063 99.5352 51.5509 99.5352 52.2227C99.5352 52.8945 99.9693 53.4391 100.505 53.4391Z" fill="white" stroke="#263238" stroke-linecap="round" stroke-linejoin="round"/>
<path d="M100.505 56.6227C101.041 56.6227 101.475 56.0781 101.475 55.4063C101.475 54.7345 101.041 54.1899 100.505 54.1899C99.9693 54.1899 99.5352 54.7345 99.5352 55.4063C99.5352 56.0781 99.9693 56.6227 100.505 56.6227Z" fill="white" stroke="#263238" stroke-linecap="round" stroke-linejoin="round"/>
<path d="M100.505 59.8043C101.041 59.8043 101.475 59.2597 101.475 58.588C101.475 57.9162 101.041 57.3716 100.505 57.3716C99.9693 57.3716 99.5352 57.9162 99.5352 58.588C99.5352 59.2597 99.9693 59.8043 100.505 59.8043Z" fill="white" stroke="#263238" stroke-linecap="round" stroke-linejoin="round"/>
<path d="M100.505 62.9879C101.041 62.9879 101.475 62.4433 101.475 61.7716C101.475 61.0998 101.041 60.5552 100.505 60.5552C99.9693 60.5552 99.5352 61.0998 99.5352 61.7716C99.5352 62.4433 99.9693 62.9879 100.505 62.9879Z" fill="white" stroke="#263238" stroke-linecap="round" stroke-linejoin="round"/>
<path d="M100.505 66.1693C101.041 66.1693 101.475 65.6247 101.475 64.953C101.475 64.2812 101.041 63.7366 100.505 63.7366C99.9693 63.7366 99.5352 64.2812 99.5352 64.953C99.5352 65.6247 99.9693 66.1693 100.505 66.1693Z" fill="white" stroke="#263238" stroke-linecap="round" stroke-linejoin="round"/>
<path d="M99.5372 52.2227C99.5375 52.4634 99.4809 52.6988 99.3745 52.8991C99.2681 53.0993 99.1168 53.2555 98.9396 53.3479C98.7624 53.4403 98.5674 53.4646 98.3792 53.4179C98.191 53.3712 98.018 53.2555 97.8822 53.0855C97.7465 52.9154 97.6539 52.6987 97.6164 52.4627C97.5789 52.2267 97.598 51.982 97.6713 51.7596C97.7447 51.5373 97.869 51.3472 98.0285 51.2134C98.188 51.0797 98.3756 51.0083 98.5674 51.0083C98.8243 51.0083 99.0708 51.1362 99.2526 51.3639C99.4344 51.5916 99.5368 51.9005 99.5372 52.2227Z" fill="white" stroke="#263238" stroke-linecap="round" stroke-linejoin="round"/>
<path d="M99.5372 55.4063C99.5372 55.6469 99.4803 55.8821 99.3737 56.0821C99.2672 56.2821 99.1157 56.438 98.9385 56.5301C98.7613 56.6222 98.5663 56.6463 98.3782 56.5993C98.1901 56.5524 98.0173 56.4366 97.8817 56.2664C97.7461 56.0963 97.6537 55.8796 97.6163 55.6436C97.5789 55.4077 97.5981 55.1631 97.6715 54.9408C97.7449 54.7186 97.8692 54.5286 98.0286 54.3949C98.1881 54.2613 98.3756 54.1899 98.5674 54.1899C98.8246 54.1899 99.0713 54.3181 99.2531 54.5462C99.435 54.7743 99.5372 55.0837 99.5372 55.4063Z" fill="white" stroke="#263238" stroke-linecap="round" stroke-linejoin="round"/>
<path d="M99.5372 58.588C99.5375 58.8286 99.4809 59.064 99.3745 59.2643C99.2681 59.4646 99.1168 59.6208 98.9396 59.7131C98.7624 59.8055 98.5674 59.8299 98.3792 59.7832C98.191 59.7364 98.018 59.6207 97.8822 59.4507C97.7465 59.2807 97.6539 59.0639 97.6164 58.8279C97.5789 58.5919 97.598 58.3473 97.6713 58.1249C97.7447 57.9025 97.869 57.7124 98.0285 57.5787C98.188 57.4449 98.3756 57.3735 98.5674 57.3735C98.8243 57.3735 99.0708 57.5014 99.2526 57.7291C99.4344 57.9568 99.5368 58.2657 99.5372 58.588Z" fill="white" stroke="#263238" stroke-linecap="round" stroke-linejoin="round"/>
<path d="M99.5372 61.7716C99.5372 62.0121 99.4803 62.2473 99.3737 62.4473C99.2672 62.6474 99.1157 62.8033 98.9385 62.8953C98.7613 62.9874 98.5663 63.0115 98.3782 62.9646C98.1901 62.9176 98.0173 62.8018 97.8817 62.6317C97.7461 62.4616 97.6537 62.2448 97.6163 62.0089C97.5789 61.7729 97.5981 61.5283 97.6715 61.3061C97.7449 61.0838 97.8692 60.8938 98.0286 60.7602C98.1881 60.6265 98.3756 60.5552 98.5674 60.5552C98.8246 60.5552 99.0713 60.6833 99.2531 60.9114C99.435 61.1396 99.5372 61.4489 99.5372 61.7716Z" fill="white" stroke="#263238" stroke-linecap="round" stroke-linejoin="round"/>
<path d="M99.5372 64.953C99.5372 65.1935 99.4803 65.4287 99.3737 65.6287C99.2672 65.8288 99.1157 65.9847 98.9385 66.0767C98.7613 66.1688 98.5663 66.1929 98.3782 66.146C98.1901 66.099 98.0173 65.9832 97.8817 65.8131C97.7461 65.6429 97.6537 65.4262 97.6163 65.1903C97.5789 64.9543 97.5981 64.7097 97.6715 64.4875C97.7449 64.2652 97.8692 64.0752 98.0286 63.9416C98.1881 63.8079 98.3756 63.7366 98.5674 63.7366C98.8246 63.7366 99.0713 63.8647 99.2531 64.0928C99.435 64.321 99.5372 64.6303 99.5372 64.953Z" fill="white" stroke="#263238" stroke-linecap="round" stroke-linejoin="round"/>
<path d="M100.743 50.4788H98.293V66.6079H100.743V50.4788Z" fill="white" stroke="#263238" stroke-linecap="round" stroke-linejoin="round"/>
<path d="M99.4766 50.5349V66.5516" stroke="#263238" stroke-linecap="round" stroke-linejoin="round"/>
<path d="M55.5323 53.4391C56.0678 53.4391 56.502 52.8945 56.502 52.2227C56.502 51.5509 56.0678 51.0063 55.5323 51.0063C54.9967 51.0063 54.5625 51.5509 54.5625 52.2227C54.5625 52.8945 54.9967 53.4391 55.5323 53.4391Z" fill="white" stroke="#263238" stroke-linecap="round" stroke-linejoin="round"/>
<path d="M55.5323 56.6227C56.0678 56.6227 56.502 56.0781 56.502 55.4063C56.502 54.7345 56.0678 54.1899 55.5323 54.1899C54.9967 54.1899 54.5625 54.7345 54.5625 55.4063C54.5625 56.0781 54.9967 56.6227 55.5323 56.6227Z" fill="white" stroke="#263238" stroke-linecap="round" stroke-linejoin="round"/>
<path d="M55.5323 59.8043C56.0678 59.8043 56.502 59.2597 56.502 58.588C56.502 57.9162 56.0678 57.3716 55.5323 57.3716C54.9967 57.3716 54.5625 57.9162 54.5625 58.588C54.5625 59.2597 54.9967 59.8043 55.5323 59.8043Z" fill="white" stroke="#263238" stroke-linecap="round" stroke-linejoin="round"/>
<path d="M55.5323 62.9879C56.0678 62.9879 56.502 62.4433 56.502 61.7716C56.502 61.0998 56.0678 60.5552 55.5323 60.5552C54.9967 60.5552 54.5625 61.0998 54.5625 61.7716C54.5625 62.4433 54.9967 62.9879 55.5323 62.9879Z" fill="white" stroke="#263238" stroke-linecap="round" stroke-linejoin="round"/>
<path d="M55.5323 66.1693C56.0678 66.1693 56.502 65.6247 56.502 64.953C56.502 64.2812 56.0678 63.7366 55.5323 63.7366C54.9967 63.7366 54.5625 64.2812 54.5625 64.953C54.5625 65.6247 54.9967 66.1693 55.5323 66.1693Z" fill="white" stroke="#263238" stroke-linecap="round" stroke-linejoin="round"/>
<path d="M54.5645 52.2227C54.5648 52.4635 54.5082 52.6989 54.4017 52.8993C54.2953 53.0996 54.1438 53.2558 53.9666 53.3481C53.7893 53.4404 53.5942 53.4647 53.4059 53.4178C53.2177 53.3709 53.0448 53.255 52.909 53.0848C52.7733 52.9146 52.6809 52.6976 52.6436 52.4615C52.6062 52.2254 52.6255 51.9806 52.6991 51.7583C52.7727 51.536 52.8972 51.346 53.057 51.2125C53.2167 51.079 53.4044 51.0079 53.5963 51.0083C53.853 51.0088 54.099 51.1369 54.2805 51.3646C54.462 51.5922 54.5641 51.9008 54.5645 52.2227Z" fill="white" stroke="#263238" stroke-linecap="round" stroke-linejoin="round"/>
<path d="M54.5645 55.4063C54.5645 55.647 54.5076 55.8822 54.401 56.0823C54.2943 56.2824 54.1428 56.4383 53.9655 56.5303C53.7882 56.6223 53.5932 56.6463 53.405 56.5992C53.2168 56.5521 53.044 56.4361 52.9085 56.2657C52.7729 56.0954 52.6807 55.8785 52.6434 55.6424C52.6062 55.4064 52.6256 55.1617 52.6993 54.9395C52.7729 54.7173 52.8974 54.5274 53.0571 54.394C53.2168 54.2606 53.4044 54.1896 53.5963 54.1899C53.7236 54.1899 53.8496 54.2214 53.9672 54.2826C54.0848 54.3437 54.1916 54.4334 54.2815 54.5463C54.3714 54.6593 54.4427 54.7934 54.4913 54.941C54.5398 55.0885 54.5647 55.2467 54.5645 55.4063Z" fill="white" stroke="#263238" stroke-linecap="round" stroke-linejoin="round"/>
<path d="M54.5645 58.588C54.5648 58.8287 54.5082 59.0642 54.4017 59.2645C54.2953 59.4648 54.1438 59.621 53.9666 59.7133C53.7893 59.8056 53.5942 59.8299 53.4059 59.783C53.2177 59.7361 53.0448 59.6203 52.909 59.45C52.7733 59.2798 52.6809 59.0629 52.6436 58.8267C52.6062 58.5906 52.6255 58.3459 52.6991 58.1235C52.7727 57.9012 52.8972 57.7112 53.057 57.5777C53.2167 57.4442 53.4044 57.3732 53.5963 57.3735C53.853 57.374 54.099 57.5022 54.2805 57.7298C54.462 57.9574 54.5641 58.266 54.5645 58.588Z" fill="white" stroke="#263238" stroke-linecap="round" stroke-linejoin="round"/>
<path d="M54.5645 61.7716C54.5645 62.0122 54.5076 62.2475 54.401 62.4475C54.2943 62.6476 54.1428 62.8035 53.9655 62.8955C53.7882 62.9875 53.5932 63.0115 53.405 62.9644C53.2168 62.9173 53.044 62.8013 52.9085 62.631C52.7729 62.4607 52.6807 62.2437 52.6434 62.0077C52.6062 61.7716 52.6256 61.5269 52.6993 61.3047C52.7729 61.0825 52.8974 60.8927 53.0571 60.7592C53.2168 60.6258 53.4044 60.5548 53.5963 60.5552C53.7236 60.5552 53.8496 60.5866 53.9672 60.6478C54.0848 60.709 54.1916 60.7986 54.2815 60.9116C54.3714 61.0245 54.4427 61.1586 54.4913 61.3062C54.5398 61.4538 54.5647 61.6119 54.5645 61.7716Z" fill="white" stroke="#263238" stroke-linecap="round" stroke-linejoin="round"/>
<path d="M54.5645 64.953C54.5645 65.1936 54.5076 65.4289 54.401 65.6289C54.2943 65.829 54.1428 65.9849 53.9655 66.0769C53.7882 66.1689 53.5932 66.1929 53.405 66.1458C53.2168 66.0987 53.044 65.9827 52.9085 65.8124C52.7729 65.6421 52.6807 65.4251 52.6434 65.1891C52.6062 64.953 52.6256 64.7083 52.6993 64.4861C52.7729 64.2639 52.8974 64.0741 53.0571 63.9406C53.2168 63.8072 53.4044 63.7362 53.5963 63.7366C53.8532 63.7371 54.0995 63.8655 54.281 64.0935C54.4626 64.3216 54.5645 64.6307 54.5645 64.953Z" fill="white" stroke="#263238" stroke-linecap="round" stroke-linejoin="round"/>
<path d="M55.7663 50.4788H53.3164V66.6079H55.7663V50.4788Z" fill="white" stroke="#263238" stroke-linecap="round" stroke-linejoin="round"/>
<path d="M54.5 50.5349V66.5516" stroke="#263238" stroke-linecap="round" stroke-linejoin="round"/>
<path d="M21.294 53.4391C21.8296 53.4391 22.2637 52.8945 22.2637 52.2227C22.2637 51.5509 21.8296 51.0063 21.294 51.0063C20.7584 51.0063 20.3242 51.5509 20.3242 52.2227C20.3242 52.8945 20.7584 53.4391 21.294 53.4391Z" fill="white" stroke="#263238" stroke-linecap="round" stroke-linejoin="round"/>
<path d="M21.294 56.6227C21.8296 56.6227 22.2637 56.0781 22.2637 55.4063C22.2637 54.7345 21.8296 54.1899 21.294 54.1899C20.7584 54.1899 20.3242 54.7345 20.3242 55.4063C20.3242 56.0781 20.7584 56.6227 21.294 56.6227Z" fill="white" stroke="#263238" stroke-linecap="round" stroke-linejoin="round"/>
<path d="M21.294 59.8043C21.8296 59.8043 22.2637 59.2597 22.2637 58.588C22.2637 57.9162 21.8296 57.3716 21.294 57.3716C20.7584 57.3716 20.3242 57.9162 20.3242 58.588C20.3242 59.2597 20.7584 59.8043 21.294 59.8043Z" fill="white" stroke="#263238" stroke-linecap="round" stroke-linejoin="round"/>
<path d="M21.294 62.9879C21.8296 62.9879 22.2637 62.4433 22.2637 61.7716C22.2637 61.0998 21.8296 60.5552 21.294 60.5552C20.7584 60.5552 20.3242 61.0998 20.3242 61.7716C20.3242 62.4433 20.7584 62.9879 21.294 62.9879Z" fill="white" stroke="#263238" stroke-linecap="round" stroke-linejoin="round"/>
<path d="M21.294 66.1693C21.8296 66.1693 22.2637 65.6247 22.2637 64.953C22.2637 64.2812 21.8296 63.7366 21.294 63.7366C20.7584 63.7366 20.3242 64.2812 20.3242 64.953C20.3242 65.6247 20.7584 66.1693 21.294 66.1693Z" fill="white" stroke="#263238" stroke-linecap="round" stroke-linejoin="round"/>
<path d="M19.3565 53.4391C19.8921 53.4391 20.3262 52.8945 20.3262 52.2227C20.3262 51.5509 19.8921 51.0063 19.3565 51.0063C18.8209 51.0063 18.3867 51.5509 18.3867 52.2227C18.3867 52.8945 18.8209 53.4391 19.3565 53.4391Z" fill="white" stroke="#263238" stroke-linecap="round" stroke-linejoin="round"/>
<path d="M19.3565 56.6227C19.8921 56.6227 20.3262 56.0781 20.3262 55.4063C20.3262 54.7345 19.8921 54.1899 19.3565 54.1899C18.8209 54.1899 18.3867 54.7345 18.3867 55.4063C18.3867 56.0781 18.8209 56.6227 19.3565 56.6227Z" fill="white" stroke="#263238" stroke-linecap="round" stroke-linejoin="round"/>
<path d="M19.3565 59.8043C19.8921 59.8043 20.3262 59.2597 20.3262 58.588C20.3262 57.9162 19.8921 57.3716 19.3565 57.3716C18.8209 57.3716 18.3867 57.9162 18.3867 58.588C18.3867 59.2597 18.8209 59.8043 19.3565 59.8043Z" fill="white" stroke="#263238" stroke-linecap="round" stroke-linejoin="round"/>
<path d="M19.3565 62.9879C19.8921 62.9879 20.3262 62.4433 20.3262 61.7716C20.3262 61.0998 19.8921 60.5552 19.3565 60.5552C18.8209 60.5552 18.3867 61.0998 18.3867 61.7716C18.3867 62.4433 18.8209 62.9879 19.3565 62.9879Z" fill="white" stroke="#263238" stroke-linecap="round" stroke-linejoin="round"/>
<path d="M19.3565 66.1693C19.8921 66.1693 20.3262 65.6247 20.3262 64.953C20.3262 64.2812 19.8921 63.7366 19.3565 63.7366C18.8209 63.7366 18.3867 64.2812 18.3867 64.953C18.3867 65.6247 18.8209 66.1693 19.3565 66.1693Z" fill="white" stroke="#263238" stroke-linecap="round" stroke-linejoin="round"/>
<path d="M21.532 50.4788H19.082V66.6079H21.532V50.4788Z" fill="white" stroke="#263238" stroke-linecap="round" stroke-linejoin="round"/>
<path d="M20.2617 50.5349V66.5516" stroke="#263238" stroke-linecap="round" stroke-linejoin="round"/>
<path d="M112.481 78.4943C113.017 78.4943 113.451 77.9497 113.451 77.2779C113.451 76.6061 113.017 76.0615 112.481 76.0615C111.946 76.0615 111.512 76.6061 111.512 77.2779C111.512 77.9497 111.946 78.4943 112.481 78.4943Z" fill="white" stroke="#263238" stroke-linecap="round" stroke-linejoin="round"/>
<path d="M109.946 78.4943C110.482 78.4943 110.916 77.9497 110.916 77.2779C110.916 76.6061 110.482 76.0615 109.946 76.0615C109.411 76.0615 108.977 76.6061 108.977 77.2779C108.977 77.9497 109.411 78.4943 109.946 78.4943Z" fill="white" stroke="#263238" stroke-linecap="round" stroke-linejoin="round"/>
<path d="M107.407 78.4943C107.943 78.4943 108.377 77.9497 108.377 77.2779C108.377 76.6061 107.943 76.0615 107.407 76.0615C106.872 76.0615 106.438 76.6061 106.438 77.2779C106.438 77.9497 106.872 78.4943 107.407 78.4943Z" fill="white" stroke="#263238" stroke-linecap="round" stroke-linejoin="round"/>
<path d="M104.872 78.4943C105.408 78.4943 105.842 77.9497 105.842 77.2779C105.842 76.6061 105.408 76.0615 104.872 76.0615C104.337 76.0615 103.902 76.6061 103.902 77.2779C103.902 77.9497 104.337 78.4943 104.872 78.4943Z" fill="white" stroke="#263238" stroke-linecap="round" stroke-linejoin="round"/>
<path d="M102.333 78.4943C102.869 78.4943 103.303 77.9497 103.303 77.2779C103.303 76.6061 102.869 76.0615 102.333 76.0615C101.797 76.0615 101.363 76.6061 101.363 77.2779C101.363 77.9497 101.797 78.4943 102.333 78.4943Z" fill="white" stroke="#263238" stroke-linecap="round" stroke-linejoin="round"/>
<path d="M112.481 76.0634C113.017 76.0634 113.451 75.5188 113.451 74.847C113.451 74.1752 113.017 73.6306 112.481 73.6306C111.946 73.6306 111.512 74.1752 111.512 74.847C111.512 75.5188 111.946 76.0634 112.481 76.0634Z" fill="white" stroke="#263238" stroke-linecap="round" stroke-linejoin="round"/>
<path d="M109.946 76.0634C110.482 76.0634 110.916 75.5188 110.916 74.847C110.916 74.1752 110.482 73.6306 109.946 73.6306C109.411 73.6306 108.977 74.1752 108.977 74.847C108.977 75.5188 109.411 76.0634 109.946 76.0634Z" fill="white" stroke="#263238" stroke-linecap="round" stroke-linejoin="round"/>
<path d="M107.407 76.0634C107.943 76.0634 108.377 75.5188 108.377 74.847C108.377 74.1752 107.943 73.6306 107.407 73.6306C106.872 73.6306 106.438 74.1752 106.438 74.847C106.438 75.5188 106.872 76.0634 107.407 76.0634Z" fill="white" stroke="#263238" stroke-linecap="round" stroke-linejoin="round"/>
<path d="M104.872 76.0634C105.408 76.0634 105.842 75.5188 105.842 74.847C105.842 74.1752 105.408 73.6306 104.872 73.6306C104.337 73.6306 103.902 74.1752 103.902 74.847C103.902 75.5188 104.337 76.0634 104.872 76.0634Z" fill="white" stroke="#263238" stroke-linecap="round" stroke-linejoin="round"/>
<path d="M102.333 76.0634C102.869 76.0634 103.303 75.5188 103.303 74.847C103.303 74.1752 102.869 73.6306 102.333 73.6306C101.797 73.6306 101.363 74.1752 101.363 74.847C101.363 75.5188 101.797 76.0634 102.333 76.0634Z" fill="white" stroke="#263238" stroke-linecap="round" stroke-linejoin="round"/>
<path d="M113.871 77.5747V74.5017H101.012V77.5747H113.871Z" fill="white" stroke="#263238" stroke-linecap="round" stroke-linejoin="round"/>
<path d="M113.828 75.9839H101.059" stroke="#263238" stroke-linecap="round" stroke-linejoin="round"/>
<path d="M96.1602 88.4019H113.272" stroke="#263238" stroke-miterlimit="10"/>
<path d="M5.03906 88.4019H94.8957" stroke="#263238" stroke-miterlimit="10"/>
<path d="M78.7847 36.1694L77.4484 41.1998L76.9519 41.2619L76.6549 41.8827L74.0859 39.5236V44.8024L77.552 47.0993C77.9577 46.9229 78.3543 46.7155 78.7399 46.4785C79.0863 46.2302 79.6802 35.114 79.6802 35.114L78.7847 36.1694Z" fill="#EF233C" stroke="#263238" stroke-linecap="round" stroke-linejoin="round"/>
<path d="M87.1275 86.2737C87.1275 86.2737 88.0555 89.9597 88.0199 90.5591C87.9843 91.1586 87.8343 91.306 87.5729 91.3992C87.3115 91.4923 85.4942 91.306 85.4942 91.306L85.3828 86.553L87.1275 86.2737Z" fill="white" stroke="#263238" stroke-linecap="round" stroke-linejoin="round"/>
<path d="M88.0217 90.5592V90.5029C87.2267 90.5534 85.9739 90.6465 85.4805 90.6833L85.4959 91.3061C85.4959 91.3061 87.3148 91.5001 87.5747 91.3992C87.8345 91.2983 87.9845 91.1645 88.0217 90.5592Z" fill="white" stroke="#263238" stroke-linecap="round" stroke-linejoin="round"/>
<path d="M86.3502 81.6623C86.3502 81.6623 86.4244 83.2939 86.8698 84.5976C87.3153 85.9012 87.3153 86.2737 87.0926 86.5531C86.8698 86.8324 85.8676 87.0206 85.4593 87.1137C85.051 87.2069 85.1623 85.5753 85.1623 84.551C85.1623 83.5267 86.0532 81.383 86.3502 81.6623Z" fill="#EF233C" stroke="#263238" stroke-linecap="round" stroke-linejoin="round"/>
<path d="M81.4471 85.4355C81.4471 85.4355 80.5547 87.0205 80.035 87.5792C79.5153 88.138 78.6987 88.7898 77.8078 89.4882C76.9169 90.1866 76.9525 90.1866 77.0267 90.6522C77.101 91.1178 77.6222 91.5388 78.1094 91.5388H85.7592C85.7592 91.5388 86.3531 91.2594 86.1675 89.6279C85.9819 87.9963 85.7963 85.7615 85.7963 85.7615L81.4471 85.4355Z" fill="white" stroke="#263238" stroke-linecap="round" stroke-linejoin="round"/>
<path d="M86.1508 90.8015C84.6676 90.8287 79.7213 90.9102 78.5892 90.7918C78.0439 90.7319 77.5078 90.5779 76.9961 90.334C76.9955 90.4414 77.0064 90.5484 77.0286 90.6521C77.1028 91.1177 77.6241 91.5387 78.1113 91.5387H85.7611C85.7611 91.5387 86.0333 91.4068 86.1508 90.8015Z" fill="white" stroke="#263238" stroke-linecap="round" stroke-linejoin="round"/>
<path d="M79.6777 30.8905C79.6777 30.8905 78.9353 33.8703 78.7868 35.6105C78.6383 37.3507 77.7969 46.3542 77.5494 47.8461C77.302 49.338 77.8 49.4699 77.8 49.4699C77.8 49.4699 77.8495 53.5691 77.701 55.3073C77.5525 57.0456 78.1959 66.053 78.5424 70.0281C78.8888 74.0031 79.7797 75.0585 79.9777 76.1138C80.1757 77.1692 81.563 81.9513 81.563 82.1278C81.563 82.3044 82.058 83.6197 81.9095 83.9301C81.761 84.2405 81.2661 83.9922 81.2661 84.6751C81.2661 85.3579 81.2166 85.9167 81.2166 85.9167C81.2166 85.9167 83.4438 86.8498 84.2867 87.036C84.745 87.1511 85.2151 87.1721 85.6787 87.0981C85.9375 86.598 86.1376 86.0537 86.2726 85.4821C86.5287 84.5476 86.6298 83.5573 86.5696 82.5721C86.5201 81.701 86.3716 80.149 86.3716 79.6621V77.2216C86.3716 76.4766 86.4211 74.5521 86.4211 74.5521L87.2625 62.9374C87.312 62.2545 87.4605 61.1914 87.609 60.7646C87.7574 60.3378 88.6916 56.0445 88.6499 53.994C88.6081 51.9434 88.4024 49.8327 88.4024 49.8327C88.4024 49.8327 88.7983 48.5911 88.6994 46.4784C88.6004 44.3657 88.5014 40.7651 88.5014 40.5789C88.5014 40.3926 88.7489 34.2448 87.8085 31.6975C86.8681 29.1503 84.4414 27.6604 84.4414 27.6604L79.6777 30.8905Z" fill="#EF233C" stroke="#263238" stroke-linecap="round" stroke-linejoin="round"/>
<path d="M85.8618 28.8206C85.2431 28.8477 83.9037 29.1892 82.6989 31.3872C81.0656 34.369 80.7686 37.8454 80.7686 38.2179C80.7686 38.5904 80.2227 50.081 80.2227 50.081L81.808 50.6339C81.808 50.6339 81.8575 41.1279 82.5009 37.2809C83.1443 33.4339 84.0352 31.7538 84.9756 30.9468C85.6437 30.3648 86.5346 30.2077 86.9955 30.1592C86.6532 29.6678 86.2735 29.2194 85.8618 28.8206Z" fill="white" stroke="#263238" stroke-linecap="round" stroke-linejoin="round"/>
<path d="M80.6647 38.7165L78.5365 38.28L78.2891 41.0135L80.6647 41.5101V38.7165Z" fill="white" stroke="#263238" stroke-linecap="round" stroke-linejoin="round"/>
<path d="M80.1724 29.3367C80.1724 29.3367 78.6876 30.5802 78.5886 30.9527C78.4897 31.3252 78.2422 33.4359 78.2422 33.4359L80.3704 31.6899L80.1724 29.3367Z" fill="#EF233C" stroke="#263238" stroke-linecap="round" stroke-linejoin="round"/>
<path d="M76.3993 21.8307C76.3993 21.8307 76.1858 22.8899 76.2446 23.0859C76.3034 23.2818 76.8633 24.0772 76.8633 24.0772C76.8633 24.0772 76.1271 25.5633 76.3343 26.0172C76.5416 26.4712 77.0597 26.3412 77.0597 26.3412C77.0597 26.3412 77.5763 28.7448 78.1981 28.9388C78.8198 29.1328 79.2807 28.4849 79.2807 28.4849L80.3634 30.4249L83.8821 26.6593L83.4691 24.7193C83.4691 24.7193 83.8821 23.0315 83.8821 21.6018C83.8821 20.172 83.7274 19.72 83.7274 19.72L76.3034 21.5067L76.3993 21.8307Z" fill="white" stroke="#263238" stroke-linecap="round" stroke-linejoin="round"/>
<path d="M83.7247 19.72L79.1497 21.1071L79.1172 21.2778C79.1172 21.2778 79.1172 21.9277 79.4265 22.2478C79.7359 22.5679 80.3066 22.5718 80.3066 22.5718C80.3066 22.5718 80.3066 23.4176 80.7706 23.0917C81.2346 22.7658 80.7706 21.9878 81.5439 21.8579C82.3172 21.7279 82.6838 22.5078 82.4719 23.4099C82.26 24.312 81.9027 24.6417 81.9027 24.6417C81.9027 24.6417 82.9375 24.9677 83.4494 24.7077C83.4494 24.7077 83.8624 23.0199 83.8624 21.5901C83.8624 20.1604 83.7247 19.72 83.7247 19.72Z" fill="#263238" stroke="#263238" stroke-linecap="round" stroke-linejoin="round"/>
<path d="M77.6599 23.7106C77.7342 23.9628 77.7295 24.1975 77.6491 24.2344C77.5687 24.2712 77.4434 24.0966 77.3691 23.8464C77.2949 23.5961 77.2995 23.3594 77.38 23.3226C77.4604 23.2857 77.5857 23.4584 77.6599 23.7106Z" fill="#263238"/>
<path d="M77.4375 24.3701C77.4375 24.3701 77.671 24.8842 78.4908 24.7756" stroke="#263238" stroke-linecap="round" stroke-linejoin="round"/>
<path d="M77.0465 26.3413C76.9831 26.5183 76.956 26.7123 76.9676 26.9058C76.9607 26.9837 76.9668 27.0625 76.9857 27.1372C77.0046 27.2119 77.0357 27.2808 77.0771 27.3395C77.1184 27.3981 77.1692 27.4453 77.226 27.4778C77.2828 27.5104 77.3444 27.5277 77.4068 27.5286C77.6404 27.5286 78.754 27.934 78.8406 27.3094C78.9272 26.6847 78.5777 26.5334 78.109 26.1706C77.6404 25.8078 77.1238 26.3297 77.0465 26.3413Z" fill="#263238" stroke="#263238" stroke-linecap="round" stroke-linejoin="round"/>
<path d="M75.5434 20.6415C75.5434 20.6415 75.5434 20.9228 75.1722 21.6678C74.801 22.4128 73.9844 23.344 73.9844 23.344C73.9844 23.344 77.1025 23.15 77.9949 22.599C78.8873 22.048 80.0055 21.3884 80.3706 21.2953C80.7356 21.2022 84.3084 20.1759 84.3084 20.1759L83.7129 18.9654L82.9922 15.9739C82.9133 15.6416 82.7685 15.3399 82.5713 15.0969C82.3741 14.854 82.1309 14.6778 81.8646 14.5849C80.9217 14.2447 79.9332 14.1503 78.96 14.3074C77.0282 14.6799 75.6919 15.9836 75.4692 17.2892C75.2465 18.5948 75.5434 20.6415 75.5434 20.6415Z" fill="white" stroke="#263238" stroke-linecap="round" stroke-linejoin="round"/>
<path d="M83.8292 25.6738C83.8292 25.6738 79.3238 30.8905 79.2248 31.0767C79.1258 31.263 80.2719 33.653 80.2719 33.653L85.0666 27.5983L83.8292 25.6738Z" fill="#EF233C" stroke="#263238" stroke-linecap="round" stroke-linejoin="round"/>
<path d="M72.2301 36.4719C72.2301 36.4719 71.6872 36.4214 71.63 36.8385C71.5728 37.2556 72.0167 38.4604 72.3724 38.5516C72.7282 38.6427 72.7993 38.4487 72.7699 38.2547C72.7405 38.0607 72.2301 36.4719 72.2301 36.4719Z" fill="white" stroke="#263238" stroke-linecap="round" stroke-linejoin="round"/>
<path d="M72.8774 36.2526C72.8774 36.2526 72.35 36.0838 72.2294 36.4718C72.1087 36.8598 72.367 38.1538 72.7027 38.3284C73.0383 38.503 73.1373 38.3284 73.1373 38.1344C73.1373 37.9404 72.8774 36.2526 72.8774 36.2526Z" fill="white" stroke="#263238" stroke-linecap="round" stroke-linejoin="round"/>
<path d="M73.4698 36.7087C73.4698 36.7087 73.1976 35.8551 72.8805 36.2528C72.5634 36.6505 72.9254 37.6768 73.0615 38.0745C73.1976 38.4722 73.561 38.5867 73.561 37.8475C73.5689 37.4646 73.5382 37.082 73.4698 36.7087Z" fill="white" stroke="#263238" stroke-linecap="round" stroke-linejoin="round"/>
<path d="M73.9689 36.8697C73.9689 36.8697 73.4956 38.057 73.6595 38.4527C73.8235 38.8485 74.074 38.6467 74.2906 38.2587C74.5071 37.8707 74.8041 37.1452 74.7051 36.6757C74.6061 36.2062 74.1467 36.4235 73.9689 36.8697Z" fill="white" stroke="#263238" stroke-linecap="round" stroke-linejoin="round"/>
<path d="M73.7759 34.4952C73.697 34.9215 73.6555 35.3573 73.6522 35.795L73.6367 38.0085L73.7914 37.9833L73.9337 35.8202C73.9584 35.4646 73.9584 35.1069 73.9337 34.7513L73.9136 34.5068C73.9083 34.4902 73.8993 34.4759 73.8878 34.4654C73.8763 34.4549 73.8626 34.4487 73.8484 34.4475C73.8342 34.4463 73.82 34.4501 73.8075 34.4585C73.7949 34.467 73.7845 34.4797 73.7775 34.4952H73.7759Z" fill="white" stroke="#263238" stroke-linecap="round" stroke-linejoin="round"/>
<path d="M74.9734 41.5722L73.9835 37.473L69.4766 36.9763L71.9033 44.7402L75.9633 45.8576L74.9734 41.5722Z" fill="#263238" stroke="#263238" stroke-linecap="round" stroke-linejoin="round"/>
<path d="M70.9526 37.2131L71.3609 38.2025L72.8039 38.3053L72.5317 37.3838L72.1234 37.281L72.0414 36.9745L72.3678 37.0424V36.666L70.8984 36.5981L70.9804 36.9396H71.4429V37.2461L70.9526 37.2131Z" fill="white" stroke="#263238" stroke-linecap="round" stroke-linejoin="round"/>
<path d="M77.4175 43.8807C77.4175 43.8807 76.6009 43.0271 76.5545 42.8564C76.5081 42.6857 76.191 42.288 75.9188 41.8864C75.6466 41.4848 74.7851 40.9766 74.7851 40.9766L75.1022 42.2279C75.1022 42.2279 73.8772 41.7739 73.605 41.7739C73.3328 41.7739 73.3328 42.1153 73.3776 42.6838C73.4003 42.8588 73.458 43.0238 73.5454 43.1633C73.6327 43.3028 73.7469 43.4121 73.8772 43.4811C73.8998 43.7332 73.9454 43.9812 74.0133 44.2202C74.1494 44.7906 74.1943 45.3028 74.649 45.6442C75.1037 45.9856 75.3744 45.9856 75.7827 45.9856C76.0577 45.9802 76.3317 45.9419 76.6009 45.8712L77.4624 46.1564L77.4175 43.8807Z" fill="white" stroke="#263238" stroke-linecap="round" stroke-linejoin="round"/>
<path d="M84.878 34.431C84.5637 35.0127 84.3445 35.6668 84.233 36.3555C84.0351 37.535 83.9361 43.5606 83.9361 43.5606C83.9361 43.5606 83.3421 43.4365 83.2927 43.6848C83.2432 43.9331 83.1937 44.2435 83.1937 44.2435L77.2019 43.6848L77.0039 47.3494C77.0039 47.3494 81.6099 48.4048 83.2927 48.7074C84.9754 49.0101 86.4618 49.3903 87.1052 48.6454C87.7486 47.9004 88.3425 42.6197 88.542 40.7573C88.7416 38.8949 89.1855 35.789 88.839 33.9246C88.4925 32.0603 87.4021 31.2552 86.9072 31.1931" fill="#EF233C"/>
<path d="M84.878 34.431C84.5637 35.0127 84.3445 35.6668 84.233 36.3555C84.0351 37.535 83.9361 43.5606 83.9361 43.5606C83.9361 43.5606 83.3421 43.4365 83.2927 43.6848C83.2432 43.9331 83.1937 44.2435 83.1937 44.2435L77.2019 43.6848L77.0039 47.3494C77.0039 47.3494 81.6099 48.4048 83.2927 48.7074C84.9754 49.0101 86.4618 49.3903 87.1052 48.6454C87.7486 47.9004 88.3425 42.6197 88.542 40.7573C88.7416 38.8949 89.1855 35.789 88.839 33.9246C88.4925 32.0603 87.4021 31.2552 86.9072 31.1931" stroke="#263238" stroke-linecap="round" stroke-linejoin="round"/>
<path d="M83.3398 44.1194C83.3398 44.1194 83.3398 44.8643 84.0327 45.9818" stroke="#263238" stroke-linecap="round" stroke-linejoin="round"/>
<path d="M84.1836 43.9331C84.1836 43.9331 84.2841 44.0573 84.9275 44.2435" stroke="#263238" stroke-linecap="round" stroke-linejoin="round"/>
<path d="M87.9451 50.019C87.9451 50.019 87.1022 50.4536 85.0234 50.4536" stroke="#263238" stroke-linecap="round" stroke-linejoin="round"/>
<path d="M88.5402 54.1802C87.8542 54.3628 87.1592 54.4873 86.4599 54.5527L85.5195 54.6147C85.5195 54.6147 85.866 58.5277 86.064 59.2707C86.2619 60.0138 87.0538 60.2019 87.0538 60.2019" stroke="#263238" stroke-linecap="round" stroke-linejoin="round"/>
<path d="M79.3125 58.4639C79.5337 59.9441 79.7765 61.6435 79.8755 62.565C80.0735 64.4274 79.8755 69.0233 80.123 71.0739C80.3704 73.1244 80.8669 76.7872 81.1144 78.2169C81.3618 79.6467 81.8568 82.6887 81.8568 82.6887L81.9063 83.9302" stroke="#263238" stroke-linecap="round" stroke-linejoin="round"/>
<path d="M78.8828 55.678C78.8828 55.678 79.005 56.454 79.1659 57.5132" stroke="#263238" stroke-linecap="round" stroke-linejoin="round"/>
<path d="M44.692 20.6746L43.8445 23.5981L42.2344 23.8096L42.2777 24.4479L43.7594 24.5546L45.1158 26.3607L45.4963 26.0425L44.4801 23.8096L45.0725 20.888L44.692 20.6746Z" fill="#263238" stroke="#263238" stroke-linecap="round" stroke-linejoin="round"/>
<path d="M44.609 23.9434C44.609 24.5739 44.3631 25.0861 44.0584 25.0861C43.7537 25.0861 43.5078 24.5739 43.5078 23.9434C43.5078 23.3129 43.7537 22.8008 44.0584 22.8008C44.3631 22.8008 44.609 23.311 44.609 23.9434Z" fill="#263238" stroke="#263238" stroke-linecap="round" stroke-linejoin="round"/>
<path d="M44.0785 19.2935C42.6633 19.2935 41.5156 21.3402 41.5156 23.8641C41.5156 26.388 42.6633 28.4328 44.0785 28.4328C45.4937 28.4328 46.6413 26.3842 46.6413 23.8622C46.6413 21.3402 45.4937 19.2935 44.0785 19.2935ZM44.0785 26.7857C43.1721 26.7857 42.439 25.4782 42.439 23.8641C42.439 22.25 43.1721 20.9405 44.0785 20.9405C44.9848 20.9405 45.7179 22.25 45.7179 23.8641C45.7179 25.4782 44.9833 26.7857 44.0785 26.7857Z" fill="#263238" stroke="#263238" stroke-linecap="round" stroke-linejoin="round"/>
<path d="M39.707 24.5431C39.707 24.5431 40.533 22.3451 40.635 22.0871C40.7371 21.8291 41.7703 20.0811 41.925 19.8871C42.0796 19.6931 42.8282 19.8251 42.8282 19.8251C42.8282 19.8251 42.2853 20.6631 42.2343 20.8571C42.1832 21.0511 42.5947 22.3451 42.027 23.1851C41.4594 24.0252 40.4804 26.0951 40.4804 26.0951L39.707 24.5431Z" fill="white" stroke="#263238" stroke-linecap="round" stroke-linejoin="round"/>
<path d="M41.4103 21.8269L42.2362 20.8569C42.2362 20.8569 43.7829 20.2109 43.7829 20.5989C43.7829 20.9869 43.3189 21.3109 42.957 21.6329C42.5951 21.955 42.2362 22.2149 42.2362 22.2149C42.2362 22.2149 42.5966 23.3789 41.7196 23.9609C40.8427 24.5429 40.5859 24.5429 40.5859 24.5429" fill="white"/>
<path d="M41.4103 21.8269L42.2362 20.8569C42.2362 20.8569 43.7829 20.2109 43.7829 20.5989C43.7829 20.9869 43.3189 21.3109 42.957 21.6329C42.5951 21.955 42.2362 22.2149 42.2362 22.2149C42.2362 22.2149 42.5966 23.3789 41.7196 23.9609C40.8427 24.5429 40.5859 24.5429 40.5859 24.5429" stroke="#263238" stroke-linecap="round" stroke-linejoin="round"/>
<path d="M31.5117 30.5571L34.6576 31.1391L39.5544 24.0911L41.2047 26.4191C41.2047 26.4191 37.2344 33.921 36.823 35.0191C36.4116 36.1171 36.0496 36.3131 35.5331 36.443C35.0165 36.573 32.1304 35.9251 32.1304 35.9251L31.5117 30.5571Z" fill="#EF233C" stroke="#263238" stroke-linecap="round" stroke-linejoin="round"/>
<path d="M37.391 27.325L39.5563 29.459L38.7304 31.205L36.3594 28.811L37.391 27.325Z" fill="white" stroke="#263238" stroke-linecap="round" stroke-linejoin="round"/>
<path d="M32.3261 20.1761C32.3261 20.1761 32.8907 20.9929 32.9139 21.1927C32.9371 21.3925 32.7236 22.411 32.7236 22.411C32.7236 22.411 33.9006 23.3131 33.879 23.8292C33.8573 24.3452 33.3547 24.5217 33.3547 24.5217C33.3547 24.5217 33.7491 26.9312 33.2711 27.4492C32.7932 27.9672 31.9859 27.9303 31.9859 27.9303L31.8807 29.9809L27.4371 28.6229L27.1123 26.6713C27.1123 26.6713 26.1472 25.4122 25.6399 24.1493C25.1326 22.8863 25.1094 22.4033 25.1094 22.4033L32.3014 19.8328L32.3261 20.1761Z" fill="white" stroke="#263238" stroke-linecap="round" stroke-linejoin="round"/>
<path d="M25.1016 22.3955L29.6318 21.0647L29.7215 21.1986C29.7215 21.1986 29.9519 21.7806 29.7926 22.2326C29.6333 22.6846 29.1306 23.0086 29.1306 23.0086C29.1306 23.0086 29.4307 23.7535 28.9048 23.7264C28.379 23.6992 28.512 22.7564 27.7804 23.0707C27.0488 23.3849 27.0071 24.2793 27.5113 24.966C28.0155 25.6528 28.4516 25.742 28.4516 25.742C28.4516 25.742 27.6536 26.6073 27.1045 26.6655C27.1045 26.6655 26.1394 25.4064 25.6321 24.1435C25.1248 22.8805 25.1016 22.3955 25.1016 22.3955Z" fill="#263238" stroke="#263238" stroke-linecap="round" stroke-linejoin="round"/>
<path d="M32.6479 18.6415C32.6479 18.6415 32.7484 18.8879 33.3408 19.338C33.9332 19.7881 34.9849 20.1547 34.9849 20.1547C34.9849 20.1547 32.1684 21.7281 31.1786 21.7378C30.1887 21.7475 28.9792 21.7882 28.6173 21.9124C28.2554 22.0365 24.7506 23.1229 24.7506 23.1229L24.845 21.7223L24.4196 18.6784C24.3717 18.3412 24.3926 17.9942 24.4805 17.6699C24.5684 17.3455 24.7204 17.0545 24.9223 16.8238C25.6342 15.9961 26.4738 15.3603 27.3892 14.9555C29.2251 14.2067 30.8692 14.6122 31.5281 15.6384C32.187 16.6647 32.6479 18.6415 32.6479 18.6415Z" fill="white" stroke="#263238" stroke-linecap="round" stroke-linejoin="round"/>
<path d="M28.4188 23.1832L31.4024 22.8514L31.3374 22.0366L28.1992 22.9872L28.4188 23.1832Z" fill="#263238" stroke="#263238" stroke-linecap="round" stroke-linejoin="round"/>
<path d="M31.2035 22.504C31.2307 22.6422 31.2929 22.7656 31.3807 22.8558C31.4685 22.9461 31.5773 22.9982 31.6907 23.0045L33.01 23.0821C33.0472 23.0844 33.0843 23.0765 33.1188 23.059C33.1533 23.0414 33.1843 23.0146 33.2096 22.9804C33.235 22.9462 33.2541 22.9054 33.2655 22.861C33.277 22.8166 33.2806 22.7696 33.276 22.7232L33.2992 22.6572C33.3604 22.4812 33.3822 22.2877 33.3623 22.0973C33.3424 21.9069 33.2816 21.727 33.1863 21.5767L33.16 21.5359C33.1558 21.49 33.1436 21.4458 33.1245 21.4063C33.1053 21.3668 33.0796 21.333 33.049 21.3072C33.0184 21.2814 32.9838 21.2642 32.9474 21.2568C32.911 21.2494 32.8738 21.252 32.8383 21.2643L31.5747 21.7047C31.4418 21.7507 31.3286 21.8601 31.2592 22.0094C31.1898 22.1588 31.1698 22.3363 31.2035 22.504Z" fill="#263238" stroke="#263238" stroke-linecap="round" stroke-linejoin="round"/>
<path d="M26.46 86.8171C26.46 86.8171 26.2017 88.9511 26.2528 90.051C26.3038 91.151 26.46 91.345 26.46 91.345H33.9861C33.9861 91.345 33.9861 90.051 33.42 89.405C32.8255 88.7734 32.1868 88.2104 31.5114 87.723C30.9964 87.335 29.8101 86.301 29.8101 86.301L26.46 86.8171Z" fill="white" stroke="#263238" stroke-linecap="round" stroke-linejoin="round"/>
<path d="M28.1592 68.7749C28.1592 68.7749 28.2103 72.9789 27.7973 74.7889C27.3844 76.5989 26.3032 80.0929 26.2507 82.4849C26.1981 84.8769 26.1486 87.7229 26.3032 87.7229C26.4579 87.7229 26.7672 87.9169 27.1276 87.8529C27.488 87.7888 28.5707 87.7229 28.5707 87.7229L29.1893 87.5929V84.4249C29.1893 81.5789 28.4686 79.1869 28.5707 76.7289C28.6727 74.2709 29.7059 72.6549 29.1893 70.2629C28.6727 67.8709 28.1592 67.9349 28.1592 68.7749Z" fill="#EF233C" stroke="#263238" stroke-linecap="round" stroke-linejoin="round"/>
<path d="M33.5207 86.623C33.5207 86.623 34.5012 87.917 34.9652 88.175C35.4292 88.433 37.2852 89.339 37.4399 89.469C37.5946 89.599 38.3679 90.115 38.3679 90.633C38.3677 90.9453 38.315 91.254 38.2132 91.539H28.8807C28.7353 91.1336 28.6818 90.6859 28.726 90.245C28.7786 89.405 28.9332 87.529 28.9332 87.529C28.9332 87.529 29.8612 86.235 31.046 85.977C32.2307 85.719 33.5207 86.623 33.5207 86.623Z" fill="white" stroke="#263238" stroke-linecap="round" stroke-linejoin="round"/>
<path d="M28.8829 91.5389H38.2154C38.2955 91.3134 38.3451 91.0728 38.3624 90.8269H28.7344C28.7487 91.0736 28.799 91.315 28.8829 91.5389Z" fill="white" stroke="#263238" stroke-linecap="round" stroke-linejoin="round"/>
<path d="M26.8198 29.2649C26.8198 29.2649 25.3768 31.2689 24.5508 33.6609C23.7249 36.053 23.8811 40.7749 24.1905 42.1969C24.4998 43.619 25.0148 45.3009 24.9128 46.9189C24.8107 48.5369 24.3451 49.5049 24.6545 50.2169C24.8396 50.6424 25.0462 51.0526 25.2731 51.4449C25.2731 51.4449 24.6545 53.6429 25.0674 55.6489C25.4804 57.6549 25.9428 59.7229 26.6651 60.1749L27.3874 60.6269C27.3874 60.6269 27.7478 65.7369 28.1608 68.7749C28.5737 71.813 28.6248 74.1429 27.8514 76.4709C27.0781 78.7989 28.0061 82.4849 28.2118 83.5849C28.4197 84.7097 28.5404 85.857 28.5722 87.0109C28.5722 87.8529 28.0571 87.9809 28.7268 88.4989C29.3965 89.0169 29.5528 89.1449 30.0168 88.8229C30.4808 88.5009 32.5425 87.3349 32.9028 87.2709C33.2632 87.2069 33.8308 87.5929 34.0381 86.6229C34.2453 85.6529 33.7288 84.1009 33.6251 83.7129C33.5215 83.3249 33.1101 82.0969 33.1101 81.5149C33.1101 80.9329 33.5215 75.0489 34.3474 72.3969C35.1733 69.7449 35.1718 66.1249 35.1718 63.9909C35.1718 61.8569 35.7394 58.0409 35.7905 57.6529C35.8415 57.2649 36.4091 53.5149 36.4602 50.9269C36.5171 48.7059 36.3265 46.4859 35.8941 44.3309C35.5322 42.6509 35.2754 40.8389 35.2754 40.8389C35.2754 40.8389 33.8834 33.9209 33.0065 32.5629C32.1295 31.2049 32.2842 31.3989 30.9448 30.7509C29.6053 30.103 26.8198 29.2649 26.8198 29.2649Z" fill="#EF233C" stroke="#263238" stroke-linecap="round" stroke-linejoin="round"/>
<path d="M25.789 30.881C25.789 30.881 27.2846 30.299 29.6046 30.493C31.9246 30.687 32.9036 32.433 33.3676 33.273C33.8316 34.113 35.069 41.8749 35.2762 44.331C35.3972 45.6185 35.4489 46.9148 35.4309 48.211L34.7086 48.729C34.7086 48.729 34.605 44.849 34.2446 41.4869C33.8842 38.1249 33.213 34.3089 31.9246 32.691C30.6362 31.073 28.9349 31.075 28.0579 31.2049C27.181 31.3349 25.0156 32.627 25.0156 32.627L25.789 30.881Z" fill="white" stroke="#263238" stroke-linecap="round" stroke-linejoin="round"/>
<path d="M26.8863 27.7771L32.2223 29.7171L32.8796 32.1421L26.4609 29.4261L26.8863 27.7771Z" fill="#EF233C" stroke="#263238" stroke-linecap="round" stroke-linejoin="round"/>
<path d="M30.4264 39.353C30.4264 39.353 28.5704 40.2571 26.9727 40.775" stroke="#263238" stroke-linecap="round" stroke-linejoin="round"/>
<path d="M31.4089 39.1589C31.4089 39.1589 29.8096 40.581 27.8516 42.2629" stroke="#263238" stroke-linecap="round" stroke-linejoin="round"/>
<path d="M27.7199 44.1506C27.3284 44.5616 26.9069 44.9254 26.4609 45.237" stroke="#263238" stroke-linecap="round" stroke-linejoin="round"/>
<path d="M30.4794 40.905C30.4794 40.905 29.3086 42.457 28.0898 43.7626" stroke="#263238" stroke-linecap="round" stroke-linejoin="round"/>
<path d="M31.6914 46.7541C31.9436 46.3759 32.1766 45.978 32.389 45.563" stroke="#263238" stroke-linecap="round" stroke-linejoin="round"/>
<path d="M28.0586 50.0229C28.0586 50.0229 29.3996 50.1509 29.9146 49.3749C30.1698 48.9869 30.6647 48.2905 31.1519 47.563" stroke="#263238" stroke-linecap="round" stroke-linejoin="round"/>
<path d="M28.8555 50.6475C29.4556 50.5428 29.9938 50.4031 30.2753 50.2169C31.1523 49.6349 31.9256 48.4709 31.9256 48.2769" stroke="#263238" stroke-linecap="round" stroke-linejoin="round"/>
<path d="M26.0469 50.927C26.0469 50.927 27.0971 50.8863 28.1766 50.7485" stroke="#263238" stroke-linecap="round" stroke-linejoin="round"/>
<path d="M29.9814 56.3921C30.0417 57.4455 30.085 59.0576 29.8112 59.3991C29.3998 59.9171 28.0078 59.9171 28.0078 59.9171" stroke="#263238" stroke-linecap="round" stroke-linejoin="round"/>
<path d="M29.9141 55.4551C29.9141 55.4551 29.9295 55.6142 29.9481 55.8722" stroke="#263238" stroke-linecap="round" stroke-linejoin="round"/>
<path d="M31.7695 49.6991C31.7695 49.6991 33.5219 49.2471 34.3478 48.5991" stroke="#263238" stroke-linecap="round" stroke-linejoin="round"/>
<path d="M33.2637 25.2549C33.2637 25.2549 32.5924 25.513 32.3867 25.1909" stroke="#263238" stroke-linecap="round" stroke-linejoin="round"/>
<path d="M34.954 53.8642C34.7994 53.2375 34.6602 52.803 34.6602 52.803" stroke="#263238" stroke-linecap="round" stroke-linejoin="round"/>
<path d="M35.2234 61.5969C35.2234 61.5969 35.3781 58.2989 35.3781 56.6829C35.3627 56.0154 35.2844 55.3524 35.1445 54.708" stroke="#263238" stroke-linecap="round" stroke-linejoin="round"/>
<path d="M44.0399 29.3931C44.0127 28.8116 44.0127 28.2286 44.0399 27.6471C44.0925 27.0651 44.6076 26.0951 44.7112 25.385C44.8148 24.675 44.6076 24.027 45.0205 24.027C45.4335 24.027 45.2773 25.3191 45.2773 25.3191C45.2773 25.3191 45.9996 24.4791 46.3089 24.0911C46.6182 23.7031 46.8765 23.5731 47.0312 23.9611C47.0754 24.0829 47.0983 24.2152 47.0983 24.3491C47.0983 24.4829 47.0754 24.6152 47.0312 24.7371C47.0312 24.7371 47.2879 25.579 47.3916 26.0311C47.4762 26.339 47.5061 26.6665 47.4794 26.9905C47.4527 27.3145 47.3699 27.6273 47.2369 27.907C46.8765 28.7471 46.7219 29.265 46.2579 29.5871C45.7936 29.9597 45.3766 30.4174 45.0205 30.9451C44.9169 31.1391 44.7112 31.4631 44.7112 31.4631L44.0399 29.3931Z" fill="white" stroke="#263238" stroke-linecap="round" stroke-linejoin="round"/>
<path d="M25.4297 33.273C25.7871 32.6002 26.2815 32.0596 26.8615 31.7072C27.4416 31.3549 28.0863 31.2035 28.7287 31.269C30.9977 31.463 32.4933 32.951 32.699 33.079C32.9047 33.207 36.9261 35.473 36.9261 35.473L44.0933 28.877L45.5874 31.527C45.5874 31.527 39.8137 38.641 39.195 39.481C38.5764 40.321 37.4937 40.905 37.1333 40.969C36.7729 41.033 30.6373 39.675 30.0697 39.611C29.5021 39.547 26.7706 38.641 26.7706 38.641" fill="#EF233C"/>
<path d="M25.4297 33.273C25.7871 32.6002 26.2815 32.0596 26.8615 31.7072C27.4416 31.3549 28.0863 31.2035 28.7287 31.269C30.9977 31.463 32.4933 32.951 32.699 33.079C32.9047 33.207 36.9261 35.473 36.9261 35.473L44.0933 28.877L45.5874 31.527C45.5874 31.527 39.8137 38.641 39.195 39.481C38.5764 40.321 37.4937 40.9049 37.1333 40.969C36.7729 41.033 30.6373 39.675 30.0697 39.611C29.5021 39.547 26.7706 38.641 26.7706 38.641" stroke="#263238" stroke-linecap="round" stroke-linejoin="round"/>
<path d="M39.7617 32.8209L41.9271 36.1189L42.9587 34.7609L41.1027 31.7209L39.7617 32.8209Z" fill="white" stroke="#263238" stroke-linecap="round" stroke-linejoin="round"/>
</svg>
