<svg width="116" height="116" viewBox="0 0 116 116" fill="none" xmlns="http://www.w3.org/2000/svg">
<path d="M105.938 36.7627C105.448 36.0574 104.92 35.3722 104.354 34.7072C98.5537 27.8933 91.0555 21.9472 83.7823 16.7272C73.3539 9.25675 60.1391 1.75619 46.7458 3.32915C19.8083 6.49595 -0.563661 58.2157 4.48698 69.6927C9.53762 81.1698 29.9095 110.277 51.293 112.613C72.6764 114.949 100.79 86.6589 105.671 75.6807C108.495 69.3332 110.824 62.6446 111.096 55.6544C111.36 49.0053 109.787 42.2936 105.938 36.7627Z" fill="#EF233C"/>
<path opacity="0.7" d="M105.938 36.7627C105.448 36.0574 104.92 35.3722 104.354 34.7072C98.5537 27.8933 91.0555 21.9472 83.7823 16.7272C73.3539 9.25675 60.1391 1.75619 46.7458 3.32915C19.8083 6.49595 -0.563661 58.2157 4.48698 69.6927C9.53762 81.1698 29.9095 110.277 51.293 112.613C72.6764 114.949 100.79 86.6589 105.671 75.6807C108.495 69.3332 110.824 62.6446 111.096 55.6544C111.36 49.0053 109.787 42.2936 105.938 36.7627Z" fill="white"/>
<g opacity="0.3">
<path d="M60.7545 107.203V40.0548C60.7545 29.0626 51.9756 20.0077 40.668 18.7688" stroke="black" stroke-miterlimit="10"/>
<path d="M66.0579 107.203V40.0548C66.0579 28.2228 55.8778 18.6227 43.3219 18.6227C30.7638 18.6227 20.5859 28.2182 20.5859 40.0548V107.203" stroke="black" stroke-miterlimit="10"/>
</g>
<g opacity="0.3">
<path d="M108.693 21.6711H74.8438V66.3984H108.693V21.6711Z" stroke="black" stroke-miterlimit="10"/>
<path d="M107.259 23.5642H76.2773V64.5029H107.259V23.5642Z" stroke="black" stroke-miterlimit="10"/>
<path d="M106.312 24.817H77.2266V63.2501H106.312V24.817Z" stroke="black" stroke-miterlimit="10"/>
<path d="M106.31 31.552C103.408 33.5518 99.2271 34.9067 94.8098 37.5144C88.2489 41.3911 86.8035 49.829 83.9198 56.8864C81.725 62.2479 79.0014 63.1504 77.8182 63.2641C77.6217 63.2879 77.423 63.2879 77.2266 63.2641" stroke="black" stroke-miterlimit="10"/>
<path d="M84.5524 24.824C84.3065 27.1649 84.5269 29.464 85.8841 30.7284C89.429 34.0506 92.3151 33.0809 99.1382 27.5477C100.411 26.5263 101.769 25.6151 103.196 24.824" stroke="black" stroke-miterlimit="10"/>
<path d="M77.2266 35.7072C78.9967 36.6792 80.681 38.236 81.0314 40.6859C81.4234 43.4536 79.4886 45.5973 77.2266 47.1378" stroke="black" stroke-miterlimit="10"/>
<path d="M100.493 63.2525C97.5346 60.0532 93.9966 55.1047 94.9409 50.5111C95.9941 45.421 102.265 43.1172 106.309 42.1475" stroke="black" stroke-miterlimit="10"/>
<path d="M84.8346 40.4098C86.7194 40.4098 88.2473 38.7988 88.2473 36.8115C88.2473 34.8242 86.7194 33.2131 84.8346 33.2131C82.9498 33.2131 81.4219 34.8242 81.4219 36.8115C81.4219 38.7988 82.9498 40.4098 84.8346 40.4098Z" stroke="black" stroke-miterlimit="10"/>
<path d="M91.4611 52.1699C92.294 52.1699 92.9691 51.4573 92.9691 50.5783C92.9691 49.6994 92.294 48.9868 91.4611 48.9868C90.6283 48.9868 89.9531 49.6994 89.9531 50.5783C89.9531 51.4573 90.6283 52.1699 91.4611 52.1699Z" stroke="black" stroke-miterlimit="10"/>
<path d="M102.419 48.024C102.407 48.2551 102.327 48.4775 102.19 48.6637C102.053 48.8499 101.864 48.9918 101.647 49.0717C101.43 49.1517 101.194 49.1662 100.969 49.1135C100.743 49.0609 100.538 48.9433 100.379 48.7754C100.22 48.6074 100.114 48.3965 100.073 48.1687C100.032 47.9409 100.06 47.7062 100.151 47.4937C100.242 47.2812 100.394 47.1001 100.588 46.973C100.781 46.8458 101.007 46.7781 101.239 46.7782C101.56 46.7873 101.865 46.9236 102.086 47.1571C102.308 47.3906 102.428 47.7024 102.419 48.024Z" stroke="black" stroke-miterlimit="10"/>
<path d="M80.5725 54.2462C81.044 54.2462 81.4263 53.8432 81.4263 53.3461C81.4263 52.8489 81.044 52.4459 80.5725 52.4459C80.101 52.4459 79.7188 52.8489 79.7188 53.3461C79.7188 53.8432 80.101 54.2462 80.5725 54.2462Z" stroke="black" stroke-miterlimit="10"/>
<path d="M94.9398 27.2646C94.9316 27.4187 94.8784 27.567 94.7868 27.6912C94.6953 27.8153 94.5693 27.9099 94.4245 27.9632C94.2797 28.0164 94.1224 28.0261 93.9722 27.9909C93.822 27.9557 93.6854 27.8773 93.5793 27.7652C93.4732 27.6532 93.4023 27.5125 93.3754 27.3606C93.3485 27.2087 93.3667 27.0522 93.4278 26.9106C93.4888 26.7689 93.5901 26.6482 93.7191 26.5635C93.848 26.4789 93.999 26.4338 94.1533 26.4341C94.3677 26.4402 94.5708 26.531 94.7183 26.6867C94.8657 26.8424 94.9454 27.0503 94.9398 27.2646Z" stroke="black" stroke-miterlimit="10"/>
<path d="M74.8438 21.6711L77.2264 24.8171" stroke="black" stroke-miterlimit="10"/>
<path d="M108.691 21.6711L106.309 24.8171" stroke="black" stroke-miterlimit="10"/>
<path d="M106.309 63.2502L108.691 66.3985" stroke="black" stroke-miterlimit="10"/>
<path d="M74.8438 66.3985L77.2264 63.2502" stroke="black" stroke-miterlimit="10"/>
</g>
<path d="M95.4292 70.6C95.4318 70.5967 95.4333 70.5926 95.4333 70.5884C95.4333 70.5842 95.4318 70.5801 95.4292 70.5768C95.4292 70.5768 95.4083 70.5768 95.406 70.5768C94.8779 71.8396 94.4611 73.1461 94.1602 74.4813C93.8518 75.8158 93.6194 77.1667 93.4642 78.5274L93.3667 79.5505C93.3505 79.7222 93.3319 79.8916 93.3203 80.0633L93.2925 80.576C93.2786 80.9193 93.2577 81.272 93.2461 81.6037V82.6315L93.2577 83.1465C93.2577 83.3159 93.2786 83.4876 93.2902 83.6593C93.3157 84.0003 93.3366 84.3413 93.3691 84.6824C93.434 85.3645 93.5361 86.0419 93.6405 86.717C93.6411 86.7215 93.6433 86.7257 93.6467 86.7287C93.6501 86.7317 93.6545 86.7333 93.6591 86.7333C93.6638 86.7328 93.6682 86.7306 93.6716 86.7273C93.675 86.7239 93.6771 86.7195 93.6776 86.7147C93.6776 86.3737 93.6614 86.0326 93.6521 85.6916C93.6428 85.3505 93.6126 85.0118 93.6173 84.6708C93.6219 84.3297 93.6173 83.9887 93.6173 83.65V83.1396V82.6315V81.613L93.6428 80.5945L93.6544 80.0841C93.6544 79.9148 93.673 79.7454 93.6822 79.5761L93.7449 78.5576C93.862 77.203 94.0548 75.8561 94.3226 74.5231C94.5768 73.1857 94.9471 71.8731 95.4292 70.6Z" fill="#263238"/>
<path d="M95.5843 75.9266C95.5854 75.9238 95.5857 75.9208 95.5853 75.9178C95.5849 75.9149 95.5839 75.912 95.5822 75.9096C95.5804 75.9071 95.5782 75.9051 95.5755 75.9037C95.5729 75.9023 95.5699 75.9016 95.5669 75.9016C95.5639 75.9016 95.561 75.9023 95.5583 75.9037C95.5557 75.9051 95.5534 75.9071 95.5517 75.9096C95.55 75.912 95.5489 75.9149 95.5485 75.9178C95.5481 75.9208 95.5485 75.9238 95.5495 75.9266C95.261 76.7752 95.0186 77.6387 94.8234 78.5134C94.6322 79.3911 94.4897 80.2787 94.3965 81.1721C94.306 82.063 94.2062 82.9562 94.1946 83.8517C94.1719 84.7491 94.2036 85.6471 94.2898 86.5406C94.2902 86.5448 94.2921 86.5486 94.2951 86.5516C94.298 86.5545 94.3019 86.5564 94.306 86.5569C94.3105 86.5569 94.3149 86.5553 94.3184 86.5523C94.3218 86.5493 94.324 86.5451 94.3246 86.5406C94.429 85.6474 94.4916 84.7565 94.5566 83.868C94.6215 82.9794 94.6285 82.0862 94.6865 81.1954C94.7426 80.3077 94.8487 79.4239 95.0043 78.5482C95.1471 77.6639 95.3407 76.7886 95.5843 75.9266Z" fill="#263238"/>
<path d="M98.5307 77.7989C98.5271 77.7961 98.5226 77.7946 98.5179 77.7946C98.5133 77.7946 98.5088 77.7961 98.5052 77.7989C97.7667 78.2735 97.1016 78.8534 96.5309 79.5204C96.2432 79.8557 95.9847 80.2151 95.7583 80.5945L95.6005 80.8938L95.4753 81.2047C95.433 81.3077 95.3966 81.4131 95.3662 81.5202C95.3361 81.6246 95.299 81.7313 95.2711 81.838C95.044 82.6913 94.9072 83.5661 94.8628 84.448C94.8187 85.3238 94.8513 86.2018 94.9602 87.072C94.9614 87.0755 94.9636 87.0787 94.9664 87.0811C94.9693 87.0836 94.9728 87.0852 94.9765 87.0859C94.9789 87.0862 94.9814 87.086 94.9838 87.0854C94.9861 87.0847 94.9884 87.0836 94.9903 87.0821C94.9923 87.0806 94.9939 87.0787 94.9951 87.0766C94.9963 87.0744 94.9971 87.0721 94.9973 87.0696L95.2293 84.4735C95.2905 83.6174 95.3997 82.7654 95.5565 81.9215C95.5797 81.8171 95.6098 81.7151 95.6377 81.6107C95.6622 81.507 95.6924 81.4048 95.7281 81.3044L95.8325 81.0052L95.9694 80.7221C96.1745 80.3447 96.4112 79.9854 96.677 79.648C97.2048 78.9594 97.8301 78.3514 98.533 77.843C98.5389 77.8427 98.5444 77.8401 98.5483 77.8357C98.5522 77.8314 98.5542 77.8256 98.5539 77.8198C98.5536 77.8139 98.551 77.8085 98.5466 77.8045C98.5423 77.8006 98.5366 77.7986 98.5307 77.7989Z" fill="#263238"/>
<path d="M97.1002 81.135C96.7157 81.4152 96.4071 81.7867 96.2024 82.2162C95.9853 82.6366 95.8165 83.0802 95.6989 83.5386C95.6628 83.6504 95.6333 83.7643 95.6108 83.8796L95.5296 84.2253C95.4865 84.4553 95.457 84.6878 95.4414 84.9213C95.4414 85.1533 95.4414 85.3853 95.4414 85.6173C95.4587 85.8509 95.4896 86.0833 95.5342 86.3133C95.5342 86.317 95.5357 86.3205 95.5383 86.3231C95.5409 86.3257 95.5444 86.3272 95.5481 86.3272C95.5527 86.3279 95.5574 86.3269 95.5613 86.3243C95.5651 86.3217 95.5679 86.3178 95.569 86.3133C95.6241 86.0839 95.6659 85.8515 95.6943 85.6173C95.7291 85.3853 95.7662 85.1533 95.794 84.9213C95.8219 84.6893 95.8567 84.4689 95.8729 84.2415C95.8892 84.0142 95.9216 83.7775 95.9727 83.5641C96.052 83.1145 96.1804 82.6749 96.3555 82.2533C96.5142 81.8238 96.7727 81.4382 97.1095 81.1281C97.1121 81.1248 97.1136 81.1207 97.1136 81.1165C97.1136 81.1123 97.1121 81.1082 97.1095 81.1049C97.1059 81.1047 97.1023 81.1057 97.0993 81.1078C97.0963 81.1098 97.0941 81.1128 97.093 81.1163C97.0919 81.1198 97.0921 81.1235 97.0934 81.1269C97.0947 81.1303 97.0971 81.1332 97.1002 81.135Z" fill="#263238"/>
<path d="M92.9575 83.7381C92.8624 82.5781 92.6722 81.4436 92.4935 80.3021C92.3149 79.1607 92.1154 78.0239 91.9066 76.8894C91.6978 75.7549 91.4635 74.6228 91.2106 73.4953C91.2093 73.4917 91.2069 73.4886 91.2038 73.4865C91.2007 73.4843 91.197 73.4832 91.1932 73.4832C91.1894 73.4832 91.1857 73.4843 91.1826 73.4865C91.1795 73.4886 91.1771 73.4917 91.1758 73.4953C91.373 74.6321 91.5516 75.7712 91.7187 76.9126C91.8857 78.054 92.0551 79.1932 92.1989 80.3369C92.3427 81.4807 92.4495 82.6268 92.5933 83.7682L93.0341 87.2065C93.0341 87.2108 93.0358 87.2149 93.0389 87.2179C93.0419 87.221 93.046 87.2227 93.0503 87.2227C93.0527 87.223 93.055 87.2229 93.0573 87.2222C93.0595 87.2215 93.0616 87.2204 93.0634 87.2188C93.0651 87.2173 93.0665 87.2154 93.0675 87.2133C93.0684 87.2111 93.0689 87.2088 93.0689 87.2065C93.0828 86.9165 93.0828 86.6265 93.0898 86.3365C93.0967 86.0465 93.0782 85.7588 93.0735 85.4688C93.0503 84.8911 93.0016 84.3134 92.9575 83.7381Z" fill="#263238"/>
<path d="M92.2657 83.7219C92.2054 83.2579 92.1218 82.8101 92.0337 82.3577L91.8713 81.6849C91.8202 81.4529 91.7692 81.2348 91.7042 81.0144C91.4737 80.1205 91.1791 79.2444 90.8226 78.3928L90.6834 78.075L90.5303 77.7641C90.4329 77.5553 90.3146 77.3558 90.2032 77.154C89.9764 76.7508 89.6963 76.3801 89.3703 76.052C89.3689 76.0496 89.3669 76.0475 89.3645 76.046C89.3622 76.0445 89.3595 76.0436 89.3567 76.0432C89.3539 76.0429 89.3511 76.0432 89.3484 76.0441C89.3458 76.045 89.3434 76.0465 89.3414 76.0485C89.3394 76.0505 89.3379 76.0529 89.337 76.0556C89.336 76.0582 89.3357 76.0611 89.3361 76.0638C89.3364 76.0666 89.3374 76.0693 89.3389 76.0717C89.3404 76.074 89.3424 76.076 89.3448 76.0775C89.6488 76.4168 89.9048 76.7962 90.1058 77.205C90.2055 77.4092 90.3123 77.611 90.3981 77.8244L90.5326 78.1376L90.6533 78.4578C90.9727 79.3118 91.2293 80.188 91.4212 81.0794C91.5256 81.5225 91.5952 81.9749 91.6811 82.4227L91.7901 83.0978C91.8295 83.3298 91.8759 83.5456 91.9084 83.7729C91.9803 84.223 92.0638 84.6731 92.1404 85.1232C92.217 85.5732 92.2912 86.028 92.3886 86.478C92.3886 86.4823 92.3904 86.4865 92.3934 86.4895C92.3965 86.4926 92.4006 86.4943 92.4049 86.4943C92.4096 86.4938 92.4141 86.4917 92.4175 86.4883C92.4208 86.4849 92.4229 86.4805 92.4234 86.4757C92.4234 86.0117 92.4235 85.5477 92.391 85.0953C92.3585 84.6429 92.3144 84.1789 92.2657 83.7219Z" fill="#263238"/>
<path d="M91.3119 83.7799C91.0984 83.1744 90.8479 82.5828 90.5834 82.0028C90.3072 81.4237 89.9974 80.8613 89.6554 80.3184C89.6517 80.3156 89.6473 80.3141 89.6426 80.3141C89.638 80.3141 89.6335 80.3156 89.6299 80.3184C89.6283 80.32 89.6271 80.3218 89.6263 80.3237C89.6254 80.3257 89.625 80.3279 89.625 80.33C89.625 80.3322 89.6254 80.3343 89.6263 80.3363C89.6271 80.3383 89.6283 80.3401 89.6299 80.3416C89.9244 80.9042 90.1855 81.4837 90.4117 82.077C90.6437 82.6686 90.8572 83.2672 91.0335 83.875C91.2098 84.4828 91.3444 85.1 91.4975 85.7101C91.6506 86.3203 91.806 86.9351 91.994 87.5522C91.9945 87.5561 91.9965 87.5597 91.9995 87.5622C92.0024 87.5648 92.0063 87.5662 92.0102 87.5661C92.0149 87.5656 92.0194 87.5635 92.0228 87.5601C92.0261 87.5567 92.0283 87.5523 92.0288 87.5476C92.0366 86.9035 91.9767 86.2604 91.8501 85.6289C91.7211 84.999 91.5411 84.3806 91.3119 83.7799Z" fill="#263238"/>
<path d="M91.2708 85.7937C91.1538 85.4167 90.9827 85.0588 90.7627 84.7311C90.5604 84.3895 90.3122 84.0772 90.0249 83.8031C89.8809 83.6715 89.7257 83.5527 89.5609 83.4482C89.3961 83.3454 89.2171 83.2673 89.0297 83.2162C89.0275 83.2154 89.0253 83.2152 89.023 83.2154C89.0208 83.2156 89.0186 83.2163 89.0167 83.2174C89.0147 83.2185 89.013 83.22 89.0116 83.2217C89.0103 83.2235 89.0093 83.2256 89.0088 83.2278C89.0072 83.2293 89.006 83.2311 89.0052 83.2331C89.0043 83.2351 89.0039 83.2372 89.0039 83.2394C89.0039 83.2415 89.0043 83.2437 89.0052 83.2456C89.006 83.2476 89.0072 83.2494 89.0088 83.251C89.3492 83.4181 89.6504 83.6553 89.8927 83.947C90.1365 84.2287 90.3431 84.5406 90.5075 84.875C90.6838 85.2067 90.7743 85.571 90.9251 85.9143C90.9924 86.0883 91.0597 86.2646 91.1362 86.4386C91.2023 86.6212 91.2798 86.7994 91.3682 86.9722C91.3682 86.9722 91.3682 86.9838 91.3845 86.9838C91.3894 86.9838 91.3941 86.9819 91.3976 86.9784C91.4011 86.9749 91.403 86.9702 91.403 86.9653C91.41 86.7686 91.403 86.5717 91.3821 86.376C91.3589 86.1788 91.3172 85.9862 91.2708 85.7937Z" fill="#263238"/>
<path d="M91.3453 75.1448C90.7704 74.9829 90.2506 74.6673 89.8418 74.2319C89.4329 73.7965 89.1507 73.2579 89.0253 72.674C88.5891 70.6393 89.9927 71.514 88.733 68.3147C87.4732 65.1154 87.7655 64.3916 88.2017 63.4705C88.6378 62.5495 88.8791 62.8418 89.2666 64.0529C89.654 65.2639 91.0599 67.1524 91.5866 70.6881C92.1132 74.2237 91.3453 75.1448 91.3453 75.1448Z" fill="#EF233C"/>
<path d="M95.0759 71.7066C95.0759 71.7066 93.8161 71.2704 93.7674 68.8971C93.7187 66.5237 94.6954 67.0086 94.8323 64.0529C94.9691 61.0972 95.171 59.0162 95.7046 58.9675C96.2382 58.9187 97.6418 60.4198 98.1267 63.7142C98.6115 67.0086 97.4979 69.1871 96.5282 70.1568C95.5584 71.1266 95.0759 71.7066 95.0759 71.7066Z" fill="#EF233C"/>
<path d="M90.667 78.0031C90.667 78.0031 90.3747 76.2584 89.7947 75.4348C89.2147 74.6112 87.9526 73.8851 87.129 72.2866C86.3054 70.6881 85.3867 69.9132 85.4355 72.1915C85.4842 74.4697 86.5003 75.6297 87.7555 76.4046C89.0106 77.1795 90.667 78.0031 90.667 78.0031Z" fill="#EF233C"/>
<path d="M90.1331 81.0051C89.3642 79.5876 88.4023 78.2837 87.2749 77.1307C85.579 75.4835 84.2241 74.6599 84.709 75.4835C85.1938 76.3071 85.7738 76.2584 86.5974 77.713C87.421 79.1677 87.1774 80.2302 88.3398 81.0538C89.5021 81.8774 90.1331 81.0051 90.1331 81.0051Z" fill="#EF233C"/>
<path d="M89.9856 83.8633C89.9369 83.7195 89.8905 82.6523 88.2433 81.7753C86.5961 80.8984 85.0463 81.2417 85.2389 81.6779C85.4315 82.114 86.4499 82.8379 87.4684 83.2764C88.2792 83.5779 89.1251 83.7751 89.9856 83.8633Z" fill="#EF233C"/>
<path d="M94.976 78.1005C94.976 78.1005 94.2498 77.1725 94.6372 75.2423C95.0247 73.3121 95.8947 73.79 96.8644 72.7715C97.8342 71.753 97.6393 71.6115 98.6091 70.5443C99.5788 69.4771 100.449 68.8971 100.836 69.3333C101.224 69.7694 100.644 71.1243 100.061 71.8992C99.4791 72.6741 98.5604 73.0592 98.1242 74.0313C97.688 75.0033 97.8922 76.5508 96.767 77.2793C95.6418 78.0077 94.976 78.1005 94.976 78.1005Z" fill="#EF233C"/>
<path d="M97.3984 78.6317C97.3984 78.6317 99.1408 76.6458 100.401 75.1935C101.66 73.7412 102.145 72.6253 102.194 73.595C102.243 74.5648 102.63 75.3397 101.612 76.5994C100.593 77.8592 97.3984 78.6317 97.3984 78.6317Z" fill="#EF233C"/>
<path d="M96.4766 81.8287C96.4766 81.8287 96.4279 81.0538 99.1887 79.2628C101.949 77.4717 103.112 77.1307 102.822 77.8569C102.532 78.583 101.321 79.3115 100.012 80.6177C98.7038 81.9238 96.4766 81.8287 96.4766 81.8287Z" fill="#EF233C"/>
<path d="M91.4602 74.9361C91.4602 74.9361 90.8106 71.4561 90.1331 68.9922C89.4557 66.5284 89.0195 65.0181 89.0195 65.0181" stroke="#263238" stroke-linecap="round" stroke-linejoin="round"/>
<path d="M94.9609 71.7436C94.9609 71.7436 96.1395 67.976 96.5269 65.7C96.9144 63.4241 96.4782 61.7282 96.2949 60.7097" stroke="#263238" stroke-linecap="round" stroke-linejoin="round"/>
<path d="M90.5152 77.9311C89.9943 77.0306 89.3966 76.1768 88.7288 75.3791C87.664 74.1193 86.8403 73.4396 86.3555 72.2285" stroke="#263238" stroke-linecap="round" stroke-linejoin="round"/>
<path d="M94.9766 78.1005C94.9766 78.1005 95.364 75.7805 96.285 74.5648C97.2061 73.3492 99.0458 71.463 99.765 70.252" stroke="#263238" stroke-linecap="round" stroke-linejoin="round"/>
<path d="M89.8738 83.8124C89.8738 83.8124 88.2498 82.7498 87.0898 82.1698" stroke="#263238" stroke-linecap="round" stroke-linejoin="round"/>
<path d="M99.2069 93.5749C99.0979 90.6354 95.8313 88.675 95.8313 88.675H90.8271C90.8271 88.675 87.5605 90.6354 87.4515 93.5749C87.3425 96.5143 91.1635 107.291 91.1635 107.291H95.5158C95.5158 107.291 99.316 96.512 99.2069 93.5749Z" fill="#263238" stroke="#263238" stroke-linecap="round" stroke-linejoin="round"/>
<path d="M96.4768 85.7866H90.0898L90.8276 88.675H95.7414L96.4768 85.7866Z" fill="#263238" stroke="#263238" stroke-linecap="round" stroke-linejoin="round"/>
<path d="M40.6898 69.4608C40.6898 69.4608 40.6179 69.4956 40.01 70.4607C39.4022 71.4259 39.1145 71.6787 39.1516 72.1079C39.1887 72.5371 39.1516 72.9663 39.3303 73.0359C39.9919 73.2256 40.6793 73.3102 41.3672 73.2865C42.2952 73.2517 42.5852 73.1798 42.7592 73.0011C43.0575 72.7023 43.2463 72.3116 43.2951 71.8922C43.3671 71.3191 43.439 69.5327 43.439 69.5327L40.6898 69.4608Z" fill="#969696" stroke="#263238" stroke-miterlimit="10"/>
<path d="M50.1296 69.4956C50.1296 69.4956 51.9554 70.8203 52.4913 70.927C53.0272 71.0338 53.9924 71.3562 54.0643 71.7483C54.1362 72.1404 54.2081 72.6438 53.9924 72.8225C53.7766 73.0011 52.3475 73.08 51.3824 73.08C50.8289 73.0878 50.2801 72.9778 49.7723 72.7575L49.2735 72.5789L49.2016 72.9362C49.2016 72.9362 48.9139 72.9362 48.5937 72.9014C48.2736 72.8666 47.3409 72.6856 47.3409 72.6856C47.3409 72.6856 47.1971 70.8969 47.5567 69.8598C47.9163 68.8228 50.1296 69.4956 50.1296 69.4956Z" fill="#969696" stroke="#263238" stroke-miterlimit="10"/>
<path d="M40.3699 44.6437L40.4905 57.9721L40.6506 68.89L40.3699 69.412L40.2539 70.0315C40.2539 70.0315 42.1354 70.3354 42.5739 70.3354C42.8622 70.3386 43.1496 70.3689 43.4323 70.4259C43.4323 70.4259 43.7362 68.368 43.8569 67.7254C43.9775 67.0828 44.0587 66.1594 44.3 64.5957C44.5413 63.032 46.1444 51.1884 46.1444 51.1884L46.787 50.6247L46.8682 56.2855C46.8682 56.2855 46.5457 62.7815 46.8288 64.6375C47.1118 66.4935 47.2696 69.013 47.2696 69.013C47.2255 69.2249 47.2255 69.4437 47.2696 69.6556C47.341 69.9326 47.3945 70.2139 47.4297 70.4978C48.0099 70.437 48.5862 70.3433 49.1557 70.2171C49.7589 70.057 50.6823 69.8552 50.6823 69.8552C50.6823 69.8552 51.0419 69.1731 51.0025 69.0524C50.8574 68.6623 50.7502 68.2591 50.6823 67.8484C50.6823 67.5676 51.2832 57.0511 51.2832 57.0511C51.2832 57.0511 51.6845 50.5064 51.8052 48.2188C51.9258 45.9313 52.0975 43.848 52.0975 43.848L48.5247 43.2076L40.3699 44.6437Z" fill="#263238" stroke="#263238" stroke-miterlimit="10"/>
<path d="M54.6009 30.9952C54.6009 30.9952 55.7447 30.3293 56.0788 28.2552C56.4129 26.1812 54.5661 26.1812 54.0627 26.6312C53.5593 27.0813 53.9629 29.5312 54.6009 30.9952Z" fill="#263238" stroke="#263238" stroke-miterlimit="10"/>
<path d="M50.1836 25.7056C50.7706 25.7253 51.3542 25.803 51.9259 25.9376C52.3609 26.0589 52.8024 26.1557 53.2483 26.2276L54.4408 26.0976C54.4408 26.0976 54.3132 28.7749 54.4083 29.4199C54.5034 30.0648 54.6032 30.9998 54.6032 30.9998L52.5152 30.4523C52.5152 30.4523 52.3551 30.7098 51.6452 28.935C50.9353 27.1602 50.1836 25.7056 50.1836 25.7056Z" fill="#969696" stroke="#263238" stroke-miterlimit="10"/>
<path d="M54.4387 26.0931C54.4387 26.0931 54.7914 17.5485 54.7914 17.4325C54.7914 17.3165 54.5895 16.1565 54.6754 15.9245C54.7612 15.6925 55.0814 14.7924 55.1695 14.4142C55.2577 14.036 55.9537 14.6184 55.8377 14.9942C55.74 15.415 55.6717 15.8422 55.6335 16.2725L56.2135 16.6205C56.6008 16.3796 57.0092 16.1745 57.4339 16.008C57.8399 15.892 57.4617 14.5279 57.8979 14.616C58.334 14.7042 58.3619 16.7922 58.3619 17.168C58.3619 17.5439 56.1277 19.1122 56.1277 19.1122C56.1277 19.1122 57.3735 26.2833 57.4385 27.1533C57.5035 28.0233 57.5359 28.2507 57.3735 28.5082C57.2111 28.7657 54.4062 29.4107 54.4062 29.4107L54.4387 26.0931Z" fill="white" stroke="#263238" stroke-miterlimit="10"/>
<path d="M55.7305 9.94352C55.7305 9.63032 56.1643 9.37512 56.7002 9.37512C57.2361 9.37512 57.6677 9.63032 57.6677 9.94352C57.6677 10.2567 57.2338 10.5119 56.7002 10.5119C56.1666 10.5119 55.7305 10.259 55.7305 9.94352Z" fill="white" stroke="#263238" stroke-miterlimit="10"/>
<path d="M55.0625 13.6486C55.0623 13.8976 55.119 14.1434 55.2282 14.3672C55.3374 14.591 55.4963 14.787 55.6927 14.9401C55.8891 15.0931 56.1179 15.1993 56.3617 15.2506C56.6054 15.3018 56.8576 15.2967 57.099 15.2357C57.3405 15.1746 57.5648 15.0592 57.7549 14.8983C57.9449 14.7374 58.0958 14.5352 58.1958 14.3072C58.2959 14.0791 58.3426 13.8312 58.3323 13.5824C58.322 13.3336 58.2551 13.0904 58.1365 12.8714C57.8451 12.3644 57.6855 11.7925 57.6725 11.2079V11.0618H55.7214V11.2079C55.7253 11.7719 55.577 12.3265 55.2922 12.8134C55.1414 13.0658 55.062 13.3545 55.0625 13.6486Z" fill="white" stroke="#263238" stroke-miterlimit="10"/>
<path d="M55.7284 11.0641H57.668V10.549H55.7284V11.0641Z" fill="white" stroke="#263238" stroke-miterlimit="10"/>
<path d="M55.7284 10.5143H57.668V9.99924H55.7284V10.5143Z" fill="white" stroke="#263238" stroke-miterlimit="10"/>
<path d="M57.3187 15.6043C57.3187 15.6043 57.0264 14.3283 57.4046 14.3562C57.7827 14.384 58.1586 16.6506 58.1586 16.9685C58.1586 17.2863 57.5206 17.5485 57.5206 17.5485L57.3187 15.6043Z" fill="white" stroke="#263238" stroke-miterlimit="10"/>
<path d="M55.6023 18.9729C55.6023 18.9729 55.1963 18.4208 55.6023 17.9266C56.0083 17.4324 57.0848 17.2584 57.0848 17.2584C57.0848 17.2584 56.5025 15.1983 56.9966 15.2864C57.4908 15.3746 57.7808 17.4324 57.7228 17.6366C57.6779 17.7712 57.5978 17.8914 57.4908 17.9846" fill="white"/>
<path d="M55.6023 18.9729C55.6023 18.9729 55.1963 18.4208 55.6023 17.9266C56.0083 17.4324 57.0848 17.2584 57.0848 17.2584C57.0848 17.2584 56.5025 15.1983 56.9966 15.2864C57.4908 15.3746 57.7808 17.4324 57.7228 17.6366C57.6779 17.7712 57.5978 17.8914 57.4908 17.9846" stroke="#263238" stroke-miterlimit="10"/>
<path d="M53.2477 26.2159C53.2477 26.2159 52.8301 26.5106 52.7188 27.6335" stroke="#263238" stroke-miterlimit="10"/>
<path d="M42.8943 24.128C43.0086 24.316 43.1802 24.4624 43.3839 24.5456C43.6297 24.6444 43.8942 24.6879 44.1587 24.6732C44.1587 24.6732 45.2236 24.7057 45.7387 23.9007C46.2537 23.0956 45.3187 21.061 45.5461 19.901C45.7735 18.741 46.3999 18.1587 46.1516 17.864C45.9034 17.5694 45.1842 17.3165 43.5996 19.0588C42.0151 20.8012 41.6044 22.8033 42.8943 24.128Z" fill="#263238" stroke="#263238" stroke-miterlimit="10"/>
<path d="M43.0862 26.1255C43.0862 26.1255 39.409 27.8353 39.2489 28.1578C39.0889 28.4803 40.0215 45.0567 40.0215 45.0567C40.0215 45.0567 40.0586 45.6924 42.5085 46.4023C44.9585 47.1122 47.1833 46.3791 47.536 46.3466C47.8886 46.3141 48.3109 45.284 48.3109 45.284L48.5684 46.212C48.5684 46.212 48.9558 46.502 50.5682 45.8896C52.1806 45.2771 52.8882 44.6321 52.8882 44.6321L52.7281 30.9232C52.7281 30.9232 51.8883 27.5384 51.4684 27.021C51.0485 26.5036 51.1784 26.0211 50.1785 25.6986C49.1785 25.3761 46.9537 25.281 45.8261 25.281C44.6986 25.281 43.0862 26.1255 43.0862 26.1255Z" fill="#EF233C" stroke="#263238" stroke-miterlimit="10"/>
<path d="M39.4648 34.4938C39.488 34.9578 39.5112 35.4357 39.5368 35.9137C40.2433 35.9906 40.9535 36.0285 41.6642 36.0273C44.3136 36.0273 48.2321 35.5309 52.7608 33.3733L52.7422 31.8305C52.3617 32.0207 51.9859 32.1993 51.6147 32.3664C51.5196 29.1833 50.7563 26.9724 50.1461 25.6964C49.5744 25.5441 48.9894 25.447 48.3992 25.4064C48.8191 26.0606 50.2088 28.5569 50.232 32.9417C48.4677 33.6268 46.6318 34.1109 44.7591 34.3848C43.8473 29.8561 42.7848 27.6243 42.1166 26.5873C41.7315 26.7729 41.2837 26.9933 40.8545 27.209C41.358 27.9491 42.4321 29.9489 43.3694 34.5425C42.0695 34.6557 40.7615 34.6394 39.4648 34.4938Z" fill="white" stroke="#263238" stroke-miterlimit="10"/>
<path d="M52.8486 40.8459L52.83 39.2521C46.9117 42.7715 41.9492 41.876 39.8125 41.1939C39.8403 41.7252 39.8682 42.2194 39.8914 42.6671C41.2433 43.0352 42.6384 43.2201 44.0395 43.217C46.4848 43.217 49.5217 42.6694 52.8486 40.8459Z" fill="white" stroke="#263238" stroke-miterlimit="10"/>
<path d="M47.7305 32.8651C47.7305 32.8651 48.7953 38.6396 48.4729 44.4767" stroke="#263238" stroke-miterlimit="10"/>
<path d="M45.1836 28.0929C45.4109 28.6785 45.7144 29.2315 46.0861 29.7378C46.7635 30.7052 47.6335 32.0926 47.6335 32.0926C47.6335 32.0926 48.6334 29.7726 48.7309 28.7704C48.7904 28.1796 48.7795 27.5838 48.6984 26.9956L46.6661 25.8356L45.1836 28.0929Z" fill="#969696" stroke="#263238" stroke-miterlimit="10"/>
<path d="M44.1537 24.6731L42.7617 26.2971L44.504 29.1345L47.056 27.6195L49.8609 28.6171C49.8609 28.6171 49.0884 26.0373 48.4109 25.5223C47.9591 25.1815 47.4723 24.8898 46.9586 24.6523C46.831 24.578 46.3461 23.998 44.1537 24.6731Z" fill="#969696" stroke="#263238" stroke-miterlimit="10"/>
<path d="M48.3117 23.5457L47.9893 26.0977L47.8385 26.8493L47.3745 29.1693C47.3745 29.1693 45.8572 27.2345 45.1473 26.557C44.7484 26.1866 44.4018 25.7636 44.1172 25.2996C44.2176 24.735 44.2711 24.1631 44.2773 23.5897C44.2893 23.1903 44.2676 22.7907 44.2123 22.3949L44.1172 21.8474C44.6107 22.1735 45.1253 22.4664 45.6577 22.7244L45.8572 22.8149C46.6534 23.1268 47.4745 23.3713 48.3117 23.5457Z" fill="white" stroke="#263238" stroke-miterlimit="10"/>
<path d="M48.311 23.5457L47.9885 26.0977L47.8377 26.8493C46.7914 25.8935 44.5039 22.6478 44.5039 22.6478L45.6639 22.7174L45.8634 22.8079C46.6572 23.1219 47.476 23.3687 48.311 23.5457Z" fill="#263238" stroke="#263238" stroke-miterlimit="10"/>
<path d="M48.8596 18.7085C48.8596 18.7085 49.5045 20.126 49.5045 20.6758C49.5045 21.2257 49.3444 22.5458 49.3769 22.9332C49.4094 23.3206 48.9129 23.7707 48.5046 23.9331C48.0963 24.0955 47.732 24.2231 46.6022 23.9331C45.4724 23.6431 44.5142 22.6432 44.5142 22.6432C44.5142 22.6432 43.6094 22.4112 43.3194 21.9333C43.0294 21.4554 43.0294 20.9334 43.6094 20.9009C44.1894 20.8684 44.2544 21.3208 44.3518 21.1584C44.4492 20.996 44.1917 20.2884 44.5838 19.901C44.8481 19.6318 45.0376 19.2983 45.1336 18.9335C45.2311 18.676 46.5512 18.2561 47.391 18.031C48.2308 17.806 48.8596 18.7085 48.8596 18.7085Z" fill="white" stroke="#263238" stroke-miterlimit="10"/>
<path d="M48.1507 18.8361C48.1507 18.8361 48.0208 19.0681 48.1507 19.191C48.2806 19.314 48.9557 19.9009 48.8908 20.0935C48.8258 20.2861 48.2551 20.648 47.9883 20.648" stroke="#263238" stroke-miterlimit="10"/>
<path d="M48.667 21.1259C48.4215 21.2851 48.1315 21.3617 47.8394 21.3446C47.5472 21.3275 47.2682 21.2176 47.043 21.0308" stroke="#263238" stroke-miterlimit="10"/>
<path d="M46.9484 19.2977C46.9651 19.3287 46.9746 19.3632 46.976 19.3984C46.9775 19.4336 46.9709 19.4687 46.9567 19.501C46.9426 19.5333 46.9212 19.562 46.8944 19.5848C46.8675 19.6076 46.8358 19.624 46.8016 19.6327C46.7674 19.6414 46.7317 19.6422 46.6972 19.6351C46.6627 19.628 46.6303 19.613 46.6024 19.5915C46.5745 19.5699 46.5518 19.5423 46.5362 19.5107C46.5206 19.4791 46.5124 19.4443 46.5122 19.4091C46.4955 19.3781 46.486 19.3436 46.4846 19.3084C46.4831 19.2732 46.4897 19.2381 46.5039 19.2058C46.518 19.1735 46.5393 19.1449 46.5662 19.122C46.5931 19.0992 46.6248 19.0828 46.659 19.0741C46.6931 19.0654 46.7288 19.0646 46.7634 19.0717C46.7979 19.0788 46.8303 19.0938 46.8582 19.1153C46.8861 19.1369 46.9087 19.1645 46.9244 19.1961C46.94 19.2277 46.9482 19.2625 46.9484 19.2977Z" fill="#263238"/>
<path d="M48.9756 19.1447C48.9742 19.1877 48.9609 19.2295 48.9371 19.2654C48.9133 19.3013 48.88 19.3299 48.8409 19.3479C48.8018 19.366 48.7584 19.3728 48.7156 19.3676C48.6729 19.3623 48.6324 19.3453 48.5988 19.3184C48.5652 19.2915 48.5397 19.2558 48.5252 19.2152C48.5107 19.1746 48.5078 19.1308 48.5169 19.0887C48.5259 19.0466 48.5464 19.0078 48.5762 18.9767C48.606 18.9456 48.6439 18.9235 48.6856 18.9127C48.7199 18.9088 48.7546 18.9117 48.7877 18.9213C48.8209 18.9309 48.8518 18.9469 48.8788 18.9685C48.9057 18.99 48.9281 19.0167 48.9447 19.0469C48.9614 19.0771 48.9719 19.1104 48.9756 19.1447Z" fill="#263238"/>
<path d="M46.1523 19.0635C46.2015 18.9115 46.3027 18.7817 46.438 18.6969C46.5733 18.612 46.7342 18.5775 46.8924 18.5995" stroke="#263238" stroke-miterlimit="10"/>
<path d="M44.8941 19.0635C44.0836 19.8102 43.3682 20.6541 42.7644 21.576C41.957 22.8984 42.8943 24.128 42.8943 24.128C42.8943 24.128 41.9269 23.7081 41.7343 22.9031C41.5417 22.098 40.8968 21.9751 41.0244 20.3232C41.152 18.6714 42.0243 17.1611 43.2817 16.5486C44.5392 15.9361 46.314 16.131 46.6365 16.2911C46.9416 16.4178 47.225 16.5916 47.4763 16.8061C47.8178 17.0612 48.1725 17.2982 48.5389 17.516L44.8941 19.0635Z" fill="white" stroke="#263238" stroke-miterlimit="10"/>
<path d="M44.8945 19.0635C44.8945 19.0635 45.9246 17.7735 46.3445 17.5137C46.7645 17.2539 48.2005 16.7365 49.0543 17.1587C49.5693 17.4186 49.7016 17.6228 49.4742 18.0311C49.2167 18.4951 49.0218 18.8361 49.0218 18.8361C49.0218 18.8361 48.6993 18.5786 47.4744 18.5136C46.2494 18.4487 44.8945 19.0635 44.8945 19.0635Z" fill="white" stroke="#263238" stroke-miterlimit="10"/>
<path d="M36.5085 36.192L36.1211 39.904L37.3159 47.451C37.3159 47.451 37.186 49.0634 37.3159 49.2884C37.4458 49.5135 37.6709 49.9659 37.6709 49.9659V51.6757C37.6709 51.7731 37.766 51.9657 37.9029 51.9332C37.9029 51.9332 38.1929 52.1281 38.3854 52.0631L38.5803 51.9982C38.5803 51.9982 38.9677 52.0631 39.1278 51.9332C39.2343 51.8469 39.3315 51.7497 39.4178 51.6432C39.4961 51.503 39.551 51.351 39.5802 51.1931C39.6553 50.6817 39.6864 50.1648 39.673 49.648C39.5934 48.947 39.4426 48.256 39.2229 47.5855L39.1255 47.3535L38.9654 39.614L39.6429 37.2592L36.5085 36.192Z" fill="white" stroke="#263238" stroke-miterlimit="10"/>
<path d="M37.8945 51.9262C37.8945 51.9262 38.1126 50.859 38.1892 50.3022" stroke="#263238" stroke-miterlimit="10"/>
<path d="M38.5742 51.9912C38.5742 51.9912 38.9292 50.5204 38.9083 50.1608" stroke="#263238" stroke-miterlimit="10"/>
<path d="M39.1211 51.9263C39.1211 51.9263 39.3253 50.9357 39.3995 50.1213" stroke="#263238" stroke-miterlimit="10"/>
<path d="M40.345 28.2553C40.345 28.2553 40.055 27.5454 39.25 28.1579C38.4449 28.7704 35.5078 35.9299 35.5078 35.9299C35.5078 35.9299 36.1853 36.8973 37.8278 37.3497C39.4704 37.8021 40.4077 37.6722 40.4077 37.6722C40.4077 37.6722 40.7951 32.7051 40.7301 30.8352C40.6652 28.9652 40.345 28.2553 40.345 28.2553Z" fill="#969696" stroke="#263238" stroke-miterlimit="10"/>
<path d="M55.086 95.1061L13.8086 54.0166L14.6995 53.2719L55.9769 94.3637L55.086 95.1061Z" fill="#EF233C" stroke="#263238" stroke-miterlimit="10"/>
<path d="M56.7616 48.0171H55.6016V103.103H56.7616V48.0171Z" fill="#EF233C" stroke="#263238" stroke-miterlimit="10"/>
<path d="M57.4801 101.885H55.123C54.9691 101.885 54.8216 101.824 54.7128 101.715C54.6041 101.607 54.543 101.459 54.543 101.305C54.543 101.151 54.6041 101.004 54.7128 100.895C54.8216 100.786 54.9691 100.725 55.123 100.725H57.4801C57.6339 100.725 57.7814 100.786 57.8902 100.895C57.999 101.004 58.0601 101.151 58.0601 101.305C58.0601 101.459 57.999 101.607 57.8902 101.715C57.7814 101.824 57.6339 101.885 57.4801 101.885Z" fill="#EF233C" stroke="#263238" stroke-miterlimit="10"/>
<path d="M56.4954 107.264C57.4983 107.101 58.1794 106.156 58.0166 105.153C57.8538 104.15 56.9088 103.469 55.9058 103.632C54.9029 103.795 54.2218 104.74 54.3846 105.743C54.5474 106.746 55.4924 107.427 56.4954 107.264Z" fill="#EF233C" stroke="#263238" stroke-miterlimit="10"/>
<path d="M57.2511 105.451C57.2515 105.243 57.1902 105.039 57.0747 104.865C56.9593 104.692 56.7949 104.556 56.6025 104.476C56.4101 104.396 56.1982 104.375 55.9938 104.415C55.7893 104.456 55.6014 104.556 55.4539 104.703C55.3063 104.85 55.2058 105.038 55.1649 105.242C55.1241 105.447 55.1448 105.659 55.2245 105.851C55.3041 106.044 55.4391 106.209 55.6124 106.324C55.7857 106.44 55.9894 106.502 56.1978 106.502C56.336 106.502 56.4729 106.475 56.6007 106.423C56.7285 106.37 56.8446 106.293 56.9425 106.195C57.0403 106.097 57.1179 105.981 57.1709 105.854C57.2238 105.726 57.2511 105.589 57.2511 105.451Z" fill="white" stroke="#263238" stroke-miterlimit="10"/>
<path d="M55.0742 103.375L55.8839 105.546C55.9102 105.615 55.9567 105.673 56.0172 105.715C56.0777 105.756 56.1493 105.778 56.2226 105.778C56.3 105.778 56.3754 105.753 56.4373 105.707C56.4992 105.66 56.5444 105.595 56.566 105.521L57.1993 103.372L55.0742 103.375Z" fill="white" stroke="#263238" stroke-miterlimit="10"/>
<path d="M57.669 102.653H54.6367V103.44H57.669V102.653Z" fill="white" stroke="#263238" stroke-miterlimit="10"/>
<path d="M76.7941 64.4821H56.9511C56.7973 64.4821 56.6497 64.421 56.541 64.3123C56.4322 64.2035 56.3711 64.056 56.3711 63.9021C56.3711 63.7483 56.4322 63.6008 56.541 63.492C56.6497 63.3833 56.7973 63.3221 56.9511 63.3221H76.7941V64.4821Z" fill="#EF233C" stroke="#263238" stroke-miterlimit="10"/>
<path d="M76.7941 74.7876H56.9511C56.8748 74.7879 56.7993 74.7731 56.7288 74.744C56.6583 74.715 56.5942 74.6723 56.5403 74.6184C56.4864 74.5645 56.4437 74.5004 56.4146 74.4299C56.3856 74.3594 56.3708 74.2838 56.3711 74.2076C56.3711 74.0537 56.4322 73.9062 56.541 73.7974C56.6497 73.6887 56.7973 73.6276 56.9511 73.6276H76.7941V74.7876Z" fill="#EF233C" stroke="#263238" stroke-miterlimit="10"/>
<path d="M76.7941 85.0953H56.9511C56.7973 85.0953 56.6497 85.0342 56.541 84.9254C56.4322 84.8167 56.3711 84.6691 56.3711 84.5153C56.3711 84.3615 56.4322 84.214 56.541 84.1052C56.6497 83.9964 56.7973 83.9353 56.9511 83.9353H76.7941V85.0953Z" fill="#EF233C" stroke="#263238" stroke-miterlimit="10"/>
<path d="M76.7929 94.2407H34.8867V95.4007H76.7929V94.2407Z" fill="#EF233C" stroke="#263238" stroke-miterlimit="10"/>
<path d="M77.4686 48.0171H76.3086V103.103H77.4686V48.0171Z" fill="#EF233C" stroke="#263238" stroke-miterlimit="10"/>
<path d="M78.2051 101.885H75.8456C75.6918 101.885 75.5443 101.824 75.4355 101.715C75.3267 101.607 75.2656 101.459 75.2656 101.305C75.2656 101.151 75.3267 101.004 75.4355 100.895C75.5443 100.786 75.6918 100.725 75.8456 100.725H78.2051C78.3589 100.725 78.5064 100.786 78.6152 100.895C78.724 101.004 78.7851 101.151 78.7851 101.305C78.7851 101.459 78.724 101.607 78.6152 101.715C78.5064 101.824 78.3589 101.885 78.2051 101.885Z" fill="#EF233C" stroke="#263238" stroke-miterlimit="10"/>
<path d="M77.3374 107.275C78.3404 107.113 79.022 106.168 78.8597 105.165C78.6974 104.162 77.7528 103.481 76.7497 103.643C75.7467 103.805 75.0651 104.75 75.2274 105.753C75.3897 106.756 76.3344 107.438 77.3374 107.275Z" fill="#EF233C" stroke="#263238" stroke-miterlimit="10"/>
<path d="M78.1026 105.451C78.1031 105.243 78.0417 105.039 77.9263 104.865C77.8108 104.692 77.6465 104.556 77.454 104.476C77.2616 104.396 77.0498 104.375 76.8453 104.415C76.6408 104.456 76.4529 104.556 76.3054 104.703C76.1579 104.85 76.0573 105.038 76.0165 105.242C75.9757 105.447 75.9964 105.659 76.076 105.851C76.1557 106.044 76.2907 106.209 76.464 106.324C76.6372 106.44 76.8409 106.502 77.0494 106.502C77.1876 106.502 77.3245 106.475 77.4523 106.423C77.58 106.37 77.6962 106.293 77.794 106.195C77.8919 106.097 77.9695 105.981 78.0224 105.854C78.0754 105.726 78.1026 105.589 78.1026 105.451Z" fill="white" stroke="#263238" stroke-miterlimit="10"/>
<path d="M75.9297 103.375L76.7394 105.546C76.7657 105.615 76.8122 105.673 76.8726 105.715C76.9331 105.756 77.0048 105.778 77.0781 105.778C77.1555 105.778 77.2308 105.753 77.2927 105.707C77.3547 105.66 77.3998 105.595 77.4214 105.521L78.0548 103.372L75.9297 103.375Z" fill="white" stroke="#263238" stroke-miterlimit="10"/>
<path d="M78.5205 102.653H75.4883V103.44H78.5205V102.653Z" fill="white" stroke="#263238" stroke-miterlimit="10"/>
<path d="M74.3337 72.7158H17.2617V73.6137H74.3337V72.7158Z" fill="#EF233C" stroke="#263238" stroke-miterlimit="10"/>
<path d="M32.5389 72.7158H17.2617V73.6137H32.5389V72.7158Z" fill="#EF233C" stroke="#263238" stroke-miterlimit="10"/>
<path d="M34.4924 95.1015L33.6016 94.3567L75.5472 53.2719L76.438 54.0166L34.4924 95.1015Z" fill="#EF233C" stroke="#263238" stroke-miterlimit="10"/>
<path d="M76.2129 54.1767H34.8867V53.0167H76.2129C76.3659 53.0167 76.5127 53.0772 76.6214 53.185C76.73 53.2927 76.7917 53.4391 76.7929 53.5921C76.7935 53.6686 76.7789 53.7446 76.7501 53.8155C76.7212 53.8864 76.6786 53.9509 76.6246 54.0052C76.5707 54.0596 76.5066 54.1027 76.4359 54.1321C76.3652 54.1616 76.2894 54.1767 76.2129 54.1767Z" fill="#EF233C" stroke="#263238" stroke-miterlimit="10"/>
<path d="M14.8553 48.0171H13.6953V103.103H14.8553V48.0171Z" fill="#EF233C" stroke="#263238" stroke-miterlimit="10"/>
<path d="M15.5176 101.885H13.1581C13.0043 101.885 12.8568 101.824 12.748 101.715C12.6392 101.607 12.5781 101.459 12.5781 101.305C12.5781 101.151 12.6392 101.004 12.748 100.895C12.8568 100.786 13.0043 100.725 13.1581 100.725H15.5176C15.6714 100.725 15.8189 100.786 15.9277 100.895C16.0365 101.004 16.0976 101.151 16.0976 101.305C16.0976 101.459 16.0365 101.607 15.9277 101.715C15.8189 101.824 15.6714 101.885 15.5176 101.885Z" fill="#EF233C" stroke="#263238" stroke-miterlimit="10"/>
<path d="M14.5305 107.264C15.5335 107.102 16.2146 106.157 16.0518 105.154C15.889 104.151 14.9439 103.47 13.941 103.632C12.938 103.795 12.257 104.74 12.4198 105.743C12.5826 106.746 13.5276 107.427 14.5305 107.264Z" fill="#EF233C" stroke="#263238" stroke-miterlimit="10"/>
<path d="M15.2823 105.451C15.2828 105.243 15.2214 105.039 15.1058 104.865C14.9902 104.691 14.8258 104.556 14.6332 104.476C14.4406 104.396 14.2287 104.375 14.0241 104.416C13.8196 104.456 13.6317 104.557 13.4843 104.704C13.3368 104.851 13.2365 105.039 13.1959 105.244C13.1553 105.448 13.1764 105.66 13.2564 105.853C13.3364 106.045 13.4718 106.21 13.6453 106.326C13.8189 106.441 14.0229 106.503 14.2314 106.502C14.5101 106.502 14.7774 106.391 14.9745 106.194C15.1716 105.997 15.2823 105.73 15.2823 105.451Z" fill="white" stroke="#263238" stroke-miterlimit="10"/>
<path d="M13.1133 103.375L13.923 105.546C13.9483 105.615 13.9942 105.674 14.0544 105.715C14.1146 105.757 14.1862 105.779 14.2594 105.778C14.3371 105.778 14.4127 105.753 14.4751 105.707C14.5374 105.661 14.583 105.595 14.605 105.521L15.2361 103.372L13.1133 103.375Z" fill="white" stroke="#263238" stroke-miterlimit="10"/>
<path d="M15.7002 102.653H12.668V103.44H15.7002V102.653Z" fill="white" stroke="#263238" stroke-miterlimit="10"/>
<path d="M34.8878 54.1767H15.0448C14.891 54.1767 14.7435 54.1156 14.6347 54.0068C14.526 53.8981 14.4648 53.7505 14.4648 53.5967C14.4648 53.4429 14.526 53.2954 14.6347 53.1866C14.7435 53.0778 14.891 53.0167 15.0448 53.0167H34.8878V54.1767Z" fill="#EF233C" stroke="#263238" stroke-miterlimit="10"/>
<path d="M34.8878 64.4821H15.0448C14.891 64.4821 14.7435 64.421 14.6347 64.3123C14.526 64.2035 14.4648 64.056 14.4648 63.9021C14.4648 63.7483 14.526 63.6008 14.6347 63.492C14.7435 63.3833 14.891 63.3221 15.0448 63.3221H34.8878V64.4821Z" fill="#EF233C" stroke="#263238" stroke-miterlimit="10"/>
<path d="M34.8878 74.7876H15.0448C14.9686 74.7879 14.893 74.7731 14.8225 74.744C14.752 74.715 14.688 74.6723 14.634 74.6184C14.5801 74.5645 14.5374 74.5004 14.5084 74.4299C14.4793 74.3594 14.4645 74.2838 14.4648 74.2076C14.4648 74.0537 14.526 73.9062 14.6347 73.7974C14.7435 73.6887 14.891 73.6276 15.0448 73.6276H34.8878V74.7876Z" fill="#EF233C" stroke="#263238" stroke-miterlimit="10"/>
<path d="M34.8878 85.0953H15.0448C14.891 85.0953 14.7435 85.0342 14.6347 84.9254C14.526 84.8167 14.4648 84.6691 14.4648 84.5153C14.4648 84.3615 14.526 84.214 14.6347 84.1052C14.7435 83.9964 14.891 83.9353 15.0448 83.9353H34.8878V85.0953Z" fill="#EF233C" stroke="#263238" stroke-miterlimit="10"/>
<path d="M34.8878 95.4007H15.0448C14.891 95.4007 14.7435 95.3396 14.6347 95.2308C14.526 95.1221 14.4648 94.9745 14.4648 94.8207C14.4648 94.6669 14.526 94.5194 14.6347 94.4106C14.7435 94.3018 14.891 94.2407 15.0448 94.2407H34.8878V95.4007Z" fill="#EF233C" stroke="#263238" stroke-miterlimit="10"/>
<path d="M35.5584 48.0171H34.3984V103.103H35.5584V48.0171Z" fill="#EF233C" stroke="#263238" stroke-miterlimit="10"/>
<path d="M36.1925 101.885H33.8261C33.6723 101.885 33.5247 101.824 33.416 101.715C33.3072 101.607 33.2461 101.459 33.2461 101.305C33.2461 101.151 33.3072 101.004 33.416 100.895C33.5247 100.786 33.6723 100.725 33.8261 100.725H36.1925C36.3463 100.725 36.4938 100.786 36.6026 100.895C36.7114 101.004 36.7725 101.151 36.7725 101.305C36.7725 101.459 36.7114 101.607 36.6026 101.715C36.4938 101.824 36.3463 101.885 36.1925 101.885Z" fill="#EF233C" stroke="#263238" stroke-miterlimit="10"/>
<path d="M35.3179 107.272C36.3209 107.11 37.0025 106.165 36.8402 105.162C36.6779 104.159 35.7332 103.477 34.7302 103.64C33.7272 103.802 33.0456 104.747 33.2079 105.75C33.3702 106.753 34.3148 107.434 35.3179 107.272Z" fill="#EF233C" stroke="#263238" stroke-miterlimit="10"/>
<path d="M36.0831 105.451C36.0836 105.243 36.0222 105.039 35.9067 104.865C35.7913 104.692 35.6269 104.556 35.4345 104.476C35.2421 104.396 35.0303 104.375 34.8258 104.415C34.6213 104.456 34.4334 104.556 34.2859 104.703C34.1383 104.85 34.0378 105.038 33.997 105.242C33.9561 105.447 33.9769 105.659 34.0565 105.851C34.1362 106.044 34.2712 106.209 34.4444 106.324C34.6177 106.44 34.8214 106.502 35.0298 106.502C35.1681 106.502 35.305 106.475 35.4327 106.423C35.5605 106.37 35.6766 106.293 35.7745 106.195C35.8723 106.097 35.9499 105.981 36.0029 105.854C36.0559 105.726 36.0831 105.589 36.0831 105.451Z" fill="white" stroke="#263238" stroke-miterlimit="10"/>
<path d="M33.9141 103.375L34.7214 105.546C34.7477 105.615 34.7942 105.673 34.8547 105.715C34.9152 105.756 34.9868 105.778 35.0601 105.778C35.1379 105.778 35.2135 105.753 35.2758 105.707C35.3382 105.661 35.3838 105.595 35.4058 105.521L36.0369 103.372L33.9141 103.375Z" fill="white" stroke="#263238" stroke-miterlimit="10"/>
<path d="M36.501 102.653H33.4688V103.44H36.501V102.653Z" fill="white" stroke="#263238" stroke-miterlimit="10"/>
<path d="M6.21094 6.94836H109.353" stroke="#263238" stroke-miterlimit="10"/>
<path d="M57.9087 7.54456H55.4727V8.95512H57.9087V7.54456Z" fill="white" stroke="#263238" stroke-miterlimit="10"/>
<path d="M60.6884 6.94836H52.6914V7.6954H60.6884V6.94836Z" fill="white" stroke="#263238" stroke-miterlimit="10"/>
<path d="M5.32031 107.291H108.818" stroke="#263238" stroke-miterlimit="10"/>
</svg>
