<svg width="116" height="116" viewBox="0 0 116 116" fill="none" xmlns="http://www.w3.org/2000/svg">
<path d="M104.375 92.4497H96.6914V92.5077H104.375V92.4497Z" fill="#EBEBEB"/>
<path d="M76.8442 93.0807H74.8281V93.1387H76.8442V93.0807Z" fill="#EBEBEB"/>
<path d="M96.4599 90.2968H92.0078V90.3548H96.4599V90.2968Z" fill="#EBEBEB"/>
<path d="M22.192 90.6865H12.1719V90.7445H22.192V90.6865Z" fill="#EBEBEB"/>
<path d="M25.7264 90.6865H24.2578V90.7445H25.7264V90.6865Z" fill="#EBEBEB"/>
<path d="M52.2338 91.6655H30.5V91.7235H52.2338V91.6655Z" fill="#EBEBEB"/>
<path d="M55.3075 78.3696H10.5083C10.157 78.3696 9.82003 78.23 9.5716 77.9816C9.32316 77.7332 9.18359 77.3962 9.18359 77.0449V14.0731C9.18665 13.7238 9.32757 13.3898 9.57567 13.1439C9.82377 12.898 10.159 12.76 10.5083 12.76H55.3075C55.4815 12.76 55.6537 12.7943 55.8145 12.8608C55.9752 12.9274 56.1212 13.025 56.2442 13.148C56.3672 13.271 56.4648 13.4171 56.5314 13.5778C56.598 13.7385 56.6322 13.9108 56.6322 14.0847V77.0449C56.6322 77.2188 56.598 77.3911 56.5314 77.5518C56.4648 77.7126 56.3672 77.8586 56.2442 77.9816C56.1212 78.1046 55.9752 78.2022 55.8145 78.2688C55.6537 78.3353 55.4815 78.3696 55.3075 78.3696ZM10.5083 12.8064C10.1725 12.807 9.85071 12.9407 9.61328 13.1781C9.37586 13.4155 9.24221 13.7374 9.24159 14.0731V77.0449C9.24221 77.3807 9.37586 77.7025 9.61328 77.9399C9.85071 78.1773 10.1725 78.311 10.5083 78.3116H55.3075C55.6433 78.311 55.9651 78.1773 56.2025 77.9399C56.44 77.7025 56.5736 77.3807 56.5742 77.0449V14.0731C56.5736 13.7374 56.44 13.4155 56.2025 13.1781C55.9651 12.9407 55.6433 12.807 55.3075 12.8064H10.5083Z" fill="#EBEBEB"/>
<path d="M105.491 78.3696H60.6919C60.3406 78.3696 60.0036 78.23 59.7552 77.9816C59.5068 77.7332 59.3672 77.3962 59.3672 77.0449V14.0731C59.3702 13.7238 59.5112 13.3898 59.7593 13.1439C60.0074 12.898 60.3426 12.76 60.6919 12.76H105.491C105.842 12.76 106.179 12.8996 106.428 13.148C106.676 13.3964 106.816 13.7334 106.816 14.0847V77.0449C106.816 77.3962 106.676 77.7332 106.428 77.9816C106.179 78.23 105.842 78.3696 105.491 78.3696ZM60.6919 12.8064C60.3561 12.807 60.0343 12.9407 59.7969 13.1781C59.5595 13.4155 59.4258 13.7374 59.4252 14.0731V77.0449C59.4258 77.3807 59.5595 77.7025 59.7969 77.9399C60.0343 78.1773 60.3561 78.311 60.6919 78.3116H105.491C105.827 78.311 106.149 78.1773 106.386 77.9399C106.624 77.7025 106.757 77.3807 106.758 77.0449V14.0731C106.757 13.7374 106.624 13.4155 106.386 13.1781C106.149 12.9407 105.827 12.807 105.491 12.8064H60.6919Z" fill="#EBEBEB"/>
<path d="M116 88.7168H0V88.7748H116V88.7168Z" fill="#EBEBEB"/>
<path d="M49.3172 26.0234C49.0734 26.0195 48.836 26.1017 48.6467 26.2554C48.6851 26.0453 48.6851 25.8299 48.6467 25.6197C48.5442 25.1203 48.2769 24.6698 47.8878 24.3405C47.4987 24.0111 47.0102 23.8219 46.5007 23.8032C46.2143 23.7995 45.9321 23.8733 45.6841 24.0166C45.4956 23.6706 45.2201 23.3797 44.8849 23.1726C44.5496 22.9655 44.1662 22.8494 43.7724 22.8357C43.545 22.8278 43.3189 22.8724 43.1116 22.9662C42.9043 23.06 42.7215 23.2003 42.5773 23.3764C42.4332 23.5524 42.3316 23.7593 42.2805 23.9811C42.2295 24.2028 42.2303 24.4333 42.283 24.6546C42.2988 24.733 42.3189 24.8105 42.3433 24.8866C42.1836 24.8441 42.019 24.8222 41.8538 24.8217C41.6264 24.8137 41.4002 24.8583 41.1929 24.9521C40.9857 25.0459 40.8028 25.1863 40.6587 25.3623C40.5145 25.5383 40.413 25.7453 40.3619 25.967C40.3109 26.1887 40.3117 26.4192 40.3643 26.6405C40.4665 27.1401 40.7337 27.5909 41.1229 27.9203C41.5121 28.2498 42.0007 28.4388 42.5103 28.4571H49.7557C49.9084 28.4626 50.0603 28.4328 50.1996 28.37C50.3389 28.3072 50.4618 28.2131 50.5588 28.095C50.6558 27.9769 50.7242 27.838 50.7588 27.6892C50.7933 27.5403 50.793 27.3855 50.7579 27.2368C50.6877 26.9027 50.5077 26.6018 50.2466 26.3819C49.9855 26.162 49.6583 26.0358 49.3172 26.0234Z" fill="#F5F5F5"/>
<path d="M37.4159 27.5222C36.9731 27.5142 36.5417 27.663 36.1979 27.9421C36.2708 27.5589 36.2708 27.1653 36.1979 26.7821C35.8684 24.9586 34.1261 23.4807 32.3026 23.4807C31.7834 23.4749 31.2722 23.6087 30.8224 23.8682C30.1264 22.6177 28.7646 21.7268 27.3424 21.7268C25.5189 21.7268 24.3079 23.2046 24.6373 25.0282C24.6651 25.1765 24.7023 25.323 24.7487 25.4666C24.4586 25.3901 24.1601 25.3504 23.8601 25.3483C22.0366 25.3483 20.8279 26.8262 21.155 28.6474C21.4821 30.4686 23.2291 31.9487 25.0503 31.9487H38.2047C39.4296 31.9487 40.2416 30.9558 40.0212 29.7308C39.894 29.1256 39.5688 28.5799 39.097 28.18C38.6253 27.7801 38.0338 27.5486 37.4159 27.5222Z" fill="#F5F5F5"/>
<path d="M90.572 28.2739C90.1289 28.2664 89.6974 28.416 89.354 28.6961C89.4266 28.3129 89.4266 27.9194 89.354 27.5361C89.0269 25.7149 87.2822 24.2371 85.4587 24.2371C84.9403 24.2314 84.4298 24.3652 83.9809 24.6245C83.2849 23.374 81.9207 22.4832 80.5009 22.4832C78.6774 22.4832 77.4663 23.961 77.7958 25.7822C77.8244 25.9311 77.8615 26.0783 77.9071 26.223C77.6174 26.1446 77.3187 26.1041 77.0186 26.1024C75.1974 26.1024 73.9863 27.5802 74.3158 29.4037C74.6452 31.2272 76.3968 32.712 78.2203 32.712H91.3724C92.5974 32.712 93.4094 31.7191 93.189 30.4964C93.0639 29.8868 92.7382 29.3366 92.2639 28.9337C91.7895 28.5308 91.1939 28.2985 90.572 28.2739Z" fill="#F5F5F5"/>
<path d="M97.6701 25.339C97.4852 25.3353 97.3049 25.3978 97.1621 25.5154C97.1923 25.3567 97.1923 25.1938 97.1621 25.0351C97.0852 24.6567 96.8832 24.3153 96.5886 24.0657C96.294 23.8161 95.9239 23.673 95.5381 23.6594C95.3214 23.6562 95.108 23.7123 94.9209 23.8218C94.7782 23.5603 94.5699 23.3404 94.3165 23.1838C94.0631 23.0272 93.7733 22.9392 93.4756 22.9286C93.3035 22.9225 93.1324 22.9562 92.9756 23.0271C92.8187 23.098 92.6803 23.2041 92.5712 23.3373C92.4621 23.4704 92.3852 23.6269 92.3465 23.7947C92.3078 23.9624 92.3083 24.1368 92.3481 24.3043C92.3599 24.3663 92.3754 24.4275 92.3945 24.4876C92.2743 24.4544 92.1503 24.4372 92.0256 24.4366C91.8534 24.43 91.682 24.4634 91.5249 24.5341C91.3678 24.6049 91.2292 24.711 91.12 24.8443C91.0108 24.9776 90.9339 25.1343 90.8954 25.3023C90.8569 25.4702 90.8578 25.6448 90.8981 25.8123C90.9754 26.1903 91.1776 26.5312 91.4722 26.7803C91.7667 27.0294 92.1365 27.1722 92.5221 27.1858H98.0019C98.1177 27.1897 98.2329 27.1668 98.3385 27.1189C98.444 27.071 98.5371 26.9993 98.6103 26.9094C98.6835 26.8195 98.735 26.714 98.7606 26.6009C98.7863 26.4879 98.7855 26.3704 98.7582 26.2578C98.7048 26.0055 98.5688 25.7782 98.3718 25.6118C98.1747 25.4454 97.9278 25.3494 97.6701 25.339Z" fill="#F0F0F0"/>
<path d="M63.9353 36.4773V34.2362H59.4067V36.4773H51.8945V89.2016H65.0304V36.4773H63.9353Z" fill="#F0F0F0"/>
<path d="M58.0801 39.3077H56.1406V41.2473H58.0801V39.3077Z" fill="#FAFAFA"/>
<path d="M60.7872 39.3077H58.8477V41.2473H60.7872V39.3077Z" fill="#FAFAFA"/>
<path d="M55.3692 42.2333H53.4297V44.1728H55.3692V42.2333Z" fill="#FAFAFA"/>
<path d="M58.0801 42.2333H56.1406V44.1728H58.0801V42.2333Z" fill="#FAFAFA"/>
<path d="M63.4981 42.2333H61.5586V44.1728H63.4981V42.2333Z" fill="#FAFAFA"/>
<path d="M55.3692 45.1611H53.4297V47.1007H55.3692V45.1611Z" fill="#FAFAFA"/>
<path d="M60.7872 45.1611H58.8477V47.1007H60.7872V45.1611Z" fill="#FAFAFA"/>
<path d="M63.4981 45.1611H61.5586V47.1007H63.4981V45.1611Z" fill="#FAFAFA"/>
<path d="M55.3692 51.0122H53.4297V52.9517H55.3692V51.0122Z" fill="#FAFAFA"/>
<path d="M60.7872 51.0122H58.8477V52.9517H60.7872V51.0122Z" fill="#FAFAFA"/>
<path d="M55.3692 53.9377H53.4297V55.8773H55.3692V53.9377Z" fill="#FAFAFA"/>
<path d="M58.0801 53.9377H56.1406V55.8773H58.0801V53.9377Z" fill="#FAFAFA"/>
<path d="M63.4981 53.9377H61.5586V55.8773H63.4981V53.9377Z" fill="#FAFAFA"/>
<path d="M55.3692 68.5491H53.4297V70.4886H55.3692V68.5491Z" fill="#FAFAFA"/>
<path d="M58.0801 68.5491H56.1406V70.4886H58.0801V68.5491Z" fill="#FAFAFA"/>
<path d="M63.4981 68.5491H61.5586V70.4886H63.4981V68.5491Z" fill="#FAFAFA"/>
<path d="M55.3692 71.4746H53.4297V73.4141H55.3692V71.4746Z" fill="#FAFAFA"/>
<path d="M60.7872 71.4746H58.8477V73.4141H60.7872V71.4746Z" fill="#FAFAFA"/>
<path d="M63.4981 71.4746H61.5586V73.4141H63.4981V71.4746Z" fill="#FAFAFA"/>
<path d="M55.3692 77.3279H53.4297V79.2674H55.3692V77.3279Z" fill="#FAFAFA"/>
<path d="M60.7872 77.3279H58.8477V79.2674H60.7872V77.3279Z" fill="#FAFAFA"/>
<path d="M55.3692 80.2534H53.4297V82.1929H55.3692V80.2534Z" fill="#FAFAFA"/>
<path d="M58.0801 80.2534H56.1406V82.1929H58.0801V80.2534Z" fill="#FAFAFA"/>
<path d="M63.4981 80.2534H61.5586V82.1929H63.4981V80.2534Z" fill="#FAFAFA"/>
<path d="M63.4981 56.8655H61.5586V58.805H63.4981V56.8655Z" fill="#FAFAFA"/>
<path d="M55.3692 59.791H53.4297V61.7305H55.3692V59.791Z" fill="#FAFAFA"/>
<path d="M58.0801 59.791H56.1406V61.7305H58.0801V59.791Z" fill="#FAFAFA"/>
<path d="M60.8026 62.7496L58.8633 62.7218L58.8355 64.6611L60.7748 64.6889L60.8026 62.7496Z" fill="#FAFAFA"/>
<path d="M63.5135 62.7884L61.5742 62.7606L61.5465 64.6999L63.4858 64.7277L63.5135 62.7884Z" fill="#FAFAFA"/>
<path d="M55.3692 65.6421H53.4297V67.5816H55.3692V65.6421Z" fill="#FAFAFA"/>
<path d="M89.144 46.5253V44.7134H92.8073V46.5253H98.8904V89.2017H88.2578V46.5253H89.144Z" fill="#F0F0F0"/>
<path d="M93.8864 50.3881H95.457V48.8174H93.8864V50.3881Z" fill="#FAFAFA"/>
<path d="M91.6911 50.3881H93.2617V48.8174H91.6911V50.3881Z" fill="#FAFAFA"/>
<path d="M96.0778 52.7568H97.6484V51.1862H96.0778V52.7568Z" fill="#FAFAFA"/>
<path d="M93.8864 52.7568H95.457V51.1862H93.8864V52.7568Z" fill="#FAFAFA"/>
<path d="M89.4958 52.7568H91.0664V51.1862H89.4958V52.7568Z" fill="#FAFAFA"/>
<path d="M96.0778 55.1255H97.6484V53.5548H96.0778V55.1255Z" fill="#FAFAFA"/>
<path d="M91.6911 55.1255H93.2617V53.5548H91.6911V55.1255Z" fill="#FAFAFA"/>
<path d="M89.4958 55.1255H91.0664V53.5548H89.4958V55.1255Z" fill="#FAFAFA"/>
<path d="M96.0778 59.8606H97.6484V58.29H96.0778V59.8606Z" fill="#FAFAFA"/>
<path d="M91.6911 59.8606H93.2617V58.29H91.6911V59.8606Z" fill="#FAFAFA"/>
<path d="M96.0778 62.2317H97.6484V60.661H96.0778V62.2317Z" fill="#FAFAFA"/>
<path d="M93.8864 62.2317H95.457V60.661H93.8864V62.2317Z" fill="#FAFAFA"/>
<path d="M89.4958 62.2317H91.0664V60.661H89.4958V62.2317Z" fill="#FAFAFA"/>
<path d="M96.0778 74.0568H97.6484V72.4861H96.0778V74.0568Z" fill="#FAFAFA"/>
<path d="M93.8864 74.0568H95.457V72.4861H93.8864V74.0568Z" fill="#FAFAFA"/>
<path d="M89.4958 74.0568H91.0664V72.4861H89.4958V74.0568Z" fill="#FAFAFA"/>
<path d="M96.0778 76.4231H97.6484V74.8525H96.0778V76.4231Z" fill="#FAFAFA"/>
<path d="M91.6911 76.4231H93.2617V74.8525H91.6911V76.4231Z" fill="#FAFAFA"/>
<path d="M89.4958 76.4231H91.0664V74.8525H89.4958V76.4231Z" fill="#FAFAFA"/>
<path d="M96.0778 81.1628H97.6484V79.5922H96.0778V81.1628Z" fill="#FAFAFA"/>
<path d="M91.6911 81.1628H93.2617V79.5922H91.6911V81.1628Z" fill="#FAFAFA"/>
<path d="M96.0778 83.5316H97.6484V81.961H96.0778V83.5316Z" fill="#FAFAFA"/>
<path d="M93.8864 83.5316H95.457V81.961H93.8864V83.5316Z" fill="#FAFAFA"/>
<path d="M89.4958 83.5316H91.0664V81.961H89.4958V83.5316Z" fill="#FAFAFA"/>
<path d="M89.4958 64.6005H91.0664V63.0298H89.4958V64.6005Z" fill="#FAFAFA"/>
<path d="M96.0778 66.9668H97.6484V65.3962H96.0778V66.9668Z" fill="#FAFAFA"/>
<path d="M93.8864 66.9668H95.457V65.3962H93.8864V66.9668Z" fill="#FAFAFA"/>
<path d="M91.7069 69.3594L93.2773 69.3369L93.2549 67.7664L91.6844 67.7889L91.7069 69.3594Z" fill="#FAFAFA"/>
<path d="M89.5076 69.3953L91.0781 69.3728L91.0556 67.8023L89.4852 67.8248L89.5076 69.3953Z" fill="#FAFAFA"/>
<path d="M96.0778 71.7042H97.6484V70.1336H96.0778V71.7042Z" fill="#FAFAFA"/>
<path d="M67.0254 46.9545H70.6539H76.6743V89.2017H66.1484V46.9545H67.0254Z" fill="#EBEBEB"/>
<path d="M71.719 50.7778H73.2734V49.2234H71.719V50.7778Z" fill="#FAFAFA"/>
<path d="M69.5472 50.7778H71.1016V49.2234H69.5472V50.7778Z" fill="#FAFAFA"/>
<path d="M73.8909 53.1234H75.4453V51.569H73.8909V53.1234Z" fill="#FAFAFA"/>
<path d="M71.719 53.1234H73.2734V51.569H71.719V53.1234Z" fill="#FAFAFA"/>
<path d="M67.3792 53.1234H68.9336V51.569H67.3792V53.1234Z" fill="#FAFAFA"/>
<path d="M73.8909 55.4666H75.4453V53.9122H73.8909V55.4666Z" fill="#FAFAFA"/>
<path d="M69.5472 55.4666H71.1016V53.9122H69.5472V55.4666Z" fill="#FAFAFA"/>
<path d="M67.3792 55.4666H68.9336V53.9122H67.3792V55.4666Z" fill="#FAFAFA"/>
<path d="M73.8909 60.1576H75.4453V58.6032H73.8909V60.1576Z" fill="#FAFAFA"/>
<path d="M69.5472 60.1576H71.1016V58.6032H69.5472V60.1576Z" fill="#FAFAFA"/>
<path d="M73.8909 62.5009H75.4453V60.9465H73.8909V62.5009Z" fill="#FAFAFA"/>
<path d="M71.719 62.5009H73.2734V60.9465H71.719V62.5009Z" fill="#FAFAFA"/>
<path d="M67.3792 62.5009H68.9336V60.9465H67.3792V62.5009Z" fill="#FAFAFA"/>
<path d="M73.8909 74.2075H75.4453V72.6531H73.8909V74.2075Z" fill="#FAFAFA"/>
<path d="M71.719 74.2075H73.2734V72.6531H71.719V74.2075Z" fill="#FAFAFA"/>
<path d="M67.3792 74.2075H68.9336V72.6531H67.3792V74.2075Z" fill="#FAFAFA"/>
<path d="M73.8909 76.5531H75.4453V74.9987H73.8909V76.5531Z" fill="#FAFAFA"/>
<path d="M69.5472 76.5531H71.1016V74.9987H69.5472V76.5531Z" fill="#FAFAFA"/>
<path d="M67.3792 76.5531H68.9336V74.9987H67.3792V76.5531Z" fill="#FAFAFA"/>
<path d="M73.8909 81.2418H75.4453V79.6874H73.8909V81.2418Z" fill="#FAFAFA"/>
<path d="M69.5472 81.2418H71.1016V79.6874H69.5472V81.2418Z" fill="#FAFAFA"/>
<path d="M73.8909 83.585H75.4453V82.0306H73.8909V83.585Z" fill="#FAFAFA"/>
<path d="M71.719 83.585H73.2734V82.0306H71.719V83.585Z" fill="#FAFAFA"/>
<path d="M67.3792 83.585H68.9336V82.0306H67.3792V83.585Z" fill="#FAFAFA"/>
<path d="M67.3792 64.8463H68.9336V63.2919H67.3792V64.8463Z" fill="#FAFAFA"/>
<path d="M73.8909 67.1896H75.4453V65.6352H73.8909V67.1896Z" fill="#FAFAFA"/>
<path d="M71.719 67.1896H73.2734V65.6352H71.719V67.1896Z" fill="#FAFAFA"/>
<path d="M69.5629 69.5619L71.1172 69.5397L71.0949 67.9854L69.5407 68.0077L69.5629 69.5619Z" fill="#FAFAFA"/>
<path d="M67.3872 69.5912L68.9414 69.569L68.9192 68.0147L67.3649 68.037L67.3872 69.5912Z" fill="#FAFAFA"/>
<path d="M73.8909 71.8806H75.4453V70.3262H73.8909V71.8806Z" fill="#FAFAFA"/>
<path d="M18.4535 46.9545H22.0797H28.1024V89.2017H17.5742V46.9545H18.4535Z" fill="#F0F0F0"/>
<path d="M23.1448 50.7778H24.6992V49.2234H23.1448V50.7778Z" fill="#FAFAFA"/>
<path d="M20.9769 50.7778H22.5312V49.2234H20.9769V50.7778Z" fill="#FAFAFA"/>
<path d="M25.3167 53.1234H26.8711V51.569H25.3167V53.1234Z" fill="#FAFAFA"/>
<path d="M23.1448 53.1234H24.6992V51.569H23.1448V53.1234Z" fill="#FAFAFA"/>
<path d="M18.805 53.1234H20.3594V51.569H18.805V53.1234Z" fill="#FAFAFA"/>
<path d="M25.3167 55.4666H26.8711V53.9122H25.3167V55.4666Z" fill="#FAFAFA"/>
<path d="M20.9769 55.4666H22.5312V53.9122H20.9769V55.4666Z" fill="#FAFAFA"/>
<path d="M18.805 55.4666H20.3594V53.9122H18.805V55.4666Z" fill="#FAFAFA"/>
<path d="M25.3167 60.1576H26.8711V58.6032H25.3167V60.1576Z" fill="#FAFAFA"/>
<path d="M20.9769 60.1576H22.5312V58.6032H20.9769V60.1576Z" fill="#FAFAFA"/>
<path d="M25.3167 62.5009H26.8711V60.9465H25.3167V62.5009Z" fill="#FAFAFA"/>
<path d="M23.1448 62.5009H24.6992V60.9465H23.1448V62.5009Z" fill="#FAFAFA"/>
<path d="M18.805 62.5009H20.3594V60.9465H18.805V62.5009Z" fill="#FAFAFA"/>
<path d="M25.3167 74.2075H26.8711V72.6531H25.3167V74.2075Z" fill="#FAFAFA"/>
<path d="M23.1448 74.2075H24.6992V72.6531H23.1448V74.2075Z" fill="#FAFAFA"/>
<path d="M18.805 74.2075H20.3594V72.6531H18.805V74.2075Z" fill="#FAFAFA"/>
<path d="M25.3167 76.5531H26.8711V74.9987H25.3167V76.5531Z" fill="#FAFAFA"/>
<path d="M20.9769 76.5531H22.5312V74.9987H20.9769V76.5531Z" fill="#FAFAFA"/>
<path d="M18.805 76.5531H20.3594V74.9987H18.805V76.5531Z" fill="#FAFAFA"/>
<path d="M25.3167 81.2418H26.8711V79.6874H25.3167V81.2418Z" fill="#FAFAFA"/>
<path d="M20.9769 81.2418H22.5312V79.6874H20.9769V81.2418Z" fill="#FAFAFA"/>
<path d="M25.3167 83.585H26.8711V82.0306H25.3167V83.585Z" fill="#FAFAFA"/>
<path d="M23.1448 83.585H24.6992V82.0306H23.1448V83.585Z" fill="#FAFAFA"/>
<path d="M18.805 83.585H20.3594V82.0306H18.805V83.585Z" fill="#FAFAFA"/>
<path d="M18.805 64.8463H20.3594V63.2919H18.805V64.8463Z" fill="#FAFAFA"/>
<path d="M25.3167 67.1896H26.8711V65.6352H25.3167V67.1896Z" fill="#FAFAFA"/>
<path d="M23.1448 67.1896H24.6992V65.6352H23.1448V67.1896Z" fill="#FAFAFA"/>
<path d="M20.9887 69.5629L22.543 69.5406L22.5207 67.9864L20.9665 68.0087L20.9887 69.5629Z" fill="#FAFAFA"/>
<path d="M18.8169 69.5921L20.3711 69.5698L20.3488 68.0156L18.7946 68.0378L18.8169 69.5921Z" fill="#FAFAFA"/>
<path d="M25.3167 71.8806H26.8711V70.3262H25.3167V71.8806Z" fill="#FAFAFA"/>
<path d="M39.2188 89.2017H50.7816V40.2706L39.2188 41.5072V89.2017Z" fill="#F0F0F0"/>
<path d="M46.9964 45.4906H50.1562V42.3308H46.9964V45.4906Z" fill="#FAFAFA"/>
<path d="M43.4183 45.4906H46.5781V42.3308H43.4183V45.4906Z" fill="#F0F0F0"/>
<path d="M39.8402 45.4906H43V42.3308H39.8402V45.4906Z" fill="#FAFAFA"/>
<path d="M46.9964 49.0216H50.1562V45.8618H46.9964V49.0216Z" fill="#FAFAFA"/>
<path d="M43.4183 49.0216H46.5781V45.8618H43.4183V49.0216Z" fill="#FAFAFA"/>
<path d="M39.8402 49.0216H43V45.8618H39.8402V49.0216Z" fill="#FAFAFA"/>
<path d="M46.9964 52.5526H50.1562V49.3928H46.9964V52.5526Z" fill="#FAFAFA"/>
<path d="M43.4183 52.5526H46.5781V49.3928H43.4183V52.5526Z" fill="#F0F0F0"/>
<path d="M39.8402 52.5526H43V49.3928H39.8402V52.5526Z" fill="#FAFAFA"/>
<path d="M46.9964 56.0814H50.1562V52.9216H46.9964V56.0814Z" fill="#F0F0F0"/>
<path d="M43.4183 56.0814H46.5781V52.9216H43.4183V56.0814Z" fill="#FAFAFA"/>
<path d="M39.8402 56.0814H43V52.9216H39.8402V56.0814Z" fill="#FAFAFA"/>
<path d="M46.9964 59.6124H50.1562V56.4526H46.9964V59.6124Z" fill="#FAFAFA"/>
<path d="M43.4183 59.6124H46.5781V56.4526H43.4183V59.6124Z" fill="#FAFAFA"/>
<path d="M39.8402 59.6124H43V56.4526H39.8402V59.6124Z" fill="#F0F0F0"/>
<path d="M46.9964 63.1388H50.1562V59.979H46.9964V63.1388Z" fill="#FAFAFA"/>
<path d="M43.4183 63.1388H46.5781V59.979H43.4183V63.1388Z" fill="#F0F0F0"/>
<path d="M39.8402 63.1388H43V59.979H39.8402V63.1388Z" fill="#FAFAFA"/>
<path d="M46.9964 66.6698H50.1562V63.51H46.9964V66.6698Z" fill="#F0F0F0"/>
<path d="M43.4183 66.6698H46.5781V63.51H43.4183V66.6698Z" fill="#F0F0F0"/>
<path d="M39.8402 66.6698H43V63.51H39.8402V66.6698Z" fill="#FAFAFA"/>
<path d="M46.9964 70.2009H50.1562V67.0411H46.9964V70.2009Z" fill="#FAFAFA"/>
<path d="M43.4183 70.2009H46.5781V67.0411H43.4183V70.2009Z" fill="#F0F0F0"/>
<path d="M39.8402 70.2009H43V67.0411H39.8402V70.2009Z" fill="#FAFAFA"/>
<path d="M46.9964 73.7296H50.1562V70.5698H46.9964V73.7296Z" fill="#FAFAFA"/>
<path d="M43.4183 73.7296H46.5781V70.5698H43.4183V73.7296Z" fill="#FAFAFA"/>
<path d="M39.8402 73.7296H43V70.5698H39.8402V73.7296Z" fill="#FAFAFA"/>
<path d="M46.9964 77.2583H50.1562V74.0985H46.9964V77.2583Z" fill="#F0F0F0"/>
<path d="M43.4183 77.2583H46.5781V74.0985H43.4183V77.2583Z" fill="#FAFAFA"/>
<path d="M39.8402 77.2583H43V74.0985H39.8402V77.2583Z" fill="#F0F0F0"/>
<path d="M46.9964 80.7893H50.1562V77.6295H46.9964V80.7893Z" fill="#FAFAFA"/>
<path d="M43.4183 80.7893H46.5781V77.6295H43.4183V80.7893Z" fill="#F0F0F0"/>
<path d="M39.8402 80.7893H43V77.6295H39.8402V80.7893Z" fill="#FAFAFA"/>
<path d="M46.9964 84.3181H50.1562V81.1583H46.9964V84.3181Z" fill="#F0F0F0"/>
<path d="M43.4183 84.3181H46.5781V81.1583H43.4183V84.3181Z" fill="#FAFAFA"/>
<path d="M39.8402 84.3181H43V81.1583H39.8402V84.3181Z" fill="#FAFAFA"/>
<path d="M77.7891 89.2016H87.1479V49.5923L77.7891 50.5945V89.2016Z" fill="#F0F0F0"/>
<path d="M84.0856 53.8193H86.6445V51.2604H84.0856V53.8193Z" fill="#FAFAFA"/>
<path d="M81.1871 53.8193H83.7461V51.2604H81.1871V53.8193Z" fill="#F0F0F0"/>
<path d="M78.2926 53.8193H80.8516V51.2604H78.2926V53.8193Z" fill="#FAFAFA"/>
<path d="M84.0856 56.6753H86.6445V54.1163H84.0856V56.6753Z" fill="#FAFAFA"/>
<path d="M81.1871 56.6753H83.7461V54.1163H81.1871V56.6753Z" fill="#FAFAFA"/>
<path d="M78.2926 56.6753H80.8516V54.1163H78.2926V56.6753Z" fill="#FAFAFA"/>
<path d="M84.0856 59.5359H86.6445V56.9769H84.0856V59.5359Z" fill="#FAFAFA"/>
<path d="M81.1871 59.5359H83.7461V56.9769H81.1871V59.5359Z" fill="#F0F0F0"/>
<path d="M78.2926 59.5359H80.8516V56.9769H78.2926V59.5359Z" fill="#FAFAFA"/>
<path d="M84.0856 62.3917H86.6445V59.8328H84.0856V62.3917Z" fill="#F0F0F0"/>
<path d="M81.1871 62.3917H83.7461V59.8328H81.1871V62.3917Z" fill="#FAFAFA"/>
<path d="M78.2926 62.3917H80.8516V59.8328H78.2926V62.3917Z" fill="#FAFAFA"/>
<path d="M84.0856 65.2477H86.6445V62.6887H84.0856V65.2477Z" fill="#FAFAFA"/>
<path d="M81.1871 65.2477H83.7461V62.6887H81.1871V65.2477Z" fill="#FAFAFA"/>
<path d="M78.2926 65.2477H80.8516V62.6887H78.2926V65.2477Z" fill="#F0F0F0"/>
<path d="M84.0856 68.106H86.6445V65.547H84.0856V68.106Z" fill="#FAFAFA"/>
<path d="M81.1871 68.106H83.7461V65.547H81.1871V68.106Z" fill="#F0F0F0"/>
<path d="M78.2926 68.106H80.8516V65.547H78.2926V68.106Z" fill="#FAFAFA"/>
<path d="M84.0856 70.9618H86.6445V68.4028H84.0856V70.9618Z" fill="#F0F0F0"/>
<path d="M81.1871 70.9618H83.7461V68.4028H81.1871V70.9618Z" fill="#F0F0F0"/>
<path d="M78.2926 70.9618H80.8516V68.4028H78.2926V70.9618Z" fill="#FAFAFA"/>
<path d="M84.0856 73.8201H86.6445V71.2611H84.0856V73.8201Z" fill="#FAFAFA"/>
<path d="M81.1871 73.8201H83.7461V71.2611H81.1871V73.8201Z" fill="#F0F0F0"/>
<path d="M78.2926 73.8201H80.8516V71.2611H78.2926V73.8201Z" fill="#FAFAFA"/>
<path d="M84.0856 76.676H86.6445V74.1171H84.0856V76.676Z" fill="#FAFAFA"/>
<path d="M81.1871 76.676H83.7461V74.1171H81.1871V76.676Z" fill="#FAFAFA"/>
<path d="M78.2926 76.676H80.8516V74.1171H78.2926V76.676Z" fill="#FAFAFA"/>
<path d="M84.0856 79.5342H86.6445V76.9752H84.0856V79.5342Z" fill="#F0F0F0"/>
<path d="M81.1871 79.5342H83.7461V76.9752H81.1871V79.5342Z" fill="#FAFAFA"/>
<path d="M78.2926 79.5342H80.8516V76.9752H78.2926V79.5342Z" fill="#F0F0F0"/>
<path d="M84.0856 82.3901H86.6445V79.8312H84.0856V82.3901Z" fill="#FAFAFA"/>
<path d="M81.1871 82.3901H83.7461V79.8312H81.1871V82.3901Z" fill="#F0F0F0"/>
<path d="M78.2926 82.3901H80.8516V79.8312H78.2926V82.3901Z" fill="#FAFAFA"/>
<path d="M84.0856 85.2484H86.6445V82.6895H84.0856V85.2484Z" fill="#F0F0F0"/>
<path d="M81.1871 85.2484H83.7461V82.6895H81.1871V85.2484Z" fill="#FAFAFA"/>
<path d="M78.2926 85.2484H80.8516V82.6895H78.2926V85.2484Z" fill="#FAFAFA"/>
<path d="M28.8516 89.2945H38.2128V49.6852L28.8516 50.6874V89.2945Z" fill="#F5F5F5"/>
<path d="M35.1481 53.9121H37.707V51.3531H35.1481V53.9121Z" fill="#FAFAFA"/>
<path d="M32.2535 53.9121H34.8125V51.3531H32.2535V53.9121Z" fill="#F0F0F0"/>
<path d="M29.3551 53.9121H31.9141V51.3531H29.3551V53.9121Z" fill="#FAFAFA"/>
<path d="M35.1481 56.7681H37.707V54.2091H35.1481V56.7681Z" fill="#FAFAFA"/>
<path d="M32.2535 56.7681H34.8125V54.2091H32.2535V56.7681Z" fill="#FAFAFA"/>
<path d="M29.3551 56.7681H31.9141V54.2091H29.3551V56.7681Z" fill="#FAFAFA"/>
<path d="M35.1481 59.6263H37.707V57.0674H35.1481V59.6263Z" fill="#FAFAFA"/>
<path d="M32.2535 59.6263H34.8125V57.0674H32.2535V59.6263Z" fill="#F0F0F0"/>
<path d="M29.3551 59.6263H31.9141V57.0674H29.3551V59.6263Z" fill="#FAFAFA"/>
<path d="M35.1481 62.4846H37.707V59.9257H35.1481V62.4846Z" fill="#F0F0F0"/>
<path d="M32.2535 62.4846H34.8125V59.9257H32.2535V62.4846Z" fill="#FAFAFA"/>
<path d="M29.3551 62.4846H31.9141V59.9257H29.3551V62.4846Z" fill="#FAFAFA"/>
<path d="M35.1481 65.3428H37.707V62.7838H35.1481V65.3428Z" fill="#FAFAFA"/>
<path d="M32.2535 65.3428H34.8125V62.7838H32.2535V65.3428Z" fill="#FAFAFA"/>
<path d="M29.3551 65.3428H31.9141V62.7838H29.3551V65.3428Z" fill="#F0F0F0"/>
<path d="M35.1481 68.1987H37.707V65.6398H35.1481V68.1987Z" fill="#FAFAFA"/>
<path d="M32.2535 68.1987H34.8125V65.6398H32.2535V68.1987Z" fill="#F0F0F0"/>
<path d="M29.3551 68.1987H31.9141V65.6398H29.3551V68.1987Z" fill="#FAFAFA"/>
<path d="M35.1481 71.0547H37.707V68.4957H35.1481V71.0547Z" fill="#F0F0F0"/>
<path d="M32.2535 71.0547H34.8125V68.4957H32.2535V71.0547Z" fill="#F0F0F0"/>
<path d="M29.3551 71.0547H31.9141V68.4957H29.3551V71.0547Z" fill="#FAFAFA"/>
<path d="M35.1481 73.9128H37.707V71.3539H35.1481V73.9128Z" fill="#FAFAFA"/>
<path d="M32.2535 73.9128H34.8125V71.3539H32.2535V73.9128Z" fill="#F0F0F0"/>
<path d="M29.3551 73.9128H31.9141V71.3539H29.3551V73.9128Z" fill="#FAFAFA"/>
<path d="M35.1481 76.7688H37.707V74.2098H35.1481V76.7688Z" fill="#FAFAFA"/>
<path d="M32.2535 76.7688H34.8125V74.2098H32.2535V76.7688Z" fill="#FAFAFA"/>
<path d="M29.3551 76.7688H31.9141V74.2098H29.3551V76.7688Z" fill="#FAFAFA"/>
<path d="M35.1481 79.6271H37.707V77.0681H35.1481V79.6271Z" fill="#F0F0F0"/>
<path d="M32.2535 79.6271H34.8125V77.0681H32.2535V79.6271Z" fill="#FAFAFA"/>
<path d="M29.3551 79.6271H31.9141V77.0681H29.3551V79.6271Z" fill="#F0F0F0"/>
<path d="M35.1481 82.4829H37.707V79.924H35.1481V82.4829Z" fill="#FAFAFA"/>
<path d="M32.2535 82.4829H34.8125V79.924H32.2535V82.4829Z" fill="#F0F0F0"/>
<path d="M29.3551 82.4829H31.9141V79.924H29.3551V82.4829Z" fill="#FAFAFA"/>
<path d="M35.1481 85.3412H37.707V82.7822H35.1481V85.3412Z" fill="#F0F0F0"/>
<path d="M32.2535 85.3412H34.8125V82.7822H32.2535V85.3412Z" fill="#FAFAFA"/>
<path d="M29.3551 85.3412H31.9141V82.7822H29.3551V85.3412Z" fill="#FAFAFA"/>
<path d="M76.2198 27.3018C75.922 27.2967 75.632 27.397 75.4008 27.5848C75.4508 27.3282 75.4508 27.0643 75.4008 26.8076C75.2741 26.1977 74.9464 25.648 74.4703 25.2463C73.9942 24.8447 73.3971 24.6143 72.7746 24.592C72.4248 24.588 72.0804 24.6777 71.777 24.8519C71.5451 24.4292 71.2075 24.0741 70.7972 23.8211C70.3868 23.5682 69.9178 23.4261 69.4361 23.4088C68.2065 23.4088 67.3922 24.4064 67.6126 25.6337C67.6313 25.7343 67.6569 25.8335 67.6892 25.9307C67.4931 25.8782 67.2912 25.8509 67.0883 25.8495C65.861 25.8495 65.0444 26.8447 65.2671 28.0743C65.3919 28.6855 65.7184 29.2371 66.1943 29.6406C66.6701 30.044 67.2676 30.276 67.891 30.2992H76.758C76.9448 30.3056 77.1306 30.2689 77.3009 30.1919C77.4712 30.1148 77.6214 29.9996 77.7399 29.855C77.8584 29.7105 77.942 29.5406 77.9841 29.3585C78.0263 29.1764 78.0259 28.987 77.983 28.8051C77.9009 28.3928 77.6822 28.0202 77.3623 27.7474C77.0424 27.4747 76.6399 27.3177 76.2198 27.3018Z" fill="#FAFAFA"/>
<path d="M57.9981 98.3007C82.8412 98.3007 102.981 97.1249 102.981 95.6745C102.981 94.224 82.8412 93.0482 57.9981 93.0482C33.155 93.0482 13.0156 94.224 13.0156 95.6745C13.0156 97.1249 33.155 98.3007 57.9981 98.3007Z" fill="#F5F5F5"/>
<path d="M84.9204 57.5035H82.9159C82.3562 57.5029 81.8195 57.2803 81.4237 56.8845C81.0279 56.4887 80.8053 55.952 80.8047 55.3923V53.3855C80.8053 52.8258 81.0279 52.2891 81.4237 51.8933C81.8195 51.4975 82.3562 51.2749 82.9159 51.2743H84.9204C85.4803 51.2749 86.0172 51.4975 86.4134 51.8932C86.8095 52.2889 87.0327 52.8255 87.0339 53.3855V55.3923C87.0327 55.9522 86.8095 56.4889 86.4134 56.8846C86.0172 57.2803 85.4803 57.5029 84.9204 57.5035ZM82.9159 51.8891C82.5192 51.8897 82.1389 52.0476 81.8585 52.3281C81.578 52.6086 81.4201 52.9888 81.4195 53.3855V55.3923C81.4195 55.7892 81.5771 56.1698 81.8578 56.4504C82.1384 56.731 82.519 56.8887 82.9159 56.8887H84.9204C85.3172 56.8887 85.6979 56.731 85.9785 56.4504C86.2591 56.1698 86.4168 55.7892 86.4168 55.3923V53.3855C86.4162 52.9888 86.2583 52.6086 85.9778 52.3281C85.6973 52.0476 85.317 51.8897 84.9204 51.8891H82.9159Z" fill="#EF233C"/>
<g opacity="0.6">
<path d="M84.9204 57.5035H82.9159C82.3562 57.5029 81.8195 57.2803 81.4237 56.8845C81.0279 56.4887 80.8053 55.952 80.8047 55.3923V53.3855C80.8053 52.8258 81.0279 52.2891 81.4237 51.8933C81.8195 51.4975 82.3562 51.2749 82.9159 51.2743H84.9204C85.4803 51.2749 86.0172 51.4975 86.4134 51.8932C86.8095 52.2889 87.0327 52.8255 87.0339 53.3855V55.3923C87.0327 55.9522 86.8095 56.4889 86.4134 56.8846C86.0172 57.2803 85.4803 57.5029 84.9204 57.5035ZM82.9159 51.8891C82.5192 51.8897 82.1389 52.0476 81.8585 52.3281C81.578 52.6086 81.4201 52.9888 81.4195 53.3855V55.3923C81.4195 55.7892 81.5771 56.1698 81.8578 56.4504C82.1384 56.731 82.519 56.8887 82.9159 56.8887H84.9204C85.3172 56.8887 85.6979 56.731 85.9785 56.4504C86.2591 56.1698 86.4168 55.7892 86.4168 55.3923V53.3855C86.4162 52.9888 86.2583 52.6086 85.9778 52.3281C85.6973 52.0476 85.317 51.8897 84.9204 51.8891H82.9159Z" fill="white"/>
</g>
<path d="M83.7029 56.1023L80.7773 53.1791L81.6473 52.3068L83.7029 54.3623L87.4265 50.6387L88.2965 51.5087L83.7029 56.1023Z" fill="#EF233C"/>
<path d="M40.73 35.0482H38.9576C38.4664 35.0446 37.9965 34.8478 37.6492 34.5006C37.3019 34.1533 37.1052 33.6833 37.1016 33.1922V31.4174C37.1022 30.9243 37.2975 30.4513 37.6451 30.1016C37.9927 29.7518 38.4644 29.5535 38.9576 29.5498H40.73C41.2252 29.5504 41.6998 29.7474 42.05 30.0975C42.4001 30.4476 42.597 30.9223 42.5976 31.4174V33.176C42.5979 33.4215 42.5499 33.6647 42.4562 33.8917C42.3625 34.1187 42.225 34.325 42.0516 34.4989C41.8782 34.6727 41.6722 34.8107 41.4455 34.905C41.2187 34.9992 40.9756 35.0479 40.73 35.0482ZM38.9576 30.0834C38.6066 30.0834 38.27 30.2227 38.0217 30.4706C37.7733 30.7185 37.6335 31.0549 37.6328 31.4058V33.176C37.6335 33.5269 37.7733 33.8633 38.0217 34.1112C38.27 34.3591 38.6066 34.4984 38.9576 34.4984H40.73C41.0808 34.4984 41.4171 34.359 41.6651 34.111C41.9131 33.863 42.0524 33.5267 42.0524 33.176V31.4012C42.0524 31.0504 41.9131 30.7141 41.6651 30.4661C41.4171 30.2181 41.0808 30.0788 40.73 30.0788L38.9576 30.0834Z" fill="#EF233C"/>
<g opacity="0.6">
<path d="M40.73 35.0482H38.9576C38.4664 35.0446 37.9965 34.8478 37.6492 34.5006C37.3019 34.1533 37.1052 33.6833 37.1016 33.1922V31.4174C37.1022 30.9243 37.2975 30.4513 37.6451 30.1016C37.9927 29.7518 38.4644 29.5535 38.9576 29.5498H40.73C41.2252 29.5504 41.6998 29.7474 42.05 30.0975C42.4001 30.4476 42.597 30.9223 42.5976 31.4174V33.176C42.5979 33.4215 42.5499 33.6647 42.4562 33.8917C42.3625 34.1187 42.225 34.325 42.0516 34.4989C41.8782 34.6727 41.6722 34.8107 41.4455 34.905C41.2187 34.9992 40.9756 35.0479 40.73 35.0482ZM38.9576 30.0834C38.6066 30.0834 38.27 30.2227 38.0217 30.4706C37.7733 30.7185 37.6335 31.0549 37.6328 31.4058V33.176C37.6335 33.5269 37.7733 33.8633 38.0217 34.1112C38.27 34.3591 38.6066 34.4984 38.9576 34.4984H40.73C41.0808 34.4984 41.4171 34.359 41.6651 34.111C41.9131 33.863 42.0524 33.5267 42.0524 33.176V31.4012C42.0524 31.0504 41.9131 30.7141 41.6651 30.4661C41.4171 30.2181 41.0808 30.0788 40.73 30.0788L38.9576 30.0834Z" fill="white"/>
</g>
<path d="M39.647 33.807L37.0625 31.2226L37.8304 30.4523L39.647 32.2689L42.9391 28.9768L43.7093 29.747L39.647 33.807Z" fill="#EF233C"/>
<path d="M92.8014 32.3872C90.9777 31.9551 89.2481 31.194 87.6974 30.1415C86.1469 31.1945 84.4172 31.9555 82.5934 32.3872C81.9269 32.5457 81.2513 32.6627 80.5703 32.7376C80.5703 32.7677 80.5703 32.8002 80.5703 32.8304C80.5703 39.0944 83.3822 43.4676 87.6997 46.8872C92.0172 43.4676 94.829 39.0967 94.829 32.8304C94.829 32.8002 94.829 32.7677 94.829 32.7376C94.1465 32.6628 93.4694 32.5458 92.8014 32.3872Z" fill="#EF233C"/>
<path opacity="0.1" d="M87.6974 30.1415C86.1469 31.1945 84.4172 31.9555 82.5934 32.3872C81.9269 32.5457 81.2513 32.6627 80.5703 32.7376C80.5703 32.7677 80.5703 32.8002 80.5703 32.8304C80.5703 39.0944 83.3822 43.4676 87.6997 46.8872L87.6974 30.1415Z" fill="black"/>
<g opacity="0.5">
<path d="M87.6987 45.7504L87.5084 45.588C83.6178 42.2565 81.7084 38.5027 81.4764 33.7699L81.4648 33.5101L81.72 33.466C82.0866 33.4033 82.4532 33.3291 82.8058 33.234C84.4791 32.8376 86.0794 32.18 87.5479 31.2852L87.701 31.1901L87.8541 31.2852C89.3228 32.1795 90.9231 32.8372 92.5962 33.234C92.9535 33.3198 93.3177 33.3941 93.682 33.466L93.9395 33.5101L93.9256 33.7699C93.6936 38.5027 91.7819 42.2588 87.8936 45.588L87.6987 45.7504ZM82.075 33.9996C82.3441 38.3612 84.1375 41.8597 87.6987 44.9755C91.2599 41.8621 93.0532 38.3612 93.3224 33.9996C93.0324 33.9462 92.7424 33.8836 92.457 33.814C90.7825 33.417 89.178 32.7677 87.6987 31.8884C86.2195 32.7681 84.615 33.4174 82.9404 33.814C82.6573 33.8836 82.3627 33.9439 82.075 33.9996Z" fill="white"/>
</g>
<path opacity="0.9" d="M87.6971 44.9755C84.1359 41.8597 82.3425 38.3612 82.0734 33.9996C82.3657 33.9439 82.6557 33.8836 82.9388 33.814C84.6134 33.4174 86.2179 32.7681 87.6971 31.8884V31.1924L87.544 31.2875C86.0755 32.1823 84.4752 32.8399 82.8019 33.2363C82.4493 33.3221 82.0827 33.3964 81.7161 33.4683L81.4609 33.5124L81.4725 33.7722C81.7045 38.505 83.6162 42.2588 87.5045 45.5903L87.6948 45.7527L87.6971 44.9755Z" fill="#F0F0F0"/>
<g opacity="0.2">
<path d="M87.2923 41.2125L84.1719 38.0898L85.0999 37.1618L87.2923 39.3542L91.2664 35.38L92.1968 36.308L87.2923 41.2125Z" fill="#EF233C"/>
</g>
<g opacity="0.9">
<path d="M87.2923 41.2125L84.1719 38.0898L85.0999 37.1618L87.2923 39.3542L91.2664 35.38L92.1968 36.308L87.2923 41.2125Z" fill="white"/>
</g>
<path d="M74.2483 29.9141H66.1445V37.4471H74.2483V29.9141Z" fill="#EF233C"/>
<path opacity="0.3" d="M74.2483 29.9141H66.1445V37.4471H74.2483V29.9141Z" fill="white"/>
<path d="M77.8437 29.9141H73.793V37.4471H77.8437V29.9141Z" fill="#EF233C"/>
<path d="M71.4669 31.3918H68.9219V37.447H71.4669V31.3918Z" fill="#263238"/>
<path d="M69.5576 31.3918H68.9219V37.447H69.5576V31.3918Z" fill="#EF233C"/>
<path d="M69.2652 36.4425H48.1602V96.3913H69.2652V36.4425Z" fill="#EF233C"/>
<path opacity="0.6" d="M69.2652 36.4425H48.1602V96.3913H69.2652V36.4425Z" fill="white"/>
<path d="M68.9492 36.4425V45.3072H64.293V47.2723H68.9492V54.8703H64.293V56.8353H68.9492V64.4333H64.293V66.3983H68.9492V73.9963H64.293V75.9614H68.9492V83.5594H64.293V85.5244H68.9492V96.3913H78.9275V36.4425H68.9492Z" fill="#EF233C"/>
<path opacity="0.2" d="M68.9492 36.4425V45.3072H64.293V47.2723H68.9492V54.8703H64.293V56.8353H68.9492V64.4333H64.293V66.3983H68.9492V73.9963H64.293V75.9614H68.9492V83.5594H64.293V85.5244H68.9492V96.3913H78.9275V36.4425H68.9492Z" fill="white"/>
<path d="M64.5542 83.5594H45.2031V85.5245H64.5542V83.5594Z" fill="#EF233C"/>
<path d="M64.5542 73.9963H45.2031V75.9614H64.5542V73.9963Z" fill="#EF233C"/>
<path d="M64.5542 64.4333H45.2031V66.3984H64.5542V64.4333Z" fill="#EF233C"/>
<path d="M64.5542 54.8704H45.2031V56.8354H64.5542V54.8704Z" fill="#EF233C"/>
<path d="M64.5542 45.3073H45.2031V47.2723H64.5542V45.3073Z" fill="#EF233C"/>
<g opacity="0.4">
<path d="M64.5542 83.5594H45.2031V85.5245H64.5542V83.5594Z" fill="white"/>
<path d="M64.5542 73.9963H45.2031V75.9614H64.5542V73.9963Z" fill="white"/>
<path d="M64.5542 64.4333H45.2031V66.3984H64.5542V64.4333Z" fill="white"/>
<path d="M64.5542 54.8702H45.2031V56.8353H64.5542V54.8702Z" fill="white"/>
<path d="M64.5542 45.3073H45.2031V47.2723H64.5542V45.3073Z" fill="white"/>
</g>
<path d="M64.8754 87.6727H52.5469V96.3913H64.8754V87.6727Z" fill="#EF233C"/>
<path d="M55.054 38.7556H49.9453V43.8643H55.054V38.7556Z" fill="#EF233C"/>
<path d="M61.1477 38.7556H56.0391V43.8643H61.1477V38.7556Z" fill="#EF233C"/>
<path opacity="0.7" d="M67.2376 38.7556H62.1289V43.8643H67.2376V38.7556Z" fill="white"/>
<path opacity="0.7" d="M55.054 48.5159H49.9453V53.6245H55.054V48.5159Z" fill="white"/>
<path d="M61.1477 48.5159H56.0391V53.6245H61.1477V48.5159Z" fill="#EF233C"/>
<path opacity="0.7" d="M67.2376 48.5159H62.1289V53.6245H67.2376V48.5159Z" fill="white"/>
<path opacity="0.7" d="M55.054 58.0789H49.9453V63.1875H55.054V58.0789Z" fill="white"/>
<path opacity="0.7" d="M61.1477 58.0789H56.0391V63.1875H61.1477V58.0789Z" fill="white"/>
<path d="M67.2376 58.0789H62.1289V63.1875H67.2376V58.0789Z" fill="#EF233C"/>
<path opacity="0.7" d="M55.054 67.6418H49.9453V72.7505H55.054V67.6418Z" fill="white"/>
<path d="M61.1477 67.6418H56.0391V72.7505H61.1477V67.6418Z" fill="#EF233C"/>
<path opacity="0.7" d="M67.2376 67.6418H62.1289V72.7505H67.2376V67.6418Z" fill="white"/>
<path d="M55.054 77.2073H49.9453V82.3159H55.054V77.2073Z" fill="#EF233C"/>
<path d="M61.1477 77.2073H56.0391V82.3159H61.1477V77.2073Z" fill="#EF233C"/>
<path opacity="0.7" d="M67.2376 77.2073H62.1289V82.3159H67.2376V77.2073Z" fill="white"/>
<path d="M50.4836 38.7556H49.9453V43.8643H50.4836V38.7556Z" fill="#EF233C"/>
<path d="M56.5773 38.7556H56.0391V43.8643H56.5773V38.7556Z" fill="#EF233C"/>
<path d="M62.6671 38.7556H62.1289V43.8643H62.6671V38.7556Z" fill="#EF233C"/>
<path d="M50.4836 48.5159H49.9453V53.6245H50.4836V48.5159Z" fill="#EF233C"/>
<path d="M56.5773 48.5159H56.0391V53.6245H56.5773V48.5159Z" fill="#EF233C"/>
<path d="M62.6671 48.5159H62.1289V53.6245H62.6671V48.5159Z" fill="#EF233C"/>
<path d="M50.4836 58.0789H49.9453V63.1875H50.4836V58.0789Z" fill="#EF233C"/>
<path d="M56.5773 58.0789H56.0391V63.1875H56.5773V58.0789Z" fill="#EF233C"/>
<path d="M62.6671 58.0789H62.1289V63.1875H62.6671V58.0789Z" fill="#EF233C"/>
<path d="M50.4836 67.6418H49.9453V72.7505H50.4836V67.6418Z" fill="#EF233C"/>
<path d="M56.5773 67.6418H56.0391V72.7505H56.5773V67.6418Z" fill="#EF233C"/>
<path d="M62.6671 67.6418H62.1289V72.7505H62.6671V67.6418Z" fill="#EF233C"/>
<path d="M50.4836 77.2073H49.9453V82.3159H50.4836V77.2073Z" fill="#EF233C"/>
<path d="M56.5773 77.2073H56.0391V82.3159H56.5773V77.2073Z" fill="#EF233C"/>
<path d="M62.6671 77.2073H62.1289V82.3159H62.6671V77.2073Z" fill="#EF233C"/>
<g opacity="0.2">
<path d="M50.4836 38.7556H49.9453V43.8643H50.4836V38.7556Z" fill="black"/>
<path d="M56.5773 38.7556H56.0391V43.8643H56.5773V38.7556Z" fill="black"/>
<path d="M62.6671 38.7556H62.1289V43.8643H62.6671V38.7556Z" fill="black"/>
<path d="M50.4836 48.5159H49.9453V53.6245H50.4836V48.5159Z" fill="black"/>
<path d="M56.5773 48.5159H56.0391V53.6245H56.5773V48.5159Z" fill="black"/>
<path d="M62.6671 48.5159H62.1289V53.6245H62.6671V48.5159Z" fill="black"/>
<path d="M50.4836 58.0789H49.9453V63.1875H50.4836V58.0789Z" fill="black"/>
<path d="M56.5773 58.0789H56.0391V63.1875H56.5773V58.0789Z" fill="black"/>
<path d="M62.6671 58.0789H62.1289V63.1875H62.6671V58.0789Z" fill="black"/>
<path d="M50.4836 67.642H49.9453V72.7506H50.4836V67.642Z" fill="black"/>
<path d="M56.5773 67.642H56.0391V72.7506H56.5773V67.642Z" fill="black"/>
<path d="M62.6671 67.642H62.1289V72.7506H62.6671V67.642Z" fill="black"/>
<path d="M50.4836 77.2073H49.9453V82.3159H50.4836V77.2073Z" fill="black"/>
<path d="M56.5773 77.2073H56.0391V82.3159H56.5773V77.2073Z" fill="black"/>
<path d="M62.6671 77.2073H62.1289V82.3159H62.6671V77.2073Z" fill="black"/>
</g>
<path opacity="0.4" d="M64.2859 88.2621H58.7109V96.3914H64.2859V88.2621Z" fill="white"/>
<path opacity="0.7" d="M58.7117 88.2621H53.1367V96.3914H58.7117V88.2621Z" fill="white"/>
<path d="M53.726 88.2621H53.1367V96.3914H53.726V88.2621Z" fill="#EF233C"/>
<path opacity="0.2" d="M53.726 88.2621H53.1367V96.3914H53.726V88.2621Z" fill="black"/>
<path d="M23.4333 48.5205C23.5293 48.0714 23.67 47.6331 23.8532 47.212C24.0458 46.748 24.2639 46.284 24.5028 45.82C24.7418 45.356 24.9924 44.892 25.2476 44.428C25.5028 43.964 25.7835 43.5 26.0433 43.0685L23.9924 41.76C23.6676 42.2542 23.3916 42.7321 23.1108 43.2309C22.8301 43.7297 22.5726 44.2331 22.3244 44.7505C22.0761 45.2678 21.8604 45.8061 21.6492 46.3745C21.4255 46.9738 21.2698 47.5964 21.1852 48.2305C21.1643 48.4471 21.1589 48.665 21.169 48.8824H23.3823C23.3885 48.7605 23.4055 48.6394 23.4333 48.5205Z" fill="#CE7A63"/>
<path d="M40.268 43.4257C39.7533 44.3264 39.1773 45.1907 38.5443 46.0125C38.4008 46.1947 38.2458 46.3675 38.0803 46.5299C37.9526 46.661 37.8064 46.7728 37.6464 46.8616H37.6209C37.6209 46.8616 37.5374 46.8106 37.4399 46.7132C37.132 46.4103 36.8617 46.0715 36.6349 45.7039C36.3774 45.291 36.1268 44.8456 35.8925 44.3862C35.6582 43.9268 35.4285 43.4582 35.2151 42.9803C35.0016 42.5023 34.7859 42.0082 34.5933 41.5488L32.3359 42.4165C32.5424 42.9733 32.7651 43.4744 32.9995 43.9941C33.2338 44.5138 33.4913 45.0172 33.7674 45.5207C34.0493 46.0352 34.3591 46.534 34.6954 47.0147C34.8717 47.2607 35.0596 47.5043 35.2684 47.7479C35.4935 48.0121 35.7446 48.253 36.0178 48.4671C36.1822 48.5957 36.3585 48.7084 36.5444 48.8035C36.7807 48.9233 37.0357 49.0017 37.2984 49.0355C37.5936 49.0681 37.8923 49.0348 38.1731 48.938C38.3949 48.861 38.6038 48.7507 38.7925 48.6109C39.0863 48.3945 39.3486 48.1384 39.572 47.8499C39.7647 47.6034 39.9399 47.3437 40.0963 47.0727C40.3898 46.5658 40.6434 46.0368 40.855 45.4905C41.0654 44.9611 41.2413 44.4186 41.3816 43.8665L40.268 43.4257Z" fill="#CE7A63"/>
<path d="M37.144 45.3861L34.6245 47.2676C34.6245 47.2676 34.527 47.1609 34.3669 46.9753C34.2509 46.8408 34.1001 46.6598 33.9261 46.4487C32.9471 45.2562 31.5157 43.0777 31.5041 42.0128C31.4855 40.4213 33.1281 40.187 34.9841 41.8133C35.7821 42.5093 36.1997 43.6809 36.6081 44.4024C36.7426 44.6344 36.8563 44.8479 36.9445 45.0103C37.0744 45.24 37.144 45.3861 37.144 45.3861Z" fill="#263238"/>
<path opacity="0.5" d="M37.144 45.3861L34.6245 47.2676C34.6245 47.2676 34.527 47.1609 34.3669 46.9753C34.2509 46.8408 34.1001 46.6598 33.9261 46.4487C32.9471 45.2562 31.5157 43.0777 31.5041 42.0128C31.4855 40.4213 33.1281 40.187 34.9841 41.8133C35.7821 42.5093 36.1997 43.6809 36.6081 44.4024C36.7426 44.6344 36.8563 44.8479 36.9445 45.0103C37.0744 45.24 37.144 45.3861 37.144 45.3861Z" fill="white"/>
<path opacity="0.2" d="M31.4883 42.1962C32.0567 41.818 32.472 42.7924 33.5995 43.616C34.1006 43.9849 35.2003 46.3768 35.1098 46.9058L34.625 47.2677C34.625 47.2677 31.4744 43.7807 31.4883 42.1962Z" fill="black"/>
<path d="M40.0742 43.8086L40.9721 42.1846L41.7933 44.3213C41.7933 44.3213 40.7772 45.1704 40.2575 44.5997L40.0742 43.8086Z" fill="#CE7A63"/>
<path d="M42.0104 42.166L42.3724 43.7645L41.79 44.312L40.9688 42.1753L42.0104 42.166Z" fill="#CE7A63"/>
<path d="M40.2179 43.6833C40.2009 43.3891 40.135 43.0998 40.023 42.8272C39.8838 42.5117 39.559 42.2472 39.6263 42.0732C39.6587 41.9967 39.8582 41.9595 39.9394 41.9781C40.1319 42.0674 40.2934 42.212 40.4034 42.3934C40.5125 42.5836 40.8164 43.2495 40.8164 43.2495L40.2179 43.6833Z" fill="#CE7A63"/>
<path d="M31.3581 33.2897C31.3581 33.2897 32.0541 33.6145 31.7316 34.1342C31.8111 34.1882 31.8784 34.2581 31.9295 34.3395C31.9806 34.4208 32.0143 34.5119 32.0284 34.6069C32.0426 34.7019 32.0369 34.7988 32.0118 34.8916C31.9867 34.9843 31.9426 35.0708 31.8824 35.1457C31.8824 35.1457 31.9219 36.1015 31.3581 35.547C30.7944 34.9926 30.625 33.4358 30.625 33.4358L31.3581 33.2897Z" fill="#263238"/>
<path d="M26.6017 43.6554C26.2019 44.7644 25.7371 45.849 25.2097 46.9034C25.096 47.1354 24.9777 47.3511 24.9035 47.5228C24.7527 47.8198 24.6575 48.0007 24.6575 48.0007L21.4258 46.212C21.4258 46.212 21.4675 46.0751 21.5395 45.8478C21.5975 45.6761 21.6694 45.4487 21.7715 45.1889C22.3097 43.6554 23.4094 40.9178 24.4859 40.7623C26.0959 40.5164 27.2559 41.7205 26.6017 43.6554Z" fill="#263238"/>
<path opacity="0.5" d="M26.6017 43.6554C26.2019 44.7644 25.7371 45.849 25.2097 46.9034C25.096 47.1354 24.9777 47.3511 24.9035 47.5228C24.7527 47.8198 24.6575 48.0007 24.6575 48.0007L21.4258 46.212C21.4258 46.212 21.4675 46.0751 21.5395 45.8478C21.5975 45.6761 21.6694 45.4487 21.7715 45.1889C22.3097 43.6554 23.4094 40.9178 24.4859 40.7623C26.0959 40.5164 27.2559 41.7205 26.6017 43.6554Z" fill="white"/>
<path d="M38.6372 94.4147L40.1545 93.9229L39.2126 90.3455L37.6953 90.8373L38.6372 94.4147Z" fill="#CE7A63"/>
<path d="M40.1793 93.728L38.4741 94.2802C38.4595 94.2842 38.446 94.291 38.4341 94.3003C38.4222 94.3097 38.4123 94.3212 38.405 94.3344C38.3977 94.3476 38.393 94.3621 38.3913 94.3771C38.3897 94.392 38.391 94.4072 38.3952 94.4217L38.7502 95.7974C38.7731 95.8682 38.8229 95.9271 38.8889 95.9614C38.9549 95.9957 39.0317 96.0026 39.1028 95.9807C39.6944 95.7766 39.9658 95.6513 40.7268 95.4077C41.1908 95.2569 43.1651 94.6699 43.8008 94.4634C44.4365 94.257 44.2161 93.6329 43.9261 93.663C42.6338 93.7999 41.0191 93.9345 40.4832 93.735C40.3856 93.6986 40.2785 93.6961 40.1793 93.728Z" fill="#263238"/>
<path opacity="0.2" d="M37.6953 90.8373L39.2126 90.3455L39.6975 92.1899L38.1802 92.6817L37.6953 90.8373Z" fill="black"/>
<path d="M33.998 54.6198C33.998 54.6198 36.1509 67.6118 36.782 72.1334C37.478 77.0936 40.2272 91.6005 40.2272 91.6005L37.4107 92.3778C37.4107 92.3778 33.4087 78.3209 32.2487 73.4976C31.0191 68.266 28.3047 54.6198 28.3047 54.6198H33.998Z" fill="#263238"/>
<path opacity="0.4" d="M30.5402 59.9442C31.6422 62.6957 31.7674 67.3682 31.3197 69.2914C30.6446 66.1432 29.8697 62.3778 29.2734 59.45C29.4869 58.696 29.872 58.2714 30.5402 59.9442Z" fill="black"/>
<path d="M37.3486 92.4335L40.3646 91.6029L40.3066 90.3733L36.9102 91.5472L37.3486 92.4335Z" fill="#263238"/>
<path d="M40.8013 93.8115C40.6633 93.8505 40.5219 93.8761 40.379 93.8881C40.3718 93.8885 40.3645 93.887 40.358 93.8837C40.3515 93.8805 40.3459 93.8756 40.3419 93.8695C40.338 93.8632 40.3359 93.856 40.3359 93.8486C40.3359 93.8412 40.338 93.834 40.3419 93.8277C40.379 93.779 40.7131 93.3452 40.9219 93.3637C40.9455 93.3647 40.9684 93.3719 40.9884 93.3845C41.0083 93.3971 41.0246 93.4147 41.0356 93.4357C41.0568 93.4653 41.0698 93.5001 41.073 93.5364C41.0763 93.5727 41.0698 93.6092 41.0542 93.6421C40.9929 93.7271 40.9032 93.7872 40.8013 93.8115ZM40.4579 93.8115C40.7479 93.7767 40.9451 93.7048 40.9938 93.612C41.0028 93.59 41.006 93.5661 41.0032 93.5426C41.0004 93.519 40.9915 93.4966 40.9776 93.4774C40.973 93.4664 40.9653 93.457 40.9554 93.4504C40.9455 93.4438 40.9338 93.4403 40.9219 93.4403C40.8106 93.4264 40.5994 93.6352 40.4579 93.8045V93.8115Z" fill="#EF233C"/>
<path d="M40.3879 93.8858H40.3693C40.363 93.8848 40.3571 93.8822 40.3522 93.8781C40.3472 93.874 40.3436 93.8686 40.3415 93.8626C40.3415 93.844 40.1582 93.4194 40.2626 93.2222C40.2758 93.1965 40.2948 93.1743 40.3182 93.1574C40.3416 93.1405 40.3687 93.1293 40.3972 93.1248C40.4276 93.115 40.4604 93.1161 40.4901 93.128C40.5198 93.1398 40.5443 93.1617 40.5596 93.1898C40.6477 93.3429 40.5248 93.7326 40.4018 93.8718C40.399 93.878 40.3941 93.883 40.3879 93.8858ZM40.3879 93.2037C40.3736 93.2081 40.3602 93.2152 40.3487 93.2248C40.3372 93.2344 40.3276 93.2461 40.3206 93.2594C40.2845 93.4328 40.3048 93.6133 40.3786 93.7744C40.4829 93.6131 40.5219 93.4182 40.4877 93.2292C40.4761 93.2083 40.4575 93.1874 40.4041 93.199L40.3879 93.2037Z" fill="#EF233C"/>
<path d="M23.3711 95.113H24.9649L25.4962 91.4196H23.9024L23.3711 95.113Z" fill="#CE7A63"/>
<path d="M25.0678 94.9274H23.2744C23.2435 94.927 23.2136 94.9379 23.1901 94.958C23.1667 94.978 23.1513 95.0059 23.1468 95.0364L22.9357 96.4539C22.9309 96.491 22.9343 96.5286 22.9456 96.5642C22.9568 96.5998 22.9757 96.6325 23.0008 96.6601C23.026 96.6877 23.0569 96.7095 23.0913 96.7239C23.1257 96.7384 23.1628 96.7452 23.2002 96.7439C23.8242 96.7323 24.1282 96.6952 24.9146 96.6952C25.3995 96.6952 27.4666 96.7463 28.1255 96.7463C28.7844 96.7463 28.8215 96.0827 28.5547 96.0247C27.3066 95.7556 25.7707 95.3844 25.3415 95.0294C25.2657 94.9632 25.1684 94.9269 25.0678 94.9274Z" fill="#263238"/>
<path opacity="0.2" d="M23.9027 91.4196H25.4988L25.2251 93.3243H23.6289L23.9027 91.4196Z" fill="black"/>
<path d="M31.1102 54.5386C31.1102 54.5386 30.1961 66.7279 29.5373 71.2959C28.8181 76.2955 25.9482 92.8719 25.9482 92.8719H23.0273C23.0273 92.8719 24.5284 76.7062 24.7859 71.7599C25.0643 66.3868 25.6049 54.5502 25.6049 54.5502L31.1102 54.5386Z" fill="#263238"/>
<path d="M22.9094 92.8649H26.067L26.3384 91.756L22.8398 91.9277L22.9094 92.8649Z" fill="#263238"/>
<path d="M25.61 95.2059C25.4683 95.2028 25.3274 95.1834 25.1901 95.1479C25.1833 95.1468 25.1771 95.1435 25.1725 95.1384C25.1678 95.1334 25.165 95.1269 25.1646 95.12C25.1633 95.1127 25.1644 95.1051 25.1677 95.0984C25.1711 95.0917 25.1765 95.0863 25.1832 95.0829C25.2365 95.0458 25.7144 94.7372 25.9024 94.8138C25.924 94.8226 25.9428 94.8373 25.9568 94.8561C25.9707 94.8749 25.9791 94.8972 25.9812 94.9205C25.9872 94.9569 25.9845 94.9942 25.9732 95.0293C25.9619 95.0644 25.9424 95.0963 25.9163 95.1224C25.8272 95.1853 25.7188 95.2149 25.61 95.2059ZM25.2968 95.0945C25.5776 95.1525 25.7887 95.1432 25.8676 95.069C25.8849 95.0522 25.8976 95.0312 25.9045 95.008C25.9114 94.9849 25.9123 94.9603 25.907 94.9368C25.9063 94.9253 25.9024 94.9143 25.8959 94.9049C25.8894 94.8955 25.8804 94.888 25.8699 94.8834C25.7678 94.8416 25.4917 94.9762 25.2899 95.0945H25.2968Z" fill="#EF233C"/>
<path d="M25.1966 95.1501H25.1804C25.1751 95.1471 25.1708 95.1427 25.1679 95.1374C25.1651 95.132 25.1638 95.126 25.1641 95.12C25.1641 95.1014 25.1641 94.642 25.3428 94.4866C25.3644 94.4666 25.3902 94.4517 25.4182 94.4429C25.4463 94.4341 25.476 94.4316 25.5052 94.4356C25.5358 94.4363 25.5652 94.448 25.5882 94.4683C25.6111 94.4887 25.6261 94.5166 25.6304 94.5469C25.6513 94.7209 25.3845 95.055 25.2175 95.1501H25.1966ZM25.4727 94.5028C25.4418 94.503 25.412 94.5146 25.3892 94.5353C25.2888 94.6855 25.237 94.8628 25.2407 95.0434C25.3892 94.9251 25.5701 94.6722 25.5562 94.5585C25.5562 94.5353 25.5423 94.5098 25.4889 94.5052L25.4727 94.5028Z" fill="#EF233C"/>
<path d="M33.9987 54.6198H25.4657C25.4054 53.8565 25.5817 51.3718 25.4518 48.2235C25.3713 45.8833 25.0872 43.5545 24.6027 41.2635C24.5656 41.0919 24.5261 40.9225 24.4844 40.7508C24.4844 40.7508 24.9182 40.6627 25.5377 40.5722C26.0527 40.4956 26.6977 40.419 27.331 40.3889C28.538 40.3204 29.7479 40.3204 30.9549 40.3889C31.5117 40.4399 32.0569 40.5327 32.4907 40.6209C33.0475 40.7322 33.3746 40.8297 33.3746 40.8297C33.3746 40.8297 35.4765 45.6483 33.9987 54.6198Z" fill="#263238"/>
<path opacity="0.5" d="M33.9987 54.6198H25.4657C25.4054 53.8565 25.5817 51.3718 25.4518 48.2235C25.3713 45.8833 25.0872 43.5545 24.6027 41.2635C24.5656 41.0919 24.5261 40.9225 24.4844 40.7508C24.4844 40.7508 24.9182 40.6627 25.5377 40.5722C26.0527 40.4956 26.6977 40.419 27.331 40.3889C28.538 40.3204 29.7479 40.3204 30.9549 40.3889C31.5117 40.4399 32.0569 40.5327 32.4907 40.6209C33.0475 40.7322 33.3746 40.8297 33.3746 40.8297C33.3746 40.8297 35.4765 45.6483 33.9987 54.6198Z" fill="white"/>
<path d="M28.5923 42.5001L29.4878 41.3726L29.6989 41.0988L30.1768 41.354L31.3206 42.224C32.2486 41.4445 31.7846 40.7462 31.5967 40.4678C31.3879 40.4376 31.1721 40.4098 30.9517 40.3889C29.744 40.3204 28.5333 40.3204 27.3255 40.3889C27.0634 40.3889 26.7966 40.4214 26.5391 40.4469C26.7241 40.9105 27.0016 41.3316 27.3546 41.6846C27.7075 42.0376 28.1286 42.315 28.5923 42.5001Z" fill="#263238"/>
<path opacity="0.7" d="M28.5923 42.5001L29.4878 41.3726L29.6989 41.0988L30.1768 41.354L31.3206 42.224C32.2486 41.4445 31.7846 40.7462 31.5967 40.4678C31.3879 40.4376 31.1721 40.4098 30.9517 40.3889C29.744 40.3204 28.5333 40.3204 27.3255 40.3889C27.0634 40.3889 26.7966 40.4214 26.5391 40.4469C26.7241 40.9105 27.0016 41.3316 27.3546 41.6846C27.7075 42.0376 28.1286 42.315 28.5923 42.5001Z" fill="white"/>
<path d="M27.407 36.3219L28.3768 37.1269L29.6992 38.2243C29.6597 38.4002 29.631 38.5784 29.6134 38.7579C29.5438 39.4748 29.7294 40.1267 30.7734 40.3819C30.7734 40.3819 32.0238 41.2101 30.1678 41.3609C30.1619 41.5628 30.1307 41.7631 30.075 41.9572C29.9119 41.731 29.7101 41.5354 29.4788 41.3795C27.4488 41.3447 27.1797 40.4051 27.1797 40.4051C27.9801 39.6186 27.6762 37.4912 27.407 36.3219Z" fill="#CE7A63"/>
<path opacity="0.2" d="M29.6959 38.2243C29.6564 38.4003 29.6277 38.5785 29.6101 38.7579C29.1182 38.6582 28.4501 38.1338 28.3921 37.6304C28.3671 37.4638 28.3609 37.2949 28.3735 37.127L29.6959 38.2243Z" fill="black"/>
<path d="M27.0046 34.6422C27.3433 36.192 27.4686 37.1153 28.378 37.8229C28.6733 38.0557 29.0266 38.2034 29.3998 38.2501C29.7729 38.2968 30.1517 38.2408 30.4953 38.088C30.8389 37.9351 31.1342 37.6914 31.3494 37.383C31.5647 37.0746 31.6916 36.7133 31.7165 36.3381C31.8371 34.8928 31.2525 32.5983 29.6285 32.1621C29.2779 32.0586 28.9064 32.049 28.5509 32.1341C28.1955 32.2192 27.8686 32.3961 27.603 32.6472C27.3373 32.8983 27.1423 33.2147 27.0373 33.5648C26.9322 33.9149 26.921 34.2864 27.0046 34.6422Z" fill="#CE7A63"/>
<path d="M29.0507 35.199C29.0692 35.3266 29.1551 35.431 29.2386 35.4124C29.3221 35.3939 29.3732 35.2918 29.3523 35.1642C29.3314 35.0366 29.2502 34.9322 29.1667 34.9508C29.0832 34.9693 29.0321 35.0714 29.0507 35.199Z" fill="#263238"/>
<path d="M30.4921 35.032C30.513 35.1596 30.5965 35.264 30.68 35.2454C30.7635 35.2269 30.8146 35.1248 30.796 34.9972C30.7774 34.8696 30.6916 34.7652 30.6081 34.7838C30.5246 34.8023 30.4735 34.8998 30.4921 35.032Z" fill="#263238"/>
<path d="M30.2461 35.1456C30.4588 35.5174 30.7202 35.8592 31.0233 36.1618C30.9444 36.2343 30.8505 36.2886 30.7482 36.3207C30.646 36.3528 30.5379 36.3619 30.4317 36.3474L30.2461 35.1456Z" fill="#BA4D3C"/>
<path d="M30.1382 36.8114C29.9889 36.814 29.8406 36.7858 29.7025 36.7287C29.5644 36.6717 29.4395 36.5869 29.3355 36.4797C29.3318 36.4761 29.3289 36.4718 29.327 36.4671C29.325 36.4623 29.3241 36.4572 29.3242 36.4521C29.3244 36.4469 29.3256 36.4419 29.3277 36.4373C29.3299 36.4326 29.333 36.4285 29.3369 36.4251C29.3408 36.4217 29.3453 36.4192 29.3502 36.4176C29.3551 36.4161 29.3602 36.4156 29.3653 36.4161C29.3704 36.4167 29.3754 36.4183 29.3798 36.4208C29.3843 36.4234 29.3881 36.4268 29.3912 36.431C29.5064 36.5449 29.6462 36.6309 29.7998 36.6824C29.9535 36.7339 30.1168 36.7494 30.2774 36.7279C30.2823 36.7279 30.2871 36.7289 30.2916 36.7307C30.2961 36.7326 30.3002 36.7353 30.3037 36.7388C30.3071 36.7422 30.3099 36.7463 30.3117 36.7508C30.3136 36.7553 30.3146 36.7602 30.3146 36.765C30.3146 36.7699 30.3136 36.7747 30.3117 36.7793C30.3099 36.7838 30.3071 36.7878 30.3037 36.7913C30.3002 36.7947 30.2961 36.7975 30.2916 36.7993C30.2871 36.8012 30.2823 36.8022 30.2774 36.8022C30.2313 36.8082 30.1848 36.8113 30.1382 36.8114Z" fill="#263238"/>
<path d="M28.7361 34.8C28.724 34.8034 28.7111 34.8034 28.699 34.8C28.6817 34.7902 28.6689 34.7741 28.6633 34.755C28.6577 34.736 28.6597 34.7155 28.6689 34.6979C28.7246 34.5925 28.8053 34.5025 28.9041 34.4357C29.0028 34.369 29.1164 34.3275 29.2349 34.3151C29.2449 34.3145 29.2548 34.3158 29.2642 34.3191C29.2736 34.3224 29.2823 34.3276 29.2896 34.3343C29.297 34.341 29.3029 34.3492 29.3071 34.3582C29.3112 34.3673 29.3135 34.3771 29.3138 34.387C29.3144 34.3969 29.3131 34.4069 29.3098 34.4163C29.3065 34.4257 29.3013 34.4343 29.2946 34.4417C29.2879 34.4491 29.2797 34.455 29.2707 34.4592C29.2616 34.4633 29.2519 34.4656 29.2419 34.4659C29.1492 34.4768 29.0606 34.5102 28.9838 34.5632C28.907 34.6162 28.8443 34.6871 28.8011 34.7698C28.7937 34.7799 28.7839 34.788 28.7725 34.7932C28.7611 34.7985 28.7486 34.8008 28.7361 34.8Z" fill="#263238"/>
<path d="M31.2399 34.459C31.2277 34.4586 31.2157 34.4555 31.2049 34.4499C31.194 34.4443 31.1846 34.4363 31.1773 34.4265C31.1265 34.3468 31.0585 34.2795 30.9781 34.2297C30.8978 34.1799 30.8073 34.1488 30.7133 34.1388C30.6932 34.1383 30.674 34.13 30.6598 34.1158C30.6456 34.1015 30.6373 34.0824 30.6367 34.0623C30.6367 34.042 30.6448 34.0225 30.6591 34.0081C30.6735 33.9938 30.693 33.9857 30.7133 33.9857C30.8341 33.9943 30.9512 34.0308 31.0555 34.0924C31.1598 34.154 31.2483 34.239 31.3142 34.3407C31.3253 34.3575 31.3295 34.3779 31.3261 34.3977C31.3226 34.4176 31.3117 34.4353 31.2956 34.4474C31.2875 34.4529 31.2785 34.4568 31.2689 34.4587C31.2594 34.4607 31.2495 34.4608 31.2399 34.459Z" fill="#263238"/>
<path d="M26.5865 40.354C26.6262 40.3486 26.6666 40.3544 26.7031 40.3708C26.7396 40.3872 26.7708 40.4136 26.793 40.4468C27.4171 41.4027 31.8088 48.2188 32.0246 50.9704C32.1081 52.0352 31.194 54.4341 30.6117 55.8424C30.4838 56.1489 30.2569 56.4037 29.9671 56.5661C29.6773 56.7284 29.3415 56.7889 29.0132 56.7379L25.6075 56.2043C25.5328 56.1926 25.4612 56.1659 25.3971 56.1259C25.3329 56.0859 25.2775 56.0333 25.2342 55.9713C25.1908 55.9094 25.1605 55.8393 25.1449 55.7653C25.1293 55.6913 25.1288 55.6149 25.1435 55.5408C25.2689 54.8606 25.328 54.1699 25.3198 53.4783C25.3198 51.6919 25.22 46.8964 25.22 46.8964C25.22 46.8964 26.612 44.2076 24.9509 40.8644C24.9363 40.8343 24.929 40.8012 24.9297 40.7678C24.9304 40.7343 24.9391 40.7015 24.9549 40.6721C24.9708 40.6426 24.9934 40.6173 25.021 40.5984C25.0485 40.5794 25.0802 40.5672 25.1133 40.5628L26.5865 40.354Z" fill="#EF233C"/>
<path opacity="0.1" d="M32.0189 50.9703C31.9169 49.6688 30.8798 47.4579 29.75 45.3884C29.221 47.5669 28.7733 49.8985 28.9009 51.142C29.0029 52.1419 30.0005 54.2183 30.7081 55.5895C31.2951 54.1673 32.1048 51.9679 32.0189 50.9703Z" fill="black"/>
<path opacity="0.6" d="M31.1124 48.0913C30.9662 47.7665 30.8085 47.4324 30.6484 47.0937C29.9037 47.1169 29.1729 47.1216 28.4885 47.1146C28.0906 44.7828 27.3683 42.5181 26.3425 40.3866L25.2799 40.5351C26.3055 42.6091 27.0319 44.8181 27.4375 47.096C26.5095 47.0728 25.7184 47.0357 25.2266 47.0079C25.2266 47.1842 25.2382 47.5484 25.2474 48.0217C25.788 48.0542 26.6162 48.0936 27.6022 48.1145C28.004 50.89 27.9366 53.7133 27.4027 56.4665L28.4026 56.6243C28.9455 53.8211 29.0238 50.9478 28.6346 48.1192H29.0012C29.681 48.1331 30.3932 48.1215 31.1124 48.0913Z" fill="white"/>
<path d="M31.8442 40.3819C31.8178 40.3762 31.7904 40.3766 31.7641 40.3832C31.7379 40.3898 31.7135 40.4023 31.6929 40.4198C31.6722 40.4373 31.6559 40.4593 31.6451 40.4841C31.6344 40.5089 31.6295 40.5359 31.6308 40.5629C31.6551 41.6281 31.527 42.6914 31.2503 43.7204C30.5705 46.2724 29.2064 49.5714 29.3688 51.1444C29.4755 52.1977 30.5775 54.4458 31.2851 55.803C31.4475 56.1145 31.7155 56.358 32.0412 56.4898C32.3669 56.6216 32.7289 56.6331 33.0622 56.5222L34.0389 56.1974C34.1657 56.1551 34.2733 56.0691 34.3426 55.9548C34.4119 55.8405 34.4383 55.7053 34.4171 55.5733C34.3359 55.0258 34.2733 53.9493 34.5238 52.0446C34.9229 49.0123 34.5238 45.0846 34.5238 45.0846C33.9586 43.7249 33.5831 42.294 33.4079 40.832C33.4027 40.7951 33.3863 40.7607 33.361 40.7334C33.3358 40.706 33.3027 40.687 33.2664 40.6789L31.8442 40.3819Z" fill="#EF233C"/>
<path opacity="0.6" d="M34.6839 47.7503C34.6839 47.4788 34.6653 47.219 34.6537 46.9754C34.6537 46.8942 34.6537 46.813 34.6421 46.7434C34.3359 46.7967 34.0134 46.8431 33.6839 46.8826C33.5801 44.7897 33.3687 42.7036 33.0506 40.6325L31.9857 40.4167C32.3447 42.5915 32.5771 44.7853 32.6817 46.987C31.8697 47.0543 31.0322 47.0937 30.2132 47.1099C30.1042 47.4579 29.9998 47.8059 29.9023 48.1331C30.8303 48.1168 31.7955 48.0774 32.7327 47.9985C32.7583 48.546 32.7815 49.1191 32.8 49.7223C32.9021 53.2324 32.8975 55.3575 32.8673 56.5755C32.9349 56.564 33.0015 56.5477 33.0668 56.5268L33.8858 56.2554C33.909 54.9747 33.9043 52.9146 33.8092 49.6921C33.7907 49.0611 33.7675 48.4648 33.7419 47.8964C34.0644 47.857 34.3823 47.8129 34.6885 47.7619L34.6839 47.7503Z" fill="white"/>
<path d="M27.9231 51.7221C27.5032 51.4228 25.972 51.7082 25.3062 51.852C25.3062 52.49 25.3201 53.063 25.3201 53.476C25.3201 53.7683 25.3201 54.0328 25.2969 54.2741C25.9488 54.4063 27.4614 54.6754 27.9231 54.411C28.6191 54.0119 28.5588 52.1768 27.9231 51.7221Z" fill="#EF233C"/>
<path opacity="0.2" d="M27.9231 51.7221C27.5032 51.4228 25.972 51.7082 25.3062 51.852C25.3062 52.49 25.3201 53.063 25.3201 53.476C25.3201 53.7683 25.3201 54.0328 25.2969 54.2741C25.9488 54.4063 27.4614 54.6754 27.9231 54.411C28.6191 54.0119 28.5588 52.1768 27.9231 51.7221Z" fill="black"/>
<path d="M30.7896 53.6615C29.8373 53.6727 28.8858 53.6029 27.9453 53.4527L28.0915 52.657C29.9486 52.9257 31.8348 52.9257 33.692 52.657L33.801 53.4574C32.8031 53.5942 31.7969 53.6624 30.7896 53.6615Z" fill="#EF233C"/>
<g opacity="0.2">
<path d="M30.7896 53.6615C29.8373 53.6727 28.8858 53.6029 27.9453 53.4527L28.0915 52.657C29.9486 52.9257 31.8348 52.9257 33.692 52.657L33.801 53.4574C32.8031 53.5942 31.7969 53.6624 30.7896 53.6615Z" fill="black"/>
</g>
<path d="M34.5688 51.6293C34.1466 51.5689 33.7429 51.5666 33.5735 51.7221C33.0771 52.1861 33.0307 54.0119 33.5735 54.4086C33.8101 54.5246 34.077 54.5636 34.3368 54.52C34.339 53.6948 34.3987 52.8707 34.5155 52.0538L34.5688 51.6293Z" fill="#EF233C"/>
<path opacity="0.2" d="M34.5688 51.6293C34.1466 51.5689 33.7429 51.5666 33.5735 51.7221C33.0771 52.1861 33.0307 54.0119 33.5735 54.4086C33.8101 54.5246 34.077 54.5636 34.3368 54.52C34.339 53.6948 34.3987 52.8707 34.5155 52.0538L34.5688 51.6293Z" fill="black"/>
<path d="M27.0386 34.0135C27.0386 34.0135 25.6234 34.4404 26.1616 35.0111C26.1616 35.0111 25.642 35.4403 26.1454 35.851C26.1454 35.851 25.86 36.5887 26.686 36.547C26.686 36.547 26.6465 37.4193 27.2776 37.1177C27.2776 37.1177 27.4446 37.4425 27.788 37.1803C28.1313 36.9182 27.7091 36.0203 27.7091 36.0203C27.7091 36.0203 28.3123 35.7582 28.1128 35.2037C28.1128 35.2037 28.6417 34.9717 28.3703 34.2757C28.3703 34.2757 28.8088 33.8929 28.658 33.6238L27.0386 34.0135Z" fill="#263238"/>
<path d="M26.6481 36.2593C26.8991 36.563 27.2475 36.7704 27.6341 36.8463C28.1236 36.9298 28.2326 36.4751 27.9844 36.0389C27.7524 35.6445 27.235 35.1271 26.7989 35.2408C26.3627 35.3545 26.3326 35.8788 26.6481 36.2593Z" fill="#CE7A63"/>
<path d="M31.3595 32.7724L26.5966 34.1342C26.5966 34.1342 25.8286 31.8003 28.1162 31.2528C30.2946 30.7308 31.3595 32.7724 31.3595 32.7724Z" fill="#EF233C"/>
<path d="M28.4104 32.5032L26.508 33.0507C26.4817 33.0578 26.4539 33.0577 26.4276 33.0507C26.4013 33.0436 26.3773 33.0297 26.358 33.0104C26.3388 32.9912 26.3249 32.9672 26.3178 32.9409C26.3108 32.9145 26.3107 32.8868 26.3177 32.8605L26.443 32.3965C26.4513 32.3662 26.4686 32.339 26.4926 32.3187C26.5167 32.2985 26.5463 32.2859 26.5776 32.2828L28.3617 32.1042C28.3792 32.1022 28.397 32.104 28.4139 32.1094C28.4307 32.1148 28.4462 32.1237 28.4594 32.1356C28.4725 32.1474 28.483 32.1619 28.4902 32.1781C28.4973 32.1942 28.501 32.2118 28.5009 32.2294V32.3779C28.502 32.4059 28.4936 32.4335 28.4772 32.4562C28.4608 32.4789 28.4373 32.4955 28.4104 32.5032Z" fill="#EF233C"/>
<path opacity="0.2" d="M28.4104 32.5032L26.508 33.0507C26.4817 33.0578 26.4539 33.0577 26.4276 33.0507C26.4013 33.0436 26.3773 33.0297 26.358 33.0104C26.3388 32.9912 26.3249 32.9672 26.3178 32.9409C26.3108 32.9145 26.3107 32.8868 26.3177 32.8605L26.443 32.3965C26.4513 32.3662 26.4686 32.339 26.4926 32.3187C26.5167 32.2985 26.5463 32.2859 26.5776 32.2828L28.3617 32.1042C28.3792 32.1022 28.397 32.104 28.4139 32.1094C28.4307 32.1148 28.4462 32.1237 28.4594 32.1356C28.4725 32.1474 28.483 32.1619 28.4902 32.1781C28.4973 32.1942 28.501 32.2118 28.5009 32.2294V32.3779C28.502 32.4059 28.4936 32.4335 28.4772 32.4562C28.4608 32.4789 28.4373 32.4955 28.4104 32.5032Z" fill="white"/>
<path d="M30.5781 31.9997L30.077 32.0763C29.969 32.0947 29.8581 32.0697 29.7684 32.0067C29.4025 31.7388 28.9705 31.5757 28.5189 31.5348C28.0672 31.4939 27.6129 31.5769 27.2048 31.7747C27.1953 31.7806 27.1838 31.7824 27.173 31.7798C27.1621 31.7771 27.1527 31.7703 27.1468 31.7608C27.141 31.7512 27.1392 31.7398 27.1418 31.7289C27.1444 31.718 27.1512 31.7086 27.1608 31.7028C27.7083 31.255 29.0492 30.4662 30.6408 31.7561C30.663 31.7719 30.68 31.794 30.6894 31.8196C30.6988 31.8453 30.7002 31.8731 30.6934 31.8995C30.6866 31.926 30.672 31.9497 30.6514 31.9676C30.6308 31.9855 30.6052 31.9967 30.5781 31.9997Z" fill="#EF233C"/>
<path opacity="0.2" d="M30.5781 31.9997L30.077 32.0763C29.969 32.0947 29.8581 32.0697 29.7684 32.0067C29.4025 31.7388 28.9705 31.5757 28.5189 31.5348C28.0672 31.4939 27.6129 31.5769 27.2048 31.7747C27.1953 31.7806 27.1838 31.7824 27.173 31.7798C27.1621 31.7771 27.1527 31.7703 27.1468 31.7608C27.141 31.7512 27.1392 31.7398 27.1418 31.7289C27.1444 31.718 27.1512 31.7086 27.1608 31.7028C27.7083 31.255 29.0492 30.4662 30.6408 31.7561C30.663 31.7719 30.68 31.794 30.6894 31.8196C30.6988 31.8453 30.7002 31.8731 30.6934 31.8995C30.6866 31.926 30.672 31.9497 30.6514 31.9676C30.6308 31.9855 30.6052 31.9967 30.5781 31.9997Z" fill="white"/>
<path opacity="0.6" d="M31.1336 32.4266L29.9736 32.705C29.9485 32.7115 29.9219 32.7096 29.898 32.6995C29.8742 32.6894 29.8542 32.6718 29.8413 32.6493L29.7532 32.4962C29.7441 32.4795 29.739 32.4609 29.7384 32.4419C29.7377 32.4229 29.7414 32.404 29.7493 32.3867C29.7572 32.3694 29.769 32.3541 29.7837 32.3421C29.7985 32.3301 29.8158 32.3217 29.8344 32.3176L30.8529 32.1064C30.9526 32.2076 31.0463 32.3145 31.1336 32.4266Z" fill="white"/>
<path d="M31.2879 32.6493C31.2879 32.6493 33.0975 33.1133 31.3598 33.4984C30.0594 33.7624 28.741 33.9291 27.4158 33.9972L26.6293 34.2292C26.59 34.2407 26.5476 34.2363 26.5115 34.2167C26.4755 34.1971 26.4486 34.1641 26.4368 34.1248V34.0993C26.4304 34.0789 26.4283 34.0574 26.4305 34.0362C26.4328 34.0149 26.4393 33.9943 26.4497 33.9757C26.4601 33.957 26.4742 33.9407 26.4911 33.9276C26.508 33.9146 26.5274 33.9051 26.5481 33.8998L31.2879 32.6493Z" fill="#EF233C"/>
<path opacity="0.2" d="M31.2879 32.6493C31.2879 32.6493 33.0975 33.1133 31.3598 33.4984C30.0594 33.7624 28.741 33.9291 27.4158 33.9972L26.6293 34.2292C26.59 34.2407 26.5476 34.2363 26.5115 34.2167C26.4755 34.1971 26.4486 34.1641 26.4368 34.1248V34.0993C26.4304 34.0789 26.4283 34.0574 26.4305 34.0362C26.4328 34.0149 26.4393 33.9943 26.4497 33.9757C26.4601 33.957 26.4742 33.9407 26.4911 33.9276C26.508 33.9146 26.5274 33.9051 26.5481 33.8998L31.2879 32.6493Z" fill="white"/>
<path d="M34.5046 46.6505H29.795L27.3984 52.4157L27.5469 52.5433H32.2565L34.6508 46.7781L34.5046 46.6505Z" fill="#263238"/>
<path opacity="0.4" d="M34.5046 46.6505H29.795L27.3984 52.4157L27.5469 52.5433H32.2565L34.6508 46.7781L34.5046 46.6505Z" fill="white"/>
<path d="M32.2565 52.5434H27.5469L29.9434 46.7782H34.6507L32.2565 52.5434Z" fill="#263238"/>
<path d="M33.2859 46.567H31.4925L31.2188 47.2282L31.2791 47.2816H33.0724L33.3485 46.6204L33.2859 46.567Z" fill="#EF233C"/>
<path opacity="0.5" d="M33.2859 46.567H31.4925L31.2188 47.2282L31.2791 47.2816H33.0724L33.3485 46.6204L33.2859 46.567Z" fill="white"/>
<path d="M33.0707 47.2816L33.3468 46.6204H31.5534L31.2773 47.2816H33.0707Z" fill="#EF233C"/>
<path opacity="0.2" d="M33.0707 47.2816L33.3468 46.6204H31.5534L31.2773 47.2816H33.0707Z" fill="white"/>
<path d="M27.0472 49.6689L28.5692 49.0193L28.1864 51.04C28.1864 51.04 26.7364 51.3718 26.625 50.6108L27.0472 49.6689Z" fill="#CE7A63"/>
<path d="M29.9677 49.6643L29.0907 51.3254L28.1836 51.0493L28.5664 49.0193L29.9677 49.6643Z" fill="#CE7A63"/>
<path d="M23.4346 48.5135H21.1726C21.1547 48.8386 21.1891 49.1645 21.2746 49.4787C21.2932 49.5413 21.3141 49.604 21.3396 49.6712C21.37 49.7512 21.4065 49.8288 21.4486 49.9032C21.5235 50.039 21.6155 50.1645 21.7224 50.2768C21.8955 50.4594 22.0987 50.6109 22.3233 50.7245C22.6553 50.8918 23.0102 51.009 23.3766 51.0725C23.6831 51.1287 23.9932 51.1628 24.3046 51.1746C25.4718 51.2062 26.6381 51.083 27.773 50.808L27.6477 49.6179C26.6037 49.574 25.5637 49.4624 24.5342 49.2838C24.3038 49.2377 24.0761 49.1788 23.8522 49.1075C23.692 49.0518 23.5367 48.9827 23.3882 48.901C23.387 48.771 23.3986 48.6412 23.423 48.5135H23.4346Z" fill="#CE7A63"/>
</svg>
