<svg width="116" height="116" viewBox="0 0 116 116" fill="none" xmlns="http://www.w3.org/2000/svg">
<path d="M104.375 92.4497H96.6914V92.5077H104.375V92.4497Z" fill="#EBEBEB"/>
<path d="M76.8442 93.0807H74.8281V93.1387H76.8442V93.0807Z" fill="#EBEBEB"/>
<path d="M96.4599 90.2968H92.0078V90.3548H96.4599V90.2968Z" fill="#EBEBEB"/>
<path d="M22.192 90.6865H12.1719V90.7445H22.192V90.6865Z" fill="#EBEBEB"/>
<path d="M25.7264 90.6865H24.2578V90.7445H25.7264V90.6865Z" fill="#EBEBEB"/>
<path d="M52.2338 91.6655H30.5V91.7235H52.2338V91.6655Z" fill="#EBEBEB"/>
<path d="M54.9826 78.3696H10.188C9.83666 78.3696 9.49972 78.23 9.25128 77.9816C9.00285 77.7332 8.86328 77.3962 8.86328 77.0449V14.0731C8.86634 13.7238 9.00726 13.3898 9.25536 13.1439C9.50346 12.898 9.83866 12.76 10.188 12.76H54.9826C55.3339 12.76 55.6708 12.8996 55.9193 13.148C56.1677 13.3964 56.3073 13.7334 56.3073 14.0847V77.0449C56.3073 77.3962 56.1677 77.7332 55.9193 77.9816C55.6708 78.23 55.3339 78.3696 54.9826 78.3696ZM10.188 12.8064C9.85223 12.807 9.5304 12.9407 9.29297 13.1781C9.05555 13.4155 8.92189 13.7374 8.92128 14.0731V77.0449C8.92189 77.3807 9.05555 77.7025 9.29297 77.9399C9.5304 78.1773 9.85223 78.311 10.188 78.3116H54.9826C55.3183 78.311 55.6402 78.1773 55.8776 77.9399C56.115 77.7025 56.2487 77.3807 56.2493 77.0449V14.0731C56.2487 13.7374 56.115 13.4155 55.8776 13.1781C55.6402 12.9407 55.3183 12.807 54.9826 12.8064H10.188Z" fill="#EBEBEB"/>
<path d="M105.167 78.3696H60.3677C60.0165 78.369 59.68 78.2292 59.4317 77.9809C59.1834 77.7326 59.0436 77.396 59.043 77.0449V14.0731C59.0466 13.724 59.1877 13.3904 59.4357 13.1446C59.6837 12.8988 60.0185 12.7606 60.3677 12.76H105.167C105.515 12.7612 105.849 12.8997 106.097 13.1455C106.344 13.3913 106.484 13.7246 106.487 14.0731V77.0449C106.487 77.3954 106.348 77.7317 106.101 77.98C105.853 78.2283 105.517 78.3684 105.167 78.3696ZM60.3677 12.8064C60.0319 12.807 59.7101 12.9407 59.4727 13.1781C59.2352 13.4155 59.1016 13.7374 59.101 14.0731V77.0449C59.1016 77.3807 59.2352 77.7025 59.4727 77.9399C59.7101 78.1773 60.0319 78.311 60.3677 78.3116H105.167C105.503 78.311 105.824 78.1773 106.062 77.9399C106.299 77.7025 106.433 77.3807 106.434 77.0449V14.0731C106.433 13.7374 106.299 13.4155 106.062 13.1781C105.824 12.9407 105.503 12.807 105.167 12.8064H60.3677Z" fill="#EBEBEB"/>
<path d="M116 88.7168H0V88.7748H116V88.7168Z" fill="#EBEBEB"/>
<path d="M102.821 73.0498H84.2031V88.675H102.821V73.0498Z" fill="#F0F0F0"/>
<path d="M99.2463 77.3813H101.629V74.9987H99.2463V77.3813Z" fill="#FAFAFA"/>
<path d="M94.6291 77.3813H97.0117V74.9987H94.6291V77.3813Z" fill="#FAFAFA"/>
<path d="M90.0119 77.3813H92.3945V74.9987H90.0119V77.3813Z" fill="#FAFAFA"/>
<path d="M85.3986 77.3813H87.7812V74.9987H85.3986V77.3813Z" fill="#FAFAFA"/>
<path d="M99.2463 81.7128H101.629V79.3301H99.2463V81.7128Z" fill="#FAFAFA"/>
<path d="M94.6291 81.7128H97.0117V79.3301H94.6291V81.7128Z" fill="#FAFAFA"/>
<path d="M90.0119 81.7128H92.3945V79.3301H90.0119V81.7128Z" fill="#FAFAFA"/>
<path d="M85.3986 81.7128H87.7812V79.3301H85.3986V81.7128Z" fill="#FAFAFA"/>
<path d="M99.2463 86.0442H101.629V83.6616H99.2463V86.0442Z" fill="#FAFAFA"/>
<path d="M94.6291 86.0442H97.0117V83.6616H94.6291V86.0442Z" fill="#FAFAFA"/>
<path d="M90.0119 86.0442H92.3945V83.6616H90.0119V86.0442Z" fill="#FAFAFA"/>
<path d="M85.3986 86.0442H87.7812V83.6616H85.3986V86.0442Z" fill="#FAFAFA"/>
<path d="M88.7344 45.9174V40.0618H88.1381V45.9174H88.7344Z" fill="#EBEBEB"/>
<path d="M102.223 45.9175V40.0618H101.626V45.9175H102.223Z" fill="#EBEBEB"/>
<path d="M95.4805 45.9174V40.0618H94.8842V45.9174H95.4805Z" fill="#EBEBEB"/>
<path d="M102.822 45.3212H87.5352V45.9174H102.822V45.3212Z" fill="#F5F5F5"/>
<path d="M102.822 39.7625H87.5352V40.3587H102.822V39.7625Z" fill="#F5F5F5"/>
<path d="M88.7305 40.361V34.5054H88.1342V40.361H88.7305Z" fill="#EBEBEB"/>
<path d="M102.223 40.3587V34.5031H101.626V40.3587H102.223Z" fill="#EBEBEB"/>
<path d="M95.4766 40.361V34.5054H94.8803V40.361H95.4766Z" fill="#EBEBEB"/>
<path d="M102.822 34.2061H87.5352V34.8023H102.822V34.2061Z" fill="#F5F5F5"/>
<path d="M102.821 45.8711H84.2031V73.0499H102.821V45.8711Z" fill="#FAFAFA"/>
<path d="M101.631 47.0635H94.6289V53.7776H101.631V47.0635Z" fill="#F0F0F0"/>
<path d="M92.4002 47.0635H85.3984V53.7776H92.4002V47.0635Z" fill="#F0F0F0"/>
<path d="M101.631 55.7264H94.6289V62.4405H101.631V55.7264Z" fill="#F0F0F0"/>
<path d="M92.4002 55.7264H85.3984V62.4405H92.4002V55.7264Z" fill="#F0F0F0"/>
<path d="M101.631 64.3893H94.6289V71.1034H101.631V64.3893Z" fill="#F0F0F0"/>
<path d="M92.4002 64.3893H85.3984V71.1034H92.4002V64.3893Z" fill="#F0F0F0"/>
<path d="M63.2234 58.0487H45.5938V88.5335H63.2234V58.0487Z" fill="#EBEBEB"/>
<path d="M59.8365 53.7869V58.0487H58.4445H50.3662H48.9766V53.7869H59.8365Z" fill="#EBEBEB"/>
<path d="M59.8364 61.4336H62.0938V59.1762H59.8364V61.4336Z" fill="#FAFAFA"/>
<path d="M55.4653 61.4336H57.7227V59.1762H55.4653V61.4336Z" fill="#FAFAFA"/>
<path d="M51.0903 61.4336H53.3477V59.1762H51.0903V61.4336Z" fill="#FAFAFA"/>
<path d="M46.7231 61.4336H48.9805V59.1762H46.7231V61.4336Z" fill="#FAFAFA"/>
<path d="M59.8364 65.5331H62.0938V63.2757H59.8364V65.5331Z" fill="#FAFAFA"/>
<path d="M55.4653 65.5331H57.7227V63.2757H55.4653V65.5331Z" fill="#FAFAFA"/>
<path d="M51.0903 65.5331H53.3477V63.2757H51.0903V65.5331Z" fill="#FAFAFA"/>
<path d="M46.7231 65.5331H48.9805V63.2757H46.7231V65.5331Z" fill="#FAFAFA"/>
<path d="M59.8364 69.6371H62.0938V67.3797H59.8364V69.6371Z" fill="#FAFAFA"/>
<path d="M55.4653 69.6371H57.7227V67.3797H55.4653V69.6371Z" fill="#FAFAFA"/>
<path d="M51.0903 69.6371H53.3477V67.3797H51.0903V69.6371Z" fill="#FAFAFA"/>
<path d="M55.4653 57.8887H57.7227V55.6313H55.4653V57.8887Z" fill="#FAFAFA"/>
<path d="M51.0903 57.8887H53.3477V55.6313H51.0903V57.8887Z" fill="#FAFAFA"/>
<path d="M46.7231 69.6371H48.9805V67.3797H46.7231V69.6371Z" fill="#FAFAFA"/>
<path d="M59.8364 73.7366H62.0938V71.4792H59.8364V73.7366Z" fill="#FAFAFA"/>
<path d="M55.4653 73.7366H57.7227V71.4792H55.4653V73.7366Z" fill="#FAFAFA"/>
<path d="M51.0903 73.7366H53.3477V71.4792H51.0903V73.7366Z" fill="#FAFAFA"/>
<path d="M46.7231 73.7366H48.9805V71.4792H46.7231V73.7366Z" fill="#FAFAFA"/>
<path d="M59.8364 77.8361H62.0938V75.5787H59.8364V77.8361Z" fill="#FAFAFA"/>
<path d="M55.4653 77.8361H57.7227V75.5787H55.4653V77.8361Z" fill="#FAFAFA"/>
<path d="M51.0903 77.8361H53.3477V75.5787H51.0903V77.8361Z" fill="#FAFAFA"/>
<path d="M46.7231 77.8361H48.9805V75.5787H46.7231V77.8361Z" fill="#FAFAFA"/>
<path d="M59.8364 81.9401H62.0938V79.6827H59.8364V81.9401Z" fill="#FAFAFA"/>
<path d="M55.4653 81.9401H57.7227V79.6827H55.4653V81.9401Z" fill="#FAFAFA"/>
<path d="M51.0903 81.9401H53.3477V79.6827H51.0903V81.9401Z" fill="#FAFAFA"/>
<path d="M46.7231 81.9401H48.9805V79.6827H46.7231V81.9401Z" fill="#FAFAFA"/>
<path d="M59.8364 86.0396H62.0938V83.7822H59.8364V86.0396Z" fill="#FAFAFA"/>
<path d="M55.4653 86.0396H57.7227V83.7822H55.4653V86.0396Z" fill="#FAFAFA"/>
<path d="M51.0903 86.0396H53.3477V83.7822H51.0903V86.0396Z" fill="#FAFAFA"/>
<path d="M46.7231 86.0396H48.9805V83.7822H46.7231V86.0396Z" fill="#FAFAFA"/>
<path d="M63.5847 57.6102H45.2266V58.0696H63.5847V57.6102Z" fill="#F5F5F5"/>
<path d="M49.4375 53.7869V49.2745H48.9781V53.7869H49.4375Z" fill="#EBEBEB"/>
<path d="M59.8359 53.7869V49.2745H59.3766V53.7869H59.8359Z" fill="#EBEBEB"/>
<path d="M54.6367 53.7869V49.2745H54.1774V53.7869H54.6367Z" fill="#EBEBEB"/>
<path d="M60.2966 53.3275H48.5156V53.7869H60.2966V53.3275Z" fill="#F5F5F5"/>
<path d="M60.2966 49.0448H48.5156V49.5042H60.2966V49.0448Z" fill="#F5F5F5"/>
<path d="M49.4375 49.5042V44.9918H48.9781V49.5042H49.4375Z" fill="#EBEBEB"/>
<path d="M59.8359 49.5042V44.9918H59.3766V49.5042H59.8359Z" fill="#EBEBEB"/>
<path d="M54.6367 49.5042V44.9918H54.1774V49.5042H54.6367Z" fill="#EBEBEB"/>
<path d="M60.2966 44.7621H48.5156V45.2214H60.2966V44.7621Z" fill="#F5F5F5"/>
<path d="M49.4375 45.2215V40.7091H48.9781V45.2215H49.4375Z" fill="#EBEBEB"/>
<path d="M59.8359 45.2215V40.7091H59.3766V45.2215H59.8359Z" fill="#EBEBEB"/>
<path d="M54.6367 45.2214V40.709H54.1774V45.2214H54.6367Z" fill="#EBEBEB"/>
<path d="M60.2966 40.4771H48.5156V40.9364H60.2966V40.4771Z" fill="#F5F5F5"/>
<path d="M49.4375 40.9388V36.4264H48.9781V40.9388H49.4375Z" fill="#EBEBEB"/>
<path d="M59.8359 40.9387V36.4263H59.3766V40.9387H59.8359Z" fill="#EBEBEB"/>
<path d="M54.6367 40.9387V36.4263H54.1774V40.9387H54.6367Z" fill="#EBEBEB"/>
<path d="M60.2966 36.1943H48.5156V36.6537H60.2966V36.1943Z" fill="#F5F5F5"/>
<path d="M87.1323 52.2952H66.1758V88.5336H87.1323V52.2952Z" fill="#EBEBEB"/>
<path d="M83.1077 47.2306V52.2928H81.4535H71.8511H70.1992V47.2306H83.1077Z" fill="#EBEBEB"/>
<path d="M83.1087 56.318H85.793V53.6361H83.1087V56.318Z" fill="#FAFAFA"/>
<path d="M77.9095 56.318H80.5938V53.6361H77.9095V56.318Z" fill="#FAFAFA"/>
<path d="M72.7165 56.318H75.3984V53.6361H72.7165V56.318Z" fill="#FAFAFA"/>
<path d="M67.5173 56.318H70.1992V53.6361H67.5173V56.318Z" fill="#FAFAFA"/>
<path d="M83.1087 61.1947H85.793V58.5105H83.1087V61.1947Z" fill="#FAFAFA"/>
<path d="M77.9095 61.1947H80.5938V58.5105H77.9095V61.1947Z" fill="#FAFAFA"/>
<path d="M72.7165 61.1947H75.3984V58.5105H72.7165V61.1947Z" fill="#FAFAFA"/>
<path d="M67.5173 61.1947H70.1992V58.5105H67.5173V61.1947Z" fill="#FAFAFA"/>
<path d="M83.1087 66.069H85.793V63.3847H83.1087V66.069Z" fill="#FAFAFA"/>
<path d="M77.9095 66.069H80.5938V63.3847H77.9095V66.069Z" fill="#FAFAFA"/>
<path d="M72.7165 66.069H75.3984V63.3847H72.7165V66.069Z" fill="#FAFAFA"/>
<path d="M77.9095 52.1049H80.5938V49.4229H77.9095V52.1049Z" fill="#FAFAFA"/>
<path d="M72.7165 52.1049H75.3984V49.4229H72.7165V52.1049Z" fill="#FAFAFA"/>
<path d="M67.5173 66.069H70.1992V63.3847H67.5173V66.069Z" fill="#FAFAFA"/>
<path d="M83.1087 70.9432H85.793V68.2613H83.1087V70.9432Z" fill="#FAFAFA"/>
<path d="M77.9095 70.9432H80.5938V68.2613H77.9095V70.9432Z" fill="#FAFAFA"/>
<path d="M72.7165 70.9432H75.3984V68.2613H72.7165V70.9432Z" fill="#FAFAFA"/>
<path d="M67.5173 70.9432H70.1992V68.2613H67.5173V70.9432Z" fill="#FAFAFA"/>
<path d="M83.1087 75.8199H85.793V73.1357H83.1087V75.8199Z" fill="#FAFAFA"/>
<path d="M77.9095 75.8199H80.5938V73.1357H77.9095V75.8199Z" fill="#FAFAFA"/>
<path d="M72.7165 75.8199H75.3984V73.1357H72.7165V75.8199Z" fill="#FAFAFA"/>
<path d="M67.5173 75.8199H70.1992V73.1357H67.5173V75.8199Z" fill="#FAFAFA"/>
<path d="M83.1087 80.6942H85.793V78.01H83.1087V80.6942Z" fill="#FAFAFA"/>
<path d="M77.9095 80.6942H80.5938V78.01H77.9095V80.6942Z" fill="#FAFAFA"/>
<path d="M72.7165 80.6942H75.3984V78.01H72.7165V80.6942Z" fill="#FAFAFA"/>
<path d="M67.5173 80.6942H70.1992V78.01H67.5173V80.6942Z" fill="#FAFAFA"/>
<path d="M83.1087 85.5686H85.793V82.8844H83.1087V85.5686Z" fill="#FAFAFA"/>
<path d="M77.9095 85.5686H80.5938V82.8844H77.9095V85.5686Z" fill="#FAFAFA"/>
<path d="M72.7165 85.5686H75.3984V82.8844H72.7165V85.5686Z" fill="#FAFAFA"/>
<path d="M67.5173 85.5686H70.1992V82.8844H67.5173V85.5686Z" fill="#FAFAFA"/>
<path d="M87.568 51.7754H65.7461V52.3229H87.568V51.7754Z" fill="#F5F5F5"/>
<path d="M70.7461 47.2329V41.8667H70.1986V47.2329H70.7461Z" fill="#EBEBEB"/>
<path d="M83.1055 47.2305V41.8644H82.5579V47.2305H83.1055Z" fill="#EBEBEB"/>
<path d="M76.9258 47.2305V41.8644H76.3783V47.2305H76.9258Z" fill="#EBEBEB"/>
<path d="M83.6559 46.6831H69.6523V47.2306H83.6559V46.6831Z" fill="#F5F5F5"/>
<path d="M83.6559 41.5907H69.6523V42.1382H83.6559V41.5907Z" fill="#F5F5F5"/>
<path d="M70.75 42.1381V36.772H70.2025V42.1381H70.75Z" fill="#EBEBEB"/>
<path d="M83.1055 42.1381V36.772H82.5579V42.1381H83.1055Z" fill="#EBEBEB"/>
<path d="M76.9297 42.1381V36.772H76.3822V42.1381H76.9297Z" fill="#EBEBEB"/>
<path d="M83.6559 36.5006H69.6523V37.0481H83.6559V36.5006Z" fill="#F5F5F5"/>
<path d="M70.75 37.048V31.6819H70.2025V37.048H70.75Z" fill="#EBEBEB"/>
<path d="M83.1094 37.048V31.6819H82.5619V37.048H83.1094Z" fill="#EBEBEB"/>
<path d="M76.9297 37.048V31.6819H76.3822V37.048H76.9297Z" fill="#EBEBEB"/>
<path d="M83.6559 31.4082H69.6523V31.9557H83.6559V31.4082Z" fill="#F5F5F5"/>
<path d="M83.1055 31.9556V26.5895H82.5579V31.9556H83.1055Z" fill="#EBEBEB"/>
<path d="M76.9258 31.9556V26.5895H76.3783V31.9556H76.9258Z" fill="#EBEBEB"/>
<path d="M73.106 38.3868V37.25C73.1017 37.217 73.0856 37.1868 73.0606 37.1649C73.0356 37.1429 73.0035 37.1309 72.9703 37.1309C72.9371 37.1309 72.905 37.1429 72.88 37.1649C72.8551 37.1868 72.8389 37.217 72.8346 37.25V38.4981C72.8352 38.5342 72.8498 38.5687 72.8753 38.5942C72.9009 38.6198 72.9354 38.6344 72.9715 38.635C73.4007 38.6768 73.7116 39.2104 73.3566 39.563C73.2784 39.6332 73.1819 39.6798 73.0783 39.6975C72.9748 39.7152 72.8683 39.7032 72.7712 39.6629C72.6741 39.6227 72.5905 39.5557 72.5298 39.4699C72.4692 39.3841 72.4341 39.2828 72.4286 39.1779C72.41 39.0062 72.1386 39.0039 72.1572 39.1779C72.2244 39.8507 73.0132 40.2984 73.5492 39.7556C74.048 39.2521 73.7046 38.5376 73.106 38.3868Z" fill="#EBEBEB"/>
<path d="M53.1296 30.2273V32.6912L50.5312 30.0997L50.4036 30.2273H50.2227V53.6129H53.4846V30.2273H53.1296ZM50.5776 48.0681L52.8605 50.351H50.5776V48.0681ZM50.5776 42.2681L52.8605 44.551H50.5776V42.2681ZM50.5776 36.4681L52.8605 38.7533H50.5776V36.4681ZM50.5776 30.6681L52.8605 32.951H50.5776V30.6681ZM52.8605 33.3129L50.5776 35.5912V33.3083L52.8605 33.3129ZM53.118 33.5681V35.851H50.8328L53.118 33.5681ZM52.8605 39.1129L50.5776 41.3935V39.1083L52.8605 39.1129ZM53.118 39.3704V41.6533H50.8328L53.118 39.3704ZM52.8605 44.9153L50.5776 47.1935V44.9106L52.8605 44.9153ZM53.118 45.1704V47.4533H50.8328L53.118 45.1704ZM52.8605 50.7176L50.5776 52.9958V50.7129L52.8605 50.7176ZM50.8328 53.2556L53.118 50.9728V53.2556H50.8328ZM53.118 50.1004L50.8328 47.8153H53.1296L53.118 50.1004ZM53.118 44.3004L50.8328 42.0176H53.1296L53.118 44.3004ZM53.118 38.5004L50.8328 36.2176H53.1296L53.118 38.5004Z" fill="#F0F0F0"/>
<path d="M50.5742 22.5226V27.0559H50.9361V25.3159L52.7921 27.1719L52.9197 27.0443H53.1262V22.5226H50.5742ZM52.4952 22.8845L50.9361 24.4435V22.8845H52.4952ZM52.7504 26.6197L51.2006 25.056H52.7573L52.7504 26.6197ZM51.1937 24.6987L52.7504 23.1397V24.6987H51.1937Z" fill="#F0F0F0"/>
<path d="M44.6273 30.2273H40.2773V34.5773H44.6273V30.2273Z" fill="#E6E6E6"/>
<path d="M73.0312 36.5029H72.79V28.137L52.5294 21.4206H51.1908L40.3424 28.1532L40.2148 27.9491L51.1212 21.1793H52.5688L52.5874 21.184L73.0312 27.963V36.5029Z" fill="#E6E6E6"/>
<path d="M70.5546 30.4152H70.8052L73.3572 27.8632H40.0977V30.4012H70.5546V30.4152ZM70.9165 28.232H72.4756L70.9165 29.7888V28.232ZM40.4596 30.0463V28.4872L42.0186 30.0463H40.4596ZM42.2738 29.7888L40.7148 28.232H42.2738V29.7888ZM42.6357 28.232H44.1948L42.6357 29.7888V28.232ZM44.45 30.0463H42.8909L44.45 28.4872V30.0463ZM44.8119 30.0463V28.4872L46.3686 30.0463H44.8119ZM46.6331 29.7888L45.0764 28.232H46.6331V29.7888ZM46.995 28.232H48.5541L46.995 29.7888V28.232ZM48.8093 30.0463H47.2525L48.8093 28.4872V30.0463ZM49.1712 30.0463V28.4872L50.7302 30.0463H49.1712ZM50.9854 29.7888L49.4171 28.232H50.9761L50.9854 29.7888ZM51.3473 28.232H52.8971L51.3404 29.7888L51.3473 28.232ZM53.1616 30.0463H51.6025L53.1616 28.4872V30.0463ZM53.5235 30.0463V28.4872L55.0802 30.0463H53.5235ZM55.3354 29.7888L53.7787 28.232H55.3354V29.7888ZM55.6973 28.232H57.2564L55.6811 29.7888L55.6973 28.232ZM57.5116 30.0463H55.9525L57.5116 28.4872V30.0463ZM57.8735 30.0463V28.4872L59.4325 30.0463H57.8735ZM59.6877 29.7888L58.1287 28.232H59.6877V29.7888ZM60.0497 28.232H61.6064L60.0497 29.7888V28.232ZM61.8639 30.0463H60.3049L61.8639 28.4872V30.0463ZM62.2235 30.0463V28.4872L63.7825 30.0463H62.2235ZM64.0331 29.7888L62.4764 28.232H64.0331V29.7888ZM64.395 28.232H65.9541L64.395 29.7888V28.232ZM66.2093 30.0463H64.6502L66.2093 28.4872V30.0463ZM66.5712 28.232H68.1279L66.5712 29.7888V28.232ZM68.3854 30.0463H66.8171L68.3761 28.4872L68.3854 30.0463ZM68.7473 30.0463V28.4872L70.3041 30.0463H68.7473ZM69.0025 28.232H70.5593V29.7888L69.0025 28.232Z" fill="#F0F0F0"/>
<path d="M55.0932 31.2133H48.4023L48.6459 28.3992C48.6779 28.0324 48.8462 27.6909 49.1177 27.4422C49.3891 27.1935 49.744 27.0557 50.1122 27.0559H53.2999C53.6607 27.0558 54.009 27.1883 54.2785 27.4283C54.548 27.6683 54.7199 27.999 54.7615 28.3574L55.0932 31.2133Z" fill="#F0F0F0"/>
<path d="M50.7658 28.2251H49.4805V29.5104H50.7658V28.2251Z" fill="#FAFAFA"/>
<path d="M52.3908 28.2251H51.1055V29.5104H52.3908V28.2251Z" fill="#FAFAFA"/>
<path d="M54.0158 28.2251H52.7305V29.5104H54.0158V28.2251Z" fill="#FAFAFA"/>
<path d="M51.8535 22.7058C52.3379 22.7058 52.7305 22.3132 52.7305 21.8289C52.7305 21.3445 52.3379 20.9519 51.8535 20.9519C51.3692 20.9519 50.9766 21.3445 50.9766 21.8289C50.9766 22.3132 51.3692 22.7058 51.8535 22.7058Z" fill="#E6E6E6"/>
<path d="M72.972 37.9993C72.7733 37.9993 72.5827 37.9204 72.4421 37.7798C72.3016 37.6393 72.2227 37.4487 72.2227 37.25V36.5029H73.7214V37.25C73.7214 37.4487 73.6424 37.6393 73.5019 37.7798C73.3614 37.9204 73.1708 37.9993 72.972 37.9993Z" fill="#E6E6E6"/>
<path d="M74.3147 32.3454V31.3733C74.3147 31.3426 74.327 31.3131 74.3487 31.2913C74.3705 31.2695 74.4 31.2573 74.4307 31.2573C74.4615 31.2573 74.491 31.2695 74.5128 31.2913C74.5345 31.3131 74.5467 31.3426 74.5467 31.3733V32.4405C74.5461 32.4711 74.5337 32.5003 74.5121 32.5219C74.4905 32.5435 74.4613 32.5559 74.4307 32.5565C74.0642 32.5936 73.7974 33.0484 74.1013 33.3523C74.168 33.4132 74.2508 33.4539 74.3398 33.4695C74.4288 33.4851 74.5204 33.475 74.6039 33.4405C74.6874 33.4059 74.7593 33.3483 74.8112 33.2743C74.8631 33.2003 74.8929 33.1131 74.8971 33.0228C74.9133 32.8744 75.1453 32.8744 75.1291 33.0228C75.0711 33.5982 74.3983 33.981 73.9389 33.517C73.4795 33.053 73.8043 32.48 74.3147 32.3454Z" fill="#EBEBEB"/>
<path d="M91.0977 25.3645V45.3676H93.8817V25.3645H93.7262L93.6172 25.2555L91.4062 27.4711V25.3645H91.0977ZM93.5801 42.5766H91.6382L93.5917 40.6232L93.5801 42.5766ZM93.5801 37.6141H91.6382L93.5917 35.6607L93.5801 37.6141ZM93.5801 32.6517H91.6382L93.5917 30.7005L93.5801 32.6517ZM93.5801 27.6915H91.6382L93.5917 25.7381L93.5801 27.6915ZM93.5801 28.0001V29.9535L91.6382 28.0001H93.5801ZM93.3597 30.1716H91.4062V28.2181L93.3597 30.1716ZM93.5801 32.9556V34.9067L91.6382 32.9625L93.5801 32.9556ZM93.3597 35.1271H91.4062V33.176L93.3597 35.1271ZM93.5801 37.9111V39.8645L91.6382 37.9227L93.5801 37.9111ZM93.3597 40.0826H91.4062V38.1315L93.3597 40.0826ZM93.5801 42.8666V44.8201L91.6382 42.8852L93.5801 42.8666ZM91.4062 45.0567V43.1033L93.3573 45.0567H91.4062ZM91.4062 40.4051H93.3573L91.4062 42.3585V40.4051ZM91.4062 35.4426H93.3573L91.4062 37.3961V35.4426ZM91.4062 30.4801H93.3573L91.4062 32.4336V30.4801Z" fill="#EBEBEB"/>
<path d="M91.4062 18.7758V22.6525H91.5617L91.6707 22.7615L93.2623 21.1654V22.6525H93.5708V18.7758H91.4062ZM93.2623 19.0843V20.416L91.9306 19.082L93.2623 19.0843ZM91.7102 20.9403H93.0442L91.7171 22.272L91.7102 20.9403ZM91.7102 20.6318V19.3047L93.0511 20.648L91.7102 20.6318Z" fill="#EBEBEB"/>
<path d="M98.6733 29.0858H102.395V25.3645H98.6733V29.0858Z" fill="#F0F0F0"/>
<path d="M74.3828 30.733H74.5893V23.5781L91.9174 17.8315H93.0635L102.341 23.592L102.45 23.4157L93.1215 17.625H91.8849L91.8687 17.632L74.3828 23.4296V30.733Z" fill="#E6E6E6"/>
<path d="M76.499 25.52H102.543V23.3485H74.1094L76.2855 25.5247H76.499V25.52ZM76.1904 24.9911L74.8564 23.664H76.1904V24.9911ZM100.908 25.2092L102.239 23.8775V25.2092H100.908ZM100.687 23.664H102.021L100.687 24.9911V23.664ZM100.379 24.9957L99.0471 23.664H100.379V24.9957ZM98.8267 23.8821L100.161 25.2138H98.8313L98.8267 23.8821ZM97.1864 25.2138L98.5181 23.8821V25.2138H97.1864ZM96.9753 23.664H98.3093L96.9753 24.9911V23.664ZM96.6667 24.9957L95.3258 23.664H96.6575L96.6667 24.9957ZM95.1147 23.8821L96.4487 25.2138H95.1147V23.8821ZM93.4744 25.2138L94.8061 23.8821V25.2138H93.4744ZM93.254 23.664H94.588L93.254 24.9957V23.664ZM92.9455 24.9957L91.6045 23.664H92.9362L92.9455 24.9957ZM91.3934 23.8821L92.7274 25.2138H91.3841L91.3934 23.8821ZM89.7531 25.2138L91.0848 23.8821V25.2138H89.7531ZM89.5327 23.664H90.8667L89.5327 24.9957V23.664ZM89.2242 24.9957L87.8809 23.664H89.2149L89.2242 24.9957ZM87.6721 23.8821L89.0061 25.2138H87.6721V23.8821ZM86.0295 25.2138L87.3635 23.8821V25.2138H86.0295ZM85.8115 23.664H87.1455L85.8115 24.9957V23.664ZM85.5029 24.9957L84.1596 23.664H85.4936L85.5029 24.9957ZM83.9508 23.8821L85.2848 25.2138H83.9508V23.8821ZM82.3083 25.2138L83.6423 23.8821V25.2138H82.3083ZM82.0809 23.664H83.4149L82.0809 24.9957V23.664ZM81.7723 24.9957L80.4383 23.664H81.7723V24.9957ZM80.2203 23.8821L81.5543 25.2138H80.2203V23.8821ZM79.9117 24.9957L78.5777 23.664H79.9117V24.9957ZM78.3596 23.8821L79.6913 25.2138H78.3596V23.8821ZM76.7171 25.2138L78.0511 23.8821V25.2138H76.7171ZM76.499 24.9957V23.664H77.8307L76.499 24.9957Z" fill="#EBEBEB"/>
<path d="M89.7227 26.216H95.4461L95.2373 23.8078C95.2122 23.4921 95.0691 23.1974 94.8365 22.9824C94.6039 22.7675 94.2989 22.648 93.9822 22.6478H91.2562C90.9475 22.648 90.6497 22.7615 90.4191 22.9668C90.1886 23.1721 90.0415 23.4548 90.0057 23.7614L89.7227 26.216Z" fill="#EBEBEB"/>
<path d="M93.4238 24.7498H94.5234V23.6501H93.4238V24.7498Z" fill="#FAFAFA"/>
<path d="M92.0331 24.7498H93.1328V23.6501H92.0331V24.7498Z" fill="#FAFAFA"/>
<path d="M90.6464 24.7498H91.7461V23.6501H90.6464V24.7498Z" fill="#FAFAFA"/>
<path d="M91.7461 18.1819C91.7461 18.3301 91.79 18.4749 91.8724 18.5982C91.9547 18.7214 92.0718 18.8175 92.2087 18.8742C92.3456 18.9309 92.4963 18.9457 92.6416 18.9168C92.787 18.8879 92.9205 18.8165 93.0253 18.7117C93.1301 18.6069 93.2015 18.4734 93.2304 18.328C93.2593 18.1827 93.2445 18.032 93.1878 17.8951C93.1311 17.7582 93.035 17.6411 92.9118 17.5588C92.7885 17.4764 92.6437 17.4325 92.4955 17.4325C92.397 17.4325 92.2996 17.4519 92.2087 17.4895C92.1178 17.5272 92.0352 17.5824 91.9656 17.652C91.896 17.7216 91.8408 17.8042 91.8031 17.8951C91.7655 17.986 91.7461 18.0834 91.7461 18.1819Z" fill="#E6E6E6"/>
<path d="M74.4294 32.016C74.5134 32.0163 74.5966 32 74.6742 31.9681C74.7519 31.9362 74.8225 31.8892 74.882 31.8299C74.9415 31.7707 74.9887 31.7002 75.0209 31.6227C75.0531 31.5451 75.0697 31.462 75.0697 31.378V30.7377H73.7891V31.378C73.7897 31.5474 73.8574 31.7097 73.9774 31.8293C74.0974 31.9488 74.26 32.016 74.4294 32.016Z" fill="#E6E6E6"/>
<path d="M56.8809 98.3007C81.7241 98.3007 101.863 97.1249 101.863 95.6745C101.863 94.224 81.7241 93.0482 56.8809 93.0482C32.0378 93.0482 11.8984 94.224 11.8984 95.6745C11.8984 97.1249 32.0378 98.3007 56.8809 98.3007Z" fill="#F5F5F5"/>
<path d="M42.8784 83.1047H86.9375V79.7013H42.8784V83.1047Z" fill="#EF233C"/>
<path opacity="0.2" d="M42.8784 83.1047H86.9375V79.7013H42.8784V83.1047Z" fill="black"/>
<path d="M93.5993 80.4623H95.5064C96.5795 80.4878 97.6 80.932 98.35 81.6999C99.0999 82.4679 99.5197 83.4988 99.5197 84.5722C99.5197 85.6456 99.0999 86.6764 98.35 87.4444C97.6 88.2123 96.5795 88.6565 95.5064 88.682H93.5993C92.5262 88.6565 91.5057 88.2123 90.7557 87.4444C90.0058 86.6764 89.5859 85.6456 89.5859 84.5722C89.5859 83.4988 90.0058 82.4679 90.7557 81.6999C91.5057 80.932 92.5262 80.4878 93.5993 80.4623Z" fill="#263238"/>
<path opacity="0.5" d="M97.3947 86.1464C98.2631 84.05 97.2676 81.6465 95.1711 80.7781C93.0747 79.9098 90.6712 80.9053 89.8028 83.0018C88.9344 85.0982 89.93 87.5017 92.0264 88.3701C94.1229 89.2384 96.5264 88.2429 97.3947 86.1464Z" fill="black"/>
<path d="M61.1071 80.4623H63.0118C63.5598 80.4493 64.1048 80.546 64.6148 80.7467C65.1248 80.9474 65.5896 81.248 65.9817 81.631C66.3738 82.0139 66.6855 82.4714 66.8982 82.9765C67.111 83.4816 67.2205 84.0241 67.2205 84.5722C67.2205 85.1203 67.111 85.6629 66.8982 86.168C66.6855 86.6731 66.3738 87.1306 65.9817 87.5135C65.5896 87.8964 65.1248 88.1971 64.6148 88.3977C64.1048 88.5984 63.5598 88.6951 63.0118 88.6821H61.1071C60.5592 88.6951 60.0142 88.5984 59.5042 88.3977C58.9941 88.1971 58.5294 87.8964 58.1373 87.5135C57.7451 87.1306 57.4335 86.6731 57.2208 86.168C57.008 85.6629 56.8984 85.1203 56.8984 84.5722C56.8984 84.0241 57.008 83.4816 57.2208 82.9765C57.4335 82.4714 57.7451 82.0139 58.1373 81.631C58.5294 81.248 58.9941 80.9474 59.5042 80.7467C60.0142 80.546 60.5592 80.4493 61.1071 80.4623Z" fill="#263238"/>
<path opacity="0.5" d="M64.9065 86.1441C65.7748 84.0477 64.7793 81.6442 62.6828 80.7758C60.5864 79.9075 58.1829 80.903 57.3145 82.9994C56.4461 85.0959 57.4417 87.4994 59.5382 88.3678C61.6346 89.2361 64.0381 88.2406 64.9065 86.1441Z" fill="black"/>
<path d="M82.1267 80.4623H84.0314C84.5793 80.4493 85.1243 80.546 85.6343 80.7467C86.1444 80.9474 86.6091 81.248 87.0012 81.631C87.3934 82.0139 87.705 82.4714 87.9177 82.9765C88.1305 83.4816 88.2401 84.0241 88.2401 84.5722C88.2401 85.1203 88.1305 85.6629 87.9177 86.168C87.705 86.6731 87.3934 87.1306 87.0012 87.5135C86.6091 87.8964 86.1444 88.1971 85.6343 88.3977C85.1243 88.5984 84.5793 88.6951 84.0314 88.6821H82.1267C81.5787 88.6951 81.0337 88.5984 80.5237 88.3977C80.0137 88.1971 79.5489 87.8964 79.1568 87.5135C78.7647 87.1306 78.4531 86.6731 78.2403 86.168C78.0276 85.6629 77.918 85.1203 77.918 84.5722C77.918 84.0241 78.0276 83.4816 78.2403 82.9765C78.4531 82.4714 78.7647 82.0139 79.1568 81.631C79.5489 81.248 80.0137 80.9474 80.5237 80.7467C81.0337 80.546 81.5787 80.4493 82.1267 80.4623Z" fill="#263238"/>
<path opacity="0.5" d="M82.1267 80.4623H84.0314C84.5793 80.4493 85.1243 80.546 85.6343 80.7467C86.1444 80.9474 86.6091 81.248 87.0012 81.631C87.3934 82.0139 87.705 82.4714 87.9177 82.9765C88.1305 83.4816 88.2401 84.0241 88.2401 84.5722C88.2401 85.1203 88.1305 85.6629 87.9177 86.168C87.705 86.6731 87.3934 87.1306 87.0012 87.5135C86.6091 87.8964 86.1444 88.1971 85.6343 88.3977C85.1243 88.5984 84.5793 88.6951 84.0314 88.6821H82.1267C81.5787 88.6951 81.0337 88.5984 80.5237 88.3977C80.0137 88.1971 79.5489 87.8964 79.1568 87.5135C78.7647 87.1306 78.4531 86.6731 78.2403 86.168C78.0276 85.6629 77.918 85.1203 77.918 84.5722C77.918 84.0241 78.0276 83.4816 78.2403 82.9765C78.4531 82.4714 78.7647 82.0139 79.1568 81.631C79.5489 81.248 80.0137 80.9474 80.5237 80.7467C81.0337 80.546 81.5787 80.4493 82.1267 80.4623Z" fill="black"/>
<path d="M72.1267 80.4623H74.0314C74.5793 80.4493 75.1243 80.546 75.6343 80.7467C76.1444 80.9474 76.6091 81.248 77.0012 81.631C77.3934 82.0139 77.705 82.4714 77.9177 82.9765C78.1305 83.4816 78.2401 84.0241 78.2401 84.5722C78.2401 85.1203 78.1305 85.6629 77.9177 86.168C77.705 86.6731 77.3934 87.1306 77.0012 87.5135C76.6091 87.8964 76.1444 88.1971 75.6343 88.3977C75.1243 88.5984 74.5793 88.6951 74.0314 88.6821H72.1267C71.5787 88.6951 71.0337 88.5984 70.5237 88.3977C70.0137 88.1971 69.5489 87.8964 69.1568 87.5135C68.7647 87.1306 68.4531 86.6731 68.2403 86.168C68.0276 85.6629 67.918 85.1203 67.918 84.5722C67.918 84.0241 68.0276 83.4816 68.2403 82.9765C68.4531 82.4714 68.7647 82.0139 69.1568 81.631C69.5489 81.248 70.0137 80.9474 70.5237 80.7467C71.0337 80.546 71.5787 80.4493 72.1267 80.4623Z" fill="#263238"/>
<path opacity="0.5" d="M72.1267 80.4623H74.0314C74.5793 80.4493 75.1243 80.546 75.6343 80.7467C76.1444 80.9474 76.6091 81.248 77.0012 81.631C77.3934 82.0139 77.705 82.4714 77.9177 82.9765C78.1305 83.4816 78.2401 84.0241 78.2401 84.5722C78.2401 85.1203 78.1305 85.6629 77.9177 86.168C77.705 86.6731 77.3934 87.1306 77.0012 87.5135C76.6091 87.8964 76.1444 88.1971 75.6343 88.3977C75.1243 88.5984 74.5793 88.6951 74.0314 88.6821H72.1267C71.5787 88.6951 71.0337 88.5984 70.5237 88.3977C70.0137 88.1971 69.5489 87.8964 69.1568 87.5135C68.7647 87.1306 68.4531 86.6731 68.2403 86.168C68.0276 85.6629 67.918 85.1203 67.918 84.5722C67.918 84.0241 68.0276 83.4816 68.2403 82.9765C68.4531 82.4714 68.7647 82.0139 69.1568 81.631C69.5489 81.248 70.0137 80.9474 70.5237 80.7467C71.0337 80.546 71.5787 80.4493 72.1267 80.4623Z" fill="black"/>
<path d="M48.8649 80.4623H50.7697C51.3176 80.4493 51.8626 80.546 52.3726 80.7467C52.8826 80.9474 53.3474 81.248 53.7395 81.631C54.1317 82.0139 54.4433 82.4714 54.656 82.9765C54.8688 83.4816 54.9784 84.0241 54.9784 84.5722C54.9784 85.1203 54.8688 85.6629 54.656 86.168C54.4433 86.6731 54.1317 87.1306 53.7395 87.5135C53.3474 87.8964 52.8826 88.1971 52.3726 88.3977C51.8626 88.5984 51.3176 88.6951 50.7697 88.6821H48.8649C48.317 88.6951 47.772 88.5984 47.262 88.3977C46.752 88.1971 46.2872 87.8964 45.8951 87.5135C45.5029 87.1306 45.1913 86.6731 44.9786 86.168C44.7658 85.6629 44.6563 85.1203 44.6563 84.5722C44.6562 84.0241 44.7658 83.4816 44.9786 82.9765C45.1913 82.4714 45.5029 82.0139 45.8951 81.631C46.2872 81.248 46.752 80.9474 47.262 80.7467C47.772 80.546 48.317 80.4493 48.8649 80.4623Z" fill="#263238"/>
<path opacity="0.5" d="M48.8649 80.4623H50.7697C51.3176 80.4493 51.8626 80.546 52.3726 80.7467C52.8826 80.9474 53.3474 81.248 53.7395 81.631C54.1317 82.0139 54.4433 82.4714 54.656 82.9765C54.8688 83.4816 54.9784 84.0241 54.9784 84.5722C54.9784 85.1203 54.8688 85.6629 54.656 86.168C54.4433 86.6731 54.1317 87.1306 53.7395 87.5135C53.3474 87.8964 52.8826 88.1971 52.3726 88.3977C51.8626 88.5984 51.3176 88.6951 50.7697 88.6821H48.8649C48.317 88.6951 47.772 88.5984 47.262 88.3977C46.752 88.1971 46.2872 87.8964 45.8951 87.5135C45.5029 87.1306 45.1913 86.6731 44.9786 86.168C44.7658 85.6629 44.6563 85.1203 44.6563 84.5722C44.6562 84.0241 44.7658 83.4816 44.9786 82.9765C45.1913 82.4714 45.5029 82.0139 45.8951 81.631C46.2872 81.248 46.752 80.9474 47.262 80.7467C47.772 80.546 48.317 80.4493 48.8649 80.4623Z" fill="black"/>
<path d="M52.6604 86.1447C53.5287 84.0483 52.5332 81.6448 50.4367 80.7764C48.3403 79.9081 45.9368 80.9036 45.0684 83.0001C44.2001 85.0965 45.1956 87.5 47.2921 88.3684C49.3885 89.2367 51.792 88.2412 52.6604 86.1447Z" fill="#263238"/>
<path d="M46.0899 84.5733C46.0899 85.124 46.2531 85.6622 46.5591 86.12C46.865 86.5779 47.2998 86.9347 47.8085 87.1454C48.3172 87.3561 48.877 87.4113 49.417 87.3038C49.957 87.1964 50.4531 86.9313 50.8425 86.5419C51.2318 86.1526 51.497 85.6565 51.6044 85.1165C51.7118 84.5764 51.6567 84.0166 51.446 83.5079C51.2352 82.9992 50.8784 82.5644 50.4206 82.2585C49.9627 81.9526 49.4245 81.7893 48.8739 81.7893C48.5078 81.7878 48.1451 81.8588 47.8067 81.9981C47.4682 82.1375 47.1607 82.3425 46.9019 82.6013C46.643 82.8601 46.438 83.1677 46.2987 83.5061C46.1593 83.8446 46.0883 84.2073 46.0899 84.5733ZM50.5211 85.1556L50.4004 85.0257C50.3707 84.9955 50.3484 84.9589 50.3351 84.9187C50.3218 84.8784 50.318 84.8357 50.3239 84.7937C50.3486 84.6486 50.3486 84.5004 50.3239 84.3553C50.318 84.3133 50.3218 84.2706 50.3351 84.2303C50.3484 84.1901 50.3707 84.1535 50.4004 84.1233L50.5211 83.9933C50.5579 83.9544 50.6048 83.9264 50.6565 83.9124C50.7082 83.8983 50.7627 83.8987 50.8142 83.9136C50.8657 83.9284 50.9121 83.9571 50.9484 83.9966C50.9846 84.036 51.0094 84.0846 51.0199 84.1372C51.0786 84.4281 51.0786 84.7278 51.0199 85.0188C51.0084 85.0707 50.983 85.1186 50.9463 85.1572C50.9096 85.1958 50.8631 85.2236 50.8118 85.2377C50.7604 85.2518 50.7062 85.2516 50.655 85.2371C50.6038 85.2227 50.5575 85.1945 50.5211 85.1556ZM49.1824 86.304L49.2358 86.13C49.2496 86.0883 49.2726 86.0501 49.3032 86.0184C49.3337 85.9867 49.3709 85.9622 49.4121 85.9468C49.5415 85.8951 49.6627 85.8248 49.7717 85.738C49.804 85.7122 49.8413 85.6935 49.8813 85.6831C49.9213 85.6728 49.963 85.6709 50.0037 85.6776L50.1847 85.7194C50.2372 85.7316 50.2853 85.7581 50.3238 85.7959C50.3622 85.8338 50.3894 85.8815 50.4024 85.9339C50.4153 85.9862 50.4136 86.0412 50.3972 86.0926C50.3809 86.144 50.3507 86.1899 50.3099 86.2252C50.0885 86.42 49.8307 86.569 49.5513 86.6636C49.501 86.6787 49.4475 86.6801 49.3965 86.6676C49.3454 86.655 49.2987 86.6291 49.2611 86.5924C49.2234 86.5557 49.1963 86.5096 49.1825 86.4589C49.1686 86.4082 49.1686 86.3548 49.1824 86.304ZM49.5606 82.4876C49.8403 82.5814 50.0984 82.7305 50.3192 82.9261C50.3594 82.9615 50.389 83.0073 50.4049 83.0584C50.4208 83.1095 50.4224 83.164 50.4095 83.2159C50.3965 83.2678 50.3696 83.3152 50.3316 83.3529C50.2936 83.3906 50.246 83.4171 50.1939 83.4296L50.013 83.4713C49.9723 83.4792 49.9303 83.4779 49.8902 83.4674C49.85 83.457 49.8127 83.4377 49.781 83.411C49.6714 83.3251 49.5504 83.2548 49.4214 83.2022C49.3803 83.1873 49.343 83.1633 49.3125 83.1319C49.282 83.1006 49.2589 83.0628 49.2451 83.0213L49.1917 82.8473C49.1763 82.7961 49.1752 82.7416 49.1886 82.6899C49.202 82.6381 49.2293 82.591 49.2676 82.5537C49.3058 82.5164 49.3536 82.4903 49.4057 82.4783C49.4577 82.4662 49.5121 82.4686 49.5629 82.4853L49.5606 82.4876ZM48.5352 82.8473L48.4818 83.0213C48.468 83.0628 48.4449 83.1006 48.4144 83.1319C48.3838 83.1633 48.3466 83.1873 48.3055 83.2022C48.1765 83.2548 48.0555 83.3251 47.9459 83.411C47.9141 83.4377 47.8768 83.457 47.8367 83.4674C47.7966 83.4779 47.7546 83.4792 47.7139 83.4713L47.5329 83.4296C47.4809 83.4171 47.4332 83.3906 47.3952 83.3529C47.3572 83.3152 47.3303 83.2678 47.3174 83.2159C47.3045 83.164 47.306 83.1095 47.322 83.0584C47.3379 83.0073 47.3675 82.9615 47.4076 82.9261C47.6285 82.7305 47.8865 82.5814 48.1663 82.4876C48.2166 82.4714 48.2703 82.4691 48.3219 82.481C48.3734 82.4929 48.4207 82.5186 48.4588 82.5552C48.4969 82.5919 48.5243 82.6382 48.5381 82.6892C48.552 82.7402 48.5518 82.794 48.5375 82.8449L48.5352 82.8473ZM47.5236 85.7194L47.7046 85.6776C47.7453 85.6709 47.787 85.6728 47.827 85.6831C47.867 85.6935 47.9043 85.7122 47.9366 85.738C48.0456 85.8248 48.1668 85.8951 48.2962 85.9468C48.3374 85.9622 48.3746 85.9867 48.4051 86.0184C48.4357 86.0501 48.4587 86.0883 48.4725 86.13L48.5259 86.304C48.5406 86.3557 48.5409 86.4105 48.5267 86.4623C48.5125 86.5142 48.4845 86.5611 48.4455 86.5982C48.4066 86.6352 48.3582 86.6609 48.3057 86.6724C48.2532 86.684 48.1986 86.6809 48.1477 86.6636C47.8684 86.569 47.6105 86.42 47.3891 86.2252C47.3484 86.1888 47.3187 86.1418 47.3031 86.0895C47.2876 86.0372 47.2869 85.9817 47.3011 85.929C47.3153 85.8763 47.3438 85.8286 47.3835 85.7912C47.4232 85.7538 47.4725 85.7281 47.5259 85.7171L47.5236 85.7194ZM46.7 85.0234C46.6412 84.7325 46.6412 84.4327 46.7 84.1418C46.7105 84.0893 46.7353 84.0406 46.7715 84.0012C46.8078 83.9618 46.8542 83.933 46.9057 83.9182C46.9572 83.9034 47.0117 83.9029 47.0634 83.917C47.1151 83.9311 47.162 83.9591 47.1988 83.998L47.3218 84.1279C47.3508 84.1585 47.3725 84.1953 47.3854 84.2354C47.3982 84.2756 47.4019 84.3181 47.396 84.3599C47.3744 84.5052 47.3744 84.653 47.396 84.7984C47.4019 84.8401 47.3982 84.8827 47.3854 84.9228C47.3725 84.963 47.3508 84.9998 47.3218 85.0304L47.1988 85.1603C47.1617 85.1985 47.1149 85.2259 47.0633 85.2395C47.0118 85.253 46.9576 85.2522 46.9064 85.2372C46.8553 85.2221 46.8093 85.1934 46.7733 85.1541C46.7373 85.1148 46.7128 85.0664 46.7023 85.0141L46.7 85.0234Z" fill="#EF233C"/>
<path d="M75.9221 86.1453C76.7905 84.0489 75.7949 81.6454 73.6985 80.777C71.602 79.9087 69.1985 80.9042 68.3302 83.0007C67.4618 85.0971 68.4573 87.5006 70.5538 88.369C72.6502 89.2374 75.0537 88.2418 75.9221 86.1453Z" fill="#263238"/>
<path d="M69.3555 84.5733C69.3578 85.1211 69.5223 85.656 69.8284 86.1104C70.1344 86.5648 70.5682 86.9183 71.075 87.1264C71.5817 87.3344 72.1388 87.3877 72.6758 87.2794C73.2129 87.1711 73.7058 86.9062 74.0923 86.518C74.4789 86.1298 74.7418 85.6358 74.8478 85.0983C74.9539 84.5608 74.8983 84.004 74.6881 83.4981C74.478 82.9922 74.1226 82.5599 73.6669 82.2557C73.2113 81.9516 72.6757 81.7893 72.1279 81.7893C71.7628 81.7893 71.4014 81.8614 71.0643 82.0014C70.7271 82.1415 70.421 82.3467 70.1634 82.6054C69.9058 82.8641 69.7018 83.1711 69.5632 83.5088C69.4245 83.8465 69.354 84.2083 69.3555 84.5733ZM73.7867 85.1556L73.666 85.0257C73.6368 84.9952 73.6147 84.9585 73.6015 84.9184C73.5882 84.8782 73.5841 84.8356 73.5895 84.7937C73.6142 84.6486 73.6142 84.5003 73.5895 84.3552C73.5841 84.3133 73.5882 84.2707 73.6015 84.2305C73.6147 84.1904 73.6368 84.1537 73.666 84.1232L73.7774 83.984C73.8143 83.9451 73.8611 83.9171 73.9128 83.9031C73.9645 83.889 74.0191 83.8894 74.0706 83.9043C74.122 83.9191 74.1684 83.9478 74.2047 83.9872C74.241 84.0267 74.2657 84.0753 74.2762 84.1279C74.338 84.4185 74.338 84.7189 74.2762 85.0095C74.266 85.0622 74.2416 85.1111 74.2054 85.1508C74.1693 85.1905 74.1229 85.2195 74.0714 85.2346C74.0198 85.2497 73.9652 85.2504 73.9133 85.2364C73.8614 85.2225 73.8144 85.1945 73.7774 85.1556H73.7867ZM72.4504 86.304L72.5037 86.13C72.5179 86.0884 72.541 86.0504 72.5715 86.0187C72.6019 85.987 72.639 85.9625 72.6801 85.9467C72.8102 85.8951 72.9321 85.8248 73.042 85.7379C73.074 85.7118 73.1114 85.6929 73.1514 85.6825C73.1914 85.6721 73.2332 85.6704 73.274 85.6776L73.4549 85.7194C73.5075 85.7316 73.5556 85.7581 73.594 85.7959C73.6325 85.8338 73.6597 85.8815 73.6726 85.9339C73.6856 85.9862 73.6838 86.0411 73.6675 86.0925C73.6512 86.1439 73.621 86.1898 73.5802 86.2251C73.3591 86.4205 73.1012 86.5695 72.8216 86.6636C72.7711 86.6792 72.7173 86.681 72.6659 86.6687C72.6146 86.6564 72.5674 86.6305 72.5295 86.5938C72.4915 86.557 72.4641 86.5107 72.4502 86.4597C72.4363 86.4088 72.4364 86.355 72.4504 86.304ZM72.8285 82.4876C73.1085 82.5808 73.3666 82.73 73.5872 82.9261C73.6273 82.9615 73.6569 83.0073 73.6728 83.0584C73.6888 83.1095 73.6903 83.1639 73.6774 83.2159C73.6645 83.2678 73.6376 83.3152 73.5996 83.3529C73.5616 83.3905 73.5139 83.4171 73.4619 83.4295L73.2809 83.4713C73.2402 83.4795 73.1982 83.4783 73.158 83.4679C73.1178 83.4574 73.0805 83.438 73.0489 83.411C72.9385 83.325 72.8167 83.2547 72.687 83.2022C72.6461 83.1868 72.6091 83.1627 72.5786 83.1314C72.5482 83.1001 72.525 83.0625 72.5107 83.0212L72.4573 82.8472C72.4419 82.796 72.4409 82.7416 72.4542 82.6899C72.4676 82.6381 72.4949 82.591 72.5332 82.5537C72.5715 82.5164 72.6192 82.4903 72.6713 82.4782C72.7234 82.4662 72.7778 82.4686 72.8285 82.4853V82.4876ZM71.8031 82.8472L71.7497 83.0212C71.736 83.0624 71.7132 83.1 71.6831 83.1313C71.653 83.1626 71.6164 83.1868 71.5757 83.2022C71.4458 83.2542 71.3239 83.3245 71.2138 83.411C71.1821 83.4377 71.1448 83.457 71.1046 83.4674C71.0645 83.4778 71.0225 83.4792 70.9818 83.4713L70.8032 83.4295C70.7511 83.4171 70.7035 83.3905 70.6655 83.3529C70.6275 83.3152 70.6006 83.2678 70.5877 83.2159C70.5747 83.1639 70.5763 83.1095 70.5922 83.0584C70.6081 83.0073 70.6378 82.9615 70.6779 82.9261C70.8984 82.73 71.1565 82.5808 71.4365 82.4876C71.4866 82.4725 71.5397 82.471 71.5905 82.4834C71.6413 82.4958 71.6878 82.5216 71.7253 82.5581C71.7627 82.5946 71.7897 82.6404 71.8034 82.6909C71.817 82.7413 71.8169 82.7945 71.8031 82.8449V82.8472ZM70.7939 85.7194L70.9725 85.6776C71.0133 85.6709 71.055 85.6727 71.0949 85.6831C71.1349 85.6935 71.1722 85.7122 71.2045 85.7379C71.314 85.8254 71.436 85.8957 71.5665 85.9467C71.6072 85.9626 71.6438 85.9873 71.6739 86.019C71.704 86.0506 71.7267 86.0886 71.7405 86.13L71.7938 86.304C71.8092 86.3556 71.81 86.4103 71.7962 86.4623C71.7824 86.5143 71.7546 86.5614 71.7157 86.5986C71.6769 86.6358 71.6285 86.6615 71.576 86.673C71.5235 86.6845 71.4688 86.6812 71.418 86.6636C71.1384 86.5695 70.8804 86.4205 70.6593 86.2251C70.6179 86.1893 70.5873 86.1426 70.5711 86.0902C70.5549 86.0379 70.5538 85.982 70.5678 85.929C70.5818 85.8761 70.6105 85.8281 70.6504 85.7906C70.6904 85.7531 70.7401 85.7277 70.7939 85.7171V85.7194ZM69.968 85.0234C69.9092 84.7325 69.9092 84.4327 69.968 84.1418C69.9782 84.0888 70.0029 84.0396 70.0393 83.9998C70.0757 83.9599 70.1225 83.9309 70.1744 83.916C70.2263 83.9011 70.2813 83.9009 70.3333 83.9154C70.3853 83.9298 70.4323 83.9584 70.4691 83.9979L70.5897 84.1279C70.6187 84.1585 70.6405 84.1952 70.6533 84.2354C70.6662 84.2756 70.6698 84.3181 70.664 84.3599C70.6423 84.5052 70.6423 84.653 70.664 84.7983C70.6698 84.8401 70.6662 84.8827 70.6533 84.9228C70.6405 84.963 70.6187 84.9997 70.5897 85.0303L70.4691 85.1603C70.4322 85.1998 70.385 85.2284 70.3328 85.2427C70.2806 85.257 70.2255 85.2566 70.1735 85.2414C70.1216 85.2263 70.0749 85.197 70.0386 85.1569C70.0023 85.1167 69.9778 85.0673 69.968 85.0141V85.0234Z" fill="#EF233C"/>
<path d="M85.926 86.1457C86.7944 84.0493 85.7988 81.6458 83.7024 80.7774C81.6059 79.909 79.2024 80.9046 78.3341 83.001C77.4657 85.0975 78.4612 87.501 80.5577 88.3693C82.6541 89.2377 85.0576 88.2422 85.926 86.1457Z" fill="#263238"/>
<path d="M86.3984 82.4691H88.0364V84.1697H86.8764C86.8255 83.5778 86.6633 83.0009 86.3984 82.4691Z" fill="#263238"/>
<path d="M77.383 84.1697H76.8703C76.8237 83.5787 76.6663 83.0018 76.4062 82.4691H77.8632C77.5975 83.0007 77.4345 83.5776 77.383 84.1697Z" fill="#263238"/>
<g opacity="0.8">
<path d="M86.3984 82.4691H88.0364V84.1697H86.8764C86.8255 83.5778 86.6633 83.0009 86.3984 82.4691Z" fill="white"/>
<path d="M77.383 84.1697H76.8703C76.8237 83.5787 76.6663 83.0018 76.4062 82.4691H77.8632C77.5975 83.0007 77.4345 83.5776 77.383 84.1697Z" fill="white"/>
</g>
<path d="M79.3555 84.5733C79.3578 85.1211 79.5223 85.656 79.8284 86.1104C80.1344 86.5648 80.5682 86.9183 81.075 87.1264C81.5817 87.3344 82.1388 87.3877 82.6758 87.2794C83.2129 87.1711 83.7058 86.9062 84.0923 86.518C84.4789 86.1298 84.7418 85.6358 84.8478 85.0983C84.9539 84.5608 84.8983 84.004 84.6881 83.4981C84.478 82.9922 84.1226 82.5599 83.6669 82.2557C83.2113 81.9516 82.6757 81.7893 82.1279 81.7893C81.7628 81.7893 81.4014 81.8614 81.0643 82.0014C80.7271 82.1415 80.421 82.3467 80.1634 82.6054C79.9058 82.8641 79.7018 83.1711 79.5632 83.5088C79.4246 83.8465 79.354 84.2083 79.3555 84.5733ZM83.7867 85.1556L83.6661 85.0257C83.6364 84.9955 83.614 84.9589 83.6007 84.9186C83.5874 84.8784 83.5836 84.8357 83.5895 84.7937C83.6142 84.6486 83.6142 84.5003 83.5895 84.3552C83.5836 84.3133 83.5874 84.2705 83.6007 84.2303C83.614 84.1901 83.6364 84.1534 83.6661 84.1232L83.7867 83.9933C83.8236 83.9544 83.8704 83.9264 83.9221 83.9124C83.9738 83.8983 84.0284 83.8987 84.0798 83.9135C84.1313 83.9284 84.1777 83.9571 84.214 83.9965C84.2503 84.036 84.275 84.0846 84.2855 84.1371C84.3442 84.4281 84.3442 84.7278 84.2855 85.0187C84.274 85.0707 84.2486 85.1186 84.2119 85.1572C84.1752 85.1958 84.1287 85.2236 84.0774 85.2377C84.0261 85.2518 83.9719 85.2516 83.9206 85.2371C83.8694 85.2227 83.8231 85.1945 83.7867 85.1556ZM82.4504 86.304L82.5037 86.13C82.5179 86.0884 82.541 86.0504 82.5715 86.0187C82.6019 85.987 82.639 85.9625 82.6801 85.9467C82.8102 85.8951 82.9321 85.8248 83.042 85.7379C83.074 85.7117 83.1113 85.6927 83.1513 85.6822C83.1914 85.6718 83.2332 85.6702 83.274 85.6776L83.4549 85.7194C83.5075 85.7316 83.5556 85.7581 83.594 85.7959C83.6325 85.8338 83.6597 85.8815 83.6726 85.9339C83.6856 85.9862 83.6838 86.0411 83.6675 86.0925C83.6512 86.1439 83.621 86.1898 83.5802 86.2251C83.3591 86.4205 83.1012 86.5695 82.8216 86.6636C82.7711 86.6792 82.7173 86.681 82.6659 86.6687C82.6146 86.6564 82.5674 86.6305 82.5295 86.5938C82.4915 86.557 82.4641 86.5107 82.4502 86.4597C82.4363 86.4088 82.4364 86.355 82.4504 86.304ZM82.8239 82.4853C83.1039 82.5785 83.362 82.7277 83.5825 82.9238C83.6227 82.9592 83.6523 83.0049 83.6682 83.056C83.6841 83.1071 83.6857 83.1616 83.6728 83.2135C83.6599 83.2655 83.6329 83.3129 83.5949 83.3505C83.5569 83.3882 83.5093 83.4148 83.4573 83.4272L83.2763 83.469C83.2356 83.4774 83.1935 83.4763 83.1533 83.4658C83.1131 83.4554 83.0758 83.4358 83.0443 83.4087C82.9339 83.3227 82.8121 83.2524 82.6824 83.1999C82.6415 83.1845 82.6045 83.1603 82.574 83.1291C82.5435 83.0978 82.5203 83.0602 82.5061 83.0189L82.4527 82.8449C82.4378 82.7939 82.4372 82.7397 82.4508 82.6884C82.4644 82.637 82.4918 82.5903 82.53 82.5533C82.5682 82.5163 82.6157 82.4904 82.6675 82.4785C82.7193 82.4665 82.7734 82.4688 82.8239 82.4853ZM81.7985 82.8449L81.7451 83.0189C81.7314 83.0601 81.7086 83.0977 81.6785 83.129C81.6484 83.1603 81.6117 83.1845 81.5711 83.1999C81.4411 83.2519 81.3193 83.3222 81.2092 83.4087C81.1774 83.4354 81.1401 83.4546 81.1 83.4651C81.0599 83.4755 81.0179 83.4768 80.9772 83.469L80.7985 83.4272C80.7465 83.4148 80.6989 83.3882 80.6609 83.3505C80.6229 83.3129 80.5959 83.2655 80.583 83.2135C80.5701 83.1616 80.5717 83.1071 80.5876 83.056C80.6035 83.0049 80.6331 82.9592 80.6733 82.9238C80.8938 82.7277 81.1519 82.5785 81.4319 82.4853C81.4824 82.4688 81.5365 82.4665 81.5883 82.4785C81.6401 82.4904 81.6876 82.5163 81.7258 82.5533C81.764 82.5903 81.7914 82.637 81.805 82.6884C81.8186 82.7397 81.8179 82.7939 81.8031 82.8449H81.7985ZM80.7893 85.7171L80.9679 85.6753C81.0086 85.6685 81.0503 85.6704 81.0903 85.6808C81.1303 85.6912 81.1676 85.7099 81.1999 85.7356C81.3093 85.823 81.4314 85.8934 81.5618 85.9444C81.6025 85.9603 81.6392 85.9849 81.6693 86.0166C81.6994 86.0483 81.7221 86.0862 81.7358 86.1277L81.7892 86.3017C81.8045 86.3532 81.8053 86.408 81.7916 86.46C81.7778 86.512 81.7499 86.5591 81.7111 86.5963C81.6722 86.6335 81.6239 86.6592 81.5714 86.6707C81.5188 86.6821 81.4641 86.6789 81.4133 86.6613C81.1337 86.5672 80.8758 86.4181 80.6547 86.2228C80.6139 86.1866 80.584 86.1396 80.5685 86.0873C80.553 86.0349 80.5524 85.9793 80.5669 85.9266C80.5814 85.874 80.6103 85.8264 80.6505 85.7894C80.6906 85.7524 80.7403 85.7273 80.7939 85.7171H80.7893ZM79.9633 85.0211C79.9045 84.7301 79.9045 84.4304 79.9633 84.1395C79.9735 84.0864 79.9982 84.0373 80.0347 83.9974C80.0711 83.9576 80.1178 83.9286 80.1697 83.9137C80.2216 83.8988 80.2766 83.8986 80.3287 83.913C80.3807 83.9275 80.4277 83.9561 80.4645 83.9956L80.5851 84.1255C80.6141 84.1562 80.6358 84.1929 80.6487 84.2331C80.6615 84.2732 80.6652 84.3158 80.6593 84.3575C80.6377 84.5029 80.6377 84.6507 80.6593 84.796C80.6652 84.8378 80.6615 84.8803 80.6487 84.9205C80.6358 84.9607 80.6141 84.9974 80.5851 85.028L80.4645 85.1579C80.4275 85.1962 80.3808 85.2236 80.3295 85.2373C80.2781 85.251 80.224 85.2504 80.1729 85.2356C80.1218 85.2208 80.0757 85.1924 80.0396 85.1533C80.0035 85.1143 79.9788 85.0662 79.968 85.0141L79.9633 85.0211Z" fill="#EF233C"/>
<path d="M56.7535 82.4691H63.5859V62.1645H56.7535V82.4691Z" fill="#EF233C"/>
<path opacity="0.2" d="M56.7535 82.4691H63.5859V62.1645H56.7535V82.4691Z" fill="black"/>
<path d="M45.9792 62.176H56.7139V82.4807H53.1295C52.7364 81.6831 52.1279 81.0115 51.3728 80.5418C50.6178 80.0722 49.7464 79.8233 48.8572 79.8233C47.968 79.8233 47.0966 80.0722 46.3415 80.5418C45.5865 81.0115 44.978 81.6831 44.5849 82.4807H37.082V71.0616L45.9792 62.176Z" fill="#EF233C"/>
<path d="M39.2227 74.3421V72.5673C39.2226 72.3717 39.2611 72.178 39.336 71.9973C39.4108 71.8166 39.5205 71.6523 39.6588 71.514L46.4263 64.7443C46.706 64.4656 47.0846 64.3088 47.4795 64.3081H52.8503V74.3421H39.2227Z" fill="#263238"/>
<path opacity="0.5" d="M39.2227 74.3421V72.5673C39.2226 72.3717 39.2611 72.178 39.336 71.9973C39.4108 71.8166 39.5205 71.6523 39.6588 71.514L46.4263 64.7443C46.706 64.4656 47.0846 64.3088 47.4795 64.3081H52.8503V74.3421H39.2227Z" fill="white"/>
<path d="M88.6811 82.4691H101.332V78.2746H88.6811V82.4691Z" fill="#EF233C"/>
<path opacity="0.2" d="M88.6811 82.4691H101.332V78.2746H88.6811V82.4691Z" fill="black"/>
<path d="M91.0618 80.6781H98.9522C99.1533 80.6781 99.3164 80.515 99.3164 80.3139V79.5204C99.3164 79.3193 99.1533 79.1562 98.9522 79.1562H91.0618C90.8607 79.1562 90.6976 79.3193 90.6976 79.5204V80.3139C90.6976 80.515 90.8607 80.6781 91.0618 80.6781Z" fill="white"/>
<path d="M45.3424 75.2817H46.7344C46.8455 75.2898 46.9494 75.3396 47.0253 75.4212C47.1011 75.5028 47.1433 75.61 47.1433 75.7214C47.1433 75.8328 47.1011 75.94 47.0253 76.0216C46.9494 76.1031 46.8455 76.1529 46.7344 76.161H45.3424C45.2314 76.1529 45.1274 76.1031 45.0516 76.0216C44.9758 75.94 44.9336 75.8328 44.9336 75.7214C44.9336 75.61 44.9758 75.5028 45.0516 75.4212C45.1274 75.3396 45.2314 75.2898 45.3424 75.2817Z" fill="white"/>
<path d="M38.1995 80.8822H36.9908C36.8431 80.8822 36.7015 80.8235 36.5971 80.7191C36.4927 80.6147 36.434 80.4731 36.434 80.3254V76.9776C36.434 76.83 36.4927 76.6883 36.5971 76.5839C36.7015 76.4795 36.8431 76.4208 36.9908 76.4208H38.1995C38.3339 76.4208 38.4669 76.4473 38.5911 76.4987C38.7152 76.5501 38.828 76.6255 38.923 76.7205C39.018 76.8155 39.0934 76.9283 39.1448 77.0524C39.1962 77.1766 39.2227 77.3096 39.2227 77.444V79.8591C39.2227 79.9934 39.1962 80.1265 39.1448 80.2506C39.0934 80.3747 39.018 80.4875 38.923 80.5825C38.828 80.6775 38.7152 80.7529 38.5911 80.8043C38.4669 80.8557 38.3339 80.8822 38.1995 80.8822Z" fill="#EF233C"/>
<path opacity="0.2" d="M38.1995 80.8822H36.9908C36.8431 80.8822 36.7015 80.8235 36.5971 80.7191C36.4927 80.6147 36.434 80.4731 36.434 80.3254V76.9776C36.434 76.83 36.4927 76.6883 36.5971 76.5839C36.7015 76.4795 36.8431 76.4208 36.9908 76.4208H38.1995C38.3339 76.4208 38.4669 76.4473 38.5911 76.4987C38.7152 76.5501 38.828 76.6255 38.923 76.7205C39.018 76.8155 39.0934 76.9283 39.1448 77.0524C39.1962 77.1766 39.2227 77.3096 39.2227 77.444V79.8591C39.2227 79.9934 39.1962 80.1265 39.1448 80.2506C39.0934 80.3747 39.018 80.4875 38.923 80.5825C38.828 80.6775 38.7152 80.7529 38.5911 80.8043C38.4669 80.8557 38.3339 80.8822 38.1995 80.8822Z" fill="black"/>
<path d="M37.2718 80.46C37.3764 80.46 37.4768 80.4185 37.5507 80.3445C37.6247 80.2705 37.6662 80.1702 37.6662 80.0656V77.2329C37.6656 77.1287 37.6238 77.029 37.5499 76.9555C37.476 76.8821 37.376 76.8408 37.2718 76.8408C37.1691 76.8426 37.0711 76.8848 36.9991 76.9581C36.9271 77.0314 36.8867 77.1301 36.8867 77.2329V80.0656C36.8867 80.1686 36.927 80.2676 36.9989 80.3413C37.0709 80.415 37.1689 80.4576 37.2718 80.46Z" fill="white"/>
<path d="M40.2202 73.1705C40.3248 73.1705 40.4251 73.1289 40.4991 73.055C40.5731 72.981 40.6146 72.8807 40.6146 72.7761V69.9434C40.6146 69.8388 40.5731 69.7384 40.4991 69.6645C40.4251 69.5905 40.3248 69.549 40.2202 69.549C40.116 69.5496 40.0163 69.5914 39.9428 69.6653C39.8694 69.7392 39.8281 69.8392 39.8281 69.9434V72.7761C39.8281 72.8803 39.8694 72.9802 39.9428 73.0541C40.0163 73.128 40.116 73.1699 40.2202 73.1705Z" fill="#263238"/>
<path d="M62.1759 67.5538H64.99C65.7048 67.5547 66.3925 67.8275 66.9135 68.3169C67.4345 68.8063 67.7497 69.4756 67.7952 70.189C67.8406 70.9023 67.6129 71.6063 67.1583 72.1578C66.7037 72.7094 66.0562 73.0674 65.3473 73.159L66.4911 82.1281H59.3594V70.3657C59.3606 69.6195 59.6579 68.9043 60.1859 68.3771C60.714 67.8499 61.4297 67.5538 62.1759 67.5538Z" fill="#263238"/>
<path d="M62.1759 67.5538C62.8905 67.5553 63.5778 67.8285 64.0983 68.3181C64.6188 68.8077 64.9336 69.477 64.9788 70.1901C65.0239 70.9033 64.7961 71.607 64.3415 72.1583C63.8869 72.7097 63.2395 73.0674 62.5308 73.159L63.6769 82.1281H59.3594V70.3657C59.3606 69.6195 59.6579 68.9043 60.1859 68.3771C60.714 67.8499 61.4297 67.5538 62.1759 67.5538Z" fill="#263238"/>
<path opacity="0.2" d="M62.1759 67.5538C62.8905 67.5553 63.5778 67.8285 64.0983 68.3181C64.6188 68.8077 64.9336 69.477 64.9788 70.1901C65.0239 70.9033 64.7961 71.607 64.3415 72.1583C63.8869 72.7097 63.2395 73.0674 62.5308 73.159L63.6769 82.1281H59.3594V70.3657C59.3606 69.6195 59.6579 68.9043 60.1859 68.3771C60.714 67.8499 61.4297 67.5538 62.1759 67.5538Z" fill="white"/>
<path d="M69.9785 57.1393C69.1686 59.0934 68.7515 61.1879 68.7512 63.3032C68.7509 65.4185 69.1674 67.5131 69.9768 69.4674C70.7862 71.4217 71.9727 73.1974 73.4686 74.693C74.9645 76.1886 76.7404 77.3749 78.6948 78.184L69.9925 77.9334C67.2807 76.81 65.1262 74.6554 64.0028 71.9436C62.8795 69.2318 62.8793 66.1849 64.0022 63.4729L69.9785 57.1393Z" fill="#EF233C"/>
<path opacity="0.6" d="M69.9785 57.1393C69.1686 59.0934 68.7515 61.1879 68.7512 63.3032C68.7509 65.4185 69.1674 67.5131 69.9768 69.4674C70.7862 71.4217 71.9727 73.1974 73.4686 74.693C74.9645 76.1886 76.7404 77.3749 78.6948 78.184L69.9925 77.9334C67.2807 76.81 65.1262 74.6554 64.0028 71.9436C62.8795 69.2318 62.8793 66.1849 64.0022 63.4729L69.9785 57.1393Z" fill="white"/>
<path d="M92.3928 51.7083C91.2699 54.4202 91.2701 57.4672 92.3935 60.179C93.5168 62.8908 95.6713 65.0454 98.3831 66.1688C98.9394 64.826 99.2258 63.3868 99.2259 61.9333C99.2259 60.4798 98.9396 59.0405 98.3834 57.6977C97.8271 56.3549 97.0118 55.1348 95.9839 54.1071C94.956 53.0794 93.7358 52.2643 92.3928 51.7083Z" fill="#EF233C"/>
<path opacity="0.2" d="M92.3928 51.7083C91.2699 54.4202 91.2701 57.4672 92.3935 60.179C93.5168 62.8908 95.6713 65.0454 98.3831 66.1688C98.9394 64.826 99.2258 63.3868 99.2259 61.9333C99.2259 60.4798 98.9396 59.0405 98.3834 57.6977C97.8271 56.3549 97.0118 55.1348 95.9839 54.1071C94.956 53.0794 93.7358 52.2643 92.3928 51.7083Z" fill="white"/>
<path d="M92.7593 55.0118C92.4079 56.6296 92.5593 58.3161 93.1933 59.8453C93.8273 61.3746 94.9136 62.6735 96.3066 63.568C96.4586 63.6662 96.6321 63.7262 96.8122 63.743C96.9924 63.7598 97.174 63.733 97.3416 63.6647C97.5091 63.5964 97.6578 63.4886 97.7748 63.3507C97.8919 63.2127 97.974 63.0485 98.0141 62.872C98.367 61.2532 98.2163 59.5653 97.5823 58.0346C96.9482 56.5039 95.8611 55.2039 94.4668 54.3089C94.3143 54.2107 94.1403 54.1509 93.9597 54.1345C93.7791 54.1181 93.5972 54.1456 93.4295 54.2146C93.2618 54.2836 93.1133 54.3922 92.9966 54.531C92.8799 54.6698 92.7985 54.8348 92.7593 55.0118Z" fill="#263238"/>
<path opacity="0.1" d="M92.7593 55.0118C92.4079 56.6296 92.5593 58.3161 93.1933 59.8453C93.8273 61.3746 94.9136 62.6735 96.3066 63.568C96.4586 63.6662 96.6321 63.7262 96.8122 63.743C96.9924 63.7598 97.174 63.733 97.3416 63.6647C97.5091 63.5964 97.6578 63.4886 97.7748 63.3507C97.8919 63.2127 97.974 63.0485 98.0141 62.872C98.367 61.2532 98.2163 59.5653 97.5823 58.0346C96.9482 56.5039 95.8611 55.2039 94.4668 54.3089C94.3143 54.2107 94.1403 54.1509 93.9597 54.1345C93.7791 54.1181 93.5972 54.1456 93.4295 54.2146C93.2618 54.2836 93.1133 54.3922 92.9966 54.531C92.8799 54.6698 92.7985 54.8348 92.7593 55.0118Z" fill="white"/>
<path opacity="0.7" d="M95.0042 62.5356C94.2119 61.7584 93.587 60.8272 93.1681 59.7994C92.7492 58.7716 92.545 57.669 92.5682 56.5593C93.3603 57.3367 93.985 58.268 94.4039 59.2957C94.8228 60.3235 95.0271 61.426 95.0042 62.5356Z" fill="black"/>
<path d="M69.9774 57.1393C69.1674 59.0934 68.7503 61.1879 68.75 63.3032C68.7497 65.4185 69.1662 67.5131 69.9756 69.4674C70.785 71.4217 71.9716 73.1974 73.4674 74.6931C74.9633 76.1887 76.7392 77.3749 78.6936 78.184L92.4048 72.5047C90.4508 71.6953 88.6755 70.509 87.18 69.0135C85.6846 67.5179 84.4984 65.7424 83.6892 63.7884C82.8801 61.8344 82.4637 59.7401 82.464 57.6252C82.4643 55.5102 82.8812 53.4161 83.6909 51.4623L69.9774 57.1393Z" fill="#EF233C"/>
<path opacity="0.7" d="M69.9774 57.1393C69.1674 59.0934 68.7503 61.1879 68.75 63.3032C68.7497 65.4185 69.1662 67.5131 69.9756 69.4674C70.785 71.4217 71.9716 73.1974 73.4674 74.6931C74.9633 76.1887 76.7392 77.3749 78.6936 78.184L92.4048 72.5047C90.4508 71.6953 88.6755 70.509 87.18 69.0135C85.6846 67.5179 84.4984 65.7424 83.6892 63.7884C82.8801 61.8344 82.4637 59.7401 82.464 57.6252C82.4643 55.5102 82.8812 53.4161 83.6909 51.4623L69.9774 57.1393Z" fill="white"/>
<path d="M83.6917 51.4576C82.882 53.4114 82.4651 55.5056 82.4648 57.6206C82.4646 59.7355 82.8809 61.8298 83.6901 63.7838C84.4993 65.7378 85.6854 67.5133 87.1809 69.0088C88.6763 70.5044 90.4517 71.6907 92.4056 72.5L98.3819 66.1688C95.6702 65.0453 93.5157 62.8908 92.3923 60.1789C91.269 57.4671 91.2687 54.4202 92.3917 51.7082L83.6917 51.4576Z" fill="#EF233C"/>
<path opacity="0.8" d="M83.6917 51.4576C82.882 53.4114 82.4651 55.5056 82.4648 57.6206C82.4646 59.7355 82.8809 61.8298 83.6901 63.7838C84.4993 65.7378 85.6854 67.5133 87.1809 69.0088C88.6763 70.5044 90.4517 71.6907 92.4056 72.5L98.3819 66.1688C95.6702 65.0453 93.5157 62.8908 92.3923 60.1789C91.269 57.4671 91.2687 54.4202 92.3917 51.7082L83.6917 51.4576Z" fill="white"/>
<path d="M88.6814 78.2722V82.4691H86.4008C86.0077 81.6715 85.3992 80.9999 84.6442 80.5303C83.8892 80.0606 83.0177 79.8117 82.1285 79.8117C81.2394 79.8117 80.3679 80.0606 79.6129 80.5303C78.8578 80.9999 78.2493 81.6715 77.8563 82.4691H76.3993C76.0062 81.6715 75.3977 80.9999 74.6427 80.5303C73.8876 80.0606 73.0162 79.8117 72.127 79.8117C71.2378 79.8117 70.3664 80.0606 69.6114 80.5303C68.8563 80.9999 68.2478 81.6715 67.8547 82.4691H56.7188V78.2722H88.6814Z" fill="#EF233C"/>
<path opacity="0.1" d="M67.5117 76.509C68.5743 75.3095 70.08 74.0846 71.9197 72.9176C73.6572 75.2562 75.9993 77.0769 78.6941 78.184L69.9918 77.9334C69.1068 77.5682 68.2731 77.0894 67.5117 76.509Z" fill="black"/>
<path opacity="0.1" d="M71.9375 72.9176C75.0189 71.0259 78.3241 69.5257 81.7766 68.4516C83.1222 68.0201 84.4516 67.6605 85.7485 67.3612C87.4709 69.6363 89.7695 71.4103 92.4069 72.5L78.6957 78.184C76.0068 77.0744 73.6705 75.2539 71.9375 72.9176Z" fill="black"/>
<path opacity="0.1" d="M97.8751 66.7047L92.4045 72.5047C89.7672 71.415 87.4686 69.641 85.7461 67.3659C90.5369 66.2593 94.866 66.0551 97.8751 66.7047Z" fill="black"/>
<path d="M101.975 82.4691H88.0391V84.1697H101.975V82.4691Z" fill="#263238"/>
<path d="M44.5907 82.4691C44.3306 83.0018 44.1732 83.5787 44.1267 84.1697H36.125V82.4691H44.5907Z" fill="#263238"/>
<path d="M67.3765 84.0769H53.6027C53.5555 83.5201 53.411 82.9759 53.1758 82.4691H67.7918C67.5606 82.9767 67.42 83.5208 67.3765 84.0769Z" fill="#263238"/>
<path opacity="0.5" d="M101.975 82.4691H88.0391V84.1697H101.975V82.4691Z" fill="white"/>
<path opacity="0.8" d="M44.5907 82.4691C44.3306 83.0018 44.1732 83.5787 44.1267 84.1697H36.125V82.4691H44.5907Z" fill="white"/>
<path opacity="0.8" d="M67.3765 84.0769H53.6027C53.5555 83.5201 53.411 82.9759 53.1758 82.4691H67.7918C67.5606 82.9767 67.42 83.5208 67.3765 84.0769Z" fill="white"/>
<path d="M96.0467 68.6442L97.1325 78.2722H88.4023L89.4858 68.672C90.3623 69.5331 91.5433 70.0133 92.772 70.0081C94.0007 70.0028 95.1776 69.5127 96.0467 68.6442Z" fill="#263238"/>
<path opacity="0.5" d="M96.0467 68.6442L97.1325 78.2722H88.4023L89.4858 68.672C90.3623 69.5331 91.5433 70.0133 92.772 70.0081C94.0007 70.0028 95.1776 69.5127 96.0467 68.6442Z" fill="white"/>
<path d="M86.9375 78.2722L88.0209 68.6697H89.4825L88.3991 78.2722H86.9375Z" fill="#263238"/>
<path opacity="0.2" d="M86.9375 78.2722L88.0209 68.6697H89.4825L88.3991 78.2722H86.9375Z" fill="white"/>
<path d="M26.7578 36.4355C26.7578 36.4355 30.6461 38.2266 44.2576 36.7673L41.9933 54.8447C36.9661 55.1064 31.9288 54.5852 27.0617 53.2996L26.7578 36.4355Z" fill="#EF233C"/>
<path opacity="0.8" d="M26.7578 36.4355C26.7578 36.4355 30.6461 38.2266 44.2576 36.7673L41.9933 54.8447C36.9661 55.1064 31.9288 54.5852 27.0617 53.2996L26.7578 36.4355Z" fill="white"/>
<path opacity="0.1" d="M28.1172 38.1732L28.3701 52.2672C32.4439 53.2364 36.626 53.6746 40.8122 53.5711L42.7332 38.2591C34.7663 39.0015 30.349 38.6001 28.1172 38.1732Z" fill="black"/>
<path d="M43.1067 54.4504C43.0812 54.7242 42.58 54.9144 41.9908 54.8448C41.4015 54.7752 40.9421 54.5177 40.97 54.244L42.2831 36.2988C42.3202 35.916 43.0162 35.6677 43.8375 35.7489C44.6588 35.8301 45.2944 36.2129 45.2573 36.5864L43.1067 54.4504Z" fill="#EF233C"/>
<path opacity="0.6" d="M43.1067 54.4504C43.0812 54.7242 42.58 54.9144 41.9908 54.8448C41.4015 54.7752 40.9421 54.5177 40.97 54.244L42.2831 36.2988C42.3202 35.916 43.0162 35.6677 43.8375 35.7489C44.6588 35.8301 45.2944 36.2129 45.2573 36.5864L43.1067 54.4504Z" fill="white"/>
<path opacity="0.1" d="M43.1067 54.4504C43.0812 54.7242 42.58 54.9144 41.9908 54.8448C41.4015 54.7752 40.9421 54.5177 40.97 54.2439C40.9978 53.9702 41.4966 53.7915 42.0859 53.8472C42.6752 53.9029 43.1345 54.1743 43.1067 54.4504Z" fill="black"/>
<path d="M36.8008 45.7225L37.1557 45.7364C37.1557 45.6831 37.1557 45.6552 37.1766 45.5995H36.9632C36.9771 45.5183 36.9841 45.4766 36.9957 45.3954H36.8541C36.8333 45.516 36.8217 45.5856 36.8008 45.7225Z" fill="#EF233C"/>
<path d="M37.5131 45.6135H37.8495C37.8495 45.6692 37.8495 45.697 37.8309 45.7527L37.4922 45.7411C37.5015 45.704 37.5038 45.6669 37.5131 45.6135ZM38.1859 45.6321H38.5246C38.5246 45.6878 38.513 45.7156 38.506 45.7713H38.1673C38.1743 45.7156 38.1789 45.6878 38.1859 45.6321Z" fill="#EF233C"/>
<path d="M38.8623 45.646H39.1987C39.1987 45.704 39.1987 45.7318 39.1825 45.7875H38.8438C38.8507 45.7318 38.8554 45.704 38.8623 45.646ZM39.5374 45.646H39.8738C39.8738 45.704 39.8738 45.7318 39.8599 45.7875H39.5212C39.5281 45.7388 39.5305 45.704 39.5374 45.6553V45.646ZM40.2126 45.646H40.5513C40.5513 45.7017 40.5513 45.7318 40.535 45.7875H40.1986C40.2033 45.7411 40.2056 45.704 40.2126 45.6553V45.646Z" fill="#EF233C"/>
<path d="M40.8711 45.7944H41.2261C41.24 45.6506 41.2469 45.5787 41.2585 45.4348H41.117C41.117 45.5207 41.117 45.5647 41.0985 45.6506H40.885C40.8804 45.7039 40.8781 45.7364 40.8711 45.7944Z" fill="#EF233C"/>
<path d="M41.1825 44.7481H41.3217C41.3217 44.885 41.3031 44.9546 41.2915 45.0915H41.1523C41.1639 44.9546 41.1709 44.885 41.1825 44.7481ZM41.2428 44.0637H41.382C41.3704 44.2006 41.3635 44.2702 41.3519 44.4071H41.2127C41.2243 44.2679 41.2312 44.2006 41.2428 44.0637Z" fill="#EF233C"/>
<path d="M41.2974 43.3839H41.4342C41.4342 43.5231 41.418 43.5904 41.4064 43.7296H41.2695C41.2835 43.5835 41.2974 43.5139 41.2974 43.3839ZM41.3531 42.6879H41.4899C41.4783 42.8248 41.4737 42.8944 41.4621 43.0313H41.3252C41.3391 42.8944 41.3461 42.8271 41.3554 42.6879H41.3531ZM41.4087 41.9919H41.5433C41.5433 42.1311 41.527 42.2007 41.5178 42.3376H41.3809C41.3948 42.2077 41.3995 42.1381 41.4111 41.9919H41.4087Z" fill="#EF233C"/>
<path d="M41.4372 41.6556H41.5694C41.5694 41.5118 41.5857 41.4399 41.5973 41.2937L41.2655 41.3146L41.2539 41.4584H41.4534C41.4465 41.528 41.4441 41.5675 41.4372 41.6556Z" fill="#EF233C"/>
<path d="M39.9944 41.3656L40.3122 41.354C40.3122 41.4097 40.3122 41.4399 40.2983 41.4955L39.9805 41.5095C39.9874 41.4515 39.9897 41.4236 39.9944 41.3656ZM40.6301 41.3378L40.9479 41.3215L40.9363 41.4677L40.6162 41.4816C40.6231 41.4236 40.6254 41.3958 40.6301 41.3378Z" fill="#EF233C"/>
<path d="M38.0889 41.412H38.4067C38.4067 41.4677 38.3951 41.4955 38.3882 41.5512H38.0703C38.0796 41.4955 38.0819 41.4677 38.0889 41.412ZM38.7246 41.412H39.0424C39.0424 41.4677 39.0424 41.4978 39.0262 41.5535H38.7083C38.713 41.4886 38.7176 41.4584 38.7246 41.4027V41.412ZM39.3579 41.3981L39.6758 41.3865C39.6758 41.4445 39.6758 41.4723 39.6618 41.528H39.344C39.3486 41.4723 39.3533 41.4445 39.3579 41.3888V41.3981Z" fill="#EF233C"/>
<path d="M37.3906 41.76H37.5252C37.5368 41.6765 37.5414 41.637 37.553 41.5535H37.7525C37.7525 41.4978 37.7641 41.47 37.7711 41.4143H37.4393C37.4208 41.5558 37.4092 41.6254 37.3906 41.76Z" fill="#EF233C"/>
<path d="M37.2518 42.753H37.3864L37.34 43.0824H37.2031C37.224 42.9502 37.2333 42.8852 37.2518 42.753ZM37.347 42.0941H37.4815L37.4351 42.4236H37.3006L37.347 42.0941Z" fill="#EF233C"/>
<path d="M36.9573 44.725H37.0965C37.0779 44.8549 37.0663 44.9222 37.0478 45.0521H36.9062C36.9271 44.9222 36.9364 44.8549 36.9573 44.725ZM37.057 44.0684H37.1963C37.1754 44.1983 37.1661 44.2656 37.1452 44.3955H37.0083C37.0269 44.2656 37.0385 44.2007 37.057 44.08V44.0684ZM37.1545 43.4119H37.2914L37.245 43.7413H37.1058C37.122 43.616 37.1359 43.5418 37.1545 43.4119Z" fill="#EF233C"/>
<path d="M32.5352 45.3978L32.8878 45.4349C32.8994 45.3816 32.904 45.356 32.9156 45.305L32.7068 45.2818C32.7231 45.2052 32.7324 45.1658 32.7486 45.0869L32.6094 45.073L32.5352 45.3978Z" fill="#EF233C"/>
<path d="M33.2528 45.3374L33.5869 45.3676L33.5591 45.4998L33.2227 45.472L33.2528 45.3374ZM33.9233 45.3977L34.2574 45.4256C34.2574 45.4789 34.2411 45.5044 34.2319 45.5578L33.8955 45.53C33.9071 45.472 33.9117 45.4488 33.9233 45.3977Z" fill="#EF233C"/>
<path d="M34.5958 45.451L34.9322 45.4766C34.9206 45.5299 34.916 45.5554 34.9067 45.6088L34.5703 45.5833C34.5703 45.5299 34.5842 45.5044 34.5958 45.451ZM35.2663 45.4974L35.6027 45.5207L35.5795 45.6552L35.2431 45.632L35.2663 45.4974ZM35.9391 45.5392L36.2755 45.5578L36.2523 45.6947L35.9159 45.6761L35.9391 45.5392Z" fill="#EF233C"/>
<path d="M36.5898 45.7039L36.9425 45.7202C36.9634 45.5833 36.975 45.516 36.9958 45.3792H36.8543C36.8543 45.4627 36.8358 45.5021 36.8218 45.5856L36.6107 45.574C36.6014 45.6297 36.5991 45.6575 36.5898 45.7039Z" fill="#EF233C"/>
<path d="M36.9573 44.7249H37.0965C37.0779 44.8548 37.0663 44.9221 37.0478 45.052H36.9062C36.9271 44.9198 36.9364 44.8548 36.9573 44.7249ZM37.057 44.0684H37.1962C37.1754 44.1983 37.1661 44.2656 37.1452 44.3955H37.0083C37.0269 44.2656 37.0385 44.2006 37.057 44.08V44.0684Z" fill="#EF233C"/>
<path d="M37.1542 43.4119H37.2911L37.2447 43.7413H37.1055C37.1217 43.616 37.1356 43.5418 37.1542 43.4119ZM37.2516 42.753H37.3862L37.3398 43.0824H37.2029C37.2238 42.9502 37.2331 42.8852 37.2516 42.753ZM37.3468 42.0941H37.4813L37.4349 42.4236H37.3004L37.3468 42.0941Z" fill="#EF233C"/>
<path d="M37.392 41.76H37.5266L37.573 41.4143H37.2412C37.2412 41.47 37.2296 41.4978 37.2227 41.5512H37.4222C37.4106 41.637 37.4036 41.6788 37.392 41.76Z" fill="#EF233C"/>
<path d="M35.9725 41.4027H36.2904L36.2672 41.5396L35.9609 41.528L35.9725 41.4027ZM36.6059 41.4027H36.9237C36.9237 41.4584 36.9121 41.4862 36.9029 41.5419H36.585C36.5943 41.4955 36.5989 41.4677 36.6059 41.412V41.4027Z" fill="#EF233C"/>
<path d="M34.0708 41.3354L34.3863 41.3494C34.3863 41.4027 34.3701 41.4306 34.3608 41.4839L34.043 41.4677C34.0546 41.4167 34.0592 41.3888 34.0708 41.3354ZM34.7042 41.3633L35.0197 41.3749L34.9965 41.5094H34.6786C34.6879 41.4445 34.6926 41.4166 34.7042 41.3633ZM35.3375 41.3865H35.653C35.653 41.4422 35.6414 41.47 35.6322 41.5234H35.3143L35.3375 41.3865Z" fill="#EF233C"/>
<path d="M33.3555 41.6301H33.4877C33.5039 41.5512 33.5132 41.5118 33.5295 41.4306H33.729C33.729 41.3772 33.7429 41.3517 33.7545 41.2983L33.4227 41.2798C33.3949 41.4329 33.381 41.4979 33.3555 41.6301Z" fill="#EF233C"/>
<path d="M33.1571 42.5743H33.2917L33.2267 42.8875H33.0898C33.1177 42.7622 33.1316 42.6996 33.1571 42.5743ZM33.2894 41.9456H33.4239L33.359 42.2588H33.2244L33.2894 41.9456Z" fill="#EF233C"/>
<path d="M32.7493 44.4488L32.8885 44.4628L32.8189 44.776L32.6797 44.762L32.7493 44.4488ZM32.8862 43.8248H33.023C32.9952 43.95 32.9836 44.0127 32.9558 44.138L32.8166 44.1264L32.8862 43.8248ZM33.0207 43.2007H33.1576C33.1321 43.326 33.1182 43.3886 33.0903 43.5162L32.9534 43.5046C32.9813 43.384 32.9952 43.326 33.0207 43.2007Z" fill="#EF233C"/>
<path d="M28.3047 44.8247L28.6527 44.8804L28.6875 44.7574L28.4787 44.7226C28.5019 44.6507 28.5135 44.6136 28.5344 44.5393L28.3952 44.5161C28.3604 44.6391 28.3441 44.7017 28.3047 44.8247Z" fill="#EF233C"/>
<path d="M29.0254 44.8085L29.3572 44.8595L29.3224 44.9848L28.9883 44.9338C29.0022 44.885 29.0022 44.8595 29.0254 44.8085ZM29.6889 44.9082L30.023 44.957L29.9882 45.0822L29.6541 45.0358L29.6889 44.9082Z" fill="#EF233C"/>
<path d="M30.3528 45.0079L30.6869 45.052C30.673 45.1031 30.666 45.1286 30.6544 45.1796L30.3203 45.1332C30.3342 45.0799 30.3389 45.0543 30.3528 45.0079ZM31.0186 45.0938L31.3527 45.1355C31.3527 45.1866 31.3342 45.2121 31.3226 45.2655L30.9885 45.2214L31.0186 45.0938ZM31.6868 45.175L32.0209 45.2144C32.0093 45.2655 32.0023 45.291 31.9907 45.3443L31.6566 45.3049C31.6682 45.2399 31.6752 45.2237 31.6868 45.1703V45.175Z" fill="#EF233C"/>
<path d="M32.3281 45.3769L32.6784 45.414C32.7086 45.2841 32.7225 45.2168 32.7504 45.0869L32.6112 45.073C32.5926 45.1519 32.5856 45.1913 32.5671 45.2679L32.356 45.247C32.3444 45.298 32.3397 45.3236 32.3281 45.3769Z" fill="#EF233C"/>
<path d="M32.7493 44.4489L32.8885 44.4628L32.8189 44.776L32.6797 44.7621L32.7493 44.4489ZM32.8862 43.8248H33.023C32.9952 43.9501 32.9836 44.0128 32.9558 44.138L32.8166 44.1264L32.8862 43.8248Z" fill="#EF233C"/>
<path d="M33.0204 43.2007H33.1573C33.1318 43.326 33.1178 43.3886 33.09 43.5162L32.9531 43.5046C32.981 43.384 32.9949 43.326 33.0204 43.2007ZM33.155 42.5743H33.2895L33.2246 42.8875H33.0877C33.1155 42.7622 33.1294 42.6996 33.155 42.5743ZM33.2872 41.9456H33.4218L33.3568 42.2588H33.2222L33.2872 41.9456Z" fill="#EF233C"/>
<path d="M33.3554 41.6301H33.4876C33.5155 41.4979 33.5294 41.4306 33.5549 41.2983L33.2232 41.296C33.2232 41.3494 33.2069 41.3749 33.1953 41.4283L33.3948 41.4399L33.3554 41.6301Z" fill="#EF233C"/>
<path d="M31.9598 41.1985L32.2754 41.224C32.2638 41.275 32.2591 41.3029 32.2475 41.3539L31.9297 41.3284C31.9413 41.2774 31.9482 41.2518 31.9598 41.1985ZM32.5932 41.2472L32.9087 41.2681L32.8809 41.4003L32.5631 41.3771L32.5932 41.2472Z" fill="#EF233C"/>
<path d="M30.0638 41.0222L30.391 41.064C30.377 41.115 30.3724 41.1405 30.3585 41.1916L30.043 41.1568C30.0453 41.0965 30.0499 41.064 30.0638 41.0222ZM30.6949 41.0872L31.0104 41.1173C30.9965 41.1684 30.9918 41.1939 30.9779 41.2449L30.6624 41.2148C30.6763 41.1637 30.681 41.1382 30.6949 41.0872ZM31.3259 41.1452L31.6414 41.173L31.6113 41.3029L31.2958 41.2751L31.3259 41.1452Z" fill="#EF233C"/>
<path d="M29.3359 41.2612L29.4682 41.2774C29.4891 41.2009 29.4983 41.1638 29.5192 41.0895L29.7187 41.1127C29.7327 41.0617 29.7396 41.0362 29.7512 40.9851L29.4218 40.948L29.3359 41.2612Z" fill="#EF233C"/>
<path d="M29.0835 42.152L29.2158 42.1706C29.1833 42.2889 29.167 42.3492 29.1322 42.4675L29 42.4559L29.0835 42.152ZM29.2506 41.5581L29.3828 41.5743C29.3503 41.695 29.3341 41.753 29.2993 41.8736L29.167 41.8551C29.1995 41.7367 29.2181 41.6764 29.2506 41.5581Z" fill="#EF233C"/>
<path d="M28.5702 43.9269L28.7071 43.9477C28.6723 44.066 28.6561 44.1264 28.6213 44.2424L28.4844 44.2215L28.5702 43.9269ZM28.7419 43.3376L28.8788 43.3561L28.7929 43.6531L28.6561 43.6322L28.7419 43.3376ZM28.9136 42.746L29.0481 42.7645C29.0133 42.8829 28.9971 42.9432 28.9646 43.0615L28.8277 43.0406L28.9136 42.746Z" fill="#EF233C"/>
<path d="M34.7578 50.7662L35.136 50.808C35.136 50.7546 35.1499 50.7268 35.1615 50.6734L34.9295 50.6502L34.9689 50.4484L34.8181 50.4321C34.7996 50.576 34.7833 50.634 34.7578 50.7662Z" fill="#EF233C"/>
<path d="M35.6287 50.7222L36.0927 50.7686L36.0695 50.9031L35.6055 50.8567C35.6124 50.808 35.6171 50.7755 35.6287 50.7222ZM36.5567 50.8103L37.0207 50.8498L36.9975 50.9866L36.5335 50.9472L36.5567 50.8103Z" fill="#EF233C"/>
<path d="M37.4974 50.8868L37.9614 50.9216C37.9614 50.9773 37.9475 51.0052 37.9406 51.0585C37.7526 51.0469 37.6575 51.04 37.4766 51.0237L37.4974 50.8868ZM38.4254 50.9518L38.8894 50.982C38.8894 51.0376 38.8778 51.0655 38.8709 51.1212L38.4069 51.091C38.4231 51.04 38.4254 51.0075 38.4347 50.9518H38.4254ZM39.3534 51.0075L39.8174 51.0284C39.8174 51.0864 39.8058 51.1142 39.7989 51.1699L39.3349 51.1467C39.3627 51.091 39.365 51.0632 39.372 51.0075H39.3534Z" fill="#EF233C"/>
<path d="M40.2969 51.1908L40.6797 51.2047C40.6959 51.0632 40.7029 50.9936 40.7191 50.8497H40.566L40.5428 51.0632H40.3108C40.3085 51.1049 40.3038 51.1328 40.2969 51.1908Z" fill="#EF233C"/>
<path d="M40.662 49.9705H40.8128C40.7942 50.1468 40.785 50.2349 40.7641 50.4089H40.6133C40.6342 50.2326 40.6434 50.1445 40.662 49.9705ZM40.7571 49.0912H40.9056L40.8592 49.5297H40.7107L40.7571 49.0912Z" fill="#EF233C"/>
<path d="M40.8488 48.2119H40.9949C40.9787 48.3882 40.9694 48.4764 40.9508 48.6527H40.8047C40.8325 48.488 40.8325 48.3882 40.8488 48.2119ZM40.9369 47.3326H41.0831C41.0645 47.509 41.0576 47.5971 41.039 47.7734H40.8928C40.9114 47.5971 40.9207 47.509 40.9369 47.328V47.3326ZM41.0228 46.4487H41.1666C41.1504 46.6251 41.1411 46.7132 41.1248 46.8895H40.981C40.9972 46.7132 41.0065 46.632 41.0228 46.4487Z" fill="#EF233C"/>
<path d="M41.0637 46.0056H41.2075C41.2075 45.8618 41.2261 45.7898 41.24 45.646H40.885C40.885 45.704 40.885 45.7318 40.8711 45.7898H41.0845C41.0776 45.878 41.0637 45.9198 41.0637 46.0056Z" fill="#EF233C"/>
<path d="M39.1373 45.6506H39.5758C39.5758 45.7063 39.5642 45.7342 39.5596 45.7922H39.1211C39.1281 45.7342 39.1304 45.704 39.1373 45.6506ZM40.012 45.6506H40.4505C40.4505 45.7086 40.4505 45.7365 40.4342 45.7922H39.9957C40.0027 45.7411 40.005 45.704 40.012 45.6576V45.6506Z" fill="#EF233C"/>
<path d="M36.517 45.5718L36.9531 45.5903C36.9531 45.646 36.9415 45.6739 36.9323 45.7272L36.4961 45.7063L36.517 45.5718ZM37.3893 45.6089L37.8255 45.6228C37.8255 45.6785 37.8255 45.7063 37.8069 45.762L37.3684 45.7458C37.3777 45.6901 37.3823 45.6623 37.3893 45.6089ZM38.2616 45.6344H38.7001C38.7001 45.6901 38.6885 45.7179 38.6815 45.7736H38.2431C38.2523 45.7179 38.2547 45.6901 38.2616 45.6344Z" fill="#EF233C"/>
<path d="M35.6719 45.8664H35.8134L35.8482 45.6623H36.0593L36.0825 45.5277L35.7299 45.5068L35.6719 45.8664Z" fill="#EF233C"/>
<path d="M35.4477 47.1168H35.5915C35.5613 47.2839 35.5474 47.3674 35.5173 47.5344L35.3711 47.5228C35.4013 47.3674 35.4175 47.2839 35.4477 47.1168ZM35.5961 46.2839H35.74C35.7098 46.451 35.6959 46.5345 35.6657 46.7015H35.5219C35.5521 46.5345 35.566 46.451 35.5961 46.2839Z" fill="#EF233C"/>
<path d="M34.9851 49.6062L35.1336 49.6224C35.1011 49.7871 35.0872 49.8707 35.0547 50.0354L34.9062 50.0192C34.9364 49.8544 34.9526 49.7732 34.9851 49.6062ZM35.1429 48.7803L35.2891 48.7919C35.2589 48.9589 35.2427 49.0424 35.2125 49.2072L35.064 49.1932C35.0942 49.0285 35.1104 48.9519 35.1429 48.7803ZM35.296 47.9497H35.4422C35.412 48.1167 35.3958 48.2003 35.3656 48.365L35.2195 48.3534C35.2496 48.1979 35.2659 48.1167 35.296 47.9497Z" fill="#EF233C"/>
<path d="M29.0586 49.9055C29.2071 49.9333 29.2906 49.9496 29.4298 49.9751C29.446 49.9264 29.453 49.9008 29.4669 49.8498L29.2349 49.8104C29.2558 49.7338 29.2674 49.6967 29.2883 49.6224L29.1398 49.5946C29.112 49.7199 29.0934 49.7825 29.0586 49.9055Z" fill="#EF233C"/>
<path d="M29.927 49.9333L30.391 50.0146C30.3794 50.0633 30.3725 50.0888 30.3585 50.1398L29.8945 50.0586L29.927 49.9333ZM30.855 50.0911L31.319 50.1653L31.2888 50.293L30.8248 50.2187C30.8272 50.1677 30.8341 50.1422 30.855 50.0911Z" fill="#EF233C"/>
<path d="M31.7841 50.2373L32.2481 50.3046C32.2365 50.3579 32.2318 50.3835 32.2179 50.4345C32.0323 50.409 31.9395 50.3951 31.7539 50.3649C31.7539 50.3139 31.7585 50.2883 31.7841 50.2373ZM32.7121 50.3719L33.1761 50.4345L33.1482 50.5667L32.6842 50.5018C32.6819 50.4507 32.6865 50.4229 32.6981 50.3719H32.7121ZM33.6401 50.4948L34.1041 50.5528L34.0762 50.6851L33.6122 50.6271C33.6099 50.576 33.6169 50.5482 33.6401 50.4948Z" fill="#EF233C"/>
<path d="M34.5312 50.7407L34.9094 50.7824C34.9349 50.6502 34.9489 50.5829 34.9744 50.4484L34.8236 50.4321L34.7841 50.634L34.5521 50.6084L34.5312 50.7407Z" fill="#EF233C"/>
<path d="M34.9851 49.6062L35.1336 49.6224C35.1011 49.7872 35.0872 49.8707 35.0547 50.0354L34.9062 50.0192C34.9364 49.8544 34.9526 49.7732 34.9851 49.6062ZM35.1429 48.7803L35.2891 48.7919C35.2589 48.9589 35.2427 49.0424 35.2125 49.2072L35.064 49.1932C35.0942 49.0285 35.1104 48.952 35.1429 48.7803Z" fill="#EF233C"/>
<path d="M35.2953 47.9497H35.4415C35.4113 48.1167 35.3951 48.2003 35.3649 48.365L35.2188 48.3534C35.2489 48.1979 35.2652 48.1167 35.2953 47.9497ZM35.4484 47.1168H35.5923C35.5621 47.2839 35.5482 47.3674 35.518 47.5344L35.3719 47.5228C35.402 47.3674 35.4183 47.2839 35.4484 47.1168ZM35.5969 46.2839H35.7408C35.7106 46.451 35.6967 46.5345 35.6665 46.7015H35.5227C35.5528 46.5345 35.5667 46.451 35.5969 46.2839Z" fill="#EF233C"/>
<path d="M35.6724 45.8664H35.8139L35.8719 45.5277L35.5193 45.5068L35.4961 45.6414H35.7072L35.6724 45.8664Z" fill="#EF233C"/>
<path d="M33.7817 45.3838L34.2156 45.4209C34.204 45.4743 34.1993 45.4998 34.1901 45.5532L33.7539 45.516L33.7817 45.3838ZM34.6494 45.4557L35.0856 45.4859C35.074 45.5392 35.0693 45.5671 35.0601 45.6204L34.6239 45.588C34.6355 45.5346 34.6401 45.5091 34.6494 45.4557Z" fill="#EF233C"/>
<path d="M31.1809 45.1101L31.6124 45.1635L31.5823 45.2911L31.1484 45.2377C31.1624 45.1867 31.1693 45.1611 31.1809 45.1101ZM32.0463 45.2122L32.4801 45.2586C32.4685 45.3119 32.4616 45.3375 32.45 45.3885L32.0161 45.3421C32.0184 45.2887 32.0347 45.2632 32.0463 45.2122ZM32.9116 45.3027L33.3455 45.3444C33.3455 45.3978 33.3292 45.4233 33.3176 45.4767L32.8838 45.4349C32.8954 45.3815 32.9024 45.356 32.9116 45.3027Z" fill="#EF233C"/>
<path d="M30.3164 45.3258L30.4556 45.3443C30.4765 45.2678 30.4858 45.2307 30.5043 45.1541L30.7154 45.1819C30.727 45.1309 30.734 45.1054 30.7479 45.0543C30.6087 45.0358 30.5368 45.0288 30.3976 45.0079L30.3164 45.3258Z" fill="#EF233C"/>
<path d="M30.0028 46.4974L30.1467 46.5183L30.0423 46.9081L29.8984 46.8849L30.0028 46.4974ZM30.2116 45.7156L30.3532 45.7365L30.2488 46.1285L30.1072 46.1077L30.2116 45.7156Z" fill="#EF233C"/>
<path d="M29.3669 48.8244L29.513 48.8499C29.4713 49.0054 29.4504 49.0819 29.4063 49.2374L29.2578 49.2095C29.3019 49.0564 29.3228 48.9775 29.3669 48.8244ZM29.5826 48.0495L29.7288 48.0751C29.6847 48.2305 29.6638 48.3071 29.6221 48.4625L29.4759 48.437C29.5177 48.2815 29.5385 48.205 29.5826 48.0495ZM29.7961 47.2747L29.9399 47.2979C29.8981 47.4533 29.8749 47.5299 29.8332 47.6853L29.6893 47.6621C29.7311 47.5067 29.752 47.4301 29.7961 47.2747Z" fill="#EF233C"/>
<path d="M23.4492 48.6248L23.8158 48.7223C23.8343 48.6759 23.8413 48.6527 23.8599 48.6063L23.6279 48.5483C23.6557 48.4787 23.6673 48.4439 23.6951 48.3766L23.549 48.3372L23.4492 48.6248Z" fill="#EF233C"/>
<path d="M24.3112 48.72L24.7636 48.836L24.7218 48.952C24.5409 48.9056 24.4481 48.8847 24.2578 48.836C24.2857 48.7919 24.2926 48.7687 24.3112 48.72ZM25.2183 48.952L25.6823 49.061L25.6429 49.1793L25.1789 49.0703C25.1928 49.0192 25.1997 48.9961 25.2183 48.952Z" fill="#EF233C"/>
<path d="M26.1293 49.1631L26.5933 49.2652L26.5538 49.3858C26.3706 49.3464 26.2801 49.3255 26.0898 49.2814C26.1038 49.235 26.113 49.2118 26.1293 49.1631ZM27.041 49.3672L27.505 49.4647L27.4656 49.5853L27.0016 49.4879C27.0178 49.4392 27.0248 49.416 27.041 49.3672ZM27.9551 49.5575L28.4191 49.6503L28.3843 49.7732L27.9203 49.6804C27.9319 49.6317 27.9389 49.6085 27.9551 49.5575Z" fill="#EF233C"/>
<path d="M28.8359 49.8637L29.2071 49.9333C29.2419 49.8104 29.2605 49.7477 29.2953 49.6224L29.1468 49.5946C29.1259 49.6688 29.1143 49.706 29.0935 49.7825L28.8615 49.7384L28.8359 49.8637Z" fill="#EF233C"/>
<path d="M29.3669 48.8243L29.513 48.8498C29.4713 49.0053 29.4504 49.0818 29.4063 49.2373L29.2578 49.2094C29.3019 49.0563 29.3228 48.9774 29.3669 48.8243ZM29.5826 48.0494L29.7288 48.075C29.6847 48.2304 29.6638 48.307 29.6221 48.4624L29.4759 48.4369C29.5177 48.2814 29.5385 48.2049 29.5826 48.0494Z" fill="#EF233C"/>
<path d="M29.7942 47.2746L29.9381 47.2978C29.8963 47.4533 29.8731 47.5298 29.8313 47.6876L29.6875 47.6621C29.7293 47.5066 29.7501 47.4301 29.7942 47.2746ZM30.003 46.4974L30.1469 46.5183L30.0425 46.9081L29.8986 46.8849L30.003 46.4974ZM30.2118 45.7156L30.3533 45.7365L30.2489 46.1285L30.1074 46.1077L30.2118 45.7156Z" fill="#EF233C"/>
<path d="M30.3163 45.3258L30.4555 45.3443L30.5367 45.0265L30.1887 44.9801C30.1748 45.0311 30.1679 45.0567 30.1562 45.1054L30.3651 45.1355C30.3442 45.2121 30.3349 45.2399 30.3163 45.3258Z" fill="#EF233C"/>
<path d="M28.4668 44.7203L28.896 44.7899L28.8612 44.9129C28.6872 44.8874 28.6014 44.8735 28.4297 44.8433L28.4668 44.7203ZM29.3275 44.8549L29.7567 44.9199L29.7219 45.0451L29.2904 44.9802C29.3043 44.9315 29.3113 44.9059 29.3275 44.8549Z" fill="#EF233C"/>
<path d="M25.8972 44.254L26.3241 44.3375L26.2847 44.4582L25.8555 44.3723C25.8717 44.3259 25.881 44.312 25.8972 44.254ZM26.751 44.4211L27.1802 44.4999L27.1407 44.6206L26.7115 44.5417C26.7278 44.493 26.7371 44.4675 26.751 44.4211ZM27.6094 44.5765L28.0363 44.6507L28.0015 44.7714L27.5699 44.6971L27.6094 44.5765Z" fill="#EF233C"/>
<path d="M25.0195 44.3885L25.1587 44.4187L25.2214 44.2423L25.4279 44.2864C25.4441 44.2377 25.4534 44.2145 25.4696 44.1681L25.1239 44.0962L25.0195 44.3885Z" fill="#EF233C"/>
<path d="M24.6283 45.472L24.7675 45.5045C24.7165 45.6483 24.6887 45.7202 24.6376 45.8664L24.4961 45.8316L24.6283 45.472ZM24.8882 44.7505L25.0274 44.7806C24.9763 44.9268 24.9508 44.9987 24.8975 45.1426L24.7583 45.1124C24.8232 44.9662 24.8371 44.8943 24.8882 44.7505Z" fill="#EF233C"/>
<path d="M23.8299 47.6249L23.976 47.662L23.8415 48.0193L23.6953 47.9799C23.751 47.8384 23.7765 47.7664 23.8299 47.6249ZM24.099 46.9104L24.2428 46.9452L24.1083 47.3024L23.9644 47.2676C24.0201 47.1238 24.0456 47.0519 24.099 46.9104ZM24.3658 46.1912L24.5073 46.226L24.3751 46.5856L24.2336 46.5508L24.3658 46.1912Z" fill="#EF233C"/>
<path d="M20.2383 49.815L21.8484 50.678L22.3564 48.4207L20.454 47.8894L20.2383 49.815Z" fill="#FFC3BD"/>
<path d="M22.0408 38.693C22.0408 38.693 19.751 38.4934 19.2197 41.477C18.6884 44.4605 17.0296 47.8175 19.2197 49.6109L20.4818 50.3742C21.0752 49.6778 21.4858 48.8446 21.6766 47.9498L20.962 47.4533L21.5096 45.3931C21.5096 45.3931 22.9688 39.389 22.0408 38.693Z" fill="#EF233C"/>
<path opacity="0.5" d="M22.0408 38.693C22.0408 38.693 19.751 38.4934 19.2197 41.477C18.6884 44.4605 17.0296 47.8175 19.2197 49.6109L20.4818 50.3742C21.0752 49.6778 21.4858 48.8446 21.6766 47.9498L20.962 47.4533L21.5096 45.3931C21.5096 45.3931 22.9688 39.389 22.0408 38.693Z" fill="white"/>
<path d="M23.8986 89.1228L22.7386 92.6979C22.7112 92.7918 22.7142 92.8919 22.7471 92.9839C22.78 93.076 22.8412 93.1553 22.9218 93.2106C23.3118 93.4734 23.7161 93.7143 24.1329 93.9321C24.6783 94.1321 25.2344 94.3018 25.7986 94.4402C25.8945 94.4654 25.9793 94.5216 26.0397 94.6001C26.1002 94.6786 26.1329 94.775 26.1327 94.874C26.1327 94.9934 26.0853 95.1079 26.0009 95.1923C25.9165 95.2767 25.802 95.3241 25.6826 95.3241H19.9801C19.9157 95.322 19.8525 95.3065 19.7945 95.2787C19.7365 95.2508 19.6848 95.2112 19.643 95.1623C19.6011 95.1135 19.5698 95.0564 19.5511 94.9948C19.5325 94.9332 19.5269 94.8683 19.5346 94.8044L20.516 88.6588C20.5343 88.5455 20.5952 88.4436 20.6862 88.3737C20.7772 88.3039 20.8914 88.2714 21.0055 88.2829L23.5065 88.5381C23.5739 88.5437 23.6392 88.5643 23.6975 88.5986C23.7558 88.6329 23.8057 88.6798 23.8433 88.736C23.881 88.7922 23.9055 88.8561 23.9151 88.9231C23.9247 88.99 23.919 89.0583 23.8986 89.1228Z" fill="#263238"/>
<path d="M21.6421 54.6522L27.9293 54.8842C27.9293 54.8842 28.3933 71.1242 27.9525 75.7317C27.5604 79.8637 24.904 86.7262 24.3889 88.8722C24.3635 88.9765 24.3004 89.0676 24.2117 89.1281C24.123 89.1885 24.015 89.2139 23.9087 89.1993L20.6491 88.7701C20.5924 88.763 20.5376 88.7447 20.488 88.7163C20.4383 88.6879 20.3948 88.65 20.3599 88.6047C20.3249 88.5594 20.2993 88.5077 20.2844 88.4525C20.2696 88.3972 20.2658 88.3396 20.2733 88.2829C20.5053 86.5661 21.1201 82.8982 22.6141 76.8291C22.8689 75.792 23.0089 74.73 23.0317 73.6623C23.0781 71.3771 23.0967 67.2382 22.7394 64.1897C22.4262 61.538 21.2987 58.7888 21.6421 54.6522Z" fill="#EF233C"/>
<path d="M23.8986 89.1228L22.7386 92.6979C22.7112 92.7918 22.7142 92.8919 22.7471 92.9839C22.78 93.076 22.8412 93.1553 22.9218 93.2106C23.3118 93.4734 23.7161 93.7143 24.1329 93.9321C24.6783 94.1321 25.2344 94.3018 25.7986 94.4402C25.8945 94.4654 25.9793 94.5216 26.0397 94.6001C26.1002 94.6786 26.1329 94.775 26.1327 94.874C26.1327 94.9934 26.0853 95.1079 26.0009 95.1923C25.9165 95.2767 25.802 95.3241 25.6826 95.3241H19.9801C19.9157 95.322 19.8525 95.3065 19.7945 95.2787C19.7365 95.2508 19.6848 95.2112 19.643 95.1623C19.6011 95.1135 19.5698 95.0564 19.5511 94.9948C19.5325 94.9332 19.5269 94.8683 19.5346 94.8044L20.516 88.6588C20.5343 88.5455 20.5952 88.4436 20.6862 88.3737C20.7772 88.3039 20.8914 88.2714 21.0055 88.2829L23.5065 88.5381C23.5739 88.5437 23.6392 88.5643 23.6975 88.5986C23.7558 88.6329 23.8057 88.6798 23.8433 88.736C23.881 88.7922 23.9055 88.8561 23.9151 88.9231C23.9247 88.99 23.919 89.0583 23.8986 89.1228Z" fill="#263238"/>
<path d="M21.6421 54.6522L27.9293 54.8842C27.9293 54.8842 28.3933 71.1242 27.9525 75.7317C27.5604 79.8637 24.904 86.7262 24.3889 88.8722C24.3635 88.9765 24.3004 89.0676 24.2117 89.1281C24.123 89.1885 24.015 89.2139 23.9087 89.1993L20.6491 88.7701C20.5924 88.763 20.5376 88.7447 20.488 88.7163C20.4383 88.6879 20.3948 88.65 20.3599 88.6047C20.3249 88.5594 20.2993 88.5077 20.2844 88.4525C20.2696 88.3972 20.2658 88.3396 20.2733 88.2829C20.5053 86.5661 21.1201 82.8982 22.6141 76.8291C22.8689 75.792 23.0089 74.73 23.0317 73.6623C23.0781 71.3771 23.0967 67.2382 22.7394 64.1897C22.4262 61.538 21.2987 58.7888 21.6421 54.6522Z" fill="#EF233C"/>
<path opacity="0.2" d="M21.6421 54.6522L27.9293 54.8842C27.9293 54.8842 28.3933 71.1242 27.9525 75.7317C27.5604 79.8637 24.904 86.7262 24.3889 88.8722C24.3635 88.9765 24.3004 89.0676 24.2117 89.1281C24.123 89.1885 24.015 89.2139 23.9087 89.1993L20.6491 88.7701C20.5924 88.763 20.5376 88.7447 20.488 88.7163C20.4383 88.6879 20.3948 88.65 20.3599 88.6047C20.3249 88.5594 20.2993 88.5077 20.2844 88.4525C20.2696 88.3972 20.2658 88.3396 20.2733 88.2829C20.5053 86.5661 21.1201 82.8982 22.6141 76.8291C22.8689 75.792 23.0089 74.73 23.0317 73.6623C23.0781 71.3771 23.0967 67.2382 22.7394 64.1897C22.4262 61.538 21.2987 58.7888 21.6421 54.6522Z" fill="black"/>
<path opacity="0.2" d="M26.1016 58.6124C26.2288 63.3078 26.9221 67.9707 28.1664 72.4999C28.2476 69.7391 28.0643 62.6144 28.0248 59.8188L27.2314 58.6124H26.1016Z" fill="black"/>
<path d="M34.3754 88.8328L34.0808 92.749C34.074 92.831 34.0901 92.9133 34.1274 92.9866C34.1647 93.06 34.2216 93.1215 34.2919 93.1643C34.7571 93.4545 35.2373 93.7201 35.7303 93.96C36.3091 94.1558 36.8976 94.3215 37.4935 94.4565C37.5877 94.4826 37.6705 94.539 37.7293 94.6171C37.788 94.6951 37.8193 94.7904 37.8183 94.888C37.8183 95.0062 37.7714 95.1195 37.6879 95.203C37.6043 95.2865 37.491 95.3335 37.3729 95.3335H31.5729C31.4571 95.3335 31.3459 95.2885 31.2627 95.208C31.1796 95.1274 31.1311 95.0177 31.1274 94.902L30.9534 88.9512C30.949 88.8339 30.9908 88.7196 31.0697 88.6328C31.1487 88.5461 31.2585 88.4938 31.3757 88.4872L33.9114 88.3596C33.9739 88.3568 34.0362 88.3673 34.0944 88.3902C34.1525 88.4132 34.2052 88.4481 34.249 88.4927C34.2927 88.5374 34.3266 88.5907 34.3484 88.6493C34.3702 88.7079 34.3794 88.7704 34.3754 88.8328Z" fill="#263238"/>
<path d="M31.6846 55.1487C31.6846 55.1487 34.9883 72.1798 35.3015 75.7201C35.5869 78.931 34.8862 86.3759 34.7795 88.7446C34.7753 88.8468 34.7316 88.9433 34.6576 89.0139C34.5836 89.0844 34.4851 89.1235 34.3828 89.1228H31.0327C30.9293 89.1234 30.8298 89.0834 30.7556 89.0114C30.6814 88.9393 30.6384 88.841 30.636 88.7377C30.5942 86.9675 30.5223 82.7057 30.687 78.3812C30.7457 76.709 30.5101 75.0395 29.991 73.4489C28.8078 69.7601 26.6572 62.807 25.8962 58.6681C25.7338 57.7819 25.4531 55.0884 25.4531 55.0884L31.6846 55.1487Z" fill="#EF233C"/>
<path opacity="0.2" d="M31.6846 55.1487C31.6846 55.1487 34.9883 72.1798 35.3015 75.7201C35.5869 78.931 34.8862 86.3759 34.7795 88.7446C34.7753 88.8468 34.7316 88.9433 34.6576 89.0139C34.5836 89.0844 34.4851 89.1235 34.3828 89.1228H31.0327C30.9293 89.1234 30.8298 89.0834 30.7556 89.0114C30.6814 88.9393 30.6384 88.841 30.636 88.7377C30.5942 86.9675 30.5223 82.7057 30.687 78.3812C30.7457 76.709 30.5101 75.0395 29.991 73.4489C28.8078 69.7601 26.6572 62.807 25.8962 58.6681C25.7338 57.7819 25.4531 55.0884 25.4531 55.0884L31.6846 55.1487Z" fill="black"/>
<path d="M24.1719 38.1082C24.1719 38.1082 25.4247 37.983 25.4108 35.6769C25.4108 35.6769 26.5708 35.1503 27.3201 35.8347C28.0695 36.5191 26.6241 38.1059 27.566 38.7787C28.508 39.4515 24.1719 38.1082 24.1719 38.1082Z" fill="#FFC3BD"/>
<path opacity="0.1" d="M26.6211 36.765C26.8133 37.0668 27.0425 37.3435 27.3032 37.5886C27.3705 37.2917 27.4679 36.9808 27.5166 36.6954L26.6211 36.765Z" fill="black"/>
<path d="M38.2812 46.0775L42.1673 45.646L42.898 44.4837L43.826 43.9222L44.5569 44.2818L44.058 46.7735L43.2623 47.0821H42.332L38.2812 48.1678V46.0775Z" fill="#FFC3BD"/>
<path d="M31.7841 39.1709C31.7841 39.1709 33.712 39.0386 35.4961 42.0918L37.2221 45.5462H38.5515C38.5515 45.5462 39.2823 47.4718 38.5515 48.5994C38.5515 48.5994 35.9624 49.597 31.7771 44.4234L30.9141 41.0362L31.7841 39.1709Z" fill="#EF233C"/>
<path opacity="0.5" d="M31.7841 39.1709C31.7841 39.1709 33.712 39.0386 35.4961 42.0918L37.2221 45.5462H38.5515C38.5515 45.5462 39.2823 47.4718 38.5515 48.5994C38.5515 48.5994 35.9624 49.597 31.7771 44.4234L30.9141 41.0362L31.7841 39.1709Z" fill="white"/>
<path d="M21.3953 55.956C21.3953 55.956 28.302 57.116 32.1091 55.956C32.1091 55.956 31.2228 52.244 32.5499 45.864C32.5499 45.864 31.2228 42.5 32.5499 39.136C32.5499 39.136 27.2394 37.5422 21.6598 38.5143C21.3168 40.475 21.1099 42.4572 21.0404 44.4465C20.9406 47.328 20.864 49.1399 21.3953 55.956Z" fill="#EF233C"/>
<path d="M23.8047 38.693C23.8047 38.693 23.5379 37.1641 26.1247 37.4309C28.7115 37.6977 29.1778 39.0248 29.1778 39.0248L23.8047 38.693Z" fill="#EF233C"/>
<path d="M21.1422 52.3948C23.722 52.6724 26.3149 52.8102 28.9096 52.8078C29.8376 52.8078 30.812 52.7892 31.8212 52.7475C31.8212 52.418 31.8212 52.0515 31.8212 51.6872C28.2334 51.8333 24.6398 51.7108 21.0703 51.3207C21.1005 51.6594 21.1144 52.0167 21.1422 52.3948Z" fill="#263238"/>
<path d="M28.7299 48.4741C28.6928 45.9221 28.9085 40.4307 30.3098 38.9807C30.4232 38.854 30.5693 38.7609 30.732 38.7115C30.3237 38.6327 29.8574 38.5538 29.34 38.4795C28.542 39.5143 28.02 41.5466 27.788 44.5278C27.6627 46.1518 27.6557 47.6505 27.6627 48.4323C25.9191 48.3508 24.1808 48.1812 22.4543 47.9243C22.4775 46.6042 22.568 42.7947 22.8348 40.9295C22.9379 40.0273 23.1386 39.1389 23.4333 38.28C23.0482 38.3125 22.6584 38.3566 22.2733 38.4123C22.0527 39.1873 21.8891 39.9774 21.7838 40.7763C21.517 42.6532 21.4242 46.2887 21.3964 47.7479L20.9648 47.6714C20.9648 48.0124 20.9648 48.3674 20.9788 48.7595C23.9924 49.2929 27.0474 49.5584 30.108 49.5529C30.7112 49.5529 31.3376 49.5413 31.9756 49.5181C32.0104 49.1748 32.0521 48.8221 32.1008 48.4509C30.9246 48.5043 29.7948 48.5043 28.7299 48.4741Z" fill="#263238"/>
<path opacity="0.8" d="M21.1422 52.3948C23.722 52.6724 26.3149 52.8102 28.9096 52.8078C29.8376 52.8078 30.812 52.7892 31.8212 52.7475C31.8212 52.418 31.8212 52.0515 31.8212 51.6872C28.2334 51.8333 24.6398 51.7108 21.0703 51.3207C21.1005 51.6594 21.1144 52.0167 21.1422 52.3948Z" fill="white"/>
<path opacity="0.8" d="M28.7299 48.4741C28.6928 45.9221 28.9085 40.4307 30.3098 38.9807C30.4232 38.854 30.5693 38.7609 30.732 38.7115C30.3237 38.6327 29.8574 38.5538 29.34 38.4795C28.542 39.5143 28.02 41.5466 27.788 44.5278C27.6627 46.1518 27.6557 47.6505 27.6627 48.4323C25.9191 48.3508 24.1808 48.1812 22.4543 47.9243C22.4775 46.6042 22.568 42.7947 22.8348 40.9295C22.9379 40.0273 23.1386 39.1389 23.4333 38.28C23.0482 38.3125 22.6584 38.3566 22.2733 38.4123C22.0527 39.1873 21.8891 39.9774 21.7838 40.7763C21.517 42.6532 21.4242 46.2887 21.3964 47.7479L20.9648 47.6714C20.9648 48.0124 20.9648 48.3674 20.9788 48.7595C23.9924 49.2929 27.0474 49.5584 30.108 49.5529C30.7112 49.5529 31.3376 49.5413 31.9756 49.5181C32.0104 49.1748 32.0521 48.8221 32.1008 48.4509C30.9246 48.5043 29.7948 48.5043 28.7299 48.4741Z" fill="white"/>
<path d="M23.0781 44.175L27.0592 44.5346V47.0588L23.0781 46.6598V44.175Z" fill="white"/>
<path d="M30.0482 33.0112C30.0621 33.1574 29.9971 33.285 29.8997 33.292C29.8022 33.2989 29.7094 33.1852 29.7002 33.0414C29.6909 32.8976 29.7512 32.77 29.8486 32.763C29.9461 32.7561 30.0342 32.8651 30.0482 33.0112Z" fill="#263238"/>
<path d="M29.6357 33.1923L30.2923 34.3731C30.1539 34.4496 29.9996 34.4926 29.8417 34.4986C29.6837 34.5046 29.5266 34.4736 29.3828 34.4079L29.6357 33.1923Z" fill="#BA4D3C"/>
<path d="M24.3242 32.4799C24.4124 34.4334 24.4077 35.2639 25.3775 36.2801C26.8669 37.3241 29.2194 37.2754 29.7159 35.3335C30.1637 33.5866 29.9479 30.6935 28.0455 29.8746C27.6279 29.6968 27.1718 29.6284 26.7204 29.6759C26.269 29.7234 25.8371 29.8851 25.4656 30.1459C25.0941 30.4067 24.7952 30.7578 24.5971 31.1662C24.399 31.5746 24.3083 32.0267 24.3335 32.4799H24.3242Z" fill="#FFC3BD"/>
<path d="M29.2808 32.3268C29.2925 32.3319 29.3052 32.3346 29.3179 32.3346C29.3307 32.3346 29.3434 32.3319 29.3551 32.3268C29.4405 32.2828 29.5351 32.2599 29.6311 32.2599C29.7272 32.2599 29.8218 32.2828 29.9072 32.3268C29.9242 32.3373 29.9446 32.3408 29.9641 32.3365C29.9837 32.3321 30.0007 32.3203 30.0116 32.3036C30.0223 32.2863 30.0258 32.2655 30.0215 32.2456C30.0172 32.2257 30.0053 32.2082 29.9884 32.1969C29.8826 32.1377 29.7641 32.1049 29.643 32.1013C29.5218 32.0977 29.4016 32.1233 29.2924 32.176C29.2831 32.18 29.2746 32.1859 29.2675 32.1932C29.2604 32.2006 29.2549 32.2092 29.2512 32.2188C29.2476 32.2283 29.2458 32.2384 29.2461 32.2486C29.2464 32.2588 29.2488 32.2688 29.253 32.2781C29.2575 32.2966 29.2672 32.3135 29.2808 32.3268Z" fill="#263238"/>
<path d="M28.5383 33.756C28.5383 33.756 28.87 32.3176 28.5383 31.9186C28.2065 31.5195 28.3944 31.4291 28.7517 31.0787C29.109 30.7284 29.4013 30.0115 28.6705 29.6496C27.9397 29.2877 26.5013 29.065 25.3274 29.7494C24.1535 30.4338 24.0885 31.3339 24.0676 32.0021C24.0467 32.6703 24.2996 34.9531 24.5316 35.4821C24.7209 35.8312 25.0191 36.109 25.3807 36.2732C25.3807 36.2732 25.6475 35.9786 26.3899 36.2732C26.3899 36.2732 28.2274 34.6191 28.5383 33.756Z" fill="#263238"/>
<path d="M28.3775 33.0252C28.6193 33.3436 28.7253 33.7449 28.6721 34.1412C28.5956 34.6655 28.0736 34.7188 27.6885 34.3987C27.3381 34.1087 26.9623 33.4869 27.2245 33.0438C27.284 32.945 27.3676 32.8629 27.4676 32.8054C27.5675 32.7478 27.6805 32.7167 27.7958 32.7148C27.9112 32.713 28.0251 32.7405 28.1268 32.7948C28.2286 32.8491 28.3148 32.9284 28.3775 33.0252Z" fill="#FFC3BD"/>
<path d="M23.6914 31.7167C23.6921 32.2973 23.8154 32.8713 24.0533 33.401C25.494 33.22 26.6192 32.5542 26.9046 31.7167H23.6914Z" fill="#263238"/>
<path opacity="0.6" d="M23.6914 31.7167C23.6921 32.2973 23.8154 32.8713 24.0533 33.401C25.494 33.22 26.6192 32.5542 26.9046 31.7167H23.6914Z" fill="white"/>
<path d="M31.8233 31.4267H30.4058C30.3037 29.6333 29.2667 28.2251 27.4362 28.2251C25.6057 28.2251 23.6453 29.6333 23.4505 31.4267H23.1117C23.0396 31.4332 22.9725 31.4664 22.9236 31.5199C22.8748 31.5733 22.8477 31.6431 22.8477 31.7155C22.8477 31.788 22.8748 31.8578 22.9236 31.9112C22.9725 31.9647 23.0396 31.9979 23.1117 32.0044H31.8233C31.8955 31.9979 31.9626 31.9647 32.0115 31.9112C32.0603 31.8578 32.0874 31.788 32.0874 31.7155C32.0874 31.6431 32.0603 31.5733 32.0115 31.5199C31.9626 31.4664 31.8955 31.4332 31.8233 31.4267Z" fill="#EF233C"/>
<path opacity="0.1" d="M23.4531 31.4267H30.4131C30.3941 31.0711 30.3326 30.719 30.2298 30.3781H23.7826C23.6076 30.7037 23.4958 31.0595 23.4531 31.4267Z" fill="black"/>
</svg>
