<svg width="116" height="86" viewBox="0 0 116 86" fill="none" xmlns="http://www.w3.org/2000/svg">
<path d="M95.0467 77.8251C93.3764 77.259 91.6738 76.8183 89.9504 76.5058C82.1274 75.1212 64.1056 74.6482 55.3701 75.0662C44.0283 75.62 8.09 84.8909 5.37405 76.4112C2.65811 67.9316 3.45773 5.79836 8.72877 4.50836C13.9998 3.21836 32.6882 8.29236 43.7097 8.6656C54.7313 9.03884 81.0865 4.14028 91.9487 3.58644C102.811 3.0326 103.768 5.0622 106.333 15.9395C108.897 26.8168 111.604 62.5842 111.127 70.8797C110.708 77.9317 99.1067 79.1856 95.0467 77.8251Z" fill="#EF233C"/>
<path opacity="0.7" d="M95.0467 77.8251C93.3764 77.259 91.6738 76.8183 89.9504 76.5058C82.1274 75.1212 64.1056 74.6482 55.3701 75.0662C44.0283 75.62 8.09 84.8909 5.37405 76.4112C2.65811 67.9316 3.45773 5.79836 8.72877 4.50836C13.9998 3.21836 32.6882 8.29236 43.7097 8.6656C54.7313 9.03884 81.0865 4.14028 91.9487 3.58644C102.811 3.0326 103.768 5.0622 106.333 15.9395C108.897 26.8168 111.604 62.5842 111.127 70.8797C110.708 77.9317 99.1067 79.1856 95.0467 77.8251Z" fill="white"/>
<path d="M33.0814 27.5463C32.5931 27.2847 32.1993 26.8461 31.9647 26.3027C31.5394 25.355 30.4289 23.4458 28.344 23.346C24.915 23.174 23.7349 26.6467 22.8162 27.3622C21.8975 28.0777 21.7134 26.6467 19.4136 26.8462C17.1137 27.0457 16.5646 28.2773 15.8284 28.5851C15.0922 28.893 14.3575 27.7664 12.9794 28.0691C11.6013 28.3719 10.7739 29.6034 10.5048 29.6034C10.2356 29.6034 7.83984 30.5236 7.83984 30.5236H38.9928C38.9928 30.5236 38.4422 27.4568 37.0626 26.8428C35.8809 26.3285 34.7596 28.3994 33.0814 27.5463Z" stroke="#263238" stroke-miterlimit="10"/>
<path d="M94.8923 10.1359C94.4494 9.89905 94.0922 9.50175 93.8792 9.00927C93.4941 8.14927 92.4872 6.42066 90.5972 6.3295C87.4884 6.17814 86.4212 9.32231 85.586 9.97075C84.7508 10.6192 84.5869 9.3223 82.5035 9.50806C80.4201 9.69382 79.9206 10.8049 79.2555 11.0819C78.5904 11.3588 77.9238 10.3405 76.6741 10.6192C75.4244 10.8978 74.6743 12.0089 74.4237 12.0089C74.1731 12.0089 72.0078 12.8431 72.0078 12.8431H100.251C100.251 12.8431 99.7566 10.0636 98.5007 9.50806C97.4366 9.03162 96.4142 10.9099 94.8923 10.1359Z" stroke="#263238" stroke-miterlimit="10"/>
<path d="M70.0345 17.9717C70.0345 17.9717 70.9873 16.7264 70.0036 14.6366C70.0036 14.6366 67.6356 16.4392 67.8383 16.121C68.2897 15.2491 68.6981 14.3505 69.0617 13.4292C69.0841 13.3269 69.0841 13.2202 69.0617 13.1179C68.7746 12.75 68.4645 12.4051 68.1337 12.0859C67.6387 12.5176 66.9149 13.1179 67.0046 12.8375C67.0649 12.6483 67.2598 12.0635 67.4547 11.4804C67.3 11.3583 67.2088 11.293 67.2088 11.293L58.6016 23.2934L70.0345 17.9717Z" fill="#EF233C"/>
<path d="M60.7651 19.4362C60.7651 19.4362 59.4783 18.8652 57.3254 19.0664C57.033 19.7131 56.7515 20.3306 56.6711 20.4906C56.5164 20.7847 55.8452 19.8903 55.3116 19.4586C55.0951 19.5205 54.8723 19.591 54.645 19.6701C54.6202 20.0846 54.6991 20.6884 54.5893 20.9911C54.4346 21.4314 54.198 20.6471 53.7556 20.0124C53.0556 20.3131 52.3746 20.666 51.7171 21.0685C49.6616 22.3241 48.101 23.6192 46.9225 25.0554C46.9689 25.4682 46.989 25.9756 46.8575 26.287C46.726 26.5983 46.1352 26.803 45.5088 27.202C44.5808 29.0046 44.0797 31.0514 43.8771 33.4886C43.8018 34.5262 43.8712 35.5706 44.0828 36.5846C44.5468 37.0559 45.4067 36.834 45.5908 37.1556C45.795 37.5134 44.6288 37.9812 44.6288 37.9812L44.4401 38.0036C45.6124 41.9011 48.115 45.0814 48.115 45.0814L60.8162 34.1302C60.8162 34.1302 57.4506 38.6538 57.9672 38.3493C58.4838 38.0449 63.5692 31.502 63.5692 31.502L63.6079 24.3072L61.8911 26.4607L60.7651 19.4362Z" fill="#EF233C"/>
<path d="M50.9178 38.4297C50.9178 38.4297 50.1105 38.9061 49.812 39.2553C49.5135 39.6044 49.3789 40.4593 49.3789 40.4593C49.7225 40.3391 50.0463 40.1579 50.3378 39.9226C50.7322 39.57 50.9178 38.4297 50.9178 38.4297Z" fill="white"/>
<path d="M53.5663 38.0117C53.5663 38.0117 52.7605 38.4864 52.462 38.8356C52.1635 39.1848 52.0273 40.0396 52.0273 40.0396C52.3712 39.9203 52.6952 39.739 52.9863 39.503C53.3869 39.159 53.5663 38.0117 53.5663 38.0117Z" fill="white"/>
<path d="M49.6343 35.0156C49.6343 35.0156 48.728 35.1515 48.3397 35.3596C47.9515 35.5677 47.5664 36.3245 47.5664 36.3245C47.9264 36.3434 48.2868 36.2975 48.6336 36.1887C49.1115 36.0167 49.6343 35.0156 49.6343 35.0156Z" fill="white"/>
<path d="M53.0507 34.5254C53.0507 34.5254 52.1459 34.663 51.7577 34.8694C51.3695 35.0758 50.9844 35.8326 50.9844 35.8326C51.3444 35.8514 51.7047 35.8055 52.0516 35.6967C52.5218 35.5282 53.0507 34.5254 53.0507 34.5254Z" fill="white"/>
<path d="M56.1014 32.0293C56.1014 32.0293 55.1966 32.1669 54.8084 32.3733C54.4202 32.5797 54.0273 33.3382 54.0273 33.3382C54.3868 33.357 54.7467 33.3112 55.093 33.2023C55.5787 33.0252 56.1014 32.0293 56.1014 32.0293Z" fill="white"/>
<path d="M49.7537 31.6495C49.7537 31.6495 48.9015 31.2849 48.4684 31.2625C48.0353 31.2402 47.3672 31.6891 47.3672 31.6891C47.6738 31.899 48.0092 32.0518 48.3601 32.1414C48.8628 32.2446 49.7537 31.6495 49.7537 31.6495Z" fill="white"/>
<path d="M51.3997 27.5614C51.3997 27.5614 50.8708 26.7341 50.5212 26.4486C50.1717 26.1631 49.3906 26.127 49.3906 26.127C49.5424 26.4901 49.7461 26.8236 49.9938 27.1142C50.3588 27.5202 51.3997 27.5614 51.3997 27.5614Z" fill="white"/>
<path d="M53.558 31.0933C53.558 31.0933 52.8589 30.4414 52.4553 30.2643C52.0516 30.0871 51.2891 30.2643 51.2891 30.2643C51.5181 30.5727 51.7908 30.8376 52.0964 31.0486C52.5403 31.3376 53.558 31.0933 53.558 31.0933Z" fill="white"/>
<path d="M54.3208 25.8608C54.3208 25.8608 54.2295 24.8494 54.0532 24.4091C53.8769 23.9688 53.2149 23.5078 53.2149 23.5078C53.1846 23.907 53.2128 24.3089 53.2984 24.6981C53.4392 25.2433 54.3208 25.8608 54.3208 25.8608Z" fill="white"/>
<path d="M57.7251 25.2475C57.7251 25.2475 58.0607 24.3032 58.0839 23.8216C58.1071 23.34 57.7096 22.5918 57.7096 22.5918C57.5187 22.9321 57.3782 23.3044 57.2936 23.6943C57.1946 24.2533 57.7251 25.2475 57.7251 25.2475Z" fill="white"/>
<path d="M56.5168 28.5993C56.5168 28.5993 56.8524 27.655 56.8756 27.1734C56.8988 26.6918 56.4997 25.9453 56.4997 25.9453C56.3088 26.2848 56.1688 26.6566 56.0852 27.0461C55.9924 27.6034 56.5168 28.5993 56.5168 28.5993Z" fill="white"/>
<path d="M60.0388 27.8827C60.0388 27.8827 60.6158 27.0932 60.7673 26.6426C60.9189 26.1919 60.7441 25.3457 60.7441 25.3457C60.47 25.6053 60.2355 25.9126 60.0497 26.2556C59.8038 26.7544 60.0388 27.8827 60.0388 27.8827Z" fill="white"/>
<path d="M66.1991 10.4513C66.1991 10.4513 65.5588 8.75371 63.61 6.88063C62.8691 7.14207 62.1592 7.39663 61.9689 7.44479C61.6179 7.54799 61.7431 6.16167 61.6364 5.28619C61.4075 5.13139 61.1678 4.97888 60.9172 4.82867C60.5785 5.15031 60.181 5.72995 59.8562 5.87787C59.3922 6.09459 59.7943 5.21911 59.9134 4.27139C59.0989 3.85473 58.2597 3.50072 57.4016 3.21187C54.7259 2.30543 52.4291 1.90123 50.3488 1.98551C50.072 2.37251 49.6961 2.81455 49.3481 2.94871C48.9754 3.09147 48.3521 2.69071 47.5215 2.43271C45.3562 3.04847 43.3718 4.28343 41.3349 6.12211C40.4771 6.91113 39.7341 7.84291 39.1324 8.88443C39.1603 9.72207 40.045 10.3499 39.9506 10.7919C39.8454 11.2838 38.5137 10.5666 38.5137 10.5666L38.3405 10.4049C36.3299 14.7685 35.9648 19.7978 35.9648 19.7978L54.9656 22.7407C54.9656 22.7407 48.6846 23.3118 49.3497 23.5491C50.0148 23.7865 59.2716 23.1742 59.2716 23.1742L64.8396 17.2144L61.7462 17.3864L66.1991 10.4513Z" fill="#EF233C"/>
<path d="M43.3936 16.9197C43.3936 16.9197 42.3542 16.5499 41.8376 16.5567C41.321 16.5636 40.5508 17.1484 40.5508 17.1484C40.9294 17.3743 41.3383 17.5305 41.7618 17.6111C42.3666 17.7005 43.3936 16.9197 43.3936 16.9197Z" fill="white"/>
<path d="M45.917 19.0935C45.917 19.0935 44.8776 18.7237 44.361 18.7306C43.8445 18.7374 43.0742 19.3222 43.0742 19.3222C43.4528 19.5481 43.8618 19.7043 44.2853 19.7849C44.89 19.8726 45.917 19.0935 45.917 19.0935Z" fill="white"/>
<path d="M44.9462 12.8532C44.9462 12.8532 44.0862 12.1085 43.599 11.9158C43.1118 11.7232 42.207 11.9777 42.207 11.9777C42.4927 12.3358 42.8285 12.6402 43.2015 12.879C43.7413 13.1921 44.9462 12.8532 44.9462 12.8532Z" fill="white"/>
<path d="M48.1649 15.6872C48.1649 15.6872 47.305 14.9424 46.8178 14.7498C46.3306 14.5572 45.4258 14.8117 45.4258 14.8117C45.7109 15.1692 46.0462 15.473 46.4187 15.7113C46.9585 16.026 48.1649 15.6872 48.1649 15.6872Z" fill="white"/>
<path d="M52.6337 16.5134C52.6337 16.5134 51.7737 15.7686 51.2865 15.576C50.7993 15.3833 49.8945 15.6379 49.8945 15.6379C50.1798 15.9948 50.5151 16.298 50.8875 16.5357C51.4288 16.8574 52.6337 16.5134 52.6337 16.5134Z" fill="white"/>
<path d="M47.6371 10.1598C47.6371 10.1598 47.2056 9.04527 46.8638 8.61183C46.522 8.17839 45.6172 7.92383 45.6172 7.92383C45.7097 8.38972 45.8695 8.83584 46.0905 9.24479C46.4323 9.80551 47.6371 10.1598 47.6371 10.1598Z" fill="white"/>
<path d="M52.1478 8.31944C52.1478 8.31944 52.3442 7.12576 52.2715 6.55644C52.1988 5.98712 51.5771 5.21484 51.5771 5.21484C51.424 5.66184 51.3373 6.13354 51.3203 6.61148C51.3203 7.28916 52.1478 8.31944 52.1478 8.31944Z" fill="white"/>
<path d="M51.2314 13.3141C51.2314 13.3141 51.1494 12.1101 50.9499 11.5752C50.7504 11.0403 49.9724 10.4727 49.9724 10.4727C49.9259 10.9479 49.9494 11.4283 50.042 11.8951C50.1952 12.5573 51.2314 13.3141 51.2314 13.3141Z" fill="white"/>
<path d="M55.886 9.67578C55.886 9.67578 56.5866 8.74698 56.7769 8.21206C56.9671 7.67714 56.7769 6.66406 56.7769 6.66406C56.4426 6.96874 56.1557 7.33251 55.9277 7.74078C55.6246 8.32386 55.886 9.67578 55.886 9.67578Z" fill="white"/>
<path d="M59.1992 12.4017C59.1992 12.4017 60.2046 11.9321 60.5912 11.5537C60.9779 11.1753 61.2238 10.1777 61.2238 10.1777C60.8039 10.2771 60.4012 10.4514 60.0313 10.6937C59.5225 11.067 59.1992 12.4017 59.1992 12.4017Z" fill="white"/>
<path d="M55.6133 14.046C55.6133 14.046 56.6186 13.5764 57.0053 13.1963C57.3919 12.8162 57.6379 11.8203 57.6379 11.8203C57.2178 11.919 56.815 12.0933 56.4454 12.3363C55.9365 12.7113 55.6133 14.046 55.6133 14.046Z" fill="white"/>
<path d="M59.1016 16.7986C59.1016 16.7986 60.1842 16.6885 60.6606 16.4546C61.137 16.2206 61.6381 15.3503 61.6381 15.3503C61.2097 15.307 60.7778 15.3407 60.359 15.4501C59.7728 15.6358 59.1016 16.7986 59.1016 16.7986Z" fill="white"/>
<path d="M65.7778 34.1292L61.5075 26.5801L59.9701 23.9416L64.0146 18.761L59.4334 23.0197L53.4215 12.7031L57.8171 21.7211L46.9766 18.6732L57.9409 22.9474L61.6637 30.9936L50.0374 26.6059L65.7778 34.1292Z" fill="#263238" stroke="#263238" stroke-linecap="round" stroke-linejoin="round"/>
<path d="M60.642 27.6926C60.642 27.6926 59.9568 26.7982 60.6636 25.2967C60.6636 25.2967 62.3649 26.5918 62.2211 26.3631C61.897 25.7365 61.6032 25.0912 61.341 24.4298C61.3251 24.3557 61.3251 24.2785 61.341 24.2045C61.5469 23.9394 61.7686 23.69 62.0046 23.458C62.3603 23.7693 62.88 24.1976 62.8166 23.9981C62.7733 23.8622 62.6325 23.4425 62.4933 23.0246C62.6031 22.9351 62.6696 22.8887 62.6696 22.8887L68.8563 31.5093L60.642 27.6926Z" fill="#EF233C"/>
<path d="M67.2993 28.7564C67.2993 28.7564 68.2273 28.3453 69.7739 28.4898C69.9827 28.9559 70.1853 29.3996 70.2379 29.5218C70.3446 29.7333 70.8303 29.0918 71.2139 28.7753C71.3685 28.82 71.5232 28.8699 71.6933 28.9266C71.7103 29.2242 71.6531 29.6576 71.732 29.8761C71.8449 30.1926 72.0135 29.6284 72.3306 29.1726C72.8339 29.389 73.3237 29.6424 73.7968 29.9311C75.2723 30.8324 76.3937 31.7629 77.235 32.7949C77.201 33.0908 77.1886 33.4571 77.283 33.679C77.3773 33.9009 77.8011 34.0488 78.2512 34.336C78.9209 35.6329 79.2782 37.1018 79.4236 38.8528C79.475 39.5974 79.4228 40.3464 79.2689 41.0733C78.9333 41.4173 78.3177 41.2453 78.1862 41.4826C78.0393 41.7389 78.8776 42.076 78.8776 42.076L79.0137 42.0915C78.1692 44.8917 76.372 47.1758 76.372 47.1758L67.2467 39.3086C67.2467 39.3086 69.6641 42.5576 69.2929 42.3392C68.9217 42.1208 65.2716 37.4286 65.2716 37.4286L65.2422 32.26L66.4795 33.808L67.2993 28.7564Z" fill="#EF233C"/>
<path d="M74.375 42.3965C74.6587 42.5599 74.9248 42.7584 75.1684 42.9882C75.3834 43.2393 75.4778 43.8482 75.4778 43.8482C75.231 43.7623 74.9985 43.6321 74.7895 43.4629C74.5034 43.2152 74.375 42.3965 74.375 42.3965Z" fill="white"/>
<path d="M72.4727 42.1016C72.7569 42.2648 73.0236 42.4633 73.2676 42.6932C73.4826 42.9444 73.577 43.5532 73.577 43.5532C73.3302 43.4674 73.0977 43.3372 72.8887 43.168C72.6026 42.9203 72.4727 42.1016 72.4727 42.1016Z" fill="white"/>
<path d="M75.2969 39.9434C75.6137 39.9888 75.925 40.0736 76.2249 40.1962C76.5048 40.3476 76.7863 40.8842 76.7863 40.8842C76.5254 40.8989 76.2642 40.8658 76.013 40.7862C75.6727 40.664 75.2969 39.9434 75.2969 39.9434Z" fill="white"/>
<path d="M72.8516 39.5918C73.1684 39.6366 73.4797 39.7208 73.7796 39.8429C74.058 39.996 74.3395 40.5309 74.3395 40.5309C74.0812 40.5449 73.8225 40.5118 73.5739 40.4329C73.2228 40.3108 72.8516 39.5918 72.8516 39.5918Z" fill="white"/>
<path d="M70.6484 37.7969C70.9653 37.8417 71.2765 37.9259 71.5764 38.048C71.8548 38.2011 72.1363 38.736 72.1363 38.736C71.8755 38.7499 71.6143 38.7168 71.363 38.638C71.0227 38.5158 70.6484 37.7969 70.6484 37.7969Z" fill="white"/>
<path d="M75.2109 37.5233C75.5098 37.3917 75.8211 37.2982 76.1389 37.2447C76.4483 37.2292 76.9308 37.5508 76.9308 37.5508C76.7107 37.7017 76.4698 37.8115 76.2178 37.8759C75.8528 37.9516 75.2109 37.5233 75.2109 37.5233Z" fill="white"/>
<path d="M74.0273 34.5889C74.2096 34.2969 74.4213 34.0292 74.6584 33.7908C74.9089 33.5861 75.4688 33.5586 75.4688 33.5586C75.3603 33.8197 75.2146 34.0595 75.0373 34.269C74.7744 34.5528 74.0273 34.5889 74.0273 34.5889Z" fill="white"/>
<path d="M72.4766 37.1243C72.7197 36.8929 72.9859 36.6932 73.27 36.5292C73.5592 36.4019 74.1068 36.5292 74.1068 36.5292C73.9421 36.7513 73.7462 36.9424 73.5268 37.0951C73.2081 37.2998 72.4766 37.1243 72.4766 37.1243Z" fill="white"/>
<path d="M71.9297 33.3685C71.9584 33.0142 72.0227 32.6645 72.1215 32.3262C72.2498 32.0097 72.7247 31.6777 72.7247 31.6777C72.7464 31.9661 72.726 32.2566 72.6644 32.5377C72.5623 32.923 71.9297 33.3685 71.9297 33.3685Z" fill="white"/>
<path d="M69.484 32.9251C69.3644 32.5956 69.2783 32.2524 69.2273 31.9017C69.2103 31.5577 69.4964 31.0176 69.4964 31.0176C69.633 31.2621 69.7337 31.5291 69.7949 31.8088C69.8661 32.2095 69.484 32.9251 69.484 32.9251Z" fill="white"/>
<path d="M70.3526 35.3335C70.2323 35.0042 70.1457 34.6609 70.0944 34.3101C70.0789 33.9661 70.3635 33.4277 70.3635 33.4277C70.5011 33.6716 70.6019 33.9389 70.662 34.2189C70.7331 34.618 70.3526 35.3335 70.3526 35.3335Z" fill="white"/>
<path d="M67.8214 34.8195C67.6179 34.5457 67.4426 34.2474 67.2987 33.9303C67.1888 33.6052 67.3157 32.998 67.3157 32.998C67.5132 33.1841 67.6819 33.4049 67.8152 33.6516C67.9916 34.0094 67.8214 34.8195 67.8214 34.8195Z" fill="white"/>
<path d="M63.4023 22.2965C63.4023 22.2965 63.8571 21.077 65.2583 19.7268C65.7904 19.916 66.2992 20.0932 66.4369 20.1327C66.689 20.2067 66.5993 19.2108 66.6766 18.5847C66.8406 18.4701 67.0123 18.36 67.1917 18.2545C67.4361 18.4867 67.7206 18.9029 67.9542 19.0096C68.2914 19.1644 67.999 18.5366 67.9124 17.8537C68.4979 17.5552 69.1009 17.3012 69.7174 17.0935C71.6399 16.4416 73.2902 16.1527 74.7843 16.2129C74.9838 16.4915 75.2483 16.808 75.5035 16.9009C75.7587 16.9937 76.2196 16.7168 76.815 16.5293C78.3694 16.9714 79.7955 17.8572 81.2633 19.1781C81.8797 19.7475 82.4134 20.4193 82.8455 21.1699C82.8254 21.7702 82.1897 22.2225 82.2578 22.5459C82.3335 22.9002 83.2894 22.3842 83.2894 22.3842L83.4147 22.2673C84.8639 25.4028 85.116 29.0165 85.116 29.0165L71.4698 31.1321C71.4698 31.1321 75.9814 31.5432 75.505 31.7135C75.0286 31.8838 68.3764 31.4452 68.3764 31.4452L64.3814 27.1641L66.5978 27.2811L63.4023 22.2965Z" fill="#EF233C"/>
<path d="M79.7812 26.9451C79.7812 26.9451 80.5267 26.6785 80.8979 26.6837C81.2691 26.6888 81.8259 27.1085 81.8259 27.1085C81.5538 27.2714 81.2597 27.384 80.9552 27.4422C80.5175 27.5041 79.7812 26.9451 79.7812 26.9451Z" fill="white"/>
<path d="M77.9688 28.5037C77.9688 28.5037 78.7142 28.2371 79.087 28.2423C79.4597 28.2474 80.015 28.6671 80.015 28.6671C79.7429 28.8299 79.4488 28.9426 79.1442 29.0008C78.7065 29.0679 77.9688 28.5037 77.9688 28.5037Z" fill="white"/>
<path d="M78.6641 24.0213C78.6641 24.0213 79.2827 23.4864 79.6323 23.3471C79.9818 23.2077 80.6314 23.3918 80.6314 23.3918C80.4267 23.6487 80.1859 23.8672 79.9184 24.0385C79.5302 24.2638 78.6641 24.0213 78.6641 24.0213Z" fill="white"/>
<path d="M76.3516 26.0577C76.3516 26.0577 76.9702 25.521 77.3198 25.3834C77.6693 25.2458 78.3189 25.4281 78.3189 25.4281C78.1139 25.6854 77.8725 25.9038 77.6044 26.0749C77.2177 26.3002 76.3516 26.0577 76.3516 26.0577Z" fill="white"/>
<path d="M73.1406 26.6495C73.1406 26.6495 73.7593 26.1128 74.1088 25.9752C74.4584 25.8376 75.108 26.0199 75.108 26.0199C74.9029 26.2746 74.6621 26.4907 74.395 26.6598C74.0068 26.892 73.1406 26.6495 73.1406 26.6495Z" fill="white"/>
<path d="M76.7305 22.0852C76.7305 22.0852 77.0398 21.2854 77.2857 20.9775C77.5316 20.6697 78.1812 20.4805 78.1812 20.4805C78.1129 20.8155 77.9964 21.1361 77.8363 21.4299C77.5935 21.8444 76.7305 22.0852 76.7305 22.0852Z" fill="white"/>
<path d="M73.4906 20.766C73.4906 20.766 73.3498 19.906 73.4024 19.5001C73.455 19.0942 73.9004 18.5352 73.9004 18.5352C74.0102 18.8562 74.0729 19.1948 74.086 19.5379C74.086 20.0247 73.4906 20.766 73.4906 20.766Z" fill="white"/>
<path d="M74.1484 24.3522C74.1484 24.3522 74.2072 23.4836 74.3511 23.1035C74.4949 22.7233 75.0532 22.3105 75.0532 22.3105C75.0862 22.6519 75.0689 22.997 75.0022 23.3322C74.8924 23.8035 74.1484 24.3522 74.1484 24.3522Z" fill="white"/>
<path d="M70.8063 21.7399C70.8063 21.7399 70.3021 21.0726 70.166 20.689C70.0299 20.3055 70.166 19.5762 70.166 19.5762C70.4044 19.794 70.6092 20.0537 70.7723 20.345C70.995 20.7681 70.8063 21.7399 70.8063 21.7399Z" fill="white"/>
<path d="M68.4257 23.699C68.4257 23.699 67.7034 23.355 67.4235 23.0884C67.1435 22.8218 66.9688 22.0977 66.9688 22.0977C67.2709 22.1705 67.5603 22.2977 67.8256 22.4743C68.1922 22.7392 68.4257 23.699 68.4257 23.699Z" fill="white"/>
<path d="M71.0023 24.8787C71.0023 24.8787 70.28 24.5347 70 24.2698C69.7201 24.0049 69.5469 23.2773 69.5469 23.2773C69.8483 23.3512 70.137 23.4784 70.4022 23.654C70.7703 23.9206 71.0023 24.8787 71.0023 24.8787Z" fill="white"/>
<path d="M68.4978 26.8568C68.4978 26.8568 67.7167 26.7777 67.3764 26.6108C67.0362 26.444 66.6758 25.8179 66.6758 25.8179C66.983 25.7866 67.2928 25.811 67.593 25.8902C68.0152 26.0209 68.4978 26.8568 68.4978 26.8568Z" fill="white"/>
<path d="M63.6992 39.3063L66.7678 33.8832L67.8721 31.9877L64.9675 28.2674L68.2588 31.3255L72.5771 23.9141L69.4188 30.3933L77.2063 28.2037L69.3306 31.2739L66.6549 37.0531L75.0069 33.9021L63.6992 39.3063Z" fill="#263238" stroke="#263238" stroke-linecap="round" stroke-linejoin="round"/>
<path d="M83.8014 27.0774C83.8014 27.0774 82.9739 26.914 82.7187 25.5931C82.7187 25.5931 84.3535 25.4331 84.1617 25.3729C83.6775 25.1726 83.2035 24.943 82.7419 24.6849C82.6975 24.6497 82.6614 24.6031 82.6367 24.549C82.6423 24.2701 82.6656 23.9919 82.7063 23.7165C83.0651 23.7165 83.5802 23.6787 83.4503 23.5927L82.8084 23.1765C82.8362 23.0595 82.8548 22.9941 82.8548 22.9941L90.5758 24.8139L83.8014 27.0774Z" fill="#EF233C"/>
<path d="M88.375 23.9805C88.375 23.9805 88.7555 23.2082 89.767 22.4325C90.1073 22.6045 90.4336 22.761 90.5218 22.7972C90.6842 22.8677 90.6904 22.2003 90.7816 21.7893C90.8976 21.7291 91.0198 21.6706 91.1451 21.6173C91.292 21.7893 91.4544 22.0885 91.6013 22.178C91.8148 22.3087 91.6617 21.8684 91.6493 21.4091C92.0542 21.2596 92.4675 21.14 92.8866 21.0514C94.2044 20.7744 95.3164 20.7074 96.3032 20.8794C96.4059 21.0883 96.5537 21.2656 96.7332 21.3954C96.9049 21.4848 97.2204 21.3317 97.6272 21.2543C98.6294 21.674 99.5172 22.3775 100.402 23.3717C100.773 23.7982 101.083 24.2861 101.321 24.8182C101.268 25.2155 100.816 25.4632 100.841 25.6782C100.867 25.919 101.536 25.6541 101.536 25.6541L101.627 25.5887C102.382 27.7835 102.315 30.1983 102.315 30.1983L93.131 30.4942C93.131 30.4942 96.0944 31.1323 95.7603 31.2062C95.4263 31.2802 91.0739 30.4443 91.0739 30.4443L88.706 27.2795L90.1676 27.5375L88.375 23.9805Z" fill="#EF233C"/>
<path d="M98.9258 28.3798C99.1749 28.3211 99.429 28.2934 99.6836 28.2972C99.9296 28.3299 100.268 28.6533 100.268 28.6533C100.077 28.7394 99.8753 28.7905 99.6697 28.8046C99.3774 28.8167 98.9258 28.3798 98.9258 28.3798Z" fill="white"/>
<path d="M97.6211 29.2724C97.8702 29.2137 98.1244 29.186 98.379 29.1898C98.6249 29.2225 98.9636 29.5458 98.9636 29.5458C98.7728 29.6323 98.5706 29.6834 98.365 29.6972C98.0743 29.7041 97.6211 29.2724 97.6211 29.2724Z" fill="white"/>
<path d="M98.3711 26.3587C98.5866 26.2084 98.8164 26.0849 99.0563 25.9906C99.2975 25.9269 99.7167 26.1007 99.7167 26.1007C99.564 26.2544 99.3901 26.3798 99.2017 26.4722C98.9356 26.5891 98.3711 26.3587 98.3711 26.3587Z" fill="white"/>
<path d="M96.7109 27.5201C96.9263 27.3694 97.1561 27.246 97.3961 27.152C97.6374 27.0901 98.0565 27.2638 98.0565 27.2638C97.9036 27.4167 97.7297 27.5415 97.5415 27.6336C97.2693 27.7523 96.7109 27.5201 96.7109 27.5201Z" fill="white"/>
<path d="M94.543 27.6529C94.7583 27.5022 94.9881 27.3788 95.2281 27.2848C95.4694 27.2229 95.8886 27.3966 95.8886 27.3966C95.7352 27.5498 95.5608 27.6746 95.372 27.7664C95.1013 27.8851 94.543 27.6529 94.543 27.6529Z" fill="white"/>
<path d="M97.2227 24.9208C97.3458 24.6738 97.4937 24.443 97.6635 24.2328C97.8475 24.0488 98.2899 23.9766 98.2899 23.9766C98.2228 24.1929 98.1246 24.3956 97.9991 24.5768C97.8119 24.8245 97.2227 24.9208 97.2227 24.9208Z" fill="white"/>
<path d="M95.1634 23.7827C95.143 23.5005 95.1508 23.2167 95.1866 22.9365C95.2485 22.6699 95.581 22.3379 95.581 22.3379C95.6328 22.5595 95.6521 22.7889 95.6382 23.0173C95.6057 23.3407 95.1634 23.7827 95.1634 23.7827Z" fill="white"/>
<path d="M95.3633 26.2133C95.4078 25.9345 95.4804 25.6621 95.5798 25.4014C95.7005 25.1606 96.0964 24.9336 96.0964 24.9336C96.0964 25.1622 96.0629 25.3894 95.9974 25.6061C95.8969 25.9088 95.3633 26.2133 95.3633 26.2133Z" fill="white"/>
<path d="M93.3182 24.2107C93.1751 23.9761 93.0558 23.7246 92.9624 23.4608C92.8975 23.1959 93.0382 22.7246 93.0382 22.7246C93.1816 22.8887 93.3002 23.0774 93.3893 23.2836C93.5069 23.5812 93.3182 24.2107 93.3182 24.2107Z" fill="white"/>
<path d="M91.6131 25.3159C91.3912 25.1811 91.1837 25.019 90.9944 24.8325C90.8259 24.6296 90.7578 24.1445 90.7578 24.1445C90.9529 24.2177 91.1361 24.3252 91.3007 24.4627C91.5219 24.6623 91.6131 25.3159 91.6131 25.3159Z" fill="white"/>
<path d="M93.2444 26.3059C93.0228 26.1699 92.8153 26.0073 92.6257 25.8208C92.4587 25.6179 92.3906 25.1328 92.3906 25.1328C92.5857 25.206 92.769 25.3134 92.9335 25.451C93.1531 25.6523 93.2444 26.3059 93.2444 26.3059Z" fill="white"/>
<path d="M91.4509 27.416C91.2013 27.3614 90.958 27.276 90.7255 27.1614C90.5105 27.0256 90.3125 26.5801 90.3125 26.5801C90.5182 26.5844 90.7219 26.6256 90.9157 26.7022C91.1864 26.8226 91.4509 27.416 91.4509 27.416Z" fill="white"/>
<path d="M83.0412 22.2033C83.0412 22.2033 82.7659 21.1988 83.0134 19.582C83.4263 19.398 83.8192 19.2208 83.9228 19.1692C84.1099 19.0729 83.6026 18.5105 83.3645 18.0822C83.4139 17.9205 83.4696 17.7571 83.5315 17.5885C83.7867 17.5885 84.1502 17.6883 84.3419 17.6229C84.6203 17.5301 84.1548 17.3082 83.7913 16.9349C84.0161 16.423 84.2714 15.9282 84.5554 15.454C85.4401 13.9714 86.3217 12.874 87.2682 12.0622C87.5149 12.1386 87.7748 12.1457 88.0246 12.0828C88.2349 11.9968 88.3803 11.5668 88.6602 11.1162C89.8171 10.5142 91.0978 10.2562 92.5996 10.2441C93.2372 10.2468 93.8706 10.3593 94.4773 10.5778C94.7386 10.9579 94.553 11.5926 94.7386 11.7509C94.9242 11.9091 95.2985 11.0629 95.2985 11.0629L95.3233 10.9218C97.6433 12.0329 99.4405 14.109 99.4405 14.109L92.0165 23.0822C92.0165 23.0822 94.9768 20.7981 94.7603 21.1713C94.5438 21.5445 90.2579 25.0138 90.2579 25.0138L85.8561 24.6302L87.2713 23.4555L83.0412 22.2033Z" fill="#EF233C"/>
<path d="M95.2227 15.8502C95.3847 15.5643 95.5751 15.2995 95.7903 15.0607C96.0207 14.8543 96.5512 14.8027 96.5512 14.8027C96.4577 15.0536 96.3281 15.286 96.1677 15.4907C95.9295 15.7797 95.2227 15.8502 95.2227 15.8502Z" fill="white"/>
<path d="M94.8125 17.8287C94.9748 17.5425 95.1657 17.2776 95.3817 17.0393C95.6121 16.8328 96.1426 16.7812 96.1426 16.7812C96.049 17.0321 95.9195 17.2645 95.7591 17.4693C95.524 17.7582 94.8125 17.8287 94.8125 17.8287Z" fill="white"/>
<path d="M93.207 14.6824C93.2708 14.352 93.3678 14.0306 93.4963 13.7244C93.6509 13.4423 94.1304 13.1895 94.1304 13.1895C94.1212 13.4625 94.0721 13.732 93.985 13.9875C93.8504 14.3453 93.207 14.6824 93.207 14.6824Z" fill="white"/>
<path d="M92.7109 17.2332C92.7746 16.903 92.8711 16.5817 92.9986 16.2752C93.1533 15.9948 93.6343 15.7402 93.6343 15.7402C93.625 16.0138 93.5759 16.2839 93.4889 16.54C93.3528 16.8961 92.7109 17.2332 92.7109 17.2332Z" fill="white"/>
<path d="M91.0078 19.4031C91.0715 19.0729 91.168 18.7516 91.2955 18.4451C91.4502 18.163 91.9296 17.9102 91.9296 17.9102C91.9214 18.1832 91.8728 18.4528 91.7858 18.7082C91.6497 19.066 91.0078 19.4031 91.0078 19.4031Z" fill="white"/>
<path d="M91.139 14.5799C91.0546 14.2559 91.0027 13.9225 90.9844 13.5857C90.9967 13.2572 91.3092 12.7773 91.3092 12.7773C91.419 13.0219 91.4931 13.2843 91.5288 13.5548C91.5566 13.9332 91.139 14.5799 91.139 14.5799Z" fill="white"/>
<path d="M88.5487 15.5916C88.315 15.3754 88.1039 15.1308 87.9192 14.8623C87.7645 14.5819 87.7862 13.9902 87.7862 13.9902C87.9999 14.1266 88.1922 14.3009 88.3554 14.5062C88.5765 14.7935 88.5487 15.5916 88.5487 15.5916Z" fill="white"/>
<path d="M90.5812 17.4268C90.4042 17.1522 90.2558 16.8562 90.1388 16.5445C90.0538 16.2297 90.2084 15.6621 90.2084 15.6621C90.3825 15.8536 90.5273 16.0756 90.6368 16.3191C90.7915 16.67 90.5812 17.4268 90.5812 17.4268Z" fill="white"/>
<path d="M87.3359 17.7001C87.037 17.6411 86.745 17.5453 86.4651 17.4146C86.2068 17.2546 85.9609 16.7266 85.9609 16.7266C86.207 16.7273 86.4514 16.772 86.6848 16.859C87.0096 16.9983 87.3359 17.7001 87.3359 17.7001Z" fill="white"/>
<path d="M86.7709 20.242C86.4806 20.3414 86.1813 20.4042 85.8785 20.4295C85.583 20.4295 85.1484 20.0855 85.1484 20.0855C85.3672 19.9603 85.6028 19.8754 85.846 19.8344C86.1893 19.7811 86.7709 20.242 86.7709 20.242Z" fill="white"/>
<path d="M88.8881 19.517C88.5974 19.6173 88.2975 19.6808 87.9941 19.7062C87.6987 19.6959 87.2656 19.3519 87.2656 19.3519C87.484 19.2274 87.719 19.1432 87.9616 19.1025C88.3081 19.0595 88.8881 19.517 88.8881 19.517Z" fill="white"/>
<path d="M88.2439 22.1425C87.9944 22.3354 87.7261 22.4963 87.4442 22.6224C87.1596 22.7118 86.6523 22.5295 86.6523 22.5295C86.8273 22.3373 87.0288 22.1776 87.2494 22.0565C87.568 21.9 88.2439 22.1425 88.2439 22.1425Z" fill="white"/>
<path d="M90.9597 32.4888L90.3782 27.432L90.1957 25.6449L86.7188 24.993L90.1322 25.0223L89.4161 18.0391L90.4215 23.7959L94.2108 18.0717L90.7664 24.3859L91.7516 29.4427L95.4512 22.8103L90.9597 32.4888Z" fill="#263238" stroke="#263238" stroke-linecap="round" stroke-linejoin="round"/>
<path d="M111.61 58.3203H23.9375V83.047H111.624" fill="#B0B0B0"/>
<path d="M111.61 58.3203H23.9375V83.047H111.624" stroke="#263238" stroke-miterlimit="10"/>
<path d="M111.61 58.3203H23.9375V62.997H111.61V58.3203Z" fill="#263238" stroke="#263238" stroke-miterlimit="10"/>
<path d="M52.0934 60.8359H31.1484V83.0652H52.0934V60.8359Z" fill="#B0B0B0" stroke="#263238" stroke-miterlimit="10"/>
<path d="M52.452 60.8359H32.0469V83.0652H52.452V60.8359Z" fill="#EF233C" stroke="#263238" stroke-miterlimit="10"/>
<path d="M51.7306 62.4863H43.1914V73.4823H51.7306V62.4863Z" fill="white" stroke="#263238" stroke-miterlimit="10"/>
<path d="M43.1925 75.2812V83.0299H42.0232V75.2812H33.3047V83.066H51.7317V75.2812H43.1925Z" fill="white" stroke="#263238" stroke-miterlimit="10"/>
<path d="M42.0248 62.4863H33.3047V73.4823H42.0248V62.4863Z" fill="white" stroke="#263238" stroke-miterlimit="10"/>
<path d="M50.5643 65.5957L45.9336 70.7437" stroke="#263238" stroke-miterlimit="10"/>
<path d="M49.7535 64.3965L48.4961 65.7948" stroke="#263238" stroke-miterlimit="10"/>
<path d="M40.6756 76.8926L36.7656 81.2407" stroke="#263238" stroke-miterlimit="10"/>
<path d="M39.2365 65.5957L37.3047 67.7457" stroke="#263238" stroke-miterlimit="10"/>
<path d="M37.618 66.3945L35.1016 69.193" stroke="#263238" stroke-miterlimit="10"/>
<path d="M49.6621 78.1914L47.6406 80.4412" stroke="#263238" stroke-miterlimit="10"/>
<path d="M46.9696 75.791L45.5312 77.3906" stroke="#263238" stroke-miterlimit="10"/>
<path d="M111.921 30.2676H46.491L24.0195 54.1928H111.566" fill="white"/>
<path d="M111.921 30.2676H46.491L24.0195 54.1928H111.566" stroke="#263238" stroke-miterlimit="10"/>
<path d="M45.1133 31.8789H111.759" stroke="#263238" stroke-miterlimit="10"/>
<path d="M42.5859 34.4258H111.679" stroke="#263238" stroke-miterlimit="10"/>
<path d="M39.582 37.5898H111.678" stroke="#263238" stroke-miterlimit="10"/>
<path d="M36.3203 41.1914H112.158" stroke="#263238" stroke-miterlimit="10"/>
<path d="M32.3477 45.3223H111.919" stroke="#263238" stroke-miterlimit="10"/>
<path d="M28.1523 49.8613H111.969" stroke="#263238" stroke-miterlimit="10"/>
<path d="M111.918 29.5078H47.1178L46.4883 30.2681H111.918V29.5078Z" fill="white" stroke="#263238" stroke-miterlimit="10"/>
<path d="M37.1015 49.8242L33.4297 54.0262" stroke="#263238" stroke-miterlimit="10"/>
<path d="M36.9253 45.3145L32.9844 49.8243" stroke="#263238" stroke-miterlimit="10"/>
<path d="M44.6567 41.1738L41.0391 45.3139" stroke="#263238" stroke-miterlimit="10"/>
<path d="M43.2358 37.668L40.1719 41.175" stroke="#263238" stroke-miterlimit="10"/>
<path d="M50.6722 34.293L47.7227 37.6676" stroke="#263238" stroke-miterlimit="10"/>
<path d="M48.4896 31.8164L46.3242 34.2932" stroke="#263238" stroke-miterlimit="10"/>
<path d="M54.2589 30.1875L52.8359 31.8163" stroke="#263238" stroke-miterlimit="10"/>
<path d="M46.8187 49.8242L43.1484 54.0262" stroke="#263238" stroke-miterlimit="10"/>
<path d="M46.6495 45.3145L42.707 49.8243" stroke="#263238" stroke-miterlimit="10"/>
<path d="M54.3794 41.1738L50.7617 45.3139" stroke="#263238" stroke-miterlimit="10"/>
<path d="M52.9546 37.668L49.8906 41.175" stroke="#263238" stroke-miterlimit="10"/>
<path d="M60.3909 34.293L57.4414 37.6676" stroke="#263238" stroke-miterlimit="10"/>
<path d="M58.2107 31.8164L56.0469 34.2932" stroke="#263238" stroke-miterlimit="10"/>
<path d="M63.9815 30.1875L62.5586 31.8163" stroke="#263238" stroke-miterlimit="10"/>
<path d="M56.539 49.8242L52.8672 54.0262" stroke="#263238" stroke-miterlimit="10"/>
<path d="M56.3682 45.3145L52.4258 49.8243" stroke="#263238" stroke-miterlimit="10"/>
<path d="M64.1005 41.1738L60.4844 45.3139" stroke="#263238" stroke-miterlimit="10"/>
<path d="M62.6772 37.668L59.6133 41.175" stroke="#263238" stroke-miterlimit="10"/>
<path d="M70.1136 34.293L67.1641 37.6676" stroke="#263238" stroke-miterlimit="10"/>
<path d="M67.931 31.8164L65.7656 34.2932" stroke="#263238" stroke-miterlimit="10"/>
<path d="M73.7018 30.1875L72.2773 31.8163" stroke="#263238" stroke-miterlimit="10"/>
<path d="M66.2616 49.8242L62.5898 54.0262" stroke="#263238" stroke-miterlimit="10"/>
<path d="M66.0893 45.3145L62.1484 49.8243" stroke="#263238" stroke-miterlimit="10"/>
<path d="M73.8192 41.1738L70.2031 45.3139" stroke="#263238" stroke-miterlimit="10"/>
<path d="M72.3975 37.668L69.332 41.175" stroke="#263238" stroke-miterlimit="10"/>
<path d="M79.8362 34.293L76.8867 37.6676" stroke="#263238" stroke-miterlimit="10"/>
<path d="M77.6497 31.8164L75.4844 34.2932" stroke="#263238" stroke-miterlimit="10"/>
<path d="M83.4229 30.1875L82 31.8163" stroke="#263238" stroke-miterlimit="10"/>
<path d="M75.9804 49.8242L72.3086 54.0262" stroke="#263238" stroke-miterlimit="10"/>
<path d="M75.8081 45.3145L71.8672 49.8243" stroke="#263238" stroke-miterlimit="10"/>
<path d="M83.5395 41.1738L79.9219 45.3139" stroke="#263238" stroke-miterlimit="10"/>
<path d="M82.1147 37.668L79.0508 41.175" stroke="#263238" stroke-miterlimit="10"/>
<path d="M89.555 34.293L86.6055 37.6676" stroke="#263238" stroke-miterlimit="10"/>
<path d="M87.3724 31.8164L85.207 34.2932" stroke="#263238" stroke-miterlimit="10"/>
<path d="M93.1417 30.1875L91.7188 31.8163" stroke="#263238" stroke-miterlimit="10"/>
<path d="M85.7015 49.8242L82.0312 54.0262" stroke="#263238" stroke-miterlimit="10"/>
<path d="M85.5284 45.3145L81.5859 49.8243" stroke="#263238" stroke-miterlimit="10"/>
<path d="M93.2622 41.1738L89.6445 45.3139" stroke="#263238" stroke-miterlimit="10"/>
<path d="M91.8374 37.668L88.7734 41.175" stroke="#263238" stroke-miterlimit="10"/>
<path d="M99.2737 34.293L96.3242 37.6676" stroke="#263238" stroke-miterlimit="10"/>
<path d="M97.0896 31.8164L94.9258 34.2932" stroke="#263238" stroke-miterlimit="10"/>
<path d="M102.864 30.1875L101.441 31.8163" stroke="#263238" stroke-miterlimit="10"/>
<path d="M95.4218 49.8242L91.75 54.0262" stroke="#263238" stroke-miterlimit="10"/>
<path d="M95.251 45.3145L91.3086 49.8243" stroke="#263238" stroke-miterlimit="10"/>
<path d="M102.981 41.1738L99.3633 45.3139" stroke="#263238" stroke-miterlimit="10"/>
<path d="M101.556 37.668L98.4922 41.175" stroke="#263238" stroke-miterlimit="10"/>
<path d="M108.996 34.293L106.047 37.6676" stroke="#263238" stroke-miterlimit="10"/>
<path d="M106.812 31.8164L104.648 34.2932" stroke="#263238" stroke-miterlimit="10"/>
<path d="M105.144 49.8242L101.473 54.0262" stroke="#263238" stroke-miterlimit="10"/>
<path d="M104.968 45.3145L101.027 49.8243" stroke="#263238" stroke-miterlimit="10"/>
<path d="M111.196 42.9004L109.086 45.3153" stroke="#263238" stroke-miterlimit="10"/>
<path d="M111.276 37.668L108.211 41.175" stroke="#263238" stroke-miterlimit="10"/>
<path d="M111.727 56.6209H22.3557C20.7904 56.1857 20.0078 54.0977 20.0078 54.0977H111.807" fill="#EF233C"/>
<path d="M111.727 56.6209H22.3557C20.7904 56.1857 20.0078 54.0977 20.0078 54.0977H111.807" stroke="#263238" stroke-miterlimit="10"/>
<path d="M111.727 58.5355H22.3555V56.6211H111.727" fill="#EF233C"/>
<path d="M111.727 58.5355H22.3555V56.6211H111.727" stroke="#263238" stroke-miterlimit="10"/>
<path d="M56.2316 45.7566L52.7773 47.8086L53.2977 48.8918L56.7519 46.8399L56.2316 45.7566Z" fill="#263238" stroke="#263238" stroke-miterlimit="10"/>
<path d="M66.831 39.7539L56.3438 45.9863L56.6412 46.6053L67.1284 40.3728L66.831 39.7539Z" fill="#B0B0B0" stroke="#263238" stroke-miterlimit="10"/>
<path d="M88.2256 26.4501L66.6094 39.291L67.3534 40.84L88.9696 27.9991L88.2256 26.4501Z" fill="#B0B0B0" stroke="#263238" stroke-miterlimit="10"/>
<path d="M80.9462 20.4052C80.9462 20.4052 80.9462 21.2308 80.9864 22.4932C81.0267 23.7557 81.0638 24.1462 81.3375 24.5366C81.6113 24.927 81.8464 25.3209 81.6902 25.8868C81.534 26.4527 81.4938 26.7554 81.9253 26.9738C82.1546 27.102 82.414 27.1477 82.6677 27.1046C82.6677 27.1046 83.5292 28.0609 83.8803 28.41C84.2313 28.7592 84.3891 29.1926 84.7804 29.0189C85.1717 28.8452 85.9543 28.1916 85.9543 28.1916L90.8836 25.7561C90.8836 25.7561 89.1235 23.711 88.7321 22.6601C88.3408 21.6092 88.3022 19.5641 87.5196 18.7436C86.737 17.9232 84.8902 17.2214 83.724 17.6566C82.5579 18.0918 80.8689 19.1788 80.8689 19.1788C80.8689 19.1788 79.7336 20.0061 79.8125 20.2228C79.8914 20.4396 80.1636 20.2676 80.1636 20.2676C80.1636 20.2676 79.7723 21.1379 80.009 21.1809C80.2456 21.2239 80.9462 20.4052 80.9462 20.4052Z" fill="white" stroke="#263238" stroke-miterlimit="10"/>
<path d="M82.2092 20.7939C82.0545 21.229 82.4629 21.8396 82.7366 21.7949C83.0104 21.7502 83.4434 21.7949 83.4821 21.9669C83.5208 22.1389 83.8146 23.0712 84.0095 23.0712C84.2044 23.0712 84.3513 22.5552 84.3513 22.5552L84.506 22.796L84.8787 21.9686C84.8787 21.9686 85.1742 21.2308 85.6521 21.7089C85.9355 22.0206 86.1014 22.4407 86.1161 22.8837C86.3924 23.105 86.6801 23.3083 86.9776 23.4926C87.4075 23.754 87.5638 23.1486 87.5638 23.1486C87.5638 23.1486 87.9551 23.6646 88.15 23.6267C88.3448 23.5889 88.5304 22.562 88.6139 22.2628C88.3278 21.1602 88.2165 19.4832 87.5313 18.754C86.7487 17.9284 84.902 17.2318 83.7358 17.6669C82.5696 18.1021 80.8806 19.1891 80.8806 19.1891C80.8806 19.1891 79.7454 20.0164 79.8242 20.2332C79.9031 20.4499 80.1753 20.2779 80.1753 20.2779C80.1753 20.2779 79.6557 21.6539 79.8907 21.6952C80.1258 21.7364 81.0709 21.3168 81.0709 21.3168C81.0709 21.3168 82.3654 20.3604 82.2092 20.7939Z" fill="#263238" stroke="#263238" stroke-miterlimit="10"/>
<path d="M82.5025 24.4784C82.6045 24.7192 82.5937 24.9652 82.4793 25.0254C82.3648 25.0856 82.1885 24.9377 82.0864 24.6952C81.9843 24.4526 81.9936 24.2084 82.1081 24.1482C82.2225 24.088 82.4004 24.2359 82.5025 24.4784Z" fill="#263238"/>
<path d="M83.1797 27.4092C83.1797 27.4092 83.489 27.1478 83.2972 26.4082" stroke="#263238" stroke-miterlimit="10"/>
<path d="M81.5354 24.3196C81.5354 24.3196 81.4179 23.4922 82.434 23.4062" stroke="#263238" stroke-miterlimit="10"/>
<path d="M84.4688 23.0575C84.4688 23.0575 84.6234 21.7537 85.2514 21.666C85.8793 21.5783 86.3077 22.4933 86.0726 23.4496C85.8375 24.406 85.6427 24.9288 85.1725 24.7981" stroke="#263238" stroke-miterlimit="10"/>
<path d="M85.957 28.192L86.2308 26.4961" stroke="#263238" stroke-miterlimit="10"/>
<path d="M86.6984 25.7109L86.3086 27.2779" stroke="#263238" stroke-miterlimit="10"/>
<path d="M99.7707 26.8133L97.2682 25.4545C97.2682 25.4545 95.3627 23.9598 95.174 24.0131C94.9853 24.0664 94.3744 24.7458 94.0913 25.1122C93.8994 25.3542 93.6927 25.5812 93.4727 25.7916L99.5418 27.4136L99.7707 26.8133Z" fill="#EF233C" stroke="#263238" stroke-miterlimit="10"/>
<path d="M85.9547 27.9456L83.7058 30.0888C83.7058 30.0888 82.5149 31.076 82.4112 31.482C82.3076 31.8879 89.6558 47.822 89.6558 47.822L99.6024 45.8715L97.267 25.4551L90.7509 25.5136L85.9547 27.9456Z" fill="#EF233C" stroke="#263238" stroke-miterlimit="10"/>
<path d="M92.1121 27.6719L90.3906 32.8095" stroke="#263238" stroke-miterlimit="10"/>
<path d="M92.112 30.0879L90.8438 33.8168" stroke="#263238" stroke-miterlimit="10"/>
<path d="M99.7728 26.8145C99.7728 26.8145 103.021 27.9204 103.253 28.1045C103.485 28.2885 104.379 29.3566 104.379 29.8726C104.379 30.3886 104.147 31.2366 103.949 31.3467C103.751 31.4567 100.569 31.0525 100.569 31.0525L98.9453 26.8884L99.7728 26.8145Z" fill="white" stroke="#263238" stroke-miterlimit="10"/>
<path d="M97.2695 25.4531L101.022 27.8302L100.657 31.8292L97.9702 31.6658L97.2695 25.4531Z" fill="#EF233C" stroke="#263238" stroke-miterlimit="10"/>
<path d="M97.9688 31.6663L98.4498 27.9648" stroke="#263238" stroke-miterlimit="10"/>
<path d="M98.0673 31.0794L97.8477 26.377" stroke="#263238" stroke-miterlimit="10"/>
<path d="M82.4121 31.4824L78.8672 38.2076L82.621 40.0033L84.8621 37.4525L82.4121 31.4824Z" fill="#EF233C" stroke="#263238" stroke-miterlimit="10"/>
<path d="M82.6366 36.3906L84.8623 37.4519L81.4844 37.3074" stroke="#263238" stroke-miterlimit="10"/>
<path d="M75.8516 38.1628C75.8516 38.1628 75.7185 37.2048 75.8516 36.9468C75.9846 36.6888 76.546 36.0266 76.58 35.8047C76.6141 35.5828 76.679 35.1786 76.679 35.1786C76.679 35.1786 75.785 35.1425 75.553 34.9567C75.321 34.771 75.089 34.1845 75.055 33.9626C75.021 33.7407 74.4255 33.4844 74.3606 33.6685C74.2535 33.8518 74.119 34.0135 73.9631 34.1466C73.9631 34.1466 73.233 34.0365 73.0351 34.2567C72.9165 34.3875 72.8159 34.537 72.7366 34.7005C72.7366 34.7005 72.1396 34.8105 72.1071 35.0307L72.0746 35.2595C71.9476 35.3187 71.8374 35.415 71.7558 35.5383C71.6741 35.6615 71.6239 35.8071 71.6106 35.9595C71.5804 36.2381 71.6262 36.5203 71.7421 36.7696C71.7761 36.8797 72.8696 39.0177 73.0351 39.3857C73.1749 39.6435 73.3706 39.8581 73.6043 40.0101C73.6043 40.0101 75.6196 39.6007 75.8516 38.1628Z" fill="#EF233C" stroke="#263238" stroke-miterlimit="10"/>
<path d="M79.2314 37.8574L77.5115 40.2345L75.5828 37.9744C75.5828 37.9744 74.644 37.8574 74.1228 38.6624C73.6016 39.4673 73.6016 39.9954 73.6016 39.9954L78.0328 45.4443C78.3783 45.3903 78.7035 45.2301 78.9716 44.9817C79.3876 44.5757 82.6202 39.9937 82.6202 39.9937L79.2314 37.8574Z" fill="white" stroke="#263238" stroke-miterlimit="10"/>
<path d="M77.5128 40.2344L76.625 41.4676" stroke="#263238" stroke-miterlimit="10"/>
<path d="M102.24 62.4961H87.707V64.8955H102.24V62.4961Z" fill="white" stroke="#263238" stroke-miterlimit="10"/>
<path d="M102.24 75.3926H87.707V77.792H102.24V75.3926Z" fill="white" stroke="#263238" stroke-miterlimit="10"/>
<path d="M102.236 83.0879H104.41V51.3986H102.236V83.0879Z" fill="white" stroke="#263238" stroke-miterlimit="10"/>
<path d="M102.81 83.0879H104.984V51.3986H102.81V83.0879Z" fill="white" stroke="#263238" stroke-miterlimit="10"/>
<path d="M85.5324 83.0879H87.707V51.3986H85.5324V83.0879Z" fill="white" stroke="#263238" stroke-miterlimit="10"/>
<path d="M86.1027 83.0879H88.2773V51.3986H86.1027V83.0879Z" fill="white" stroke="#263238" stroke-miterlimit="10"/>
<path d="M88.1867 47.8202L89.6097 73.6736L90.1525 80.4572L90.2098 83.0648H95.1591L96.5913 61.6146L99.8068 83.0648H105.277L103.166 55.433L101.064 45.1061L97.8951 36.255L96.1428 28.3619L95.5844 25.4551H93.8893L94.5683 27.5655L96.2526 35.61L91.6435 36.8914L85.4754 28.5236L84.0664 29.7964L89.7458 38.3981L88.1867 47.8202Z" fill="#263238" stroke="#263238" stroke-miterlimit="10"/>
<path d="M98.4727 50.5068L101.529 49.6777" stroke="#B8B8B8" stroke-miterlimit="10"/>
<path d="M94.9629 51.502L90.1172 52.331C90.1172 52.331 90.7127 57.804 91.0854 58.2186C91.4581 58.6331 93.6962 59.3796 94.2916 59.0476C94.8871 58.7156 95.6342 57.2227 95.6342 57.2227" stroke="#B8B8B8" stroke-miterlimit="10"/>
<path d="M98.2484 53.4902C98.2484 53.4902 98.0937 56.1442 98.9939 56.9732C99.8941 57.8023 101.753 57.7197 102.126 57.3878C102.499 57.0558 103.162 55.4321 103.162 55.4321" stroke="#B8B8B8" stroke-miterlimit="10"/>
<path d="M89.3008 46.6087L99.665 44.0391" stroke="#B8B8B8" stroke-miterlimit="10"/>
<path d="M90.2695 44.9505L98.77 43.043" stroke="#B8B8B8" stroke-miterlimit="10"/>
<path d="M96.5898 61.6143L97.8751 59.1289" stroke="#B8B8B8" stroke-miterlimit="10"/>
<path d="M91.5301 45.9229L91.2656 44.7464L91.9075 44.6191L92.1735 45.7973" stroke="#B8B8B8" stroke-miterlimit="10"/>
<path d="M97.6528 44.6185L97.3945 43.3577L98.0379 43.2734L98.3024 44.4929" stroke="#B8B8B8" stroke-miterlimit="10"/>
<path d="M41.6983 52.3945L40.082 53.0567" stroke="#263238" stroke-miterlimit="10"/>
<path d="M52.2807 48.0586L42.3867 52.1126" stroke="#263238" stroke-miterlimit="10"/>
<path d="M50.7249 50.0254L45.2188 53.3433" stroke="#263238" stroke-miterlimit="10"/>
<path d="M52.0915 49.2012L51.2578 49.7034" stroke="#263238" stroke-miterlimit="10"/>
<path d="M51.839 51.7754L51.4492 52.558" stroke="#263238" stroke-miterlimit="10"/>
<path d="M53.0546 49.3438L52.1328 51.1876" stroke="#263238" stroke-miterlimit="10"/>
<path d="M48.4215 47.9512L47.0156 48.0595" stroke="#263238" stroke-miterlimit="10"/>
<path d="M51.6417 47.7012L49 47.9059" stroke="#263238" stroke-miterlimit="10"/>
<path d="M37.7384 48.065C37.7384 48.065 37.2079 46.9384 36.3464 46.67C35.485 46.4017 34.3203 46.67 34.3203 46.67C34.3203 46.67 34.939 47.6367 35.4293 48.065C35.9196 48.4932 37.7384 48.065 37.7384 48.065Z" fill="#EF233C" stroke="#263238" stroke-miterlimit="10"/>
<path d="M34.3203 46.6699C34.3203 46.6699 37.474 47.8 37.7446 48.0648" stroke="#263238" stroke-miterlimit="10"/>
<path d="M34.9102 47.4272L35.453 47.1142L35.3664 46.6309" stroke="#263238" stroke-width="0.5" stroke-miterlimit="10"/>
<path d="M35.4297 48.0649L36.0375 47.3322V46.6562" stroke="#263238" stroke-width="0.5" stroke-miterlimit="10"/>
<path d="M36.2109 48.1762L36.7523 47.6447L36.6873 46.8965" stroke="#263238" stroke-width="0.5" stroke-miterlimit="10"/>
<path d="M37.2502 50.188C37.2502 50.188 36.7197 49.0614 35.8582 48.7931C34.9967 48.5248 33.832 48.7931 33.832 48.7931C33.832 48.7931 34.46 49.758 34.9425 50.188C35.4251 50.618 37.2502 50.188 37.2502 50.188Z" fill="#EF233C" stroke="#263238" stroke-miterlimit="10"/>
<path d="M33.8242 48.793C33.8242 48.793 36.9779 49.9213 37.2501 50.1879" stroke="#263238" stroke-miterlimit="10"/>
<path d="M34.4141 49.5503L34.9569 49.2372L34.8703 48.7539" stroke="#263238" stroke-width="0.5" stroke-miterlimit="10"/>
<path d="M34.9375 50.1877L35.5453 49.4533V48.7773" stroke="#263238" stroke-width="0.5" stroke-miterlimit="10"/>
<path d="M35.7188 50.2992L36.2601 49.7677L36.1951 49.0195" stroke="#263238" stroke-width="0.5" stroke-miterlimit="10"/>
<path d="M38.0811 53.2479C38.0811 53.2479 38.9534 52.4258 38.9998 51.4264C39.0462 50.4271 38.559 49.2266 38.559 49.2266C38.559 49.2266 37.8476 50.1175 37.5769 50.735C37.3062 51.3525 38.0811 53.2479 38.0811 53.2479Z" fill="#EF233C" stroke="#263238" stroke-miterlimit="10"/>
<path d="M38.56 49.2266C38.56 49.2266 38.2506 52.8953 38.082 53.2479" stroke="#263238" stroke-miterlimit="10"/>
<path d="M38.0195 50.0312L38.4124 50.5507L38.8176 50.3512" stroke="#263238" stroke-width="0.5" stroke-miterlimit="10"/>
<path d="M37.5742 50.7363L38.3506 51.2351L38.943 51.0889" stroke="#263238" stroke-width="0.5" stroke-miterlimit="10"/>
<path d="M37.6484 51.6074L38.2315 52.0804L38.8749 51.8465" stroke="#263238" stroke-width="0.5" stroke-miterlimit="10"/>
<path d="M34.5538 43.5409C34.5538 43.5409 35.4261 42.7204 35.4725 41.7194C35.5189 40.7184 35.0317 39.5195 35.0317 39.5195C35.0317 39.5195 34.3202 40.4105 34.0496 41.028C33.7789 41.6454 34.5538 43.5409 34.5538 43.5409Z" fill="#EF233C" stroke="#263238" stroke-miterlimit="10"/>
<path d="M35.0287 39.5195C35.0287 39.5195 34.7194 43.1883 34.5508 43.5409" stroke="#263238" stroke-miterlimit="10"/>
<path d="M34.4922 40.3242L34.885 40.8437L35.2903 40.6459" stroke="#263238" stroke-width="0.5" stroke-miterlimit="10"/>
<path d="M34.0469 41.0273L34.8233 41.5261L35.4157 41.3799" stroke="#263238" stroke-width="0.5" stroke-miterlimit="10"/>
<path d="M34.1211 41.9004L34.7042 42.3734L35.3476 42.1395" stroke="#263238" stroke-width="0.5" stroke-miterlimit="10"/>
<path d="M38.7379 48.3573C38.7379 48.3573 39.6117 47.5369 39.6581 46.5358C39.7045 45.5348 39.2158 44.3359 39.2158 44.3359C39.2158 44.3359 38.5059 45.2269 38.2337 45.8444C37.9614 46.4619 38.7379 48.3573 38.7379 48.3573Z" fill="#EF233C" stroke="#263238" stroke-miterlimit="10"/>
<path d="M39.2123 44.3359C39.2123 44.3359 38.903 48.0047 38.7344 48.3573" stroke="#263238" stroke-miterlimit="10"/>
<path d="M38.6758 45.1406L39.0702 45.6618L39.4739 45.4623" stroke="#263238" stroke-width="0.5" stroke-miterlimit="10"/>
<path d="M38.2305 45.8438L39.0069 46.3443L39.5993 46.1963" stroke="#263238" stroke-width="0.5" stroke-miterlimit="10"/>
<path d="M38.3047 46.7168L38.8893 47.1898L39.5312 46.9559" stroke="#263238" stroke-width="0.5" stroke-miterlimit="10"/>
<path d="M32.6436 49.5819C32.6436 49.5819 33.5159 48.7615 33.5623 47.7604C33.6087 46.7594 33.1215 45.5605 33.1215 45.5605C33.1215 45.5605 32.4101 46.4515 32.1394 47.069C31.8687 47.6865 32.6436 49.5819 32.6436 49.5819Z" fill="#EF233C" stroke="#263238" stroke-miterlimit="10"/>
<path d="M33.1225 45.5605C33.1225 45.5605 32.8131 49.2293 32.6445 49.5819" stroke="#263238" stroke-miterlimit="10"/>
<path d="M32.5859 46.3652L32.9788 46.8864L33.384 46.6869" stroke="#263238" stroke-width="0.5" stroke-miterlimit="10"/>
<path d="M32.1406 47.0684L32.9171 47.5689L33.5094 47.421" stroke="#263238" stroke-width="0.5" stroke-miterlimit="10"/>
<path d="M32.2109 47.9414L32.794 48.4144L33.4374 48.1805" stroke="#263238" stroke-width="0.5" stroke-miterlimit="10"/>
<path d="M28.848 50.2539C28.848 50.2539 27.7035 50.2539 27.0848 50.9763C26.4662 51.6987 26.1367 52.9749 26.1367 52.9749C26.1367 52.9749 27.1977 52.8115 27.7638 52.5381C28.3299 52.2646 28.848 50.2539 28.848 50.2539Z" fill="#EF233C" stroke="#263238" stroke-miterlimit="10"/>
<path d="M26.1367 52.9742C26.1367 52.9742 28.5093 50.4045 28.848 50.2617" stroke="#263238" stroke-miterlimit="10"/>
<path d="M27.0168 52.7423L27.0214 52.0629L26.5977 51.9219" stroke="#263238" stroke-width="0.5" stroke-miterlimit="10"/>
<path d="M27.7649 52.5288L27.4664 51.588L26.9297 51.2715" stroke="#263238" stroke-width="0.5" stroke-miterlimit="10"/>
<path d="M28.2177 51.8142L28.0506 51.0316L27.4258 50.7461" stroke="#263238" stroke-width="0.5" stroke-miterlimit="10"/>
<path d="M30.2621 44.5996C30.2621 44.5996 29.1176 44.5996 28.4989 45.322C27.8802 46.0444 27.5508 47.3138 27.5508 47.3138C27.5508 47.3138 28.6118 47.1418 29.1779 46.8752C29.744 46.6086 30.2621 44.5996 30.2621 44.5996Z" fill="#EF233C" stroke="#263238" stroke-miterlimit="10"/>
<path d="M27.5508 47.3138C27.5508 47.3138 29.9234 44.7424 30.2621 44.5996" stroke="#263238" stroke-miterlimit="10"/>
<path d="M28.4285 47.09L28.4331 46.4106L28.0078 46.2695" stroke="#263238" stroke-width="0.5" stroke-miterlimit="10"/>
<path d="M29.175 46.8767L28.8765 45.9359L28.3398 45.6211" stroke="#263238" stroke-width="0.5" stroke-miterlimit="10"/>
<path d="M29.6294 46.1602L29.4608 45.3793L28.8359 45.0938" stroke="#263238" stroke-width="0.5" stroke-miterlimit="10"/>
<path d="M30.4829 48.4453C30.4829 48.4453 29.5394 49.1574 29.3848 50.1464C29.2301 51.1354 29.609 52.3824 29.609 52.3824C29.609 52.3824 30.4025 51.5826 30.7335 51.0064C31.0644 50.4302 30.4829 48.4453 30.4829 48.4453Z" fill="#EF233C" stroke="#263238" stroke-miterlimit="10"/>
<path d="M29.6172 52.3858C29.6172 52.3858 30.2776 48.7738 30.4849 48.4453" stroke="#263238" stroke-miterlimit="10"/>
<path d="M30.2313 51.6481L29.891 51.084L29.4688 51.2336" stroke="#263238" stroke-width="0.5" stroke-miterlimit="10"/>
<path d="M30.7411 51.004L30.0173 50.4141L29.4141 50.488" stroke="#263238" stroke-width="0.5" stroke-miterlimit="10"/>
<path d="M30.7542 50.128L30.219 49.5879L29.5586 49.741" stroke="#263238" stroke-width="0.5" stroke-miterlimit="10"/>
<path d="M42.0202 50.6631C42.0202 50.6631 40.9004 50.4051 40.1642 50.9813C39.428 51.5575 38.8789 52.7236 38.8789 52.7236C38.8789 52.7236 39.9477 52.7976 40.5524 52.6548C41.1571 52.5121 42.0202 50.6631 42.0202 50.6631Z" fill="#EF233C" stroke="#263238" stroke-miterlimit="10"/>
<path d="M38.8789 52.7242C38.8789 52.7242 41.6629 50.729 42.0202 50.6602" stroke="#263238" stroke-miterlimit="10"/>
<path d="M39.7801 52.6986L39.9069 52.033L39.5156 51.8008" stroke="#263238" stroke-width="0.5" stroke-miterlimit="10"/>
<path d="M40.5549 52.6556L40.4296 51.6666L39.9609 51.2383" stroke="#263238" stroke-width="0.5" stroke-miterlimit="10"/>
<path d="M41.1253 52.0532L41.1005 51.25L40.5391 50.832" stroke="#263238" stroke-width="0.5" stroke-miterlimit="10"/>
<path d="M23.7643 49.2969C23.7643 49.2969 23.6374 50.4011 24.1401 51.0788C24.6428 51.7565 25.594 52.2071 25.594 52.2071C25.594 52.2071 25.5785 51.1648 25.4269 50.5886C25.2754 50.0124 23.7643 49.2969 23.7643 49.2969Z" fill="#EF233C" stroke="#263238" stroke-miterlimit="10"/>
<path d="M25.5953 52.2071C25.5953 52.2071 23.8399 49.6392 23.7656 49.2969" stroke="#263238" stroke-miterlimit="10"/>
<path d="M25.5133 51.3352L24.9828 51.2578L24.8281 51.6534" stroke="#263238" stroke-width="0.5" stroke-miterlimit="10"/>
<path d="M25.4273 50.5898L24.6602 50.7773L24.3555 51.2624" stroke="#263238" stroke-width="0.5" stroke-miterlimit="10"/>
<path d="M24.9148 50.0742L24.2869 50.1533L23.9961 50.7261" stroke="#263238" stroke-width="0.5" stroke-miterlimit="10"/>
<path d="M22.2113 57.2871C22.2113 57.2871 21.0683 57.2871 20.4481 58.0078C19.8279 58.7285 19.5 59.9995 19.5 59.9995C19.5 59.9995 20.561 59.8361 21.1286 59.5627C21.6963 59.2892 22.2113 57.2871 22.2113 57.2871Z" fill="#EF233C" stroke="#263238" stroke-miterlimit="10"/>
<path d="M19.5 59.9995C19.5 59.9995 21.8726 57.4281 22.2113 57.2871" stroke="#263238" stroke-miterlimit="10"/>
<path d="M20.3801 59.7755L20.3847 59.0944L19.9609 58.9551" stroke="#263238" stroke-width="0.5" stroke-miterlimit="10"/>
<path d="M21.1297 59.562L20.8312 58.6212L20.293 58.3047" stroke="#263238" stroke-width="0.5" stroke-miterlimit="10"/>
<path d="M21.5825 58.8457L21.4139 58.0648L20.7891 57.7793" stroke="#263238" stroke-width="0.5" stroke-miterlimit="10"/>
<path d="M17.1275 56.3301C17.1275 56.3301 17.0007 57.4343 17.5034 58.112C18.0061 58.7897 18.9573 59.2403 18.9573 59.2403C18.9573 59.2403 18.9433 58.198 18.7902 57.6218C18.6371 57.0456 17.1275 56.3301 17.1275 56.3301Z" fill="#EF233C" stroke="#263238" stroke-miterlimit="10"/>
<path d="M18.9586 59.2403C18.9586 59.2403 17.2047 56.6724 17.1289 56.3301" stroke="#263238" stroke-miterlimit="10"/>
<path d="M18.8781 58.3684L18.3476 58.291L18.1914 58.6866" stroke="#263238" stroke-width="0.5" stroke-miterlimit="10"/>
<path d="M18.7906 57.623L18.0234 57.8105L17.7188 58.2956" stroke="#263238" stroke-width="0.5" stroke-miterlimit="10"/>
<path d="M18.2781 57.1074L17.6486 57.1865L17.3594 57.7593" stroke="#263238" stroke-width="0.5" stroke-miterlimit="10"/>
<path d="M20.2721 60.8379C20.2721 60.8379 20.1453 61.9421 20.6479 62.6198C21.1506 63.2975 22.1033 63.7481 22.1033 63.7481C22.1033 63.7481 22.0879 62.7058 21.9347 62.1296C21.7816 61.5534 20.2721 60.8379 20.2721 60.8379Z" fill="#EF233C" stroke="#263238" stroke-miterlimit="10"/>
<path d="M22.1047 63.7481C22.1047 63.7481 20.3492 61.1802 20.2734 60.8379" stroke="#263238" stroke-miterlimit="10"/>
<path d="M22.0227 62.8762L21.4921 62.7988L21.3359 63.1944" stroke="#263238" stroke-width="0.5" stroke-miterlimit="10"/>
<path d="M21.9351 62.1289L21.168 62.3164L20.8633 62.8014" stroke="#263238" stroke-width="0.5" stroke-miterlimit="10"/>
<path d="M21.4226 61.6133L20.7931 61.6924L20.5039 62.2652" stroke="#263238" stroke-width="0.5" stroke-miterlimit="10"/>
<path d="M34.3506 50.9258C34.3506 50.9258 34.2222 52.0317 34.7249 52.7077C35.2276 53.3837 36.1803 53.8377 36.1803 53.8377C36.1803 53.8377 36.1649 52.7937 36.0117 52.2175C35.8586 51.6413 34.3506 50.9258 34.3506 50.9258Z" fill="#EF233C" stroke="#263238" stroke-miterlimit="10"/>
<path d="M36.1813 53.8358C36.1813 53.8358 34.4258 51.2678 34.3516 50.9238" stroke="#263238" stroke-miterlimit="10"/>
<path d="M36.0969 52.9644L35.5664 52.8887L35.4102 53.2826" stroke="#263238" stroke-width="0.5" stroke-miterlimit="10"/>
<path d="M36.0093 52.2188L35.2422 52.4062L34.9375 52.8913" stroke="#263238" stroke-width="0.5" stroke-miterlimit="10"/>
<path d="M35.5008 51.7031L34.8713 51.7805L34.582 52.3533" stroke="#263238" stroke-width="0.5" stroke-miterlimit="10"/>
<path d="M26.7117 45.2051C26.7117 45.2051 26.073 45.685 25.9755 46.3523C25.8781 47.0197 26.1302 47.8625 26.1302 47.8625C26.4104 47.5816 26.6643 47.2698 26.8881 46.932C27.1077 46.5398 26.7117 45.2051 26.7117 45.2051Z" fill="#EF233C" stroke="#263238" stroke-miterlimit="10"/>
<path d="M26.1289 47.8625C26.1289 47.8625 26.5743 45.427 26.7135 45.2051" stroke="#263238" stroke-miterlimit="10"/>
<path d="M26.5408 47.3662L26.3119 46.9844L26.0273 47.0859" stroke="#263238" stroke-width="0.5" stroke-miterlimit="10"/>
<path d="M26.8862 46.9303L26.399 46.5312L25.9922 46.5811" stroke="#263238" stroke-width="0.5" stroke-miterlimit="10"/>
<path d="M26.8933 46.3393L26.5329 45.9746L26.0859 46.0795" stroke="#263238" stroke-width="0.5" stroke-miterlimit="10"/>
<path d="M31.917 43.1909C31.917 43.1909 31.8984 42.3309 31.4437 41.8837C30.989 41.4365 30.2188 41.2129 30.2188 41.2129C30.281 41.6243 30.3805 42.0277 30.5157 42.4169C30.6936 42.8435 31.917 43.1909 31.917 43.1909Z" fill="#EF233C" stroke="#263238" stroke-miterlimit="10"/>
<path d="M30.2188 41.2129C30.2188 41.2129 31.8242 42.9329 31.9201 43.1909" stroke="#263238" stroke-miterlimit="10"/>
<path d="M30.3711 41.8654L30.7841 41.8551L30.8598 41.5352" stroke="#263238" stroke-width="0.5" stroke-miterlimit="10"/>
<path d="M30.5156 42.4236L31.0802 42.1811L31.2611 41.7734" stroke="#263238" stroke-width="0.5" stroke-miterlimit="10"/>
<path d="M30.9609 42.7505L31.4311 42.6078L31.592 42.1348" stroke="#263238" stroke-width="0.5" stroke-miterlimit="10"/>
<path d="M21.2725 57.4565C21.2725 57.4565 21.2539 56.5965 20.7992 56.1493C20.3445 55.7021 19.5742 55.4785 19.5742 55.4785C19.6365 55.8899 19.736 56.2933 19.8712 56.6825C20.049 57.1039 21.2725 57.4565 21.2725 57.4565Z" fill="#EF233C" stroke="#263238" stroke-miterlimit="10"/>
<path d="M19.5742 55.4785C19.5742 55.4785 21.1797 57.1985 21.2756 57.4565" stroke="#263238" stroke-miterlimit="10"/>
<path d="M19.7266 56.1308L20.1395 56.1205L20.2153 55.7988" stroke="#263238" stroke-width="0.5" stroke-miterlimit="10"/>
<path d="M19.8711 56.689L20.4356 56.4465L20.6166 56.0371" stroke="#263238" stroke-width="0.5" stroke-miterlimit="10"/>
<path d="M20.3164 57.0142L20.7866 56.8732L20.9474 56.3984" stroke="#263238" stroke-width="0.5" stroke-miterlimit="10"/>
<path d="M21.0749 65.2832C21.0749 65.2832 20.3325 65.5154 20.0526 66.1157C19.7726 66.716 19.7695 67.6018 19.7695 67.6018C20.1151 67.4332 20.4442 67.2257 20.7517 66.9826C21.0734 66.6884 21.0749 65.2832 21.0749 65.2832Z" fill="#EF233C" stroke="#263238" stroke-miterlimit="10"/>
<path d="M19.7695 67.5959C19.7695 67.5959 20.8785 65.439 21.0749 65.2773" stroke="#263238" stroke-miterlimit="10"/>
<path d="M20.3029 67.2756L20.1915 66.8335L19.8945 66.8301" stroke="#263238" stroke-width="0.5" stroke-miterlimit="10"/>
<path d="M20.7517 66.9831L20.4006 66.4344L20 66.3398" stroke="#263238" stroke-width="0.5" stroke-miterlimit="10"/>
<path d="M20.9296 66.4262L20.6899 65.9532L20.2383 65.8965" stroke="#263238" stroke-width="0.5" stroke-miterlimit="10"/>
<path d="M22.8326 45.3764C22.8326 45.3764 22.8125 44.5164 22.3593 44.0692C21.9061 43.622 21.1328 43.3984 21.1328 43.3984C21.1951 43.8101 21.2951 44.2135 21.4313 44.6024C21.6076 45.029 22.8326 45.3764 22.8326 45.3764Z" fill="#EF233C" stroke="#263238" stroke-miterlimit="10"/>
<path d="M21.1328 43.3984C21.1328 43.3984 22.7383 45.1184 22.8341 45.3764" stroke="#263238" stroke-miterlimit="10"/>
<path d="M21.2852 44.0527L21.6981 44.0423L21.7739 43.7207" stroke="#263238" stroke-width="0.5" stroke-miterlimit="10"/>
<path d="M21.4336 44.6089L21.9981 44.3664L22.1775 43.957" stroke="#263238" stroke-width="0.5" stroke-miterlimit="10"/>
<path d="M21.875 44.9341L22.3452 44.7931L22.506 44.3184" stroke="#263238" stroke-width="0.5" stroke-miterlimit="10"/>
<path d="M22.3125 67.0429V65.0684" stroke="#263238" stroke-miterlimit="10"/>
<path d="M21.7734 79.0103V71.6504" stroke="#263238" stroke-miterlimit="10"/>
<path d="M21.8281 68.1189V64.1113" stroke="#263238" stroke-miterlimit="10"/>
<path d="M21.8281 71.2304V69.2559" stroke="#263238" stroke-miterlimit="10"/>
<path d="M22.3125 76.5073V69.1973" stroke="#263238" stroke-miterlimit="10"/>
<path d="M22.3125 82.7766V75.4648" stroke="#263238" stroke-miterlimit="10"/>
<path d="M22.3125 61.5996V59.625" stroke="#263238" stroke-miterlimit="10"/>
<path d="M21.3438 69.9746V80.9843" stroke="#263238" stroke-miterlimit="10"/>
<path d="M22.8516 59.2656V81.2833" stroke="#263238" stroke-miterlimit="10"/>
<path d="M21.3438 59.7441V68.7793" stroke="#263238" stroke-miterlimit="10"/>
<path d="M5.41797 83.0664H113.105" stroke="#263238" stroke-miterlimit="10"/>
</svg>
