<svg width="110" height="110" viewBox="0 0 110 110" fill="none" xmlns="http://www.w3.org/2000/svg">
<path d="M102.268 61.0257C99.0276 69.7003 92.41 79.0899 83.0974 81.8707C69.0174 86.0727 67.3454 97.4137 42.1422 96.3621C38.4607 96.2266 34.8048 95.6911 31.239 94.7649C29.4984 94.3049 27.7885 93.7354 26.1196 93.0599C11.395 87.0957 3.71483 73.9705 3.07903 60.2381C2.23863 42.1739 14.8402 33.5653 23.0308 28.5251C31.2214 23.4849 41.0928 3.95992 65.8758 4.78932C69.6604 4.90287 73.4193 5.45209 77.0782 6.42612C85.4184 8.68332 93.895 13.6751 98.823 20.9725C99.1926 21.5225 99.5461 22.0828 99.8834 22.6533C106.479 33.8403 106.684 49.1985 102.268 61.0257Z" fill="#EF233C"/>
<path opacity="0.7" d="M102.268 61.0257C99.0276 69.7003 92.41 79.0899 83.0974 81.8707C69.0174 86.0727 67.3454 97.4137 42.1422 96.3621C38.4607 96.2266 34.8048 95.6911 31.239 94.7649C29.4984 94.3049 27.7885 93.7354 26.1196 93.0599C11.395 87.0957 3.71483 73.9705 3.07903 60.2381C2.23863 42.1739 14.8402 33.5653 23.0308 28.5251C31.2214 23.4849 41.0928 3.95992 65.8758 4.78932C69.6604 4.90287 73.4193 5.45209 77.0782 6.42612C85.4184 8.68332 93.895 13.6751 98.823 20.9725C99.1926 21.5225 99.5461 22.0828 99.8834 22.6533C106.479 33.8403 106.684 49.1985 102.268 61.0257Z" fill="white"/>
<g opacity="0.3">
<path d="M104.061 24.0503H87.1758V47.6893H104.061V24.0503Z" stroke="black" stroke-miterlimit="10"/>
<path d="M103.487 24.8535H87.75V46.8843H103.487V24.8535Z" stroke="black" stroke-miterlimit="10"/>
<path d="M99.3496 30.6436H91.8828V41.0958H99.3496V30.6436Z" stroke="black" stroke-miterlimit="10"/>
</g>
<g opacity="0.3">
<path d="M84.8763 24.1997H75.7617V36.9597H84.8763V24.1997Z" stroke="black" stroke-miterlimit="10"/>
<path d="M84.5665 24.6333H76.0723V36.5243H84.5665V24.6333Z" stroke="black" stroke-miterlimit="10"/>
<path d="M82.3351 27.7593H78.3047V33.4023H82.3351V27.7593Z" stroke="black" stroke-miterlimit="10"/>
</g>
<path d="M87.377 95.5241V78.4785" stroke="#5E5E5E" stroke-width="4" stroke-miterlimit="10"/>
<path d="M85.2559 95.8698V72.3276" stroke="#5E5E5E" stroke-width="4" stroke-miterlimit="10"/>
<path d="M90.0645 95.9839V87.7163" stroke="#5E5E5E" stroke-width="4" stroke-miterlimit="10"/>
<path d="M84.431 74.6484C84.431 74.6484 84.0064 73.8696 82.5874 72.1668C81.1684 70.464 75.2812 65.8528 75.2812 65.8528C75.2812 65.8528 78.6164 67.626 79.6813 68.5478C80.746 69.4696 82.1651 70.6048 82.1651 70.6048C82.1651 70.6048 78.1919 66.2796 77.7651 65.9958C77.3383 65.712 81.8065 69.3992 81.8065 69.3992C81.8065 69.3992 80.1058 65.9958 79.2544 64.8606C78.403 63.7254 76.7794 61.0304 76.7794 61.0304C76.7794 61.0304 81.3994 67.1904 81.604 67.5556C81.8086 67.9208 82.7392 69.4718 82.7392 69.4718L81.1069 65.2148L83.0869 68.6908C83.0869 68.6908 80.2489 62.8036 80.1081 62.5198C79.9673 62.236 82.0881 65.2852 82.0881 65.2852L80.2444 59.7544L84.5015 68.4774L84.2176 65.074L84.9965 68.6204L85.2165 59.8952L85.7136 68.5478C85.7136 68.5478 86.4924 63.017 86.6354 61.8818C86.7784 60.7466 86.8554 59.541 86.8554 59.541C86.8554 59.541 86.7124 67.0584 86.7124 67.2718C86.7124 67.4852 86.5717 69.188 86.5717 69.188L87.9181 65.1444C88.2019 64.293 88.4856 61.3846 88.6286 60.9644C88.7716 60.5442 87.918 67.4896 87.8476 67.7844C87.7227 68.2472 87.5562 68.6978 87.3504 69.1308C87.1304 69.5576 88.9124 66.5788 89.5504 65.3006L91.3831 61.6002C91.3831 61.6002 90.3182 65.1466 90.0344 65.7802C89.7506 66.4138 87.907 69.8238 87.907 69.8238C87.907 69.8238 90.6747 66.5612 91.8803 65.7098C93.0859 64.8584 95.2836 63.226 95.2836 63.226C95.2836 63.226 91.7394 67.0584 91.0288 67.7602C90.3182 68.462 88.2612 70.9524 88.2612 70.9524C88.2612 70.9524 91.8076 68.682 92.021 68.4686C92.2344 68.2552 94.7886 66.625 94.7886 66.625C94.7886 66.625 89.6385 70.6928 89.3965 70.9524C87.3395 73.1524 86.631 74.215 86.2042 74.6396C86.0942 74.7664 85.9584 74.8682 85.8058 74.9382C85.6533 75.0083 85.4875 75.0449 85.3196 75.0458C85.1518 75.0466 84.9857 75.0116 84.8324 74.943C84.6792 74.8745 84.5423 74.7741 84.431 74.6484Z" fill="#EF233C"/>
<path d="M86.8806 80.8678C86.4957 80.2457 86.0593 79.657 85.576 79.1078C84.5728 77.9044 80.4082 74.644 80.4082 74.644C80.4082 74.644 82.7666 75.898 83.519 76.5492C84.2714 77.2004 85.279 78.0056 85.279 78.0056C85.279 78.0056 82.4696 74.9454 82.1682 74.743C81.8668 74.5406 85.0282 77.152 85.0282 77.152C85.0282 77.152 83.8248 74.743 83.222 73.94C82.6192 73.137 81.462 71.2318 81.462 71.2318C81.462 71.2318 84.7224 75.5966 84.8742 75.8518L85.6772 77.207L84.5222 74.1952L85.928 76.6548C85.928 76.6548 83.9216 72.4902 83.8204 72.29C83.7192 72.0898 85.2262 74.2458 85.2262 74.2458L83.9216 70.332L86.9312 76.503L86.731 74.0962L87.2832 76.6042L87.4328 70.4332L87.7804 76.5602C87.7804 76.5602 88.3304 72.6464 88.4404 71.8456C88.5504 71.0448 88.59 70.189 88.59 70.189C88.59 70.189 88.491 75.5064 88.491 75.6582C88.491 75.81 88.3898 77.0134 88.3898 77.0134L89.3446 74.1534C89.5448 73.5506 89.745 71.4936 89.8462 71.1922C89.9474 70.8908 89.3446 75.8122 89.294 76.008C89.2056 76.3362 89.0878 76.6557 88.942 76.9628C88.7924 77.2642 90.042 75.1566 90.4974 74.2524L91.802 71.6432C91.802 71.6432 91.0496 74.1534 90.8494 74.6044C90.6492 75.0554 89.3446 77.4644 89.3446 77.4644C89.3446 77.4644 91.3004 75.1566 92.154 74.5538C93.0076 73.951 94.5608 72.7938 94.5608 72.7938C94.5608 72.7938 92.0528 75.502 91.5512 76.0036C91.0496 76.5052 89.5954 78.263 89.5954 78.263C89.5954 78.263 92.1034 76.657 92.253 76.503C92.4026 76.349 94.211 75.2006 94.211 75.2006C94.211 75.2006 90.5678 78.076 90.3962 78.2608C88.942 79.8162 88.4404 80.5686 88.139 80.87C88.0604 80.9595 87.9635 81.0312 87.8549 81.0803C87.7463 81.1293 87.6285 81.1546 87.5093 81.1544C87.3901 81.1542 87.2724 81.1285 87.164 81.0791C87.0555 81.0296 86.9589 80.9576 86.8806 80.8678Z" fill="#EF233C"/>
<path d="M89.4333 88.0309C89.0487 87.4086 88.6123 86.8198 88.1287 86.2709C87.1255 85.0653 82.9609 81.8049 82.9609 81.8049C82.9609 81.8049 85.3193 83.0589 86.0717 83.7123C86.8241 84.3657 87.8317 85.1665 87.8317 85.1665C87.8317 85.1665 85.0223 82.1063 84.7209 81.9061C84.4195 81.7059 87.5809 84.3129 87.5809 84.3129C87.5809 84.3129 86.3775 81.9061 85.7747 81.1031C85.1719 80.3001 84.0147 78.3927 84.0147 78.3927C84.0147 78.3927 87.2751 82.7575 87.4269 83.0127C87.5787 83.2679 88.2277 84.3679 88.2277 84.3679L87.0749 81.3583L88.4785 83.8201C88.4785 83.8201 86.4721 79.6555 86.3731 79.4553C86.2741 79.2551 87.7789 81.4001 87.7789 81.4001L86.4743 77.4863L89.4861 83.6573L89.2837 81.2483L89.8359 83.7563L89.9789 77.5941L90.3287 83.7167C90.3287 83.7167 90.8809 79.8029 90.9887 78.9999C91.0965 78.1969 91.1383 77.3433 91.1383 77.3433C91.1383 77.3433 91.0393 82.6629 91.0393 82.8125C91.0393 82.9621 90.9381 84.1677 90.9381 84.1677L91.8907 81.3077C92.0909 80.7049 92.2933 78.6479 92.3923 78.3465C92.4913 78.0451 91.8907 82.9665 91.8401 83.1645C91.7522 83.4918 91.6352 83.8106 91.4903 84.1171C91.3385 84.4185 92.5903 82.3109 93.0457 81.4089L94.3503 78.7997C94.3503 78.7997 93.5979 81.3077 93.3955 81.7587C93.1931 82.2097 91.8907 84.6187 91.8907 84.6187C91.8907 84.6187 93.8487 82.3109 94.7001 81.7081C95.5515 81.1053 97.1201 79.9481 97.1201 79.9481C97.1201 79.9481 94.5989 82.6629 94.0995 83.1601C93.6001 83.6573 92.1415 85.4173 92.1415 85.4173C92.1415 85.4173 94.6517 83.8113 94.8013 83.6573C94.9509 83.5033 96.7571 82.3527 96.7571 82.3527C96.7571 82.3527 93.1161 85.2303 92.9445 85.4129C91.4903 86.9683 90.9887 87.7207 90.6873 88.0221C90.6097 88.1119 90.5138 88.1841 90.406 88.2339C90.2982 88.2836 90.181 88.3098 90.0623 88.3106C89.9436 88.3115 89.8261 88.2869 89.7176 88.2387C89.6091 88.1904 89.5122 88.1196 89.4333 88.0309Z" fill="#EF233C"/>
<path d="M92.0098 106.097C92.4179 104.6 92.6229 103.054 92.6192 101.502C92.6192 101.209 92.6192 100.919 92.5994 100.633C92.5668 99.9077 92.4897 99.1855 92.3684 98.47C92.3244 98.2082 92.2738 97.9508 92.2188 97.6978C92.1726 97.4888 92.122 97.282 92.0692 97.0796C91.8387 96.1873 91.5065 95.3244 91.0792 94.5078H83.718C83.2946 95.3252 82.9654 96.188 82.7368 97.0796C82.6818 97.282 82.6334 97.4888 82.5872 97.6978C82.53 97.9508 82.4816 98.2082 82.4354 98.47C82.3178 99.1857 82.2443 99.9079 82.2154 100.633C82.2 100.919 82.1956 101.209 82.1956 101.502C82.1872 103.054 82.3884 104.599 82.794 106.097H92.0098Z" fill="white" stroke="#263238" stroke-miterlimit="10"/>
<path d="M92.0576 97.0796H82.7362C82.6812 97.282 82.6328 97.4888 82.5866 97.6978H92.2072C92.161 97.4888 92.1104 97.282 92.0576 97.0796ZM92.3568 98.47H82.4348C82.3173 99.1857 82.2438 99.9079 82.2148 100.633H92.5966C92.5612 99.9075 92.4811 99.1853 92.3568 98.47Z" fill="#263238" stroke="#263238" stroke-miterlimit="10"/>
<path d="M9.14853 4.40015H70.1391V68.2442H7.89453V5.65195C7.89453 5.31937 8.02665 5.00041 8.26182 4.76524C8.49699 4.53007 8.81595 4.39795 9.14853 4.39795V4.40015Z" fill="#263238" stroke="#263238" stroke-miterlimit="10"/>
<path d="M11.0362 2.2002H71.6594C71.9803 2.2002 72.2881 2.32768 72.515 2.5546C72.7419 2.78152 72.8694 3.08928 72.8694 3.4102V66.3566H9.82617V3.4102C9.82617 3.08928 9.95365 2.78152 10.1806 2.5546C10.4075 2.32768 10.7153 2.2002 11.0362 2.2002Z" fill="white" stroke="#263238" stroke-miterlimit="10"/>
<path d="M11.0362 2.2002H24.938C25.2589 2.2002 25.5667 2.32768 25.7936 2.5546C26.0205 2.78152 26.148 3.08928 26.148 3.4102V66.3566H9.82617V3.4102C9.82617 3.08928 9.95365 2.78152 10.1806 2.5546C10.4075 2.32768 10.7153 2.2002 11.0362 2.2002Z" fill="#ABABAB"/>
<path d="M11.0362 2.2002H71.6594C71.9803 2.2002 72.2881 2.32768 72.515 2.5546C72.7419 2.78152 72.8694 3.08928 72.8694 3.4102V9.1632H9.82617V3.4102C9.82617 3.08928 9.95365 2.78152 10.1806 2.5546C10.4075 2.32768 10.7153 2.2002 11.0362 2.2002Z" fill="#EF233C" stroke="#263238" stroke-miterlimit="10"/>
<path d="M11.0362 2.2002H71.6594C71.9803 2.2002 72.2881 2.32768 72.515 2.5546C72.7419 2.78152 72.8694 3.08928 72.8694 3.4102V6.6926H9.82617V3.4102C9.82617 3.08928 9.95365 2.78152 10.1806 2.5546C10.4075 2.32768 10.7153 2.2002 11.0362 2.2002Z" fill="#263238" stroke="#263238" stroke-miterlimit="10"/>
<path d="M64.395 4.58274C64.395 4.39302 64.3387 4.20757 64.2333 4.04983C64.1279 3.89209 63.9781 3.76915 63.8028 3.69655C63.6276 3.62395 63.4347 3.60496 63.2486 3.64197C63.0626 3.67898 62.8917 3.77033 62.7575 3.90448C62.6234 4.03863 62.532 4.20954 62.495 4.39561C62.458 4.58167 62.477 4.77453 62.5496 4.94981C62.6222 5.12508 62.7451 5.27488 62.9029 5.38028C63.0606 5.48568 63.246 5.54194 63.4358 5.54194C63.69 5.54135 63.9336 5.44011 64.1134 5.26035C64.2931 5.08059 64.3944 4.83695 64.395 4.58274Z" fill="white" stroke="#263238" stroke-miterlimit="10"/>
<path d="M68.0727 4.58274C68.0727 4.39302 68.0164 4.20757 67.911 4.04983C67.8056 3.89209 67.6558 3.76915 67.4806 3.69655C67.3053 3.62395 67.1124 3.60496 66.9264 3.64197C66.7403 3.67898 66.5694 3.77033 66.4352 3.90448C66.3011 4.03863 66.2097 4.20954 66.1727 4.39561C66.1357 4.58167 66.1547 4.77453 66.2273 4.94981C66.2999 5.12508 66.4229 5.27488 66.5806 5.38028C66.7383 5.48568 66.9238 5.54194 67.1135 5.54194C67.3677 5.54135 67.6114 5.44011 67.7911 5.26035C67.9709 5.08059 68.0721 4.83695 68.0727 4.58274Z" fill="white" stroke="#263238" stroke-miterlimit="10"/>
<path d="M71.7548 4.58274C71.7553 4.3925 71.6993 4.20641 71.5939 4.04802C71.4885 3.88963 71.3385 3.76606 71.1629 3.69296C70.9872 3.61985 70.7939 3.6005 70.6072 3.63735C70.4206 3.67419 70.2491 3.76558 70.1144 3.89995C69.9797 4.03432 69.8879 4.20562 69.8507 4.39217C69.8134 4.57872 69.8323 4.77214 69.905 4.94794C69.9777 5.12374 70.1009 5.27402 70.2591 5.37976C70.4172 5.4855 70.6032 5.54194 70.7934 5.54194C71.048 5.54194 71.2922 5.44095 71.4725 5.26113C71.6527 5.08131 71.7542 4.83734 71.7548 4.58274Z" fill="white" stroke="#263238" stroke-miterlimit="10"/>
<path d="M30.9395 9.01383V7.51562" stroke="#263238" stroke-miterlimit="10"/>
<path d="M40.2227 9.01383V7.51562" stroke="#263238" stroke-miterlimit="10"/>
<path d="M49.5098 9.01383V7.51562" stroke="#263238" stroke-miterlimit="10"/>
<path d="M58.793 9.01383V7.51562" stroke="#263238" stroke-miterlimit="10"/>
<path d="M68.0781 9.01383V7.51562" stroke="#263238" stroke-miterlimit="10"/>
<path d="M69.2766 14.96H29.4434V54.494H69.2766V14.96Z" fill="white" stroke="#263238" stroke-miterlimit="10"/>
<path d="M51.748 24.9131H57.1116" stroke="#263238" stroke-miterlimit="10"/>
<path d="M51.748 28.8555H57.1116" stroke="#263238" stroke-miterlimit="10"/>
<path d="M51.748 32.7954H57.1116" stroke="#263238" stroke-miterlimit="10"/>
<path d="M41.4551 41.4722H44.0709" stroke="#263238" stroke-miterlimit="10"/>
<path d="M35.3457 41.4722H40.8589" stroke="#263238" stroke-miterlimit="10"/>
<path d="M32.7363 41.4722H34.5997" stroke="#263238" stroke-miterlimit="10"/>
<path d="M37.209 42.6846H44.0708" stroke="#263238" stroke-miterlimit="10"/>
<path d="M32.7363 42.6846H36.6127" stroke="#263238" stroke-miterlimit="10"/>
<path d="M41.2324 43.8945H44.0704" stroke="#263238" stroke-miterlimit="10"/>
<path d="M35.9414 43.8945H40.4866" stroke="#263238" stroke-miterlimit="10"/>
<path d="M32.7363 43.8945H35.2707" stroke="#263238" stroke-miterlimit="10"/>
<path d="M32.7363 45.1045H44.0707" stroke="#263238" stroke-miterlimit="10"/>
<path d="M37.4316 46.3145H44.0712" stroke="#263238" stroke-miterlimit="10"/>
<path d="M32.7363 46.3145H36.6127" stroke="#263238" stroke-miterlimit="10"/>
<path d="M42.127 47.5269H44.0718" stroke="#263238" stroke-miterlimit="10"/>
<path d="M32.7363 47.5269H41.5297" stroke="#263238" stroke-miterlimit="10"/>
<path d="M42.4258 48.7368H44.0714" stroke="#263238" stroke-miterlimit="10"/>
<path d="M35.7188 48.7368H41.9799" stroke="#263238" stroke-miterlimit="10"/>
<path d="M32.7363 48.7368H35.2707" stroke="#263238" stroke-miterlimit="10"/>
<path d="M42.7227 49.9468H44.0713" stroke="#263238" stroke-miterlimit="10"/>
<path d="M38.252 49.9468H41.904" stroke="#263238" stroke-miterlimit="10"/>
<path d="M32.7363 49.9468H37.7303" stroke="#263238" stroke-miterlimit="10"/>
<path d="M65.0977 23.8262H67.0667" stroke="#263238" stroke-miterlimit="10"/>
<path d="M60.4941 23.8262H64.6477" stroke="#263238" stroke-miterlimit="10"/>
<path d="M58.5293 23.8262H59.9329" stroke="#263238" stroke-miterlimit="10"/>
<path d="M61.8984 25.252H67.0662" stroke="#263238" stroke-miterlimit="10"/>
<path d="M58.5293 25.252H61.4487" stroke="#263238" stroke-miterlimit="10"/>
<path d="M64.9277 26.6772H67.0661" stroke="#263238" stroke-miterlimit="10"/>
<path d="M60.9434 26.6772H64.3666" stroke="#263238" stroke-miterlimit="10"/>
<path d="M58.5293 26.6772H60.4367" stroke="#263238" stroke-miterlimit="10"/>
<path d="M58.5293 28.103H67.0653" stroke="#263238" stroke-miterlimit="10"/>
<path d="M62.0645 29.5264H67.0651" stroke="#263238" stroke-miterlimit="10"/>
<path d="M58.5293 29.5264H61.4487" stroke="#263238" stroke-miterlimit="10"/>
<path d="M65.5996 30.9521H67.0648" stroke="#263238" stroke-miterlimit="10"/>
<path d="M58.5293 30.9521H65.1513" stroke="#263238" stroke-miterlimit="10"/>
<path d="M65.8242 32.3774H67.065" stroke="#263238" stroke-miterlimit="10"/>
<path d="M60.7734 32.3774H65.488" stroke="#263238" stroke-miterlimit="10"/>
<path d="M58.5293 32.3774H60.4367" stroke="#263238" stroke-miterlimit="10"/>
<path d="M66.0508 33.8032H67.065" stroke="#263238" stroke-miterlimit="10"/>
<path d="M62.6836 33.8032H65.4336" stroke="#263238" stroke-miterlimit="10"/>
<path d="M58.5293 33.8032H62.2891" stroke="#263238" stroke-miterlimit="10"/>
<path d="M38.5015 35.284C37.4498 35.2837 36.4152 35.0173 35.4941 34.5096L36.3125 33.029C37.1849 33.511 38.1921 33.6913 39.1775 33.5418C40.1629 33.3922 41.0713 32.9212 41.7614 32.2021C42.4514 31.4829 42.8845 30.5558 42.9932 29.5651C43.1019 28.5744 42.8802 27.5755 42.3625 26.7237L43.8057 25.8438C44.379 26.7854 44.6913 27.8626 44.7106 28.9648C44.7298 30.067 44.4554 31.1545 43.9154 32.1156C43.3754 33.0767 42.5893 33.8767 41.6379 34.4335C40.6864 34.9903 39.6039 35.2838 38.5015 35.284Z" fill="#EF233C" stroke="#263238" stroke-miterlimit="10"/>
<path d="M35.4918 34.5094C34.3801 33.8948 33.4836 32.9542 32.9229 31.8143C32.3623 30.6744 32.1646 29.3901 32.3564 28.1344C32.5482 26.8787 33.1203 25.7119 33.9956 24.7913C34.8709 23.8708 36.0073 23.2406 37.2518 22.9858L37.5862 24.6446C36.6807 24.8298 35.8538 25.288 35.2167 25.9575C34.5797 26.627 34.1631 27.4757 34.0231 28.3892C33.8831 29.3027 34.0264 30.2372 34.4338 31.0667C34.8411 31.8963 35.4929 32.5811 36.3014 33.0288L35.4918 34.5094Z" fill="#263238" stroke="#263238" stroke-miterlimit="10"/>
<path d="M42.3591 26.7238C41.9578 26.06 41.3915 25.5114 40.7153 25.1312C40.0391 24.7511 39.276 24.5525 38.5003 24.5546C38.1967 24.5547 37.8938 24.5849 37.5961 24.6448L37.2617 22.986C37.6695 22.9041 38.0844 22.8628 38.5003 22.8628C39.5667 22.8591 40.6158 23.1317 41.5454 23.6542C42.4749 24.1766 43.2533 24.931 43.8045 25.8438L42.3591 26.7238Z" fill="#ABABAB" stroke="#263238" stroke-miterlimit="10"/>
<path d="M50.6522 23.9272H48.791V25.7884H50.6522V23.9272Z" fill="#EF233C" stroke="#263238" stroke-miterlimit="10"/>
<path d="M50.6522 27.9248H48.791V29.786H50.6522V27.9248Z" fill="#263238" stroke="#263238" stroke-miterlimit="10"/>
<path d="M50.6522 31.9199H48.791V33.7811H50.6522V31.9199Z" fill="#ABABAB" stroke="#263238" stroke-miterlimit="10"/>
<path d="M51.0061 42.9048H48.2539V50.277H51.0061V42.9048Z" fill="#263238"/>
<path d="M54.637 39.6025H51.8848V50.2769H54.637V39.6025Z" fill="#EF233C" stroke="#263238" stroke-miterlimit="10"/>
<path d="M58.2698 44.5547H55.5176V50.2769H58.2698V44.5547Z" fill="#263238"/>
<path d="M61.9006 41.1426H59.1484V50.277H61.9006V41.1426Z" fill="#EF233C" stroke="#263238" stroke-miterlimit="10"/>
<path d="M65.5315 38.1724H62.7793V50.2768H65.5315V38.1724Z" fill="#263238"/>
<path d="M57.7436 17.8071H43.668V19.1557H57.7436V17.8071Z" fill="#263238"/>
<path d="M24.3522 13.2773H11.623V26.9041H24.3522V13.2773Z" fill="white" stroke="#263238" stroke-miterlimit="10"/>
<path d="M17.9865 22.4049C17.3894 22.4049 16.802 22.2535 16.2793 21.9649L16.7457 21.1201C17.2407 21.3921 17.8116 21.4933 18.37 21.4079C18.9284 21.3226 19.443 21.0555 19.8342 20.648C20.2254 20.2405 20.4712 19.7155 20.5337 19.1541C20.5962 18.5927 20.4719 18.0264 20.1799 17.5429L21.0005 17.0435C21.3286 17.5779 21.5079 18.1903 21.5199 18.8173C21.532 19.4443 21.3763 20.0632 21.069 20.6098C20.7616 21.1565 20.3139 21.6111 19.7719 21.9267C19.23 22.2423 18.6136 22.4074 17.9865 22.4049Z" fill="#EF233C"/>
<path d="M16.2803 21.9627C15.6454 21.616 15.1327 21.0821 14.812 20.4337C14.4913 19.7852 14.3782 19.0537 14.4881 18.3387C14.598 17.6237 14.9255 16.9599 15.4261 16.4376C15.9266 15.9153 16.576 15.56 17.2857 15.4199L17.4749 16.3615C16.9614 16.4671 16.4926 16.7274 16.1314 17.1073C15.7702 17.4872 15.534 17.9686 15.4545 18.4868C15.375 19.0049 15.4559 19.535 15.6865 20.0057C15.9172 20.4765 16.2863 20.8654 16.7445 21.1201L16.2803 21.9627Z" fill="#263238"/>
<path d="M20.1791 17.543C19.9509 17.1644 19.628 16.8518 19.2423 16.6358C18.8565 16.4198 18.4212 16.3078 17.9791 16.311C17.807 16.3113 17.6354 16.3282 17.4665 16.3616L17.2773 15.42C17.5084 15.3734 17.7435 15.3498 17.9791 15.3496C18.5851 15.3475 19.1812 15.5025 19.7094 15.7994C20.2376 16.0963 20.6799 16.5249 20.9931 17.0436L20.1791 17.543Z" fill="#ABABAB"/>
<path d="M20.2852 23.6304H22.2542" stroke="#263238" stroke-miterlimit="10"/>
<path d="M15.6816 23.6304H19.8352" stroke="#263238" stroke-miterlimit="10"/>
<path d="M13.7188 23.6304H15.1224" stroke="#263238" stroke-miterlimit="10"/>
<path d="M17.0859 24.3013H22.2537" stroke="#263238" stroke-miterlimit="10"/>
<path d="M13.7188 24.3013H16.6382" stroke="#263238" stroke-miterlimit="10"/>
<path d="M20.1172 24.9746H22.2534" stroke="#263238" stroke-miterlimit="10"/>
<path d="M16.1309 24.9746H19.5563" stroke="#263238" stroke-miterlimit="10"/>
<path d="M13.7188 24.9746H15.6284" stroke="#263238" stroke-miterlimit="10"/>
<path d="M24.3522 31.7329H11.623V45.3597H24.3522V31.7329Z" fill="white" stroke="#263238" stroke-miterlimit="10"/>
<path d="M20.5312 33.2334H22.9094" stroke="#263238" stroke-miterlimit="10"/>
<path d="M14.9727 33.2334H17.5027" stroke="#263238" stroke-miterlimit="10"/>
<path d="M12.5996 33.2334H14.2936" stroke="#263238" stroke-miterlimit="10"/>
<path d="M16.668 34.6592H17.4622" stroke="#263238" stroke-miterlimit="10"/>
<path d="M12.5996 34.6592H16.124" stroke="#263238" stroke-miterlimit="10"/>
<path d="M15.5156 36.0845H17.4626" stroke="#263238" stroke-miterlimit="10"/>
<path d="M12.5996 36.0845H14.903" stroke="#263238" stroke-miterlimit="10"/>
<path d="M12.5996 37.5103H17.4616" stroke="#263238" stroke-miterlimit="10"/>
<path d="M16.8711 38.936H22.9101" stroke="#263238" stroke-miterlimit="10"/>
<path d="M12.5996 38.936H16.124" stroke="#263238" stroke-miterlimit="10"/>
<path d="M21.1406 40.3613H22.9094" stroke="#263238" stroke-miterlimit="10"/>
<path d="M12.5996 40.3613H20.5988" stroke="#263238" stroke-miterlimit="10"/>
<path d="M21.4141 41.7847H22.9101" stroke="#263238" stroke-miterlimit="10"/>
<path d="M15.3105 41.7847H21.0063" stroke="#263238" stroke-miterlimit="10"/>
<path d="M12.5996 41.7847H14.903" stroke="#263238" stroke-miterlimit="10"/>
<path d="M21.6836 43.2104H22.909" stroke="#263238" stroke-miterlimit="10"/>
<path d="M17.6172 43.2104H20.9392" stroke="#263238" stroke-miterlimit="10"/>
<path d="M12.5996 43.2104H17.1404" stroke="#263238" stroke-miterlimit="10"/>
<path d="M22.9115 33.2446H17.9219V38.2342H22.9115V33.2446Z" stroke="#263238" stroke-miterlimit="10"/>
<path d="M17.9219 38.2316L19.8315 36.1086L20.7863 36.7466L22.1679 35.1538L22.8037 35.4728" stroke="#263238" stroke-miterlimit="10"/>
<path d="M19.4077 35.3676C19.8183 35.3676 20.1513 35.0347 20.1513 34.624C20.1513 34.2133 19.8183 33.8804 19.4077 33.8804C18.997 33.8804 18.6641 34.2133 18.6641 34.624C18.6641 35.0347 18.997 35.3676 19.4077 35.3676Z" stroke="#263238" stroke-miterlimit="10"/>
<path d="M24.3522 49.291H11.623V62.9178H24.3522V49.291Z" fill="white" stroke="#263238" stroke-miterlimit="10"/>
<path d="M17.1855 57.0923H22.1861" stroke="#263238" stroke-miterlimit="10"/>
<path d="M13.6504 57.0923H16.5676" stroke="#263238" stroke-miterlimit="10"/>
<path d="M20.7207 58.5181H22.1859" stroke="#263238" stroke-miterlimit="10"/>
<path d="M13.6504 58.5181H20.2724" stroke="#263238" stroke-miterlimit="10"/>
<path d="M20.9453 59.9434H22.1861" stroke="#263238" stroke-miterlimit="10"/>
<path d="M15.8945 59.9434H20.6091" stroke="#263238" stroke-miterlimit="10"/>
<path d="M13.6504 59.9434H15.5578" stroke="#263238" stroke-miterlimit="10"/>
<path d="M21.1699 61.3691H22.1863" stroke="#263238" stroke-miterlimit="10"/>
<path d="M17.8027 61.3691H20.5527" stroke="#263238" stroke-miterlimit="10"/>
<path d="M13.6504 61.3691H17.4102" stroke="#263238" stroke-miterlimit="10"/>
<path d="M15.0615 52.9453H13.7129V56.2101H15.0615V52.9453Z" fill="#263238"/>
<path d="M16.8427 51.4844H15.4941V56.21H16.8427V51.4844Z" fill="#EF233C" stroke="#263238" stroke-miterlimit="10"/>
<path d="M18.622 53.6782H17.2734V56.2126H18.622V53.6782Z" fill="#263238"/>
<path d="M20.3994 52.1665H19.0508V56.2101H20.3994V52.1665Z" fill="#EF233C" stroke="#263238" stroke-miterlimit="10"/>
<path d="M22.1787 50.8511H20.8301V56.2103H22.1787V50.8511Z" fill="#263238"/>
<path d="M58.0626 106.097V80.5419C58.0652 80.3216 58.0243 80.1029 57.9424 79.8983C57.8604 79.6938 57.7389 79.5074 57.5848 79.3499C57.4307 79.1924 57.2471 79.0667 57.0445 78.9802C56.8418 78.8937 56.6241 78.848 56.4038 78.8457H27.9226C27.4777 78.8509 27.0532 79.0325 26.7422 79.3505C26.4311 79.6686 26.2591 80.0971 26.2638 80.5419V106.097H58.0626Z" fill="#D4D4D4" stroke="#263238" stroke-miterlimit="10"/>
<path d="M61.2345 106.097V80.5419C61.2392 80.0971 61.0671 79.6686 60.7561 79.3505C60.445 79.0325 60.0205 78.8509 59.5757 78.8457H31.0945C30.8741 78.848 30.6564 78.8937 30.4537 78.9802C30.2511 79.0667 30.0675 79.1924 29.9134 79.3499C29.7593 79.5074 29.6379 79.6938 29.5559 79.8983C29.4739 80.1029 29.4331 80.3216 29.4357 80.5419V106.097H61.2345Z" fill="#D4D4D4" stroke="#263238" stroke-miterlimit="10"/>
<path d="M77.1558 106.097V93.7201C77.1593 93.378 77.027 93.0485 76.7877 92.8039C76.5485 92.5592 76.222 92.4196 75.8798 92.4155H59.789C59.4479 92.4207 59.1227 92.561 58.8848 92.8055C58.6468 93.0501 58.5155 93.379 58.5196 93.7201V106.106L77.1558 106.097Z" fill="#D4D4D4" stroke="#263238" stroke-miterlimit="10"/>
<path d="M77.1572 106.097V93.7531C77.1709 93.4109 77.0486 93.0771 76.8169 92.8248C76.5852 92.5725 76.263 92.4222 75.9208 92.4067H69.4132C69.071 92.4222 68.7488 92.5725 68.5171 92.8248C68.2855 93.0771 68.1631 93.4109 68.1768 93.7531V106.097H77.1572Z" fill="#D4D4D4" stroke="#263238" stroke-miterlimit="10"/>
<path d="M74.0398 106.097C71.1798 104.269 64.3731 99.8403 62.9717 98.2057C61.1875 96.1245 60.8157 95.4557 59.4033 95.5305C57.9909 95.6053 43.5632 97.6117 43.5632 97.6117C42.9598 98.3963 42.5518 99.3133 42.373 100.287C42.1882 101.525 43.6931 104.973 44.2122 106.097H74.0398Z" fill="#263238" stroke="#263238" stroke-miterlimit="10"/>
<path d="M49.2939 67.7271C49.5139 67.7403 53.7533 68.1671 55.4539 68.9173C57.1545 69.6675 60.8065 70.6267 61.9967 71.1481C63.1869 71.6695 63.8535 72.2613 64.0031 73.8233C64.1527 75.3853 65.5651 81.1823 65.7873 82.1481C66.0095 83.1139 66.3813 87.2081 65.9369 88.4687C65.4925 89.7293 60.2169 89.8811 60.2169 89.8811C60.2169 89.8811 60.1421 91.8875 60.4369 93.0029C60.7317 94.1183 61.4775 95.9025 59.0245 96.3469C56.5715 96.7913 43.9347 99.4709 43.0415 98.8747C42.1483 98.2785 42.5223 93.6717 42.5223 92.5563C42.5223 91.4409 41.4069 89.1375 41.4069 89.1375C40.3389 89.3962 39.2947 89.7443 38.2851 90.1781C37.0201 90.7721 35.3855 90.4751 33.3043 89.8063C31.2231 89.1375 31.0801 87.2037 30.4861 86.0201C29.8921 84.8365 32.4925 83.1205 33.0117 82.2273C33.5309 81.3341 37.1015 73.1589 37.2511 72.2657C37.4007 71.3725 39.4049 71.1525 42.0911 70.3341C42.0823 70.3297 47.8815 67.6523 49.2939 67.7271Z" fill="#EF233C" stroke="#263238" stroke-miterlimit="10"/>
<path d="M46.3262 96.3448C48.2644 94.2196 52.9922 89.2762 56.4176 87.6724" stroke="#263238" stroke-miterlimit="10"/>
<path d="M45.4434 97.3323C45.4434 97.3323 45.6326 97.1123 45.9714 96.7383" stroke="#263238" stroke-miterlimit="10"/>
<path d="M49.541 91.7642C49.739 91.6146 49.937 91.4672 50.1328 91.3242" stroke="#263238" stroke-miterlimit="10"/>
<path d="M45.8203 95.0819C45.8203 95.0819 47.1227 93.7619 48.6517 92.4771" stroke="#263238" stroke-miterlimit="10"/>
<path d="M38.6797 77.7725C39.3397 80.2563 40.2703 83.6157 40.6311 84.5045C41.2251 85.9609 41.6035 88.4425 41.6035 88.4425" fill="white"/>
<path d="M38.6797 77.7725C39.3397 80.2563 40.2703 83.6157 40.6311 84.5045C41.2251 85.9609 41.6035 88.4425 41.6035 88.4425" stroke="#263238" stroke-miterlimit="10"/>
<path d="M37.9375 74.9585C37.9375 74.9585 38.1575 75.7835 38.4633 76.9561L37.9375 74.9585Z" fill="white"/>
<path d="M37.9375 74.9585C37.9375 74.9585 38.1575 75.7835 38.4633 76.9561" stroke="#263238" stroke-miterlimit="10"/>
<path d="M37.5321 80.6827C37.2147 80.4554 36.8583 80.2883 36.4805 80.1899" stroke="#263238" stroke-miterlimit="10"/>
<path d="M35.875 81.8711C36.6868 82.0449 37.668 82.3969 38.2048 83.1031C38.7075 83.7431 39.176 84.4091 39.6084 85.0985C39.6084 85.0985 39.7162 84.0733 38.9616 82.5091C38.7518 82.0621 38.4849 81.6443 38.1674 81.2661" stroke="#263238" stroke-miterlimit="10"/>
<path d="M34.541 81.7017C34.541 81.7017 34.75 81.7017 35.0734 81.7413" stroke="#263238" stroke-miterlimit="10"/>
<path d="M33.2441 83.0477C33.2441 83.0477 35.1867 82.1325 37.0743 82.8871" stroke="#263238" stroke-miterlimit="10"/>
<path d="M61.5018 77.0508L59.832 88.8736" stroke="#263238" stroke-miterlimit="10"/>
<path d="M61.8266 74.7427L61.6484 76.0143" stroke="#263238" stroke-miterlimit="10"/>
<path d="M64.2402 82.0975C64.585 81.8985 64.955 81.7468 65.3402 81.6465" stroke="#263238" stroke-miterlimit="10"/>
<path d="M60.1543 87.4719C60.1543 87.4719 60.3171 86.2311 61.9341 84.1279C62.4456 83.4522 63.0638 82.8644 63.7645 82.3877" stroke="#263238" stroke-miterlimit="10"/>
<path d="M60.3711 87.5801C60.3711 87.5801 62.1509 85.2591 64.2013 85.0435" stroke="#263238" stroke-miterlimit="10"/>
<path d="M48.4 67.1329C48.4 67.1329 47.1372 67.2077 46.838 67.8765C46.5388 68.5453 46.541 74.2697 46.541 74.2697C46.541 74.2697 50.853 72.6329 51.447 72.6329C52.041 72.6329 56.6522 74.4171 56.6522 74.4171C56.6522 74.4171 56.056 70.2547 55.0154 68.6201C53.9748 66.9855 52.1906 67.0581 51.5966 67.0581C51.0026 67.0581 48.4 67.1329 48.4 67.1329Z" fill="white" stroke="#263238" stroke-miterlimit="10"/>
<path d="M47.2852 66.6118L47.5822 68.1738C47.5822 68.1738 51.375 75.458 51.8194 74.9388C52.2638 74.4196 54.4968 68.4708 54.4968 68.4708L54.6442 66.3896C54.6442 66.3896 52.86 67.5798 51.8194 67.5798C50.7788 67.5798 47.5822 65.8682 47.5822 65.8682L47.2852 66.6118Z" fill="white" stroke="#263238" stroke-miterlimit="10"/>
<path d="M54.6442 66.3896C54.6442 66.3896 52.86 67.5798 51.8194 67.5798C50.7788 67.5798 47.5822 65.8682 47.5822 65.8682L47.2852 66.6118L47.5822 68.1738C47.5822 68.1738 48.438 69.8172 49.384 71.487C49.5354 71.4304 49.6824 71.3627 49.824 71.2846C53.9622 68.9636 54.6442 66.3896 54.6442 66.3896Z" fill="#263238" stroke="#263238" stroke-miterlimit="10"/>
<path d="M45.6228 60.9271C45.6228 60.9271 44.767 59.2155 44.1686 60.6697C43.5702 62.1239 46.1354 64.0907 46.1354 64.0907L45.6228 60.9271Z" fill="white" stroke="#263238" stroke-miterlimit="10"/>
<path d="M55.6752 60.5439C55.6752 60.5439 56.4848 58.8741 56.9138 60.4141C57.3428 61.9541 55.5938 63.9187 55.5938 63.9187L55.6752 60.5439Z" fill="white" stroke="#263238" stroke-miterlimit="10"/>
<path d="M45.4518 60.4999C45.4518 60.4999 46.0524 65.0341 46.3934 65.8041C46.686 66.4641 49.3656 68.7719 50.1488 69.4385C50.2869 69.5558 50.4625 69.6198 50.6438 69.6189C51.1428 69.6304 51.642 69.6061 52.1376 69.5463C52.4808 69.4605 54.7776 67.3463 55.288 66.1451C55.7984 64.9439 55.6312 58.0205 55.6312 58.0205C55.6312 58.0205 55.3738 53.4885 54.8612 52.8901C54.3486 52.2917 47.9334 52.2895 46.3076 53.1453C44.6818 54.0011 44.684 55.4553 44.9392 56.3111C45.1944 57.1669 45.4518 60.4999 45.4518 60.4999Z" fill="white" stroke="#263238" stroke-miterlimit="10"/>
<path d="M52.7488 51.4405C50.0252 51.0115 48.9868 51.7991 47.4204 52.7957C47.0358 52.8626 46.6615 52.9794 46.3072 53.1433C44.6836 53.9991 44.6836 55.4533 44.9388 56.3091C45.194 57.1649 45.4514 60.4891 45.4514 60.4891L46.052 60.5749C46.052 60.5749 46.1356 58.6081 46.2214 58.3529C46.3072 58.0977 47.3346 56.8987 47.4204 56.3003C47.5062 55.7019 47.3346 53.9903 47.3346 53.9903C47.3346 53.9903 48.274 56.9845 51.8666 58.0097C52.7246 58.2596 53.613 58.3899 54.5066 58.3969C54.5528 58.8875 54.6364 59.3517 54.786 59.4639L55.127 59.7213C55.127 59.7213 55.0412 60.9181 55.2986 61.1733C55.3991 61.2697 55.5264 61.3333 55.6638 61.3559C55.6748 60.0557 55.6638 58.8655 55.6484 58.3221C57.2698 58.0911 57.0278 57.4905 57.0784 56.7645C57.1532 55.5765 55.9982 51.9553 52.7488 51.4405Z" fill="#263238" stroke="#263238" stroke-miterlimit="10"/>
<path d="M49.7207 64.0797C49.9428 64.4326 50.2789 64.6989 50.6733 64.8343C51.2695 64.9927 51.9053 65.0323 52.5785 64.0005" stroke="#263238" stroke-miterlimit="10"/>
<path d="M48.7676 65.5469C48.7676 65.5469 49.5222 66.4599 51.1502 66.3807C52.7782 66.3015 53.3722 65.6283 53.3722 65.6283" stroke="#263238" stroke-miterlimit="10"/>
<path d="M47.6953 62.0137C48.0109 62.1777 48.3563 62.2763 48.7109 62.3035C49.0656 62.3307 49.422 62.286 49.7589 62.1721" stroke="#263238" stroke-miterlimit="10"/>
<path d="M52.3398 62.1719C52.7255 62.3267 53.1383 62.403 53.5538 62.3962C53.9694 62.3894 54.3794 62.2997 54.7598 62.1323" stroke="#263238" stroke-miterlimit="10"/>
<path d="M47.416 60.7045C47.416 60.7045 48.0518 59.7519 49.759 60.3459" stroke="#263238" stroke-miterlimit="10"/>
<path d="M52.3809 60.5439C52.7246 60.3215 53.1313 60.217 53.5396 60.2459C53.9479 60.2749 54.3358 60.4358 54.6447 60.7045" stroke="#263238" stroke-miterlimit="10"/>
<path d="M49.7204 62.7002C49.7204 62.7002 48.9658 63.2964 48.6094 63.4152" stroke="#263238" stroke-miterlimit="10"/>
<path d="M52.2617 62.5703C52.2617 62.5703 53.0955 63.4503 53.6521 63.6417" stroke="#263238" stroke-miterlimit="10"/>
<path d="M59.508 88.4949C59.508 88.4949 60.586 87.6875 62.313 86.6073C64.04 85.5271 65.7098 85.8527 66.6272 86.8779C67.5446 87.9031 67.6524 90.7609 66.2488 92.0017C64.8452 93.2425 62.9598 92.9169 61.774 92.5935C60.5882 92.2701 59.134 91.0293 59.0218 90.7609C58.9096 90.4925 59.508 88.4949 59.508 88.4949Z" fill="#EF233C" stroke="#263238" stroke-miterlimit="10"/>
<path d="M60.2092 87.9033C60.2092 87.9033 60.7482 87.2543 61.5028 87.2015C62.2574 87.1487 63.606 87.8483 63.9228 89.5753C64.2396 91.3023 63.4828 92.7015 62.5742 93.1327C61.6656 93.5639 60.2026 93.2955 59.8792 92.8093C59.6194 92.3639 59.4028 91.8946 59.2324 91.4079L60.2092 87.9033Z" fill="white" stroke="#263238" stroke-miterlimit="10"/>
<path d="M59.1808 86.0684C59.1808 86.0684 56.2152 83.6484 55.8918 83.534C55.5684 83.4196 53.3024 84.128 53.3024 84.128L53.8964 86.339C53.8964 86.339 53.6258 86.559 52.7634 85.8C51.901 85.041 51.362 84.0202 51.0386 84.3436C50.7152 84.667 50.5524 85.3138 51.307 86.1234C52.0616 86.933 53.0868 88.011 53.6258 88.7634C54.1648 89.5158 55.729 89.8964 55.729 89.8964C55.729 89.8964 56.1074 90.596 57.5638 91.2978C59.0202 91.9996 61.284 92.4308 61.284 92.4308C61.284 92.4308 62.8482 90.7038 62.2542 89.1946C62.1091 88.7793 61.8277 88.4254 61.4558 88.1904C61.0839 87.9555 60.6433 87.8535 60.206 87.901L59.5042 87.7382L59.1808 86.0684Z" fill="white" stroke="#263238" stroke-miterlimit="10"/>
<path d="M55.1755 83.0569C55.1755 83.0569 53.4155 81.6247 52.9513 81.6907C52.4871 81.7567 51.4773 82.2539 51.0769 82.5333C50.6765 82.8127 51.0351 83.3561 51.5169 83.3363C51.8971 83.308 52.274 83.2461 52.6433 83.1515L52.9271 82.9953L54.2097 84.9995" fill="white"/>
<path d="M55.1755 83.0569C55.1755 83.0569 53.4155 81.6247 52.9513 81.6907C52.4871 81.7567 51.4773 82.2539 51.0769 82.5333C50.6765 82.8127 51.0351 83.3561 51.5169 83.3363C51.8971 83.308 52.274 83.2461 52.6433 83.1515L52.9271 82.9953L54.2097 84.9995" stroke="#263238" stroke-miterlimit="10"/>
<path d="M52.9277 82.9953L53.6163 82.6807" stroke="#263238" stroke-miterlimit="10"/>
<path d="M57.2009 82.9512C57.2009 82.9512 55.4409 81.5212 54.9789 81.5872C54.5169 81.6532 53.5027 82.1482 53.1023 82.4298C52.7019 82.7114 53.0605 83.2504 53.5423 83.2328C53.9226 83.2042 54.2996 83.1417 54.6687 83.0458L54.9525 82.8918L56.2329 84.8938" fill="white"/>
<path d="M57.2009 82.9512C57.2009 82.9512 55.4409 81.5212 54.9789 81.5872C54.5169 81.6532 53.5027 82.1482 53.1023 82.4298C52.7019 82.7114 53.0605 83.2504 53.5423 83.2328C53.9226 83.2042 54.2996 83.1417 54.6687 83.0458L54.9525 82.8918L56.2329 84.8938" stroke="#263238" stroke-miterlimit="10"/>
<path d="M54.9512 82.8915L55.6398 82.5747" stroke="#263238" stroke-miterlimit="10"/>
<path d="M58.8057 84.3966C58.8057 84.3966 57.9433 82.2934 57.5121 82.1328C57.0809 81.9722 55.9479 81.9128 55.4639 81.97C54.9799 82.0272 55.0239 82.6718 55.4639 82.8874C55.8113 83.0448 56.172 83.1707 56.5419 83.2636H56.8653L57.0259 85.6374" fill="white"/>
<path d="M58.8057 84.3966C58.8057 84.3966 57.9433 82.2934 57.5121 82.1328C57.0809 81.9722 55.9479 81.9128 55.4639 81.97C54.9799 82.0272 55.0239 82.6718 55.4639 82.8874C55.8113 83.0448 56.172 83.1707 56.5419 83.2636H56.8653L57.0259 85.6374" stroke="#263238" stroke-miterlimit="10"/>
<path d="M56.8652 83.2637L57.6198 83.3187" stroke="#263238" stroke-miterlimit="10"/>
<path d="M59.2915 88.1719C59.2915 88.1719 59.7777 85.5847 59.6699 85.3119C59.5621 85.0391 58.6447 83.8555 58.3741 83.8555C58.1035 83.8555 57.5667 84.3945 57.7823 84.9335C57.8287 85.0804 57.9128 85.2127 58.0263 85.3169C58.1398 85.4212 58.2787 85.4938 58.4291 85.5275V87.0367L57.9429 87.6857" fill="white"/>
<path d="M59.2915 88.1719C59.2915 88.1719 59.7777 85.5847 59.6699 85.3119C59.5621 85.0391 58.6447 83.8555 58.3741 83.8555C58.1035 83.8555 57.5667 84.3945 57.7823 84.9335C57.8287 85.0804 57.9128 85.2127 58.0263 85.3169C58.1398 85.4212 58.2787 85.4938 58.4291 85.5275V87.0367L57.9429 87.6857" stroke="#263238" stroke-miterlimit="10"/>
<path d="M53.9048 91.179H44.238L43.7012 79.5718H54.4416L53.9048 91.179Z" fill="#263238" stroke="#263238" stroke-miterlimit="10"/>
<path d="M39.2573 86.0883C39.2573 86.0883 35.4667 83.3383 35.0949 83.1909C34.7231 83.0435 32.6419 83.9323 31.4517 84.8255C30.2615 85.7187 30.3363 86.6097 30.7917 87.7251C31.2471 88.8405 33.0203 90.2529 33.6913 90.7721C34.3623 91.2913 37.5567 90.9921 37.5567 90.9921L39.2573 86.0883Z" fill="#EF233C" stroke="#263238" stroke-miterlimit="10"/>
<path d="M40.0007 86.46C40.0007 86.46 39.1823 85.272 38.8105 85.1972C38.4387 85.1224 37.3233 85.9407 36.7293 86.6843C36.1353 87.4279 35.5391 89.4344 35.5391 90.475C35.5391 91.5156 37.3233 91.8125 37.6203 91.8125C37.9173 91.8125 38.3639 90.9216 38.8853 90.6246C39.4067 90.3276 40.0007 86.46 40.0007 86.46Z" fill="white" stroke="#263238" stroke-miterlimit="10"/>
<path d="M51.1493 90.1669C51.1493 90.1669 52.4957 90.1669 52.8191 89.9469C53.1425 89.7269 54.1677 88.2221 54.3305 87.8987C54.4933 87.5753 53.8443 87.5753 53.4681 88.2749C53.0919 88.9745 51.6333 89.5157 51.2681 89.7313C50.8709 89.9058 50.4544 90.0328 50.0273 90.1097L51.1493 90.1669Z" fill="white" stroke="#263238" stroke-miterlimit="10"/>
<path d="M39.2567 86.0882L44.6841 86.68C44.6841 86.68 45.5641 84.1522 45.9469 84.0774C46.7468 83.8066 47.5183 83.4581 48.2503 83.0368C48.5495 82.8168 49.0687 82.5154 48.7717 83.3338C48.4747 84.1522 46.8379 84.9706 46.8379 84.9706C46.8379 84.9706 48.3251 85.9364 48.7717 86.0112C49.2183 86.086 52.3401 85.415 52.3401 85.415C52.3401 85.415 54.6435 84.535 54.8679 84.6714C55.0923 84.8078 54.4961 85.415 54.4961 85.415C54.4961 85.415 54.9361 85.118 55.0901 85.4898C55.2441 85.8616 54.7183 86.6052 54.7183 86.6052C54.7183 86.6052 54.9383 86.7526 54.7931 87.3488C54.6479 87.945 52.6371 89.5774 52.1905 89.8766C51.7439 90.1758 49.3657 90.2484 47.8059 90.2484C46.6601 90.2254 45.5172 90.1254 44.3849 89.9492C44.3849 89.9492 38.1413 90.992 37.8443 90.992C37.5473 90.992 36.0601 87.9472 39.2567 86.0882Z" fill="white" stroke="#263238" stroke-miterlimit="10"/>
<path d="M54.497 85.4194C54.497 85.4194 51.5974 87.6502 51.2256 87.6502C50.8538 87.6502 48.623 88.2442 48.623 88.2442" fill="white"/>
<path d="M54.497 85.4194C54.497 85.4194 51.5974 87.6502 51.2256 87.6502C50.8538 87.6502 48.623 88.2442 48.623 88.2442" stroke="#263238" stroke-miterlimit="10"/>
<path d="M54.7185 86.6099C54.7185 86.6099 52.4151 88.6163 52.1907 88.7659C51.9663 88.9155 49.8125 89.2851 49.8125 89.2851" fill="white"/>
<path d="M54.7185 86.6099C54.7185 86.6099 52.4151 88.6163 52.1907 88.7659C51.9663 88.9155 49.8125 89.2851 49.8125 89.2851" stroke="#263238" stroke-miterlimit="10"/>
<path d="M75.24 106.097C73.2424 102.817 67.133 93.3768 63.261 93.7464C58.5772 94.1864 43.6348 100.287 43.6348 100.287L70.752 106.097H75.24Z" fill="#263238" stroke="#263238" stroke-miterlimit="10"/>
<path d="M42.0056 106.097V93.7201C42.0091 93.378 41.8767 93.0485 41.6375 92.8039C41.3983 92.5592 41.0717 92.4196 40.7296 92.4155H31.1706C30.8285 92.4196 30.5019 92.5592 30.2627 92.8039C30.0235 93.0485 29.8911 93.378 29.8946 93.7201V106.106L42.0056 106.097Z" fill="#D4D4D4" stroke="#263238" stroke-miterlimit="10"/>
<path d="M45.126 106.097V93.7529C45.1337 93.5829 45.1078 93.413 45.0498 93.253C44.9918 93.093 44.9029 92.9459 44.7881 92.8203C44.6732 92.6946 44.5348 92.5928 44.3806 92.5207C44.2265 92.4486 44.0596 92.4075 43.8896 92.3999H37.382C37.0398 92.4153 36.7176 92.5656 36.4859 92.8179C36.2542 93.0702 36.1318 93.404 36.1456 93.7463V106.091L45.126 106.097Z" fill="#D4D4D4" stroke="#263238" stroke-miterlimit="10"/>
<path d="M12.0893 106.097H6.40234" stroke="#263238" stroke-miterlimit="10"/>
<path d="M105.252 106.097H14.5527" stroke="#263238" stroke-miterlimit="10"/>
</svg>
