<svg width="134" height="132" viewBox="0 0 134 132" fill="none" xmlns="http://www.w3.org/2000/svg">
<path d="M45.7596 18.4297H15.9688V69.7724H45.7596V18.4297Z" fill="#FAFAFA"/>
<path d="M25.2465 70.266C25.2465 70.266 21.9769 47.166 20.2751 44.629C20.2751 44.629 30.033 37.4086 30.3331 17.8462H15.5234V70.266H25.2465Z" fill="#EBEBEB"/>
<path d="M36.4726 70.163C36.4726 70.163 39.7369 47.063 41.4467 44.526C41.4467 44.526 31.6862 37.3082 31.3887 17.7432H46.1984V70.163H36.4726Z" fill="#EBEBEB"/>
<path d="M46.5416 16.4761H13.2051V71.4699H47.9218V16.4761H46.5416ZM21.9553 45.0488V58.1247H15.9682V45.0488H21.9553ZM15.9682 44.101V30.5658H21.9553V44.101H15.9682ZM31.07 44.101V30.5658H38.5579V44.101H31.07ZM38.5579 45.0488V58.1247H31.07V45.0488H38.5579ZM22.2099 44.101V30.5658H30.0998V44.101H22.2099ZM30.0998 45.0488V58.1247H22.2206V45.0488H30.0998ZM22.2206 30.3334V18.4297H30.1105V30.3334H22.2206ZM30.1105 58.3597V69.7777H22.2206V58.3597H30.1105ZM31.07 58.3597H38.5579V69.7777H31.07V58.3597ZM31.07 30.3334V18.4297H38.5579V30.3334H31.07ZM38.8259 45.0488H45.1614V58.1247H38.8259V45.0488ZM38.8259 44.101V30.5658H45.1614V44.101H38.8259ZM45.1614 30.3334H38.8259V18.4297H45.1614V30.3334ZM21.9553 18.4297V30.3334H15.9682V18.4297H21.9553ZM15.9682 58.3597H21.9553V69.7777H15.9682V58.3597ZM38.8259 69.7777V58.3597H45.1614V69.7777H38.8259Z" fill="#E0E0E0"/>
<path d="M121.26 18.4297H91.4688V69.7724H121.26V18.4297Z" fill="#FAFAFA"/>
<path d="M100.749 70.266C100.749 70.266 97.4849 47.166 95.7751 44.629C95.7751 44.629 105.536 37.4086 105.833 17.8462H91.0234V70.266H100.749Z" fill="#EBEBEB"/>
<path d="M111.977 70.163C111.977 70.163 115.239 47.063 116.949 44.526C116.949 44.526 107.191 37.3082 106.891 17.7432H121.7V70.163H111.977Z" fill="#EBEBEB"/>
<path d="M122.046 16.4761H88.709V71.4699H123.426V16.4761H122.046ZM97.4592 45.0488V58.1247H91.4694V45.0488H97.4592ZM91.4694 44.101V30.5658H97.4592V44.101H91.4694ZM106.571 44.101V30.5658H114.075V44.101H106.571ZM114.075 45.0488V58.1247H106.571V45.0488H114.075ZM97.7272 44.101V30.5658H105.614V44.101H97.7272ZM105.614 45.0488V58.1247H97.7245V45.0488H105.614ZM97.7245 30.3334V18.4297H105.612V30.3334H97.7245ZM105.612 58.3597V69.7777H97.7245V58.3597H105.612ZM106.571 58.3597H114.075V69.7777H106.571V58.3597ZM106.571 30.3334V18.4297H114.075V30.3334H106.571ZM114.327 45.0488H120.663V58.1247H114.327V45.0488ZM114.327 44.101V30.5658H120.663V44.101H114.327ZM120.663 30.3334H114.327V18.4297H120.663V30.3334ZM97.4592 18.4297V30.3334H91.4694V18.4297H97.4592ZM91.4694 58.3597H97.4592V69.7777H91.4694V58.3597ZM114.327 69.7777V58.3597H120.663V69.7777H114.327Z" fill="#E0E0E0"/>
<path d="M63.2186 30.8218H55.9746V39.8295H63.2186V30.8218Z" fill="#EBEBEB"/>
<path d="M60.1456 39.6265H59.1406V39.8667H60.1456V39.6265Z" fill="#E0E0E0"/>
<path d="M59.8285 33.9214L58.4938 34.1141L57.998 35.3496L58.8342 36.3898L60.1662 36.1971L60.6646 34.9642L59.8285 33.9214Z" fill="#E0E0E0"/>
<path d="M60.4542 34.7183L59.1196 34.911L58.6211 36.1465L59.4573 37.1867L60.7919 36.9966L61.2904 35.7611L60.4542 34.7183Z" fill="#FAFAFA"/>
<path d="M60.2882 30.6978H59.2832V30.9037H60.2882V30.6978Z" fill="#E0E0E0"/>
<path d="M80.798 18.7969H68.7031V33.837H80.798V18.7969Z" fill="#EBEBEB"/>
<path d="M75.666 33.5015H73.9883V33.9027H75.666V33.5015Z" fill="#E0E0E0"/>
<path d="M75.1367 23.9761L72.907 24.2955L72.0762 26.3574L73.4724 28.0971L75.6995 27.7777L76.5303 25.7158L75.1367 23.9761Z" fill="#E0E0E0"/>
<path d="M76.1777 25.3066L73.9507 25.6287L73.1172 27.6906L74.5161 29.4303L76.7432 29.1082L77.574 27.049L76.1777 25.3066Z" fill="#FAFAFA"/>
<path d="M75.9003 18.5933H74.2227V18.9365H75.9003V18.5933Z" fill="#E0E0E0"/>
<path d="M60.5309 81.5179C58.8907 81.7819 58.1591 83.7619 58.3011 85.3934C58.4431 87.025 59.1265 88.6169 58.9443 90.2431C58.7111 92.3102 57.1273 94.0553 56.9423 96.125C56.7253 98.567 58.478 100.732 59.0006 103.129C59.2552 104.293 59.2203 105.526 59.6599 106.638C60.0347 107.584 60.7313 108.373 61.6308 108.87C62.5302 109.366 63.5768 109.54 64.592 109.362C65.6072 109.183 66.528 108.663 67.1974 107.891C67.8668 107.118 68.2433 106.14 68.2627 105.125C68.2975 103.25 67.1237 101.484 67.2657 99.6151C67.3702 98.2318 68.193 96.9223 68.0188 95.5469C67.8071 93.9127 66.2687 92.7511 65.7274 91.1909C65.186 89.6306 65.7059 87.912 65.5183 86.2726C65.1807 83.3316 63.5271 81.2803 60.5309 81.5206" fill="#F5F5F5"/>
<path d="M52.1566 95.7554C51.8886 98.4799 53.0999 101.685 54.523 104.037C55.9642 106.405 58.1336 108.259 60.7165 109.33C61.0032 109.449 61.365 109.549 61.6089 109.357C61.6949 109.263 61.7595 109.152 61.7984 109.031C61.8372 108.91 61.8494 108.783 61.834 108.657C61.8531 105.765 60.9205 102.945 59.1758 100.619C57.4312 98.2932 54.9684 96.5867 52.1566 95.7554Z" fill="#EBEBEB"/>
<path d="M64.2053 115.027C64.1723 114.981 64.1453 114.93 64.1249 114.877C64.0739 114.758 64.0096 114.613 63.9292 114.431C63.7631 114.04 63.5138 113.48 63.1976 112.794C62.3724 111.003 61.4556 109.255 60.4506 107.556C59.4417 105.86 58.346 104.214 57.1676 102.627C56.7147 102.02 56.3395 101.532 56.0768 101.196L55.7793 100.808C55.7417 100.766 55.7102 100.719 55.6855 100.668C55.6855 100.668 55.7311 100.705 55.8035 100.79L56.1251 101.159C56.3931 101.482 56.7897 101.951 57.256 102.564C58.4641 104.135 59.5765 105.776 60.5873 107.477C61.5958 109.183 62.5014 110.946 63.2994 112.757C63.6023 113.451 63.8354 114.019 63.9855 114.415C64.0552 114.6 64.1115 114.753 64.1543 114.872C64.1772 114.922 64.1942 114.974 64.2053 115.027Z" fill="#E0E0E0"/>
<path d="M62.4223 89.0552C62.4399 89.1422 62.4507 89.2305 62.4545 89.3192C62.4679 89.504 62.4867 89.7548 62.5081 90.0689C62.551 90.7369 62.6126 91.6741 62.6903 92.8304C62.8377 95.1615 63.0495 98.3744 63.3014 101.936C63.5533 105.497 63.8052 108.71 63.9901 111.038C64.0786 112.192 64.1536 113.132 64.2045 113.797C64.226 114.111 64.2421 114.362 64.2555 114.547C64.2626 114.635 64.2626 114.723 64.2555 114.811C64.2353 114.724 64.2219 114.636 64.2153 114.547C64.1965 114.365 64.1697 114.114 64.1349 113.8C64.0705 113.135 63.9821 112.197 63.8669 111.046C63.6551 108.718 63.3871 105.502 63.1325 101.944C62.8779 98.3849 62.685 95.1668 62.5644 92.833C62.5108 91.6767 62.4652 90.7369 62.4331 90.0689C62.4331 89.7548 62.4143 89.504 62.4089 89.3192C62.4063 89.231 62.4108 89.1427 62.4223 89.0552Z" fill="#E0E0E0"/>
<path d="M59.8809 111.144H66.8087V116.16C66.8087 117.029 66.4583 117.862 65.8345 118.477C65.2108 119.091 64.3649 119.436 63.4828 119.436C62.6314 119.436 61.8126 119.114 61.1948 118.537C60.5771 117.96 60.2075 117.172 60.1623 116.334L59.8809 111.144Z" fill="#E0E0E0"/>
<path d="M126.999 119.521C126.999 119.558 99.8804 119.589 66.4313 119.589C32.9822 119.589 5.86328 119.558 5.86328 119.521C5.86328 119.484 32.9768 119.452 66.4313 119.452C99.8857 119.452 126.999 119.484 126.999 119.521Z" fill="#263238"/>
<path d="M89.1152 63.7349L88.0432 63.5158C87.0865 63.2333 86.5451 63.1119 86.3227 62.803C86.0279 62.3885 86.5907 62.1509 86.5907 62.1509C86.5907 62.1509 85.9314 61.7734 86.0842 61.3589C86.1216 61.2767 86.1847 61.2084 86.2642 61.1638C86.3437 61.1192 86.4355 61.1006 86.5264 61.1108C86.5264 61.1108 85.9528 60.7491 85.8805 60.4693C85.7813 60.0891 86.2584 59.9888 86.2584 59.9888C85.5133 59.3076 85.6929 58.8113 85.8992 58.8008C86.1056 58.7902 86.7032 59.2153 86.7032 59.2153C87.2392 59.4793 88.665 60.2369 88.2657 59.2971C87.8664 58.3573 87.9173 57.4887 88.0968 57.2616C88.1443 57.2133 88.206 57.1808 88.2732 57.169C88.3404 57.1572 88.4097 57.1666 88.4712 57.1959C88.5327 57.2251 88.5832 57.2728 88.6156 57.332C88.648 57.3912 88.6606 57.459 88.6516 57.5256C88.6754 57.8689 88.7466 58.2073 88.8633 58.5315C88.9481 58.7949 89.0777 59.0422 89.2466 59.2628C89.4449 59.5268 89.6218 59.7301 89.7826 59.9043L90.5571 60.9973L89.1152 63.7349Z" fill="#FFBE9D"/>
<path d="M84.9885 118.465L85.9105 116.548L89.566 118.227L88.2474 121.044L88.0143 120.955C86.9798 120.545 82.7829 118.808 82.204 118.296C81.5581 117.726 84.9885 118.465 84.9885 118.465Z" fill="#EF233C"/>
<g opacity="0.3">
<path d="M86.9336 120.405C87.1321 120.127 87.4279 119.93 87.7644 119.853C88.0953 119.772 88.4451 119.819 88.7426 119.983L88.2656 120.989L86.9336 120.405Z" fill="white"/>
</g>
<g opacity="0.3">
<path d="M83.2869 118.156C83.2869 118.156 82.0541 117.966 82.1051 118.206C82.156 118.446 86.3314 120.358 88.2476 121.044L88.2798 120.96L83.3915 118.768C83.3915 118.768 83.496 118.272 83.2869 118.156Z" fill="white"/>
</g>
<path d="M88.3351 120.984L88.2707 120.962L88.0858 120.891L87.4078 120.614C86.8369 120.376 86.0517 120.038 85.1968 119.645C84.3419 119.252 83.57 118.882 83.0179 118.605L82.3667 118.272L82.1925 118.18L82.1309 118.146C82.1535 118.151 82.1752 118.16 82.1952 118.172L82.3747 118.256L83.034 118.576C83.5888 118.84 84.3606 119.209 85.2155 119.603C86.0705 119.996 86.853 120.337 87.4212 120.582L88.0912 120.873L88.2734 120.952L88.3351 120.984Z" fill="#263238"/>
<path d="M83.367 118.824C83.3875 118.703 83.3947 118.58 83.3884 118.457C83.3664 118.335 83.3304 118.215 83.2812 118.101C83.367 118.199 83.4209 118.321 83.4362 118.449C83.4515 118.578 83.4274 118.709 83.367 118.824Z" fill="#263238"/>
<path d="M84.6879 118.782C84.6568 118.722 84.6394 118.656 84.637 118.589C84.621 118.525 84.621 118.458 84.637 118.394C84.637 118.394 84.6718 118.475 84.6852 118.584C84.7028 118.648 84.7037 118.716 84.6879 118.782Z" fill="#263238"/>
<path d="M85.07 118.763C85.0566 118.763 85.0164 118.702 84.9788 118.618C84.9413 118.533 84.9226 118.462 84.936 118.457C84.9494 118.452 84.9896 118.515 85.0244 118.599C85.0537 118.649 85.0694 118.706 85.07 118.763Z" fill="#263238"/>
<path d="M85.4145 118.507C85.4145 118.52 85.3207 118.491 85.2135 118.444C85.1459 118.422 85.0838 118.386 85.0312 118.338C85.0313 118.325 85.1277 118.354 85.2323 118.402C85.2999 118.424 85.362 118.46 85.4145 118.507Z" fill="#263238"/>
<path d="M85.594 118.299C85.5108 118.311 85.4258 118.298 85.3502 118.262C85.2705 118.24 85.1995 118.195 85.1465 118.132C85.2232 118.153 85.2977 118.182 85.3689 118.217C85.4462 118.238 85.5215 118.265 85.594 118.299Z" fill="#263238"/>
<path d="M84.7232 118.41C84.6398 118.387 84.561 118.35 84.49 118.301C84.4095 118.252 84.3341 118.196 84.2649 118.132C84.2228 118.095 84.1851 118.054 84.1524 118.008C84.1321 117.98 84.1235 117.945 84.1282 117.911C84.1317 117.892 84.1411 117.874 84.155 117.86C84.1688 117.847 84.1866 117.837 84.206 117.834C84.2767 117.833 84.3468 117.848 84.4111 117.877C84.4755 117.906 84.5326 117.949 84.5784 118.002C84.6241 118.055 84.6575 118.117 84.676 118.185C84.6946 118.252 84.6979 118.322 84.6857 118.391C84.6825 118.414 84.6743 118.437 84.6616 118.457C84.6704 118.374 84.6659 118.29 84.6482 118.209C84.6232 118.125 84.5749 118.049 84.5088 117.99C84.4704 117.953 84.4251 117.925 84.3754 117.906C84.3257 117.887 84.2727 117.878 84.2194 117.879C84.1684 117.879 84.1631 117.94 84.1926 117.984C84.2239 118.027 84.2599 118.066 84.2998 118.101C84.3659 118.163 84.4367 118.22 84.5115 118.272C84.6374 118.362 84.7259 118.402 84.7232 118.41Z" fill="#263238"/>
<path d="M84.6569 118.394C84.6525 118.332 84.6705 118.27 84.7078 118.219C84.7438 118.163 84.7924 118.115 84.8499 118.08C84.8864 118.055 84.9285 118.04 84.9725 118.035C85.0164 118.031 85.0608 118.037 85.1018 118.053C85.1228 118.069 85.1368 118.093 85.1408 118.119C85.1448 118.145 85.1385 118.171 85.1232 118.193C85.1008 118.228 85.0705 118.257 85.0348 118.278C84.9802 118.315 84.9207 118.345 84.8579 118.367C84.8016 118.392 84.7399 118.403 84.6783 118.399C84.6783 118.399 84.7453 118.378 84.8445 118.336C84.9028 118.311 84.9577 118.279 85.008 118.241C85.0643 118.206 85.1286 118.13 85.075 118.093C85.0214 118.056 84.9303 118.093 84.874 118.119C84.8197 118.149 84.7723 118.189 84.7346 118.238C84.7057 118.288 84.6797 118.34 84.6569 118.394Z" fill="#263238"/>
<path d="M88.7266 119.964C88.7266 119.964 88.6274 119.906 88.4586 119.851C88.2319 119.777 87.989 119.766 87.7564 119.819C87.5253 119.878 87.3144 119.996 87.1454 120.162C87.0167 120.292 86.9631 120.392 86.9551 120.389C86.9616 120.363 86.9734 120.338 86.9899 120.316C87.0267 120.252 87.0707 120.192 87.1212 120.139C87.2879 119.958 87.5053 119.83 87.7457 119.772C87.9863 119.716 88.2383 119.732 88.4693 119.819C88.5386 119.844 88.6051 119.876 88.6676 119.914C88.7078 119.943 88.7292 119.962 88.7266 119.964Z" fill="#263238"/>
<path d="M89.0577 118.293C88.9684 118.55 88.8628 118.801 88.7414 119.045C88.6344 119.298 88.5127 119.544 88.377 119.782C88.469 119.525 88.5754 119.273 88.6959 119.027C88.8023 118.776 88.9231 118.531 89.0577 118.293Z" fill="#263238"/>
<path d="M86.6404 119.856C86.4474 119.814 86.2603 119.749 86.0829 119.663C85.9002 119.588 85.7274 119.492 85.5684 119.375C85.5684 119.362 85.8069 119.486 86.1044 119.618C86.4018 119.75 86.6457 119.832 86.6404 119.856Z" fill="#263238"/>
<path d="M87.3677 120.173C87.3677 120.173 87.3248 120.212 87.2739 120.254C87.223 120.297 87.1882 120.339 87.1775 120.334C87.1667 120.328 87.1774 120.268 87.2418 120.218C87.3061 120.167 87.3677 120.159 87.3677 120.173Z" fill="#263238"/>
<path d="M87.7835 119.964C87.7835 119.964 87.746 120.004 87.6924 120.025C87.6388 120.046 87.5878 120.052 87.5825 120.038C87.5771 120.025 87.62 119.999 87.6736 119.98C87.7272 119.962 87.7781 119.951 87.7835 119.964Z" fill="#263238"/>
<path d="M88.2428 119.991C88.2428 119.991 88.1865 119.977 88.1222 119.972C88.0579 119.967 88.0096 119.972 88.0043 119.972C87.9989 119.972 88.0525 119.925 88.1276 119.933C88.2026 119.94 88.2508 119.98 88.2428 119.991Z" fill="#263238"/>
<path d="M88.5507 120.046C88.5507 120.046 88.5212 120.067 88.4837 120.065C88.4462 120.062 88.4194 120.049 88.4221 120.036C88.4247 120.022 88.4515 120.014 88.4891 120.017C88.5266 120.02 88.5507 120.033 88.5507 120.046Z" fill="#263238"/>
<path d="M115.823 119.513L114.911 117.591L118.553 115.896L119.918 118.692L119.698 118.813C118.72 119.341 114.686 121.414 113.917 121.527C113.059 121.646 115.823 119.513 115.823 119.513Z" fill="#EF233C"/>
<g opacity="0.3">
<path d="M118.583 119.273C118.489 118.945 118.524 118.595 118.679 118.291C118.828 117.99 119.087 117.755 119.403 117.633L119.888 118.634L118.583 119.273Z" fill="white"/>
</g>
<g opacity="0.3">
<path d="M114.499 120.609C114.499 120.609 113.564 121.424 113.783 121.538C114.003 121.651 118.16 119.69 119.918 118.684L119.872 118.607L115.048 120.92C115.048 120.92 114.705 120.519 114.499 120.609Z" fill="white"/>
</g>
<path d="M119.929 118.578L119.87 118.612L119.695 118.707L119.047 119.045C118.498 119.328 117.734 119.708 116.879 120.101C116.024 120.495 115.247 120.846 114.679 121.089L114.003 121.374L113.818 121.448L113.754 121.469L113.816 121.437L113.995 121.355L114.665 121.06C115.228 120.809 116.005 120.458 116.86 120.057C117.715 119.655 118.468 119.283 119.031 119.001L119.685 118.676L119.864 118.589C119.885 118.583 119.907 118.579 119.929 118.578Z" fill="#263238"/>
<path d="M115.071 120.975C114.992 120.878 114.902 120.789 114.803 120.711C114.693 120.651 114.577 120.602 114.457 120.566C114.589 120.564 114.719 120.601 114.83 120.672C114.94 120.743 115.027 120.845 115.079 120.965L115.071 120.975Z" fill="#263238"/>
<path d="M115.887 119.935C115.887 119.935 115.799 119.909 115.705 119.851C115.611 119.793 115.541 119.737 115.549 119.727C115.557 119.716 115.638 119.753 115.732 119.811C115.825 119.869 115.893 119.925 115.887 119.935Z" fill="#263238"/>
<path d="M116.106 119.642C116.106 119.655 116.025 119.642 115.937 119.618C115.848 119.595 115.779 119.56 115.781 119.547C115.839 119.542 115.897 119.551 115.95 119.574C116.044 119.592 116.108 119.629 116.106 119.642Z" fill="#263238"/>
<path d="M116.131 119.217C116.131 119.231 116.056 119.281 115.951 119.331C115.846 119.381 115.758 119.413 115.75 119.4C115.801 119.35 115.862 119.311 115.93 119.286C116.045 119.236 116.123 119.204 116.131 119.217Z" fill="#263238"/>
<path d="M116.078 118.948C116.078 118.948 116.016 119.043 115.895 119.109C115.826 119.155 115.745 119.18 115.662 119.183C115.802 119.106 115.94 119.028 116.078 118.948Z" fill="#263238"/>
<path d="M115.61 119.679C115.54 119.729 115.461 119.766 115.377 119.788C115.29 119.817 115.2 119.838 115.109 119.851C115.052 119.858 114.994 119.858 114.937 119.851C114.92 119.85 114.903 119.845 114.887 119.838C114.871 119.83 114.857 119.819 114.846 119.806C114.836 119.79 114.83 119.771 114.83 119.752C114.83 119.733 114.836 119.714 114.846 119.698C114.915 119.613 115.012 119.554 115.12 119.531C115.228 119.509 115.34 119.524 115.438 119.574C115.496 119.603 115.547 119.644 115.589 119.692C115.604 119.709 115.616 119.729 115.623 119.751C115.565 119.691 115.497 119.642 115.422 119.605C115.339 119.567 115.245 119.555 115.154 119.571C115.102 119.577 115.051 119.593 115.005 119.618C114.959 119.644 114.919 119.678 114.886 119.719C114.862 119.764 114.886 119.801 114.951 119.806C115.003 119.811 115.056 119.811 115.109 119.806C115.199 119.797 115.289 119.78 115.377 119.756C115.508 119.714 115.607 119.674 115.61 119.679Z" fill="#263238"/>
<path d="M115.557 119.719C115.557 119.719 115.49 119.682 115.453 119.571C115.431 119.507 115.424 119.44 115.434 119.373C115.438 119.33 115.453 119.288 115.477 119.252C115.501 119.215 115.534 119.185 115.573 119.164C115.6 119.159 115.627 119.163 115.65 119.177C115.673 119.191 115.69 119.213 115.697 119.238C115.706 119.278 115.706 119.32 115.697 119.36C115.69 119.425 115.675 119.489 115.651 119.55C115.614 119.656 115.568 119.711 115.563 119.706C115.557 119.7 115.589 119.642 115.619 119.539C115.636 119.48 115.647 119.419 115.651 119.357C115.651 119.291 115.638 119.194 115.576 119.212C115.514 119.23 115.482 119.32 115.469 119.381C115.455 119.441 115.455 119.503 115.469 119.563C115.492 119.618 115.522 119.671 115.557 119.719Z" fill="#263238"/>
<path d="M119.379 117.63C119.379 117.63 119.272 117.67 119.111 117.768C118.911 117.889 118.749 118.064 118.645 118.272C118.542 118.484 118.5 118.719 118.524 118.953C118.543 119.135 118.586 119.241 118.578 119.243C118.562 119.221 118.55 119.196 118.543 119.169C118.517 119.101 118.499 119.03 118.489 118.958C118.454 118.717 118.492 118.471 118.599 118.251C118.707 118.029 118.881 117.845 119.098 117.723C119.162 117.686 119.23 117.655 119.301 117.633C119.327 117.628 119.353 117.627 119.379 117.63Z" fill="#263238"/>
<path d="M118.283 116.316C118.425 116.549 118.554 116.79 118.669 117.037C118.798 117.278 118.913 117.527 119.012 117.781C118.87 117.547 118.741 117.306 118.626 117.058C118.496 116.818 118.381 116.57 118.283 116.316Z" fill="#263238"/>
<path d="M117.955 119.138C117.8 119.259 117.63 119.36 117.449 119.439C117.275 119.532 117.089 119.602 116.896 119.647C116.896 119.647 117.135 119.536 117.432 119.397C117.73 119.257 117.947 119.127 117.955 119.138Z" fill="#263238"/>
<path d="M118.667 118.8C118.667 118.8 118.667 118.861 118.667 118.924C118.667 118.987 118.681 119.043 118.667 119.048C118.654 119.053 118.619 119 118.619 118.927C118.619 118.853 118.654 118.8 118.667 118.8Z" fill="#263238"/>
<path d="M118.778 118.349C118.791 118.349 118.778 118.401 118.764 118.457C118.751 118.512 118.719 118.552 118.708 118.549C118.697 118.547 118.708 118.496 118.708 118.441C118.708 118.386 118.764 118.343 118.778 118.349Z" fill="#263238"/>
<path d="M119.089 118.008C119.089 118.021 119.043 118.045 119 118.087C118.957 118.13 118.93 118.177 118.917 118.175C118.904 118.172 118.917 118.106 118.965 118.053C119.013 118 119.089 118.008 119.089 118.008Z" fill="#263238"/>
<path d="M119.33 117.818C119.33 117.818 119.33 117.855 119.303 117.881C119.276 117.908 119.249 117.918 119.238 117.91C119.228 117.903 119.238 117.874 119.265 117.847C119.292 117.821 119.319 117.808 119.33 117.818Z" fill="#263238"/>
<path d="M120.081 116.841L114.185 119.542L103.583 100.948C102.203 96.0433 100.871 78.7725 100.871 78.7725L108.541 79.348C108.541 79.348 109.723 91.756 111.575 98.1342L120.081 116.841Z" fill="#263238"/>
<path d="M113.242 117.723C113.242 117.723 113.317 117.667 113.465 117.591C113.612 117.514 113.829 117.406 114.097 117.277C114.633 117.013 115.381 116.667 116.209 116.287C117.037 115.907 117.787 115.571 118.334 115.336C118.602 115.217 118.833 115.122 118.985 115.072C119.063 115.033 119.146 115.005 119.232 114.988C119.165 115.042 119.09 115.087 119.01 115.12C118.859 115.196 118.645 115.305 118.377 115.434C117.841 115.698 117.093 116.044 116.268 116.424C115.442 116.804 114.689 117.137 114.14 117.374C113.872 117.493 113.644 117.588 113.489 117.638C113.411 117.678 113.328 117.706 113.242 117.723Z" fill="#455A64"/>
<path d="M112.024 71.8213C112.169 71.8213 113.737 76.3964 112.228 79.4298C112.075 79.7334 110.888 81.4045 110.888 81.4045C106.713 86.2568 102.484 95.6605 101.304 98.1395C98.8925 103.211 89.952 119.893 89.952 119.893L84.2168 116.659L92.6025 95.4203L100.214 76.2539L112.024 71.8213Z" fill="#263238"/>
<path d="M101.685 91.4443C101.685 91.4443 101.28 93.3741 101.071 93.2632C100.474 92.9438 96.3652 91.4364 96.3652 91.4364L97.4748 90.2246L101.685 91.4443Z" fill="#455A64"/>
<path d="M100.473 92.944C100.473 92.944 99.7043 96.0566 98.7154 95.8876C97.7264 95.7187 95.6602 94.6943 95.6602 94.6943L96.9064 91.624L100.473 92.944Z" fill="#455A64"/>
<path d="M101.072 93.2633L96.4863 91.4575L96.7061 92.1202L100.337 93.4296L101.072 93.2633Z" fill="#263238"/>
<path d="M109.03 83.8467C109.011 83.8887 108.986 83.9278 108.955 83.9628L108.72 84.277C108.516 84.541 108.226 84.9528 107.891 85.4624C107.219 86.4814 106.372 87.9387 105.506 89.586C104.641 91.2334 103.898 92.754 103.376 93.847L102.746 95.1485L102.572 95.4996C102.553 95.5418 102.53 95.5817 102.502 95.6184C102.511 95.5737 102.525 95.5302 102.545 95.4891L102.698 95.1274C102.832 94.8132 103.033 94.3618 103.285 93.8074C103.794 92.6986 104.512 91.1674 105.383 89.5227C106.108 88.1083 106.914 86.7351 107.795 85.4096C108.143 84.9053 108.444 84.5093 108.663 84.2453C108.765 84.1239 108.851 84.0262 108.931 83.947C108.96 83.9096 108.993 83.8759 109.03 83.8467Z" fill="#455A64"/>
<path d="M84.6544 115.669C84.6705 115.637 86.0239 116.271 87.6775 117.087C89.331 117.903 90.655 118.594 90.6255 118.629C90.596 118.663 89.256 118.027 87.6024 117.211C85.9489 116.395 84.6384 115.703 84.6544 115.669Z" fill="#455A64"/>
<path d="M91.4695 60.8862C91.1584 61.5777 90.8058 62.2503 90.4136 62.9005C90.0621 63.5736 89.6683 64.2243 89.2344 64.8489C89.546 64.1568 89.8986 63.4833 90.2903 62.8319C90.6438 62.1608 91.0375 61.5111 91.4695 60.8862Z" fill="#263238"/>
<path d="M102.303 52.853C102.617 52.853 102.99 55.097 103.306 59.1283C103.665 63.7008 103.633 68.3155 102.349 71.2169C102.231 71.5267 102.051 71.8104 101.821 72.0518C101.591 72.2933 101.315 72.4877 101.009 72.624C97.6859 73.9757 88.5176 64.2921 88.5176 64.2921L90.7741 60.3929L97.2303 65.5277C97.2303 65.5277 97.8735 60.3321 97.7502 57.9377C97.651 56.1213 99.4922 52.8741 102.303 52.853Z" fill="#455A64"/>
<path d="M105.161 52.8975C105.161 52.8975 110.767 53.7054 112.217 55.8754C113.667 58.0455 112.933 77.1855 112.933 77.1855L98.5195 78.025C98.5195 78.025 99.6827 53.6631 100.396 53.3859C102.186 52.6942 104.946 52.8289 105.161 52.8975Z" fill="#455A64"/>
<path d="M82.0863 47.8582C82.0443 47.2774 82.1541 46.6957 82.4052 46.1686C82.5164 45.9431 82.575 45.6959 82.5767 45.4452V44.8037H74.1749C73.833 44.8037 73.5052 44.9375 73.2634 45.1756C73.0217 45.4138 72.8858 45.7368 72.8858 46.0736V54.3156H72.3177C72.0552 54.3132 71.7967 54.2518 71.5619 54.1361C71.0353 53.8863 70.4534 53.7711 69.8697 53.8009C69.286 53.8308 68.7193 54.0048 68.2218 54.307C67.7243 54.6092 67.312 55.0298 67.0228 55.5302C66.7336 56.0305 66.5768 56.5945 66.5669 57.1702C66.557 57.7458 66.6943 58.3147 66.9661 58.8244C67.2379 59.3341 67.6356 59.7683 68.1224 60.0869C68.6092 60.4055 69.1696 60.5984 69.7519 60.6477C70.3343 60.697 70.9198 60.6012 71.4547 60.3692C71.6761 60.2699 71.9163 60.2177 72.1596 60.216H72.8966V68.2522C72.8962 68.4192 72.9293 68.5846 72.9939 68.739C73.0585 68.8933 73.1534 69.0336 73.2732 69.1518C73.3929 69.27 73.5351 69.3638 73.6917 69.4278C73.8483 69.4917 74.0161 69.5247 74.1856 69.5247H96.8826C97.1612 69.5247 97.4284 69.4156 97.6254 69.2216C97.8224 69.0275 97.9331 68.7643 97.9331 68.4898V45.8386C97.9335 45.7026 97.9065 45.5679 97.8539 45.4422C97.8012 45.3164 97.7238 45.2022 97.6262 45.106C97.5286 45.0099 97.4126 44.9337 97.285 44.8818C97.1574 44.8299 97.0206 44.8034 96.8826 44.8037H88.6818V45.7198C88.6809 45.9317 88.7228 46.1417 88.805 46.3376C88.997 46.7981 89.0849 47.2943 89.0627 47.7916C89.0405 48.289 88.9087 48.7756 88.6765 49.2178C88.4443 49.66 88.1172 50.0471 87.7179 50.3523C87.3187 50.6575 86.8568 50.8735 86.3643 50.9853C85.8718 51.0971 85.3605 51.102 84.8659 50.9996C84.3713 50.8973 83.9053 50.6902 83.5 50.3927C83.0948 50.0952 82.7602 49.7144 82.5193 49.2767C82.2784 48.8391 82.137 48.355 82.105 47.8582H82.0863Z" fill="#EF233C"/>
<path d="M99.498 56.9688C99.5064 57.0212 99.5109 57.0741 99.5114 57.1272C99.5114 57.2486 99.5114 57.3912 99.5114 57.5839C99.5114 57.9984 99.5114 58.5686 99.5328 59.2629C99.5328 60.6806 99.557 62.6395 99.5114 64.8069C99.4658 66.9744 99.3452 68.9306 99.1978 70.3509C99.1228 71.0584 99.0504 71.626 98.9915 72.0194C98.962 72.2042 98.9379 72.352 98.9164 72.4708C98.9125 72.5241 98.9008 72.5766 98.8816 72.6266C98.878 72.5739 98.878 72.5209 98.8816 72.4682C98.895 72.3494 98.9084 72.2042 98.9298 72.0141C98.97 71.6181 99.029 71.0479 99.0906 70.343C99.2139 68.9306 99.3238 66.977 99.3586 64.8148C99.3935 62.6527 99.4015 60.6964 99.4203 59.2708C99.4203 58.5765 99.439 58.0063 99.4444 57.5918C99.4444 57.407 99.4444 57.2539 99.4578 57.1351C99.4635 57.0781 99.4771 57.0222 99.498 56.9688Z" fill="#263238"/>
<path d="M108.071 43.874C107.84 45.3155 107.854 46.58 108.569 47.5199C108.724 47.7006 108.868 47.8911 108.998 48.0901C109.063 48.1902 109.106 48.3023 109.124 48.4195C109.143 48.5366 109.138 48.6563 109.108 48.7712C109.075 48.8731 109.014 48.9645 108.934 49.0359C108.853 49.1073 108.754 49.1561 108.647 49.1773C108.541 49.1986 108.431 49.1915 108.328 49.1568C108.225 49.122 108.133 49.0609 108.063 48.9798C108.086 49.1428 108.059 49.309 107.986 49.4571C107.913 49.6052 107.797 49.7286 107.653 49.8114C107.579 49.8449 107.498 49.8613 107.417 49.8596C107.336 49.8578 107.256 49.8379 107.183 49.8012C107.111 49.7646 107.048 49.7123 107 49.6482C106.951 49.5841 106.918 49.5099 106.902 49.4312C106.902 49.4312 107.092 50.1625 106.24 50.049L106.841 45.033L108.071 43.874Z" fill="#263238"/>
<path d="M104.253 54.9624C103.921 54.9624 103.592 54.8935 103.288 54.7602C102.984 54.627 102.713 54.4323 102.49 54.1888C102.268 53.9454 102.1 53.6586 101.997 53.347C101.895 53.0355 101.86 52.7062 101.895 52.3805C101.972 51.6308 102.042 51.0209 102.042 51.0209C102.042 51.0209 100.166 50.7332 100.142 48.8852C100.118 47.0372 100.445 42.7947 100.445 42.7947C101.511 42.3438 102.68 42.1814 103.832 42.3243C104.983 42.4673 106.075 42.9103 106.995 43.6078L107.263 43.8164L106.611 52.7924C106.569 53.3805 106.302 53.931 105.865 54.3334C105.427 54.7359 104.852 54.9606 104.253 54.9624Z" fill="#FFBE9D"/>
<path d="M100.927 46.1312C100.966 46.0958 100.993 46.05 101.005 45.9995C101.017 45.949 101.014 45.8961 100.996 45.8473C100.978 45.7985 100.946 45.7561 100.903 45.7253C100.861 45.6945 100.81 45.6767 100.758 45.6741C100.705 45.6716 100.653 45.6844 100.607 45.711C100.562 45.7376 100.526 45.7767 100.503 45.8235C100.48 45.8703 100.472 45.9227 100.479 45.9742C100.486 46.0256 100.509 46.0738 100.544 46.1127C100.567 46.1391 100.596 46.1605 100.629 46.1758C100.661 46.191 100.696 46.1998 100.731 46.2015C100.767 46.2032 100.803 46.1979 100.836 46.1858C100.87 46.1737 100.901 46.1552 100.927 46.1312Z" fill="#263238"/>
<path d="M100.408 45.5481C100.437 45.5798 100.622 45.4399 100.879 45.4399C101.137 45.4399 101.327 45.5692 101.354 45.5376C101.38 45.5059 101.34 45.4663 101.257 45.4029C101.147 45.3247 101.015 45.2839 100.879 45.2868C100.743 45.2867 100.611 45.3293 100.501 45.4082C100.421 45.4768 100.394 45.5349 100.408 45.5481Z" fill="#263238"/>
<path d="M103.384 45.9362C103.353 45.9541 103.326 45.9779 103.305 46.0061C103.283 46.0344 103.268 46.0666 103.26 46.1008C103.251 46.135 103.25 46.1705 103.255 46.2052C103.261 46.24 103.274 46.2733 103.293 46.3032C103.311 46.3338 103.335 46.3606 103.364 46.3818C103.393 46.403 103.426 46.4183 103.461 46.4266C103.496 46.435 103.532 46.4363 103.568 46.4306C103.603 46.4248 103.637 46.412 103.668 46.3929C103.699 46.3748 103.726 46.3507 103.747 46.3222C103.768 46.2936 103.783 46.2611 103.792 46.2266C103.8 46.1921 103.801 46.1563 103.795 46.1214C103.789 46.0865 103.776 46.0531 103.756 46.0233C103.738 45.9932 103.713 45.967 103.685 45.9463C103.656 45.9256 103.623 45.9108 103.588 45.9026C103.554 45.8945 103.518 45.8933 103.483 45.8991C103.447 45.9048 103.414 45.9175 103.384 45.9362Z" fill="#263238"/>
<path d="M103.212 45.7723C103.242 45.804 103.427 45.664 103.684 45.664C103.941 45.664 104.132 45.7934 104.158 45.7617C104.185 45.73 104.142 45.6904 104.062 45.6271C103.951 45.5485 103.818 45.5077 103.681 45.5109C103.545 45.5111 103.413 45.5557 103.306 45.6376C103.226 45.701 103.199 45.7591 103.212 45.7723Z" fill="#263238"/>
<path d="M102.179 47.8713C102.045 47.821 101.904 47.7916 101.76 47.7842C101.693 47.7842 101.64 47.7631 101.635 47.7261C101.632 47.6595 101.648 47.5935 101.683 47.536L101.886 47.008C102.081 46.5711 102.229 46.1154 102.329 45.6484C102.091 46.0682 101.897 46.5104 101.75 46.9684C101.683 47.148 101.618 47.3196 101.557 47.4964C101.512 47.5817 101.499 47.6798 101.519 47.7736C101.529 47.7989 101.544 47.8216 101.564 47.84C101.584 47.8583 101.608 47.8718 101.635 47.8792C101.672 47.8888 101.711 47.8941 101.75 47.8951C101.893 47.9114 102.038 47.9034 102.179 47.8713Z" fill="#263238"/>
<path d="M103.018 48.1539C103.286 47.9955 102.275 48.5419 101.75 48.5155C101.837 48.6491 101.968 48.7495 102.121 48.8003C102.274 48.8512 102.44 48.8494 102.592 48.7954C103.154 48.5921 103.018 48.1539 103.018 48.1539Z" fill="white"/>
<path d="M102.025 50.9945C102.891 51.0104 103.742 50.7714 104.469 50.3081C104.469 50.3081 103.89 51.6281 102.02 51.4723L102.025 50.9945Z" fill="#EB996E"/>
<path d="M107.262 45.6061C107.302 45.5929 108.661 45.5005 108.436 47.0581C108.211 48.6157 106.689 47.8764 106.691 47.8316C106.694 47.7867 107.262 45.6061 107.262 45.6061Z" fill="#FFBE9D"/>
<path d="M107.254 47.354C107.254 47.354 107.278 47.3777 107.324 47.4041C107.354 47.4228 107.387 47.4355 107.422 47.4414C107.457 47.4473 107.493 47.4463 107.527 47.4384C107.639 47.3887 107.735 47.3107 107.805 47.2123C107.876 47.1139 107.919 46.9988 107.929 46.8788C107.955 46.7462 107.948 46.6098 107.911 46.4801C107.903 46.4294 107.882 46.3814 107.852 46.34C107.821 46.2987 107.78 46.2652 107.734 46.2425C107.703 46.2292 107.669 46.2273 107.637 46.237C107.605 46.2467 107.577 46.2674 107.56 46.2953C107.533 46.3349 107.538 46.3666 107.527 46.3692C107.517 46.3719 107.498 46.3376 107.527 46.2768C107.541 46.2384 107.569 46.2064 107.605 46.1871C107.629 46.1734 107.655 46.1647 107.682 46.1615C107.709 46.1583 107.737 46.1607 107.763 46.1686C107.826 46.193 107.881 46.2331 107.924 46.2849C107.966 46.3368 107.994 46.3986 108.004 46.4643C108.053 46.6079 108.064 46.7614 108.037 46.9104C108.025 47.0504 107.971 47.1838 107.882 47.2938C107.794 47.4038 107.674 47.4853 107.538 47.5282C107.494 47.5341 107.449 47.5304 107.406 47.5171C107.363 47.5039 107.324 47.4815 107.292 47.4516C107.251 47.3909 107.249 47.3566 107.254 47.354Z" fill="#EB996E"/>
<path d="M99.9398 42.6176C99.9673 42.4607 100.056 42.3207 100.188 42.2279C100.319 42.135 100.482 42.0967 100.642 42.1212C100.534 42.1121 100.43 42.0787 100.337 42.0234C100.245 41.9682 100.166 41.8927 100.108 41.8028C100.05 41.7129 100.013 41.611 100.001 41.505C99.9897 41.399 100.003 41.2917 100.04 41.1915C100.077 41.0913 100.137 41.0009 100.215 40.9273C100.294 40.8536 100.388 40.7987 100.491 40.7669C100.595 40.735 100.704 40.727 100.811 40.7435C100.918 40.76 101.02 40.8005 101.108 40.862C100.897 40.6665 100.729 40.4301 100.615 40.1676C100.558 40.0334 100.544 39.8848 100.577 39.7428C100.61 39.6007 100.687 39.4723 100.797 39.3756C100.92 39.3061 101.058 39.2695 101.199 39.2695C101.34 39.2695 101.479 39.3061 101.601 39.3756C101.987 39.5684 102.279 39.9168 102.673 40.0805C103.067 40.2442 103.531 40.2046 103.968 40.2495C104.453 40.2885 104.914 40.4779 105.284 40.7907C105.468 40.9466 105.612 41.143 105.705 41.3641C105.799 41.5851 105.838 41.8245 105.82 42.0632C106.412 42.0288 107.061 42.0632 107.519 42.4248C107.484 42.1897 107.513 41.9496 107.604 41.7293C107.694 41.5089 107.842 41.3162 108.033 41.1708C108.277 41.0041 108.559 40.9015 108.855 40.8728C109.15 40.8442 109.447 40.8904 109.719 41.0072C109.848 41.0504 109.966 41.1198 110.066 41.2107C110.167 41.3016 110.246 41.4121 110.301 41.5352C110.421 41.8916 110.193 42.2744 109.907 42.5225C109.638 42.7468 109.32 42.9059 108.978 42.9871C108.636 43.0683 108.279 43.0692 107.937 42.9898C108.045 43.2653 108.091 43.5609 108.071 43.8557C108.041 44.3652 107.626 44.8932 107.444 45.3711L107.404 45.6852L107.093 46.992L106.262 46.926L106.49 44.1804C106.49 44.1804 106.645 43.0268 105.627 43.0664C104.608 43.106 103.164 44.1488 101.213 43.7448C100.893 43.7073 100.585 43.6 100.312 43.4307C100.184 43.3389 100.082 43.2156 100.016 43.0729C99.9509 42.9303 99.9245 42.7733 99.9398 42.6176Z" fill="#263238"/>
<path d="M110.866 43.8241C110.71 43.9424 110.525 44.0205 110.33 44.0512C109.857 44.1572 109.36 44.1 108.924 43.8891C108.488 43.6782 108.139 43.3263 107.935 42.8922C107.839 42.7207 107.788 42.5283 107.787 42.3325C107.811 42.3325 107.854 42.5464 108.023 42.8605C108.239 43.2575 108.576 43.5777 108.987 43.7761C109.397 43.9745 109.861 44.0412 110.312 43.9667C110.655 43.898 110.856 43.7977 110.866 43.8241Z" fill="#263238"/>
<path d="M108.876 45.3447C108.854 45.3447 108.876 45.181 108.827 44.9381C108.751 44.6208 108.62 44.3189 108.439 44.0458C108.249 43.7669 108.079 43.4759 107.929 43.1746C107.86 43.0501 107.823 42.9103 107.822 42.7681C107.897 42.8842 107.963 43.006 108.018 43.1324C108.139 43.3541 108.345 43.6393 108.554 43.9745C108.746 44.2601 108.872 44.5836 108.924 44.9223C108.955 45.0645 108.938 45.2129 108.876 45.3447Z" fill="#263238"/>
<path d="M94.9906 60.6146C94.0578 60.0557 93.1568 59.4467 92.2918 58.7904C91.2547 57.9271 91.3297 57.8321 91.4503 57.7344C91.7719 57.4519 93.3263 59.1864 93.2111 58.6162C93.0958 58.0459 91.0671 56.7206 91.4101 56.4408C91.8657 56.0738 93.463 57.9192 93.6104 58.0644C93.7578 58.2096 93.9722 58.001 93.8328 57.877C93.6318 57.6974 91.5736 55.765 92.0158 55.4006C92.2624 55.1974 92.5786 55.6778 92.5786 55.6778C92.5786 55.6778 94.3742 57.6341 94.5779 57.4546C94.7816 57.275 93.7739 56.0897 93.3987 55.7148C93.0235 55.3399 93.0583 55.0205 93.3558 54.9914C93.5568 54.973 94.7172 56.0923 95.0764 56.4698C95.4355 56.8474 96.3949 57.906 96.3413 56.9978C96.2877 56.0897 96.5825 55.3663 96.7969 55.2264C97.0113 55.0865 97.282 55.3399 97.1801 55.6039C97.0984 55.9016 97.0587 56.209 97.0622 56.5174C97.0545 56.765 97.0889 57.0122 97.1641 57.2486C97.2284 57.4519 97.2927 57.6314 97.3544 57.7898L97.9841 59.4979L96.403 61.47L94.9906 60.6146Z" fill="#FFBE9D"/>
<path d="M110.591 54.7432C110.923 54.825 112.901 55.8335 112.933 60.2502C112.957 63.7614 112.684 71.5547 110.253 72.7136C109.152 73.2416 107.479 73.2416 106.027 72.3044C101.932 69.6988 94.6797 61.2983 94.6797 61.2983L97.9252 57.8927C97.9252 57.8927 106.351 66.3407 106.71 66.0292C107.246 65.5592 106.423 61.5253 106.884 57.5389C107.201 54.7036 108.541 54.2389 110.591 54.7432Z" fill="#455A64"/>
<path d="M97.9196 58.0142C97.9034 58.0358 97.8845 58.0554 97.8633 58.0722L97.6891 58.2412C97.5363 58.3864 97.3112 58.6029 97.0271 58.8933C96.2184 59.7161 95.4747 60.5987 94.8027 61.5333V61.4726C97.0915 63.772 100.431 67.1169 104.137 70.8366C105.013 71.6569 106.081 72.251 107.246 72.5658C107.795 72.7162 108.371 72.7415 108.932 72.6398C109.465 72.5237 109.959 72.2777 110.371 71.9243C111.122 71.2469 111.671 70.3807 111.96 69.419C112.216 68.5804 112.389 67.7192 112.475 66.8476C112.692 65.2636 112.807 63.9436 112.858 63.0539C112.885 62.6051 112.898 62.2619 112.909 62.019V61.755C112.905 61.7252 112.905 61.6951 112.909 61.6653C112.913 61.696 112.913 61.727 112.909 61.7577C112.909 61.8237 112.909 61.9134 112.909 62.0217C112.909 62.2593 112.909 62.6078 112.885 63.0592C112.85 63.9594 112.751 65.2636 112.544 66.8634C112.464 67.7426 112.296 68.6118 112.043 69.4586C111.753 70.4418 111.198 71.3289 110.435 72.0246C110.008 72.3936 109.494 72.6505 108.94 72.7718C108.36 72.8777 107.763 72.8525 107.195 72.6978C106.006 72.3801 104.915 71.7759 104.022 70.9396C100.302 67.2146 96.9896 63.8459 94.717 61.5412L94.6875 61.5122L94.7116 61.4805C95.3931 60.5484 96.1495 59.6717 96.9735 58.859C97.2657 58.5765 97.5095 58.3653 97.6569 58.2227L97.8392 58.067L97.9196 58.0142Z" fill="#263238"/>
<path d="M97.9222 57.8926C97.9222 57.8926 97.941 57.8926 97.9678 57.9296L98.0937 58.0537L98.5734 58.5315C98.9888 58.9486 99.5972 59.5453 100.361 60.2766C101.125 61.0078 102.047 61.879 103.087 62.8347L104.727 64.3316C105.303 64.8438 105.898 65.3876 106.536 65.8998L106.426 65.9526C106.445 65.641 106.463 65.311 106.482 64.9784C106.589 63.2334 106.688 61.5702 106.78 60.0574C106.836 59.3024 106.849 58.5817 106.932 57.9085C106.994 57.279 107.17 56.6656 107.452 56.0974C107.686 55.6253 108.041 55.2213 108.481 54.9253C108.818 54.708 109.205 54.5781 109.607 54.5478C109.859 54.5271 110.113 54.5577 110.352 54.6375C110.436 54.6618 110.516 54.6974 110.591 54.7431C110.591 54.7431 110.507 54.7088 110.344 54.6639C110.106 54.597 109.856 54.5755 109.61 54.6006C109.221 54.6402 108.848 54.7735 108.524 54.9886C108.102 55.2856 107.763 55.6824 107.538 56.1423C107.27 56.7026 107.103 57.3048 107.045 57.9217C106.97 58.587 106.962 59.3077 106.908 60.0627L106.621 64.9837C106.603 65.3163 106.581 65.649 106.565 65.9578V66.0925L106.461 66.0106C105.807 65.4826 105.223 64.9546 104.646 64.4266C104.07 63.8986 103.529 63.4023 103.009 62.9218C101.974 61.9582 101.058 61.0738 100.302 60.3426C99.5463 59.6113 98.9486 58.9909 98.544 58.5632C98.3376 58.352 98.1875 58.183 98.083 58.0669L97.9678 57.9375C97.9329 57.9085 97.9195 57.8926 97.9222 57.8926Z" fill="#263238"/>
<path d="M96.1113 62.7078C96.2269 62.5054 96.3643 62.316 96.5214 62.1428C96.7894 61.8075 97.1699 61.3508 97.6068 60.8571C98.0436 60.3634 98.4483 59.9278 98.7484 59.619C98.9019 59.4427 99.0734 59.2826 99.2603 59.1411C99.1319 59.3359 98.9847 59.518 98.8208 59.685L97.7113 60.9469L96.5964 62.2062C96.4512 62.3881 96.2888 62.556 96.1113 62.7078Z" fill="#263238"/>
<path d="M107.268 67.9352C107.102 67.6125 106.966 67.2759 106.861 66.9294C106.709 66.5999 106.587 66.258 106.496 65.9077C106.894 66.5234 107.156 67.2139 107.268 67.9352Z" fill="#263238"/>
<path d="M108.005 67.3727C107.69 67.1812 107.4 66.9515 107.142 66.689C106.854 66.4566 106.596 66.1906 106.373 65.897C106.979 66.3185 107.527 66.8144 108.005 67.3727Z" fill="#263238"/>
<path d="M27.7322 106.701L19.124 114.354L16.7656 111.381L24.3098 102.176L27.7322 106.701Z" fill="#FFBE9D"/>
<path d="M19.3233 114.642L19.6181 114.378L16.9005 111.091L15.6758 112.147L15.8393 112.353C16.5709 113.269 19.6288 116.96 20.3309 117.387C21.1135 117.862 19.3233 114.642 19.3233 114.642Z" fill="#EF233C"/>
<g opacity="0.5">
<path d="M16.7296 113.271C16.9591 112.99 17.0737 112.634 17.0512 112.274C17.035 111.917 16.8817 111.58 16.6224 111.331L15.7246 112.123L16.7296 113.271Z" fill="white"/>
</g>
<path opacity="0.5" d="M20.1514 116.257C20.1514 116.257 20.7195 117.44 20.4542 117.459C20.1889 117.477 16.9702 113.863 15.6758 112.147L15.7535 112.089L19.4867 116.337C19.4867 116.337 19.9772 116.081 20.1514 116.257Z" fill="white"/>
<path d="M15.7109 112.039C15.723 112.059 15.7374 112.079 15.7538 112.097L15.8825 112.263L16.3729 112.86C16.7883 113.361 17.3752 114.045 18.0372 114.787C18.6991 115.529 19.3155 116.189 19.7685 116.661L20.3045 117.216L20.4519 117.363C20.4687 117.382 20.4876 117.399 20.5081 117.414L20.4599 117.356L20.3179 117.202C20.1758 117.047 19.9989 116.859 19.7819 116.637C19.337 116.16 18.7259 115.497 18.064 114.755C17.402 114.013 16.8124 113.332 16.3863 112.836L15.8851 112.25L15.7485 112.091C15.7379 112.072 15.7253 112.055 15.7109 112.039Z" fill="#263238"/>
<path d="M19.4355 116.379C19.5546 116.319 19.6806 116.274 19.8107 116.245C19.9434 116.23 20.0774 116.23 20.2101 116.245C20.0857 116.177 19.9404 116.159 19.8027 116.192C19.6611 116.208 19.5303 116.274 19.4355 116.379Z" fill="#263238"/>
<path d="M19.082 115.027C19.1516 115.044 19.2241 115.044 19.2938 115.027C19.409 115.012 19.5001 114.985 19.4974 114.969C19.3556 114.958 19.2129 114.98 19.082 115.035V115.027Z" fill="#263238"/>
<path d="M18.9902 114.653C18.9902 114.653 19.0653 114.687 19.1644 114.697C19.2636 114.708 19.344 114.697 19.3467 114.697C19.3494 114.697 19.269 114.663 19.1698 114.653C19.0706 114.642 18.9902 114.637 18.9902 114.653Z" fill="#263238"/>
<path d="M19.1484 114.227C19.1484 114.227 19.194 114.317 19.2744 114.409C19.3548 114.502 19.4298 114.57 19.4406 114.56C19.4513 114.549 19.395 114.47 19.3119 114.378C19.2288 114.285 19.1592 114.217 19.1484 114.227Z" fill="#263238"/>
<path d="M19.3125 113.984C19.3233 114.071 19.3618 114.153 19.4224 114.217C19.5108 114.33 19.61 114.396 19.618 114.386C19.6261 114.375 19.5457 114.296 19.4653 114.185C19.4198 114.114 19.3687 114.047 19.3125 113.984Z" fill="#263238"/>
<path d="M19.4572 114.893C19.5064 114.97 19.569 115.038 19.6421 115.093C19.7162 115.159 19.797 115.218 19.8833 115.267C19.9336 115.302 19.9887 115.328 20.0468 115.347C20.0813 115.36 20.1195 115.36 20.154 115.347C20.1726 115.337 20.1879 115.322 20.1979 115.304C20.208 115.285 20.2123 115.264 20.2103 115.244C20.1895 115.173 20.1531 115.107 20.1036 115.051C20.0541 114.995 19.9928 114.951 19.924 114.921C19.8552 114.892 19.7806 114.877 19.7055 114.879C19.6304 114.881 19.5566 114.899 19.4894 114.932C19.466 114.943 19.445 114.958 19.4277 114.977C19.5123 114.94 19.6033 114.919 19.6957 114.916C19.7904 114.915 19.8834 114.941 19.9637 114.99C20.0133 115.019 20.0565 115.057 20.0906 115.102C20.1247 115.147 20.149 115.199 20.1621 115.254C20.1621 115.307 20.1192 115.328 20.0656 115.312C20.0127 115.293 19.9616 115.269 19.9128 115.241C19.8277 115.193 19.7462 115.139 19.6689 115.08C19.5323 114.964 19.4653 114.885 19.4572 114.893Z" fill="#263238"/>
<path d="M19.4939 114.953C19.5591 114.941 19.6174 114.905 19.6573 114.853C19.7064 114.8 19.7414 114.735 19.7592 114.666C19.7762 114.622 19.7809 114.574 19.7729 114.528C19.7649 114.481 19.7444 114.438 19.7136 114.402C19.6902 114.385 19.6614 114.378 19.633 114.382C19.6046 114.386 19.5788 114.401 19.5609 114.423C19.5326 114.456 19.5117 114.495 19.4992 114.536C19.4777 114.603 19.4651 114.672 19.4617 114.742C19.4515 114.805 19.458 114.87 19.4805 114.93C19.4903 114.869 19.4957 114.807 19.4965 114.745C19.5069 114.679 19.523 114.615 19.5448 114.552C19.5635 114.486 19.6252 114.399 19.6815 114.441C19.7015 114.472 19.7147 114.507 19.7202 114.544C19.7257 114.58 19.7235 114.617 19.7136 114.652C19.6991 114.716 19.6708 114.775 19.6305 114.827C19.5887 114.873 19.5429 114.915 19.4939 114.953Z" fill="#263238"/>
<path d="M16.6465 111.339C16.6465 111.339 16.7376 111.421 16.8475 111.579C16.9925 111.785 17.0769 112.026 17.0914 112.276C17.1007 112.526 17.0415 112.773 16.9198 112.992C16.8234 113.158 16.7349 113.256 16.743 113.256C16.751 113.256 16.7698 113.24 16.8073 113.2C16.8615 113.144 16.9092 113.082 16.9493 113.016C17.0876 112.795 17.1549 112.538 17.1423 112.279C17.1273 112.02 17.034 111.77 16.8743 111.564C16.8274 111.501 16.7734 111.445 16.7135 111.395C16.676 111.352 16.6492 111.337 16.6465 111.339Z" fill="#263238"/>
<path d="M17.3945 113.401C17.4963 113.583 17.6215 113.75 17.7671 113.9C17.9001 114.062 18.0542 114.206 18.2253 114.328C18.2253 114.328 18.0377 114.122 17.8099 113.866C17.5821 113.61 17.4213 113.393 17.3945 113.401Z" fill="#263238"/>
<path d="M16.8444 112.778C16.8283 112.778 16.8149 112.833 16.7855 112.894C16.756 112.955 16.7238 113.008 16.7345 113.018C16.7453 113.029 16.7989 112.989 16.8337 112.915C16.8685 112.841 16.8578 112.778 16.8444 112.778Z" fill="#263238"/>
<path d="M16.9294 112.287C16.916 112.287 16.8999 112.335 16.8945 112.398C16.8892 112.461 16.8945 112.512 16.9133 112.512C16.9321 112.512 16.9428 112.464 16.9481 112.401C16.9535 112.337 16.9428 112.287 16.9294 112.287Z" fill="#263238"/>
<path d="M16.7656 111.835C16.7656 111.835 16.7951 111.888 16.8192 111.949C16.8433 112.01 16.8487 112.065 16.8648 112.068C16.8809 112.07 16.8996 112.004 16.8648 111.93C16.8299 111.856 16.771 111.822 16.7656 111.835Z" fill="#263238"/>
<path d="M16.6172 111.542C16.6172 111.542 16.6172 111.579 16.6172 111.614C16.6172 111.648 16.652 111.674 16.6654 111.669C16.6788 111.664 16.6654 111.632 16.6654 111.595C16.6654 111.558 16.6306 111.537 16.6172 111.542Z" fill="#263238"/>
<path d="M43.0441 106.622L44.0813 118.182H39.6458L37.6895 106.622H43.0441Z" fill="#FFBE9D"/>
<path d="M43.9532 118.29V117.902L39.6465 117.884L39.6974 119.486H39.9654C41.15 119.507 45.9847 119.518 46.7646 119.254C47.6061 118.969 43.9532 118.29 43.9532 118.29Z" fill="#EF233C"/>
<g opacity="0.5">
<path d="M41.2181 119.396C41.1425 119.043 40.9362 118.729 40.6393 118.517C40.3476 118.308 39.9873 118.214 39.6289 118.253L39.6718 119.433L41.2181 119.396Z" fill="white"/>
</g>
<path opacity="0.5" d="M45.7348 118.684C45.7348 118.684 47.0212 119 46.8711 119.212C46.721 119.423 41.8327 119.594 39.6699 119.476V119.381L45.373 119.23C45.373 119.23 45.4855 118.705 45.7348 118.684Z" fill="white"/>
<path d="M39.6055 119.391H39.6805H39.8922H40.6694C41.3287 119.391 42.2372 119.391 43.2395 119.346C44.2419 119.301 45.1504 119.262 45.807 119.217L46.5842 119.159L46.7959 119.138H46.5842L45.8043 119.18C45.1477 119.217 44.2419 119.262 43.2395 119.296C42.2372 119.33 41.3287 119.346 40.6694 119.354H39.8922H39.6805L39.6055 119.391Z" fill="#263238"/>
<path d="M45.3755 119.307C45.405 119.178 45.449 119.053 45.5069 118.934C45.5841 118.824 45.674 118.723 45.7749 118.633C45.6424 118.684 45.535 118.784 45.4747 118.911C45.3932 119.026 45.3579 119.167 45.3755 119.307Z" fill="#263238"/>
<path d="M44.0898 118.718C44.1032 118.718 44.1622 118.652 44.2212 118.552C44.2801 118.451 44.3176 118.367 44.3042 118.359C44.2496 118.406 44.2058 118.463 44.1756 118.528C44.1334 118.584 44.1042 118.649 44.0898 118.718Z" fill="#263238"/>
<path d="M43.7378 118.552C43.7378 118.552 43.8129 118.515 43.8852 118.446C43.9576 118.377 44.0058 118.314 43.9951 118.306C43.9844 118.298 43.9201 118.34 43.8477 118.409C43.7753 118.478 43.7271 118.536 43.7378 118.552Z" fill="#263238"/>
<path d="M43.5059 118.161C43.5775 118.184 43.6537 118.19 43.7283 118.179C43.8046 118.186 43.8813 118.176 43.9534 118.15C43.8811 118.126 43.804 118.119 43.7283 118.129C43.605 118.132 43.5059 118.145 43.5059 118.161Z" fill="#263238"/>
<path d="M43.416 117.881C43.4913 117.927 43.5793 117.949 43.6679 117.944C43.7596 117.959 43.8535 117.944 43.9359 117.902C43.8522 117.893 43.7678 117.893 43.684 117.902C43.5955 117.887 43.5058 117.88 43.416 117.881Z" fill="#263238"/>
<path d="M44.2207 118.346C44.3094 118.361 44.4001 118.361 44.4887 118.346C44.5881 118.33 44.6859 118.305 44.7808 118.272C44.838 118.253 44.8928 118.228 44.9443 118.198C44.9768 118.178 45.0006 118.147 45.0113 118.111C45.0145 118.091 45.012 118.07 45.0039 118.051C44.9958 118.033 44.9826 118.017 44.9657 118.005C44.8591 117.957 44.7388 117.947 44.6256 117.978C44.5125 118.008 44.4138 118.077 44.3467 118.171C44.3055 118.226 44.2772 118.289 44.2636 118.356C44.2572 118.38 44.2572 118.404 44.2636 118.427C44.2907 118.344 44.3304 118.265 44.3815 118.193C44.4409 118.12 44.5198 118.065 44.6093 118.034C44.6615 118.013 44.7175 118.001 44.7741 118.001C44.8307 118.001 44.8867 118.013 44.9389 118.034C44.9845 118.066 44.9684 118.116 44.9202 118.148C44.8723 118.175 44.822 118.198 44.7701 118.216C44.6788 118.251 44.5847 118.279 44.4887 118.298C44.3279 118.332 44.2207 118.338 44.2207 118.346Z" fill="#263238"/>
<path d="M44.2948 118.356C44.3246 118.298 44.3332 118.232 44.3189 118.169C44.3084 118.098 44.2798 118.03 44.2358 117.973C44.2122 117.933 44.1782 117.9 44.1373 117.876C44.0963 117.853 44.0499 117.841 44.0027 117.841C43.9751 117.849 43.9514 117.866 43.9365 117.89C43.9216 117.914 43.9165 117.943 43.9223 117.971C43.929 118.014 43.9465 118.055 43.9732 118.089C44.0111 118.148 44.0571 118.202 44.1099 118.248C44.1533 118.296 44.2087 118.332 44.2707 118.353C44.2707 118.353 44.2144 118.306 44.134 118.224C44.0895 118.175 44.0492 118.122 44.0134 118.066C43.9732 118.008 43.9437 117.907 44.0134 117.891C44.0831 117.876 44.1554 117.95 44.1983 118C44.2389 118.051 44.2673 118.11 44.2814 118.174C44.2908 118.234 44.2953 118.295 44.2948 118.356Z" fill="#263238"/>
<path d="M39.6641 118.235C39.6641 118.235 39.7873 118.219 39.9803 118.235C40.234 118.256 40.4764 118.348 40.6798 118.499C40.8823 118.648 41.039 118.85 41.1327 119.082C41.2051 119.262 41.2158 119.383 41.2265 119.38C41.2306 119.352 41.2306 119.324 41.2265 119.296C41.2149 119.22 41.1961 119.144 41.1702 119.072C41.085 118.826 40.9262 118.611 40.7146 118.456C40.5019 118.304 40.2484 118.217 39.9857 118.206C39.9072 118.199 39.8283 118.199 39.7498 118.206C39.7198 118.21 39.6908 118.22 39.6641 118.235Z" fill="#263238"/>
<path d="M41.7441 118.971C41.9507 119.01 42.1616 119.022 42.3713 119.006C42.5817 119.007 42.7916 118.982 42.9957 118.932C42.9957 118.916 42.7143 118.945 42.3686 118.956C42.0229 118.966 41.7441 118.958 41.7441 118.971Z" fill="#263238"/>
<path d="M40.9062 118.995C40.9062 118.995 40.9304 119.053 40.9625 119.114C40.9947 119.174 41.0108 119.233 41.0242 119.233C41.0376 119.233 41.0456 119.164 41.0081 119.093C40.9706 119.021 40.9143 118.984 40.9062 118.995Z" fill="#263238"/>
<path d="M40.5762 118.62C40.5762 118.62 40.5949 118.673 40.6405 118.716C40.6861 118.758 40.7316 118.784 40.7423 118.774C40.7531 118.763 40.7236 118.721 40.6753 118.679C40.6271 118.636 40.5842 118.61 40.5762 118.62Z" fill="#263238"/>
<path d="M40.1175 118.456C40.1175 118.472 40.1765 118.47 40.2408 118.488C40.3051 118.507 40.3507 118.541 40.3614 118.53C40.3721 118.52 40.3346 118.462 40.2542 118.441C40.1738 118.419 40.1122 118.446 40.1175 118.456Z" fill="#263238"/>
<path d="M39.791 118.385C39.791 118.399 39.8125 118.42 39.8473 118.433C39.8821 118.446 39.917 118.433 39.9223 118.433C39.9277 118.433 39.9009 118.399 39.8661 118.385C39.8312 118.372 39.7964 118.372 39.791 118.385Z" fill="#263238"/>
<path d="M35.2475 72.6921C35.2475 72.6921 38.7181 95.3961 38.2143 96.5023C37.7104 97.6084 26.4678 108.937 26.4678 108.937L22.2441 101.819C22.2441 101.819 29.6838 93.7012 29.5766 93.2815C29.4694 92.8617 24.2166 70.8652 24.2166 70.8652L35.2475 72.6921Z" fill="#263238"/>
<path d="M36.4839 81.077C36.449 80.8341 33.6484 74.6328 33.6484 74.6328L35.0072 72.7425L35.2484 72.6924L36.4839 81.077Z" fill="#263238"/>
<path d="M22.2449 70.5537L22.0332 71.3959C21.42 73.881 21.8041 76.5034 23.1052 78.7166L32.5066 94.7757C33.1746 95.9136 33.6609 97.1459 33.9484 98.4295L36.2934 108.821H44.0118C44.0118 108.821 43.0578 101.693 42.2082 96.4944C41.565 92.5687 36.2318 80.3904 33.6483 74.6246L35.2563 72.6842L32.4771 72.2275L22.2449 70.5537Z" fill="#263238"/>
<path d="M33.8516 74.5879C33.9593 74.9351 34.0909 75.2747 34.2455 75.6043C34.5135 76.2247 34.8566 77.0827 35.2318 78.0357C35.607 78.9888 35.9366 79.86 36.1724 80.4883C36.2857 80.8337 36.4218 81.1715 36.5798 81.4994C36.5701 81.4011 36.5476 81.3043 36.5128 81.2116C36.4619 81.0321 36.3815 80.7708 36.277 80.4513C36.0652 79.8124 35.741 78.9386 35.3765 77.9803C35.012 77.022 34.6288 76.1719 34.3447 75.5621C34.2026 75.2558 34.0767 75.0103 33.999 74.844C33.9616 74.7525 33.912 74.6664 33.8516 74.5879Z" fill="#455A64"/>
<path d="M34.6952 101.585C34.7012 101.525 34.7012 101.465 34.6952 101.405C34.6791 101.27 34.6604 101.102 34.6363 100.89C34.6096 100.618 34.5684 100.348 34.513 100.08C34.4513 99.7683 34.3924 99.4066 34.2879 99.0238C34.2396 98.8285 34.1887 98.6226 34.1351 98.4114C34.0815 98.2002 34.0065 97.981 33.9368 97.754C33.8081 97.2973 33.6259 96.8247 33.449 96.3231C33.0288 95.2427 32.5502 94.1852 32.0152 93.1551C31.0244 91.3026 29.9274 89.5071 28.7295 87.7774C28.2766 87.1122 27.9014 86.5762 27.6388 86.2093L27.3359 85.8001C27.3019 85.7501 27.2633 85.7033 27.2207 85.6602C27.2438 85.7162 27.2735 85.7693 27.3091 85.8186L27.5905 86.2542C27.8585 86.6475 28.2069 87.1861 28.6411 87.8382C29.5228 89.1846 30.7395 91.0537 31.8812 93.2238C32.4085 94.2451 32.8835 95.2919 33.3043 96.3601C33.4839 96.8564 33.6715 97.3263 33.8055 97.7778C33.8751 98.0022 33.9475 98.2186 34.0091 98.4298C34.0708 98.641 34.119 98.8417 34.1699 99.037C34.2825 99.4225 34.3468 99.7789 34.4165 100.093C34.4862 100.407 34.5344 100.674 34.5666 100.885C34.5987 101.096 34.6309 101.263 34.655 101.395C34.661 101.459 34.6745 101.523 34.6952 101.585Z" fill="#455A64"/>
<path d="M23.5115 77.9591C23.5115 77.9591 23.4901 77.9353 23.4525 77.8799L23.2891 77.6159C23.4179 77.4165 23.5864 77.2449 23.7845 77.1115C23.9826 76.9781 24.2061 76.8856 24.4415 76.8397C24.7934 76.7617 25.1574 76.751 25.5135 76.8081C25.9316 76.88 26.3424 76.9887 26.7409 77.1328C27.2013 77.2729 27.6494 77.4495 28.0809 77.6608C28.5734 77.9025 28.9607 78.3112 29.1717 78.8118C29.2769 79.0851 29.2947 79.3836 29.2226 79.6672C29.1346 79.9419 29.0188 80.2073 28.8769 80.4592C28.7319 80.7048 28.6535 80.983 28.6491 81.267C28.6725 81.5536 28.8056 81.8207 29.0216 82.0141C29.5361 82.5184 30.2973 82.6108 30.9271 82.9249C31.5417 83.2313 32.0425 83.721 32.3582 84.3241C32.6545 84.8605 32.7937 85.4674 32.7602 86.0771C32.7285 86.6085 32.5547 87.1222 32.2563 87.5661C31.8303 88.2105 31.1942 88.6928 30.4527 88.9336C30.253 88.9955 30.0473 89.0371 29.839 89.0577C29.7667 89.0629 29.6942 89.0629 29.6219 89.0577C29.8947 89.0184 30.1636 88.9566 30.4259 88.8729C31.1426 88.6192 31.7535 88.1382 32.1625 87.5053C32.4452 87.0738 32.6078 86.5768 32.6342 86.0639C32.6594 85.4754 32.5213 84.8913 32.2349 84.3743C31.9275 83.7975 31.445 83.3295 30.8547 83.0358C30.5519 82.888 30.2115 82.7877 29.8711 82.6609C29.5145 82.5452 29.1873 82.3552 28.9117 82.1039C28.6708 81.8859 28.5232 81.5857 28.499 81.2644C28.5038 80.9574 28.5877 80.6568 28.7429 80.3905C28.882 80.1453 28.996 79.8871 29.0832 79.6197C29.1494 79.3614 29.1326 79.0893 29.035 78.8409C28.839 78.3673 28.4752 77.9799 28.0112 77.7505C27.5871 77.5356 27.1462 77.3547 26.6927 77.2093C26.303 77.0616 25.9001 76.9503 25.4893 76.8767C25.146 76.8145 24.7937 76.819 24.4522 76.8899C24.2236 76.9314 24.0057 77.0169 23.8107 77.1415C23.6157 77.2661 23.4476 77.4273 23.3159 77.6159L23.4633 77.8799C23.4823 77.9044 23.4985 77.931 23.5115 77.9591Z" fill="#FAFAFA"/>
<path d="M42.9982 101.613C42.8088 101.449 42.5945 101.316 42.3631 101.217C42.087 101.111 41.7991 101.036 41.5055 100.995C41.1651 100.94 40.7685 100.906 40.3343 100.837C39.8532 100.769 39.3889 100.614 38.9648 100.38C38.153 99.933 37.5339 99.2103 37.2228 98.3468C36.9117 97.4833 36.9298 96.5378 37.2737 95.6864C37.5283 95.066 37.9116 94.5275 38.0188 93.9282C38.0867 93.3418 37.9999 92.748 37.7669 92.2043C37.5631 91.6999 37.3895 91.1842 37.2469 90.6599C37.1314 90.1924 37.1314 89.7044 37.2469 89.2369C37.4149 88.56 37.8026 87.9556 38.3511 87.5156C38.5472 87.352 38.7701 87.2226 39.0104 87.1328C38.7916 87.2577 38.5829 87.399 38.3859 87.5552C37.8652 88.0006 37.5004 88.5965 37.3434 89.258C37.2323 89.7109 37.2323 90.1833 37.3434 90.6361C37.4925 91.1544 37.6715 91.6638 37.8794 92.162C38.1244 92.7249 38.2167 93.3407 38.1474 93.9493C38.0349 94.5908 37.6409 95.1373 37.3997 95.7392C37.0674 96.5599 37.0471 97.4713 37.3425 98.3055C37.638 99.1398 38.2293 99.841 39.0077 100.28C39.422 100.513 39.8761 100.67 40.3477 100.742C40.7765 100.816 41.1731 100.856 41.5162 100.919C41.8148 100.971 42.1056 101.06 42.3818 101.183C42.5557 101.26 42.7173 101.361 42.8615 101.484C42.9553 101.56 43.0036 101.608 42.9982 101.613Z" fill="#FAFAFA"/>
<path d="M39.3974 109.187C39.3706 109.187 39.3626 108.844 39.2232 108.314C39.1414 108.004 39.0292 107.702 38.8882 107.413C38.712 107.062 38.4991 106.729 38.253 106.421C38.001 106.117 37.7171 105.84 37.4062 105.594C37.1507 105.393 36.876 105.216 36.5861 105.066C36.0903 104.818 35.7499 104.736 35.758 104.71C35.8404 104.711 35.922 104.726 35.9992 104.755C36.0905 104.775 36.1801 104.803 36.2672 104.837C36.3881 104.877 36.5063 104.924 36.6209 104.979C36.9243 105.116 37.2119 105.286 37.4785 105.483C38.133 105.971 38.6543 106.612 38.9954 107.347C39.1344 107.646 39.2404 107.958 39.3116 108.279C39.3415 108.402 39.363 108.526 39.376 108.651C39.3913 108.745 39.3985 108.839 39.3974 108.934C39.4124 109.018 39.4124 109.104 39.3974 109.187Z" fill="#FAFAFA"/>
<path d="M35.435 79.3241C35.435 79.3241 35.4001 79.3241 35.3304 79.3452C35.2283 79.3595 35.1254 79.3683 35.0222 79.3716C34.6432 79.384 34.2644 79.344 33.8966 79.2528C33.3477 79.1225 32.828 78.8934 32.3637 78.577C31.785 78.1961 31.3091 77.6822 30.9771 77.0797C30.6452 76.4772 30.4671 75.8041 30.4582 75.1186C30.4455 74.5623 30.5364 74.0085 30.7262 73.4844C30.8504 73.1309 31.0236 72.796 31.2407 72.4891C31.298 72.406 31.3607 72.3266 31.4283 72.2515C31.4739 72.1987 31.5007 72.1723 31.5034 72.175C31.218 72.5912 30.9883 73.042 30.82 73.5161C30.6502 74.0322 30.574 74.5738 30.5949 75.1159C30.6092 75.7786 30.7828 76.4284 31.1015 77.0121C31.4201 77.5959 31.8747 78.0969 32.428 78.474C32.8775 78.7864 33.3791 79.0188 33.91 79.1604C34.4088 79.2808 34.9215 79.3358 35.435 79.3241Z" fill="#FAFAFA"/>
<path d="M28.5636 94.1367C28.6155 94.1544 28.6657 94.1765 28.7137 94.2027C28.8128 94.2476 28.9522 94.3242 29.1291 94.4271C29.6298 94.7262 30.0734 95.1095 30.4396 95.5597C30.6926 95.8755 30.8868 96.2331 31.0131 96.6157C31.1534 97.0588 31.1846 97.5285 31.1042 97.9858C31.024 98.4987 30.7755 98.9716 30.3967 99.3322C30.0001 99.7124 29.4185 99.8391 29.0808 100.256C28.7432 100.673 28.6681 101.22 28.6172 101.729C28.6008 102.236 28.5106 102.737 28.3492 103.218C28.1675 103.653 27.8364 104.011 27.4139 104.229C27.0547 104.423 26.6585 104.539 26.2507 104.573C25.6665 104.604 25.0808 104.547 24.5141 104.404C24.3131 104.356 24.1604 104.317 24.0558 104.288C24.0021 104.277 23.9498 104.261 23.9004 104.237C23.9555 104.24 24.0103 104.248 24.0639 104.261L24.5248 104.351C25.0875 104.473 25.6652 104.515 26.24 104.475C26.6317 104.438 27.0114 104.321 27.3549 104.132C27.7511 103.921 28.0608 103.581 28.2313 103.171C28.3821 102.7 28.4659 102.21 28.4805 101.716C28.5002 101.449 28.5414 101.185 28.6038 100.924C28.6667 100.648 28.7933 100.39 28.9736 100.169C29.3596 99.7124 29.9438 99.5883 30.3136 99.2346C30.6718 98.8955 30.908 98.4506 30.9863 97.9674C31.0658 97.5276 31.0401 97.0756 30.9113 96.6474C30.7933 96.2775 30.612 95.9301 30.3753 95.6204C30.0214 95.1727 29.5949 94.7855 29.113 94.4746C28.9441 94.3638 28.8075 94.2819 28.7137 94.2291C28.66 94.2046 28.6095 94.1735 28.5636 94.1367Z" fill="#FAFAFA"/>
<path d="M29.3866 39.5102C27.8992 39.1458 26.2993 40.0619 25.5596 41.3819C24.8199 42.7019 24.8118 44.3202 25.1602 45.7881C25.3076 46.4032 25.514 47.0394 25.3693 47.6572C25.2139 48.3198 24.6779 48.8346 24.4206 49.4682C23.9301 50.6906 24.5546 52.0449 25.1656 53.2118C25.4336 53.7398 25.8008 54.3338 26.3957 54.4499C27.063 54.5793 27.65 54.0539 28.2128 53.6764C29.2062 53.016 30.4153 52.7475 31.6003 52.924C32.9403 53.1273 34.1516 53.885 35.497 53.9087C36.1064 53.913 36.7071 53.7666 37.2441 53.483C37.7812 53.1993 38.2374 52.7875 38.571 52.2851C38.9703 51.67 39.107 50.7434 38.5308 50.2893C38.1502 49.991 37.5686 50.0015 37.2336 49.653C36.8263 49.228 37.0032 48.5442 37.2122 48.0004C37.4213 47.4566 37.6303 46.7913 37.2578 46.3372C36.8424 45.825 35.9419 45.9227 35.5452 45.3974C35.1486 44.872 35.5667 44.0774 35.5452 43.3804C35.5189 43.0735 35.4226 42.7764 35.2634 42.5112C35.1042 42.2461 34.8864 42.0198 34.626 41.8492C34.1222 41.4875 34.0525 41.3714 33.3584 40.1279" fill="#263238"/>
<path d="M27.3119 51.5829L32.6719 52.0344C32.6719 52.0344 36.5766 51.472 38.0721 61.2268L44.0056 60.9866L44.2736 64.8727L36.113 65.2687L35.1509 64.7011L35.2474 72.6924L21.7482 71.7129C22.0537 69.8992 23.4929 67.5127 23.9753 65.9815C23.4848 64.7724 20.7727 59.8435 20.6387 57.3117C20.2742 50.3791 27.3119 51.5829 27.3119 51.5829Z" fill="#EF233C"/>
<path opacity="0.3" d="M35.7534 58.7344C35.7534 58.7344 36.7021 59.7904 36.7182 60.6801C36.7423 62.1057 36.3778 62.8369 36.8307 64.3945L35.539 64.7008C35.539 64.7008 35.3407 64.3206 35.5095 63.5075C35.6783 62.6944 36.0053 61.7044 36.15 60.82C36.2785 60.1004 36.1375 59.3593 35.7534 58.7344Z" fill="black"/>
<path d="M35.5392 64.7011C35.4997 64.6009 35.4726 64.4963 35.4588 64.3896C35.4208 64.0986 35.4208 63.8041 35.4588 63.5131C35.5161 63.0856 35.6057 62.6629 35.7268 62.2486C35.8791 61.7483 35.9973 61.2385 36.0806 60.7226C36.1601 60.2121 36.1037 59.69 35.9171 59.2073C35.7459 58.8209 35.5124 58.4643 35.2257 58.1513C34.7379 57.6048 34.3922 57.3012 34.4217 57.2827C34.5131 57.3401 34.5984 57.4064 34.6763 57.4807C34.8995 57.6711 35.1116 57.8738 35.3114 58.0879C35.6181 58.4035 35.8674 58.7688 36.0484 59.1677C36.2516 59.6702 36.3136 60.2174 36.228 60.7517C36.1464 61.2742 36.0236 61.7897 35.8608 62.2934C35.734 62.7014 35.6329 63.1166 35.558 63.5369C35.513 63.8206 35.4977 64.1081 35.5124 64.3949C35.5321 64.4958 35.5411 64.5984 35.5392 64.7011Z" fill="#263238"/>
<g opacity="0.2">
<path d="M35.7173 64.6006L31.7187 64.6904C31.4018 64.7199 31.0821 64.683 30.7807 64.5821C30.3599 64.4079 30.0893 64.004 29.8534 63.6185C29.1513 62.478 28.5081 61.3059 27.9238 60.1021C27.9238 60.1021 28.9797 63.41 29.6417 64.8541C29.706 65.0363 29.839 65.1872 30.013 65.2757C30.1871 65.3641 30.389 65.3833 30.577 65.3293C32.3172 65.3324 34.0486 65.087 35.7173 64.6006Z" fill="black"/>
</g>
<path d="M61.858 55.8886C62.4476 55.8473 63.0381 55.9554 63.5732 56.2027C63.8012 56.3123 64.0512 56.3701 64.3049 56.3717H64.9588V48.0953C64.9588 47.9283 64.9254 47.763 64.8604 47.6087C64.7955 47.4545 64.7003 47.3144 64.5803 47.1964C64.4603 47.0785 64.3179 46.985 64.1612 46.9214C64.0045 46.8577 63.8365 46.8251 63.667 46.8255H55.3001V46.2658C55.3028 46.0064 55.3651 45.751 55.4823 45.5187C55.8009 44.8751 55.9041 44.1486 55.7771 43.4436C55.6284 42.5962 55.1621 41.8346 54.4706 41.3097C53.779 40.7847 52.9126 40.5347 52.0428 40.6091C51.173 40.6834 50.3633 41.0767 49.7739 41.7112C49.1844 42.3456 48.8583 43.175 48.86 44.035C48.86 44.5107 48.9613 44.981 49.1575 45.4157C49.2567 45.6334 49.3096 45.8688 49.313 46.1074V46.8255H41.1524C40.8105 46.8255 40.4826 46.9592 40.2408 47.1974C39.9991 47.4355 39.8633 47.7585 39.8633 48.0953V70.4535C39.8633 70.5894 39.8905 70.7239 39.9432 70.8495C39.996 70.975 40.0734 71.0891 40.171 71.1852C40.2685 71.2813 40.3843 71.3576 40.5118 71.4096C40.6393 71.4616 40.7759 71.4883 40.9138 71.4883H63.9082C64.1867 71.4876 64.4535 71.3784 64.6503 71.1845C64.8472 70.9905 64.9581 70.7277 64.9588 70.4535V62.3724H64.0288C63.8138 62.3727 63.6009 62.4139 63.4017 62.4939C62.9899 62.6594 62.5494 62.7446 62.1046 62.7447C61.1806 62.7769 60.2814 62.4462 59.6049 61.8253C58.9284 61.2045 58.53 60.3443 58.4973 59.4341C58.4646 58.5239 58.8003 57.6381 59.4306 56.9717C60.0608 56.3053 60.934 55.9129 61.858 55.8807V55.8886Z" fill="#EF233C"/>
<path opacity="0.2" d="M61.858 55.8886C62.4476 55.8473 63.0381 55.9554 63.5732 56.2027C63.8012 56.3123 64.0512 56.3701 64.3049 56.3717H64.9588V48.0953C64.9588 47.9283 64.9254 47.763 64.8604 47.6087C64.7955 47.4545 64.7003 47.3144 64.5803 47.1964C64.4603 47.0785 64.3179 46.985 64.1612 46.9214C64.0045 46.8577 63.8365 46.8251 63.667 46.8255H55.3001V46.2658C55.3028 46.0064 55.3651 45.751 55.4823 45.5187C55.8009 44.8751 55.9041 44.1486 55.7771 43.4436C55.6284 42.5962 55.1621 41.8346 54.4706 41.3097C53.779 40.7847 52.9126 40.5347 52.0428 40.6091C51.173 40.6834 50.3633 41.0767 49.7739 41.7112C49.1844 42.3456 48.8583 43.175 48.86 44.035C48.86 44.5107 48.9613 44.981 49.1575 45.4157C49.2567 45.6334 49.3096 45.8688 49.313 46.1074V46.8255H41.1524C40.8105 46.8255 40.4826 46.9592 40.2408 47.1974C39.9991 47.4355 39.8633 47.7585 39.8633 48.0953V70.4535C39.8633 70.5894 39.8905 70.7239 39.9432 70.8495C39.996 70.975 40.0734 71.0891 40.171 71.1852C40.2685 71.2813 40.3843 71.3576 40.5118 71.4096C40.6393 71.4616 40.7759 71.4883 40.9138 71.4883H63.9082C64.1867 71.4876 64.4535 71.3784 64.6503 71.1845C64.8472 70.9905 64.9581 70.7277 64.9588 70.4535V62.3724H64.0288C63.8138 62.3727 63.6009 62.4139 63.4017 62.4939C62.9899 62.6594 62.5494 62.7446 62.1046 62.7447C61.1806 62.7769 60.2814 62.4462 59.6049 61.8253C58.9284 61.2045 58.53 60.3443 58.4973 59.4341C58.4646 58.5239 58.8003 57.6381 59.4306 56.9717C60.0608 56.3053 60.934 55.9129 61.858 55.8807V55.8886Z" fill="white"/>
<path d="M27.2396 51.7674L26.8242 42.4482L30.5762 39.6445L33.9905 41.2893C33.9905 41.2893 34.1058 45.5133 33.9905 47.3454C33.8753 49.1776 32.002 49.3729 32.002 49.3729C32.002 49.3729 32.0475 50.4448 32.0904 51.5721C32.1028 51.8958 32.0483 52.2186 31.9303 52.5209C31.8124 52.8233 31.6333 53.099 31.4041 53.3312C31.1748 53.5634 30.9001 53.7474 30.5966 53.8721C30.2931 53.9967 29.967 54.0594 29.6382 54.0563C29.0173 54.0488 28.4228 53.8075 27.9767 53.3818C27.5307 52.9562 27.267 52.3785 27.2396 51.7674Z" fill="#FFBE9D"/>
<path d="M33.6255 44.3678C33.6255 44.4142 33.6115 44.4597 33.5853 44.4983C33.5591 44.5369 33.5218 44.5671 33.4782 44.5848C33.4347 44.6026 33.3867 44.6073 33.3404 44.5982C33.2942 44.5892 33.2517 44.5668 33.2183 44.5339C33.1849 44.5011 33.1622 44.4592 33.153 44.4136C33.1438 44.368 33.1485 44.3208 33.1666 44.2779C33.1846 44.2349 33.2152 44.1982 33.2544 44.1724C33.2937 44.1466 33.3398 44.1328 33.387 44.1328C33.4502 44.1328 33.5109 44.1576 33.5556 44.2016C33.6003 44.2457 33.6255 44.3055 33.6255 44.3678Z" fill="#263238"/>
<path d="M33.8578 44.1117C33.8256 44.1434 33.6514 43.9955 33.3942 43.9823C33.1369 43.9691 32.9466 44.0906 32.9198 44.0563C32.893 44.0219 32.9386 43.985 33.0216 43.9295C33.1344 43.8564 33.2683 43.8212 33.4031 43.8293C33.5379 43.8374 33.6664 43.8883 33.7694 43.9744C33.8471 44.0404 33.8712 44.0879 33.8578 44.1117Z" fill="#263238"/>
<path d="M30.8696 44.3678C30.8696 44.4142 30.8556 44.4597 30.8294 44.4983C30.8032 44.5369 30.766 44.5671 30.7224 44.5848C30.6788 44.6026 30.6308 44.6073 30.5846 44.5982C30.5383 44.5892 30.4958 44.5668 30.4624 44.5339C30.4291 44.5011 30.4064 44.4592 30.3972 44.4136C30.388 44.368 30.3927 44.3208 30.4107 44.2779C30.4288 44.2349 30.4594 44.1982 30.4986 44.1724C30.5378 44.1466 30.5839 44.1328 30.6311 44.1328C30.6944 44.1328 30.755 44.1576 30.7998 44.2016C30.8445 44.2457 30.8696 44.3055 30.8696 44.3678Z" fill="#263238"/>
<path d="M31.016 44.1114C30.9838 44.143 30.8096 43.9952 30.5524 43.982C30.2951 43.9688 30.1048 44.0902 30.078 44.0559C30.0512 44.0216 30.0968 43.9846 30.1798 43.9292C30.2896 43.8561 30.42 43.8192 30.5524 43.8236C30.6873 43.8323 30.8159 43.8831 30.9195 43.9688C31.0053 44.0401 31.0294 44.0876 31.016 44.1114Z" fill="#263238"/>
<path d="M32.0098 49.3679C31.1262 49.331 30.2717 49.0461 29.5469 48.5469C29.5469 48.5469 30.1633 49.917 32.0286 49.8431L32.0098 49.3679Z" fill="#EB996E"/>
<path d="M31.9413 46.2446C32.0782 46.2116 32.2185 46.1939 32.3594 46.1918C32.4237 46.1918 32.488 46.1918 32.5041 46.1338C32.5116 46.063 32.4985 45.9916 32.4666 45.9278C32.4112 45.7642 32.3523 45.5882 32.2897 45.3998C32.1691 45.0276 32.0646 44.6897 31.9922 44.4442C31.9448 44.3128 31.9133 44.1763 31.8984 44.0376C31.9688 44.1581 32.0237 44.2866 32.0619 44.4204C32.1504 44.6633 32.2683 44.9959 32.3889 45.3682L32.5577 45.8962C32.5963 45.9788 32.6048 46.072 32.5818 46.1602C32.5724 46.1826 32.5578 46.2027 32.5392 46.2187C32.5206 46.2347 32.4985 46.2463 32.4746 46.2526C32.4372 46.256 32.3995 46.256 32.3621 46.2526C32.222 46.2665 32.0807 46.2639 31.9413 46.2446Z" fill="#263238"/>
<path d="M31.7509 46.4639C31.6503 46.49 31.558 46.5408 31.4829 46.6117C31.4366 46.6502 31.4062 46.704 31.3973 46.763C31.3883 46.822 31.4015 46.8822 31.4343 46.9323C31.4672 46.9824 31.5174 47.0191 31.5756 47.0354C31.6339 47.0517 31.6962 47.0465 31.7509 47.0209C31.7999 47.0104 31.8461 46.9896 31.8863 46.96C31.9266 46.9304 31.9599 46.8927 31.984 46.8493C32.0066 46.8041 32.0155 46.7535 32.0098 46.7034C32.0041 46.6534 31.984 46.606 31.9519 46.5668C31.9184 46.5313 31.8736 46.508 31.8249 46.5008C31.7762 46.4936 31.7265 46.5029 31.6839 46.5272" fill="#EB996E"/>
<path d="M32.0825 46.8281C32.0825 46.8651 31.8708 46.9232 31.643 46.7938C31.4152 46.6645 31.3536 46.4506 31.3911 46.4427C31.4286 46.4348 31.5251 46.5747 31.7127 46.675C31.9003 46.7753 32.0772 46.7885 32.0825 46.8281Z" fill="#263238"/>
<path d="M30.7855 39.2804C30.3916 39.267 29.9996 39.3392 29.6373 39.4921C29.2751 39.645 28.9515 39.8747 28.6897 40.1648C28.1697 40.7574 27.9053 41.5266 27.9527 42.3085C27.9474 42.6022 28.0417 42.8893 28.2207 43.1242C28.4887 43.4278 28.9416 43.4886 29.3517 43.5282C29.7681 43.6042 30.1969 43.5825 30.6032 43.4648C30.9999 43.3143 31.3295 42.9104 31.2411 42.5038C31.0454 42.7678 31.2089 43.1586 31.4876 43.3249C31.7826 43.4674 32.1121 43.5259 32.439 43.4938H33.8433C34.0036 43.5094 34.1647 43.4753 34.3043 43.3962C34.3793 43.321 34.4383 43.2318 34.4779 43.1339C34.5175 43.036 34.5368 42.9313 34.5348 42.8259C34.6098 42.0894 34.6795 41.3053 34.3365 40.6479C33.9957 40.0655 33.4398 39.6352 32.7847 39.4467C32.1442 39.2382 31.4447 39.3332 30.7774 39.291" fill="#263238"/>
<path d="M26.825 51.5036C27.3369 51.7676 28.307 50.7274 28.6233 50.2496C28.9048 49.7461 28.9996 49.1618 28.8913 48.5969C28.8243 48.0293 28.6715 47.4723 28.6581 46.9021C28.6394 45.9781 28.9931 45.0937 29.1593 44.1829C29.3375 43.1921 29.2945 42.175 29.0333 41.2023C28.9315 40.8248 28.7653 40.4103 28.3901 40.2677C28.2333 40.2162 28.0655 40.2064 27.9036 40.2393C27.7417 40.2722 27.5915 40.3467 27.4682 40.4552C27.2256 40.6756 27.0352 40.946 26.9108 41.2472L26.6133 43.4701L26.8357 46.5826L26.825 51.5036Z" fill="#263238"/>
<path d="M40.3148 63.2253L41.6816 67.8189C41.6816 67.8189 34.5287 70.3823 30.6561 70.3348C27.0247 70.2925 25.9848 69.886 24.7091 66.9978C23.4335 64.1097 21.9755 60.7938 21.6781 58.8851C21.6781 58.8851 18.7595 50.907 26.5744 51.6937L27.6464 57.7657C27.6464 57.7657 28.5121 60.5826 28.5737 60.7463C29.1579 62.2669 29.9137 64.4951 30.6453 64.7644C31.377 65.0337 40.3148 63.2253 40.3148 63.2253Z" fill="#EF233C"/>
<path d="M40.3153 63.2254C40.2547 63.2479 40.1917 63.2638 40.1277 63.2729L39.5917 63.3865C39.1146 63.4841 38.4232 63.6293 37.5656 63.8247C36.708 64.0201 35.6896 64.2603 34.5211 64.4715C33.2522 64.7194 31.9607 64.8371 30.6673 64.8226H30.6217L30.6056 64.7804C30.4582 64.4029 30.3028 64.0042 30.1554 63.5977C29.1263 60.7491 28.3437 58.1302 27.7112 56.2558C27.3977 55.316 27.135 54.5583 26.9474 54.0382C26.859 53.7742 26.7866 53.5868 26.733 53.4389C26.7039 53.3699 26.6815 53.2983 26.666 53.2251C26.666 53.2251 26.7009 53.2937 26.7598 53.4284C26.8188 53.563 26.8992 53.761 26.9983 54.0197C27.202 54.5345 27.4781 55.2869 27.8023 56.2241C28.4616 58.0933 29.2603 60.7121 30.2867 63.5501C30.4341 63.9567 30.5869 64.3421 30.7343 64.7302L30.6699 64.688C31.9546 64.7037 33.2376 64.5923 34.4997 64.3553C35.6574 64.1494 36.6839 63.9145 37.5468 63.7376C38.4098 63.5607 39.1012 63.4234 39.5836 63.3389L40.1357 63.2518C40.195 63.2399 40.255 63.231 40.3153 63.2254Z" fill="#263238"/>
<path d="M41.6821 67.8186C41.6156 67.8566 41.5456 67.8884 41.4731 67.9136C41.3337 67.9717 41.1273 68.0509 40.8593 68.1486C40.3233 68.344 39.5354 68.6027 38.5519 68.8852C37.5683 69.1676 36.3918 69.4765 35.0813 69.8039C33.6636 70.1936 32.2101 70.4438 30.7423 70.551C30.3544 70.5692 29.9657 70.5595 29.5792 70.522C29.2007 70.4878 28.8276 70.4107 28.467 70.2923C27.7918 70.0514 27.1728 69.6788 26.6473 69.1967C25.7778 68.3704 25.0533 67.4078 24.5033 66.3481C24.0209 65.4585 23.6993 64.7087 23.4688 64.1886C23.3589 63.9246 23.2759 63.7266 23.2223 63.5867C23.1898 63.5188 23.1638 63.4481 23.1445 63.3755C23.1855 63.4387 23.2196 63.5059 23.2464 63.5761C23.3134 63.724 23.4045 63.9193 23.5144 64.1675C23.7529 64.6796 24.0933 65.4215 24.5864 66.3032C25.1422 67.3444 25.8663 68.2896 26.7304 69.1016C27.2458 69.5661 27.8498 69.9251 28.5072 70.1576C28.8549 70.2708 29.2146 70.3443 29.5792 70.3768C29.9594 70.4143 30.3419 70.424 30.7236 70.4058C32.1818 70.3 33.626 70.0542 35.0357 69.6719C36.3489 69.3525 37.5281 69.0568 38.5197 68.7848C39.5113 68.5129 40.2938 68.2569 40.8352 68.0905L41.457 67.8793C41.5303 67.8534 41.6056 67.8331 41.6821 67.8186Z" fill="#263238"/>
<path opacity="0.2" d="M24.4414 66.3008C24.4414 66.3008 25.7814 71.3696 29.2654 71.2666C32.7494 71.1637 36.0217 69.6958 36.0217 69.6958L35.8662 69.5374C35.8662 69.5374 29.9702 70.7888 28.3328 70.0021C25.2213 68.5131 24.4414 66.3008 24.4414 66.3008Z" fill="black"/>
<path d="M41.1972 67.2907H42.2933C43.2876 67.1957 43.8423 67.1798 44.1211 66.9211C44.4936 66.57 43.9817 66.2294 43.9817 66.2294C43.9817 66.2294 44.6999 65.9839 44.6329 65.5536C44.5874 65.2579 44.247 65.2262 44.247 65.2262C44.247 65.2262 44.8822 64.9807 45.0081 64.7194C45.177 64.3656 44.7401 64.1755 44.7401 64.1755C45.6058 63.6475 45.5281 63.1195 45.3271 63.0773C45.1261 63.035 44.4534 63.3413 44.4534 63.3413C43.8825 63.5023 42.3255 63.9696 42.9017 63.1248C43.4779 62.28 43.5985 61.4167 43.4671 61.1606C43.4304 61.1049 43.377 61.0619 43.3142 61.0375C43.2515 61.0131 43.1826 61.0085 43.1172 61.0245C43.0517 61.0405 42.9929 61.0762 42.949 61.1266C42.9051 61.177 42.8782 61.2397 42.8722 61.3058C42.7833 61.6381 42.647 61.9563 42.4675 62.251C42.332 62.4936 42.1563 62.7122 41.9476 62.8978C41.7037 63.1116 41.4866 63.2832 41.3017 63.4258L40.3262 64.3498L41.1972 67.2907Z" fill="#FFBE9D"/>
</svg>
