<svg width="128" height="128" viewBox="0 0 128 128" fill="none" xmlns="http://www.w3.org/2000/svg">
<path d="M128 97.8945H0V97.9585H128V97.8945Z" fill="#EBEBEB"/>
<path d="M115.174 102.014H101.035V102.078H115.174V102.014Z" fill="#EBEBEB"/>
<path d="M84.6075 100.672H82.3828V100.736H84.6075V100.672Z" fill="#EBEBEB"/>
<path d="M100.264 99.6377H95.3516V99.7017H100.264V99.6377Z" fill="#EBEBEB"/>
<path d="M24.4863 100.068H13.4297V100.132H24.4863V100.068Z" fill="#EBEBEB"/>
<path d="M66.8293 101.722H55.125V101.786H66.8293V101.722Z" fill="#EBEBEB"/>
<path d="M59.9391 100.639H35.957V100.703H59.9391V100.639Z" fill="#EBEBEB"/>
<path d="M62.1358 85.0151C62.1358 85.2073 62.0979 85.3976 62.0243 85.5751C61.9507 85.7526 61.8428 85.9139 61.7068 86.0497C61.5708 86.1854 61.4093 86.293 61.2317 86.3663C61.054 86.4397 60.8637 86.4772 60.6715 86.4769H11.2405C10.8532 86.4762 10.4821 86.3219 10.2085 86.0478C9.9349 85.7738 9.78125 85.4024 9.78125 85.0151V15.529C9.78462 15.144 9.93976 14.7759 10.213 14.5046C10.4862 14.2333 10.8554 14.0807 11.2405 14.0801H60.6715C61.0592 14.0801 61.431 14.2341 61.7051 14.5082C61.9792 14.7824 62.1333 15.1542 62.1333 15.5418M62.0693 15.5418C62.0706 15.3573 62.0355 15.1743 61.9659 15.0034C61.8963 14.8325 61.7935 14.677 61.6637 14.5459C61.5338 14.4149 61.3792 14.3107 61.209 14.2396C61.0387 14.1684 60.856 14.1316 60.6715 14.1313H11.2405C10.8702 14.132 10.5153 14.2795 10.2537 14.5416C9.99216 14.8036 9.84525 15.1588 9.84525 15.529V85.0151C9.84525 85.3854 9.99216 85.7405 10.2537 86.0026C10.5153 86.2646 10.8702 86.4122 11.2405 86.4129H60.6715C61.042 86.4122 61.3971 86.2647 61.6591 86.0027C61.9211 85.7408 62.0686 85.3856 62.0693 85.0151" fill="#EBEBEB"/>
<path d="M116.048 86.4769H66.6141C66.2266 86.4762 65.8552 86.322 65.5812 86.048C65.3072 85.774 65.153 85.4026 65.1523 85.0151V15.529C65.1564 15.1438 65.3121 14.7756 65.5857 14.5044C65.8593 14.2332 66.2288 14.0807 66.6141 14.0801H116.048C116.432 14.0814 116.801 14.2343 117.074 14.5055C117.346 14.7767 117.501 15.1445 117.504 15.529V85.0151C117.504 85.4019 117.351 85.7729 117.078 86.0469C116.805 86.3209 116.435 86.4755 116.048 86.4769ZM66.6141 14.1313C66.2436 14.132 65.8885 14.2794 65.6265 14.5414C65.3645 14.8034 65.217 15.1585 65.2163 15.529V85.0151C65.217 85.3856 65.3645 85.7408 65.6265 86.0027C65.8885 86.2647 66.2436 86.4122 66.6141 86.4129H116.048C116.418 86.4122 116.773 86.2647 117.035 86.0027C117.297 85.7408 117.445 85.3856 117.445 85.0151V15.529C117.445 15.1585 117.297 14.8034 117.035 14.5414C116.773 14.2794 116.418 14.132 116.048 14.1313H66.6141Z" fill="#EBEBEB"/>
<path d="M18.0899 97.8945H33.4883L33.4883 65.5438H18.0899L18.0899 97.8945Z" fill="#E6E6E6"/>
<path d="M19.6406 97.8945H18.0918V93.4888H21.2636L19.6406 97.8945Z" fill="#F0F0F0"/>
<path d="M58.8067 97.8945H74.2051V65.5438H58.8067V97.8945Z" fill="#E6E6E6"/>
<path d="M18.0884 95.1909H60.1543L60.1543 65.5436H18.0884L18.0884 95.1909Z" fill="#F0F0F0"/>
<path d="M19.2904 74.9878H58.9551V66.8572H19.2904V74.9878Z" fill="#E6E6E6"/>
<path d="M36.3158 69.3761H41.9325C43.1392 69.3775 44.3335 69.133 45.4426 68.6577C46.5517 68.1823 47.5524 67.4861 48.3837 66.6113H29.8672C30.6978 67.4862 31.698 68.1826 32.8067 68.658C33.9155 69.1334 35.1095 69.3777 36.3158 69.3761Z" fill="#F0F0F0"/>
<path d="M58.608 97.8945H60.1568V93.4888H56.9824L58.608 97.8945Z" fill="#F0F0F0"/>
<path d="M19.2904 84.4316H58.9551V76.3011H19.2904V84.4316Z" fill="#E6E6E6"/>
<path d="M36.3158 78.8302H41.9325C43.1399 78.8301 44.3346 78.584 45.4438 78.1069C46.5529 77.6297 47.5532 76.9317 48.3837 76.0552H29.8672C30.697 76.9318 31.6968 77.63 32.8056 78.1072C33.9143 78.5843 35.1088 78.8303 36.3158 78.8302Z" fill="#F0F0F0"/>
<path d="M19.2904 93.8755H58.9551V85.7449H19.2904V93.8755Z" fill="#E6E6E6"/>
<path d="M36.3158 88.2738H41.9325C43.1395 88.2744 44.334 88.029 45.4431 87.5528C46.5523 87.0766 47.5528 86.3795 48.3837 85.5039H29.8672C30.6974 86.3796 31.6974 87.0769 32.8062 87.5531C33.9149 88.0294 35.1091 88.2746 36.3158 88.2738Z" fill="#F0F0F0"/>
<path d="M22.5637 54.9146H21.4655C21.3821 54.9146 21.3145 54.9822 21.3145 55.0656V65.3926C21.3145 65.476 21.3821 65.5437 21.4655 65.5437H22.5637C22.6471 65.5437 22.7148 65.476 22.7148 65.3926V55.0656C22.7148 54.9822 22.6471 54.9146 22.5637 54.9146Z" fill="#EBEBEB"/>
<path d="M22.7148 56.0103H21.3145V59.8784H22.7148V56.0103Z" fill="#FAFAFA"/>
<path d="M22.7148 61.0713H21.3145V63.4572H22.7148V61.0713Z" fill="#FAFAFA"/>
<path d="M28.5312 54.9146H22.8659C22.7825 54.9146 22.7148 54.9822 22.7148 55.0656V65.3926C22.7148 65.476 22.7825 65.5437 22.8659 65.5437H28.5312C28.6146 65.5437 28.6822 65.476 28.6822 65.3926V55.0656C28.6822 54.9822 28.6146 54.9146 28.5312 54.9146Z" fill="#E0E0E0"/>
<path d="M24.7978 53.8188H23.5844C23.4925 53.8188 23.418 53.8933 23.418 53.9852V65.3772C23.418 65.4691 23.4925 65.5436 23.5844 65.5436H24.7978C24.8897 65.5436 24.9642 65.4691 24.9642 65.3772V53.9852C24.9642 53.8933 24.8897 53.8188 24.7978 53.8188Z" fill="#EBEBEB"/>
<path d="M24.9623 55.3525H23.416V56.3996H24.9623V55.3525Z" fill="#FAFAFA"/>
<path d="M24.9623 58.3887H23.416V59.4357H24.9623V58.3887Z" fill="#FAFAFA"/>
<path d="M24.9623 61.4272H23.416V62.4743H24.9623V61.4272Z" fill="#FAFAFA"/>
<path d="M31.39 53.8188H25.141C25.0491 53.8188 24.9746 53.8933 24.9746 53.9852V65.3772C24.9746 65.4691 25.0491 65.5436 25.141 65.5436H31.39C31.4819 65.5436 31.5564 65.4691 31.5564 65.3772V53.9852C31.5564 53.8933 31.4819 53.8188 31.39 53.8188Z" fill="#E0E0E0"/>
<path d="M26.9153 54.9146H25.8171C25.7336 54.9146 25.666 54.9822 25.666 55.0656V65.3926C25.666 65.476 25.7336 65.5437 25.8171 65.5437H26.9153C26.9987 65.5437 27.0663 65.476 27.0663 65.3926V55.0656C27.0663 54.9822 26.9987 54.9146 26.9153 54.9146Z" fill="#EBEBEB"/>
<path d="M27.0663 57.0034H25.666V58.9874H27.0663V57.0034Z" fill="#FAFAFA"/>
<path d="M27.0663 59.5996H25.666V60.8233H27.0663V59.5996Z" fill="#FAFAFA"/>
<path d="M32.8866 54.9146H27.2214C27.1379 54.9146 27.0703 54.9822 27.0703 55.0656V65.3926C27.0703 65.476 27.1379 65.5437 27.2214 65.5437H32.8866C32.9701 65.5437 33.0377 65.476 33.0377 65.3926V55.0656C33.0377 54.9822 32.9701 54.9146 32.8866 54.9146Z" fill="#E0E0E0"/>
<path d="M28.9775 56.3994H27.7641C27.6722 56.3994 27.5977 56.4739 27.5977 56.5658V65.3799C27.5977 65.4718 27.6722 65.5463 27.7641 65.5463H28.9775C29.0694 65.5463 29.1439 65.4718 29.1439 65.3799V56.5658C29.1439 56.4739 29.0694 56.3994 28.9775 56.3994Z" fill="#EBEBEB"/>
<path d="M29.14 58.4551H27.5938V60.1472H29.14V58.4551Z" fill="#FAFAFA"/>
<path d="M29.14 64.0054H27.5938V64.4073H29.14V64.0054Z" fill="#FAFAFA"/>
<path d="M29.14 60.5234H27.5938V62.2156H29.14V60.5234Z" fill="#FAFAFA"/>
<path d="M35.5677 56.3994H29.3187C29.2268 56.3994 29.1523 56.4739 29.1523 56.5658V65.3799C29.1523 65.4718 29.2268 65.5463 29.3187 65.5463H35.5677C35.6596 65.5463 35.7341 65.4718 35.7341 65.3799V56.5658C35.7341 56.4739 35.6596 56.3994 35.5677 56.3994Z" fill="#E0E0E0"/>
<path d="M31.028 54.6152H29.9348C29.85 54.6152 29.7812 54.684 29.7812 54.7688V65.3928C29.7812 65.4777 29.85 65.5464 29.9348 65.5464H31.028C31.1128 65.5464 31.1816 65.4777 31.1816 65.3928V54.7688C31.1816 54.684 31.1128 54.6152 31.028 54.6152Z" fill="#EBEBEB"/>
<path d="M31.1816 55.7417H29.7812V59.7199H31.1816V55.7417Z" fill="#FAFAFA"/>
<path d="M31.1816 60.9434H29.7812V63.3958H31.1816V60.9434Z" fill="#FAFAFA"/>
<path d="M36.9954 54.6152H31.3352C31.2504 54.6152 31.1816 54.684 31.1816 54.7688V65.3928C31.1816 65.4777 31.2504 65.5464 31.3352 65.5464H36.9954C37.0802 65.5464 37.149 65.4777 37.149 65.3928V54.7688C37.149 54.684 37.0802 54.6152 36.9954 54.6152Z" fill="#E0E0E0"/>
<path d="M33.2755 55.7695H32.0364C31.9516 55.7695 31.8828 55.8383 31.8828 55.9231V65.39C31.8828 65.4748 31.9516 65.5436 32.0364 65.5436H33.2755C33.3603 65.5436 33.4291 65.4748 33.4291 65.39V55.9231C33.4291 55.8383 33.3603 55.7695 33.2755 55.7695Z" fill="#EBEBEB"/>
<path d="M33.4291 57.0469H31.8828V57.9198H33.4291V57.0469Z" fill="#FAFAFA"/>
<path d="M33.4291 59.5791H31.8828V60.4521H33.4291V59.5791Z" fill="#FAFAFA"/>
<path d="M33.4291 62.1108H31.8828V62.9838H33.4291V62.1108Z" fill="#FAFAFA"/>
<path d="M39.8696 55.7695H33.595C33.5102 55.7695 33.4414 55.8383 33.4414 55.9231V65.39C33.4414 65.4748 33.5102 65.5436 33.595 65.5436H39.8696C39.9544 65.5436 40.0232 65.4748 40.0232 65.39V55.9231C40.0232 55.8383 39.9544 55.7695 39.8696 55.7695Z" fill="#E0E0E0"/>
<path d="M35.3821 54.9146H34.2839C34.2004 54.9146 34.1328 54.9822 34.1328 55.0656V65.3926C34.1328 65.476 34.2004 65.5437 34.2839 65.5437H35.3821C35.4655 65.5437 35.5331 65.476 35.5331 65.3926V55.0656C35.5331 54.9822 35.4655 54.9146 35.3821 54.9146Z" fill="#EBEBEB"/>
<path d="M35.5331 57.0034H34.1328V58.9874H35.5331V57.0034Z" fill="#FAFAFA"/>
<path d="M35.5331 59.5996H34.1328V60.8233H35.5331V59.5996Z" fill="#FAFAFA"/>
<path d="M41.3495 54.9146H35.6842C35.6008 54.9146 35.5332 54.9822 35.5332 55.0656V65.3926C35.5332 65.476 35.6008 65.5437 35.6842 65.5437H41.3495C41.4329 65.5437 41.5006 65.476 41.5006 65.3926V55.0656C41.5006 54.9822 41.4329 54.9146 41.3495 54.9146Z" fill="#E0E0E0"/>
<path d="M37.4423 56.3994H36.2289C36.137 56.3994 36.0625 56.4739 36.0625 56.5658V65.3799C36.0625 65.4718 36.137 65.5463 36.2289 65.5463H37.4423C37.5342 65.5463 37.6087 65.4718 37.6087 65.3799V56.5658C37.6087 56.4739 37.5342 56.3994 37.4423 56.3994Z" fill="#EBEBEB"/>
<path d="M37.6068 58.4551H36.0605V60.1472H37.6068V58.4551Z" fill="#FAFAFA"/>
<path d="M37.6068 64.0054H36.0605V64.4073H37.6068V64.0054Z" fill="#FAFAFA"/>
<path d="M37.6068 60.5234H36.0605V62.2156H37.6068V60.5234Z" fill="#FAFAFA"/>
<path d="M44.0345 56.3994H37.7855C37.6936 56.3994 37.6191 56.4739 37.6191 56.5658V65.3799C37.6191 65.4718 37.6936 65.5463 37.7855 65.5463H44.0345C44.1264 65.5463 44.2009 65.4718 44.2009 65.3799V56.5658C44.2009 56.4739 44.1264 56.3994 44.0345 56.3994Z" fill="#E0E0E0"/>
<path d="M17.7788 42.5854L73.7891 42.5854V25.7227L17.7788 25.7227V42.5854Z" fill="#E6E6E6"/>
<path d="M16.5918 42.5854L73.2344 42.5854V25.7227L16.5918 25.7227V42.5854Z" fill="#F0F0F0"/>
<path d="M17.7788 44.7949L73.7891 44.7949V42.5882L17.7788 42.5882V44.7949Z" fill="#E6E6E6"/>
<path d="M14.6133 44.7949L71.2559 44.7949V42.5882L14.6133 42.5882V44.7949Z" fill="#F0F0F0"/>
<path d="M71.5703 40.924V27.3867L18.2532 27.3867V40.924H71.5703Z" fill="#FAFAFA"/>
<path d="M57.4613 40.924L47.7001 27.3867H37.7109L47.4722 40.924H57.4613Z" fill="white"/>
<path d="M70.7994 39.6265C70.8313 39.6265 70.8619 39.6138 70.8845 39.5912C70.907 39.5687 70.9197 39.5381 70.9197 39.5062V28.47C70.9155 28.4414 70.9012 28.4153 70.8793 28.3965C70.8575 28.3776 70.8296 28.3672 70.8007 28.3672C70.7718 28.3672 70.7439 28.3776 70.722 28.3965C70.7002 28.4153 70.6858 28.4414 70.6816 28.47V39.5062C70.6816 39.5376 70.694 39.5679 70.716 39.5904C70.738 39.6128 70.7679 39.6258 70.7994 39.6265Z" fill="#F0F0F0"/>
<path d="M43.7179 40.924L33.954 27.3867H30.498L40.2593 40.924H43.7179Z" fill="white"/>
<path d="M18.4648 40.924V27.3867H18.2524V40.924H18.4648Z" fill="#E6E6E6"/>
<path opacity="0.4" d="M16.1973 29.0638H72.2075L72.3611 28.0347H16.3509L16.1973 29.0638Z" fill="#E6E6E6"/>
<path opacity="0.4" d="M16.1973 30.7635H72.2075L72.3611 29.7344H16.3509L16.1973 30.7635Z" fill="#E6E6E6"/>
<path opacity="0.4" d="M16.1973 32.4661H72.2075L72.3611 31.437H16.3509L16.1973 32.4661Z" fill="#E6E6E6"/>
<path opacity="0.4" d="M16.1973 34.1658H72.2075L72.3611 33.1367H16.3509L16.1973 34.1658Z" fill="#E6E6E6"/>
<path opacity="0.4" d="M16.1973 35.8681H72.2075L72.3611 34.8364H16.3509L16.1973 35.8681Z" fill="#E6E6E6"/>
<path opacity="0.4" d="M16.1973 37.5682H72.2075L72.3611 36.5391H16.3509L16.1973 37.5682Z" fill="#E6E6E6"/>
<path d="M82.8676 64.0156H104.477V25.7231H82.8676V64.0156Z" fill="#E6E6E6"/>
<path d="M85.5322 26.7724C85.5647 26.7727 85.5967 26.7638 85.6244 26.7468C85.6756 26.7161 90.7598 23.6927 92.3623 23.6927C93.9649 23.6927 98.811 26.7135 98.8596 26.7443C98.8798 26.7582 98.9027 26.7679 98.9269 26.7726C98.951 26.7773 98.9758 26.777 98.9998 26.7718C99.0238 26.7665 99.0465 26.7563 99.0664 26.7419C99.0863 26.7275 99.1031 26.7091 99.1156 26.6879C99.1288 26.6675 99.1379 26.6446 99.1422 26.6206C99.1466 26.5966 99.1461 26.572 99.1409 26.5482C99.1356 26.5244 99.1257 26.5018 99.1117 26.4819C99.0977 26.4619 99.0799 26.445 99.0593 26.4319C98.8545 26.3065 94.0724 23.3267 92.37 23.3267C90.6676 23.3267 85.6602 26.3039 85.458 26.4319C85.4244 26.4521 85.3984 26.4827 85.3839 26.5191C85.3693 26.5555 85.3671 26.5956 85.3776 26.6334C85.388 26.6711 85.4106 26.7044 85.4417 26.7281C85.4729 26.7518 85.511 26.7647 85.5501 26.7647L85.5322 26.7724Z" fill="#F0F0F0"/>
<path d="M80.5251 64.0156H102.846V25.7231H80.5251V64.0156Z" fill="#F0F0F0"/>
<path d="M100.979 62.1466V27.5942H82.398V62.1466H100.979Z" fill="white"/>
<path d="M106.782 81.7588H93.3164V97.8945H106.782V81.7588Z" fill="#E0E0E0"/>
<path d="M106.78 81.7586H93.3145L96.0178 76.9458H109.483L106.78 81.7586Z" fill="#E0E0E0"/>
<path d="M80.1902 76.9458H66.7246L69.428 81.7586H82.8936L80.1902 76.9458Z" fill="#F5F5F5"/>
<path d="M69.4245 97.8945H93.3145V81.7589H69.4245V97.8945Z" fill="#F5F5F5"/>
<path d="M85.7983 93.5859H93.3145V86.0698H85.7983V93.5859Z" fill="#F0F0F0"/>
<path d="M72.6469 90.3936H76.9707V86.0697H72.6469V90.3936Z" fill="#F0F0F0"/>
<path d="M72.6469 95.7466H76.9707V91.4227H72.6469V95.7466Z" fill="#F0F0F0"/>
<path d="M97.1948 86.0674H93.3164V93.5835H97.1948V86.0674Z" fill="#E6E6E6"/>
<path d="M63.9991 109.456C91.4122 109.456 113.635 108.158 113.635 106.558C113.635 104.957 91.4122 103.66 63.9991 103.66C36.586 103.66 14.3633 104.957 14.3633 106.558C14.3633 108.158 36.586 109.456 63.9991 109.456Z" fill="#F5F5F5"/>
<path d="M43.7531 37.5209C45.5046 36.3226 45.953 33.9313 44.7546 32.1798C43.5563 30.4284 41.165 29.98 39.4135 31.1783C37.662 32.3767 37.2136 34.768 38.412 36.5194C39.6104 38.2709 42.0017 38.7193 43.7531 37.5209Z" fill="#EF233C"/>
<path d="M41.2168 34.0171L39.0664 33.1007C39.1124 33.0718 39.1657 33.0567 39.22 33.0571H43.9739C44.0282 33.057 44.0814 33.072 44.1275 33.1007L41.9771 34.0171C41.8568 34.0678 41.7275 34.0938 41.597 34.0938C41.4664 34.0938 41.3372 34.0678 41.2168 34.0171Z" fill="white"/>
<path d="M44.271 33.4437V35.5301C44.271 35.6122 44.2384 35.691 44.1803 35.7491C44.1222 35.8072 44.0434 35.8398 43.9613 35.8398H39.2073C39.1252 35.8398 39.0464 35.8072 38.9883 35.7491C38.9302 35.691 38.8976 35.6122 38.8976 35.5301V33.4437C38.8961 33.4309 38.8961 33.418 38.8976 33.4053L41.0966 34.3397C41.2499 34.4041 41.4142 34.438 41.5805 34.4395C41.7484 34.4382 41.9144 34.4043 42.0694 34.3397L44.2659 33.4053C44.2691 33.4178 44.2708 33.4307 44.271 33.4437Z" fill="white"/>
<path d="M63.7998 17.7957C64.4026 15.7609 63.2417 13.6228 61.2069 13.0201C59.1721 12.4173 57.0339 13.5782 56.4312 15.613C55.8285 17.6478 56.9894 19.786 59.0242 20.3887C61.059 20.9914 63.1971 19.8305 63.7998 17.7957Z" fill="#EF233C"/>
<path d="M61.9516 14.9556H58.2883C58.1053 14.9589 57.9309 15.0336 57.8023 15.1637C57.6736 15.2937 57.6009 15.4689 57.5996 15.6519V17.5386C57.6003 17.7238 57.6741 17.9011 57.8051 18.032C57.936 18.163 58.1133 18.2368 58.2985 18.2375H60.9788L60.9583 18.898L61.6367 18.2375H61.9516C62.1365 18.2361 62.3135 18.1621 62.4443 18.0313C62.5751 17.9005 62.6491 17.7235 62.6505 17.5386V15.6519C62.6491 15.4672 62.575 15.2905 62.4441 15.1601C62.3133 15.0297 62.1363 14.9562 61.9516 14.9556ZM58.2166 15.7594C58.2166 15.7076 58.237 15.6578 58.2734 15.6209C58.3098 15.584 58.3593 15.563 58.4111 15.5623H59.2508C59.3026 15.563 59.3521 15.584 59.3885 15.6209C59.425 15.6578 59.4454 15.7076 59.4454 15.7594C59.4447 15.8106 59.4239 15.8594 59.3875 15.8953C59.3511 15.9313 59.302 15.9514 59.2508 15.9514H58.4111C58.3849 15.9528 58.3588 15.9489 58.3341 15.9399C58.3095 15.9309 58.2869 15.917 58.2678 15.8991C58.2487 15.8811 58.2334 15.8595 58.2228 15.8355C58.2122 15.8115 58.2066 15.7856 58.2063 15.7594H58.2166ZM61.7443 17.5821H60.2902C60.2392 17.5821 60.1904 17.5619 60.1544 17.5259C60.1184 17.4899 60.0982 17.441 60.0982 17.3901C60.0982 17.3392 60.1184 17.2904 60.1544 17.2544C60.1904 17.2184 60.2392 17.1981 60.2902 17.1981H61.7443C61.7952 17.1981 61.844 17.2184 61.88 17.2544C61.916 17.2904 61.9363 17.3392 61.9363 17.3901C61.9363 17.441 61.916 17.4899 61.88 17.5259C61.844 17.5619 61.7952 17.5821 61.7443 17.5821ZM61.7443 16.768H58.5954C58.5443 16.7674 58.4955 16.7466 58.4595 16.7102C58.4236 16.6737 58.4034 16.6246 58.4034 16.5735C58.4034 16.5226 58.4237 16.4737 58.4597 16.4377C58.4957 16.4017 58.5445 16.3815 58.5954 16.3815H61.734C61.7849 16.3815 61.8338 16.4017 61.8698 16.4377C61.9058 16.4737 61.926 16.5226 61.926 16.5735C61.926 16.6246 61.9059 16.6737 61.8699 16.7102C61.834 16.7466 61.7852 16.7674 61.734 16.768H61.7443ZM61.7443 15.9514H59.8857C59.8348 15.9514 59.7859 15.9312 59.7499 15.8952C59.7139 15.8592 59.6937 15.8103 59.6937 15.7594C59.6933 15.7339 59.698 15.7085 59.7075 15.6848C59.717 15.661 59.731 15.6394 59.7489 15.6211C59.7667 15.6028 59.7879 15.5882 59.8114 15.5781C59.8349 15.568 59.8601 15.5626 59.8857 15.5623H61.7443C61.7956 15.5636 61.8445 15.585 61.8803 15.6218C61.9162 15.6586 61.9363 15.708 61.9363 15.7594C61.9359 15.7854 61.9304 15.8111 61.92 15.8349C61.9096 15.8587 61.8945 15.8802 61.8757 15.8981C61.8568 15.916 61.8346 15.9299 61.8102 15.9391C61.7859 15.9482 61.76 15.9524 61.734 15.9514H61.7443Z" fill="white"/>
<path d="M51.4702 24.303C52.5039 22.4496 51.8394 20.1092 49.986 19.0754C48.1326 18.0417 45.7921 18.7062 44.7584 20.5596C43.7247 22.413 44.3892 24.7535 46.2426 25.7872C48.096 26.8209 50.4365 26.1564 51.4702 24.303Z" fill="#EF233C"/>
<path d="M49.7746 20.8052H46.4466C46.2861 20.8052 46.1322 20.8688 46.0184 20.982C45.9047 21.0952 45.8405 21.2489 45.8398 21.4094V23.4574C45.8398 23.5375 45.8557 23.6168 45.8865 23.6907C45.9173 23.7647 45.9625 23.8318 46.0194 23.8882C46.0762 23.9446 46.1437 23.9892 46.2179 24.0194C46.2921 24.0496 46.3716 24.0648 46.4517 24.0641H49.7797C49.9402 24.0641 50.0941 24.0005 50.2078 23.8873C50.3215 23.7741 50.3857 23.6204 50.3864 23.4599V21.4119C50.3864 21.3318 50.3705 21.2525 50.3397 21.1785C50.3089 21.1046 50.2638 21.0375 50.2069 20.9811C50.15 20.9247 50.0825 20.8801 50.0083 20.8499C49.9341 20.8197 49.8547 20.8045 49.7746 20.8052ZM47.5832 23.2961V21.5783L49.0629 22.4308L47.5832 23.2961Z" fill="white"/>
<path d="M75.3465 22.7211C77.2661 21.8162 78.0886 19.5265 77.1837 17.6069C76.2788 15.6873 73.989 14.8648 72.0695 15.7697C70.1499 16.6746 69.3273 18.9643 70.2323 20.8839C71.1372 22.8035 73.4269 23.626 75.3465 22.7211Z" fill="#EF233C"/>
<path d="M75.4068 19.7377C75.6142 19.5274 75.7566 19.2618 75.8169 18.9727C75.8772 18.6836 75.8529 18.3832 75.7468 18.1075C75.6408 17.8319 75.4575 17.5926 75.219 17.4185C74.9804 17.2443 74.6967 17.1426 74.4019 17.1256C74.107 17.1086 73.8135 17.1769 73.5565 17.3224C73.2995 17.4679 73.0899 17.6845 72.9528 17.9461C72.8157 18.2077 72.7569 18.5033 72.7835 18.7974C72.8101 19.0916 72.921 19.3718 73.1028 19.6046C72.9978 19.6865 72.898 19.771 72.7982 19.8606C72.6522 19.9835 72.5114 20.1166 72.3732 20.2343C72.2349 20.3521 72.0967 20.4903 71.961 20.6235L71.7588 20.8231C71.7237 20.855 71.695 20.8932 71.6743 20.9358C71.6618 20.9599 71.6531 20.9858 71.6487 21.0126C71.6431 21.0431 71.6431 21.0743 71.6487 21.1047C71.6523 21.1613 71.6764 21.2145 71.7165 21.2546C71.7565 21.2946 71.8098 21.3187 71.8663 21.3223C71.8978 21.3264 71.9296 21.3264 71.961 21.3223L72.0353 21.2967C72.0784 21.2757 72.1167 21.2461 72.1479 21.2097C72.2145 21.1431 72.2836 21.0766 72.3476 21.0075C72.4807 20.8743 72.6036 20.7361 72.7367 20.5979C72.8698 20.4596 72.9927 20.3163 73.1105 20.1703C73.1975 20.0705 73.2794 19.9707 73.3665 19.8657C73.663 20.0985 74.0348 20.214 74.411 20.1904C74.7873 20.1668 75.1417 20.0057 75.4068 19.7377ZM73.451 19.5073C73.28 19.3366 73.1635 19.119 73.1162 18.8821C73.0689 18.6452 73.0929 18.3995 73.1853 18.1763C73.2777 17.953 73.4342 17.7622 73.635 17.6279C73.8359 17.4937 74.0721 17.422 74.3137 17.422C74.5553 17.422 74.7914 17.4937 74.9923 17.6279C75.1932 17.7622 75.3497 17.953 75.442 18.1763C75.5344 18.3995 75.5585 18.6452 75.5112 18.8821C75.4639 19.119 75.3474 19.3366 75.1764 19.5073C74.9474 19.7359 74.6372 19.8642 74.3137 19.8642C73.9902 19.8642 73.6799 19.7359 73.451 19.5073Z" fill="white"/>
<path d="M84.9875 32.1079C86.739 30.9095 87.1873 28.5182 85.989 26.7667C84.7906 25.0153 82.3993 24.5669 80.6479 25.7652C78.8964 26.9636 78.448 29.3549 79.6464 31.1064C80.8447 32.8578 83.236 33.3062 84.9875 32.1079Z" fill="#EF233C"/>
<path d="M85.2823 28.9279C85.2823 28.9279 85.2823 28.9279 85.2823 28.9126C85.2808 28.7857 85.2706 28.6591 85.2515 28.5337C85.1595 27.9659 84.8714 27.4484 84.4374 27.071C84.0034 26.6935 83.4509 26.4801 82.8759 26.4678H82.753C82.6441 26.4695 82.5354 26.4789 82.4279 26.4959C81.8506 26.5901 81.3257 26.8864 80.9468 27.3319C80.5678 27.7774 80.3596 28.3431 80.3594 28.9279C80.3594 28.9279 80.3594 28.9279 80.3594 28.9407C80.3594 28.9535 80.3594 28.9407 80.3594 28.9561C80.3599 29.0829 80.3693 29.2095 80.3875 29.335C80.4819 29.9107 80.7772 30.4343 81.2211 30.813C81.6649 31.1917 82.2285 31.4009 82.8119 31.4035C82.9422 31.4033 83.0723 31.393 83.201 31.3727C83.7749 31.278 84.297 30.9836 84.675 30.5414C85.0529 30.0993 85.2626 29.5378 85.2669 28.9561C85.2669 28.9561 85.2823 28.9433 85.2823 28.9279ZM84.6346 29.9007H84.2045C84.2685 29.6492 84.3071 29.3919 84.3197 29.1327H84.8701C84.8457 29.4055 84.7655 29.6704 84.6346 29.911V29.9007ZM81.0045 27.9551H81.4346C81.3708 28.2067 81.3322 28.4639 81.3194 28.7231H80.769C80.7969 28.4575 80.8769 28.2 81.0045 27.9654V27.9551ZM83.9075 28.5849C83.9075 28.6335 83.9075 28.6796 83.9075 28.7283H83.009V27.9603H83.777C83.8407 28.1672 83.8844 28.3798 83.9075 28.5951V28.5849ZM83.0192 27.5609V26.9081C83.0776 26.9301 83.1334 26.9584 83.1856 26.9926C83.3805 27.1412 83.5346 27.3367 83.6336 27.5609H83.0192ZM82.6199 26.9107V27.5609H82.0029C82.1182 27.2747 82.3391 27.0437 82.6199 26.9158V26.9107ZM82.6199 27.9603V28.7283H81.7213C81.736 28.4682 81.7798 28.2106 81.8519 27.9603H82.6199ZM80.7843 29.2633C80.7843 29.2198 80.7843 29.1763 80.769 29.1327H81.3219C81.3219 29.1942 81.3219 29.2531 81.3219 29.3145C81.3406 29.514 81.3748 29.7117 81.4243 29.9059H80.9917C80.887 29.7067 80.8168 29.4911 80.7843 29.2684V29.2633ZM81.7315 29.2787C81.7315 29.23 81.7315 29.1814 81.7315 29.1327H82.6301V29.9007H81.8621C81.7993 29.6996 81.7556 29.4931 81.7315 29.2838V29.2787ZM82.6199 30.3027V30.9759C82.561 30.955 82.5051 30.9266 82.4535 30.8915C82.2586 30.7428 82.1045 30.5473 82.0055 30.3231L82.6199 30.3027ZM83.0192 30.9555V30.3103H83.6362C83.5239 30.6034 83.3029 30.8418 83.0192 30.9759V30.9555ZM83.0192 29.9033V29.1353H83.9178C83.9033 29.3954 83.8595 29.653 83.7872 29.9033H83.0192ZM84.3171 28.7308C84.3171 28.6719 84.3171 28.6105 84.3171 28.5491C84.2972 28.3497 84.263 28.1521 84.2147 27.9577H84.6474C84.7547 28.1585 84.8282 28.3756 84.865 28.6003C84.865 28.6438 84.865 28.6873 84.8803 28.7308H84.3171ZM84.3581 27.5583H84.0714C84.0164 27.4185 83.9487 27.2839 83.8691 27.1564C83.9229 27.1878 83.975 27.222 84.0253 27.2588C84.1472 27.3486 84.2589 27.4516 84.3581 27.566V27.5583ZM81.7674 27.159C81.6883 27.2859 81.6206 27.4195 81.5651 27.5583H81.281C81.4226 27.4041 81.5865 27.2721 81.7674 27.1667V27.159ZM81.2835 30.3027H81.5677C81.624 30.4432 81.6926 30.5785 81.7725 30.7071C81.5897 30.6014 81.4247 30.4675 81.2835 30.3103V30.3027ZM83.8717 30.7199C83.9508 30.5922 84.0185 30.4577 84.0739 30.318H84.3581C84.2165 30.475 84.0526 30.6104 83.8717 30.7199Z" fill="white"/>
<path d="M86.7551 45.583C88.5065 44.3846 88.9549 41.9933 87.7566 40.2418C86.5582 38.4904 84.1669 38.042 82.4154 39.2403C80.664 40.4387 80.2156 42.83 81.414 44.5815C82.6123 46.3329 85.0036 46.7813 86.7551 45.583Z" fill="#EF233C"/>
<path d="M84.5852 40.105C84.0931 40.119 83.6225 40.3099 83.2596 40.6426C82.8967 40.9754 82.6659 41.4277 82.6093 41.9168C82.5527 42.4058 82.6742 42.8989 82.9515 43.3057C83.2288 43.7125 83.6434 44.0058 84.1193 44.1319L84.5852 44.7258L85.0511 44.1319C85.527 44.0058 85.9416 43.7125 86.2189 43.3057C86.4962 42.8989 86.6177 42.4058 86.5611 41.9168C86.5045 41.4277 86.2737 40.9754 85.9108 40.6426C85.5479 40.3099 85.0773 40.119 84.5852 40.105ZM84.5852 42.9952C84.4172 42.9947 84.2531 42.9444 84.1137 42.8507C83.9743 42.757 83.8657 42.6241 83.8018 42.4688C83.7379 42.3134 83.7214 42.1426 83.7545 41.9779C83.7876 41.8132 83.8687 41.662 83.9877 41.5434C84.1066 41.4248 84.2581 41.3441 84.4229 41.3115C84.5877 41.2789 84.7584 41.2959 84.9136 41.3603C85.0687 41.4247 85.2013 41.5337 85.2946 41.6734C85.3879 41.8131 85.4377 41.9773 85.4377 42.1453C85.4394 42.2582 85.4186 42.3703 85.3765 42.4751C85.3343 42.5798 85.2718 42.6752 85.1924 42.7555C85.113 42.8358 85.0185 42.8995 84.9142 42.9429C84.81 42.9862 84.6981 43.0084 84.5852 43.008V42.9952Z" fill="white"/>
<path d="M61.7047 104.351H59.731L59.6465 99.7788H61.6202L61.7047 104.351Z" fill="#B55B52"/>
<path d="M73.5595 104.351H71.5857L70.7051 99.7788H72.6788L73.5595 104.351Z" fill="#B55B52"/>
<path d="M71.4507 104.123H73.6703C73.7091 104.123 73.7468 104.136 73.7767 104.161C73.8066 104.186 73.8269 104.221 73.8341 104.259L74.1823 106.012C74.1902 106.056 74.1884 106.1 74.1771 106.143C74.1658 106.185 74.1452 106.225 74.1169 106.259C74.0885 106.293 74.053 106.32 74.013 106.338C73.973 106.357 73.9294 106.366 73.8853 106.366C73.1173 106.35 72.7359 106.307 71.7605 106.307C71.1589 106.307 69.9224 106.368 69.093 106.368C68.2635 106.368 68.1765 105.549 68.517 105.475C70.053 105.142 70.6315 104.684 71.1282 104.246C71.2171 104.167 71.3318 104.123 71.4507 104.123Z" fill="#263238"/>
<path d="M59.7487 104.123H61.9068C61.9456 104.123 61.9833 104.136 62.0132 104.161C62.0431 104.186 62.0634 104.221 62.0706 104.259L62.4162 106.012C62.425 106.055 62.424 106.1 62.4134 106.142C62.4028 106.185 62.3827 106.225 62.3547 106.259C62.3267 106.293 62.2915 106.32 62.2517 106.338C62.2118 106.357 62.1683 106.366 62.1244 106.366C61.3564 106.35 60.2249 106.307 59.2469 106.307C58.1026 106.307 57.1145 106.368 55.773 106.368C54.9641 106.368 54.749 105.549 55.0997 105.475C56.6537 105.137 57.9157 105.101 59.27 104.277C59.4124 104.182 59.578 104.129 59.7487 104.123Z" fill="#263238"/>
<path d="M59.6896 42.381L57.5827 40.4917C57.5827 40.4917 52.409 45.2431 51.3952 45.2277C50.0128 45.2047 47.1405 45.0613 45.5379 44.7157C45.2512 44.8898 44.6624 45.5528 44.6035 45.8498C46.439 47.3013 51.2211 48.3407 52.4218 47.9362C55.1558 47.0197 59.6896 42.381 59.6896 42.381Z" fill="#B55B52"/>
<path d="M60.872 41.285C60.8567 43.1717 55.8416 46.9375 55.8416 46.9375L52.9258 43.589C54.0617 42.2659 55.3323 41.0648 56.7171 40.005C58.7703 38.5125 60.8874 39.214 60.872 41.285Z" fill="#263238"/>
<path opacity="0.2" d="M55.8418 46.9374C55.8418 46.9374 60.4728 43.4609 60.8466 41.5153C60.2552 40.9086 57.0885 42.6443 55.8418 46.9374Z" fill="black"/>
<path d="M45.8529 44.8178L44.1044 43.2075L42.5352 45.2197C43.3205 45.6471 44.1665 45.9518 45.044 46.1234L45.8529 44.8178Z" fill="#B55B52"/>
<path d="M42.0206 42.2607L41.4805 43.7788L42.5352 45.2201L44.1045 43.2079L42.0206 42.2607Z" fill="#B55B52"/>
<path opacity="0.2" d="M59.6465 99.7812L59.69 102.136H61.6663L61.6228 99.7812H59.6465Z" fill="black"/>
<path opacity="0.2" d="M72.6814 99.7812H70.7051L71.1608 102.136H73.1345L72.6814 99.7812Z" fill="black"/>
<path d="M58.312 39.2934C58.312 39.2934 55.8339 45.2582 57.777 56.3609H68.337C68.4496 54.7404 67.6253 46.8326 69.3763 39.1935C68.2122 38.9681 67.0347 38.8185 65.8512 38.7455C64.3566 38.6597 62.8582 38.6597 61.3635 38.7455C60.3338 38.8496 59.3136 39.0327 58.312 39.2934Z" fill="#263238"/>
<path opacity="0.2" d="M67.0375 41.0776C66.8302 42.3371 67.1527 45.3426 68.2663 48.8191C68.3198 45.8419 68.6359 42.8753 69.211 39.9538V39.9359C68.5172 39.8667 67.2347 39.9 67.0375 41.0776Z" fill="black"/>
<path d="M65.3669 34.5601C65.0495 36.0039 64.8549 37.7959 65.8508 38.7585C65.8508 38.7585 65.2364 40.2253 62.5509 40.2253C60.0985 40.2253 61.3631 38.7585 61.3631 38.7585C62.981 38.3745 62.9477 36.3828 62.6943 35.2615L65.3669 34.5601Z" fill="#B55B52"/>
<path d="M62.4238 40.095L61.8427 40.7401C61.8228 40.7623 61.809 40.7894 61.8027 40.8186C61.7964 40.8478 61.7978 40.8781 61.8068 40.9065L61.9937 41.4723C62.0034 41.5043 62.023 41.5325 62.0497 41.5527C62.0764 41.5729 62.1087 41.5842 62.1422 41.5849L62.7668 41.6156C62.7969 41.617 62.8267 41.6106 62.8536 41.5972C62.8805 41.5837 62.9035 41.5637 62.9205 41.5388L63.2942 40.991C63.3168 40.9612 63.3291 40.9248 63.3291 40.8873C63.3291 40.8499 63.3168 40.8135 63.2942 40.7836L62.6875 40.095C62.6714 40.0757 62.6512 40.0601 62.6285 40.0494C62.6057 40.0387 62.5808 40.0332 62.5557 40.0332C62.5305 40.0332 62.5056 40.0387 62.4828 40.0494C62.4601 40.0601 62.4399 40.0757 62.4238 40.095Z" fill="#EF233C"/>
<path d="M62.5547 39.954C62.8514 40.4532 63.0162 41.0196 63.0334 41.6001C63.0334 41.6001 66.4228 40.4122 66.3102 38.6766C66.3102 38.6766 65.8392 38.3924 65.5422 38.1646C65.5371 38.162 65.4014 39.2577 62.5547 39.954Z" fill="white"/>
<path d="M62.5538 39.954C62.2345 40.4215 61.9997 40.9414 61.86 41.49C61.86 41.49 60.3624 40.466 60.8616 38.7406C61.1434 38.6277 61.4336 38.5369 61.7295 38.4692C61.7295 38.4692 61.5016 39.5828 62.5538 39.954Z" fill="white"/>
<path d="M62.2774 41.4951C62.2774 41.4951 61.3174 48.5633 61.2969 49.7921C61.3097 50.9559 61.4925 52.1116 61.8396 53.2225C61.8396 53.2225 62.4975 51.9732 62.6076 49.7409C62.7177 47.5086 62.5846 42.747 62.6332 41.4951H62.2774Z" fill="#EF233C"/>
<path opacity="0.2" d="M62.6922 35.2488C62.8432 35.9067 62.9174 36.8642 62.623 37.6194C62.8749 37.582 63.1199 37.5078 63.3501 37.3992C64.2691 36.9717 64.7325 36.2984 65.2214 35.2974C65.265 35.0414 65.3136 34.7854 65.3674 34.5474L62.6922 35.2488Z" fill="black"/>
<path d="M60.5208 33.3443C60.5635 33.5813 60.6535 33.8073 60.7854 34.0087C60.9174 34.2102 61.0886 34.3829 61.2888 34.5167C61.8315 34.87 62.3128 34.4246 62.3307 33.8051C62.3487 33.247 62.0927 32.3919 61.4655 32.2895C61.3272 32.2714 61.1865 32.2872 61.0557 32.3357C60.9249 32.3841 60.8079 32.4638 60.7149 32.5677C60.6218 32.6716 60.5555 32.7966 60.5217 32.9319C60.4879 33.0673 60.4876 33.2088 60.5208 33.3443Z" fill="#B55B52"/>
<path opacity="0.2" d="M60.5208 33.3443C60.5635 33.5813 60.6535 33.8073 60.7854 34.0087C60.9174 34.2102 61.0886 34.3829 61.2888 34.5167C61.8315 34.87 62.3128 34.4246 62.3307 33.8051C62.3487 33.247 62.0927 32.3919 61.4655 32.2895C61.3272 32.2714 61.1865 32.2872 61.0557 32.3357C60.9249 32.3841 60.8079 32.4638 60.7149 32.5677C60.6218 32.6716 60.5555 32.7966 60.5217 32.9319C60.4879 33.0673 60.4876 33.2088 60.5208 33.3443Z" fill="black"/>
<path d="M63.1684 29.5683C62.1111 29.6169 60.6084 31.99 61.5402 33.0089C62.4721 34.0278 65.1652 29.4761 63.1684 29.5683Z" fill="#263238"/>
<path d="M66.7587 33.3468C65.9241 35.1388 65.5247 36.2294 64.2371 36.831C62.2966 37.7321 60.3971 36.063 60.671 34.0611C60.927 32.2691 62.2505 29.6374 64.3164 29.5708C64.7698 29.5531 65.22 29.6537 65.6227 29.8628C66.0254 30.0718 66.3668 30.3821 66.6132 30.7631C66.8596 31.1441 67.0026 31.5827 67.0281 32.0357C67.0536 32.4887 66.9608 32.9406 66.7587 33.3468Z" fill="#B55B52"/>
<path d="M68.1532 31.0426C69.1772 31.7031 67.7257 34.6266 66.4099 34.5473C65.8288 34.5114 65.9363 33.0932 66.5174 31.8721C65.4575 31.826 61.9657 31.0529 62.0809 29.4017C62.1167 28.8692 62.662 28.5466 63.4428 28.1421C63.6549 28.0527 63.826 27.8876 63.923 27.6789C64.02 27.4702 64.0359 27.2329 63.9676 27.0132C64.1413 27.1837 64.2616 27.4011 64.3139 27.6389C64.3662 27.8766 64.3482 28.1244 64.262 28.3521C63.9651 29.161 65.5855 28.841 66.5199 28.818C68.1891 28.7719 69.1465 30.0186 68.1532 31.0426Z" fill="#263238"/>
<path d="M67.9219 31.0424C67.9219 31.0424 68.7436 30.7326 69.0227 31.452C68.6943 31.2284 68.3165 31.0879 67.9219 31.0424Z" fill="#263238"/>
<path d="M66.7815 35.6764C66.3866 35.9752 65.8903 36.1076 65.3991 36.045C64.754 35.9554 64.7053 35.3154 65.1149 34.8393C65.481 34.4117 66.2618 33.9433 66.7968 34.2735C67.3319 34.6037 67.2679 35.3026 66.7815 35.6764Z" fill="#B55B52"/>
<path d="M57.7783 56.3612C57.7783 56.3612 57.1434 71.1247 57.21 77.1458C57.2816 83.4102 58.9661 101.681 58.9661 101.681H62.312C62.312 101.681 62.9264 83.7762 63.226 77.6169C63.5536 70.9122 64.721 56.3535 64.721 56.3535L57.7783 56.3612Z" fill="#EF233C"/>
<path d="M62.5577 100.657C62.573 100.657 62.5295 101.75 62.5295 101.75H58.6741L58.541 100.521L62.5577 100.657Z" fill="#263238"/>
<path opacity="0.2" d="M62.3015 60.27C62.1863 67.5942 62.5191 72.046 63.3255 75.63C63.5277 72.1356 63.8579 67.5148 64.1472 63.6774L62.3015 60.27Z" fill="black"/>
<path d="M61.5234 56.3608C61.5234 56.3608 63.3948 71.4648 64.4879 77.0968C65.6809 83.2869 70.253 101.673 70.253 101.673H73.8678C73.8678 101.673 71.0159 83.7964 70.4015 77.6652C69.7308 71.0092 68.3535 56.3608 68.3535 56.3608H61.5234Z" fill="#EF233C"/>
<path d="M73.8901 100.738C73.9055 100.738 74.0463 101.75 74.0463 101.75H70.0706L69.748 100.587L73.8901 100.738Z" fill="#263238"/>
<path opacity="0.2" d="M72.4607 99.5431C72.453 99.5431 72.4455 99.5403 72.4398 99.5351C72.4342 99.5298 72.4306 99.5227 72.43 99.515C72.4044 99.3332 69.829 83.4023 69.2735 77.8958C68.6719 71.9207 67.4175 58.6702 67.4047 58.537C67.404 58.5325 67.4042 58.5278 67.4054 58.5233C67.4066 58.5189 67.4087 58.5147 67.4116 58.5111C67.4145 58.5074 67.4181 58.5045 67.4222 58.5023C67.4263 58.5002 67.4308 58.4989 67.4354 58.4986C67.4398 58.4983 67.4442 58.4988 67.4484 58.5002C67.4525 58.5015 67.4564 58.5037 67.4597 58.5065C67.4631 58.5094 67.4658 58.5129 67.4678 58.5168C67.4698 58.5207 67.4709 58.525 67.4713 58.5294C67.4841 58.6625 68.7385 71.9105 69.3401 77.8881C69.8956 83.3921 72.4709 99.323 72.4965 99.5047C72.4973 99.5091 72.4971 99.5136 72.4961 99.5179C72.4951 99.5222 72.4932 99.5263 72.4906 99.5299C72.4879 99.5334 72.4846 99.5364 72.4808 99.5387C72.477 99.541 72.4728 99.5425 72.4684 99.5431H72.4607Z" fill="black"/>
<path d="M63.7967 32.832C63.7379 32.983 63.6124 33.0726 63.5151 33.0368C63.4179 33.001 63.3897 32.8525 63.4486 32.7014C63.5075 32.5504 63.6329 32.4608 63.7302 32.4966C63.8275 32.5325 63.8556 32.6835 63.7967 32.832Z" fill="#263238"/>
<path d="M62.1242 32.2101C62.0653 32.3586 61.9373 32.4508 61.8426 32.4149C61.7478 32.3791 61.7146 32.228 61.7734 32.0796C61.8323 31.9311 61.9578 31.8236 62.055 31.8722C62.1523 31.9208 62.183 32.0591 62.1242 32.2101Z" fill="#263238"/>
<path d="M62.6269 32.4814C62.2715 32.8761 61.8642 33.2206 61.416 33.5054C61.4889 33.6164 61.5854 33.7098 61.6988 33.7788C61.8121 33.8479 61.9394 33.8909 62.0714 33.9048L62.6269 32.4814Z" fill="#A02724"/>
<path d="M62.3399 34.4654C62.3342 34.4635 62.329 34.4603 62.3245 34.4562C62.3201 34.4521 62.3166 34.4472 62.3142 34.4416C62.3117 34.4361 62.3105 34.4301 62.3105 34.4241C62.3106 34.418 62.3119 34.4121 62.3143 34.4065C62.3194 34.3952 62.3284 34.3861 62.3397 34.3809C62.351 34.3757 62.3638 34.3748 62.3758 34.3784C62.5604 34.45 62.7592 34.4778 62.9564 34.4596C63.1537 34.4414 63.344 34.3777 63.5124 34.2734C63.5214 34.265 63.5333 34.2603 63.5457 34.2603C63.558 34.2603 63.5699 34.265 63.579 34.2734C63.5874 34.2824 63.5921 34.2943 63.5921 34.3067C63.5921 34.3191 63.5874 34.331 63.579 34.34C63.3979 34.4593 63.1906 34.533 62.9748 34.5549C62.7591 34.5767 62.5412 34.546 62.3399 34.4654Z" fill="#263238"/>
<path d="M64.5134 32.4763C64.5002 32.4706 64.4884 32.4621 64.4787 32.4515C64.469 32.441 64.4616 32.4285 64.4571 32.4148C64.4318 32.2997 64.3783 32.1926 64.3015 32.1033C64.2246 32.0139 64.1268 31.945 64.0167 31.9028C63.9931 31.8952 63.9734 31.8786 63.9619 31.8565C63.9504 31.8345 63.948 31.8088 63.9553 31.7851C63.9635 31.7617 63.9801 31.7422 64.0018 31.7304C64.0236 31.7186 64.049 31.7152 64.0731 31.7211C64.2117 31.771 64.3358 31.8544 64.4345 31.9638C64.5332 32.0732 64.6033 32.2053 64.6388 32.3483C64.6451 32.3724 64.6416 32.398 64.6292 32.4195C64.6167 32.4411 64.5963 32.4569 64.5723 32.4635C64.5546 32.4742 64.5339 32.4787 64.5134 32.4763Z" fill="#263238"/>
<path d="M61.6066 31.3292C61.5917 31.3231 61.5787 31.3132 61.569 31.3004C61.5593 31.2876 61.5532 31.2724 61.5514 31.2564C61.5495 31.2405 61.552 31.2243 61.5586 31.2096C61.5652 31.1949 61.5755 31.1823 61.5887 31.173C61.7009 31.0749 61.8349 31.0046 61.9795 30.9682C62.1241 30.9317 62.2753 30.9299 62.4207 30.9631C62.4326 30.9666 62.4436 30.9725 62.4532 30.9803C62.4628 30.9882 62.4707 30.9979 62.4765 31.0089C62.4822 31.0199 62.4856 31.032 62.4866 31.0443C62.4876 31.0567 62.4861 31.0691 62.4821 31.0809C62.4739 31.1041 62.4572 31.1234 62.4354 31.1348C62.4135 31.1462 62.3881 31.1489 62.3644 31.1423C62.2487 31.1188 62.1292 31.1223 62.0151 31.1525C61.901 31.1827 61.7953 31.2388 61.7064 31.3164C61.6927 31.3277 61.676 31.3349 61.6584 31.3372C61.6407 31.3394 61.6228 31.3367 61.6066 31.3292Z" fill="#263238"/>
<path d="M67.6504 42.4423L70.3998 41.5488C70.3998 41.5488 72.924 47.9847 73.8609 48.3559C75.1409 48.8679 77.7189 50.2195 79.3265 50.5421C79.5109 50.8135 79.7566 51.648 79.6798 51.9424C77.3758 52.5415 72.6859 51.2794 71.7617 50.4499C69.6497 48.5607 67.6504 42.4423 67.6504 42.4423Z" fill="#B55B52"/>
<path d="M69.3767 39.1938C71.2378 39.4652 73.2167 45.9394 73.2167 45.9394L69.2385 48.1538C69.2385 48.1538 67.5873 45.0818 66.7911 42.7778C65.9591 40.3945 67.3799 38.9122 69.3767 39.1938Z" fill="#263238"/>
<path d="M70.7892 104.468C70.6561 104.479 70.5233 104.444 70.4129 104.369C70.3764 104.338 70.3486 104.298 70.3324 104.253C70.3163 104.208 70.3122 104.16 70.3208 104.113C70.3218 104.085 70.3301 104.058 70.345 104.035C70.3598 104.011 70.3806 103.992 70.4052 103.979C70.6228 103.869 71.2526 104.259 71.3243 104.305C71.3318 104.309 71.3378 104.316 71.3414 104.325C71.345 104.333 71.3462 104.342 71.3448 104.351C71.3428 104.36 71.3385 104.368 71.3322 104.375C71.3258 104.382 71.3178 104.387 71.3089 104.389C71.1392 104.435 70.9649 104.461 70.7892 104.468ZM70.5051 104.059C70.4857 104.054 70.4656 104.054 70.4462 104.059C70.4334 104.059 70.418 104.077 70.4155 104.113C70.4094 104.144 70.4117 104.176 70.422 104.206C70.4323 104.236 70.4504 104.263 70.4744 104.284C70.6945 104.384 70.9446 104.396 71.1732 104.317C70.9693 104.189 70.7424 104.101 70.5051 104.059Z" fill="#EF233C"/>
<path d="M71.2969 104.4H71.2764C71.0741 104.287 70.6901 103.854 70.7362 103.632C70.7446 103.597 70.7638 103.567 70.7911 103.545C70.8184 103.523 70.8521 103.51 70.8873 103.509C70.923 103.504 70.9592 103.508 70.9937 103.518C71.0281 103.529 71.0599 103.546 71.0869 103.57C71.3097 103.757 71.3429 104.338 71.3429 104.351C71.3431 104.36 71.341 104.368 71.337 104.376C71.333 104.383 71.3271 104.39 71.3199 104.394C71.3128 104.398 71.3049 104.4 71.2969 104.4ZM70.9129 103.598H70.8924C70.8309 103.598 70.8258 103.632 70.8233 103.644C70.7951 103.775 71.0383 104.1 71.238 104.256C71.2302 104.032 71.1543 103.816 71.0204 103.637C70.9904 103.611 70.9522 103.598 70.9129 103.598Z" fill="#EF233C"/>
<path d="M58.9183 104.469C58.7505 104.484 58.5826 104.441 58.4421 104.348C58.4107 104.32 58.3868 104.285 58.3725 104.245C58.3582 104.205 58.354 104.162 58.3602 104.121C58.3617 104.095 58.3698 104.07 58.3837 104.048C58.3976 104.026 58.4168 104.008 58.4396 103.995C58.6828 103.859 59.4636 104.251 59.5557 104.31C59.5642 104.315 59.5709 104.322 59.5751 104.331C59.5792 104.339 59.5805 104.349 59.5788 104.359C59.5777 104.368 59.5733 104.378 59.5663 104.385C59.5593 104.392 59.5502 104.396 59.5404 104.397C59.3357 104.44 59.1274 104.464 58.9183 104.469ZM58.5701 104.059C58.5401 104.058 58.5101 104.064 58.4831 104.077C58.4742 104.082 58.4668 104.089 58.4614 104.097C58.456 104.106 58.4529 104.116 58.4524 104.126C58.4486 104.153 58.4515 104.182 58.4608 104.208C58.4702 104.234 58.4857 104.258 58.5061 104.277C58.6239 104.384 58.949 104.405 59.3868 104.331C59.1322 104.194 58.8559 104.102 58.5701 104.059Z" fill="#EF233C"/>
<path d="M59.5339 104.399H59.5134C59.2779 104.292 58.8171 103.867 58.858 103.631C58.858 103.58 58.9067 103.514 59.0347 103.501C59.0807 103.496 59.1272 103.501 59.1713 103.515C59.2154 103.529 59.256 103.552 59.2907 103.583C59.5467 103.788 59.5774 104.32 59.5774 104.351C59.5784 104.359 59.5771 104.367 59.5734 104.374C59.5698 104.382 59.564 104.388 59.5569 104.392C59.5504 104.397 59.5422 104.4 59.5339 104.399ZM59.0705 103.598H59.0423C58.9579 103.598 58.9527 103.639 58.9502 103.649C58.9246 103.782 59.2369 104.118 59.4775 104.266C59.459 104.041 59.3693 103.828 59.2215 103.657C59.1789 103.622 59.1259 103.601 59.0705 103.598Z" fill="#EF233C"/>
<path d="M79.4997 51.9858L81.3787 52.0754L80.3803 50.0274C80.3803 50.0274 78.7343 50.0018 78.4629 51.269L79.4997 51.9858Z" fill="#B55B52"/>
<path d="M82.9005 51.0848L81.9047 49.2749L80.3789 50.0275L81.3773 52.0755L82.9005 51.0848Z" fill="#B55B52"/>
</svg>
