<svg width="116" height="96" viewBox="0 0 116 96" fill="none" xmlns="http://www.w3.org/2000/svg">
<path d="M9.33688 88.4524H14.0078L14.0078 63.9359H9.33688L9.33688 88.4524Z" fill="#EBEBEB"/>
<path d="M11.7169 69.0488H13.1367V65.6523H11.7169V69.0488Z" fill="white"/>
<path d="M12.3857 69.0488C12.3966 69.0488 12.4043 68.2808 12.4043 67.3515C12.4043 66.4223 12.4043 65.6523 12.3857 65.6523C12.3672 65.6523 12.3672 66.4203 12.3672 67.3515C12.3672 68.2827 12.3718 69.0488 12.3857 69.0488Z" fill="#E0E0E0"/>
<path d="M11.7188 66.8331C11.7188 66.8447 12.0281 66.8562 12.4287 66.8562C12.8293 66.8562 13.1386 66.8447 13.1386 66.8331C12.9025 66.8085 12.6655 66.8001 12.4287 66.8082C12.1918 66.8001 11.9548 66.8084 11.7188 66.8331Z" fill="#E0E0E0"/>
<path d="M11.7109 68.0467C11.9491 68.0701 12.1882 68.0778 12.427 68.0697C12.6654 68.0778 12.9039 68.0701 13.1416 68.0467C12.9039 68.0232 12.6654 68.0155 12.427 68.0236C12.1882 68.0155 11.9491 68.0232 11.7109 68.0467Z" fill="#E0E0E0"/>
<path d="M11.7169 73.4841H13.1367V70.0877H11.7169V73.4841Z" fill="white"/>
<path d="M12.3857 73.4841C12.3966 73.4841 12.4043 72.7161 12.4043 71.7868C12.4043 70.8576 12.4043 70.0876 12.3857 70.0876C12.3672 70.0876 12.3672 70.8556 12.3672 71.7868C12.3672 72.718 12.3718 73.4841 12.3857 73.4841Z" fill="#E0E0E0"/>
<path d="M11.7188 71.2684C11.9549 71.2919 12.1919 71.2996 12.4287 71.2915C12.6655 71.2996 12.9025 71.2919 13.1386 71.2684C12.9025 71.2438 12.6655 71.2354 12.4287 71.2435C12.1918 71.2354 11.9548 71.2437 11.7188 71.2684Z" fill="#E0E0E0"/>
<path d="M11.7109 72.4817C11.9491 72.5065 12.1882 72.5148 12.427 72.5067C12.6654 72.5148 12.904 72.5064 13.1416 72.4817C12.9039 72.4583 12.6654 72.4506 12.427 72.4587C12.1882 72.4506 11.9491 72.4583 11.7109 72.4817Z" fill="#E0E0E0"/>
<path d="M11.7169 77.9192H13.1367V74.5227H11.7169V77.9192Z" fill="white"/>
<path d="M12.3894 77.9192C12.4003 77.9192 12.408 77.1512 12.408 76.2219C12.408 75.2926 12.408 74.5227 12.3894 74.5227C12.3709 74.5227 12.3755 75.283 12.3755 76.2238C12.3755 77.1646 12.3755 77.9192 12.3894 77.9192Z" fill="#E0E0E0"/>
<path d="M11.7188 75.7037C11.9549 75.7271 12.1919 75.7348 12.4287 75.7267C12.6655 75.7348 12.9025 75.7271 13.1386 75.7037C12.9025 75.6802 12.6655 75.6726 12.4287 75.6806C12.1919 75.6725 11.9549 75.6802 11.7188 75.7037Z" fill="#E0E0E0"/>
<path d="M11.7109 76.9171C11.9491 76.9418 12.1882 76.9502 12.427 76.942C12.6654 76.9501 12.904 76.9418 13.1416 76.9171C13.1416 76.9056 12.8214 76.894 12.427 76.894C12.0326 76.894 11.7109 76.9056 11.7109 76.9171Z" fill="#E0E0E0"/>
<path d="M11.7169 82.3545H13.1367V78.958H11.7169V82.3545Z" fill="white"/>
<path d="M12.3894 82.3545C12.4003 82.3545 12.408 81.5865 12.408 80.6572C12.408 79.728 12.408 78.96 12.3894 78.96C12.3709 78.96 12.3755 79.7184 12.3755 80.6572C12.3755 81.5961 12.3755 82.3545 12.3894 82.3545Z" fill="#E0E0E0"/>
<path d="M11.7188 80.1387C11.9549 80.1622 12.1919 80.1699 12.4287 80.1618C12.6655 80.1698 12.9025 80.1621 13.1386 80.1387C12.9025 80.1153 12.6655 80.1076 12.4287 80.1157C12.1919 80.1076 11.9549 80.1153 11.7188 80.1387Z" fill="#E0E0E0"/>
<path d="M11.7109 81.3521C11.9491 81.3769 12.1882 81.3852 12.427 81.3771C12.6654 81.3852 12.904 81.3769 13.1416 81.3521C13.1416 81.3406 12.8214 81.3291 12.427 81.3291C12.0326 81.3291 11.7109 81.3406 11.7109 81.3521Z" fill="#E0E0E0"/>
<path d="M7.35124 88.4524H10.7539L10.7539 63.9359H7.35124L7.35124 88.4524Z" fill="#E0E0E0"/>
<path d="M8.27547 69.0488H9.69531V65.6523H8.27547V69.0488Z" fill="white"/>
<path d="M8.94825 69.0488C8.95907 69.0488 8.96681 68.2808 8.96681 67.3515C8.96681 66.4223 8.96681 65.6523 8.94825 65.6523C8.92969 65.6523 8.92969 66.4203 8.92969 67.3515C8.92969 68.2827 8.93742 69.0488 8.94825 69.0488Z" fill="#E0E0E0"/>
<path d="M8.27734 66.8331C8.27734 66.8447 8.58668 66.8562 8.98726 66.8562C9.38785 66.8562 9.69718 66.8447 9.69718 66.8331C9.4611 66.8085 9.22409 66.8001 8.98726 66.8082C8.75043 66.8001 8.51342 66.8084 8.27734 66.8331Z" fill="#E0E0E0"/>
<path d="M8.26953 68.0467C8.50773 68.0701 8.74678 68.0778 8.98564 68.0697C9.22398 68.0778 9.46251 68.0701 9.7002 68.0467C9.46251 68.0232 9.22398 68.0155 8.98564 68.0236C8.74678 68.0155 8.50773 68.0232 8.26953 68.0467Z" fill="#E0E0E0"/>
<path d="M8.27547 73.5205H9.69531V70.124H8.27547V73.5205Z" fill="white"/>
<path d="M8.94825 73.5205C8.95907 73.5205 8.96681 72.7525 8.96681 71.8232C8.96681 70.8939 8.96681 70.124 8.94825 70.124C8.92969 70.124 8.92969 70.892 8.92969 71.8232C8.92969 72.7544 8.93742 73.5205 8.94825 73.5205Z" fill="#E0E0E0"/>
<path d="M8.27734 71.3048C8.27734 71.3163 8.58668 71.3279 8.98726 71.3279C9.38785 71.3279 9.69718 71.3163 9.69718 71.3048C9.4611 71.2801 9.22409 71.2718 8.98726 71.2799C8.75043 71.2717 8.51342 71.2801 8.27734 71.3048Z" fill="#E0E0E0"/>
<path d="M8.26953 72.5184C8.50773 72.5418 8.74678 72.5495 8.98564 72.5414C9.22398 72.5495 9.46251 72.5418 9.7002 72.5184C9.46251 72.4949 9.22398 72.4872 8.98564 72.4953C8.74678 72.4872 8.50773 72.4949 8.26953 72.5184Z" fill="#E0E0E0"/>
<path d="M8.27547 77.9922H9.69531V74.5957H8.27547V77.9922Z" fill="white"/>
<path d="M8.94825 77.9922C8.95907 77.9922 8.96681 77.2242 8.96681 76.2949C8.96681 75.3656 8.96681 74.5957 8.94825 74.5957C8.92969 74.5957 8.92969 75.3637 8.92969 76.2949C8.92969 77.2261 8.93742 77.9922 8.94825 77.9922Z" fill="#E0E0E0"/>
<path d="M8.27734 75.7764C8.51348 75.7999 8.75046 75.8076 8.98726 75.7995C9.22407 75.8075 9.46105 75.7998 9.69718 75.7764C9.46105 75.753 9.22407 75.7453 8.98726 75.7534C8.75046 75.7452 8.51348 75.7529 8.27734 75.7764Z" fill="#E0E0E0"/>
<path d="M8.26953 76.992C8.50768 77.0167 8.74675 77.0251 8.98564 77.0169C9.22401 77.025 9.46257 77.0167 9.7002 76.992C9.46251 76.9685 9.22398 76.9609 8.98564 76.9689C8.74678 76.9608 8.50773 76.9685 8.26953 76.992Z" fill="#E0E0E0"/>
<path d="M8.27547 82.4639H9.69531V79.0674H8.27547V82.4639Z" fill="white"/>
<path d="M8.94825 82.4639C8.95907 82.4639 8.96681 81.6959 8.96681 80.7666C8.96681 79.8373 8.96681 79.0674 8.94825 79.0674C8.92969 79.0674 8.92969 79.8354 8.92969 80.7666C8.92969 81.6978 8.93742 82.4639 8.94825 82.4639Z" fill="#E0E0E0"/>
<path d="M8.27734 80.2559C8.51348 80.2794 8.75046 80.2871 8.98726 80.2789C9.22407 80.287 9.46105 80.2793 9.69718 80.2559C9.46105 80.2325 9.22407 80.2248 8.98726 80.2329C8.75046 80.2247 8.51348 80.2324 8.27734 80.2559Z" fill="#E0E0E0"/>
<path d="M8.26953 81.4615C8.50768 81.4863 8.74675 81.4946 8.98564 81.4865C9.22401 81.4946 9.46257 81.4862 9.7002 81.4615C9.7002 81.45 9.38004 81.4385 8.98564 81.4385C8.59124 81.4385 8.26953 81.45 8.26953 81.4615Z" fill="#E0E0E0"/>
<path d="M11.7169 86.7896H13.1367V83.3931H11.7169V86.7896Z" fill="white"/>
<path d="M12.3857 86.784C12.3966 86.784 12.4043 86.016 12.4043 85.0867C12.4043 84.1574 12.4043 83.3894 12.3857 83.3894C12.3672 83.3894 12.3672 84.1574 12.3672 85.0867C12.3672 86.016 12.3718 86.784 12.3857 86.784Z" fill="#E0E0E0"/>
<path d="M11.7188 84.574C11.9549 84.5975 12.1919 84.6052 12.4287 84.5971C12.6655 84.6051 12.9025 84.5974 13.1386 84.574C12.9025 84.5506 12.6655 84.5429 12.4287 84.551C12.1919 84.5429 11.9549 84.5505 11.7188 84.574Z" fill="#E0E0E0"/>
<path d="M11.7109 85.7894C11.7109 85.801 12.0311 85.8125 12.427 85.8125C12.823 85.8125 13.1416 85.801 13.1416 85.7894C12.904 85.7647 12.6654 85.7564 12.427 85.7645C12.1882 85.7564 11.9491 85.7647 11.7109 85.7894Z" fill="#E0E0E0"/>
<path d="M8.27547 86.9375H9.69531V83.541H8.27547V86.9375Z" fill="white"/>
<path d="M8.94825 86.9355C8.95907 86.9355 8.96681 86.1675 8.96681 85.2383C8.96681 84.309 8.96681 83.5391 8.94825 83.5391C8.92969 83.5391 8.92969 84.3071 8.92969 85.2383C8.92969 86.1695 8.93742 86.9355 8.94825 86.9355Z" fill="#E0E0E0"/>
<path d="M8.27734 84.7198C8.51348 84.7432 8.75046 84.7509 8.98726 84.7428C9.22407 84.7509 9.46105 84.7432 9.69718 84.7198C9.46105 84.6964 9.22407 84.6887 8.98726 84.6967C8.75046 84.6886 8.51348 84.6963 8.27734 84.7198Z" fill="#E0E0E0"/>
<path d="M8.26953 85.9334C8.50768 85.9582 8.74675 85.9665 8.98564 85.9584C9.22401 85.9665 9.46257 85.9582 9.7002 85.9334C9.7002 85.9219 9.38004 85.9104 8.98564 85.9104C8.59124 85.9104 8.26953 85.9219 8.26953 85.9334Z" fill="#E0E0E0"/>
<path d="M59.157 71.1877H64.6523V42.3417H59.157V71.1877Z" fill="#EBEBEB"/>
<path d="M61.9585 48.3589H63.6289V44.3634H61.9585V48.3589Z" fill="white"/>
<path d="M62.7459 48.3588C62.7582 48.3588 62.7675 47.4641 62.7675 46.362C62.7675 45.2599 62.7582 44.3633 62.7459 44.3633C62.7335 44.3633 62.7227 45.258 62.7227 46.362C62.7227 47.466 62.7335 48.3588 62.7459 48.3588Z" fill="#E0E0E0"/>
<path d="M61.957 45.7515C62.5134 45.7899 63.0711 45.7899 63.6274 45.7515C63.071 45.7156 62.5135 45.7156 61.957 45.7515Z" fill="#E0E0E0"/>
<path d="M61.9492 47.1799C62.5102 47.2183 63.0725 47.2183 63.6335 47.1799C63.0725 47.1441 62.5103 47.1441 61.9492 47.1799Z" fill="#E0E0E0"/>
<path d="M61.9585 53.5774H63.6289V49.5819H61.9585V53.5774Z" fill="white"/>
<path d="M62.7459 53.5776C62.7582 53.5776 62.7675 52.6828 62.7675 51.5808C62.7675 50.4787 62.7582 49.582 62.7459 49.582C62.7335 49.582 62.7227 50.4768 62.7227 51.5808C62.7227 52.6848 62.7335 53.5776 62.7459 53.5776Z" fill="#E0E0E0"/>
<path d="M61.957 50.9702C62.5134 51.0086 63.0711 51.0086 63.6274 50.9702C63.071 50.9344 62.5135 50.9344 61.957 50.9702Z" fill="#E0E0E0"/>
<path d="M61.9492 52.3987C62.5102 52.4371 63.0725 52.4371 63.6335 52.3987C63.0725 52.3629 62.5103 52.3629 61.9492 52.3987Z" fill="#E0E0E0"/>
<path d="M61.9585 58.7961H63.6289V54.8006H61.9585V58.7961Z" fill="white"/>
<path d="M62.7459 58.7961C62.7582 58.7961 62.7675 57.9013 62.7675 56.7993C62.7675 55.6972 62.7582 54.8005 62.7459 54.8005C62.7335 54.8005 62.7227 55.6953 62.7227 56.7993C62.7227 57.9033 62.7335 58.7961 62.7459 58.7961Z" fill="#E0E0E0"/>
<path d="M61.957 56.1887C62.5135 56.2246 63.071 56.2246 63.6274 56.1887C63.071 56.1529 62.5135 56.1529 61.957 56.1887Z" fill="#E0E0E0"/>
<path d="M61.9492 57.6172C62.5102 57.6556 63.0725 57.6556 63.6335 57.6172C63.0725 57.5814 62.5103 57.5814 61.9492 57.6172Z" fill="#E0E0E0"/>
<path d="M61.9585 64.0146H63.6289V60.0191H61.9585V64.0146Z" fill="white"/>
<path d="M62.7459 64.0146C62.7582 64.0146 62.7675 63.1198 62.7675 62.0158C62.7675 60.9118 62.7582 60.019 62.7459 60.019C62.7335 60.019 62.7227 60.9138 62.7227 62.0158C62.7227 63.1179 62.7335 64.0146 62.7459 64.0146Z" fill="#E0E0E0"/>
<path d="M61.957 61.4073C62.5135 61.4431 63.071 61.4431 63.6274 61.4073C63.071 61.3714 62.5135 61.3714 61.957 61.4073Z" fill="#E0E0E0"/>
<path d="M61.9492 62.8357C62.5102 62.8741 63.0725 62.8741 63.6335 62.8357C63.0725 62.7999 62.5103 62.7999 61.9492 62.8357Z" fill="#E0E0E0"/>
<path d="M56.8214 71.1877H60.8242V42.3417H56.8214V71.1877Z" fill="#E0E0E0"/>
<path d="M57.9116 48.3589H59.582V44.3634H57.9116V48.3589Z" fill="white"/>
<path d="M58.6974 48.3588C58.7098 48.3588 58.7191 47.4641 58.7191 46.362C58.7191 45.2599 58.7098 44.3633 58.6974 44.3633C58.6851 44.3633 58.6758 45.258 58.6758 46.362C58.6758 47.466 58.6851 48.3588 58.6974 48.3588Z" fill="#E0E0E0"/>
<path d="M57.9102 45.7515C58.4665 45.7899 59.0242 45.7899 59.5806 45.7515C59.0241 45.7156 58.4666 45.7156 57.9102 45.7515Z" fill="#E0E0E0"/>
<path d="M57.9023 47.18C58.4628 47.2184 59.0246 47.2184 59.5851 47.18C59.0246 47.1441 58.4629 47.1441 57.9023 47.18Z" fill="#E0E0E0"/>
<path d="M57.9116 53.6196H59.582V49.6241H57.9116V53.6196Z" fill="white"/>
<path d="M58.6974 53.6198C58.7098 53.6198 58.7191 52.7251 58.7191 51.623C58.7191 50.5209 58.7098 49.6262 58.6974 49.6262C58.6851 49.6262 58.6758 50.519 58.6758 51.623C58.6758 52.727 58.6851 53.6198 58.6974 53.6198Z" fill="#E0E0E0"/>
<path d="M57.9102 51.0125C58.4665 51.0509 59.0242 51.0509 59.5806 51.0125C59.0241 50.9766 58.4666 50.9766 57.9102 51.0125Z" fill="#E0E0E0"/>
<path d="M57.9023 52.4429C58.4629 52.4787 59.0246 52.4787 59.5851 52.4429C59.0246 52.4045 58.4628 52.4045 57.9023 52.4429Z" fill="#E0E0E0"/>
<path d="M57.9116 58.8806H59.582V54.8851H57.9116V58.8806Z" fill="white"/>
<path d="M58.6974 58.8806C58.7098 58.8806 58.7191 57.9878 58.7191 56.8838C58.7191 55.7798 58.7098 54.887 58.6974 54.887C58.6851 54.887 58.6758 55.7798 58.6758 56.8838C58.6758 57.9878 58.6851 58.8806 58.6974 58.8806Z" fill="#E0E0E0"/>
<path d="M57.9102 56.2751C58.4666 56.311 59.0241 56.311 59.5806 56.2751C59.0242 56.2367 58.4665 56.2367 57.9102 56.2751Z" fill="#E0E0E0"/>
<path d="M57.9023 57.7036C58.4629 57.7394 59.0246 57.7394 59.5851 57.7036C59.0246 57.6652 58.4628 57.6652 57.9023 57.7036Z" fill="#E0E0E0"/>
<path d="M57.9116 64.1433H59.582V60.1478H57.9116V64.1433Z" fill="white"/>
<path d="M58.6974 64.1432C58.7098 64.1432 58.7191 63.2485 58.7191 62.1445C58.7191 61.0405 58.7098 60.1477 58.6974 60.1477C58.6851 60.1477 58.6758 61.0424 58.6758 62.1445C58.6758 63.2466 58.6851 64.1432 58.6974 64.1432Z" fill="#E0E0E0"/>
<path d="M57.9102 61.5359C58.4666 61.5717 59.0241 61.5717 59.5806 61.5359C59.0242 61.4975 58.4665 61.4975 57.9102 61.5359Z" fill="#E0E0E0"/>
<path d="M57.9023 62.9644C58.4629 63.0002 59.0246 63.0002 59.5851 62.9644C59.0246 62.9285 58.4629 62.9285 57.9023 62.9644Z" fill="#E0E0E0"/>
<path d="M61.9585 69.2332H63.6289V65.2376H61.9585V69.2332Z" fill="white"/>
<path d="M62.7459 69.2331C62.7582 69.2331 62.7675 68.3383 62.7675 67.2343C62.7675 66.1303 62.7582 65.2375 62.7459 65.2375C62.7335 65.2375 62.7227 66.1323 62.7227 67.2343C62.7227 68.3364 62.7335 69.2331 62.7459 69.2331Z" fill="#E0E0E0"/>
<path d="M61.957 66.6238C62.5135 66.6596 63.071 66.6596 63.6274 66.6238C63.0711 66.5854 62.5134 66.5854 61.957 66.6238Z" fill="#E0E0E0"/>
<path d="M61.9492 68.0542C62.5103 68.09 63.0725 68.09 63.6335 68.0542C63.0725 68.0184 62.5103 68.0184 61.9492 68.0542Z" fill="#E0E0E0"/>
<path d="M57.9116 69.4041H59.582V65.4085H57.9116V69.4041Z" fill="white"/>
<path d="M58.6974 69.404C58.7098 69.404 58.7191 68.5092 58.7191 67.4072C58.7191 66.3051 58.7098 65.4084 58.6974 65.4084C58.6851 65.4084 58.6758 66.3032 58.6758 67.4072C58.6758 68.5112 58.6851 69.404 58.6974 69.404Z" fill="#E0E0E0"/>
<path d="M57.9102 66.7967C58.4665 66.8351 59.0242 66.8351 59.5806 66.7967C59.0241 66.7608 58.4666 66.7608 57.9102 66.7967Z" fill="#E0E0E0"/>
<path d="M57.9023 68.2251C58.4628 68.2635 59.0246 68.2635 59.5851 68.2251C59.0246 68.1893 58.4629 68.1893 57.9023 68.2251Z" fill="#E0E0E0"/>
<path d="M59.243 88.4504H64.7383V59.6044H59.243V88.4504Z" fill="#EBEBEB"/>
<path d="M62.0444 65.6235H63.7148V61.628H62.0444V65.6235Z" fill="white"/>
<path d="M62.8302 65.6234C62.8426 65.6234 62.8534 64.7287 62.8534 63.6247C62.8534 62.5207 62.8426 61.6279 62.8302 61.6279C62.8179 61.6279 62.8086 62.5226 62.8086 63.6247C62.8086 64.7268 62.8179 65.6234 62.8302 65.6234Z" fill="#E0E0E0"/>
<path d="M62.043 63.0161C62.5994 63.0519 63.1569 63.0519 63.7134 63.0161C63.157 62.9777 62.5993 62.9777 62.043 63.0161Z" fill="#E0E0E0"/>
<path d="M62.0352 64.4446C62.5962 64.483 63.1585 64.483 63.7195 64.4446C63.1584 64.4088 62.5962 64.4088 62.0352 64.4446Z" fill="#E0E0E0"/>
<path d="M62.0444 70.842H63.7148V66.8465H62.0444V70.842Z" fill="white"/>
<path d="M62.8302 70.8478C62.8426 70.8478 62.8534 69.9531 62.8534 68.8491C62.8534 67.7451 62.8426 66.8523 62.8302 66.8523C62.8179 66.8523 62.8086 67.747 62.8086 68.8491C62.8086 69.9512 62.8179 70.8478 62.8302 70.8478Z" fill="#E0E0E0"/>
<path d="M62.043 68.2349C62.5994 68.2707 63.1569 68.2707 63.7134 68.2349C63.157 68.1965 62.5993 68.1965 62.043 68.2349Z" fill="#E0E0E0"/>
<path d="M62.0352 69.6633C62.5962 69.6992 63.1584 69.6992 63.7195 69.6633C63.1584 69.6275 62.5962 69.6275 62.0352 69.6633Z" fill="#E0E0E0"/>
<path d="M62.0444 76.0608H63.7148V72.0653H62.0444V76.0608Z" fill="white"/>
<path d="M62.8302 76.0607C62.8426 76.0607 62.8534 75.166 62.8534 74.062C62.8534 72.958 62.8426 72.0652 62.8302 72.0652C62.8179 72.0652 62.8086 72.9599 62.8086 74.062C62.8086 75.1641 62.8179 76.0607 62.8302 76.0607Z" fill="#E0E0E0"/>
<path d="M62.043 73.4534C62.5994 73.4892 63.1569 73.4892 63.7134 73.4534C63.157 73.415 62.5993 73.415 62.043 73.4534Z" fill="#E0E0E0"/>
<path d="M62.0352 74.8799C62.5973 74.9158 63.1605 74.9158 63.7226 74.8799C63.1616 74.8415 62.5993 74.8415 62.0382 74.8799H62.0352Z" fill="#E0E0E0"/>
<path d="M62.0444 81.2773H63.7148V77.2818H62.0444V81.2773Z" fill="white"/>
<path d="M62.8302 81.2792C62.8426 81.2792 62.8534 80.3845 62.8534 79.2805C62.8534 78.1765 62.8426 77.2837 62.8302 77.2837C62.8179 77.2837 62.8086 78.1784 62.8086 79.2805C62.8086 80.3826 62.8179 81.2792 62.8302 81.2792Z" fill="#E0E0E0"/>
<path d="M62.043 78.6719C62.5994 78.7077 63.1569 78.7077 63.7134 78.6719C63.157 78.6335 62.5993 78.6335 62.043 78.6719Z" fill="#E0E0E0"/>
<path d="M62.0352 80.1003C62.5962 80.1362 63.1584 80.1362 63.7195 80.1003C63.1585 80.0619 62.5962 80.0619 62.0352 80.1003Z" fill="#E0E0E0"/>
<path d="M56.9058 88.4504H60.9102V59.6044H56.9058V88.4504Z" fill="#E0E0E0"/>
<path d="M57.9976 65.6235H59.668V61.628H57.9976V65.6235Z" fill="white"/>
<path d="M58.7849 65.6234C58.7973 65.6234 58.8066 64.7287 58.8066 63.6247C58.8066 62.5207 58.7973 61.6279 58.7849 61.6279C58.7725 61.6279 58.7617 62.5226 58.7617 63.6247C58.7617 64.7268 58.7725 65.6234 58.7849 65.6234Z" fill="#E0E0E0"/>
<path d="M58 63.0161C58.5564 63.0519 59.114 63.0519 59.6704 63.0161C59.114 62.9777 58.5564 62.9777 58 63.0161Z" fill="#E0E0E0"/>
<path d="M57.9883 64.4446C58.5488 64.483 59.1106 64.483 59.6711 64.4446C59.1105 64.4088 58.5488 64.4088 57.9883 64.4446Z" fill="#E0E0E0"/>
<path d="M57.9976 70.8843H59.668V66.8888H57.9976V70.8843Z" fill="white"/>
<path d="M58.7849 70.8844C58.7973 70.8844 58.8066 69.9897 58.8066 68.8876C58.8066 67.7856 58.7973 66.8889 58.7849 66.8889C58.7725 66.8889 58.7617 67.7836 58.7617 68.8876C58.7617 69.9916 58.7725 70.8844 58.7849 70.8844Z" fill="#E0E0E0"/>
<path d="M58 68.2769C58.5564 68.3153 59.114 68.3153 59.6704 68.2769C59.114 68.241 58.5564 68.241 58 68.2769Z" fill="#E0E0E0"/>
<path d="M57.9883 69.7056C58.5488 69.744 59.1106 69.744 59.6711 69.7056C59.1105 69.6698 58.5488 69.6698 57.9883 69.7056Z" fill="#E0E0E0"/>
<path d="M57.9976 76.147H59.668V72.1515H57.9976V76.147Z" fill="white"/>
<path d="M58.7849 76.1452C58.7973 76.1452 58.8066 75.2505 58.8066 74.1484C58.8066 73.0463 58.7973 72.1497 58.7849 72.1497C58.7725 72.1497 58.7617 73.0444 58.7617 74.1484C58.7617 75.2524 58.7725 76.1452 58.7849 76.1452Z" fill="#E0E0E0"/>
<path d="M58 73.5359C58.5564 73.5743 59.114 73.5743 59.6704 73.5359C59.114 73.5001 58.5564 73.5001 58 73.5359Z" fill="#E0E0E0"/>
<path d="M57.9883 74.9683C57.9883 74.9817 58.3641 74.9951 58.8297 74.9951C59.2952 74.9951 59.6711 74.9817 59.6711 74.9683C59.1106 74.9299 58.5488 74.9299 57.9883 74.9683Z" fill="#E0E0E0"/>
<path d="M57.9976 81.406H59.668V77.4105H57.9976V81.406Z" fill="white"/>
<path d="M58.7849 81.4079C58.7973 81.4079 58.8066 80.5151 58.8066 79.4111C58.8066 78.3071 58.7973 77.4143 58.7849 77.4143C58.7725 77.4143 58.7617 78.3071 58.7617 79.4111C58.7617 80.5151 58.7725 81.4079 58.7849 81.4079Z" fill="#E0E0E0"/>
<path d="M58 78.8005C58.5564 78.8364 59.114 78.8364 59.6704 78.8005C59.114 78.7621 58.5564 78.7621 58 78.8005Z" fill="#E0E0E0"/>
<path d="M57.9883 80.229C58.5488 80.2648 59.1105 80.2648 59.6711 80.229C59.1106 80.1906 58.5488 80.1906 57.9883 80.229Z" fill="#E0E0E0"/>
<path d="M62.0444 86.4958H63.7148V82.5003H62.0444V86.4958Z" fill="white"/>
<path d="M62.8302 86.4958C62.8426 86.4958 62.8534 85.603 62.8534 84.499C62.8534 83.395 62.8426 82.5022 62.8302 82.5022C62.8179 82.5022 62.8086 83.395 62.8086 84.499C62.8086 85.603 62.8179 86.4958 62.8302 86.4958Z" fill="#E0E0E0"/>
<path d="M62.043 83.8904C62.5994 83.9262 63.1569 83.9262 63.7134 83.8904C63.157 83.852 62.5993 83.852 62.043 83.8904Z" fill="#E0E0E0"/>
<path d="M62.0352 85.3188C62.5962 85.3547 63.1584 85.3547 63.7195 85.3188C63.1585 85.2804 62.5962 85.2804 62.0352 85.3188Z" fill="#E0E0E0"/>
<path d="M57.9976 86.6687H59.668V82.6732H57.9976V86.6687Z" fill="white"/>
<path d="M58.7849 86.6686C58.7973 86.6686 58.8066 85.7739 58.8066 84.6699C58.8066 83.5659 58.7973 82.6731 58.7849 82.6731C58.7725 82.6731 58.7617 83.5678 58.7617 84.6699C58.7617 85.772 58.7725 86.6686 58.7849 86.6686Z" fill="#E0E0E0"/>
<path d="M58 84.0613C58.5564 84.0971 59.114 84.0971 59.6704 84.0613C59.114 84.0229 58.5564 84.0229 58 84.0613Z" fill="#E0E0E0"/>
<path d="M57.9883 85.4898C58.5488 85.5256 59.1105 85.5256 59.6711 85.4898C59.1105 85.4539 58.5488 85.4539 57.9883 85.4898Z" fill="#E0E0E0"/>
<path d="M16.102 88.4102H24.3086L24.3086 42.7852H16.102L16.102 88.4102Z" fill="#EBEBEB"/>
<path d="M20.2865 51.7727H22.7812V45.8053H20.2865V51.7727Z" fill="white"/>
<path d="M21.4622 51.7728C21.4807 51.7728 21.4962 50.4288 21.4962 48.7891C21.4962 47.1494 21.4807 45.8054 21.4622 45.8054C21.4436 45.8054 21.4297 47.1494 21.4297 48.7891C21.4297 50.4288 21.4436 51.7728 21.4622 51.7728Z" fill="#E0E0E0"/>
<path d="M20.2852 47.879C20.7003 47.9197 21.117 47.9332 21.5333 47.9193C21.9491 47.9331 22.3653 47.9197 22.7799 47.879C22.3653 47.837 21.9492 47.8229 21.5333 47.8367C21.117 47.8228 20.7003 47.8369 20.2852 47.879Z" fill="#E0E0E0"/>
<path d="M20.2734 50.0122C20.6917 50.0542 21.1114 50.0683 21.5309 50.0544C21.9503 50.0683 22.3701 50.0542 22.7883 50.0122C22.37 49.9714 21.9503 49.958 21.5309 49.9718C21.1114 49.958 20.6917 49.9714 20.2734 50.0122Z" fill="#E0E0E0"/>
<path d="M20.2865 59.5679H22.7812V53.6005H20.2865V59.5679Z" fill="white"/>
<path d="M21.4622 59.566C21.4807 59.566 21.4962 58.222 21.4962 56.5823C21.4962 54.9426 21.4807 53.5986 21.4622 53.5986C21.4436 53.5986 21.4297 54.9426 21.4297 56.5823C21.4297 58.222 21.4436 59.566 21.4622 59.566Z" fill="#E0E0E0"/>
<path d="M20.2852 55.6799C20.7003 55.7219 21.117 55.736 21.5333 55.7221C21.9492 55.736 22.3653 55.7219 22.7799 55.6799C22.3653 55.6392 21.9491 55.6257 21.5333 55.6396C21.117 55.6257 20.7003 55.6391 20.2852 55.6799Z" fill="#E0E0E0"/>
<path d="M20.2734 57.8072C20.6918 57.8467 21.1114 57.8602 21.5309 57.8475C21.9503 57.8602 22.37 57.8467 22.7883 57.8072C22.3701 57.7652 21.9503 57.7511 21.5309 57.7649C21.1114 57.7511 20.6917 57.7652 20.2734 57.8072Z" fill="#E0E0E0"/>
<path d="M20.2865 67.3611H22.7812V61.3937H20.2865V67.3611Z" fill="white"/>
<path d="M21.4622 67.3612C21.4807 67.3612 21.4962 66.0172 21.4962 64.3775C21.4962 62.7378 21.4807 61.3938 21.4622 61.3938C21.4436 61.3938 21.4297 62.7282 21.4297 64.3775C21.4297 66.0268 21.4436 67.3612 21.4622 67.3612Z" fill="#E0E0E0"/>
<path d="M20.2852 63.4673C20.7004 63.5069 21.117 63.5204 21.5333 63.5077C21.9491 63.5204 22.3652 63.5069 22.7799 63.4673C22.3653 63.4253 21.9492 63.4112 21.5333 63.4251C21.117 63.4112 20.7003 63.4253 20.2852 63.4673Z" fill="#E0E0E0"/>
<path d="M20.2734 65.6006C20.6917 65.6426 21.1114 65.6567 21.5309 65.6429C21.9503 65.6567 22.3701 65.6426 22.7883 65.6006C22.3701 65.5586 21.9503 65.5445 21.5309 65.5584C21.1114 65.5445 20.6917 65.5586 20.2734 65.6006Z" fill="#E0E0E0"/>
<path d="M20.2865 75.1545H22.7812V69.1872H20.2865V75.1545Z" fill="white"/>
<path d="M21.4622 75.1544C21.4807 75.1544 21.4962 73.8104 21.4962 72.1707C21.4962 70.531 21.4807 69.187 21.4622 69.187C21.4436 69.187 21.4297 70.531 21.4297 72.1707C21.4297 73.8104 21.4436 75.1544 21.4622 75.1544Z" fill="#E0E0E0"/>
<path d="M20.2852 71.2608C20.7003 71.3028 21.117 71.3169 21.5333 71.303C21.9492 71.3169 22.3653 71.3028 22.7799 71.2608C22.3653 71.2188 21.9492 71.2047 21.5333 71.2186C21.117 71.2047 20.7003 71.2188 20.2852 71.2608Z" fill="#E0E0E0"/>
<path d="M20.2734 73.3938C20.6917 73.4358 21.1114 73.4499 21.5309 73.4361C21.9503 73.4499 22.3701 73.4358 22.7883 73.3938C22.37 73.3543 21.9503 73.3408 21.5309 73.3535C21.1114 73.3408 20.6918 73.3543 20.2734 73.3938Z" fill="#E0E0E0"/>
<path d="M12.6143 88.4102H18.5938L18.5937 42.7852H12.6143L12.6143 88.4102Z" fill="#E0E0E0"/>
<path d="M14.2396 51.7727H16.7344V45.8053H14.2396V51.7727Z" fill="white"/>
<path d="M15.4192 51.7728C15.4378 51.7728 15.4532 50.4288 15.4532 48.7891C15.4532 47.1494 15.4378 45.8054 15.4192 45.8054C15.4006 45.8054 15.3867 47.1494 15.3867 48.7891C15.3867 50.4288 15.4006 51.7728 15.4192 51.7728Z" fill="#E0E0E0"/>
<path d="M14.2422 47.879C14.6569 47.9197 15.073 47.9331 15.4888 47.9193C15.9051 47.9332 16.3218 47.9197 16.737 47.879C16.3218 47.8369 15.9052 47.8228 15.4888 47.8367C15.073 47.8229 14.6568 47.837 14.2422 47.879Z" fill="#E0E0E0"/>
<path d="M14.2305 50.0122C14.6487 50.0542 15.0685 50.0683 15.4879 50.0544C15.9074 50.0683 16.3271 50.0542 16.7453 50.0122C16.3271 49.9714 15.9073 49.958 15.4879 49.9718C15.0685 49.958 14.6488 49.9714 14.2305 50.0122Z" fill="#E0E0E0"/>
<path d="M14.2396 59.6294H16.7344V53.662H14.2396V59.6294Z" fill="white"/>
<path d="M15.4192 59.6312C15.4378 59.6312 15.4532 58.2872 15.4532 56.6475C15.4532 55.0078 15.4378 53.6638 15.4192 53.6638C15.4006 53.6638 15.3867 54.9982 15.3867 56.6475C15.3867 58.2968 15.4006 59.6312 15.4192 59.6312Z" fill="#E0E0E0"/>
<path d="M14.2422 55.7356C14.6568 55.7776 15.073 55.7917 15.4888 55.7779C15.9052 55.7918 16.3218 55.7777 16.737 55.7356C16.3217 55.696 15.9051 55.6826 15.4888 55.6953C15.073 55.6826 14.6569 55.6961 14.2422 55.7356Z" fill="#E0E0E0"/>
<path d="M14.2305 57.8706C14.6488 57.9114 15.0685 57.9248 15.4879 57.911C15.9073 57.9248 16.3271 57.9114 16.7453 57.8706C16.3271 57.8286 15.9074 57.8145 15.4879 57.8284C15.0685 57.8145 14.6487 57.8286 14.2305 57.8706Z" fill="#E0E0E0"/>
<path d="M14.2396 67.4897H16.7344V61.5224H14.2396V67.4897Z" fill="white"/>
<path d="M15.4192 67.4879C15.4378 67.4879 15.4532 66.1535 15.4532 64.5042C15.4532 62.8549 15.4378 61.5205 15.4192 61.5205C15.4006 61.5205 15.3867 62.8645 15.3867 64.5042C15.3867 66.1439 15.4006 67.4879 15.4192 67.4879Z" fill="#E0E0E0"/>
<path d="M14.2422 63.5942C14.6568 63.6362 15.073 63.6503 15.4888 63.6364C15.9052 63.6503 16.3218 63.6362 16.737 63.5942C16.3218 63.5534 15.9051 63.54 15.4888 63.5539C15.073 63.54 14.6569 63.5535 14.2422 63.5942Z" fill="#E0E0E0"/>
<path d="M14.2305 65.729C14.6488 65.7698 15.0685 65.7832 15.4879 65.7694C15.9073 65.7832 16.3271 65.7698 16.7453 65.729C16.3271 65.687 15.9074 65.6729 15.4879 65.6868C15.0685 65.6729 14.6487 65.687 14.2305 65.729Z" fill="#E0E0E0"/>
<path d="M14.2396 75.3464H16.7344V69.3791H14.2396V75.3464Z" fill="white"/>
<path d="M15.4192 75.3465C15.4378 75.3465 15.4532 74.0025 15.4532 72.3628C15.4532 70.7232 15.4378 69.3792 15.4192 69.3792C15.4006 69.3792 15.3867 70.7232 15.3867 72.3628C15.3867 74.0025 15.4006 75.3465 15.4192 75.3465Z" fill="#E0E0E0"/>
<path d="M14.2422 71.4527C14.6569 71.4934 15.073 71.5069 15.4888 71.493C15.9051 71.5069 16.3218 71.4934 16.737 71.4527C16.3218 71.4107 15.9052 71.3966 15.4888 71.4104C15.073 71.3966 14.6568 71.4107 14.2422 71.4527Z" fill="#E0E0E0"/>
<path d="M14.2305 73.5859C14.6487 73.6279 15.0685 73.642 15.4879 73.6281C15.9074 73.642 16.3271 73.6279 16.7453 73.5859C16.3271 73.5452 15.9073 73.5317 15.4879 73.5456C15.0685 73.5317 14.6488 73.5452 14.2305 73.5859Z" fill="#E0E0E0"/>
<path d="M20.2865 82.9478H22.7812V76.9804H20.2865V82.9478Z" fill="white"/>
<path d="M21.4622 82.9439C21.4807 82.9439 21.4962 81.5999 21.4962 79.9602C21.4962 78.3206 21.4807 76.9766 21.4622 76.9766C21.4436 76.9766 21.4297 78.311 21.4297 79.9602C21.4297 81.6095 21.4436 82.9439 21.4622 82.9439Z" fill="#E0E0E0"/>
<path d="M20.2852 79.054C20.7003 79.096 21.117 79.1101 21.5333 79.0962C21.9492 79.1101 22.3653 79.096 22.7799 79.054C22.3652 79.0144 21.9491 79.001 21.5333 79.0137C21.117 79.0009 20.7004 79.0144 20.2852 79.054Z" fill="#E0E0E0"/>
<path d="M20.2734 81.189C20.6917 81.2297 21.1114 81.2432 21.5309 81.2293C21.9503 81.2432 22.37 81.2297 22.7883 81.189C22.3701 81.147 21.9503 81.1329 21.5309 81.1468C21.1114 81.1329 20.6917 81.147 20.2734 81.189Z" fill="#E0E0E0"/>
<path d="M14.2396 83.2051H16.7344V77.2377H14.2396V83.2051Z" fill="white"/>
<path d="M15.4192 83.2049C15.4378 83.2049 15.4532 81.8609 15.4532 80.2212C15.4532 78.5816 15.4378 77.2375 15.4192 77.2375C15.4006 77.2375 15.3867 78.5816 15.3867 80.2212C15.3867 81.8609 15.4006 83.2049 15.4192 83.2049Z" fill="#E0E0E0"/>
<path d="M14.2422 79.3113C14.6569 79.3521 15.073 79.3655 15.4888 79.3517C15.9051 79.3655 16.3218 79.3521 16.737 79.3113C16.3218 79.2693 15.9052 79.2552 15.4888 79.2691C15.073 79.2552 14.6568 79.2693 14.2422 79.3113Z" fill="#E0E0E0"/>
<path d="M14.2305 81.4443C14.6487 81.4863 15.0685 81.5004 15.4879 81.4865C15.9074 81.5004 16.3271 81.4863 16.7453 81.4443C16.3271 81.4035 15.9073 81.3901 15.4879 81.404C15.0685 81.3901 14.6488 81.4035 14.2305 81.4443Z" fill="#E0E0E0"/>
<path d="M93.2885 88.4717H101.09V47.5142H93.2885V88.4717Z" fill="#EBEBEB"/>
<path d="M97.2657 56.0562H99.6367V50.3826H97.2657V56.0562Z" fill="white"/>
<path d="M98.3825 56.0638C98.3995 56.0638 98.415 54.7947 98.415 53.2279C98.415 51.6612 98.3995 50.3921 98.3825 50.3921C98.3655 50.3921 98.3516 51.6612 98.3516 53.2279C98.3516 54.7947 98.3686 56.0638 98.3825 56.0638Z" fill="#E0E0E0"/>
<path d="M97.2656 52.3546C98.0554 52.4083 98.8469 52.4083 99.6367 52.3546C98.8469 52.3034 98.0554 52.3034 97.2656 52.3546Z" fill="#E0E0E0"/>
<path d="M97.25 54.3839C98.0459 54.4376 98.8436 54.4376 99.6396 54.3839C98.8436 54.3327 98.046 54.3327 97.25 54.3839Z" fill="#E0E0E0"/>
<path d="M97.2657 63.4673H99.6367V57.7937H97.2657V63.4673Z" fill="white"/>
<path d="M98.3825 63.4673C98.3995 63.4673 98.415 62.1963 98.415 60.6315C98.415 59.0667 98.3995 57.7937 98.3825 57.7937C98.3655 57.7937 98.3516 59.0647 98.3516 60.6315C98.3516 62.1982 98.3686 63.4673 98.3825 63.4673Z" fill="#E0E0E0"/>
<path d="M97.2656 59.7657C98.0554 59.8169 98.8469 59.8169 99.6367 59.7657C98.8469 59.7119 98.0554 59.7119 97.2656 59.7657Z" fill="#E0E0E0"/>
<path d="M97.25 61.793C98.0459 61.8468 98.8436 61.8468 99.6396 61.793C98.8436 61.7418 98.046 61.7418 97.25 61.793Z" fill="#E0E0E0"/>
<path d="M97.2657 70.8767H99.6367V65.2031H97.2657V70.8767Z" fill="white"/>
<path d="M98.3825 70.8767C98.3995 70.8767 98.415 69.6076 98.415 68.0409C98.415 66.4742 98.3995 65.2031 98.3825 65.2031C98.3655 65.2031 98.3516 66.4742 98.3516 68.0409C98.3516 69.6076 98.3686 70.8767 98.3825 70.8767Z" fill="#E0E0E0"/>
<path d="M97.2656 67.1748C98.0554 67.226 98.8469 67.226 99.6367 67.1748C98.8469 67.1211 98.0554 67.1211 97.2656 67.1748Z" fill="#E0E0E0"/>
<path d="M97.25 69.2044C98.046 69.2556 98.8436 69.2556 99.6396 69.2044C98.8436 69.1506 98.0459 69.1506 97.25 69.2044Z" fill="#E0E0E0"/>
<path d="M97.2657 78.2859H99.6367V72.6123H97.2657V78.2859Z" fill="white"/>
<path d="M98.3825 78.2859C98.3995 78.2859 98.415 77.0168 98.415 75.4501C98.415 73.8834 98.3995 72.6143 98.3825 72.6143C98.3655 72.6143 98.3516 73.8834 98.3516 75.4501C98.3516 77.0168 98.3686 78.2859 98.3825 78.2859Z" fill="#E0E0E0"/>
<path d="M97.2656 74.5843C98.0554 74.638 98.8469 74.638 99.6367 74.5843C98.8469 74.5331 98.0554 74.5331 97.2656 74.5843Z" fill="#E0E0E0"/>
<path d="M97.25 76.6079C98.046 76.6591 98.8436 76.6591 99.6396 76.6079C98.8436 76.5542 98.0459 76.5542 97.25 76.6079Z" fill="#E0E0E0"/>
<path d="M89.9683 88.4717H95.6523V47.5142H89.9683V88.4717Z" fill="#E0E0E0"/>
<path d="M91.5196 56.0562H93.8906V50.3826H91.5196V56.0562Z" fill="white"/>
<path d="M92.638 56.0638C92.655 56.0638 92.6689 54.7947 92.6689 53.2279C92.6689 51.6612 92.655 50.3921 92.638 50.3921C92.6209 50.3921 92.6055 51.6612 92.6055 53.2279C92.6055 54.7947 92.6194 56.0638 92.638 56.0638Z" fill="#E0E0E0"/>
<path d="M91.5156 52.3546C92.3054 52.4083 93.0969 52.4083 93.8867 52.3546C93.0969 52.3034 92.3054 52.3034 91.5156 52.3546Z" fill="#E0E0E0"/>
<path d="M91.5039 54.3839C92.3004 54.4376 93.0986 54.4376 93.8951 54.3839C93.0985 54.3327 92.3004 54.3327 91.5039 54.3839Z" fill="#E0E0E0"/>
<path d="M91.5196 63.5269H93.8906V57.8533H91.5196V63.5269Z" fill="white"/>
<path d="M92.638 63.5269C92.655 63.5269 92.6689 62.2578 92.6689 60.6911C92.6689 59.1243 92.655 57.8552 92.638 57.8552C92.6209 57.8552 92.6055 59.1243 92.6055 60.6911C92.6055 62.2578 92.6194 63.5269 92.638 63.5269Z" fill="#E0E0E0"/>
<path d="M91.5156 59.8253C92.3054 59.879 93.0969 59.879 93.8867 59.8253C93.0969 59.7741 92.3054 59.7741 91.5156 59.8253Z" fill="#E0E0E0"/>
<path d="M91.5039 61.8545C92.3004 61.9057 93.0985 61.9057 93.8951 61.8545C93.0986 61.8008 92.3004 61.8008 91.5039 61.8545Z" fill="#E0E0E0"/>
<path d="M91.5196 70.9976H93.8906V65.324H91.5196V70.9976Z" fill="white"/>
<path d="M92.638 70.9976C92.655 70.9976 92.6689 69.7285 92.6689 68.1618C92.6689 66.5951 92.655 65.3259 92.638 65.3259C92.6209 65.3259 92.6055 66.5951 92.6055 68.1618C92.6055 69.7285 92.6194 70.9976 92.638 70.9976Z" fill="#E0E0E0"/>
<path d="M91.5156 67.296C92.3054 67.3497 93.0969 67.3497 93.8867 67.296C93.0969 67.2448 92.3054 67.2448 91.5156 67.296Z" fill="#E0E0E0"/>
<path d="M91.5039 69.3252C92.3004 69.3764 93.0985 69.3764 93.8951 69.3252C93.0986 69.2715 92.3004 69.2715 91.5039 69.3252Z" fill="#E0E0E0"/>
<path d="M91.5196 78.4683H93.8906V72.7947H91.5196V78.4683Z" fill="white"/>
<path d="M92.638 78.4683C92.655 78.4683 92.6689 77.1992 92.6689 75.6325C92.6689 74.0658 92.655 72.7966 92.638 72.7966C92.6209 72.7966 92.6055 74.0658 92.6055 75.6325C92.6055 77.1992 92.6194 78.4683 92.638 78.4683Z" fill="#E0E0E0"/>
<path d="M91.5156 74.7667C92.3054 74.8204 93.0969 74.8204 93.8867 74.7667C93.0969 74.7155 92.3054 74.7155 91.5156 74.7667Z" fill="#E0E0E0"/>
<path d="M91.5039 76.7998C92.3004 76.851 93.0985 76.851 93.8951 76.7998C93.0986 76.7461 92.3004 76.7461 91.5039 76.7998Z" fill="#E0E0E0"/>
<path d="M97.2657 85.6973H99.6367V80.0237H97.2657V85.6973Z" fill="white"/>
<path d="M98.3825 85.697C98.3995 85.697 98.415 84.426 98.415 82.8593C98.415 81.2926 98.3995 80.0234 98.3825 80.0234C98.3655 80.0234 98.3516 81.2926 98.3516 82.8593C98.3516 84.426 98.3686 85.697 98.3825 85.697Z" fill="#E0E0E0"/>
<path d="M97.2656 81.9935C98.0554 82.0472 98.8469 82.0472 99.6367 81.9935C98.8469 81.9423 98.0554 81.9423 97.2656 81.9935Z" fill="#E0E0E0"/>
<path d="M97.25 84.023C98.0459 84.0768 98.8436 84.0768 99.6396 84.023C98.8436 83.9718 98.046 83.9718 97.25 84.023Z" fill="#E0E0E0"/>
<path d="M91.5196 85.939H93.8906V80.2654H91.5196V85.939Z" fill="white"/>
<path d="M92.638 85.939C92.655 85.939 92.6689 84.6699 92.6689 83.1032C92.6689 81.5365 92.655 80.2673 92.638 80.2673C92.6209 80.2673 92.6055 81.5365 92.6055 83.1032C92.6055 84.6699 92.6194 85.939 92.638 85.939Z" fill="#E0E0E0"/>
<path d="M91.5156 82.2374C92.3054 82.2911 93.0969 82.2911 93.8867 82.2374C93.0969 82.1862 92.3054 82.1862 91.5156 82.2374Z" fill="#E0E0E0"/>
<path d="M91.5039 84.2669C92.3004 84.3181 93.0985 84.3181 93.8951 84.2669C93.0986 84.2131 92.3004 84.2131 91.5039 84.2669Z" fill="#E0E0E0"/>
<path d="M101.923 88.4524H106.594V63.9359H101.923V88.4524Z" fill="#EBEBEB"/>
<path d="M104.303 69.0488H105.723V65.6523H104.303V69.0488Z" fill="white"/>
<path d="M104.977 69.0488C104.986 69.0488 104.996 68.2808 104.996 67.3515C104.996 66.4223 104.986 65.6523 104.977 65.6523C104.968 65.6523 104.957 66.4203 104.957 67.3515C104.957 68.2827 104.966 69.0488 104.977 69.0488Z" fill="#E0E0E0"/>
<path d="M104.305 66.8331C104.305 66.8446 104.622 66.8561 105.013 66.8561C105.404 66.8561 105.723 66.8446 105.723 66.8331C105.251 66.7998 104.777 66.7998 104.305 66.8331Z" fill="#E0E0E0"/>
<path d="M104.297 68.0465C104.773 68.0772 105.251 68.0772 105.728 68.0465C105.251 68.0158 104.773 68.0158 104.297 68.0465Z" fill="#E0E0E0"/>
<path d="M104.303 73.4841H105.723V70.0877H104.303V73.4841Z" fill="white"/>
<path d="M104.977 73.4841C104.986 73.4841 104.996 72.7161 104.996 71.7868C104.996 70.8576 104.986 70.0876 104.977 70.0876C104.968 70.0876 104.957 70.8556 104.957 71.7868C104.957 72.718 104.966 73.4841 104.977 73.4841Z" fill="#E0E0E0"/>
<path d="M104.305 71.2684C104.777 71.2991 105.251 71.2991 105.723 71.2684C105.251 71.2351 104.777 71.2351 104.305 71.2684Z" fill="#E0E0E0"/>
<path d="M104.297 72.4818C104.773 72.5151 105.251 72.5151 105.728 72.4818C105.251 72.4511 104.773 72.4511 104.297 72.4818Z" fill="#E0E0E0"/>
<path d="M104.303 77.9192H105.723V74.5227H104.303V77.9192Z" fill="white"/>
<path d="M104.977 77.9192C104.986 77.9192 104.996 77.1512 104.996 76.2219C104.996 75.2926 104.986 74.5227 104.977 74.5227C104.968 74.5227 104.957 75.2907 104.957 76.2219C104.957 77.1531 104.966 77.9192 104.977 77.9192Z" fill="#E0E0E0"/>
<path d="M104.305 75.7035C104.777 75.7342 105.251 75.7342 105.723 75.7035C105.251 75.6727 104.777 75.6727 104.305 75.7035Z" fill="#E0E0E0"/>
<path d="M104.297 76.9171C104.773 76.9504 105.251 76.9504 105.728 76.9171C105.728 76.9056 105.407 76.894 105.011 76.894C104.615 76.894 104.297 76.9056 104.297 76.9171Z" fill="#E0E0E0"/>
<path d="M104.303 82.3545H105.723V78.958H104.303V82.3545Z" fill="white"/>
<path d="M104.977 82.3545C104.986 82.3545 104.996 81.5865 104.996 80.6572C104.996 79.728 104.986 78.96 104.977 78.96C104.968 78.96 104.957 79.7184 104.957 80.6572C104.957 81.5961 104.966 82.3545 104.977 82.3545Z" fill="#E0E0E0"/>
<path d="M104.305 80.1388C104.777 80.1695 105.251 80.1695 105.723 80.1388C105.251 80.108 104.777 80.108 104.305 80.1388Z" fill="#E0E0E0"/>
<path d="M104.297 81.3521C104.773 81.3854 105.251 81.3854 105.728 81.3521C105.728 81.3406 105.407 81.3291 105.011 81.3291C104.615 81.3291 104.297 81.3406 104.297 81.3521Z" fill="#E0E0E0"/>
<path d="M99.9411 88.4524H103.344V63.9359H99.9411V88.4524Z" fill="#E0E0E0"/>
<path d="M100.865 69.0488H102.285V65.6523H100.865V69.0488Z" fill="white"/>
<path d="M101.536 69.0488C101.545 69.0488 101.554 68.2808 101.554 67.3515C101.554 66.4223 101.545 65.6523 101.536 65.6523C101.526 65.6523 101.516 66.4203 101.516 67.3515C101.516 68.2827 101.525 69.0488 101.536 69.0488Z" fill="#E0E0E0"/>
<path d="M100.867 66.8331C100.867 66.8446 101.184 66.8561 101.576 66.8561C101.967 66.8561 102.285 66.8446 102.285 66.8331C101.813 66.7998 101.34 66.7998 100.867 66.8331Z" fill="#E0E0E0"/>
<path d="M100.859 68.0465C101.336 68.0772 101.813 68.0772 102.29 68.0465C101.813 68.0158 101.336 68.0158 100.859 68.0465Z" fill="#E0E0E0"/>
<path d="M100.865 73.5205H102.285V70.124H100.865V73.5205Z" fill="white"/>
<path d="M101.536 73.5205C101.545 73.5205 101.554 72.7525 101.554 71.8232C101.554 70.8939 101.545 70.124 101.536 70.124C101.526 70.124 101.516 70.892 101.516 71.8232C101.516 72.7544 101.525 73.5205 101.536 73.5205Z" fill="#E0E0E0"/>
<path d="M100.867 71.3047C100.867 71.3163 101.184 71.3278 101.576 71.3278C101.967 71.3278 102.285 71.3163 102.285 71.3047C101.813 71.2715 101.34 71.2715 100.867 71.3047Z" fill="#E0E0E0"/>
<path d="M100.859 72.5184C101.336 72.5491 101.813 72.5491 102.29 72.5184C101.813 72.4877 101.336 72.4877 100.859 72.5184Z" fill="#E0E0E0"/>
<path d="M100.865 77.9922H102.285V74.5957H100.865V77.9922Z" fill="white"/>
<path d="M101.536 77.9922C101.545 77.9922 101.554 77.2242 101.554 76.2949C101.554 75.3656 101.545 74.5957 101.536 74.5957C101.526 74.5957 101.516 75.3637 101.516 76.2949C101.516 77.2261 101.525 77.9922 101.536 77.9922Z" fill="#E0E0E0"/>
<path d="M100.867 75.7765C101.34 75.8072 101.813 75.8072 102.285 75.7765C101.813 75.7457 101.34 75.7457 100.867 75.7765Z" fill="#E0E0E0"/>
<path d="M100.859 76.9918C101.336 77.0251 101.814 77.0251 102.29 76.9918C101.813 76.9611 101.336 76.9611 100.859 76.9918Z" fill="#E0E0E0"/>
<path d="M100.865 82.4639H102.285V79.0674H100.865V82.4639Z" fill="white"/>
<path d="M101.536 82.4639C101.545 82.4639 101.554 81.6959 101.554 80.7666C101.554 79.8373 101.545 79.0674 101.536 79.0674C101.526 79.0674 101.516 79.8354 101.516 80.7666C101.516 81.6978 101.525 82.4639 101.536 82.4639Z" fill="#E0E0E0"/>
<path d="M100.867 80.256C101.34 80.2867 101.813 80.2867 102.285 80.256C101.813 80.2252 101.34 80.2252 100.867 80.256Z" fill="#E0E0E0"/>
<path d="M100.859 81.4615C101.336 81.4948 101.814 81.4948 102.29 81.4615C102.29 81.45 101.97 81.4385 101.574 81.4385C101.178 81.4385 100.859 81.45 100.859 81.4615Z" fill="#E0E0E0"/>
<path d="M104.303 86.7896H105.723V83.3931H104.303V86.7896Z" fill="white"/>
<path d="M104.977 86.784C104.986 86.784 104.996 86.016 104.996 85.0867C104.996 84.1574 104.986 83.3894 104.977 83.3894C104.968 83.3894 104.957 84.1574 104.957 85.0867C104.957 86.016 104.966 86.784 104.977 86.784Z" fill="#E0E0E0"/>
<path d="M104.305 84.5741C104.777 84.6048 105.251 84.6048 105.723 84.5741C105.251 84.5433 104.777 84.5433 104.305 84.5741Z" fill="#E0E0E0"/>
<path d="M104.297 85.7894C104.297 85.8009 104.617 85.8124 105.011 85.8124C105.406 85.8124 105.728 85.8009 105.728 85.7894C105.251 85.7561 104.773 85.7561 104.297 85.7894Z" fill="#E0E0E0"/>
<path d="M100.865 86.9375H102.285V83.541H100.865V86.9375Z" fill="white"/>
<path d="M101.536 86.9355C101.545 86.9355 101.554 86.1675 101.554 85.2383C101.554 84.309 101.545 83.5391 101.536 83.5391C101.526 83.5391 101.516 84.3071 101.516 85.2383C101.516 86.1695 101.525 86.9355 101.536 86.9355Z" fill="#E0E0E0"/>
<path d="M100.867 84.7198C101.34 84.7505 101.813 84.7505 102.285 84.7198C101.813 84.6891 101.34 84.6891 100.867 84.7198Z" fill="#E0E0E0"/>
<path d="M100.859 85.9334C101.336 85.9667 101.814 85.9667 102.29 85.9334C102.29 85.9219 101.97 85.9104 101.574 85.9104C101.178 85.9104 100.859 85.9219 100.859 85.9334Z" fill="#E0E0E0"/>
<path d="M66.8486 18.5759C66.9212 17.9135 66.168 17.3682 65.6019 17.3125C65.3328 17.2857 65.0529 17.3356 64.7961 17.2261C64.2424 16.9861 64.0228 16.0972 63.4799 15.8149C63.0762 15.6037 62.6107 15.7919 62.2194 16.0357C61.8281 16.2796 61.446 16.5887 61.0022 16.6233C60.6217 16.654 60.2087 16.4793 59.8746 16.7097C59.6272 16.8825 59.4972 17.2377 59.2683 17.4469C59.0298 17.6282 58.7545 17.7208 58.4749 17.7138C58.1963 17.705 57.9188 17.761 57.6567 17.8789C57.4031 18.0229 57.1927 18.3551 57.2468 18.6949L66.8486 18.5759Z" fill="#EBEBEB"/>
<path d="M88.4267 9.82068C88.5009 9.15828 87.7477 8.613 87.1816 8.5554C86.9109 8.52852 86.631 8.58036 86.3742 8.469C85.8205 8.23092 85.6009 7.34196 85.0596 7.0578C84.6544 6.8466 84.1888 7.03476 83.7975 7.28052C83.4062 7.52628 83.0242 7.83348 82.5803 7.86804C82.1998 7.89876 81.7868 7.72212 81.4543 7.95444C81.2053 8.12532 81.0754 8.48052 80.8465 8.6898C80.6086 8.87299 80.3328 8.96577 80.053 8.95668C79.7743 8.94852 79.4968 9.00518 79.2348 9.12372C78.9812 9.26772 78.7708 9.59988 78.825 9.9378L88.4267 9.82068Z" fill="#EBEBEB"/>
<path d="M13.4563 36.9638C13.5305 36.3014 12.7773 35.7562 12.2189 35.7005C11.9483 35.6736 11.6683 35.7254 11.4131 35.6141C10.8579 35.3741 10.6398 34.4851 10.0969 34.2029C9.69167 33.9917 9.22767 34.1798 8.83481 34.4237C8.44196 34.6675 8.06148 34.9766 7.61913 35.0112C7.23711 35.0419 6.82415 34.8672 6.49161 35.0976C6.2426 35.2704 6.11268 35.6256 5.88377 35.8349C5.64084 36.0175 5.36026 36.1083 5.07641 36.096C4.79779 36.0875 4.52033 36.1435 4.25823 36.2611C4.00612 36.4051 3.79423 36.7373 3.84836 37.0771L13.4563 36.9638Z" fill="#EBEBEB"/>
<path d="M44.5921 11.2819C44.6819 10.4774 43.7678 9.8169 43.0811 9.74586C42.7547 9.71322 42.4144 9.77466 42.1036 9.64026C41.4323 9.35034 41.1632 8.27322 40.5074 7.92954C40.0171 7.67226 39.4526 7.90074 38.9777 8.19834C38.5029 8.49594 38.0327 8.86842 37.5022 8.91066C37.0382 8.94714 36.5387 8.73402 36.135 9.01434C35.8334 9.22362 35.671 9.6537 35.3988 9.90906C35.1265 10.1644 34.7724 10.2105 34.4367 10.2316C34.1011 10.2527 33.75 10.2585 33.4438 10.4332C33.1375 10.6079 32.8839 11.0092 32.9473 11.422L44.5921 11.2819Z" fill="#E0E0E0"/>
<path d="M106.346 40.704C106.436 39.9014 105.522 39.239 104.835 39.168C104.507 39.1353 104.169 39.1968 103.858 39.0624C103.187 38.7725 102.917 37.6934 102.262 37.3517C101.771 37.0944 101.207 37.3229 100.732 37.6205C100.257 37.9181 99.787 38.2905 99.2565 38.3328C98.7925 38.3693 98.293 38.1561 97.8893 38.4365C97.5877 38.6457 97.4253 39.0758 97.1531 39.3293C96.8809 39.5827 96.5344 39.6307 96.1895 39.6537C95.8446 39.6768 95.5043 39.6806 95.1981 39.8553C94.8918 40.0301 94.6366 40.4313 94.7016 40.8441L106.346 40.704Z" fill="#E0E0E0"/>
<path d="M106.27 88.4506H106.01H105.246L102.308 88.4602L91.5026 88.4756L55.8596 88.512L20.2074 88.4967L9.40397 88.4813L6.4653 88.4717L9.40397 88.4621L20.2074 88.4468L55.8596 88.4314L91.5041 88.4468L102.309 88.4621L105.248 88.4717H106.012L106.27 88.4506Z" fill="#263238"/>
<path d="M46.9322 19.5457H38.3203V25.8202H46.9322V19.5457Z" fill="#E0E0E0"/>
<path d="M42.854 19.3364H34.2422V25.611H42.854V19.3364Z" fill="#EBEBEB"/>
<path d="M59.6143 25.3345H22.2422V27.8631H59.6143V25.3345Z" fill="#E0E0E0"/>
<path d="M47.4796 18.3303H33.3555V19.6916H47.4796V18.3303Z" fill="#E0E0E0"/>
<path d="M50.5 88.4525L24.2206 88.4102L24.1758 27.863H50.5V88.4525Z" fill="#EBEBEB"/>
<path d="M29.955 31.6973H26.9297V38.4499H29.955V31.6973Z" fill="#455A64"/>
<path d="M29.955 41.4644H26.9297V48.217H29.955V41.4644Z" fill="#455A64"/>
<path d="M29.955 51.2314H26.9297V57.9841H29.955V51.2314Z" fill="#455A64"/>
<path d="M29.955 60.9985H26.9297V67.7512H29.955V60.9985Z" fill="#455A64"/>
<path d="M29.955 70.0781H26.9297V76.8308H29.955V70.0781Z" fill="#455A64"/>
<path d="M47.3573 31.6973H44.332V38.4499H47.3573V31.6973Z" fill="#455A64"/>
<path d="M38.7695 21.2488H36.0195V25.6571H38.7695V21.2488Z" fill="#455A64"/>
<path d="M47.3573 41.4644H44.332V48.217H47.3573V41.4644Z" fill="#455A64"/>
<path d="M47.3573 51.2314H44.332V57.9841H47.3573V51.2314Z" fill="#455A64"/>
<path d="M47.3573 60.9985H44.332V67.7512H47.3573V60.9985Z" fill="#455A64"/>
<path d="M47.3573 70.0781H44.332V76.8308H47.3573V70.0781Z" fill="#455A64"/>
<path d="M41.486 27.863H32.5664V88.4506H41.486V27.863Z" fill="#455A64"/>
<g opacity="0.3">
<path d="M41.486 46.6252L32.5664 55.8508V59.2224L41.486 49.8451V46.6252Z" fill="white"/>
</g>
<g opacity="0.3">
<path d="M41.486 28.9958L32.5664 38.2214V41.593L41.486 32.2157V28.9958Z" fill="white"/>
</g>
<g opacity="0.3">
<path d="M41.486 54.0654L32.5664 63.291V70.0782L41.486 60.7374V54.0654Z" fill="white"/>
</g>
<path d="M57.8645 27.3025H50.5039V88.4007H57.8645V27.3025Z" fill="#E0E0E0"/>
<path d="M57.9875 88.3989C57.9658 88.3989 57.9241 76.0782 57.8947 60.8814C57.8653 45.6846 57.8576 33.3621 57.8808 33.3621C57.904 33.3621 57.9442 45.6808 57.9751 60.8814C58.0061 76.0821 58.0107 88.3989 57.9875 88.3989Z" fill="#263238"/>
<path d="M56.0018 31.6973H52.9766V38.4499H56.0018V31.6973Z" fill="#263238"/>
<path d="M56.0018 41.4644H52.9766V48.217H56.0018V41.4644Z" fill="#263238"/>
<path d="M56.0018 51.2314H52.9766V57.9841H56.0018V51.2314Z" fill="#263238"/>
<path d="M56.0018 60.9985H52.9766V67.7512H56.0018V60.9985Z" fill="#263238"/>
<path d="M56.0018 70.0781H52.9766V76.8308H56.0018V70.0781Z" fill="#263238"/>
<path d="M56.0018 79.5898H52.9766V86.3425H56.0018V79.5898Z" fill="#263238"/>
<path d="M42.0787 76.9749H31.832V78.2459H42.0787V76.9749Z" fill="#EBEBEB"/>
<path d="M41.486 38.8589H32.5664V39.5981H41.486V38.8589Z" fill="#263238"/>
<path d="M41.486 49.5417H32.5664V50.2809H41.486V49.5417Z" fill="#263238"/>
<path d="M41.4157 69.0432H32.4961V69.7824H41.4157V69.0432Z" fill="#263238"/>
<path d="M41.8259 59.7312H32.9062V60.4704H41.8259V59.7312Z" fill="#263238"/>
<path d="M39.7145 62.4614C39.7284 62.4825 38.3967 63.9264 36.7418 65.687C35.0869 67.4477 33.7304 68.8569 33.715 68.8358C33.6995 68.8147 35.0327 67.3709 36.6892 65.6102C38.3457 63.8496 39.699 62.4403 39.7145 62.4614Z" fill="#263238"/>
<path d="M39.791 69.0203C39.8065 69.0414 38.4748 70.4852 36.8184 72.2459C35.1619 74.0065 33.807 75.4158 33.7931 75.3946C33.7792 75.3735 35.1093 73.9297 36.7658 72.171C38.4223 70.4123 39.7771 68.9991 39.791 69.0203Z" fill="#263238"/>
<path d="M39.6854 52.7808C39.6994 52.802 38.7234 53.8618 37.5046 55.1482C36.2859 56.4346 35.2852 57.4522 35.2697 57.4388C35.2542 57.4253 36.2317 56.3578 37.4521 55.0714C38.6724 53.785 39.6715 52.7597 39.6854 52.7808Z" fill="#263238"/>
<path d="M37.2462 53.9846C36.9824 54.35 36.6998 54.6938 36.4002 55.0137C36.1176 55.3581 35.8168 55.6788 35.5 55.9737C35.7625 55.6062 36.0452 55.2617 36.346 54.9427C36.6275 54.5974 36.9283 54.2772 37.2462 53.9846Z" fill="#263238"/>
<path d="M34.1446 46.0897C34.1322 46.0667 35.4732 44.7957 37.1405 43.252C38.8078 41.7083 40.1704 40.4718 40.1828 40.4929C40.1952 40.5141 38.8558 41.787 37.1885 43.3326C35.5212 44.8782 34.1585 46.1109 34.1446 46.0897Z" fill="#263238"/>
<path d="M35.9922 45.12C36.087 45.0137 36.1907 44.9204 36.3015 44.8416L37.0625 44.2041L37.8188 43.5552C37.9185 43.4562 38.0263 43.3707 38.1405 43.2998C38.0537 43.4157 37.9573 43.52 37.8528 43.6108C37.6672 43.7932 37.4058 44.0332 37.1089 44.2867C36.8119 44.5401 36.5351 44.7532 36.3355 44.9011C36.2283 44.9903 36.1131 45.0638 35.9922 45.12Z" fill="#263238"/>
<path d="M39.9779 30.1038C39.9779 30.1038 39.9593 30.1326 39.9176 30.1767C39.8758 30.2209 39.8108 30.2919 39.7366 30.3687L39.0638 31.0638L36.8381 33.3486L34.6218 35.6526L33.949 36.3495L33.7649 36.5415C33.7216 36.5838 33.6984 36.6049 33.6953 36.601C33.713 36.5738 33.7326 36.5488 33.7541 36.5262L33.9289 36.3342C34.0928 36.1556 34.3155 35.9118 34.5846 35.6142C35.143 35.0113 35.9194 34.1876 36.7871 33.291C37.6548 32.3943 38.4482 31.5975 39.0282 31.0273L39.718 30.3572L39.9083 30.1806C39.9286 30.1512 39.952 30.1254 39.9779 30.1038Z" fill="#263238"/>
<path d="M37.3249 31.488C37.134 31.7384 36.9237 31.9647 36.697 32.1639C36.4868 32.3884 36.26 32.5876 36.0195 32.7591C36.2103 32.5091 36.4207 32.2834 36.6475 32.0852C36.8577 31.8602 37.0845 31.6603 37.3249 31.488Z" fill="#263238"/>
<path d="M29.0664 44.26C28.8793 44.5464 28.6723 44.8117 28.4477 45.053C28.2383 45.3174 28.01 45.5577 27.7656 45.771C27.956 45.4852 28.1655 45.22 28.392 44.9781C28.5988 44.7138 28.8245 44.4734 29.0664 44.26Z" fill="#263238"/>
<path d="M46.6583 53.9214C46.4661 54.2506 46.2536 54.5606 46.0226 54.8487C45.8111 55.1599 45.5788 55.4483 45.3281 55.7108C45.5184 55.3792 45.731 55.0683 45.9638 54.7815C46.1756 54.4713 46.4079 54.1836 46.6583 53.9214Z" fill="#263238"/>
<path d="M29.3171 63.1833C29.1046 63.5248 28.8714 63.8458 28.6196 64.1433C28.3862 64.4621 28.1333 64.758 27.8633 65.0285C28.0759 64.687 28.309 64.3661 28.5608 64.0685C28.7938 63.7492 29.0467 63.4533 29.3171 63.1833Z" fill="#263238"/>
<path d="M46.1222 71.7639C45.9411 72.0689 45.7388 72.3536 45.5174 72.6145C45.3158 72.8982 45.0943 73.159 44.8555 73.394C45.0371 73.0895 45.2394 72.805 45.4602 72.5434C45.6623 72.2603 45.8838 71.9995 46.1222 71.7639Z" fill="#263238"/>
<path d="M46.0701 72.8679C45.9584 73.0864 45.8243 73.2858 45.671 73.4612C45.5353 73.6601 45.3793 73.8363 45.207 73.9854C45.3187 73.7669 45.4528 73.5675 45.6061 73.3921C45.7423 73.1938 45.8982 73.0177 46.0701 72.8679Z" fill="#263238"/>
<path d="M47.3573 79.8721H44.332V86.6247H47.3573V79.8721Z" fill="#455A64"/>
<path d="M29.9315 79.7607H26.9062V86.5134H29.9315V79.7607Z" fill="#455A64"/>
<g opacity="0.3">
<path d="M33.4388 88.414L41.4877 80.2329L41.4861 78.167L40.2503 78.2092L32.5742 86.5977L32.5912 88.4102" fill="white"/>
</g>
<g opacity="0.3">
<path d="M35.2617 88.4181L36.0041 88.4315L41.4901 82.5006L41.484 82.0724L41.4855 81.6021L35.2617 88.4181Z" fill="white"/>
</g>
<path d="M36.9543 88.4314C36.9326 88.4314 36.9141 86.3194 36.9141 83.7063C36.9141 81.0932 36.9326 78.9812 36.9543 78.9812C36.9759 78.9812 36.9945 81.0932 36.9945 83.7063C36.9945 86.3194 36.9775 88.4314 36.9543 88.4314Z" fill="#263238"/>
<path d="M36.5156 83.136H35.9805V85.4285H36.5156V83.136Z" fill="#EBEBEB"/>
<path d="M37.875 83.136H37.3398V85.4285H37.875V83.136Z" fill="#EBEBEB"/>
<path d="M59.6637 27.8632C59.6637 27.89 51.287 27.9131 40.949 27.9131C30.6111 27.9131 22.2344 27.89 22.2344 27.8632C22.2344 27.8363 30.6096 27.8132 40.949 27.8132C51.2885 27.8132 59.6637 27.8401 59.6637 27.8632Z" fill="#263238"/>
<path d="M59.6637 25.3844C59.6637 25.4113 51.287 25.4343 40.949 25.4343C30.6111 25.4343 22.2344 25.4113 22.2344 25.3844C22.2344 25.3575 30.6096 25.3345 40.949 25.3345C51.2885 25.3345 59.6637 25.3556 59.6637 25.3844Z" fill="#263238"/>
<path d="M47.5869 19.6915C47.5869 19.7184 44.4116 19.7414 40.4954 19.7414C36.5793 19.7414 33.4102 19.7184 33.4102 19.6915C33.4102 19.6646 36.5839 19.6416 40.5016 19.6416C44.4193 19.6416 47.5869 19.6627 47.5869 19.6915Z" fill="#263238"/>
<path d="M24.2223 88.4104C24.2007 88.4104 24.1604 74.9243 24.1326 58.2914C24.1048 41.6584 24.1017 28.1704 24.1249 28.1704C24.1481 28.1704 24.1867 41.6526 24.213 58.2914C24.2393 74.9301 24.244 88.4104 24.2223 88.4104Z" fill="#263238"/>
<path d="M25.5441 15.4829L19.4254 12.9351L13.3656 15.4483C12.5923 15.8707 11.9102 16.128 11.9102 16.9613V21.12C11.9046 24.0639 12.5987 26.9444 13.9054 29.401C15.2541 31.9585 17.1953 33.9487 19.4734 35.1091C21.9481 34.176 23.8041 31.6896 24.9285 29.5623C26.2365 27.107 26.9311 24.2268 26.9252 21.2832V17.5411C26.9361 16.3507 26.3916 15.769 25.5441 15.4829Z" fill="#EF233C"/>
<path d="M19.4715 33.4714L19.4467 33.4579C17.5031 32.4687 15.84 30.785 14.6686 28.6205C13.4972 26.4559 12.8702 23.9082 12.8672 21.3005V17.7101C12.8672 17.0074 13.3668 16.7501 13.9499 16.4371L14.1664 16.32L19.4251 14.137L24.7255 16.345C25.5715 16.631 25.9829 17.2435 25.9829 18.215V21.4426C25.9862 24.0008 25.3826 26.5036 24.2476 28.6387C23.4943 30.0557 21.875 32.567 19.4977 33.4637L19.4715 33.4714ZM19.4251 14.3386L14.2298 16.4966L14.0133 16.6138C13.4565 16.896 13.0219 17.1341 13.0219 17.7101V21.3005C13.0252 23.8656 13.6414 26.3718 14.7925 28.5021C15.9436 30.6323 17.5779 32.2909 19.4885 33.2678C21.8085 32.3808 23.3876 29.9213 24.1285 28.5312C25.2437 26.4261 25.8354 23.9602 25.8298 21.4406V18.2131C25.8298 17.328 25.4648 16.7923 24.6853 16.5274L19.4251 14.3386Z" fill="white"/>
<path d="M26.3433 14.4346C26.4847 14.4727 26.6233 14.5254 26.7578 14.592C26.9217 14.6697 27.0774 14.7716 27.2218 14.8954C27.4223 15.0638 27.589 15.2871 27.709 15.5482C27.8545 15.881 27.933 16.2525 27.9379 16.6311C27.9379 17.0439 27.9379 17.4893 27.9379 17.9751C27.9379 18.9351 27.9456 20.041 27.9379 21.2698C27.912 24.2024 27.269 27.0756 26.0726 29.6045C25.3562 31.1237 24.471 32.5101 23.4433 33.7229C22.3606 34.9786 21.0444 36.0864 19.5039 36.6739H19.49H19.4776C18.9336 36.3909 18.4028 36.0704 17.8876 35.7139C17.3602 35.3401 16.8524 34.9252 16.3673 34.4717C15.3633 33.531 14.469 32.4222 13.7101 31.177C12.8885 29.8374 12.2298 28.3554 11.7551 26.7783C11.302 25.2686 11.0239 23.6867 10.9292 22.08C10.8812 21.2967 10.8952 20.5229 10.8921 19.7645C10.889 19.0061 10.8921 18.2573 10.8921 17.5219V16.4237C10.8875 16.2416 10.8937 16.0594 10.9106 15.8784C10.936 15.6944 10.9994 15.5218 11.0947 15.3773C11.291 15.1153 11.5298 14.9079 11.7953 14.7687C12.0505 14.6208 12.3073 14.4922 12.5578 14.3559L19.4157 11.52H19.425L24.5105 13.6531L25.8684 14.2291L26.218 14.3808C26.2969 14.4135 26.3355 14.4346 26.3355 14.4346C26.3355 14.4346 26.2953 14.4211 26.2164 14.3885L25.8638 14.2464L24.5012 13.6896L19.408 11.5776H19.425L12.5841 14.4365C12.332 14.5747 12.0768 14.7034 11.8247 14.8512C11.5689 14.9812 11.3385 15.1776 11.1488 15.4272C11.0602 15.5612 11.0025 15.7224 10.9818 15.8938C10.9648 16.0696 10.9597 16.2468 10.9663 16.4237V17.5162C10.9663 18.2509 10.9663 18.9984 10.9663 19.7587C10.9663 20.5267 10.9555 21.2947 11.0034 22.0627C11.0961 23.6624 11.3726 25.2374 11.8247 26.7399C12.2979 28.307 12.954 29.7794 13.772 31.1098C14.526 32.3476 15.4145 33.45 16.4121 34.3853C16.8945 34.8362 17.3992 35.2492 17.9232 35.6218C18.4359 35.9767 18.9635 36.2972 19.5039 36.5818H19.4884C21.015 36.0058 22.325 34.9037 23.4 33.6557C24.4265 32.4508 25.3116 31.0729 26.0293 29.5623C26.6671 28.2148 27.1517 26.7642 27.4692 25.2519C27.7386 23.9494 27.8839 22.6123 27.9023 21.2679C27.9023 20.0429 27.9023 18.9389 27.9116 17.9751C27.9116 17.4931 27.9116 17.0458 27.9116 16.6311C27.9071 16.2602 27.8296 15.8963 27.6858 15.5712C27.5687 15.3134 27.4064 15.0917 27.2109 14.9223C27.069 14.7977 26.9159 14.6939 26.7547 14.6131C26.6547 14.5608 26.5525 14.5152 26.4484 14.4768L26.3433 14.4346Z" fill="#EF233C"/>
<path d="M19.2248 27.2372L15.7695 23.6487L16.778 22.153L19.0949 24.5588L22.6429 19.8701L23.789 21.2045L19.2248 27.2372Z" fill="white"/>
<path d="M89.4062 27.7651L90.4889 25.4611C89.9416 23.4585 90.0175 21.2741 90.7017 19.3374C91.3859 17.4007 92.6289 15.8518 94.1863 14.995C95.7438 14.1382 97.5031 14.0355 99.1184 14.7072C100.734 15.3789 102.088 16.7763 102.916 18.6248C103.743 20.4733 103.984 22.6392 103.59 24.6967C103.197 26.7542 102.197 28.5546 100.789 29.744C99.3803 30.9333 97.6643 31.4256 95.9781 31.1241C94.292 30.8226 92.7577 29.7491 91.6768 28.1145L89.4062 27.7651Z" fill="white"/>
<path d="M89.4062 27.765L89.5609 27.7842L89.9986 27.8495L91.6891 28.1049L91.6706 28.1356L91.6133 27.9839L91.7 28.1126C92.4221 29.1965 93.3501 30.0404 94.4004 30.5682C94.7263 30.7317 95.0619 30.8633 95.4042 30.9618C95.7715 31.0604 96.1443 31.1246 96.5194 31.1538C98.2613 31.2941 99.9795 30.5924 101.314 29.1954C102.062 28.4151 102.666 27.4448 103.087 26.35C103.53 25.1849 103.751 23.908 103.73 22.6194C103.717 21.2692 103.438 19.9434 102.916 18.7583L102.7 18.3071C102.624 18.1612 102.545 18.023 102.463 17.8809C102.306 17.6039 102.135 17.3391 101.951 17.0879C101.865 16.9554 101.758 16.846 101.662 16.725C101.566 16.6041 101.472 16.4831 101.364 16.3794L101.046 16.0665C100.994 16.0146 100.943 15.959 100.892 15.9129L100.723 15.7766C99.8486 15.0465 98.8506 14.5755 97.8062 14.3999C96.8258 14.2455 95.83 14.3602 94.8892 14.7359C93.2132 15.3997 91.8103 16.8453 90.9761 18.7679C90.9297 18.8754 90.8864 18.983 90.8416 19.0886L90.7751 19.246L90.7225 19.4092L90.5183 20.0543C90.4116 20.4713 90.3249 20.8957 90.2585 21.3254C90.0636 22.7064 90.1497 24.126 90.509 25.4553C90.1533 26.1964 89.8811 26.7647 89.6939 27.1506L89.482 27.5903L89.4078 27.742L89.4743 27.5942L89.6769 27.1564L90.4796 25.4284V25.4457C90.1124 24.1176 90.0183 22.6966 90.2059 21.3119C90.2721 20.8786 90.3583 20.4504 90.4642 20.0294L90.6683 19.3785L90.7209 19.2134L90.7874 19.054L90.922 18.7295C91.5787 17.2164 92.5885 15.985 93.819 15.1969C95.0495 14.4089 96.4431 14.1009 97.817 14.3135C98.8681 14.4883 99.8731 14.9585 100.756 15.6882L100.927 15.8265C100.985 15.8726 101.036 15.9302 101.082 15.982L101.402 16.2988C101.512 16.4025 101.603 16.533 101.704 16.6482C101.804 16.7634 101.908 16.8806 101.996 17.015C102.184 17.2708 102.358 17.5415 102.517 17.8252C102.598 17.9692 102.68 18.1094 102.757 18.2553L102.964 18.7142C103.475 19.8883 103.757 21.1952 103.786 22.5292C103.815 23.8633 103.592 25.1872 103.133 26.3942C102.724 27.4596 102.142 28.4083 101.423 29.1806C100.705 29.9529 99.8649 30.5319 98.9569 30.8812C98.1661 31.1803 97.338 31.2981 96.5132 31.2287C96.1348 31.1964 95.759 31.1291 95.3888 31.0271C95.0435 30.9272 94.7052 30.793 94.3772 30.6258C93.3206 30.0889 92.3898 29.2305 91.6706 28.1298L91.7 28.1068L91.7123 28.1414H91.6814L89.9801 27.8572L89.5485 27.7823L89.4062 27.765Z" fill="#263238"/>
<path d="M98.9735 20.1426H94.0195V26.2923H98.9735V20.1426Z" fill="#E0E0E0"/>
<path d="M98.9749 26.304C98.9743 26.2931 98.9743 26.2822 98.9749 26.2713C98.9749 26.2483 98.9749 26.2195 98.9749 26.1849C98.9749 26.1043 98.9749 25.9929 98.9749 25.8528C98.9749 25.5552 98.9749 25.1328 98.9656 24.5971C98.9656 23.518 98.9548 21.9878 98.9486 20.1523L98.9826 20.1964H94.0333C94.024 20.208 94.1091 20.1024 94.0735 20.1484V21.8035C94.0735 22.3449 94.0735 22.8768 94.0735 23.3932C94.0735 24.4243 94.0735 25.3996 94.0735 26.2944L94.0395 26.2502L97.62 26.2732H98.63H98.8991H98.9687H98.9935H98.9068H98.6455L97.6417 26.2848L94.0395 26.3059H94.0039V26.304C94.0039 25.4092 94.0039 24.4339 94.0039 23.4028C94.0039 22.8864 94.0039 22.3545 94.0039 21.8131V20.158L94.0441 20.1062H98.9935H99.029V20.1484C99.029 21.9955 99.0151 23.5353 99.0105 24.622C99.0105 25.152 99.0105 25.5724 99.0012 25.8662C99.0012 26.0044 99.0012 26.112 99.0012 26.1907C98.9947 26.2292 98.9859 26.2671 98.9749 26.304Z" fill="#263238"/>
<path d="M97.2875 25.4669L94.3086 22.3738L95.1778 21.0835L97.1746 23.1571L100.234 19.1174L101.221 20.2675L97.2875 25.4669Z" fill="#455A64"/>
<path d="M75.7397 48.9696L72.0757 45.9302C70.8569 45.5731 69.4881 46.6579 69.2344 48.1804C68.0234 47.8656 66.7381 48.9196 66.3221 50.3654C65.906 51.8112 66.2695 53.4969 67.0737 54.6662C67.878 55.8355 69.0627 56.5267 70.2769 56.8262C72.0231 57.2563 74.0647 56.782 75.1118 54.9926C76.097 53.3145 75.9423 51.0316 75.7397 48.9696Z" fill="#263238"/>
<path d="M91.4429 45.5193C91.4292 44.7487 91.2432 43.998 90.9056 43.3511C90.568 42.7041 90.0921 42.1865 89.5312 41.8559C89.9504 40.0396 90.4113 38.133 90.088 36.2879C89.3565 32.1177 86.3296 31.5455 84.8077 31.5724L79.8058 35.5391C78.4664 37.4226 80.1476 47.7638 80.7508 50.1618C81.0644 51.3603 81.6163 52.4413 82.3553 53.3051C83.0944 54.1688 83.9968 54.7875 84.9794 55.1039C86.3714 55.5359 87.9768 55.2614 89.044 54.0594C90.1112 52.8575 90.4499 50.6457 89.5838 49.2172C90.139 48.8747 90.6067 48.3477 90.9349 47.6948C91.2631 47.042 91.439 46.2889 91.4429 45.5193Z" fill="#263238"/>
<path d="M65.7578 62.8626L66.2218 88.3199L93.5561 88.4524C93.5561 88.4524 91.5268 52.7173 90.9437 52.3679C90.5029 52.1087 85.102 49.9084 85.102 49.9084L82.7 49.0405L72.7735 51.406L69.1729 52.3832L65.7578 62.8626Z" fill="#455A64"/>
<path d="M67.3411 58.6098C67.3411 58.5426 69.9518 52.1702 69.9518 52.1702C67.3937 52.5042 65.1092 53.6255 63.6244 56.0428C62.9331 57.1679 62.6237 58.8729 62.2788 60.0882C62.0468 60.9119 60.5156 71.9922 60.5156 71.9922L66.5801 75.0719L67.3411 58.6098Z" fill="#455A64"/>
<path d="M76.9769 67.9315L71.2542 51.5481C69.1693 52.1241 66.8261 52.7807 65.332 53.975L66.1224 66.0172L66.0064 88.4524L76.9568 88.5235L77.6311 72.5587L76.9769 67.9315Z" fill="#EF233C"/>
<path d="M91.5591 72.1056L90.3806 51.8707L83.7392 49.2307L76.957 67.7933V88.5235L93.7183 88.4544L91.5591 72.1056Z" fill="#EF233C"/>
<path d="M91.5603 72.1055C91.5603 72.1055 91.5758 72.2034 91.6021 72.3935C91.6284 72.5835 91.6671 72.8696 91.7181 73.2383C91.8186 73.9832 91.9656 75.0795 92.1558 76.4908C92.5316 79.3151 93.0761 83.4028 93.7473 88.4485V88.4908H93.7257L76.9644 88.5714H76.9258V88.5234C76.9258 83.4469 76.9258 77.9192 76.9258 72.1842V67.7759C79.3695 61.0943 81.6694 54.8063 83.7126 49.2152L83.7265 49.1807L83.7559 49.1922L90.3895 51.8399H90.4096V51.8667C90.7654 58.0645 91.0546 63.1237 91.2557 66.6335C91.3546 68.3883 91.432 69.7554 91.483 70.6847C91.5093 71.1474 91.5279 71.5026 91.5402 71.7426C91.5526 71.9826 91.5572 72.1035 91.5572 72.1035C91.5572 72.1035 91.5464 71.9826 91.531 71.7445C91.5155 71.5064 91.4938 71.1493 91.466 70.6866C91.4088 69.7573 91.3268 68.3922 91.2216 66.6392C91.0128 63.1275 90.7143 58.0703 90.3462 51.8725L90.3679 51.9071L83.7265 49.2709L83.7698 49.2479C81.7282 54.8389 79.4391 61.1288 76.9923 67.8123V67.7912V72.1919C76.9923 77.9269 76.9923 83.4546 76.9923 88.5311L76.9536 88.4831L93.7148 88.4255L93.6855 88.4677C93.025 83.4181 92.4899 79.3304 92.1187 76.5023C91.9362 75.0911 91.7939 73.9947 91.6964 73.2498C91.65 72.8792 91.6145 72.5951 91.5897 72.4031C91.565 72.2111 91.5603 72.1055 91.5603 72.1055Z" fill="#263238"/>
<path d="M89.7528 71.5737H66.2188V75.3926H89.7528V71.5737Z" fill="white"/>
<path d="M90.4961 52.1606C90.4961 52.1606 92.0258 52.1376 94.2421 57.0816C96.7307 62.6323 98.3207 69.6768 98.3207 69.6768L92.1943 73.8278L90.4961 52.1606Z" fill="#455A64"/>
<path d="M67.5742 52.727L68.2408 88.4543L70.8609 88.4716L69.953 51.8879C69.953 51.8879 67.9856 52.462 67.5742 52.727Z" fill="white"/>
<path d="M86.1426 50.1851L85.3398 88.4718H88.7657L88.9266 51.3371L86.1426 50.1851Z" fill="white"/>
<g opacity="0.3">
<path d="M79.1133 60.4088C79.1779 61.1626 79.3824 61.8876 79.7105 62.5268C80.0387 63.1661 80.4817 63.7023 81.0049 64.0933C81.5044 64.46 82.0736 64.6904 82.5113 65.1647C82.949 65.6389 83.1934 66.2572 83.4393 66.8792C85.2953 71.4968 87.1513 76.126 88.5882 80.972C88.9083 82.0549 89.2068 83.1608 89.725 84.1247C90.2431 85.0885 90.9963 85.9084 91.9104 86.1272C92.8245 86.3461 93.8824 85.8239 94.2459 84.7621L82.6876 57.9839L79.1133 60.4088Z" fill="black"/>
</g>
<path d="M76.957 67.7932C76.957 67.7932 76.957 67.9199 76.957 68.1772C76.957 68.4345 76.957 68.7954 76.957 69.2774C76.957 70.2374 76.957 71.6601 76.9663 73.4668C76.9663 77.086 76.9756 82.2681 76.9818 88.5311V88.5734H76.9478L65.9788 88.5004H65.9401V88.4505C65.9602 84.4185 65.9819 80.0735 66.0035 75.5865C66.0206 72.2591 66.0376 69.0124 66.0546 65.8943C65.7824 61.6703 65.5241 57.6729 65.2812 53.9903V53.9519L65.2998 53.9366C66.2711 53.1993 67.3105 52.7462 68.3158 52.366C69.3211 51.9858 70.3095 51.7113 71.2545 51.4482H71.2808L71.2901 51.479L75.4274 63.383C75.9161 64.798 76.2982 65.9001 76.5564 66.647L76.8488 67.4994C76.9153 67.6914 76.9462 67.7913 76.9462 67.7913C76.9462 67.7913 76.9091 67.6934 76.8395 67.5014L76.558 66.6527L75.4119 63.3887L71.2514 51.4982L71.287 51.5212C70.345 51.7842 69.3629 52.0703 68.3576 52.4428C67.3522 52.8153 66.3191 53.2761 65.3586 54.0095L65.3756 53.9673C65.6153 57.6518 65.8767 61.6473 66.1489 65.8713C66.1335 68.9913 66.1165 72.2361 66.0994 75.5634C66.0762 80.0562 66.053 84.3954 66.0329 88.4274L65.9943 88.3794L76.9617 88.4658L76.9277 88.5062C76.9277 82.2431 76.9385 77.061 76.9431 73.4418C76.9431 71.637 76.9431 70.2201 76.9524 69.2543C76.9524 68.7743 76.9524 68.4057 76.9524 68.1542C76.9524 67.9026 76.957 67.7932 76.957 67.7932Z" fill="#263238"/>
<path d="M67.5891 30.814C67.4077 30.4574 67.3042 30.0484 67.2888 29.6271C67.2735 29.2058 67.3467 28.7868 67.5014 28.4113C67.656 28.0359 67.8868 27.7169 68.1709 27.4857C68.4551 27.2545 68.7828 27.1192 69.1218 27.093L72.2152 27.6537L71.315 34.1413C71.2299 34.7615 71.1279 35.4201 70.7814 35.8789C70.6069 36.085 70.4006 36.245 70.1749 36.3493C69.9492 36.4535 69.7088 36.4999 69.4683 36.4857C68.9406 36.481 68.4258 36.2829 67.9884 35.9164C67.5511 35.5498 67.2107 35.0311 67.01 34.4253C66.8092 33.8194 66.7571 33.1535 66.8601 32.511C66.9632 31.8686 67.2168 31.2782 67.5891 30.814Z" fill="#263238"/>
<path d="M76.9589 55.7453C79.5418 55.7453 82.3351 52.3603 82.3861 49.1539L82.6614 31.5821C82.8764 26.3981 80.626 21.9283 76.4485 21.8054L76.0618 21.8227C74.1857 21.9032 72.4028 22.8576 71.0679 24.4959C69.7329 26.1343 68.9438 28.3364 68.8574 30.6643C68.6919 35.1552 68.8342 39.2121 68.9255 41.6083C69.1142 46.5811 72.8556 47.3683 72.8556 47.3683C72.8556 47.3683 72.5339 51.7459 73.0845 53.0361C74.3218 55.9277 75.2993 55.68 76.9589 55.7241V55.7453Z" fill="#FFBF9D"/>
<path d="M72.823 47.3855C72.823 47.3855 75.3549 47.4623 77.9873 45.2466C77.9873 45.2466 76.7918 49.0136 72.7812 48.7371L72.823 47.3855Z" fill="#FF9A6C"/>
<path d="M70.6953 34.652C70.6993 34.8373 70.7614 35.0133 70.8682 35.1427C70.975 35.2721 71.1183 35.3447 71.2676 35.3452C71.3406 35.349 71.4135 35.3347 71.482 35.3032C71.5505 35.2716 71.6132 35.2234 71.6665 35.1614C71.7198 35.0993 71.7626 35.0247 71.7924 34.9418C71.8221 34.859 71.8383 34.7696 71.8398 34.6789C71.8358 34.4937 71.7738 34.3177 71.667 34.1883C71.5601 34.0589 71.4169 33.9862 71.2676 33.9858C71.1945 33.9817 71.1216 33.9958 71.053 34.0272C70.9844 34.0587 70.9215 34.1069 70.8682 34.169C70.8149 34.2311 70.7721 34.3059 70.7424 34.3888C70.7127 34.4718 70.6967 34.5613 70.6953 34.652Z" fill="#263238"/>
<path d="M69.8503 32.592C69.923 32.6803 70.3452 32.2636 70.9608 32.2387C71.5764 32.2137 72.0434 32.5785 72.1038 32.4806C72.1347 32.4384 72.0574 32.2752 71.8563 32.0966C71.5833 31.8794 71.263 31.7721 70.9391 31.7894C70.6189 31.8015 70.31 31.94 70.0575 32.1849C69.8735 32.3808 69.8132 32.5516 69.8503 32.592Z" fill="#263238"/>
<path d="M76.3008 34.652C76.3044 34.8371 76.3661 35.0131 76.4727 35.1425C76.5793 35.272 76.7224 35.3447 76.8715 35.3451C76.9446 35.3493 77.0175 35.3352 77.0861 35.3037C77.1547 35.2722 77.2175 35.224 77.2709 35.1619C77.3242 35.0998 77.367 35.0251 77.3967 34.9421C77.4264 34.8592 77.4424 34.7697 77.4438 34.6789C77.4405 34.4925 77.3784 34.3152 77.2707 34.1851C77.1631 34.0551 77.0186 33.9828 76.8684 33.9839C76.7956 33.9805 76.723 33.9953 76.6549 34.0272C76.5867 34.0591 76.5244 34.1076 76.4715 34.1699C76.4186 34.2321 76.3763 34.3068 76.347 34.3896C76.3177 34.4724 76.302 34.5616 76.3008 34.652Z" fill="#263238"/>
<path d="M75.8886 32.6399C75.9629 32.7283 76.3851 32.3116 77.0007 32.2867C77.6163 32.2617 78.0834 32.6265 78.1437 32.5286C78.1746 32.4863 78.0988 32.3212 77.8962 32.1446C77.6235 31.9268 77.303 31.8195 76.979 31.8374C76.6583 31.8495 76.349 31.988 76.0959 32.2329C75.9134 32.4307 75.8531 32.6015 75.8886 32.6399Z" fill="#263238"/>
<path d="M73.8448 38.6092C73.8448 38.5669 73.4613 38.5016 72.838 38.4287C72.6833 38.4152 72.5286 38.3826 72.5008 38.252C72.4729 38.1215 72.5193 37.8988 72.5889 37.676C72.724 37.1973 72.8653 36.6949 73.0127 36.1688C73.5989 34.0261 74.0181 32.2655 73.9485 32.2367C73.8789 32.2079 73.3468 33.9224 72.7606 36.0671C72.6199 36.5951 72.4838 37.1 72.3569 37.582C72.3028 37.8047 72.2023 38.062 72.2966 38.35C72.3211 38.4179 72.3579 38.478 72.404 38.5256C72.4501 38.5731 72.5044 38.607 72.5627 38.6245C72.6507 38.6508 72.7412 38.6624 72.8318 38.6591C73.4566 38.6668 73.8433 38.6533 73.8448 38.6092Z" fill="#263238"/>
<path d="M74.4125 41.3989C74.5555 41.5723 74.7477 41.6689 74.9476 41.6677C75.1588 41.6618 75.3598 41.5537 75.5075 41.3663C75.7736 41.0629 75.8246 40.5714 75.7736 40.1509C75.7657 40.0787 75.7445 40.0097 75.7117 39.9493C75.7101 39.9106 75.7039 39.8724 75.6931 39.836C75.6576 39.7232 75.6039 39.6205 75.5353 39.5343C75.4667 39.4481 75.3846 39.3803 75.2941 39.3349C75.1079 39.245 74.9032 39.2329 74.711 39.3004C74.5531 39.3665 74.4133 39.4863 74.3074 39.6462C74.2016 39.806 74.1341 39.9995 74.1124 40.2047C74.0842 40.419 74.0966 40.6385 74.1487 40.8459C74.2007 41.0532 74.2911 41.2426 74.4125 41.3989Z" fill="#FF9A6C"/>
<path d="M75.8735 39.2909C75.7776 39.2563 75.623 40.0589 74.9563 40.4736C74.2897 40.8883 73.6138 40.5926 73.5875 40.704C73.569 40.752 73.7113 40.9056 74.0036 41.0016C74.3836 41.1191 74.7848 41.0675 75.1373 40.8557C75.4754 40.6508 75.7361 40.2907 75.8642 39.8515C75.9539 39.5213 75.9184 39.3005 75.8735 39.2909Z" fill="#263238"/>
<path d="M75.7307 29.9999C75.7972 30.2054 76.4081 30.0806 77.1351 30.1574C77.862 30.2342 78.4513 30.455 78.541 30.263C78.5827 30.1727 78.4745 29.9807 78.2317 29.7906C77.9101 29.5587 77.5502 29.4208 77.1792 29.3875C76.8083 29.3543 76.4361 29.4265 76.0911 29.5986C75.8297 29.735 75.7013 29.9039 75.7307 29.9999Z" fill="#263238"/>
<path d="M70.0136 29.7601C70.1265 29.929 70.5456 29.7293 71.056 29.7005C71.5664 29.6717 72.0011 29.7754 72.0954 29.5892C72.1372 29.5009 72.0645 29.3281 71.8711 29.1725C71.6119 28.9868 71.3141 28.9006 71.0154 28.9249C70.7167 28.9492 70.4306 29.0828 70.193 29.3089C70.0182 29.5028 69.9641 29.6852 70.0136 29.7601Z" fill="#263238"/>
<path d="M82.5168 35.1783C82.5833 35.1399 85.242 34.0494 85.2497 37.4535C85.2575 40.8577 82.5013 40.1665 82.4967 40.0686C82.492 39.9706 82.5168 35.1783 82.5168 35.1783Z" fill="#FFBF9D"/>
<path d="M83.3306 38.784C83.3414 38.7725 83.3786 38.8244 83.459 38.8704C83.5736 38.9278 83.7016 38.9278 83.8163 38.8704C84.1055 38.738 84.3483 38.1658 84.3607 37.5514C84.3663 37.2595 84.3199 36.9697 84.2246 36.7028C84.1984 36.5968 84.152 36.5002 84.0892 36.4213C84.0265 36.3424 83.9493 36.2835 83.8642 36.2496C83.8093 36.2313 83.751 36.2377 83.6995 36.2675C83.648 36.2974 83.6066 36.3488 83.5827 36.4128C83.5456 36.5088 83.5642 36.576 83.5487 36.5818C83.5332 36.5876 83.4899 36.5242 83.5116 36.3898C83.5266 36.3053 83.5649 36.23 83.6198 36.1767C83.6568 36.1412 83.6991 36.1152 83.7442 36.1C83.7893 36.0849 83.8364 36.0809 83.8828 36.0884C83.9955 36.1156 84.1008 36.1783 84.1885 36.2704C84.2762 36.3625 84.3435 36.4809 84.3839 36.6144C84.5015 36.9088 84.5589 37.2345 84.5509 37.5629C84.5355 38.2503 84.254 38.8916 83.858 39.0356C83.7844 39.0627 83.7068 39.0688 83.631 39.0535C83.5552 39.0382 83.4832 39.0019 83.4203 38.9472C83.3352 38.857 83.3213 38.784 83.3306 38.784Z" fill="#FF9A6C"/>
<path d="M79.0988 27.0721C79.4236 26.6708 79.8953 26.5249 80.3485 26.4577C81.5385 26.282 82.7443 26.5248 83.8285 27.1585C84.393 27.4906 84.9375 27.9514 85.2422 28.6292C85.5469 29.3069 85.5515 30.2343 85.1215 30.7969C85.5281 31.093 85.8329 31.5642 85.9779 32.121C86.123 32.6778 86.0981 33.2814 85.9082 33.8169C85.7183 34.3525 85.3764 34.7828 84.9477 35.026C84.5189 35.2692 84.0331 35.3084 83.5826 35.1361C83.5618 35.3966 83.4883 35.6463 83.3687 35.862C83.2492 36.0776 83.0876 36.2522 82.899 36.3693C82.7105 36.4865 82.501 36.5424 82.2903 36.5319C82.0796 36.5213 81.8745 36.4447 81.6941 36.3092C81.5059 36.1604 81.3391 35.9735 81.2007 35.7562C80.6764 34.921 80.6238 33.337 80.7677 32.3002C80.4925 32.2875 80.2232 32.1976 79.98 32.0373C79.7368 31.8771 79.526 31.6505 79.3633 31.3748C79.0414 30.8191 78.8295 30.1771 78.7446 29.5009C78.6085 28.6484 78.6132 27.6749 79.0988 27.0721Z" fill="#263238"/>
<path d="M80.0982 18.0595C80.2854 18.1075 84.7831 19.7645 85.6987 24.0825C86.6143 28.4006 86.2106 29.6697 86.2106 29.6697C86.3806 29.825 86.5321 30.0092 86.6607 30.2169C86.8355 30.5107 86.4859 31.8182 85.8982 31.6185C81.5675 28.8 76.3089 28.1165 70.4083 27.8573L65.9075 27.4157C64.6377 27.4944 64.217 27.0413 64.7692 26.6918C65.193 26.4249 68.8679 24.9369 68.8679 24.9369L69.6056 24.3609L71.6364 21.312C71.6364 21.312 71.4307 20.8473 71.9055 20.5152C72.3803 20.183 76.4063 17.1091 80.0982 18.0595Z" fill="#EF233C"/>
<g opacity="0.3">
<path d="M84.1377 20.8935C84.1377 20.8935 79.2688 19.4996 76.9952 20.6324L77.2596 20.4942L75.116 21.4542C74.754 21.6174 74.3318 21.7729 74.0039 21.5233C74.0039 21.5233 75.1825 20.3713 77.2875 19.6801C79.3925 18.9889 82.6776 18.889 84.1377 20.8935Z" fill="black"/>
</g>
<path d="M84.2035 20.9279C84.0712 20.7871 83.9306 20.6587 83.7828 20.5439C83.3815 20.2121 82.9501 19.9402 82.4976 19.7337C81.8267 19.4257 81.1234 19.2407 80.4096 19.1846C79.534 19.0867 78.6516 19.2229 77.822 19.5839C77.3985 19.7854 76.9853 20.0188 76.5847 20.2828C76.198 20.5382 75.8113 20.759 75.4695 21.0163C75.1532 21.2744 74.82 21.4992 74.4735 21.6883C74.1665 21.8329 73.8367 21.8875 73.5099 21.8476C72.2988 21.7689 71.5735 21.3983 71.6322 21.3062C71.6488 21.3611 71.6814 21.4063 71.7235 21.4329C71.8374 21.5161 71.9596 21.5807 72.0869 21.6249C72.5499 21.7886 73.0261 21.8877 73.5068 21.9206C73.8419 21.9657 74.1808 21.9131 74.4967 21.767C74.8477 21.5802 75.1851 21.356 75.5051 21.0969C75.8484 20.8454 76.232 20.6246 76.6187 20.3711C77.0158 20.1095 77.4254 19.878 77.8452 19.678C78.6641 19.3164 79.5358 19.1763 80.4018 19.2671C81.11 19.3165 81.8086 19.4931 82.4759 19.7913C82.9267 19.9907 83.3582 20.2515 83.7627 20.5689C83.9066 20.6803 84.0148 20.7743 84.0875 20.8396C84.1602 20.9049 84.2035 20.9279 84.2035 20.9279Z" fill="#263238"/>
<g opacity="0.3">
<path d="M86.0317 25.8816C85.1501 25.801 84.4958 25.4612 83.6328 25.152C82.7048 24.8218 81.7984 24.5453 80.8936 24.1613C80.2054 23.8695 79.3887 23.5853 78.9649 22.9268C78.9191 23.1379 78.9179 23.3602 78.9616 23.5721C79.0052 23.784 79.0921 23.9784 79.214 24.1364C79.4645 24.4781 80.3136 24.9293 80.6663 25.081C82.6769 25.9412 84.0689 26.521 86.177 26.8781C86.1464 26.5423 86.0978 26.2095 86.0317 25.8816Z" fill="black"/>
</g>
<path d="M85.5796 23.6159C86.1225 23.9635 86.455 24.1919 86.4395 24.7871C86.4271 25.2806 86.3142 25.8758 85.9198 25.9295C85.7981 25.9361 85.6764 25.9147 85.561 25.8662L79.5522 23.8425C79.3425 23.8021 79.1506 23.6724 79.0093 23.4758C78.8268 23.1436 78.997 22.6559 79.2769 22.4524C79.5569 22.2489 79.8956 22.2604 80.2219 22.2719C82.0609 22.3814 83.8303 22.9055 85.5796 23.6159Z" fill="#EF233C"/>
<path d="M79.0975 23.5852C79.0207 23.492 78.9671 23.3734 78.9428 23.2435C78.9187 23.0685 78.9341 22.8887 78.9873 22.724C79.0406 22.5593 79.1296 22.4161 79.2444 22.3104C79.5538 22.0569 80.0085 22.0032 80.4818 22.0742C80.955 22.1452 81.5041 22.2316 82.0624 22.3449C83.0174 22.5279 83.9573 22.8158 84.8712 23.2051C85.2207 23.3568 85.4899 23.5027 85.6878 23.6025L85.9075 23.7216C85.9318 23.738 85.9578 23.7502 85.9848 23.758C85.9629 23.7373 85.939 23.7199 85.9136 23.7062L85.7002 23.5699C85.5131 23.4585 85.2362 23.303 84.8898 23.1417C83.977 22.7323 83.0342 22.4346 82.0748 22.2528C81.5134 22.1376 80.9782 22.0608 80.4879 21.9878C79.9977 21.9148 79.5259 21.9878 79.2073 22.2566C79.0859 22.3694 78.9933 22.5231 78.9404 22.6995C78.8874 22.8758 78.8765 23.0673 78.9088 23.2512C78.9283 23.3495 78.9659 23.4408 79.0186 23.518C79.0727 23.568 79.0959 23.5891 79.0975 23.5852Z" fill="#263238"/>
<path d="M70.9989 22.2661L74.8362 22.4831L74.4418 23.7964L70.2812 23.3452L70.9989 22.2661Z" fill="white"/>
<path d="M76.5701 26.9644C76.5701 26.9375 74.8827 26.4959 72.7916 25.9737C70.7005 25.4514 69.0007 25.0521 68.9961 25.077C68.9915 25.102 70.6835 25.5455 72.7762 26.0678C74.8688 26.59 76.5608 26.9894 76.5701 26.9644Z" fill="#263238"/>
<path d="M71.7031 51.5481L72.7858 49.1212L76.9572 55.7452L82.7711 46.8364L83.6217 49.5532L79.1117 59.3471L77.1984 56.1273L76.7437 56.2099L75.1661 59.614L71.7031 51.5481Z" fill="#E0E0E0"/>
<path d="M80.7241 56.4039C80.6884 56.4899 80.6471 56.5721 80.6003 56.6496C80.5168 56.8051 80.3962 57.0336 80.2523 57.3139C79.8734 58.0582 79.536 58.8338 79.2424 59.6352L79.2114 59.7178L79.1712 59.641L79.0521 59.4067C78.5603 58.4871 78.0592 57.6999 77.722 57.1027C77.5503 56.809 77.4127 56.5671 77.3291 56.3962C77.2788 56.3107 77.2353 56.2194 77.1992 56.1235C77.2557 56.2018 77.3074 56.2853 77.3539 56.3731L77.7668 57.0624C78.1164 57.6384 78.6252 58.4218 79.1186 59.3491C79.1604 59.4298 79.2022 59.5085 79.2393 59.5834H79.1697C79.4641 58.778 79.8106 58.0036 80.2059 57.2679C80.3606 56.9875 80.4843 56.7667 80.5756 56.6189C80.6201 56.5422 80.6698 56.4702 80.7241 56.4039Z" fill="#263238"/>
<path d="M85.4404 31.3862C85.483 31.4274 85.52 31.4767 85.5502 31.5321C85.6407 31.6765 85.7171 31.8338 85.7776 32.0006C85.9881 32.5559 86.0371 33.1844 85.9164 33.7795C85.7957 34.3745 85.5128 34.8993 85.1156 35.2646C84.9985 35.375 84.8713 35.4678 84.7367 35.5411C84.6883 35.573 84.6361 35.5951 84.582 35.6064C84.7548 35.4884 84.9207 35.3556 85.0785 35.209C85.4521 34.842 85.7178 34.3323 85.8344 33.7588C85.951 33.1854 85.912 32.5802 85.7235 32.0371C85.6417 31.8121 85.5471 31.5945 85.4404 31.3862Z" fill="#455A64"/>
<path d="M76.7465 56.2098C76.7465 56.2098 76.7465 56.2348 76.7264 56.279L76.6568 56.471C76.5934 56.6418 76.5022 56.8895 76.3692 57.1986C76.0186 58.0382 75.6281 58.8511 75.1999 59.6332L75.1689 59.7119L75.1396 59.6447L74.1791 57.4386C73.5047 55.8758 72.8953 54.4607 72.4499 53.422C72.2349 52.9151 72.0601 52.4985 71.9333 52.2009L71.7972 51.8649C71.78 51.8269 71.7655 51.787 71.7539 51.7458C71.776 51.7797 71.7952 51.8164 71.8111 51.8553L71.9658 52.1817L72.504 53.3894L74.2409 57.383C74.5781 58.1663 74.9014 58.919 75.1952 59.5929H75.1318C75.5621 58.8158 75.9596 58.0115 76.3228 57.1833L76.6321 56.469L76.7125 56.277C76.7213 56.2528 76.7328 56.2302 76.7465 56.2098Z" fill="#263238"/>
<path d="M60.6485 67.4802L58.4228 75.3983L55.0882 70.5829L50.6523 74.0025L56.2961 83.374C57.8242 86.0773 60.3453 86.926 61.7234 86.517C64.5321 85.6857 66.0278 81.1717 66.0278 81.1717L66.0107 76.8479L65.4122 70.4351L60.6485 67.4802Z" fill="#455A64"/>
<path d="M60.7344 59.3472C60.7344 59.3472 69.3045 70.9056 71.063 73.0233C71.9013 74.0332 73.6738 75.3888 73.6738 75.3888L71.0166 75.7728L60.7344 59.3472Z" fill="#E0E0E0"/>
<g opacity="0.3">
<path d="M58.1523 76.608C58.1523 76.608 61.6664 77.6237 64.0637 77.7869C66.461 77.9501 72.725 77.9002 72.725 77.9002L71.4877 76.585L58.1523 76.608Z" fill="black"/>
</g>
<path d="M60.1458 57.8572L44.7812 57.3906L58.1475 76.6137L72.3289 77.0937L60.1458 57.8572Z" fill="#263238"/>
<path d="M53.5256 64.9996C53.5264 64.8764 53.5065 64.7544 53.4671 64.6414C53.4278 64.5284 53.3699 64.4268 53.2971 64.3431C53.2243 64.2594 53.1382 64.1955 53.0444 64.1555C52.9506 64.1155 52.8511 64.1002 52.7523 64.1106C52.5265 64.1317 52.2311 64.1663 51.8676 64.2277C50.9303 64.3832 48.1834 66.1996 48.1277 66.8908C48.0458 67.9045 48.468 68.277 48.468 68.277C48.468 68.277 47.9468 69.1948 48.168 69.9282C48.3567 70.556 49.181 70.7404 49.181 70.7404C49.181 70.7404 48.5979 71.6428 49.2413 72.2418C49.4656 72.4492 49.9141 72.8466 50.0147 72.9829C50.0594 73.1693 50.1217 73.3484 50.2003 73.5167C50.3451 73.7518 50.5291 73.9454 50.7397 74.0842C50.9503 74.2231 51.1826 74.3039 51.4206 74.3212L51.5753 74.3327C51.8778 74.3547 52.1759 74.2348 52.4105 73.9967C53.473 72.9157 56.4767 69.7919 56.5169 68.9586C56.5169 68.9586 57.0891 68.3653 56.8401 67.7797C56.5911 67.1941 55.7234 67.4898 55.7234 67.4898C55.841 67.366 55.9233 67.1986 55.9584 67.0123C55.9935 66.826 55.9794 66.6306 55.9183 66.4549C55.6987 65.8386 54.1443 65.9576 53.4436 66.1016C52.8837 66.2149 51.3216 66.597 51.3216 66.597C51.3216 66.597 53.388 65.6216 53.4993 65.1743C53.5136 65.1175 53.5224 65.0589 53.5256 64.9996Z" fill="#FFBF9D"/>
<path d="M56.5242 68.9587C56.4588 69.0211 56.3895 69.077 56.3169 69.1258C56.1824 69.2275 55.9828 69.3696 55.7323 69.5347C55.2343 69.8688 54.5274 70.2912 53.7309 70.7098C52.9344 71.1283 52.2012 71.4778 51.6676 71.7063C51.4016 71.8234 51.1851 71.9155 51.0335 71.9751C50.9571 72.0128 50.8778 72.0411 50.7969 72.0595C50.8701 72.0126 50.9461 71.9728 51.0242 71.9405L51.6429 71.641C52.1719 71.3895 52.9003 71.04 53.6953 70.6215C54.4903 70.2029 55.1971 69.792 55.706 69.4695C55.9581 69.312 56.1607 69.1795 56.3015 69.0855C56.3726 69.0353 56.4471 68.9929 56.5242 68.9587Z" fill="#FF9A6C"/>
<path d="M55.8335 67.4631C55.7594 67.4938 55.6834 67.5169 55.6062 67.5323C55.4608 67.5745 55.2474 67.6321 54.9875 67.7243C54.4678 67.8875 53.7595 68.1639 52.9861 68.5019C52.5995 68.6708 52.2267 68.8225 51.9035 68.9819C51.5802 69.1412 51.2848 69.3025 51.0373 69.4427C50.7899 69.5828 50.6012 69.7076 50.4682 69.7921C50.401 69.8421 50.3307 69.8851 50.2578 69.9207C50.2722 69.903 50.2883 69.8875 50.3058 69.8747C50.3382 69.8478 50.3877 69.8075 50.4527 69.7595C50.5826 69.6635 50.7729 69.531 51.0141 69.3755C51.2554 69.2199 51.5462 69.0587 51.8772 68.8935C52.2082 68.7284 52.5794 68.5748 52.9598 68.4039C53.6187 68.109 54.2899 67.8584 54.9705 67.6532C55.2334 67.5764 55.4484 67.5284 55.5969 67.4977C55.6747 67.4769 55.754 67.4654 55.8335 67.4631Z" fill="#FF9A6C"/>
<path d="M51.3238 66.5972C51.2215 66.6909 51.111 66.7701 50.9944 66.8333C50.784 66.9658 50.4886 67.1329 50.1638 67.3153C49.839 67.4977 49.5452 67.6743 49.3379 67.8068C49.2288 67.887 49.1145 67.9557 48.9961 68.0122C49.09 67.9084 49.1939 67.8194 49.3054 67.7473C49.5711 67.5567 49.8448 67.3836 50.1252 67.2288C50.4515 67.0368 50.7438 66.8871 50.9635 66.7719C51.0786 66.699 51.1993 66.6405 51.3238 66.5972Z" fill="#FF9A6C"/>
<path d="M55.5819 70.5178C55.5415 70.5928 55.4949 70.6623 55.4427 70.7252C55.3484 70.8557 55.2076 71.0381 55.0282 71.2551C54.6709 71.6948 54.1451 72.2573 53.5805 72.8967C53.4398 73.0561 53.3068 73.2212 53.1676 73.3671C53.0335 73.5074 52.8936 73.6388 52.7484 73.7607C52.5029 73.9691 52.2325 74.1285 51.9472 74.233C51.7553 74.3046 51.5551 74.3357 51.3549 74.3252C51.303 74.3228 51.2513 74.3158 51.2002 74.3041C51.1631 74.2964 51.1445 74.2906 51.1445 74.2868C51.1445 74.2772 51.2234 74.2868 51.3626 74.2868C51.5587 74.2839 51.7532 74.2437 51.9395 74.1677C52.2149 74.055 52.4755 73.8926 52.7128 73.6858C52.8541 73.5664 52.9904 73.4383 53.1212 73.3018C53.2573 73.1578 53.3887 72.9927 53.531 72.8314C54.0971 72.1901 54.6276 71.6372 54.9942 71.2129C55.1782 71.0017 55.3236 70.8289 55.4242 70.706C55.4722 70.6377 55.525 70.5747 55.5819 70.5178Z" fill="#FF9A6C"/>
<path d="M55.7411 57.1929L48.9961 57.0873C48.9634 57.0816 48.9301 57.0892 48.9011 57.1088C48.8721 57.1283 48.8489 57.1589 48.8349 57.196C48.8209 57.2332 48.8168 57.2749 48.8233 57.3151C48.8298 57.3553 48.8464 57.3918 48.8708 57.4194L50.3402 59.5545L56.9908 59.8041C57.0217 59.8081 57.0529 59.8005 57.0802 59.7823C57.1076 59.7641 57.1299 59.736 57.1442 59.7019C57.1586 59.6677 57.1643 59.6289 57.1607 59.5907C57.157 59.5524 57.1442 59.5164 57.1239 59.4873L55.8649 57.2773C55.8511 57.2521 55.8327 57.2312 55.8112 57.2165C55.7897 57.2018 55.7657 57.1937 55.7411 57.1929Z" fill="#E0E0E0"/>
<path d="M50.3069 59.6448L48.8159 57.479C48.7859 57.4364 48.7665 57.3838 48.7601 57.3277C48.7537 57.2717 48.7606 57.2145 48.78 57.1632C48.7993 57.1119 48.8303 57.0687 48.8691 57.0389C48.9079 57.009 48.9528 56.9939 48.9984 56.9952L55.7419 57.1008C55.7791 57.1012 55.8158 57.1126 55.8489 57.1339C55.8819 57.1553 55.9105 57.186 55.9321 57.2237L57.1911 59.4336C57.216 59.4776 57.2307 59.5292 57.2336 59.5828C57.2365 59.6365 57.2275 59.6901 57.2076 59.7378C57.1877 59.7855 57.1575 59.8256 57.1206 59.8535C57.0836 59.8814 57.0411 59.8963 56.9978 59.8963L50.3069 59.6448ZM55.7465 57.2851L49.0031 57.1795C48.9861 57.1793 48.9695 57.1851 48.9552 57.1963C48.9408 57.2075 48.9294 57.2235 48.9222 57.2426C48.915 57.2616 48.9124 57.2828 48.9147 57.3036C48.917 57.3244 48.924 57.344 48.935 57.36L50.3827 59.4624L57.0055 59.712C57.0214 59.7123 57.0371 59.7068 57.0505 59.6962C57.064 59.6857 57.0747 59.6705 57.0813 59.6525C57.09 59.6355 57.0946 59.6159 57.0946 59.5958C57.0946 59.5758 57.09 59.5561 57.0813 59.5392L55.8239 57.3312C55.815 57.3162 55.8033 57.3042 55.7898 57.2962C55.7763 57.2881 55.7615 57.2843 55.7465 57.2851Z" fill="#263238"/>
<path d="M61.4347 80.8166C61.4563 80.4557 61.4599 80.0934 61.4456 79.7318C61.3945 78.8583 61.1558 78.0177 60.7543 77.2974C60.3528 76.5772 59.8032 76.0037 59.1627 75.6365C58.8953 75.4906 58.6204 75.3668 58.3398 75.2659C58.3604 75.2629 58.3812 75.2629 58.4017 75.2659C58.4404 75.2755 58.4992 75.2832 58.5734 75.3082C58.7854 75.3699 58.9925 75.4554 59.1921 75.5635C59.8519 75.9196 60.4185 76.4971 60.8284 77.2311C61.2383 77.9651 61.475 78.8265 61.5121 79.7184C61.5251 79.9862 61.5178 80.2549 61.4904 80.521C61.4836 80.5932 61.4738 80.665 61.461 80.736C61.4554 80.7643 61.4465 80.7914 61.4347 80.8166Z" fill="#263238"/>
<path d="M84.3008 65.4489C84.3008 65.4489 87.6663 75.7958 89.1929 79.5283C90.7751 83.3971 93.1245 89.879 97.8357 86.4902C101.688 83.7177 98.1976 69.1583 98.1976 69.1583L94.73 71.1033L89.6012 60.9158L84.3008 65.4489Z" fill="#455A64"/>
<path d="M86.2812 48.7911C86.2618 48.7174 86.2299 48.6498 86.1878 48.5926C86.1456 48.5355 86.0942 48.4901 86.0368 48.4596C85.9794 48.4291 85.9175 48.4141 85.8551 48.4156C85.7927 48.4172 85.7312 48.4352 85.6749 48.4685C85.3176 48.6778 84.7917 49.1789 84.668 50.3232C84.4747 52.0954 84.7407 53.3472 84.4066 53.8099C84.0725 54.2727 79.8749 54.6432 79.5501 55.4035C79.2253 56.1639 79.4217 56.7994 79.4078 57.1738C79.4022 57.3081 79.357 57.4352 79.281 57.5309C79.0907 57.7728 78.769 58.3181 79.0768 58.9767C79.1156 59.0574 79.1375 59.1489 79.1404 59.2428C79.1434 59.3367 79.1274 59.43 79.0938 59.5143C78.9701 59.8215 78.8727 60.3533 79.3057 60.9024C79.3471 60.9529 79.3802 61.0129 79.4032 61.0791C79.53 61.4439 80.0218 62.7399 80.7194 62.9991C81.2442 63.175 81.788 63.2482 82.331 63.216C82.4409 63.2117 82.5481 63.259 82.6311 63.3485C82.9852 63.7325 84.1607 64.6637 84.5087 65.2282C84.5087 65.2282 88.8394 61.4688 89.1131 61.2922C89.1131 61.2922 87.1612 57.5943 87.0623 55.8989C86.9586 54.0903 86.0415 51.984 86.2889 50.2887C86.3956 49.5533 86.3585 49.0848 86.2812 48.7911Z" fill="#FFBF9D"/>
<path d="M84.3008 65.449C84.3008 65.449 84.3008 65.4394 84.324 65.424L84.3967 65.3549L84.6859 65.0995L85.7763 64.1511L89.5796 60.8775L89.6105 60.8506L89.6321 60.8909C90.1905 61.9565 90.7952 63.1277 91.4185 64.3469L95.0687 71.616C95.5327 72.5395 95.9162 73.2883 96.1823 73.8106L96.4916 74.4096L96.5689 74.5651C96.5784 74.5825 96.5862 74.6012 96.5921 74.6208C96.5816 74.6049 96.5718 74.5882 96.5628 74.5709L96.4792 74.4192C96.4034 74.281 96.2983 74.0832 96.1699 73.8317C95.8992 73.321 95.5095 72.5779 95.0347 71.6544C94.0819 69.8112 92.7997 67.2384 91.3644 64.4083C90.7457 63.1815 90.1379 62.0083 89.5827 60.9408L89.6352 60.9543L85.8165 64.1991L84.7137 65.1245L84.4183 65.3683L84.341 65.4298L84.3008 65.449Z" fill="#263238"/>
<path d="M98.7202 76.533C98.6873 76.4794 98.6593 76.4215 98.6367 76.3602C98.5794 76.2258 98.5114 76.0665 98.4325 75.8783C98.2177 75.3444 97.9585 74.8399 97.6592 74.373C97.3544 73.9121 96.968 73.5448 96.5301 73.2997C96.3449 73.2106 96.1547 73.1388 95.9609 73.0847C96.0151 73.0769 96.07 73.0802 96.1233 73.0943C96.2699 73.1211 96.4136 73.1681 96.5518 73.2345C97.0069 73.466 97.4083 73.8349 97.7195 74.3077C98.0273 74.7782 98.287 75.2941 98.4928 75.8437C98.5733 76.0511 98.6336 76.2277 98.6738 76.341C98.6964 76.402 98.712 76.4666 98.7202 76.533Z" fill="#263238"/>
</svg>
