<svg width="116" height="116" viewBox="0 0 116 116" fill="none" xmlns="http://www.w3.org/2000/svg">
<path d="M116 88.7168H0V88.7748H116V88.7168Z" fill="#EBEBEB"/>
<path d="M104.375 92.4497H96.6914V92.5077H104.375V92.4497Z" fill="#EBEBEB"/>
<path d="M93.7717 92.4497H77.3438V92.5077H93.7717V92.4497Z" fill="#EBEBEB"/>
<path d="M68.2841 90.2966H63.832V90.3546H68.2841V90.2966Z" fill="#EBEBEB"/>
<path d="M20.1272 90.6865H12.1719V90.7445H20.1272V90.6865Z" fill="#EBEBEB"/>
<path d="M36.6566 90.6865H22.1914V90.7445H36.6566V90.6865Z" fill="#EBEBEB"/>
<path d="M52.2313 91.6655H43.6914V91.7235H52.2313V91.6655Z" fill="#EBEBEB"/>
<path d="M54.9826 78.3696H10.1857C9.83475 78.369 9.49839 78.2292 9.25046 77.9808C9.00253 77.7324 8.86328 77.3958 8.86328 77.0449V14.0731C8.86634 13.7242 9.00693 13.3906 9.25454 13.1447C9.50214 12.8989 9.83675 12.7606 10.1857 12.76H54.9826C55.3339 12.76 55.6709 12.8996 55.9193 13.148C56.1677 13.3964 56.3073 13.7334 56.3073 14.0847V77.0449C56.3073 77.3962 56.1677 77.7332 55.9193 77.9816C55.6709 78.23 55.3339 78.3696 54.9826 78.3696ZM10.1857 12.8064C9.85013 12.807 9.52853 12.9408 9.29147 13.1782C9.05442 13.4157 8.92128 13.7376 8.92128 14.0731V77.0449C8.92128 77.3804 9.05442 77.7023 9.29147 77.9398C9.52853 78.1773 9.85013 78.311 10.1857 78.3116H54.9826C55.3183 78.311 55.6402 78.1773 55.8776 77.9399C56.115 77.7025 56.2487 77.3807 56.2493 77.0449V14.0731C56.2487 13.7374 56.115 13.4155 55.8776 13.1781C55.6402 12.9407 55.3183 12.807 54.9826 12.8064H10.1857Z" fill="#EBEBEB"/>
<path d="M105.167 78.3696H60.3677C60.0165 78.369 59.68 78.2292 59.4317 77.9809C59.1834 77.7326 59.0436 77.396 59.043 77.0449V14.0731C59.0466 13.724 59.1877 13.3904 59.4357 13.1446C59.6837 12.8988 60.0185 12.7606 60.3677 12.76H105.167C105.515 12.7612 105.849 12.8997 106.097 13.1455C106.344 13.3913 106.484 13.7246 106.487 14.0731V77.0449C106.487 77.3954 106.348 77.7317 106.101 77.98C105.853 78.2283 105.517 78.3684 105.167 78.3696ZM60.3677 12.8064C60.0319 12.807 59.7101 12.9407 59.4727 13.1781C59.2352 13.4155 59.1016 13.7374 59.101 14.0731V77.0449C59.1016 77.3807 59.2352 77.7025 59.4727 77.9399C59.7101 78.1773 60.0319 78.311 60.3677 78.3116H105.167C105.503 78.311 105.824 78.1773 106.062 77.9399C106.299 77.7025 106.433 77.3807 106.434 77.0449V14.0731C106.433 13.7374 106.299 13.4155 106.062 13.1781C105.824 12.9407 105.503 12.807 105.167 12.8064H60.3677Z" fill="#EBEBEB"/>
<path d="M78.1822 87.4131H82.4766V56.1928H78.1822V87.4131Z" fill="#F0F0F0"/>
<path d="M34.3475 88.7146H81.6523V87.4131H34.3475V88.7146Z" fill="#F0F0F0"/>
<path d="M78.1834 56.1951H33.5234V87.4153H78.1834V56.1951Z" fill="#F5F5F5"/>
<path d="M78.1822 56.1951H82.4766V55.0583H78.1822V56.1951Z" fill="#E6E6E6"/>
<path d="M78.1834 55.0583H33.5234V56.1951H78.1834V55.0583Z" fill="#F0F0F0"/>
<path d="M76.6385 65.6097H35.0664V58.5801H76.6385V65.6097ZM35.3541 65.3197H76.3508V58.8701H35.3541V65.3197Z" fill="#E0E0E0"/>
<path d="M76.6385 85.0279H35.0664V67.3333H76.6385V85.0279ZM35.3541 84.7402H76.3508V67.6209H35.3541V84.7402Z" fill="#E0E0E0"/>
<path d="M40.6679 59.6494L71.0391 59.6494V58.7261L40.6679 58.7261V59.6494Z" fill="#E0E0E0"/>
<path d="M40.6679 68.4006H71.0391V67.4773H40.6679V68.4006Z" fill="#E0E0E0"/>
<path d="M97.648 87.8885C97.5568 87.8879 97.4694 87.8512 97.4051 87.7864C97.3408 87.7216 97.3047 87.6341 97.3047 87.5428V33.9322C97.3047 33.8412 97.3409 33.7538 97.4053 33.6894C97.4696 33.625 97.557 33.5889 97.648 33.5889C97.7391 33.5889 97.8264 33.625 97.8908 33.6894C97.9552 33.7538 97.9914 33.8412 97.9914 33.9322V87.5428C97.9914 87.6341 97.9553 87.7216 97.891 87.7864C97.8267 87.8512 97.7393 87.8879 97.648 87.8885Z" fill="#F5F5F5"/>
<path d="M96.9576 87.0581H98.3496C98.5994 87.0581 98.8389 87.1573 99.0156 87.334C99.1922 87.5106 99.2915 87.7502 99.2915 88V88.7146H96.0156V88C96.0156 87.7502 96.1149 87.5106 96.2915 87.334C96.4682 87.1573 96.7077 87.0581 96.9576 87.0581Z" fill="#F0F0F0"/>
<path d="M90.9766 41.0639C90.9766 41.0639 91.1459 34.5029 97.6489 34.5029C104.152 34.5029 104.324 41.0639 104.324 41.0639H90.9766Z" fill="#E0E0E0"/>
<path d="M18.3496 87.8885C18.2579 87.8885 18.17 87.852 18.1052 87.7872C18.0403 87.7224 18.0039 87.6345 18.0039 87.5428V33.9322C18.0045 33.8409 18.0412 33.7536 18.106 33.6893C18.1707 33.625 18.2583 33.5889 18.3496 33.5889C18.4407 33.5889 18.528 33.625 18.5924 33.6894C18.6568 33.7538 18.6929 33.8412 18.6929 33.9322V87.5428C18.6929 87.6341 18.6568 87.7216 18.5925 87.7864C18.5282 87.8512 18.4409 87.8879 18.3496 87.8885Z" fill="#F5F5F5"/>
<path d="M17.6607 87.0581H19.0527C19.3025 87.0581 19.5421 87.1573 19.7187 87.334C19.8954 87.5106 19.9946 87.7502 19.9946 88V88.7146H16.7188V88C16.7188 87.8763 16.7431 87.7539 16.7904 87.6396C16.8378 87.5253 16.9072 87.4215 16.9946 87.334C17.0821 87.2465 17.1859 87.1771 17.3002 87.1298C17.4145 87.0825 17.537 87.0581 17.6607 87.0581Z" fill="#F0F0F0"/>
<path d="M11.6758 41.0639C11.6758 41.0639 11.8451 34.5029 18.3504 34.5029C24.8557 34.5029 25.0227 41.0639 25.0227 41.0639H11.6758Z" fill="#E0E0E0"/>
<path d="M66.3639 54.5664H49.8594V55.0582H66.3639V54.5664Z" fill="#E0E0E0"/>
<path d="M66.3639 54.5663H49.8594L51.4463 45.1169H67.9507L66.3639 54.5663Z" fill="#E0E0E0"/>
<path d="M66.0592 54.5663H49.5547L51.1416 45.1169H67.646L66.0592 54.5663Z" fill="#EBEBEB"/>
<path d="M50.1791 53.824L51.5293 45.7899C51.5371 45.7403 51.5625 45.6952 51.6009 45.6628C51.6392 45.6304 51.6879 45.6129 51.7381 45.6135H66.8181C66.8488 45.6135 66.8792 45.6201 66.9071 45.6329C66.935 45.6458 66.9597 45.6646 66.9796 45.688C66.9995 45.7114 67.014 45.7389 67.0222 45.7685C67.0304 45.7981 67.032 45.8292 67.0269 45.8595L65.6767 53.8936C65.6685 53.9432 65.643 53.9883 65.6048 54.021C65.5666 54.0537 65.5181 54.0718 65.4679 54.0723H50.3879C50.3569 54.0724 50.3263 54.0657 50.2982 54.0527C50.2701 54.0397 50.2453 54.0207 50.2253 53.997C50.2054 53.9734 50.1909 53.9456 50.1829 53.9157C50.175 53.8858 50.1736 53.8545 50.1791 53.824Z" fill="#FAFAFA"/>
<path d="M62.6295 54.5664H46.125V55.0582H62.6295V54.5664Z" fill="#F0F0F0"/>
<path d="M79.5516 20.3604H35.8242V34.4938H79.5516V20.3604Z" fill="#EBEBEB"/>
<path d="M79.5494 34.4915H80.1758V20.358H79.5494V34.4915Z" fill="#E0E0E0"/>
<path d="M77.6353 22.2744H37.7383V32.5775H77.6353V22.2744Z" fill="white"/>
<path d="M60.0892 27.4261L57.6875 25.0244L55.2858 27.4261L57.6875 29.8278L60.0892 27.4261Z" fill="#F5F5F5"/>
<path d="M53.64 27.4261L51.2383 25.0244L48.8366 27.4261L51.2383 29.8278L53.64 27.4261Z" fill="#F5F5F5"/>
<path d="M47.1946 27.4258L44.793 25.0242L42.3913 27.4258L44.793 29.8275L47.1946 27.4258Z" fill="#F5F5F5"/>
<path d="M66.5345 27.4263L64.1328 25.0247L61.7311 27.4263L64.1328 29.828L66.5345 27.4263Z" fill="#F5F5F5"/>
<path d="M72.9837 27.4263L70.582 25.0247L68.1804 27.4263L70.582 29.828L72.9837 27.4263Z" fill="#F5F5F5"/>
<path d="M57.9981 99.1939C82.8412 99.1939 102.981 98.0181 102.981 96.5676C102.981 95.1172 82.8412 93.9414 57.9981 93.9414C33.155 93.9414 13.0156 95.1172 13.0156 96.5676C13.0156 98.0181 33.155 99.1939 57.9981 99.1939Z" fill="#F5F5F5"/>
<path d="M84.2021 28.5476C84.2234 28.2794 84.1885 28.0097 84.0997 27.7557C84.0109 27.5017 83.87 27.269 83.6862 27.0725C83.5024 26.876 83.2796 26.72 83.032 26.6145C82.7845 26.5089 82.5177 26.4562 82.2486 26.4596H50.1329C49.568 26.4677 49.0264 26.6861 48.6141 27.0723C48.2018 27.4584 47.9483 27.9845 47.9033 28.5476L47.1656 39.672L42.5418 73.8711C42.4967 74.1315 42.51 74.3986 42.5807 74.6532C42.6514 74.9078 42.7778 75.1436 42.9508 75.3433C43.1237 75.5431 43.3388 75.702 43.5807 75.8085C43.8225 75.915 44.085 75.9665 44.3491 75.9591H76.4672C77.0446 75.9438 77.5983 75.7264 78.0319 75.3449C78.4656 74.9634 78.7517 74.4419 78.8405 73.8711L83.4643 39.672L84.2021 28.5476Z" fill="#EF233C"/>
<path opacity="0.2" d="M84.2021 28.5476C84.2234 28.2794 84.1885 28.0097 84.0997 27.7557C84.0109 27.5017 83.87 27.269 83.6862 27.0725C83.5024 26.876 83.2796 26.72 83.032 26.6145C82.7845 26.5089 82.5177 26.4562 82.2486 26.4596H50.1329C49.568 26.4677 49.0264 26.6861 48.6141 27.0723C48.2018 27.4584 47.9483 27.9845 47.9033 28.5476L47.1656 39.672L42.5418 73.8711C42.4967 74.1315 42.51 74.3986 42.5807 74.6532C42.6514 74.9078 42.7778 75.1436 42.9508 75.3433C43.1237 75.5431 43.3388 75.702 43.5807 75.8085C43.8225 75.915 44.085 75.9665 44.3491 75.9591H76.4672C77.0446 75.9438 77.5983 75.7264 78.0319 75.3449C78.4656 74.9634 78.7517 74.4419 78.8405 73.8711L83.4643 39.672L84.2021 28.5476Z" fill="black"/>
<path d="M75.3222 75.9616H43.2041C42.9401 75.9685 42.6778 75.9167 42.4362 75.8101C42.1946 75.7034 41.9796 75.5446 41.8068 75.3449C41.6339 75.1452 41.5075 74.9097 41.4366 74.6552C41.3658 74.4008 41.3522 74.1339 41.3968 73.8736L46.0206 39.6721H82.3193L77.6956 73.8712C77.6072 74.4424 77.3213 74.9644 76.8876 75.3464C76.4539 75.7284 75.8999 75.9461 75.3222 75.9616Z" fill="#EF233C"/>
<path d="M54.9049 25.6431H50.1211V25.8751H54.9049V25.6431Z" fill="#EF233C"/>
<path d="M47.8592 26.1233L47.7617 25.9122C48.1459 25.7352 48.5637 25.6434 48.9867 25.6431V25.8751C48.5973 25.8753 48.2126 25.96 47.8592 26.1233Z" fill="#EF233C"/>
<path d="M81.1049 26.4481H48.9868C48.422 26.4562 47.8804 26.6746 47.4681 27.0608C47.0557 27.4469 46.8023 27.973 46.7573 28.5361L46.0195 39.6721H82.3182L83.0537 28.5477C83.077 28.2789 83.0438 28.0081 82.9562 27.7529C82.8685 27.4977 82.7284 27.2636 82.5448 27.0658C82.3612 26.8681 82.1383 26.7109 81.8903 26.6045C81.6423 26.4981 81.3747 26.4449 81.1049 26.4481Z" fill="#EF233C"/>
<path opacity="0.9" d="M47.8157 36.9483L48.3308 29.1694C48.3544 28.8728 48.4879 28.5958 48.705 28.3924C48.9221 28.189 49.2073 28.0739 49.5047 28.0697H80.3769C80.5187 28.0676 80.6593 28.0952 80.7898 28.1507C80.9202 28.2062 81.0376 28.2883 81.1344 28.3919C81.2312 28.4955 81.3052 28.6181 81.3518 28.752C81.3984 28.8859 81.4164 29.0281 81.4047 29.1694L80.8897 36.9483C80.8655 37.2447 80.7319 37.5214 80.5149 37.7247C80.2979 37.928 80.013 38.0432 79.7157 38.048H48.8435C48.7019 38.0498 48.5614 38.0219 48.4311 37.9663C48.3009 37.9107 48.1836 37.8285 48.0869 37.725C47.9902 37.6215 47.9161 37.499 47.8694 37.3653C47.8227 37.2315 47.8044 37.0895 47.8157 36.9483Z" fill="white"/>
<g opacity="0.4">
<path d="M78.1486 29.3436L77.7983 29.6707C77.7897 29.679 77.7795 29.6856 77.7683 29.6899C77.7572 29.6943 77.7453 29.6965 77.7333 29.6962H75.8773C75.8642 29.6965 75.8512 29.694 75.8392 29.6888C75.8272 29.6836 75.8164 29.6758 75.8077 29.666L75.5061 29.3412C75.4934 29.3277 75.485 29.3107 75.4819 29.2924C75.4787 29.2742 75.481 29.2554 75.4884 29.2383C75.4958 29.2213 75.508 29.2069 75.5235 29.1967C75.539 29.1865 75.5572 29.1811 75.5757 29.1812H78.0883C78.107 29.1814 78.1253 29.1873 78.1406 29.1981C78.156 29.2089 78.1677 29.224 78.1742 29.2416C78.1807 29.2592 78.1818 29.2784 78.1772 29.2966C78.1726 29.3148 78.1627 29.3311 78.1486 29.3436Z" fill="#EF233C"/>
<path d="M77.6586 35.3732H75.146C75.1269 35.3733 75.1082 35.3675 75.0924 35.3568C75.0766 35.346 75.0644 35.3308 75.0574 35.313C75.0504 35.2952 75.0489 35.2757 75.0531 35.2571C75.0573 35.2385 75.0671 35.2215 75.0811 35.2085L75.4291 34.8837C75.4469 34.8677 75.47 34.8586 75.494 34.8582H77.35C77.3634 34.8578 77.3766 34.8606 77.3887 34.8662C77.4007 34.8718 77.4113 34.8802 77.4196 34.8907L77.7235 35.2155C77.7353 35.2288 77.743 35.2451 77.746 35.2626C77.7489 35.2801 77.7469 35.2981 77.7401 35.3145C77.7334 35.331 77.7221 35.3452 77.7077 35.3555C77.6933 35.3659 77.6763 35.372 77.6586 35.3732Z" fill="#EF233C"/>
<path d="M77.9019 32.341L77.7232 32.5104C77.7053 32.5265 77.6823 32.5355 77.6583 32.5359H75.4798C75.4669 32.5356 75.4542 32.5327 75.4424 32.5274C75.4307 32.522 75.4201 32.5144 75.4115 32.5048C75.4028 32.4953 75.3961 32.484 75.3919 32.4718C75.3877 32.4596 75.386 32.4467 75.387 32.4338L75.4102 32.1067C75.4119 32.0827 75.4227 32.0603 75.4404 32.0439C75.458 32.0276 75.4812 32.0185 75.5053 32.0186H77.6907C77.7038 32.0184 77.7168 32.021 77.7288 32.0262C77.7407 32.0314 77.7515 32.0391 77.7603 32.0487L77.9088 32.2088C77.9171 32.2179 77.9236 32.2285 77.9277 32.2402C77.9319 32.2518 77.9337 32.2641 77.9331 32.2764C77.9324 32.2887 77.9293 32.3008 77.924 32.3119C77.9186 32.323 77.9111 32.3329 77.9019 32.341Z" fill="#EF233C"/>
<path d="M78.2004 32.5197L78.0171 35.0322C78.0154 35.0506 78.0084 35.068 77.997 35.0825C77.9856 35.0969 77.9703 35.1077 77.9528 35.1136C77.9354 35.1195 77.9166 35.1202 77.8988 35.1157C77.881 35.1111 77.8649 35.1015 77.8524 35.0879L77.5531 34.7631C77.5441 34.7535 77.5372 34.7422 77.5328 34.7298C77.5284 34.7175 77.5266 34.7043 77.5276 34.6912L77.6645 32.8236C77.6648 32.8116 77.6677 32.7999 77.6729 32.7891C77.6781 32.7783 77.6855 32.7687 77.6946 32.761L78.0426 32.4362C78.0571 32.4232 78.0752 32.4149 78.0945 32.4126C78.1139 32.4102 78.1334 32.4138 78.1506 32.4229C78.1678 32.432 78.1818 32.4462 78.1907 32.4635C78.1996 32.4808 78.203 32.5004 78.2004 32.5197Z" fill="#EF233C"/>
<path d="M78.4152 29.5385L78.232 32.058C78.2307 32.0765 78.224 32.0943 78.2128 32.1091C78.2015 32.1238 78.1862 32.135 78.1687 32.1412C78.1512 32.1473 78.1322 32.1482 78.1142 32.1438C78.0962 32.1393 78.0799 32.1296 78.0672 32.116L77.7657 31.7889C77.7574 31.7794 77.751 31.7684 77.7471 31.7564C77.7431 31.7445 77.7415 31.7319 77.7424 31.7193L77.877 29.8517C77.8792 29.8279 77.8899 29.8056 77.9072 29.7891L78.2552 29.4619C78.2691 29.4488 78.2868 29.4401 78.3057 29.4372C78.3247 29.4342 78.3441 29.4371 78.3615 29.4453C78.3788 29.4536 78.3932 29.467 78.4028 29.4836C78.4124 29.5002 78.4167 29.5194 78.4152 29.5385Z" fill="#EF233C"/>
</g>
<path opacity="0.4" d="M74.1262 36.4241C74.1336 36.3374 74.1728 36.2566 74.2361 36.1971C74.2995 36.1376 74.3827 36.1035 74.4696 36.1016H78.4136C78.4597 36.1011 78.5053 36.1103 78.5477 36.1283C78.5901 36.1464 78.6283 36.1731 78.6599 36.2066C78.6915 36.2402 78.7158 36.2799 78.7313 36.3233C78.7468 36.3667 78.7532 36.4129 78.75 36.4589C78.7425 36.5459 78.703 36.627 78.6392 36.6866C78.5753 36.7462 78.4916 36.7799 78.4043 36.7813H74.4696C74.4227 36.7835 74.3759 36.7756 74.3324 36.7582C74.2888 36.7408 74.2494 36.7143 74.2169 36.6805C74.1844 36.6467 74.1595 36.6063 74.1439 36.5621C74.1282 36.5179 74.1222 36.4708 74.1262 36.4241Z" fill="#EF233C"/>
<path opacity="0.4" d="M69.1965 36.4241C69.2039 36.3374 69.2431 36.2566 69.3064 36.1971C69.3698 36.1376 69.4529 36.1035 69.5399 36.1016H73.4839C73.5299 36.1011 73.5756 36.1103 73.618 36.1283C73.6604 36.1464 73.6986 36.1731 73.7302 36.2066C73.7618 36.2402 73.7861 36.2799 73.8016 36.3233C73.8171 36.3667 73.8235 36.4129 73.8203 36.4589C73.8128 36.5459 73.7733 36.627 73.7095 36.6866C73.6456 36.7462 73.5619 36.7799 73.4746 36.7813H69.5306C69.4845 36.7822 69.4387 36.7733 69.3963 36.7553C69.3538 36.7373 69.3156 36.7106 69.2841 36.677C69.2526 36.6433 69.2286 36.6034 69.2135 36.5598C69.1984 36.5162 69.1926 36.47 69.1965 36.4241Z" fill="#EF233C"/>
<path opacity="0.4" d="M64.2629 36.424C64.2703 36.3374 64.3095 36.2566 64.3728 36.1971C64.4362 36.1375 64.5193 36.1035 64.6063 36.1016H68.5503C68.5962 36.1015 68.6416 36.1108 68.6837 36.129C68.7258 36.1472 68.7637 36.1739 68.7951 36.2075C68.8264 36.241 68.8505 36.2806 68.8659 36.3239C68.8812 36.3671 68.8875 36.4131 68.8843 36.4588C68.8774 36.5461 68.8381 36.6275 68.7741 36.6872C68.7101 36.7469 68.6261 36.7804 68.5387 36.7813H64.5947C64.5488 36.7818 64.5033 36.7727 64.4611 36.7546C64.4189 36.7364 64.381 36.7097 64.3498 36.6761C64.3185 36.6424 64.2946 36.6026 64.2797 36.5592C64.2647 36.5158 64.259 36.4698 64.2629 36.424Z" fill="#EF233C"/>
<path opacity="0.4" d="M59.3293 36.424C59.3367 36.3374 59.3759 36.2566 59.4392 36.1971C59.5026 36.1375 59.5857 36.1035 59.6727 36.1016H63.6167C63.6626 36.1015 63.708 36.1108 63.7501 36.129C63.7922 36.1472 63.8301 36.1739 63.8615 36.2075C63.8928 36.241 63.9169 36.2806 63.9323 36.3239C63.9476 36.3671 63.9539 36.4131 63.9507 36.4588C63.9438 36.5461 63.9045 36.6275 63.8405 36.6872C63.7765 36.7469 63.6925 36.7804 63.6051 36.7813H59.6611C59.6152 36.7818 59.5697 36.7727 59.5275 36.7546C59.4853 36.7364 59.4474 36.7097 59.4162 36.6761C59.3849 36.6424 59.3611 36.6026 59.3461 36.5592C59.3311 36.5158 59.3254 36.4698 59.3293 36.424Z" fill="#EF233C"/>
<path opacity="0.1" d="M48.4381 55.5339L49.8904 44.7992C49.9447 44.4474 50.1207 44.1258 50.3878 43.8905C50.6549 43.6551 50.9962 43.5211 51.352 43.5116H62.0867C62.2495 43.5072 62.4113 43.5389 62.5604 43.6046C62.7094 43.6703 62.842 43.7683 62.9486 43.8916C63.0552 44.0148 63.133 44.1601 63.1766 44.3171C63.2201 44.4741 63.2282 44.6388 63.2003 44.7992L61.748 55.5339C61.6942 55.8855 61.5187 56.2071 61.2519 56.4425C60.9852 56.6778 60.6443 56.812 60.2887 56.8215H49.5517C49.3889 56.826 49.2271 56.7942 49.078 56.7285C48.929 56.6628 48.7964 56.5648 48.6898 56.4416C48.5832 56.3184 48.5054 56.173 48.4619 56.016C48.4183 55.8591 48.4102 55.6944 48.4381 55.5339Z" fill="#263238"/>
<path opacity="0.1" d="M63.7315 55.534L65.1908 44.7993C65.245 44.4475 65.4211 44.1259 65.6882 43.8905C65.9553 43.6552 66.2966 43.5212 66.6524 43.5117H77.3871C77.55 43.5068 77.712 43.5383 77.8613 43.6039C78.0106 43.6694 78.1434 43.7674 78.25 43.8908C78.3567 44.0141 78.4345 44.1596 78.4778 44.3168C78.5212 44.4739 78.529 44.6388 78.5007 44.7993L77.0507 55.534C76.996 55.8856 76.8199 56.207 76.5528 56.4422C76.2858 56.6775 75.9448 56.8117 75.5891 56.8216H64.8428C64.68 56.8261 64.5183 56.7944 64.3693 56.7287C64.2203 56.6629 64.0879 56.5649 63.9815 56.4416C63.8751 56.3183 63.7974 56.1729 63.7542 56.016C63.711 55.859 63.7032 55.6943 63.7315 55.534Z" fill="#263238"/>
<path opacity="0.1" d="M46.3709 70.8273L47.8232 60.0881C47.8779 59.7364 48.054 59.415 48.3211 59.1798C48.5881 58.9446 48.9291 58.8103 49.2848 58.8005H60.0195C60.1823 58.796 60.3441 58.8278 60.4932 58.8935C60.6422 58.9592 60.7748 59.0572 60.8814 59.1804C60.988 59.3036 61.0658 59.4489 61.1093 59.6059C61.1529 59.7629 61.161 59.9276 61.1331 60.0881L59.6808 70.825C59.6265 71.1762 59.4508 71.4973 59.1841 71.7322C58.9174 71.9671 58.5767 72.1009 58.2215 72.1103H47.4845C47.3221 72.1146 47.1608 72.083 47.0122 72.0175C46.8635 71.9521 46.7312 71.8545 46.6247 71.7319C46.5182 71.6092 46.4402 71.4645 46.3963 71.3081C46.3525 71.1517 46.3438 70.9875 46.3709 70.8273Z" fill="#263238"/>
<path opacity="0.1" d="M61.6643 70.8273L63.1143 60.0881C63.169 59.7364 63.3451 59.415 63.6121 59.1798C63.8792 58.9446 64.2202 58.8103 64.5759 58.8005H75.3106C75.4734 58.796 75.6352 58.8278 75.7843 58.8935C75.9333 58.9592 76.0659 59.0572 76.1725 59.1804C76.279 59.3036 76.3569 59.4489 76.4004 59.6059C76.444 59.7629 76.4521 59.9276 76.4242 60.0881L74.9742 70.825C74.919 71.1762 74.7427 71.4971 74.4757 71.7318C74.2087 71.9666 73.8679 72.1005 73.5126 72.1103H62.7756C62.6133 72.1147 62.452 72.083 62.3034 72.0176C62.1549 71.9521 62.0226 71.8545 61.9163 71.7318C61.81 71.6091 61.7323 71.4643 61.6887 71.3079C61.6451 71.1515 61.6368 70.9874 61.6643 70.8273Z" fill="#263238"/>
<path d="M47.7233 55.5339L49.1826 44.7992C49.2368 44.4474 49.4128 44.1258 49.6799 43.8905C49.947 43.6551 50.2883 43.5211 50.6442 43.5116H61.3788C61.5416 43.5072 61.7034 43.5389 61.8525 43.6046C62.0016 43.6703 62.1342 43.7683 62.2407 43.8916C62.3473 44.0148 62.4251 44.1601 62.4687 44.3171C62.5122 44.4741 62.5203 44.6388 62.4924 44.7992L61.0401 55.5339C60.9864 55.8855 60.8108 56.2071 60.5441 56.4425C60.2773 56.6778 59.9364 56.812 59.5808 56.8215H48.8369C48.674 56.826 48.5122 56.7942 48.3632 56.7285C48.2141 56.6628 48.0815 56.5648 47.975 56.4416C47.8684 56.3184 47.7905 56.173 47.747 56.016C47.7035 55.8591 47.6954 55.6944 47.7233 55.5339Z" fill="#EF233C"/>
<path opacity="0.2" d="M47.7233 55.5339L49.1826 44.7992C49.2368 44.4474 49.4128 44.1258 49.6799 43.8905C49.947 43.6551 50.2883 43.5211 50.6442 43.5116H61.3788C61.5416 43.5072 61.7034 43.5389 61.8525 43.6046C62.0016 43.6703 62.1342 43.7683 62.2407 43.8916C62.3473 44.0148 62.4251 44.1601 62.4687 44.3171C62.5122 44.4741 62.5203 44.6388 62.4924 44.7992L61.0401 55.5339C60.9864 55.8855 60.8108 56.2071 60.5441 56.4425C60.2773 56.6778 59.9364 56.812 59.5808 56.8215H48.8369C48.674 56.826 48.5122 56.7942 48.3632 56.7285C48.2141 56.6628 48.0815 56.5648 47.975 56.4416C47.8684 56.3184 47.7905 56.173 47.747 56.016C47.7035 55.8591 47.6954 55.6944 47.7233 55.5339Z" fill="white"/>
<path d="M63.0167 55.534L64.4667 44.7993C64.5209 44.4475 64.6969 44.1259 64.9641 43.8905C65.2312 43.6552 65.5724 43.5212 65.9283 43.5117H76.6629C76.8259 43.5068 76.9879 43.5383 77.1372 43.6039C77.2864 43.6694 77.4192 43.7674 77.5259 43.8908C77.6325 44.0141 77.7104 44.1596 77.7537 44.3168C77.7971 44.4739 77.8049 44.6388 77.7765 44.7993L76.3265 55.534C76.2719 55.8856 76.0957 56.207 75.8287 56.4422C75.5617 56.6775 75.2207 56.8117 74.8649 56.8216H64.128C63.9652 56.8261 63.8035 56.7944 63.6545 56.7287C63.5055 56.6629 63.373 56.5649 63.2666 56.4416C63.1602 56.3183 63.0826 56.1729 63.0394 56.016C62.9961 55.859 62.9884 55.6943 63.0167 55.534Z" fill="#EF233C"/>
<path opacity="0.2" d="M63.0167 55.534L64.4667 44.7993C64.5209 44.4475 64.6969 44.1259 64.9641 43.8905C65.2312 43.6552 65.5724 43.5212 65.9283 43.5117H76.6629C76.8259 43.5068 76.9879 43.5383 77.1372 43.6039C77.2864 43.6694 77.4192 43.7674 77.5259 43.8908C77.6325 44.0141 77.7104 44.1596 77.7537 44.3168C77.7971 44.4739 77.8049 44.6388 77.7765 44.7993L76.3265 55.534C76.2719 55.8856 76.0957 56.207 75.8287 56.4422C75.5617 56.6775 75.2207 56.8117 74.8649 56.8216H64.128C63.9652 56.8261 63.8035 56.7944 63.6545 56.7287C63.5055 56.6629 63.373 56.5649 63.2666 56.4416C63.1602 56.3183 63.0826 56.1729 63.0394 56.016C62.9961 55.859 62.9884 55.6943 63.0167 55.534Z" fill="white"/>
<path d="M45.6561 70.8273L47.1084 60.0881C47.163 59.7364 47.3392 59.415 47.6062 59.1798C47.8732 58.9446 48.2143 58.8103 48.57 58.8005H59.3046C59.4675 58.796 59.6293 58.8278 59.7783 58.8935C59.9274 58.9592 60.06 59.0572 60.1666 59.1804C60.2731 59.3036 60.351 59.4489 60.3945 59.6059C60.438 59.7629 60.4461 59.9276 60.4182 60.0881L58.9659 70.825C58.9117 71.1762 58.7359 71.4973 58.4692 71.7322C58.2026 71.9671 57.8619 72.1009 57.5066 72.1103H46.7697C46.6073 72.1146 46.446 72.083 46.2973 72.0175C46.1486 71.9521 46.0163 71.8545 45.9098 71.7319C45.8034 71.6092 45.7254 71.4645 45.6815 71.3081C45.6376 71.1517 45.6289 70.9875 45.6561 70.8273Z" fill="#EF233C"/>
<path opacity="0.2" d="M45.6561 70.8273L47.1084 60.0881C47.163 59.7364 47.3392 59.415 47.6062 59.1798C47.8732 58.9446 48.2143 58.8103 48.57 58.8005H59.3046C59.4675 58.796 59.6293 58.8278 59.7783 58.8935C59.9274 58.9592 60.06 59.0572 60.1666 59.1804C60.2731 59.3036 60.351 59.4489 60.3945 59.6059C60.438 59.7629 60.4461 59.9276 60.4182 60.0881L58.9659 70.825C58.9117 71.1762 58.7359 71.4973 58.4692 71.7322C58.2026 71.9671 57.8619 72.1009 57.5066 72.1103H46.7697C46.6073 72.1146 46.446 72.083 46.2973 72.0175C46.1486 71.9521 46.0163 71.8545 45.9098 71.7319C45.8034 71.6092 45.7254 71.4645 45.6815 71.3081C45.6376 71.1517 45.6289 70.9875 45.6561 70.8273Z" fill="white"/>
<path d="M60.9495 70.8273L62.4064 60.0881C62.4611 59.7364 62.6372 59.415 62.9043 59.1798C63.1713 58.9446 63.5123 58.8103 63.868 58.8005H74.6027C74.7655 58.796 74.9273 58.8278 75.0764 58.8935C75.2254 58.9592 75.358 59.0572 75.4646 59.1804C75.5712 59.3036 75.649 59.4489 75.6925 59.6059C75.7361 59.7629 75.7442 59.9276 75.7163 60.0881L74.2663 70.825C74.2111 71.1762 74.0348 71.4971 73.7678 71.7318C73.5008 71.9666 73.1601 72.1005 72.8047 72.1103H62.0608C61.8984 72.1147 61.7372 72.083 61.5886 72.0176C61.44 71.9521 61.3078 71.8545 61.2015 71.7318C61.0952 71.6091 61.0174 71.4643 60.9739 71.3079C60.9303 71.1515 60.922 70.9874 60.9495 70.8273Z" fill="#EF233C"/>
<path opacity="0.2" d="M60.9495 70.8273L62.4064 60.0881C62.4611 59.7364 62.6372 59.415 62.9043 59.1798C63.1713 58.9446 63.5123 58.8103 63.868 58.8005H74.6027C74.7655 58.796 74.9273 58.8278 75.0764 58.8935C75.2254 58.9592 75.358 59.0572 75.4646 59.1804C75.5712 59.3036 75.649 59.4489 75.6925 59.6059C75.7361 59.7629 75.7442 59.9276 75.7163 60.0881L74.2663 70.825C74.2111 71.1762 74.0348 71.4971 73.7678 71.7318C73.5008 71.9666 73.1601 72.1005 72.8047 72.1103H62.0608C61.8984 72.1147 61.7372 72.083 61.5886 72.0176C61.44 71.9521 61.3078 71.8545 61.2015 71.7318C61.0952 71.6091 61.0174 71.4643 60.9739 71.3079C60.9303 71.1515 60.922 70.9874 60.9495 70.8273Z" fill="white"/>
<path d="M54.5001 54.6339C54.3375 54.6375 54.1761 54.6052 54.0274 54.5392C53.8788 54.4732 53.7465 54.3752 53.6401 54.2522C53.5338 54.1292 53.4559 53.9842 53.412 53.8276C53.3681 53.671 53.3594 53.5067 53.3865 53.3463L54.2472 46.9895C54.3022 46.6378 54.4784 46.3164 54.7453 46.0809C55.0122 45.8453 55.353 45.7104 55.7088 45.6996C55.8717 45.6955 56.0336 45.7275 56.1826 45.7935C56.3317 45.8595 56.4642 45.9577 56.5707 46.0811C56.6772 46.2045 56.7551 46.3499 56.7986 46.507C56.8421 46.6641 56.8502 46.8289 56.8224 46.9895L55.964 53.3463C55.9084 53.6979 55.7317 54.0191 55.4643 54.2542C55.197 54.4893 54.8559 54.6236 54.5001 54.6339Z" fill="white"/>
<path d="M50.6365 50.1679C50.692 49.816 50.8686 49.4946 51.1359 49.259C51.4032 49.0235 51.7443 48.8888 52.1004 48.878H58.4618C58.6247 48.8743 58.7863 48.9066 58.9351 48.9728C59.084 49.0389 59.2164 49.1371 59.3228 49.2604C59.4292 49.3836 59.5071 49.5289 59.5507 49.6858C59.5944 49.8427 59.6029 50.0074 59.5754 50.1679C59.5199 50.5192 59.3435 50.84 59.0767 51.0751C58.8099 51.3102 58.4693 51.4447 58.1138 51.4555H51.757C51.5939 51.4602 51.4317 51.4286 51.2822 51.3631C51.1327 51.2976 50.9995 51.1997 50.8924 51.0766C50.7852 50.9535 50.7067 50.8081 50.6624 50.651C50.6182 50.4938 50.6093 50.3289 50.6365 50.1679Z" fill="white"/>
<path d="M49.4523 68.6165C49.0184 68.1154 49.1298 67.2965 49.6982 66.7953L54.8022 62.2992C55.3706 61.7981 56.1942 61.7981 56.6234 62.2992C57.0572 62.8003 56.9459 63.6216 56.3775 64.1227L51.2735 68.6165C50.7051 69.1177 49.8791 69.1177 49.4523 68.6165Z" fill="white"/>
<path d="M50.3076 62.2992C50.876 61.7981 51.6996 61.7981 52.1311 62.2992L56.0171 66.7953C56.4509 67.2965 56.3396 68.1154 55.7712 68.6165C55.2028 69.1177 54.3792 69.1177 53.95 68.6165L50.0616 64.1227C49.6278 63.6216 49.7392 62.8003 50.3076 62.2992Z" fill="white"/>
<path d="M65.9294 50.1677C65.985 49.8158 66.1616 49.4944 66.4289 49.2589C66.6962 49.0234 67.0373 48.8886 67.3934 48.8778H73.7502C73.9131 48.8737 74.0749 48.9058 74.224 48.9717C74.373 49.0377 74.5056 49.1359 74.6121 49.2593C74.7186 49.3827 74.7965 49.5282 74.84 49.6852C74.8835 49.8423 74.8916 50.0071 74.8638 50.1677C74.8083 50.519 74.6319 50.8398 74.365 51.0749C74.0982 51.31 73.7576 51.4445 73.4022 51.4553H67.0477C66.8847 51.4596 66.7228 51.4278 66.5736 51.3622C66.4243 51.2965 66.2915 51.1986 66.1846 51.0755C66.0777 50.9524 65.9994 50.8072 65.9553 50.6502C65.9111 50.4933 65.9023 50.3285 65.9294 50.1677Z" fill="white"/>
<path d="M64.1329 63.4544C64.1885 63.1027 64.3653 62.7816 64.6326 62.5464C64.8999 62.3113 65.241 62.177 65.5969 62.1668H71.9537C72.1163 62.1631 72.2776 62.1955 72.4263 62.2615C72.5749 62.3274 72.7072 62.4254 72.8136 62.5484C72.92 62.6714 72.9979 62.8164 73.0417 62.973C73.0856 63.1296 73.0943 63.294 73.0673 63.4544C73.0123 63.8061 72.8361 64.1275 72.5692 64.363C72.3023 64.5986 71.9615 64.7334 71.6057 64.7443H65.2465C65.0837 64.748 64.9221 64.7156 64.7733 64.6495C64.6244 64.5834 64.492 64.4852 64.3856 64.3619C64.2792 64.2386 64.2013 64.0933 64.1576 63.9364C64.114 63.7795 64.1055 63.6149 64.1329 63.4544Z" fill="white"/>
<path d="M63.5904 67.461C63.6459 67.1098 63.8223 66.7889 64.0892 66.5538C64.356 66.3187 64.6966 66.1842 65.052 66.1734H71.4088C71.5716 66.1694 71.7333 66.2015 71.8822 66.2673C72.0311 66.3332 72.1637 66.4311 72.2703 66.5542C72.377 66.6772 72.4551 66.8223 72.4991 66.9791C72.543 67.1359 72.5518 67.3005 72.5247 67.461C72.4692 67.8129 72.2926 68.1344 72.0253 68.3699C71.758 68.6054 71.4169 68.7402 71.0608 68.7509H64.704C64.5411 68.7551 64.3792 68.723 64.2302 68.657C64.0811 68.591 63.9486 68.4928 63.8421 68.3694C63.7356 68.246 63.6577 68.1006 63.6142 67.9435C63.5707 67.7864 63.5626 67.6216 63.5904 67.461Z" fill="white"/>
<path d="M30.9394 41.6904C30.5218 42.4653 30.0926 43.3005 29.7005 44.1171C29.3084 44.9338 28.9302 45.7667 28.6054 46.5995C28.5196 46.8083 28.45 47.0171 28.3734 47.2259C28.3328 47.3329 28.3093 47.4457 28.3038 47.56C28.2945 47.8892 28.3554 48.2167 28.4825 48.5205C28.8146 49.3012 29.256 50.0308 29.7933 50.6874L29.0022 51.6154C28.7816 51.473 28.5693 51.3181 28.3665 51.1514C28.1627 50.9918 27.9683 50.8206 27.7842 50.6387C27.3934 50.2638 27.0512 49.8414 26.7657 49.3812C26.4333 48.8533 26.2255 48.2567 26.1578 47.6366C26.1246 47.2793 26.1537 46.919 26.2437 46.5717C26.3086 46.3397 26.369 46.0845 26.4432 45.8455C26.7275 44.8971 27.0707 43.9672 27.471 43.0615C27.6705 42.6138 27.8746 42.1707 28.0997 41.7345C28.3247 41.2983 28.5405 40.8761 28.8096 40.4307L30.9394 41.6904Z" fill="#FF8B7B"/>
<path d="M29.4631 50.4204L30.6231 50.7266L29.7601 52.404C29.7601 52.404 28.897 52.0746 28.6836 51.3159L29.4631 50.4204Z" fill="#FF8B7B"/>
<path d="M32.2271 51.2558L31.1878 52.5712L29.7656 52.4042L30.6287 50.7268L32.2271 51.2558Z" fill="#FF8B7B"/>
<path d="M36.4102 32.8418C36.4357 32.9717 36.5262 33.0622 36.6097 33.0459C36.6932 33.0297 36.742 32.909 36.7141 32.7814C36.6863 32.6538 36.5981 32.5494 36.5146 32.5773C36.4311 32.6051 36.3824 32.7118 36.4102 32.8418Z" fill="#263238"/>
<path d="M36.5156 33.0647C36.7492 33.4281 37.0319 33.7575 37.3555 34.0437C37.279 34.1229 37.1864 34.1847 37.0839 34.2247C36.9814 34.2648 36.8714 34.2822 36.7615 34.2757L36.5156 33.0647Z" fill="#FF5652"/>
<path d="M36.6888 33.9416C36.3106 33.9416 35.9348 33.5286 35.8211 32.9626C35.7591 32.6863 35.7776 32.398 35.8745 32.132C35.9014 32.0224 35.9589 31.9228 36.0403 31.8446C36.1216 31.7664 36.2235 31.7129 36.334 31.6903C36.4446 31.6677 36.5593 31.6769 36.6648 31.7169C36.7703 31.7569 36.8623 31.826 36.9301 31.9162C37.1184 32.1268 37.2474 32.3836 37.3036 32.6605C37.3599 32.9373 37.3415 33.2242 37.2502 33.4915C37.2169 33.5985 37.1568 33.6951 37.0756 33.7723C36.9944 33.8494 36.8947 33.9045 36.7862 33.9323C36.7541 33.9386 36.7215 33.9417 36.6888 33.9416ZM36.4382 31.7399C36.4074 31.7365 36.3763 31.7365 36.3454 31.7399C36.2474 31.7664 36.1576 31.8174 36.0846 31.888C36.0116 31.9585 35.9576 32.0465 35.9278 32.1436C35.8353 32.3994 35.8176 32.6762 35.8768 32.9417C35.9951 33.5286 36.3988 33.9439 36.7793 33.8697C36.8776 33.8438 36.9677 33.7931 37.0408 33.7224C37.1139 33.6517 37.1676 33.5634 37.1969 33.466C37.2841 33.2093 37.3017 32.9341 37.2479 32.6683C37.1941 32.4026 37.0708 32.1559 36.8906 31.9534C36.8331 31.8895 36.7635 31.8378 36.6859 31.8012C36.6082 31.7645 36.524 31.7437 36.4382 31.7399Z" fill="#263238"/>
<path d="M48.6384 46.2144L50.1255 45.8989L50.318 47.9173C50.318 47.9173 49.0328 48.1632 48.418 47.1471L48.6384 46.2144Z" fill="#FF8B7B"/>
<path d="M51.5309 46.3513L51.4358 47.8245L50.3176 47.9173L50.125 45.8989L51.5309 46.3513Z" fill="#FF8B7B"/>
<path d="M35.7897 32.2224C35.7803 32.2225 35.7709 32.2206 35.7621 32.2171C35.7534 32.2135 35.7454 32.2082 35.7387 32.2015C35.7312 32.1946 35.7252 32.1862 35.7211 32.1768C35.717 32.1674 35.7148 32.1573 35.7148 32.147C35.7148 32.1368 35.717 32.1266 35.7211 32.1173C35.7252 32.1079 35.7312 32.0995 35.7387 32.0925C35.8198 32.0007 35.9218 31.9296 36.036 31.8852C36.1502 31.8408 36.2734 31.8244 36.3953 31.8373C36.4054 31.8387 36.4151 31.8421 36.4238 31.8474C36.4326 31.8526 36.4402 31.8595 36.4463 31.8677C36.4523 31.8759 36.4567 31.8853 36.4591 31.8952C36.4615 31.9051 36.4619 31.9154 36.4602 31.9255C36.4563 31.9458 36.4447 31.9638 36.4279 31.9759C36.411 31.988 36.3903 31.9932 36.3697 31.9904C36.2733 31.9809 36.1759 31.9947 36.0859 32.0306C35.9959 32.0666 35.9158 32.1236 35.8524 32.1969C35.8443 32.2053 35.8345 32.2119 35.8238 32.2163C35.813 32.2207 35.8014 32.2228 35.7897 32.2224Z" fill="#263238"/>
<path d="M32.8273 35.1897C33.0593 36.3845 33.2031 38.0387 32.3633 38.8344C32.3633 38.8344 32.6881 40.0455 34.9153 40.0455C37.3559 40.0455 36.0892 38.9829 36.0892 38.9829C35.0754 38.6674 35.0846 37.5143 35.3166 36.5863L32.8273 35.1897Z" fill="#FF8B7B"/>
<path d="M35.3359 38.5444C35.8835 38.15 36.6931 37.6883 36.8625 38.1708C36.9646 38.4608 37.0063 39.8784 36.4426 39.7716C35.6097 39.6162 35.3359 38.5444 35.3359 38.5444Z" fill="#263238"/>
<path d="M31.9113 39.6325C31.6932 39.3262 31.7025 38.3542 31.9345 38.1825C32.308 37.9064 33.9088 37.8414 36.0664 38.3379C35.8344 39.2798 36.3332 39.774 36.3332 39.774L31.9113 39.6325Z" fill="#EF233C"/>
<path d="M24.6613 94.7115C24.7272 94.7348 24.797 94.7447 24.8667 94.7407C24.9364 94.7367 25.0046 94.7189 25.0673 94.6883C25.0922 94.6667 25.1093 94.6375 25.116 94.6053C25.1227 94.573 25.1186 94.5394 25.1044 94.5097C25.098 94.4846 25.0859 94.4612 25.069 94.4415C25.0521 94.4218 25.0309 94.4062 25.007 94.396C24.775 94.2893 24.2785 94.4958 24.2576 94.5051C24.2507 94.5079 24.2448 94.5127 24.2407 94.5189C24.2365 94.5251 24.2344 94.5324 24.2344 94.5399C24.234 94.5474 24.2357 94.5549 24.2394 94.5615C24.2431 94.5681 24.2487 94.5734 24.2553 94.577C24.386 94.6348 24.522 94.6799 24.6613 94.7115ZM24.9281 94.4494L24.9722 94.4656C24.9864 94.4714 24.9992 94.4802 25.0096 94.4914C25.02 94.5026 25.0278 94.516 25.0325 94.5306C25.0534 94.6002 25.0325 94.6234 25.0186 94.6303C24.9304 94.7046 24.6033 94.6303 24.376 94.5445C24.5507 94.4722 24.7393 94.4397 24.9281 94.4494Z" fill="#EF233C"/>
<path d="M24.2637 94.5793H24.2822C24.4678 94.5236 24.8622 94.2429 24.8669 94.0596C24.867 94.0305 24.8572 94.0022 24.8391 93.9794C24.8209 93.9566 24.7955 93.9407 24.7671 93.9343C24.7392 93.924 24.7094 93.9199 24.6797 93.9223C24.6501 93.9247 24.6213 93.9336 24.5954 93.9483C24.3773 94.0596 24.2405 94.5097 24.2358 94.5306C24.2344 94.5356 24.234 94.5409 24.2347 94.546C24.2353 94.5512 24.237 94.5562 24.2396 94.5607C24.2422 94.5653 24.2456 94.5693 24.2498 94.5724C24.2539 94.5756 24.2586 94.578 24.2637 94.5793ZM24.7277 94.0016H24.7439C24.7926 94.0178 24.7926 94.041 24.7926 94.0526C24.7926 94.1617 24.5281 94.3821 24.3286 94.4703C24.3784 94.2891 24.4819 94.1273 24.6256 94.0063C24.657 93.9917 24.6928 93.9901 24.7253 94.0016H24.7277Z" fill="#EF233C"/>
<path d="M36.7088 94.9854C36.9199 94.9854 37.1217 94.9552 37.189 94.8624C37.206 94.8374 37.215 94.8079 37.215 94.7777C37.215 94.7475 37.206 94.718 37.189 94.6931C37.1758 94.6704 37.158 94.6507 37.1369 94.6351C37.1157 94.6195 37.0916 94.6085 37.066 94.6026C36.7946 94.5283 36.2239 94.8531 36.2007 94.8671C36.1938 94.871 36.1882 94.8768 36.1845 94.8837C36.1808 94.8907 36.1792 94.8986 36.1798 94.9065C36.1815 94.9145 36.1854 94.9218 36.1912 94.9276C36.197 94.9334 36.2043 94.9373 36.2123 94.939C36.3761 94.9692 36.5422 94.9847 36.7088 94.9854ZM36.9686 94.6675C36.9933 94.665 37.0182 94.665 37.0429 94.6675C37.0743 94.6748 37.1017 94.6939 37.1194 94.7209C37.1473 94.7696 37.1357 94.7928 37.1194 94.8067C37.0429 94.9134 36.6299 94.9158 36.3283 94.8717C36.5267 94.7633 36.7441 94.694 36.9686 94.6675Z" fill="#EF233C"/>
<path d="M36.2153 94.9391H36.2315C36.4287 94.8509 36.8185 94.4983 36.7883 94.3127C36.7883 94.2686 36.7512 94.2152 36.6445 94.2059C36.606 94.2016 36.567 94.205 36.5299 94.2162C36.4928 94.2274 36.4584 94.246 36.4287 94.2709C36.2814 94.4493 36.1931 94.6689 36.1758 94.8996C36.1755 94.905 36.1763 94.9104 36.1782 94.9154C36.18 94.9205 36.1829 94.9251 36.1866 94.929C36.1902 94.9329 36.1947 94.936 36.1996 94.9382C36.2046 94.9403 36.2099 94.9414 36.2153 94.9414V94.9391ZM36.612 94.2779H36.6352C36.7048 94.2779 36.7095 94.3103 36.7118 94.3196C36.7303 94.431 36.4635 94.7094 36.264 94.83C36.2817 94.6438 36.3572 94.4678 36.4798 94.3266C36.5161 94.2942 36.5634 94.2768 36.612 94.2779Z" fill="#EF233C"/>
<path d="M34.4219 94.9018H36.0552L36.2176 91.1226H34.5843L34.4219 94.9018Z" fill="#FF8B7B"/>
<path d="M22.4453 94.1454L24.0392 94.4911L25.6423 90.9717L24.0461 90.626L22.4453 94.1454Z" fill="#FF8B7B"/>
<path d="M24.1916 94.3311L22.4006 93.9436C22.3689 93.9368 22.3359 93.9409 22.3068 93.9552C22.2778 93.9696 22.2544 93.9933 22.2405 94.0225L21.6188 95.3727C21.6022 95.4054 21.5936 95.4416 21.5938 95.4782C21.5939 95.5149 21.6027 95.551 21.6194 95.5836C21.6362 95.6162 21.6604 95.6443 21.6901 95.6658C21.7198 95.6872 21.7542 95.7013 21.7904 95.7068C22.4192 95.8298 22.7324 95.86 23.5188 96.0293C24.0037 96.136 25.0988 96.4028 25.7669 96.5467C26.4351 96.6905 26.6671 96.0479 26.4072 95.9295C25.2472 95.3936 24.7461 94.9227 24.4306 94.4842C24.3726 94.4054 24.2875 94.3509 24.1916 94.3311Z" fill="#263238"/>
<path d="M36.0405 94.7117H34.2588C34.2263 94.7115 34.1948 94.7224 34.1694 94.7427C34.1441 94.763 34.1265 94.7913 34.1196 94.823L33.7971 96.28C33.7876 96.315 33.7865 96.3518 33.7939 96.3874C33.8012 96.4229 33.8168 96.4562 33.8393 96.4847C33.8619 96.5131 33.8908 96.5358 33.9238 96.5511C33.9567 96.5663 33.9928 96.5736 34.0291 96.5723C34.6717 96.5607 35.602 96.5236 36.4094 96.5236C37.3536 96.5236 38.1703 96.5746 39.2792 96.5746C39.9474 96.5746 40.1353 95.8972 39.8546 95.8346C38.5763 95.5562 37.5346 95.526 36.4326 94.8462C36.3169 94.7659 36.1812 94.7193 36.0405 94.7117Z" fill="#263238"/>
<path d="M29.4481 39.2078C27.9192 39.5582 26.6641 43.4627 26.6641 43.4627L29.7357 45.8036C30.5294 44.9561 31.0891 43.9167 31.3597 42.7876C31.8841 40.7367 31.0117 38.8459 29.4481 39.2078Z" fill="#EF233C"/>
<path opacity="0.4" d="M29.4481 39.2078C27.9192 39.5582 26.6641 43.4627 26.6641 43.4627L29.7357 45.8036C30.5294 44.9561 31.0891 43.9167 31.3597 42.7876C31.8841 40.7367 31.0117 38.8459 29.4481 39.2078Z" fill="white"/>
<path d="M38.6177 41.064L41.1952 43.435C41.6244 43.8294 42.0536 44.2215 42.4851 44.6066C42.9166 44.9917 43.3482 45.3768 43.7634 45.7109L43.4038 45.5184C43.6034 45.5926 43.8122 45.6645 44.0326 45.7225C44.253 45.7805 44.4803 45.8292 44.7146 45.8756C45.1968 45.963 45.6831 46.0257 46.1716 46.0636C46.6704 46.1053 47.1808 46.1332 47.6935 46.1471C48.2062 46.161 48.7375 46.1726 49.241 46.1749L49.473 47.3767C48.943 47.5688 48.4004 47.7239 47.849 47.8407C47.2964 47.9601 46.737 48.0453 46.1739 48.0959C45.5962 48.1486 45.0153 48.1572 44.4362 48.1214C43.8208 48.086 43.2114 47.9809 42.6197 47.8082L42.4457 47.7572L42.2624 47.6156C41.752 47.2236 41.2996 46.8408 40.8449 46.4556C40.3902 46.0705 39.9494 45.6715 39.5086 45.2748C38.6316 44.4767 37.7616 43.6832 36.9102 42.8596L38.6177 41.064Z" fill="#FF8B7B"/>
<path opacity="0.2" d="M30.7577 42.0754C29.9271 42.8967 29.6557 44.3954 29.5977 45.6946L29.7345 45.799C30.5276 44.9511 31.0872 43.9119 31.3585 42.783C31.3887 42.6624 31.4165 42.551 31.4374 42.4188L30.7577 42.0754Z" fill="black"/>
<path d="M39.1104 40.8318C39.4445 42.595 39.6533 46.2165 38.6836 53.3853H29.9557C29.8954 52.0467 30.7376 45.5089 29.4453 39.1962C30.4108 39.0108 31.3872 38.8876 32.3685 38.8273C33.6048 38.7564 34.8442 38.7564 36.0805 38.8273C36.4888 38.8645 36.8902 38.9248 37.2405 38.9874C37.7021 39.0699 38.1278 39.2903 38.4616 39.6195C38.7954 39.9488 39.0216 40.3714 39.1104 40.8318Z" fill="#EF233C"/>
<path opacity="0.4" d="M39.1104 40.8318C39.4445 42.595 39.6533 46.2165 38.6836 53.3853H29.9557C29.8954 52.0467 30.7376 45.5089 29.4453 39.1962C30.4108 39.0108 31.3872 38.8876 32.3685 38.8273C33.6048 38.7564 34.8442 38.7564 36.0805 38.8273C36.4888 38.8645 36.8902 38.9248 37.2405 38.9874C37.7021 39.0699 38.1278 39.2903 38.4616 39.6195C38.7954 39.9488 39.0216 40.3714 39.1104 40.8318Z" fill="white"/>
<path opacity="0.2" d="M37.776 43.4465L39.3536 43.0684C39.4023 44.0242 39.4069 45.2074 39.335 46.6713C38.6089 45.8454 37.6832 44.5555 37.776 43.4465Z" fill="black"/>
<path opacity="0.2" d="M36.2168 91.1226L36.1333 93.0714H34.5L34.5835 91.1226H36.2168Z" fill="black"/>
<path opacity="0.2" d="M24.0447 90.626L25.6408 90.9717L24.8126 92.7859L23.2188 92.4402L24.0447 90.626Z" fill="black"/>
<path d="M32.0508 33.4452C32.4707 35.0089 32.6378 35.9461 33.6029 36.5957C35.0552 37.5748 36.8509 36.4519 36.9182 34.7931C36.9692 33.3013 36.2755 30.9929 34.5982 30.6774C34.2281 30.6061 33.8459 30.6305 33.488 30.7485C33.13 30.8664 32.8081 31.0738 32.5529 31.3511C32.2977 31.6285 32.1176 31.9664 32.0297 32.3329C31.9418 32.6994 31.9491 33.0823 32.0508 33.4452Z" fill="#FF8B7B"/>
<path d="M35.6019 33.5634C36.335 33.459 36.1239 32.6122 35.8501 32.1969C35.8501 32.1969 37.4741 30.2365 35.6019 29.4454C33.7296 28.6543 34.182 29.8885 34.182 29.8885C34.182 29.8885 32.7135 28.7865 31.4375 29.6774C30.1615 30.5683 31.2635 30.9534 31.2635 30.9534C31.2635 30.9534 28.9435 31.6355 29.8715 32.8094C30.7995 33.9833 31.7576 33.865 31.7576 33.865C31.7576 33.865 29.8343 34.6236 31.2936 35.4751C32.7529 36.3265 33.3004 36.3636 33.3004 36.3636C33.6905 36.4121 34.0852 36.3212 34.4146 36.1068C34.7441 35.8923 34.9871 35.5683 35.1007 35.192L35.6019 33.5634Z" fill="#263238"/>
<path d="M34.9703 33.568C35.0016 33.9704 35.1647 34.3512 35.4343 34.6515C35.7893 35.0435 36.1605 34.7976 36.2254 34.322C36.2811 33.8905 36.1651 33.162 35.7289 32.9532C35.2928 32.7444 34.9425 33.0831 34.9703 33.568Z" fill="#FF8B7B"/>
<path d="M35.5885 53.3923C35.5885 53.3923 33.7325 65.8623 32.7187 70.5348C31.6051 75.6504 25.6357 92.5748 25.6357 92.5748L22.7148 91.9415C22.7148 91.9415 26.8908 78.1467 27.8188 70.9942C28.538 65.5004 29.9509 53.3877 29.9509 53.3877L35.5885 53.3923Z" fill="#263238"/>
<path d="M26.3365 91.6028L25.7913 92.6608L22.5039 91.9485L22.7823 90.9602L26.3365 91.6028Z" fill="#EF233C"/>
<path opacity="0.3" d="M34.4194 57.8351C32.278 58.2551 32.5054 66.2405 32.7629 70.3492C33.38 67.4446 34.2848 61.858 34.9019 57.8931C34.7524 57.8193 34.5821 57.7989 34.4194 57.8351Z" fill="black"/>
<path d="M38.685 53.3923C38.685 53.3923 38.917 65.5932 38.7337 70.5603C38.5481 75.7363 36.7408 92.6839 36.7408 92.6839H33.9754C33.9754 92.6839 33.8756 76.0379 33.7434 70.9547C33.6181 65.4239 32.9453 53.3923 32.9453 53.3923H38.685Z" fill="#263238"/>
<path d="M37.2701 91.5935C37.284 91.5935 37.1146 92.7396 37.1146 92.7396H33.7506L33.6602 91.7165L37.2701 91.5935Z" fill="#EF233C"/>
<path d="M35.6916 41.3748C34.9074 43.4837 39.5056 45.9684 39.5056 45.9684L41.4962 43.4164C41.4962 43.4164 40.1668 40.7739 38.5382 39.5815C36.5244 38.1036 36.2855 39.7694 35.6916 41.3748Z" fill="#EF233C"/>
<path opacity="0.4" d="M35.6916 41.3748C34.9074 43.4837 39.5056 45.9684 39.5056 45.9684L41.4962 43.4164C41.4962 43.4164 40.1668 40.7739 38.5382 39.5815C36.5244 38.1036 36.2855 39.7694 35.6916 41.3748Z" fill="white"/>
<path d="M48.8988 46.8523C49.214 46.8523 49.4696 46.6601 49.4696 46.4231C49.4696 46.1861 49.214 45.9939 48.8988 45.9939C48.5836 45.9939 48.3281 46.1861 48.3281 46.4231C48.3281 46.6601 48.5836 46.8523 48.8988 46.8523Z" fill="#263238"/>
<path d="M48.6759 47.792C48.6586 47.7922 48.6416 47.7886 48.6259 47.7813C48.6103 47.7741 48.5964 47.7635 48.5854 47.7503C48.5659 47.7268 48.5564 47.6966 48.559 47.6662C48.5616 47.6358 48.5761 47.6077 48.5993 47.5879C48.6132 47.5763 48.9102 47.3048 48.7826 46.6738C48.7796 46.659 48.7795 46.6437 48.7824 46.6289C48.7854 46.6141 48.7912 46.6001 48.7996 46.5875C48.808 46.575 48.8189 46.5643 48.8315 46.556C48.8441 46.5477 48.8582 46.542 48.8731 46.5392C48.888 46.5362 48.9034 46.5361 48.9183 46.539C48.9333 46.5419 48.9475 46.5477 48.9603 46.5561C48.973 46.5645 48.9839 46.5753 48.9924 46.5879C49.0009 46.6006 49.0069 46.6148 49.0099 46.6297C49.1677 47.4023 48.7663 47.7503 48.7501 47.7642C48.7293 47.7817 48.7031 47.7915 48.6759 47.792Z" fill="#263238"/>
<path opacity="0.4" d="M49.3616 46.4C49.3616 46.5763 49.1551 46.7178 48.8976 46.7178C48.6401 46.7178 48.4336 46.5763 48.4336 46.4C48.4336 46.2237 48.6401 46.0845 48.8976 46.0845C49.1551 46.0845 49.3616 46.2167 49.3616 46.4Z" fill="white"/>
<path d="M36.4122 38.853C35.345 39.6162 33.496 42.565 33.1642 44.3073C33.162 44.3188 33.1563 44.3294 33.1479 44.3376C33.1395 44.3458 33.1288 44.3512 33.1173 44.3533C33.1057 44.3553 33.0938 44.3537 33.0831 44.3488C33.0725 44.3439 33.0635 44.3359 33.0575 44.3258C32.0501 42.6939 31.4523 40.8425 31.3152 38.9295C31.3146 38.9219 31.3125 38.9145 31.3091 38.9076C31.3056 38.9008 31.3008 38.8948 31.295 38.8898C31.2892 38.8848 31.2824 38.8811 31.2751 38.8787C31.2678 38.8764 31.2602 38.8755 31.2526 38.8762C30.9927 38.8935 30.734 38.9253 30.4777 38.9713C30.465 38.9748 30.4538 38.9824 30.4459 38.9929C30.4379 39.0033 30.4336 39.0161 30.4336 39.0293C30.5596 41.4202 31.4109 43.7161 32.8742 45.6111C32.8771 45.6169 32.8786 45.6232 32.8786 45.6297C32.8786 45.6361 32.8771 45.6425 32.8742 45.6482C32.7327 48.2582 32.9206 52.9238 32.9438 53.4782C32.9444 53.4932 32.9508 53.5074 32.9616 53.5178C32.9724 53.5281 32.9868 53.5339 33.0018 53.5339H33.6978C33.7057 53.5339 33.7134 53.5324 33.7206 53.5293C33.7278 53.5262 33.7343 53.5218 33.7397 53.5161C33.7451 53.5105 33.7493 53.5038 33.7521 53.4965C33.7549 53.4892 33.7561 53.4814 33.7558 53.4736C33.7234 52.94 33.5053 48.887 33.7558 45.5624C34.1479 43.0893 36.4934 39.7462 37.317 39.085C37.3259 39.0784 37.3326 39.0693 37.3362 39.0589C37.3399 39.0485 37.3404 39.0372 37.3377 39.0265C37.3349 39.0158 37.3291 39.0062 37.3209 38.9989C37.3127 38.9915 37.3024 38.9867 37.2915 38.9852C36.9435 38.9086 36.5445 38.8599 36.4494 38.8506C36.4371 38.8473 36.424 38.8481 36.4122 38.853Z" fill="#EF233C"/>
</svg>
