<svg width="116" height="116" viewBox="0 0 116 116" fill="none" xmlns="http://www.w3.org/2000/svg">
<path d="M108.484 58.443C107.34 68.1406 102.916 79.4181 94.0673 84.5964C80.7064 92.4264 81.8246 104.465 55.7432 109.699C51.9398 110.48 48.0628 110.847 44.1803 110.791C42.2801 110.756 40.384 110.601 38.5033 110.327C21.9269 107.908 10.7723 96.3866 6.67984 82.4759C1.29512 64.185 12.0483 52.1999 19.1754 44.994C26.3024 37.7881 31.5247 15.298 57.1236 9.96198C61.0281 9.12406 65.0163 8.73949 69.009 8.8159C78.1173 9.0479 88.0515 12.0314 94.9257 18.2722C95.4407 18.7362 95.9434 19.2219 96.4337 19.7292C105.987 29.5405 110.047 45.2213 108.484 58.443Z" fill="#EF233C"/>
<path opacity="0.7" d="M108.484 58.443C107.34 68.1406 102.916 79.4181 94.0673 84.5964C80.7064 92.4264 81.8246 104.465 55.7432 109.699C51.9398 110.48 48.0628 110.847 44.1803 110.791C42.2801 110.756 40.384 110.601 38.5033 110.327C21.9269 107.908 10.7723 96.3866 6.67984 82.4759C1.29512 64.185 12.0483 52.1999 19.1754 44.994C26.3024 37.7881 31.5247 15.298 57.1236 9.96198C61.0281 9.12406 65.0163 8.73949 69.009 8.8159C78.1173 9.0479 88.0515 12.0314 94.9257 18.2722C95.4407 18.7362 95.9434 19.2219 96.4337 19.7292C105.987 29.5405 110.047 45.2213 108.484 58.443Z" fill="white"/>
<path d="M5.90234 107.671H110.623" stroke="#263238" stroke-linecap="round" stroke-linejoin="round"/>
<path d="M87.5684 17.0289H100.609C100.609 17.0289 101.862 13.2751 99.6092 11.8993C97.3564 10.5236 97.3564 12.4005 95.6048 11.6488C94.1572 11.0293 93.8857 9.85077 93.482 8.60261C93.4356 8.46109 93.3869 8.31725 93.3359 8.17341C93.1968 7.78593 93.0171 7.41421 92.8 7.06445" stroke="#B2B2B2" stroke-linecap="round" stroke-linejoin="round"/>
<path d="M91.2631 5.43813C87.9942 3.05549 82.5909 3.94405 82.5909 9.02021C82.5909 10.273 79.5865 9.02021 78.4613 10.6442C77.3361 12.2682 78.5866 13.2728 77.0856 13.7739C75.5845 14.275 75.4616 13.0222 73.5801 13.1475C71.6985 13.2728 71.9561 15.0244 71.3273 15.5255C70.6986 16.0266 70.7033 15.776 69.3252 15.9013C67.9471 16.0266 67.7012 17.0265 67.7012 17.0265H85.2613" stroke="#B2B2B2" stroke-linecap="round" stroke-linejoin="round"/>
<path d="M94.618 15.66C94.618 15.66 95.3001 13.5535 93.6274 12.0037C91.9546 10.454 90.217 11.3216 89.7228 12.0037C89.2286 12.6858 89.2263 13.9873 88.4213 14.1103C87.6162 14.2332 87.7995 12.76 86.0711 13.1196C84.3427 13.4792 85.0178 15.2262 84.2151 15.5974C83.4124 15.9686 83.4101 14.6068 82.2942 15.0406C81.1782 15.4744 81.2409 16.2795 81.2409 16.2795" stroke="#B2B2B2" stroke-linecap="round" stroke-linejoin="round"/>
<path d="M85.7176 11.4493C85.2613 11.1243 84.7264 10.9273 84.1683 10.8788C83.6103 10.8302 83.0494 10.9319 82.5438 11.1733C80.7482 12.0015 81.5764 13.7253 80.7482 14.1405C79.9199 14.5558 79.507 14.0733 78.4722 14.5558C77.4375 15.0384 77.5048 15.7274 77.5048 15.7274" stroke="#B2B2B2" stroke-linecap="round" stroke-linejoin="round"/>
<path d="M12.0497 23.5296C11.8418 23.4145 11.6042 23.3644 11.3676 23.3858C10.6391 23.4345 10.7366 24.1166 10.493 24.3138C10.2494 24.511 10.261 24.4112 9.71344 24.4599C9.57565 24.4579 9.44063 24.4987 9.32713 24.5769C9.21363 24.6551 9.12728 24.7666 9.08008 24.8961H21.8888C21.8888 24.8961 22.2043 23.9518 21.8702 23.3022" stroke="#B2B2B2" stroke-linecap="round" stroke-linejoin="round"/>
<path d="M21.4982 22.8984C20.6213 22.3648 20.6213 23.0933 19.9415 22.801C19.3778 22.569 19.2734 22.105 19.1156 21.6178C19.097 21.5621 19.0785 21.5064 19.0576 21.4507C18.3198 19.3952 14.8816 19.2537 14.8816 21.7802C14.8816 22.2674 13.7216 21.7802 13.2762 22.4135C12.8307 23.0469 13.3249 23.4343 12.7402 23.6292" stroke="#B2B2B2" stroke-linecap="round" stroke-linejoin="round"/>
<path d="M19.5579 24.36C19.6291 24.1103 19.6309 23.8459 19.5631 23.5953C19.4952 23.3447 19.3603 23.1174 19.1727 22.9378C18.5231 22.3346 17.848 22.6733 17.6555 22.9378C17.4629 23.2023 17.4629 23.708 17.1474 23.7568C16.8319 23.8055 16.9154 23.2278 16.2333 23.3716C15.5512 23.5155 15.8227 24.1906 15.5095 24.3368C15.1963 24.4829 15.1963 23.9493 14.7624 24.1187C14.3286 24.288 14.3518 24.6012 14.3518 24.6012" stroke="#B2B2B2" stroke-linecap="round" stroke-linejoin="round"/>
<path d="M16.0966 22.7359C15.9191 22.6096 15.711 22.5331 15.494 22.5143C15.277 22.4955 15.0589 22.5352 14.8623 22.6292C14.1663 22.9517 14.4865 23.6222 14.1663 23.7892C13.8462 23.9562 13.6838 23.7637 13.2824 23.9516C12.8811 24.1395 12.9066 24.4156 12.9066 24.4156" stroke="#B2B2B2" stroke-linecap="round" stroke-linejoin="round"/>
<path d="M50.7341 10.5606C50.5283 10.4469 50.2933 10.3968 50.059 10.4168C49.3305 10.4655 49.428 11.1476 49.1844 11.3448C48.9408 11.542 48.9408 11.4422 48.4048 11.4886C48.2668 11.4867 48.1315 11.5279 48.018 11.6065C47.9045 11.6851 47.8183 11.7972 47.7715 11.9271H60.5732C60.5732 11.9271 60.8864 10.9829 60.5547 10.3333" stroke="#B2B2B2" stroke-linecap="round" stroke-linejoin="round"/>
<path d="M60.1818 9.92954C59.3049 9.39362 59.3049 10.1244 58.6228 9.8321C58.0613 9.6001 57.9546 9.1361 57.7992 8.6489C57.7806 8.59322 57.7621 8.53754 57.7412 8.48186C57.0011 6.42634 53.5652 6.2825 53.5652 8.8113C53.5652 9.29618 52.4052 8.8113 51.9574 9.44234C51.5097 10.0734 52.0061 10.4655 51.4238 10.6603" stroke="#B2B2B2" stroke-linecap="round" stroke-linejoin="round"/>
<path d="M58.2322 11.3936C58.3037 11.1454 58.3065 10.8825 58.2403 10.6329C58.1741 10.3832 58.0414 10.1562 57.8563 9.97609C57.2067 9.37289 56.5316 9.70929 56.3391 9.97609C56.1465 10.2429 56.1442 10.7463 55.831 10.795C55.5178 10.8438 55.599 10.2638 54.9169 10.4099C54.2348 10.5561 54.5063 11.2289 54.1931 11.3727C53.8799 11.5166 53.8799 10.9876 53.446 11.157C53.0122 11.3263 53.0354 11.6395 53.0354 11.6395" stroke="#B2B2B2" stroke-linecap="round" stroke-linejoin="round"/>
<path d="M54.7787 9.7557C54.6012 9.62937 54.3931 9.55284 54.1761 9.53408C53.9591 9.51531 53.741 9.55499 53.5444 9.64898C52.8484 9.96914 53.1686 10.6419 52.8484 10.809C52.5283 10.976 52.3659 10.7811 51.9622 10.9691C51.5585 11.157 51.5863 11.4331 51.5863 11.4331" stroke="#B2B2B2" stroke-linecap="round" stroke-linejoin="round"/>
<path d="M68.4999 18.8083H54.7539V93.0971H68.4999V18.8083Z" fill="#263238" stroke="#263238" stroke-linecap="round" stroke-linejoin="round"/>
<path d="M76.7433 18.8083H65.1387V93.0971H76.7433V18.8083Z" fill="white" stroke="#263238" stroke-linecap="round" stroke-linejoin="round"/>
<path d="M76.2002 19.6064H65.5723V23.2813H76.2002V19.6064Z" fill="white" stroke="#263238" stroke-linecap="round" stroke-linejoin="round"/>
<path d="M67.0098 20.1191V22.7895" stroke="#263238" stroke-linecap="round" stroke-linejoin="round"/>
<path d="M68.5879 20.1191V22.7895" stroke="#263238" stroke-linecap="round" stroke-linejoin="round"/>
<path d="M70.1641 20.1191V22.7895" stroke="#263238" stroke-linecap="round" stroke-linejoin="round"/>
<path d="M71.7402 20.1191V22.7895" stroke="#263238" stroke-linecap="round" stroke-linejoin="round"/>
<path d="M73.3184 20.1191V22.7895" stroke="#263238" stroke-linecap="round" stroke-linejoin="round"/>
<path d="M74.8945 20.1191V22.7895" stroke="#263238" stroke-linecap="round" stroke-linejoin="round"/>
<path d="M64.4817 19.6064H55.3711V23.2813H64.4817V19.6064Z" fill="white" stroke="#263238" stroke-linecap="round" stroke-linejoin="round"/>
<path d="M56.6035 20.1191V22.7895" stroke="#263238" stroke-linecap="round" stroke-linejoin="round"/>
<path d="M57.9551 20.1191V22.7895" stroke="#263238" stroke-linecap="round" stroke-linejoin="round"/>
<path d="M59.3047 20.1191V22.7895" stroke="#263238" stroke-linecap="round" stroke-linejoin="round"/>
<path d="M60.6582 20.1191V22.7895" stroke="#263238" stroke-linecap="round" stroke-linejoin="round"/>
<path d="M62.0098 20.1191V22.7895" stroke="#263238" stroke-linecap="round" stroke-linejoin="round"/>
<path d="M63.3613 20.1191V22.7895" stroke="#263238" stroke-linecap="round" stroke-linejoin="round"/>
<path d="M51.4292 28.5522H26.3477V93.0946H51.4292V28.5522Z" fill="white" stroke="#263238" stroke-linecap="round" stroke-linejoin="round"/>
<path d="M37.1953 31.0208H27.8828V90.6308H37.1953V31.0208Z" fill="#263238" stroke="#263238" stroke-linecap="round" stroke-linejoin="round"/>
<path d="M63.5718 28.5522H38.4902V93.0946H63.5718V28.5522Z" fill="white" stroke="#263238" stroke-linecap="round" stroke-linejoin="round"/>
<path d="M61.5043 31.0208H40.5547V90.6308H61.5043V31.0208Z" fill="white" stroke="#263238" stroke-linecap="round" stroke-linejoin="round"/>
<path d="M45.8174 33.4268H41.5254V35.6725H45.8174V33.4268Z" fill="white" stroke="#263238" stroke-linecap="round" stroke-linejoin="round"/>
<path d="M50.7236 33.4268H46.4316V35.6725H50.7236V33.4268Z" fill="white" stroke="#263238" stroke-linecap="round" stroke-linejoin="round"/>
<path d="M55.6279 33.4268H51.3359V35.6725H55.6279V33.4268Z" fill="white" stroke="#263238" stroke-linecap="round" stroke-linejoin="round"/>
<path d="M60.5342 33.4268H56.2422V35.6725H60.5342V33.4268Z" fill="white" stroke="#263238" stroke-linecap="round" stroke-linejoin="round"/>
<path d="M45.8174 37.4194H41.5254V39.6652H45.8174V37.4194Z" fill="white" stroke="#263238" stroke-linecap="round" stroke-linejoin="round"/>
<path d="M50.7236 37.4194H46.4316V39.6652H50.7236V37.4194Z" fill="white" stroke="#263238" stroke-linecap="round" stroke-linejoin="round"/>
<path d="M55.6279 37.4194H51.3359V39.6652H55.6279V37.4194Z" fill="white" stroke="#263238" stroke-linecap="round" stroke-linejoin="round"/>
<path d="M60.5342 37.4194H56.2422V39.6652H60.5342V37.4194Z" fill="white" stroke="#263238" stroke-linecap="round" stroke-linejoin="round"/>
<path d="M45.8174 41.4146H41.5254V43.6603H45.8174V41.4146Z" fill="white" stroke="#263238" stroke-linecap="round" stroke-linejoin="round"/>
<path d="M50.7236 41.4146H46.4316V43.6603H50.7236V41.4146Z" fill="white" stroke="#263238" stroke-linecap="round" stroke-linejoin="round"/>
<path d="M55.6279 41.4146H51.3359V43.6603H55.6279V41.4146Z" fill="white" stroke="#263238" stroke-linecap="round" stroke-linejoin="round"/>
<path d="M60.5342 41.4146H56.2422V43.6603H60.5342V41.4146Z" fill="white" stroke="#263238" stroke-linecap="round" stroke-linejoin="round"/>
<path d="M45.8174 45.4072H41.5254V47.653H45.8174V45.4072Z" fill="white" stroke="#263238" stroke-linecap="round" stroke-linejoin="round"/>
<path d="M50.7236 45.4072H46.4316V47.653H50.7236V45.4072Z" fill="white" stroke="#263238" stroke-linecap="round" stroke-linejoin="round"/>
<path d="M55.6279 45.4072H51.3359V47.653H55.6279V45.4072Z" fill="white" stroke="#263238" stroke-linecap="round" stroke-linejoin="round"/>
<path d="M60.5342 45.4072H56.2422V47.653H60.5342V45.4072Z" fill="white" stroke="#263238" stroke-linecap="round" stroke-linejoin="round"/>
<path d="M45.8174 49.4021H41.5254V51.6479H45.8174V49.4021Z" fill="white" stroke="#263238" stroke-linecap="round" stroke-linejoin="round"/>
<path d="M50.7236 49.4021H46.4316V51.6479H50.7236V49.4021Z" fill="white" stroke="#263238" stroke-linecap="round" stroke-linejoin="round"/>
<path d="M55.6279 49.4021H51.3359V51.6479H55.6279V49.4021Z" fill="white" stroke="#263238" stroke-linecap="round" stroke-linejoin="round"/>
<path d="M60.5342 49.4021H56.2422V51.6479H60.5342V49.4021Z" fill="white" stroke="#263238" stroke-linecap="round" stroke-linejoin="round"/>
<path d="M45.8174 53.3972H41.5254V55.643H45.8174V53.3972Z" fill="white" stroke="#263238" stroke-linecap="round" stroke-linejoin="round"/>
<path d="M50.7236 53.3972H46.4316V55.643H50.7236V53.3972Z" fill="white" stroke="#263238" stroke-linecap="round" stroke-linejoin="round"/>
<path d="M55.6279 53.3972H51.3359V55.643H55.6279V53.3972Z" fill="white" stroke="#263238" stroke-linecap="round" stroke-linejoin="round"/>
<path d="M60.5342 53.3972H56.2422V55.643H60.5342V53.3972Z" fill="white" stroke="#263238" stroke-linecap="round" stroke-linejoin="round"/>
<path d="M45.8174 57.3899H41.5254V59.6357H45.8174V57.3899Z" fill="white" stroke="#263238" stroke-linecap="round" stroke-linejoin="round"/>
<path d="M50.7236 57.3899H46.4316V59.6357H50.7236V57.3899Z" fill="white" stroke="#263238" stroke-linecap="round" stroke-linejoin="round"/>
<path d="M55.6279 57.3899H51.3359V59.6357H55.6279V57.3899Z" fill="white" stroke="#263238" stroke-linecap="round" stroke-linejoin="round"/>
<path d="M60.5342 57.3899H56.2422V59.6357H60.5342V57.3899Z" fill="white" stroke="#263238" stroke-linecap="round" stroke-linejoin="round"/>
<path d="M45.8174 61.385H41.5254V63.6308H45.8174V61.385Z" fill="white" stroke="#263238" stroke-linecap="round" stroke-linejoin="round"/>
<path d="M50.7236 61.385H46.4316V63.6308H50.7236V61.385Z" fill="white" stroke="#263238" stroke-linecap="round" stroke-linejoin="round"/>
<path d="M55.6279 61.385H51.3359V63.6308H55.6279V61.385Z" fill="white" stroke="#263238" stroke-linecap="round" stroke-linejoin="round"/>
<path d="M60.5342 61.385H56.2422V63.6308H60.5342V61.385Z" fill="white" stroke="#263238" stroke-linecap="round" stroke-linejoin="round"/>
<path d="M45.8174 65.3777H41.5254V67.6235H45.8174V65.3777Z" fill="white" stroke="#263238" stroke-linecap="round" stroke-linejoin="round"/>
<path d="M50.7236 65.3777H46.4316V67.6235H50.7236V65.3777Z" fill="white" stroke="#263238" stroke-linecap="round" stroke-linejoin="round"/>
<path d="M55.6279 65.3777H51.3359V67.6235H55.6279V65.3777Z" fill="white" stroke="#263238" stroke-linecap="round" stroke-linejoin="round"/>
<path d="M60.5342 65.3777H56.2422V67.6235H60.5342V65.3777Z" fill="white" stroke="#263238" stroke-linecap="round" stroke-linejoin="round"/>
<path d="M45.8174 69.3728H41.5254V71.6186H45.8174V69.3728Z" fill="white" stroke="#263238" stroke-linecap="round" stroke-linejoin="round"/>
<path d="M50.7236 69.3728H46.4316V71.6186H50.7236V69.3728Z" fill="white" stroke="#263238" stroke-linecap="round" stroke-linejoin="round"/>
<path d="M55.6279 69.3728H51.3359V71.6186H55.6279V69.3728Z" fill="white" stroke="#263238" stroke-linecap="round" stroke-linejoin="round"/>
<path d="M60.5342 69.3728H56.2422V71.6186H60.5342V69.3728Z" fill="white" stroke="#263238" stroke-linecap="round" stroke-linejoin="round"/>
<path d="M45.8174 73.3655H41.5254V75.6112H45.8174V73.3655Z" fill="white" stroke="#263238" stroke-linecap="round" stroke-linejoin="round"/>
<path d="M50.7236 73.3655H46.4316V75.6112H50.7236V73.3655Z" fill="white" stroke="#263238" stroke-linecap="round" stroke-linejoin="round"/>
<path d="M55.6279 73.3655H51.3359V75.6112H55.6279V73.3655Z" fill="white" stroke="#263238" stroke-linecap="round" stroke-linejoin="round"/>
<path d="M60.5342 73.3655H56.2422V75.6112H60.5342V73.3655Z" fill="white" stroke="#263238" stroke-linecap="round" stroke-linejoin="round"/>
<path d="M45.8174 77.3606H41.5254V79.6064H45.8174V77.3606Z" fill="white" stroke="#263238" stroke-linecap="round" stroke-linejoin="round"/>
<path d="M50.7236 77.3606H46.4316V79.6064H50.7236V77.3606Z" fill="white" stroke="#263238" stroke-linecap="round" stroke-linejoin="round"/>
<path d="M55.6279 77.3606H51.3359V79.6064H55.6279V77.3606Z" fill="white" stroke="#263238" stroke-linecap="round" stroke-linejoin="round"/>
<path d="M60.5342 77.3606H56.2422V79.6064H60.5342V77.3606Z" fill="white" stroke="#263238" stroke-linecap="round" stroke-linejoin="round"/>
<path d="M45.8174 81.3555H41.5254V83.6012H45.8174V81.3555Z" fill="white" stroke="#263238" stroke-linecap="round" stroke-linejoin="round"/>
<path d="M50.7236 81.3555H46.4316V83.6012H50.7236V81.3555Z" fill="white" stroke="#263238" stroke-linecap="round" stroke-linejoin="round"/>
<path d="M55.6279 81.3555H51.3359V83.6012H55.6279V81.3555Z" fill="white" stroke="#263238" stroke-linecap="round" stroke-linejoin="round"/>
<path d="M60.5342 81.3555H56.2422V83.6012H60.5342V81.3555Z" fill="white" stroke="#263238" stroke-linecap="round" stroke-linejoin="round"/>
<path d="M45.8174 85.3481H41.5254V87.5939H45.8174V85.3481Z" fill="white" stroke="#263238" stroke-linecap="round" stroke-linejoin="round"/>
<path d="M50.7236 85.3481H46.4316V87.5939H50.7236V85.3481Z" fill="white" stroke="#263238" stroke-linecap="round" stroke-linejoin="round"/>
<path d="M55.6279 85.3481H51.3359V87.5939H55.6279V85.3481Z" fill="white" stroke="#263238" stroke-linecap="round" stroke-linejoin="round"/>
<path d="M60.5342 85.3481H56.2422V87.5939H60.5342V85.3481Z" fill="white" stroke="#263238" stroke-linecap="round" stroke-linejoin="round"/>
<path d="M30.8446 33.4268H29.4062V35.6725H30.8446V33.4268Z" fill="white" stroke="#263238" stroke-linecap="round" stroke-linejoin="round"/>
<path d="M32.4892 33.4268H31.0508V35.6725H32.4892V33.4268Z" fill="white" stroke="#263238" stroke-linecap="round" stroke-linejoin="round"/>
<path d="M34.1318 33.4268H32.6934V35.6725H34.1318V33.4268Z" fill="white" stroke="#263238" stroke-linecap="round" stroke-linejoin="round"/>
<path d="M35.7743 33.4268H34.3359V35.6725H35.7743V33.4268Z" fill="white" stroke="#263238" stroke-linecap="round" stroke-linejoin="round"/>
<path d="M30.8446 37.4194H29.4062V39.6652H30.8446V37.4194Z" fill="white" stroke="#263238" stroke-linecap="round" stroke-linejoin="round"/>
<path d="M32.4892 37.4194H31.0508V39.6652H32.4892V37.4194Z" fill="white" stroke="#263238" stroke-linecap="round" stroke-linejoin="round"/>
<path d="M34.1318 37.4194H32.6934V39.6652H34.1318V37.4194Z" fill="white" stroke="#263238" stroke-linecap="round" stroke-linejoin="round"/>
<path d="M35.7743 37.4194H34.3359V39.6652H35.7743V37.4194Z" fill="white" stroke="#263238" stroke-linecap="round" stroke-linejoin="round"/>
<path d="M30.8446 41.4146H29.4062V43.6603H30.8446V41.4146Z" fill="white" stroke="#263238" stroke-linecap="round" stroke-linejoin="round"/>
<path d="M32.4892 41.4146H31.0508V43.6603H32.4892V41.4146Z" fill="white" stroke="#263238" stroke-linecap="round" stroke-linejoin="round"/>
<path d="M34.1318 41.4146H32.6934V43.6603H34.1318V41.4146Z" fill="white" stroke="#263238" stroke-linecap="round" stroke-linejoin="round"/>
<path d="M35.7743 41.4146H34.3359V43.6603H35.7743V41.4146Z" fill="white" stroke="#263238" stroke-linecap="round" stroke-linejoin="round"/>
<path d="M30.8446 45.4072H29.4062V47.653H30.8446V45.4072Z" fill="white" stroke="#263238" stroke-linecap="round" stroke-linejoin="round"/>
<path d="M32.4892 45.4072H31.0508V47.653H32.4892V45.4072Z" fill="white" stroke="#263238" stroke-linecap="round" stroke-linejoin="round"/>
<path d="M34.1318 45.4072H32.6934V47.653H34.1318V45.4072Z" fill="white" stroke="#263238" stroke-linecap="round" stroke-linejoin="round"/>
<path d="M35.7743 45.4072H34.3359V47.653H35.7743V45.4072Z" fill="white" stroke="#263238" stroke-linecap="round" stroke-linejoin="round"/>
<path d="M30.8446 49.4021H29.4062V51.6479H30.8446V49.4021Z" fill="white" stroke="#263238" stroke-linecap="round" stroke-linejoin="round"/>
<path d="M32.4892 49.4021H31.0508V51.6479H32.4892V49.4021Z" fill="white" stroke="#263238" stroke-linecap="round" stroke-linejoin="round"/>
<path d="M34.1318 49.4021H32.6934V51.6479H34.1318V49.4021Z" fill="white" stroke="#263238" stroke-linecap="round" stroke-linejoin="round"/>
<path d="M35.7743 49.4021H34.3359V51.6479H35.7743V49.4021Z" fill="white" stroke="#263238" stroke-linecap="round" stroke-linejoin="round"/>
<path d="M30.8446 53.3972H29.4062V55.643H30.8446V53.3972Z" fill="white" stroke="#263238" stroke-linecap="round" stroke-linejoin="round"/>
<path d="M32.4892 53.3972H31.0508V55.643H32.4892V53.3972Z" fill="white" stroke="#263238" stroke-linecap="round" stroke-linejoin="round"/>
<path d="M34.1318 53.3972H32.6934V55.643H34.1318V53.3972Z" fill="white" stroke="#263238" stroke-linecap="round" stroke-linejoin="round"/>
<path d="M35.7743 53.3972H34.3359V55.643H35.7743V53.3972Z" fill="white" stroke="#263238" stroke-linecap="round" stroke-linejoin="round"/>
<path d="M30.8446 57.3899H29.4062V59.6357H30.8446V57.3899Z" fill="white" stroke="#263238" stroke-linecap="round" stroke-linejoin="round"/>
<path d="M32.4892 57.3899H31.0508V59.6357H32.4892V57.3899Z" fill="white" stroke="#263238" stroke-linecap="round" stroke-linejoin="round"/>
<path d="M34.1318 57.3899H32.6934V59.6357H34.1318V57.3899Z" fill="white" stroke="#263238" stroke-linecap="round" stroke-linejoin="round"/>
<path d="M35.7743 57.3899H34.3359V59.6357H35.7743V57.3899Z" fill="white" stroke="#263238" stroke-linecap="round" stroke-linejoin="round"/>
<path d="M30.8446 61.385H29.4062V63.6308H30.8446V61.385Z" fill="white" stroke="#263238" stroke-linecap="round" stroke-linejoin="round"/>
<path d="M32.4892 61.385H31.0508V63.6308H32.4892V61.385Z" fill="white" stroke="#263238" stroke-linecap="round" stroke-linejoin="round"/>
<path d="M34.1318 61.385H32.6934V63.6308H34.1318V61.385Z" fill="white" stroke="#263238" stroke-linecap="round" stroke-linejoin="round"/>
<path d="M35.7743 61.385H34.3359V63.6308H35.7743V61.385Z" fill="white" stroke="#263238" stroke-linecap="round" stroke-linejoin="round"/>
<path d="M30.8446 65.3777H29.4062V67.6235H30.8446V65.3777Z" fill="white" stroke="#263238" stroke-linecap="round" stroke-linejoin="round"/>
<path d="M32.4892 65.3777H31.0508V67.6235H32.4892V65.3777Z" fill="white" stroke="#263238" stroke-linecap="round" stroke-linejoin="round"/>
<path d="M34.1318 65.3777H32.6934V67.6235H34.1318V65.3777Z" fill="white" stroke="#263238" stroke-linecap="round" stroke-linejoin="round"/>
<path d="M35.7743 65.3777H34.3359V67.6235H35.7743V65.3777Z" fill="white" stroke="#263238" stroke-linecap="round" stroke-linejoin="round"/>
<path d="M30.8446 69.3728H29.4062V71.6186H30.8446V69.3728Z" fill="white" stroke="#263238" stroke-linecap="round" stroke-linejoin="round"/>
<path d="M32.4892 69.3728H31.0508V71.6186H32.4892V69.3728Z" fill="white" stroke="#263238" stroke-linecap="round" stroke-linejoin="round"/>
<path d="M34.1318 69.3728H32.6934V71.6186H34.1318V69.3728Z" fill="white" stroke="#263238" stroke-linecap="round" stroke-linejoin="round"/>
<path d="M35.7743 69.3728H34.3359V71.6186H35.7743V69.3728Z" fill="white" stroke="#263238" stroke-linecap="round" stroke-linejoin="round"/>
<path d="M30.8446 73.3655H29.4062V75.6112H30.8446V73.3655Z" fill="white" stroke="#263238" stroke-linecap="round" stroke-linejoin="round"/>
<path d="M32.4892 73.3655H31.0508V75.6112H32.4892V73.3655Z" fill="white" stroke="#263238" stroke-linecap="round" stroke-linejoin="round"/>
<path d="M34.1318 73.3655H32.6934V75.6112H34.1318V73.3655Z" fill="white" stroke="#263238" stroke-linecap="round" stroke-linejoin="round"/>
<path d="M35.7743 73.3655H34.3359V75.6112H35.7743V73.3655Z" fill="white" stroke="#263238" stroke-linecap="round" stroke-linejoin="round"/>
<path d="M30.8446 77.3606H29.4062V79.6064H30.8446V77.3606Z" fill="white" stroke="#263238" stroke-linecap="round" stroke-linejoin="round"/>
<path d="M32.4892 77.3606H31.0508V79.6064H32.4892V77.3606Z" fill="white" stroke="#263238" stroke-linecap="round" stroke-linejoin="round"/>
<path d="M34.1318 77.3606H32.6934V79.6064H34.1318V77.3606Z" fill="white" stroke="#263238" stroke-linecap="round" stroke-linejoin="round"/>
<path d="M35.7743 77.3606H34.3359V79.6064H35.7743V77.3606Z" fill="white" stroke="#263238" stroke-linecap="round" stroke-linejoin="round"/>
<path d="M30.8446 81.3555H29.4062V83.6012H30.8446V81.3555Z" fill="white" stroke="#263238" stroke-linecap="round" stroke-linejoin="round"/>
<path d="M32.4892 81.3555H31.0508V83.6012H32.4892V81.3555Z" fill="white" stroke="#263238" stroke-linecap="round" stroke-linejoin="round"/>
<path d="M34.1318 81.3555H32.6934V83.6012H34.1318V81.3555Z" fill="white" stroke="#263238" stroke-linecap="round" stroke-linejoin="round"/>
<path d="M35.7743 81.3555H34.3359V83.6012H35.7743V81.3555Z" fill="white" stroke="#263238" stroke-linecap="round" stroke-linejoin="round"/>
<path d="M30.8446 85.3481H29.4062V87.5939H30.8446V85.3481Z" fill="white" stroke="#263238" stroke-linecap="round" stroke-linejoin="round"/>
<path d="M32.4892 85.3481H31.0508V87.5939H32.4892V85.3481Z" fill="white" stroke="#263238" stroke-linecap="round" stroke-linejoin="round"/>
<path d="M34.1318 85.3481H32.6934V87.5939H34.1318V85.3481Z" fill="white" stroke="#263238" stroke-linecap="round" stroke-linejoin="round"/>
<path d="M35.7743 85.3481H34.3359V87.5939H35.7743V85.3481Z" fill="white" stroke="#263238" stroke-linecap="round" stroke-linejoin="round"/>
<path d="M78.6366 99.1013H16.957V107.785H78.6366V99.1013Z" fill="#263238" stroke="#263238" stroke-linecap="round" stroke-linejoin="round"/>
<path d="M46.884 101.969H45.2832V107.783H46.884V101.969Z" fill="white" stroke="#263238" stroke-linecap="round" stroke-linejoin="round"/>
<path d="M39.5227 101.969H37.9219V107.783H39.5227V101.969Z" fill="white" stroke="#263238" stroke-linecap="round" stroke-linejoin="round"/>
<path d="M32.1613 101.969H30.5605V107.783H32.1613V101.969Z" fill="white" stroke="#263238" stroke-linecap="round" stroke-linejoin="round"/>
<path d="M24.8 101.969H23.1992V107.783H24.8V101.969Z" fill="white" stroke="#263238" stroke-linecap="round" stroke-linejoin="round"/>
<path d="M17.4406 101.969H15.8398V107.783H17.4406V101.969Z" fill="white" stroke="#263238" stroke-linecap="round" stroke-linejoin="round"/>
<path d="M57.7297 101.969H56.1289V107.783H57.7297V101.969Z" fill="white" stroke="#263238" stroke-linecap="round" stroke-linejoin="round"/>
<path d="M68.5793 101.969H66.9785V107.783H68.5793V101.969Z" fill="white" stroke="#263238" stroke-linecap="round" stroke-linejoin="round"/>
<path d="M79.425 101.969H77.8242V107.783H79.425V101.969Z" fill="white" stroke="#263238" stroke-linecap="round" stroke-linejoin="round"/>
<path d="M79.8298 86.6125H37.6777V102.716H79.8298V86.6125Z" fill="white" stroke="#263238" stroke-linecap="round" stroke-linejoin="round"/>
<path d="M44.4831 86.6125H13.6758V102.716H44.4831V86.6125Z" fill="white" stroke="#263238" stroke-linecap="round" stroke-linejoin="round"/>
<path d="M43.144 89.4314H15.0117V98.8552H43.144V89.4314Z" fill="#263238" stroke="#263238" stroke-linecap="round" stroke-linejoin="round"/>
<path d="M51.4288 89.4453H45.5801V93.097H51.4288V89.4453Z" fill="white" stroke="#263238" stroke-linecap="round" stroke-linejoin="round"/>
<path d="M58.2901 89.4453H52.4414V93.097H58.2901V89.4453Z" fill="white" stroke="#263238" stroke-linecap="round" stroke-linejoin="round"/>
<path d="M65.1475 89.4453H59.2988V93.097H65.1475V89.4453Z" fill="white" stroke="#263238" stroke-linecap="round" stroke-linejoin="round"/>
<path d="M72.005 89.4453H66.1562V93.097H72.005V89.4453Z" fill="white" stroke="#263238" stroke-linecap="round" stroke-linejoin="round"/>
<path d="M78.8624 89.4453H73.0137V93.097H78.8624V89.4453Z" fill="white" stroke="#263238" stroke-linecap="round" stroke-linejoin="round"/>
<path d="M51.4288 95.2246H45.5801V98.8763H51.4288V95.2246Z" fill="white" stroke="#263238" stroke-linecap="round" stroke-linejoin="round"/>
<path d="M58.2901 95.2246H52.4414V98.8763H58.2901V95.2246Z" fill="white" stroke="#263238" stroke-linecap="round" stroke-linejoin="round"/>
<path d="M65.1475 95.2246H59.2988V98.8763H65.1475V95.2246Z" fill="white" stroke="#263238" stroke-linecap="round" stroke-linejoin="round"/>
<path d="M72.005 95.2246H66.1562V98.8763H72.005V95.2246Z" fill="white" stroke="#263238" stroke-linecap="round" stroke-linejoin="round"/>
<path d="M78.8624 95.2246H73.0137V98.8763H78.8624V95.2246Z" fill="white" stroke="#263238" stroke-linecap="round" stroke-linejoin="round"/>
<path d="M20.033 89.4453H15.3164V93.097H20.033V89.4453Z" fill="white" stroke="#263238" stroke-linecap="round" stroke-linejoin="round"/>
<path d="M25.5603 89.4453H20.8438V93.097H25.5603V89.4453Z" fill="white" stroke="#263238" stroke-linecap="round" stroke-linejoin="round"/>
<path d="M31.0916 89.4453H26.375V93.097H31.0916V89.4453Z" fill="white" stroke="#263238" stroke-linecap="round" stroke-linejoin="round"/>
<path d="M36.6228 89.4453H31.9062V93.097H36.6228V89.4453Z" fill="white" stroke="#263238" stroke-linecap="round" stroke-linejoin="round"/>
<path d="M42.1541 89.4453H37.4375V93.097H42.1541V89.4453Z" fill="white" stroke="#263238" stroke-linecap="round" stroke-linejoin="round"/>
<path d="M20.033 95.2246H15.3164V98.8763H20.033V95.2246Z" fill="white" stroke="#263238" stroke-linecap="round" stroke-linejoin="round"/>
<path d="M25.5603 95.2246H20.8438V98.8763H25.5603V95.2246Z" fill="white" stroke="#263238" stroke-linecap="round" stroke-linejoin="round"/>
<path d="M31.0916 95.2246H26.375V98.8763H31.0916V95.2246Z" fill="white" stroke="#263238" stroke-linecap="round" stroke-linejoin="round"/>
<path d="M36.6228 95.2246H31.9062V98.8763H36.6228V95.2246Z" fill="white" stroke="#263238" stroke-linecap="round" stroke-linejoin="round"/>
<path d="M42.1541 95.2246H37.4375V98.8763H42.1541V95.2246Z" fill="white" stroke="#263238" stroke-linecap="round" stroke-linejoin="round"/>
<path d="M50.7322 84.1304H25.9453V86.7636H50.7322V84.1304Z" fill="#263238" stroke="#263238" stroke-linecap="round" stroke-linejoin="round"/>
<path d="M67.1541 84.1304H42.3672V86.7636H67.1541V84.1304Z" fill="white" stroke="#263238" stroke-linecap="round" stroke-linejoin="round"/>
<path d="M106.143 16.1958L92.9769 29.3618C92.4009 29.9374 91.6199 30.2607 90.8057 30.2605C89.9914 30.2602 89.2106 29.9366 88.635 29.3606C88.0594 28.7847 87.7361 28.0037 87.7363 27.1895C87.7365 26.3752 88.0602 25.5944 88.6361 25.0188L101.8 11.8528C102.38 11.2968 103.155 10.9902 103.958 10.9987C104.761 11.0072 105.529 11.3301 106.097 11.8982C106.666 12.4663 106.988 13.2344 106.997 14.0377C107.005 14.8411 106.699 15.6158 106.143 16.1958Z" fill="#263238" stroke="#263238" stroke-linecap="round" stroke-linejoin="round"/>
<path d="M90.7398 29.7887L83.4155 37.1199C83.0796 37.4558 82.6239 37.6445 82.1488 37.6445C81.6737 37.6445 81.2181 37.4558 80.8821 37.1199C80.5462 36.7839 80.3574 36.3282 80.3574 35.8531C80.3574 35.378 80.5462 34.9224 80.8821 34.5864L88.2064 27.2645C88.5445 26.9408 88.9959 26.7624 89.464 26.7674C89.932 26.7725 90.3795 26.9605 90.7107 27.2913C91.0418 27.6222 91.2302 28.0695 91.2357 28.5375C91.2411 29.0056 91.0631 29.4572 90.7398 29.7956V29.7887Z" fill="white" stroke="#263238" stroke-linecap="round" stroke-linejoin="round"/>
<path d="M61.9674 35.8463C59.972 37.8422 58.6133 40.3849 58.063 43.153C57.5127 45.9211 57.7955 48.7902 58.8757 51.3975C59.9559 54.0048 61.785 56.2333 64.1316 57.8012C66.4783 59.3691 69.2372 60.2059 72.0594 60.2059C74.8816 60.2059 77.6405 59.3691 79.9872 57.8012C82.3338 56.2333 84.1629 54.0048 85.2431 51.3975C86.3233 48.7902 86.6061 45.9211 86.0558 43.153C85.5055 40.3849 84.1467 37.8422 82.1514 35.8463C80.8262 34.5208 79.2529 33.4693 77.5213 32.7519C75.7897 32.0345 73.9337 31.6653 72.0594 31.6653C70.1851 31.6653 68.3291 32.0345 66.5975 32.7519C64.8659 33.4693 63.2926 34.5208 61.9674 35.8463ZM80.3743 54.2532C78.7295 55.8978 76.6341 57.0177 74.3529 57.4714C72.0717 57.925 69.7072 57.6921 67.5584 56.802C65.4096 55.9118 63.573 54.4045 62.2808 52.4706C60.9887 50.5367 60.299 48.263 60.299 45.9372C60.299 43.6113 60.9887 41.3376 62.2808 39.4037C63.573 37.4698 65.4096 35.9625 67.5584 35.0724C69.7072 34.1822 72.0717 33.9493 74.3529 34.403C76.6341 34.8566 78.7295 35.9766 80.3743 37.6211C81.4664 38.7132 82.3328 40.0096 82.9238 41.4365C83.5149 42.8634 83.8191 44.3927 83.8191 45.9372C83.8191 47.4816 83.5149 49.0109 82.9238 50.4378C82.3328 51.8647 81.4664 53.1612 80.3743 54.2532Z" fill="#263238" stroke="#263238" stroke-linecap="round" stroke-linejoin="round"/>
<path opacity="0.56" d="M72.7073 57.0487C79.2023 57.0487 84.4674 51.7836 84.4674 45.2886C84.4674 38.7937 79.2023 33.5286 72.7073 33.5286C66.2124 33.5286 60.9473 38.7937 60.9473 45.2886C60.9473 51.7836 66.2124 57.0487 72.7073 57.0487Z" fill="white"/>
<path d="M62.6178 35.1967C60.6224 37.1926 59.2637 39.7353 58.7134 42.5034C58.1631 45.2714 58.4459 48.1405 59.5261 50.7478C60.6063 53.3552 62.4354 55.5837 64.782 57.1516C67.1287 58.7194 69.8875 59.5563 72.7098 59.5563C75.532 59.5563 78.2909 58.7194 80.6375 57.1516C82.9842 55.5837 84.8133 53.3552 85.8935 50.7478C86.9737 48.1405 87.2565 45.2714 86.7062 42.5034C86.1559 39.7353 84.7971 37.1926 82.8018 35.1967C81.4766 33.8711 79.9033 32.8196 78.1717 32.1023C76.4401 31.3849 74.5841 31.0156 72.7098 31.0156C70.8355 31.0156 68.9795 31.3849 67.2479 32.1023C65.5163 32.8196 63.943 33.8711 62.6178 35.1967ZM81.0247 53.6035C79.3799 55.2481 77.2845 56.368 75.0033 56.8217C72.7221 57.2754 70.3576 57.0424 68.2088 56.1523C66.06 55.2622 64.2234 53.7548 62.9312 51.8209C61.639 49.887 60.9494 47.6134 60.9494 45.2875C60.9494 42.9616 61.639 40.688 62.9312 38.7541C64.2234 36.8202 66.06 35.3128 68.2088 34.4227C70.3576 33.5326 72.7221 33.2996 75.0033 33.7533C77.2845 34.207 79.3799 35.3269 81.0247 36.9715C82.1168 38.0635 82.9832 39.36 83.5742 40.7869C84.1653 42.2137 84.4695 43.7431 84.4695 45.2875C84.4695 46.832 84.1653 48.3613 83.5742 49.7882C82.9832 51.215 82.1168 52.5115 81.0247 53.6035Z" fill="white" stroke="#263238" stroke-linecap="round" stroke-linejoin="round"/>
<path d="M35.3594 29.747V21.8335" stroke="#263238" stroke-linecap="round" stroke-linejoin="round"/>
<path d="M34.7 18.9497V20.293L34.1641 21.221C34.1638 21.3696 34.1928 21.5167 34.2494 21.6541C34.306 21.7914 34.3892 21.9162 34.4942 22.0214C34.5991 22.1266 34.7238 22.21 34.861 22.2669C34.9982 22.3238 35.1453 22.3531 35.2939 22.3531C35.592 22.3532 35.8779 22.2354 36.0896 22.0255C36.3012 21.8156 36.4213 21.5306 36.4237 21.2326V20.3046" stroke="#263238" stroke-width="3" stroke-linecap="round" stroke-linejoin="round"/>
<path d="M33.5345 18.887H35.7988V16.3721H33.5345V18.887Z" fill="white" stroke="#263238" stroke-linecap="round" stroke-linejoin="round"/>
<path d="M32.6993 18.0471H36.6387V12.9965H32.6993V18.0471Z" fill="white" stroke="#263238" stroke-linecap="round" stroke-linejoin="round"/>
<path d="M31.5241 17.0845H37.7695V15.5347H31.5241V17.0845Z" fill="white" stroke="#263238" stroke-linecap="round" stroke-linejoin="round"/>
<path d="M34.666 15.5322H35.5615L36.8259 16.966L36.6937 17.0843H36.0348L34.666 15.5322Z" fill="#263238"/>
<path d="M37.278 15.5322L37.7675 16.0867V17.0843H37.7512L36.3848 15.5322H37.278Z" fill="#263238"/>
<path d="M32.9473 15.5322H33.8428L35.1072 16.966L34.9749 17.0843H34.3161L32.9473 15.5322Z" fill="#263238"/>
<path d="M31.5234 15.8663V15.5322H32.1243L33.3887 16.966L33.2565 17.0843H32.5976L31.5234 15.8663Z" fill="#263238"/>
<path d="M34.7559 12.9083V9.86914" stroke="#263238" stroke-width="2" stroke-linecap="round" stroke-linejoin="round"/>
<path d="M3.57812 9.79266H36.3342V7.97146L28.0727 4.4729H3.57812" stroke="#263238" stroke-width="2" stroke-linecap="round" stroke-linejoin="round"/>
<path d="M28.0722 9.79266V4.4729L22.6133 9.79266V4.4729L28.0722 9.79266Z" stroke="#263238" stroke-width="2" stroke-linecap="round" stroke-linejoin="round"/>
<path d="M19.8606 7.15946L17.1602 9.79266V4.4729L22.6214 9.79266V4.4729L19.8606 7.15946Z" stroke="#263238" stroke-width="2" stroke-linecap="round" stroke-linejoin="round"/>
<path d="M17.166 9.79266V4.4729L11.707 9.79266V4.4729L17.166 9.79266Z" stroke="#263238" stroke-width="2" stroke-linecap="round" stroke-linejoin="round"/>
<path d="M9.11911 7.26386L11.7152 9.79266V4.4729L6.25391 9.79266V4.4729L9.11911 7.26386Z" stroke="#263238" stroke-width="2" stroke-linecap="round" stroke-linejoin="round"/>
<path d="M35.2187 25.8865L15.2227 40.9804" stroke="#263238" stroke-linecap="round" stroke-linejoin="round"/>
<path d="M35.2188 25.8865L55.2148 40.9804" stroke="#263238" stroke-linecap="round" stroke-linejoin="round"/>
<path d="M54.8941 40.7578C48.2396 38.7887 42.1273 35.315 37.0301 30.6055C36.565 30.1663 35.9496 29.9216 35.3099 29.9216C34.6702 29.9216 34.0547 30.1663 33.5896 30.6055C28.493 35.3157 22.3805 38.7895 15.7256 40.7578C15.1745 40.923 14.697 41.2729 14.3734 41.7486C14.0498 42.2243 13.8997 42.7969 13.9485 43.3702C14.4125 48.7781 17.2127 63.7861 33.6476 78.1307C34.1049 78.5298 34.6913 78.7498 35.2983 78.7498C35.9052 78.7498 36.4917 78.5298 36.9489 78.1307C53.3838 63.7931 56.1841 48.7781 56.6481 43.3702C56.699 42.7997 56.5526 42.2291 56.2334 41.7536C55.9142 41.2781 55.4414 40.9266 54.8941 40.7578Z" fill="#EF233C" stroke="#263238" stroke-linecap="round" stroke-linejoin="round"/>
<path d="M51.1242 43.0059C45.8884 41.4006 41.0702 38.6624 37.0116 34.9857C36.5503 34.564 35.9478 34.3301 35.3227 34.3301C34.6976 34.3301 34.0951 34.564 33.6337 34.9857C29.5743 38.6613 24.7564 41.3994 19.5212 43.0059C18.9642 43.1741 18.4829 43.5304 18.1596 44.0141C17.8363 44.4978 17.6911 45.0788 17.7487 45.6577C18.2266 50.3835 20.7438 62.2596 33.6592 73.6763C34.1183 74.0813 34.7094 74.3048 35.3215 74.3048C35.9337 74.3048 36.5248 74.0813 36.9838 73.6763C49.9016 62.2596 52.4164 50.3835 52.8967 45.6577C52.9529 45.079 52.8071 44.4987 52.484 44.0153C52.1609 43.5319 51.6804 43.1752 51.1242 43.0059Z" fill="#263238" stroke="#263238" stroke-miterlimit="10"/>
<path d="M51.1238 43.006C46.8725 41.6932 42.8861 39.641 39.3475 36.9438C38.9759 36.6604 38.5325 36.4866 38.0673 36.4419C37.6022 36.3972 37.1338 36.4835 36.7151 36.6911C36.2964 36.8986 35.9441 37.2191 35.698 37.6163C35.4518 38.0136 35.3217 38.4717 35.3223 38.939V69.4447C35.322 69.9397 35.4683 70.4236 35.7427 70.8355C36.0171 71.2474 36.4074 71.5688 36.8643 71.7591C37.3211 71.9495 37.8242 72.0003 38.3099 71.905C38.7956 71.8098 39.2422 71.5729 39.5934 71.2241C50.2491 60.5985 52.4508 50.0425 52.8963 45.6554C52.952 45.0771 52.8059 44.4973 52.4828 44.0144C52.1598 43.5315 51.6796 43.1752 51.1238 43.006Z" fill="white" stroke="#263238" stroke-linecap="round" stroke-linejoin="round"/>
<path d="M39.291 56.6686C41.3041 54.6554 41.3041 51.3914 39.291 49.3783C37.2778 47.3651 34.0138 47.3651 32.0006 49.3783C29.9875 51.3914 29.9875 54.6554 32.0006 56.6686C34.0138 58.6818 37.2778 58.6818 39.291 56.6686Z" fill="white" stroke="#263238" stroke-width="3" stroke-linecap="round" stroke-linejoin="round"/>
<path d="M36.0124 55.1859C35.847 55.1845 35.6838 55.1478 35.5338 55.0782C35.3837 55.0086 35.2503 54.9077 35.1424 54.7822L32.8804 52.1421C32.6997 51.9067 32.6161 51.6109 32.6469 51.3158C32.6776 51.0206 32.8202 50.7484 33.0455 50.5552C33.2708 50.362 33.5616 50.2625 33.858 50.2772C34.1544 50.2919 34.4339 50.4196 34.639 50.6341L36.031 52.2743L40.671 47.0961C40.7689 46.971 40.8915 46.8675 41.0311 46.7917C41.1707 46.716 41.3243 46.6698 41.4825 46.6558C41.6407 46.6419 41.8001 46.6606 41.9508 46.7108C42.1014 46.761 42.2402 46.8416 42.3585 46.9476C42.4767 47.0536 42.572 47.1827 42.6383 47.3271C42.7046 47.4714 42.7405 47.6277 42.7439 47.7865C42.7473 47.9453 42.7181 48.1031 42.658 48.2501C42.598 48.3971 42.5084 48.5302 42.3948 48.6412L36.8894 54.8008C36.7809 54.9217 36.6482 55.0184 36.4999 55.0848C36.3517 55.1511 36.1911 55.1856 36.0287 55.1859H36.0124Z" fill="#EF233C"/>
<path d="M41.5535 47.0589C41.7101 47.0583 41.8636 47.1032 41.9952 47.1883C42.1267 47.2734 42.2307 47.3949 42.2944 47.538C42.3581 47.6812 42.3788 47.8397 42.3539 47.9944C42.329 48.1491 42.2597 48.2932 42.1543 48.4092L36.6235 54.5688C36.5475 54.6535 36.4545 54.7213 36.3506 54.7676C36.2466 54.814 36.1341 54.8379 36.0203 54.8379C35.9051 54.8362 35.7915 54.8101 35.6871 54.7613C35.5827 54.7126 35.4899 54.6422 35.4147 54.5548L33.1527 51.9147C33.0811 51.8343 33.0262 51.7404 32.9913 51.6386C32.9564 51.5368 32.9421 51.429 32.9493 51.3215C32.9566 51.2141 32.9852 51.1092 33.0334 51.013C33.0817 50.9167 33.1487 50.8311 33.2305 50.761C33.3122 50.691 33.4071 50.638 33.5097 50.6051C33.6122 50.5721 33.7202 50.56 33.8275 50.5693C33.9347 50.5787 34.0391 50.6093 34.1343 50.6595C34.2296 50.7096 34.3139 50.7783 34.3823 50.8614L36.0435 52.8009L40.9503 47.328C41.0261 47.2431 41.119 47.1752 41.223 47.1288C41.327 47.0824 41.4396 47.0586 41.5535 47.0589ZM41.5535 46.3629C41.3422 46.3633 41.1334 46.4079 40.9404 46.4938C40.7475 46.5797 40.5746 46.7051 40.4329 46.8617L36.0481 51.7337L34.902 50.3974C34.7733 50.2472 34.6163 50.1238 34.4399 50.0343C34.2635 49.9448 34.0711 49.8909 33.8739 49.8757C33.6767 49.8605 33.4784 49.8844 33.2904 49.9458C33.1024 50.0072 32.9283 50.1051 32.7781 50.2338C32.6279 50.3626 32.5045 50.5196 32.415 50.696C32.3255 50.8724 32.2716 51.0647 32.2564 51.2619C32.2412 51.4592 32.265 51.6575 32.3265 51.8455C32.3879 52.0335 32.4858 52.2076 32.6145 52.3578L34.8788 54.9956C35.0179 55.1587 35.1903 55.29 35.3844 55.3808C35.5785 55.4717 35.7898 55.5199 36.004 55.5223H36.0203C36.2316 55.5224 36.4406 55.4781 36.6336 55.3922C36.8267 55.3062 36.9995 55.1806 37.1408 55.0235L42.6717 48.8639C42.8662 48.6476 42.994 48.3796 43.0394 48.0922C43.0849 47.8049 43.0461 47.5106 42.9278 47.2448C42.8095 46.979 42.6168 46.7532 42.3729 46.5946C42.129 46.4361 41.8444 46.3516 41.5535 46.3513V46.3629Z" fill="#263238"/>
<path d="M92.5678 105.328C92.5678 105.328 91.7651 106.551 91.1108 107.066C90.4566 107.581 88.9207 108.323 88.4915 108.669C88.0623 109.015 88.2595 109.323 88.4011 109.472C88.5426 109.62 90.5239 109.729 91.6003 109.731C92.6768 109.734 94.6163 109.267 94.6163 109.267C94.6163 109.267 95.4747 109.404 95.6905 109.295C95.9063 109.186 96.0478 108.943 96.0803 108.562C96.1127 108.182 95.9921 106.033 95.9921 106.033L92.5678 105.328Z" fill="white" stroke="#263238" stroke-linecap="round" stroke-linejoin="round"/>
<path d="M94.8691 108.699C94.0316 108.833 93.8669 109.024 92.2498 109.265C90.9158 109.464 88.9438 109.219 88.2246 109.091C88.2269 109.162 88.2433 109.232 88.2728 109.296C88.3022 109.361 88.3442 109.419 88.3963 109.467C88.5448 109.615 90.5191 109.724 91.5956 109.727C92.672 109.729 94.6116 109.263 94.6116 109.263C94.6116 109.263 95.47 109.4 95.6857 109.29C95.8081 109.214 95.9084 109.107 95.9768 108.98C96.0451 108.853 96.0791 108.711 96.0755 108.567C95.6711 108.587 95.2683 108.632 94.8691 108.699Z" fill="#263238" stroke="#263238" stroke-linecap="round" stroke-linejoin="round"/>
<path d="M93.263 106.226C93.263 106.226 92.335 105.813 91.7109 106.509" stroke="#263238" stroke-width="2" stroke-linecap="round" stroke-linejoin="round"/>
<path d="M92.2031 105.875C92.2031 105.875 92.9154 106.435 92.8202 107.035" stroke="#263238" stroke-width="2" stroke-linecap="round" stroke-linejoin="round"/>
<path d="M92.5671 106.871C92.5671 106.871 91.8363 106.532 91.3398 107.103" stroke="#263238" stroke-width="2" stroke-linecap="round" stroke-linejoin="round"/>
<path d="M91.7344 106.585C91.7344 106.585 92.2958 107.049 92.2169 107.537" stroke="#263238" stroke-width="2" stroke-linecap="round" stroke-linejoin="round"/>
<path d="M92.0306 107.525C92.0306 107.525 91.3555 107.207 90.293 107.583" stroke="#263238" stroke-width="2" stroke-linecap="round" stroke-linejoin="round"/>
<path d="M91.1752 107.235C91.2258 107.286 91.2641 107.349 91.2872 107.417C91.3102 107.485 91.3174 107.558 91.3083 107.629C91.2991 107.701 91.2738 107.769 91.2343 107.83C91.1947 107.89 91.142 107.941 91.0801 107.978" stroke="#263238" stroke-width="2" stroke-linecap="round" stroke-linejoin="round"/>
<path d="M97.8545 106.488C97.8545 106.488 97.4577 107.908 97.3139 108.112C97.1701 108.316 96.2258 109.504 96.2189 109.919C96.2119 110.335 96.5135 110.655 97.2652 110.826C98.0169 110.998 99.1908 111.058 100.121 110.634C101.051 110.209 101.474 110.07 101.71 109.42C101.947 108.771 101.789 106.592 101.789 106.592C101.789 106.592 98.8776 104.446 97.8545 106.488Z" fill="white" stroke="#263238" stroke-linecap="round" stroke-linejoin="round"/>
<path d="M101.71 109.414C101.804 109.065 101.85 108.705 101.847 108.344C101.652 108.654 101.434 108.948 101.193 109.223C100.729 109.731 99.9425 110.295 98.4321 110.406C97.6525 110.476 96.8766 110.238 96.2699 109.743C96.249 109.801 96.2357 109.861 96.2305 109.922C96.2305 110.346 96.5251 110.657 97.2768 110.829C98.0285 111 99.2024 111.061 100.133 110.636C101.063 110.212 101.474 110.063 101.71 109.414Z" fill="#263238" stroke="#263238" stroke-linecap="round" stroke-linejoin="round"/>
<path d="M99.9032 106.005C99.9032 106.005 98.6295 105.943 98.2305 106.701" stroke="#263238" stroke-width="2" stroke-linecap="round" stroke-linejoin="round"/>
<path d="M98.5098 106.024C98.5098 106.024 99.6025 106.256 99.7718 106.776" stroke="#263238" stroke-width="2" stroke-linecap="round" stroke-linejoin="round"/>
<path d="M99.6512 106.934C99.6512 106.934 98.3776 106.873 97.9785 107.63" stroke="#263238" stroke-width="2" stroke-linecap="round" stroke-linejoin="round"/>
<path d="M98.2559 106.952C98.2559 106.952 99.3486 107.184 99.5156 107.704" stroke="#263238" stroke-width="2" stroke-linecap="round" stroke-linejoin="round"/>
<path d="M99.3954 107.861C99.3954 107.861 98.1217 107.801 97.7227 108.557" stroke="#263238" stroke-width="2" stroke-linecap="round" stroke-linejoin="round"/>
<path d="M98.0039 107.88C98.0039 107.88 99.0943 108.112 99.2637 108.632" stroke="#263238" stroke-width="2" stroke-linecap="round" stroke-linejoin="round"/>
<path d="M90.248 78.6154C90.248 78.6154 90.7376 85.9954 90.944 88.0671C91.1505 90.1389 91.6632 94.9158 91.705 95.0434C91.7468 95.171 91.8744 96.8599 91.8744 96.8599C91.8744 96.8599 91.7468 97.5374 91.9161 99.0175C92.0855 100.498 92.5936 103.583 92.5936 103.583C92.5936 103.583 92.169 103.667 92.2131 104.006C92.2572 104.344 92.4242 105.275 92.4242 105.275C92.4242 105.275 94.0296 105.822 94.496 105.866C94.9623 105.91 95.888 105.866 95.888 105.866C95.888 105.866 96.2684 105.23 96.2267 104.894C96.1389 104.478 96.0258 104.069 95.888 103.667L96.0991 101.173L96.4378 90.9857C96.4378 90.9857 97.7486 100.92 97.9597 101.637C98.1708 102.354 98.382 103.493 98.382 103.493C98.382 103.493 97.9597 103.832 97.9597 104.043C97.9597 104.254 98.0432 105.734 98.0432 105.734C98.0432 105.734 98.89 105.056 99.6928 105.184C100.495 105.312 101.806 106.242 101.806 106.242C101.859 105.813 101.945 105.389 102.061 104.973C102.229 104.423 101.892 103.029 101.806 102.653C101.708 102.223 101.694 101.778 101.765 101.342C101.848 100.962 101.892 99.7785 101.934 99.398C101.976 99.0175 101.892 89.5473 101.892 89.5473L102.755 78.7013L90.4592 78.3208L90.248 78.6154Z" fill="#263238" stroke="#263238" stroke-linecap="round" stroke-linejoin="round"/>
<path d="M92.1424 62.661C92.1424 62.661 90.5671 65.6051 90.1565 66.4496C89.7458 67.294 89.2679 68.2476 89.2679 68.2476C87.7692 66.0784 86.2821 63.9184 84.6581 61.842L84.2962 61.4198C84.2962 61.4198 82.2685 60.6542 82.0783 60.8398C81.888 61.0254 81.431 63.8836 81.8764 64.3198C82.3219 64.756 84.1964 65.0158 84.1964 65.0158L84.5514 65.3847L84.5026 65.4288C84.5026 65.4288 87.34 71.7252 87.7971 72.1568C88.2541 72.5883 88.7923 73.3469 89.7806 73.3956C90.3467 73.4212 92.2631 69.3704 92.2631 69.3704L92.1424 62.661Z" fill="white" stroke="#263238" stroke-linecap="round" stroke-linejoin="round"/>
<path d="M91.9528 62.6192L89.5215 66.8717L91.4424 71.4561L92.6303 69.027C92.6303 69.027 93.31 62.3547 92.7996 62.299C92.6436 62.2861 92.4866 62.3081 92.3401 62.3635C92.1936 62.4189 92.0613 62.5062 91.9528 62.6192Z" fill="white" stroke="#263238" stroke-linecap="round" stroke-linejoin="round"/>
<path d="M88.9004 67.4354C88.9004 67.4354 90.8214 72.5811 91.0487 72.5811C91.2761 72.5811 91.9535 71.5627 91.8955 71.0546C91.8375 70.5465 90.3133 66.5306 89.8075 66.4749C89.3018 66.4192 89.1254 66.9273 88.9004 67.4354Z" fill="white" stroke="#263238" stroke-linecap="round" stroke-linejoin="round"/>
<path d="M85.4127 62.7745C85.4127 62.7745 84.7353 61.6006 84.6611 61.1227C84.5427 60.3803 85.3942 59.9186 85.0021 59.7423C84.61 59.566 83.8815 60.0764 83.8142 60.6077C83.7738 60.9425 83.7871 61.2816 83.8537 61.6122C83.8537 61.6122 83.4732 62.3082 83.5707 62.8279C83.6681 63.3476 83.9303 63.916 84.1298 63.9879" fill="white"/>
<path d="M85.4127 62.7745C85.4127 62.7745 84.7353 61.6006 84.6611 61.1227C84.5427 60.3803 85.3942 59.9186 85.0021 59.7423C84.61 59.566 83.8815 60.0764 83.8142 60.6077C83.7738 60.9425 83.7871 61.2816 83.8537 61.6122C83.8537 61.6122 83.4732 62.3082 83.5707 62.8279C83.6681 63.3476 83.9303 63.916 84.1298 63.9879" stroke="#263238" stroke-linecap="round" stroke-linejoin="round"/>
<path d="M81.78 60.2528C81.7151 60.2364 81.6477 60.2334 81.5816 60.244C81.5156 60.2546 81.4524 60.2785 81.396 60.3144C81.3395 60.3502 81.291 60.3971 81.2533 60.4524C81.2156 60.5076 81.1896 60.5699 81.1768 60.6356C81.1506 60.6928 81.1364 60.7547 81.1349 60.8176C81.1334 60.8805 81.1447 60.943 81.1682 61.0014C81.1916 61.0597 81.2267 61.1127 81.2712 61.1571C81.3158 61.2015 81.3689 61.2364 81.4273 61.2596C81.6593 61.3733 82.9562 62.1157 83.0861 61.7585C83.216 61.4012 83.3413 61.081 83.0699 60.9209C82.7984 60.7608 81.78 60.2528 81.78 60.2528Z" fill="white" stroke="#263238" stroke-linecap="round" stroke-linejoin="round"/>
<path d="M81.6168 61.3223C81.5521 61.3055 81.4847 61.3022 81.4187 61.3125C81.3527 61.3228 81.2895 61.3465 81.233 61.3821C81.1765 61.4178 81.1279 61.4646 81.0901 61.5197C81.0524 61.5749 81.0264 61.6372 81.0136 61.7027C80.9871 61.7601 80.9725 61.8222 80.9709 61.8853C80.9692 61.9485 80.9804 62.0113 81.0039 62.0699C81.0274 62.1286 81.0625 62.1818 81.1073 62.2264C81.152 62.271 81.2054 62.3059 81.2642 62.3291C81.4962 62.4428 82.7907 63.1852 82.923 62.8256C83.0552 62.466 83.1758 62.1505 82.9067 61.9904C82.6376 61.8303 81.6168 61.3223 81.6168 61.3223Z" fill="white" stroke="#263238" stroke-linecap="round" stroke-linejoin="round"/>
<path d="M81.5085 62.4196C81.4534 62.4056 81.3961 62.403 81.34 62.4119C81.2838 62.4209 81.2301 62.4412 81.1822 62.4716C81.1342 62.502 81.0929 62.5418 81.0608 62.5888C81.0288 62.6357 81.0066 62.6886 80.9957 62.7444C80.9731 62.793 80.9606 62.8458 80.9591 62.8995C80.9577 62.9531 80.9672 63.0065 80.9872 63.0563C81.0073 63.1061 81.0373 63.1513 81.0755 63.189C81.1136 63.2268 81.1592 63.2563 81.2092 63.2757C81.4087 63.3731 82.5084 64.0042 82.6197 63.7002C82.7311 63.3963 82.8355 63.1249 82.6058 62.988C82.3761 62.8511 81.5085 62.4196 81.5085 62.4196Z" fill="white" stroke="#263238" stroke-linecap="round" stroke-linejoin="round"/>
<path d="M81.5518 63.3963C81.5022 63.3825 81.4503 63.3793 81.3994 63.3867C81.3485 63.3941 81.2996 63.412 81.256 63.4392C81.2124 63.4665 81.1749 63.5025 81.1459 63.5451C81.117 63.5876 81.0972 63.6357 81.0878 63.6863C81.0691 63.729 81.0592 63.775 81.0586 63.8217C81.058 63.8683 81.0667 63.9146 81.0842 63.9578C81.1017 64.001 81.1277 64.0403 81.1605 64.0733C81.1934 64.1064 81.2326 64.1325 81.2757 64.1503C81.4543 64.2361 82.4357 64.7999 82.5331 64.5284C82.6306 64.257 82.7257 64.0157 82.5331 63.8927C82.3406 63.7698 81.5518 63.3963 81.5518 63.3963Z" fill="white" stroke="#263238" stroke-linecap="round" stroke-linejoin="round"/>
<path d="M94.7479 60.4222C94.7479 60.4222 92.1356 61.6193 91.9639 62.0462C91.7923 62.4731 90.913 71.1174 90.4049 74.5742C89.8968 78.031 90.1149 78.9497 90.1149 78.9497C90.1149 78.9497 90.6578 80.0749 95.9938 79.8916C101.33 79.7084 103.214 78.9126 103.288 78.4416C103.362 77.9707 103.432 78.5669 103.432 78.2398C103.432 77.9127 103.831 62.4916 103.432 61.5474C103.033 60.6032 100.782 59.0441 100.13 58.9722C99.4784 58.9003 94.7479 60.4222 94.7479 60.4222Z" fill="#EF233C" stroke="#263238" stroke-linecap="round" stroke-linejoin="round"/>
<path d="M90.4019 75.0962V75.1379C90.3138 75.7388 90.2511 76.2794 90.207 76.7736C92.8855 77.3147 95.6208 77.522 98.3502 77.3907C101.134 77.2213 102.679 77.1192 103.466 77.0682C103.477 76.5926 103.489 76.0404 103.501 75.4303C101.64 75.6321 94.3784 76.2608 90.4019 75.0962Z" fill="white" stroke="#263238" stroke-linecap="round" stroke-linejoin="round"/>
<path d="M99.1477 67.6304C99.2683 66.9576 99.8715 63.6725 100.653 61.5683L101.927 62.4104L103.194 62.4429C103.194 62.4429 100.352 59.9396 99.549 59.7239C99.3875 59.7001 99.2234 59.7001 99.0618 59.7239C97.4657 60.1159 94.749 60.9929 94.749 60.9929C94.749 60.9929 92.1366 62.19 91.965 62.6169C91.9078 62.8562 91.8652 63.0987 91.8374 63.3431L92.4916 62.9719L91.7028 67.0991C91.5752 67.069 91.4499 67.0365 91.3293 67.0017L91.1367 68.6698C93.7701 69.1906 96.4571 69.3885 99.1384 69.2591C101.289 69.1268 102.702 69.0271 103.595 68.9783C103.595 68.4331 103.595 67.8926 103.595 67.3659C102.577 67.4611 100.955 67.584 99.1477 67.6304ZM92.4475 67.2592L93.4126 62.4545C94.619 61.7887 96.0087 61.0625 96.6142 60.8676C97.3588 60.6379 98.1243 60.4824 98.8994 60.4036L99.5699 60.8491C99.4934 61.0463 98.0619 64.7559 97.6814 67.6327L97.8763 67.649C96.0588 67.6787 94.2422 67.5482 92.4475 67.2592Z" fill="white" stroke="#263238" stroke-linecap="round" stroke-linejoin="round"/>
<path d="M92.3086 77.9893C92.3272 78.3187 92.355 78.6389 92.3898 78.9497" stroke="#263238" stroke-miterlimit="10"/>
<path d="M93.1296 70.8228C92.7538 73.0152 92.2318 74.7064 92.2805 77.2654" stroke="#263238" stroke-miterlimit="10"/>
<path d="M93.7687 67.5537C93.7687 67.5537 93.4973 68.6859 93.1934 70.3632" stroke="#263238" stroke-miterlimit="10"/>
<path d="M90.8744 78.7431C90.8744 78.7431 88.6356 78.4044 88.508 78.6572C88.3804 78.9101 88.508 82.3692 88.7191 82.5896C88.9302 82.81 90.3686 83.0977 90.7909 82.8425C91.2131 82.5873 91.466 82.4203 91.5518 82.2092C91.6377 81.998 91.6353 79.3347 91.466 78.996C91.4059 78.8975 91.3166 78.8203 91.2106 78.7749C91.1046 78.7296 90.987 78.7185 90.8744 78.7431Z" fill="#263238" stroke="#263238" stroke-linecap="round" stroke-linejoin="round"/>
<path d="M93.5378 79.1654C93.5378 79.1654 93.2014 82.5897 93.7489 82.8009C94.3648 82.9894 95.0075 83.0756 95.6513 83.0561C95.8648 83.012 96.6257 82.8867 96.751 82.548C96.8763 82.2093 96.8786 79.5459 96.7928 79.3C96.7069 79.0541 93.7489 78.8267 93.5378 79.1654Z" fill="#263238" stroke="#263238" stroke-linecap="round" stroke-linejoin="round"/>
<path d="M98.8652 79.5459C98.8652 79.5459 99.0346 83.3925 99.1204 83.5619C99.2063 83.7312 100.812 84.7891 101.106 84.7451C101.401 84.701 103.77 84.4504 103.89 83.9841C104.011 83.5178 104.313 79.7571 104.06 79.3441C103.807 78.9311 103.255 78.7525 102.749 78.7107C102.243 78.669 99.2968 79.0819 99.2968 79.0819C99.1794 79.0902 99.0696 79.1427 98.9895 79.2288C98.9093 79.3149 98.8649 79.4283 98.8652 79.5459Z" fill="#263238" stroke="#263238" stroke-linecap="round" stroke-linejoin="round"/>
<path d="M95.837 59.4615L94.7489 60.422L94.7118 61.531L93.8418 66.9737C93.8418 66.9737 98.9945 60.2596 99.0641 60.1506C99.4004 59.9206 99.7524 59.7144 100.117 59.5335L99.7903 58.1902L99.2451 58.3363L95.837 59.4615Z" fill="white" stroke="#263238" stroke-linecap="round" stroke-linejoin="round"/>
<path d="M94.748 60.4221L95.4765 61.8628L95.5902 60.7608L96.2143 62.2897L98.3092 60.5822" stroke="#263238" stroke-linecap="round" stroke-linejoin="round"/>
<path d="M95.1194 51.627C95.1194 51.627 94.6554 52.5248 94.6252 52.6547C94.6156 52.8301 94.6156 53.0059 94.6252 53.1814C94.6252 53.1814 93.442 54.3553 93.4814 54.4411C93.5209 54.527 93.9756 54.6731 93.9756 54.6731C93.9756 54.6731 93.5418 57.6682 93.7946 57.7378C94.0475 57.8074 95.8687 57.6474 95.8687 57.6474L95.5834 60.7608L99.4717 58.5174L99.9125 56.4502C99.9125 56.4502 101.168 55.3158 101.281 54.6453C101.395 53.9748 101.316 53.831 101.316 53.831L95.1194 51.627Z" fill="white" stroke="#263238" stroke-linecap="round" stroke-linejoin="round"/>
<path d="M101.323 53.8241L97.3489 52.4321L97.3303 52.7337L96.9336 54.1257C96.9336 54.1257 98.14 53.5666 98.365 53.4993C98.5901 53.4321 98.8754 54.2208 98.5692 54.6199C98.263 55.0189 97.3906 55.476 97.3906 55.476C97.3906 55.476 98.0866 56.4968 98.9543 56.6986C99.2499 56.7675 99.5538 56.794 99.8568 56.7775L99.9194 56.4666C99.9194 56.4666 101.175 55.3321 101.288 54.6616C101.402 53.9912 101.323 53.8241 101.323 53.8241Z" fill="#263238" stroke="#263238" stroke-linecap="round" stroke-linejoin="round"/>
<path d="M94.8887 52.6199C95.0244 52.568 95.1742 52.5658 95.3113 52.6138C95.4485 52.6618 95.5643 52.7569 95.638 52.8821" stroke="#263238" stroke-linecap="round" stroke-linejoin="round"/>
<path d="M95.1529 53.381C95.1227 53.5527 95.0415 53.6803 94.9719 53.6687C94.9023 53.6571 94.8652 53.5086 94.8953 53.3369C94.9255 53.1653 95.0067 53.0377 95.0763 53.0516C95.1459 53.0655 95.1807 53.2117 95.1529 53.381Z" fill="#263238"/>
<path d="M93.752 57.6798L96.7378 57.5708L95.8168 58.4431L95.8492 57.6566L93.752 57.6798Z" fill="#263238" stroke="#263238" stroke-linecap="round" stroke-linejoin="round"/>
<path d="M98.8906 53.8101L99.8581 56.7611L100.647 56.2298L99.7281 53.875L98.8906 53.8101Z" fill="white" stroke="#263238" stroke-linecap="round" stroke-linejoin="round"/>
<path d="M94.7085 50.924C94.7085 50.924 92.8525 50.8498 93.0659 50.9635C93.2794 51.0771 102.144 55.564 102.144 55.564C102.109 55.256 102.097 54.9458 102.109 54.636C102.149 54.404 102.773 53.012 102.88 51.4924C102.986 49.9728 99.9656 48.5901 98.4182 48.1702C96.8707 47.7503 95.959 48.3651 95.6666 49.1631C95.4095 49.7819 95.0884 50.3721 94.7085 50.924Z" fill="#EF233C" stroke="#263238" stroke-linecap="round" stroke-linejoin="round"/>
<path d="M97.1728 52.1536L95.623 51.272C95.623 51.272 96.9547 49.2536 96.9686 48.9845C96.9762 48.8166 96.9932 48.6493 97.0197 48.4834C97.0197 48.4834 97.1264 48.0588 98.5532 48.4834" stroke="#263238" stroke-linecap="round" stroke-linejoin="round"/>
<path d="M93.8415 54.8564C94.1439 54.7713 94.4628 54.7626 94.7695 54.8309C95.1337 54.9631 95.2149 55.2299 95.3634 55.2021C95.5119 55.1743 96.4051 54.9701 95.4655 55.5988C95.1128 55.8308 94.7973 55.7543 94.5212 55.7218C94.3109 55.6902 94.1036 55.6405 93.9018 55.5733C93.8017 55.4844 93.7396 55.3603 93.7284 55.2269C93.7172 55.0935 93.7576 54.9609 93.8415 54.8564Z" fill="#263238" stroke="#263238" stroke-linecap="round" stroke-linejoin="round"/>
<path d="M100.688 78.3464C100.462 78.5911 100.197 78.7958 99.9036 78.952C99.9164 79.017 99.9096 79.0844 99.8839 79.1455C99.8583 79.2067 99.8151 79.2588 99.7598 79.2953" stroke="#263238" stroke-linecap="round" stroke-linejoin="round"/>
<path d="M108.715 69.3332C107.931 67.3751 106.683 65.6421 105.637 63.8116C105.324 63.204 104.952 62.6289 104.525 62.0948C104.092 61.5577 103.476 61.1992 102.795 61.0879H102.76C102.513 61.0641 102.263 61.0931 102.028 61.1731C101.793 61.2531 101.577 61.3822 101.396 61.5519C101.043 61.8991 100.83 62.364 100.797 62.8581C100.629 64.0362 100.845 65.2372 101.414 66.2824C102.008 67.3589 102.932 68.1894 103.795 69.0664C104.047 69.3239 104.293 69.5837 104.525 69.8575C103.016 71.7738 101.505 73.6909 99.9921 75.6088C99.8983 75.7188 99.8202 75.8414 99.7601 75.973H99.6998L98.4192 76.7108C98.4192 76.7108 97.4726 77.3534 97.4564 77.6736C97.4216 78.3533 97.6744 78.6364 97.8809 78.9635C98.1355 79.236 98.4195 79.4796 98.7277 79.6897C98.9319 79.7987 99.4237 79.9913 99.7555 79.7152C100.087 79.4391 101.076 79.1653 101.131 78.7245C101.187 78.2837 100.69 78.3394 100.69 78.3394C101.016 78.0695 101.223 77.6833 101.268 77.2629C101.414 77.2327 101.555 77.186 101.69 77.1237C102.121 76.9018 102.519 76.6224 102.874 76.2932C104.551 74.9012 106.354 73.6437 108.056 72.2796C108.396 72.0452 108.679 71.7376 108.885 71.3794C109.184 70.76 108.98 69.9897 108.715 69.3332Z" fill="white" stroke="#263238" stroke-linecap="round" stroke-linejoin="round"/>
<path d="M108.716 69.3332C107.875 68.8581 106.938 68.5767 105.974 68.5096C105.21 68.4925 104.457 68.6851 103.795 69.0664C102.932 68.1848 102.009 67.3542 101.415 66.2824C100.846 65.2372 100.629 64.0362 100.798 62.8581C100.83 62.364 101.043 61.8991 101.396 61.5519C101.578 61.3822 101.793 61.2531 102.029 61.1731C102.264 61.0931 102.513 61.0641 102.761 61.0879H102.795C103.477 61.1992 104.093 61.5577 104.526 62.0948C104.952 62.6289 105.325 63.204 105.637 63.8116C106.684 65.6421 107.932 67.3751 108.716 69.3332Z" fill="white" stroke="#263238" stroke-linecap="round" stroke-linejoin="round"/>
<path d="M103.88 70.5467C103.88 70.5467 105.237 69.5282 106.369 69.6419C107.501 69.7556 108.742 70.716 108.921 70.658C109.1 70.6 109.601 70.0943 109.431 69.5282C109.303 69.0062 109.133 68.4957 108.921 68.0016C108.638 67.3799 107.452 67.0412 106.32 67.3242C105.188 67.6072 103.381 68.9064 103.439 69.3008C103.545 69.7295 103.692 70.1468 103.88 70.5467Z" fill="white" stroke="#263238" stroke-linecap="round" stroke-linejoin="round"/>
</svg>
