<svg width="108" height="108" viewBox="0 0 108 108" fill="none" xmlns="http://www.w3.org/2000/svg">
<path d="M52.9177 103.581C81.1401 103.581 104.019 90.372 104.019 74.0777C104.019 57.7834 81.1401 44.5742 52.9177 44.5742C24.6952 44.5742 1.81641 57.7834 1.81641 74.0777C1.81641 90.372 24.6952 103.581 52.9177 103.581Z" fill="#F0F0F0"/>
<path d="M43.3322 99.2907C42.787 99.2984 42.2491 99.1652 41.7705 98.9041L16.8678 84.525C16.5983 84.4073 16.3689 84.2135 16.2078 83.9674C16.0467 83.7213 15.9609 83.4335 15.9609 83.1393C15.9609 82.8452 16.0467 82.5574 16.2078 82.3113C16.3689 82.0652 16.5983 81.8714 16.8678 81.7537L60.7158 56.4363C61.1976 56.1825 61.734 56.0498 62.2786 56.0498C62.8232 56.0498 63.3596 56.1825 63.8414 56.4363L88.744 70.8155C89.0136 70.9332 89.2429 71.127 89.404 71.3731C89.5651 71.6192 89.6509 71.907 89.6509 72.2011C89.6509 72.4953 89.5651 72.783 89.404 73.0291C89.2429 73.2752 89.0136 73.469 88.744 73.5867L44.896 98.9041C44.4165 99.1649 43.878 99.2981 43.3322 99.2907Z" fill="#E0E0E0"/>
<path d="M87.727 69.1697L85.297 67.8737C85.297 67.8737 85.1112 64.1585 85.4006 61.2144C85.8089 57.0758 88.8847 52.272 92.0707 53.4384C95.2567 54.6048 90.6106 58.8211 89.5759 62.329C88.5413 65.8368 87.727 69.1697 87.727 69.1697Z" fill="#EF233C"/>
<path opacity="0.1" d="M87.727 69.1697L85.297 67.8737C85.297 67.8737 85.1112 64.1585 85.4006 61.2144C85.8089 57.0758 88.8847 52.272 92.0707 53.4384C95.2567 54.6048 90.6106 58.8211 89.5759 62.329C88.5413 65.8368 87.727 69.1697 87.727 69.1697Z" fill="black"/>
<path d="M86.5381 68.7372C86.5663 68.7361 86.593 68.7239 86.6124 68.7033C86.6318 68.6827 86.6423 68.6554 86.6417 68.6271C86.3285 59.4341 90.9056 54.8031 90.9509 54.7642C90.961 54.7543 90.969 54.7426 90.9744 54.7296C90.9799 54.7166 90.9827 54.7027 90.9827 54.6886C90.9827 54.6745 90.9799 54.6606 90.9744 54.6476C90.969 54.6346 90.961 54.6229 90.9509 54.613C90.9409 54.6029 90.9289 54.5948 90.9158 54.5894C90.9026 54.5839 90.8885 54.5811 90.8742 54.5811C90.86 54.5811 90.8459 54.5839 90.8327 54.5894C90.8196 54.5948 90.8076 54.6029 90.7976 54.613C90.7522 54.6605 86.1082 59.3499 86.4236 68.6357C86.4244 68.6499 86.428 68.6638 86.4342 68.6766C86.4404 68.6894 86.4491 68.7008 86.4597 68.7102C86.4704 68.7197 86.4828 68.7269 86.4962 68.7316C86.5096 68.7362 86.5239 68.7381 86.5381 68.7372Z" fill="white"/>
<path d="M88.9735 69.9043L87.7099 69.1743C87.5154 67.0972 87.7839 65.0028 88.4961 63.042C89.6669 59.8647 92.6909 58.1323 94.0819 58.6054C95.7818 59.1843 95.7926 60.8107 95.1749 61.8799C94.4448 63.1414 89.8915 66.3317 88.9735 69.9043Z" fill="#EF233C"/>
<path d="M88.3074 69.6256C88.336 69.6256 88.3635 69.6142 88.3838 69.5939C88.404 69.5737 88.4154 69.5462 88.4154 69.5176C88.3895 63.705 93.8478 59.7781 93.9018 59.7393C93.9237 59.7223 93.9382 59.6976 93.9424 59.6702C93.9466 59.6429 93.9401 59.615 93.9243 59.5923C93.9085 59.5695 93.8846 59.5537 93.8575 59.5481C93.8304 59.5425 93.8022 59.5475 93.7787 59.5621C93.7225 59.6032 88.1627 63.597 88.1994 69.5197C88.1994 69.5338 88.2022 69.5478 88.2077 69.5607C88.2131 69.5737 88.2211 69.5855 88.2312 69.5954C88.2412 69.6052 88.2531 69.613 88.2662 69.6181C88.2793 69.6233 88.2933 69.6259 88.3074 69.6256Z" fill="white"/>
<path d="M14.9047 71.6905V66.6274C14.9047 66.6274 14.6455 63.7698 12.6453 61.6033C10.6452 59.4368 8.85669 60.1734 8.27133 61.2015C7.68597 62.2297 9.01437 64.1823 9.86325 65.2818C10.8849 66.6037 14.9047 72.7446 14.9047 75.4942V71.6905Z" fill="#EF233C"/>
<g opacity="0.2">
<path d="M14.9047 71.6905V66.6274C14.9047 66.6274 14.6455 63.7698 12.6453 61.6033C10.6452 59.4368 8.85669 60.1734 8.27133 61.2015C7.68597 62.2297 9.01437 64.1823 9.86325 65.2818C10.8849 66.6037 14.9047 72.7446 14.9047 75.4942V71.6905Z" fill="black"/>
</g>
<path d="M14.9049 70.8916C14.8751 70.8915 14.8464 70.8808 14.8239 70.8614C14.8013 70.842 14.7864 70.8152 14.7818 70.7858C13.8703 65.2648 9.6669 61.4762 9.62586 61.4395C9.60122 61.4177 9.58625 61.3871 9.58422 61.3542C9.58219 61.3214 9.59329 61.2892 9.61505 61.2645C9.63682 61.2399 9.66749 61.2249 9.7003 61.2229C9.73311 61.2209 9.76538 61.232 9.79002 61.2537C9.83322 61.2926 14.11 65.1417 15.028 70.7469C15.033 70.7796 15.0249 70.8128 15.0055 70.8395C14.9861 70.8662 14.9569 70.8842 14.9243 70.8895L14.9049 70.8916Z" fill="white"/>
<path d="M14.9309 72.3597C14.9309 72.3597 15.0972 71.8564 14.3585 71.729C13.6198 71.6015 13.3346 70.9881 13.2655 69.9556C13.1964 68.9231 12.8854 68.1844 11.9566 68.0332C11.0278 67.882 10.2847 68.3464 9.68208 67.882C9.07944 67.4176 7.52207 66.2966 6.22608 66.802C4.93008 67.3075 5.36208 68.422 6.02736 69.1391C6.69264 69.8563 6.89136 70.1003 6.3816 71.2667C5.87184 72.4331 6.2412 73.5261 7.43352 73.7983C8.62584 74.0704 9.29544 73.9322 9.31272 75.2411C9.33 76.5501 9.51144 77.1333 10.1767 77.6474C10.842 78.1615 12.8875 77.9282 13.7429 78.1269C13.9997 78.1923 14.2395 78.3119 14.4463 78.4777C14.6531 78.6435 14.822 78.8516 14.9417 79.0881L14.9309 72.3597Z" fill="#EF233C"/>
<path d="M14.9305 77.7473C14.9091 77.7472 14.8883 77.7405 14.8709 77.7282C14.8536 77.7158 14.8404 77.6983 14.8333 77.6782C12.6625 71.2285 7.74632 68.6235 7.70528 68.6062C7.68122 68.5936 7.66315 68.572 7.65505 68.546C7.64695 68.5201 7.64948 68.492 7.66208 68.468C7.67469 68.4439 7.69633 68.4258 7.72226 68.4177C7.74818 68.4096 7.77626 68.4122 7.80032 68.4248C7.85 68.4507 12.8374 71.0902 15.0363 77.6199C15.0407 77.6327 15.0425 77.6462 15.0416 77.6596C15.0407 77.6731 15.0372 77.6862 15.0311 77.6983C15.0251 77.7104 15.0167 77.7211 15.0065 77.7299C14.9962 77.7387 14.9844 77.7454 14.9715 77.7495L14.9305 77.7473Z" fill="white"/>
<path d="M11.8157 72.1249H11.792C10.375 71.8009 8.10485 71.9759 8.08325 71.9781C8.05608 71.9805 8.02905 71.9721 8.00802 71.9547C7.987 71.9373 7.97367 71.9123 7.97094 71.8852C7.96912 71.8578 7.97801 71.8308 7.99575 71.8098C8.01348 71.7888 8.03866 71.7756 8.06598 71.7729C8.16102 71.7729 10.3901 71.5936 11.8373 71.9262C11.862 71.9314 11.8838 71.9455 11.8986 71.9659C11.9134 71.9863 11.9201 72.0114 11.9175 72.0364C11.9148 72.0615 11.9029 72.0846 11.8841 72.1014C11.8653 72.1181 11.8409 72.1273 11.8157 72.1271V72.1249Z" fill="white"/>
<path d="M12.9715 75.2244C12.3235 75.2244 11.6366 75.1833 11.5934 75.1812C11.5661 75.1789 11.5407 75.1662 11.5226 75.1457C11.5044 75.1251 11.495 75.0984 11.4962 75.071C11.497 75.0575 11.5005 75.0442 11.5065 75.0321C11.5126 75.0199 11.5209 75.0091 11.5312 75.0002C11.5415 74.9914 11.5534 74.9847 11.5663 74.9805C11.5792 74.9763 11.5928 74.9748 11.6064 74.976C11.6215 74.976 13.2048 75.0732 13.8225 74.976C13.8367 74.9718 13.8515 74.9706 13.8661 74.9727C13.8808 74.9747 13.8948 74.9798 13.9073 74.9876C13.9197 74.9955 13.9304 75.0059 13.9385 75.0182C13.9466 75.0306 13.9521 75.0445 13.9544 75.059C13.9567 75.0736 13.9559 75.0885 13.952 75.1027C13.9481 75.1169 13.9412 75.1302 13.9318 75.1415C13.9224 75.1529 13.9107 75.1621 13.8974 75.1686C13.8841 75.175 13.8697 75.1786 13.8549 75.179C13.5618 75.2146 13.2667 75.2297 12.9715 75.2244Z" fill="white"/>
<path d="M11.15 71.3685C11.123 71.3663 11.098 71.3539 11.0799 71.3338C11.0618 71.3138 11.0521 71.2875 11.0528 71.2605C11.1021 70.5226 11.2556 69.7954 11.5085 69.1005C11.5186 69.0751 11.5384 69.0547 11.5635 69.0438C11.5886 69.0329 11.6169 69.0323 11.6424 69.0422C11.6674 69.0523 11.6874 69.0717 11.6982 69.0963C11.7091 69.1209 11.71 69.1487 11.7008 69.174C11.4601 69.8496 11.3147 70.5555 11.2688 71.2713C11.2684 71.2859 11.2648 71.3002 11.2584 71.3132C11.252 71.3263 11.2428 71.3378 11.2316 71.3471C11.2203 71.3563 11.2072 71.363 11.1931 71.3667C11.179 71.3704 11.1643 71.371 11.15 71.3685Z" fill="white"/>
<path d="M16.1406 81.2459C16.1687 81.6301 16.287 82.0023 16.4859 82.3322C16.6848 82.6621 16.9587 82.9404 17.2854 83.1446L42.1881 97.5259C42.5424 97.7059 42.9343 97.7997 43.3318 97.7997C43.7293 97.7997 44.1211 97.7059 44.4755 97.5259L88.3235 72.2085C88.6659 72.0232 88.9518 71.7489 89.1511 71.4145C89.3504 71.0801 89.4556 70.6981 89.4556 70.3088C89.4556 69.9195 89.3504 69.5375 89.1511 69.2031C88.9518 68.8687 88.6659 68.5943 88.3235 68.4091L63.4187 54.0278C63.0643 53.8477 62.6725 53.7539 62.275 53.7539C61.8775 53.7539 61.4856 53.8477 61.1313 54.0278L17.2789 79.3451C16.9535 79.5506 16.681 79.8297 16.4833 80.1599C16.2855 80.4901 16.1682 80.8621 16.1406 81.2459Z" fill="#EF233C"/>
<path opacity="0.5" d="M89.4712 70.3074C89.4433 70.6917 89.3254 71.0641 89.1269 71.3943C88.9283 71.7245 88.6549 72.0033 88.3285 72.2082L44.4805 97.5256C44.129 97.7122 43.7358 97.8066 43.3379 97.7999V95.3224C43.7358 95.3291 44.129 95.2347 44.4805 95.0481L88.3285 69.7307C88.8815 69.411 88.9506 68.9185 88.5445 68.5557C88.8125 68.767 89.0333 69.032 89.1929 69.3336C89.3525 69.6353 89.4473 69.967 89.4712 70.3074Z" fill="black"/>
<path opacity="0.3" d="M17.2803 80.6669L42.1895 95.0396C42.5438 95.2196 42.9357 95.3134 43.3332 95.3134C43.7307 95.3134 44.1225 95.2196 44.4769 95.0396L88.3249 69.72C88.9556 69.3572 88.9556 68.7653 88.3249 68.4003L63.4201 54.019C63.0657 53.839 62.6739 53.7451 62.2764 53.7451C61.8789 53.7451 61.487 53.839 61.1327 54.019L17.2803 79.345C16.6539 79.7036 16.6539 80.3019 17.2803 80.6669Z" fill="black"/>
<path opacity="0.7" d="M43.3334 95.3228V97.7982C42.9347 97.8072 42.5405 97.7134 42.1886 97.526L17.2795 83.1447C16.9446 82.9681 16.6626 82.7058 16.4621 82.3847C16.2615 82.0636 16.1496 81.6951 16.1378 81.3168C16.1259 80.9384 16.2145 80.5636 16.3946 80.2306C16.5746 79.8976 16.8397 79.6182 17.1628 79.4209C16.6509 79.7881 16.6919 80.3259 17.2795 80.6672L42.1886 95.0399C42.5399 95.2299 42.9339 95.3273 43.3334 95.3228Z" fill="black"/>
<path d="M15.0676 79.3862C14.4757 79.045 14.5081 78.4682 14.5081 77.7382V43.3402C14.5297 42.9435 14.6443 42.5574 14.8428 42.2133C15.0414 41.8692 15.3181 41.5767 15.6508 41.3594L59.4988 16.0421C59.8389 15.8613 60.2169 15.7634 60.6019 15.7563C60.987 15.7491 61.3684 15.833 61.7149 16.001C62.3089 16.3423 62.2765 16.9212 62.2765 17.6491V52.0558C62.2551 52.4527 62.1403 52.839 61.9413 53.1832C61.7424 53.5274 61.465 53.8198 61.1317 54.0365L17.2794 79.3452C16.9399 79.5252 16.5627 79.6228 16.1784 79.6299C15.7941 79.637 15.4136 79.5536 15.0676 79.3862Z" fill="#EF233C"/>
<path opacity="0.3" d="M62.2801 17.6491C62.2801 16.9212 61.7682 16.6253 61.1353 16.9882L17.2787 42.3077C16.9393 42.5211 16.661 42.8188 16.4709 43.1717L14.8379 42.2213C15.0302 41.8692 15.3089 41.5719 15.6479 41.3573L59.4959 16.0421C59.836 15.8613 60.214 15.7634 60.5991 15.7563C60.9841 15.7491 61.3655 15.833 61.7121 16.001C62.3104 16.3423 62.2801 16.9212 62.2801 17.6491Z" fill="black"/>
<path opacity="0.5" d="M16.1406 44.2799V78.6866C16.1406 79.4145 16.6525 79.7104 17.2833 79.3346L61.1269 54.028C61.4602 53.8113 61.7376 53.5189 61.9365 53.1747C62.1355 52.8305 62.2503 52.4442 62.2717 52.0473V17.6493C62.2717 16.9214 61.7598 16.6254 61.1269 17.0013L17.2789 42.3078C16.9483 42.5247 16.673 42.8161 16.4753 43.1585C16.2776 43.501 16.163 43.8851 16.1406 44.2799Z" fill="black"/>
<path opacity="0.7" d="M17.1498 79.4144C16.8218 79.5624 16.4654 79.6366 16.1056 79.6317C15.7458 79.6269 15.3914 79.5431 15.0676 79.3863C14.4757 79.045 14.5081 78.4683 14.5081 77.7382V43.3402C14.5214 42.9426 14.6367 42.555 14.8429 42.2148L16.4759 43.1588C16.2721 43.4985 16.157 43.884 16.1411 44.2798V78.6864C16.1411 79.3625 16.5817 79.6671 17.1498 79.4144Z" fill="black"/>
<path d="M17.8996 43.6313L60.1794 19.2233C60.5574 19.0073 60.8641 19.1823 60.8641 19.6186V49.6426C60.8517 49.8805 60.7832 50.1122 60.6642 50.3187C60.5452 50.5251 60.3791 50.7005 60.1794 50.8306L17.8996 75.2386C17.5216 75.4546 17.2148 75.2796 17.2148 74.8411V44.8171C17.2276 44.5795 17.2963 44.3483 17.4153 44.1423C17.5342 43.9362 17.7002 43.7611 17.8996 43.6313Z" fill="#FAFAFA"/>
<path d="M26.7485 51.1787L51.5734 36.8471C52.31 36.4151 52.9061 36.724 52.9061 37.521C52.9061 38.318 52.31 39.3116 51.5734 39.7436L26.7485 54.0644C26.0141 54.4964 25.418 54.1876 25.418 53.3905C25.418 52.5935 26.0141 51.6042 26.7485 51.1787Z" fill="#455A64"/>
<path d="M52.4879 37.5214C52.4879 38.1694 51.9716 39.0334 51.3604 39.3768L46.2908 42.3058L26.5355 53.7084C26.4108 53.7915 26.266 53.8393 26.1164 53.8467C25.9199 53.8467 25.8184 53.6933 25.8184 53.3909C25.8184 52.7429 26.3346 51.8789 26.9459 51.5333L46.2908 40.3661L51.7708 37.2017C51.897 37.1203 52.042 37.0727 52.192 37.0635C52.3972 37.0635 52.4879 37.219 52.4879 37.5214Z" fill="#EF233C"/>
<path d="M52.4879 37.5214C52.4879 38.1694 51.9716 39.0334 51.3604 39.3768L46.2908 42.3058L26.5355 53.7084C26.4108 53.7915 26.266 53.8393 26.1164 53.8467C25.9199 53.8467 25.8184 53.6933 25.8184 53.3909C25.8184 52.7429 26.3346 51.8789 26.9459 51.5333L46.2908 40.3661L51.7708 37.2017C51.897 37.1203 52.042 37.0727 52.192 37.0635C52.3972 37.0635 52.4879 37.219 52.4879 37.5214Z" fill="#EF233C"/>
<path d="M52.4881 37.5208C52.4881 38.1688 51.9718 39.0328 51.3605 39.3763L46.291 42.3052V40.3612L51.7709 37.1968C51.8972 37.1154 52.0422 37.0678 52.1921 37.0586C52.3973 37.0629 52.4881 37.2184 52.4881 37.5208Z" fill="#263238"/>
<path opacity="0.6" d="M32.6302 48.2559L26.9537 51.5326C26.3424 51.8847 25.8262 52.7357 25.8262 53.3902C25.8262 53.6926 25.9277 53.8459 26.1243 53.8459C26.2739 53.8385 26.4187 53.7908 26.5433 53.7077L32.6302 50.1955V48.2559Z" fill="white"/>
<path opacity="0.4" d="M32.6328 50.1939L39.5124 46.2239V44.2842L32.6328 48.2564V50.1939Z" fill="white"/>
<path d="M34.4866 54.7582C34.4944 54.7515 34.5044 54.7478 34.5147 54.7478C34.525 54.7478 34.5349 54.7515 34.5427 54.7582C34.5512 54.7679 34.5577 54.7792 34.5618 54.7914C34.5659 54.8037 34.5675 54.8166 34.5665 54.8294V55.1448C34.5661 55.1793 34.558 55.2132 34.5427 55.2442C34.5312 55.2717 34.5117 55.295 34.4866 55.3111L33.2187 56.0434C33.2114 56.0504 33.2017 56.0543 33.1917 56.0543C33.1816 56.0543 33.1719 56.0504 33.1647 56.0434C33.1562 56.0337 33.1497 56.0224 33.1456 56.0101C33.1415 55.9979 33.1399 55.985 33.1409 55.9721V53.0928C33.1416 53.0584 33.1497 53.0245 33.1647 52.9934C33.1755 52.9662 33.1943 52.9428 33.2187 52.9265L33.4541 52.7904C33.4616 52.7839 33.4712 52.7803 33.4811 52.7803C33.491 52.7803 33.5006 52.7839 33.5081 52.7904C33.5166 52.8001 33.5231 52.8114 33.5271 52.8237C33.5312 52.8359 33.5328 52.8488 33.5319 52.8617V55.3046L34.4866 54.7582Z" fill="#455A64"/>
<path d="M35.6236 52.2958C35.7097 52.2392 35.81 52.2077 35.913 52.2051C35.9921 52.2057 36.0685 52.234 36.129 52.285C36.1969 52.3473 36.2488 52.4251 36.2802 52.5118C36.3197 52.6229 36.3416 52.7395 36.345 52.8574C36.345 52.8812 36.345 52.9157 36.345 52.9568V53.2052C36.345 53.244 36.345 53.2786 36.345 53.3067C36.3374 53.4526 36.3149 53.5973 36.2781 53.7387C36.2424 53.876 36.1924 54.0092 36.129 54.1361C36.0709 54.2561 35.9983 54.3685 35.913 54.4709C35.8308 54.5679 35.733 54.6504 35.6236 54.715C35.5376 54.7701 35.4383 54.8007 35.3363 54.8036C35.2574 54.8037 35.181 54.7762 35.1203 54.7258C35.0527 54.668 35.0013 54.5935 34.9713 54.5098C34.9312 54.3995 34.9086 54.2836 34.9043 54.1664C34.9043 54.1404 34.9043 54.108 34.9043 54.067C34.9043 54.026 34.9043 53.9871 34.9043 53.946C34.9043 53.905 34.9043 53.8618 34.9043 53.8208C34.9043 53.7797 34.9043 53.743 34.9043 53.7149C34.9103 53.569 34.932 53.4242 34.9691 53.2829C35.0059 53.145 35.0565 53.0111 35.1203 52.8833C35.1779 52.7624 35.2505 52.6492 35.3363 52.5464C35.4164 52.4465 35.5137 52.3616 35.6236 52.2958ZM35.9757 53.0972C35.9737 53.0232 35.9591 52.9502 35.9325 52.8812C35.9165 52.8406 35.8876 52.8065 35.8504 52.784C35.8154 52.7719 35.7774 52.7719 35.7424 52.784C35.7005 52.7945 35.6605 52.8112 35.6236 52.8336C35.581 52.8581 35.5412 52.8871 35.5048 52.92C35.4635 52.9604 35.4278 53.0061 35.3989 53.0561C35.3639 53.1166 35.3363 53.1812 35.3169 53.2484C35.2923 53.3313 35.2778 53.4169 35.2737 53.5032C35.2737 53.527 35.2737 53.5594 35.2737 53.594C35.2737 53.6285 35.2737 53.6674 35.2737 53.7063C35.2737 53.7452 35.2737 53.784 35.2737 53.8208C35.2737 53.8575 35.2737 53.8856 35.2737 53.905C35.2755 53.9754 35.2902 54.045 35.3169 54.1102C35.3328 54.1507 35.3617 54.1849 35.3989 54.2074C35.4319 54.223 35.4693 54.2268 35.5048 54.2182C35.5467 54.209 35.5869 54.1929 35.6236 54.1707C35.6661 54.1452 35.7059 54.1156 35.7424 54.0821C35.7843 54.0418 35.8206 53.996 35.8504 53.946C35.8857 53.8857 35.9133 53.8211 35.9325 53.7538C35.9562 53.6707 35.9706 53.5852 35.9757 53.4989C35.9757 53.4773 35.9757 53.4492 35.9757 53.4104V53.1944C35.9778 53.149 35.9757 53.1188 35.9757 53.0972Z" fill="#455A64"/>
<path d="M36.8291 52.216C36.8402 52.1368 36.8583 52.0587 36.8831 51.9827C36.9135 51.8896 36.9533 51.7999 37.002 51.7149C37.0552 51.6207 37.1182 51.5324 37.1899 51.4514C37.2637 51.3655 37.3513 51.2925 37.4491 51.2354C37.5295 51.1849 37.6203 51.1531 37.7148 51.1425C37.7511 51.1383 37.7879 51.1412 37.8232 51.1512C37.8584 51.1612 37.8913 51.1781 37.92 51.2008C37.9844 51.258 38.0303 51.3333 38.0517 51.4168C38.0849 51.5392 38.1002 51.6658 38.0971 51.7927V53.1038C38.0975 53.1374 38.0901 53.1707 38.0755 53.201C38.0645 53.2293 38.0448 53.2535 38.0193 53.2701L37.8033 53.3954C37.7961 53.4024 37.7864 53.4063 37.7763 53.4063C37.7662 53.4063 37.7566 53.4024 37.7493 53.3954C37.7408 53.3857 37.7343 53.3744 37.7303 53.3621C37.7262 53.3499 37.7246 53.337 37.7256 53.3241V53.1751C37.6822 53.2898 37.6233 53.3981 37.5506 53.4969C37.4733 53.6039 37.3738 53.6931 37.259 53.7583C37.1935 53.7997 37.1198 53.8262 37.043 53.836C36.9839 53.8409 36.9253 53.8231 36.8788 53.7863C36.8295 53.7434 36.7935 53.6872 36.7751 53.6243C36.7492 53.5404 36.7368 53.4529 36.7384 53.3651C36.7366 53.1688 36.7857 52.9753 36.881 52.8035C36.9779 52.629 37.1069 52.4744 37.2611 52.3478L37.732 51.9503C37.732 51.8272 37.7061 51.7581 37.6543 51.7343C37.6212 51.7255 37.5865 51.7243 37.5529 51.7306C37.5193 51.737 37.4875 51.7508 37.4599 51.7711C37.4167 51.7952 37.3785 51.8275 37.3476 51.8661C37.3168 51.907 37.2907 51.9512 37.2698 51.9979C37.256 52.0248 37.2394 52.0501 37.2201 52.0735C37.2069 52.09 37.1908 52.1039 37.1726 52.1145L36.9048 52.27C36.8974 52.2748 36.8887 52.2774 36.8799 52.2774C36.8711 52.2774 36.8625 52.2748 36.8551 52.27C36.8469 52.2636 36.8402 52.2554 36.8357 52.2461C36.8312 52.2367 36.829 52.2264 36.8291 52.216ZM37.313 53.1945C37.3784 53.1555 37.4374 53.1067 37.488 53.0498C37.5389 52.9928 37.5824 52.9297 37.6176 52.8619C37.6513 52.7967 37.6774 52.7278 37.6953 52.6567C37.712 52.5917 37.7207 52.525 37.7212 52.4579V52.4126L37.3281 52.7474C37.2606 52.8003 37.2028 52.8646 37.1575 52.9375C37.1226 52.9963 37.1039 53.0634 37.1035 53.1319C37.1035 53.1945 37.1251 53.2269 37.1661 53.2334C37.218 53.2365 37.2695 53.2229 37.313 53.1945Z" fill="#455A64"/>
<path d="M39.2083 50.2259C39.2576 50.1955 39.3116 50.1736 39.3682 50.1611C39.4095 50.1527 39.4521 50.1527 39.4935 50.1611C39.5258 50.1659 39.5568 50.1777 39.5842 50.1956C39.6066 50.2102 39.6269 50.2276 39.6447 50.2475V49.2971C39.6453 49.2633 39.6534 49.2301 39.6684 49.1999C39.6799 49.1724 39.6995 49.149 39.7246 49.1329L39.9406 49.0055C39.9484 48.9988 39.9584 48.9951 39.9687 48.9951C39.979 48.9951 39.9889 48.9988 39.9967 49.0055C40.0052 49.0152 40.0117 49.0265 40.0158 49.0387C40.0199 49.051 40.0215 49.0639 40.0205 49.0768V52.0014C40.0198 52.0352 40.0117 52.0684 39.9967 52.0986C39.9858 52.127 39.9661 52.1512 39.9406 52.1677L39.7246 52.2952C39.7166 52.3015 39.7067 52.3049 39.6965 52.3049C39.6863 52.3049 39.6764 52.3015 39.6684 52.2952C39.6599 52.2855 39.6535 52.2742 39.6494 52.2619C39.6453 52.2497 39.6437 52.2368 39.6447 52.2239V52.1202C39.6272 52.1625 39.607 52.2036 39.5842 52.2433C39.5573 52.2915 39.5269 52.3377 39.4935 52.3816C39.4553 52.4315 39.4134 52.4784 39.3682 52.522C39.32 52.568 39.2663 52.6079 39.2083 52.6408C39.1315 52.6923 39.039 52.7152 38.947 52.7056C38.8678 52.693 38.7962 52.6515 38.7461 52.5889C38.6843 52.5131 38.6401 52.4246 38.6165 52.3297C38.5828 52.2109 38.5646 52.0882 38.5625 51.9647C38.5625 51.9215 38.5625 51.8718 38.5625 51.8113C38.5625 51.7508 38.5625 51.699 38.5625 51.6536C38.5666 51.5083 38.5847 51.3636 38.6165 51.2216C38.6456 51.0808 38.6891 50.9433 38.7461 50.8112C38.7975 50.6877 38.865 50.5715 38.947 50.4656C39.0169 50.3688 39.1058 50.2872 39.2083 50.2259ZM38.9383 51.4614C38.934 51.5442 38.934 51.6271 38.9383 51.7098C38.9513 51.8977 38.988 52.0144 39.055 52.0597C39.0915 52.0818 39.1338 52.0926 39.1765 52.0907C39.2192 52.0888 39.2603 52.0742 39.2947 52.0489C39.3992 51.9851 39.4826 51.8919 39.5345 51.7811C39.602 51.6468 39.6396 51.4994 39.6447 51.3491C39.6447 51.3016 39.6447 51.2454 39.6447 51.1763C39.6447 51.1072 39.6447 51.0532 39.6447 51.01C39.6478 50.955 39.6397 50.9001 39.6207 50.8484C39.6018 50.7968 39.5724 50.7496 39.5345 50.7097C39.5001 50.6833 39.458 50.6689 39.4146 50.6689C39.3713 50.6689 39.3291 50.6833 39.2947 50.7097C39.1908 50.7733 39.1076 50.8656 39.055 50.9754C38.9816 51.1271 38.9418 51.2929 38.9383 51.4614Z" fill="#455A64"/>
<path d="M40.8794 48.4591C40.8866 48.4522 40.8963 48.4482 40.9064 48.4482C40.9164 48.4482 40.9261 48.4522 40.9334 48.4591C40.9419 48.4689 40.9483 48.4802 40.9524 48.4924C40.9565 48.5046 40.9581 48.5176 40.9571 48.5304V48.8782C40.9565 48.9119 40.9484 48.9451 40.9334 48.9754C40.9225 49.0026 40.9037 49.0259 40.8794 49.0423L40.6288 49.1871C40.6216 49.1941 40.6119 49.198 40.6018 49.198C40.5917 49.198 40.5821 49.1941 40.5748 49.1871C40.5663 49.1774 40.5598 49.1661 40.5558 49.1538C40.5517 49.1416 40.5501 49.1287 40.5511 49.1158V48.768C40.5517 48.7343 40.5598 48.7011 40.5748 48.6708C40.585 48.6432 40.6039 48.6196 40.6288 48.6039L40.8794 48.4591ZM40.942 51.468C40.9414 51.5018 40.9332 51.535 40.9183 51.5652C40.9075 51.5931 40.8887 51.6171 40.8643 51.6343L40.6483 51.7596C40.6403 51.7659 40.6304 51.7694 40.6202 51.7694C40.61 51.7694 40.6001 51.7659 40.5921 51.7596C40.584 51.7498 40.5779 51.7384 40.5742 51.7261C40.5705 51.7139 40.5692 51.7011 40.5705 51.6883V49.6104C40.5702 49.5761 40.5775 49.5421 40.5921 49.5111C40.6043 49.484 40.6238 49.4609 40.6483 49.4441L40.8643 49.3167C40.8715 49.3097 40.8812 49.3058 40.8913 49.3058C40.9013 49.3058 40.911 49.3097 40.9183 49.3167C40.9267 49.3264 40.9332 49.3377 40.9373 49.3499C40.9414 49.3622 40.943 49.3751 40.942 49.3879V51.468Z" fill="#455A64"/>
<path d="M42.8985 50.3383C42.8989 50.3719 42.8916 50.4052 42.8769 50.4355C42.8653 50.4629 42.8457 50.4862 42.8207 50.5024L42.6047 50.6299C42.5975 50.6369 42.5878 50.6408 42.5777 50.6408C42.5676 50.6408 42.558 50.6369 42.5507 50.6299C42.5422 50.6202 42.5358 50.6089 42.5317 50.5966C42.5276 50.5844 42.526 50.5715 42.527 50.5586V49.4268C42.5383 49.2942 42.5105 49.1613 42.447 49.0444C42.3909 48.9688 42.3088 48.9645 42.1965 49.0293C42.0848 49.0998 41.9997 49.2054 41.9546 49.3296C41.8938 49.4813 41.8637 49.6435 41.866 49.8069V50.9409C41.8665 50.9746 41.8591 51.0078 41.8444 51.0381C41.8328 51.0655 41.8132 51.0889 41.7882 51.1051L41.5722 51.2325C41.565 51.2395 41.5553 51.2434 41.5452 51.2434C41.5352 51.2434 41.5255 51.2395 41.5182 51.2325C41.5096 51.2229 41.5031 51.2116 41.499 51.1993C41.4949 51.1871 41.4934 51.1741 41.4945 51.1612V49.0747C41.4951 49.0409 41.5033 49.0077 41.5182 48.9775C41.5284 48.9498 41.5474 48.9263 41.5722 48.9105L41.7882 48.7831C41.7961 48.7764 41.806 48.7727 41.8163 48.7727C41.8266 48.7727 41.8366 48.7764 41.8444 48.7831C41.8525 48.793 41.8586 48.8043 41.8623 48.8166C41.866 48.8288 41.8673 48.8416 41.866 48.8544V48.9559C41.916 48.8528 41.9753 48.7545 42.0431 48.6621C42.1082 48.5752 42.1897 48.5018 42.2829 48.4461C42.3696 48.3861 42.4734 48.3558 42.5788 48.3597C42.6172 48.3646 42.6542 48.3775 42.6873 48.3976C42.7204 48.4177 42.749 48.4445 42.771 48.4764C42.8244 48.5593 42.859 48.653 42.8726 48.7507C42.8943 48.8762 42.9044 49.0035 42.9028 49.1308L42.8985 50.3383Z" fill="#455A64"/>
<path d="M44.0869 50.2177C44.1333 50.1909 44.1755 50.1574 44.2122 50.1183C44.2564 50.0697 44.2949 50.016 44.3266 49.9585C44.3646 49.8905 44.3936 49.8179 44.413 49.7425C44.4351 49.663 44.446 49.5809 44.4454 49.4984V49.3342C44.4275 49.3756 44.4073 49.416 44.385 49.4552C44.3573 49.5036 44.327 49.5505 44.2942 49.5956C44.256 49.6448 44.2142 49.691 44.169 49.7338C44.1208 49.7806 44.0672 49.8212 44.0091 49.8548C43.9316 49.9047 43.8395 49.9268 43.7478 49.9174C43.6686 49.9049 43.597 49.8633 43.5469 49.8008C43.4851 49.725 43.4408 49.6365 43.4173 49.5416C43.3837 49.4235 43.3656 49.3015 43.3633 49.1787C43.3633 49.1355 43.3633 49.0837 43.3633 49.0254C43.3633 48.967 43.3633 48.913 43.3633 48.8677C43.3673 48.7223 43.3854 48.5776 43.4173 48.4357C43.4458 48.2947 43.4892 48.1571 43.5469 48.0253C43.5982 47.901 43.6658 47.7841 43.7478 47.6775C43.8176 47.5812 43.9066 47.5003 44.0091 47.4399C44.0588 47.4099 44.1127 47.3873 44.169 47.373C44.2104 47.3656 44.2528 47.3656 44.2942 47.373C44.3265 47.3782 44.3574 47.3899 44.385 47.4075C44.4078 47.4214 44.4283 47.4389 44.4454 47.4594V47.3557C44.4461 47.3219 44.4542 47.2887 44.4692 47.2585C44.4802 47.2307 44.4999 47.2072 44.5254 47.1915L44.7414 47.0641C44.7492 47.0574 44.7591 47.0537 44.7694 47.0537C44.7797 47.0537 44.7897 47.0574 44.7975 47.0641C44.806 47.0738 44.8125 47.0851 44.8166 47.0973C44.8206 47.1096 44.8222 47.1225 44.8213 47.1354V49.2478C44.829 49.5678 44.7617 49.8852 44.6247 50.1745C44.5068 50.4189 44.3188 50.6226 44.0847 50.7598C44.0014 50.8116 43.9078 50.8448 43.8104 50.857C43.7368 50.8665 43.662 50.8553 43.5944 50.8246C43.5331 50.7918 43.4822 50.7424 43.4475 50.6821C43.4085 50.6128 43.3877 50.5348 43.387 50.4553C43.3853 50.4215 43.3927 50.3879 43.4086 50.3581C43.4196 50.3303 43.4393 50.3068 43.4648 50.2911L43.6614 50.1766C43.6711 50.1686 43.6833 50.1641 43.6959 50.1641C43.7086 50.1641 43.7208 50.1686 43.7305 50.1766L43.7802 50.2263C43.7917 50.244 43.8069 50.259 43.8248 50.2702C43.8427 50.2814 43.8629 50.2885 43.8838 50.2911C43.9577 50.2891 44.0289 50.2634 44.0869 50.2177ZM43.7391 48.6884C43.7326 48.7718 43.7326 48.8556 43.7391 48.939C43.7521 49.1247 43.7888 49.2414 43.8558 49.2889C43.8923 49.311 43.9346 49.3218 43.9773 49.3198C44.02 49.3179 44.0611 49.3034 44.0955 49.2781C44.1991 49.2132 44.2822 49.1203 44.3353 49.0102C44.4028 48.8759 44.4404 48.7285 44.4454 48.5782C44.4454 48.5307 44.4454 48.4724 44.4454 48.4054C44.4454 48.3385 44.4454 48.2802 44.4454 48.2391C44.4487 48.1839 44.4405 48.1285 44.4216 48.0765C44.4027 48.0245 44.3733 47.977 44.3353 47.9367C44.3006 47.9109 44.2586 47.897 44.2154 47.897C44.1722 47.897 44.1302 47.9109 44.0955 47.9367C43.9922 48.001 43.9092 48.0931 43.8558 48.2024C43.7826 48.3542 43.7428 48.5199 43.7391 48.6884Z" fill="#455A64"/>
<path d="M45.6803 48.1677C45.688 48.1615 45.6975 48.1582 45.7073 48.1582C45.7172 48.1582 45.7267 48.1615 45.7343 48.1677C45.7428 48.1774 45.7493 48.1887 45.7534 48.2009C45.7575 48.2132 45.7591 48.2261 45.7581 48.239V48.671C45.7575 48.7047 45.7493 48.7379 45.7343 48.7682C45.7234 48.7954 45.7046 48.8187 45.6803 48.8351L45.4103 48.9906C45.4025 48.9973 45.3926 49.001 45.3823 49.001C45.372 49.001 45.362 48.9973 45.3542 48.9906C45.346 48.9808 45.3398 48.9694 45.3361 48.9572C45.3324 48.945 45.3312 48.9321 45.3326 48.9194V48.4874C45.3321 48.4537 45.3395 48.4204 45.3542 48.3902C45.3665 48.3626 45.3858 48.3387 45.4103 48.321L45.6803 48.1677Z" fill="#455A64"/>
<path d="M46.5804 47.6559C46.5883 47.6492 46.5982 47.6455 46.6085 47.6455C46.6188 47.6455 46.6288 47.6492 46.6366 47.6559C46.6454 47.6654 46.6521 47.6766 46.6562 47.6889C46.6603 47.7012 46.6617 47.7143 46.6604 47.7272V48.1592C46.6597 48.1929 46.6516 48.2261 46.6366 48.2564C46.6256 48.2842 46.6059 48.3077 46.5804 48.3233L46.3126 48.4788C46.3048 48.4855 46.2948 48.4892 46.2845 48.4892C46.2742 48.4892 46.2643 48.4855 46.2564 48.4788C46.2483 48.469 46.2423 48.4576 46.2386 48.4453C46.2348 48.4331 46.2336 48.4203 46.2349 48.4076V47.9756C46.2344 47.9419 46.2418 47.9086 46.2564 47.8784C46.2674 47.8506 46.2871 47.8271 46.3126 47.8114L46.5804 47.6559Z" fill="#455A64"/>
<path d="M47.4808 47.1354C47.4887 47.1287 47.4986 47.125 47.5089 47.125C47.5192 47.125 47.5292 47.1287 47.537 47.1354C47.5455 47.1451 47.552 47.1564 47.556 47.1686C47.5601 47.1809 47.5617 47.1938 47.5608 47.2067V47.6387C47.5599 47.6731 47.5518 47.7069 47.537 47.738C47.5255 47.7655 47.5059 47.7889 47.4808 47.805L47.213 47.9605C47.205 47.9668 47.1951 47.9702 47.1849 47.9702C47.1747 47.9702 47.1648 47.9668 47.1568 47.9605C47.1487 47.9506 47.1426 47.9392 47.1389 47.927C47.1352 47.9148 47.134 47.9019 47.1352 47.8892V47.4572C47.1351 47.4229 47.1425 47.389 47.1568 47.3579C47.1683 47.3304 47.1879 47.307 47.213 47.2909L47.4808 47.1354Z" fill="#455A64"/>
<path opacity="0.3" d="M20.4494 79.4142L61.1525 55.9134C61.33 55.8239 61.526 55.7773 61.7248 55.7773C61.9237 55.7773 62.1197 55.8239 62.2973 55.9134L62.9755 56.2849C63.2909 56.4685 63.2909 56.7644 62.9755 56.9459L22.2638 80.4423C22.0869 80.5328 21.8911 80.5799 21.6925 80.5799C21.4938 80.5799 21.298 80.5328 21.1212 80.4423L20.4494 80.073C20.1341 79.8915 20.1341 79.5956 20.4494 79.4142Z" fill="black"/>
<path opacity="0.3" d="M23.6424 81.3127L64.3454 57.8118C64.5032 57.7215 64.6798 57.6692 64.8613 57.659C65.0427 57.6489 65.2241 57.6813 65.3909 57.7535L75.9857 63.8706C76.247 64.0218 76.2017 64.2918 75.8863 64.4754L35.2308 87.9438C35.0725 88.0336 34.8955 88.0856 34.7138 88.0957C34.5321 88.1058 34.3505 88.0738 34.1832 88.0022L23.543 81.9131C23.2817 81.7641 23.327 81.4941 23.6424 81.3127Z" fill="#263238"/>
<path d="M58.9131 67.6838L60.1875 66.9473C60.2415 66.9149 60.2458 66.8674 60.1983 66.8393L58.9779 66.1351C58.9492 66.1216 58.9179 66.1146 58.8861 66.1146C58.8544 66.1146 58.823 66.1216 58.7943 66.1351L57.5199 66.8717C57.4638 66.9041 57.4594 66.9516 57.5091 66.9797L58.7274 67.6817C58.7562 67.6958 58.7879 67.7034 58.82 67.7037C58.8521 67.7041 58.8839 67.6973 58.9131 67.6838ZM57.0512 65.1372L55.7768 65.8716C55.7228 65.904 55.7185 65.9515 55.766 65.9796L56.9864 66.6838C57.0151 66.6972 57.0465 66.7042 57.0782 66.7042C57.1099 66.7042 57.1413 66.6972 57.17 66.6838L58.4444 65.9472C58.4984 65.917 58.5049 65.8694 58.4552 65.8414L57.2391 65.1307C57.2096 65.1166 57.1771 65.1098 57.1444 65.1109C57.1116 65.112 57.0797 65.121 57.0512 65.1372ZM52.9342 67.5132L50.7742 68.7595C50.7181 68.7897 50.7138 68.8394 50.7613 68.8654L51.9817 69.5695C52.0104 69.5843 52.0423 69.592 52.0746 69.592C52.1069 69.592 52.1387 69.5843 52.1674 69.5695L54.3274 68.3254C54.3814 68.293 54.3858 68.2454 54.3274 68.2174L53.1092 67.5132C53.0817 67.501 53.0519 67.4947 53.0217 67.4947C52.9916 67.4947 52.9618 67.501 52.9342 67.5132ZM55.1893 66.2172L53.9149 66.9516C53.8609 66.984 53.8566 67.0315 53.9041 67.0596L55.1223 67.7638C55.1513 67.7776 55.1831 67.7847 55.2152 67.7847C55.2473 67.7847 55.2791 67.7776 55.3081 67.7638L56.5825 67.0272C56.6365 66.997 56.6408 66.9494 56.5933 66.9214L55.375 66.2172C55.3467 66.2017 55.315 66.1933 55.2827 66.1925C55.2504 66.1918 55.2184 66.1988 55.1893 66.2129V66.2172ZM50.1889 69.0986L48.9145 69.8352C48.8605 69.8654 48.8562 69.9129 48.9037 69.941L50.1241 70.6452C50.1524 70.66 50.1839 70.6677 50.2159 70.6677C50.2478 70.6677 50.2793 70.66 50.3077 70.6452L51.5821 69.9108C51.6361 69.8784 51.6426 69.8309 51.5929 69.8028L50.3746 69.0986C50.3456 69.0848 50.3139 69.0776 50.2818 69.0776C50.2496 69.0776 50.2179 69.0848 50.1889 69.0986ZM48.327 70.1786L47.0526 70.9152C46.9986 70.9454 46.9942 70.9929 47.0418 71.021L48.26 71.7252C48.2887 71.74 48.3206 71.7477 48.3529 71.7477C48.3852 71.7477 48.417 71.74 48.4458 71.7252L49.7202 70.9886C49.7742 70.9584 49.7785 70.9109 49.731 70.8828L48.5127 70.1786C48.4843 70.1632 48.4527 70.1547 48.4204 70.154C48.3881 70.1532 48.356 70.1602 48.327 70.1743V70.1786ZM53.1049 73.0514L54.3793 72.3149C54.4333 72.2846 54.4398 72.235 54.3901 72.209L53.1718 71.4962C53.1431 71.4815 53.1113 71.4737 53.079 71.4737C53.0467 71.4737 53.0148 71.4815 52.9861 71.4962L51.7117 72.2306C51.6577 72.263 51.6534 72.3106 51.7117 72.3386L52.9321 73.0428C52.959 73.0554 52.9883 73.0622 53.018 73.063C53.0478 73.0637 53.0773 73.0583 53.1049 73.0471V73.0514ZM51.243 74.1314L52.5174 73.3949C52.5714 73.3625 52.5757 73.315 52.5282 73.2869L51.3099 72.5762C51.2809 72.5624 51.2492 72.5552 51.217 72.5552C51.1849 72.5552 51.1532 72.5624 51.1242 72.5762L49.8498 73.3128C49.7958 73.3452 49.7914 73.3927 49.8498 73.4208L51.068 74.125C51.0957 74.1368 51.1256 74.1428 51.1557 74.1424C51.1858 74.142 51.2156 74.1353 51.243 74.1228V74.1314ZM49.381 75.2114L50.6554 74.4749C50.7094 74.4425 50.7138 74.395 50.6554 74.3669L49.4458 73.6562C49.4171 73.6427 49.3858 73.6358 49.354 73.6358C49.3223 73.6358 49.291 73.6427 49.2622 73.6562L47.9878 74.3928C47.9317 74.4252 47.9274 74.4727 47.9878 74.4986L49.2061 75.2028C49.2339 75.2143 49.2639 75.2199 49.294 75.2191C49.3242 75.2184 49.3538 75.2114 49.381 75.1985V75.2114ZM47.517 76.2914L48.7914 75.557C48.8454 75.5246 48.8518 75.4771 48.8022 75.449L47.5839 74.7362C47.5549 74.7224 47.5232 74.7152 47.491 74.7152C47.4589 74.7152 47.4272 74.7224 47.3982 74.7362L46.1238 75.4728C46.0698 75.503 46.0654 75.5527 46.1238 75.5786L47.3442 76.2828C47.3722 76.2945 47.4026 76.2996 47.4329 76.2977C47.4632 76.2959 47.4927 76.287 47.5191 76.272L47.517 76.2914ZM57.049 68.7768L58.3234 68.0424C58.3774 68.01 58.3839 67.9625 58.3342 67.9344L57.116 67.2302C57.087 67.2164 57.0553 67.2092 57.0231 67.2092C56.991 67.2092 56.9593 67.2164 56.9302 67.2302L55.6558 67.9668C55.6018 67.997 55.5975 68.0467 55.645 68.0726L56.8654 68.7768C56.8953 68.7887 56.9277 68.7931 56.9596 68.7897C56.9916 68.7863 57.0223 68.7752 57.049 68.7574V68.7768ZM54.969 71.9909L57.8115 70.3493C57.8655 70.3169 57.8698 70.2694 57.8223 70.2413L54.8631 68.5133C54.8341 68.4995 54.8024 68.4923 54.7702 68.4923C54.7381 68.4923 54.7064 68.4995 54.6774 68.5133L53.2086 69.3622C53.1546 69.3946 53.1481 69.4421 53.1978 69.4702L54.7638 70.3752C54.8134 70.4011 54.807 70.4508 54.753 70.481L53.5671 71.1658C53.5131 71.1982 53.5066 71.2457 53.5671 71.2738L54.7854 71.9779C54.8146 71.9904 54.8461 71.9963 54.8779 71.9952C54.9096 71.994 54.9407 71.9859 54.969 71.9714V71.9909ZM46.465 71.2694L45.1906 72.0038C45.1345 72.0362 45.1302 72.0838 45.1777 72.1118L46.3981 72.816C46.4271 72.8298 46.4588 72.837 46.491 72.837C46.5231 72.837 46.5548 72.8298 46.5838 72.816L47.8582 72.0794C47.9122 72.0492 47.9166 72.0017 47.869 71.9736L46.6551 71.2435C46.6254 71.2286 46.5925 71.2214 46.5593 71.2225C46.526 71.2237 46.4937 71.2331 46.465 71.25V71.2694ZM44.601 72.3494L43.3266 73.0838C43.2726 73.1162 43.2682 73.1638 43.3158 73.1918L44.5362 73.896C44.5649 73.9095 44.5962 73.9165 44.628 73.9165C44.6597 73.9165 44.691 73.9095 44.7198 73.896L45.9942 73.1594C46.0482 73.1292 46.0546 73.0795 46.005 73.0536L44.7867 72.3494C44.7599 72.3309 44.7291 72.319 44.6967 72.3149C44.6644 72.3107 44.6316 72.3144 44.601 72.3257V72.3494ZM34.2934 83.8082C34.3222 83.823 34.354 83.8307 34.3863 83.8307C34.4186 83.8307 34.4505 83.823 34.4792 83.8082L35.7536 83.0738C35.8076 83.0414 35.8119 82.9939 35.7644 82.9658L34.5462 82.2617C34.5171 82.2479 34.4854 82.2407 34.4533 82.2407C34.4211 82.2407 34.3894 82.2479 34.3604 82.2617L33.086 82.9982C33.032 83.0285 33.0277 83.0781 33.0752 83.1041L34.2934 83.8082ZM29.7013 80.9311L28.4269 81.6655C28.3707 81.6979 28.3664 81.7454 28.4161 81.7735L29.6343 82.4777C29.6633 82.4915 29.6951 82.4987 29.7272 82.4987C29.7593 82.4987 29.7911 82.4915 29.8201 82.4777L31.0945 81.7411C31.1485 81.7109 31.1528 81.6612 31.0945 81.6353L29.8741 80.9311C29.8473 80.9178 29.8178 80.9106 29.7879 80.9103C29.758 80.9099 29.7284 80.9163 29.7013 80.929V80.9311ZM32.0622 83.0911C32.0912 83.1049 32.1229 83.1121 32.155 83.1121C32.1872 83.1121 32.2189 83.1049 32.2479 83.0911L33.5223 82.3546C33.5763 82.3243 33.5806 82.2768 33.5331 82.2487L32.3127 81.5445C32.2844 81.5298 32.2529 81.5221 32.2209 81.5221C32.189 81.5221 32.1575 81.5298 32.1291 81.5445L30.8547 82.279C30.8007 82.3114 30.7942 82.3589 30.8547 82.387L32.0622 83.0911ZM37.2008 84.2402L38.4752 83.5037C38.5292 83.4734 38.5357 83.4259 38.486 83.3978L37.2678 82.6937C37.239 82.6789 37.2072 82.6712 37.1749 82.6712C37.1426 82.6712 37.1107 82.6789 37.082 82.6937L35.8076 83.4281C35.7536 83.4605 35.7493 83.508 35.7968 83.5361L37.0172 84.2402C37.0459 84.2537 37.0773 84.2607 37.109 84.2607C37.1407 84.2607 37.1721 84.2537 37.2008 84.2402ZM35.1531 85.3202C35.1821 85.3341 35.2139 85.3412 35.246 85.3412C35.2781 85.3412 35.3099 85.3341 35.3389 85.3202L36.6133 84.5837C36.6673 84.5534 36.6716 84.5059 36.6241 84.4778L35.4058 83.7737C35.3771 83.7589 35.3453 83.7512 35.313 83.7512C35.2807 83.7512 35.2488 83.7589 35.2201 83.7737L33.9457 84.5081C33.8917 84.5405 33.8874 84.588 33.9457 84.6161L35.1531 85.3202ZM31.5632 79.8511L30.2888 80.5855C30.2348 80.6179 30.2305 80.6654 30.2888 80.6935L31.507 81.3977C31.5361 81.4115 31.5678 81.4187 31.5999 81.4187C31.6321 81.4187 31.6638 81.4115 31.6928 81.3977L32.9672 80.6611C33.0212 80.6309 33.0255 80.5834 32.9672 80.5553L31.7511 79.8468C31.7216 79.8326 31.6891 79.8258 31.6564 79.827C31.6236 79.8281 31.5917 79.8371 31.5632 79.8533V79.8511ZM40.8771 74.4727L39.6027 75.2093C39.5466 75.2417 39.5422 75.2892 39.5898 75.3173L40.8102 76.0193C40.8392 76.0331 40.8709 76.0403 40.903 76.0403C40.9352 76.0403 40.9669 76.0331 40.9959 76.0193L42.2703 75.2827C42.3243 75.2503 42.3286 75.2028 42.2811 75.1747L41.0607 74.4727C41.0321 74.4586 41.0006 74.4515 40.9687 74.4519C40.9368 74.4522 40.9054 74.4601 40.8771 74.4749V74.4727ZM33.4251 78.7754L32.1507 79.512C32.0967 79.5422 32.0924 79.5898 32.1507 79.6178L33.3711 80.322C33.3998 80.3355 33.4312 80.3425 33.4629 80.3425C33.4947 80.3425 33.526 80.3355 33.5547 80.322L34.8291 79.5854C34.8831 79.5552 34.8896 79.5077 34.8399 79.4796L33.6217 78.7754C33.5914 78.7591 33.5575 78.7508 33.5231 78.7511C33.4887 78.7515 33.455 78.7606 33.4251 78.7776V78.7754ZM42.739 73.3992L41.4646 74.1336C41.4106 74.166 41.4063 74.2135 41.4538 74.2416L42.6721 74.9458C42.7011 74.9596 42.7328 74.9667 42.765 74.9667C42.7971 74.9667 42.8288 74.9596 42.8578 74.9458L44.1322 74.2092C44.1862 74.179 44.1906 74.1293 44.143 74.1034L42.9248 73.3992C42.8959 73.3847 42.864 73.3774 42.8317 73.3778C42.7993 73.3782 42.7676 73.3862 42.739 73.4014V73.3992ZM39.013 75.5484L37.7386 76.285C37.6846 76.3152 37.6803 76.3649 37.7278 76.3908L38.9482 77.095C38.9766 77.1097 39.0081 77.1174 39.04 77.1174C39.072 77.1174 39.1035 77.1097 39.1318 77.095L40.4062 76.3605C40.4602 76.3281 40.4667 76.2806 40.417 76.2526L39.1988 75.5484C39.1696 75.5349 39.1378 75.5281 39.1057 75.5285C39.0735 75.5289 39.0419 75.5364 39.013 75.5506V75.5484ZM37.1511 76.6284L35.8767 77.365C35.8227 77.3952 35.8184 77.4427 35.8767 77.4708L37.095 78.175C37.1237 78.1897 37.1555 78.1974 37.1878 78.1974C37.2201 78.1974 37.252 78.1897 37.2807 78.175L38.5551 77.4405C38.6091 77.4081 38.6134 77.3606 38.5659 77.3326L37.3477 76.6284C37.3174 76.6125 37.2838 76.604 37.2497 76.6037C37.2155 76.6033 37.1817 76.611 37.1511 76.6262V76.6284ZM35.2892 77.7084L34.0148 78.445C33.9586 78.4752 33.9543 78.5227 34.0018 78.5508L35.2222 79.255C35.251 79.2697 35.2828 79.2774 35.3151 79.2774C35.3474 79.2774 35.3793 79.2697 35.408 79.255L36.6824 78.5184C36.7364 78.4882 36.7407 78.4406 36.6824 78.4125L35.462 77.7084C35.4352 77.6955 35.406 77.6882 35.3763 77.6871C35.3465 77.686 35.3169 77.691 35.2892 77.7019V77.7084ZM43.7931 78.4298L45.0675 77.6933C45.1215 77.663 45.1258 77.6155 45.0675 77.5874L43.8471 76.8833C43.8184 76.8698 43.7871 76.8628 43.7553 76.8628C43.7236 76.8628 43.6922 76.8698 43.6635 76.8833L42.3891 77.6198C42.333 77.6501 42.3286 77.6976 42.3783 77.7257L43.5966 78.4298C43.6272 78.4455 43.6613 78.4531 43.6957 78.452C43.7301 78.4508 43.7636 78.441 43.7931 78.4234V78.4298ZM61.1682 62.7655L59.8938 63.5021C59.8398 63.5323 59.8354 63.582 59.883 63.6079L61.1034 64.3121C61.1321 64.3268 61.1639 64.3346 61.1962 64.3346C61.2285 64.3346 61.2604 64.3268 61.2891 64.3121L62.5635 63.5777C62.6175 63.5453 62.6218 63.4978 62.5743 63.4697L61.3539 62.7655C61.3254 62.7507 61.2939 62.7424 61.2618 62.7413C61.2296 62.7402 61.1977 62.7462 61.1682 62.759V62.7655ZM58.9153 64.0615L57.6409 64.7981C57.5847 64.8283 57.5804 64.8758 57.6279 64.9039L58.8483 65.6081C58.8771 65.6228 58.9089 65.6306 58.9412 65.6306C58.9735 65.6306 59.0053 65.6228 59.0341 65.6081L60.3085 64.8715C60.3625 64.8413 60.3668 64.7938 60.3193 64.7657L59.0989 64.0615C59.0702 64.048 59.0388 64.041 59.0071 64.041C58.9753 64.041 58.944 64.048 58.9153 64.0615ZM63.0322 61.6855L61.7578 62.4221C61.7038 62.4545 61.6974 62.502 61.747 62.5301L62.9653 63.2321C62.9943 63.2459 63.026 63.2531 63.0582 63.2531C63.0903 63.2531 63.122 63.2459 63.151 63.2321L64.4254 62.4955C64.4794 62.4631 64.4838 62.4156 64.4362 62.3875L63.2158 61.6834C63.1871 61.6699 63.1558 61.6629 63.124 61.6629C63.0923 61.6629 63.061 61.6699 63.0322 61.6834V61.6855ZM52.7355 71.25L54.0099 70.5156C54.0639 70.4832 54.0704 70.4357 54.0099 70.4076L52.7917 69.7034C52.7627 69.6896 52.7309 69.6824 52.6988 69.6824C52.6667 69.6824 52.6349 69.6896 52.6059 69.7034L51.3315 70.44C51.2775 70.4702 51.2732 70.5178 51.3315 70.5458L52.5519 71.25C52.5804 71.2644 52.612 71.2718 52.644 71.2714C52.6759 71.271 52.7073 71.2629 52.7355 71.2478V71.25ZM65.0799 60.6055C65.0512 60.5907 65.0193 60.583 64.987 60.583C64.9547 60.583 64.9229 60.5907 64.8942 60.6055L63.6198 61.3399C63.5658 61.3723 63.5614 61.4198 63.609 61.4479L64.8272 62.1521C64.8562 62.1659 64.8879 62.1731 64.9201 62.1731C64.9522 62.1731 64.9839 62.1659 65.013 62.1521L66.2874 61.4155C66.3414 61.3853 66.3478 61.3356 66.2982 61.3097L65.0799 60.6055ZM45.655 77.3498L46.9294 76.6154C46.9834 76.583 46.9878 76.5355 46.9294 76.5074L45.7112 75.8033C45.6822 75.7895 45.6505 75.7823 45.6183 75.7823C45.5862 75.7823 45.5545 75.7895 45.5254 75.8033L44.251 76.5398C44.197 76.5701 44.1927 76.6176 44.251 76.6457L45.4693 77.3498C45.4982 77.3643 45.5301 77.3716 45.5624 77.3712C45.5947 77.3709 45.6265 77.3628 45.655 77.3477V77.3498ZM68.497 64.1738L69.7714 63.4373C69.8254 63.407 69.8298 63.3574 69.7822 63.3314L68.564 62.6273C68.5353 62.6125 68.5034 62.6048 68.4711 62.6048C68.4388 62.6048 68.407 62.6125 68.3782 62.6273L67.1038 63.3617C67.0498 63.3941 67.0434 63.4416 67.093 63.4697L68.3113 64.1738C68.3419 64.1844 68.3745 64.1879 68.4066 64.1842C68.4388 64.1804 68.4697 64.1695 68.497 64.1522V64.1738ZM64.892 64.243L66.1664 63.5064C66.2204 63.4762 66.2269 63.4286 66.1772 63.4005L64.959 62.6964C64.9299 62.6826 64.8982 62.6754 64.8661 62.6754C64.8339 62.6754 64.8022 62.6826 64.7732 62.6964L63.4988 63.433C63.4448 63.4632 63.4405 63.5107 63.488 63.5388L64.7084 64.243C64.7378 64.2558 64.7698 64.2613 64.8018 64.259C64.8338 64.2568 64.8647 64.2468 64.892 64.23V64.243ZM66.8209 61.6207C66.7919 61.6069 66.7601 61.5997 66.728 61.5997C66.6959 61.5997 66.6641 61.6069 66.6351 61.6207L65.3607 62.3573C65.3067 62.3875 65.3024 62.435 65.3499 62.4631L66.5703 63.1673C66.5991 63.1821 66.6309 63.1898 66.6632 63.1898C66.6955 63.1898 66.7273 63.1821 66.7561 63.1673L68.0391 62.4242C68.0931 62.3918 68.0974 62.3443 68.0499 62.3162L66.8209 61.6207ZM67.214 61.3939L70.1754 63.1046C70.2041 63.1181 70.2354 63.1251 70.2672 63.1251C70.2989 63.1251 70.3302 63.1181 70.359 63.1046L71.6334 62.3681C71.6874 62.3378 71.6938 62.2903 71.6442 62.2622L68.6871 60.5321C68.6584 60.5186 68.6271 60.5116 68.5953 60.5116C68.5636 60.5116 68.5322 60.5186 68.5035 60.5321L67.2291 61.2686C67.1751 61.3054 67.1751 61.355 67.214 61.381V61.3939ZM62.9113 63.7699L61.6369 64.5065C61.5829 64.5367 61.5764 64.5842 61.6261 64.6123L62.8443 65.3165C62.8733 65.3303 62.9051 65.3375 62.9372 65.3375C62.9693 65.3375 63.0011 65.3303 63.0301 65.3165L64.3045 64.5799C64.3585 64.5497 64.3628 64.5022 64.3153 64.4741L63.097 63.7699C63.0687 63.7545 63.037 63.746 63.0047 63.7453C62.9724 63.7445 62.9404 63.7515 62.9113 63.7656V63.7699ZM48.8929 71.8634L47.6185 72.6C47.5645 72.6302 47.558 72.6778 47.6077 72.7058L48.8259 73.41C48.8547 73.4248 48.8865 73.4325 48.9188 73.4325C48.9511 73.4325 48.983 73.4248 49.0117 73.41L50.2861 72.6734C50.3401 72.6432 50.3444 72.5957 50.2969 72.5676L49.0765 71.8634C49.0485 71.848 49.0172 71.8395 48.9852 71.8388C48.9532 71.838 48.9216 71.845 48.8929 71.8591V71.8634ZM66.4494 65.2474C66.4784 65.2612 66.5101 65.2683 66.5422 65.2683C66.5744 65.2683 66.6061 65.2612 66.6351 65.2474L67.9095 64.5108C67.9635 64.4806 67.9678 64.4309 67.9203 64.405L66.6999 63.7008C66.6716 63.686 66.6401 63.6783 66.6081 63.6783C66.5762 63.6783 66.5447 63.686 66.5163 63.7008L65.2419 64.4352C65.1858 64.4676 65.1814 64.5151 65.229 64.5432L66.4494 65.2474ZM50.7591 70.7834L49.4847 71.52C49.4307 71.5502 49.4264 71.5978 49.4739 71.6258L50.6922 72.33C50.7209 72.3448 50.7527 72.3525 50.785 72.3525C50.8173 72.3525 50.8492 72.3448 50.8779 72.33L52.1523 71.5956C52.2063 71.5632 52.2106 71.5157 52.1523 71.4876L50.9341 70.7834C50.9065 70.7712 50.8767 70.7649 50.8466 70.7649C50.8165 70.7649 50.7867 70.7712 50.7591 70.7834ZM36.1575 82.7282C36.186 82.7427 36.2174 82.7502 36.2493 82.7502C36.2812 82.7502 36.3127 82.7427 36.3411 82.7282L37.6155 81.9917C37.6695 81.9593 37.676 81.9118 37.6155 81.8837L36.3973 81.1817C36.3683 81.1679 36.3365 81.1607 36.3044 81.1607C36.2723 81.1607 36.2405 81.1679 36.2115 81.1817L34.9371 81.9182C34.8831 81.9506 34.8788 81.9982 34.9263 82.0262L36.1575 82.7282ZM33.9975 80.4602L32.7231 81.1968C32.6691 81.227 32.6648 81.2746 32.7123 81.3026L33.9306 82.0068C33.9596 82.0206 33.9913 82.0278 34.0234 82.0278C34.0556 82.0278 34.0873 82.0206 34.1163 82.0068L35.3907 81.2702C35.4447 81.24 35.449 81.1925 35.4015 81.1644L34.1833 80.4602C34.1536 80.4447 34.1204 80.4367 34.0869 80.4371C34.0533 80.4375 34.0204 80.4462 33.991 80.4624L33.9975 80.4602ZM38.2117 81.6482L39.4861 80.9117C39.5401 80.8814 39.5444 80.8318 39.4969 80.8058L38.2765 80.1017C38.2481 80.0869 38.2166 80.0792 38.1847 80.0792C38.1527 80.0792 38.1212 80.0869 38.0929 80.1017L36.8185 80.8361C36.7645 80.8685 36.758 80.916 36.8077 80.9441L38.0151 81.6482C38.0447 81.6627 38.0772 81.6703 38.1102 81.6703C38.1431 81.6703 38.1756 81.6627 38.2052 81.6482H38.2117ZM40.0736 80.5682L41.348 79.8317C41.402 79.8014 41.4063 79.7539 41.348 79.7258L40.1298 79.0217C40.101 79.0069 40.0692 78.9992 40.0369 78.9992C40.0046 78.9992 39.9727 79.0069 39.944 79.0217L38.6696 79.7561C38.6156 79.7885 38.6113 79.836 38.6588 79.8641L39.877 80.5682C39.9066 80.5827 39.9391 80.5903 39.9721 80.5903C40.005 80.5903 40.0375 80.5827 40.0671 80.5682H40.0736ZM41.9355 79.4882L43.2099 78.7517C43.2639 78.7214 43.2704 78.6739 43.2099 78.6458L41.9917 77.9417C41.963 77.9269 41.9311 77.9192 41.8988 77.9192C41.8665 77.9192 41.8347 77.9269 41.8059 77.9417L40.5315 78.6761C40.4775 78.7085 40.4732 78.756 40.5315 78.7841L41.7519 79.4882C41.779 79.5025 41.8088 79.5108 41.8393 79.5127C41.8699 79.5145 41.9004 79.5099 41.929 79.499L41.9355 79.4882ZM35.8551 79.3867L34.5807 80.1233C34.5267 80.1535 34.5224 80.201 34.5699 80.2291L35.7903 80.9333C35.8187 80.948 35.8502 80.9557 35.8821 80.9557C35.9141 80.9557 35.9456 80.948 35.9739 80.9333L37.2483 80.1967C37.3023 80.1665 37.3088 80.119 37.2591 80.0909L36.0409 79.3867C36.0119 79.3729 35.9801 79.3657 35.948 79.3657C35.9159 79.3657 35.8841 79.3729 35.8551 79.3867ZM37.7192 78.3067L36.4448 79.0433C36.3908 79.0735 36.3843 79.121 36.434 79.1491L37.6522 79.8533C37.681 79.8681 37.7128 79.8758 37.7451 79.8758C37.7774 79.8758 37.8093 79.8681 37.838 79.8533L39.1124 79.1189C39.1664 79.0865 39.1707 79.039 39.1232 79.0109L37.9028 78.3067C37.8735 78.2936 37.8416 78.2871 37.8094 78.2879C37.7773 78.2886 37.7457 78.2965 37.717 78.311L37.7192 78.3067ZM45.169 74.0062L43.8946 74.7406C43.8406 74.773 43.8363 74.8205 43.8838 74.8486L45.1021 75.5527C45.1311 75.5665 45.1628 75.5737 45.195 75.5737C45.2271 75.5737 45.2588 75.5665 45.2878 75.5527L46.5622 74.8162C46.6162 74.7859 46.6206 74.7362 46.573 74.7103L45.3591 74.004C45.329 73.9891 45.2957 73.9819 45.2622 73.983C45.2286 73.9842 45.1959 73.9936 45.1669 74.0105L45.169 74.0062ZM43.3071 75.0862L42.0327 75.8206C41.9787 75.853 41.9722 75.9005 42.0219 75.9286L43.2402 76.6327C43.2692 76.6465 43.3009 76.6537 43.333 76.6537C43.3652 76.6537 43.3969 76.6465 43.4259 76.6327L44.7003 75.8962C44.7543 75.8659 44.7586 75.8162 44.7111 75.7903L43.4907 75.0862C43.4621 75.071 43.4302 75.0631 43.3978 75.0631C43.3655 75.0631 43.3336 75.071 43.305 75.0862H43.3071ZM47.031 72.9262L45.7566 73.6606C45.7026 73.693 45.6982 73.7405 45.7458 73.7685L46.9662 74.4727C46.9949 74.4862 47.0262 74.4932 47.058 74.4932C47.0897 74.4932 47.121 74.4862 47.1498 74.4727L48.4242 73.7362C48.4782 73.7059 48.4846 73.6584 48.4242 73.6303L47.2059 72.9262C47.1777 72.9141 47.147 72.9086 47.1164 72.9101C47.0857 72.9116 47.0557 72.92 47.0288 72.9348L47.031 72.9262ZM39.5811 77.2267L38.3067 77.9633C38.2527 77.9935 38.2484 78.0432 38.2959 78.0691L39.5142 78.7733C39.5429 78.7881 39.5747 78.7958 39.607 78.7958C39.6393 78.7958 39.6712 78.7881 39.6999 78.7733L40.9743 78.0389C41.0283 78.0065 41.0326 77.959 40.9851 77.9309L39.7669 77.2267C39.7369 77.2139 39.7045 77.208 39.6719 77.2095C39.6394 77.211 39.6076 77.2198 39.579 77.2354L39.5811 77.2267ZM41.443 76.1467L40.1751 76.8962C40.1211 76.9286 40.1168 76.9762 40.1643 77.0042L41.3847 77.7062C41.4132 77.7207 41.4446 77.7282 41.4765 77.7282C41.5084 77.7282 41.5399 77.7207 41.5683 77.7062L42.8427 76.9697C42.8967 76.9373 42.9032 76.8898 42.8535 76.8617L41.6353 76.1597C41.6051 76.1445 41.5718 76.1366 41.5381 76.1366C41.5043 76.1366 41.471 76.1445 41.4409 76.1597L41.443 76.1467ZM39.067 83.1516L40.3414 82.415C40.3954 82.3848 40.3998 82.3373 40.3522 82.3092L39.1318 81.605C39.1035 81.5903 39.072 81.5826 39.04 81.5826C39.0081 81.5826 38.9766 81.5903 38.9482 81.605L37.6738 82.3416C37.6177 82.3718 37.6134 82.4194 37.6609 82.4474L38.8813 83.1516C38.909 83.1674 38.9401 83.1764 38.972 83.1779C39.004 83.1794 39.0358 83.1733 39.0649 83.1602L39.067 83.1516ZM29.2434 82.6872L28.0251 81.9852C27.9961 81.9714 27.9644 81.9642 27.9322 81.9642C27.9001 81.9642 27.8684 81.9714 27.8394 81.9852L26.565 82.7218C26.511 82.7542 26.5066 82.8017 26.565 82.8298L27.7854 83.5339C27.8141 83.5474 27.8454 83.5544 27.8772 83.5544C27.9089 83.5544 27.9402 83.5474 27.969 83.5339L29.2434 82.7974C29.2844 82.7758 29.2909 82.7282 29.2412 82.7002L29.2434 82.6872ZM31.6712 83.2985L30.4551 82.6073C30.4264 82.5925 30.3946 82.5848 30.3622 82.5848C30.3299 82.5848 30.2981 82.5925 30.2694 82.6073L28.3102 83.7391C28.2562 83.7694 28.2498 83.8169 28.2994 83.845L29.5177 84.5491C29.5464 84.5639 29.5783 84.5716 29.6106 84.5716C29.6429 84.5716 29.6747 84.5639 29.7034 84.5491L31.6626 83.4173C31.7122 83.387 31.7187 83.3374 31.669 83.3114L31.6712 83.2985ZM27.4311 81.3113L26.2107 80.6071C26.1824 80.5923 26.1509 80.5846 26.1189 80.5846C26.087 80.5846 26.0555 80.5923 26.0271 80.6071L24.459 81.5122C24.405 81.5446 24.3985 81.5921 24.446 81.6202L25.6664 82.3222C25.6954 82.336 25.7271 82.3431 25.7593 82.3431C25.7914 82.3431 25.8231 82.336 25.8522 82.3222L27.4203 81.415C27.4657 81.3869 27.47 81.3394 27.4311 81.3113ZM28.6342 80.6158C28.6626 80.6305 28.6941 80.6382 28.726 80.6382C28.758 80.6382 28.7895 80.6305 28.8178 80.6158L30.0922 79.8814C30.1462 79.849 30.1527 79.8014 30.103 79.7734L28.8762 79.0562C28.8471 79.0424 28.8154 79.0352 28.7833 79.0352C28.7511 79.0352 28.7194 79.0424 28.6904 79.0562L27.416 79.7928C27.362 79.823 27.3577 79.8727 27.4052 79.8986L28.6342 80.6158ZM33.9111 84.0242L32.6907 83.3201C32.662 83.3066 32.6307 83.2996 32.5989 83.2996C32.5672 83.2996 32.5358 83.3066 32.5071 83.3201L30.0555 84.7349C30.0015 84.7673 29.9972 84.8148 30.0447 84.8429L31.263 85.547C31.292 85.5608 31.3237 85.568 31.3558 85.568C31.388 85.568 31.4197 85.5608 31.4487 85.547L33.9003 84.1322C33.9457 84.1085 33.95 84.061 33.9111 84.0242ZM34.7751 85.5362L33.5547 84.8321C33.5264 84.8173 33.4949 84.8096 33.4629 84.8096C33.431 84.8096 33.3995 84.8173 33.3711 84.8321L31.7878 85.7522C31.7338 85.7825 31.7295 85.83 31.7878 85.8581L33.0082 86.5622C33.0366 86.577 33.0681 86.5847 33.1 86.5847C33.132 86.5847 33.1635 86.577 33.1918 86.5622L34.7622 85.6572C34.8054 85.6248 34.8097 85.5751 34.7622 85.5492L34.7751 85.5362ZM42.4863 72.6086C42.5153 72.6224 42.5471 72.6296 42.5792 72.6296C42.6113 72.6296 42.6431 72.6224 42.6721 72.6086L43.9465 71.8721C44.0005 71.8418 44.0048 71.7943 43.9465 71.7662L42.7239 71.0642C42.6956 71.0495 42.6641 71.0418 42.6321 71.0418C42.6002 71.0418 42.5687 71.0495 42.5403 71.0642L41.2659 71.7986C41.2119 71.831 41.2054 71.8786 41.2551 71.9066L42.4863 72.6086ZM38.7603 74.7686C38.7893 74.7824 38.8211 74.7896 38.8532 74.7896C38.8853 74.7896 38.9171 74.7824 38.9461 74.7686L40.2205 74.0321C40.2745 73.9997 40.281 73.9522 40.2205 73.9241L39.0001 73.2242C38.9711 73.2104 38.9393 73.2032 38.9072 73.2032C38.8751 73.2032 38.8433 73.2104 38.8143 73.2242L37.5399 73.9608C37.4859 73.9932 37.4816 74.0407 37.5291 74.0688L38.7603 74.7686ZM30.5005 79.5379C30.5295 79.5517 30.5612 79.5589 30.5934 79.5589C30.6255 79.5589 30.6572 79.5517 30.6862 79.5379L31.9606 78.8014C32.0146 78.769 32.019 78.7214 31.9714 78.6934L30.751 77.9914C30.7227 77.9766 30.6912 77.9689 30.6592 77.9689C30.6273 77.9689 30.5958 77.9766 30.5674 77.9914L29.293 78.7258C29.239 78.7582 29.2326 78.8057 29.2801 78.8338L30.5005 79.5379ZM40.6071 73.6973C40.6361 73.7111 40.6679 73.7183 40.7 73.7183C40.7321 73.7183 40.7639 73.7111 40.7929 73.6973L42.0673 72.9607C42.1213 72.9305 42.1256 72.8808 42.0781 72.8549L40.862 72.1442C40.8333 72.1295 40.8014 72.1217 40.7691 72.1217C40.7368 72.1217 40.705 72.1295 40.6762 72.1442L39.4018 72.8786C39.3478 72.911 39.3435 72.9586 39.4018 72.9866L40.6071 73.6973ZM36.8811 75.8465C36.9099 75.8613 36.9417 75.869 36.974 75.869C37.0063 75.869 37.0382 75.8613 37.0669 75.8465L38.3413 75.1121C38.3953 75.0797 38.3996 75.0322 38.3521 75.0041L37.136 74.3042C37.1073 74.2907 37.0759 74.2838 37.0442 74.2838C37.0125 74.2838 36.9811 74.2907 36.9524 74.3042L35.678 75.0408C35.624 75.071 35.6175 75.1207 35.6672 75.1466L36.8811 75.8465ZM35.6715 85.6226C35.6425 85.6088 35.6108 85.6016 35.5786 85.6016C35.5465 85.6016 35.5148 85.6088 35.4858 85.6226L33.5266 86.7545C33.4726 86.7869 33.4662 86.8344 33.5158 86.8625L34.7341 87.5666C34.7631 87.5805 34.7948 87.5876 34.827 87.5876C34.8591 87.5876 34.8908 87.5805 34.9198 87.5666L36.8811 86.4348C36.9351 86.4024 36.9394 86.3549 36.8811 86.3268L35.6715 85.6226ZM34.2092 77.3909C34.2379 77.4044 34.2693 77.4113 34.301 77.4113C34.3327 77.4113 34.3641 77.4044 34.3928 77.3909L35.6672 76.6543C35.7212 76.6241 35.7277 76.5766 35.6672 76.5485L34.449 75.8443C34.4202 75.8295 34.3884 75.8218 34.3561 75.8218C34.3238 75.8218 34.2919 75.8295 34.2632 75.8443L32.9888 76.5787C32.9348 76.6111 32.9305 76.6586 32.978 76.6867L34.2092 77.3909ZM32.3451 78.4709C32.3741 78.4847 32.4059 78.4919 32.438 78.4919C32.4701 78.4919 32.5019 78.4847 32.5309 78.4709L33.8053 77.7343C33.8593 77.7041 33.8636 77.6544 33.8161 77.6285L32.5978 76.9243C32.5691 76.9095 32.5373 76.9018 32.505 76.9018C32.4727 76.9018 32.4408 76.9095 32.4121 76.9243L31.1377 77.6587C31.0837 77.6911 31.0794 77.7386 31.1269 77.7667L32.3451 78.4709ZM70.1797 65.7053C70.151 65.6905 70.1191 65.6828 70.0868 65.6828C70.0545 65.6828 70.0226 65.6905 69.9939 65.7053L66.8576 67.5154C66.8036 67.5478 66.7993 67.5953 66.8468 67.6234L68.065 68.3275C68.0941 68.3413 68.1258 68.3485 68.1579 68.3485C68.1901 68.3485 68.2218 68.3413 68.2508 68.3275L71.3871 66.5153C71.4411 66.485 71.4476 66.4375 71.3979 66.4094L70.1797 65.7053ZM66.0627 68.0813C66.0337 68.0675 66.002 68.0603 65.9698 68.0603C65.9377 68.0603 65.906 68.0675 65.877 68.0813L64.6026 68.8178C64.5486 68.8481 64.5442 68.8978 64.5918 68.9237L65.81 69.6278C65.8387 69.6426 65.8706 69.6503 65.9029 69.6503C65.9352 69.6503 65.967 69.6426 65.9958 69.6278L67.2702 68.8934C67.3242 68.861 67.3285 68.8135 67.281 68.7854L66.0627 68.0813ZM40.9268 82.0802L42.2012 81.3458C42.2552 81.3134 42.2595 81.2659 42.212 81.2378L40.9938 80.5337C40.9647 80.5199 40.933 80.5127 40.9009 80.5127C40.8687 80.5127 40.837 80.5199 40.808 80.5337L39.5336 81.2702C39.4796 81.3005 39.4753 81.348 39.5228 81.3761L40.741 82.0802C40.7698 82.095 40.8016 82.1027 40.8339 82.1027C40.8662 82.1027 40.8981 82.095 40.9268 82.0802ZM62.341 70.2197C62.312 70.2059 62.2803 70.1987 62.2482 70.1987C62.216 70.1987 62.1843 70.2059 62.1553 70.2197L60.8809 70.9562C60.8269 70.9865 60.8226 71.034 60.8701 71.0621L62.0905 71.7662C62.1188 71.781 62.1503 71.7887 62.1823 71.7887C62.2142 71.7887 62.2457 71.781 62.2741 71.7662L63.5485 71.0297C63.6046 70.9994 63.609 70.9519 63.5614 70.9238L62.341 70.2197ZM72.0459 64.6166C72.0176 64.6019 71.9861 64.5942 71.9541 64.5942C71.9222 64.5942 71.8907 64.6019 71.8623 64.6166L70.5879 65.351C70.5339 65.3834 70.5274 65.4309 70.5771 65.459L71.7954 66.1632C71.8244 66.177 71.8561 66.1842 71.8882 66.1842C71.9204 66.1842 71.9521 66.177 71.9811 66.1632L73.2555 65.4266C73.3095 65.3964 73.3138 65.3489 73.2663 65.3208L72.0459 64.6166ZM75.1282 64.2451L72.1669 62.5344C72.1382 62.5209 72.1068 62.5139 72.0751 62.5139C72.0433 62.5139 72.012 62.5209 71.9833 62.5344L70.7089 63.271C70.6527 63.3034 70.6484 63.3509 70.6959 63.3768L73.6551 65.1026C73.6838 65.1174 73.7157 65.1251 73.748 65.1251C73.7803 65.1251 73.8121 65.1174 73.8409 65.1026L75.1153 64.3661C75.1671 64.3293 75.1671 64.2818 75.1282 64.2538V64.2451ZM55.3815 74.2459C55.3525 74.2321 55.3208 74.2249 55.2886 74.2249C55.2565 74.2249 55.2248 74.2321 55.1958 74.2459L53.6276 75.1531C53.5736 75.1834 53.5671 75.2309 53.6168 75.259L54.835 75.9631C54.8638 75.9779 54.8956 75.9856 54.9279 75.9856C54.9602 75.9856 54.9921 75.9779 55.0208 75.9631L56.589 75.0581C56.643 75.0257 56.6473 74.9782 56.5998 74.9501L55.3815 74.2459ZM60.086 71.5308C60.0577 71.516 60.0262 71.5083 59.9942 71.5083C59.9622 71.5083 59.9307 71.516 59.9024 71.5308L57.9411 72.6626C57.8871 72.6929 57.8828 72.7404 57.9303 72.7685L59.1486 73.4726C59.1773 73.4874 59.2091 73.4951 59.2414 73.4951C59.2737 73.4951 59.3056 73.4874 59.3343 73.4726L61.2956 72.3408C61.3496 72.3106 61.3539 72.263 61.3064 72.235L60.086 71.5308ZM51.068 76.7364C51.039 76.7226 51.0073 76.7154 50.9751 76.7154C50.943 76.7154 50.9113 76.7226 50.8822 76.7364L40.3933 82.7844C40.3393 82.8168 40.3328 82.8643 40.3933 82.8924L41.6115 83.5965C41.6405 83.6104 41.6723 83.6175 41.7044 83.6175C41.7365 83.6175 41.7683 83.6104 41.7973 83.5965L52.2711 77.5442C52.3251 77.5118 52.3294 77.4643 52.2711 77.4362L51.068 76.7364ZM39.9894 83.1322C39.9603 83.1183 39.9286 83.1112 39.8965 83.1112C39.8643 83.1112 39.8326 83.1183 39.8036 83.1322L38.2311 84.0458C38.1771 84.0761 38.1728 84.1236 38.2203 84.1517L39.4407 84.8558C39.4691 84.8706 39.5006 84.8783 39.5325 84.8783C39.5645 84.8783 39.596 84.8706 39.6243 84.8558L41.1946 83.9508C41.2486 83.9184 41.253 83.8709 41.1946 83.8428L39.9894 83.1322ZM53.2237 75.4922C53.1953 75.4775 53.1638 75.4698 53.1319 75.4698C53.0999 75.4698 53.0684 75.4775 53.0401 75.4922L51.4698 76.3973C51.4158 76.4297 51.4114 76.4772 51.4698 76.5053L52.6902 77.2073C52.7186 77.2217 52.7501 77.2292 52.782 77.2292C52.8139 77.2292 52.8453 77.2217 52.8738 77.2073L54.4441 76.3001C54.4981 76.2698 54.5024 76.2223 54.4549 76.1942L53.2237 75.4922ZM37.8337 84.3785C37.805 84.3637 37.7731 84.356 37.7408 84.356C37.7085 84.356 37.6767 84.3637 37.6479 84.3785L36.0711 85.29C36.0171 85.3224 36.0106 85.3699 36.0711 85.398L37.2894 86.1C37.3184 86.1138 37.3501 86.121 37.3822 86.121C37.4144 86.121 37.4461 86.1138 37.4751 86.1L39.0433 85.1928C39.0973 85.1626 39.1016 85.115 39.0541 85.087L37.8337 84.3785ZM57.5372 73.0082C57.5085 72.9935 57.4766 72.9857 57.4443 72.9857C57.412 72.9857 57.3802 72.9935 57.3514 73.0082L55.7833 73.9133C55.7293 73.9457 55.725 73.9932 55.7725 74.0213L56.9929 74.7254C57.0216 74.7389 57.0529 74.7459 57.0847 74.7459C57.1164 74.7459 57.1478 74.7389 57.1765 74.7254L58.7468 73.8182C58.8008 73.788 58.8051 73.7405 58.7468 73.7124L57.5372 73.0082ZM64.203 69.1591C64.1742 69.1456 64.1429 69.1386 64.1112 69.1386C64.0794 69.1386 64.0481 69.1456 64.0194 69.1591L62.745 69.8957C62.691 69.9259 62.6845 69.9734 62.7342 70.0015L63.9524 70.7057C63.9811 70.7205 64.013 70.7282 64.0453 70.7282C64.0776 70.7282 64.1094 70.7205 64.1382 70.7057L65.4126 69.9713C65.4666 69.9389 65.4709 69.8914 65.4234 69.8633L64.203 69.1591ZM68.3761 66.2474L69.6505 65.513C69.7045 65.4806 69.7088 65.4331 69.6613 65.405L68.443 64.7009C68.414 64.6871 68.3823 64.6799 68.3502 64.6799C68.318 64.6799 68.2863 64.6871 68.2573 64.7009L66.9829 65.4374C66.9289 65.4677 66.9246 65.5152 66.9721 65.5433L68.1903 66.2474C68.2196 66.2612 68.2517 66.2678 68.284 66.2667C68.3163 66.2656 68.3479 66.2567 68.3761 66.241V66.2474ZM60.775 66.6146L62.0494 65.8781C62.1034 65.8478 62.1078 65.7982 62.0602 65.7701L60.842 65.0681C60.8133 65.0533 60.7814 65.0456 60.7491 65.0456C60.7168 65.0456 60.685 65.0533 60.6562 65.0681L59.3818 65.8025C59.3278 65.8349 59.3235 65.8824 59.371 65.9105L60.5893 66.6146C60.6188 66.6274 60.6508 66.6335 60.6829 66.6324C60.715 66.6313 60.7465 66.623 60.775 66.6082V66.6146ZM55.8286 73.4921L59.5525 71.3429C59.6065 71.3105 59.613 71.263 59.5633 71.2349L58.345 70.5307C58.316 70.5169 58.2843 70.5097 58.2522 70.5097C58.22 70.5097 58.1883 70.5169 58.1593 70.5307L54.4333 72.6907C54.3793 72.721 54.375 72.7685 54.4333 72.7965L55.6537 73.5007C55.6821 73.5114 55.7126 73.5157 55.7429 73.513C55.7732 73.5104 55.8025 73.501 55.8286 73.4856V73.4921ZM66.3284 67.3296C66.3571 67.3444 66.389 67.3521 66.4213 67.3521C66.4536 67.3521 66.4854 67.3444 66.5142 67.3296L67.7886 66.593C67.8426 66.5628 67.8469 66.5153 67.7994 66.4872L66.579 65.783C66.5502 65.7695 66.5189 65.7626 66.4872 65.7626C66.4554 65.7626 66.4241 65.7695 66.3954 65.783L65.121 66.5196C65.0648 66.5498 65.0605 66.5974 65.108 66.6254L66.3284 67.3296ZM64.771 66.3122L66.0454 65.5757C66.0994 65.5433 66.1059 65.4958 66.0562 65.4677L64.838 64.7657C64.809 64.7519 64.7773 64.7447 64.7451 64.7447C64.713 64.7447 64.6813 64.7519 64.6522 64.7657L63.3778 65.5022C63.3238 65.5346 63.3195 65.5822 63.367 65.6102L64.5831 66.3122C64.6121 66.3274 64.6444 66.3353 64.6771 66.3353C64.7098 66.3353 64.742 66.3274 64.771 66.3122ZM53.971 74.5613L55.2454 73.8247C55.2994 73.7945 55.3059 73.747 55.2454 73.7189L54.0315 73.0082C54.0025 72.9944 53.9708 72.9872 53.9386 72.9872C53.9065 72.9872 53.8748 72.9944 53.8458 73.0082L52.5714 73.7448C52.5174 73.775 52.513 73.8226 52.5714 73.8506L53.7918 74.5548C53.8182 74.5688 53.8475 74.5767 53.8774 74.5778C53.9073 74.5789 53.9371 74.5733 53.9646 74.5613H53.971ZM62.2071 69.7013C62.2358 69.7148 62.2672 69.7218 62.2989 69.7218C62.3307 69.7218 62.362 69.7148 62.3907 69.7013L63.6651 68.9647C63.7213 68.9345 63.7256 68.8848 63.6781 68.8589L62.4577 68.1547C62.429 68.1399 62.3971 68.1322 62.3648 68.1322C62.3325 68.1322 62.3006 68.1399 62.2719 68.1547L60.9975 68.8891C60.9435 68.9215 60.9392 68.969 60.9867 68.9971L62.2071 69.7013ZM44.6485 79.9375L45.9229 79.2031C45.9769 79.1707 45.9812 79.1232 45.9337 79.0951L44.7111 78.391C44.6824 78.3775 44.6511 78.3705 44.6193 78.3705C44.5876 78.3705 44.5562 78.3775 44.5275 78.391L43.2531 79.1275C43.197 79.1599 43.1926 79.2074 43.2402 79.2334L44.4606 79.9375C44.4901 79.9534 44.5231 79.9617 44.5567 79.9617C44.5902 79.9617 44.6233 79.9534 44.6528 79.9375H44.6485ZM46.5104 78.8575L47.7848 78.121C47.8388 78.0886 47.8431 78.041 47.7956 78.013L46.5817 77.3282C46.553 77.3135 46.5211 77.3057 46.4888 77.3057C46.4565 77.3057 46.4247 77.3135 46.3959 77.3282L45.1215 78.0626C45.0675 78.095 45.0632 78.1426 45.1107 78.1706L46.329 78.8748C46.3588 78.887 46.3909 78.8923 46.4231 78.8904C46.4552 78.8886 46.4865 78.8795 46.5147 78.864L46.5104 78.8575ZM42.7844 81.0067L44.0588 80.2723C44.1128 80.2399 44.1193 80.1924 44.0696 80.1643L42.8514 79.4602C42.8223 79.4463 42.7906 79.4392 42.7585 79.4392C42.7263 79.4392 42.6946 79.4463 42.6656 79.4602L41.3912 80.1967C41.3372 80.227 41.3329 80.2766 41.3804 80.3026L42.6008 81.0067C42.6292 81.0232 42.6612 81.0325 42.6939 81.0336C42.7267 81.0347 42.7593 81.0277 42.7887 81.0132L42.7844 81.0067ZM50.2364 76.7062L51.5108 75.9696C51.5648 75.9394 51.5691 75.8918 51.5216 75.8638L50.3055 75.1682C50.2768 75.1535 50.2449 75.1457 50.2126 75.1457C50.1803 75.1457 50.1485 75.1535 50.1198 75.1682L48.8454 75.9026C48.7914 75.935 48.787 75.9826 48.8454 76.0106L50.0658 76.7148C50.0935 76.7267 50.1233 76.7326 50.1535 76.7322C50.1836 76.7318 50.2133 76.7252 50.2407 76.7126L50.2364 76.7062ZM48.3723 77.7862L49.6467 77.0496C49.7007 77.0194 49.7072 76.9697 49.6467 76.9438L48.4436 76.2482C48.4149 76.2335 48.383 76.2257 48.3507 76.2257C48.3184 76.2257 48.2866 76.2335 48.2578 76.2482L46.9834 76.9826C46.9294 77.015 46.9251 77.0626 46.9726 77.0906L48.193 77.7948C48.2231 77.8083 48.2559 77.8147 48.2888 77.8136C48.3218 77.8125 48.354 77.8038 48.3831 77.7883L48.3723 77.7862ZM52.0983 75.6262L53.3727 74.8896C53.4267 74.8594 53.431 74.8118 53.3727 74.7838L52.1696 74.0882C52.1409 74.0735 52.109 74.0657 52.0767 74.0657C52.0444 74.0657 52.0126 74.0735 51.9838 74.0882L50.7094 74.8248C50.6554 74.855 50.649 74.9026 50.6986 74.9306L51.9169 75.6348C51.9457 75.649 51.9774 75.6565 52.0095 75.6569C52.0417 75.6572 52.0735 75.6504 52.1026 75.637L52.0983 75.6262ZM62.2633 60.666C62.2916 60.6808 62.3231 60.6885 62.3551 60.6885C62.387 60.6885 62.4185 60.6808 62.4469 60.666L63.7213 59.9294C63.7753 59.8992 63.7818 59.8517 63.7321 59.8236L63.4081 59.6357C63.3791 59.6219 63.3473 59.6147 63.3152 59.6147C63.2831 59.6147 63.2513 59.6219 63.2223 59.6357L61.9479 60.3722C61.8939 60.4025 61.8896 60.45 61.9371 60.4781L62.2633 60.666ZM53.0055 66.5282C53.0342 66.5417 53.0656 66.5487 53.0973 66.5487C53.1291 66.5487 53.1604 66.5417 53.1891 66.5282L54.4635 65.7917C54.5175 65.7614 54.524 65.7118 54.4743 65.6858L53.2561 64.9817C53.2274 64.9669 53.1955 64.9592 53.1632 64.9592C53.1309 64.9592 53.099 64.9669 53.0703 64.9817L51.7959 65.7161C51.7419 65.7485 51.7376 65.796 51.7959 65.8241L53.0055 66.5282ZM56.7294 64.3682C56.7584 64.3821 56.7901 64.3892 56.8222 64.3892C56.8544 64.3892 56.8861 64.3821 56.9151 64.3682L58.1895 63.6317C58.2435 63.6014 58.2478 63.5539 58.2003 63.5258L56.9821 62.8217C56.9534 62.8069 56.9215 62.7992 56.8892 62.7992C56.8569 62.7992 56.8251 62.8069 56.7963 62.8217L55.5219 63.5582C55.4679 63.5885 55.4636 63.636 55.5111 63.6641L56.7294 64.3682ZM50.731 67.8242C50.7598 67.8377 50.7911 67.8447 50.8228 67.8447C50.8546 67.8447 50.8859 67.8377 50.9146 67.8242L52.189 67.0877C52.243 67.0574 52.2495 67.0078 52.1998 66.9818L50.9816 66.2777C50.9529 66.2629 50.921 66.2552 50.8887 66.2552C50.8564 66.2552 50.8246 66.2629 50.7958 66.2777L49.5214 67.0121C49.4674 67.0445 49.4631 67.092 49.5214 67.1201L50.731 67.8242ZM54.8631 65.4634C54.8921 65.4772 54.9239 65.4843 54.956 65.4843C54.9881 65.4843 55.0199 65.4772 55.0489 65.4634L56.3233 64.7268C56.3773 64.6966 56.3816 64.649 56.3341 64.621L55.1137 63.9168C55.0853 63.902 55.0538 63.8943 55.0219 63.8943C54.9899 63.8943 54.9584 63.902 54.9301 63.9168L53.6557 64.6512C53.5995 64.6836 53.5952 64.7311 53.6427 64.7592L54.8631 65.4634ZM47.0007 69.9994C47.0295 70.0141 47.0613 70.0218 47.0936 70.0218C47.1259 70.0218 47.1578 70.0141 47.1865 69.9994L48.4609 69.265C48.5149 69.2326 48.5192 69.185 48.4609 69.157L47.2405 68.4528C47.2118 68.4393 47.1804 68.4323 47.1487 68.4323C47.1169 68.4323 47.0856 68.4393 47.0569 68.4528L45.7825 69.1894C45.7263 69.2218 45.722 69.2693 45.7717 69.2952L47.0007 69.9994ZM48.8626 68.9194C48.8917 68.9332 48.9234 68.9403 48.9555 68.9403C48.9877 68.9403 49.0194 68.9332 49.0484 68.9194L50.3228 68.1828C50.3768 68.1504 50.3811 68.1029 50.3228 68.0748L49.1046 67.3728C49.0755 67.359 49.0438 67.3518 49.0117 67.3518C48.9795 67.3518 48.9478 67.359 48.9188 67.3728L47.6444 68.1094C47.5904 68.1418 47.5861 68.1893 47.6444 68.2174L48.8626 68.9194ZM58.5351 62.8282C58.5641 62.842 58.5959 62.8491 58.628 62.8491C58.6601 62.8491 58.6919 62.842 58.7209 62.8282L59.9953 62.0916C60.0493 62.0614 60.0536 62.0138 59.9953 61.9858L59.6713 61.7978C59.6426 61.7831 59.6107 61.7753 59.5784 61.7753C59.5461 61.7753 59.5142 61.7831 59.4855 61.7978L58.2111 62.5344C58.1571 62.5646 58.1506 62.6122 58.2003 62.6402L58.5351 62.8282ZM64.123 59.6011C64.1518 59.6159 64.1836 59.6236 64.2159 59.6236C64.2482 59.6236 64.2801 59.6159 64.3088 59.6011L65.5832 58.8667C65.6372 58.8343 65.6415 58.7868 65.5832 58.7587L65.2592 58.5708C65.2302 58.557 65.1985 58.5498 65.1663 58.5498C65.1342 58.5498 65.1025 58.557 65.0734 58.5708L63.799 59.3074C63.745 59.3376 63.7386 59.3873 63.7882 59.4132L64.123 59.6011ZM66.6848 61.0807C66.7135 61.0942 66.7449 61.1012 66.7766 61.1012C66.8083 61.1012 66.8397 61.0942 66.8684 61.0807L68.1428 60.3442C68.199 60.3139 68.2033 60.2664 68.1558 60.2383L66.9354 59.5342C66.9066 59.5194 66.8748 59.5117 66.8425 59.5117C66.8102 59.5117 66.7783 59.5194 66.7496 59.5342L65.4752 60.2685C65.4212 60.3009 65.4169 60.3485 65.4644 60.3765L66.6848 61.0807ZM70.2315 65.1653L71.5059 64.4309C71.5599 64.3985 71.5664 64.351 71.5167 64.3229L70.2985 63.6187C70.2695 63.6049 70.2377 63.5977 70.2056 63.5977C70.1735 63.5977 70.1417 63.6049 70.1127 63.6187L68.8383 64.3553C68.7843 64.3855 68.78 64.4352 68.8275 64.4611L70.0479 65.1653C70.0771 65.1812 70.1098 65.1895 70.143 65.1895C70.1762 65.1895 70.2088 65.1812 70.238 65.1653H70.2315ZM60.397 61.7525C60.4261 61.7663 60.4578 61.7735 60.4899 61.7735C60.5221 61.7735 60.5538 61.7663 60.5828 61.7525L61.8572 61.0159C61.9112 60.9857 61.9155 60.9382 61.8572 60.9101L61.5332 60.7222C61.5045 60.7074 61.4726 60.6997 61.4403 60.6997C61.408 60.6997 61.3762 60.7074 61.3474 60.7222L60.073 61.4587C60.019 61.489 60.0147 61.5365 60.0622 61.5645L60.397 61.7525ZM45.1431 71.0772C45.1715 71.092 45.203 71.0997 45.2349 71.0997C45.2669 71.0997 45.2984 71.092 45.3267 71.0772L46.6011 70.3428C46.6551 70.3104 46.6616 70.2629 46.6011 70.2348L45.3829 69.5306C45.3539 69.5168 45.3221 69.5096 45.29 69.5096C45.2579 69.5096 45.2261 69.5168 45.1971 69.5306L43.9227 70.2672C43.8687 70.2974 43.8644 70.3449 43.9227 70.373L45.1431 71.0772Z" fill="#263238"/>
<path opacity="0.4" d="M50.6602 80.6848L50.9215 80.8339L57.8616 84.8407L70.2038 77.7148L70.4609 77.5679L63.2594 73.4121L50.6602 80.6848Z" fill="black"/>
<path d="M50.9219 80.8339L57.862 84.8406L70.2042 77.7148L63.2598 73.708L50.9219 80.8339Z" fill="#EF233C"/>
<path opacity="0.45" d="M50.9219 80.8339L57.862 84.8406L70.2042 77.7148L63.2598 73.708L50.9219 80.8339Z" fill="black"/>
<path d="M15.067 79.3843C15.1779 79.4485 15.2961 79.4993 15.4191 79.5355C15.2963 79.5007 15.1781 79.4514 15.067 79.3887C15.0297 79.3669 14.9936 79.3431 14.959 79.3174C14.9937 79.3417 15.0297 79.3641 15.067 79.3843Z" fill="#EF233C"/>
<path d="M17.0625 79.488C17.0625 79.488 17.0625 79.488 17.0819 79.4707L17.0668 79.4837L17.0625 79.488Z" fill="#EF233C"/>
<path d="M96.6816 5.30486L69.2496 21.1441C69.1201 21.2281 69.0122 21.3416 68.9349 21.4752C68.8575 21.6089 68.8129 21.7589 68.8047 21.9131V52.6283C68.8133 52.7821 68.8583 52.9316 68.9361 53.0645C69.0138 53.1974 69.122 53.31 69.2518 53.3929L70.0618 53.8509C70.2004 53.9196 70.3531 53.9553 70.5078 53.9553C70.6626 53.9553 70.8152 53.9196 70.9539 53.8509L98.3859 38.0116C98.5149 37.9272 98.6223 37.8136 98.6992 37.68C98.7762 37.5464 98.8205 37.3966 98.8287 37.2426V6.5231C98.8205 6.36949 98.7758 6.22004 98.6985 6.08708C98.6211 5.95413 98.5132 5.84149 98.3837 5.75846L97.5716 5.30054C97.433 5.23251 97.2805 5.1975 97.1261 5.19825C96.9717 5.199 96.8196 5.23549 96.6816 5.30486Z" fill="#FAFAFA"/>
<path d="M70.5078 53.5897V22.8745C70.5162 22.7203 70.5609 22.5703 70.6382 22.4367C70.7155 22.3031 70.8233 22.1896 70.9528 22.1055L98.3848 6.26405C98.6289 6.12365 98.8276 6.23813 98.8276 6.52109V37.2385C98.8194 37.3924 98.7751 37.5423 98.6981 37.6759C98.6212 37.8095 98.5138 37.9231 98.3848 38.0074L70.9528 53.8467C70.7065 53.9871 70.5078 53.8726 70.5078 53.5897Z" fill="#37474F"/>
<path d="M70.9539 53.847C70.8148 53.9142 70.6623 53.949 70.5078 53.949C70.3534 53.949 70.2009 53.9142 70.0618 53.847L69.2518 53.3869C69.1217 53.3049 69.0132 53.1928 68.9354 53.0601C68.8576 52.9274 68.8128 52.778 68.8047 52.6244V21.9136C68.811 21.7524 68.8602 21.5958 68.9472 21.46L70.6407 22.4384C70.56 22.5686 70.5146 22.7174 70.5089 22.8704V53.59C70.5089 53.8492 70.6925 54.0004 70.9539 53.847Z" fill="#263238"/>
<path d="M98.824 6.4428C98.7894 6.2268 98.608 6.13824 98.392 6.26568L70.96 22.105C70.8286 22.1869 70.7207 22.3015 70.6468 22.4376L68.9512 21.4591C69.0239 21.3296 69.1288 21.2209 69.2557 21.1438L96.6877 5.30448C96.8257 5.23464 96.9781 5.19824 97.1327 5.19824C97.2873 5.19824 97.4397 5.23464 97.5777 5.30448L98.3876 5.7624C98.5044 5.8385 98.6036 5.93849 98.6788 6.05578C98.754 6.17307 98.8035 6.30498 98.824 6.4428Z" fill="#455A64"/>
<path d="M65.4628 40.2792C65.1842 40.1128 63.8903 39.3763 63.8234 39.3374C63.7711 39.3057 63.7265 39.2627 63.6929 39.2116C63.6593 39.1605 63.6375 39.1025 63.629 39.042C63.6205 38.9814 63.6256 38.9197 63.6439 38.8613C63.6622 38.803 63.6933 38.7494 63.7348 38.7045L68.8432 33.2246L70.5086 34.1815L65.4023 39.6614C65.3621 39.7043 65.3315 39.7552 65.3126 39.8108C65.2936 39.8665 65.2868 39.9255 65.2925 39.984C65.2982 40.0425 65.3164 40.0991 65.3458 40.15C65.3751 40.2009 65.415 40.2449 65.4628 40.2792Z" fill="#FAFAFA"/>
<path d="M65.4628 40.2792C65.1842 40.1128 63.8903 39.3763 63.8234 39.3374C63.7711 39.3057 63.7265 39.2627 63.6929 39.2116C63.6593 39.1605 63.6375 39.1025 63.629 39.042C63.6205 38.9814 63.6256 38.9197 63.6439 38.8613C63.6622 38.803 63.6933 38.7494 63.7348 38.7045L68.8432 33.2246L70.5086 34.1815L65.4023 39.6614C65.3621 39.7043 65.3315 39.7552 65.3126 39.8108C65.2936 39.8665 65.2868 39.9255 65.2925 39.984C65.2982 40.0425 65.3164 40.0991 65.3458 40.15C65.3751 40.2009 65.415 40.2449 65.4628 40.2792Z" fill="#455A64"/>
<path d="M70.5095 34.1816L65.4033 39.6616C65.3468 39.7221 65.31 39.7982 65.2976 39.88C65.2852 39.9618 65.2978 40.0454 65.3338 40.1199C65.3697 40.1944 65.4274 40.2563 65.4991 40.2975C65.5709 40.3386 65.6534 40.3572 65.7359 40.3506L70.5095 39.9575V34.1816Z" fill="#FAFAFA"/>
<path d="M70.5095 34.1816L65.4033 39.6616C65.3468 39.7221 65.31 39.7982 65.2976 39.88C65.2852 39.9618 65.2978 40.0454 65.3338 40.1199C65.3697 40.1944 65.4274 40.2563 65.4991 40.2975C65.5709 40.3386 65.6534 40.3572 65.7359 40.3506L70.5095 39.9575V34.1816Z" fill="#37474F"/>
<path d="M86.1573 31.6976C85.7664 31.4622 85.2199 31.4816 84.6151 31.8402C83.4184 32.5314 82.4551 34.2162 82.4551 35.5943C82.4551 36.2811 82.6948 36.7628 83.0836 36.9918C83.3385 37.1408 84.3105 37.6981 84.5611 37.8558C84.9542 38.0869 85.4964 38.0567 86.099 37.7089C87.2956 37.0177 88.259 35.3329 88.259 33.9548C88.259 33.2723 88.0192 32.7884 87.6326 32.5616C87.3777 32.3996 86.3992 31.8445 86.1573 31.6976Z" fill="#EBEBEB"/>
<path d="M86.8707 37.0802L82.5961 34.6113C82.503 34.9308 82.4536 35.2614 82.4492 35.5941C82.4492 36.281 82.689 36.7627 83.0778 36.9916C83.3327 37.1407 84.3047 37.698 84.5552 37.8556C84.9483 38.0868 85.4905 38.0565 86.0931 37.7088C86.3797 37.5355 86.6413 37.324 86.8707 37.0802Z" fill="#E0E0E0"/>
<path d="M86.0916 32.6939C84.895 33.3851 83.9316 35.0699 83.9316 36.448C83.9316 37.8261 84.9036 38.392 86.0916 37.6986C87.2796 37.0053 88.2516 35.3226 88.2516 33.9445C88.2516 32.5665 87.2883 32.0027 86.0916 32.6939Z" fill="#FAFAFA"/>
<path d="M86.0911 33.5792C85.6838 33.8453 85.3448 34.2036 85.1017 34.625C84.8585 35.0464 84.718 35.5191 84.6914 36.0049C84.6914 36.897 85.32 37.2598 86.0932 36.8127C86.5006 36.5466 86.8395 36.1884 87.0827 35.767C87.3258 35.3456 87.4664 34.8728 87.4929 34.387C87.4908 33.495 86.8644 33.1342 86.0911 33.5792Z" fill="#37474F"/>
<path d="M95.4721 29.7604C95.4721 29.9613 95.4721 30.1341 95.4613 30.3371L93.0141 31.7519L91.5409 30.9009C91.5409 30.7367 91.5409 30.497 91.5409 30.335C91.5409 28.6631 91.1435 27.3261 90.4609 26.3822L92.4481 23.5439L93.9234 24.395C94.9041 25.6456 95.4721 27.4622 95.4721 29.7604Z" fill="#EF233C"/>
<path d="M95.4726 29.7607C95.4726 29.9637 95.4726 30.1344 95.4618 30.3374L93.0145 31.7522C93.0145 31.588 93.0253 31.3504 93.0253 31.1863C93.0253 29.5166 92.6279 28.1774 91.9453 27.2356L93.9217 24.4082C94.9045 25.6459 95.4726 27.4646 95.4726 29.7607Z" fill="#EF233C"/>
<path opacity="0.1" d="M91.9382 27.2332L90.4629 26.3822L92.4458 23.5439L93.9211 24.3971L91.9382 27.2332Z" fill="black"/>
<path opacity="0.2" d="M93.0219 31.1837C93.0219 31.3479 93.0219 31.5855 93.0219 31.7496L91.5488 30.8986C91.5488 30.7344 91.5488 30.4947 91.5488 30.3327C91.5488 28.6608 91.1513 27.3238 90.4688 26.3799L91.944 27.2439C92.6266 28.1748 93.0219 29.514 93.0219 31.1837Z" fill="black"/>
<path d="M93.4808 23.6997L91.5066 26.525L90.0313 25.661L89.9492 25.5876C89.3177 25.4067 88.6547 25.364 88.0052 25.4623L86.5234 24.6242L87.2643 21.4684C88.6834 21.2524 89.9557 21.4684 91.0033 22.0711L92.4462 22.9005C92.511 22.9372 92.5758 22.9761 92.6384 23.0172L92.7658 23.1014C92.809 23.1295 92.8522 23.1576 92.8933 23.19C92.9343 23.2224 92.9538 23.2332 92.9818 23.2569C93.0971 23.3466 93.2075 23.4425 93.3123 23.5442C93.3771 23.596 93.429 23.6457 93.4808 23.6997Z" fill="#EF233C"/>
<path opacity="0.2" d="M91.5064 26.5251L90.0311 25.6611L89.9512 25.5898C90.5388 25.7684 91.0731 26.0897 91.5064 26.5251Z" fill="black"/>
<path opacity="0.2" d="M93.4823 23.6999L91.5059 26.5251C90.6246 25.6611 89.4107 25.2767 87.998 25.4732L88.726 22.3218C90.6419 22.0323 92.2943 22.5183 93.4823 23.6999Z" fill="white"/>
<path opacity="0.1" d="M87.2514 21.4678L88.7266 22.321L87.9987 25.4724L86.5234 24.6214L87.2514 21.4678Z" fill="black"/>
<path opacity="0.5" d="M90.9918 22.0706L92.4347 22.9001C91.3936 22.3082 90.1321 22.1009 88.726 22.319L87.2637 21.468C88.672 21.2477 89.9442 21.4637 90.9918 22.0706Z" fill="white"/>
<path d="M88.0152 22.464L87.2873 25.6111C86.5678 25.8064 85.8777 26.0969 85.2353 26.4751C84.4979 26.9075 83.8067 27.4141 83.1725 27.9871L81.6993 27.1231L80.9844 24.7925C81.8304 24.0219 82.7549 23.3421 83.7427 22.7643C84.6167 22.2474 85.558 21.8542 86.5399 21.5957L88.0152 22.464Z" fill="#EF233C"/>
<path opacity="0.05" d="M80.9844 24.8115L82.4597 25.6647L83.1725 27.9954L81.6993 27.1443L80.9844 24.8115Z" fill="black"/>
<path opacity="0.6" d="M88.0162 22.4636C87.0303 22.7193 86.0851 23.1119 85.2082 23.63C84.2214 24.2092 83.297 24.8889 82.4499 25.6582L80.9746 24.8072C81.8206 24.0365 82.7451 23.3567 83.7329 22.7789C84.6069 22.2621 85.5482 21.8688 86.5301 21.6104L88.0162 22.4636Z" fill="white"/>
<path opacity="0.4" d="M88.0145 22.4639L87.2887 25.611C86.5691 25.8056 85.8789 26.0962 85.2367 26.475C84.4991 26.9068 83.8078 27.4135 83.1739 27.987L82.459 25.6563C83.305 24.8857 84.2295 24.2059 85.2173 23.6281C86.091 23.1119 87.0325 22.72 88.0145 22.4639Z" fill="white"/>
<path d="M82.4789 28.6569C81.1363 30.0377 80.0189 31.6209 79.1676 33.3484L77.2409 32.6508L75.7656 31.7976C76.9216 29.458 78.4483 27.3209 80.2865 25.4688L81.7618 26.3328L82.4789 28.6569Z" fill="#EF233C"/>
<path opacity="0.7" d="M81.7618 26.3219C79.9226 28.1733 78.3958 30.3106 77.2409 32.6508L75.7656 31.7976C76.9216 29.458 78.4483 27.3209 80.2865 25.4688L81.7618 26.3219Z" fill="white"/>
<path opacity="0.6" d="M82.4802 28.6562C81.1376 30.0379 80.0202 31.6217 79.1689 33.3499L77.2422 32.6501C78.3971 30.3099 79.9238 28.1726 81.7631 26.3213L82.4802 28.6562Z" fill="white"/>
<path d="M78.7233 34.3048C77.9478 36.1214 77.4856 37.9077 77.4575 39.6746L74.9714 41.111L73.4961 40.247C73.5436 37.8235 74.2089 35.2185 75.3148 32.7432L77.2588 33.443L78.7233 34.3048Z" fill="#EF233C"/>
<path opacity="0.6" d="M76.7897 33.6049L75.3145 32.7539L77.2498 33.4537L78.7251 34.3048L76.7897 33.6049Z" fill="white"/>
<path opacity="0.9" d="M76.7901 33.605C75.682 36.0825 75.0189 38.6853 74.9714 41.111L73.4961 40.247C73.5436 37.8235 74.2089 35.2185 75.3148 32.7432L76.7901 33.605Z" fill="white"/>
<path opacity="0.75" d="M78.7248 34.3045C77.9472 36.1189 77.4849 37.9074 77.4547 39.6743L74.9707 41.1085C75.0182 38.685 75.6813 36.0801 76.7894 33.6025L78.7248 34.3045Z" fill="white"/>
<path d="M94.311 28.6051L93.9201 28.3848L83.2734 36.6468L83.3058 38.2279L83.6968 38.4482L94.311 28.6051Z" fill="#E0E0E0"/>
<path d="M83.6982 38.4476L83.668 36.8665L94.3124 28.6045L83.6982 38.4476Z" fill="#EBEBEB"/>
<path d="M83.2734 36.6468L83.6666 36.8671L94.311 28.6051L93.9201 28.3848L83.2734 36.6468Z" fill="white"/>
</svg>
