<svg width="116" height="116" viewBox="0 0 116 116" fill="none" xmlns="http://www.w3.org/2000/svg">
<path d="M116 88.7168H0V88.7748H116V88.7168Z" fill="#EBEBEB"/>
<path d="M104.375 92.4497H96.6914V92.5077H104.375V92.4497Z" fill="#EBEBEB"/>
<path d="M76.8442 93.0807H74.8281V93.1387H76.8442V93.0807Z" fill="#EBEBEB"/>
<path d="M96.4599 90.2968H92.0078V90.3548H96.4599V90.2968Z" fill="#EBEBEB"/>
<path d="M22.192 90.6865H12.1719V90.7445H22.192V90.6865Z" fill="#EBEBEB"/>
<path d="M25.7264 90.6865H24.2578V90.7445H25.7264V90.6865Z" fill="#EBEBEB"/>
<path d="M52.2338 91.6655H30.5V91.7235H52.2338V91.6655Z" fill="#EBEBEB"/>
<path d="M54.9826 78.3696H10.1857C9.83475 78.369 9.49839 78.2292 9.25046 77.9808C9.00253 77.7324 8.86328 77.3958 8.86328 77.0449V14.0731C8.86634 13.7242 9.00693 13.3906 9.25454 13.1447C9.50214 12.8989 9.83675 12.7606 10.1857 12.76H54.9826C55.3339 12.76 55.6709 12.8996 55.9193 13.148C56.1677 13.3964 56.3073 13.7334 56.3073 14.0847V77.0449C56.3073 77.3962 56.1677 77.7332 55.9193 77.9816C55.6709 78.23 55.3339 78.3696 54.9826 78.3696ZM10.1857 12.8064C9.85013 12.807 9.52853 12.9408 9.29147 13.1782C9.05442 13.4157 8.92128 13.7376 8.92128 14.0731V77.0449C8.92128 77.3804 9.05442 77.7023 9.29147 77.9398C9.52853 78.1773 9.85013 78.311 10.1857 78.3116H54.9826C55.3183 78.311 55.6402 78.1773 55.8776 77.9399C56.115 77.7025 56.2487 77.3807 56.2493 77.0449V14.0731C56.2487 13.7374 56.115 13.4155 55.8776 13.1781C55.6402 12.9407 55.3183 12.807 54.9826 12.8064H10.1857Z" fill="#EBEBEB"/>
<path d="M105.167 78.3696H60.3677C60.0165 78.369 59.68 78.2292 59.4317 77.9809C59.1834 77.7326 59.0436 77.396 59.043 77.0449V14.0731C59.0466 13.724 59.1877 13.3904 59.4357 13.1446C59.6837 12.8988 60.0185 12.7606 60.3677 12.76H105.167C105.515 12.7612 105.849 12.8997 106.097 13.1455C106.344 13.3913 106.484 13.7246 106.487 14.0731V77.0449C106.487 77.3954 106.348 77.7317 106.101 77.98C105.853 78.2283 105.517 78.3684 105.167 78.3696ZM60.3677 12.8064C60.0319 12.807 59.7101 12.9407 59.4727 13.1781C59.2352 13.4155 59.1016 13.7374 59.101 14.0731V77.0449C59.1016 77.3807 59.2352 77.7025 59.4727 77.9399C59.7101 78.1773 60.0319 78.311 60.3677 78.3116H105.167C105.503 78.311 105.824 78.1773 106.062 77.9399C106.299 77.7025 106.433 77.3807 106.434 77.0449V14.0731C106.433 13.7374 106.299 13.4155 106.062 13.1781C105.824 12.9407 105.503 12.807 105.167 12.8064H60.3677Z" fill="#EBEBEB"/>
<path d="M38.4323 24.077H21.9023V80.1537H38.4323V24.077Z" fill="#FAFAFA"/>
<path d="M35.9748 24.077H35.0074L29.2422 80.1537H30.2073L35.9748 24.077Z" fill="#F5F5F5"/>
<path d="M38.1413 24.295H21.7969V24.7892H38.1413V24.295Z" fill="#E0E0E0"/>
<path d="M38.1413 79.6642H21.7969V80.7221H38.1413V79.6642Z" fill="#EBEBEB"/>
<path d="M37.87 80.6733H22.4258V80.7197H37.87V80.6733Z" fill="#EBEBEB"/>
<path d="M22.4257 24.295H37.8676V80.6733H38.7933V23.6013H21.5V80.6733H22.4257V24.295Z" fill="#EBEBEB"/>
<path d="M56.8269 24.077H40.2969V80.1537H56.8269V24.077Z" fill="#FAFAFA"/>
<path d="M52.2433 24.077H46.9722L41.207 80.1537H46.4781L52.2433 24.077Z" fill="#F5F5F5"/>
<path d="M56.9998 24.295H40.1914V24.7892H56.9998V24.295Z" fill="#E0E0E0"/>
<path d="M56.9998 79.6642H40.1914V80.7221H56.9998V79.6642Z" fill="#EBEBEB"/>
<path d="M56.2646 80.6733H40.8203V80.7197H56.2646V80.6733Z" fill="#EBEBEB"/>
<path d="M40.8218 24.295H56.266V80.6733H57.1917V23.6013H39.8984V80.6733H40.8218V24.295Z" fill="#EBEBEB"/>
<path d="M74.7613 24.077H58.6953V80.1537H74.7613V24.077Z" fill="#FAFAFA"/>
<path d="M67.7991 24.077H66.8316L61.0664 80.1537H62.0315L67.7991 24.077Z" fill="#F5F5F5"/>
<path d="M74.9303 24.295H58.5859V24.7892H74.9303V24.295Z" fill="#E0E0E0"/>
<path d="M74.9303 79.6642H58.5859V80.7221H74.9303V79.6642Z" fill="#EBEBEB"/>
<path d="M74.6591 80.6733H59.2148V80.7197H74.6591V80.6733Z" fill="#EBEBEB"/>
<path d="M59.2147 24.295H74.659V80.6733H75.5823V23.6013H58.2891V80.6733H59.2147V24.295Z" fill="#EBEBEB"/>
<path d="M93.6159 24.077H77.0859V80.1537H93.6159V24.077Z" fill="#FAFAFA"/>
<path d="M92.0011 24.077H86.73L80.9648 80.1537H86.2336L92.0011 24.077Z" fill="#F5F5F5"/>
<path d="M93.3249 24.295H76.9805V24.7892H93.3249V24.295Z" fill="#E0E0E0"/>
<path d="M93.3249 79.6642H76.9805V80.7221H93.3249V79.6642Z" fill="#EBEBEB"/>
<path d="M77.6093 24.295H93.0512V80.6733H93.9769V23.6013H76.6836V80.6733H77.6093V24.295Z" fill="#EBEBEB"/>
<path d="M93.0536 80.6733H77.6094V80.7197H93.0536V80.6733Z" fill="#EBEBEB"/>
<path d="M33.3203 67.2499H26.1445V79.6596H33.3203V67.2499Z" fill="#EBEBEB"/>
<path d="M31.943 65.5168V68.628H31.377H28.0895H27.5234V65.5168H31.943Z" fill="#EBEBEB"/>
<path d="M31.9407 68.6302H32.8594V67.7115H31.9407V68.6302Z" fill="#FAFAFA"/>
<path d="M30.1633 68.6302H31.082V67.7115H30.1633V68.6302Z" fill="#FAFAFA"/>
<path d="M28.3821 68.6302H29.3008V67.7115H28.3821V68.6302Z" fill="#FAFAFA"/>
<path d="M26.6008 68.6302H27.5195V67.7115H26.6008V68.6302Z" fill="#F0F0F0"/>
<path d="M31.9407 70.2983H32.8594V69.3796H31.9407V70.2983Z" fill="#F0F0F0"/>
<path d="M30.1633 70.2983H31.082V69.3796H30.1633V70.2983Z" fill="#F0F0F0"/>
<path d="M28.3821 70.2983H29.3008V69.3796H28.3821V70.2983Z" fill="#FAFAFA"/>
<path d="M26.6008 70.2983H27.5195V69.3796H26.6008V70.2983Z" fill="#FAFAFA"/>
<path d="M31.9407 71.9664H32.8594V71.0477H31.9407V71.9664Z" fill="#F0F0F0"/>
<path d="M30.1633 71.9664H31.082V71.0477H30.1633V71.9664Z" fill="#FAFAFA"/>
<path d="M28.3821 71.9664H29.3008V71.0477H28.3821V71.9664Z" fill="#FAFAFA"/>
<path d="M30.1633 67.1849H31.082V66.2662H30.1633V67.1849Z" fill="#FAFAFA"/>
<path d="M28.3821 67.1849H29.3008V66.2662H28.3821V67.1849Z" fill="#F0F0F0"/>
<path d="M26.6008 71.9664H27.5195V71.0477H26.6008V71.9664Z" fill="#F0F0F0"/>
<path d="M31.9407 73.6368H32.8594V72.7181H31.9407V73.6368Z" fill="#FAFAFA"/>
<path d="M30.1633 73.6368H31.082V72.7181H30.1633V73.6368Z" fill="#F0F0F0"/>
<path d="M28.3821 73.6368H29.3008V72.7181H28.3821V73.6368Z" fill="#F0F0F0"/>
<path d="M26.6008 73.6368H27.5195V72.7181H26.6008V73.6368Z" fill="#FAFAFA"/>
<path d="M31.9407 75.3073H32.8594V74.3885H31.9407V75.3073Z" fill="#F0F0F0"/>
<path d="M30.1633 75.3073H31.082V74.3885H30.1633V75.3073Z" fill="#FAFAFA"/>
<path d="M28.3821 75.3073H29.3008V74.3885H28.3821V75.3073Z" fill="#FAFAFA"/>
<path d="M26.6008 75.3073H27.5195V74.3885H26.6008V75.3073Z" fill="#F0F0F0"/>
<path d="M31.9407 76.9777H32.8594V76.0589H31.9407V76.9777Z" fill="#F0F0F0"/>
<path d="M30.1633 76.9777H31.082V76.0589H30.1633V76.9777Z" fill="#FAFAFA"/>
<path d="M28.3821 76.9777H29.3008V76.0589H28.3821V76.9777Z" fill="#F0F0F0"/>
<path d="M26.6008 76.9777H27.5195V76.0589H26.6008V76.9777Z" fill="#FAFAFA"/>
<path d="M31.9407 78.6458H32.8594V77.727H31.9407V78.6458Z" fill="#FAFAFA"/>
<path d="M30.1633 78.6458H31.082V77.727H30.1633V78.6458Z" fill="#FAFAFA"/>
<path d="M28.3821 78.6458H29.3008V77.727H28.3821V78.6458Z" fill="#F0F0F0"/>
<path d="M26.6008 78.6458H27.5195V77.727H26.6008V78.6458Z" fill="#F0F0F0"/>
<path d="M73.7773 67.2499H66.6016V79.6596H73.7773V67.2499Z" fill="#EBEBEB"/>
<path d="M72.4001 65.5168V68.628H71.834H68.5465H67.9805V65.5168H72.4001Z" fill="#EBEBEB"/>
<path d="M72.4016 68.6302H73.3203V67.7115H72.4016V68.6302Z" fill="#FAFAFA"/>
<path d="M70.6203 68.6302H71.5391V67.7115H70.6203V68.6302Z" fill="#FAFAFA"/>
<path d="M68.843 68.6302H69.7617V67.7115H68.843V68.6302Z" fill="#FAFAFA"/>
<path d="M67.0618 68.6302H67.9805V67.7115H67.0618V68.6302Z" fill="#F0F0F0"/>
<path d="M72.4016 70.2983H73.3203V69.3796H72.4016V70.2983Z" fill="#F0F0F0"/>
<path d="M70.6203 70.2983H71.5391V69.3796H70.6203V70.2983Z" fill="#F0F0F0"/>
<path d="M68.843 70.2983H69.7617V69.3796H68.843V70.2983Z" fill="#FAFAFA"/>
<path d="M67.0618 70.2983H67.9805V69.3796H67.0618V70.2983Z" fill="#FAFAFA"/>
<path d="M72.4016 71.9664H73.3203V71.0477H72.4016V71.9664Z" fill="#F0F0F0"/>
<path d="M70.6203 71.9664H71.5391V71.0477H70.6203V71.9664Z" fill="#FAFAFA"/>
<path d="M68.843 71.9664H69.7617V71.0477H68.843V71.9664Z" fill="#FAFAFA"/>
<path d="M70.6203 67.1849H71.5391V66.2662H70.6203V67.1849Z" fill="#FAFAFA"/>
<path d="M68.843 67.1849H69.7617V66.2662H68.843V67.1849Z" fill="#F0F0F0"/>
<path d="M67.0618 71.9664H67.9805V71.0477H67.0618V71.9664Z" fill="#F0F0F0"/>
<path d="M72.4016 73.6368H73.3203V72.7181H72.4016V73.6368Z" fill="#FAFAFA"/>
<path d="M70.6203 73.6368H71.5391V72.7181H70.6203V73.6368Z" fill="#F0F0F0"/>
<path d="M68.843 73.6368H69.7617V72.7181H68.843V73.6368Z" fill="#F0F0F0"/>
<path d="M67.0618 73.6368H67.9805V72.7181H67.0618V73.6368Z" fill="#FAFAFA"/>
<path d="M72.4016 75.3073H73.3203V74.3885H72.4016V75.3073Z" fill="#F0F0F0"/>
<path d="M70.6203 75.3073H71.5391V74.3885H70.6203V75.3073Z" fill="#FAFAFA"/>
<path d="M68.843 75.3073H69.7617V74.3885H68.843V75.3073Z" fill="#FAFAFA"/>
<path d="M67.0618 75.3073H67.9805V74.3885H67.0618V75.3073Z" fill="#F0F0F0"/>
<path d="M72.4016 76.9777H73.3203V76.0589H72.4016V76.9777Z" fill="#F0F0F0"/>
<path d="M70.6203 76.9777H71.5391V76.0589H70.6203V76.9777Z" fill="#FAFAFA"/>
<path d="M68.843 76.9777H69.7617V76.0589H68.843V76.9777Z" fill="#F0F0F0"/>
<path d="M67.0618 76.9777H67.9805V76.0589H67.0618V76.9777Z" fill="#FAFAFA"/>
<path d="M72.4016 78.6458H73.3203V77.727H72.4016V78.6458Z" fill="#FAFAFA"/>
<path d="M70.6203 78.6458H71.5391V77.727H70.6203V78.6458Z" fill="#FAFAFA"/>
<path d="M68.843 78.6458H69.7617V77.727H68.843V78.6458Z" fill="#F0F0F0"/>
<path d="M67.0618 78.6458H67.9805V77.727H67.0618V78.6458Z" fill="#F0F0F0"/>
<path d="M85.1748 71.7715H78.7461V79.6595H85.1748V71.7715Z" fill="#F0F0F0"/>
<path d="M79.3086 72.6461H80.805H81.2156H81.6286V73.4697H81.2156H80.805H79.3086V72.6461Z" fill="#E6E6E6"/>
<path d="M79.3086 74.24H80.805H81.2156H81.6286V75.0636H81.2156H80.805H79.3086V74.24Z" fill="#FAFAFA"/>
<path d="M79.3086 75.8339H80.805H81.2156H81.6286V76.6575H81.2156H80.805H79.3086V75.8339Z" fill="#E6E6E6"/>
<path d="M79.3086 77.4301H80.805H81.4407H81.6286V78.2513H81.4407H80.805H79.3086V77.4301Z" fill="#FAFAFA"/>
<path d="M82.2969 72.6461H83.7933H84.2039H84.6169V73.4697H84.2039H83.7933H82.2969V72.6461Z" fill="#FAFAFA"/>
<path d="M82.2969 74.24H83.7933H84.3733H84.6169V75.0636H84.3733H83.7933H82.2969V74.24Z" fill="#FAFAFA"/>
<path d="M82.2969 75.8339H83.7933H84.2039H84.6169V76.6575H84.2039H83.7933H82.2969V75.8339Z" fill="#E6E6E6"/>
<path d="M82.2969 77.4301H83.7933H84.2039H84.6169V78.2513H84.2039H83.7933H82.2969V77.4301Z" fill="#FAFAFA"/>
<path d="M54.5175 74.7596H48.6758V79.6618H54.5175V74.7596Z" fill="#F0F0F0"/>
<path d="M53.3975 76.1169H54.1445V75.3699H53.3975V76.1169Z" fill="#FAFAFA"/>
<path d="M51.9483 76.1169H52.6953V75.3699H51.9483V76.1169Z" fill="#FAFAFA"/>
<path d="M50.4991 76.1169H51.2461V75.3699H50.4991V76.1169Z" fill="#FAFAFA"/>
<path d="M49.0498 76.1169H49.7969V75.3699H49.0498V76.1169Z" fill="#FAFAFA"/>
<path d="M53.3975 77.4741H54.1445V76.7271H53.3975V77.4741Z" fill="#FAFAFA"/>
<path d="M51.9483 77.4741H52.6953V76.7271H51.9483V77.4741Z" fill="#FAFAFA"/>
<path d="M50.4991 77.4741H51.2461V76.7271H50.4991V77.4741Z" fill="#FAFAFA"/>
<path d="M49.0498 77.4741H49.7969V76.7271H49.0498V77.4741Z" fill="#E6E6E6"/>
<path d="M53.3975 78.8359H54.1445V78.0889H53.3975V78.8359Z" fill="#E6E6E6"/>
<path d="M51.9483 78.8359H52.6953V78.0889H51.9483V78.8359Z" fill="#E6E6E6"/>
<path d="M50.4991 78.8359H51.2461V78.0889H50.4991V78.8359Z" fill="#FAFAFA"/>
<path d="M49.0498 78.8359H49.7969V78.0889H49.0498V78.8359Z" fill="#E6E6E6"/>
<path d="M65.9863 74.7596H60.1445V79.6618H65.9863V74.7596Z" fill="#F0F0F0"/>
<path d="M64.8662 76.1169H65.6133V75.3699H64.8662V76.1169Z" fill="#FAFAFA"/>
<path d="M63.4209 76.1169H64.168V75.3699H63.4209V76.1169Z" fill="#FAFAFA"/>
<path d="M61.9678 76.1169H62.7148V75.3699H61.9678V76.1169Z" fill="#FAFAFA"/>
<path d="M60.5186 76.1169H61.2656V75.3699H60.5186V76.1169Z" fill="#FAFAFA"/>
<path d="M64.8662 77.4741H65.6133V76.7271H64.8662V77.4741Z" fill="#FAFAFA"/>
<path d="M63.4209 77.4741H64.168V76.7271H63.4209V77.4741Z" fill="#FAFAFA"/>
<path d="M61.9678 77.4741H62.7148V76.7271H61.9678V77.4741Z" fill="#FAFAFA"/>
<path d="M60.5186 77.4741H61.2656V76.7271H60.5186V77.4741Z" fill="#E6E6E6"/>
<path d="M64.8662 78.8359H65.6133V78.0889H64.8662V78.8359Z" fill="#E6E6E6"/>
<path d="M63.4209 78.8359H64.168V78.0889H63.4209V78.8359Z" fill="#E6E6E6"/>
<path d="M61.9678 78.8359H62.7148V78.0889H61.9678V78.8359Z" fill="#FAFAFA"/>
<path d="M60.5186 78.8359H61.2656V78.0889H60.5186V78.8359Z" fill="#E6E6E6"/>
<path d="M47.8847 71.1335H42.043V79.6595H47.8847V71.1335Z" fill="#F0F0F0"/>
<path d="M47.5095 71.5071H45.3125V73.6136H47.5095V71.5071Z" fill="#FAFAFA"/>
<path d="M44.615 71.5071H42.418V73.6136H44.615V71.5071Z" fill="#FAFAFA"/>
<path d="M47.5095 74.2261H45.3125V76.3326H47.5095V74.2261Z" fill="#FAFAFA"/>
<path d="M44.615 74.2261H42.418V76.3326H44.615V74.2261Z" fill="#FAFAFA"/>
<path d="M47.5095 76.9429H45.3125V79.0494H47.5095V76.9429Z" fill="#FAFAFA"/>
<path d="M44.615 76.9429H42.418V79.0494H44.615V76.9429Z" fill="#FAFAFA"/>
<path d="M91.9941 71.1335H86.1523V79.6595H91.9941V71.1335Z" fill="#F0F0F0"/>
<path d="M91.6228 71.5071H89.4258V73.6136H91.6228V71.5071Z" fill="#FAFAFA"/>
<path d="M88.7244 71.5071H86.5273V73.6136H88.7244V71.5071Z" fill="#FAFAFA"/>
<path d="M91.6228 74.2261H89.4258V76.3326H91.6228V74.2261Z" fill="#FAFAFA"/>
<path d="M88.7244 74.2261H86.5273V76.3326H88.7244V74.2261Z" fill="#FAFAFA"/>
<path d="M91.6228 76.9429H89.4258V79.0494H91.6228V76.9429Z" fill="#FAFAFA"/>
<path d="M88.7244 76.9429H86.5273V79.0494H88.7244V76.9429Z" fill="#FAFAFA"/>
<path d="M57.9981 99.1939C82.8412 99.1939 102.981 98.0181 102.981 96.5676C102.981 95.1172 82.8412 93.9414 57.9981 93.9414C33.155 93.9414 13.0156 95.1172 13.0156 96.5676C13.0156 98.0181 33.155 99.1939 57.9981 99.1939Z" fill="#F5F5F5"/>
<path d="M45.8203 76.2677H70.4912C70.491 76.7047 70.3218 77.1246 70.0192 77.4398C69.7166 77.755 69.3038 77.941 68.8672 77.959C66.2154 78.0773 62.1392 78.4972 60.8446 79.9635C58.4318 82.6987 58.6662 92.3035 61.5546 94.5284C62.4594 95.2244 65.0995 96.6164 65.0995 96.6164H51.205C51.205 96.6164 53.6735 95.2035 54.5296 94.5284C57.4018 92.2873 57.4853 82.6964 55.0632 79.9635C53.8197 78.5715 49.9963 78.1075 47.4327 77.9729C46.9967 77.9491 46.5865 77.7591 46.2865 77.4418C45.9865 77.1246 45.8197 76.7043 45.8203 76.2677Z" fill="#EF233C"/>
<path opacity="0.3" d="M45.8203 76.2677H70.4912C70.491 76.7047 70.3218 77.1246 70.0192 77.4398C69.7166 77.755 69.3038 77.941 68.8672 77.959C66.2154 78.0773 62.1392 78.4972 60.8446 79.9635C58.4318 82.6987 58.6662 92.3035 61.5546 94.5284C62.4594 95.2244 65.0995 96.6164 65.0995 96.6164H51.205C51.205 96.6164 53.6735 95.2035 54.5296 94.5284C57.4018 92.2873 57.4853 82.6964 55.0632 79.9635C53.8197 78.5715 49.9963 78.1075 47.4327 77.9729C46.9967 77.9491 46.5865 77.7591 46.2865 77.4418C45.9865 77.1246 45.8197 76.7043 45.8203 76.2677Z" fill="white"/>
<path opacity="0.2" d="M67.4366 78.0471C64.931 78.249 61.9266 78.7431 60.8524 79.9634C60.5015 80.3843 60.2253 80.8622 60.0358 81.3763H55.8923C55.6962 80.8628 55.4163 80.3854 55.064 79.9634C53.9829 78.7501 50.9553 78.2513 48.4961 78.0471H67.4366Z" fill="black"/>
<path d="M68.1243 69.8181L66.8274 75.7016C66.8039 75.7958 66.7501 75.8795 66.6741 75.9399C66.5982 76.0003 66.5045 76.034 66.4075 76.0357H58.0253C57.9811 76.0344 57.9378 76.0229 57.8988 76.0022C57.8597 75.9814 57.826 75.952 57.8002 75.9161C57.7744 75.8801 57.7572 75.8388 57.75 75.7951C57.7427 75.7515 57.7457 75.7068 57.7585 75.6645L59.0531 69.832C59.0799 69.743 59.1364 69.6658 59.2133 69.6134C59.2901 69.5611 59.3826 69.5367 59.4753 69.5443H67.8575C68.0477 69.542 68.166 69.6279 68.1243 69.8181Z" fill="#263238"/>
<path opacity="0.6" d="M68.1243 69.8181L66.8274 75.7016C66.8039 75.7958 66.7501 75.8795 66.6741 75.9399C66.5982 76.0003 66.5045 76.034 66.4075 76.0357H58.0253C57.9811 76.0344 57.9378 76.0229 57.8988 76.0022C57.8597 75.9814 57.826 75.952 57.8002 75.9161C57.7744 75.8801 57.7572 75.8388 57.75 75.7951C57.7427 75.7515 57.7457 75.7068 57.7585 75.6645L59.0531 69.832C59.0799 69.743 59.1364 69.6658 59.2133 69.6134C59.2901 69.5611 59.3826 69.5367 59.4753 69.5443H67.8575C68.0477 69.542 68.166 69.6279 68.1243 69.8181Z" fill="white"/>
<path opacity="0.2" d="M67.8853 69.8181L66.5838 75.7016C66.5599 75.7959 66.5056 75.8798 66.4292 75.9401C66.3529 76.0005 66.2589 76.0341 66.1616 76.0357H58.0253C57.9811 76.0344 57.9378 76.0229 57.8988 76.0022C57.8597 75.9814 57.826 75.9519 57.8002 75.916C57.7744 75.8801 57.7572 75.8388 57.75 75.7951C57.7427 75.7515 57.7457 75.7068 57.7585 75.6645L59.0554 69.832C59.0813 69.7429 59.1374 69.6655 59.2139 69.6131C59.2905 69.5606 59.3829 69.5363 59.4753 69.5443H67.6162C67.8064 69.542 67.9271 69.6279 67.8853 69.8181Z" fill="black"/>
<path d="M52.4961 75.3768V76.0311C52.4961 76.1981 52.6933 76.2631 52.8603 76.2631H65.9266C66.0959 76.2631 66.2978 76.1935 66.2978 76.0311V75.3768H52.4961Z" fill="#263238"/>
<path opacity="0.6" d="M52.4961 75.3768V76.0311C52.4961 76.1981 52.6933 76.2631 52.8603 76.2631H65.9266C66.0959 76.2631 66.2978 76.1935 66.2978 76.0311V75.3768H52.4961Z" fill="white"/>
<path opacity="0.2" d="M52.4961 75.3768V76.0311C52.4961 76.1981 52.6933 76.2631 52.8603 76.2631H61.4791C61.6462 76.2631 61.8457 76.1935 61.8457 76.0311V75.3768H52.4961Z" fill="white"/>
<path d="M66.5338 74.8038H58.1562L59.2466 69.8877H67.6265L66.5338 74.8038Z" fill="#EF233C"/>
<path d="M60.8736 74.3954H60.2773L60.5047 73.4117H61.1009L60.8736 74.3954Z" fill="#EF233C"/>
<path d="M61.8384 74.3955H61.2422L61.6343 72.6973H62.2305L61.8384 74.3955Z" fill="#EF233C"/>
<path d="M62.8056 74.3954H62.207L62.5388 72.964H63.135L62.8056 74.3954Z" fill="#EF233C"/>
<path d="M63.772 74.3955H63.1758L63.6723 72.2495H64.2685L63.772 74.3955Z" fill="#EF233C"/>
<path d="M64.7408 74.3955H64.1445L64.8057 71.5349H65.402L64.7408 74.3955Z" fill="#EF233C"/>
<g opacity="0.5">
<path d="M60.8736 74.3954H60.2773L60.5047 73.4117H61.1009L60.8736 74.3954Z" fill="white"/>
</g>
<g opacity="0.5">
<path d="M61.8384 74.3955H61.2422L61.6343 72.6973H62.2305L61.8384 74.3955Z" fill="white"/>
</g>
<g opacity="0.5">
<path d="M62.8056 74.3954H62.207L62.5388 72.964H63.135L62.8056 74.3954Z" fill="white"/>
</g>
<g opacity="0.5">
<path d="M63.772 74.3955H63.1758L63.6723 72.2495H64.2685L63.772 74.3955Z" fill="white"/>
</g>
<g opacity="0.5">
<path d="M64.7408 74.3955H64.1445L64.8057 71.5349H65.402L64.7408 74.3955Z" fill="white"/>
</g>
<path d="M65.5065 74.5323H59.4258L59.4884 74.2585H65.5691L65.5065 74.5323Z" fill="white"/>
<path d="M59.9196 73.5974L59.7734 73.4721L62.0934 71.9594L62.931 72.5L66.0119 70.3679L66.165 70.4886L62.9078 72.7413L62.0633 72.1984L59.9196 73.5974Z" fill="white"/>
<path d="M66.2544 70.2983L65.8438 70.3587L66.1778 70.5976L66.2544 70.2983Z" fill="white"/>
<path d="M92.607 94.6676H65.1289V96.4726H92.607V94.6676Z" fill="#263238"/>
<path opacity="0.4" d="M92.607 94.6676H65.1289V96.4726H92.607V94.6676Z" fill="white"/>
<path opacity="0.2" d="M80.7077 94.6676H65.1289V96.4726H80.7077V94.6676Z" fill="white"/>
<path d="M73.4844 84.3992H93.7612L96.8514 68.44C96.931 68.03 96.9187 67.6076 96.8154 67.203C96.7122 66.7984 96.5206 66.4218 96.2543 66.1001C95.9881 65.7784 95.6539 65.5197 95.2758 65.3426C94.8976 65.1656 94.485 65.0745 94.0674 65.076H79.5581C78.8999 65.0733 78.2615 65.3007 77.7532 65.7188C77.2448 66.1369 76.8985 66.7195 76.7741 67.3658L73.4844 84.3992Z" fill="#EF233C"/>
<path opacity="0.6" d="M73.4844 84.3992H93.7612L96.8514 68.44C96.931 68.03 96.9187 67.6076 96.8154 67.203C96.7122 66.7984 96.5206 66.4218 96.2543 66.1001C95.9881 65.7784 95.6539 65.5197 95.2758 65.3426C94.8976 65.1656 94.485 65.0745 94.0674 65.076H79.5581C78.8999 65.0733 78.2615 65.3007 77.7532 65.7188C77.2448 66.1369 76.8985 66.7195 76.7741 67.3658L73.4844 84.3992Z" fill="white"/>
<path opacity="0.2" d="M88.0039 84.3992H93.7621L96.8524 68.4399C96.9319 68.03 96.9196 67.6076 96.8164 67.203C96.7132 66.7984 96.5215 66.4217 96.2553 66.1001C95.9891 65.7784 95.6549 65.5197 95.2768 65.3426C94.8986 65.1655 94.4859 65.0745 94.0684 65.0759C93.4103 65.0737 92.7721 65.3013 92.2638 65.7193C91.7556 66.1373 91.4092 66.7196 91.2844 67.3658L88.0039 84.3992Z" fill="black"/>
<path d="M93.1078 84.202H64.3815C63.5948 84.202 62.957 84.8398 62.957 85.6265V93.7395C62.957 94.5263 63.5948 95.164 64.3815 95.164H93.1078C93.8945 95.164 94.5322 94.5263 94.5322 93.7395V85.6265C94.5322 84.8398 93.8945 84.202 93.1078 84.202Z" fill="#EF233C"/>
<path opacity="0.6" d="M93.1078 84.202H64.3815C63.5948 84.202 62.957 84.8398 62.957 85.6265V93.7395C62.957 94.5263 63.5948 95.164 64.3815 95.164H93.1078C93.8945 95.164 94.5322 94.5263 94.5322 93.7395V85.6265C94.5322 84.8398 93.8945 84.202 93.1078 84.202Z" fill="white"/>
<path opacity="0.2" d="M93.1049 84.202H80.8112C80.0245 84.202 79.3867 84.8398 79.3867 85.6265V93.7395C79.3867 94.5263 80.0245 95.164 80.8112 95.164H93.1049C93.8916 95.164 94.5294 94.5263 94.5294 93.7395V85.6265C94.5294 84.8398 93.8916 84.202 93.1049 84.202Z" fill="black"/>
<path d="M69.4628 66.1061L67.5117 65.5887L68.2309 63.9647C68.2309 63.9647 69.6531 64.1341 69.95 65.2778L69.4628 66.1061Z" fill="#E4897B"/>
<path d="M66.4414 64.6097L67.2673 63.5309L68.2208 63.9694L67.5016 65.5887L66.4414 64.6097Z" fill="#E4897B"/>
<path d="M77.2196 65.424C77.2196 65.424 75.6443 66.4494 73.3661 68.1755L69.9093 64.8997L69.1367 66.0295C69.1367 66.0295 72.2084 70.4166 73.0343 70.5651C73.8602 70.7136 77.853 67.9273 77.853 67.9273L77.2196 65.424Z" fill="#263238"/>
<path opacity="0.4" d="M77.8412 67.9273C77.8412 67.9273 76.9666 68.5374 75.9528 69.1708C74.7928 69.8923 73.4611 70.6463 73.0226 70.5628C72.1967 70.4143 69.125 66.0272 69.125 66.0272L69.9092 64.9043L73.366 68.1801C75.6442 66.4541 77.2195 65.4286 77.2195 65.4286L77.6301 67.0758L77.8412 67.9273Z" fill="white"/>
<path opacity="0.2" d="M77.8416 67.9272C77.8416 67.9272 76.967 68.5374 75.9531 69.1708C76.3779 68.3768 76.9467 67.6687 77.6305 67.0828L77.8416 67.9272Z" fill="black"/>
<path d="M70.084 81.4622C70.026 81.6826 70.6733 85.6126 71.2556 89.0416C71.7196 91.7513 72.1372 94.1456 72.1372 94.1456L70.9006 94.2593C70.9006 94.2593 69.9541 92.3778 68.8869 89.8814C68.0954 88.0579 67.3984 86.1948 66.7989 84.2995C66.0402 81.8426 65.6389 79.5899 66.1887 78.4438C66.2921 78.2123 66.4585 78.0146 66.6689 77.8731C66.6766 77.8665 66.6852 77.861 66.6945 77.8569L66.7803 77.8012C67.5923 77.3372 68.8915 77.075 70.3786 76.9521C73.0536 76.734 76.3341 76.9521 78.4615 77.1539C79.7909 77.2792 80.6678 77.3975 80.6678 77.3975L82.4055 83.8703C81.8301 83.8502 81.2671 83.8154 80.7165 83.7659C74.5337 83.23 70.1768 81.1026 70.084 81.4622Z" fill="#E4897B"/>
<path opacity="0.2" d="M71.2536 89.0416C70.4857 89.3799 69.694 89.6613 68.8849 89.8838C68.0934 88.0602 67.3965 86.1971 66.7969 84.3018C67.3003 83.3738 69.4997 80.3416 72.4089 79.2698C71.8595 78.393 71.1734 77.6098 70.3766 76.9498C73.0516 76.7317 76.3321 76.9498 78.4595 77.1516L80.7146 83.7636C74.541 83.2254 70.1841 81.0979 70.0913 81.4575C70.024 81.6826 70.6713 85.608 71.2536 89.0416Z" fill="black"/>
<path d="M77.551 78.8173C77.551 78.8173 77.7088 76.6504 77.783 76.2096C77.8442 75.7719 77.9341 75.3387 78.0521 74.9127C78.5324 73.4674 84.968 75.1656 84.968 75.1656C84.968 75.1656 88.7752 80.8983 86.1141 83.6035C85.5248 84.202 84.3695 84.4711 83.1863 84.4619C83.1863 84.4619 79.5787 84.6382 72.8692 84.325C72.8692 84.325 69.8788 88.5543 61.6892 94.1479L60.1719 93.9391C60.1719 93.9391 70.2384 81.3972 70.5446 81.1489C73.2196 78.9867 77.551 78.8173 77.551 78.8173Z" fill="#E4897B"/>
<path d="M61.684 96.3866H61.3522L61.2594 95.976L60.1597 96.4725H57.3757C57.3757 96.4725 56.9326 96.027 58.2597 95.6721C58.3246 95.6545 58.3875 95.6304 58.4476 95.6001C59.1552 95.2684 60.1621 94.1478 60.1621 94.1478H61.6909C61.7375 94.2185 61.7793 94.2921 61.8162 94.3682C61.9809 94.7046 62.2709 95.4099 61.684 96.3866Z" fill="#263238"/>
<path d="M61.814 94.3683C61.6121 94.1363 60.6934 95.1316 60.0206 95.468C59.4197 95.7673 58.7446 95.8995 58.4453 95.5956C59.1529 95.2638 60.2665 93.8138 60.2665 93.8138H61.4961C61.4961 93.8138 61.742 94.2245 61.814 94.3683Z" fill="#E4897B"/>
<path d="M72.1293 96.3866H71.7975L71.7047 95.976L70.605 96.4725H67.821C67.821 96.4725 67.3779 96.027 68.705 95.6721C68.7699 95.6545 68.8328 95.6304 68.8929 95.6001C69.6005 95.2684 70.6074 94.1478 70.6074 94.1478H72.1362C72.1828 94.2185 72.2246 94.2921 72.2615 94.3682C72.4263 94.7046 72.7162 95.4099 72.1293 96.3866Z" fill="#263238"/>
<path d="M72.2593 94.3683C72.0574 94.1363 71.1387 95.1316 70.4659 95.468C69.865 95.7673 69.1899 95.8995 68.8906 95.5956C69.5982 95.2638 70.7118 93.8138 70.7118 93.8138H71.9414C71.9414 93.8138 72.1873 94.2245 72.2593 94.3683Z" fill="#E4897B"/>
<path d="M70.0391 76.9753C70.0391 76.9753 74.7626 78.9032 75.8994 80.432C77.0362 81.9609 76.3332 84.1093 75.4771 84.4271C75.4771 84.4271 76.8413 84.6243 81.4047 84.6243C85.9682 84.6243 87.2535 83.6151 87.2233 81.1675C87.1931 78.7199 84.9659 75.168 84.9659 75.168L77.825 75.2051L77.129 76.8662C77.129 76.8662 73.4843 76.4254 70.0391 76.9753Z" fill="#263238"/>
<path d="M85.5358 66.925C84.9024 68.8344 84.8723 73.1426 85.0973 75.523L77.9053 75.4766C77.0892 72.4844 76.8467 69.3648 77.1908 66.2824C77.2157 65.9441 77.3328 65.6192 77.5295 65.3428C77.5295 65.3428 78.998 64.735 80.2764 64.7442C81.2661 64.7793 82.2521 64.8832 83.2274 65.0551C83.9521 65.1757 84.6694 65.3376 85.3757 65.54C85.4503 65.5611 85.5198 65.5971 85.58 65.6459C85.6402 65.6947 85.6898 65.7552 85.7258 65.8238C85.7618 65.8924 85.7835 65.9676 85.7895 66.0449C85.7956 66.1221 85.7858 66.1998 85.7608 66.2731C85.6773 66.4982 85.6077 66.7139 85.5358 66.925Z" fill="#EF233C"/>
<path opacity="0.1" d="M77.8991 75.4765L82.2398 75.5066L85.098 75.5229C84.9109 73.3056 84.9303 71.0758 85.156 68.8621C85.2197 68.2064 85.3471 67.5583 85.5365 66.9273C85.6061 66.7161 85.678 66.4957 85.7546 66.273C85.7797 66.2001 85.7897 66.1229 85.7842 66.046C85.7786 65.9691 85.7575 65.8942 85.7222 65.8257C85.6868 65.7571 85.638 65.6965 85.5785 65.6474C85.5191 65.5983 85.4504 65.5617 85.3764 65.5399C84.6701 65.3375 83.9529 65.1756 83.2281 65.055C82.2515 64.8817 81.2638 64.7779 80.2724 64.7441C78.9941 64.7441 77.5256 65.3427 77.5256 65.3427C77.3657 65.6369 77.2515 65.9537 77.1868 66.2823C77.05 67.3936 76.6602 70.7274 77.8991 75.4765Z" fill="white"/>
<path d="M78.0467 75.4162L77.1187 76.8639C77.1187 76.8639 77.2858 75.5067 77.2835 74.5903C77.2811 73.6739 76.3253 70.3447 77.2394 65.4147C77.7468 65.1985 78.2704 65.0224 78.8054 64.8881C78.9769 64.849 79.1516 64.8257 79.3274 64.8185C79.3274 64.8185 78.2323 67.512 78.0096 71.688C77.9438 72.9303 77.9562 74.1755 78.0467 75.4162Z" fill="#263238"/>
<path opacity="0.4" d="M78.0467 75.4162L77.1187 76.8639C77.1187 76.8639 77.2858 75.5067 77.2835 74.5903C77.2811 73.6739 76.3253 70.3447 77.2394 65.4147C77.7469 65.1988 78.2705 65.0228 78.8054 64.8881C78.9765 64.8467 79.1514 64.8234 79.3274 64.8185C79.3274 64.8185 78.2323 67.512 78.0096 71.688C77.9438 72.9303 77.9562 74.1755 78.0467 75.4162Z" fill="white"/>
<path d="M85.5737 73.8548C85.8057 76.0263 86.2163 77.1028 86.2163 77.1028C85.5216 76.903 84.8809 76.5488 84.3422 76.0668C83.8035 75.5847 83.3806 74.9872 83.1052 74.3188C82.9324 73.8331 82.843 73.3217 82.8407 72.8062C82.7177 69.8644 83.9427 65.0458 83.9427 65.0458L84.1863 65.1107C85.8289 65.5585 86.2859 66.0387 86.2859 66.0387C86.2859 66.0387 85.3277 71.6879 85.5737 73.8548Z" fill="#263238"/>
<path opacity="0.4" d="M85.8799 75.8106C85.9623 76.2493 86.0746 76.6818 86.2163 77.1051C85.5216 76.9053 84.8809 76.5512 84.3422 76.0691C83.8035 75.587 83.3806 74.9895 83.1052 74.3211C83.0253 74.1198 82.967 73.9106 82.9312 73.6971C82.8801 73.4034 82.8499 73.1064 82.8407 72.8085C82.7177 69.8667 83.9427 65.0481 83.9427 65.0481L84.1863 65.1131C85.8289 65.5608 86.2859 66.0411 86.2859 66.0411C86.2859 66.0411 86.0539 67.389 85.8521 69.0199C85.6363 70.7205 85.4484 72.7319 85.5737 73.8409C85.6641 74.6552 85.7755 75.3048 85.8799 75.8106Z" fill="white"/>
<path opacity="0.2" d="M83.829 67.7439L84.3255 68.7531C84.3255 68.7531 83.3233 71.2889 82.8407 72.8224C82.7177 69.8807 83.9427 65.062 83.9427 65.062L84.1863 65.127C84.3997 65.6559 84.7408 66.7672 84.8243 68.5838L83.829 67.7439Z" fill="white"/>
<path opacity="0.2" d="M79.3291 64.8185C79.3291 64.8185 78.234 67.512 78.0113 71.688C77.4012 70.296 77.6401 66.9088 77.6401 66.9088L78.0763 66.3265L77.2852 66.584C77.6772 65.656 78.3292 65.2291 78.8071 64.8974C78.9832 64.8881 79.1581 64.8617 79.3291 64.8185Z" fill="white"/>
<path opacity="0.2" d="M85.8784 75.8106C85.4874 76.0216 85.0773 76.1948 84.6535 76.328C83.9629 75.8175 83.4266 75.1263 83.1037 74.3305C83.0238 74.1292 82.9655 73.92 82.9297 73.7064L83.577 72.9941C83.577 72.9941 83.7185 70.7275 84.5583 69.1708C84.8391 68.6511 85.3355 68.6511 85.8506 69.0339C85.6348 70.7345 85.4469 72.7459 85.5722 73.8549C85.6627 74.6553 85.774 75.3049 85.8784 75.8106Z" fill="black"/>
<path d="M81.8675 64.4055C81.8675 64.4055 83.053 64.431 83.5727 65.0551C84.0367 65.6189 83.7189 66.5562 83.7189 66.5562L82.0949 66.7394L79.9581 68.7462L79.6589 66.8392L78.6172 66.5562C78.6172 66.5562 79.1322 64.4055 81.8675 64.4055Z" fill="#EF233C"/>
<g opacity="0.4">
<path d="M81.8675 64.4055C81.8675 64.4055 83.053 64.431 83.5727 65.0551C84.0367 65.6189 83.7189 66.5562 83.7189 66.5562L82.0949 66.7394L79.9581 68.7462L79.6589 66.8392L78.6172 66.5562C78.6172 66.5562 79.1322 64.4055 81.8675 64.4055Z" fill="white"/>
</g>
<path d="M83.1513 65.2963C82.0403 66.1632 81.0183 67.1386 80.1005 68.2079C80.1005 68.2079 79.3326 65.4703 80.5831 65.0249C80.5831 65.0249 80.9334 64.9158 81.0076 64.359C81.045 63.9661 80.9943 63.5699 80.8591 63.199C80.8406 63.1387 80.8197 63.0738 80.7988 63.0111L82.8451 61.7305C82.8451 61.7305 82.1282 64.3266 83.1513 65.2963Z" fill="#E4897B"/>
<path opacity="0.2" d="M82.3836 62.4752C82.3836 62.4752 82.2746 63.9391 81.0079 64.3614C81.0452 63.9685 80.9945 63.5722 80.8594 63.2014C81.6064 62.807 82.3836 62.4752 82.3836 62.4752Z" fill="black"/>
<path d="M83.8272 58.6357C84.1618 58.3518 84.5683 58.1659 85.0018 58.0984C85.4353 58.0308 85.879 58.0843 86.2841 58.2529C87.7132 58.8329 87.2539 61.538 86.0312 62.6794C84.8086 63.8209 85.783 63.9693 85.783 63.9693C85.783 63.9693 84.7854 64.1062 85.1937 62.6493C85.602 61.1923 85.6995 59.8653 84.3515 60.0114C83.0036 60.1576 83.8272 58.6357 83.8272 58.6357Z" fill="#263238"/>
<path d="M83.491 57.2112C83.491 57.2112 81.0457 55.8192 79.4844 56.9258C77.923 58.0324 78.5053 61.118 79.4844 61.9184C80.4634 62.7188 83.027 62.5124 83.027 62.5124C83.027 62.5124 84.419 62.2804 84.8227 60.2411C85.1591 58.5753 84.3169 57.3341 83.491 57.2112Z" fill="#263238"/>
<path d="M81.8457 57.58C80.1567 57.4199 79.5257 58.276 79.2403 60.0044C78.883 62.1643 79.2194 63.7559 81.3747 63.4844C84.3025 63.1271 84.6505 57.8422 81.8457 57.58Z" fill="#E4897B"/>
<path d="M80.3404 60.0114C80.1812 60.2513 79.9935 60.471 79.7812 60.6656C79.8242 60.7403 79.8871 60.8016 79.9629 60.8426C80.0387 60.8835 80.1244 60.9026 80.2104 60.8976L80.3404 60.0114Z" fill="#DE5753"/>
<path d="M81.3893 59.9696C81.373 60.1088 81.4357 60.2295 81.5262 60.2411C81.6166 60.2527 81.7071 60.1483 81.7234 60.0091C81.7396 59.8699 81.677 59.7492 81.5865 59.74C81.496 59.7307 81.4055 59.8328 81.3893 59.9696Z" fill="#263238"/>
<path d="M81.6236 59.7515L81.3359 59.5961C81.3359 59.5961 81.4566 59.8675 81.6236 59.7515Z" fill="#263238"/>
<path d="M79.6705 59.7399C79.6543 59.8791 79.7169 59.9998 79.8097 60.0091C79.9025 60.0183 79.9884 59.9163 80.0069 59.7771C80.0255 59.6379 79.9605 59.5172 79.8677 59.5056C79.7749 59.494 79.6868 59.6007 79.6705 59.7399Z" fill="#263238"/>
<path d="M79.9026 59.5196L79.6172 59.3665C79.6172 59.3665 79.7355 59.6379 79.9026 59.5196Z" fill="#263238"/>
<path d="M82.2248 59.2018C82.2129 59.2018 82.2011 59.1988 82.1906 59.1932C82.18 59.1875 82.1711 59.1793 82.1645 59.1693C82.0853 59.0753 81.986 59.0003 81.874 58.9498C81.762 58.8992 81.6401 58.8743 81.5172 58.877C81.4982 58.877 81.4799 58.8694 81.4664 58.8559C81.4529 58.8424 81.4453 58.8241 81.4453 58.805C81.4453 58.786 81.4529 58.7677 81.4664 58.7542C81.4799 58.7407 81.4982 58.7331 81.5172 58.7331C81.6649 58.7286 81.8116 58.7585 81.9457 58.8205C82.0798 58.8825 82.1976 58.9749 82.2898 59.0904C82.2997 59.1065 82.3031 59.1259 82.2992 59.1444C82.2953 59.163 82.2845 59.1793 82.2689 59.1902C82.2557 59.1983 82.2404 59.2023 82.2248 59.2018Z" fill="#263238"/>
<path d="M79.6067 58.7678C79.5936 58.7681 79.5806 58.7645 79.5695 58.7575C79.5584 58.7505 79.5495 58.7404 79.5441 58.7284C79.5349 58.7118 79.5327 58.6922 79.5379 58.6739C79.5431 58.6557 79.5554 58.6402 79.5719 58.6309C79.6831 58.5618 79.8087 58.519 79.9389 58.5058C80.0692 58.4925 80.2007 58.5091 80.3236 58.5544C80.333 58.5577 80.3416 58.563 80.3489 58.5699C80.3561 58.5768 80.3619 58.5851 80.3657 58.5943C80.3696 58.6036 80.3715 58.6135 80.3713 58.6235C80.3711 58.6335 80.3688 58.6433 80.3646 58.6524C80.3604 58.6615 80.3544 58.6696 80.3468 58.6761C80.3393 58.6827 80.3305 58.6877 80.321 58.6907C80.3115 58.6937 80.3014 58.6947 80.2915 58.6936C80.2815 58.6925 80.2719 58.6893 80.2633 58.6843C80.1607 58.6493 80.0516 58.6379 79.944 58.6507C79.8363 58.6636 79.733 58.7004 79.6415 58.7585C79.6306 58.7638 79.6188 58.7669 79.6067 58.7678Z" fill="#263238"/>
<path d="M83.4263 60.5984C83.4263 60.5984 82.7651 59.1368 82.9855 58.0765C82.9855 58.0765 79.7653 56.3969 79.2735 59.7794C79.2735 59.7794 79.2294 56.7309 82.1387 56.9351C85.048 57.1393 84.6396 61.3872 83.0203 62.5031C83.0296 62.5124 83.8323 61.5125 83.4263 60.5984Z" fill="#263238"/>
<path d="M83.1134 60.9302C83.1299 60.8327 83.1656 60.7395 83.2184 60.656C83.2712 60.5724 83.34 60.5002 83.421 60.4434C83.5019 60.3867 83.5933 60.3465 83.6898 60.3253C83.7863 60.3042 83.8861 60.3023 83.9834 60.32C84.5007 60.4267 84.6492 61.5241 83.3222 61.661C83.125 61.6888 83.0368 61.4962 83.1134 60.9302Z" fill="#E4897B"/>
<path d="M79.9492 61.5518C80.025 61.7396 80.087 61.9327 80.1348 62.1295H80.2415C80.7241 62.0878 80.9375 61.9091 81.0211 61.7235C81.0618 61.6325 81.0801 61.5331 81.0744 61.4335C81.0724 61.3767 81.0623 61.3204 81.0443 61.2665C80.7584 61.4243 80.4419 61.5185 80.1163 61.5426C80.0142 61.5472 79.9492 61.5518 79.9492 61.5518Z" fill="#263238"/>
<path d="M80.1133 61.5333L80.1736 61.7026C80.6376 61.6632 80.9415 61.5727 81.0738 61.4242C81.0718 61.3674 81.0616 61.3112 81.0436 61.2572C80.7571 61.4154 80.4397 61.5096 80.1133 61.5333Z" fill="white"/>
<path d="M80.2422 62.1202C80.7247 62.0785 80.9382 61.8998 81.0217 61.7142C80.8386 61.7345 80.6604 61.7863 80.4951 61.8674C80.3871 61.924 80.2989 62.0122 80.2422 62.1202Z" fill="#DE5753"/>
<path d="M79.7888 77.3093L77.7773 77.5715L78.2854 79.2697C78.2854 79.2697 79.7169 79.286 80.1553 78.1886L79.7888 77.3093Z" fill="#E4897B"/>
<path d="M76.5977 78.4091L77.2797 79.5853L78.282 79.2721L77.7739 77.5715L76.5977 78.4091Z" fill="#E4897B"/>
<path d="M85.9526 65.888C84.1871 65.4078 84.3542 70.7739 83.9458 73.2146L79.1133 77.1052L80.3081 78.4462C80.3081 78.4462 86.1498 75.4534 86.5164 74.1913C86.8528 73.0011 87.9293 66.4216 85.9526 65.888Z" fill="#263238"/>
<path opacity="0.4" d="M85.9526 65.888C84.1871 65.4078 84.3542 70.7739 83.9458 73.2146L79.1133 77.1052L80.3081 78.4462C80.3081 78.4462 86.1498 75.4534 86.5164 74.1913C86.8528 73.0011 87.9293 66.4216 85.9526 65.888Z" fill="white"/>
<path d="M82.2969 87.5452H88.3358L87.6259 90.3988L83.1042 89.3362L82.2969 87.5452Z" fill="#263238"/>
<path d="M82.6445 88.3873V86.246L88.4585 86.3991V87.1322H89.0732L88.7229 90.3988L82.6445 88.3873Z" fill="#EF233C"/>
<path opacity="0.2" d="M88.4585 87.1322H83.257L83.1039 88.3224L82.6445 88.3873V86.246L88.4585 86.3991V87.1322Z" fill="black"/>
<path d="M83.1042 96.4725L82.2969 87.5452L82.9302 88.0509H89.0736L89.6814 95.2499L90.0016 96.4725H83.1042Z" fill="#263238"/>
<path opacity="0.2" d="M83.1042 96.4725L82.2969 87.5452L82.9302 88.0509H89.0736L89.6814 95.2499L90.0016 96.4725H83.1042Z" fill="white"/>
<path d="M86.59 90.2479C85.1238 90.2479 84.7526 88.3594 84.7479 88.3409C84.7425 88.3107 84.7492 88.2797 84.7666 88.2545C84.784 88.2293 84.8106 88.2119 84.8407 88.2063C84.8555 88.2029 84.8709 88.2026 84.8858 88.2054C84.9007 88.2082 84.9149 88.214 84.9275 88.2225C84.9402 88.231 84.9509 88.2419 84.9591 88.2547C84.9673 88.2675 84.9728 88.2818 84.9753 88.2968C84.9892 88.3733 85.3442 90.1528 86.7478 90.0089C86.9149 90.0032 87.0788 89.961 87.2279 89.8853C87.377 89.8095 87.5077 89.7021 87.6108 89.5705C87.9658 89.0833 87.8103 88.3525 87.808 88.3432C87.8018 88.3134 87.8075 88.2823 87.824 88.2567C87.8405 88.2311 87.8664 88.213 87.8962 88.2063C87.9111 88.2029 87.9266 88.2024 87.9417 88.205C87.9568 88.2076 87.9712 88.2132 87.9841 88.2214C87.9971 88.2296 88.0083 88.2402 88.0171 88.2528C88.0259 88.2653 88.0321 88.2795 88.0354 88.2945C88.0354 88.3269 88.214 89.132 87.8034 89.705C87.6817 89.8669 87.5255 89.9996 87.3462 90.0936C87.1668 90.1875 86.9687 90.2402 86.7663 90.2479C86.7076 90.2511 86.6487 90.2511 86.59 90.2479Z" fill="white"/>
<path opacity="0.2" d="M82.9302 88.0509L83.4406 95.9482L83.6541 96.4725H83.1042L82.2969 87.5452L82.9302 88.0509Z" fill="black"/>
<path d="M23.1508 96.4725H50.6289V94.6676H23.1508V96.4725Z" fill="#263238"/>
<path opacity="0.4" d="M23.1508 96.4725H50.6289V94.6676H23.1508V96.4725Z" fill="white"/>
<path opacity="0.2" d="M35.0462 96.4725H50.625V94.6676H35.0462V96.4725Z" fill="white"/>
<path d="M42.2722 84.3993H21.993L18.9028 68.4401C18.8237 68.0302 18.8363 67.6079 18.9397 67.2035C19.0431 66.7991 19.2348 66.4226 19.5009 66.101C19.767 65.7795 20.1011 65.5208 20.479 65.3436C20.8569 65.1664 21.2694 65.075 21.6868 65.0761H36.1938C36.8517 65.0743 37.4897 65.302 37.9979 65.7199C38.506 66.1379 38.8525 66.72 38.9778 67.3659L42.2722 84.3993Z" fill="#EF233C"/>
<path opacity="0.6" d="M42.2722 84.3993H21.993L18.9028 68.4401C18.8237 68.0302 18.8363 67.6079 18.9397 67.2035C19.0431 66.7991 19.2348 66.4226 19.5009 66.101C19.767 65.7795 20.1011 65.5208 20.479 65.3436C20.8569 65.1664 21.2694 65.075 21.6868 65.0761H36.1938C36.8517 65.0743 37.4897 65.302 37.9979 65.7199C38.506 66.1379 38.8525 66.72 38.9778 67.3659L42.2722 84.3993Z" fill="white"/>
<path opacity="0.2" d="M27.7536 84.3993H21.993L18.9028 68.4401C18.8237 68.0302 18.8363 67.6079 18.9397 67.2035C19.0431 66.7991 19.2348 66.4226 19.5009 66.101C19.767 65.7795 20.1011 65.5208 20.479 65.3436C20.8569 65.1664 21.2694 65.075 21.6868 65.0761C22.3448 65.0743 22.9828 65.302 23.4909 65.7199C23.9991 66.1379 24.3456 66.72 24.4708 67.3659L27.7536 84.3993Z" fill="black"/>
<path d="M51.3773 84.2021H22.651C21.8643 84.2021 21.2266 84.8399 21.2266 85.6266V93.7397C21.2266 94.5264 21.8643 95.1641 22.651 95.1641H51.3773C52.164 95.1641 52.8018 94.5264 52.8018 93.7397V85.6266C52.8018 84.8399 52.164 84.2021 51.3773 84.2021Z" fill="#EF233C"/>
<path opacity="0.6" d="M51.3773 84.2021H22.651C21.8643 84.2021 21.2266 84.8399 21.2266 85.6266V93.7397C21.2266 94.5264 21.8643 95.1641 22.651 95.1641H51.3773C52.164 95.1641 52.8018 94.5264 52.8018 93.7397V85.6266C52.8018 84.8399 52.164 84.2021 51.3773 84.2021Z" fill="white"/>
<path opacity="0.2" d="M34.9447 84.2021H22.651C21.8643 84.2021 21.2266 84.8399 21.2266 85.6266V93.7397C21.2266 94.5264 21.8643 95.1641 22.651 95.1641H34.9447C35.7314 95.1641 36.3692 94.5264 36.3692 93.7397V85.6266C36.3692 84.8399 35.7314 84.2021 34.9447 84.2021Z" fill="black"/>
<path d="M41.434 67.5561C40.7151 67.5165 40.0127 67.3253 39.3729 66.9951C38.7332 66.6648 38.1706 66.2029 37.722 65.6397C35.9982 63.4265 36.5782 61.7607 36.5782 61.7607H36.5945C36.9478 61.6786 37.3116 61.6512 37.6733 61.6795C39.5525 61.7862 41.8261 62.9346 41.8261 62.9346C42.2553 63.6213 42.3875 66.1037 41.434 67.5561Z" fill="#EF233C"/>
<path opacity="0.5" d="M41.434 67.5561C40.7151 67.5165 40.0127 67.3253 39.3729 66.9951C38.7332 66.6648 38.1706 66.2029 37.722 65.6397C35.9982 63.4265 36.5782 61.7607 36.5782 61.7607H36.5945C36.9478 61.6786 37.3116 61.6512 37.6733 61.6795C39.5525 61.7862 41.8261 62.9346 41.8261 62.9346C42.2553 63.6213 42.3875 66.1037 41.434 67.5561Z" fill="white"/>
<path d="M50.9961 91.7351L53.9402 91.9509L53.8497 95.4309L51.3905 95.2569L50.9961 91.7351Z" fill="#B55B52"/>
<path opacity="0.2" d="M51 91.7374L53.9441 91.9509L53.893 93.902L51.2181 93.7094L51 91.7374Z" fill="black"/>
<path d="M51.043 96.4726H51.6856L51.8573 96.2127L52.196 96.4749H56.0658C56.0906 96.1701 56.0337 95.8642 55.901 95.5886C55.901 95.5886 54.741 95.4843 54.2956 94.9089C54.2795 94.8867 54.2575 94.8695 54.232 94.8592C54.2066 94.849 54.1788 94.8461 54.1518 94.8509C53.7666 94.9321 52.2354 95.2244 51.3933 94.9228C51.3723 94.9145 51.3497 94.9115 51.3273 94.9139C51.3049 94.9163 51.2834 94.9242 51.2647 94.9367C51.246 94.9493 51.2306 94.9662 51.2199 94.986C51.2091 95.0058 51.2034 95.0279 51.203 95.0504C51.1858 95.5278 51.1323 96.0033 51.043 96.4726Z" fill="#263238"/>
<path d="M34.8672 76.6829C34.8672 76.6829 30.4848 84.8563 35.6839 84.8563C42.2263 84.8563 48.4439 83.2091 48.4439 83.2091C48.4439 83.2091 48.0866 86.6891 50.6154 93.3173L54.1488 93.2872C54.1488 93.2872 55.5245 79.0702 52.889 76.6829C50.7662 74.762 43.2285 75.3791 43.2285 75.3791L34.8672 76.6829Z" fill="#263238"/>
<path opacity="0.4" d="M54.1578 93.2873L50.6244 93.3151C50.0107 91.7256 49.5 90.0983 49.0955 88.4431C48.2719 84.9979 48.4529 83.2115 48.4529 83.2115C48.4529 83.2115 42.2237 84.8587 35.6813 84.8587C32.5191 84.8587 32.8973 81.8427 33.6884 79.467C34.0096 78.5103 34.4036 77.5796 34.867 76.683L39.9478 75.8919L43.2375 75.3792C43.2375 75.3792 44.5924 75.2678 46.3162 75.2864C48.657 75.3119 51.6754 75.5764 52.898 76.6784C55.5358 79.0703 54.1578 93.2873 54.1578 93.2873Z" fill="white"/>
<path opacity="0.2" d="M49.2301 87.9281C49.186 88.0997 49.1419 88.2691 49.0955 88.4338C48.2719 84.9886 48.4529 83.2022 48.4529 83.2022C48.4529 83.2022 42.2237 84.8494 35.6813 84.8494C32.5191 84.8494 32.8973 81.8334 33.6884 79.4577C35.9179 78.0425 38.2704 76.7596 39.9524 75.8849L43.2422 75.3722C43.2422 75.3722 44.597 75.2609 46.3208 75.2794C48.8658 76.4255 51.3158 79.5621 49.2301 87.9281Z" fill="black"/>
<path d="M39.0905 60.2016L38.6984 61.3802C37.8748 62.394 36.7566 61.1088 36.7566 61.1088L35.5966 60.5496C35.4622 60.4697 35.3605 60.3447 35.3096 60.1969C35.2586 60.0491 35.2616 59.8881 35.3182 59.7423L35.585 58.9164C35.6315 58.7441 35.7425 58.5963 35.8949 58.5034C36.0473 58.4106 36.2295 58.3799 36.4039 58.4176L37.5013 58.812C37.7185 58.878 37.9156 58.9977 38.0743 59.16L39.0905 60.2016Z" fill="#B55B52"/>
<path d="M43.0413 75.4928C39.2389 77.5947 29.5645 76.0705 27.8337 75.7759C27.618 72.913 27.328 69.2799 26.4162 65.8927C26.3159 65.5292 26.2909 65.1491 26.3427 64.7756C26.3945 64.4022 26.5221 64.0432 26.7176 63.7209C26.9131 63.3985 27.1725 63.1194 27.4797 62.9009C27.7869 62.6823 28.1355 62.5288 28.5042 62.4498C31.1884 61.9237 33.9224 61.6949 36.6567 61.7677C37.6172 61.8025 38.6496 62.2688 38.9581 63.1806C40.3826 67.3798 42.6284 70.7925 43.0413 75.4928Z" fill="#EF233C"/>
<path d="M40.5537 62.3014C40.6419 62.2851 40.7857 62.2689 40.8924 62.2549C40.9992 62.241 41.1244 62.2317 41.2567 62.2201C41.4887 62.2016 41.7439 62.1761 41.9875 62.1668L42.3517 62.1413L42.709 62.125L43.405 62.0856L42.6116 62.5009C42.501 62.6049 42.4106 62.7284 42.3448 62.8651C42.2156 63.1209 42.1625 63.4083 42.1916 63.6933C42.203 63.812 42.2311 63.9283 42.2752 64.039C42.2886 64.0781 42.3049 64.1161 42.3239 64.1527L42.3703 64.2362L42.3958 64.271L42.412 64.2919L42.4468 64.3313C42.4582 64.3433 42.4706 64.3542 42.484 64.3638C42.5141 64.3754 42.484 64.3174 42.4074 64.2571C42.3247 64.1811 42.2371 64.1106 42.1452 64.046C41.6495 63.71 41.1317 63.4077 40.5955 63.1412C40.0271 62.8442 39.4355 62.5589 38.83 62.2712C38.2244 61.9835 37.612 61.7005 37.018 61.4081L36.9902 61.3942C36.7629 61.2835 36.5817 61.0965 36.478 60.866C36.3743 60.6354 36.3546 60.3758 36.4225 60.1323C36.4903 59.8887 36.6414 59.6767 36.8494 59.533C37.0573 59.3893 37.3091 59.323 37.5609 59.3457C38.2848 59.4083 38.9692 59.515 39.6721 59.6403C40.3751 59.7656 41.0641 59.928 41.7601 60.1206C42.1128 60.2203 42.4561 60.3317 42.8227 60.4569C43.2007 60.5888 43.5703 60.7438 43.9293 60.9209C44.1402 61.0184 44.3454 61.1277 44.5441 61.2481C44.7962 61.4053 45.0297 61.5905 45.2401 61.8002C45.3004 61.8582 45.377 61.9487 45.4443 62.0322C45.5116 62.1157 45.5162 62.1273 45.551 62.1761L45.6044 62.2503L45.6624 62.3408C45.7005 62.4039 45.7353 62.469 45.7668 62.5357C45.8039 62.6122 45.8364 62.6888 45.8688 62.7677C45.9386 62.9601 45.9846 63.1603 46.0057 63.3639C46.0486 63.8188 45.9592 64.2764 45.7482 64.6817C45.5983 64.9675 45.3987 65.2243 45.1589 65.4403C45.0337 65.558 44.8872 65.6509 44.7274 65.7141L44.3632 65.8556C44.0662 65.9693 43.7716 66.0876 43.4792 66.1618C43.1912 66.2544 42.8984 66.3318 42.6023 66.3938C42.3123 66.4611 42.02 66.5052 41.7276 66.5446C41.5815 66.5609 41.4353 66.5817 41.2868 66.5887C41.1384 66.5957 40.9992 66.6073 40.8228 66.6073C40.2879 66.6091 39.7715 66.4117 39.3741 66.0535C38.9768 65.6954 38.727 65.2022 38.6734 64.6699C38.6198 64.1377 38.7663 63.6046 39.0843 63.1744C39.4023 62.7443 39.8691 62.4479 40.3936 62.3431L40.5537 62.3014Z" fill="#B65B52"/>
<path opacity="0.7" d="M43.0413 75.4928C39.2389 77.5947 29.5645 76.0705 27.8337 75.7759C27.7757 75.0219 27.7131 74.2122 27.6365 73.3677C27.5159 72.0523 27.3605 70.651 27.1261 69.2358C26.9429 68.1175 26.7109 66.9923 26.4162 65.8927C26.3159 65.5292 26.2909 65.1491 26.3427 64.7756C26.3945 64.4022 26.5221 64.0432 26.7176 63.7209C26.9131 63.3985 27.1725 63.1194 27.4797 62.9009C27.7869 62.6823 28.1355 62.5288 28.5042 62.4498C31.1884 61.9237 33.9224 61.6949 36.6567 61.7677C37.6172 61.8025 38.6496 62.2688 38.9581 63.1806C40.3826 67.3798 42.6284 70.7925 43.0413 75.4928Z" fill="white"/>
<path d="M35.4134 62.3292C35.2101 61.9953 34.9004 61.7396 34.5342 61.603C34.3778 61.2672 34.3426 60.8877 34.4344 60.5289L30.3164 59.5173C30.7317 60.8281 31.0588 61.8629 30.6064 62.5333C31.4323 62.9649 32.9426 63.7351 34.5226 63.582C36.1025 63.4289 35.7081 62.8721 35.4134 62.3292Z" fill="#B55B52"/>
<path opacity="0.2" d="M34.408 60.6541L31.3711 60.6819C32.3849 61.6285 33.8442 61.9115 34.4706 61.4568C34.3818 61.1989 34.3602 60.9226 34.408 60.6541Z" fill="black"/>
<path d="M34.6154 63.5819L33.9194 63.0808L33.0703 63.5819C33.0703 63.5819 33.6712 64.0715 34.6154 63.5819Z" fill="#EF233C"/>
<path opacity="0.5" d="M34.6154 63.5819L33.9194 63.0808L33.0703 63.5819C33.0703 63.5819 33.6712 64.0715 34.6154 63.5819Z" fill="white"/>
<path d="M30.8192 61.6262C30.8192 61.6262 32.2251 63.1157 33.9233 63.0809C32.9698 63.6145 32.877 64.7327 32.877 64.7327C32.877 64.7327 30.7217 64.2316 30.1719 62.0113C30.2412 61.9002 30.3362 61.8072 30.4488 61.7402C30.5614 61.6732 30.6884 61.6341 30.8192 61.6262Z" fill="#EF233C"/>
<path d="M34.6172 63.582L35.3132 62.8674L36.276 63.0855C36.276 63.0855 35.6171 63.9393 34.6172 63.582Z" fill="#EF233C"/>
<path opacity="0.5" d="M34.6172 63.582L35.3132 62.8674L36.276 63.0855C36.276 63.0855 35.6171 63.9393 34.6172 63.582Z" fill="white"/>
<path d="M34.5312 61.603C34.5312 61.603 35.2412 62.3199 35.3108 62.8674C36.1181 63.0391 36.5775 64.1735 36.5775 64.1735C36.5775 64.1735 36.61 62.5055 35.3061 61.6935C35.0628 61.5862 34.7928 61.5547 34.5312 61.603Z" fill="#EF233C"/>
<path opacity="0.8" d="M30.8192 61.6262C30.8192 61.6262 32.2251 63.1157 33.9233 63.0809C32.9698 63.6145 32.877 64.7327 32.877 64.7327C32.877 64.7327 30.7217 64.2316 30.1719 62.0113C30.2412 61.9002 30.3362 61.8072 30.4488 61.7402C30.5614 61.6732 30.6884 61.6341 30.8192 61.6262Z" fill="white"/>
<path opacity="0.8" d="M34.5312 61.603C34.5312 61.603 35.2412 62.3199 35.3108 62.8674C36.1181 63.0391 36.5775 64.1735 36.5775 64.1735C36.5775 64.1735 36.61 62.5055 35.3061 61.6935C35.0628 61.5862 34.7928 61.5547 34.5312 61.603Z" fill="white"/>
<path d="M31.5359 55.2717C31.5011 54.0305 32.6565 53.3855 33.7353 53.9655C34.8141 54.5455 35.0484 56.5175 34.3454 57.6172C33.6425 58.7169 31.5359 55.2717 31.5359 55.2717Z" fill="#263238"/>
<path d="M29.3908 57.536C29.9894 59.2389 30.4348 60.3826 31.7247 60.8559C34.2767 61.7955 35.3207 60.545 35.2859 58.7076C35.2535 57.0558 34.2814 54.5502 32.256 54.2996C30.2307 54.049 28.7923 55.8285 29.3908 57.536Z" fill="#B55B52"/>
<path d="M30.7109 56.5338C31.2817 56.9978 31.6389 59.2482 30.8339 59.2667C30.2793 59.2708 29.725 59.2367 29.1751 59.1647C29.1751 59.1647 28.1172 58.8445 28.5765 57.2599C29.0359 55.6754 30.7109 56.5338 30.7109 56.5338Z" fill="#263238"/>
<path d="M29.1711 59.5869C29.5263 59.9188 29.9984 60.0965 30.4843 60.0811C31.1292 60.0532 31.2568 59.4268 30.9158 58.9211C30.6095 58.4571 29.9019 57.9304 29.3335 58.2042C28.7651 58.4779 28.7419 59.1739 29.1711 59.5869Z" fill="#B55B52"/>
<path d="M32.7578 57.0721C32.7972 57.2252 32.9086 57.3273 33.0084 57.3041C33.1081 57.2809 33.1568 57.1324 33.1174 56.9793C33.078 56.8261 32.9666 56.7264 32.8668 56.7473C32.7671 56.7681 32.7137 56.9189 32.7578 57.0721Z" fill="#263238"/>
<path d="M34.339 56.7055C34.3784 56.8586 34.4898 56.9607 34.5895 56.9375C34.6893 56.9143 34.738 56.7635 34.6986 56.6127C34.6591 56.4619 34.5478 56.3575 34.448 56.3807C34.3482 56.4039 34.3065 56.5523 34.339 56.7055Z" fill="#263238"/>
<path d="M33.8516 56.963L34.1717 58.2483C34.3306 58.2409 34.4873 58.208 34.6357 58.1509C34.6645 58.1383 34.6893 58.1181 34.7074 58.0924C34.7256 58.0667 34.7363 58.0366 34.7384 58.0052C34.7406 57.9739 34.7341 57.9425 34.7197 57.9146C34.7052 57.8867 34.6834 57.8633 34.6566 57.8469C34.3333 57.6075 34.0598 57.3072 33.8516 56.963Z" fill="#A02724"/>
<path d="M31.8346 56.8401C31.8194 56.8436 31.8035 56.8436 31.7882 56.8401C31.7655 56.8308 31.7474 56.8129 31.7378 56.7903C31.7282 56.7677 31.728 56.7422 31.7372 56.7194C31.7901 56.5814 31.8751 56.4581 31.9853 56.3596C32.0955 56.2612 32.2276 56.1905 32.3706 56.1533C32.3826 56.151 32.395 56.151 32.407 56.1535C32.419 56.156 32.4304 56.1608 32.4406 56.1677C32.4507 56.1746 32.4594 56.1835 32.4661 56.1937C32.4728 56.204 32.4774 56.2155 32.4796 56.2276C32.4837 56.2518 32.4783 56.2767 32.4645 56.2971C32.4506 56.3174 32.4294 56.3316 32.4054 56.3366C32.2925 56.367 32.1886 56.4239 32.1023 56.5026C32.0159 56.5813 31.9496 56.6795 31.9089 56.789C31.902 56.8033 31.8916 56.8155 31.8786 56.8244C31.8655 56.8334 31.8504 56.8388 31.8346 56.8401Z" fill="#263238"/>
<path d="M34.8448 56.144C34.8302 56.1475 34.815 56.1474 34.8005 56.1438C34.7859 56.1402 34.7725 56.1331 34.7613 56.1231C34.6789 56.0415 34.5783 55.9808 34.4677 55.9461C34.3571 55.9114 34.2398 55.9037 34.1256 55.9236C34.1019 55.9292 34.077 55.9253 34.0561 55.9127C34.0353 55.9001 34.0203 55.8799 34.0142 55.8563C34.0086 55.8326 34.0125 55.8077 34.0251 55.7868C34.0377 55.766 34.0579 55.751 34.0815 55.7449C34.2245 55.7156 34.3724 55.7214 34.5126 55.7619C34.6528 55.8023 34.7811 55.8761 34.8866 55.9769C34.9037 55.9947 34.9133 56.0184 34.9133 56.0431C34.9133 56.0677 34.9037 56.0914 34.8866 56.1092C34.8777 56.1258 34.8627 56.1383 34.8448 56.144Z" fill="#263238"/>
<path d="M34.4642 58.9443C34.4512 58.9478 34.4376 58.9478 34.4247 58.9443C33.8401 58.6543 33.0327 58.8283 33.0165 58.8283C32.994 58.8332 32.9706 58.8292 32.9511 58.817C32.9316 58.8049 32.9176 58.7857 32.9121 58.7634C32.9072 58.7406 32.9116 58.7169 32.9242 58.6973C32.9368 58.6778 32.9566 58.664 32.9794 58.659C33.0142 58.659 33.8633 58.4734 34.5013 58.7889C34.5197 58.7968 34.5349 58.8109 34.544 58.8287C34.5531 58.8466 34.5557 58.8671 34.5513 58.8867C34.5469 58.9063 34.5358 58.9237 34.5198 58.9359C34.5039 58.9482 34.4842 58.9544 34.4642 58.9536V58.9443Z" fill="#263238"/>
<path d="M28.4586 58.3596C28.0294 57.6265 27.3636 55.1256 29.498 53.8403C31.6324 52.555 33.8318 53.1744 33.8457 54.0468C33.8596 54.9191 31.6765 56.7217 30.3146 56.6568C28.9528 56.5918 28.4586 58.4756 28.4586 58.4756" fill="#263238"/>
<path d="M41.434 67.5561C40.7151 67.5165 40.0127 67.3253 39.3729 66.995C38.7332 66.6648 38.1706 66.2029 37.722 65.6397C35.9982 63.4264 36.5782 61.7607 36.5782 61.7607H36.5945C36.8952 61.6939 37.2029 61.6635 37.5109 61.6702L37.6037 61.7213C37.947 61.9069 39.2555 62.5286 40.3018 62.9253C40.1034 63.7313 40.1028 64.5733 40.2999 65.3796C40.497 66.1858 40.8861 66.9325 41.434 67.5561Z" fill="#EF233C"/>
<path opacity="0.7" d="M41.434 67.5561C40.7151 67.5165 40.0127 67.3253 39.3729 66.995C38.7332 66.6648 38.1706 66.2029 37.722 65.6397C35.9982 63.4264 36.5782 61.7607 36.5782 61.7607H36.5945C36.8952 61.6939 37.2029 61.6635 37.5109 61.6702L37.6037 61.7213C37.947 61.9069 39.2555 62.5286 40.3018 62.9253C40.1034 63.7313 40.1028 64.5733 40.2999 65.3796C40.497 66.1858 40.8861 66.9325 41.434 67.5561Z" fill="white"/>
<path d="M45.3594 92.0135L48.2942 91.7096L48.8162 95.1525L46.3639 95.4123L45.3594 92.0135Z" fill="#B55B52"/>
<path opacity="0.2" d="M45.3594 92.0158L48.2965 91.7096L48.5865 93.6398L45.9208 93.9182L45.3594 92.0158Z" fill="black"/>
<path d="M45.9375 96.4726H46.5778L46.7518 96.2127L47.0882 96.4749H50.9603C50.9836 96.1699 50.926 95.8642 50.7933 95.5886C50.7933 95.5886 49.6333 95.4843 49.1901 94.9089C49.174 94.8867 49.152 94.8695 49.1265 94.8592C49.1011 94.849 49.0733 94.8461 49.0463 94.8509C48.6612 94.9321 47.13 95.2244 46.2855 94.9228C46.2647 94.915 46.2423 94.9123 46.2202 94.915C46.1981 94.9176 46.177 94.9255 46.1586 94.938C46.1402 94.9505 46.125 94.9673 46.1144 94.9868C46.1038 95.0064 46.098 95.0282 46.0976 95.0504C46.0804 95.5278 46.0268 96.0033 45.9375 96.4726Z" fill="#263238"/>
<path d="M27.9031 76.683C27.9031 76.683 26.0726 82.7266 30.998 84.3901C35.9233 86.0535 40.7907 83.1187 40.7907 83.1187C40.7907 83.1187 40.7907 84.3901 45.1778 93.7397L48.8156 93.0437C48.8156 93.0437 47.5326 79.0517 45.9364 76.6737C44.3403 74.2957 36.276 75.3699 36.276 75.3699L27.9031 76.683Z" fill="#263238"/>
<path opacity="0.4" d="M27.9031 76.683C27.9031 76.683 26.0726 82.7266 30.998 84.3901C35.9233 86.0535 40.7907 83.1187 40.7907 83.1187C40.7907 83.1187 40.7907 84.3901 45.1778 93.7397L48.8156 93.0437C48.8156 93.0437 47.5326 79.0517 45.9364 76.6737C44.3403 74.2957 36.276 75.3699 36.276 75.3699L27.9031 76.683Z" fill="white"/>
<path opacity="0.2" d="M27.6393 73.3677C27.5187 72.0523 27.3632 70.651 27.1289 69.2358C28.4513 68.3658 29.7343 67.7092 29.7343 67.7092C29.7343 67.7092 31.4905 72.9339 27.6393 73.3677Z" fill="black"/>
<path d="M29.5572 66.9483L29.3739 67.809L29.1976 68.7138C29.0816 69.3147 28.9865 69.9202 28.9006 70.5141C28.8148 71.108 28.7614 71.7019 28.7266 72.275C28.6968 72.8162 28.7046 73.3588 28.7498 73.899L28.4227 73.1287C28.3804 73.0689 28.3277 73.017 28.2673 72.9756C28.2487 72.964 28.2348 72.9756 28.251 72.9756C28.3064 73.0261 28.3671 73.0705 28.432 73.1079C28.6552 73.2354 28.8879 73.3455 29.128 73.4373C29.6662 73.6484 30.2718 73.8526 30.8866 74.0312C31.5014 74.2099 32.1394 74.3954 32.7774 74.5718C33.4154 74.7481 34.0696 74.9198 34.7006 75.1054H34.7308C34.9726 75.1767 35.1819 75.3301 35.3228 75.5392C35.4636 75.7483 35.5271 75.9999 35.5024 76.2508C35.4777 76.5017 35.3662 76.7361 35.1873 76.9136C35.0083 77.0912 34.7731 77.2008 34.522 77.2235C33.8051 77.2862 33.1161 77.3024 32.4131 77.3024C31.7102 77.3024 31.0072 77.2676 30.295 77.2096C29.558 77.149 28.8257 77.0413 28.1026 76.8871C27.6916 76.7973 27.2876 76.6779 26.8938 76.5299C26.646 76.4377 26.4068 76.3235 26.1793 76.1888C26.0302 76.0999 25.8876 76.0007 25.7524 75.8919C25.5651 75.7385 25.3969 75.5632 25.2513 75.3699C25.111 75.1847 25.0114 74.972 24.959 74.7458L24.9242 74.5996C24.7478 73.8378 24.6445 73.061 24.6156 72.2796C24.5994 71.9038 24.5947 71.5326 24.5994 71.1637C24.604 70.7948 24.6295 70.4329 24.655 70.071C24.7061 69.3495 24.8012 68.6419 24.9195 67.9412C24.9822 67.5909 25.0448 67.2452 25.1237 66.8926C25.1631 66.7186 25.2026 66.5446 25.2466 66.3706L25.3951 65.8207C25.553 65.2943 25.9064 64.8482 26.3829 64.5742C26.8593 64.3002 27.4226 64.219 27.957 64.3472C28.4915 64.4755 28.9565 64.8035 29.2567 65.2639C29.5569 65.7243 29.6694 66.2822 29.5711 66.823L29.5572 66.9483Z" fill="#B65B52"/>
<path d="M34.2278 75.24L33.8867 76.4348C33.9958 77.7363 35.643 77.3071 35.643 77.3071L36.5199 77.4185C36.6758 77.4291 36.8303 77.3837 36.9558 77.2906C37.0812 77.1975 37.1693 77.0627 37.2043 76.9104L37.4479 76.0775C37.5063 75.9093 37.4979 75.725 37.4245 75.5628C37.3511 75.4005 37.2184 75.2725 37.0535 75.2052L36.3158 74.9732C36.1014 74.9075 35.874 74.8972 35.6546 74.943L34.2278 75.24Z" fill="#B55B52"/>
<path d="M28.0046 62.6029C25.5199 63.1458 24.2485 66.816 23.9492 70.4051C23.9492 70.4051 26.137 71.2565 29.3966 70.941C29.3966 70.941 29.9603 67.0596 29.7376 65.0807C29.5149 63.1017 28.0046 62.6029 28.0046 62.6029Z" fill="#EF233C"/>
<path opacity="0.7" d="M28.0046 62.6029C25.5199 63.1458 24.2485 66.816 23.9492 70.4051C23.9492 70.4051 26.137 71.2565 29.3966 70.941C29.3966 70.941 29.9603 67.0596 29.7376 65.0807C29.5149 63.1017 28.0046 62.6029 28.0046 62.6029Z" fill="white"/>
<path opacity="0.2" d="M40.6742 67.4586C40.6742 67.4586 39.5954 66.1617 39.0664 65.7697C39.0664 65.7697 40.6997 66.12 40.6742 67.4586Z" fill="black"/>
<path d="M77.0486 44.2054H67.1352C66.5907 44.2054 66.0684 44.4217 65.6834 44.8067C65.2983 45.1918 65.082 45.714 65.082 46.2586V52.0586C65.082 52.6031 65.2983 53.1253 65.6834 53.5104C66.0684 53.8954 66.5907 54.1118 67.1352 54.1118H73.724L76.74 57.3366L75.116 54.1118H77.0602C77.6047 54.1118 78.127 53.8954 78.512 53.5104C78.8971 53.1253 79.1134 52.6031 79.1134 52.0586V46.2586C79.1134 45.9879 79.0599 45.72 78.956 45.4701C78.8521 45.2203 78.6998 44.9934 78.5079 44.8026C78.316 44.6118 78.0883 44.4608 77.8379 44.3583C77.5874 44.2558 77.3192 44.2038 77.0486 44.2054Z" fill="#EF233C"/>
<path opacity="0.7" d="M77.0486 44.2054H67.1352C66.5907 44.2054 66.0684 44.4217 65.6834 44.8067C65.2983 45.1918 65.082 45.714 65.082 46.2586V52.0586C65.082 52.6031 65.2983 53.1253 65.6834 53.5104C66.0684 53.8954 66.5907 54.1118 67.1352 54.1118H73.724L76.74 57.3366L75.116 54.1118H77.0602C77.6047 54.1118 78.127 53.8954 78.512 53.5104C78.8971 53.1253 79.1134 52.6031 79.1134 52.0586V46.2586C79.1134 45.9879 79.0599 45.72 78.956 45.4701C78.8521 45.2203 78.6998 44.9934 78.5079 44.8026C78.316 44.6118 78.0883 44.4608 77.8379 44.3583C77.5874 44.2558 77.3192 44.2038 77.0486 44.2054Z" fill="white"/>
<path d="M72.7201 52.0837C75.0119 51.1344 76.1002 48.507 75.1509 46.2153C74.2016 43.9235 71.5742 42.8352 69.2824 43.7845C66.9907 44.7338 65.9024 47.3611 66.8516 49.6529C67.8009 51.9447 70.4283 53.033 72.7201 52.0837Z" fill="#EF233C"/>
<path opacity="0.3" d="M72.4704 51.475C74.4259 50.6649 75.3546 48.423 74.5446 46.4674C73.7345 44.5118 71.4926 43.5831 69.537 44.3932C67.5814 45.2032 66.6528 47.4452 67.4628 49.4008C68.2728 51.3563 70.5148 52.285 72.4704 51.475Z" fill="white"/>
<path d="M71.2776 50.0006V50.6479H70.8136V50.0076C70.3043 49.9937 69.811 49.8264 69.3984 49.5274L69.6583 48.945C69.9953 49.1986 70.3978 49.3508 70.8183 49.3835V48.2235C70.1756 48.0681 69.4889 47.8593 69.4889 47.0635C69.4889 46.4742 69.9158 45.9615 70.8183 45.8757V45.2214H71.2823V45.8641C71.696 45.8809 72.0988 46.0014 72.4539 46.2144L72.2219 46.799C71.9374 46.6319 71.6215 46.5253 71.2939 46.4858V47.6458C71.9342 47.8013 72.6325 48.0054 72.6325 48.8058C72.614 49.4021 72.1848 49.9102 71.2776 50.0006ZM70.8136 47.5298V46.5021C70.403 46.5647 70.229 46.7735 70.229 47.0264C70.229 47.2793 70.468 47.4324 70.8044 47.5298H70.8136ZM71.8878 48.8638C71.8878 48.5808 71.6326 48.4486 71.2869 48.3488V49.3719C71.6976 49.3093 71.8785 49.1121 71.8785 48.8638H71.8878Z" fill="#EF233C"/>
<path d="M76.4324 48.0472H74.1797V48.4416H76.4324V48.0472Z" fill="#EF233C"/>
<path d="M76.4324 48.6782H74.1797V48.8917H76.4324V48.6782Z" fill="#EF233C"/>
<path d="M74.1814 47.9382H76.4318V45.2401H77.332L75.3066 42.4561L73.2812 45.2401H74.1814V47.9382Z" fill="#EF233C"/>
<path d="M76.4324 49.1887H74.1797V49.2954H76.4324V49.1887Z" fill="#EF233C"/>
<g opacity="0.3">
<path d="M76.4324 48.0472H74.1797V48.4416H76.4324V48.0472Z" fill="black"/>
<path d="M76.4324 48.6783H74.1797V48.8918H76.4324V48.6783Z" fill="black"/>
<path d="M74.1814 47.9382H76.4318V45.2401H77.332L75.3066 42.4561L73.2812 45.2401H74.1814V47.9382Z" fill="black"/>
<path d="M76.4324 49.1887H74.1797V49.2954H76.4324V49.1887Z" fill="black"/>
</g>
<path d="M49.1658 44.2052H39.2524C38.7079 44.2052 38.1856 44.4216 37.8006 44.8066C37.4155 45.1917 37.1992 45.7139 37.1992 46.2584V52.0584C37.1992 52.603 37.4155 53.1252 37.8006 53.5103C38.1856 53.8953 38.7079 54.1116 39.2524 54.1116H41.1966L39.5726 57.3364L42.5886 54.1116H49.1774C49.7219 54.1116 50.2442 53.8953 50.6292 53.5103C51.0143 53.1252 51.2306 52.603 51.2306 52.0584V46.2584C51.2306 45.9878 51.1771 45.7199 51.0732 45.47C50.9693 45.2202 50.817 44.9933 50.6251 44.8025C50.4332 44.6117 50.2055 44.4607 49.9551 44.3582C49.7046 44.2557 49.4364 44.2037 49.1658 44.2052Z" fill="#EF233C"/>
<path opacity="0.7" d="M49.1658 44.2052H39.2524C38.7079 44.2052 38.1856 44.4216 37.8006 44.8066C37.4155 45.1917 37.1992 45.7139 37.1992 46.2584V52.0584C37.1992 52.603 37.4155 53.1252 37.8006 53.5103C38.1856 53.8953 38.7079 54.1116 39.2524 54.1116H41.1966L39.5726 57.3364L42.5886 54.1116H49.1774C49.7219 54.1116 50.2442 53.8953 50.6292 53.5103C51.0143 53.1252 51.2306 52.603 51.2306 52.0584V46.2584C51.2306 45.9878 51.1771 45.7199 51.0732 45.47C50.9693 45.2202 50.817 44.9933 50.6251 44.8025C50.4332 44.6117 50.2055 44.4607 49.9551 44.3582C49.7046 44.2557 49.4364 44.2037 49.1658 44.2052Z" fill="white"/>
<path d="M48.5643 45.472L48.9958 45.349L48.8381 44.4976L48.3926 44.537C48.2837 44.2686 48.1265 44.0225 47.9286 43.8109L48.1467 43.4188L47.4252 42.92L47.1352 43.2657C46.867 43.152 46.5797 43.0898 46.2884 43.0824L46.1678 42.6532L45.3163 42.8086L45.3558 43.2564C45.0866 43.3638 44.8401 43.5212 44.6296 43.7204L44.2352 43.5023L43.7457 44.2169L44.089 44.5046C43.9761 44.773 43.9147 45.0602 43.9081 45.3514L43.4766 45.4743L43.6343 46.3258L44.0798 46.2863C44.1892 46.5544 44.3465 46.8005 44.5438 47.0125L44.3257 47.4046L45.0379 47.8941L45.3279 47.5507C45.596 47.6648 45.8835 47.7263 46.1747 47.7317L46.2954 48.1632L47.1491 48.0054L47.1074 47.56C47.3769 47.4533 47.6235 47.2958 47.8335 47.096L48.2279 47.3164L48.7174 46.6018L48.3741 46.3142C48.4896 46.0478 48.5542 45.7621 48.5643 45.472ZM46.4485 46.5717C46.2207 46.6132 45.9857 46.5862 45.7732 46.4943C45.5607 46.4023 45.3802 46.2495 45.2545 46.055C45.1288 45.8605 45.0636 45.6331 45.067 45.4016C45.0705 45.1701 45.1424 44.9448 45.2739 44.7541C45.4053 44.5635 45.5902 44.416 45.8054 44.3304C46.0205 44.2448 46.2562 44.2249 46.4827 44.2732C46.7092 44.3214 46.9162 44.4357 47.0778 44.6016C47.2394 44.7675 47.3481 44.9775 47.3904 45.2052C47.4195 45.3566 47.4181 45.5123 47.3863 45.6631C47.3545 45.814 47.2929 45.957 47.2052 46.0838C47.1175 46.2106 47.0055 46.3186 46.8755 46.4016C46.7456 46.4846 46.6004 46.5408 46.4485 46.567V46.5717Z" fill="#EF233C"/>
<path opacity="0.6" d="M42.0427 48.9519C42.2365 48.8718 42.4136 48.7562 42.5647 48.6109L42.8455 48.7687L43.1981 48.2559L42.9499 48.0495C43.0323 47.8571 43.0771 47.6508 43.0821 47.4416L43.3907 47.3535L43.277 46.741L42.9568 46.7688C42.8776 46.5752 42.7627 46.3981 42.6181 46.2468L42.7759 45.9661L42.2631 45.6135L42.0543 45.8617C41.8621 45.7789 41.6557 45.734 41.4465 45.7295L41.3583 45.4209L40.7459 45.5346L40.776 45.8547C40.5821 45.9335 40.4049 46.0484 40.254 46.1935L39.971 46.0357L39.6183 46.5484L39.8666 46.7549C39.7858 46.9485 39.7417 47.1554 39.7367 47.3651L39.4258 47.4532L39.5395 48.0634L39.8596 48.0355C39.9392 48.229 40.0541 48.406 40.1983 48.5575L40.0429 48.8406L40.5556 49.1932L40.7621 48.945C40.9549 49.0258 41.161 49.0698 41.3699 49.0749L41.4581 49.3858L42.0706 49.2721L42.0427 48.9519ZM41.5625 48.2304C41.3987 48.2607 41.2296 48.2417 41.0767 48.1759C40.9237 48.11 40.7936 48.0003 40.703 47.8606C40.6123 47.7208 40.5652 47.5574 40.5674 47.3908C40.5697 47.2243 40.6213 47.0622 40.7157 46.925C40.8101 46.7877 40.9431 46.6816 41.0978 46.6199C41.2525 46.5583 41.422 46.5439 41.5849 46.5786C41.7478 46.6133 41.8968 46.6955 42.013 46.8148C42.1291 46.9342 42.2073 47.0853 42.2376 47.2491C42.2594 47.3585 42.2592 47.4712 42.2369 47.5806C42.2147 47.69 42.1708 47.7938 42.108 47.8861C42.0451 47.9783 41.9645 48.0571 41.8708 48.1178C41.7772 48.1785 41.6724 48.22 41.5625 48.2397V48.2304Z" fill="#EF233C"/>
<path opacity="0.5" d="M47.1431 50.576L47.0085 49.8475L46.6327 49.88C46.5381 49.6493 46.4012 49.4384 46.229 49.2582L46.4169 48.9241L45.7975 48.488L45.5516 48.7826C45.3224 48.6852 45.0767 48.6324 44.8277 48.6272L44.7233 48.2583L43.9948 48.3929L44.0273 48.7733C43.797 48.8703 43.5869 49.0096 43.4079 49.184L43.0715 48.9984L42.6516 49.6085L42.9462 49.8545C42.849 50.0837 42.7962 50.3294 42.7908 50.5783L42.4219 50.685L42.5564 51.4135L42.9392 51.3787C43.0338 51.6094 43.1707 51.8202 43.3429 52.0005L43.155 52.3345L43.7652 52.7545L44.0111 52.4598C44.2411 52.557 44.4875 52.6098 44.7372 52.6153L44.8416 52.9841L45.5701 52.8496L45.5353 52.4691C45.7667 52.3749 45.9778 52.237 46.1571 52.0631L46.4935 52.251L46.9134 51.6409L46.6188 51.3949C46.7151 51.1646 46.7678 50.9184 46.7742 50.6688L47.1431 50.576ZM44.9646 51.6223C44.7693 51.6588 44.5677 51.6365 44.3851 51.5581C44.2026 51.4798 44.0475 51.349 43.9394 51.1823C43.8314 51.0156 43.7753 50.8206 43.7783 50.622C43.7813 50.4234 43.8433 50.2301 43.9563 50.0668C44.0693 49.9035 44.2283 49.7774 44.4131 49.7046C44.5979 49.6318 44.8002 49.6156 44.9943 49.658C45.1883 49.7003 45.3654 49.7994 45.503 49.9426C45.6407 50.0858 45.7327 50.2667 45.7673 50.4623C45.8101 50.7209 45.7501 50.986 45.6001 51.201C45.4502 51.416 45.2221 51.5639 44.9646 51.613V51.6223Z" fill="#EF233C"/>
<path d="M96.3138 90.5171C96.3138 90.5171 96.2071 84.5338 99.0236 81.8449C101.84 79.156 97.0284 81.4227 95.9797 84.2461C95.9797 84.2461 96.2581 78.8916 99.1164 75.6389C101.975 72.3863 97.3694 74.6204 96.2999 78.3348C96.2999 78.3348 96.5319 73.5556 98.0306 71.1428C99.5293 68.73 97.4785 70.0686 96.5017 71.5789C95.525 73.0892 95.6109 77.314 95.6109 77.314C95.6109 77.314 95.3325 69.4793 93.5855 69.7624C91.8385 70.0454 94.9636 75.7457 95.0355 78.4113C95.0355 78.4113 93.7734 74.5996 92.1773 75.0334C90.5811 75.4673 94.2305 76.5414 94.945 81.9934L95.0773 84.5129C95.0773 84.5129 93.9637 80.7754 92.5995 81.6245C91.2353 82.4736 95.467 85.2066 95.5413 90.5588L96.3138 90.5171Z" fill="#EF233C"/>
<path opacity="0.2" d="M96.3138 90.5171C96.3138 90.5171 96.2071 84.5338 99.0236 81.8449C101.84 79.156 97.0284 81.4227 95.9797 84.2461C95.9797 84.2461 96.2581 78.8916 99.1164 75.6389C101.975 72.3863 97.3694 74.6204 96.2999 78.3348C96.2999 78.3348 96.5319 73.5556 98.0306 71.1428C99.5293 68.73 97.4785 70.0686 96.5017 71.5789C95.525 73.0892 95.6109 77.314 95.6109 77.314C95.6109 77.314 95.3325 69.4793 93.5855 69.7624C91.8385 70.0454 94.9636 75.7457 95.0355 78.4113C95.0355 78.4113 93.7734 74.5996 92.1773 75.0334C90.5811 75.4673 94.2305 76.5414 94.945 81.9934L95.0773 84.5129C95.0773 84.5129 93.9637 80.7754 92.5995 81.6245C91.2353 82.4736 95.467 85.2066 95.5413 90.5588L96.3138 90.5171Z" fill="black"/>
<path d="M92.8129 96.4726H99.984L100.938 89.4987H91.8594L92.8129 96.4726Z" fill="#263238"/>
<path opacity="0.2" d="M92.8129 96.4726H99.984L100.938 89.4987H91.8594L92.8129 96.4726Z" fill="white"/>
<path d="M96.1029 90.248C96.1029 90.248 96.8546 85.4572 94.8919 82.9887C92.9292 80.5202 96.5391 82.8704 97.0681 85.2507C97.0681 85.2507 97.4369 80.9239 95.5067 77.9961C93.5765 75.0682 97.0193 77.372 97.4671 80.4715C97.4671 80.4715 97.8058 76.611 96.8755 74.4998C95.9452 72.3886 97.4369 73.6994 98.0541 75.0195C98.6712 76.3396 98.1353 79.7221 98.1353 79.7221C98.1353 79.7221 99.2257 73.4581 100.594 73.885C101.963 74.3119 98.8289 78.525 98.474 80.6664C98.474 80.6664 99.9101 77.7455 101.144 78.2721C102.379 78.7988 99.3277 79.2558 98.1492 83.5571L97.7617 85.5662C97.7617 85.5662 99.0725 82.6894 100.082 83.5223C101.091 84.3552 97.3813 86.0743 96.7293 90.3663L96.1029 90.248Z" fill="#EF233C"/>
<path d="M101.834 88.9325V89.596C101.834 89.7015 101.814 89.806 101.773 89.9036C101.733 90.0011 101.674 90.0897 101.599 90.1643C101.525 90.2389 101.436 90.298 101.339 90.3383C101.241 90.3785 101.137 90.399 101.031 90.3987H91.6722C91.5666 90.399 91.462 90.3785 91.3643 90.3383C91.2667 90.2981 91.1779 90.239 91.1031 90.1645C91.0283 90.0899 90.969 90.0013 90.9285 89.9037C90.888 89.8062 90.8672 89.7016 90.8672 89.596V88.9325H101.834Z" fill="#263238"/>
<path d="M20.2009 89.1761H19.9805C19.9805 88.8513 20.2519 81.1837 21.5859 79.8961C22.957 78.5621 24.5694 79.8753 24.5833 79.8961L24.4441 80.0655C24.3838 80.0145 22.9686 78.8637 21.739 80.0655C20.4677 81.2742 20.2032 89.088 20.2009 89.1761Z" fill="#EF233C"/>
<path d="M20.0943 90.7119L19.8739 90.6911C19.8739 90.5983 20.7369 81.3832 17.3984 77.5529L17.5632 77.4091C20.9643 81.3136 20.1012 90.6215 20.0943 90.7119Z" fill="#EF233C"/>
<path d="M20.1968 89.7307C20.169 89.2968 19.5263 79.0587 22.0923 76.6946L22.2407 76.8547C19.7514 79.1445 20.4079 89.6147 20.4149 89.7167L20.1968 89.7307Z" fill="#EF233C"/>
<path d="M19.8741 89.7237C19.8741 89.6541 19.7952 82.7637 17.9693 81.7267C17.8139 81.6247 17.6363 81.5615 17.4514 81.5426C17.2664 81.5236 17.0797 81.5493 16.9068 81.6176C15.8373 82.0607 15.2689 84.1023 15.2619 84.1232L15.0508 84.0652C15.0763 83.9771 15.654 81.8983 16.8233 81.4158C17.0269 81.3342 17.2471 81.3026 17.4655 81.3236C17.6839 81.3446 17.894 81.4175 18.0784 81.5364C20.0109 82.6431 20.0921 89.4244 20.0945 89.7237H19.8741Z" fill="#EF233C"/>
<path d="M20.6238 89.7306C20.6099 89.4986 20.3291 84.2902 21.807 82.36C22.2014 81.8473 22.6375 81.6037 23.1108 81.6362C24.1618 81.7104 24.9668 83.1349 25.0109 83.1952L24.8207 83.3019C24.8207 83.288 24.0272 81.9099 23.0946 81.8542C22.7025 81.8264 22.3267 82.0422 21.981 82.4922C20.5519 84.3598 20.8395 89.6634 20.8419 89.7167L20.6238 89.7306Z" fill="#EF233C"/>
<path d="M20.3291 90.4521L20.111 90.4359C20.111 90.3106 21.039 77.8777 19.5078 75.8059L19.6841 75.6737C21.2664 77.8127 20.3685 89.9371 20.3291 90.4521Z" fill="#EF233C"/>
<path d="M16.397 82.6523C16.397 82.6523 17.3435 83.0003 17.0628 83.8262C16.7821 84.6521 13.7847 86.007 13.7847 86.007C13.7847 86.007 12.5295 84.847 13.6826 82.991C14.8356 81.135 16.3715 82.063 16.397 82.6523Z" fill="#EF233C"/>
<path opacity="0.2" d="M16.397 82.6523C16.397 82.6523 17.3435 83.0003 17.0628 83.8262C16.7821 84.6521 13.7847 86.007 13.7847 86.007C13.7847 86.007 12.5295 84.847 13.6826 82.991C14.8356 81.135 16.3715 82.063 16.397 82.6523Z" fill="black"/>
<path d="M20.5136 81.0816C20.5136 81.0816 19.5044 81.0398 19.4464 81.9098C19.3884 82.7798 21.6319 85.1834 21.6319 85.1834C21.6319 85.1834 23.2327 84.6057 22.8893 82.4365C22.5459 80.2673 20.7642 80.548 20.5136 81.0816Z" fill="#EF233C"/>
<path opacity="0.2" d="M20.5136 81.0816C20.5136 81.0816 19.5044 81.0398 19.4464 81.9098C19.3884 82.7798 21.6319 85.1834 21.6319 85.1834C21.6319 85.1834 23.2327 84.6057 22.8893 82.4365C22.5459 80.2673 20.7642 80.548 20.5136 81.0816Z" fill="black"/>
<path d="M21.3685 76.9219C21.3685 76.9219 20.6957 76.85 20.7491 76.4393C20.8025 76.0287 23.3637 74.9754 24.8741 76.6713C24.8741 76.6713 23.9066 78.3324 22.51 78.3533C21.1133 78.3742 21.3685 76.9219 21.3685 76.9219Z" fill="#EF233C"/>
<path opacity="0.2" d="M21.3685 76.9219C21.3685 76.9219 20.6957 76.85 20.7491 76.4393C20.8025 76.0287 23.3637 74.9754 24.8741 76.6713C24.8741 76.6713 23.9066 78.3324 22.51 78.3533C21.1133 78.3742 21.3685 76.9219 21.3685 76.9219Z" fill="black"/>
<path d="M20.1151 75.9266C20.1151 75.9266 20.7229 76.2213 20.8946 75.8454C21.0663 75.4696 19.4492 73.2192 17.2661 73.8665C17.2661 73.8665 17.2081 75.7897 18.3843 76.5461C19.5606 77.3024 20.1151 75.9266 20.1151 75.9266Z" fill="#EF233C"/>
<path opacity="0.2" d="M20.1151 75.9266C20.1151 75.9266 20.7229 76.2213 20.8946 75.8454C21.0663 75.4696 19.4492 73.2192 17.2661 73.8665C17.2661 73.8665 17.2081 75.7897 18.3843 76.5461C19.5606 77.3024 20.1151 75.9266 20.1151 75.9266Z" fill="black"/>
<path d="M23.2986 82.3206C23.2986 82.3206 22.8346 81.947 23.3357 81.7638C23.8369 81.5805 26.2937 81.6315 26.3193 84.0675C26.3193 84.0675 23.4587 84.5431 23.1037 83.6151C22.7488 82.6871 23.2986 82.3206 23.2986 82.3206Z" fill="#EF233C"/>
<path opacity="0.2" d="M23.2986 82.3206C23.2986 82.3206 22.8346 81.947 23.3357 81.7638C23.8369 81.5805 26.2937 81.6315 26.3193 84.0675C26.3193 84.0675 23.4587 84.5431 23.1037 83.6151C22.7488 82.6871 23.2986 82.3206 23.2986 82.3206Z" fill="black"/>
<path d="M17.462 76.8593C17.462 76.8593 17.926 76.4857 17.4249 76.3025C16.9238 76.1192 14.4669 76.1725 14.4414 78.6062C14.4414 78.6062 17.3043 79.0818 17.6592 78.1538C18.0142 77.2258 17.462 76.8593 17.462 76.8593Z" fill="#EF233C"/>
<path opacity="0.2" d="M17.462 76.8593C17.462 76.8593 17.926 76.4857 17.4249 76.3025C16.9238 76.1192 14.4669 76.1725 14.4414 78.6062C14.4414 78.6062 17.3043 79.0818 17.6592 78.1538C18.0142 77.2258 17.462 76.8593 17.462 76.8593Z" fill="black"/>
<path d="M18.9734 78.822C18.9734 78.822 19.0152 78.358 18.6486 78.5436C18.2821 78.7292 16.9991 80.1049 18.3262 81.4181C18.3262 81.4181 20.1149 80.0933 19.7924 79.4043C19.4699 78.7153 18.9734 78.822 18.9734 78.822Z" fill="#EF233C"/>
<path opacity="0.2" d="M18.9734 78.822C18.9734 78.822 19.0152 78.358 18.6486 78.5436C18.2821 78.7292 16.9991 80.1049 18.3262 81.4181C18.3262 81.4181 20.1149 80.0933 19.7924 79.4043C19.4699 78.7153 18.9734 78.822 18.9734 78.822Z" fill="black"/>
<path d="M23.7139 79.4716C23.7139 79.4716 23.4355 79.1073 23.8439 79.0609C24.2522 79.0145 26.0711 79.5041 25.6465 81.3206C25.6465 81.3206 23.4286 81.1536 23.3265 80.3926C23.2244 79.6317 23.7139 79.4716 23.7139 79.4716Z" fill="#EF233C"/>
<path opacity="0.2" d="M23.7139 79.4716C23.7139 79.4716 23.4355 79.1073 23.8439 79.0609C24.2522 79.0145 26.0711 79.5041 25.6465 81.3206C25.6465 81.3206 23.4286 81.1536 23.3265 80.3926C23.2244 79.6317 23.7139 79.4716 23.7139 79.4716Z" fill="black"/>
<path d="M16.5629 96.4726H23.7363L24.6899 89.4987H15.6094L16.5629 96.4726Z" fill="#263238"/>
<path opacity="0.2" d="M16.5629 96.4726H23.7363L24.6899 89.4987H15.6094L16.5629 96.4726Z" fill="white"/>
<path d="M25.5861 88.9325V89.596C25.5861 89.8089 25.5016 90.0131 25.351 90.1636C25.2005 90.3142 24.9963 90.3987 24.7834 90.3987H15.4222C15.3166 90.399 15.212 90.3785 15.1143 90.3383C15.0167 90.2981 14.9279 90.239 14.8531 90.1645C14.7783 90.0899 14.719 90.0013 14.6785 89.9037C14.638 89.8062 14.6172 89.7016 14.6172 89.596V88.9325H25.5861Z" fill="#263238"/>
</svg>
