<svg width="116" height="116" viewBox="0 0 116 116" fill="none" xmlns="http://www.w3.org/2000/svg">
<path d="M116 88.7168H0V88.7748H116V88.7168Z" fill="#EBEBEB"/>
<path d="M104.375 92.4497H96.6914V92.5077H104.375V92.4497Z" fill="#EBEBEB"/>
<path d="M76.8442 93.0808H74.8281V93.1388H76.8442V93.0808Z" fill="#EBEBEB"/>
<path d="M96.4599 90.2966H92.0078V90.3546H96.4599V90.2966Z" fill="#EBEBEB"/>
<path d="M22.192 90.6865H12.1719V90.7445H22.192V90.6865Z" fill="#EBEBEB"/>
<path d="M25.7264 90.6865H24.2578V90.7445H25.7264V90.6865Z" fill="#EBEBEB"/>
<path d="M52.2338 91.6655H30.5V91.7235H52.2338V91.6655Z" fill="#EBEBEB"/>
<path d="M54.9826 78.3696H10.1857C9.83475 78.369 9.49839 78.2292 9.25046 77.9808C9.00253 77.7324 8.86328 77.3958 8.86328 77.0449V14.0731C8.86634 13.7242 9.00693 13.3906 9.25454 13.1447C9.50214 12.8989 9.83675 12.7606 10.1857 12.76H54.9826C55.3339 12.76 55.6709 12.8996 55.9193 13.148C56.1677 13.3964 56.3073 13.7334 56.3073 14.0847V77.0449C56.3073 77.3962 56.1677 77.7332 55.9193 77.9816C55.6709 78.23 55.3339 78.3696 54.9826 78.3696ZM10.1857 12.8064C9.85013 12.807 9.52853 12.9408 9.29147 13.1782C9.05442 13.4157 8.92128 13.7376 8.92128 14.0731V77.0449C8.92128 77.3804 9.05442 77.7023 9.29147 77.9398C9.52853 78.1773 9.85013 78.311 10.1857 78.3116H54.9826C55.3183 78.311 55.6402 78.1773 55.8776 77.9399C56.115 77.7025 56.2487 77.3807 56.2493 77.0449V14.0731C56.2487 13.7374 56.115 13.4155 55.8776 13.1781C55.6402 12.9407 55.3183 12.807 54.9826 12.8064H10.1857Z" fill="#EBEBEB"/>
<path d="M105.167 78.3696H60.3677C60.0165 78.369 59.68 78.2292 59.4317 77.9809C59.1834 77.7326 59.0436 77.396 59.043 77.0449V14.0731C59.0466 13.724 59.1877 13.3904 59.4357 13.1446C59.6837 12.8988 60.0185 12.7606 60.3677 12.76H105.167C105.515 12.7612 105.849 12.8997 106.097 13.1455C106.344 13.3913 106.484 13.7246 106.487 14.0731V77.0449C106.487 77.3954 106.348 77.7317 106.101 77.98C105.853 78.2283 105.517 78.3684 105.167 78.3696ZM60.3677 12.8064C60.0319 12.807 59.7101 12.9407 59.4727 13.1781C59.2352 13.4155 59.1016 13.7374 59.101 14.0731V77.0449C59.1016 77.3807 59.2352 77.7025 59.4727 77.9399C59.7101 78.1773 60.0319 78.311 60.3677 78.3116H105.167C105.503 78.311 105.824 78.1773 106.062 77.9399C106.299 77.7025 106.433 77.3807 106.434 77.0449V14.0731C106.433 13.7374 106.299 13.4155 106.062 13.1781C105.824 12.9407 105.503 12.807 105.167 12.8064H60.3677Z" fill="#EBEBEB"/>
<path d="M103.129 88.7169V33.074H84.8079V88.7169H103.129Z" fill="#F0F0F0"/>
<path d="M102.121 51.0098V34.7002H85.8115V51.0098H102.121Z" fill="#F5F5F5"/>
<path d="M102.121 68.7835V52.4739H85.8115V68.7835H102.121Z" fill="#F5F5F5"/>
<path d="M102.121 86.5569V70.2473H85.8115V86.5569H102.121Z" fill="#F5F5F5"/>
<path d="M90.3555 34.4844H97.5753C97.5753 34.7065 97.5316 34.9264 97.4466 35.1316C97.3616 35.3368 97.237 35.5232 97.0799 35.6803C96.9229 35.8373 96.7364 35.9619 96.5313 36.0469C96.3261 36.1319 96.1061 36.1757 95.884 36.1757H92.0468C91.5982 36.1757 91.168 35.9975 90.8508 35.6803C90.5337 35.3631 90.3555 34.9329 90.3555 34.4844Z" fill="#E6E6E6"/>
<path d="M90.3555 52.2581H97.5753C97.5753 52.4802 97.5316 52.7001 97.4466 52.9053C97.3616 53.1105 97.237 53.2969 97.0799 53.454C96.9229 53.611 96.7364 53.7356 96.5313 53.8206C96.3261 53.9056 96.1061 53.9493 95.884 53.9493H92.0468C91.5982 53.9493 91.168 53.7712 90.8508 53.454C90.5337 53.1368 90.3555 52.7066 90.3555 52.2581Z" fill="#E6E6E6"/>
<path d="M90.3555 70.0315H97.5753C97.5753 70.2536 97.5316 70.4735 97.4466 70.6787C97.3616 70.8839 97.237 71.0704 97.0799 71.2274C96.9229 71.3845 96.7364 71.509 96.5313 71.594C96.3261 71.679 96.1061 71.7228 95.884 71.7228H92.0468C91.5982 71.7228 91.168 71.5446 90.8508 71.2274C90.5337 70.9102 90.3555 70.48 90.3555 70.0315Z" fill="#E6E6E6"/>
<path d="M84.8047 88.7144V33.0715H75.6546V88.7144H84.8047Z" fill="#F5F5F5"/>
<path d="M17.5664 52.6477V53.1511H17.8889L18.1534 57.0975H22.0742L22.3386 53.1511H22.6611V52.6477H17.5664Z" fill="#E6E6E6"/>
<path d="M18.8559 42.8526C19.1783 40.5001 22.3498 39.8366 26.3773 39.7438C30.2076 39.6603 31.4349 38.3054 31.4349 38.3054C31.4349 38.3054 31.4233 43.7945 25.9017 45.7828C20.6608 47.6689 18.5334 45.2074 18.8559 42.8526Z" fill="#E6E6E6"/>
<path d="M20.8109 48.1818C20.7436 47.2144 19.2008 45.4373 15.4865 46.2469C12.8023 46.8293 11.8047 45.4373 11.8047 45.4373C11.8047 45.4373 12.0529 49.3673 16.0897 50.5413C19.9247 51.6688 20.9292 49.8801 20.8109 48.1818Z" fill="#E6E6E6"/>
<path d="M19.9643 54.1302C19.9435 54.1299 19.9231 54.1252 19.9043 54.1164C19.8855 54.1076 19.8688 54.0949 19.8553 54.0792C19.5861 53.7613 19.8065 52.998 20.1105 51.9448C20.5025 50.5899 20.9897 48.9056 20.5745 47.6829C20.3467 47.0379 20.0802 46.4073 19.7764 45.7944C19.1917 44.5625 18.6883 43.4976 19.1082 42.3864C19.1149 42.3687 19.125 42.3525 19.138 42.3387C19.1509 42.325 19.1665 42.3139 19.1837 42.3061C19.2009 42.2984 19.2195 42.2941 19.2384 42.2935C19.2573 42.293 19.2761 42.2961 19.2938 42.3028C19.3114 42.3093 19.3275 42.3192 19.3413 42.3319C19.355 42.3446 19.3661 42.36 19.3739 42.377C19.3816 42.3941 19.386 42.4125 19.3865 42.4312C19.3871 42.4499 19.384 42.4686 19.3773 42.4861C18.9992 43.486 19.4562 44.4512 20.0339 45.6715C20.3422 46.2952 20.6133 46.9367 20.8459 47.5924C21.2867 48.8986 20.7856 50.6316 20.3819 52.0236C20.1499 52.8449 19.8993 53.6917 20.0687 53.8936C20.0931 53.9225 20.1052 53.96 20.1021 53.9978C20.0991 54.0356 20.0812 54.0707 20.0525 54.0954C20.028 54.1169 19.9969 54.1293 19.9643 54.1302Z" fill="#E6E6E6"/>
<path d="M80.8461 57.0974H64.5898V88.7167H80.8461V57.0974Z" fill="#F5F5F5"/>
<path d="M80.8488 57.0974H79.5078V88.7167H80.8488V57.0974Z" fill="#F0F0F0"/>
<path d="M28.4152 71.3794H65.8438V58L28.4152 58V71.3794Z" fill="#E6E6E6"/>
<path d="M44.0255 88.7098H27.9781C27.9166 88.7098 27.8576 88.6854 27.814 88.6419C27.7705 88.5984 27.7461 88.5394 27.7461 88.4778C27.7461 88.4163 27.7705 88.3573 27.814 88.3138C27.8576 88.2703 27.9166 88.2458 27.9781 88.2458H44.0255C46.3455 88.2458 46.6541 87.5707 46.6541 84.8818V51.0098C46.6541 50.9483 46.6785 50.8893 46.722 50.8458C46.7656 50.8023 46.8246 50.7778 46.8861 50.7778C46.9476 50.7778 47.0066 50.8023 47.0501 50.8458C47.0937 50.8893 47.1181 50.9483 47.1181 51.0098V84.8818C47.1181 87.754 46.6703 88.7098 44.0255 88.7098Z" fill="#E6E6E6"/>
<path d="M30.2206 59.4685L80.8477 59.4685V57.0975L30.2206 57.0975V59.4685Z" fill="#F0F0F0"/>
<path d="M30.2211 57.0974H13.9648V88.7167H30.2211V57.0974Z" fill="#F5F5F5"/>
<path d="M30.2199 57.0974H28.8789V88.7167H30.2199V57.0974Z" fill="#F0F0F0"/>
<path d="M48.5172 57.0974H45.0117L45.8632 50.272H49.371L48.5172 57.0974Z" fill="#F0F0F0"/>
<path d="M49.293 57.0974H45.7852L46.6389 50.272H50.1444L49.293 57.0974Z" fill="#F5F5F5"/>
<path d="M49.7188 53.6847H46.2109L46.6378 50.272H50.1433L49.7188 53.6847Z" fill="#F0F0F0"/>
<path d="M36.8334 52.8682H61.6412C61.69 52.8683 61.7383 52.8579 61.7829 52.8379C61.8274 52.8178 61.8671 52.7884 61.8994 52.7517C61.9317 52.7151 61.9558 52.6719 61.9701 52.6252C61.9843 52.5785 61.9885 52.5292 61.9822 52.4808L60.0705 37.1873C60.0608 37.1039 60.0206 37.027 59.9577 36.9713C59.8948 36.9157 59.8135 36.8852 59.7295 36.8857H34.9217C34.8731 36.8857 34.825 36.896 34.7806 36.916C34.7363 36.9359 34.6967 36.9651 34.6644 37.0015C34.6322 37.0379 34.608 37.0807 34.5936 37.1272C34.5792 37.1736 34.5748 37.2226 34.5807 37.2709L36.4924 52.5666C36.5026 52.6499 36.5429 52.7265 36.6057 52.7821C36.6685 52.8376 36.7495 52.8683 36.8334 52.8682Z" fill="#F0F0F0"/>
<path d="M37.2006 52.8682H62.0083C62.0572 52.8683 62.1055 52.858 62.15 52.8379C62.1946 52.8178 62.2343 52.7884 62.2666 52.7517C62.2989 52.7151 62.323 52.6719 62.3372 52.6252C62.3515 52.5785 62.3557 52.5293 62.3494 52.4808L60.4377 37.1874C60.4268 37.1029 60.3849 37.0255 60.3202 36.9702C60.2555 36.9149 60.1725 36.8857 60.0874 36.8881H35.2889C35.2403 36.888 35.1922 36.8983 35.1478 36.9183C35.1035 36.9382 35.0639 36.9674 35.0316 37.0038C34.9994 37.0402 34.9752 37.0831 34.9608 37.1295C34.9464 37.1759 34.9419 37.2249 34.9479 37.2732L36.8595 52.569C36.8703 52.6518 36.9108 52.7279 36.9736 52.783C37.0364 52.838 37.1171 52.8684 37.2006 52.8682Z" fill="#F5F5F5"/>
<path d="M61.5479 52.0213L59.7592 37.7069C59.7558 37.6839 59.7444 37.6629 59.727 37.6476C59.7096 37.6323 59.6872 37.6237 59.664 37.6234H35.8423C35.8286 37.6229 35.815 37.6254 35.8025 37.6307C35.7899 37.6361 35.7787 37.6442 35.7696 37.6543C35.7605 37.6645 35.7538 37.6766 35.7499 37.6897C35.746 37.7028 35.7451 37.7166 35.7472 37.7301L37.5359 52.0468C37.5392 52.0698 37.5506 52.0908 37.568 52.1061C37.5855 52.1214 37.6078 52.13 37.631 52.1303H61.4528C61.4664 52.1301 61.4798 52.127 61.4922 52.1213C61.5046 52.1155 61.5156 52.1072 61.5246 52.0969C61.5335 52.0867 61.5402 52.0746 61.5442 52.0616C61.5483 52.0485 61.5495 52.0348 61.5479 52.0213Z" fill="#E6E6E6"/>
<path d="M59.0056 52.1305L52.7091 37.6235H47.1875L53.4863 52.1305H59.0056Z" fill="#EBEBEB"/>
<path d="M52.4214 52.1305L46.125 37.6235H44.1367L50.4332 52.1305H52.4214Z" fill="#EBEBEB"/>
<path d="M52.4844 57.0974H46.7725V57.0255C46.7725 56.8747 46.8324 56.7302 46.939 56.6236C47.0456 56.517 47.1902 56.4571 47.3409 56.4571H51.916C52.0667 56.4571 52.2113 56.517 52.3179 56.6236C52.4245 56.7302 52.4844 56.8747 52.4844 57.0255V57.0974Z" fill="#F5F5F5"/>
<path d="M47.4336 57.0974H43.5592V57.0255C43.5592 56.8747 43.6191 56.7302 43.7257 56.6236C43.8323 56.517 43.9768 56.4571 44.1276 56.4571H46.8652C47.0159 56.4571 47.1605 56.517 47.2671 56.6236C47.3737 56.7302 47.4336 56.8747 47.4336 57.0255V57.0974Z" fill="#F0F0F0"/>
<path d="M58.794 57.0975H41.1342L40.6562 55.6799H56.4972L58.794 57.0975Z" fill="#F5F5F5"/>
<path d="M43.0786 57.0975H40.16L39.7656 55.6799H42.6819L43.0786 57.0975Z" fill="#F0F0F0"/>
<path d="M63.2636 55.9121H65.9201C66.0757 55.9121 66.2299 55.9428 66.3737 56.0024C66.5176 56.0619 66.6483 56.1493 66.7583 56.2593C66.8684 56.3694 66.9557 56.5001 67.0153 56.644C67.0749 56.7878 67.1056 56.9419 67.1056 57.0976H62.0781C62.0781 56.9419 62.1088 56.7878 62.1684 56.644C62.2279 56.5001 62.3153 56.3694 62.4254 56.2593C62.5354 56.1493 62.6661 56.0619 62.81 56.0024C62.9538 55.9428 63.108 55.9121 63.2636 55.9121Z" fill="#F0F0F0"/>
<path d="M45.9514 19.4045H19.9883V32.4313H45.9514V19.4045Z" fill="#E6E6E6"/>
<path d="M47.2393 19.4045H20.3203V32.4313H47.2393V19.4045Z" fill="#F0F0F0"/>
<path d="M46.2109 31.4035V20.4299H21.3452V31.4035H46.2109Z" fill="white"/>
<path d="M22.3281 25.9167C22.3281 25.8054 22.3724 25.6986 22.4511 25.6198C22.5299 25.5411 22.6367 25.4968 22.748 25.4968H44.8043C44.9157 25.4968 45.0225 25.5411 45.1012 25.6198C45.18 25.6986 45.2242 25.8054 45.2242 25.9167C45.2242 25.9719 45.2133 26.0265 45.1922 26.0774C45.1711 26.1284 45.1402 26.1747 45.1012 26.2137C45.0622 26.2527 45.0159 26.2836 44.965 26.3047C44.914 26.3258 44.8594 26.3367 44.8043 26.3367H22.748C22.6929 26.3367 22.6383 26.3258 22.5873 26.3047C22.5364 26.2836 22.4901 26.2527 22.4511 26.2137C22.4121 26.1747 22.3812 26.1284 22.3601 26.0774C22.339 26.0265 22.3281 25.9719 22.3281 25.9167Z" fill="#F5F5F5"/>
<path d="M57.9981 99.1939C82.8412 99.1939 102.981 98.0181 102.981 96.5676C102.981 95.1172 82.8412 93.9414 57.9981 93.9414C33.155 93.9414 13.0156 95.1172 13.0156 96.5676C13.0156 98.0181 33.155 99.1939 57.9981 99.1939Z" fill="#F5F5F5"/>
<path d="M21.743 58L76.3488 58C77.8864 58 79.1328 56.7536 79.1328 55.216V21.0099C79.1328 19.4724 77.8864 18.2259 76.3488 18.2259L21.743 18.2259C20.2054 18.2259 18.959 19.4724 18.959 21.0099L18.959 55.216C18.959 56.7536 20.2054 58 21.743 58Z" fill="#263238"/>
<path d="M34.7469 94.3868L47.9408 81.1999L48.2656 80.8774V41.7599C48.2656 41.6209 48.3208 41.4875 48.4192 41.3892C48.5175 41.2908 48.6508 41.2356 48.7899 41.2356H49.3003C49.4394 41.2356 49.5727 41.2908 49.6711 41.3892C49.7694 41.4875 49.8246 41.6209 49.8246 41.7599V80.8705L50.1471 81.193L63.3363 94.3868C63.3783 94.4284 63.4115 94.4779 63.4343 94.5325C63.457 94.587 63.4687 94.6455 63.4687 94.7046C63.4687 94.7637 63.457 94.8222 63.4343 94.8768C63.4115 94.9313 63.3783 94.9808 63.3363 95.0225L62.8723 95.4865C62.788 95.5699 62.6742 95.6167 62.5556 95.6167C62.437 95.6167 62.3232 95.5699 62.2389 95.4865L49.8246 83.0722V95.0967C49.8246 95.2358 49.7694 95.3691 49.6711 95.4675C49.5727 95.5658 49.4394 95.621 49.3003 95.621H48.7899C48.7203 95.6223 48.6511 95.6096 48.5864 95.5838C48.5217 95.558 48.4628 95.5196 48.4131 95.4708C48.3635 95.422 48.324 95.3638 48.2971 95.2995C48.2702 95.2353 48.2563 95.1664 48.2563 95.0967V83.0768L35.8513 95.4911C35.7652 95.572 35.6515 95.6171 35.5334 95.6171C35.4153 95.6171 35.3016 95.572 35.2156 95.4911L34.7516 95.0271C34.6687 94.9414 34.622 94.8271 34.6211 94.7079C34.6202 94.5887 34.6653 94.4737 34.7469 94.3868Z" fill="#263238"/>
<path d="M72.2882 17.4138H70.5273V17.6458H72.2882V17.4138Z" fill="#EF233C"/>
<path d="M68.903 17.4138H65.2305V17.6458H68.903V17.4138Z" fill="#EF233C"/>
<path d="M22.3094 58L76.9152 58C78.4528 58 79.6992 56.7536 79.6992 55.216V21.0099C79.6992 19.4724 78.4528 18.2259 76.9152 18.2259L22.3094 18.2259C20.7718 18.2259 19.5254 19.4724 19.5254 21.0099L19.5254 55.216C19.5254 56.7536 20.7718 58 22.3094 58Z" fill="#EF233C"/>
<path d="M78.0742 55.2135V21.0074C78.0742 20.3668 77.5549 19.8474 76.9142 19.8474L22.3084 19.8474C21.6677 19.8474 21.1484 20.3668 21.1484 21.0074V55.2135C21.1484 55.8541 21.6677 56.3735 22.3084 56.3735H76.9142C77.5549 56.3735 78.0742 55.8541 78.0742 55.2135Z" fill="#FAFAFA"/>
<path d="M47.52 81.3926H50.5732C50.9793 81.3926 51.3086 81.0633 51.3086 80.6571V78.5715C51.3086 78.1653 50.9793 77.836 50.5732 77.836H47.52C47.1139 77.836 46.7846 78.1653 46.7846 78.5715V80.6571C46.7846 81.0633 47.1139 81.3926 47.52 81.3926Z" fill="#EF233C"/>
<path opacity="0.1" d="M42.3384 50.3881C44.4033 50.3881 46.4217 49.7758 48.1386 48.6286C49.8554 47.4814 51.1936 45.8509 51.9837 43.9433C52.7739 42.0356 52.9807 39.9365 52.5778 37.9113C52.175 35.8862 51.1807 34.0259 49.7206 32.5659C48.2606 31.1058 46.4003 30.1115 44.3752 29.7087C42.35 29.3058 40.2509 29.5126 38.3432 30.3028C36.4356 31.0929 34.8051 32.4311 33.6579 34.1479C32.5107 35.8648 31.8984 37.8832 31.8984 39.9481C31.8984 42.7169 32.9984 45.3724 34.9562 47.3303C36.9141 49.2881 39.5696 50.3881 42.3384 50.3881ZM42.3384 29.7215C44.362 29.7215 46.3401 30.3216 48.0226 31.4458C49.7051 32.57 51.0165 34.1679 51.7908 36.0374C52.5652 37.9069 52.7678 39.9641 52.373 41.9487C51.9783 43.9334 51.0038 45.7564 49.573 47.1873C48.1421 48.6181 46.3191 49.5925 44.3344 49.9873C42.3498 50.3821 40.2926 50.1795 38.4231 49.4051C36.5536 48.6307 34.9557 47.3194 33.8315 45.6369C32.7073 43.9543 32.1072 41.9762 32.1072 39.9527C32.1103 37.2402 33.1892 34.6396 35.1073 32.7215C37.0253 30.8035 39.6259 29.7246 42.3384 29.7215Z" fill="black"/>
<path d="M29.8829 24.3181H39.0724C39.3998 24.3181 39.7137 24.4482 39.9452 24.6796C40.1767 24.9111 40.3067 25.225 40.3067 25.5524V42.5348C40.3067 42.8621 40.1767 43.176 39.9452 43.4075C39.7137 43.639 39.3998 43.769 39.0724 43.769H27.3124C26.985 43.769 26.6711 43.639 26.4396 43.4075C26.2082 43.176 26.0781 42.8621 26.0781 42.5348V28.1229L29.8829 24.3181Z" fill="#EF233C"/>
<path d="M30.4234 42.0709H38.0794C38.2207 42.0672 38.355 42.0084 38.4534 41.9069C38.5519 41.8054 38.6067 41.6694 38.606 41.528C38.606 41.3852 38.5493 41.2483 38.4484 41.1474C38.3474 41.0465 38.2105 40.9897 38.0678 40.9897H30.4118C30.2708 40.9928 30.1366 41.0507 30.0378 41.1513C29.939 41.2518 29.8834 41.387 29.8828 41.528C29.8828 41.6716 29.9397 41.8093 30.041 41.911C30.1423 42.0128 30.2798 42.0703 30.4234 42.0709Z" fill="white"/>
<path d="M34.0226 27.0953H38.0664C38.2091 27.0953 38.346 27.0386 38.447 26.9376C38.5479 26.8367 38.6046 26.6998 38.6046 26.557C38.6046 26.4143 38.5479 26.2774 38.447 26.1764C38.346 26.0755 38.2091 26.0188 38.0664 26.0188H34.0226C33.8799 26.0188 33.743 26.0755 33.642 26.1764C33.5411 26.2774 33.4844 26.4143 33.4844 26.557C33.4844 26.6998 33.5411 26.8367 33.642 26.9376C33.743 27.0386 33.8799 27.0953 34.0226 27.0953Z" fill="white"/>
<path d="M31.3859 29.232H38.0675C38.2102 29.232 38.3471 29.1753 38.4481 29.0744C38.549 28.9734 38.6057 28.8365 38.6057 28.6938C38.6057 28.551 38.549 28.4141 38.4481 28.3132C38.3471 28.2122 38.2102 28.1555 38.0675 28.1555H31.3859C31.2431 28.1555 31.1062 28.2122 31.0053 28.3132C30.9044 28.4141 30.8477 28.551 30.8477 28.6938C30.8477 28.8365 30.9044 28.9734 31.0053 29.0744C31.1062 29.1753 31.2431 29.232 31.3859 29.232Z" fill="white"/>
<path d="M28.314 31.3734H38.058C38.2007 31.3734 38.3377 31.3166 38.4386 31.2157C38.5395 31.1148 38.5962 30.9779 38.5962 30.8351C38.5962 30.6924 38.5395 30.5555 38.4386 30.4545C38.3377 30.3536 38.2007 30.2969 38.058 30.2969H28.314C28.171 30.2969 28.0339 30.3535 27.9326 30.4544C27.8313 30.5553 27.7741 30.6922 27.7734 30.8351C27.7741 30.9781 27.8313 31.115 27.9326 31.2159C28.0339 31.3167 28.171 31.3734 28.314 31.3734Z" fill="white"/>
<path d="M28.314 33.5123H33.9818C34.1247 33.5123 34.2619 33.4556 34.3632 33.3548C34.4645 33.2539 34.5217 33.117 34.5223 32.974C34.5217 32.8311 34.4645 32.6942 34.3632 32.5933C34.2619 32.4924 34.1247 32.4358 33.9818 32.4358H28.314C28.171 32.4358 28.0339 32.4924 27.9326 32.5933C27.8313 32.6942 27.7741 32.8311 27.7734 32.974C27.7741 33.117 27.8313 33.2539 27.9326 33.3548C28.0339 33.4556 28.171 33.5123 28.314 33.5123Z" fill="white"/>
<path d="M36.5851 33.5123H38.0676C38.2103 33.5123 38.3472 33.4556 38.4482 33.3546C38.5491 33.2537 38.6058 33.1168 38.6058 32.974C38.6058 32.8313 38.5491 32.6944 38.4482 32.5934C38.3472 32.4925 38.2103 32.4358 38.0676 32.4358H36.5851C36.4424 32.4358 36.3055 32.4925 36.2045 32.5934C36.1036 32.6944 36.0469 32.8313 36.0469 32.974C36.0469 33.1168 36.1036 33.2537 36.2045 33.3546C36.3055 33.4556 36.4424 33.5123 36.5851 33.5123Z" fill="white"/>
<path d="M28.314 35.6514H38.058C38.2007 35.6514 38.3377 35.5947 38.4386 35.4938C38.5395 35.3928 38.5962 35.2559 38.5962 35.1132C38.5962 34.9704 38.5395 34.8335 38.4386 34.7326C38.3377 34.6317 38.2007 34.575 38.058 34.575H28.314C28.171 34.5749 28.0339 34.6316 27.9326 34.7325C27.8313 34.8333 27.7741 34.9702 27.7734 35.1132C27.7741 35.2562 27.8313 35.3931 27.9326 35.4939C28.0339 35.5948 28.171 35.6514 28.314 35.6514Z" fill="white"/>
<path d="M32.0796 37.7903H38.0675C38.2103 37.7903 38.3472 37.7336 38.4481 37.6327C38.5491 37.5318 38.6058 37.3949 38.6058 37.2521C38.6058 37.1094 38.5491 36.9725 38.4481 36.8715C38.3472 36.7706 38.2103 36.7139 38.0675 36.7139H32.0796C31.9367 36.7139 31.7995 36.7705 31.6982 36.8714C31.5969 36.9722 31.5397 37.1091 31.5391 37.2521C31.5397 37.3951 31.5969 37.532 31.6982 37.6328C31.7995 37.7337 31.9367 37.7903 32.0796 37.7903Z" fill="white"/>
<path d="M28.314 37.7903H29.9125C30.0552 37.7903 30.1921 37.7336 30.2931 37.6327C30.394 37.5318 30.4507 37.3949 30.4507 37.2521C30.4507 37.1094 30.394 36.9725 30.2931 36.8715C30.1921 36.7706 30.0552 36.7139 29.9125 36.7139H28.314C28.171 36.7139 28.0339 36.7705 27.9326 36.8714C27.8313 36.9722 27.7741 37.1091 27.7734 37.2521C27.7741 37.3951 27.8313 37.532 27.9326 37.6328C28.0339 37.7337 28.171 37.7903 28.314 37.7903Z" fill="white"/>
<path d="M28.314 39.9295H38.058C38.2007 39.9295 38.3377 39.8728 38.4386 39.7719C38.5395 39.6709 38.5962 39.534 38.5962 39.3913C38.5962 39.2485 38.5395 39.1116 38.4386 39.0107C38.3377 38.9097 38.2007 38.853 38.058 38.853H28.314C28.171 38.853 28.0339 38.9097 27.9326 39.0105C27.8313 39.1114 27.7741 39.2483 27.7734 39.3913C27.7741 39.5342 27.8313 39.6711 27.9326 39.772C28.0339 39.8729 28.171 39.9295 28.314 39.9295Z" fill="white"/>
<path opacity="0.2" d="M29.8829 24.3181V26.8887C29.8829 27.216 29.7529 27.53 29.5214 27.7614C29.29 27.9929 28.976 28.1229 28.6487 28.1229H26.0781L29.8829 24.3181Z" fill="black"/>
<path d="M60.7065 25.8748V22.2C57.6035 22.1967 54.5864 23.2184 52.1238 25.1063C49.6612 26.9942 47.8912 29.6426 47.0886 32.6399C46.286 35.6373 46.4959 38.8158 47.6856 41.6817C48.8753 44.5475 50.9782 46.9401 53.6676 48.4879L55.505 45.3048C53.5199 44.1599 51.9682 42.3919 51.0906 40.2749C50.213 38.158 50.0587 35.8107 50.6515 33.5971C51.2443 31.3835 52.5511 29.4274 54.3691 28.0324C56.1872 26.6374 58.4149 25.8814 60.7065 25.8818V25.8748Z" fill="#263238"/>
<path opacity="0.2" d="M74.7894 36.2847C74.7888 32.5498 73.305 28.968 70.6642 26.3268C68.0235 23.6856 64.4419 22.2012 60.707 22.2V25.8748C63.4677 25.8754 66.1151 26.9724 68.0672 28.9245C70.0193 30.8766 71.1163 33.524 71.1169 36.2847H74.7894Z" fill="black"/>
<path d="M74.7892 36.2847H71.1167C71.1167 38.1116 70.6358 39.9063 69.7224 41.4884C68.8089 43.0706 67.4951 44.3844 65.9129 45.2979C64.3308 46.2113 62.5361 46.6922 60.7092 46.6922C58.8823 46.6922 57.0876 46.2113 55.5054 45.2979L53.668 48.4879C55.8085 49.721 58.2358 50.3694 60.7061 50.3679C63.1764 50.3664 65.6029 49.7151 67.7419 48.4794C69.8809 47.2437 71.6573 45.467 72.8927 43.3278C74.128 41.1885 74.7789 38.7619 74.78 36.2916L74.7892 36.2847Z" fill="#EF233C"/>
<path d="M40.8945 46.3929L45.3466 40.6416L49.7987 46.3929H47.7037V53.8401H42.9895V46.3929H40.8945Z" fill="#EF233C"/>
<path d="M78.4187 93.6653L76.6602 93.0575L77.6021 88.8188L79.363 89.429L78.4187 93.6653Z" fill="#FF8B7B"/>
<path opacity="0.2" d="M77.6021 88.821L77.1172 91.0042L78.8757 91.6143L79.3629 89.4312L77.6021 88.821Z" fill="black"/>
<path d="M95.3364 94.6652H93.4758L92.0234 90.3523H93.8864L95.3364 94.6652Z" fill="#FF8B7B"/>
<path opacity="0.2" d="M93.8864 90.3547H92.0234L92.7728 92.5773H94.6358L93.8864 90.3547Z" fill="black"/>
<path d="M93.2294 94.4495H95.4984C95.5353 94.4497 95.571 94.4624 95.5997 94.4856C95.6283 94.5088 95.6483 94.541 95.6562 94.5771L96.025 96.2335C96.0338 96.2737 96.0334 96.3153 96.0237 96.3553C96.0141 96.3953 95.9955 96.4325 95.9694 96.4642C95.9432 96.496 95.9102 96.5213 95.8728 96.5384C95.8355 96.5555 95.7947 96.5639 95.7536 96.563C95.0228 96.5514 94.4892 96.5073 93.5682 96.5073C93.0021 96.5073 91.2969 96.5676 90.515 96.5676C89.7332 96.5676 89.6311 95.7951 89.9513 95.7231C91.385 95.4099 92.4662 94.9784 92.9255 94.5631C93.0098 94.4899 93.1177 94.4495 93.2294 94.4495Z" fill="#263238"/>
<path d="M76.7415 92.858L78.6625 93.5239C78.6975 93.5358 78.7274 93.5593 78.7472 93.5905C78.767 93.6217 78.7756 93.6588 78.7715 93.6955L78.5767 95.3799C78.5731 95.4212 78.56 95.4612 78.5385 95.4968C78.517 95.5323 78.4877 95.5624 78.4527 95.5848C78.4178 95.6072 78.3781 95.6213 78.3369 95.626C78.2956 95.6307 78.2538 95.6259 78.2147 95.6119C77.5187 95.3613 76.5374 94.9739 75.6627 94.6839C74.6443 94.3312 73.7441 94.0807 72.5493 93.6677C71.8278 93.4171 71.8788 92.6168 72.2059 92.6562C73.6861 92.8325 74.8206 93.1875 76.2636 92.8673C76.4189 92.8193 76.5845 92.8161 76.7415 92.858Z" fill="#263238"/>
<path d="M55.0383 32.2131L74.0437 49.1306L73.7189 49.4948L54.8828 32.3848L55.0383 32.2131Z" fill="#263238"/>
<path d="M86.861 38.6836C86.7264 39.0873 86.5965 39.4376 86.448 39.8042C86.2996 40.1707 86.1511 40.5257 85.984 40.883C85.6654 41.5944 85.3136 42.2958 84.9284 42.9872C84.5359 43.6898 84.0972 44.3656 83.6153 45.0102C83.1079 45.7028 82.5129 46.3267 81.8452 46.8662L81.5644 47.0751C81.4693 47.1423 81.3626 47.2073 81.2605 47.2722C81.0583 47.3956 80.8483 47.5057 80.6318 47.6017C80.2213 47.7843 79.7939 47.9265 79.3558 48.0262C78.5404 48.2071 77.7062 48.2897 76.8711 48.2722C76.0768 48.254 75.285 48.1764 74.5024 48.0402C74.1172 47.9775 73.7344 47.8917 73.3563 47.8082C72.9781 47.7247 72.6092 47.6202 72.2148 47.4903L72.5257 46.1285C72.8621 46.1563 73.2356 46.1842 73.5906 46.2027C73.9456 46.2213 74.3098 46.2236 74.6671 46.2282C75.3715 46.2366 76.0757 46.2026 76.776 46.1262C77.4356 46.06 78.0864 45.9247 78.7178 45.7225C79.0017 45.6293 79.276 45.5088 79.5368 45.3629C79.6578 45.2986 79.7741 45.2258 79.8848 45.1448C79.9358 45.103 79.9868 45.0683 80.0402 45.0242L80.2026 44.885C80.6669 44.4482 81.0801 43.9602 81.4345 43.4303C81.8165 42.8561 82.1665 42.2613 82.4832 41.6486C82.808 41.0245 83.1119 40.3819 83.3996 39.7299C83.5449 39.402 83.6841 39.0734 83.8172 38.7439C83.9471 38.4168 84.0863 38.0688 84.1976 37.7695L86.861 38.6836Z" fill="#FF8B7B"/>
<path d="M87.6168 37.7694C88.0159 39.5025 84.8096 44.3791 84.8096 44.3791L80.7891 41.4397C81.5472 40.0018 82.4572 38.6492 83.5035 37.4052C85.0718 35.6373 87.1783 35.8647 87.6168 37.7694Z" fill="#263238"/>
<path d="M72.7594 46.1309L70.7734 45.6831L71.0634 48.0425C71.4321 48.1409 71.8226 48.1187 72.1778 47.9793C72.533 47.8399 72.8344 47.5905 73.0378 47.2677L72.7594 46.1309Z" fill="#FF8B7B"/>
<path d="M69.4766 45.625L70.1215 47.4091L71.0634 48.0424L70.7734 45.683L69.4766 45.625Z" fill="#FF8B7B"/>
<path d="M95.945 37.5098C93.5206 44.4512 93.4766 51.968 93.2051 53.476C91.7574 53.2834 86.3054 52.548 83.3335 52.1466C82.6654 41.4886 85.5932 36.2082 85.5932 36.2082C85.5932 36.2082 86.2382 36.1224 87.1105 36.0853C87.3842 36.0853 87.6789 36.0667 87.9851 36.069C88.1545 36.069 88.3262 36.069 88.5002 36.0806C89.909 36.1919 91.3102 36.384 92.697 36.656C92.9592 36.7047 93.226 36.7604 93.4835 36.8184C93.741 36.8764 93.9475 36.9321 94.1795 36.9901C95.1771 37.243 95.945 37.5098 95.945 37.5098Z" fill="#263238"/>
<path d="M94.1805 36.9808L93.401 37.5701C92.4103 38.3194 91.2712 39.0131 89.6356 39.0131C89.45 39.0131 89.2598 39.0131 89.0695 38.9853C87.7146 38.8507 87.1973 38.1918 87.0001 37.6606C86.9118 37.4039 86.8763 37.132 86.8958 36.8613C86.9154 36.5906 86.9895 36.3266 87.1138 36.0853C87.3875 36.0853 87.6822 36.0667 87.9884 36.069C88.1578 36.069 88.3294 36.069 88.5034 36.0806C89.9123 36.1919 91.3135 36.384 92.7003 36.656C92.9625 36.7047 93.2293 36.7604 93.4868 36.8184C93.7443 36.8764 93.9624 36.9228 94.1805 36.9808Z" fill="#EF233C"/>
<path d="M92.9196 31.8652C92.4742 33.1807 91.8756 35.619 92.6992 36.6468C91.8664 37.2778 90.7945 37.99 89.1821 37.83C87.5697 37.6699 88.0012 36.605 88.5024 36.0807C90.0568 35.9252 90.1681 34.8024 90.0475 33.7166L92.9196 31.8652Z" fill="#FF8B7B"/>
<path opacity="0.2" d="M91.749 32.6213L90.0508 33.7164C90.0818 33.9688 90.0912 34.2234 90.0786 34.4773C90.6656 34.4773 91.5402 33.9484 91.6817 33.3545C91.7489 33.1163 91.7717 32.8678 91.749 32.6213Z" fill="black"/>
<path d="M89.5004 26.5894C88.0573 26.4711 87.5585 29.9441 88.4587 30.6099C89.3589 31.2758 92.2008 26.8098 89.5004 26.5894Z" fill="#263238"/>
<path d="M93.3523 29.8561C92.995 31.668 92.8767 32.7468 91.8257 33.5681C90.2481 34.7931 88.1137 33.6516 87.9142 31.7678C87.7425 30.0719 88.3573 27.3923 90.2458 26.8958C90.6618 26.7868 91.0987 26.786 91.515 26.8935C91.9313 27.0009 92.3133 27.213 92.6246 27.5097C92.9358 27.8063 93.1661 28.1776 93.2935 28.5883C93.4208 28.999 93.4411 29.4354 93.3523 29.8561Z" fill="#FF8B7B"/>
<path d="M92.9844 31.6285C92.0912 32.1853 91.2305 27.2344 93.7106 27.3504C96.7452 27.4942 94.8892 30.4476 92.9844 31.6285Z" fill="#263238"/>
<path d="M93.7581 28.058C92.4334 28.4895 86.8213 27.9211 86.1253 26.5315C86.5244 26.5763 86.9284 26.5254 87.3039 26.383C87.3039 26.383 86.116 26.0605 85.9258 24.9724C88.0277 26.0466 92.4659 24.6476 94.0458 25.8401C95.3659 26.8238 94.7882 27.7239 93.7581 28.058Z" fill="#263238"/>
<path d="M94.399 27.6078C94.399 27.6078 94.3225 27.0696 95.8838 27.6867C94.5939 27.4547 94.4408 27.8422 94.4408 27.8422L94.399 27.6078Z" fill="#263238"/>
<path d="M93.9062 31.9811C93.7588 32.1577 93.5781 32.3036 93.3742 32.4103C93.1704 32.517 92.9475 32.5824 92.7184 32.6029C92.1036 32.6539 91.9133 32.0785 92.1801 31.5589C92.4121 31.0949 93.0316 30.5033 93.6 30.6958C94.1684 30.8884 94.2681 31.5519 93.9062 31.9811Z" fill="#FF8B7B"/>
<path d="M76.5938 90.3709L79.575 91.408C79.575 91.408 82.4935 79.9031 83.4076 74.1727C83.686 72.4304 84.3078 70.0176 85.0594 67.4447C86.006 64.1967 87.159 60.6981 88.094 57.9582C89.0823 55.0721 89.8224 53.0328 89.8224 53.0328L83.3264 52.1582C83.3264 52.1582 78.3825 67.3148 77.8257 72.9709C77.2549 78.8405 76.5938 90.3709 76.5938 90.3709Z" fill="#EF233C"/>
<path opacity="0.2" d="M85.0597 67.4331C86.0062 64.1851 87.1593 60.6865 88.0942 57.9466L87.5119 56.4456C85.7719 58.2644 84.9553 64.1828 85.0597 67.4331Z" fill="black"/>
<path d="M86.8355 52.6199C86.8355 52.6199 86.5153 68.5745 86.9538 74.0126C87.4317 79.9704 91.8954 92.1457 91.8954 92.1457H95.3081C95.3081 92.1457 93.0322 81.0097 92.3338 75.2097C91.5381 68.6209 93.2062 53.4713 93.2062 53.4713L86.8355 52.6199Z" fill="#EF233C"/>
<path d="M91.4889 92.22H95.5048V91.0205L91.0156 90.9417L91.4889 92.22Z" fill="#263238"/>
<path d="M76.1953 90.3106L79.7472 91.5402L80.144 90.3918L76.1953 88.958V90.3106Z" fill="#263238"/>
<path d="M90.5106 29.993C90.492 30.1415 90.3969 30.2505 90.2995 30.2389C90.202 30.2273 90.1394 30.0928 90.1603 29.9443C90.1811 29.7958 90.2739 29.6868 90.3714 29.6984C90.4688 29.71 90.5315 29.8445 90.5106 29.993Z" fill="#263238"/>
<path d="M88.8286 29.7654C88.81 29.9139 88.7149 30.0253 88.6174 30.0113C88.52 29.9974 88.4574 29.8675 88.4759 29.719C88.4945 29.5705 88.5919 29.4592 88.6894 29.4731C88.7868 29.487 88.8564 29.6169 88.8286 29.7654Z" fill="#263238"/>
<path d="M89.3543 29.9116C89.1161 30.3425 88.8194 30.7383 88.4727 31.0879C88.5644 31.1754 88.6744 31.2416 88.7947 31.2817C88.915 31.3218 89.0427 31.3349 89.1687 31.3199L89.3543 29.9116Z" fill="#FF5652"/>
<path d="M89.7374 31.8002C89.9061 31.803 90.0736 31.7713 90.2295 31.7071C90.3855 31.6428 90.5268 31.5474 90.6446 31.4267C90.6523 31.4178 90.6561 31.4062 90.6552 31.3944C90.6543 31.3827 90.6488 31.3717 90.6399 31.364C90.631 31.3564 90.6194 31.3525 90.6076 31.3534C90.5959 31.3543 90.585 31.3598 90.5773 31.3687C90.445 31.5007 90.2833 31.5996 90.1055 31.6573C89.9277 31.7149 89.7388 31.7297 89.5542 31.7004C89.5425 31.6989 89.5306 31.7021 89.5213 31.7093C89.5119 31.7164 89.5058 31.727 89.5043 31.7387C89.5027 31.7504 89.5059 31.7622 89.5131 31.7716C89.5203 31.7809 89.5309 31.7871 89.5426 31.7886C89.6072 31.797 89.6723 31.8008 89.7374 31.8002Z" fill="#263238"/>
<path d="M91.1058 29.5196C91.1196 29.5227 91.1338 29.5227 91.1476 29.5196C91.1579 29.514 91.1669 29.5064 91.1742 29.4973C91.1816 29.4882 91.187 29.4778 91.1902 29.4665C91.1935 29.4553 91.1944 29.4436 91.1931 29.432C91.1917 29.4204 91.1881 29.4091 91.1824 29.3989C91.1166 29.2745 91.0221 29.1674 90.9067 29.0867C90.7913 29.0061 90.6584 28.954 90.5189 28.9349C90.5073 28.9343 90.4957 28.936 90.4848 28.9398C90.4738 28.9437 90.4638 28.9497 90.4551 28.9574C90.4465 28.9652 90.4395 28.9746 90.4345 28.9851C90.4295 28.9955 90.4267 29.0069 90.4261 29.0185C90.4251 29.0299 90.4265 29.0415 90.4301 29.0524C90.4337 29.0633 90.4394 29.0734 90.447 29.0821C90.4546 29.0907 90.4638 29.0978 90.4742 29.1028C90.4845 29.1078 90.4958 29.1107 90.5073 29.1113C90.6168 29.1267 90.7211 29.168 90.8114 29.2317C90.9018 29.2955 90.9757 29.3798 91.027 29.4778C91.0352 29.4912 91.0469 29.5021 91.0607 29.5094C91.0746 29.5168 91.0902 29.5203 91.1058 29.5196Z" fill="#263238"/>
<path d="M88.1835 29.088C88.1982 29.0884 88.2128 29.0849 88.2258 29.078C88.2388 29.0711 88.2498 29.061 88.2578 29.0486C88.3163 28.9544 88.3966 28.8755 88.4918 28.8186C88.5871 28.7617 88.6945 28.7284 88.8053 28.7215C88.8285 28.7209 88.8506 28.7114 88.867 28.695C88.8834 28.6786 88.8928 28.6565 88.8934 28.6333C88.8934 28.6099 88.8841 28.5875 88.8676 28.571C88.8511 28.5545 88.8287 28.5452 88.8053 28.5452C88.6651 28.5517 88.5286 28.592 88.4074 28.6627C88.2863 28.7334 88.184 28.8324 88.1093 28.9512C88.1027 28.9607 88.0981 28.9715 88.0957 28.9829C88.0933 28.9943 88.0931 29.006 88.0953 29.0175C88.0974 29.0289 88.1018 29.0398 88.1082 29.0495C88.1146 29.0592 88.1228 29.0676 88.1325 29.0741C88.1479 29.0834 88.1655 29.0882 88.1835 29.088Z" fill="#263238"/>
<path d="M92.6115 94.7765C92.7759 94.7718 92.9393 94.7492 93.0987 94.7092C93.1068 94.7066 93.1141 94.7019 93.1196 94.6954C93.1252 94.689 93.1289 94.6812 93.1304 94.6728C93.1318 94.6644 93.1309 94.6558 93.1278 94.6479C93.1247 94.64 93.1194 94.6331 93.1127 94.628C93.0431 94.5862 92.4445 94.2174 92.238 94.3218C92.2152 94.3338 92.196 94.3518 92.1825 94.3739C92.1691 94.3959 92.1618 94.4212 92.1615 94.447C92.1572 94.4903 92.1634 94.534 92.1796 94.5744C92.1957 94.6147 92.2213 94.6506 92.2543 94.679C92.3591 94.7507 92.4849 94.785 92.6115 94.7765ZM92.9711 94.6466C92.6556 94.7092 92.412 94.6976 92.3099 94.6118C92.2875 94.5926 92.2702 94.5681 92.2597 94.5406C92.2491 94.513 92.2457 94.4832 92.2496 94.454C92.2489 94.4434 92.2512 94.4328 92.2561 94.4234C92.261 94.414 92.2684 94.4061 92.2775 94.4006C92.3842 94.345 92.7275 94.505 92.9711 94.6558V94.6466Z" fill="#EF233C"/>
<path d="M93.0895 94.7092C93.0971 94.7113 93.1051 94.7113 93.1127 94.7092C93.1192 94.7049 93.1245 94.699 93.1282 94.6921C93.1318 94.6853 93.1337 94.6776 93.1336 94.6698C93.1336 94.6466 93.0872 94.1083 92.8691 93.932C92.8437 93.9096 92.8137 93.893 92.7813 93.8833C92.7488 93.8737 92.7146 93.8713 92.6812 93.8763C92.6484 93.8762 92.6166 93.8875 92.5912 93.9082C92.5658 93.929 92.5484 93.9579 92.542 93.99C92.5025 94.1988 92.876 94.6071 93.0686 94.7115L93.0895 94.7092ZM92.7136 93.9598C92.7507 93.9596 92.7865 93.9738 92.8134 93.9993C92.9445 94.1664 93.0214 94.3696 93.0338 94.5816C92.8436 94.4354 92.6046 94.1176 92.6278 94.0062C92.6278 93.9946 92.6278 93.9668 92.6928 93.9598H92.7136Z" fill="#EF233C"/>
<path d="M76.4826 93.0319C76.4906 93.0316 76.4983 93.0293 76.5052 93.0252C76.5121 93.0212 76.5179 93.0155 76.522 93.0087C76.527 93.0011 76.5297 92.9923 76.5297 92.9832C76.5297 92.9741 76.527 92.9653 76.522 92.9577C76.4571 92.8881 75.8748 92.2849 75.6196 92.329C75.5957 92.3333 75.5734 92.3437 75.5547 92.3591C75.536 92.3745 75.5216 92.3945 75.5128 92.4171C75.4941 92.4529 75.4844 92.4927 75.4844 92.5331C75.4844 92.5735 75.4941 92.6133 75.5128 92.6491C75.6474 92.8811 76.174 92.9925 76.478 93.0342L76.4826 93.0319ZM75.6428 92.4148C75.7912 92.4148 76.1253 92.6932 76.3573 92.9229C75.9467 92.8533 75.6613 92.7373 75.5871 92.6027C75.5745 92.5796 75.5679 92.5537 75.5679 92.5273C75.5679 92.501 75.5745 92.4751 75.5871 92.4519C75.5894 92.4428 75.5944 92.4346 75.6014 92.4284C75.6084 92.4222 75.6172 92.4182 75.6265 92.4171L75.6428 92.4148Z" fill="#EF233C"/>
<path d="M76.4859 93.0319H76.4975C76.5052 93.0301 76.5122 93.0261 76.5176 93.0203C76.523 93.0145 76.5265 93.0072 76.5277 92.9994C76.5277 92.9785 76.6506 92.489 76.4906 92.2269C76.4679 92.1892 76.438 92.1565 76.4025 92.1306C76.3671 92.1047 76.3268 92.0862 76.2841 92.0761C76.1634 92.0482 76.1124 92.0946 76.0869 92.1387C75.9871 92.3266 76.2748 92.8533 76.4558 93.0226C76.4643 93.0293 76.4751 93.0326 76.4859 93.0319ZM76.2168 92.1526H76.2632C76.2947 92.1597 76.3244 92.1732 76.3503 92.1924C76.3763 92.2116 76.398 92.2359 76.414 92.264C76.4933 92.4623 76.5088 92.6805 76.4581 92.8881C76.2864 92.6816 76.1054 92.2849 76.1658 92.1712C76.1681 92.1805 76.1797 92.1619 76.2168 92.1619V92.1526Z" fill="#EF233C"/>
<path d="M96.296 38.5745C96.4793 38.9109 96.6301 39.2078 96.7786 39.528C96.927 39.8481 97.0709 40.1613 97.2124 40.4792C97.4862 41.1195 97.7414 41.7714 97.9664 42.4349C98.1914 43.0985 98.391 43.7805 98.5603 44.4742L98.6786 45.0009L98.7761 45.5368C98.8109 45.7131 98.8318 45.8987 98.8573 46.082L98.8921 46.3557V46.423L98.9037 46.5367C98.9037 46.6249 98.9037 46.7014 98.9037 46.7687C98.884 47.2565 98.7714 47.736 98.5719 48.1816C98.4197 48.5395 98.2422 48.886 98.0406 49.2186C97.6683 49.829 97.256 50.4142 96.8064 50.9702C95.9405 52.0478 94.9918 53.0562 93.9691 53.9862L92.9297 53.0582C93.6744 51.9841 94.4122 50.8751 95.0757 49.7777C95.4023 49.2432 95.7004 48.6919 95.9689 48.1259C96.0898 47.872 96.1929 47.61 96.2774 47.3417C96.34 47.1693 96.3707 46.9869 96.3679 46.8035C96.3679 46.8151 96.3679 46.8174 96.3679 46.7919L96.3563 46.7385L96.3076 46.5065C96.2751 46.3604 96.2473 46.2142 96.2055 46.0657L96.0895 45.6203L95.9573 45.1749C95.7717 44.5809 95.5652 43.9847 95.3332 43.3908C95.1012 42.7969 94.8553 42.2076 94.5954 41.6206C94.4655 41.326 94.3356 41.0337 94.1987 40.7437L93.802 39.9038L96.296 38.5745Z" fill="#FF8B7B"/>
<path d="M95.9485 37.5096C97.612 38.143 98.7325 42.1635 98.7325 42.1635L95.2943 45.5971C95.2943 45.5971 93.8095 42.6206 93.2063 40.4003C92.5544 37.9806 93.9324 36.744 95.9485 37.5096Z" fill="#263238"/>
<path d="M93.3559 52.7822L91.5625 53.3738L93.1865 55.1161C93.1865 55.1161 94.6017 54.2717 94.2398 53.4713L93.3559 52.7822Z" fill="#FF8B7B"/>
<path d="M90.6914 54.6637L92.0996 56.0395L93.1831 55.1161L91.5614 53.3738L90.6914 54.6637Z" fill="#FF8B7B"/>
</svg>
