<svg width="27" height="27" viewBox="0 0 27 27" fill="none" xmlns="http://www.w3.org/2000/svg">
<path d="M24 0H3C1.3425 0 0 1.3425 0 3V24C0 25.6575 1.3425 27 3 27H24C25.6575 27 27 25.6575 27 24V3C27 1.3425 25.6575 0 24 0ZM9 21H5.2155V10.5H9V21ZM7.041 8.5755C5.8845 8.5755 5.112 7.8045 5.112 6.7755C5.112 5.7465 5.883 4.9755 7.1685 4.9755C8.325 4.9755 9.0975 5.7465 9.0975 6.7755C9.0975 7.8045 8.3265 8.5755 7.041 8.5755ZM22.5 21H18.837V15.261C18.837 13.674 17.8605 13.308 17.4945 13.308C17.1285 13.308 15.9075 13.5525 15.9075 15.261C15.9075 15.5055 15.9075 21 15.9075 21H12.123V10.5H15.9075V11.9655C16.395 11.1105 17.3715 10.5 19.203 10.5C21.0345 10.5 22.5 11.9655 22.5 15.261V21Z" fill="white"/>
</svg>
