<svg width="28" height="27" viewBox="0 0 28 27" fill="none" xmlns="http://www.w3.org/2000/svg">
<path d="M24.5125 0H3.51245C1.85495 0 0.512451 1.3425 0.512451 3V24C0.512451 25.6575 1.85495 27 3.51245 27H24.5125C26.17 27 27.5125 25.6575 27.5125 24V3C27.5125 1.3425 26.17 0 24.5125 0ZM9.51245 21H5.72795V10.5H9.51245V21ZM7.55345 8.5755C6.39695 8.5755 5.62445 7.8045 5.62445 6.7755C5.62445 5.7465 6.39545 4.9755 7.68095 4.9755C8.83745 4.9755 9.60995 5.7465 9.60995 6.7755C9.60995 7.8045 8.83895 8.5755 7.55345 8.5755ZM23.0125 21H19.3495V15.261C19.3495 13.674 18.373 13.308 18.007 13.308C17.641 13.308 16.42 13.5525 16.42 15.261C16.42 15.5055 16.42 21 16.42 21H12.6355V10.5H16.42V11.9655C16.9074 11.1105 17.884 10.5 19.7155 10.5C21.547 10.5 23.0125 11.9655 23.0125 15.261V21Z" fill="#4A4B4C"/>
</svg>
