<svg width="116" height="116" viewBox="0 0 116 116" fill="none" xmlns="http://www.w3.org/2000/svg">
<path d="M98.2574 29.3573C93.7085 12.6023 83.4492 4.87203 71.2277 9.21043C61.2302 12.76 56.4775 24.592 51.1664 28.84C43.4623 35.0181 31.8673 32.661 21.8117 45.182C15.435 53.1211 16.1775 71.3191 22.1747 84.39C26.9141 94.7071 38.9847 104.901 50.0147 95.4541C65.0449 82.5688 59.6427 63.8789 66.4005 57.4618C73.8576 50.3788 82.3985 59.4755 93.5329 51.7894C97.9591 48.72 100.819 38.7928 98.2574 29.3573Z" fill="#EF233C"/>
<path opacity="0.7" d="M98.2574 29.3573C93.7085 12.6023 83.4492 4.87203 71.2277 9.21043C61.2302 12.76 56.4775 24.592 51.1664 28.84C43.4623 35.0181 31.8673 32.661 21.8117 45.182C15.435 53.1211 16.1775 71.3191 22.1747 84.39C26.9141 94.7071 38.9847 104.901 50.0147 95.4541C65.0449 82.5688 59.6427 63.8789 66.4005 57.4618C73.8576 50.3788 82.3985 59.4755 93.5329 51.7894C97.9591 48.72 100.819 38.7928 98.2574 29.3573Z" fill="white"/>
<path d="M37.8981 109.332C46.2998 109.332 53.1107 108.635 53.1107 107.775C53.1107 106.916 46.2998 106.219 37.8981 106.219C29.4964 106.219 22.6855 106.916 22.6855 107.775C22.6855 108.635 29.4964 109.332 37.8981 109.332Z" fill="#EF233C"/>
<path d="M14.4395 104.655H100.724" stroke="#263238" stroke-width="1.25903" stroke-linecap="round" stroke-linejoin="round"/>
<path d="M93.0477 76.9708H90.209V76.6182C90.2088 76.4538 90.2326 76.2912 90.2789 76.1401C90.3251 75.9891 90.3929 75.8528 90.478 75.7397C90.5632 75.6265 90.6639 75.5389 90.7741 75.4821C90.8843 75.4254 91.0015 75.4006 91.1188 75.4095L92.2307 75.4953C92.4513 75.5119 92.6589 75.6463 92.8108 75.8707C92.9628 76.0951 93.0476 76.3925 93.0477 76.7017V76.9708Z" fill="#EF233C"/>
<mask id="mask0_2082_16982" style="mask-type:luminance" maskUnits="userSpaceOnUse" x="90" y="75" width="4" height="2">
<path d="M93.0477 76.9708H90.209V76.6182C90.2088 76.4538 90.2326 76.2912 90.2789 76.1401C90.3251 75.9891 90.3929 75.8528 90.478 75.7397C90.5632 75.6265 90.6639 75.5389 90.7741 75.4821C90.8843 75.4254 91.0015 75.4006 91.1188 75.4095L92.2307 75.4953C92.4513 75.5119 92.6589 75.6463 92.8108 75.8707C92.9628 76.0951 93.0476 76.3925 93.0477 76.7017V76.9708Z" fill="white"/>
</mask>
<g mask="url(#mask0_2082_16982)">
<path opacity="0.8" d="M93.0477 76.9708H90.209V76.6182C90.2088 76.4538 90.2326 76.2912 90.2789 76.1401C90.3251 75.9891 90.3929 75.8528 90.478 75.7397C90.5632 75.6265 90.6639 75.5389 90.7741 75.4821C90.8843 75.4254 91.0015 75.4006 91.1188 75.4095L92.2307 75.4953C92.4513 75.5119 92.6589 75.6463 92.8108 75.8707C92.9628 76.0951 93.0476 76.3925 93.0477 76.7017V76.9708Z" fill="white"/>
</g>
<path d="M93.0477 76.9708H90.209V76.6182C90.2088 76.4538 90.2326 76.2912 90.2789 76.1401C90.3251 75.9891 90.3929 75.8528 90.478 75.7397C90.5632 75.6265 90.6639 75.5389 90.7741 75.4821C90.8843 75.4254 91.0015 75.4006 91.1188 75.4095L92.2307 75.4953C92.4513 75.5119 92.6589 75.6463 92.8108 75.8707C92.9628 76.0951 93.0476 76.3925 93.0477 76.7017V76.9708Z" stroke="#263238" stroke-width="1.25903" stroke-linecap="round" stroke-linejoin="round"/>
<path d="M85.3828 68.7559C85.3777 68.6051 85.3313 68.4629 85.2532 68.3587C85.1751 68.2546 85.0714 68.1966 84.9636 68.1968H82.095C81.9873 68.1972 81.8838 68.2554 81.8058 68.3594C81.7278 68.4634 81.6813 68.6053 81.6758 68.7559L82.3602 77.1265H86.6422L85.3828 68.7559Z" fill="#EF233C" stroke="#263238" stroke-width="1.25903" stroke-linecap="round" stroke-linejoin="round"/>
<path d="M93.1729 55.889H92.1041L90.9043 71.6882H91.9715C92.0595 71.6853 92.1439 71.6382 92.2093 71.5557C92.2747 71.4731 92.3167 71.3604 92.3278 71.2381L93.4629 56.3367C93.4685 56.2797 93.4651 56.2215 93.453 56.1665C93.4408 56.1115 93.4202 56.0608 93.3925 56.0181C93.3649 55.9755 93.3309 55.9418 93.293 55.9195C93.255 55.8971 93.214 55.8867 93.1729 55.889Z" fill="#EF233C" stroke="#263238" stroke-width="1.25903" stroke-linecap="round" stroke-linejoin="round"/>
<path d="M91.5218 71.6881H75.5022C75.4612 71.6893 75.4206 71.6781 75.3831 71.6552C75.3456 71.6323 75.312 71.5983 75.2848 71.5555C75.2575 71.5128 75.2372 71.4622 75.2253 71.4074C75.2133 71.3526 75.21 71.2948 75.2155 71.2381L76.349 56.3297C76.3597 56.2079 76.4015 56.0955 76.4666 56.0133C76.5318 55.931 76.6159 55.8844 76.7036 55.882H92.7232C92.764 55.8804 92.8046 55.8914 92.8422 55.914C92.8797 55.9366 92.9133 55.9704 92.9405 56.013C92.9678 56.0556 92.9881 56.106 93.0001 56.1607C93.0121 56.2154 93.0154 56.2731 93.0099 56.3297L91.8764 71.2381C91.8657 71.3602 91.824 71.4728 91.7589 71.5554C91.6938 71.6381 91.6096 71.6852 91.5218 71.6881Z" fill="#EF233C"/>
<mask id="mask1_2082_16982" style="mask-type:luminance" maskUnits="userSpaceOnUse" x="75" y="55" width="19" height="17">
<path d="M91.5218 71.6881H75.5022C75.4612 71.6893 75.4206 71.6781 75.3831 71.6552C75.3456 71.6323 75.312 71.5983 75.2848 71.5555C75.2575 71.5128 75.2372 71.4622 75.2253 71.4074C75.2133 71.3526 75.21 71.2948 75.2155 71.2381L76.349 56.3297C76.3597 56.2079 76.4015 56.0955 76.4666 56.0133C76.5318 55.931 76.6159 55.8844 76.7036 55.882H92.7232C92.764 55.8804 92.8046 55.8914 92.8422 55.914C92.8797 55.9366 92.9133 55.9704 92.9405 56.013C92.9678 56.0556 92.9881 56.106 93.0001 56.1607C93.0121 56.2154 93.0154 56.2731 93.0099 56.3297L91.8764 71.2381C91.8657 71.3602 91.824 71.4728 91.7589 71.5554C91.6938 71.6381 91.6096 71.6852 91.5218 71.6881Z" fill="white"/>
</mask>
<g mask="url(#mask1_2082_16982)">
<path opacity="0.4" d="M91.5218 71.6881H75.5022C75.4612 71.6893 75.4206 71.6781 75.3831 71.6552C75.3456 71.6323 75.312 71.5983 75.2848 71.5555C75.2575 71.5128 75.2372 71.4622 75.2253 71.4074C75.2133 71.3526 75.21 71.2948 75.2155 71.2381L76.349 56.3297C76.3597 56.2079 76.4015 56.0955 76.4666 56.0133C76.5318 55.931 76.6159 55.8844 76.7036 55.882H92.7232C92.764 55.8804 92.8046 55.8914 92.8422 55.914C92.8797 55.9366 92.9133 55.9704 92.9405 56.013C92.9678 56.0556 92.9881 56.106 93.0001 56.1607C93.0121 56.2154 93.0154 56.2731 93.0099 56.3297L91.8764 71.2381C91.8657 71.3602 91.824 71.4728 91.7589 71.5554C91.6938 71.6381 91.6096 71.6852 91.5218 71.6881Z" fill="white"/>
</g>
<path d="M91.5218 71.6881H75.5022C75.4612 71.6893 75.4206 71.6781 75.3831 71.6552C75.3456 71.6323 75.312 71.5983 75.2848 71.5555C75.2575 71.5128 75.2372 71.4622 75.2253 71.4074C75.2133 71.3526 75.21 71.2948 75.2155 71.2381L76.349 56.3297C76.3597 56.2079 76.4015 56.0955 76.4666 56.0133C76.5318 55.931 76.6159 55.8844 76.7036 55.882H92.7232C92.764 55.8804 92.8046 55.8914 92.8422 55.914C92.8797 55.9366 92.9133 55.9704 92.9405 56.013C92.9678 56.0556 92.9881 56.106 93.0001 56.1607C93.0121 56.2154 93.0154 56.2731 93.0099 56.3297L91.8764 71.2381C91.8657 71.3602 91.824 71.4728 91.7589 71.5554C91.6938 71.6381 91.6096 71.6852 91.5218 71.6881Z" stroke="#263238" stroke-width="1.25903" stroke-linecap="round" stroke-linejoin="round"/>
<path d="M86.7989 76.4741H81.5308C81.4693 76.4741 81.4103 76.5083 81.3668 76.5692C81.3233 76.6302 81.2988 76.7128 81.2988 76.7989C81.2988 76.8853 81.3232 76.9681 81.3667 77.0294C81.4101 77.0907 81.4691 77.1254 81.5308 77.126H86.7972C86.8589 77.1254 86.9179 77.0907 86.9614 77.0294C87.0048 76.9681 87.0292 76.8853 87.0292 76.7989C87.0292 76.7132 87.005 76.6309 86.9619 76.5701C86.9187 76.5092 86.8601 76.4747 86.7989 76.4741Z" fill="#EF233C" stroke="#263238" stroke-width="1.25903" stroke-linecap="round" stroke-linejoin="round"/>
<path d="M91.2203 70.2358H76.1138C76.0781 70.2369 76.0427 70.2272 76.0099 70.2073C75.9772 70.1874 75.9479 70.1578 75.9241 70.1205C75.9003 70.0833 75.8826 70.0392 75.8722 69.9914C75.8617 69.9436 75.8588 69.8932 75.8636 69.8437L76.8579 56.8355C76.867 56.7288 76.9035 56.6303 76.9604 56.5583C77.0174 56.4862 77.091 56.4454 77.1677 56.4434H92.2693C92.3049 56.4427 92.3402 56.4527 92.3728 56.4727C92.4054 56.4927 92.4346 56.5223 92.4583 56.5595C92.482 56.5967 92.4998 56.6406 92.5103 56.6882C92.5209 56.7358 92.524 56.786 92.5195 56.8355L91.5252 69.8437C91.5159 69.9491 91.48 70.0463 91.4242 70.1181C91.3683 70.19 91.2961 70.2317 91.2203 70.2358Z" fill="#EF233C"/>
<mask id="mask2_2082_16982" style="mask-type:luminance" maskUnits="userSpaceOnUse" x="75" y="56" width="18" height="15">
<path d="M91.2203 70.2358H76.1138C76.0781 70.2369 76.0427 70.2272 76.0099 70.2073C75.9772 70.1874 75.9479 70.1578 75.9241 70.1205C75.9003 70.0833 75.8826 70.0392 75.8722 69.9914C75.8617 69.9436 75.8588 69.8932 75.8636 69.8437L76.8579 56.8355C76.867 56.7288 76.9035 56.6303 76.9604 56.5583C77.0174 56.4862 77.091 56.4454 77.1677 56.4434H92.2693C92.3049 56.4427 92.3402 56.4527 92.3728 56.4727C92.4054 56.4927 92.4346 56.5223 92.4583 56.5595C92.482 56.5967 92.4998 56.6406 92.5103 56.6882C92.5209 56.7358 92.524 56.786 92.5195 56.8355L91.5252 69.8437C91.5159 69.9491 91.48 70.0463 91.4242 70.1181C91.3683 70.19 91.2961 70.2317 91.2203 70.2358Z" fill="white"/>
</mask>
<g mask="url(#mask2_2082_16982)">
<path opacity="0.8" d="M91.2203 70.2358H76.1138C76.0781 70.2369 76.0427 70.2272 76.0099 70.2073C75.9772 70.1874 75.9479 70.1578 75.9241 70.1205C75.9003 70.0833 75.8826 70.0392 75.8722 69.9914C75.8617 69.9436 75.8588 69.8932 75.8636 69.8437L76.8579 56.8355C76.867 56.7288 76.9035 56.6303 76.9604 56.5583C77.0174 56.4862 77.091 56.4454 77.1677 56.4434H92.2693C92.3049 56.4427 92.3402 56.4527 92.3728 56.4727C92.4054 56.4927 92.4346 56.5223 92.4583 56.5595C92.482 56.5967 92.4998 56.6406 92.5103 56.6882C92.5209 56.7358 92.524 56.786 92.5195 56.8355L91.5252 69.8437C91.5159 69.9491 91.48 70.0463 91.4242 70.1181C91.3683 70.19 91.2961 70.2317 91.2203 70.2358Z" fill="white"/>
</g>
<path d="M91.2203 70.2358H76.1138C76.0781 70.2369 76.0427 70.2272 76.0099 70.2073C75.9772 70.1874 75.9479 70.1578 75.9241 70.1205C75.9003 70.0833 75.8826 70.0392 75.8722 69.9914C75.8617 69.9436 75.8588 69.8932 75.8636 69.8437L76.8579 56.8355C76.867 56.7288 76.9035 56.6303 76.9604 56.5583C77.0174 56.4862 77.091 56.4454 77.1677 56.4434H92.2693C92.3049 56.4427 92.3402 56.4527 92.3728 56.4727C92.4054 56.4927 92.4346 56.5223 92.4583 56.5595C92.482 56.5967 92.4998 56.6406 92.5103 56.6882C92.5209 56.7358 92.524 56.786 92.5195 56.8355L91.5252 69.8437C91.5159 69.9491 91.48 70.0463 91.4242 70.1181C91.3683 70.19 91.2961 70.2317 91.2203 70.2358Z" stroke="#263238" stroke-width="1.25903" stroke-linecap="round" stroke-linejoin="round"/>
<path d="M57.1426 79.2305H58.3771V104.307C58.3771 104.399 58.3511 104.487 58.3048 104.552C58.2585 104.617 58.1957 104.653 58.1302 104.653H57.3911C57.3257 104.653 57.2629 104.617 57.2166 104.552C57.1702 104.487 57.1442 104.399 57.1442 104.307V79.2305H57.1426Z" fill="#EF233C" stroke="#263238" stroke-width="1.25903" stroke-linecap="round" stroke-linejoin="round"/>
<path d="M95.3639 76.9707H84.6621V79.2304H95.3639V76.9707Z" fill="#EF233C"/>
<mask id="mask3_2082_16982" style="mask-type:luminance" maskUnits="userSpaceOnUse" x="84" y="76" width="12" height="4">
<path d="M95.3639 76.9707H84.6621V79.2304H95.3639V76.9707Z" fill="white"/>
</mask>
<g mask="url(#mask3_2082_16982)">
<path opacity="0.4" d="M95.3639 76.9707H84.6621V79.2304H95.3639V76.9707Z" fill="white"/>
</g>
<path d="M95.3639 76.9707H84.6621V79.2304H95.3639V76.9707Z" stroke="#263238" stroke-width="1.25903" stroke-linecap="round" stroke-linejoin="round"/>
<path d="M64.7949 79.2305H66.0295V104.307C66.0295 104.399 66.0035 104.487 65.9572 104.552C65.9109 104.617 65.8481 104.653 65.7826 104.653H65.0435C65.0109 104.653 64.9786 104.645 64.9485 104.627C64.9183 104.61 64.8909 104.585 64.8678 104.553C64.8447 104.52 64.8264 104.482 64.8139 104.44C64.8014 104.398 64.7949 104.353 64.7949 104.307V79.2305Z" fill="#EF233C" stroke="#263238" stroke-width="1.25903" stroke-linecap="round" stroke-linejoin="round"/>
<path d="M93.416 79.2305H94.6506V104.307C94.6506 104.399 94.6246 104.487 94.5783 104.552C94.532 104.617 94.4692 104.653 94.4037 104.653H93.6646C93.5991 104.653 93.5363 104.617 93.49 104.552C93.4437 104.487 93.4177 104.399 93.4177 104.307V79.2305H93.416Z" fill="#EF233C" stroke="#263238" stroke-width="1.25903" stroke-linecap="round" stroke-linejoin="round"/>
<path d="M87.7146 76.9707H56.4277V79.2304H87.7146V76.9707Z" fill="#EF233C"/>
<mask id="mask4_2082_16982" style="mask-type:luminance" maskUnits="userSpaceOnUse" x="56" y="76" width="32" height="4">
<path d="M87.7146 76.9707H56.4277V79.2304H87.7146V76.9707Z" fill="white"/>
</mask>
<g mask="url(#mask4_2082_16982)">
<path opacity="0.7" d="M87.7146 76.9707H56.4277V79.2304H87.7146V76.9707Z" fill="white"/>
</g>
<path d="M87.7146 76.9707H56.4277V79.2304H87.7146V76.9707Z" stroke="#263238" stroke-width="1.25903" stroke-linecap="round" stroke-linejoin="round"/>
<path d="M85.768 79.2305H87.001V104.307C87.001 104.399 86.975 104.487 86.9286 104.552C86.8823 104.617 86.8195 104.653 86.7541 104.653H86.0067C85.9412 104.653 85.8784 104.617 85.8321 104.552C85.7858 104.487 85.7598 104.399 85.7598 104.307V79.2305H85.768Z" fill="#EF233C" stroke="#263238" stroke-width="1.25903" stroke-linecap="round" stroke-linejoin="round"/>
<path d="M85.2093 76.0405H76.2773V76.9708H85.2093V76.0405Z" fill="#EF233C"/>
<mask id="mask5_2082_16982" style="mask-type:luminance" maskUnits="userSpaceOnUse" x="76" y="76" width="10" height="1">
<path d="M85.2093 76.0405H76.2773V76.9708H85.2093V76.0405Z" fill="white"/>
</mask>
<g mask="url(#mask5_2082_16982)">
<path opacity="0.4" d="M85.2093 76.0405H76.2773V76.9708H85.2093V76.0405Z" fill="white"/>
</g>
<path d="M85.2093 76.0405H76.2773V76.9708H85.2093V76.0405Z" stroke="#263238" stroke-width="1.25903" stroke-linecap="round" stroke-linejoin="round"/>
<path d="M18.7366 104.655H33.6211V76.9266H18.7366V104.655Z" fill="#EF233C"/>
<mask id="mask6_2082_16982" style="mask-type:luminance" maskUnits="userSpaceOnUse" x="18" y="76" width="16" height="29">
<path d="M18.7366 104.655H33.6211V76.9266H18.7366V104.655Z" fill="white"/>
</mask>
<g mask="url(#mask6_2082_16982)">
<path opacity="0.7" d="M18.7366 104.655H33.6211V76.9266H18.7366V104.655Z" fill="white"/>
</g>
<path d="M18.7366 104.655H33.6211V76.9266H18.7366V104.655Z" stroke="#263238" stroke-width="1.25903" stroke-linecap="round" stroke-linejoin="round"/>
<path d="M15.896 104.655H18.7363L18.7363 76.9266H15.896L15.896 104.655Z" fill="#EF233C"/>
<mask id="mask7_2082_16982" style="mask-type:luminance" maskUnits="userSpaceOnUse" x="15" y="76" width="4" height="29">
<path d="M15.896 104.655H18.7363L18.7363 76.9266H15.896L15.896 104.655Z" fill="white"/>
</mask>
<g mask="url(#mask7_2082_16982)">
<path opacity="0.3" d="M15.896 104.655H18.7363L18.7363 76.9266H15.896L15.896 104.655Z" fill="white"/>
</g>
<path d="M15.896 104.655H18.7363L18.7363 76.9266H15.896L15.896 104.655Z" stroke="#263238" stroke-width="1.25903" stroke-linecap="round" stroke-linejoin="round"/>
<path d="M19.7021 85.7173H32.5781V78.9823H19.7021V85.7173Z" fill="white" stroke="#263238" stroke-width="1.25903" stroke-linecap="round" stroke-linejoin="round"/>
<path d="M19.7021 93.1855H32.5781V86.4506H19.7021V93.1855Z" fill="white" stroke="#263238" stroke-width="1.25903" stroke-linecap="round" stroke-linejoin="round"/>
<path d="M19.7021 100.656H32.5781V93.9208H19.7021V100.656Z" fill="white" stroke="#263238" stroke-width="1.25903" stroke-linecap="round" stroke-linejoin="round"/>
<path d="M25.6035 82.3601C25.6035 82.5087 25.635 82.6541 25.694 82.7777C25.753 82.9013 25.8369 82.9976 25.935 83.0545C26.0331 83.1114 26.141 83.1263 26.2452 83.0973C26.3493 83.0683 26.445 82.9967 26.5201 82.8916C26.5952 82.7865 26.6463 82.6525 26.667 82.5067C26.6877 82.3609 26.6771 82.2098 26.6365 82.0724C26.5958 81.9351 26.527 81.8177 26.4387 81.7351C26.3504 81.6525 26.2466 81.6084 26.1404 81.6084C26.0699 81.6084 26.0001 81.6278 25.935 81.6656C25.8698 81.7034 25.8106 81.7588 25.7608 81.8286C25.7109 81.8984 25.6714 81.9812 25.6444 82.0724C25.6174 82.1636 25.6035 82.2614 25.6035 82.3601Z" fill="#EF233C" stroke="#263238" stroke-width="1.25903" stroke-linecap="round" stroke-linejoin="round"/>
<path d="M25.6035 89.8192C25.6032 89.9679 25.6344 90.1135 25.6932 90.2374C25.752 90.3613 25.8357 90.458 25.9338 90.5153C26.0319 90.5725 26.1399 90.5878 26.2442 90.559C26.3484 90.5303 26.4442 90.4589 26.5195 90.3538C26.5948 90.2488 26.6461 90.1149 26.6669 89.969C26.6878 89.8231 26.6772 89.6719 26.6366 89.5344C26.596 89.3969 26.5272 89.2794 26.4389 89.1967C26.3506 89.114 26.2467 89.0698 26.1404 89.0698C25.9983 89.0698 25.862 89.1487 25.7614 89.2892C25.6607 89.4296 25.604 89.6202 25.6035 89.8192Z" fill="#EF233C" stroke="#263238" stroke-width="1.25903" stroke-linecap="round" stroke-linejoin="round"/>
<path d="M25.6035 97.2893C25.6035 97.438 25.635 97.5833 25.694 97.7069C25.753 97.8305 25.8369 97.9269 25.935 97.9837C26.0331 98.0406 26.141 98.0555 26.2452 98.0265C26.3493 97.9975 26.445 97.9259 26.5201 97.8208C26.5952 97.7157 26.6463 97.5817 26.667 97.4359C26.6877 97.2901 26.6771 97.139 26.6365 97.0016C26.5958 96.8643 26.527 96.7469 26.4387 96.6643C26.3504 96.5817 26.2466 96.5376 26.1404 96.5376C26.0699 96.5376 26.0001 96.557 25.935 96.5948C25.8698 96.6326 25.8106 96.688 25.7608 96.7578C25.7109 96.8276 25.6714 96.9104 25.6444 97.0016C25.6174 97.0928 25.6035 97.1906 25.6035 97.2893Z" fill="#EF233C" stroke="#263238" stroke-width="1.25903" stroke-linecap="round" stroke-linejoin="round"/>
<path d="M83.2181 25.2188H78.2168V68.1527H83.2181C83.5803 68.153 83.9391 68.0533 84.2738 67.8595C84.6086 67.6656 84.9127 67.3813 85.169 67.0228C85.4252 66.6643 85.6285 66.2386 85.7671 65.7701C85.9058 65.3015 85.9772 64.7994 85.9772 64.2922V29.0792C85.9772 28.5721 85.9058 28.0699 85.7671 27.6014C85.6285 27.1328 85.4252 26.7071 85.169 26.3486C84.9127 25.9901 84.6086 25.7058 84.2738 25.5119C83.9391 25.3181 83.5803 25.2184 83.2181 25.2188Z" fill="#263238" stroke="#263238" stroke-width="1.25903" stroke-linecap="round" stroke-linejoin="round"/>
<path d="M82.1763 25.2188H40.1794C38.6564 25.2188 37.4219 26.9471 37.4219 29.0792V64.2945C37.4219 66.4266 38.6564 68.155 40.1794 68.155H82.1763C83.6993 68.155 84.9338 66.4266 84.9338 64.2945V29.0792C84.9338 26.9471 83.6993 25.2188 82.1763 25.2188Z" fill="#EF233C" stroke="#263238" stroke-width="1.25903" stroke-linecap="round" stroke-linejoin="round"/>
<path d="M81.2078 26.6733H80.7819C80.3792 26.6733 80.0527 27.1304 80.0527 27.6941V28.2904C80.0527 28.8542 80.3792 29.3112 80.7819 29.3112H81.2078C81.6105 29.3112 81.9369 28.8542 81.9369 28.2904V27.6941C81.9369 27.1304 81.6105 26.6733 81.2078 26.6733Z" fill="#999999" stroke="#263238" stroke-width="1.25903" stroke-linecap="round" stroke-linejoin="round"/>
<mask id="mask8_2082_16982" style="mask-type:luminance" maskUnits="userSpaceOnUse" x="39" y="26" width="3" height="4">
<path d="M41.8097 27.9934C41.8097 28.2546 41.7543 28.5099 41.6506 28.7271C41.5469 28.9442 41.3996 29.1134 41.2272 29.2132C41.0548 29.3131 40.8651 29.3391 40.6822 29.288C40.4992 29.2368 40.3312 29.1109 40.1994 28.926C40.0676 28.7412 39.9779 28.5058 39.9417 28.2495C39.9055 27.9933 39.9245 27.7278 39.9961 27.4866C40.0677 27.2455 40.1888 27.0395 40.3441 26.8947C40.4994 26.7499 40.6818 26.6729 40.8684 26.6733C40.9921 26.6733 41.1147 26.7075 41.229 26.7739C41.3433 26.8402 41.4471 26.9375 41.5346 27.0601C41.622 27.1827 41.6913 27.3283 41.7385 27.4884C41.7857 27.6486 41.8099 27.8202 41.8097 27.9934Z" fill="white"/>
</mask>
<g mask="url(#mask8_2082_16982)">
<path opacity="0.5" d="M41.8097 27.9934C41.8097 28.2546 41.7543 28.5099 41.6506 28.7271C41.5469 28.9442 41.3996 29.1134 41.2272 29.2132C41.0548 29.3131 40.8651 29.3391 40.6822 29.288C40.4992 29.2368 40.3312 29.1109 40.1994 28.926C40.0676 28.7412 39.9779 28.5058 39.9417 28.2495C39.9055 27.9933 39.9245 27.7278 39.9961 27.4866C40.0677 27.2455 40.1888 27.0395 40.3441 26.8947C40.4994 26.7499 40.6818 26.6729 40.8684 26.6733C40.9921 26.6733 41.1147 26.7075 41.229 26.7739C41.3433 26.8402 41.4471 26.9375 41.5346 27.0601C41.622 27.1827 41.6913 27.3283 41.7385 27.4884C41.7857 27.6486 41.8099 27.8202 41.8097 27.9934Z" fill="black"/>
</g>
<path d="M41.8097 27.9934C41.8097 28.2546 41.7543 28.5099 41.6506 28.7271C41.5469 28.9442 41.3996 29.1134 41.2272 29.2132C41.0548 29.3131 40.8651 29.3391 40.6822 29.288C40.4992 29.2368 40.3312 29.1109 40.1994 28.926C40.0676 28.7412 39.9779 28.5058 39.9417 28.2495C39.9055 27.9933 39.9245 27.7278 39.9961 27.4866C40.0677 27.2455 40.1888 27.0395 40.3441 26.8947C40.4994 26.7499 40.6818 26.6729 40.8684 26.6733C40.9921 26.6733 41.1147 26.7075 41.229 26.7739C41.3433 26.8402 41.4471 26.9375 41.5346 27.0601C41.622 27.1827 41.6913 27.3283 41.7385 27.4884C41.7857 27.6486 41.8099 27.8202 41.8097 27.9934Z" stroke="#263238" stroke-width="1.25903" stroke-linecap="round" stroke-linejoin="round"/>
<mask id="mask9_2082_16982" style="mask-type:luminance" maskUnits="userSpaceOnUse" x="45" y="26" width="3" height="4">
<path d="M46.7242 29.3135C47.2449 29.3135 47.6671 28.7225 47.6671 27.9934C47.6671 27.2644 47.2449 26.6733 46.7242 26.6733C46.2034 26.6733 45.7812 27.2644 45.7812 27.9934C45.7812 28.7225 46.2034 29.3135 46.7242 29.3135Z" fill="white"/>
</mask>
<g mask="url(#mask9_2082_16982)">
<path opacity="0.5" d="M46.7242 29.3135C47.2449 29.3135 47.6671 28.7225 47.6671 27.9934C47.6671 27.2644 47.2449 26.6733 46.7242 26.6733C46.2034 26.6733 45.7812 27.2644 45.7812 27.9934C45.7812 28.7225 46.2034 29.3135 46.7242 29.3135Z" fill="white" stroke="#263238" stroke-width="1.25903" stroke-linecap="round" stroke-linejoin="round"/>
</g>
<path d="M46.7242 29.3135C47.2449 29.3135 47.6671 28.7225 47.6671 27.9934C47.6671 27.2644 47.2449 26.6733 46.7242 26.6733C46.2034 26.6733 45.7812 27.2644 45.7812 27.9934C45.7812 28.7225 46.2034 29.3135 46.7242 29.3135Z" stroke="#263238" stroke-width="1.25903" stroke-linecap="round" stroke-linejoin="round"/>
<path d="M43.7945 29.3135C44.3152 29.3135 44.7374 28.7225 44.7374 27.9934C44.7374 27.2644 44.3152 26.6733 43.7945 26.6733C43.2737 26.6733 42.8516 27.2644 42.8516 27.9934C42.8516 28.7225 43.2737 29.3135 43.7945 29.3135Z" stroke="#263238" stroke-width="1.25903" stroke-linecap="round" stroke-linejoin="round"/>
<path d="M82.1755 30.7681H40.1802C39.3482 30.7681 38.6738 31.7122 38.6738 32.8769V64.2921C38.6738 65.4568 39.3482 66.4009 40.1802 66.4009H82.1755C83.0074 66.4009 83.6818 65.4568 83.6818 64.2921V32.8769C83.6818 31.7122 83.0074 30.7681 82.1755 30.7681Z" fill="#EF233C"/>
<mask id="mask10_2082_16982" style="mask-type:luminance" maskUnits="userSpaceOnUse" x="38" y="30" width="46" height="37">
<path d="M82.1755 30.7681H40.1802C39.3482 30.7681 38.6738 31.7122 38.6738 32.8769V64.2921C38.6738 65.4568 39.3482 66.4009 40.1802 66.4009H82.1755C83.0074 66.4009 83.6818 65.4568 83.6818 64.2921V32.8769C83.6818 31.7122 83.0074 30.7681 82.1755 30.7681Z" fill="white"/>
</mask>
<g mask="url(#mask10_2082_16982)">
<path opacity="0.3" d="M82.1755 30.7681H40.1802C39.3482 30.7681 38.6738 31.7122 38.6738 32.8769V64.2921C38.6738 65.4568 39.3482 66.4009 40.1802 66.4009H82.1755C83.0074 66.4009 83.6818 65.4568 83.6818 64.2921V32.8769C83.6818 31.7122 83.0074 30.7681 82.1755 30.7681Z" fill="black"/>
</g>
<path d="M82.1755 30.7681H40.1802C39.3482 30.7681 38.6738 31.7122 38.6738 32.8769V64.2921C38.6738 65.4568 39.3482 66.4009 40.1802 66.4009H82.1755C83.0074 66.4009 83.6818 65.4568 83.6818 64.2921V32.8769C83.6818 31.7122 83.0074 30.7681 82.1755 30.7681Z" stroke="#263238" stroke-width="1.25903" stroke-linecap="round" stroke-linejoin="round"/>
<path d="M51.5703 32.2275H40.1791C39.9238 32.2275 39.7168 32.5173 39.7168 32.8748V64.2923C39.7168 64.6497 39.9238 64.9395 40.1791 64.9395H51.5703C51.8257 64.9395 52.0327 64.6497 52.0327 64.2923V32.8748C52.0327 32.5173 51.8257 32.2275 51.5703 32.2275Z" fill="#999999" stroke="#263238" stroke-width="1.25903" stroke-linecap="round" stroke-linejoin="round"/>
<path d="M67.5319 32.2275H54.6791C54.4238 32.2275 54.2168 32.5173 54.2168 32.8748V64.2923C54.2168 64.6497 54.4238 64.9395 54.6791 64.9395H67.5319C67.7873 64.9395 67.9943 64.6497 67.9943 64.2923V32.8748C67.9943 32.5173 67.7873 32.2275 67.5319 32.2275Z" fill="#EF233C"/>
<mask id="mask11_2082_16982" style="mask-type:luminance" maskUnits="userSpaceOnUse" x="54" y="32" width="14" height="33">
<path d="M67.5319 32.2275H54.6791C54.4238 32.2275 54.2168 32.5173 54.2168 32.8748V64.2923C54.2168 64.6497 54.4238 64.9395 54.6791 64.9395H67.5319C67.7873 64.9395 67.9943 64.6497 67.9943 64.2923V32.8748C67.9943 32.5173 67.7873 32.2275 67.5319 32.2275Z" fill="white"/>
</mask>
<g mask="url(#mask11_2082_16982)">
<path opacity="0.8" d="M67.5319 32.2275H54.6791C54.4238 32.2275 54.2168 32.5173 54.2168 32.8748V64.2923C54.2168 64.6497 54.4238 64.9395 54.6791 64.9395H67.5319C67.7873 64.9395 67.9943 64.6497 67.9943 64.2923V32.8748C67.9943 32.5173 67.7873 32.2275 67.5319 32.2275Z" fill="white"/>
</g>
<path d="M67.5319 32.2275H54.6791C54.4238 32.2275 54.2168 32.5173 54.2168 32.8748V64.2923C54.2168 64.6497 54.4238 64.9395 54.6791 64.9395H67.5319C67.7873 64.9395 67.9943 64.6497 67.9943 64.2923V32.8748C67.9943 32.5173 67.7873 32.2275 67.5319 32.2275Z" stroke="#263238" stroke-width="1.25903" stroke-linecap="round" stroke-linejoin="round"/>
<path d="M81.5166 32.2275H71.1279C71.0162 32.2282 70.9091 32.2908 70.8302 32.4016C70.7513 32.5125 70.707 32.6626 70.707 32.8191V34.6009H81.9375V32.8191C81.9375 32.6626 81.8932 32.5125 81.8143 32.4016C81.7354 32.2908 81.6284 32.2282 81.5166 32.2275Z" fill="#EF233C" stroke="#263238" stroke-width="1.25903" stroke-linecap="round" stroke-linejoin="round"/>
<path d="M80.5215 32.9443H81.5224" stroke="#263238" stroke-width="1.25903" stroke-linecap="round" stroke-linejoin="round"/>
<path d="M80.5215 33.4131H81.5224" stroke="#263238" stroke-width="1.25903" stroke-linecap="round" stroke-linejoin="round"/>
<path d="M81.5224 33.8794H80.5215" stroke="#263238" stroke-width="1.25903" stroke-linecap="round" stroke-linejoin="round"/>
<path d="M76.3231 34.6009L76.0629 33.1231C76.0178 32.8675 75.9128 32.6404 75.7647 32.4781C75.6166 32.3158 75.434 32.2276 75.2459 32.2275H71.1279C71.0162 32.2282 70.9091 32.2908 70.8302 32.4016C70.7513 32.5125 70.707 32.6626 70.707 32.8191V41.721C70.707 41.8773 70.7514 42.0272 70.8303 42.1377C70.9093 42.2482 71.0163 42.3103 71.1279 42.3103H81.5166C81.6282 42.3103 81.7353 42.2482 81.8142 42.1377C81.8931 42.0272 81.9375 41.8773 81.9375 41.721V34.6009H76.3231Z" fill="#999999" stroke="#263238" stroke-width="1.25903" stroke-linecap="round" stroke-linejoin="round"/>
<path d="M39.5409 63.0114H43.8693C43.9671 63.0114 44.045 62.9534 44.045 62.8815V56.5943C44.045 56.5224 43.9671 56.4644 43.8693 56.4644H39.5409C39.4448 56.4644 39.3652 56.5224 39.3652 56.5943V62.8722C39.3652 62.9534 39.4398 63.0114 39.5409 63.0114Z" fill="#EF233C"/>
<mask id="mask12_2082_16982" style="mask-type:luminance" maskUnits="userSpaceOnUse" x="39" y="56" width="6" height="8">
<path d="M39.5409 63.0114H43.8693C43.9671 63.0114 44.045 62.9534 44.045 62.8815V56.5943C44.045 56.5224 43.9671 56.4644 43.8693 56.4644H39.5409C39.4448 56.4644 39.3652 56.5224 39.3652 56.5943V62.8722C39.3652 62.9534 39.4398 63.0114 39.5409 63.0114Z" fill="white"/>
</mask>
<g mask="url(#mask12_2082_16982)">
<path opacity="0.3" d="M39.5409 63.0114H43.8693C43.9671 63.0114 44.045 62.9534 44.045 62.8815V56.5943C44.045 56.5224 43.9671 56.4644 43.8693 56.4644H39.5409C39.4448 56.4644 39.3652 56.5224 39.3652 56.5943V62.8722C39.3652 62.9534 39.4398 63.0114 39.5409 63.0114Z" fill="black"/>
</g>
<path d="M39.5409 63.0114H43.8694C43.9671 63.0114 44.045 62.9534 44.045 62.8815V56.5943C44.045 56.5224 43.9671 56.4644 43.8694 56.4644H39.5409C39.4448 56.4644 39.3652 56.5224 39.3652 56.5943V62.8722C39.3652 62.9534 39.4398 63.0114 39.5409 63.0114Z" stroke="#263238" stroke-width="1.25903" stroke-linecap="round" stroke-linejoin="round"/>
<path d="M44.9608 63.0114H49.2893C49.3854 63.0114 49.4649 62.9534 49.4649 62.8815V56.5943C49.4649 56.5224 49.3854 56.4644 49.2893 56.4644H44.9608C44.863 56.4644 44.7852 56.5224 44.7852 56.5943V62.8722C44.7852 62.9534 44.863 63.0114 44.9608 63.0114Z" fill="#EF233C" stroke="#263238" stroke-width="1.25903" stroke-linecap="round" stroke-linejoin="round"/>
<path d="M41.6268 55.3835H45.9553C46.0531 55.3835 46.1309 55.3255 46.1309 55.2535V48.9663C46.1309 48.8944 46.0531 48.8364 45.9553 48.8364H41.6268C41.5307 48.8364 41.4512 48.8944 41.4512 48.9663V55.2535C41.4512 55.3255 41.5307 55.3835 41.6268 55.3835Z" fill="#EF233C" stroke="#263238" stroke-width="1.25903" stroke-linecap="round" stroke-linejoin="round"/>
<path d="M47.0468 55.3835H51.3719C51.468 55.3835 51.5476 55.3255 51.5476 55.2535V48.9663C51.5476 48.8944 51.468 48.8364 51.3719 48.8364H47.0468C46.949 48.8364 46.8711 48.8944 46.8711 48.9663V55.2535C46.8711 55.3255 46.949 55.3835 47.0468 55.3835Z" fill="#EF233C" stroke="#263238" stroke-width="1.25903" stroke-linecap="round" stroke-linejoin="round"/>
<path d="M41.2108 47.755H45.5393C45.637 47.755 45.7166 47.697 45.7166 47.6251V41.3379C45.7166 41.266 45.637 41.208 45.5393 41.208H41.2108C41.1147 41.208 41.0352 41.266 41.0352 41.3379V47.6251C41.0352 47.697 41.1147 47.755 41.2108 47.755Z" fill="#EF233C"/>
<mask id="mask13_2082_16982" style="mask-type:luminance" maskUnits="userSpaceOnUse" x="41" y="41" width="5" height="7">
<path d="M41.2108 47.755H45.5393C45.637 47.755 45.7166 47.697 45.7166 47.6251V41.3379C45.7166 41.266 45.637 41.208 45.5393 41.208H41.2108C41.1147 41.208 41.0352 41.266 41.0352 41.3379V47.6251C41.0352 47.697 41.1147 47.755 41.2108 47.755Z" fill="white"/>
</mask>
<g mask="url(#mask13_2082_16982)">
<path opacity="0.5" d="M41.2108 47.755H45.5393C45.637 47.755 45.7166 47.697 45.7166 47.6251V41.3379C45.7166 41.266 45.637 41.208 45.5393 41.208H41.2108C41.1147 41.208 41.0352 41.266 41.0352 41.3379V47.6251C41.0352 47.697 41.1147 47.755 41.2108 47.755Z" fill="white"/>
</g>
<path d="M41.2108 47.755H45.5393C45.637 47.755 45.7166 47.697 45.7166 47.6251V41.3379C45.7166 41.266 45.637 41.208 45.5393 41.208H41.2108C41.1147 41.208 41.0352 41.266 41.0352 41.3379V47.6251C41.0352 47.697 41.1147 47.755 41.2108 47.755Z" stroke="#263238" stroke-width="1.25903" stroke-linecap="round" stroke-linejoin="round"/>
<path d="M46.6288 47.755H50.9572C51.055 47.755 51.1329 47.697 51.1329 47.6251V41.3379C51.1329 41.266 51.055 41.208 50.9572 41.208H46.6288C46.531 41.208 46.4531 41.266 46.4531 41.3379V47.6251C46.4531 47.697 46.531 47.755 46.6288 47.755Z" fill="#EF233C" stroke="#263238" stroke-width="1.25903" stroke-linecap="round" stroke-linejoin="round"/>
<path d="M41.2108 40.1364H45.5393C45.637 40.1364 45.7166 40.0784 45.7166 40.0065V33.71C45.7166 33.6381 45.637 33.5801 45.5393 33.5801H41.2108C41.1147 33.5801 41.0352 33.6381 41.0352 33.71V39.9972C41.0352 40.0691 41.1147 40.1364 41.2108 40.1364Z" fill="#EF233C" stroke="#263238" stroke-width="1.25903" stroke-linecap="round" stroke-linejoin="round"/>
<path d="M46.6288 40.1364H50.9572C51.055 40.1364 51.1329 40.0784 51.1329 40.0065V33.71C51.1329 33.6381 51.055 33.5801 50.9572 33.5801H46.6288C46.531 33.5801 46.4531 33.6381 46.4531 33.71V39.9972C46.4531 40.0691 46.531 40.1364 46.6288 40.1364Z" fill="#EF233C"/>
<mask id="mask14_2082_16982" style="mask-type:luminance" maskUnits="userSpaceOnUse" x="46" y="33" width="6" height="8">
<path d="M46.6288 40.1364H50.9572C51.055 40.1364 51.1329 40.0784 51.1329 40.0065V33.71C51.1329 33.6381 51.055 33.5801 50.9572 33.5801H46.6288C46.531 33.5801 46.4531 33.6381 46.4531 33.71V39.9972C46.4531 40.0691 46.531 40.1364 46.6288 40.1364Z" fill="white"/>
</mask>
<g mask="url(#mask14_2082_16982)">
<path opacity="0.7" d="M46.6288 40.1364H50.9572C51.055 40.1364 51.1329 40.0784 51.1329 40.0065V33.71C51.1329 33.6381 51.055 33.5801 50.9572 33.5801H46.6288C46.531 33.5801 46.4531 33.6381 46.4531 33.71V39.9972C46.4531 40.0691 46.531 40.1364 46.6288 40.1364Z" fill="white"/>
</g>
<path d="M46.6288 40.1364H50.9572C51.055 40.1364 51.1329 40.0784 51.1329 40.0065V33.71C51.1329 33.6381 51.055 33.5801 50.9572 33.5801H46.6288C46.531 33.5801 46.4531 33.6381 46.4531 33.71V39.9972C46.4531 40.0691 46.531 40.1364 46.6288 40.1364Z" stroke="#263238" stroke-width="1.25903" stroke-linecap="round" stroke-linejoin="round"/>
<path d="M80.5986 57.3042H70.2116C70.0998 57.3054 69.9928 57.3681 69.9138 57.4788C69.8347 57.5895 69.7899 57.7393 69.7891 57.8958V66.8162C69.7891 66.8939 69.8 66.9708 69.8212 67.0426C69.8425 67.1144 69.8736 67.1796 69.9128 67.2345C69.9521 67.2895 69.9987 67.333 70.0499 67.3628C70.1012 67.3925 70.1561 67.4078 70.2116 67.4078H80.5986C80.7105 67.4072 80.8178 67.3447 80.8969 67.2338C80.9761 67.123 81.0207 66.9729 81.0212 66.8162V57.9028C81.0216 57.8246 81.011 57.747 80.99 57.6746C80.969 57.6021 80.9379 57.5362 80.8987 57.4806C80.8594 57.425 80.8127 57.3808 80.7612 57.3505C80.7097 57.3202 80.6545 57.3045 80.5986 57.3042Z" fill="#263238" stroke="#263238" stroke-width="1.25903" stroke-linecap="round" stroke-linejoin="round"/>
<path d="M79.8994 57.021H69.5124C69.4006 57.021 69.2934 57.083 69.2142 57.1935C69.135 57.3039 69.0903 57.4538 69.0898 57.6103V59.392H80.322V57.6103C80.3215 57.4538 80.2768 57.3039 80.1976 57.1935C80.1184 57.083 80.0112 57.021 79.8994 57.021Z" fill="#EF233C" stroke="#263238" stroke-width="1.25903" stroke-linecap="round" stroke-linejoin="round"/>
<path d="M78.9043 57.7402H79.9052" stroke="#263238" stroke-width="1.25903" stroke-linecap="round" stroke-linejoin="round"/>
<path d="M78.9043 58.2065H79.9052" stroke="#263238" stroke-width="1.25903" stroke-linecap="round" stroke-linejoin="round"/>
<path d="M79.9052 58.6729H78.9043" stroke="#263238" stroke-width="1.25903" stroke-linecap="round" stroke-linejoin="round"/>
<path d="M74.7059 59.392L74.4474 57.9165C74.4022 57.6609 74.2972 57.4339 74.1492 57.2716C74.0011 57.1093 73.8185 57.0211 73.6304 57.021H69.5124C69.4006 57.021 69.2934 57.083 69.2142 57.1935C69.135 57.3039 69.0903 57.4538 69.0898 57.6103V66.5121C69.0903 66.6688 69.1349 66.8189 69.2141 66.9298C69.2932 67.0406 69.4005 67.1031 69.5124 67.1037H79.8994C80.0115 67.1037 80.1189 67.0414 80.1982 66.9304C80.2774 66.8195 80.322 66.669 80.322 66.5121V59.392H74.7059Z" fill="#999999" stroke="#263238" stroke-width="1.25903" stroke-linecap="round" stroke-linejoin="round"/>
<path d="M80.1795 43.8298H69.7908C69.7213 43.8273 69.6524 43.8488 69.5902 43.8925C69.5281 43.9362 69.4746 44.0008 69.4345 44.0803C69.388 44.1787 69.3633 44.2941 69.3633 44.4121V53.3116C69.3633 53.4681 69.4076 53.6183 69.4865 53.7291C69.5653 53.84 69.6724 53.9026 69.7842 53.9032H80.1728C80.2846 53.9026 80.3917 53.84 80.4706 53.7291C80.5494 53.6183 80.5937 53.4681 80.5937 53.3116V44.4214C80.5938 44.2665 80.5504 44.1177 80.4729 44.0071C80.3955 43.8965 80.2901 43.8328 80.1795 43.8298Z" fill="#263238" stroke="#263238" stroke-width="1.25903" stroke-linecap="round" stroke-linejoin="round"/>
<path d="M79.8994 43.4028H69.5124C69.4006 43.4028 69.2934 43.4648 69.2142 43.5753C69.135 43.6857 69.0903 43.8356 69.0898 43.9921V45.7739H80.322V43.9921C80.3215 43.8356 80.2768 43.6857 80.1976 43.5753C80.1184 43.4648 80.0112 43.4028 79.8994 43.4028Z" fill="#EF233C" stroke="#263238" stroke-width="1.25903" stroke-linecap="round" stroke-linejoin="round"/>
<path d="M78.9043 44.1221H79.9052" stroke="#263238" stroke-width="1.25903" stroke-linecap="round" stroke-linejoin="round"/>
<path d="M78.9043 44.5884H79.9052" stroke="#263238" stroke-width="1.25903" stroke-linecap="round" stroke-linejoin="round"/>
<path d="M79.9052 45.0547H78.9043" stroke="#263238" stroke-width="1.25903" stroke-linecap="round" stroke-linejoin="round"/>
<path d="M74.7059 45.7739L74.4474 44.2984C74.4022 44.0428 74.2972 43.8157 74.1492 43.6534C74.0011 43.4911 73.8185 43.4029 73.6304 43.4028H69.5124C69.4006 43.4028 69.2934 43.4648 69.2142 43.5753C69.135 43.6857 69.0903 43.8356 69.0898 43.9921V52.8963C69.0898 53.0532 69.1344 53.2036 69.2136 53.3146C69.2929 53.4255 69.4003 53.4879 69.5124 53.4879H79.8994C80.0115 53.4879 80.1189 53.4255 80.1982 53.3146C80.2774 53.2036 80.322 53.0532 80.322 52.8963V45.7739H74.7059Z" fill="#999999" stroke="#263238" stroke-width="1.25903" stroke-linecap="round" stroke-linejoin="round"/>
<path d="M40.9569 70.8298H45.2854C45.3831 70.8298 45.461 70.7718 45.461 70.6998V64.4126C45.461 64.3407 45.3831 64.2827 45.2854 64.2827H40.9569C40.8608 64.2827 40.7812 64.3407 40.7812 64.4126V70.6998C40.7812 70.7718 40.8608 70.8298 40.9569 70.8298Z" fill="#EF233C" stroke="#263238" stroke-width="1.25903" stroke-linecap="round" stroke-linejoin="round"/>
<path d="M74.2858 64.8628H63.8972C63.7851 64.8628 63.6776 64.9251 63.5984 65.0361C63.5191 65.147 63.4746 65.2975 63.4746 65.4544V67.2338H74.7067V65.4544C74.7067 65.2979 74.6624 65.1478 74.5835 65.0369C74.5047 64.926 74.3976 64.8634 74.2858 64.8628Z" fill="#EF233C" stroke="#263238" stroke-width="1.25903" stroke-linecap="round" stroke-linejoin="round"/>
<path d="M73.2871 65.582H74.288" stroke="#263238" stroke-width="1.25903" stroke-linecap="round" stroke-linejoin="round"/>
<path d="M73.2871 66.0483H74.288" stroke="#263238" stroke-width="1.25903" stroke-linecap="round" stroke-linejoin="round"/>
<path d="M74.288 66.5146H73.2871" stroke="#263238" stroke-width="1.25903" stroke-linecap="round" stroke-linejoin="round"/>
<path d="M69.0907 67.2338L68.8321 65.7583C68.787 65.5027 68.682 65.2757 68.5339 65.1134C68.3859 64.9511 68.2032 64.8629 68.0152 64.8628H63.8972C63.7851 64.8628 63.6776 64.9251 63.5984 65.0361C63.5191 65.147 63.4746 65.2975 63.4746 65.4544V74.3539C63.4746 74.5108 63.5191 74.6613 63.5984 74.7722C63.6776 74.8832 63.7851 74.9455 63.8972 74.9455H74.2858C74.3976 74.9449 74.5047 74.8823 74.5835 74.7714C74.6624 74.6605 74.7067 74.5104 74.7067 74.3539V67.2338H69.0907Z" fill="#999999" stroke="#263238" stroke-width="1.25903" stroke-linecap="round" stroke-linejoin="round"/>
<path d="M81.9375 23.5552H82.7197" stroke="#263238" stroke-width="1.25903" stroke-linecap="round" stroke-linejoin="round"/>
<path d="M78.9043 23.5552H81.0221" stroke="#263238" stroke-width="1.25903" stroke-linecap="round" stroke-linejoin="round"/>
<path d="M56.1211 23.5552H77.0541" stroke="#263238" stroke-width="1.25903" stroke-linecap="round" stroke-linejoin="round"/>
<path d="M53.7559 23.5552H55.007" stroke="#263238" stroke-width="1.25903" stroke-linecap="round" stroke-linejoin="round"/>
<path d="M65.5721 59.1136C65.5854 58.8816 65.5937 58.6496 65.5937 58.4176C65.5937 58.1856 65.5854 57.9536 65.5721 57.7216L64.031 57.4432C63.9499 56.6237 63.7665 55.8305 63.4891 55.1L64.6276 53.592C64.4506 53.1919 64.2523 52.8111 64.0343 52.4529L62.6688 53.4946C62.2585 52.8994 61.7774 52.4088 61.247 52.0446L61.5337 49.9055C61.2229 49.7263 60.9027 49.5812 60.5758 49.4717L59.913 51.439C59.3315 51.2936 58.7362 51.2936 58.1548 51.439L57.4919 49.4717C57.1651 49.5812 56.8448 49.7263 56.5341 49.9055L56.8208 52.0446C56.2903 52.4088 55.8092 52.8994 55.3989 53.4946L54.0218 52.4482C53.802 52.8072 53.6026 53.1896 53.4253 53.592L54.5554 55.0861C54.2768 55.8161 54.0928 56.6094 54.0119 57.4293L52.4708 57.7077C52.4575 57.9397 52.4492 58.1717 52.4492 58.4037C52.4492 58.6357 52.4575 58.8677 52.4708 59.0997L54.0119 59.3804C54.0931 60.1995 54.2771 60.992 54.5554 61.7213L53.4253 63.2177C53.6011 63.6182 53.7989 63.9991 54.0169 64.3568L55.3824 63.3128C55.7922 63.9087 56.2734 64.3994 56.8042 64.7628L56.5175 66.9018C56.8282 67.0819 57.1484 67.2277 57.4753 67.338L58.1382 65.3683C58.7197 65.5137 59.3149 65.5137 59.8964 65.3683L60.5593 67.338C60.8862 67.2277 61.2064 67.0819 61.5171 66.9018L61.2304 64.7628C61.7612 64.3994 62.2424 63.9087 62.6522 63.3128L64.0177 64.3568C64.2357 63.9985 64.434 63.6177 64.611 63.2177L63.4808 61.7213C63.7599 60.9958 63.9461 60.2074 64.031 59.392L65.5721 59.1136ZM59.0214 53.1512C59.597 53.1526 60.1645 53.3396 60.6801 53.6977C61.1957 54.0557 61.6454 54.5753 61.9944 55.216L59.5782 56.7774C59.4043 56.6613 59.2141 56.6011 59.0214 56.6011C58.8288 56.6011 58.6386 56.6613 58.4646 56.7774L56.0485 55.216C56.3977 54.5756 56.8474 54.0562 57.363 53.6981C57.8785 53.3401 58.446 53.1529 59.0214 53.1512ZM55.2664 58.4083C55.2662 57.7298 55.3602 57.0577 55.5431 56.4294L57.7289 58.587C57.7472 58.8465 57.8052 59.0976 57.899 59.323C57.9928 59.5483 58.1201 59.7428 58.2724 59.8931L58.5144 63.6051C57.6158 63.4347 56.7917 62.8144 56.1946 61.859C55.5975 60.9036 55.2678 59.6778 55.2664 58.4083ZM59.5285 63.6121L59.7705 59.9001C59.9231 59.7502 60.0506 59.5559 60.1445 59.3304C60.2383 59.1049 60.2961 58.8537 60.314 58.5939L62.4998 56.4363C62.7168 57.1788 62.8095 57.981 62.7706 58.7814C62.7316 59.5818 62.5622 60.3591 62.2753 61.0535C61.9884 61.748 61.5917 62.3412 61.1155 62.7875C60.6393 63.2338 60.0965 63.5215 59.5285 63.6283V63.6121Z" fill="#263238" stroke="#263238" stroke-width="1.25903" stroke-linecap="round" stroke-linejoin="round"/>
<path d="M59.5683 58.4083C59.5686 58.5598 59.5369 58.7081 59.477 58.8343C59.4171 58.9605 59.3318 59.059 59.2319 59.1173C59.132 59.1756 59.022 59.1911 58.9158 59.1618C58.8096 59.1325 58.712 59.0598 58.6354 58.9528C58.5587 58.8458 58.5065 58.7094 58.4852 58.5608C58.464 58.4123 58.4747 58.2582 58.5161 58.1182C58.5574 57.9781 58.6275 57.8584 58.7175 57.7742C58.8074 57.69 58.9132 57.645 59.0215 57.645C59.1662 57.645 59.3051 57.7254 59.4076 57.8684C59.5101 58.0115 59.5679 58.2057 59.5683 58.4083Z" fill="white" stroke="#263238" stroke-width="1.25903" stroke-linecap="round" stroke-linejoin="round"/>
<path d="M65.5518 43.2519C65.5617 43.0848 65.5667 42.9178 65.5667 42.7461C65.5667 42.5744 65.5667 42.4097 65.5518 42.2427L64.4498 42.0431C64.392 41.4572 64.2607 40.8901 64.062 40.3681L64.8707 39.2986C64.7442 39.0125 64.6024 38.7403 64.4465 38.4843L63.4687 39.2313C63.1757 38.8047 62.8313 38.4536 62.4513 38.1943L62.6567 36.6631C62.4361 36.5366 62.209 36.4335 61.9773 36.3545L61.5001 37.7604C61.0842 37.6552 60.6582 37.6552 60.2423 37.7604L59.7667 36.3545C59.5317 36.4303 59.3013 36.5311 59.0773 36.6561L59.2828 38.1873C58.9033 38.4467 58.5594 38.7978 58.267 39.2243L57.2909 38.4773C57.1345 38.7327 56.9926 39.005 56.8667 39.2916L57.6687 40.3681C57.4707 40.8905 57.3395 41.4574 57.281 42.0431L56.179 42.2427C56.1707 42.4097 56.1641 42.5767 56.1641 42.7461C56.1641 42.9155 56.1641 43.0848 56.179 43.2519L57.281 43.4514C57.3395 44.0371 57.4707 44.604 57.6687 45.1264L56.8617 46.1959C56.9881 46.4814 57.1299 46.7529 57.2859 47.0079L58.262 46.2632C58.5553 46.6884 58.899 47.0393 59.2778 47.3003L59.0723 48.8291C59.2948 48.958 59.5242 49.062 59.7584 49.14L60.234 47.7341C60.6501 47.8361 61.0757 47.8361 61.4918 47.7341L61.969 49.14C62.2026 49.0617 62.4315 48.9577 62.6534 48.8291L62.4479 47.3003C62.8273 47.0393 63.1715 46.6884 63.4654 46.2632L64.4415 47.0079C64.597 46.7523 64.7388 46.4809 64.8657 46.1959L64.057 45.1264C64.2558 44.6044 64.387 44.0373 64.4448 43.4514L65.5518 43.2519ZM60.8687 38.9877C61.2795 38.9879 61.6848 39.1205 62.0532 39.3751C62.4216 39.6298 62.7432 39.9997 62.9931 40.4563L61.2664 41.5722C61.1421 41.4896 61.0063 41.4468 60.8687 41.4468C60.7311 41.4468 60.5953 41.4896 60.471 41.5722L58.7426 40.4563C58.9928 39.9995 59.3146 39.6295 59.6833 39.3749C60.052 39.1202 60.4576 38.9877 60.8687 38.9877ZM58.1825 42.7461C58.1824 42.2608 58.25 41.7801 58.3813 41.3309L59.944 42.8737C59.9574 43.0585 59.9991 43.2371 60.0663 43.3973C60.1335 43.5574 60.2246 43.6954 60.3334 43.8017L60.4991 46.4604C59.858 46.3362 59.2706 45.892 58.8449 45.2095C58.4192 44.527 58.1839 43.6522 58.1825 42.7461ZM61.2299 46.4581L61.4039 43.7994C61.5123 43.6924 61.6031 43.5543 61.6702 43.3943C61.7374 43.2342 61.7794 43.0559 61.7934 42.8714L63.3544 41.3286C63.5092 41.8591 63.575 42.4322 63.547 43.004C63.519 43.5757 63.3977 44.1308 63.1926 44.6268C62.9875 45.1227 62.7039 45.5462 62.3637 45.8649C62.0235 46.1836 61.6356 46.3889 61.2299 46.4651V46.4581Z" fill="#757575" stroke="#263238" stroke-width="1.25903" stroke-linecap="round" stroke-linejoin="round"/>
<path d="M60.8676 43.2938C61.0836 43.2938 61.2587 43.0486 61.2587 42.7463C61.2587 42.4439 61.0836 42.1987 60.8676 42.1987C60.6517 42.1987 60.4766 42.4439 60.4766 42.7463C60.4766 43.0486 60.6517 43.2938 60.8676 43.2938Z" fill="white" stroke="#263238" stroke-width="1.25903" stroke-linecap="round" stroke-linejoin="round"/>
<path d="M53.5373 65.2455C53.5373 65.1341 53.5489 65.0135 53.5489 64.9114C53.5489 64.8093 53.5489 64.6794 53.5373 64.575L52.8032 64.4404C52.765 64.0499 52.6774 63.672 52.5446 63.3245L53.0832 62.6123C52.9993 62.4215 52.9052 62.24 52.8015 62.0694L52.1502 62.5659C51.9548 62.2807 51.7254 62.0452 51.4725 61.8699L51.6083 60.8514C51.4607 60.7648 51.3083 60.695 51.1526 60.6426L50.8345 61.5706C50.6962 61.535 50.5558 61.5172 50.4152 61.5172C50.2746 61.5174 50.1343 61.5353 49.996 61.5706L49.6794 60.6426C49.5233 60.6953 49.3704 60.7652 49.2221 60.8514L49.3596 61.8699C49.1064 62.0447 48.877 62.2802 48.6818 62.5659L48.0306 62.0694C47.9264 62.2394 47.8322 62.421 47.7489 62.6123L48.2874 63.3245C48.1541 63.6719 48.066 64.0498 48.0273 64.4404L47.2932 64.575C47.2932 64.6863 47.2832 64.807 47.2832 64.9114C47.2832 65.0158 47.2832 65.1434 47.2932 65.2455L48.0273 65.38C48.066 65.7707 48.1541 66.1485 48.2874 66.4959L47.7472 67.2082C47.8317 67.399 47.9264 67.5805 48.0306 67.7511L48.6818 67.2546C48.8765 67.5409 49.106 67.7766 49.3596 67.9506L49.2221 68.9691C49.3704 69.0553 49.5233 69.1251 49.6794 69.1779L49.996 68.2383C50.1343 68.2736 50.2746 68.2914 50.4152 68.2916C50.5558 68.2916 50.6962 68.2738 50.8345 68.2383L51.1526 69.1779C51.3083 69.1254 51.4607 69.0556 51.6083 68.9691L51.4725 67.9506C51.7258 67.776 51.9552 67.5404 52.1502 67.2546L52.8015 67.7511C52.9052 67.5804 52.9993 67.3989 53.0832 67.2082L52.5446 66.4959C52.6774 66.1484 52.765 65.7705 52.8032 65.38L53.5373 65.2455ZM50.4152 62.4081C50.6892 62.4079 50.9596 62.4961 51.2053 62.6659C51.451 62.8357 51.6655 63.0825 51.8321 63.3871L50.6803 64.1319C50.5976 64.0764 50.507 64.0479 50.4152 64.0483C50.3235 64.0484 50.233 64.077 50.1501 64.1319L48.9983 63.3871C49.1652 63.0829 49.3797 62.8364 49.6253 62.6666C49.871 62.4969 50.1412 62.4084 50.4152 62.4081ZM48.6255 64.916C48.6256 64.5922 48.6706 64.2715 48.7581 63.9718L49.7987 64.9995C49.8077 65.1235 49.8356 65.2434 49.8805 65.3511C49.9254 65.4587 49.9862 65.5517 50.0589 65.6236L50.1749 67.3961C49.7456 67.3147 49.3519 67.0179 49.067 66.561C48.782 66.1041 48.6252 65.5179 48.6255 64.9114V64.916ZM50.6571 67.3961L50.7732 65.6236C50.8456 65.5515 50.9062 65.4585 50.9508 65.3509C50.9954 65.2432 51.023 65.1234 51.0317 64.9995L52.074 63.9718C52.1765 64.3256 52.2199 64.7075 52.2008 65.0884C52.1818 65.4692 52.1008 65.839 51.9641 66.1694C51.8274 66.4997 51.6386 66.782 51.4121 66.9946C51.1856 67.2072 50.9274 67.3445 50.6571 67.3961Z" fill="white" stroke="#263238" stroke-width="1.25903" stroke-linecap="round" stroke-linejoin="round"/>
<path d="M50.6746 64.9116C50.6746 64.9836 50.6594 65.0541 50.6308 65.114C50.6022 65.1739 50.5616 65.2205 50.514 65.2481C50.4665 65.2757 50.4142 65.2829 50.3637 65.2688C50.3132 65.2548 50.2669 65.2201 50.2305 65.1692C50.1941 65.1182 50.1693 65.0533 50.1593 64.9827C50.1493 64.912 50.1544 64.8388 50.1741 64.7722C50.1938 64.7057 50.2271 64.6488 50.2699 64.6087C50.3127 64.5687 50.363 64.5474 50.4145 64.5474C50.4835 64.5474 50.5496 64.5857 50.5984 64.654C50.6472 64.7224 50.6746 64.815 50.6746 64.9116Z" stroke="#263238" stroke-width="1.25903" stroke-linecap="round" stroke-linejoin="round"/>
<path d="M30.7978 66.992L38.4953 66.1011L34.4817 88.4427L28.4082 101.783L25.959 99.9916C25.959 99.9916 28.8126 90.1641 30.8989 86.5611C30.8989 86.5611 31.343 79.4272 31.7474 75.692C31.7474 75.692 30.9901 70.4743 30.7978 66.992Z" fill="#858585"/>
<mask id="mask15_2082_16982" style="mask-type:luminance" maskUnits="userSpaceOnUse" x="25" y="66" width="14" height="36">
<path d="M30.7978 66.992L38.4953 66.1011L34.4817 88.4427L28.4082 101.783L25.959 99.9916C25.959 99.9916 28.8126 90.1641 30.8989 86.5611C30.8989 86.5611 31.343 79.4272 31.7474 75.692C31.7474 75.692 30.9901 70.4743 30.7978 66.992Z" fill="white"/>
</mask>
<g mask="url(#mask15_2082_16982)">
<path d="M36.145 66.3726L32.8125 66.7577C32.8125 66.7577 32.5474 71.5902 35.1027 75.2674L36.2925 78.3554L37.4774 71.7573L36.145 66.3726Z" fill="#263238" stroke="#263238" stroke-width="1.25903" stroke-linecap="round" stroke-linejoin="round"/>
</g>
<path d="M30.7978 66.992L38.4953 66.1011L34.4817 88.4427L28.4082 101.783L25.959 99.9916C25.959 99.9916 28.8126 90.1641 30.8989 86.5611C30.8989 86.5611 31.343 79.4272 31.7474 75.692C31.7474 75.692 30.9901 70.4743 30.7978 66.992Z" stroke="#263238" stroke-width="1.25903" stroke-linecap="round" stroke-linejoin="round"/>
<path d="M30.8244 88.1714C30.6803 88.2817 30.5481 88.4199 30.4316 88.582" stroke="#263238" stroke-width="1.25903" stroke-linecap="round" stroke-linejoin="round"/>
<path d="M31.4201 86.4638C31.4201 86.4638 32.9215 86.0972 33.2314 87.5588C33.475 88.7026 32.3812 87.6261 31.3008 87.9346" stroke="#263238" stroke-width="1.25903" stroke-linecap="round" stroke-linejoin="round"/>
<path d="M33.2325 66.9761L39.3838 65.7256L43.3974 83.3901L46.7547 99.296L43.9939 100.804C43.9939 100.804 40.7426 90.9625 39.9936 85.601C39.9936 85.601 36.9925 78.4462 35.927 75.0102C35.0814 74.0334 34.4012 72.8061 33.9352 71.4168C33.4693 70.0275 33.2293 68.5109 33.2325 66.9761Z" fill="#999999" stroke="#263238" stroke-width="1.25903" stroke-linecap="round" stroke-linejoin="round"/>
<path d="M38.916 74.8687C39.1847 74.9113 39.4413 75.0486 39.6617 75.2677" stroke="#263238" stroke-width="1.25903" stroke-linecap="round" stroke-linejoin="round"/>
<path d="M38.3396 72.8315C37.8955 73.3582 36.1141 73.567 36.5317 74.5855C36.7802 75.191 37.4729 74.9358 38.2137 74.8592" stroke="#263238" stroke-width="1.25903" stroke-linecap="round" stroke-linejoin="round"/>
<path d="M40.4043 85.2225C40.4043 85.2225 41.3124 84.4175 42.0432 85.2225" stroke="#263238" stroke-width="1.25903" stroke-linecap="round" stroke-linejoin="round"/>
<path d="M29.1953 107.049L23.9023 102.85L24.0482 102.365L24.2586 102.453C24.2586 102.453 24.6017 101.757 25.4534 100.301C25.6903 99.2653 26.0445 98.2901 26.5024 97.4121C26.5024 97.4121 29.8614 98.9039 29.3195 100.676L28.602 102.428C28.9303 103.205 29.29 103.956 29.6791 104.676C29.6791 104.676 30.4679 105.386 30.6734 105.446C30.7671 105.466 30.8567 105.513 30.9362 105.585C31.0156 105.657 31.0832 105.752 31.1342 105.864C31.1852 105.976 31.2186 106.101 31.232 106.233C31.2454 106.364 31.2386 106.498 31.212 106.625L31.4158 106.685L31.2866 107.191L29.1953 107.049Z" fill="#EF233C" stroke="#263238" stroke-width="1.25903" stroke-linecap="round" stroke-linejoin="round"/>
<path d="M27.6748 98.0687C27.2923 97.817 26.8994 97.5978 26.4982 97.4121C26.0403 98.2901 25.6861 99.2653 25.4492 100.301C26.8661 101.53 27.6748 98.0687 27.6748 98.0687Z" fill="#EF233C"/>
<mask id="mask16_2082_16982" style="mask-type:luminance" maskUnits="userSpaceOnUse" x="25" y="97" width="3" height="4">
<path d="M27.6748 98.0687C27.2923 97.817 26.8994 97.5978 26.4982 97.4121C26.0403 98.2901 25.6861 99.2653 25.4492 100.301C26.8661 101.53 27.6748 98.0687 27.6748 98.0687Z" fill="white"/>
</mask>
<g mask="url(#mask16_2082_16982)">
<path opacity="0.5" d="M27.6748 98.0687C27.2923 97.817 26.8994 97.5978 26.4982 97.4121C26.0403 98.2901 25.6861 99.2653 25.4492 100.301C26.8661 101.53 27.6748 98.0687 27.6748 98.0687Z" fill="black"/>
</g>
<path d="M27.6748 98.0687C27.2923 97.817 26.8994 97.5978 26.4982 97.4121C26.0403 98.2901 25.6861 99.2653 25.4492 100.301C26.8661 101.53 27.6748 98.0687 27.6748 98.0687Z" stroke="#263238" stroke-width="1.25903" stroke-linecap="round" stroke-linejoin="round"/>
<path d="M28.7864 102.825C28.7009 103 28.5834 103.14 28.4461 103.23C28.3087 103.319 28.1567 103.356 28.0059 103.335" stroke="#263238" stroke-width="1.25903" stroke-linecap="round" stroke-linejoin="round"/>
<path d="M29.0877 103.456C29.0877 103.456 29.0098 103.964 28.4414 104.186" stroke="#263238" stroke-width="1.25903" stroke-linecap="round" stroke-linejoin="round"/>
<path d="M29.3893 104.091C29.3893 104.091 29.4904 104.588 28.8789 105.047" stroke="#263238" stroke-width="1.25903" stroke-linecap="round" stroke-linejoin="round"/>
<path d="M29.8027 106.441L30.8302 106.546" stroke="#263238" stroke-width="1.25903" stroke-linecap="round" stroke-linejoin="round"/>
<path d="M25.2305 103.228L29.2176 106.381L29.5772 105.741" stroke="#263238" stroke-width="1.25903" stroke-linecap="round" stroke-linejoin="round"/>
<path d="M24.623 102.748L24.8981 102.966" stroke="#263238" stroke-width="1.25903" stroke-linecap="round" stroke-linejoin="round"/>
<path d="M43.5566 100.249C43.5566 100.249 46.5395 97.6325 47.1626 99.3516L47.6498 101.252C47.6498 101.252 50.0493 101.762 50.7801 101.542C50.8709 101.508 50.9658 101.501 51.0585 101.522C51.1513 101.543 51.2397 101.591 51.3181 101.664C51.3965 101.737 51.4629 101.832 51.513 101.943C51.5631 102.054 51.5957 102.179 51.6087 102.31L51.8125 102.249L51.8424 102.785L44.8277 106.546L44.662 106.082L44.8459 105.915C44.8459 105.915 44.6951 105.103 44.4482 103.245C44.038 102.32 43.737 101.308 43.5566 100.249Z" fill="#EF233C" stroke="#263238" stroke-width="1.25903" stroke-linecap="round" stroke-linejoin="round"/>
<path d="M44.6752 99.4209C44.2908 99.6653 43.9173 99.9419 43.5566 100.249C43.7378 101.307 44.0394 102.316 44.4498 103.24C46.0341 102.527 44.6752 99.4209 44.6752 99.4209Z" fill="#EF233C"/>
<mask id="mask17_2082_16982" style="mask-type:luminance" maskUnits="userSpaceOnUse" x="43" y="99" width="3" height="5">
<path d="M44.6752 99.4209C44.2908 99.6653 43.9173 99.9419 43.5566 100.249C43.7378 101.307 44.0394 102.316 44.4498 103.24C46.0341 102.527 44.6752 99.4209 44.6752 99.4209Z" fill="white"/>
</mask>
<g mask="url(#mask17_2082_16982)">
<path opacity="0.5" d="M44.6752 99.4209C44.2908 99.6653 43.9173 99.9419 43.5566 100.249C43.7378 101.307 44.0394 102.316 44.4498 103.24C46.0341 102.527 44.6752 99.4209 44.6752 99.4209Z" fill="black"/>
</g>
<path d="M44.6752 99.4209C44.2908 99.6653 43.9173 99.9419 43.5566 100.249C43.7378 101.307 44.0394 102.316 44.4498 103.24C46.0341 102.527 44.6752 99.4209 44.6752 99.4209Z" stroke="#263238" stroke-width="1.25903" stroke-linecap="round" stroke-linejoin="round"/>
<path d="M51 102.655L51.3281 102.479" stroke="#263238" stroke-width="1.25903" stroke-linecap="round" stroke-linejoin="round"/>
<path d="M46.5137 105.059L50.5853 102.878" stroke="#263238" stroke-width="1.25903" stroke-linecap="round" stroke-linejoin="round"/>
<path d="M45.1348 105.797L45.7164 105.486" stroke="#263238" stroke-width="1.25903" stroke-linecap="round" stroke-linejoin="round"/>
<path d="M47.9826 101.316C48.0222 101.521 48.0219 101.736 47.9817 101.94C47.9415 102.144 47.8628 102.33 47.7539 102.476" stroke="#263238" stroke-width="1.25903" stroke-linecap="round" stroke-linejoin="round"/>
<path d="M48.5199 101.405C48.5199 101.405 48.7453 101.818 48.5 102.565" stroke="#263238" stroke-width="1.25903" stroke-linecap="round" stroke-linejoin="round"/>
<path d="M49.0645 101.493C49.0645 101.493 49.3959 101.706 49.2534 102.653" stroke="#263238" stroke-width="1.25903" stroke-linecap="round" stroke-linejoin="round"/>
<path d="M28.9508 43.0381C28.3459 44.0272 27.949 45.2319 27.8041 46.5181C27.5439 48.7082 26.3126 53.3783 26.7087 53.7263C27.1047 54.0743 30.83 57.9023 30.83 57.9023L32.4639 55.7842L30.1439 51.6453L31.294 44.611L28.9508 43.0381Z" fill="#EF233C"/>
<mask id="mask18_2082_16982" style="mask-type:luminance" maskUnits="userSpaceOnUse" x="26" y="43" width="7" height="15">
<path d="M28.9508 43.0381C28.3459 44.0272 27.949 45.2319 27.8041 46.5181C27.5439 48.7082 26.3126 53.3783 26.7087 53.7263C27.1047 54.0743 30.83 57.9023 30.83 57.9023L32.4639 55.7842L30.1439 51.6453L31.294 44.611L28.9508 43.0381Z" fill="white"/>
</mask>
<g mask="url(#mask18_2082_16982)">
<path opacity="0.3" d="M28.9508 43.0381C28.3459 44.0272 27.949 45.2319 27.8041 46.5181C27.5439 48.7082 26.3126 53.3783 26.7087 53.7263C27.1047 54.0743 30.83 57.9023 30.83 57.9023L32.4639 55.7842L30.1439 51.6453L31.294 44.611L28.9508 43.0381Z" fill="black"/>
</g>
<path d="M28.9508 43.0381C28.3459 44.0272 27.949 45.2319 27.8041 46.5181C27.5439 48.7082 26.3126 53.3783 26.7087 53.7263C27.1047 54.0743 30.83 57.9023 30.83 57.9023L32.4639 55.7842L30.1439 51.6453L31.294 44.611L28.9508 43.0381Z" stroke="#263238" stroke-width="1.25903" stroke-linecap="round" stroke-linejoin="round"/>
<path d="M27.3789 52.8056C27.6287 52.4726 27.9382 52.2405 28.2746 52.1339C28.611 52.0273 28.9617 52.0501 29.2896 52.2" stroke="#263238" stroke-width="1.25903" stroke-linecap="round" stroke-linejoin="round"/>
<path d="M23.9662 63.2314C24.4155 63.8217 24.9687 64.2345 25.5692 64.4274C26.1697 64.6204 26.7961 64.5867 27.3843 64.3298C27.9725 64.0728 28.5014 63.6018 28.917 62.965C29.3325 62.3281 29.6199 61.5482 29.7497 60.705L56.5788 47.7431C57.0524 48.2949 57.6222 48.6608 58.2299 48.8034C58.8376 48.946 59.4614 48.8601 60.0376 48.5545C60.6139 48.249 61.1218 47.7347 61.5095 47.0643C61.8973 46.3939 62.1509 45.5913 62.2446 44.7387V44.1541L59.6578 45.4046L58.3055 43.7597L58.5955 41.6717L61.1823 40.4235V39.8389C60.7331 39.248 60.1798 38.8347 59.579 38.6414C58.9783 38.4481 58.3516 38.4816 57.7632 38.7386C57.1747 38.9956 56.6456 39.4668 56.2299 40.104C55.8142 40.7413 55.5269 41.5216 55.3973 42.3654L28.5681 55.3272C28.0945 54.7754 27.5247 54.4095 26.917 54.2669C26.3094 54.1243 25.6855 54.2102 25.1093 54.5158C24.5331 54.8213 24.0251 55.3356 23.6374 56.006C23.2496 56.6764 22.996 57.479 22.9023 58.3316V58.9278L25.4891 57.6774L26.8414 59.3199L26.553 61.4079L23.9662 62.6398V63.2314Z" fill="#CBF2D6" stroke="#263238" stroke-width="1.25903" stroke-linecap="round" stroke-linejoin="round"/>
<path d="M58.2376 43.6763L58.5955 41.0918L61.1823 39.8413C60.7331 39.2504 60.1798 38.8371 59.579 38.6438C58.9783 38.4505 58.3516 38.4841 57.7632 38.7411C57.1747 38.9981 56.6456 39.4693 56.2299 40.1065C55.8142 40.7437 55.5269 41.5241 55.3973 42.3678L28.5681 55.3296C28.0945 54.7778 27.5247 54.4119 26.917 54.2693C26.3094 54.1268 25.6855 54.2127 25.1093 54.5182C24.5331 54.8238 24.0251 55.338 23.6374 56.0085C23.2496 56.6789 22.996 57.4814 22.9023 58.334L25.4891 57.0859L26.911 58.812L26.553 61.3988L23.9662 62.64C24.4155 63.2303 24.9687 63.643 25.5692 63.836C26.1697 64.0289 26.7961 63.9952 27.3843 63.7383C27.9725 63.4813 28.5014 63.0104 28.917 62.3735C29.3325 61.7367 29.6199 60.9567 29.7497 60.1135L56.5788 47.1516C57.053 47.7036 57.6234 48.0694 58.2317 48.2113C58.8399 48.3533 59.4643 48.2664 60.0407 47.9595C60.6171 47.6527 61.1249 47.1369 61.5122 46.465C61.8994 45.7931 62.1522 44.9892 62.2446 44.1356L59.6578 45.4047L58.2376 43.6763Z" fill="#858585" stroke="#263238" stroke-width="1.25903" stroke-linecap="round" stroke-linejoin="round"/>
<path d="M37.9483 35.5981C37.9483 35.5981 37.4296 34.155 37.3534 33.6307C37.2987 33.2595 37.4064 32.4846 37.3534 32.1134C37.2258 31.2434 36.3591 28.8469 36.3591 28.8469C36.3237 28.7438 36.2701 28.6552 36.2034 28.5894L35.6863 29.464H34.3026L32.1914 33.3709L33.2304 36.888L32.9255 37.3938C33.1128 37.6513 33.2304 37.7998 33.2304 37.7998L32.9255 40.3518L35.9084 40.774L35.9863 39.15H36.8927C37.0148 39.1494 37.1317 39.0812 37.218 38.9604C37.3043 38.8396 37.353 38.6759 37.3534 38.505V36.2941L37.7693 36.1294C37.8077 36.1145 37.8434 36.0882 37.8739 36.0523C37.9043 36.0163 37.9289 35.9716 37.9459 35.9212C37.9629 35.8708 37.9719 35.8158 37.9723 35.76C37.9727 35.7042 37.9646 35.649 37.9483 35.5981Z" fill="white" stroke="#263238" stroke-width="1.25903" stroke-linecap="round" stroke-linejoin="round"/>
<path d="M33.2305 37.7928L33.7376 36.4008C33.7376 36.4008 32.6439 35.8556 32.8709 34.4868C33.0979 33.118 34.011 34.2803 34.011 34.2803H34.3027L34.5612 32.6981C34.5612 32.6981 35.1959 31.7446 35.1511 31.4105C35.1168 31.1677 35.0714 30.9283 35.0152 30.6936C35.0152 30.6936 37.0668 30.2551 36.8 28.5662C36.5332 26.8772 33.7807 27.5175 33.7807 27.5175C33.7807 27.5175 32.9687 25.4898 30.8823 29.4315C30.8823 29.4315 29.3611 30.6472 30.473 33.1992C31.2467 34.8906 32.1736 36.4346 33.2305 37.7928Z" fill="#263238" stroke="#263238" stroke-width="1.25903" stroke-linecap="round" stroke-linejoin="round"/>
<path d="M34.304 31.1479C34.304 31.1479 32.7098 35.6024 31.3526 35.9318L30.9102 35.0919C30.9102 35.0919 30.988 34.3797 31.8481 34.2799C31.8481 34.2799 32.6601 33.7788 33.6212 31.4101L34.304 31.1479Z" fill="#858585" stroke="#263238" stroke-width="1.25903" stroke-linecap="round" stroke-linejoin="round"/>
<path d="M35.9043 35.9321C36.0156 36.1049 36.1552 36.2373 36.311 36.3181C36.4668 36.3989 36.6343 36.4257 36.7992 36.3961" stroke="#263238" stroke-width="1.25903" stroke-linecap="round" stroke-linejoin="round"/>
<path d="M36.7989 33.199C36.7989 33.3962 36.7442 33.5586 36.6779 33.5586C36.6116 33.5586 36.5586 33.3962 36.5586 33.199C36.5586 33.0018 36.6133 32.8394 36.6779 32.8394C36.7425 32.8394 36.7989 32.9994 36.7989 33.199Z" fill="#263238"/>
<path d="M36.7994 31.8351C36.6341 31.7845 36.4613 31.8176 36.3117 31.9285C36.1622 32.0393 36.0455 32.2208 35.9824 32.4406" stroke="#263238" stroke-width="1.25903" stroke-linecap="round" stroke-linejoin="round"/>
<path d="M30.8777 34.3567C30.8498 34.4088 30.8129 34.4501 30.7705 34.4768C30.7281 34.5035 30.6815 34.5147 30.6352 34.5094C30.5888 34.504 30.5442 34.4823 30.5055 34.4463C30.4668 34.4103 30.4352 34.3611 30.4137 34.3034C29.8867 32.8905 28.8063 29.095 31.7046 27.2204C35.1498 24.9932 36.9959 28.0278 36.9959 28.0278L37.9123 28.1647L38.1559 28.7609L31.2622 33.6399L30.8777 34.3567Z" fill="#EF233C" stroke="#263238" stroke-width="1.25903" stroke-linecap="round" stroke-linejoin="round"/>
<path d="M31.6792 41.0431C31.8244 40.6368 32.0454 40.2929 32.3187 40.0479C32.592 39.8029 32.9075 39.6658 33.2319 39.6511C34.377 39.5769 36.1352 39.7973 36.586 41.3308C36.586 41.3308 39.0568 42.3307 39.6268 44.7876C40.1969 47.2445 39.3849 58.5638 39.3849 58.5638C39.3849 58.5638 40.114 63.0924 39.6616 66.1107C39.6616 66.1107 37.1593 67.3125 30.3816 67.5027C30.3816 67.5027 29.8845 61.6401 30.1679 59.5591C30.1679 59.5591 28.1909 44.9222 28.9548 43.0221C29.7188 41.122 31.6792 41.0431 31.6792 41.0431Z" fill="#263238" stroke="#263238" stroke-width="1.25903" stroke-miterlimit="10"/>
<path d="M32.9673 52.0423C30.944 51.9773 29.8933 52.6757 29.3945 53.2023C29.494 54.1303 29.595 55.0165 29.6912 55.8216C30.0027 55.4597 30.823 55.0583 32.916 55.0003C35.1552 54.9458 37.3869 55.3786 39.5313 56.2833C39.5777 55.4968 39.629 54.5618 39.6754 53.5665C38.5436 53.1443 35.5028 52.1212 32.9673 52.0423Z" fill="#EF233C" stroke="#263238" stroke-width="1.25903" stroke-linecap="round" stroke-linejoin="round"/>
<path d="M39.3842 58.5684C39.3842 58.5684 39.3991 58.3526 39.4239 57.9744C38.476 57.6427 35.8064 56.7912 33.2461 56.71C31.1448 56.6428 30.2732 57.2738 29.9219 57.7076C30.066 58.8537 30.1638 59.5752 30.1638 59.5752C30.1439 59.7168 30.129 59.8768 30.1158 60.0392C30.5135 59.7191 31.3702 59.4082 33.1947 59.3572C35.3724 59.3062 37.5432 59.7136 39.6344 60.5659C39.5167 59.392 39.3842 58.5684 39.3842 58.5684Z" fill="#EF233C" stroke="#263238" stroke-width="1.25903" stroke-linecap="round" stroke-linejoin="round"/>
<path d="M35.4629 41.1196C35.6054 41.1683 35.7496 41.224 35.8971 41.2867" stroke="#7F7F7F" stroke-width="0.944269" stroke-linecap="round" stroke-linejoin="round"/>
<path d="M32.4648 40.8479C33.3143 40.6926 34.1763 40.7373 35.0152 40.9801" stroke="#7F7F7F" stroke-width="0.944269" stroke-linecap="round" stroke-linejoin="round"/>
<path d="M37.3752 50.344C37.2684 48.2417 37.5575 46.1369 38.2137 44.2401C39.3141 40.9921 40.2023 47.5298 40.2023 47.5298C40.2023 47.5298 41.4634 50.3138 41.7666 52.3044C41.7666 52.3044 42.8487 50.8312 47.2849 50.344L47.8053 52.9563C47.8053 52.9563 41.6921 57.1602 40.4045 56.84C39.4516 56.6219 37.3752 50.344 37.3752 50.344Z" fill="#EF233C" stroke="#263238" stroke-width="1.25903" stroke-linecap="round" stroke-linejoin="round"/>
<path d="M39.5666 51.272C39.5647 51.5317 39.5802 51.7912 39.613 52.0469" stroke="#263238" stroke-width="1.25903" stroke-linecap="round" stroke-linejoin="round"/>
<path d="M38.4258 50.3437C38.4258 50.3437 39.3173 47.6061 39.7846 47.7917C40.1161 47.9286 39.7614 49.0167 39.6189 50.3437" stroke="#263238" stroke-width="1.25903" stroke-linecap="round" stroke-linejoin="round"/>
<path d="M46.7559 50.0885C46.7559 50.0885 47.4734 51.8332 47.4386 53.6544L48.3086 52.9932C48.3086 52.9932 48.2224 50.7729 47.6143 50.0259L46.7559 50.0885Z" fill="#263238" stroke="#263238" stroke-width="1.25903" stroke-linecap="round" stroke-linejoin="round"/>
<path d="M47.4375 50.4134L48.8593 50.0886C48.97 49.7723 49.1427 49.5066 49.3572 49.3226C49.5717 49.1385 49.8191 49.0437 50.0707 49.0493C50.5567 49.0692 51.0413 48.9654 51.5008 48.743C51.5144 48.7352 51.5292 48.7324 51.5437 48.7346C51.5583 48.7369 51.5723 48.7443 51.5843 48.7561C51.5963 48.7678 51.6061 48.7836 51.6126 48.802C51.6192 48.8204 51.6223 48.8408 51.6218 48.8613C51.6218 49.1444 51.4693 49.6849 50.4767 49.8102C50.4767 49.8102 51.3732 50.5735 51.6218 50.2742C51.6875 50.1846 51.7697 50.1222 51.8592 50.094C51.9487 50.0657 52.042 50.0727 52.1289 50.1141C52.1289 50.1141 52.1587 51.0909 51.6649 51.1303C51.6649 51.1303 51.5489 51.7637 51.1677 51.7521C51.1677 51.7521 50.9059 52.2671 50.7037 52.1859C50.5027 52.2456 50.2949 52.2456 50.0939 52.1859C49.7177 52.0954 49.3117 51.9817 49.3117 51.9817L47.986 52.5617L47.4375 50.4134Z" fill="#263238" stroke="#263238" stroke-width="1.25903" stroke-linecap="round" stroke-linejoin="round"/>
<path d="M51.5019 50.6479C51.5019 50.6479 51.5201 51.047 51.3113 51.1119C51.1025 51.1769 51.3643 51.5272 50.6484 51.8312" stroke="#7F7F7F" stroke-width="0.944269" stroke-linecap="round" stroke-linejoin="round"/>
<path d="M41.7818 53.0977C41.7949 53.6297 41.7479 54.1614 41.6426 54.6729" stroke="#263238" stroke-width="1.25903" stroke-linecap="round" stroke-linejoin="round"/>
<path d="M48.1321 51.4507C48.0694 51.0923 47.9724 50.7473 47.8438 50.4253" stroke="#7F7F7F" stroke-width="0.944269" stroke-linecap="round" stroke-linejoin="round"/>
<path d="M48.2359 52.1347C48.2226 52.0234 48.2077 51.9027 48.1895 51.7891" stroke="#7F7F7F" stroke-width="0.944269" stroke-linecap="round" stroke-linejoin="round"/>
</svg>
