<svg width="116" height="116" viewBox="0 0 116 116" fill="none" xmlns="http://www.w3.org/2000/svg">
<path d="M22.3594 94.0759V95.8206H35.421V94.0759H22.3594Z" fill="#E0E0E0"/>
<path d="M24.1421 94.1455C24.1862 94.1455 24.2233 94.5121 24.2233 94.9645C24.2233 95.4169 24.1862 95.7811 24.1421 95.7811C24.098 95.7811 24.0586 95.4145 24.0586 94.9645C24.0586 94.5144 24.0957 94.1455 24.1421 94.1455Z" fill="#FAFAFA"/>
<path d="M23.8566 94.1108C23.903 94.1108 23.9378 94.4774 23.9378 94.9275C23.9378 95.3776 23.903 95.7464 23.8566 95.7464C23.8102 95.7464 23.7754 95.3799 23.7754 94.9275C23.7754 94.4751 23.8102 94.1108 23.8566 94.1108Z" fill="#FAFAFA"/>
<path d="M34.4113 94.1455C34.4577 94.1455 34.4948 94.5121 34.4948 94.9645C34.4948 95.4169 34.4577 95.7811 34.4113 95.7811C34.3649 95.7811 34.3301 95.4145 34.3301 94.9645C34.3301 94.5144 34.3672 94.1455 34.4113 94.1455Z" fill="#FAFAFA"/>
<path d="M34.1284 94.1108C34.1725 94.1108 34.2096 94.4774 34.2096 94.9275C34.2096 95.3776 34.1725 95.7464 34.1284 95.7464C34.0844 95.7464 34.0449 95.3799 34.0449 94.9275C34.0449 94.4751 34.082 94.1108 34.1284 94.1108Z" fill="#FAFAFA"/>
<path d="M32.4218 94.9992C32.4218 95.0456 30.9254 95.0804 29.081 95.0804C27.2366 95.0804 25.7402 95.0456 25.7402 94.9992C25.7402 94.9528 27.2366 94.918 29.081 94.918C30.9254 94.918 32.4218 94.9528 32.4218 94.9992Z" fill="#FAFAFA"/>
<path d="M22.3047 101.931V105.421H35.3663V101.931H22.3047Z" fill="#E0E0E0"/>
<path d="M35.5325 104.439C35.5325 104.439 35.5116 104.456 35.4629 104.479C35.4141 104.502 35.3422 104.537 35.2448 104.579C34.9609 104.699 34.6632 104.784 34.3585 104.831C33.8704 104.92 33.3666 104.848 32.9225 104.627C32.6477 104.481 32.4134 104.269 32.2404 104.01C32.0418 103.715 31.9592 103.358 32.0084 103.006C32.0369 102.814 32.1171 102.635 32.2404 102.486C32.3064 102.404 32.3904 102.339 32.4858 102.296C32.5812 102.252 32.6854 102.232 32.7902 102.235C32.8981 102.244 33.003 102.275 33.0983 102.326C33.1937 102.377 33.2776 102.447 33.3447 102.532C33.4876 102.701 33.5758 102.909 33.5976 103.129C33.6154 103.355 33.5844 103.582 33.5068 103.796C33.4291 104.009 33.3066 104.203 33.1475 104.365C32.8169 104.715 32.3712 104.933 31.8924 104.98C31.3993 105.027 30.9019 104.966 30.4354 104.799C29.9369 104.643 29.4944 104.346 29.1617 103.943C28.9902 103.727 28.8868 103.464 28.8648 103.189C28.8509 103.046 28.8686 102.901 28.9168 102.766C28.9649 102.63 29.0422 102.507 29.1432 102.405C29.2537 102.299 29.3985 102.235 29.5515 102.226C29.7027 102.222 29.8517 102.264 29.9784 102.347C30.2232 102.507 30.3956 102.757 30.4586 103.043C30.5132 103.322 30.4945 103.61 30.4042 103.88C30.3139 104.149 30.1552 104.391 29.9436 104.581C29.5289 104.931 29.014 105.14 28.4727 105.179C27.9597 105.238 27.44 105.187 26.9485 105.029C26.466 104.877 26.0542 104.557 25.7885 104.126C25.6563 103.922 25.5744 103.689 25.5494 103.447C25.5244 103.206 25.557 102.961 25.6446 102.734C25.688 102.62 25.7595 102.52 25.8524 102.441C25.9453 102.362 26.0566 102.308 26.1759 102.284C26.2907 102.263 26.4085 102.267 26.5219 102.294C26.6353 102.321 26.7418 102.372 26.8348 102.442C26.9976 102.585 27.1142 102.773 27.1695 102.983C27.2249 103.192 27.2166 103.413 27.1457 103.618C27.0187 103.984 26.7901 104.306 26.4868 104.546C25.9843 104.972 25.3538 105.217 24.6957 105.242C24.2952 105.256 23.8962 105.186 23.5245 105.036C23.1528 104.886 22.8168 104.66 22.5381 104.372C22.4824 104.315 22.4297 104.254 22.3804 104.191C22.363 104.17 22.3474 104.148 22.334 104.124C22.6098 104.428 22.9393 104.679 23.3061 104.864C23.7382 105.076 24.2172 105.175 24.6981 105.152C25.3329 105.116 25.938 104.871 26.4195 104.456C26.7021 104.227 26.9144 103.923 27.032 103.579C27.0934 103.399 27.1005 103.206 27.0522 103.023C27.0038 102.839 26.9024 102.674 26.7605 102.549C26.6826 102.491 26.5936 102.449 26.4991 102.427C26.4045 102.404 26.3064 102.402 26.2107 102.419C26.1137 102.439 26.0235 102.483 25.9487 102.548C25.874 102.613 25.8172 102.697 25.7838 102.79C25.7076 102.995 25.6806 103.215 25.7052 103.432C25.7298 103.649 25.8052 103.858 25.9253 104.04C26.1744 104.438 26.5581 104.733 27.0065 104.871C27.4768 105.02 27.9734 105.068 28.4634 105.01C28.9699 104.972 29.4519 104.777 29.8415 104.451C30.0326 104.279 30.1758 104.06 30.2571 103.816C30.3385 103.572 30.3551 103.311 30.3055 103.059C30.2532 102.814 30.1076 102.598 29.8995 102.458C29.8056 102.389 29.6904 102.354 29.5738 102.361C29.4572 102.368 29.3467 102.415 29.2615 102.495C29.1771 102.581 29.1126 102.683 29.0725 102.796C29.0324 102.91 29.0177 103.03 29.0295 103.149C29.049 103.393 29.1403 103.626 29.2917 103.818C29.6043 104.195 30.0191 104.475 30.4865 104.623C30.9319 104.783 31.407 104.844 31.8785 104.801C32.3198 104.759 32.7313 104.56 33.0385 104.24C33.1849 104.093 33.2982 103.917 33.3706 103.723C33.4431 103.529 33.473 103.321 33.4584 103.115C33.4506 102.927 33.3793 102.747 33.2563 102.605C33.1332 102.463 32.9657 102.367 32.7809 102.333C32.695 102.33 32.6095 102.347 32.5311 102.382C32.4527 102.418 32.3834 102.471 32.3285 102.537C32.2154 102.669 32.1407 102.829 32.1128 103.001C32.0653 103.326 32.1406 103.657 32.3239 103.929C32.4848 104.177 32.7038 104.381 32.9619 104.525C33.3905 104.745 33.8783 104.822 34.3539 104.746C34.6549 104.704 34.9505 104.631 35.2355 104.525C35.4304 104.477 35.5301 104.432 35.5325 104.439Z" fill="#FAFAFA"/>
<path d="M23.4707 95.8694V101.925H35.3653V95.8694H23.4707Z" fill="#EBEBEB"/>
<path d="M25.4468 96.0781C25.4909 96.0781 25.528 97.3889 25.528 99.0083C25.528 100.628 25.4909 101.938 25.4468 101.938C25.4027 101.938 25.3633 100.628 25.3633 99.0083C25.3633 97.3889 25.4004 96.0781 25.4468 96.0781Z" fill="#E0E0E0"/>
<path d="M26.3491 96.0015C26.3932 96.0015 26.4303 97.2983 26.4303 98.8945C26.4303 100.491 26.3932 101.788 26.3491 101.788C26.3051 101.788 26.2656 100.493 26.2656 98.8945C26.2656 97.296 26.3027 96.0015 26.3491 96.0015Z" fill="#E0E0E0"/>
<path d="M34.023 95.8159C34.0671 95.8159 34.1042 97.1801 34.1042 98.8644C34.1042 100.549 34.0671 101.911 34.023 101.911C33.9789 101.911 33.9395 100.546 33.9395 98.8644C33.9395 97.1824 33.9766 95.8159 34.023 95.8159Z" fill="#E0E0E0"/>
<path d="M32.9624 95.8901C33.0065 95.8901 33.0436 97.2172 33.0436 98.8574C33.0436 100.498 33.0065 101.825 32.9624 101.825C32.9183 101.825 32.8789 100.498 32.8789 98.8574C32.8789 97.2172 32.916 95.8901 32.9624 95.8901Z" fill="#E0E0E0"/>
<path d="M96.9916 82.6524C98.2259 82.0144 99.6759 81.9332 101.047 82.1582C101.782 82.2812 102.548 82.4992 103.049 83.0537C103.55 83.6082 103.643 84.578 103.07 85.0512C102.727 85.3343 102.251 85.3784 101.806 85.3714C100.734 85.3598 99.546 85.1719 98.6899 85.8168C98.2004 86.1834 97.8756 86.7959 97.2979 86.9768C96.7202 87.1578 96.0822 86.8168 95.7806 86.3017C95.5018 85.7645 95.4403 85.1407 95.6089 84.5594C95.6772 84.1566 95.8375 83.775 96.0773 83.4442C96.3172 83.1135 96.63 82.8425 96.9916 82.6524Z" fill="#EBEBEB"/>
<path d="M94.1654 77.198C94.9194 78.2745 96.3856 77.9172 97.0654 77.2606C97.7451 76.604 98.0328 75.6505 98.2926 74.7411C98.8912 72.667 99.4921 70.4885 99.049 68.375C98.9427 67.7339 98.6609 67.1348 98.2346 66.6443C98.0191 66.4025 97.744 66.2212 97.4367 66.1187C97.1294 66.0161 96.8006 65.9958 96.483 66.0596C95.7453 66.2568 95.2859 66.9877 94.9542 67.6674C93.9766 69.7006 93.4638 71.926 93.4531 74.182C93.4531 75.2306 93.5738 76.3303 94.1654 77.198Z" fill="#EBEBEB"/>
<path d="M92.1026 78.7429C92.9216 77.7709 93.077 76.3533 92.7128 75.1376C92.3486 73.922 91.525 72.8826 90.5761 72.0381C89.4597 71.0442 88.1602 70.2775 86.7504 69.7808C86.2049 69.5612 85.6186 69.4615 85.0313 69.4884C84.7376 69.5054 84.4526 69.594 84.2011 69.7465C83.9496 69.899 83.7392 70.1106 83.5882 70.3631C83.1846 71.131 83.572 72.0613 83.9896 72.8223C84.7256 74.1601 85.5648 75.4385 86.4998 76.6456C87.2538 77.6177 88.1238 78.5759 89.263 79.0144C90.4021 79.4528 91.6038 79.3995 92.2117 78.6037" fill="#EBEBEB"/>
<path d="M94.1145 93.4426C94.1544 93.2822 94.1777 93.1182 94.1841 92.9531C94.2189 92.5981 94.2607 92.1503 94.314 91.6191C94.3805 90.961 94.4804 90.3066 94.6133 89.6587C94.7879 88.8674 95.0261 88.0916 95.3256 87.3387C95.6195 86.5908 96.017 85.888 96.5064 85.2507C96.9053 84.7313 97.4149 84.3072 97.9982 84.0095C98.3946 83.8147 98.8188 83.6825 99.2556 83.6174C99.4201 83.6123 99.5835 83.589 99.7428 83.5478C99.5778 83.5296 99.4114 83.5296 99.2464 83.5478C98.7926 83.5823 98.3486 83.6978 97.9356 83.8888C97.322 84.179 96.7837 84.6069 96.3626 85.1393C95.8509 85.7862 95.4381 86.5055 95.1376 87.2737C94.838 88.0354 94.6051 88.8218 94.4416 89.6239C94.3153 90.2793 94.2277 90.9417 94.1795 91.6075C94.1377 92.1735 94.1215 92.6329 94.1145 92.9507C94.0972 93.1142 94.0972 93.2791 94.1145 93.4426Z" fill="#E0E0E0"/>
<path d="M94.2076 92.4148C94.2216 92.3383 94.2262 92.2604 94.2215 92.1828C94.2215 92.0134 94.2215 91.7976 94.2215 91.5332C94.2215 90.9717 94.2215 90.1551 94.2494 89.1482C94.3004 87.1344 94.4814 84.9722 94.8085 81.9098C95.1263 79.0376 95.5509 75.6922 96.001 73.5184C96.0961 73.0242 96.1935 72.5788 96.2863 72.189C96.3791 71.7992 96.4464 71.4628 96.5183 71.1914C96.5903 70.92 96.6297 70.7274 96.6691 70.5604C96.69 70.4845 96.704 70.4068 96.7109 70.3284C96.6755 70.3958 96.649 70.4675 96.632 70.5418C96.581 70.7042 96.5183 70.9107 96.4418 71.1636C96.3652 71.4164 96.2724 71.7668 96.175 72.1565C96.0775 72.5463 95.9662 72.9894 95.8618 73.4836C95.3045 76.0546 94.8855 78.6536 94.6067 81.2695C94.2726 84.3319 94.1218 87.1205 94.1079 89.1389C94.0963 90.1481 94.1079 90.9648 94.1427 91.5285C94.1589 91.793 94.1728 92.0088 94.1821 92.1781C94.1808 92.2578 94.1893 92.3372 94.2076 92.4148Z" fill="#E0E0E0"/>
<path d="M94.2218 87.037C94.2396 86.8116 94.2396 86.585 94.2218 86.3596C94.1963 85.9234 94.136 85.2924 94.013 84.5221C93.8651 83.6192 93.666 82.7253 93.4168 81.8449C93.1242 80.7616 92.7496 79.7022 92.2962 78.6757C91.52 76.7838 90.406 75.0488 89.0088 73.5555C88.7652 73.3004 88.5064 73.0603 88.2339 72.8363C88.1156 72.7365 88.0019 72.6368 87.9045 72.5579L87.6052 72.3514C87.4246 72.2136 87.233 72.091 87.0322 71.9849C86.9997 72.0289 87.8418 72.5231 88.9044 73.6553C90.256 75.1616 91.3403 76.8878 92.1106 78.7593C92.5539 79.7786 92.9282 80.8265 93.2312 81.8959C93.5258 82.8796 93.7207 83.7844 93.8692 84.5453C94.0177 85.3063 94.0896 85.9373 94.1383 86.3665C94.1481 86.5919 94.176 86.8161 94.2218 87.037Z" fill="#E0E0E0"/>
<path d="M88.6621 95.7068L89.2027 103.089H98.6845L99.2251 95.7068H88.6621Z" fill="#EBEBEB"/>
<path d="M100.355 92.7976H87.7461V95.7069H100.355V92.7976Z" fill="#EBEBEB"/>
<path d="M87.7461 102.806V103.614H88.34H100.149V102.806H87.7461Z" fill="#E0E0E0"/>
<path d="M88.9198 104.943L88.3398 103.525H99.6962L99.0188 104.943H88.9198Z" fill="#E0E0E0"/>
<path d="M99.0497 98.1198C99.038 98.1441 99.0232 98.1667 99.0056 98.1871C98.9662 98.2381 98.9198 98.2984 98.8641 98.375L98.3096 99.0826L98.2864 99.1151L98.2632 99.0803C97.9152 98.6 97.4512 97.9597 96.906 97.2034H96.9756L95.6393 99.0965L95.5975 99.1545L95.5511 99.0988L93.9735 97.208H94.064L93.9782 97.3171L92.5676 99.0988L92.5189 99.1592L92.4771 99.0965C91.9946 98.4168 91.5491 97.7788 91.1385 97.2057H91.2174L89.5702 99.0826L89.5423 99.1151L89.5191 99.078L89.0041 98.2126C88.9484 98.1175 88.9066 98.0409 88.8718 97.9806C88.8547 97.9553 88.8407 97.928 88.8301 97.8994C88.8515 97.921 88.8702 97.9452 88.8858 97.9713L89.0319 98.2033L89.5725 99.0548H89.5214L91.1454 97.1547L91.1849 97.1083L91.222 97.1593L92.5722 99.0432H92.4794L93.8946 97.2637L93.9805 97.1524L94.0269 97.0967L94.0733 97.1524L95.6532 99.0408H95.565L96.9153 97.157L96.9547 97.1013L96.9918 97.157L98.3212 99.0548H98.2725C98.5161 98.7624 98.7063 98.5328 98.8478 98.3588L99.001 98.1801C99.0288 98.136 99.0474 98.1175 99.0497 98.1198Z" fill="#F5F5F5"/>
<path d="M99.3585 95.6581C99.3585 95.6906 96.9805 95.7161 94.0503 95.7161C91.1202 95.7161 88.7422 95.6906 88.7422 95.6581C88.7422 95.6256 91.1179 95.6001 94.0503 95.6001C96.9828 95.6001 99.3585 95.6256 99.3585 95.6581Z" fill="#F5F5F5"/>
<path d="M45.289 18.7547C45.289 18.7547 45.2682 18.7547 45.2334 18.7385L45.0802 18.6782L44.4956 18.4346L42.3496 17.5066L35.2968 14.4349L35.0509 14.3258H35.1019L28.1906 17.2931L26.1026 18.1701L25.5319 18.4021C25.4669 18.4319 25.3993 18.456 25.3301 18.474C25.3917 18.4373 25.4561 18.4055 25.5226 18.3789L26.0841 18.1237L28.1721 17.2073L35.0671 14.2168H35.0926H35.1182L35.3641 14.3235L42.403 17.4323L44.5304 18.3858L45.1058 18.6526L45.2542 18.7246C45.267 18.7332 45.2787 18.7433 45.289 18.7547Z" fill="#E0E0E0"/>
<path d="M56.2897 17.7434H10.9824V51.6688H56.2897V17.7434Z" fill="#E0E0E0"/>
<path d="M54.8762 19.3208H12.5664V50.2742H54.8762V19.3208Z" fill="#FAFAFA"/>
<path d="M21.9121 32.8442C21.9121 32.8442 21.9562 38.0387 22.2207 39.6256L28.7376 39.317C28.7376 39.317 28.1668 34.213 28.3872 32.8442H21.9121Z" fill="#E0E0E0"/>
<path d="M25.122 33.5773H25.2171C25.3078 33.5739 25.3987 33.5786 25.4886 33.5912C25.6314 33.6124 25.7704 33.6538 25.9015 33.7142C26.0751 33.8001 26.2285 33.9219 26.3516 34.0714C26.5029 34.2533 26.6101 34.4677 26.6648 34.6978C26.7158 34.9673 26.6925 35.2456 26.5975 35.5029C26.549 35.6428 26.4876 35.7779 26.4143 35.9066C26.3364 36.0375 26.2667 36.1731 26.2054 36.3126C26.0755 36.6084 25.9865 36.9206 25.941 37.2406V37.2614H25.9201H25.2774H24.6023H24.5768V37.2382C24.5479 36.9199 24.4402 36.6138 24.2636 36.3474C24.1847 36.2128 24.0989 36.0898 24.0316 35.9622C23.9474 35.8421 23.8699 35.7174 23.7996 35.5887C23.6806 35.3423 23.6448 35.0638 23.6975 34.7953C23.7354 34.5634 23.8216 34.3421 23.9504 34.1457C24.0604 33.9878 24.2048 33.8569 24.3726 33.7629C24.5799 33.653 24.8071 33.5859 25.0408 33.5657H25.1336C25.1336 33.5657 25.1336 33.5657 25.1104 33.5657H25.0408C24.9523 33.5761 24.8646 33.5932 24.7786 33.6167C24.6415 33.6525 24.5096 33.7064 24.3866 33.7768C24.2224 33.8696 24.0819 33.999 23.9759 34.155C23.8561 34.3497 23.7772 34.5667 23.7439 34.793C23.6933 35.0532 23.7292 35.3229 23.846 35.5609C23.917 35.6877 23.9945 35.8108 24.078 35.9298C24.1592 36.0527 24.245 36.1803 24.3239 36.3149C24.5071 36.5874 24.618 36.9019 24.6464 37.229L24.6209 37.2034H25.296H25.941L25.9154 37.2266C25.9618 36.9026 26.0524 36.5865 26.1846 36.287C26.2482 36.1464 26.3195 36.0093 26.398 35.8764C26.4701 35.7506 26.5306 35.6186 26.579 35.482C26.6729 35.2326 26.6977 34.9625 26.6509 34.7002C26.598 34.4756 26.4958 34.2655 26.3516 34.0854C26.2319 33.9376 26.0825 33.8167 25.9131 33.7304C25.7847 33.6683 25.648 33.6253 25.5071 33.6028C25.4188 33.5893 25.3297 33.5815 25.2403 33.5796H25.1684C25.1313 33.5796 25.122 33.5796 25.122 33.5773Z" fill="white"/>
<path d="M25.456 37.1989C25.4555 37.1919 25.4555 37.1849 25.456 37.178V37.1177C25.456 37.0643 25.4351 36.9854 25.4212 36.8857C25.391 36.6815 25.3469 36.3892 25.3191 36.0249C25.3191 35.9345 25.3052 35.8393 25.3029 35.7396C25.297 35.6353 25.297 35.5307 25.3029 35.4264C25.3054 35.3145 25.3298 35.2041 25.3748 35.1016C25.4249 34.9908 25.5141 34.9025 25.6253 34.8533C25.6846 34.8285 25.7498 34.8216 25.813 34.8335C25.8761 34.8455 25.9343 34.8758 25.9803 34.9206C26.0048 34.9433 26.0241 34.971 26.0369 35.0018C26.0497 35.0327 26.0557 35.0659 26.0545 35.0993C26.0532 35.1665 26.0305 35.2315 25.9896 35.2849C25.9476 35.3391 25.8936 35.3828 25.8318 35.4125C25.7705 35.4413 25.7058 35.4623 25.6393 35.4751C25.3675 35.5307 25.0883 35.5401 24.8133 35.5029C24.7453 35.4937 24.679 35.4749 24.6161 35.4473C24.5549 35.4197 24.4997 35.3803 24.4537 35.3313C24.4067 35.2822 24.3738 35.2212 24.3586 35.1549C24.344 35.09 24.3522 35.022 24.3818 34.9624C24.4087 34.9023 24.4577 34.8549 24.5187 34.8301C24.5476 34.8177 24.5788 34.8113 24.6103 34.8113C24.6419 34.8113 24.673 34.8177 24.702 34.8301C24.758 34.8556 24.8061 34.8956 24.8412 34.9461C24.8739 34.9957 24.8974 35.0507 24.9108 35.1085C24.9304 35.2189 24.9413 35.3306 24.9433 35.4426L24.9757 36.0389C24.992 36.4031 25.0082 36.6977 25.0175 36.9042C25.0175 37.004 25.0175 37.0829 25.0175 37.1362V37.2174C25.018 37.2105 25.018 37.2035 25.0175 37.1965C25.0175 37.1826 25.0175 37.1617 25.0175 37.1362C25.0175 37.1107 25.0175 37.0017 25.0036 36.9042C25.0036 36.6977 24.9734 36.4031 24.9525 36.0389C24.9525 35.8579 24.9317 35.6584 24.9201 35.4426C24.9186 35.332 24.9069 35.2217 24.8853 35.1132C24.8739 35.0576 24.8518 35.0048 24.8203 34.9577C24.7859 34.9105 24.7405 34.8723 24.6881 34.8464C24.6613 34.835 24.6325 34.8291 24.6034 34.8291C24.5743 34.8291 24.5455 34.835 24.5187 34.8464C24.4622 34.8699 24.4167 34.9138 24.3911 34.9693C24.3644 35.0257 24.357 35.0893 24.3702 35.1503C24.3858 35.212 24.417 35.2687 24.4607 35.315C24.5549 35.4079 24.6773 35.4667 24.8087 35.4821C24.9448 35.4999 25.0822 35.5061 25.2193 35.5006C25.3565 35.497 25.4932 35.4815 25.6277 35.4542C25.6928 35.4418 25.756 35.4207 25.8156 35.3916C25.8744 35.3634 25.9259 35.3221 25.9664 35.2709C26.0047 35.2208 26.0266 35.16 26.029 35.0969C26.0289 35.0663 26.0227 35.0359 26.0107 35.0076C25.9988 34.9793 25.9813 34.9537 25.9594 34.9322C25.9158 34.8906 25.8611 34.8624 25.8019 34.8508C25.7427 34.8393 25.6814 34.845 25.6253 34.8673C25.5223 34.9138 25.4398 34.9963 25.3933 35.0993C25.3492 35.2004 25.3248 35.3091 25.3214 35.4194C25.3214 35.5261 25.3214 35.6282 25.3214 35.728C25.3214 35.8277 25.3214 35.9229 25.3377 36.0157C25.3655 36.3799 25.4073 36.6722 25.4328 36.8741C25.4467 36.9761 25.4583 37.0527 25.4653 37.1061V37.1664C25.4635 37.1775 25.4603 37.1884 25.456 37.1989Z" fill="white"/>
<path d="M24.5918 37.2337C24.6024 37.3051 24.6086 37.3772 24.6104 37.4494C24.6104 37.6041 24.6196 37.792 24.6382 38.0132V37.9993L25.079 38.512H25.0558L25.5639 38.4841H25.543L25.7936 38.1779L25.9212 38.0225V38.0433C25.9212 37.7441 25.9072 37.4633 25.9026 37.2081L25.9304 37.2337H24.9816H24.5918C24.6218 37.2294 24.6523 37.2294 24.6823 37.2337L24.9491 37.2197L25.9142 37.1826H25.942V37.2105C25.942 37.468 25.9583 37.7487 25.9676 38.0457V38.048C25.9258 38.099 25.884 38.1524 25.84 38.2034L25.5871 38.512H25.5732L25.0651 38.5375H25.0558L24.6243 38.0248C24.6243 37.7928 24.6243 37.6072 24.6243 37.4448C24.6093 37.3751 24.5985 37.3046 24.5918 37.2337Z" fill="white"/>
<path d="M25.9099 37.9667C25.9099 37.9667 25.8914 37.9667 25.8612 37.9458C25.818 37.9265 25.7739 37.9094 25.729 37.8948C25.58 37.8428 25.4226 37.8191 25.265 37.8252C25.1056 37.8286 24.9483 37.8617 24.801 37.9226L24.6734 37.9829L24.627 38.0061C24.6389 37.9936 24.6531 37.9834 24.6687 37.976C24.7098 37.951 24.7525 37.9285 24.7963 37.9087C24.9426 37.8437 25.1003 37.8082 25.2603 37.8043C25.4185 37.7984 25.5763 37.8245 25.7243 37.8808C25.769 37.8968 25.8125 37.9162 25.8542 37.9388L25.9099 37.9667Z" fill="white"/>
<path d="M25.9076 37.7649L25.8612 37.744L25.729 37.6907C25.5797 37.64 25.4225 37.6165 25.265 37.6211C25.1059 37.6268 24.9489 37.6597 24.801 37.7185C24.7453 37.7417 24.7035 37.7626 24.6734 37.7788L24.627 37.802L24.6687 37.7719C24.7095 37.7469 24.7521 37.7251 24.7963 37.7069C24.9424 37.6411 25.1001 37.6048 25.2603 37.6002C25.4184 37.5966 25.5758 37.6226 25.7243 37.6767C25.78 37.6999 25.8241 37.7208 25.8542 37.7371C25.8844 37.7533 25.9099 37.7626 25.9076 37.7649Z" fill="white"/>
<path d="M25.8959 37.5699L25.8495 37.5514C25.817 37.5374 25.7729 37.5166 25.7172 37.498C25.5679 37.4475 25.4108 37.4239 25.2532 37.4284C25.0938 37.4315 24.9364 37.4646 24.7892 37.5258C24.7336 37.549 24.6918 37.5699 24.6616 37.5861L24.6152 37.6094L24.657 37.5792C24.6978 37.5537 24.7405 37.5312 24.7846 37.5119C24.9313 37.4481 25.0887 37.4127 25.2486 37.4075C25.4067 37.4042 25.564 37.4301 25.7126 37.4841C25.7572 37.5011 25.8007 37.5213 25.8425 37.5444C25.8618 37.5493 25.8799 37.558 25.8959 37.5699Z" fill="white"/>
<path d="M14.6543 24.3599C14.6543 24.3599 14.6984 29.5567 14.9629 31.1412L21.4797 30.8327C21.4797 30.8327 20.9067 25.7287 21.1271 24.3599H14.6543Z" fill="#EBEBEB"/>
<path d="M20.147 26.5315C19.4237 26.6386 18.6947 26.7036 17.9639 26.7264C17.2351 26.7936 16.503 26.816 15.7715 26.7937C16.495 26.688 17.2238 26.6229 17.9546 26.5988C18.6835 26.5344 19.4155 26.5119 20.147 26.5315Z" fill="white"/>
<path d="M20.1466 27.6311C19.4235 27.7401 18.6945 27.8059 17.9635 27.8283C17.2354 27.8927 16.5042 27.9152 15.7734 27.8956C16.4968 27.7884 17.2257 27.7233 17.9566 27.7007C18.6846 27.635 19.4159 27.6117 20.1466 27.6311Z" fill="white"/>
<path d="M19.0405 28.7124C18.6317 28.8005 18.2151 28.8472 17.797 28.8516C17.382 28.8938 16.9638 28.8938 16.5488 28.8516C16.9568 28.7635 17.3727 28.7169 17.79 28.7124C18.2058 28.6701 18.6248 28.6701 19.0405 28.7124Z" fill="white"/>
<path d="M14.3457 39.6372C14.3457 39.6372 14.3898 44.8317 14.6543 46.4186L21.1711 46.11C21.1711 46.11 20.5981 41.006 20.8185 39.6372H14.3457Z" fill="#EBEBEB"/>
<path d="M19.838 41.8179C19.1148 41.9265 18.3859 41.9924 17.6549 42.0151C16.9268 42.0795 16.1956 42.102 15.4648 42.0824C16.1874 41.9751 16.9155 41.91 17.6456 41.8875C18.3745 41.8217 19.1065 41.7985 19.838 41.8179Z" fill="white"/>
<path d="M19.838 42.9199C19.1147 43.0273 18.3858 43.0924 17.6549 43.1148C16.9268 43.1792 16.1956 43.2017 15.4648 43.1821C16.1882 43.0749 16.9171 43.0098 17.648 42.9872C18.3761 42.9228 19.1073 42.9003 19.838 42.9199Z" fill="white"/>
<path d="M18.7319 44.0009C18.3239 44.0889 17.908 44.1347 17.4907 44.1378C17.0754 44.1839 16.6564 44.1878 16.2402 44.1494C16.6482 44.0614 17.0641 44.0147 17.4814 44.0102C17.8968 43.9641 18.3159 43.961 18.7319 44.0009Z" fill="white"/>
<path d="M32.1562 25.7263L32.8012 40.7135L51.5097 40.9386L50.6698 25.9235L32.1562 25.7263Z" fill="#EBEBEB"/>
<path d="M50.525 25.6196H31.9395V39.6533H50.525V25.6196Z" fill="#F5F5F5"/>
<path d="M50.5239 39.6534C50.5239 39.6534 50.5239 39.563 50.5239 39.3913C50.5239 39.2196 50.5239 38.969 50.5239 38.6442C50.5239 37.9854 50.5239 37.0202 50.51 35.8046C50.51 33.357 50.4937 29.8561 50.4821 25.6198L50.5355 25.6708H31.9523L32.0173 25.6082C32.0173 30.6542 32.0173 35.4334 32.0173 39.6418L31.9593 39.5838L45.3642 39.6117L49.1783 39.6279H50.1921H50.4543H50.5448H50.2037L49.1829 39.672L45.3851 39.6882L31.9291 39.7161H31.8711V39.6604C31.8711 35.4519 31.8711 30.6727 31.8711 25.6267V25.5618H31.9361H50.5193H50.5749V25.6151C50.5749 29.863 50.5541 33.3778 50.5471 35.8231C50.5471 37.0411 50.5471 37.9946 50.5332 38.6512C50.5332 38.9714 50.5332 39.2173 50.5332 39.389C50.5285 39.5699 50.5239 39.6534 50.5239 39.6534Z" fill="#E0E0E0"/>
<path d="M41.7147 28.5916H34.1816V38.0734H41.7147V28.5916Z" fill="#F5F5F5"/>
<path d="M41.7161 38.0735C41.7135 38.0574 41.7135 38.041 41.7161 38.0248V37.8903C41.7161 37.765 41.7161 37.5933 41.7161 37.3729C41.7161 36.9089 41.7161 36.257 41.7022 35.4264C41.7022 33.7583 41.6836 31.3966 41.672 28.5917L41.73 28.6497H34.197C34.1807 28.6497 34.3176 28.5291 34.2596 28.5871V31.1646C34.2596 32.0067 34.2596 32.828 34.2596 33.6238C34.2596 35.2176 34.2596 36.7094 34.2596 38.0643L34.2086 38.0109L39.6629 38.0387L41.1918 38.0527H41.5978H41.7416C41.6976 38.0559 41.6534 38.0559 41.6094 38.0527H41.215L39.6954 38.0666L34.2086 38.0944H34.1552V38.0411C34.1552 36.6862 34.1552 35.1944 34.1552 33.6006C34.1552 32.8048 34.1552 31.9766 34.1552 31.1414V28.5963C34.0972 28.652 34.2318 28.5151 34.2202 28.5314H41.7532H41.8112V28.5894C41.7996 31.4082 41.788 33.7839 41.781 35.4612L41.7671 37.3938C41.7671 37.6103 41.7671 37.7797 41.7671 37.9019C41.7671 37.9529 41.7671 37.9947 41.7671 38.0295C41.7519 38.0461 41.7348 38.0609 41.7161 38.0735Z" fill="#E0E0E0"/>
<path d="M48.9081 26.4224H34.4707V27.7888H48.9081V26.4224Z" fill="#F5F5F5"/>
<path d="M48.9083 27.789C48.9083 27.789 48.9083 27.7542 48.9083 27.6962C48.9083 27.6382 48.9083 27.5408 48.9083 27.4294C48.9083 27.1974 48.9083 26.8564 48.8921 26.4225L48.9176 26.448C46.4839 26.4712 40.9345 26.4875 34.4802 26.4875C34.6078 26.3576 34.515 26.4504 34.5452 26.4225V27.7844L34.4826 27.7194L44.7161 27.7472L47.7878 27.7658H48.623H48.8434C48.8688 27.7639 48.8944 27.7639 48.9199 27.7658H48.8526H48.6415H47.8202L44.7625 27.7867L34.4826 27.8122H34.4199V27.7496C34.4199 27.5315 34.4199 27.3064 34.4199 27.0791V26.3831L34.4849 26.3181C40.9391 26.3181 46.4886 26.3344 48.9222 26.3576H48.9501V26.3831C48.9501 26.8216 48.9501 27.1649 48.9362 27.4062C48.9362 27.5152 48.9362 27.5988 48.9362 27.6637C48.9343 27.7068 48.9248 27.7492 48.9083 27.789Z" fill="#E0E0E0"/>
<path d="M48.9077 28.5916H42.6367V34.3057H48.9077V28.5916Z" fill="#F5F5F5"/>
<path d="M48.9079 34.3057C48.9079 34.3057 48.9079 34.2662 48.9079 34.1966V33.8857C48.9079 33.6073 48.9079 33.2153 48.8939 32.7257C48.8939 31.7189 48.8777 30.3013 48.8661 28.5961L48.9195 28.6518H42.6555L42.7181 28.5892V30.1227C42.7181 30.6238 42.7181 31.1157 42.7181 31.5959C42.7181 32.5541 42.7181 33.4519 42.7181 34.301L42.6601 34.2453L47.1841 34.2732L48.4671 34.2894H48.8104C48.8506 34.286 48.8909 34.286 48.9311 34.2894C48.8948 34.2928 48.8583 34.2928 48.822 34.2894H48.4903L47.2212 34.3033L42.6601 34.3312H42.6044V34.2732C42.6044 33.4357 42.6044 32.5262 42.6044 31.5681C42.6044 31.0878 42.6044 30.596 42.6044 30.0949V28.5613C42.5464 28.617 42.681 28.4825 42.6694 28.4964H48.9334H48.9891V28.5497C48.9775 30.2689 48.9682 31.7003 48.9612 32.7257C48.9612 33.2129 48.9496 33.6004 48.9473 33.8857C48.9473 34.0079 48.9473 34.1077 48.9473 34.185C48.9397 34.2268 48.9265 34.2674 48.9079 34.3057Z" fill="#E0E0E0"/>
<path d="M48.9077 35.2012H42.6367V38.0733H48.9077V35.2012Z" fill="#F5F5F5"/>
<path d="M48.9079 38.0734C48.9079 38.0734 48.9079 37.9992 48.9079 37.8646L48.8963 37.2892C48.8963 36.7812 48.8823 36.0736 48.8707 35.2012L48.9171 35.2476L42.6531 35.2662C42.5951 35.3242 42.7297 35.1873 42.7158 35.2036V36.6814C42.7158 37.1616 42.7158 37.628 42.7158 38.0734L42.6531 38.0131L47.1377 38.0409L48.4462 38.0595H48.7988H48.9241C48.8871 38.0629 48.8498 38.0629 48.8127 38.0595H48.4717L47.1795 38.078L42.6531 38.1059H42.5928V38.0456C42.5928 37.6001 42.5928 37.1338 42.5928 36.6536V35.1757C42.5789 35.1757 42.7135 35.0528 42.6578 35.1108L48.9218 35.127H48.9519V35.1734C48.9519 36.0573 48.9334 36.7765 48.9287 37.2892C48.9287 37.5212 48.9287 37.7138 48.9287 37.8553C48.9288 37.9285 48.9218 38.0016 48.9079 38.0734Z" fill="#E0E0E0"/>
<path d="M41.5271 28.6079C39.1932 31.8304 36.5113 34.851 34.1797 38.0735L41.5271 28.6079Z" fill="white"/>
<path d="M34.1816 38.0734C34.1816 38.0734 34.1979 38.0339 34.242 37.9667L34.4392 37.679C34.6108 37.4284 34.8684 37.0735 35.1932 36.6396C35.8404 35.7673 36.7661 34.5887 37.8055 33.3011C38.8448 32.0135 39.7798 30.8443 40.4433 29.9882L41.2298 28.9743L41.4456 28.6983C41.4966 28.6379 41.5244 28.6055 41.5291 28.6078C41.5123 28.6456 41.4913 28.6814 41.4664 28.7145L41.2692 29.0022C41.0976 29.2527 40.84 29.6077 40.5152 30.0439C39.868 30.9139 38.9423 32.0924 37.9029 33.38C36.8636 34.6676 35.9309 35.8369 35.2651 36.693L34.4786 37.7091L34.2628 37.9829C34.2394 38.0161 34.2121 38.0465 34.1816 38.0734Z" fill="#E0E0E0"/>
<path d="M41.7164 38.0733C41.6885 38.0942 39.9787 35.9853 37.9 33.373C35.8212 30.7607 34.1555 28.6147 34.188 28.5915C34.2204 28.5683 35.9233 30.6795 38.0044 33.2941C40.0854 35.9088 41.7442 38.0478 41.7164 38.0733Z" fill="#E0E0E0"/>
<path d="M32.8024 28.6124C32.8024 28.8455 32.7333 29.0734 32.6038 29.2672C32.4743 29.461 32.2902 29.612 32.0749 29.7012C31.8595 29.7904 31.6226 29.8138 31.3939 29.7683C31.1653 29.7228 30.9553 29.6106 30.7905 29.4458C30.6257 29.2809 30.5134 29.0709 30.468 28.8423C30.4225 28.6137 30.4458 28.3767 30.535 28.1614C30.6242 27.946 30.7753 27.762 30.9691 27.6325C31.1629 27.503 31.3908 27.4338 31.6239 27.4338C31.9363 27.4345 32.2357 27.5588 32.4566 27.7797C32.6775 28.0006 32.8018 28.3 32.8024 28.6124Z" fill="#E0E0E0"/>
<path d="M52.0798 25.752C52.0798 25.9851 52.0107 26.213 51.8812 26.4068C51.7517 26.6006 51.5676 26.7517 51.3522 26.8409C51.1369 26.9301 50.8999 26.9534 50.6713 26.908C50.4427 26.8625 50.2327 26.7502 50.0678 26.5854C49.903 26.4206 49.7908 26.2106 49.7453 25.982C49.6998 25.7534 49.7232 25.5164 49.8124 25.301C49.9016 25.0857 50.0526 24.9016 50.2464 24.7721C50.4403 24.6426 50.6681 24.5735 50.9012 24.5735C51.2136 24.5741 51.513 24.6985 51.7339 24.9194C51.9548 25.1402 52.0792 25.4397 52.0798 25.752Z" fill="#E0E0E0"/>
<path d="M98.1828 33.9602H84.6016V53.6477H98.1828V33.9602Z" fill="#E0E0E0"/>
<path d="M97.5031 33.9602H83.9219V53.6477H97.5031V33.9602Z" fill="#F5F5F5"/>
<path d="M95.8154 36.0923H85.6074V51.5156H95.8154V36.0923Z" fill="white"/>
<path d="M95.8159 51.5155C95.8159 51.5155 95.8159 51.4877 95.8159 51.439C95.8159 51.3903 95.8159 51.316 95.8159 51.2209C95.8159 51.026 95.8159 50.743 95.8159 50.3741C95.8159 49.6363 95.8159 48.5575 95.8159 47.198C95.8159 44.479 95.8159 40.6278 95.7997 36.0922L95.8345 36.127H85.6079L85.645 36.0899C85.645 41.9084 85.645 47.2723 85.645 51.5132L85.6149 51.4831L93.0389 51.4993H95.0921H95.6303H95.8182H95.6373H95.1037H93.0574L85.6102 51.5132H85.5801V51.4854C85.5801 47.2444 85.5801 41.8806 85.5801 36.062V36.0249H85.6079H95.8159H95.8484V36.0574C95.8484 40.6023 95.8368 44.4604 95.8322 47.1934C95.8322 48.5506 95.8322 49.6247 95.8322 50.3625C95.8322 50.7267 95.8322 51.0075 95.8322 51.2C95.8322 51.2951 95.8322 51.3647 95.8322 51.4158L95.8159 51.5155Z" fill="#E0E0E0"/>
<path d="M97.539 33.9602C97.4735 34.0851 97.3958 34.2033 97.307 34.3128C97.1492 34.524 96.9242 34.8093 96.669 35.1202C96.4138 35.4311 96.1748 35.7048 95.9985 35.902C95.9084 36.0125 95.8082 36.1142 95.6992 36.206C95.7766 36.0863 95.8635 35.973 95.9591 35.8672L96.6133 35.0738L97.2652 34.2804C97.3485 34.1671 97.44 34.0601 97.539 33.9602Z" fill="#E0E0E0"/>
<path d="M95.8672 51.4646C96.3739 52.2721 96.9709 53.0193 97.6466 53.6918L95.8672 51.4646Z" fill="white"/>
<path d="M97.6466 53.6918C97.5337 53.6091 97.4302 53.5142 97.3381 53.4088C97.1008 53.1685 96.8763 52.916 96.6653 52.6524C96.4544 52.3888 96.2569 52.1147 96.0737 51.8312C95.992 51.7167 95.9228 51.5938 95.8672 51.4646C95.9584 51.5708 96.0421 51.6832 96.1177 51.801C96.2662 52.0121 96.4773 52.2975 96.7233 52.606C96.9692 52.9146 97.2035 53.1814 97.3752 53.374C97.4738 53.4727 97.5646 53.5789 97.6466 53.6918Z" fill="#E0E0E0"/>
<path d="M83.918 53.6315L85.6974 51.4368L83.918 53.6315Z" fill="white"/>
<path d="M85.6989 51.4368C85.7128 51.4368 85.3277 51.9518 84.8382 52.5573C84.548 52.9315 84.2382 53.2901 83.9102 53.6315C84.4644 52.8692 85.0584 52.1367 85.6896 51.4368H85.6989Z" fill="#E0E0E0"/>
<path d="M83.9219 33.9602C84.2267 34.2897 84.5147 34.6342 84.7849 34.9926C85.073 35.3371 85.3417 35.6972 85.59 36.0714C85.2842 35.7404 84.9961 35.3935 84.7269 35.032C84.4382 34.6905 84.1694 34.3327 83.9219 33.9602Z" fill="#E0E0E0"/>
<path d="M92.6342 39.2241H89.2168V48.9287H92.6342V39.2241Z" fill="#E0E0E0"/>
<path d="M95.0516 13.041L93.1074 13.0515L93.1598 22.7258L95.1039 22.7153L95.0516 13.041Z" fill="#E0E0E0"/>
<path d="M81.2999 13.0668L76.2656 13.094L76.2945 18.4346L81.3288 18.4073L81.2999 13.0668Z" fill="#EBEBEB"/>
<path d="M86.3078 13.0421L81.2734 13.0693L81.3023 18.4099L86.3367 18.3827L86.3078 13.0421Z" fill="#F5F5F5"/>
<path d="M76.271 14.5741C79.6165 14.6019 82.9712 14.5741 86.3166 14.5277C86.3308 14.5277 86.3443 14.5221 86.3543 14.5121C86.3643 14.5021 86.37 14.4885 86.37 14.4743C86.37 14.4602 86.3643 14.4466 86.3543 14.4366C86.3443 14.4266 86.3308 14.421 86.3166 14.421C82.9681 14.4024 79.6195 14.4225 76.271 14.4813C76.2587 14.4813 76.2469 14.4862 76.2382 14.4949C76.2295 14.5036 76.2246 14.5154 76.2246 14.5277C76.2246 14.54 76.2295 14.5518 76.2382 14.5605C76.2469 14.5692 76.2587 14.5741 76.271 14.5741Z" fill="#E0E0E0"/>
<path d="M82.2726 18.3209L73.125 18.3704L73.1485 22.7226L82.2962 22.6731L82.2726 18.3209Z" fill="#EBEBEB"/>
<path d="M91.3781 18.2718L82.2305 18.3213L82.254 22.6735L91.4016 22.6241L91.3781 18.2718Z" fill="#F5F5F5"/>
<path d="M73.1304 19.5832C79.2088 19.6528 85.3058 19.5832 91.3818 19.4927C91.396 19.4927 91.4096 19.4871 91.4196 19.477C91.4296 19.467 91.4352 19.4535 91.4352 19.4393C91.4352 19.4252 91.4296 19.4116 91.4196 19.4016C91.4096 19.3916 91.396 19.386 91.3818 19.386C85.3034 19.3535 79.2065 19.3581 73.1304 19.4904C73.1181 19.4904 73.1063 19.4952 73.0976 19.5039C73.0889 19.5126 73.084 19.5245 73.084 19.5368C73.084 19.5491 73.0889 19.5609 73.0976 19.5696C73.1063 19.5783 73.1181 19.5832 73.1304 19.5832Z" fill="#E0E0E0"/>
<path d="M105.151 22.7244H69.7109V24.2834H105.151V22.7244Z" fill="#E0E0E0"/>
<path d="M76.9521 23.4736H75.5137V28.7934H76.9521V23.4736Z" fill="#E0E0E0"/>
<path d="M98.4286 23.4736H96.9902V28.7934H98.4286V23.4736Z" fill="#E0E0E0"/>
<path d="M96.948 9.43479L95.0039 9.44531L95.0759 22.7503L97.02 22.7398L96.948 9.43479Z" fill="#EBEBEB"/>
<path d="M99.9874 11.9124L96.9668 11.9287L97.0251 22.7119L100.046 22.6956L99.9874 11.9124Z" fill="#F5F5F5"/>
<path d="M99.9652 13.9918C98.9611 14.0627 97.9533 14.0627 96.9492 13.9918C97.9534 13.924 98.961 13.924 99.9652 13.9918Z" fill="#E0E0E0"/>
<path d="M99.9652 13.5394C98.9611 13.6103 97.9533 13.6103 96.9492 13.5394C97.9534 13.4716 98.961 13.4716 99.9652 13.5394Z" fill="#E0E0E0"/>
<path d="M99.9652 21.0748C98.9611 21.1457 97.9533 21.1457 96.9492 21.0748C97.9534 21.007 98.961 21.007 99.9652 21.0748Z" fill="#E0E0E0"/>
<path d="M99.9652 20.6224C98.9611 20.6933 97.9533 20.6933 96.9492 20.6224C97.9534 20.5546 98.961 20.5546 99.9652 20.6224Z" fill="#E0E0E0"/>
<path d="M98.5045 19.6342C98.4744 19.6342 98.4512 18.5461 98.4512 17.2052C98.4512 15.8642 98.4744 14.7761 98.5045 14.7761C98.5347 14.7761 98.5556 15.8642 98.5556 17.2052C98.5556 18.5461 98.5324 19.6342 98.5045 19.6342Z" fill="#E0E0E0"/>
<path d="M103.285 14.5625H99.998V22.7011H103.285V14.5625Z" fill="#EBEBEB"/>
<path d="M101.736 20.5923C101.639 20.598 101.541 20.583 101.449 20.5482C101.357 20.5134 101.274 20.4596 101.205 20.3904C101.135 20.3212 101.081 20.2381 101.046 20.1465C101.011 20.055 100.996 19.9571 101.001 19.8592C100.996 19.7525 101.017 19.6462 101.064 19.5501C101.111 19.454 101.181 19.3712 101.268 19.3093L101.342 19.4137C101.272 19.4646 101.216 19.5318 101.179 19.6095C101.141 19.6872 101.123 19.7729 101.126 19.8592C101.126 20.021 101.191 20.1762 101.305 20.2906C101.419 20.405 101.575 20.4693 101.736 20.4693C101.898 20.4693 102.054 20.405 102.168 20.2906C102.282 20.1762 102.347 20.021 102.347 19.8592C102.35 19.7727 102.332 19.6866 102.294 19.6089C102.256 19.5311 102.199 19.4641 102.129 19.4137L102.205 19.3093C102.291 19.372 102.36 19.4551 102.407 19.551C102.453 19.6469 102.474 19.7528 102.47 19.8592C102.475 19.9568 102.46 20.0546 102.425 20.1459C102.39 20.2373 102.336 20.3203 102.267 20.3895C102.198 20.4587 102.115 20.5125 102.023 20.5474C101.932 20.5824 101.834 20.5977 101.736 20.5923Z" fill="#FAFAFA"/>
<path d="M102.283 19.1075L102.174 19.0449C102.288 18.8948 102.349 18.7113 102.348 18.5229C102.348 18.2189 102.239 18.096 102.077 18.096C101.654 18.096 101.965 19.0565 101.397 19.0565C101.179 19.0565 101 18.8732 101 18.5066C100.997 18.3308 101.046 18.158 101.142 18.0101L101.253 18.0751C101.166 18.2027 101.12 18.3543 101.123 18.5089C101.123 18.792 101.239 18.9173 101.395 18.9173C101.828 18.9173 101.522 17.9568 102.074 17.9568C102.306 17.9568 102.469 18.1609 102.469 18.5298C102.476 18.7381 102.41 18.9423 102.283 19.1075Z" fill="#FAFAFA"/>
<path d="M102.283 17.7828L102.174 17.7202C102.288 17.5701 102.349 17.3866 102.348 17.1982C102.348 16.8942 102.239 16.7713 102.077 16.7713C101.654 16.7713 101.965 17.7294 101.397 17.7294C101.179 17.7294 101 17.5485 101 17.1819C100.997 17.0061 101.046 16.8333 101.142 16.6854L101.253 16.7481C101.166 16.8766 101.12 17.0289 101.123 17.1842C101.123 17.4673 101.239 17.5926 101.395 17.5926C101.828 17.5926 101.522 16.6321 102.074 16.6321C102.306 16.6321 102.469 16.8339 102.469 17.2028C102.476 17.4118 102.41 17.6169 102.283 17.7828Z" fill="#FAFAFA"/>
<path d="M95.9478 12.2703C96.2566 12.2703 96.5069 12.02 96.5069 11.7112C96.5069 11.4024 96.2566 11.1521 95.9478 11.1521C95.639 11.1521 95.3887 11.4024 95.3887 11.7112C95.3887 12.02 95.639 12.2703 95.9478 12.2703Z" fill="#E0E0E0"/>
<path d="M96.1191 13.2471H95.7734V21.1629H96.1191V13.2471Z" fill="#E0E0E0"/>
<path d="M109.229 105.328C109.229 105.36 86.82 105.388 59.1841 105.388C31.5483 105.388 9.13477 105.365 9.13477 105.328C9.13477 105.291 31.539 105.268 59.1841 105.268C86.8292 105.268 109.229 105.3 109.229 105.328Z" fill="#263238"/>
<path d="M36.2336 25.5758C32.51 31.4315 32.7536 39.5515 36.8228 45.1728C39.5349 48.922 43.6019 51.4368 46.8313 54.7452C50.0608 58.0535 52.5153 62.9371 50.8101 67.2384C49.0748 71.6162 43.9916 73.3956 40.1868 76.1704C35.9889 79.2279 33.139 83.7931 32.2358 88.9074C31.3325 94.0216 32.4461 99.2868 35.3427 103.597H74.8801C74.8801 103.597 81.8262 90.3618 72.8965 80.2721C63.9668 70.1824 59.1714 70.02 59.5008 63.4034C59.8303 56.7868 64.461 54.6408 67.1081 52.1584C69.7552 49.676 82.6521 43.8922 75.0448 25.5735L36.2336 25.5758Z" fill="#FAFAFA"/>
<path d="M36.2332 25.5758H36.913H38.9175H46.6338L75.0445 25.5549H75.0747V25.5828C75.657 26.9698 76.1529 28.3916 76.5595 29.84C76.9864 31.3564 77.2676 32.9101 77.3993 34.48C77.5362 36.1209 77.4519 37.7729 77.1488 39.3914C76.8158 41.0692 76.2125 42.6817 75.3624 44.166C74.9219 44.923 74.4239 45.6451 73.8729 46.3259C73.3105 47.0158 72.702 47.6669 72.0517 48.2747C71.3931 48.8936 70.7032 49.4782 69.9846 50.0263C69.2654 50.5831 68.5137 51.1074 67.7806 51.6642C67.414 51.9403 67.0846 52.2512 66.7273 52.562C66.37 52.8729 66.0151 53.1629 65.6485 53.4553C64.9177 54.0399 64.18 54.6152 63.484 55.2625C62.0313 56.5216 60.915 58.1227 60.236 59.9211C59.9096 60.8435 59.7038 61.8042 59.6235 62.7793C59.6026 63.0113 59.5701 63.2665 59.5608 63.5125C59.5516 63.7584 59.5423 64.0043 59.5608 64.2502C59.5661 64.744 59.6158 65.2362 59.7093 65.7211C59.8933 66.7035 60.2943 67.6325 60.8832 68.4401C61.4892 69.2476 62.1756 69.9915 62.9318 70.6604C64.4328 72.0315 66.0267 73.3423 67.5509 74.7575C69.0752 76.1727 70.5669 77.6482 72.0053 79.2096C72.7392 79.9824 73.4257 80.799 74.0608 81.6549C74.6999 82.5214 75.2553 83.4466 75.7196 84.418C76.6586 86.3869 77.2354 88.5087 77.4225 90.682C77.6117 92.8853 77.482 95.1045 77.0374 97.2708C76.8213 98.3653 76.5377 99.4454 76.1883 100.505C75.8448 101.573 75.4262 102.616 74.9355 103.625L74.9192 103.658H35.3099L35.2936 103.632C33.4395 100.841 32.3024 97.6348 31.983 94.2989C31.6616 91.0944 32.1316 87.8601 33.3518 84.8796C34.5115 82.0308 36.2971 79.4792 38.5764 77.4139C39.6825 76.4375 40.8771 75.566 42.1446 74.8108C43.3788 74.0452 44.6247 73.3353 45.8009 72.5605C46.9783 71.8245 48.0599 70.9455 49.0211 69.9435C49.939 68.9595 50.6198 67.7787 51.0116 66.4913C51.355 65.2353 51.409 63.9177 51.1694 62.6378C50.9405 61.4026 50.5284 60.2086 49.9468 59.0952C49.3904 58.0231 48.7232 57.0122 47.9562 56.0792C47.2158 55.1841 46.4109 54.3443 45.548 53.5666C43.8753 52.0261 42.1608 50.6782 40.6204 49.2932C39.8478 48.5972 39.117 47.9012 38.4419 47.1889C37.7875 46.4916 37.1843 45.7481 36.6369 44.9641C35.6473 43.5262 34.8844 41.9448 34.3749 40.2753C33.9286 38.8336 33.6697 37.3404 33.6047 35.8325C33.5722 35.4892 33.5861 35.1505 33.5861 34.8187C33.5861 34.4869 33.5861 34.1645 33.6163 33.8513C33.6464 33.5381 33.6627 33.2318 33.6859 32.9233C33.7091 32.6147 33.7717 32.3386 33.8112 32.0579C34.0675 30.349 34.5904 28.6909 35.3609 27.1441C35.4653 26.9049 35.5846 26.6724 35.7182 26.4481L36.0036 25.9633C36.1544 25.7057 36.2356 25.5758 36.2356 25.5758L36.0036 25.9702L35.7275 26.4481C35.5971 26.6734 35.4793 26.9058 35.3748 27.1441C34.6113 28.6946 34.0947 30.3549 33.8436 32.0649C33.8042 32.3433 33.7578 32.6309 33.723 32.9256C33.6882 33.2202 33.6766 33.5288 33.6534 33.842C33.6302 34.1552 33.6302 34.4777 33.6279 34.8071C33.6256 35.1365 33.6163 35.4753 33.6488 35.8186C33.7159 37.3215 33.9771 38.8093 34.426 40.2452C34.9349 41.9087 35.697 43.4839 36.6856 44.9153C37.2317 45.6961 37.8342 46.4359 38.4883 47.1286C39.1611 47.8432 39.8919 48.5392 40.6644 49.2166C42.2049 50.6086 43.9124 51.9426 45.5968 53.4854C46.4663 54.2688 47.2774 55.1147 48.0235 56.0165C48.7948 56.9563 49.4658 57.9742 50.0256 59.0534C50.6128 60.1737 51.0289 61.3757 51.2599 62.6193C51.5029 63.9129 51.4489 65.2448 51.1021 66.5145C50.7085 67.8169 50.0212 69.0114 49.093 70.0061C48.1271 71.0139 47.0409 71.8991 45.8589 72.6416C44.678 73.4188 43.4322 74.1288 42.2003 74.8944C40.9381 75.6476 39.7483 76.5159 38.646 77.4881C36.3807 79.5428 34.6055 82.0799 33.4516 84.9121C32.2388 87.8774 31.7727 91.0951 32.0944 94.2826C32.4138 97.5995 33.5453 100.787 35.3888 103.563L35.3424 103.537H74.8798L74.8264 103.57C75.3163 102.563 75.7335 101.522 76.0746 100.456C76.4222 99.4012 76.7042 98.3257 76.9191 97.236C77.3617 95.0804 77.4907 92.8721 77.3019 90.6796C77.1184 88.5182 76.5454 86.4079 75.6106 84.4505C75.1495 83.4861 74.5988 82.5672 73.9657 81.7059C73.332 80.8545 72.6487 80.0411 71.9195 79.2699C70.4888 77.7124 69.0063 76.2307 67.472 74.8248C65.9501 73.4119 64.3609 72.1034 62.8552 70.7253C62.0931 70.0509 61.4005 69.3017 60.7881 68.4888C60.1877 67.6714 59.7765 66.7308 59.584 65.735C59.4911 65.243 59.4407 64.7439 59.4332 64.2433C59.4216 63.995 59.4332 63.7468 59.4332 63.4985C59.4332 63.2503 59.475 63.0044 59.4936 62.7585C59.5787 61.7775 59.7892 60.8114 60.12 59.884C60.8049 58.0697 61.9317 56.4549 63.3981 55.186C64.0941 54.541 64.8388 53.9564 65.5696 53.3741C65.9362 53.0817 66.2958 52.7871 66.6461 52.4855C66.9964 52.1839 67.3421 51.8591 67.704 51.5807C68.4418 51.0239 69.1912 50.4996 69.908 49.9451C70.6244 49.3994 71.3128 48.8179 71.9705 48.2028C72.6166 47.5977 73.2219 46.9506 73.7824 46.2656C74.3291 45.5871 74.8246 44.869 75.2649 44.1173C76.1102 42.6432 76.7104 41.0417 77.042 39.3752C77.3438 37.7698 77.4288 36.1312 77.2949 34.5032C77.1653 32.9336 76.8864 31.3799 76.462 29.8632C76.0611 28.4108 75.5715 26.9844 74.9958 25.5921L75.0352 25.6176L46.6408 25.5967H38.9198H36.9107L36.2332 25.5758Z" fill="#263238"/>
<path d="M73.4669 36.3149C79.2901 37.2731 70.1098 47.5878 64.9107 51.6571C61.8947 54.0119 58.6699 56.5685 57.2408 60.1135C55.6168 64.1364 56.8209 68.6557 56.0367 72.7018C56.0115 72.8414 55.9343 72.9661 55.8209 73.0512C55.7074 73.1362 55.5659 73.1751 55.4249 73.1601C55.284 73.1451 55.1538 73.0773 55.0608 72.9704C54.9677 72.8634 54.9185 72.7252 54.9231 72.5835C54.9602 69.9271 54.8906 67.273 54.4591 64.6584C53.835 60.9464 52.4106 57.2831 49.8191 54.5664C47.6963 52.3461 44.9146 50.8729 42.6526 48.7989C39.349 45.7713 35.9548 41.8667 35.623 37.3984C35.623 37.3984 41.9659 32.2944 45.4877 32.9324C49.6034 33.6864 53.6541 40.0362 60.0294 39.3101C64.4653 38.802 66.7134 35.206 73.4669 36.3149Z" fill="#EF233C"/>
<path d="M73.984 91.5193C73.8378 90.0623 73.448 88.4151 72.1558 87.7284C71.374 87.3108 70.4204 87.3572 69.562 87.5822C68.7036 87.8073 67.8986 88.1994 67.0495 88.4522C65.3615 88.9486 63.5588 88.8909 61.906 88.2875C60.3261 87.7075 58.9712 86.6635 57.498 85.833C56.0248 85.0024 54.315 84.3946 52.6817 84.8006C49.8652 85.4966 48.399 88.893 45.615 89.712C44.3761 90.0739 43.0468 89.8698 41.7893 89.5867C40.5319 89.3037 39.2675 88.9348 37.9799 88.9835C36.9684 89.0206 35.9174 89.371 35.2098 90.0623L35.1912 90.0832C35.0734 90.1986 34.9663 90.3244 34.8711 90.459C34.008 91.619 33.8688 93.1572 34.1356 94.5631C34.4326 96.1384 35.168 97.593 35.9568 98.9874C36.8848 100.63 37.9428 102.263 39.4786 103.358C41.3764 104.711 43.759 103.778 46.0813 103.961C51.4939 104.388 57.3171 104.678 62.732 104.261C65.5925 104.029 68.2721 104.349 70.5411 102.593C72.1372 101.358 73.1766 99.4978 73.6777 97.5443C74.1788 95.5909 74.1858 93.5261 73.984 91.5193Z" fill="#EF233C"/>
<g opacity="0.24">
<path d="M63.7669 88.7307C63.463 89.1947 63.3307 89.8258 63.6254 90.299C63.92 90.7723 64.3214 91.2062 64.4467 91.7514C64.6485 92.6051 64.1335 93.4403 63.7507 94.2314C63.0421 95.6459 62.7746 97.2405 62.9827 98.8088C63.2022 100.382 64.0147 101.812 65.254 102.806C65.8039 103.231 66.5184 103.56 67.1819 103.351C67.806 103.156 68.2074 102.523 68.3419 101.88C68.4765 101.238 68.3628 100.577 68.2816 99.9294C67.9038 96.9126 67.982 93.8562 68.5136 90.8628C68.6018 90.364 68.6853 89.7933 68.3698 89.3966C68.1422 89.1655 67.8531 89.0045 67.5369 88.9326C66.3305 88.5312 65.029 88.9766 63.7785 88.74" fill="black"/>
</g>
<path d="M32.4402 105.393C32.4402 105.393 32.3312 103.579 34.6976 102.567H76.2836C76.2836 102.567 78.4528 103.667 78.7196 105.351L32.4402 105.393Z" fill="#263238"/>
<path d="M75.3993 25.7961L75.332 25.8263L36.2284 25.5757C36.2284 25.5757 36.0892 25.4876 35.8827 25.3228C35.6389 25.1319 35.4611 24.8694 35.3741 24.5722C35.2872 24.275 35.2954 23.958 35.3978 23.6658C35.5002 23.3735 35.6915 23.1206 35.9449 22.9427C36.1983 22.7647 36.5011 22.6705 36.8107 22.6734L74.7659 22.9796C76.3273 22.9936 76.8191 25.128 75.3993 25.7961Z" fill="#263238"/>
<g opacity="0.24">
<path d="M69.1355 40.7136C69.2144 40.8644 68.9197 41.1776 68.3606 41.688C67.8015 42.1984 66.9686 42.8689 65.9339 43.7111C64.6915 44.7375 63.3731 45.6682 61.9899 46.4951C61.1306 46.9926 60.2265 47.4082 59.2894 47.7363C58.7816 47.9118 58.2632 48.0552 57.7373 48.1655C57.1849 48.2828 56.624 48.3557 56.06 48.3836C54.917 48.4458 53.7727 48.2882 52.689 47.9196C51.7309 47.5711 50.8205 47.1034 49.9792 46.5276C49.1997 46.0125 48.5292 45.5021 47.8912 45.0126C47.2532 44.5231 46.6848 44.0521 46.1698 43.6067C44.1166 41.8272 43.0355 40.5188 43.2443 40.2659C43.4531 40.013 44.9147 40.8366 47.1883 42.2286L49.0443 43.3654C49.7101 43.7691 50.4224 44.2168 51.1508 44.6298C51.8737 45.0541 52.6398 45.4002 53.436 45.6622C54.2508 45.9062 55.1017 46.0067 55.9509 45.9592C57.7327 45.8664 59.4611 45.24 60.9575 44.5161C62.4539 43.7923 63.8088 42.9478 64.9827 42.2889C65.9117 41.7407 66.883 41.2674 67.8873 40.8737C68.6228 40.6162 69.0682 40.5675 69.1355 40.7136Z" fill="black"/>
</g>
<path d="M54.9514 77.5484C55.1158 77.483 55.2993 77.485 55.4623 77.5539C55.6252 77.6228 55.7544 77.7531 55.822 77.9166C55.8895 78.0802 55.8899 78.2637 55.8232 78.4275C55.7564 78.5913 55.6278 78.7222 55.4652 78.7919C55.3026 78.8616 55.1191 78.8645 54.9544 78.7998C54.7897 78.7352 54.6571 78.6083 54.5853 78.4467C54.5135 78.285 54.5082 78.1015 54.5707 77.936C54.6331 77.7705 54.7582 77.6362 54.919 77.5623" fill="#EF233C"/>
<path d="M40.9659 47.1841C40.9151 47.1424 40.8685 47.0958 40.8267 47.0449L40.4486 46.632C40.2885 46.4487 40.0774 46.2353 39.8616 45.9638L39.1239 45.0358C38.871 44.6785 38.5856 44.2934 38.2979 43.8758L37.8734 43.2007C37.8015 43.0847 37.7249 42.9687 37.6553 42.8457L37.4511 42.4699C36.8337 41.3756 36.35 40.2112 36.0104 39.0015C35.6692 37.7928 35.4852 36.5452 35.4629 35.2895C35.4629 34.9995 35.4791 34.7188 35.4838 34.4427C35.4838 34.3058 35.4838 34.1713 35.5023 34.039C35.5209 33.9068 35.5302 33.7769 35.5441 33.6493C35.5743 33.3941 35.5928 33.1458 35.6276 32.9092C35.6624 32.6725 35.7111 32.4452 35.7506 32.2341C35.8155 31.8002 35.9315 31.4221 36.0127 31.0741C36.0568 30.907 36.0916 30.7493 36.1357 30.6101L36.2633 30.2226L36.4419 29.6913C36.459 29.6281 36.4823 29.5667 36.5115 29.5081C36.502 29.5728 36.4865 29.6365 36.4651 29.6983C36.4257 29.8329 36.3747 30.0115 36.3074 30.2365L36.1914 30.624C36.1519 30.7655 36.1194 30.9233 36.0777 31.088C36.0034 31.4244 35.8944 31.8049 35.8457 32.248C35.8086 32.4614 35.7715 32.6865 35.732 32.9208C35.6926 33.1551 35.6833 33.401 35.6555 33.6562C35.6555 33.7838 35.6299 33.9114 35.616 34.0437C35.6021 34.1759 35.616 34.3105 35.6021 34.445C35.6021 34.7188 35.5835 34.9972 35.5859 35.2849C35.6085 36.5332 35.7901 37.7736 36.1264 38.976C36.4642 40.1768 36.9415 41.3338 37.5486 42.4235C37.6159 42.5488 37.6831 42.6741 37.7481 42.7993C37.8131 42.9246 37.8943 43.0313 37.9639 43.152L38.3815 43.8271C38.6645 44.254 38.9452 44.6391 39.1911 44.9871L39.915 45.9151C40.1238 46.1912 40.3303 46.4069 40.4834 46.5972L40.8453 47.0264C40.8888 47.0764 40.9291 47.1291 40.9659 47.1841Z" fill="#263238"/>
<path d="M38.7637 81.65C38.7752 81.6232 38.7891 81.5976 38.8054 81.5734L38.9446 81.3554C39.0073 81.2579 39.0838 81.1419 39.1766 81.0027L39.3228 80.7707C39.3808 80.6942 39.4481 80.6176 39.5154 80.5387L39.9794 79.9819C40.158 79.7894 40.3622 79.5898 40.5779 79.3718C41.0782 78.8901 41.6099 78.4421 42.1694 78.0308C43.4014 77.1028 44.9906 76.1748 46.712 75.0867C47.6172 74.5289 48.4873 73.916 49.3174 73.2516C50.2079 72.5423 50.9943 71.7113 51.6536 70.7831C52.8603 68.9291 53.516 66.7706 53.5444 64.5586C53.5738 62.7557 53.2718 60.9628 52.6535 59.269C52.244 58.1259 51.7298 57.0231 51.1177 55.9746C50.9019 55.6011 50.7256 55.318 50.605 55.1255L50.4681 54.9074C50.4379 54.8587 50.424 54.8308 50.424 54.8308C50.4447 54.8516 50.4626 54.875 50.4774 54.9004L50.6258 55.1139C50.7534 55.2995 50.9367 55.5779 51.1571 55.9514C51.7882 56.9943 52.3166 58.0961 52.7347 59.2411C53.3696 60.9419 53.6843 62.7456 53.6627 64.5609C53.6529 65.0843 53.6103 65.6065 53.5351 66.1246C53.46 66.6664 53.346 67.2022 53.1941 67.7277C52.8772 68.8404 52.3845 69.8954 51.7348 70.8527C51.0687 71.791 50.2737 72.6306 49.373 73.3467C48.538 74.0118 47.6633 74.6254 46.7538 75.1842C45.0254 76.263 43.4338 77.1817 42.2019 78.1027C41.6425 78.5086 41.1093 78.9495 40.6058 79.4228C40.39 79.6386 40.1835 79.8334 40.0026 80.0237L39.5386 80.5689C39.469 80.6524 39.4017 80.729 39.3437 80.8009L39.1929 81.0213L38.9609 81.367L38.8124 81.5781C38.7981 81.6033 38.7818 81.6274 38.7637 81.65Z" fill="#263238"/>
<path d="M36.607 85.7496C36.593 85.7873 36.576 85.8238 36.556 85.8587L36.3889 86.1533C36.3147 86.2786 36.2265 86.4364 36.1361 86.6173C36.0456 86.7983 35.9296 87.0117 35.8321 87.2553C35.7811 87.376 35.7254 87.5012 35.6697 87.6312C35.6141 87.7611 35.5677 87.9049 35.512 88.0487C35.4006 88.3364 35.3125 88.6519 35.2104 88.9767C34.8068 90.4311 34.6678 91.9462 34.7997 93.4497C34.8392 93.7931 34.867 94.1225 34.9273 94.4241C34.9529 94.5749 34.9737 94.7234 35.0039 94.8626C35.0341 95.0018 35.0665 95.1363 35.0967 95.2639C35.1477 95.5215 35.2243 95.7465 35.28 95.946C35.3357 96.1455 35.3913 96.3172 35.4424 96.4564L35.5514 96.7766C35.5671 96.8128 35.5772 96.8511 35.5816 96.8903C35.5592 96.858 35.5413 96.8229 35.5282 96.7859C35.4934 96.7 35.4517 96.5979 35.3983 96.4727C35.3282 96.3075 35.267 96.1387 35.215 95.9669C35.1524 95.7674 35.0712 95.5423 35.0132 95.2848C34.9807 95.1572 34.9482 95.0227 34.9134 94.8835C34.8786 94.7443 34.8577 94.5935 34.8276 94.4427C34.7626 94.1364 34.7301 93.807 34.6884 93.4613C34.5431 91.9484 34.6832 90.4217 35.1013 88.9605C35.2057 88.6264 35.2985 88.3086 35.4169 88.0209C35.4749 87.8771 35.5213 87.7356 35.5816 87.6033L35.7533 87.2252C35.8553 86.9932 35.9853 86.7774 36.0757 86.5918C36.1575 86.4322 36.2481 86.2773 36.3472 86.1278L36.5328 85.8424C36.5792 85.7798 36.6024 85.7473 36.607 85.7496Z" fill="#263238"/>
<path d="M65.2881 91.3268L65.2417 91.3593L65.0979 91.4498L64.5341 91.7885L64.1258 92.0205C63.9727 92.1064 63.8033 92.1852 63.6224 92.2757C63.2558 92.452 62.8521 92.6771 62.3742 92.858L61.6318 93.162C61.3743 93.264 61.0936 93.3452 60.8105 93.4427C60.2468 93.6492 59.6204 93.7976 58.9685 93.967C56.1061 94.6374 53.1369 94.7163 50.2429 94.199C49.5794 94.0644 48.9484 93.9484 48.373 93.7721C48.0853 93.6886 47.8023 93.6236 47.5378 93.5401L46.7815 93.264C46.2966 93.1086 45.879 92.9068 45.5055 92.749C45.3199 92.6678 45.1459 92.5959 44.9905 92.517L44.5682 92.2966L43.9882 91.988L43.8397 91.9045L43.791 91.8744C43.791 91.8744 43.8119 91.8744 43.8467 91.8952L43.9998 91.9672L44.5891 92.2548L45.0137 92.4636C45.1714 92.5379 45.3477 92.6052 45.5333 92.684C45.9069 92.8325 46.3245 93.0297 46.8117 93.1782L47.5587 93.4496C47.8232 93.5378 48.1062 93.6004 48.3939 93.6816C48.9669 93.8533 49.5957 93.9624 50.2499 94.0946C53.1305 94.5934 56.0815 94.5146 58.9313 93.8626C59.5809 93.6956 60.205 93.554 60.7688 93.3522C61.0518 93.2571 61.3302 93.1805 61.5877 93.0784L62.3301 92.7838C62.8081 92.6075 63.2141 92.3894 63.5806 92.22C63.7616 92.1319 63.9333 92.0553 64.0864 91.988L64.4993 91.756L65.0724 91.4359L65.2232 91.357C65.2696 91.3315 65.2881 91.3245 65.2881 91.3268Z" fill="#263238"/>
<path d="M67.7093 42.2241C67.6951 42.2409 67.6788 42.2558 67.6606 42.2682L67.5075 42.3935C67.366 42.5072 67.1688 42.6672 66.9159 42.8575C66.4008 43.2658 65.6538 43.8574 64.7096 44.5627C63.6108 45.4038 62.4584 46.1726 61.2597 46.8641C60.5469 47.263 59.8038 47.6051 59.0372 47.8872C58.2103 48.1881 57.3477 48.38 56.4712 48.458C54.7672 48.5536 53.068 48.2 51.5436 47.4325C50.8843 47.0977 50.248 46.7195 49.6388 46.3004C49.0728 45.9013 48.5554 45.5139 48.0984 45.1404C47.1704 44.4026 46.4604 43.7785 45.9593 43.3516L45.3863 42.8552L45.2401 42.7252L45.1914 42.6765C45.1914 42.6765 45.2123 42.6765 45.2471 42.7136L45.4025 42.8366L45.9895 43.3145C46.4999 43.7321 47.2284 44.3446 48.1517 45.0731C48.6157 45.4373 49.1284 45.8201 49.6968 46.2145C50.3039 46.6264 50.937 46.9984 51.5923 47.3281C53.1015 48.0804 54.7806 48.4266 56.4643 48.3327C57.3303 48.2559 58.1826 48.0672 59 47.7712C59.7614 47.4929 60.4999 47.1555 61.2087 46.762C62.4055 46.0831 63.5592 45.3307 64.6632 44.5093C65.6097 43.8133 66.3637 43.2333 66.8904 42.8366L67.4959 42.3726L67.656 42.2566C67.672 42.2432 67.69 42.2322 67.7093 42.2241Z" fill="#263238"/>
<g opacity="0.24">
<path d="M46.7852 93.2756C47.8848 92.4265 49.43 92.6307 50.7895 92.9184C52.149 93.206 53.5178 93.6677 54.8936 93.4751C55.9306 93.329 56.8818 92.8209 57.9096 92.5982C58.9373 92.3755 60.1739 92.5402 60.7423 93.4195C56.1993 94.8833 51.3039 94.8328 46.7921 93.2756" fill="black"/>
</g>
<path d="M85.1436 86.9793L80.1556 81.3858L80.1046 88.1857L81.6079 92.5473L66.6625 95.1388L66.0291 83.3462L64.9527 74.2982C64.8887 73.7588 65.0051 73.2133 65.2838 72.747C65.5625 72.2807 65.9877 71.9198 66.4931 71.7207L70.6065 70.0967L76.4065 71.1592L78.7381 72.0455C79.7157 72.4178 80.5871 73.0239 81.2762 73.811L88.2919 81.8336" fill="#EF233C"/>
<path d="M79.8066 80.0402C80.0883 80.0363 80.3695 80.0162 80.6488 79.9799C81.3217 79.8772 81.9486 79.5759 82.4492 79.1146C82.9497 78.6533 83.3011 78.053 83.4583 77.3907C83.5161 77.1141 83.5587 76.8345 83.5859 76.5532C83.6047 76.629 83.6118 76.7073 83.6068 76.7852C83.6085 76.9958 83.5867 77.2059 83.5418 77.4116C83.4014 78.1005 83.0477 78.7278 82.531 79.2045C82.0143 79.6813 81.3607 79.9834 80.6627 80.068C80.4542 80.095 80.2435 80.0996 80.034 80.0819C79.9565 80.0803 79.8797 80.0662 79.8066 80.0402Z" fill="white"/>
<path d="M80.2406 87.8957C80.2754 87.8957 80.2847 85.5386 80.2615 82.6339C80.2383 79.7293 80.1895 77.3745 80.1547 77.3745C80.1199 77.3745 80.1107 79.7293 80.1339 82.6363C80.1571 85.5432 80.2058 87.8957 80.2406 87.8957Z" fill="#263238"/>
<path d="M79.6934 89.6239L70.664 85.9885C70.3071 85.8448 69.9974 85.6042 69.7698 85.2939C69.5423 84.9836 69.4061 84.6159 69.3764 84.2322L68.7152 75.574C68.7152 75.574 68.7941 71.8898 66.4926 71.7112L65.1911 72.2262C63.4998 73.1241 63.0822 75.5879 63.3119 77.488C63.639 80.1885 63.7759 84.0118 64.1402 86.355C64.4418 88.2737 65.5322 89.9603 67.416 90.4545L78.5381 92.8626L79.6934 89.6239Z" fill="#EF233C"/>
<path d="M68.8459 76.8943C68.861 76.9591 68.8703 77.0251 68.8737 77.0915C68.8877 77.233 68.9085 77.4232 68.9317 77.6622C68.9781 78.1703 69.0431 78.8848 69.122 79.7618C69.2009 80.6388 69.289 81.7083 69.3911 82.8776C69.4143 83.1722 69.4398 83.4715 69.4654 83.7777C69.4833 84.0893 69.522 84.3993 69.5814 84.7057C69.6443 85.0156 69.8015 85.2984 70.0314 85.5154C70.2788 85.733 70.5602 85.9085 70.8643 86.0351C73.3537 87.1116 75.6481 88.0024 77.3139 88.6265L79.2929 89.355L79.8311 89.5522C79.8941 89.573 79.9553 89.5986 80.0144 89.6288C79.9487 89.6168 79.8843 89.5989 79.8218 89.5754L79.2766 89.3991C78.8126 89.2413 78.1166 89.007 77.2861 88.7031C75.6087 88.0999 73.3119 87.2229 70.8133 86.1511C70.4973 86.0183 70.205 85.8349 69.9479 85.6082C69.7012 85.374 69.5327 85.0694 69.4654 84.7359C69.4055 84.425 69.3675 84.1102 69.3517 83.794C69.3261 83.4854 69.3029 83.1861 69.2797 82.8915C69.1893 81.7315 69.1057 80.6643 69.0477 79.7734C68.9897 78.8825 68.9317 78.1796 68.8946 77.6715C68.8784 77.4395 68.8668 77.24 68.8598 77.0984C68.8493 77.0309 68.8446 76.9626 68.8459 76.8943Z" fill="#263238"/>
<path d="M63.671 81.6016C63.6803 81.6396 63.6857 81.6784 63.6872 81.7176L63.7174 82.0516C63.7452 82.3602 63.78 82.7755 63.8241 83.2812C63.8682 83.787 63.9378 84.4157 64.0282 85.0978C64.117 85.8365 64.2526 86.5687 64.4342 87.2902C64.5196 87.6618 64.6688 88.0158 64.875 88.3365C65.0765 88.631 65.3024 88.908 65.5502 89.1648C65.9724 89.5992 66.4601 89.9648 66.9955 90.2482C67.4947 90.5019 68.0299 90.6772 68.5824 90.7679C68.5431 90.7729 68.5033 90.7729 68.4641 90.7679C68.3519 90.7604 68.2403 90.7457 68.13 90.7238C67.7219 90.6478 67.3266 90.5142 66.9561 90.3271C66.4056 90.05 65.904 89.6848 65.4713 89.246C65.2148 88.9864 64.9818 88.7046 64.7753 88.4038C64.5586 88.0741 64.4016 87.709 64.3113 87.325C64.1271 86.598 63.993 85.8593 63.9099 85.114C63.8264 84.418 63.7707 83.8102 63.7336 83.2905C63.6965 82.7708 63.6756 82.3486 63.664 82.0563C63.664 81.9217 63.664 81.8104 63.664 81.7199C63.66 81.6803 63.6624 81.6404 63.671 81.6016Z" fill="#263238"/>
<path d="M67.5312 87.6589C67.555 87.4897 67.6109 87.3267 67.696 87.1786C67.882 86.8089 68.14 86.4799 68.4547 86.211C68.7694 85.9422 69.1345 85.7387 69.5288 85.6126C69.6886 85.5516 69.8588 85.5224 70.0299 85.5268C69.8781 85.5901 69.7232 85.6458 69.5659 85.6938C69.1929 85.8381 68.847 86.0444 68.5428 86.304C68.2393 86.5641 67.9813 86.8731 67.7795 87.2181C67.6171 87.4849 67.5498 87.6658 67.5312 87.6589Z" fill="#263238"/>
<path d="M69.3086 81.0747C69.3283 81.0805 69.347 81.0891 69.3643 81.1002L69.5267 81.1861C69.7361 81.2892 69.9515 81.3799 70.1716 81.4575C70.9835 81.7424 71.8542 81.8174 72.7028 81.6756C73.9632 81.4507 75.0893 80.7507 75.8487 79.7198C76.3025 79.1244 76.5871 78.4174 76.6723 77.6736C76.7144 77.2827 76.6733 76.8874 76.5516 76.5136C76.4233 76.132 76.1997 75.7894 75.902 75.5183C75.6086 75.2436 75.2391 75.0641 74.8418 75.0033C74.6536 74.9696 74.4602 74.979 74.2761 75.0308C74.0921 75.0827 73.9222 75.1756 73.7792 75.3025C73.6498 75.4293 73.5749 75.6016 73.5704 75.7828C73.5744 75.9629 73.6362 76.137 73.7468 76.2793C73.8619 76.4168 74.0033 76.53 74.1626 76.6124C74.3219 76.6949 74.496 76.7449 74.6748 76.7595C75.303 76.8378 75.9409 76.7571 76.5298 76.5249C77.1188 76.2926 77.64 75.9162 78.0457 75.4301C78.3532 75.0519 78.5848 74.6179 78.7278 74.1518C78.8344 73.7987 78.8922 73.4326 78.8995 73.0637C78.902 72.8307 78.885 72.5979 78.8484 72.3677C78.8345 72.2958 78.8229 72.2355 78.816 72.1891C78.814 72.1683 78.814 72.1473 78.816 72.1265C78.9118 72.4263 78.9588 72.7397 78.9552 73.0545C78.9575 73.4288 78.906 73.8015 78.802 74.1611C78.5437 75.0279 77.9862 75.7748 77.2286 76.2689C76.4711 76.763 75.5628 76.9722 74.6655 76.8593C74.4739 76.8424 74.2875 76.7877 74.1171 76.6985C73.9467 76.6094 73.7956 76.4874 73.6725 76.3396C73.5465 76.1774 73.4765 75.9788 73.473 75.7735C73.4732 75.5624 73.5565 75.3598 73.705 75.2097C73.8609 75.0706 74.0461 74.9682 74.2469 74.9104C74.4477 74.8526 74.659 74.8407 74.865 74.8757C75.2869 74.9382 75.6796 75.1285 75.9902 75.4209C76.3043 75.7047 76.5393 76.0652 76.6723 76.4672C76.7986 76.856 76.8413 77.2671 76.7976 77.6736C76.707 78.4336 76.4128 79.155 75.9461 79.7616C75.3021 80.6404 74.3879 81.2841 73.3434 81.5941C72.2989 81.9042 71.1816 81.8635 70.1624 81.4784C69.8612 81.382 69.5742 81.2463 69.3086 81.0747Z" fill="white"/>
<path d="M63.3926 78.7665C63.4317 78.6971 63.4819 78.6344 63.5411 78.5809C63.6893 78.424 63.8525 78.2818 64.0283 78.1564C64.6205 77.7494 65.3094 77.5054 66.0258 77.4488C66.4188 77.4045 66.8163 77.421 67.2043 77.4975C67.5197 77.563 67.8248 77.6707 68.1115 77.8177C68.3039 77.9146 68.4885 78.0263 68.6636 78.1517C68.7314 78.1932 68.7924 78.2449 68.8446 78.3049C68.8307 78.3234 68.5615 78.1193 68.0743 77.8942C67.4393 77.5997 66.7349 77.4873 66.0397 77.5694C65.3416 77.6245 64.6677 77.85 64.077 78.226C63.6292 78.5253 63.4088 78.7828 63.3926 78.7665Z" fill="white"/>
<path d="M64.8379 72.5744C65.058 72.7817 65.3036 72.9602 65.5687 73.1056C65.8582 73.2541 66.173 73.347 66.4967 73.3794C66.8908 73.4189 67.2886 73.3632 67.6567 73.217C68.0176 73.0631 68.3359 72.8243 68.5847 72.521C68.7901 72.2679 68.9473 71.9793 69.0487 71.6696C69.1321 71.3787 69.1796 71.0788 69.1902 70.7764C69.2128 70.8563 69.223 70.9393 69.2204 71.0223C69.2243 71.2498 69.1938 71.4767 69.1299 71.6951C69.0353 72.0211 68.8777 72.3253 68.6659 72.5906C68.4116 72.9233 68.0737 73.1828 67.6865 73.3425C67.2994 73.5022 66.8768 73.5566 66.4619 73.5C66.1255 73.4619 65.7999 73.3579 65.5037 73.1938C65.3043 73.0844 65.1228 72.9451 64.9655 72.7808C64.9106 72.7204 64.8674 72.6505 64.8379 72.5744Z" fill="white"/>
<path d="M72.707 86.8121C72.7074 86.7544 72.7137 86.6969 72.7256 86.6405C72.758 86.4794 72.8119 86.3233 72.8857 86.1765C73.1807 85.6361 73.6598 85.2195 74.2359 85.0025C75.0839 84.6654 76.0224 84.6318 76.8923 84.9074C77.3702 85.0489 77.9178 85.2253 78.2843 85.6916C78.3765 85.8107 78.4347 85.9525 78.4527 86.102C78.4706 86.2516 78.4477 86.4032 78.3864 86.5407C78.2464 86.8091 78.02 87.0224 77.7437 87.1462C77.4771 87.2782 77.1851 87.351 76.8877 87.3597C76.5924 87.374 76.3016 87.2836 76.0664 87.1045C75.9578 87.0118 75.8693 86.898 75.8063 86.7699C75.7433 86.6419 75.707 86.5023 75.6998 86.3597C75.6846 86.0933 75.7266 85.8268 75.8228 85.5779C76.1724 84.7321 76.8383 84.0562 77.6788 83.6941C78.2364 83.4456 78.8473 83.3403 79.4559 83.3878C79.6775 83.4047 79.8959 83.4507 80.1055 83.5247C80.1055 83.5409 79.8735 83.4644 79.4513 83.4342C78.9471 83.4069 78.4426 83.4827 77.9687 83.657C77.4948 83.8313 77.0614 84.1005 76.6951 84.4481C76.355 84.7738 76.0898 85.1696 75.9179 85.6081C75.8279 85.8423 75.7892 86.0931 75.8042 86.3435C75.8109 86.4704 75.8437 86.5946 75.9003 86.7083C75.957 86.822 76.0364 86.9229 76.1337 87.0047C76.3458 87.1676 76.6089 87.2499 76.8761 87.2367C77.155 87.2294 77.4289 87.1613 77.6788 87.0372C77.931 86.9247 78.1384 86.7312 78.2681 86.4873C78.3203 86.3688 78.3397 86.2384 78.3242 86.1099C78.3087 85.9813 78.2588 85.8592 78.1799 85.7565C78.0181 85.5522 77.8107 85.3886 77.5744 85.2786C77.3452 85.169 77.1069 85.0797 76.8622 85.0118C76.0152 84.7377 75.1 84.7615 74.2684 85.0791C73.7048 85.283 73.2304 85.6779 72.9274 86.195C72.827 86.3901 72.7529 86.5976 72.707 86.8121Z" fill="white"/>
<path d="M66.6953 90.0718C66.6953 90.0486 67.0387 90.0207 67.5607 89.8398C68.2421 89.5998 68.8527 89.1929 69.3365 88.6564C69.8204 88.1198 70.1622 87.4707 70.3307 86.7681C70.463 86.2298 70.4583 85.8795 70.4815 85.8818C70.4978 85.962 70.5017 86.0441 70.4932 86.1255C70.4878 86.3478 70.4614 86.5692 70.4143 86.7866C70.2639 87.5118 69.9228 88.1838 69.426 88.7331C68.9293 89.2825 68.295 89.6893 67.5885 89.9117C67.377 89.9805 67.1595 90.0295 66.9389 90.0578C66.8588 90.0742 66.7768 90.0789 66.6953 90.0718Z" fill="white"/>
<path d="M63.7676 83.3415C63.8019 83.3223 63.8385 83.3075 63.8766 83.2975C63.9509 83.2743 64.0576 83.2418 64.1991 83.2047C64.6007 83.099 65.0164 83.0567 65.431 83.0794C65.719 83.1011 66.0013 83.1709 66.2662 83.2859C66.5748 83.419 66.8434 83.63 67.0457 83.8983C67.2679 84.2027 67.3755 84.5757 67.3497 84.9516C67.3348 85.1516 67.2736 85.3454 67.171 85.5177C67.0672 85.6993 66.903 85.8389 66.707 85.9121C66.6037 85.9473 66.4929 85.9547 66.3858 85.9336C66.2787 85.9124 66.179 85.8634 66.0969 85.7915C65.9576 85.638 65.8821 85.4372 65.8857 85.23C65.8738 84.8604 65.9468 84.4929 66.0992 84.1559C66.3109 83.6756 66.677 83.2798 67.1394 83.0314C67.6017 82.783 68.1338 82.6962 68.6512 82.7847C68.7624 82.802 68.8719 82.8292 68.9783 82.8659C69.0502 82.8938 69.0873 82.91 69.085 82.9147C69.0827 82.9193 68.9296 82.8659 68.6442 82.8311C68.2409 82.7823 67.8319 82.835 67.4541 82.9843C66.8944 83.2088 66.4464 83.6459 66.2082 84.1999C66.0665 84.5219 65.9991 84.8715 66.011 85.2231C66.0061 85.4005 66.0692 85.5731 66.1873 85.7056C66.2539 85.7622 66.334 85.8006 66.4198 85.8168C66.5056 85.8331 66.5942 85.8268 66.6769 85.7984C66.8487 85.7349 66.9931 85.6135 67.0852 85.4551C67.1775 85.2987 67.233 85.1234 67.2476 84.9423C67.2719 84.5938 67.1743 84.2477 66.9715 83.9633C66.7831 83.7079 66.5312 83.5064 66.2407 83.3787C65.9868 83.2634 65.7156 83.1913 65.438 83.1652C65.0323 83.135 64.6243 83.1639 64.2269 83.2511C63.9277 83.3091 63.7722 83.3508 63.7676 83.3415Z" fill="white"/>
<g opacity="0.3">
<path d="M77.0982 88.5917C76.1331 88.0465 75.1889 87.6266 74.1797 87.1696C73.1705 86.7125 72.1798 86.1209 71.5186 85.23C70.2728 83.5504 70.4143 81.126 69.1406 79.4695C69.2241 80.5831 69.3069 81.6975 69.3889 82.8126C69.4654 83.8334 69.31 84.8449 69.9665 85.5386C70.521 86.1232 71.6021 86.571 72.3677 86.8239C73.9059 87.332 75.5624 88.086 77.0982 88.5917Z" fill="black"/>
</g>
<path d="M92.8001 101.317C92.8001 101.317 100.356 103.405 100.66 103.516C101.124 103.676 101.038 105.344 100.331 105.317C99.9944 105.305 94.5308 105.521 93.8348 105.479C93.1388 105.437 91.0508 104.614 91.0508 104.614L92.8001 101.317Z" fill="#EF233C"/>
<path d="M95.938 104.201C96.0314 103.923 96.143 103.652 96.2721 103.389C96.4347 103.145 96.613 102.913 96.8057 102.693C96.5368 102.84 96.3137 103.058 96.1606 103.324C96.0076 103.589 95.9306 103.892 95.938 104.198V104.201Z" fill="#263238"/>
<path d="M95.1484 103.843C95.1856 103.843 95.2621 103.493 95.464 103.099C95.6658 102.704 95.9024 102.428 95.8769 102.403C95.6564 102.574 95.4767 102.793 95.3507 103.042C95.2247 103.292 95.1557 103.566 95.1484 103.846V103.843Z" fill="#263238"/>
<path d="M94.4237 103.646C94.4607 103.376 94.5197 103.109 94.6 102.848C94.7184 102.602 94.8557 102.365 95.0106 102.14C94.7711 102.302 94.5865 102.532 94.4816 102.801C94.3767 103.07 94.3565 103.365 94.4237 103.646Z" fill="#263238"/>
<path d="M94.5467 102.669C94.6133 102.49 94.641 102.299 94.6279 102.108C94.6255 101.9 94.5998 101.693 94.5513 101.491C94.5223 101.371 94.4843 101.254 94.4377 101.14C94.4158 101.068 94.3739 101.004 94.317 100.955C94.2789 100.927 94.232 100.913 94.1846 100.915C94.1372 100.918 94.0921 100.937 94.0572 100.969C93.9986 101.025 93.963 101.101 93.9574 101.182C93.9517 101.249 93.9517 101.315 93.9574 101.382C93.9581 101.506 93.9737 101.63 94.0038 101.751C94.054 101.953 94.1321 102.147 94.2358 102.328C94.3189 102.503 94.4338 102.66 94.5745 102.792C94.5931 102.792 94.4655 102.604 94.3147 102.296C94.2266 102.117 94.1604 101.929 94.1175 101.734C94.0931 101.621 94.0806 101.505 94.0804 101.389C94.0804 101.273 94.0804 101.129 94.15 101.073C94.1636 101.061 94.1814 101.054 94.1999 101.054C94.2183 101.054 94.2361 101.061 94.2497 101.073C94.2875 101.11 94.316 101.155 94.3333 101.205C94.3777 101.314 94.4157 101.426 94.4469 101.54C94.5001 101.732 94.5335 101.93 94.5467 102.129C94.5606 102.454 94.5258 102.667 94.5467 102.669Z" fill="#263238"/>
<path d="M94.5364 102.593C94.3825 102.529 94.2156 102.502 94.0492 102.514C93.8686 102.514 93.6887 102.536 93.5133 102.579C93.4053 102.603 93.3008 102.642 93.2024 102.693C93.1405 102.724 93.0905 102.775 93.06 102.837C93.0294 102.899 93.02 102.97 93.0331 103.038C93.0504 103.103 93.0846 103.163 93.1323 103.21C93.18 103.258 93.2394 103.292 93.3045 103.31C93.4157 103.338 93.532 103.338 93.6432 103.31C93.822 103.269 93.9899 103.19 94.1351 103.078C94.2726 102.986 94.3914 102.868 94.4854 102.732C94.3458 102.814 94.2118 102.904 94.084 103.003C93.9437 103.1 93.7862 103.168 93.62 103.205C93.5279 103.228 93.4314 103.228 93.3393 103.205C93.2957 103.194 93.2558 103.172 93.2237 103.141C93.1915 103.109 93.1681 103.07 93.156 103.027C93.149 102.984 93.156 102.94 93.1761 102.902C93.1962 102.864 93.2283 102.834 93.2674 102.816C93.3535 102.768 93.4456 102.732 93.5411 102.709C93.7077 102.661 93.8788 102.632 94.0515 102.621C94.3462 102.584 94.5318 102.614 94.5364 102.593Z" fill="#263238"/>
<path d="M97.0984 104.282C97.1308 104.051 97.1812 103.823 97.2492 103.6C97.3552 103.392 97.4786 103.194 97.6181 103.008C97.398 103.128 97.2261 103.32 97.1314 103.552C97.0367 103.784 97.0251 104.042 97.0984 104.282Z" fill="#263238"/>
<path d="M91.8262 104.632C91.9177 104.69 92.0158 104.737 92.1185 104.771C92.3927 104.875 92.6732 104.962 92.9583 105.031C93.9059 105.238 94.8749 105.33 95.8444 105.305C96.9766 105.291 97.9974 105.24 98.7375 105.21L99.6121 105.163C99.7195 105.161 99.8266 105.151 99.9323 105.131C99.8256 105.114 99.7175 105.109 99.6098 105.115H98.7351L95.8444 105.17C94.8838 105.195 93.9233 105.117 92.9792 104.938C92.2554 104.792 91.8355 104.606 91.8262 104.632Z" fill="#263238"/>
<path d="M91.6035 104.804C91.6035 104.82 91.8193 104.699 92.1696 104.546C92.6147 104.336 93.11 104.256 93.5987 104.314C94.0793 104.419 94.5132 104.676 94.8353 105.047C94.9693 105.206 95.1143 105.355 95.2691 105.493C95.1696 105.308 95.0455 105.138 94.9002 104.987C94.7513 104.814 94.5832 104.658 94.3991 104.523C94.1686 104.352 93.9005 104.239 93.6173 104.194C93.1045 104.132 92.585 104.23 92.1302 104.474C91.938 104.555 91.7601 104.666 91.6035 104.804Z" fill="#263238"/>
<path d="M84.7696 99.2312C84.7696 99.2312 77.6193 103.913 77.3641 104.103C76.979 104.393 77.4198 105.778 78.088 105.539C78.4035 105.426 84.403 103.755 85.048 103.505C85.6929 103.254 87.4306 101.848 87.4306 101.848L84.7696 99.2312Z" fill="#EF233C"/>
<path d="M82.6466 102.934C82.5604 102.639 82.3949 102.374 82.1682 102.168C81.9415 101.961 81.6624 101.821 81.3613 101.762C81.6127 101.913 81.8538 102.08 82.0828 102.263C82.2845 102.475 82.4728 102.699 82.6466 102.934Z" fill="#263238"/>
<path d="M83.2869 102.354C83.1959 102.089 83.0474 101.848 82.8521 101.647C82.6567 101.447 82.4193 101.292 82.157 101.194C82.1385 101.226 82.4517 101.426 82.7602 101.732C83.0688 102.038 83.2544 102.372 83.2869 102.354Z" fill="#263238"/>
<path d="M83.9327 101.941C83.9317 101.649 83.8207 101.368 83.6218 101.154C83.4556 100.919 83.2074 100.753 82.9258 100.69C83.141 100.858 83.3434 101.042 83.5313 101.24C83.6834 101.463 83.8177 101.697 83.9327 101.941Z" fill="#263238"/>
<path d="M83.5192 101.052C83.5378 101.052 83.4403 100.851 83.3591 100.517C83.3103 100.323 83.2815 100.125 83.2733 99.9249C83.2653 99.8075 83.2653 99.6897 83.2733 99.5723C83.2724 99.5194 83.2861 99.4672 83.3127 99.4215C83.3228 99.4057 83.3386 99.3945 83.3567 99.3901C83.3749 99.3858 83.3941 99.3887 83.4102 99.3983C83.4914 99.4308 83.5331 99.57 83.5726 99.6813C83.6066 99.7917 83.6299 99.9052 83.6422 100.02C83.6601 100.219 83.6539 100.419 83.6236 100.616C83.5749 100.955 83.5076 101.161 83.5262 101.168C83.6217 101.002 83.6847 100.82 83.7118 100.63C83.7563 100.427 83.7719 100.218 83.7582 100.011C83.7489 99.8865 83.7263 99.7636 83.6909 99.6442C83.6718 99.5801 83.6485 99.5173 83.6213 99.4563C83.5903 99.3803 83.5325 99.3184 83.4589 99.2823C83.4159 99.2623 83.3672 99.258 83.3214 99.2703C83.2755 99.2826 83.2355 99.3107 83.2083 99.3496C83.1699 99.4141 83.1499 99.4879 83.1503 99.563C83.1248 99.8935 83.1626 100.226 83.2617 100.542C83.3105 100.728 83.3983 100.902 83.5192 101.052Z" fill="#263238"/>
<path d="M83.4941 100.976C83.4941 100.994 83.6705 100.911 83.9581 100.839C84.1263 100.799 84.2981 100.775 84.4709 100.769C84.5695 100.763 84.6685 100.769 84.7655 100.788C84.8082 100.794 84.8479 100.813 84.8788 100.843C84.9097 100.873 84.9301 100.912 84.9372 100.955C84.9391 101.001 84.9288 101.047 84.9072 101.088C84.8855 101.128 84.8535 101.163 84.8142 101.187C84.7344 101.237 84.6437 101.267 84.5497 101.275C84.3802 101.292 84.2091 101.274 84.0463 101.224C83.8951 101.167 83.74 101.122 83.5823 101.087C83.7132 101.192 83.8628 101.27 84.0231 101.319C84.1953 101.385 84.3797 101.413 84.5637 101.4C84.6781 101.394 84.7891 101.359 84.8861 101.298C84.9435 101.263 84.9904 101.213 85.0218 101.153C85.0533 101.094 85.0681 101.027 85.0648 100.96C85.0566 100.89 85.0261 100.826 84.978 100.776C84.9299 100.725 84.8667 100.692 84.798 100.681C84.6893 100.662 84.5785 100.657 84.4685 100.667C84.2881 100.679 84.1098 100.713 83.9373 100.767C83.7754 100.802 83.6238 100.873 83.4941 100.976Z" fill="#263238"/>
<path d="M78.9966 105.282C78.9966 105.293 79.1172 105.21 79.1729 105.006C79.2284 104.739 79.1803 104.461 79.0383 104.228C78.9696 104.104 78.8921 103.984 78.8063 103.871C78.7366 103.774 78.6547 103.687 78.5627 103.611C78.4968 103.557 78.4159 103.524 78.3307 103.516C78.2704 103.516 78.2402 103.528 78.2402 103.535C78.2402 103.542 78.3678 103.546 78.5001 103.681C78.5781 103.76 78.6473 103.847 78.7066 103.941C78.7898 104.053 78.8672 104.169 78.9386 104.289C79.0667 104.497 79.1222 104.742 79.0963 104.985C79.0691 105.086 79.0358 105.185 78.9966 105.282Z" fill="#263238"/>
<path d="M81.5652 103.363C81.5748 103.238 81.5572 103.111 81.5135 102.993C81.4699 102.875 81.4012 102.768 81.3123 102.679C81.2409 102.575 81.1476 102.488 81.0389 102.424C80.9303 102.361 80.809 102.322 80.6836 102.31C80.8732 102.444 81.051 102.595 81.2149 102.76C81.3484 102.951 81.4656 103.153 81.5652 103.363Z" fill="#263238"/>
<path d="M86.6958 102.096C86.5847 102.158 86.4791 102.23 86.3803 102.31C86.0969 102.507 85.8026 102.687 85.4987 102.85C85.049 103.089 84.584 103.297 84.1067 103.475C83.5638 103.676 82.9467 103.867 82.3157 104.052C81.0281 104.423 79.8634 104.762 79.0236 105.015L78.0237 105.328C77.9002 105.361 77.7799 105.404 77.6641 105.458C77.7905 105.441 77.9154 105.414 78.0376 105.377L79.0421 105.096C79.8889 104.864 81.0559 104.539 82.3435 104.168C82.9861 103.98 83.5963 103.785 84.1392 103.577C84.6223 103.393 85.0914 103.174 85.5428 102.922C85.8459 102.751 86.1359 102.557 86.4105 102.342C86.5122 102.268 86.6077 102.186 86.6958 102.096Z" fill="#263238"/>
<path d="M86.9598 102.191C86.7674 102.107 86.5632 102.052 86.3543 102.029C85.846 101.935 85.3211 102 84.8509 102.215C84.5968 102.348 84.3786 102.54 84.2152 102.776C84.0807 102.962 83.9678 103.163 83.8788 103.375C83.7858 103.563 83.7194 103.762 83.6816 103.969C83.7867 103.789 83.8797 103.603 83.96 103.412C84.1535 102.959 84.489 102.581 84.9159 102.335C85.365 102.133 85.8618 102.062 86.3496 102.129C86.7208 102.159 86.9552 102.21 86.9598 102.191Z" fill="#263238"/>
<path d="M99.6292 87.8144C99.6292 87.8144 101.775 88.58 101.782 90.9858C101.801 95.591 92.4744 100.67 92.4744 100.67L80.0624 92.4474L79.2852 92.1319C79.2852 92.1319 96.0472 85.8401 99.6292 87.8144Z" fill="#263238"/>
<path d="M86.3496 96.6002C86.4639 96.5369 86.5725 96.464 86.6744 96.3822C86.8762 96.2337 87.1662 96.0156 87.5212 95.7395C88.2334 95.192 89.1986 94.4125 90.2402 93.5193C91.2819 92.6261 92.196 91.7886 92.8456 91.1691C93.1704 90.8606 93.4302 90.6054 93.6089 90.4267C93.7053 90.3396 93.7939 90.2441 93.8734 90.1414C93.7666 90.2161 93.6665 90.2999 93.5741 90.3919L92.7853 91.1042C92.1194 91.705 91.1961 92.5333 90.1567 93.4242C89.1174 94.315 88.1615 95.1038 87.4678 95.6699L86.6442 96.3427C86.5393 96.4206 86.4408 96.5067 86.3496 96.6002Z" fill="#455A64"/>
<path d="M96.1269 89.5359C95.3152 89.45 94.5026 89.6895 93.8672 90.2018C93.8881 90.2366 94.3312 89.9466 94.9669 89.7656C95.6025 89.5847 96.1269 89.5754 96.1269 89.5359Z" fill="#455A64"/>
<path d="M95.0565 88.8098C94.7693 88.9317 94.5166 89.1225 94.3208 89.3653C94.1249 89.608 93.9919 89.8954 93.9336 90.2018C93.9707 90.2018 94.1053 89.8283 94.4185 89.4455C94.7317 89.0627 95.0774 88.8423 95.0565 88.8098Z" fill="#455A64"/>
<path d="M100.31 103.398C100.31 103.384 100.162 103.354 99.9902 103.495C99.7879 103.684 99.661 103.939 99.6329 104.215C99.5922 104.485 99.6309 104.761 99.7443 105.01C99.8324 105.198 99.9299 105.286 99.9415 105.277C99.9109 105.174 99.8729 105.073 99.8278 104.975C99.7466 104.737 99.7227 104.483 99.7582 104.233C99.7858 103.984 99.8876 103.75 100.051 103.56C100.183 103.423 100.313 103.419 100.31 103.398Z" fill="#263238"/>
<path d="M96.7739 80.2861L92.3543 91.4917L73.3233 91.8026L72.9707 90.7725L79.6407 90.5313L82.8469 80.5901L96.7739 80.2861Z" fill="#455A64"/>
<path d="M87.8853 85.144C88.0315 85.0706 88.1957 85.041 88.3582 85.0587C88.5208 85.0764 88.6748 85.1407 88.8017 85.2438C88.9095 85.3451 88.9842 85.4766 89.016 85.621C89.0479 85.7655 89.0355 85.9162 88.9804 86.0534C88.9208 86.1905 88.824 86.3081 88.701 86.393C88.578 86.4778 88.4337 86.5266 88.2844 86.5337C88.1272 86.5438 87.9711 86.5023 87.8396 86.4157C87.7082 86.329 87.6086 86.2018 87.5559 86.0534C87.5062 85.8875 87.5104 85.71 87.568 85.5466C87.6255 85.3832 87.7334 85.2422 87.8761 85.144" fill="#EBEBEB"/>
<path d="M93.6482 101.231C93.6482 101.231 76.1137 89.7285 75.3991 89.4895C74.6845 89.2506 72.9445 88.1138 71.2115 88.5917C69.4785 89.0696 67.9194 90.6263 67.1422 92.8999C66.6968 94.1991 66.488 96.4147 66.3882 98.0782C66.2553 100.067 66.8999 102.03 68.1862 103.553C68.756 104.264 69.5129 104.802 70.3717 105.105C70.5549 105.163 70.7452 105.212 70.9401 105.254C74.2553 105.973 77.6681 104.484 79.5241 101.649L79.9324 101.027C79.9324 101.027 91.4048 105.24 91.5834 105.182L93.6482 101.231Z" fill="#263238"/>
<path d="M71.957 98.0642C71.988 98.0798 72.0197 98.0937 72.0522 98.1059L72.3398 98.2196L73.4511 98.6488L77.583 100.206C79.337 100.86 81.4389 101.639 83.7983 102.498C86.1578 103.356 88.7701 104.296 91.5634 105.24L91.6121 105.258L91.6376 105.21L93.0087 102.593L93.7047 101.259L93.7302 101.208L93.6815 101.178L80.3067 92.6864L76.2885 90.153L75.1981 89.4709L74.9127 89.2969C74.8477 89.2574 74.813 89.2412 74.813 89.2412L74.9057 89.3085L75.1842 89.4918L76.263 90.1878L80.2719 92.7606L93.6258 101.284L93.6026 101.201C93.3822 101.625 93.1386 102.078 92.9066 102.535L91.5378 105.152L91.6144 105.122C88.8304 104.18 86.2088 103.242 83.847 102.391L77.6225 100.127L73.4674 98.6001L72.3491 98.1918L72.0568 98.0897L71.957 98.0642Z" fill="#455A64"/>
<path d="M73.7759 57.2206C74.0752 56.4109 74.7364 56.0606 75.5739 55.8587C75.9952 55.7607 76.4339 55.7658 76.8527 55.8737C77.2716 55.9815 77.6582 56.1889 77.9797 56.4782C78.4043 56.8656 78.7152 57.4062 79.2395 57.6382C80.1049 58.0303 81.2115 57.4572 82.0235 57.9375C82.2674 58.0812 82.454 58.3049 82.5516 58.5706C82.6492 58.8364 82.6518 59.1277 82.5588 59.3951C82.4658 59.6625 82.2831 59.8895 82.0417 60.0374C81.8003 60.1853 81.5152 60.245 81.2347 60.2064C81.7985 60.4709 81.9029 61.32 81.5154 61.8072C81.128 62.2944 80.4111 62.4267 79.8102 62.2573C79.2179 62.0533 78.6925 61.6915 78.2906 61.211C77.8684 60.747 77.4972 60.2482 77.0378 59.819C76.5969 59.371 76.0118 59.0933 75.386 59.0348C74.5438 59.0023 73.762 59.5707 73.3235 60.2876C72.885 61.0045 72.7157 61.8559 72.5927 62.6911C72.4697 63.5263 72.3769 64.3755 72.0545 65.155C72.0173 65.2478 71.9617 65.3475 71.8665 65.3684C71.725 65.3986 71.6229 65.2431 71.5673 65.1109C70.9324 63.621 70.5966 62.0208 70.5789 60.4013C70.5673 59.4733 70.6741 58.5847 71.2564 57.8493C71.8387 57.1139 73.182 56.6568 73.7689 57.209" fill="#263238"/>
<path d="M71.7983 60.9628L70.5084 70.3309C70.4566 70.7093 70.4824 71.0941 70.5842 71.4622C70.686 71.8302 70.8616 72.1736 71.1003 72.4716C71.3391 72.7696 71.636 73.0159 71.9729 73.1955C72.3099 73.3751 72.6799 73.4843 73.0604 73.5163C73.7807 73.579 74.4975 73.3622 75.0624 72.9109C75.6273 72.4596 75.997 71.8083 76.0949 71.0919C76.19 70.3959 76.2712 69.7997 76.2875 69.7277C76.2875 69.7277 78.7026 69.8321 79.1991 67.4959C79.4311 66.3661 79.7443 63.9997 79.9972 61.856C80.1247 60.7467 79.8305 59.6299 79.173 58.7274C78.5154 57.8249 77.5426 57.2026 76.4475 56.984L76.2155 56.9399C73.7447 56.5873 72.0744 58.4897 71.7983 60.9628Z" fill="#FFBE9D"/>
<path d="M76.2854 69.6951C75.1995 69.4958 74.1973 68.9782 73.4062 68.208C73.4062 68.208 73.7914 70.0362 76.1694 70.296L76.2854 69.6951Z" fill="#EB996E"/>
<path d="M78.989 63.2897C78.9726 63.3771 78.9225 63.4545 78.8496 63.5052C78.7767 63.556 78.6868 63.5761 78.5992 63.5612C78.556 63.5564 78.5143 63.5429 78.4765 63.5216C78.4387 63.5002 78.4056 63.4715 78.3791 63.437C78.3527 63.4026 78.3335 63.3631 78.3227 63.3211C78.3119 63.279 78.3096 63.2352 78.3162 63.1923C78.332 63.1046 78.3818 63.0266 78.4548 62.9754C78.5278 62.9241 78.618 62.9037 78.7059 62.9186C78.7492 62.9237 78.7909 62.9374 78.8288 62.959C78.8666 62.9806 78.8997 63.0095 78.9261 63.0442C78.9525 63.0788 78.9717 63.1184 78.9825 63.1606C78.9933 63.2028 78.9955 63.2467 78.989 63.2897Z" fill="#263238"/>
<path d="M79.2525 62.9045C79.2015 62.9416 78.9857 62.7027 78.6261 62.6308C78.2665 62.5588 77.9649 62.6888 77.9301 62.6308C77.8953 62.5728 77.9742 62.538 78.1064 62.4776C78.2827 62.3993 78.4793 62.3789 78.6679 62.4196C78.8552 62.4555 79.026 62.5507 79.1551 62.6911C79.2548 62.8024 79.2757 62.8906 79.2525 62.9045Z" fill="#263238"/>
<path d="M75.434 62.705C75.4181 62.7928 75.3683 62.8707 75.2953 62.922C75.2224 62.9732 75.1321 62.9937 75.0442 62.9788C75.001 62.9734 74.9593 62.9594 74.9215 62.9378C74.8838 62.9162 74.8507 62.8872 74.8241 62.8527C74.7976 62.8182 74.7782 62.7788 74.7669 62.7367C74.7557 62.6946 74.753 62.6507 74.7589 62.6076C74.7763 62.5207 74.8265 62.4438 74.8991 62.3929C74.9716 62.3419 75.0609 62.3208 75.1486 62.3338C75.1919 62.339 75.2338 62.3527 75.2717 62.3743C75.3097 62.3958 75.3429 62.4247 75.3695 62.4593C75.3961 62.4939 75.4155 62.5335 75.4266 62.5757C75.4376 62.6179 75.4402 62.6619 75.434 62.705Z" fill="#263238"/>
<path d="M75.6998 62.2666C75.6487 62.3014 75.433 62.0624 75.0734 61.9905C74.7138 61.9186 74.4122 62.0485 74.3774 61.9905C74.3426 61.9325 74.4214 61.8977 74.5537 61.8374C74.7303 61.7602 74.9265 61.74 75.1151 61.7794C75.3023 61.8173 75.4733 61.9121 75.6046 62.0508C75.7021 62.1761 75.723 62.2504 75.6998 62.2666Z" fill="#263238"/>
<path d="M76.4727 65.1922C76.6741 65.1697 76.8777 65.1736 77.0782 65.2038C77.1733 65.2038 77.2638 65.2038 77.2916 65.1504C77.3211 65.0584 77.3211 64.9594 77.2916 64.8674C77.2499 64.6354 77.2058 64.3756 77.1594 64.1111C76.9807 63.0392 76.8717 62.1669 76.9135 62.16C76.9552 62.153 77.1455 63.016 77.3148 64.0879C77.3566 64.3524 77.3983 64.6029 77.4355 64.8442C77.4718 64.967 77.4627 65.0987 77.4099 65.2154C77.3903 65.2447 77.3641 65.2691 77.3336 65.2868C77.303 65.3045 77.2688 65.315 77.2336 65.3175C77.1805 65.325 77.1266 65.325 77.0735 65.3175C76.8688 65.3009 76.6669 65.2588 76.4727 65.1922Z" fill="#263238"/>
<path d="M75.3635 65.2338C75.4238 65.2338 75.3449 65.6329 75.6233 65.9762C75.9017 66.3196 76.3193 66.3613 76.3193 66.417C76.3193 66.4727 76.2126 66.4727 76.0363 66.4425C75.8065 66.4002 75.5988 66.2787 75.4493 66.0992C75.3077 65.9252 75.2387 65.7033 75.2567 65.4797C75.2753 65.3127 75.3379 65.2245 75.3635 65.2338Z" fill="#263238"/>
<path d="M76.0752 60.8723C76.0218 60.9651 75.6715 60.8468 75.2377 60.812C74.8038 60.7772 74.4419 60.8259 74.4025 60.7262C74.3862 60.6798 74.4651 60.6009 74.6206 60.5336C74.8268 60.4522 75.0493 60.4204 75.2702 60.4408C75.4923 60.4578 75.7071 60.5278 75.8966 60.645C76.0381 60.7378 76.0961 60.8306 76.0752 60.8723Z" fill="#263238"/>
<path d="M79.3274 61.8373C79.2486 61.9069 79.0189 61.7723 78.7196 61.7074C78.4203 61.6424 78.1582 61.654 78.1187 61.5566C78.1002 61.5102 78.1558 61.4359 78.2834 61.3802C78.4496 61.3148 78.632 61.3026 78.8054 61.3454C78.9803 61.3823 79.1389 61.4742 79.2578 61.6076C79.3437 61.712 79.3646 61.8025 79.3274 61.8373Z" fill="#263238"/>
<path d="M71.6434 62.7352C71.6063 62.7097 70.1285 61.9372 69.8593 63.5496C69.5902 65.162 71.2653 65.0993 71.2745 65.0529C71.2838 65.0065 71.6434 62.7352 71.6434 62.7352Z" fill="#FFBE9D"/>
<path d="M70.8836 64.3591C70.8836 64.3591 70.8534 64.3754 70.8024 64.3893C70.7307 64.4064 70.6552 64.3957 70.5913 64.3591C70.4973 64.2763 70.4275 64.1696 70.3891 64.0504C70.3507 63.9312 70.3452 63.8038 70.3732 63.6817C70.3918 63.5424 70.4417 63.4091 70.5193 63.2919C70.5413 63.2438 70.5745 63.2017 70.616 63.169C70.6576 63.1363 70.7064 63.114 70.7583 63.104C70.7923 63.1012 70.8261 63.1103 70.8541 63.1298C70.8821 63.1492 70.9023 63.1779 70.9114 63.2107C70.9253 63.2571 70.9114 63.2896 70.9114 63.2919C70.9114 63.2943 70.9509 63.2711 70.9485 63.2038C70.9461 63.1625 70.9297 63.1232 70.9021 63.0924C70.8833 63.0716 70.8604 63.0549 70.8349 63.0433C70.8094 63.0317 70.7817 63.0256 70.7537 63.0251C70.6856 63.0271 70.6191 63.0465 70.5606 63.0814C70.5022 63.1164 70.4536 63.1657 70.4196 63.2247C70.3274 63.3531 70.2677 63.502 70.2456 63.6585C70.2015 63.9856 70.3175 64.3174 70.5402 64.4218C70.5814 64.4417 70.6267 64.4521 70.6725 64.4521C70.7183 64.4521 70.7635 64.4417 70.8047 64.4218C70.8743 64.3986 70.8882 64.3638 70.8836 64.3591Z" fill="#EB996E"/>
<path d="M80.5778 61.4802C80.0326 61.5096 79.4883 61.4093 78.9894 61.1875C78.4905 60.9657 78.0513 60.6287 77.708 60.2042C77.244 59.6056 76.9354 58.8238 76.2649 58.4619C76.034 58.3483 75.7829 58.2816 75.526 58.2656C75.2692 58.2497 75.0117 58.2849 74.7685 58.3691C74.2845 58.5421 73.8408 58.8121 73.4647 59.1625C73.6781 60.4432 73.1097 61.7145 72.5552 62.8745C72.5075 63.0113 72.4151 63.1282 72.2931 63.2063C72.075 63.3153 71.8152 63.1436 71.6829 62.9372C71.4976 62.591 71.417 62.1985 71.4509 61.8073C71.4559 60.916 71.6372 60.0345 71.9845 59.2136C72.3372 58.3902 72.9236 57.6885 73.6712 57.1952C74.63 56.6097 75.7786 56.4192 76.8751 56.6639C77.9653 56.9175 78.9482 57.5076 79.6846 58.3505C80.0435 58.7241 80.3041 59.1809 80.4432 59.6799" fill="#263238"/>
<path d="M15.6507 99.2612C15.6609 99.2272 15.6749 99.1946 15.6925 99.1638L15.8224 98.8831C15.9824 98.5201 16.112 98.1445 16.2098 97.7602C16.465 96.7626 16.5532 95.2383 16.175 93.4287C15.9716 92.4417 15.7034 91.469 15.3723 90.5171C15.0313 89.4847 14.6369 88.3897 14.3144 87.2042C13.9503 85.9677 13.7743 84.6835 13.7924 83.3947C13.8411 82.0468 14.2402 80.7012 14.6786 79.3626C15.1171 78.0239 15.5695 76.7108 15.7041 75.3931C15.8561 74.1251 15.6019 72.8417 14.9779 71.7275C14.3956 70.6556 13.6671 69.7415 13.1219 68.7927C12.6109 67.914 12.234 66.9639 12.0037 65.9739C11.6751 64.5386 11.6513 63.0503 11.9341 61.6053C12.0381 61.0771 12.1935 60.5604 12.3981 60.0625C12.3926 60.098 12.3841 60.1329 12.3726 60.1669L12.2798 60.4615C11.7339 62.2432 11.6754 64.1387 12.1104 65.9507C12.3429 66.9294 12.7206 67.8678 13.231 68.7347C13.7762 69.6627 14.5093 70.5907 15.1009 71.6648C15.7345 72.801 15.9935 74.1081 15.841 75.4C15.7041 76.741 15.247 78.0611 14.8109 79.3997C14.3747 80.7383 13.978 82.0677 13.9293 83.3924C13.9091 84.6682 14.0803 85.9398 14.4374 87.1647C14.7552 88.3433 15.1473 89.4383 15.4814 90.4754C15.8097 91.4327 16.074 92.4108 16.2725 93.4032C16.6414 95.2267 16.5346 96.7672 16.2725 97.7671C16.1702 98.1528 16.032 98.5279 15.8595 98.8877C15.7992 99.0037 15.7505 99.0942 15.7157 99.1638C15.6972 99.1983 15.6755 99.2309 15.6507 99.2612Z" fill="#263238"/>
<path d="M13.8617 69.7277C13.8617 69.7277 12.7504 66.1781 14.7433 64.0994C14.7587 64.0826 14.7785 64.0705 14.8004 64.0644C14.8223 64.0582 14.8455 64.0583 14.8674 64.0645C14.8893 64.0708 14.909 64.083 14.9243 64.0998C14.9397 64.1166 14.9501 64.1373 14.9544 64.1597C15.0611 64.7466 15.1933 66.533 13.8617 69.7277Z" fill="#EF233C"/>
<path d="M14.5285 65.2825C14.5248 65.5026 14.4991 65.7217 14.452 65.9367C14.38 66.4007 14.2942 66.9181 14.1991 67.5027C14.104 68.0873 14.0228 68.6186 13.9508 69.0687C13.9321 69.2885 13.8925 69.506 13.8325 69.7183C13.8138 69.4978 13.8208 69.2759 13.8534 69.0571C13.8905 68.6511 13.9624 68.0943 14.0622 67.4818C14.162 66.8693 14.2687 66.3218 14.3568 65.9205C14.3894 65.7019 14.447 65.4878 14.5285 65.2825Z" fill="#263238"/>
<path d="M15.166 78.1028C15.166 78.1028 15.8458 74.4441 18.5787 73.544C18.6003 73.5365 18.6235 73.5351 18.6458 73.54C18.668 73.5449 18.6885 73.5559 18.7049 73.5718C18.7213 73.5877 18.7329 73.6079 18.7385 73.63C18.744 73.6521 18.7434 73.6753 18.7365 73.6971C18.5602 74.2585 17.8387 75.9011 15.166 78.1028Z" fill="#EF233C"/>
<path d="M17.8349 74.4836C17.7288 74.6766 17.6036 74.8585 17.4614 75.0265C17.1876 75.3931 16.8628 75.82 16.5055 76.2932L15.545 77.5623C15.4251 77.7469 15.2884 77.9201 15.1367 78.0796C15.223 77.8758 15.3328 77.6827 15.4638 77.5043C15.6958 77.1632 16.009 76.7039 16.3918 76.2097C16.7746 75.7156 17.1203 75.2817 17.3825 74.9662C17.5142 74.7884 17.666 74.6265 17.8349 74.4836Z" fill="#263238"/>
<path d="M14.4283 87.2784C14.4283 87.2784 14.0153 83.5804 16.3678 81.9192C16.3863 81.9059 16.4082 81.8979 16.431 81.8963C16.4538 81.8947 16.4766 81.8994 16.4968 81.91C16.517 81.9206 16.5339 81.9367 16.5455 81.9563C16.5572 81.976 16.5631 81.9985 16.5627 82.0213C16.5557 82.6152 16.3446 84.3947 14.4283 87.2784Z" fill="#EF233C"/>
<path d="M15.9298 83.0398C15.8856 83.2558 15.8188 83.4666 15.7302 83.6685C15.5725 84.0977 15.3892 84.5965 15.1827 85.158L14.6422 86.6474C14.5847 86.8593 14.507 87.0652 14.4102 87.2622C14.4347 87.0424 14.4837 86.8261 14.5563 86.6172C14.67 86.2252 14.8463 85.6892 15.0621 85.1092C15.2778 84.5292 15.489 84.0072 15.649 83.6337C15.7198 83.4258 15.814 83.2265 15.9298 83.0398Z" fill="#263238"/>
<path d="M16.4866 96.512C16.4866 96.512 16.2059 92.8 18.6163 91.227C18.6352 91.214 18.6573 91.2066 18.6801 91.2055C18.703 91.2044 18.7257 91.2096 18.7457 91.2207C18.7657 91.2318 18.7822 91.2483 18.7934 91.2682C18.8045 91.2882 18.8099 91.3109 18.8089 91.3337C18.7787 91.9253 18.505 93.6955 16.4866 96.512Z" fill="#EF233C"/>
<path d="M18.1384 92.3359C18.0827 92.5506 18.005 92.759 17.9064 92.9577C17.7324 93.3799 17.5306 93.8857 17.3055 94.4239L16.7093 95.8948C16.6485 96.0995 16.5693 96.2983 16.4727 96.4887C16.5038 96.2702 16.5607 96.056 16.642 95.8507C16.7673 95.4633 16.9645 94.9367 17.2011 94.3636C17.4378 93.7906 17.6651 93.2755 17.8391 92.909C17.9175 92.7075 18.0179 92.5154 18.1384 92.3359Z" fill="#263238"/>
<path d="M12.2661 66.6096C12.2661 66.6096 8.96938 64.8881 8.90442 62.009C8.90341 61.9862 8.90879 61.9635 8.91996 61.9435C8.93113 61.9236 8.94765 61.9071 8.96765 61.896C8.98766 61.8849 9.01036 61.8797 9.03321 61.8808C9.05605 61.8819 9.07814 61.8893 9.09698 61.9023C9.5865 62.241 10.9437 63.408 12.2661 66.6096Z" fill="#EF233C"/>
<path d="M9.58789 62.9973C9.74199 63.1545 9.87959 63.3271 9.99853 63.5124L10.9265 64.7976L11.8545 66.0806C11.9959 66.249 12.1217 66.43 12.2304 66.6212C12.0559 66.4815 11.9 66.3201 11.7664 66.1409C11.5042 65.83 11.1585 65.3846 10.7966 64.8812C10.4347 64.3777 10.1192 63.9114 9.89877 63.568C9.77371 63.3903 9.66941 63.1988 9.58789 62.9973Z" fill="#263238"/>
<path d="M15.8058 74.24C15.8058 74.24 12.4116 72.7227 12.1704 69.8529C12.1684 69.8304 12.1728 69.8077 12.1829 69.7875C12.193 69.7672 12.2085 69.7502 12.2277 69.7382C12.2469 69.7262 12.269 69.7197 12.2917 69.7195C12.3143 69.7193 12.3365 69.7253 12.356 69.7369C12.8664 70.0362 14.2932 71.1196 15.8058 74.24Z" fill="#EF233C"/>
<path d="M12.916 70.7925C13.0789 70.9405 13.2266 71.1045 13.3568 71.282L14.3637 72.5093L15.3729 73.7319C15.5235 73.8879 15.6587 74.058 15.7766 74.24C15.5997 74.1038 15.4386 73.9481 15.2963 73.776C15.0156 73.479 14.6444 73.0568 14.2523 72.5766C13.8603 72.0963 13.5169 71.6486 13.2779 71.3214C13.1377 71.1594 13.0163 70.9819 12.916 70.7925Z" fill="#263238"/>
<path d="M13.8533 82.7405C13.8533 82.7405 11.5217 79.8405 12.6168 77.1725C12.6251 77.1514 12.6391 77.1331 12.6572 77.1194C12.6753 77.1058 12.6969 77.0974 12.7194 77.0953C12.742 77.0931 12.7647 77.0972 12.7851 77.1072C12.8055 77.1171 12.8227 77.1325 12.8349 77.1516C13.1481 77.6644 13.9206 79.2768 13.8533 82.7405Z" fill="#EF233C"/>
<path d="M12.8459 78.3579C12.9239 78.5635 12.9807 78.7765 13.0152 78.9936C13.1127 79.4413 13.2264 79.9657 13.354 80.5457C13.4816 81.1257 13.586 81.6477 13.695 82.0931C13.7571 82.3046 13.7998 82.5212 13.8226 82.7404C13.7196 82.5437 13.6416 82.3348 13.5906 82.1186C13.4746 81.7265 13.3377 81.1906 13.2078 80.5735C13.0779 79.9564 12.9758 79.4135 12.9108 79.0145C12.8652 78.7986 12.8435 78.5785 12.8459 78.3579Z" fill="#263238"/>
<path d="M16.163 92.749C16.163 92.749 12.7921 91.176 12.6018 88.2992C12.6004 88.2768 12.605 88.2545 12.6153 88.2346C12.6256 88.2147 12.6412 88.198 12.6603 88.1863C12.6794 88.1746 12.7013 88.1684 12.7238 88.1682C12.7462 88.1681 12.7682 88.1741 12.7874 88.1855C13.2932 88.5034 14.7014 89.61 16.163 92.749Z" fill="#EF233C"/>
<path d="M13.3281 89.2573C13.4892 89.4077 13.6346 89.574 13.762 89.7538C14.045 90.1134 14.3791 90.5333 14.748 90.9973L15.7363 92.2385C15.8849 92.4009 16.0184 92.5764 16.1353 92.7628C15.9627 92.6272 15.8069 92.4714 15.6713 92.2988C15.3976 91.9996 15.0333 91.5704 14.6505 91.0832C14.2677 90.596 13.9197 90.1459 13.6877 89.8141C13.5483 89.6419 13.4277 89.4553 13.3281 89.2573Z" fill="#263238"/>
<path d="M22.8751 78.1213C22.8784 78.1491 22.8784 78.1771 22.8751 78.2049C22.8751 78.2698 22.8751 78.3464 22.8751 78.4369C22.8751 78.6689 22.8519 78.9635 22.8357 79.3393C22.7916 80.1328 22.7313 81.2371 22.6594 82.5618C22.4274 83.9074 21.7314 85.3992 20.8034 86.8469C20.1283 87.9141 19.4114 88.8861 18.8105 89.7886C18.255 90.5765 17.755 91.4021 17.3141 92.2594C17.0258 92.8411 16.7928 93.4485 16.6181 94.0737C16.5578 94.2941 16.5137 94.4681 16.4882 94.5864C16.4779 94.6474 16.4616 94.7072 16.4395 94.765C16.4402 94.7034 16.4472 94.642 16.4603 94.5817C16.4766 94.4611 16.5137 94.2848 16.5647 94.0597C16.7222 93.4201 16.9445 92.7982 17.2283 92.2037C17.6595 91.336 18.1534 90.5009 18.7061 89.7051C19.3116 88.7957 20.0169 87.8236 20.6897 86.7633C21.6177 85.3203 22.2859 83.8517 22.5457 82.527C22.6385 81.2069 22.7151 80.1026 22.7777 79.3092C22.8079 78.9333 22.8334 78.6317 22.8496 78.409C22.8496 78.3162 22.8682 78.2373 22.8751 78.177C22.8731 78.1585 22.8731 78.1398 22.8751 78.1213Z" fill="#263238"/>
<path d="M20.8809 86.5824C20.8809 86.5824 22.3077 83.1464 20.512 80.896C20.4981 80.878 20.4794 80.8642 20.4581 80.8561C20.4368 80.848 20.4136 80.8461 20.3913 80.8504C20.3689 80.8547 20.3481 80.8652 20.3314 80.8806C20.3146 80.8961 20.3024 80.9159 20.2963 80.9378C20.1269 81.5132 19.8323 83.288 20.8809 86.5824Z" fill="#EF233C"/>
<path d="M20.6087 82.0955C20.6703 82.3072 20.7084 82.525 20.7224 82.7451C20.7735 83.1487 20.8291 83.7079 20.8732 84.3273C20.9173 84.9467 20.9382 85.5082 20.9382 85.9142C20.9525 86.1346 20.9392 86.3559 20.8987 86.5731C20.8584 86.3574 20.839 86.1383 20.8407 85.9188C20.8106 85.4548 20.7735 84.9282 20.734 84.3366C20.6946 83.745 20.6551 83.2091 20.625 82.7543C20.5979 82.5358 20.5925 82.3151 20.6087 82.0955Z" fill="#263238"/>
<g opacity="0.3">
<path d="M20.8809 86.5824C20.8809 86.5824 22.3077 83.1464 20.512 80.896C20.4981 80.878 20.4794 80.8642 20.4581 80.8561C20.4368 80.848 20.4136 80.8461 20.3913 80.8504C20.3689 80.8547 20.3481 80.8652 20.3314 80.8806C20.3146 80.8961 20.3024 80.9159 20.2963 80.9378C20.1269 81.5132 19.8323 83.288 20.8809 86.5824Z" fill="black"/>
</g>
<path d="M16.4489 94.8601C16.4489 94.8601 17.5926 91.3221 15.6206 89.2248C15.6053 89.2081 15.5857 89.1959 15.564 89.1896C15.5422 89.1834 15.5192 89.1832 15.4973 89.1892C15.4755 89.1952 15.4557 89.2071 15.4402 89.2236C15.4247 89.2401 15.4141 89.2606 15.4095 89.2828C15.2958 89.8674 15.1474 91.6515 16.4489 94.8601Z" fill="#EF233C"/>
<path d="M15.8242 90.4082C15.9031 90.6148 15.9583 90.8296 15.9889 91.0485C16.0725 91.4452 16.1745 91.9974 16.2697 92.6122C16.3648 93.227 16.4297 93.7838 16.4622 94.1898C16.4937 94.4088 16.4984 94.6309 16.4761 94.851C16.4196 94.6382 16.3824 94.4208 16.3648 94.2014C16.2975 93.7374 16.2186 93.22 16.1328 92.6331C16.0469 92.0461 15.9634 91.5172 15.9008 91.0648C15.8537 90.849 15.8281 90.629 15.8242 90.4082Z" fill="#263238"/>
<g opacity="0.3">
<path d="M16.4489 94.8601C16.4489 94.8601 17.5926 91.3221 15.6206 89.2248C15.6053 89.2081 15.5857 89.1959 15.564 89.1896C15.5422 89.1834 15.5192 89.1832 15.4973 89.1892C15.4755 89.1952 15.4557 89.2071 15.4402 89.2236C15.4247 89.2401 15.4141 89.2606 15.4095 89.2828C15.2958 89.8674 15.1474 91.6515 16.4489 94.8601Z" fill="black"/>
</g>
<path d="M22.6855 82.3856C22.6855 82.3856 25.734 80.2512 25.4255 77.3884C25.4235 77.3657 25.4152 77.344 25.4016 77.3257C25.388 77.3074 25.3696 77.2932 25.3484 77.2848C25.3272 77.2764 25.3041 77.274 25.2817 77.278C25.2593 77.2819 25.2383 77.292 25.2213 77.3072C24.7805 77.7201 23.5834 79.0402 22.6855 82.3856Z" fill="#EF233C"/>
<g opacity="0.3">
<path d="M22.6855 82.3856C22.6855 82.3856 25.734 80.2512 25.4255 77.3884C25.4235 77.3657 25.4152 77.344 25.4016 77.3257C25.388 77.3074 25.3696 77.2932 25.3484 77.2848C25.3272 77.2764 25.3041 77.274 25.2817 77.278C25.2593 77.2819 25.2383 77.292 25.2213 77.3072C24.7805 77.7201 23.5834 79.0402 22.6855 82.3856Z" fill="black"/>
</g>
<path d="M24.8748 78.4578C24.8132 78.6691 24.7284 78.873 24.6219 79.0656C24.4479 79.4345 24.195 79.9356 23.9004 80.4831C23.6057 81.0306 23.3227 81.5155 23.1023 81.8589C22.9969 82.0529 22.8667 82.2322 22.7148 82.3925C22.7985 82.1889 22.9002 81.9933 23.0188 81.8078L23.7774 80.4158L24.5337 79.0238C24.6276 78.8239 24.7419 78.6342 24.8748 78.4578Z" fill="#263238"/>
<path d="M17.6758 91.3523C17.6758 91.3523 21.3437 90.7792 22.3367 88.0741C22.3449 88.0528 22.347 88.0296 22.3427 88.0071C22.3385 87.9847 22.3281 87.9638 22.3127 87.947C22.2972 87.9301 22.2774 87.9179 22.2554 87.9116C22.2334 87.9054 22.2102 87.9054 22.1882 87.9117C21.6151 88.0741 19.9517 88.7446 17.6758 91.3523Z" fill="#EF233C"/>
<g opacity="0.3">
<path d="M17.6758 91.3523C17.6758 91.3523 21.3437 90.7792 22.3367 88.0741C22.3449 88.0528 22.347 88.0296 22.3427 88.0071C22.3385 87.9847 22.3281 87.9638 22.3127 87.947C22.2972 87.9301 22.2774 87.9179 22.2554 87.9116C22.2334 87.9054 22.2102 87.9054 22.1882 87.9117C21.6151 88.0741 19.9517 88.7446 17.6758 91.3523Z" fill="black"/>
</g>
<path d="M21.373 88.791C21.2248 88.9526 21.0599 89.098 20.8812 89.2249C20.5633 89.4801 20.1156 89.8188 19.6098 90.1784C19.104 90.538 18.6354 90.8512 18.2897 91.0646C18.108 91.1906 17.9117 91.2943 17.7051 91.3732C17.8691 91.2267 18.0462 91.0955 18.234 90.9811L19.5309 90.067L20.8232 89.139C20.9939 89.0043 21.1782 88.8876 21.373 88.791Z" fill="#263238"/>
<path d="M14.1715 98.1174L13.0996 105.333H19.7812L18.9135 98.1174H14.1715Z" fill="#455A64"/>
<path d="M19.1823 100.352C19.1823 100.391 17.9759 100.421 16.4865 100.421C14.997 100.421 13.793 100.391 13.793 100.352C14.6891 100.283 15.588 100.26 16.4865 100.282C17.3857 100.26 18.2855 100.283 19.1823 100.352Z" fill="#263238"/>
<path d="M19.3141 100.92C19.3141 100.957 18.0683 100.99 16.5301 100.99C14.9919 100.99 13.7461 100.957 13.7461 100.92C13.7461 100.883 14.9919 100.85 16.5301 100.85C18.0683 100.85 19.3141 100.887 19.3141 100.92Z" fill="#263238"/>
</svg>
