<svg width="116" height="116" viewBox="0 0 116 116" fill="none" xmlns="http://www.w3.org/2000/svg">
<path d="M116 88.7168H0V88.7748H116V88.7168Z" fill="#EBEBEB"/>
<path d="M104.377 92.4497H96.6934V92.5077H104.377V92.4497Z" fill="#EBEBEB"/>
<path d="M76.8423 93.0806H74.8262V93.1386H76.8423V93.0806Z" fill="#EBEBEB"/>
<path d="M96.4618 90.2969H92.0098V90.3549H96.4618V90.2969Z" fill="#EBEBEB"/>
<path d="M22.19 90.6865H12.1699V90.7445H22.19V90.6865Z" fill="#EBEBEB"/>
<path d="M25.7264 90.6865H24.2578V90.7445H25.7264V90.6865Z" fill="#EBEBEB"/>
<path d="M52.2357 91.6655H30.502V91.7235H52.2357V91.6655Z" fill="#EBEBEB"/>
<path d="M54.9845 78.3696H10.1876C9.8367 78.369 9.50035 78.2292 9.25242 77.9808C9.00448 77.7324 8.86523 77.3958 8.86523 77.0449V14.0731C8.86829 13.7242 9.00889 13.3906 9.25649 13.1447C9.50409 12.8989 9.8387 12.7606 10.1876 12.76H54.9845C55.3359 12.76 55.6728 12.8996 55.9212 13.148C56.1697 13.3964 56.3092 13.7334 56.3092 14.0847V77.0449C56.3092 77.3962 56.1697 77.7332 55.9212 77.9816C55.6728 78.23 55.3359 78.3696 54.9845 78.3696ZM10.1876 12.8064C9.85208 12.807 9.53048 12.9408 9.29343 13.1782C9.05637 13.4157 8.92323 13.7376 8.92323 14.0731V77.0449C8.92323 77.3804 9.05637 77.7023 9.29343 77.9398C9.53048 78.1773 9.85208 78.311 10.1876 78.3116H54.9845C55.3203 78.311 55.6421 78.1773 55.8795 77.9399C56.117 77.7025 56.2506 77.3807 56.2512 77.0449V14.0731C56.2506 13.7374 56.117 13.4155 55.8795 13.1781C55.6421 12.9407 55.3203 12.807 54.9845 12.8064H10.1876Z" fill="#EBEBEB"/>
<path d="M105.169 78.3696H60.3696C60.0185 78.369 59.6819 78.2292 59.4336 77.9809C59.1853 77.7326 59.0455 77.396 59.0449 77.0449V14.0731C59.0486 13.724 59.1897 13.3904 59.4377 13.1446C59.6856 12.8988 60.0205 12.7606 60.3696 12.76H105.169C105.517 12.7612 105.851 12.8997 106.098 13.1455C106.346 13.3913 106.486 13.7246 106.489 14.0731V77.0449C106.489 77.3954 106.35 77.7317 106.103 77.98C105.855 78.2283 105.519 78.3684 105.169 78.3696ZM60.3696 12.8064C60.0339 12.807 59.712 12.9407 59.4746 13.1781C59.2372 13.4155 59.1035 13.7374 59.1029 14.0731V77.0449C59.1035 77.3807 59.2372 77.7025 59.4746 77.9399C59.712 78.1773 60.0339 78.311 60.3696 78.3116H105.169C105.505 78.311 105.826 78.1773 106.064 77.9399C106.301 77.7025 106.435 77.3807 106.436 77.0449V14.0731C106.435 13.7374 106.301 13.4155 106.064 13.1781C105.826 12.9407 105.505 12.807 105.169 12.8064H60.3696Z" fill="#EBEBEB"/>
<path d="M41.5604 56.3042L95.3125 56.3042V20.56L41.5604 20.56L41.5604 56.3042Z" fill="#E6E6E6"/>
<path d="M40.7284 56.3042L94.4805 56.3042V20.56L40.7284 20.56L40.7284 56.3042Z" fill="#F5F5F5"/>
<path d="M92.9863 54.6244V22.2349L42.2201 22.2349V54.6244H92.9863Z" fill="white"/>
<path d="M42.8496 54.6268V22.2373H42.2209V54.6268H42.8496Z" fill="#E6E6E6"/>
<path d="M41.3454 46.8081L93.8633 46.8081V44.5554L41.3454 44.5554V46.8081Z" fill="#F5F5F5"/>
<g opacity="0.4">
<path d="M44.1324 18.7944H39.0586V49.0333H44.1324V18.7944Z" fill="#E6E6E6"/>
<path d="M44.1355 46.6045H46.6504V18.7947H44.1355V46.6045Z" fill="#F5F5F5"/>
<path d="M51.7242 18.7944H46.6504V49.0333H51.7242V18.7944Z" fill="#E6E6E6"/>
<path d="M51.7254 46.6045H54.2402V18.7947H51.7254V46.6045Z" fill="#F5F5F5"/>
<path d="M59.3141 18.7944H54.2402V49.0333H59.3141V18.7944Z" fill="#E6E6E6"/>
<path d="M59.3171 46.6045H61.832V18.7947H59.3171V46.6045Z" fill="#F5F5F5"/>
<path d="M66.9059 18.7944H61.832V49.0333H66.9059V18.7944Z" fill="#E6E6E6"/>
<path d="M66.907 46.6045H69.4219V18.7947H66.907V46.6045Z" fill="#F5F5F5"/>
<path d="M74.4957 18.7944H69.4219V49.0333H74.4957V18.7944Z" fill="#E6E6E6"/>
<path d="M74.4968 46.6045H77.0117V18.7947H74.4968V46.6045Z" fill="#F5F5F5"/>
<path d="M82.0856 18.7944H77.0117V49.0333H82.0856V18.7944Z" fill="#E6E6E6"/>
<path d="M82.0867 46.6045H84.6016V18.7947H82.0867V46.6045Z" fill="#F5F5F5"/>
<path d="M89.6754 18.7944H84.6016V49.0333H89.6754V18.7944Z" fill="#E6E6E6"/>
<path d="M89.6785 46.6045H92.1934V18.7947H89.6785V46.6045Z" fill="#F5F5F5"/>
<path d="M97.2672 18.7944H92.1934V49.0333H97.2672V18.7944Z" fill="#E6E6E6"/>
</g>
<path d="M19.2081 88.7168H31.1074L31.1074 64.264H19.2081L19.2081 88.7168Z" fill="#EBEBEB"/>
<path d="M21.4667 88.7169H19.207V83.7358H23.8378L21.4667 88.7169Z" fill="#F5F5F5"/>
<path d="M87.1007 88.7168H99V64.264H87.1007V88.7168Z" fill="#EBEBEB"/>
<path d="M19.2078 85.6611L89.0723 85.6611V64.2638H19.2078V85.6611Z" fill="#F5F5F5"/>
<path d="M86.7485 79.6248H66.0379C65.9874 79.6248 65.9391 79.6047 65.9034 79.569C65.8677 79.5334 65.8477 79.485 65.8477 79.4345V65.888C65.8477 65.8376 65.8677 65.7892 65.9034 65.7535C65.9391 65.7178 65.9874 65.6978 66.0379 65.6978H69.8613C69.9023 65.6969 69.9423 65.71 69.9749 65.7349C70.5433 66.1504 71.1736 66.4738 71.8425 66.6931C72.6492 66.9602 73.4938 67.0949 74.3435 67.0921H78.4406C80.0079 67.1196 81.5431 66.6467 82.8231 65.7419C82.855 65.7173 82.8942 65.7042 82.9345 65.7048H86.7601C86.8106 65.7048 86.859 65.7248 86.8947 65.7605C86.9303 65.7962 86.9504 65.8445 86.9504 65.895V79.4345C86.9504 79.4605 86.9452 79.4862 86.9349 79.5101C86.9246 79.534 86.9095 79.5555 86.8906 79.5733C86.8717 79.5911 86.8493 79.6049 86.8249 79.6137C86.8005 79.6226 86.7745 79.6263 86.7485 79.6248ZM66.2281 79.2443H86.5583V66.0852H82.9855C81.6536 67.0135 80.0639 67.5004 78.4406 67.4772H74.3435C73.4527 67.4801 72.5673 67.3383 71.7219 67.0573C71.0357 66.8321 70.388 66.5036 69.8009 66.0829H66.2281V79.2443Z" fill="#E6E6E6"/>
<path d="M64.497 79.6248H43.784C43.7335 79.6248 43.6851 79.6047 43.6495 79.569C43.6138 79.5334 43.5938 79.485 43.5938 79.4345V65.888C43.5937 65.8376 43.6138 65.7892 43.6495 65.7535C43.6851 65.7178 43.7335 65.6978 43.784 65.6978H47.4009C47.4419 65.6969 47.482 65.71 47.5146 65.7349C48.0788 66.1502 48.7052 66.4735 49.3706 66.6931C50.1772 66.9602 51.0218 67.0949 51.8715 67.0921H55.9686C57.5306 67.1151 59.0592 66.6397 60.3326 65.7349C60.3655 65.7106 60.4053 65.6976 60.4462 65.6978H64.497C64.522 65.6975 64.5469 65.7022 64.5701 65.7116C64.5933 65.7211 64.6144 65.7351 64.6322 65.7528C64.6499 65.7705 64.6639 65.7916 64.6733 65.8149C64.6828 65.8381 64.6875 65.863 64.6872 65.888V79.4276C64.6881 79.4531 64.6839 79.4786 64.6748 79.5025C64.6656 79.5264 64.6518 79.5482 64.634 79.5666C64.6162 79.585 64.5949 79.5996 64.5714 79.6096C64.5479 79.6196 64.5225 79.6248 64.497 79.6248ZM43.9766 79.2443H64.3067V66.0852H60.5205C59.1901 67.0131 57.6021 67.5 55.9802 67.4772H51.8831C50.9923 67.4801 50.1069 67.3383 49.2615 67.0573C48.574 66.8336 47.9253 66.5049 47.3382 66.0829H43.9742L43.9766 79.2443Z" fill="#E6E6E6"/>
<path d="M42.2407 79.6248H21.5301C21.4796 79.6248 21.4313 79.6047 21.3956 79.569C21.3599 79.5334 21.3399 79.485 21.3399 79.4345V65.888C21.3395 65.863 21.3443 65.8381 21.3537 65.8149C21.3632 65.7916 21.3772 65.7705 21.3949 65.7528C21.4126 65.7351 21.4337 65.7211 21.4569 65.7116C21.4802 65.7022 21.505 65.6975 21.5301 65.6978H25.147C25.1872 65.6973 25.2265 65.7104 25.2583 65.7349C25.8231 66.1493 26.4494 66.4726 27.1143 66.6931C27.9218 66.9602 28.7671 67.0949 29.6176 67.0921H33.7147C35.2781 67.1148 36.808 66.6395 38.0833 65.7349C38.1159 65.71 38.156 65.6969 38.197 65.6978H42.2291C42.2796 65.6978 42.328 65.7178 42.3637 65.7535C42.3993 65.7892 42.4194 65.8376 42.4194 65.888V79.4276C42.4213 79.4773 42.4037 79.5257 42.3703 79.5626C42.3369 79.5994 42.2904 79.6218 42.2407 79.6248ZM21.7203 79.2443H42.0505V66.0852H38.2805C36.9493 67.0132 35.3605 67.5 33.7379 67.4772H29.6292C28.7384 67.4805 27.8529 67.3386 27.0076 67.0573C26.3201 66.8336 25.6714 66.5049 25.0843 66.0829H21.7203V79.2443Z" fill="#E6E6E6"/>
<path d="M86.8121 88.7169H89.0718V83.7358H84.4434L86.8121 88.7169Z" fill="#F5F5F5"/>
<path d="M33.3937 60.1669H31.5168C31.5308 58.8677 31.5168 55.5687 31.3846 48.0125C31.1526 34.3245 30.7188 33.48 30.7188 33.48L32.9436 40.2405C33.4719 41.8304 33.7795 43.4853 33.8577 45.1589C34.1036 50.4299 33.1756 54.6384 33.3937 60.1669Z" fill="#E6E6E6"/>
<path d="M34.8214 38.2012C37.3247 34.4127 42.322 32.436 47.4306 30.5754C49.4351 29.8446 43.8068 38.9088 39.7143 43.0199C36.5359 46.2122 33.4503 46.1403 32.5385 49.2839C32.3622 45.6322 32.6638 41.4655 34.8214 38.2012Z" fill="#E6E6E6"/>
<path d="M31.9534 35.7698C29.9906 31.3386 25.0328 25.592 19.4602 21.5436C17.2724 19.9544 22.671 33.6076 26.4782 39.1895C29.4431 43.5418 32.2086 46.1912 32.6401 49.2954C34.51 45.4117 33.9138 40.1987 31.9534 35.7698Z" fill="#E6E6E6"/>
<path d="M32.1381 64.2639C33.1991 64.2639 34.2199 63.8579 34.9912 63.1293C35.7625 62.4008 36.2259 61.4047 36.2863 60.3454L36.6552 56.5894H27.6211L27.9877 60.3454C28.0487 61.4049 28.5125 62.401 29.2842 63.1295C30.0558 63.858 31.0769 64.2639 32.1381 64.2639Z" fill="#F0F0F0"/>
<path d="M27.0365 56.6104H37.2398L37.5321 55.2764H26.7441L27.0365 56.6104Z" fill="#F0F0F0"/>
<path d="M27.5399 58.898H36.7364L37.0008 57.564H27.2754L27.5399 58.898Z" fill="#F0F0F0"/>
<path d="M58.0001 99.1939C82.8432 99.1939 102.983 98.0181 102.983 96.5676C102.983 95.1172 82.8432 93.9414 58.0001 93.9414C33.1569 93.9414 13.0176 95.1172 13.0176 96.5676C13.0176 98.0181 33.1569 99.1939 58.0001 99.1939Z" fill="#F5F5F5"/>
<path d="M94.0249 73.8525H21.9727V82.0097H94.0249V73.8525Z" fill="#EF233C"/>
<path opacity="0.3" d="M94.0281 73.8525H78.5723V82.0097H94.0281V73.8525Z" fill="black"/>
<path d="M29.9279 82.0098H21.9727V96.5678H29.9279V82.0098Z" fill="#EF233C"/>
<path opacity="0.3" d="M21.9746 82.0098V82.8241L27.6076 84.5246V96.5678H29.9276V82.0098H21.9746Z" fill="black"/>
<path d="M94.0275 82.0098H86.0723V96.5678H94.0275V82.0098Z" fill="#EF233C"/>
<path opacity="0.2" d="M94.0275 82.0098H86.0723V96.5678H94.0275V82.0098Z" fill="black"/>
<path opacity="0.3" d="M86.0723 82.0098V82.8241L91.7075 84.5246V96.5678H94.0275V82.0098H86.0723Z" fill="black"/>
<path d="M78.5705 82.0098H70.6152V96.5678H78.5705V82.0098Z" fill="#EF233C"/>
<path opacity="0.3" d="M70.6152 82.0098V82.8241L76.2505 84.5246V96.5678H78.5705V82.0098H70.6152Z" fill="black"/>
<path d="M45.383 82.0098H37.4277V96.5678H45.383V82.0098Z" fill="#EF233C"/>
<path opacity="0.2" d="M45.383 82.0098H37.4277V96.5678H45.383V82.0098Z" fill="black"/>
<path opacity="0.3" d="M37.4277 82.0098V82.8241L43.063 84.5246V96.5678H45.383V82.0098H37.4277Z" fill="black"/>
<path d="M84.0955 72.2495H40.0434C39.9061 72.2505 39.7701 72.2231 39.6439 72.1689C39.5178 72.1147 39.4043 72.0349 39.3105 71.9346C39.2168 71.8343 39.1449 71.7157 39.0993 71.5862C39.0537 71.4567 39.0355 71.3192 39.0458 71.1823L40.86 42.3934C40.883 42.1065 41.0118 41.8383 41.2215 41.6411C41.4311 41.4438 41.7067 41.3316 41.9945 41.3262H86.0443C86.1816 41.3252 86.3176 41.3526 86.4437 41.4068C86.5698 41.461 86.6834 41.5408 86.7771 41.6411C86.8709 41.7413 86.9428 41.86 86.9884 41.9895C87.0339 42.119 87.0522 42.2565 87.0419 42.3934L85.2277 71.1823C85.2047 71.4688 85.0762 71.7367 84.867 71.9338C84.6579 72.131 84.3829 72.2435 84.0955 72.2495Z" fill="#263238"/>
<path opacity="0.6" d="M84.0955 72.2495H40.0434C39.9061 72.2505 39.7701 72.2231 39.6439 72.1689C39.5178 72.1147 39.4043 72.0349 39.3105 71.9346C39.2168 71.8343 39.1449 71.7157 39.0993 71.5862C39.0537 71.4567 39.0355 71.3192 39.0458 71.1823L40.86 42.3934C40.883 42.1065 41.0118 41.8383 41.2215 41.6411C41.4311 41.4438 41.7067 41.3316 41.9945 41.3262H86.0443C86.1816 41.3252 86.3176 41.3526 86.4437 41.4068C86.5698 41.461 86.6834 41.5408 86.7771 41.6411C86.8709 41.7413 86.9428 41.86 86.9884 41.9895C87.0339 42.119 87.0522 42.2565 87.0419 42.3934L85.2277 71.1823C85.2047 71.4688 85.0762 71.7367 84.867 71.9338C84.6579 72.131 84.3829 72.2435 84.0955 72.2495Z" fill="black"/>
<path d="M83.7674 72.2495H39.7175C39.5801 72.2509 39.4438 72.2236 39.3174 72.1696C39.191 72.1155 39.0772 72.0358 38.9832 71.9355C38.8892 71.8352 38.8171 71.7164 38.7714 71.5868C38.7256 71.4571 38.7073 71.3194 38.7176 71.1823L40.5319 42.3934C40.5548 42.1065 40.6837 41.8383 40.8934 41.6411C41.103 41.4439 41.3785 41.3316 41.6663 41.3262H85.7162C85.8536 41.3248 85.9897 41.3521 86.116 41.4061C86.2423 41.4602 86.356 41.54 86.4498 41.6403C86.5436 41.7407 86.6155 41.8595 86.661 41.9891C86.7064 42.1188 86.7244 42.2564 86.7138 42.3934L84.8995 71.1823C84.8766 71.4689 84.7481 71.7367 84.5389 71.9339C84.3297 72.131 84.0548 72.2435 83.7674 72.2495Z" fill="#263238"/>
<path d="M83.7111 72.6163H31.2953C31.054 72.6141 30.817 72.6803 30.6117 72.8071C30.4065 72.934 30.2413 73.1163 30.1353 73.3331C30.1085 73.3894 30.0964 73.4517 30.1003 73.5139C30.1042 73.5762 30.124 73.6364 30.1577 73.6889C30.1913 73.7414 30.2379 73.7844 30.2928 73.8139C30.3478 73.8434 30.4093 73.8584 30.4717 73.8575H84.5231C84.5854 73.8584 84.647 73.8434 84.702 73.8139C84.7569 73.7844 84.8035 73.7414 84.8371 73.6889C84.8708 73.6364 84.8906 73.5762 84.8945 73.5139C84.8984 73.4517 84.8863 73.3894 84.8595 73.3331C84.7548 73.1178 84.5915 72.9363 84.3884 72.8095C84.1853 72.6827 83.9505 72.6157 83.7111 72.6163Z" fill="#263238"/>
<path opacity="0.6" d="M83.7105 72.6162H76.2564C76.0168 72.6154 75.782 72.6823 75.5788 72.8091C75.3756 72.9359 75.2124 73.1176 75.108 73.3331C75.0812 73.3892 75.0692 73.4512 75.073 73.5133C75.0768 73.5753 75.0963 73.6354 75.1297 73.6878C75.1631 73.7403 75.2093 73.7834 75.2639 73.813C75.3186 73.8427 75.3799 73.858 75.442 73.8574H84.5225C84.5849 73.8584 84.6465 73.8434 84.7014 73.8139C84.7564 73.7844 84.8029 73.7413 84.8366 73.6888C84.8703 73.6363 84.89 73.5761 84.8939 73.5139C84.8978 73.4516 84.8858 73.3894 84.8589 73.3331C84.7542 73.1177 84.591 72.9362 84.3878 72.8094C84.1847 72.6826 83.95 72.6157 83.7105 72.6162Z" fill="black"/>
<path d="M79.0887 73.5208H77.1631C77.1186 73.5202 77.0761 73.5021 77.0449 73.4704C77.0136 73.4387 76.9961 73.396 76.9961 73.3515C76.9961 73.307 77.0136 73.2642 77.0449 73.2325C77.0761 73.2009 77.1186 73.1827 77.1631 73.1821H79.0887C79.111 73.1821 79.133 73.1865 79.1535 73.195C79.1741 73.2035 79.1928 73.216 79.2085 73.2317C79.2242 73.2475 79.2367 73.2661 79.2452 73.2867C79.2537 73.3072 79.2581 73.3293 79.2581 73.3515C79.2581 73.3737 79.2537 73.3958 79.2452 73.4163C79.2367 73.4369 79.2242 73.4555 79.2085 73.4712C79.1928 73.487 79.1741 73.4994 79.1535 73.508C79.133 73.5165 79.111 73.5208 79.0887 73.5208Z" fill="#EF233C"/>
<path opacity="0.7" d="M54.329 73.5208H52.4057C52.3608 73.5208 52.3177 73.503 52.2859 73.4712C52.2542 73.4395 52.2363 73.3964 52.2363 73.3515C52.2363 73.3293 52.2407 73.3072 52.2492 73.2867C52.2577 73.2661 52.2702 73.2475 52.2859 73.2317C52.3017 73.216 52.3203 73.2035 52.3409 73.195C52.3614 73.1865 52.3835 73.1821 52.4057 73.1821H54.329C54.3512 73.1821 54.3732 73.1865 54.3938 73.195C54.4143 73.2035 54.433 73.216 54.4487 73.2317C54.4645 73.2475 54.4769 73.2661 54.4854 73.2867C54.494 73.3072 54.4983 73.3293 54.4983 73.3515C54.4983 73.3964 54.4805 73.4395 54.4487 73.4712C54.417 73.503 54.3739 73.5208 54.329 73.5208Z" fill="white"/>
<path d="M81.0826 73.1821H79.8228C79.7459 73.1821 79.6836 73.2445 79.6836 73.3213V73.3816C79.6836 73.4585 79.7459 73.5208 79.8228 73.5208H81.0826C81.1594 73.5208 81.2218 73.4585 81.2218 73.3816V73.3213C81.2218 73.2445 81.1594 73.1821 81.0826 73.1821Z" fill="#EF233C"/>
<path d="M39.7098 70.1432L41.3941 43.433C41.4028 43.3216 41.4529 43.2174 41.5344 43.141C41.616 43.0646 41.7232 43.0215 41.8349 43.0201H85.3326C85.3859 43.0193 85.4388 43.0296 85.4879 43.0504C85.537 43.0712 85.5812 43.102 85.6176 43.1409C85.6541 43.1798 85.6821 43.2258 85.6997 43.2761C85.7173 43.3265 85.7243 43.3799 85.7201 43.433L84.0381 70.1432C84.0288 70.2548 83.9783 70.359 83.8964 70.4354C83.8144 70.5117 83.707 70.5548 83.5949 70.5561H40.0996C40.0463 70.5566 39.9935 70.546 39.9445 70.5251C39.8954 70.5042 39.8512 70.4734 39.8147 70.4346C39.7781 70.3959 39.7499 70.35 39.7318 70.2999C39.7138 70.2497 39.7063 70.1964 39.7098 70.1432Z" fill="white"/>
<path opacity="0.1" d="M64.4543 42.1963L49.9659 69.7347H39.2777C39.2241 69.7355 39.1709 69.7251 39.1215 69.7042C39.0722 69.6833 39.0277 69.6523 38.991 69.6132C38.9543 69.5741 38.9262 69.5278 38.9085 69.4772C38.8907 69.4266 38.8837 69.3729 38.8879 69.3194L40.5722 42.6116C40.5809 42.4999 40.6308 42.3955 40.7123 42.3187C40.7938 42.2419 40.9011 42.1983 41.013 42.1963H64.4543Z" fill="#EF233C"/>
<path opacity="0.1" d="M77.1437 42.1963L62.6553 69.7347H59.2773L73.7657 42.1963H77.1437Z" fill="#EF233C"/>
<path opacity="0.1" d="M84.8999 42.6117L83.2155 69.3195C83.2074 69.4314 83.1576 69.5361 83.076 69.613C82.9944 69.6899 82.8869 69.7334 82.7747 69.7348H66.3027L80.7911 42.1964H84.5031C84.5572 42.195 84.611 42.2049 84.661 42.2255C84.7111 42.2461 84.7562 42.277 84.7936 42.3161C84.8309 42.3552 84.8597 42.4017 84.878 42.4526C84.8963 42.5036 84.9038 42.5577 84.8999 42.6117Z" fill="#EF233C"/>
<path opacity="0.4" d="M63.9473 42.2239C63.9409 42.308 63.9034 42.3868 63.842 42.4447C63.7807 42.5026 63.6999 42.5356 63.6155 42.5371C63.5752 42.5375 63.5352 42.5296 63.4982 42.5137C63.4611 42.4978 63.4278 42.4744 63.4003 42.445C63.3727 42.4155 63.3517 42.3806 63.3384 42.3425C63.3252 42.3045 63.32 42.264 63.3232 42.2239C63.329 42.1395 63.3664 42.0605 63.4279 42.0024C63.4893 41.9444 63.5704 41.9116 63.655 41.9107C63.6953 41.9102 63.7352 41.9182 63.7723 41.934C63.8094 41.9499 63.8427 41.9733 63.8702 42.0028C63.8977 42.0322 63.9188 42.0671 63.932 42.1052C63.9453 42.1433 63.9505 42.1837 63.9473 42.2239Z" fill="white"/>
<path d="M56.7591 35.8186C55.49 37.2709 54.7569 41.723 55.6965 43.913C56.6361 46.1031 45.7344 48.2955 54.7291 51.8544C63.7237 55.4133 70.918 51.286 68.315 47.5995C65.7119 43.913 68.5957 37.7743 65.582 36.2315C62.8583 34.8256 59.3018 32.907 56.7591 35.8186Z" fill="#263238"/>
<path d="M54.0706 53.7451C53.595 55.3691 53.0893 56.9931 52.565 58.6171C52.0406 60.2411 51.4954 61.8466 50.9178 63.459L50.6974 64.0668L50.586 64.3707L50.5512 64.4612L50.4955 64.5981C50.4607 64.6863 50.4074 64.7814 50.361 64.8719C50.1342 65.2861 49.7958 65.6285 49.3842 65.8602C49.0106 66.0631 48.5936 66.1729 48.1686 66.1803C47.5724 66.1832 46.9817 66.0673 46.4309 65.8393C45.98 65.6563 45.5434 65.44 45.1247 65.192C43.6036 64.2567 42.2094 63.1291 40.9766 61.8373L41.9765 60.6587C42.3129 60.8745 42.6725 61.1042 43.0205 61.3199C43.3685 61.5357 43.7327 61.7445 44.0854 61.951C44.7763 62.3554 45.4897 62.7202 46.2221 63.0437C46.5558 63.1909 46.9001 63.3126 47.2522 63.4079C47.4956 63.4887 47.753 63.5187 48.0085 63.4961C48.0734 63.4961 48.0618 63.459 48.0085 63.4799C47.9551 63.5007 47.8971 63.5611 47.8948 63.5541C47.8925 63.5471 47.8948 63.5541 47.8948 63.5402C47.8959 63.5356 47.8959 63.5308 47.8948 63.5263L47.9134 63.4683L48.0015 63.169L48.1802 62.5658L49.5977 57.6938C50.0802 56.0698 50.5767 54.4458 51.0871 52.8218L54.0706 53.7451Z" fill="#B65B52"/>
<path d="M41.9048 60.6216L39.209 59.624L40.2785 62.473C40.2785 62.473 42.1809 62.7467 42.9187 61.7468L42.3178 60.9418C42.2136 60.7977 42.0703 60.6866 41.9048 60.6216Z" fill="#B55B52"/>
<path d="M36.8301 60.4525L37.8555 62.7887L40.2892 62.4686L39.2174 59.6196L36.8301 60.4525Z" fill="#B55B52"/>
<path d="M52.1036 49.5438C50.8694 49.857 50.0156 54.9309 50.0156 54.9309L53.4144 57.2509C53.4144 57.2509 56.6624 52.133 55.7228 50.7781C54.7252 49.3559 53.9016 49.0868 52.1036 49.5438Z" fill="#EF233C"/>
<path opacity="0.5" d="M52.1036 49.5438C50.8694 49.857 50.0156 54.9309 50.0156 54.9309L53.4144 57.2509C53.4144 57.2509 56.6624 52.133 55.7228 50.7781C54.7252 49.3559 53.9016 49.0868 52.1036 49.5438Z" fill="white"/>
<path opacity="0.2" d="M51.9914 51.3882L54.6292 51.9983L54.8821 54.5805C54.4352 55.4921 53.9419 56.3803 53.4043 57.2415L51.3418 55.8495C51.4323 54.6547 51.655 52.2002 51.9914 51.3882Z" fill="black"/>
<path d="M52.1025 49.5435C52.1025 49.5435 50.6757 50.0446 53.5316 67.5977H65.6791C65.475 62.6538 65.4703 59.603 67.8321 49.4576C66.1318 49.106 64.4081 48.8788 62.6747 48.7779C60.6308 48.6781 58.9627 48.6132 57.1578 48.7779C54.7891 48.9936 52.1025 49.5435 52.1025 49.5435Z" fill="#EF233C"/>
<path opacity="0.5" d="M52.1025 49.5435C52.1025 49.5435 50.6757 50.0446 53.5316 67.5977H65.6791C65.475 62.6538 65.4703 59.603 67.8321 49.4576C66.1318 49.106 64.4081 48.8788 62.6747 48.7779C60.6308 48.6781 58.9627 48.6132 57.1578 48.7779C54.7891 48.9936 52.1025 49.5435 52.1025 49.5435Z" fill="white"/>
<path opacity="0.2" d="M64.9752 54.1675L66.5435 55.5038C66.2094 57.2786 65.9844 58.7518 65.8475 60.0719C65.5482 58.7541 64.8012 55.1767 64.9752 54.1675Z" fill="black"/>
<path d="M62.1288 42.5649C61.7808 44.3397 61.4328 47.5924 62.6763 48.7779C62.6763 48.7779 61.5163 51.4366 58.4423 51.4366C55.3683 51.4366 57.1594 48.7779 57.1594 48.7779C59.1383 48.3139 59.0873 46.8361 58.7439 45.458L62.1288 42.5649Z" fill="#B55B52"/>
<path d="M62.2804 48.1147C61.9881 48.7063 61.0461 50.0589 58.4153 50.5415C58.3421 50.5549 58.2666 50.54 58.2041 50.4997C57.7123 50.1563 57.4061 49.4302 57.6218 48.588C57.6361 48.5363 57.6357 48.4816 57.6205 48.4301C57.6053 48.3786 57.5761 48.3324 57.536 48.2966C57.4959 48.2609 57.4467 48.2371 57.3938 48.2279C57.3409 48.2187 57.2865 48.2245 57.2367 48.2447C57.0346 48.3292 56.8405 48.4317 56.6567 48.5509C56.6163 48.5777 56.5835 48.6144 56.5616 48.6576C56.369 49.0195 55.5895 50.792 57.942 51.8847C57.9795 51.9008 58.0195 51.9102 58.0603 51.9126C59.4523 51.9404 61.886 51.6667 63.4241 48.8966C63.4516 48.8465 63.4638 48.7896 63.4593 48.7327C63.4547 48.6758 63.4337 48.6215 63.3986 48.5764C63.1919 48.3501 62.9517 48.1569 62.6864 48.0034C62.653 47.9819 62.6154 47.9677 62.5762 47.9617C62.5369 47.9557 62.4968 47.9581 62.4586 47.9686C62.4203 47.9791 62.3846 47.9975 62.3539 48.0227C62.3232 48.0479 62.2982 48.0792 62.2804 48.1147Z" fill="#FAFAFA"/>
<path d="M62.926 55.4182L59.794 55.3277C59.7612 55.3279 59.7288 55.3212 59.6989 55.3079C59.6689 55.2947 59.6421 55.2753 59.6202 55.251C59.5983 55.2267 59.5817 55.198 59.5717 55.1668C59.5617 55.1356 59.5584 55.1027 59.562 55.0702L59.5921 54.6827C59.6012 54.6176 59.6338 54.558 59.6838 54.5152C59.7338 54.4725 59.7978 54.4495 59.8636 54.4507L62.9956 54.5412C63.0285 54.541 63.0611 54.5478 63.0913 54.5611C63.1214 54.5745 63.1483 54.5941 63.1703 54.6187C63.1922 54.6433 63.2087 54.6723 63.2186 54.7037C63.2284 54.7351 63.2315 54.7683 63.2276 54.8011L63.1974 55.1862C63.1883 55.2513 63.1557 55.3109 63.1057 55.3537C63.0557 55.3964 62.9917 55.4194 62.926 55.4182Z" fill="#FAFAFA"/>
<path opacity="0.2" d="M60.7486 43.7461L58.7441 45.4559C58.8301 45.7766 58.8876 46.1042 58.9158 46.435C59.6698 46.3259 60.7092 45.4954 60.7904 44.7043C60.8348 44.385 60.8206 44.0603 60.7486 43.7461Z" fill="black"/>
<path d="M64.4669 39.2081C63.9078 42.1243 63.7338 43.3701 62.0541 44.6856C59.5276 46.6669 56.0685 45.3398 55.7484 42.3169C55.4584 39.5955 56.4212 35.2849 59.4604 34.4869C60.1264 34.3099 60.8265 34.3058 61.4945 34.4751C62.1625 34.6444 62.7762 34.9813 63.2776 35.4541C63.7789 35.9269 64.1513 36.5198 64.3594 37.1767C64.5676 37.8337 64.6046 38.5328 64.4669 39.2081Z" fill="#B55B52"/>
<path d="M62.807 37.0505C62.445 38.8763 62.3592 41.2961 64.0319 41.2961C65.7046 41.2961 67.0154 38.4494 65.5724 36.2199C64.1294 33.9904 63.0181 35.974 62.807 37.0505Z" fill="#263238"/>
<path d="M65.6992 37.2755C65.6992 39.2614 63.1983 38.2801 62.0917 37.424C60.985 36.5679 60.9316 36.6607 58.8808 36.6584C56.8299 36.6561 56.4193 36.5146 55.8137 35.5355C55.2082 34.5565 55.2639 33.9115 56.6281 34.118C57.9922 34.3245 56.8461 32.9325 57.8623 32.1599C58.8784 31.3874 60.0825 31.5822 61.4722 33.3454C62.8619 35.1086 65.6992 33.835 65.6992 37.2755Z" fill="#263238"/>
<path d="M64.9634 41.8028C65.2266 40.9052 64.9684 40.0394 64.3868 39.8689C63.8053 39.6984 63.1205 40.2878 62.8573 41.1854C62.5942 42.0829 62.8523 42.9488 63.4339 43.1193C64.0155 43.2898 64.7003 42.7004 64.9634 41.8028Z" fill="white"/>
<path d="M60.3207 44.0475C59.7822 44.0474 59.2494 43.9377 58.7547 43.725C58.7441 43.7207 58.7344 43.7143 58.7263 43.7062C58.7183 43.6982 58.7119 43.6885 58.7075 43.6779C58.7032 43.6674 58.7011 43.656 58.7012 43.6446C58.7013 43.6331 58.7037 43.6218 58.7083 43.6113C58.7179 43.5902 58.7354 43.5735 58.757 43.5649C58.7786 43.5563 58.8027 43.5563 58.8243 43.5649C59.2904 43.765 59.792 43.8695 60.2993 43.8723C60.8066 43.8751 61.3093 43.7761 61.7776 43.5812C62.2331 43.3948 62.6468 43.1192 62.9942 42.7705C63.3416 42.4219 63.6158 42.0073 63.8007 41.5512C64.4967 39.5583 65.2066 37.0713 64.3853 35.5192C64.2201 35.2171 63.9915 34.9543 63.7152 34.7489C63.4389 34.5435 63.1214 34.4002 62.7845 34.329C62.7621 34.323 62.743 34.3085 62.7313 34.2885C62.7196 34.2685 62.7162 34.2448 62.7219 34.2223C62.7279 34.1999 62.7424 34.1808 62.7624 34.1691C62.7824 34.1574 62.8061 34.154 62.8286 34.1597C63.1885 34.2371 63.5275 34.3912 63.8225 34.6113C64.1176 34.8315 64.3618 35.1127 64.5384 35.4357C65.3922 37.0388 64.6799 39.5745 63.9631 41.6045C63.7686 42.0836 63.4802 42.5188 63.1148 42.8846C62.7494 43.2504 62.3145 43.5393 61.8356 43.7343C61.3557 43.936 60.8412 44.0423 60.3207 44.0475Z" fill="white"/>
<path opacity="0.6" d="M64.8804 41.8112C64.6739 42.5072 64.2006 42.9967 63.8225 42.8877C63.4443 42.7786 63.3051 42.1151 63.5116 41.4098C63.7181 40.7046 64.1913 40.222 64.5695 40.3334C64.9477 40.4447 65.0869 41.1059 64.8804 41.8112Z" fill="#EF233C"/>
<path d="M58.9951 43.341L58.0862 43.1657C57.9264 43.1349 57.7719 43.2394 57.7411 43.3992L57.731 43.4516C57.7001 43.6113 57.8047 43.7659 57.9644 43.7967L58.8734 43.972C59.0331 44.0029 59.1877 43.8983 59.2185 43.7386L59.2286 43.6862C59.2594 43.5264 59.1549 43.3719 58.9951 43.341Z" fill="white"/>
<path d="M57.8084 39.4517C57.8084 39.4517 57.2702 40.4284 56.7598 40.8669C57.0358 41.2033 57.5926 41.1383 57.5926 41.1383L57.8084 39.4517Z" fill="#A02724"/>
<path d="M58.3205 42.3863H58.3413C58.8673 42.4278 59.3895 42.2686 59.8029 41.9408C59.8114 41.9321 59.8162 41.9205 59.8162 41.9083C59.8162 41.8962 59.8114 41.8845 59.8029 41.8759C59.7988 41.8717 59.794 41.8684 59.7886 41.8662C59.7832 41.8639 59.7775 41.8628 59.7716 41.8628C59.7658 41.8628 59.76 41.8639 59.7547 41.8662C59.7493 41.8684 59.7444 41.8717 59.7403 41.8759C59.3456 42.1862 58.849 42.3376 58.3483 42.3004C58.3423 42.2994 58.3362 42.2997 58.3304 42.3012C58.3245 42.3027 58.319 42.3053 58.3142 42.309C58.3094 42.3127 58.3054 42.3174 58.3025 42.3227C58.2996 42.328 58.2978 42.3338 58.2973 42.3399C58.2961 42.349 58.2976 42.3583 58.3018 42.3666C58.3059 42.3749 58.3124 42.3817 58.3205 42.3863Z" fill="#263238"/>
<path d="M60.9742 38.3032C60.9873 38.3105 61.0021 38.3144 61.0171 38.3144C61.0321 38.3144 61.0469 38.3105 61.06 38.3032C61.0799 38.2899 61.0939 38.2695 61.0991 38.2461C61.1043 38.2228 61.1002 38.1984 61.0879 38.1779C60.9769 37.9921 60.8233 37.8354 60.6397 37.7209C60.4561 37.6063 60.2479 37.5371 60.0323 37.519C60.008 37.519 59.9848 37.5285 59.9674 37.5454C59.9501 37.5623 59.9401 37.5853 59.9395 37.6095C59.9394 37.6331 59.9487 37.6558 59.9651 37.6727C59.9816 37.6896 60.004 37.6994 60.0276 37.7C60.2134 37.7177 60.3925 37.7791 60.5501 37.879C60.7077 37.979 60.8395 38.1148 60.9347 38.2754C60.9451 38.288 60.9588 38.2977 60.9742 38.3032Z" fill="#263238"/>
<path d="M59.6456 39.4911C59.6062 39.7231 59.4461 39.9017 59.2883 39.8762C59.1306 39.8507 59.0401 39.6442 59.0795 39.3936C59.119 39.1431 59.2814 38.983 59.4368 39.0085C59.5922 39.034 59.6874 39.2521 59.6456 39.4911Z" fill="#263238"/>
<path d="M56.9405 39.0319C56.9011 39.2639 56.741 39.4425 56.5832 39.417C56.4255 39.3915 56.335 39.1734 56.3744 38.9344C56.4139 38.6955 56.5763 38.5215 56.7317 38.5493C56.8872 38.5772 56.9823 38.7906 56.9405 39.0319Z" fill="#263238"/>
<path d="M56.7995 38.5745L56.252 38.3101C56.252 38.3101 56.47 38.8089 56.7995 38.5745Z" fill="#263238"/>
<path d="M59.5046 39.0341L58.957 38.772C58.957 38.772 59.1751 39.2708 59.5046 39.0341Z" fill="#263238"/>
<path d="M56.0213 37.4146C56.0353 37.423 56.0514 37.4274 56.0677 37.4274C56.084 37.4274 56.1001 37.423 56.1141 37.4146C56.2573 37.2943 56.4274 37.2103 56.61 37.1699C56.7925 37.1295 56.9822 37.1339 57.1627 37.1826C57.1855 37.1906 57.2105 37.1892 57.2323 37.1788C57.254 37.1684 57.2707 37.1497 57.2787 37.1269C57.2867 37.1042 57.2854 37.0792 57.2749 37.0574C57.2645 37.0356 57.2458 37.0189 57.2231 37.0109C57.0149 36.9516 56.7954 36.9435 56.5834 36.9871C56.3713 37.0307 56.173 37.1248 56.0051 37.2615C55.9954 37.2683 55.9872 37.2771 55.9811 37.2873C55.9749 37.2975 55.971 37.3088 55.9695 37.3206C55.9679 37.3323 55.9689 37.3443 55.9722 37.3557C55.9755 37.3671 55.9812 37.3777 55.9888 37.3868C55.9966 37.3991 56.0079 37.4088 56.0213 37.4146Z" fill="#263238"/>
<path d="M53.0707 70.5561C53.0707 70.5561 53.0383 68.895 53.5347 67.5981H65.6799C65.6799 67.5981 66.7727 69.3613 67.0557 70.5561H53.0707Z" fill="#EF233C"/>
<path d="M65.8624 66.8856L65.9575 67.9714C66.0016 68.0572 65.9018 68.143 65.7603 68.143H53.4643C53.3553 68.143 53.2648 68.0897 53.2578 68.0201L53.1465 66.932C53.1465 66.8578 53.2346 66.7928 53.3553 66.7928H65.6513C65.6915 66.7885 65.7322 66.7948 65.7692 66.8111C65.8062 66.8274 65.8384 66.8531 65.8624 66.8856Z" fill="#EF233C"/>
<path opacity="0.3" d="M65.8624 66.8856L65.9575 67.9714C66.0016 68.0572 65.9018 68.143 65.7603 68.143H53.4643C53.3553 68.143 53.2648 68.0897 53.2578 68.0201L53.1465 66.932C53.1465 66.8578 53.2346 66.7928 53.3553 66.7928H65.6513C65.6915 66.7885 65.7322 66.7948 65.7692 66.8111C65.8062 66.8274 65.8384 66.8531 65.8624 66.8856Z" fill="#FAFAFA"/>
<path d="M64.2099 68.2591H64.5393C64.6066 68.2591 64.6553 68.2266 64.6507 68.1849L64.4975 66.772C64.4975 66.7302 64.4349 66.6978 64.3699 66.6978H64.0335C63.9663 66.6978 63.9175 66.7302 63.9222 66.772L64.0753 68.1849C64.0869 68.2266 64.1449 68.2591 64.2099 68.2591Z" fill="#EF233C"/>
<path d="M54.3986 68.2591H54.728C54.793 68.2591 54.844 68.2266 54.8394 68.1849L54.6839 66.772C54.6839 66.7302 54.6236 66.6978 54.5563 66.6978H54.2269C54.1619 66.6978 54.1109 66.7302 54.1155 66.772L54.271 68.1849C54.2756 68.2266 54.3336 68.2591 54.3986 68.2591Z" fill="#EF233C"/>
<path d="M59.3043 68.2591H59.6245C59.6895 68.2591 59.7405 68.2266 59.7359 68.1849L59.5804 66.772C59.5804 66.7302 59.5178 66.6978 59.4528 66.6978H59.1234C59.0584 66.6978 59.0074 66.7302 59.012 66.772L59.1675 68.1849C59.1814 68.2266 59.2371 68.2591 59.3043 68.2591Z" fill="#EF233C"/>
<path d="M68.8721 52.896C69.4057 54.6283 69.9184 56.3698 70.4102 58.1206L71.1503 60.733L71.5192 62.0322L71.612 62.3523L71.6584 62.5124L71.67 62.5495L71.6329 62.4915C71.5742 62.4075 71.5021 62.3339 71.4194 62.2734C71.2379 62.1413 71.0219 62.0648 70.7977 62.053C70.6282 62.045 70.4594 62.0784 70.3058 62.1505C70.1388 62.241 70.155 62.2618 70.169 62.2456C70.2083 62.2114 70.244 62.1733 70.2757 62.1319C70.385 61.9953 70.4858 61.8519 70.5773 61.7027C70.7814 61.3686 70.9833 60.9928 71.1735 60.6077C71.5679 59.8374 71.9229 59.0208 72.2825 58.1995C72.6421 57.3782 72.9785 56.5477 73.3265 55.7102C73.6745 54.8726 74.0062 54.0305 74.3496 53.1999L75.8321 53.6407C75.4469 55.4503 74.9969 57.2274 74.4401 58.9976C74.1663 59.8862 73.8624 60.7654 73.5121 61.6563C73.3311 62.1018 73.1386 62.5472 72.8996 63.0089C72.7722 63.2586 72.6296 63.5004 72.4727 63.7327C72.3752 63.8785 72.2666 64.0165 72.1479 64.1457C71.9596 64.3593 71.731 64.5335 71.4751 64.6584C71.2197 64.7826 70.9376 64.8416 70.6538 64.8301C70.3174 64.8114 69.9943 64.6926 69.7258 64.489C69.5547 64.36 69.4065 64.2032 69.2873 64.025C69.212 63.9107 69.146 63.7905 69.0901 63.6654C69.0693 63.6144 69.0461 63.561 69.0298 63.5146L68.9858 63.401L68.9254 63.2362L68.8048 62.9091C68.647 62.4753 68.487 62.0414 68.3408 61.6076C68.0438 60.7399 67.7469 59.8746 67.4685 59.0046C66.8993 57.2661 66.3688 55.5191 65.877 53.7637L68.8721 52.896Z" fill="#B65B52"/>
<path d="M67.8338 49.458C69.0518 49.8269 70.9148 54.6038 70.9148 54.6038L66.1936 57.9794C66.1936 57.9794 64.0708 53.8962 64.5812 52.3233C65.1148 50.6853 66.4465 49.0358 67.8338 49.458Z" fill="#EF233C"/>
<path opacity="0.5" d="M67.8338 49.458C69.0518 49.8269 70.9148 54.6038 70.9148 54.6038L66.1936 57.9794C66.1936 57.9794 64.0708 53.8962 64.5812 52.3233C65.1148 50.6853 66.4465 49.0358 67.8338 49.458Z" fill="white"/>
<path d="M74.4031 53.8355L73.7559 50.9819L76.4471 52.4018C76.4471 52.4018 76.4795 54.3227 75.3938 54.9283L74.4031 53.8355Z" fill="#B55B52"/>
<path d="M74.8834 48.7178L76.6002 49.9358L76.4471 52.4019L73.7559 50.9821L74.8834 48.7178Z" fill="#B55B52"/>
<path d="M26.6793 34.3568H45.4713C45.83 34.3533 46.1857 34.4242 46.5156 34.5652C46.8456 34.7061 47.1427 34.914 47.3883 35.1756C47.6338 35.4373 47.8224 35.747 47.942 36.0853C48.0617 36.4236 48.1099 36.783 48.0836 37.1408L47.5593 45.6459C47.5016 46.3947 47.1667 47.0949 46.6201 47.6098C46.0735 48.1247 45.3544 48.4171 44.6036 48.4299H42.4274L43.316 51.3508L39.0657 48.4299H25.8185C25.4597 48.4335 25.1041 48.3625 24.7742 48.2216C24.4442 48.0806 24.147 47.8728 23.9015 47.6111C23.656 47.3495 23.4674 47.0397 23.3478 46.7015C23.2281 46.3632 23.1799 46.0038 23.2062 45.6459L23.7259 37.1408C23.7835 36.3925 24.1181 35.6925 24.6642 35.1777C25.2104 34.6629 25.9288 34.3702 26.6793 34.3568Z" fill="#EF233C"/>
<path d="M43.7496 38.811H27.8576C27.7901 38.8106 27.7235 38.7962 27.6618 38.7687C27.6002 38.7413 27.545 38.7013 27.4996 38.6513C27.4542 38.6014 27.4197 38.5426 27.3983 38.4786C27.3769 38.4146 27.3689 38.3469 27.375 38.2797C27.3854 38.1389 27.4481 38.0071 27.5507 37.9101C27.6532 37.8131 27.7884 37.7579 27.9295 37.7554H43.8238C43.891 37.7555 43.9573 37.7695 44.0189 37.7964C44.0804 37.8232 44.1357 37.8625 44.1814 37.9117C44.2271 37.9608 44.2622 38.0189 44.2845 38.0822C44.3068 38.1455 44.3158 38.2127 44.311 38.2797C44.3028 38.4231 44.2401 38.558 44.1357 38.6567C44.0314 38.7554 43.8933 38.8106 43.7496 38.811Z" fill="white"/>
<path d="M34.3346 41.9178H27.6669C27.5994 41.9183 27.5325 41.9048 27.4705 41.8782C27.4084 41.8516 27.3525 41.8125 27.3063 41.7632C27.2601 41.714 27.2246 41.6557 27.202 41.5921C27.1794 41.5285 27.1703 41.4608 27.1751 41.3935C27.1855 41.2523 27.2485 41.1201 27.3515 41.0231C27.4546 40.926 27.5903 40.8711 27.7319 40.8692H34.4065C34.4742 40.8684 34.5414 40.8816 34.6037 40.9081C34.666 40.9345 34.7222 40.9736 34.7686 41.0229C34.8151 41.0722 34.8508 41.1306 34.8735 41.1944C34.8962 41.2581 34.9055 41.326 34.9007 41.3935C34.8896 41.5361 34.8251 41.6692 34.7202 41.7664C34.6153 41.8636 34.4776 41.9177 34.3346 41.9178Z" fill="white"/>
<path d="M40.0495 45.0243H27.4775C27.4099 45.0248 27.3431 45.0113 27.281 44.9847C27.2189 44.9581 27.1631 44.9189 27.1169 44.8697C27.0707 44.8204 27.0352 44.7622 27.0126 44.6985C26.99 44.6349 26.9808 44.5673 26.9856 44.4999C26.9955 44.3586 27.0583 44.2261 27.1615 44.1289C27.2647 44.0318 27.4007 43.977 27.5424 43.9756H40.1145C40.1821 43.9748 40.2492 43.988 40.3114 44.0145C40.3736 44.041 40.4296 44.0801 40.4759 44.1295C40.5222 44.1788 40.5576 44.2372 40.5801 44.301C40.6026 44.3648 40.6115 44.4325 40.6063 44.4999C40.5959 44.6411 40.5329 44.7733 40.4299 44.8704C40.3268 44.9674 40.1911 45.0223 40.0495 45.0243Z" fill="white"/>
<path d="M39.233 41.9178H36.6044C36.5369 41.9183 36.47 41.9048 36.4079 41.8782C36.3459 41.8516 36.29 41.8125 36.2438 41.7632C36.1976 41.714 36.1621 41.6557 36.1395 41.5921C36.1169 41.5285 36.1078 41.4608 36.1126 41.3935C36.1235 41.2525 36.1866 41.1206 36.2896 41.0237C36.3926 40.9267 36.528 40.8716 36.6694 40.8692H39.2956C39.3632 40.8683 39.4303 40.8816 39.4925 40.9081C39.5547 40.9346 39.6107 40.9737 39.657 41.023C39.7033 41.0723 39.7388 41.1307 39.7612 41.1945C39.7837 41.2583 39.7926 41.3261 39.7874 41.3935C39.7771 41.5343 39.7144 41.6661 39.6118 41.7631C39.5093 41.8601 39.3741 41.9153 39.233 41.9178Z" fill="white"/>
<path d="M52.8468 19.068H42.6017C42.0175 19.0767 41.4577 19.3037 41.0322 19.7042C40.6068 20.1047 40.3466 20.6499 40.3026 21.2325L39.9036 27.8538C39.8837 28.1322 39.9217 28.4117 40.0152 28.6746C40.1087 28.9376 40.2556 29.1784 40.4468 29.3817C40.6379 29.5851 40.8691 29.7466 41.1258 29.8562C41.3825 29.9658 41.6591 30.021 41.9382 30.0184H43.6156L42.6458 32.292L46.2325 30.0184H52.1764C52.7606 30.0096 53.3204 29.7826 53.7459 29.3821C54.1713 28.9816 54.4315 28.4364 54.4755 27.8538L54.8815 21.2325C54.9014 20.9541 54.8634 20.6746 54.7699 20.4117C54.6764 20.1487 54.5294 19.908 54.3383 19.7046C54.1471 19.5012 53.9159 19.3397 53.6592 19.2301C53.4025 19.1205 53.1259 19.0653 52.8468 19.068Z" fill="#EF233C"/>
<g opacity="0.5">
<path d="M52.8468 19.068H42.6017C42.0175 19.0767 41.4577 19.3037 41.0322 19.7042C40.6068 20.1047 40.3466 20.6499 40.3026 21.2325L39.9036 27.8538C39.8837 28.1322 39.9217 28.4117 40.0152 28.6746C40.1087 28.9376 40.2556 29.1784 40.4468 29.3817C40.6379 29.5851 40.8691 29.7466 41.1258 29.8562C41.3825 29.9658 41.6591 30.021 41.9382 30.0184H43.6156L42.6458 32.292L46.2325 30.0184H52.1764C52.7606 30.0096 53.3204 29.7826 53.7459 29.3821C54.1713 28.9816 54.4315 28.4364 54.4755 27.8538L54.8815 21.2325C54.9014 20.9541 54.8634 20.6746 54.7699 20.4117C54.6764 20.1487 54.5294 19.908 54.3383 19.7046C54.1471 19.5012 53.9159 19.3397 53.6592 19.2301C53.4025 19.1205 53.1259 19.0653 52.8468 19.068Z" fill="#FAFAFA"/>
</g>
<path d="M47.9066 25.6266C47.8713 25.7724 47.7881 25.9022 47.6703 25.9952C47.5525 26.0881 47.407 26.1389 47.257 26.1393H46.6514C46.6514 25.9677 46.6654 25.8633 46.6677 25.8261C46.6764 25.4917 46.7622 25.1639 46.9182 24.868C47.1375 24.5382 47.4159 24.2518 47.7395 24.0235C47.9976 23.8365 48.2411 23.6302 48.468 23.4064C48.5884 23.264 48.6599 23.0867 48.6722 22.9006C48.6813 22.7773 48.662 22.6536 48.6157 22.539C48.5694 22.4243 48.4975 22.3219 48.4054 22.2394C48.1803 22.0466 47.8892 21.9485 47.5934 21.9657C47.2822 21.9572 46.9781 22.0591 46.735 22.2533C46.5904 22.3726 46.472 22.5202 46.387 22.6872C46.3243 22.8091 46.227 22.9099 46.1073 22.9767C45.9876 23.0436 45.8509 23.0736 45.7142 23.063C45.6158 23.0509 45.5221 23.0141 45.4417 22.9561C45.3614 22.8981 45.2969 22.8207 45.2544 22.7312C45.2118 22.6417 45.1925 22.5429 45.1983 22.444C45.204 22.3451 45.2346 22.2492 45.2873 22.1652C45.4273 21.9302 45.607 21.7214 45.8186 21.5481C46.3213 21.1439 46.9534 20.9354 47.598 20.9611C48.3566 20.9611 48.9459 21.1583 49.3705 21.555C49.5692 21.7259 49.7257 21.9405 49.8275 22.1821C49.9294 22.4236 49.9738 22.6854 49.9574 22.947C49.9361 23.2444 49.8334 23.5301 49.6605 23.7729C49.3346 24.1742 48.9579 24.5314 48.5399 24.8355C48.3234 24.9867 48.1362 25.1762 47.9878 25.3946C47.95 25.4678 47.9227 25.5459 47.9066 25.6266ZM46.5818 27.2924V27.2181C46.594 27.0505 46.6688 26.8935 46.7912 26.7784C46.9137 26.6632 47.075 26.5983 47.243 26.5964H47.3266C47.407 26.5952 47.4867 26.6108 47.5608 26.6421C47.6348 26.6734 47.7016 26.7197 47.7568 26.7782C47.812 26.8366 47.8544 26.9059 47.8814 26.9817C47.9084 27.0574 47.9193 27.138 47.9135 27.2181V27.2924C47.9013 27.4603 47.8267 27.6175 47.7043 27.733C47.5819 27.8485 47.4206 27.914 47.2523 27.9165H47.1781C47.0967 27.919 47.0157 27.9043 46.9404 27.8735C46.865 27.8426 46.797 27.7963 46.7408 27.7374C46.6845 27.6785 46.6413 27.6085 46.6139 27.5318C46.5865 27.4551 46.5756 27.3736 46.5818 27.2924Z" fill="white"/>
</svg>
