<svg width="116" height="116" viewBox="0 0 116 116" fill="none" xmlns="http://www.w3.org/2000/svg">
<path d="M116 88.7168H0V88.7748H116V88.7168Z" fill="#EBEBEB"/>
<path d="M15.8958 90.9255H12.1699V90.9835H15.8958V90.9255Z" fill="#EBEBEB"/>
<path d="M52.124 90.2966H39.7051V90.3546H52.124V90.2966Z" fill="#EBEBEB"/>
<path d="M24.5389 93.0808H16.1289V93.1388H24.5389V93.0808Z" fill="#EBEBEB"/>
<path d="M97.981 90.2666H87.9609V90.3246H97.981V90.2666Z" fill="#EBEBEB"/>
<path d="M101.515 90.2666H100.047V90.3246H101.515V90.2666Z" fill="#EBEBEB"/>
<path d="M86.0474 91.7119H73.5449V91.7699H86.0474V91.7119Z" fill="#EBEBEB"/>
<path d="M54.9845 78.3696H10.1876C9.8367 78.369 9.50035 78.2292 9.25242 77.9808C9.00448 77.7324 8.86523 77.3958 8.86523 77.0449V14.0731C8.86829 13.7242 9.00889 13.3906 9.25649 13.1447C9.50409 12.8989 9.8387 12.7606 10.1876 12.76H54.9845C55.3359 12.76 55.6728 12.8996 55.9212 13.148C56.1697 13.3964 56.3092 13.7334 56.3092 14.0847V77.0449C56.3092 77.3962 56.1697 77.7332 55.9212 77.9816C55.6728 78.23 55.3359 78.3696 54.9845 78.3696ZM10.1876 12.8064C9.85208 12.807 9.53048 12.9408 9.29343 13.1782C9.05637 13.4157 8.92323 13.7376 8.92323 14.0731V77.0449C8.92323 77.3804 9.05637 77.7023 9.29343 77.9398C9.53048 78.1773 9.85208 78.311 10.1876 78.3116H54.9845C55.3203 78.311 55.6421 78.1773 55.8795 77.9399C56.117 77.7025 56.2506 77.3807 56.2512 77.0449V14.0731C56.2506 13.7374 56.117 13.4155 55.8795 13.1781C55.6421 12.9407 55.3203 12.807 54.9845 12.8064H10.1876Z" fill="#EBEBEB"/>
<path d="M105.169 78.3696H60.3696C60.0185 78.369 59.6819 78.2292 59.4336 77.9809C59.1853 77.7326 59.0455 77.396 59.0449 77.0449V14.0731C59.0486 13.724 59.1897 13.3904 59.4377 13.1446C59.6856 12.8988 60.0205 12.7606 60.3696 12.76H105.169C105.517 12.7612 105.851 12.8997 106.098 13.1455C106.346 13.3913 106.486 13.7246 106.489 14.0731V77.0449C106.489 77.3954 106.35 77.7317 106.103 77.98C105.855 78.2283 105.519 78.3684 105.169 78.3696ZM60.3696 12.8064C60.0339 12.807 59.712 12.9407 59.4746 13.1781C59.2372 13.4155 59.1035 13.7374 59.1029 14.0731V77.0449C59.1035 77.3807 59.2372 77.7025 59.4746 77.9399C59.712 78.1773 60.0339 78.311 60.3696 78.3116H105.169C105.505 78.311 105.826 78.1773 106.064 77.9399C106.301 77.7025 106.435 77.3807 106.436 77.0449V14.0731C106.435 13.7374 106.301 13.4155 106.064 13.1781C105.826 12.9407 105.505 12.807 105.169 12.8064H60.3696Z" fill="#EBEBEB"/>
<path d="M41.4323 64.5842H33.2891V66.1897H41.4323V64.5842Z" fill="#E6E6E6"/>
<path d="M17.9322 88.7168H19.4355L19.4355 23.5898H17.9322L17.9322 88.7168Z" fill="#E6E6E6"/>
<path d="M12.7246 66.1919H33.2891V64.5865H12.7246V66.1919Z" fill="#F5F5F5"/>
<path d="M41.4323 84.6428H33.2891V86.2483H41.4323V84.6428Z" fill="#E6E6E6"/>
<path d="M12.7246 86.2483H33.2891V84.6428H12.7246V86.2483Z" fill="#F5F5F5"/>
<path d="M41.4323 24.4668H33.2891V26.0722H41.4323V24.4668Z" fill="#E6E6E6"/>
<path d="M12.7246 26.0745L33.2891 26.0745V24.469L12.7246 24.469V26.0745Z" fill="#F5F5F5"/>
<path d="M41.4323 44.5254H33.2891V46.1308H41.4323V44.5254Z" fill="#E6E6E6"/>
<path d="M12.7246 46.1333H33.2891V44.5279H12.7246V46.1333Z" fill="#F5F5F5"/>
<path d="M38.4966 88.7168H40L40 23.5898H38.4966L38.4966 88.7168Z" fill="#E6E6E6"/>
<path d="M31.7857 88.7168H33.2891L33.2891 23.5898H31.7857L31.7857 88.7168Z" fill="#F5F5F5"/>
<path d="M12.7252 88.7168H14.2285L14.2285 23.5898H12.7252L12.7252 88.7168Z" fill="#F5F5F5"/>
<path d="M108.105 67.8694H91.1758V69.9574H108.105V67.8694Z" fill="#EBEBEB"/>
<path d="M110.201 88.7168L105.916 69.9573H104.189L109.546 88.7168H110.201Z" fill="#E0E0E0"/>
<path d="M89.0801 88.7168L93.3651 69.9573H95.0912L89.7366 88.7168H89.0801Z" fill="#E0E0E0"/>
<path d="M97.6191 88.7168L99.1202 69.9573H100.844L98.2757 88.7168H97.6191Z" fill="#E0E0E0"/>
<path d="M81.7103 67.8694H64.7812V69.9574H81.7103V67.8694Z" fill="#EBEBEB"/>
<path d="M83.806 88.7168L79.521 69.9573H77.7949L83.1518 88.7168H83.806Z" fill="#E0E0E0"/>
<path d="M62.6895 88.7168L66.9745 69.9573H68.7006L63.3437 88.7168H62.6895Z" fill="#E0E0E0"/>
<path d="M71.2266 88.7168L72.7253 69.9573H74.4514L71.8808 88.7168H71.2266Z" fill="#E0E0E0"/>
<path d="M98.6812 32.7654H49.2188V34.633H98.6812V32.7654Z" fill="#F0F0F0"/>
<path d="M98.6838 34.6331H103.783V32.7655H98.6838V34.6331Z" fill="#E0E0E0"/>
<path d="M98.8951 23.8984H88.7637V32.7678H98.8951V23.8984Z" fill="#F5F5F5"/>
<path d="M98.8951 23.2417H88.7637V23.8983H98.8951V23.2417Z" fill="#E6E6E6"/>
<path d="M97.6185 24.8821H88.668V29.8794H97.6185V24.8821Z" fill="#EBEBEB"/>
<path d="M70.015 28.4548H54.7656V32.7654H70.015V28.4548Z" fill="#F5F5F5"/>
<path d="M70.015 28.137H54.7656V28.4571H70.015V28.137Z" fill="#E6E6E6"/>
<path d="M68.0937 28.9326H54.6191V31.3617H68.0937V28.9326Z" fill="#EBEBEB"/>
<path d="M87.1478 27.2158H79.8398V32.7653H87.1478V27.2158Z" fill="#F5F5F5"/>
<path d="M87.1478 26.5593H79.8398V27.2159H87.1478V26.5593Z" fill="#E6E6E6"/>
<path d="M86.2304 28.1997H79.7715V31.5521H86.2304V28.1997Z" fill="#FAFAFA"/>
<path d="M82.8518 26.5593C82.7891 27.144 82.2625 29.3851 83.2949 28.986C84.3273 28.587 84.9815 28.3504 85.1903 29.348C85.3991 30.3456 86.8793 29.2575 86.4524 26.564L82.8518 26.5593Z" fill="#E0E0E0"/>
<path d="M84.1976 29.2319C83.1165 29.2319 83.3462 30.0416 83.9007 29.8119C84.4552 29.5823 84.5967 29.2319 84.1976 29.2319Z" fill="#E0E0E0"/>
<path d="M25.3258 31.9558H16.5469V44.5279H25.3258V31.9558Z" fill="#F5F5F5"/>
<path d="M25.3258 31.0254H16.5469V31.9557H25.3258V31.0254Z" fill="#E6E6E6"/>
<path d="M24.2187 33.3501H16.4629V40.4354H24.2187V33.3501Z" fill="#EBEBEB"/>
<path d="M27.9469 56.717H21.6133V64.5842H27.9469V56.717Z" fill="#F5F5F5"/>
<path d="M27.9469 55.7866H21.6133V56.7169H27.9469V55.7866Z" fill="#E6E6E6"/>
<path d="M27.1486 58.1113H21.5527V62.8627H27.1486V58.1113Z" fill="#FAFAFA"/>
<path d="M98.797 43.2378V60.8466H96.1615L92.6699 43.9129L98.797 43.2378Z" fill="#E0E0E0"/>
<path d="M97.461 44.7272H93.7977C93.434 44.7267 93.0785 44.6193 92.7754 44.4184C92.4722 44.2176 92.2348 43.9321 92.0925 43.5974L91.4243 42.0198C91.3059 41.7381 91.2589 41.4315 91.2874 41.1273C91.3159 40.8231 91.4191 40.5306 91.5878 40.2759C91.7565 40.0211 91.9855 39.8119 92.2544 39.6669C92.5234 39.5219 92.824 39.4455 93.1295 39.4446H97.461C97.9532 39.4446 98.4253 39.6401 98.7733 39.9882C99.1214 40.3363 99.317 40.8083 99.317 41.3006V42.8782C99.3151 43.3692 99.1188 43.8395 98.7709 44.1861C98.423 44.5326 97.952 44.7272 97.461 44.7272ZM93.1295 41.0639C93.0919 41.0643 93.0549 41.0737 93.0218 41.0915C92.9887 41.1093 92.9603 41.1349 92.9393 41.166C92.9185 41.1976 92.9057 41.2337 92.9021 41.2713C92.8984 41.3089 92.904 41.3468 92.9184 41.3818L93.5866 42.9594C93.6045 43.0005 93.634 43.0356 93.6715 43.0603C93.709 43.085 93.7528 43.0983 93.7977 43.0986H97.461C97.5225 43.0986 97.5815 43.0741 97.625 43.0306C97.6685 42.9871 97.693 42.9281 97.693 42.8666V41.2959C97.693 41.2344 97.6685 41.1754 97.625 41.1319C97.5815 41.0884 97.5225 41.0639 97.461 41.0639H93.1295Z" fill="#EBEBEB"/>
<path d="M58.0001 99.1939C82.8432 99.1939 102.983 98.0181 102.983 96.5676C102.983 95.1172 82.8432 93.9414 58.0001 93.9414C33.1569 93.9414 13.0176 95.1172 13.0176 96.5676C13.0176 98.0181 33.1569 99.1939 58.0001 99.1939Z" fill="#F5F5F5"/>
<path d="M66.227 21.314C64.6796 22.9101 66.8 24.2905 67.5865 24.1792C67.5865 24.1792 65.8883 23.0656 66.227 21.314Z" fill="#263238"/>
<path d="M65.951 21.126C64.8698 23.0678 67.2734 23.8543 68.0042 23.5434C68.0042 23.5434 66.0809 22.9031 65.951 21.126Z" fill="#263238"/>
<path d="M70.116 67.1247C71.7933 57.2368 72.436 44.8225 72.436 44.8225L63.2812 45.9361C63.2812 45.9361 64.3252 61.2295 64.6941 67.9599C65.0769 74.957 65.476 90.9116 65.476 90.9116H69.7146C69.7146 90.9116 71.0463 75.7759 70.116 67.1247Z" fill="#EF233C"/>
<path d="M69.3685 93.7049L69.7304 95.6769C69.7386 95.7251 69.7361 95.7745 69.723 95.8216C69.7099 95.8687 69.6865 95.9123 69.6546 95.9493C69.6227 95.9863 69.583 96.0158 69.5383 96.0357C69.4937 96.0556 69.4452 96.0654 69.3963 96.0643C68.7723 96.0643 68.4683 95.9669 67.3826 95.9483C66.1019 95.9298 65.0324 96.0899 63.5314 96.0643C63.3673 96.076 63.2047 96.0265 63.075 95.9254C62.9452 95.8243 62.8575 95.6788 62.8287 95.5168C62.7998 95.3549 62.832 95.188 62.9189 95.0483C63.0058 94.9087 63.1413 94.8062 63.2994 94.7605C64.761 94.3615 65.3874 93.6144 66.0834 93.1759C66.2272 92.4637 65.8792 90.5103 65.8792 90.5103L69.3778 90.7423C69.3141 91.7287 69.311 92.7181 69.3685 93.7049Z" fill="#263238"/>
<path d="M85.5702 93.8137L84.7234 92.2872C84.3174 91.3221 83.7119 89.4707 83.7119 89.4707L80.5636 90.2897C80.5636 90.2897 81.4313 91.8649 81.6308 92.6097C81.1483 93.1734 80.4963 94.4332 79.1414 94.7417C78.5058 94.8856 78.5545 95.9945 79.3966 96.0665C80.7886 96.1848 82.4266 95.1129 83.5912 94.8601C84.5865 94.6443 84.7303 94.7139 85.2964 94.5817C85.3754 94.5632 85.4485 94.5252 85.509 94.4711C85.5695 94.4171 85.6154 94.3488 85.6427 94.2724C85.6699 94.1959 85.6776 94.1139 85.6649 94.0338C85.6522 93.9537 85.6196 93.878 85.5702 93.8137Z" fill="#263238"/>
<path d="M65.6576 91.4753L69.5552 91.5356C69.6326 91.5368 69.7076 91.5096 69.7662 91.4592C69.8248 91.4087 69.8629 91.3385 69.8731 91.2618L70.0424 89.9742C70.0479 89.9304 70.0443 89.886 70.0317 89.8437C70.019 89.8014 69.9978 89.7622 69.9692 89.7286C69.9406 89.695 69.9053 89.6677 69.8656 89.6485C69.8259 89.6293 69.7826 89.6185 69.7385 89.6169L65.4929 89.4847C65.4473 89.4837 65.4019 89.4925 65.36 89.5106C65.318 89.5287 65.2805 89.5556 65.2499 89.5895C65.2193 89.6234 65.1963 89.6635 65.1826 89.7071C65.1689 89.7506 65.1648 89.7967 65.1704 89.842L65.3491 91.1992C65.359 91.2745 65.3956 91.3437 65.4522 91.3944C65.5088 91.445 65.5817 91.4737 65.6576 91.4753Z" fill="#263238"/>
<path opacity="0.1" d="M65.6576 91.4753L69.5552 91.5356C69.6326 91.5368 69.7076 91.5096 69.7662 91.4592C69.8248 91.4087 69.8629 91.3385 69.8731 91.2618L70.0424 89.9742C70.0479 89.9304 70.0443 89.886 70.0317 89.8437C70.019 89.8014 69.9978 89.7622 69.9692 89.7286C69.9406 89.695 69.9053 89.6677 69.8656 89.6485C69.8259 89.6293 69.7826 89.6185 69.7385 89.6169L65.4929 89.4847C65.4473 89.4837 65.4019 89.4925 65.36 89.5106C65.318 89.5287 65.2805 89.5556 65.2499 89.5895C65.2193 89.6234 65.1963 89.6635 65.1826 89.7071C65.1689 89.7506 65.1648 89.7967 65.1704 89.842L65.3491 91.1992C65.359 91.2745 65.3956 91.3437 65.4522 91.3944C65.5088 91.445 65.5817 91.4737 65.6576 91.4753Z" fill="white"/>
<path d="M78.283 66.8462C76.8191 56.9027 77.1787 49.1586 75.035 44.5093L66.6992 45.5347C66.6992 45.5347 70.8265 61.0068 72.7103 67.5747C74.5942 74.1426 80.1923 90.2898 80.1923 90.2898L84.2175 89.399C84.2175 89.399 80.7863 74.537 78.283 66.8462Z" fill="#EF233C"/>
<path d="M80.3776 91.0021L84.187 90.1738C84.2645 90.156 84.332 90.1088 84.3753 90.0421C84.4186 89.9754 84.4343 89.8946 84.419 89.8165L84.187 88.5498C84.1702 88.465 84.1205 88.3903 84.0487 88.3421C83.977 88.2938 83.8891 88.2759 83.8042 88.2923L79.6421 89.1321C79.5957 89.1409 79.552 89.1602 79.5143 89.1887C79.4766 89.2171 79.446 89.2539 79.4249 89.2961C79.4038 89.3384 79.3927 89.3849 79.3926 89.4321C79.3924 89.4793 79.4032 89.5259 79.424 89.5683L80.0156 90.8234C80.0463 90.8902 80.099 90.9444 80.1649 90.9769C80.2308 91.0095 80.3059 91.0183 80.3776 91.0021Z" fill="#263238"/>
<path opacity="0.1" d="M80.3776 91.0021L84.187 90.1738C84.2645 90.156 84.332 90.1088 84.3753 90.0421C84.4186 89.9754 84.4343 89.8946 84.419 89.8165L84.187 88.5498C84.1702 88.465 84.1205 88.3903 84.0487 88.3421C83.977 88.2938 83.8891 88.2759 83.8042 88.2923L79.6421 89.1321C79.5957 89.1409 79.552 89.1602 79.5143 89.1887C79.4766 89.2171 79.446 89.2539 79.4249 89.2961C79.4038 89.3384 79.3927 89.3849 79.3926 89.4321C79.3924 89.4793 79.4032 89.5259 79.424 89.5683L80.0156 90.8234C80.0463 90.8902 80.099 90.9444 80.1649 90.9769C80.2308 91.0095 80.3059 91.0183 80.3776 91.0021Z" fill="white"/>
<path d="M63.0769 33.9276C62.9284 35.4287 62.7219 36.8856 62.4574 38.3635C62.3206 39.1012 62.179 39.839 61.9934 40.5791C61.8207 41.3455 61.607 42.1022 61.3531 42.8457C61.2835 43.0406 61.2093 43.2378 61.1211 43.4489C61.0311 43.66 60.9296 43.866 60.8172 44.066C60.6048 44.4473 60.3603 44.8097 60.0864 45.1495C59.5804 45.7845 59.0123 46.3674 58.3905 46.8895C57.7973 47.3936 57.1719 47.8586 56.5183 48.2815C55.8731 48.7021 55.2003 49.0788 54.5045 49.409C54.3296 49.493 54.1302 49.5107 53.9433 49.4587C53.7565 49.4067 53.5948 49.2886 53.4884 49.1264C53.3821 48.9642 53.3383 48.7688 53.3651 48.5767C53.392 48.3846 53.4877 48.2088 53.6345 48.0819L53.6647 48.0564C54.7289 47.1503 55.7304 46.1729 56.6621 45.1309C57.0975 44.6398 57.4939 44.1154 57.8476 43.5626C58.0039 43.3095 58.1427 43.0459 58.2629 42.7738C58.3761 42.5092 58.4684 42.2362 58.539 41.9571C58.7014 41.34 58.8406 40.651 58.9635 39.9619C59.0865 39.2729 59.1955 38.5699 59.2953 37.8554C59.5018 36.4425 59.692 34.9971 59.8753 33.5866V33.5703C59.9386 33.1597 60.1584 32.7896 60.4886 32.5374C60.8188 32.2853 61.2338 32.1708 61.6465 32.2179C62.0593 32.265 62.4378 32.47 62.7028 32.7901C62.9677 33.1101 63.0984 33.5203 63.0676 33.9346L63.0769 33.9276Z" fill="#FF8B7B"/>
<path d="M61.198 30.3109C58.9987 32.0184 58.5254 37.0389 58.5254 37.0389L63.996 38.7325C64.5683 37.3382 64.9808 35.8835 65.2256 34.3964C65.7615 31.4314 63.242 28.724 61.198 30.3109Z" fill="#EF233C"/>
<path d="M70.2357 27.7263C67.9011 27.8909 65.5893 28.2928 63.336 28.9257C62.1637 29.2601 61.1549 30.0132 60.501 31.0421C59.8471 32.0711 59.5937 33.3042 59.7888 34.5076C60.4128 38.2475 61.7074 39.6859 63.2688 45.9406L75.0149 44.5091C74.885 41.2867 73.5 37.751 73.145 30.3223C73.1279 29.9597 73.0387 29.6041 72.8825 29.2763C72.7263 28.9485 72.5064 28.6552 72.2355 28.4134C71.9646 28.1717 71.6482 27.9864 71.3048 27.8684C70.9614 27.7504 70.598 27.7021 70.2357 27.7263Z" fill="#EF233C"/>
<path d="M66.5057 23.3369C66.8189 25.0328 67.6657 27.2624 68.3617 28.1092C67.6889 29.123 66.7772 30.3178 64.898 30.74C63.0188 31.1623 63.0582 29.812 63.4039 29.0395C65.0882 28.2855 64.8214 27.5709 64.1509 26.4504L66.5057 23.3369Z" fill="#FF8B7B"/>
<path opacity="0.2" d="M65.7264 25.2554C65.6658 25.0505 65.5882 24.8511 65.4944 24.6592L64.1465 26.4479C64.3752 26.7848 64.5447 27.1583 64.6476 27.5522C65.3204 27.1277 65.9491 26.0187 65.7264 25.2554Z" fill="black"/>
<path d="M59.7338 20.467C58.372 21.4832 58.7409 21.757 58.7409 21.757C58.7409 21.757 58.6318 23.5735 60.9425 23.7522C61.8961 21.4739 59.7338 20.467 59.7338 20.467Z" fill="#263238"/>
<path d="M65.1344 20.2791C66.1528 22.2209 66.8488 23.2951 66.4776 24.8333C65.9208 27.1301 63.0742 27.6521 61.492 26.0513C60.0675 24.6082 58.6407 21.6734 60.035 19.8337C60.3427 19.4243 60.7496 19.1 61.2173 18.8914C61.685 18.6828 62.1981 18.5968 62.7083 18.6413C63.2185 18.6859 63.7089 18.8596 64.1333 19.1462C64.5578 19.4327 64.9023 19.8226 65.1344 20.2791Z" fill="#FF8B7B"/>
<path opacity="0.2" d="M62.8945 22.8057C62.9848 22.6618 63.1026 22.5371 63.2412 22.4388C63.3797 22.3405 63.5363 22.2704 63.7019 22.2327C63.4728 22.4746 63.1985 22.6692 62.8945 22.8057Z" fill="black"/>
<path opacity="0.2" d="M63.043 22.989C63.1513 22.8779 63.2826 22.7917 63.4276 22.7364C63.5726 22.6811 63.728 22.6581 63.8828 22.6688C63.6291 22.8345 63.3426 22.9437 63.043 22.989Z" fill="black"/>
<path d="M61.8779 24.9169C61.5578 25.1141 60.8061 26.0212 61.0775 26.6499C61.7735 26.7079 64.0657 25.4899 64.5575 25.0259C64.4253 24.4552 62.7363 24.3856 61.8779 24.9169Z" fill="#263238"/>
<path d="M61.3262 23.3762C61.3262 23.3762 61.6023 24.4434 61.5303 25.1046C61.9619 25.1603 62.3191 24.7381 62.3191 24.7381L61.3262 23.3762Z" fill="#FF5652"/>
<path d="M66.9752 19.3001C66.7641 18.2166 65.5159 17.6042 64.8872 17.7294C65.1041 17.6667 65.3021 17.5516 65.464 17.3942C65.6258 17.2368 65.7464 17.042 65.8152 16.827C65.8152 16.827 64.973 17.4766 64.1912 17.291C64.2538 17.0822 64.2433 16.8583 64.1615 16.6562C64.0796 16.4542 63.9314 16.2861 63.7411 16.1797C63.8554 16.503 63.8966 16.8477 63.8618 17.1889C63.8618 17.1889 62.0058 16.189 60.5836 17.0845C59.1313 18.0125 58.9387 19.9195 58.0038 20.4902C57.7531 20.6547 57.4552 20.732 57.1562 20.7102C56.8573 20.6884 56.5738 20.5687 56.3496 20.3696C56.3496 20.3696 57.6024 22.3671 59.6463 21.8057C62.1983 21.1097 62.1566 19.8592 62.1566 19.8592C62.1452 20.4039 61.947 20.9281 61.5951 21.344C63.1286 20.9403 63.3096 19.7803 63.3096 19.7803C62.9129 21.1723 64.6529 22.0818 65.7734 22.2581C66.1586 22.8056 66.4694 21.8103 66.4694 21.8103C66.9371 21.0627 67.1169 20.1705 66.9752 19.3001Z" fill="#263238"/>
<path d="M56.918 19.7966C58.6974 21.1283 59.7971 18.8501 59.5883 18.0845C59.5883 18.0961 58.6974 19.9034 56.918 19.7966Z" fill="#263238"/>
<path d="M66.9402 21.975C66.9321 22.4948 66.7273 22.9922 66.3671 23.367C65.9031 23.831 65.3742 23.3972 65.2628 22.7151C65.1607 22.1003 65.2837 21.1213 65.8707 20.9241C66.4576 20.7269 66.9541 21.3069 66.9402 21.975Z" fill="#FF8B7B"/>
<path d="M62.6776 23.0074C62.7518 23.1675 62.7263 23.3392 62.6196 23.3856C62.5128 23.432 62.3667 23.3415 62.2924 23.1791C62.2182 23.0167 62.2437 22.8474 62.3504 22.801C62.4572 22.7546 62.6033 22.845 62.6776 23.0074Z" fill="#263238"/>
<path d="M60.7342 23.8961C60.8108 24.0562 60.7829 24.2278 60.6785 24.2742C60.5741 24.3206 60.4233 24.2302 60.3491 24.0678C60.2748 23.9054 60.3004 23.736 60.4071 23.6896C60.5138 23.6432 60.66 23.7221 60.7342 23.8961Z" fill="#263238"/>
<path d="M62.8223 21.7012C62.8363 21.6901 62.8474 21.6758 62.8548 21.6595C62.8605 21.6469 62.8635 21.6333 62.8638 21.6195C62.864 21.6056 62.8615 21.5919 62.8563 21.5791C62.851 21.5663 62.8433 21.5547 62.8335 21.545C62.8236 21.5353 62.812 21.5277 62.7991 21.5226C62.6477 21.4527 62.4819 21.4198 62.3153 21.4267C62.1487 21.4335 61.9861 21.4799 61.8409 21.562C61.8292 21.5696 61.8192 21.5793 61.8113 21.5908C61.8034 21.6023 61.7979 21.6152 61.7951 21.6288C61.7923 21.6424 61.7923 21.6564 61.7949 21.6701C61.7976 21.6837 61.803 21.6967 61.8108 21.7082C61.8267 21.7309 61.8507 21.7466 61.8779 21.7522C61.905 21.7578 61.9333 21.7529 61.9569 21.7384C62.0724 21.6745 62.2013 21.6389 62.3332 21.6344C62.4651 21.63 62.5961 21.6569 62.7156 21.7128C62.7329 21.7203 62.7518 21.7231 62.7705 21.7211C62.7892 21.7191 62.807 21.7122 62.8223 21.7012Z" fill="#263238"/>
<path d="M59.6015 23.2349C59.6173 23.2284 59.6313 23.2182 59.6426 23.2054C59.6539 23.1925 59.662 23.1772 59.6664 23.1607C59.6914 23.0324 59.7465 22.9119 59.8272 22.809C59.9079 22.7062 60.0118 22.6239 60.1304 22.5691C60.1435 22.5649 60.1556 22.5582 60.166 22.5491C60.1763 22.5401 60.1847 22.529 60.1906 22.5166C60.1965 22.5042 60.1997 22.4907 60.2002 22.477C60.2006 22.4632 60.1982 22.4496 60.1931 22.4368C60.1884 22.4238 60.1812 22.4119 60.1719 22.4017C60.1626 22.3915 60.1514 22.3833 60.1388 22.3774C60.1263 22.3716 60.1128 22.3683 60.099 22.3678C60.0852 22.3672 60.0714 22.3694 60.0585 22.3742C59.9059 22.4393 59.7713 22.5405 59.6662 22.6689C59.5612 22.7974 59.4888 22.9494 59.4553 23.1119C59.4497 23.1396 59.455 23.1683 59.4702 23.1921C59.4853 23.2159 59.5091 23.2329 59.5365 23.2395C59.5581 23.2448 59.5808 23.2432 59.6015 23.2349Z" fill="#263238"/>
<path d="M62.2396 44.3119C62.0076 43.3306 61.6805 42.1915 61.3835 41.1707C60.9179 39.5914 60.7603 37.9374 60.9195 36.2987C61.1817 33.6562 60.9195 30.545 62.1027 29.3711C62.2749 29.2354 62.4697 29.1309 62.6781 29.0626C62.6965 29.0574 62.7161 29.0579 62.7342 29.064C62.7524 29.0701 62.7683 29.0816 62.7798 29.0969C62.7913 29.1122 62.798 29.1306 62.7989 29.1497C62.7997 29.1688 62.7948 29.1878 62.7848 29.2041C62.4159 29.7609 61.8313 31.2921 62.1932 33.8627C65.3043 33.5309 69.3852 32.3245 69.3852 32.3245C69.3852 32.3245 68.8191 29.5034 69.2135 27.7611C69.2193 27.7338 69.2341 27.7093 69.2556 27.6916C69.2771 27.6739 69.304 27.6641 69.3318 27.6636L69.8654 27.6381C69.8836 27.6372 69.9018 27.6404 69.9187 27.6474C69.9355 27.6544 69.9506 27.665 69.9628 27.6786C69.975 27.6921 69.9841 27.7082 69.9893 27.7257C69.9945 27.7432 69.9958 27.7616 69.993 27.7796C69.5453 30.6982 70.9048 35.7674 73.7282 35.3312C73.8535 36.4912 75.2989 41.6602 75.2989 41.6602C75.2989 41.6602 77.9181 52.4946 78.5329 62.1759C73.1297 65.1919 62.4832 63.9554 62.4832 63.9554C62.4832 63.9554 62.8428 46.7804 62.2396 44.3119Z" fill="#263238"/>
<path d="M85.8776 52.6639L85.757 52.4667C87.4784 51.4065 88.1767 50.1745 87.6687 49.0888C87.0492 47.7617 84.5877 46.8709 82.0473 47.7177C81.5207 47.894 81.0265 48.0865 80.5509 48.2745C78.5951 49.0424 76.9062 49.7059 74.1523 48.6549L74.2335 48.4369C76.9039 49.4553 78.5534 48.8081 80.4651 48.0587C80.9453 47.8708 81.4418 47.6759 81.9731 47.4973C84.6712 46.5994 87.2047 47.5437 87.8798 48.989C88.4412 50.1885 87.7127 51.5294 85.8776 52.6639Z" fill="#EF233C"/>
<path opacity="0.2" d="M63.1914 37.54C64.2865 37.3799 67.3674 36.895 69.6178 36.2222C69.6727 36.205 69.7313 36.2034 69.787 36.2177C69.8426 36.2319 69.8932 36.2615 69.933 36.303C69.9728 36.3444 70.0003 36.3962 70.0122 36.4525C70.0241 36.5087 70.0201 36.5672 70.0006 36.6213C69.1724 38.8508 67.6273 39.9829 66.3466 40.1453C64.4164 40.3912 63.3492 38.7533 62.9594 37.9831C62.9371 37.9395 62.9256 37.8911 62.9258 37.8421C62.926 37.7931 62.938 37.7449 62.9607 37.7015C62.9834 37.6581 63.0163 37.6207 63.0564 37.5926C63.0966 37.5645 63.1429 37.5465 63.1914 37.54Z" fill="white"/>
<path d="M72.5489 45.3097C71.3739 45.0382 70.1727 44.8967 68.9668 44.8875C67.192 44.8875 65.1574 45.3027 65.8557 45.9941C65.9423 46.0723 66.0108 46.1684 66.0565 46.2758C66.1022 46.3832 66.1239 46.4992 66.1202 46.6159C66.0511 47.4471 66.1807 48.2829 66.4983 49.0542C66.5753 49.2184 66.6988 49.3565 66.8534 49.4513C67.008 49.5461 67.187 49.5936 67.3683 49.5878H73.507C73.7093 49.5978 73.909 49.5397 74.0743 49.4228C74.2396 49.3058 74.3609 49.1368 74.4188 48.9428C74.7343 47.4789 73.6323 45.5719 72.5489 45.3097ZM72.9433 47.1889C71.4631 47.059 68.5631 46.9244 67.9762 46.9244C67.3892 46.9244 67.0226 45.5951 68.1014 45.5927C70.5699 45.5927 71.883 45.8526 72.5419 46.131C73.2008 46.4094 74.4234 47.3281 72.9433 47.1889Z" fill="#EF233C"/>
<path opacity="0.4" d="M72.5489 45.3097C71.3739 45.0382 70.1727 44.8967 68.9668 44.8875C67.192 44.8875 65.1574 45.3027 65.8557 45.9941C65.9423 46.0723 66.0108 46.1684 66.0565 46.2758C66.1022 46.3832 66.1239 46.4992 66.1202 46.6159C66.0511 47.4471 66.1807 48.2829 66.4983 49.0542C66.5753 49.2184 66.6988 49.3565 66.8534 49.4513C67.008 49.5461 67.187 49.5936 67.3683 49.5878H73.507C73.7093 49.5978 73.909 49.5397 74.0743 49.4228C74.2396 49.3058 74.3609 49.1368 74.4188 48.9428C74.7343 47.4789 73.6323 45.5719 72.5489 45.3097ZM72.9433 47.1889C71.4631 47.059 68.5631 46.9244 67.9762 46.9244C67.3892 46.9244 67.0226 45.5951 68.1014 45.5927C70.5699 45.5927 71.883 45.8526 72.5419 46.131C73.2008 46.4094 74.4234 47.3281 72.9433 47.1889Z" fill="white"/>
<path d="M73.9121 50.1514H66.6296C66.5577 50.1497 66.4892 50.1207 66.4379 50.0703C66.3866 50.0199 66.3564 49.9518 66.3535 49.88C66.3535 49.8049 66.3833 49.7329 66.4364 49.6798C66.4895 49.6267 66.5615 49.5969 66.6366 49.5969H73.919C73.9929 49.5987 74.0631 49.6294 74.1147 49.6822C74.1663 49.7351 74.1951 49.8061 74.1951 49.88C74.1921 49.953 74.161 50.022 74.1082 50.0726C74.0555 50.1232 73.9852 50.1515 73.9121 50.1514Z" fill="#EF233C"/>
<path d="M71.0539 47.509H67.669C67.6177 47.509 67.5762 47.5506 67.5762 47.6018C67.5762 47.6531 67.6177 47.6946 67.669 47.6946H71.0539C71.1051 47.6946 71.1467 47.6531 71.1467 47.6018C71.1467 47.5506 71.1051 47.509 71.0539 47.509Z" fill="#EF233C"/>
<path d="M71.0539 47.9312H67.669C67.6177 47.9312 67.5762 47.9727 67.5762 48.024C67.5762 48.0752 67.6177 48.1167 67.669 48.1167H71.0539C71.1051 48.1167 71.1467 48.0752 71.1467 48.024C71.1467 47.9727 71.1051 47.9312 71.0539 47.9312Z" fill="#EF233C"/>
<path d="M71.0539 48.3535H67.669C67.6177 48.3535 67.5762 48.3951 67.5762 48.4463C67.5762 48.4976 67.6177 48.5391 67.669 48.5391H71.0539C71.1051 48.5391 71.1467 48.4976 71.1467 48.4463C71.1467 48.3951 71.1051 48.3535 71.0539 48.3535Z" fill="#EF233C"/>
<path d="M71.0539 48.7756H67.669C67.6177 48.7756 67.5762 48.8172 67.5762 48.8684C67.5762 48.9197 67.6177 48.9612 67.669 48.9612H71.0539C71.1051 48.9612 71.1467 48.9197 71.1467 48.8684C71.1467 48.8172 71.1051 48.7756 71.0539 48.7756Z" fill="#EF233C"/>
<path d="M73.7103 50.1514H66.8315L66.5879 50.5527H73.9516L73.7103 50.1514Z" fill="white"/>
<path d="M53.7715 47.7317L52.3795 48.4022C51.8776 48.6475 51.4248 48.9825 51.0432 49.3905L50.7091 49.7478C50.5444 49.9241 50.6186 50.2698 50.8669 50.4646L51.7763 51.1792C51.838 51.2354 51.9145 51.2726 51.9968 51.2866C52.079 51.3006 52.1635 51.2907 52.2403 51.2581L53.1034 50.7941C53.1034 50.7941 54.9594 50.1445 54.667 48.6527L53.7715 47.7317Z" fill="#EF233C"/>
<path d="M52.848 48.1817C52.848 48.1817 54.0915 47.6202 54.8362 46.7734C55.7642 47.6898 56.1981 48.6086 56.2282 48.9519C55.3814 49.2744 54.704 49.5064 54.2817 49.6363C53.8595 49.7662 52.8271 49.2187 52.848 48.1817Z" fill="#EF233C"/>
<path d="M73.6141 29.9744C73.7812 30.1299 73.9041 30.2528 74.041 30.392C74.1779 30.5312 74.3055 30.6635 74.4354 30.8003C74.6929 31.0741 74.9389 31.3571 75.1825 31.6425C75.6697 32.2155 76.1267 32.8025 76.5605 33.4335C77.4616 34.6971 78.1888 36.0759 78.7228 37.533C78.7854 37.7232 78.8504 37.9111 78.9061 38.1083L78.9478 38.2545L78.971 38.3311L78.9989 38.4471C79.0376 38.5993 79.064 38.7545 79.0777 38.9111C79.1276 39.526 79.0012 40.1424 78.7135 40.6882C78.2599 41.4945 77.6104 42.1735 76.825 42.6625C76.1724 43.0907 75.4783 43.4522 74.7533 43.7413C74.0551 44.0298 73.3352 44.2625 72.6003 44.4373C72.4125 44.4824 72.2148 44.4581 72.0435 44.3689C71.8723 44.2797 71.739 44.1316 71.6684 43.9519C71.5978 43.7721 71.5945 43.5729 71.6591 43.391C71.7238 43.209 71.8521 43.0566 72.0203 42.9618L72.0574 42.9409C73.2174 42.2797 74.4145 41.5373 75.3054 40.7091C75.6927 40.3882 76.0021 39.9836 76.2102 39.5259C76.2464 39.4326 76.2464 39.3291 76.2102 39.2359C76.2043 39.2199 76.1974 39.2044 76.1893 39.1895V39.1755L76.1708 39.1268L76.129 39.0201C76.078 38.8786 76.0153 38.7347 75.9573 38.5955C75.4172 37.4245 74.7472 36.3179 73.9598 35.2965C73.5654 34.7675 73.1432 34.2502 72.7093 33.7421C72.4913 33.4892 72.2685 33.241 72.0458 32.9927L71.7094 32.6285L71.3869 32.2921L71.3429 32.248C71.0633 31.9433 70.912 31.5425 70.9202 31.129C70.9285 30.7156 71.0958 30.3212 71.3873 30.0279C71.6789 29.7345 72.0722 29.5648 72.4856 29.554C72.899 29.5432 73.3007 29.6921 73.6072 29.9698L73.6141 29.9744Z" fill="#FF8B7B"/>
<path d="M70.5289 27.7217C74.2665 27.5918 76.5238 31.7678 76.5238 31.7678L73.3129 35.8533C73.3129 35.8533 71.6889 35.3128 70.6148 32.77C70.0905 31.552 69.8097 27.8934 70.5289 27.7217Z" fill="#EF233C"/>
<path d="M72.5376 45.0567C72.5376 45.0567 74.2243 44.5811 75.2984 44.2377C74.8344 43.029 73.5468 42.1335 73.2777 41.9177C72.5283 42.4258 71.5609 43.1218 71.2709 43.4582C70.9809 43.7946 71.5771 44.66 72.5376 45.0567Z" fill="#EF233C"/>
<path d="M73.1963 43.4675L71.9923 42.855L71.1988 43.4025C70.5433 43.8495 69.9937 44.4347 69.5887 45.117L69.5122 45.2492C69.461 45.3341 69.4285 45.4289 69.4169 45.5274C69.4053 45.6258 69.4149 45.7256 69.445 45.8201C69.475 45.9145 69.525 46.0015 69.5914 46.0751C69.6578 46.1486 69.7392 46.2072 69.83 46.2468L70.6768 46.6691C70.839 46.7503 71.0237 46.7745 71.2013 46.7379C71.3789 46.7013 71.5391 46.6059 71.6559 46.4672L72.331 45.632C72.331 45.632 73.8135 44.3259 73.1963 43.4675Z" fill="#EF233C"/>
<path opacity="0.4" d="M63.9266 22.3578C64.0086 22.5169 64.0581 22.6906 64.0722 22.869C64.0863 23.0473 64.0648 23.2267 64.0088 23.3967C63.9529 23.5666 63.8637 23.7237 63.7464 23.8588C63.6291 23.994 63.4861 24.1044 63.3257 24.1837C62.9403 24.3829 62.4943 24.4309 62.0753 24.3182C61.7853 24.2347 61.5417 24.2301 61.5277 24.5317C61.5332 24.6459 61.5051 24.7592 61.447 24.8578C61.3889 24.9563 61.3032 25.0356 61.2006 25.0861C60.6485 25.3042 59.9455 25.0444 59.5766 24.3391C59.4606 24.1071 59.3632 23.7568 59.4815 23.5665L63.4255 21.8103C63.6384 21.9448 63.8115 22.1339 63.9266 22.3578Z" fill="#EF233C"/>
<path d="M64.7122 21.3208L59.4458 23.8218C59.4088 23.8394 59.3664 23.8417 59.3278 23.8282C59.2891 23.8148 59.2573 23.7866 59.2393 23.7498C59.2219 23.7126 59.2199 23.67 59.2338 23.6313C59.2477 23.5926 59.2764 23.561 59.3136 23.5434L64.5799 21.0401C64.6173 21.0232 64.6597 21.0216 64.6982 21.0354C64.7367 21.0493 64.7684 21.0776 64.7864 21.1143C64.7954 21.1327 64.8006 21.1527 64.8017 21.1731C64.8028 21.1935 64.7998 21.214 64.7929 21.2332C64.786 21.2525 64.7753 21.2701 64.7614 21.2852C64.7475 21.3002 64.7308 21.3123 64.7122 21.3208Z" fill="#263238"/>
<path d="M50.4528 61.1296H49.084V96.5282H50.4528V61.1296Z" fill="#EF233C"/>
<path opacity="0.1" d="M50.4528 61.1296H49.084V96.5282H50.4528V61.1296Z" fill="white"/>
<path d="M91.0204 51.7661H32.1133V54.97H91.0204V51.7661Z" fill="#EF233C"/>
<path d="M88.6686 54.97H34.4688V61.1296H88.6686V54.97Z" fill="#EF233C"/>
<path opacity="0.3" d="M88.6686 54.97H34.4688V61.1296H88.6686V54.97Z" fill="white"/>
<path d="M88.3099 72.1333H34.8223V76.8963H88.3099V72.1333Z" fill="#EF233C"/>
<path opacity="0.3" d="M88.3099 72.1333H34.8223V76.8963H88.3099V72.1333Z" fill="white"/>
<path d="M35.8375 61.1296H34.4688V96.5282H35.8375V61.1296Z" fill="#EF233C"/>
<path opacity="0.3" d="M35.8375 61.1296H34.4688V96.5282H35.8375V61.1296Z" fill="white"/>
<path d="M74.0504 61.1296H72.6816V96.5282H74.0504V61.1296Z" fill="#EF233C"/>
<path opacity="0.3" d="M74.0504 61.1296H72.6816V96.5282H74.0504V61.1296Z" fill="white"/>
<path d="M88.6676 61.1296H87.2988V96.5282H88.6676V61.1296Z" fill="#EF233C"/>
<path opacity="0.1" d="M88.6676 61.1296H87.2988V96.5282H88.6676V61.1296Z" fill="white"/>
<path opacity="0.3" d="M91.0225 51.7661H75.8984V54.97H91.0225V51.7661Z" fill="black"/>
<path d="M77.4511 50.5527H37.2246V51.7661H77.4511V50.5527Z" fill="#EF233C"/>
<path opacity="0.7" d="M77.4511 50.5527H37.2246V51.7661H77.4511V50.5527Z" fill="white"/>
<path opacity="0.3" d="M77.4517 50.5527H69.2969V51.7661H77.4517V50.5527Z" fill="#EF233C"/>
<path opacity="0.7" d="M88.6672 54.97H74.0488V61.1296H88.6672V54.97Z" fill="#EF233C"/>
<path opacity="0.7" d="M87.2984 72.1333H74.0488V76.8963H87.2984V72.1333Z" fill="#EF233C"/>
<path opacity="0.2" d="M43.0238 51.7661H37.9824V61.1296H43.0238V51.7661Z" fill="black"/>
<path d="M44.3234 31.5381H36.2545L32.1133 97.1918H40.1822L44.3234 31.5381Z" fill="#EF233C"/>
<path opacity="0.7" d="M44.3234 31.5381H36.2545L32.1133 97.1918H40.1822L44.3234 31.5381Z" fill="white"/>
<path opacity="0.3" d="M44.3235 31.5381H43.356L39.2148 97.1918H40.1823L44.3235 31.5381Z" fill="#EF233C"/>
<path opacity="0.2" d="M36.171 44.804H35.417L32.1133 97.1919H35.2499L36.171 44.804Z" fill="#EF233C"/>
<path opacity="0.1" d="M35.6022 95.9251C35.3262 95.9291 35.053 95.8682 34.8048 95.7473C34.5566 95.6264 34.3402 95.4489 34.1731 95.2291C33.8727 94.8361 33.6513 94.3886 33.5212 93.9113C33.1407 92.4822 33.4214 90.9487 33.6929 89.4685L33.7648 89.0765C34.781 83.4249 34.8065 77.6319 34.8297 72.0291C34.8506 66.7441 34.8738 61.2782 35.7275 55.9306C35.7319 55.9051 35.7441 55.8816 35.7623 55.8633C35.9267 55.728 36.136 55.6598 36.3485 55.6723C36.5611 55.6847 36.761 55.777 36.9084 55.9306C37.1554 56.2231 37.3097 56.5825 37.3515 56.963C37.8341 59.4454 37.6067 62.067 37.3863 64.5842C37.3237 65.3127 37.2564 66.0667 37.21 66.8045C37.0406 69.4469 37.094 72.1405 37.145 74.7273C37.2146 78.2699 37.2866 81.9309 36.797 85.5338C36.7437 85.9305 36.681 86.3273 36.6207 86.724C36.3632 88.4037 36.0964 90.139 36.3887 91.8094C36.477 92.3051 36.477 92.8125 36.3887 93.3081C36.3572 93.5029 36.2507 93.6775 36.092 93.7946C35.9332 93.9117 35.7349 93.962 35.5396 93.9345C35.4519 93.9271 35.3667 93.902 35.2889 93.861C35.2111 93.8199 35.1423 93.7636 35.0867 93.6954C35.0311 93.6272 34.9897 93.5486 34.9651 93.4641C34.9405 93.3797 34.9331 93.2911 34.9434 93.2037L35.8018 79.6805C36.0338 75.9685 36.282 72.1381 35.4654 68.5097C35.462 68.4944 35.4617 68.4787 35.4644 68.4633C35.4672 68.448 35.4729 68.4333 35.4813 68.4202C35.4897 68.407 35.5006 68.3957 35.5134 68.3867C35.5262 68.3778 35.5406 68.3715 35.5558 68.3681C35.5711 68.3648 35.5868 68.3645 35.6022 68.3672C35.6175 68.3699 35.6322 68.3757 35.6453 68.3841C35.6585 68.3925 35.6698 68.4034 35.6788 68.4162C35.6877 68.429 35.694 68.4434 35.6974 68.4586C36.521 72.1196 36.275 75.9708 36.0384 79.6967L35.1777 93.2177C35.1703 93.2756 35.1747 93.3345 35.1908 93.3907C35.2068 93.4469 35.2341 93.4993 35.271 93.5446C35.3078 93.59 35.3535 93.6273 35.4053 93.6545C35.4571 93.6816 35.5138 93.698 35.5721 93.7025C35.6399 93.7131 35.7091 93.71 35.7758 93.6937C35.8425 93.6773 35.9052 93.6479 35.9604 93.6071C36.0157 93.5663 36.0622 93.515 36.0975 93.4561C36.1328 93.3973 36.1561 93.332 36.166 93.2641C36.2496 92.796 36.2496 92.3169 36.166 91.8489C35.8806 90.1413 36.1498 88.3874 36.4096 86.6892C36.4699 86.2925 36.5302 85.8981 36.5859 85.5013C37.0731 81.9169 37.0012 78.2653 36.9316 74.7319C36.8806 72.1312 36.8272 69.4423 36.9966 66.7905C37.0453 66.0505 37.1102 65.2941 37.1729 64.5657C37.3933 62.0531 37.6183 59.4617 37.1427 57.0071C37.1064 56.6729 36.9743 56.3563 36.7622 56.0953C36.6606 55.991 36.526 55.9252 36.3813 55.9092C36.2366 55.8931 36.0908 55.9277 35.9688 56.0072C35.1243 61.3246 35.1011 66.7673 35.0802 72.0291C35.057 77.6435 35.0315 83.4458 34.0107 89.1159L33.9388 89.5103C33.672 90.9673 33.3959 92.4729 33.7648 93.851C33.8857 94.2997 34.0929 94.7206 34.375 95.0899C34.5735 95.3488 34.8476 95.5396 35.1593 95.636C35.471 95.7324 35.8049 95.7297 36.115 95.6281C36.484 95.5299 36.8145 95.3221 37.063 95.0322C37.3115 94.7423 37.4663 94.3838 37.507 94.0041C37.5928 93.1852 37.6114 92.3361 37.6253 91.5867L37.8341 81.091C37.9269 76.4232 38.0243 71.5953 38.0406 66.8509C38.0591 62.3988 38.0081 57.8887 37.8921 53.4482C37.9046 53.0832 37.8496 52.719 37.7297 52.3741C37.6507 52.21 37.555 52.0546 37.4443 51.9101C37.331 51.7552 37.2316 51.5906 37.1474 51.4182C36.8829 50.8313 36.985 50.1654 37.0824 49.5228C37.1386 49.2084 37.1734 48.8906 37.1868 48.5716C37.1984 47.8454 36.9664 47.1796 36.7228 46.4836C36.4899 45.8871 36.334 45.2634 36.2588 44.6276C36.1753 43.5952 36.5047 42.5674 36.8249 41.5768C37.0953 40.8335 37.2821 40.0623 37.3817 39.2777C37.4168 38.611 37.3841 37.9425 37.2842 37.2825C37.1914 36.6443 37.1557 35.9991 37.1775 35.3545C37.268 33.9417 38.1798 32.4174 39.5509 32.32C39.8583 32.3056 40.1639 32.3748 40.4352 32.5202C40.7064 32.6656 40.9332 32.8819 41.0914 33.1459C41.2771 33.4156 41.3864 33.7305 41.4076 34.0573C41.4288 34.384 41.3613 34.7104 41.212 35.0019C41.1972 35.029 41.1723 35.0491 41.1427 35.0578C41.1131 35.0665 41.0813 35.0631 41.0542 35.0483C41.0272 35.0335 41.0071 35.0086 40.9984 34.979C40.9897 34.9494 40.9931 34.9176 41.0078 34.8905C41.1346 34.6374 41.1911 34.355 41.1715 34.0726C41.1519 33.7902 41.0569 33.5183 40.8965 33.2851C40.7616 33.0552 40.5665 32.8665 40.3322 32.7394C40.0979 32.6122 39.8334 32.5514 39.5671 32.5636C38.3398 32.6517 37.4791 34.0948 37.4095 35.3824C37.3892 36.0122 37.4249 36.6427 37.5162 37.2662C37.6175 37.9417 37.6501 38.6257 37.6137 39.3078C37.5121 40.1106 37.3214 40.8997 37.0453 41.6603C36.7182 42.6741 36.4096 43.6323 36.4908 44.6206C36.5684 45.235 36.7244 45.8369 36.9548 46.4117C37.1868 47.1077 37.442 47.8222 37.4304 48.5878C37.4179 48.9186 37.3823 49.2481 37.3237 49.5738C37.2262 50.2095 37.1334 50.8104 37.3701 51.337C37.448 51.4996 37.5404 51.6549 37.6462 51.801C37.7665 51.9624 37.8699 52.1358 37.9547 52.3184C38.0873 52.6903 38.1487 53.0838 38.1357 53.4784C38.2517 57.9235 38.3027 62.4359 38.2842 66.8903C38.2679 71.6347 38.1705 76.4626 38.0777 81.1328L37.8689 91.6285C37.855 92.3825 37.8364 93.2362 37.7506 94.0668C37.7028 94.4914 37.528 94.8918 37.249 95.2155C36.97 95.5392 36.5998 95.7711 36.1869 95.881C35.9952 95.9239 35.7982 95.9388 35.6022 95.9251Z" fill="#EF233C"/>
<path opacity="0.1" d="M40.0754 61.8953C39.9226 61.9002 39.7734 61.8484 39.6564 61.7499C39.5395 61.6514 39.4632 61.5131 39.442 61.3617C39.0871 59.3155 39.1636 57.2019 39.2936 54.8518V54.817C39.3853 53.7998 39.3713 52.7758 39.2518 51.7615C39.1708 51.287 39.0655 50.817 38.9363 50.3533C38.869 50.0935 38.7994 49.8336 38.7414 49.5715C38.5327 48.568 38.3832 47.5532 38.2936 46.5323L37.9549 43.4072C37.8505 42.4421 37.709 41.122 38.3354 40.0595C38.3816 39.9561 38.4508 39.8645 38.5376 39.7918C38.6244 39.719 38.7266 39.667 38.8365 39.6395C38.958 39.6357 39.0785 39.6626 39.1868 39.7178C39.295 39.7729 39.3876 39.8546 39.456 39.9551C40.2494 40.8831 40.6345 42.2542 40.5974 44.0174C40.5835 44.6739 40.5208 45.3375 40.4582 45.9824C40.3711 46.7567 40.3246 47.5349 40.319 48.314C40.3185 48.3444 40.3065 48.3735 40.2854 48.3955C40.2643 48.4174 40.2357 48.4306 40.2053 48.4323C40.1899 48.4327 40.1746 48.4299 40.1602 48.4242C40.1459 48.4185 40.1328 48.41 40.1218 48.3992C40.1108 48.3884 40.102 48.3755 40.0961 48.3613C40.0901 48.3471 40.087 48.3318 40.087 48.3163C40.0921 47.5287 40.1394 46.7418 40.2285 45.9592C40.2888 45.3212 40.3515 44.66 40.3654 44.0127C40.4002 42.3075 40.036 40.9967 39.2796 40.1035C39.1288 39.9272 38.9943 39.8483 38.8713 39.8715C38.7484 39.8947 38.6393 39.9945 38.5349 40.1801C37.992 41.1081 38.0709 42.2194 38.1869 43.384L38.5233 46.5091C38.6121 47.5222 38.76 48.5292 38.9664 49.5251C39.0268 49.7849 39.094 50.0401 39.159 50.2976C39.2921 50.7686 39.3997 51.2465 39.4815 51.7291C39.6029 52.7603 39.6176 53.8013 39.5256 54.8355V54.868C39.398 57.2043 39.3191 59.3039 39.6694 61.3269C39.6822 61.429 39.7346 61.522 39.8153 61.5858C39.8961 61.6496 39.9986 61.6791 40.1009 61.6679C40.2223 61.6628 40.3374 61.6123 40.4233 61.5264C40.5093 61.4404 40.5598 61.3254 40.5649 61.2039C40.6003 60.1751 40.5568 59.1452 40.435 58.123C40.3956 57.6938 40.3538 57.2507 40.326 56.8191C40.1195 53.7034 40.5881 50.5203 41.0405 47.4417C41.3004 45.6739 41.5672 43.8457 41.7064 42.05C41.764 41.4633 41.7726 40.8727 41.7319 40.2845C41.6279 39.4434 41.4342 38.6159 41.1542 37.816C41.1333 37.7464 41.1055 37.6768 41.066 37.6629C41.0606 37.6602 41.0547 37.6589 41.0486 37.6589C41.0426 37.6589 41.0367 37.6602 41.0312 37.6629C40.9686 37.6954 40.9106 37.8787 40.8735 38.0016C40.8549 38.055 40.8387 38.1107 40.8201 38.1571C40.7406 38.3252 40.6073 38.462 40.4414 38.546C40.2755 38.6301 40.0863 38.6565 39.9037 38.6211C39.7402 38.582 39.586 38.5108 39.4502 38.4116C39.3144 38.3125 39.1996 38.1873 39.1126 38.0434C38.9009 37.7011 38.763 37.3183 38.7079 36.9195C38.6527 36.5208 38.6815 36.115 38.7924 35.728C39.0252 34.9341 39.4536 34.2114 40.0383 33.6261C40.0549 33.6086 40.0766 33.5968 40.1003 33.5922C40.124 33.5876 40.1486 33.5906 40.1705 33.6006C40.3463 33.6867 40.4839 33.8349 40.5568 34.0166C40.6296 34.1983 40.6325 34.4006 40.5649 34.5843C40.5601 34.599 40.5523 34.6126 40.5421 34.6243C40.5319 34.6359 40.5194 34.6455 40.5055 34.6522C40.4915 34.659 40.4764 34.6629 40.4609 34.6637C40.4454 34.6646 40.4299 34.6623 40.4153 34.657C40.4007 34.6517 40.3874 34.6436 40.376 34.633C40.3646 34.6225 40.3554 34.6098 40.3491 34.5957C40.3427 34.5815 40.3392 34.5662 40.3388 34.5507C40.3384 34.5352 40.3412 34.5198 40.3468 34.5054C40.3885 34.3892 40.3913 34.2626 40.3549 34.1446C40.3185 34.0267 40.2449 33.9237 40.145 33.8511C39.6175 34.3949 39.2305 35.059 39.0175 35.786C38.9124 36.143 38.8835 36.5181 38.9327 36.887C38.9818 37.2559 39.1079 37.6104 39.3028 37.9274C39.4464 38.1655 39.6768 38.3385 39.9455 38.4099C40.076 38.4349 40.211 38.4164 40.33 38.3574C40.449 38.2983 40.5454 38.2019 40.6044 38.0828C40.6206 38.0387 40.6345 37.99 40.6508 37.939C40.7134 37.7418 40.776 37.5399 40.9245 37.4634C40.9911 37.431 41.0677 37.426 41.138 37.4495C41.198 37.478 41.2504 37.5205 41.2908 37.5733C41.3311 37.6262 41.3583 37.6879 41.37 37.7534C41.6565 38.5665 41.8549 39.4081 41.9616 40.2636C42.0043 40.8649 41.9965 41.4686 41.9384 42.0686C41.7992 43.8712 41.53 45.704 41.2702 47.4742C40.8201 50.5412 40.3538 53.7127 40.558 56.8052C40.5858 57.2321 40.6252 57.6752 40.667 58.1021C40.7891 59.1367 40.8326 60.179 40.7969 61.2202C40.7872 61.4003 40.7103 61.5702 40.5815 61.6965C40.4526 61.8227 40.2812 61.8962 40.1009 61.9023L40.0754 61.8953Z" fill="#EF233C"/>
<path opacity="0.1" d="M39.1359 91.1225C39.1098 91.1221 39.0847 91.113 39.0645 91.0966C39.0443 91.0802 39.0302 91.0575 39.0245 91.0321C38.7307 89.8782 38.5282 88.7029 38.419 87.5173C38.3717 86.6718 38.3764 85.8241 38.4329 84.9792C38.5605 82.4272 38.818 79.8404 39.0686 77.3232C39.5001 72.9755 39.9479 68.4793 39.7251 64.1108C39.7242 64.0955 39.7263 64.0803 39.7313 64.0658C39.7362 64.0514 39.744 64.0381 39.7541 64.0267C39.7643 64.0152 39.7765 64.0059 39.7903 63.9993C39.804 63.9926 39.8189 63.9887 39.8342 63.9878C39.865 63.9871 39.895 63.9983 39.9178 64.019C39.9407 64.0397 39.9548 64.0684 39.9571 64.0992C40.1891 68.4863 39.7251 72.9894 39.2983 77.3441C39.05 79.8497 38.7925 82.4481 38.6649 84.9792C38.6084 85.8148 38.6037 86.6532 38.651 87.4894C38.7598 88.6632 38.96 89.8267 39.2495 90.9694C39.253 90.984 39.2535 90.9992 39.251 91.014C39.2485 91.0289 39.2432 91.043 39.2352 91.0558C39.2272 91.0685 39.2168 91.0795 39.2045 91.0882C39.1922 91.0969 39.1784 91.103 39.1637 91.1063L39.1359 91.1225Z" fill="#EF233C"/>
<path d="M37.2401 41.9202H27.2873L20.7402 97.4401H30.693L37.2401 41.9202Z" fill="#EF233C"/>
<path opacity="0.7" d="M37.2401 41.9202H27.2873L20.7402 97.4401H30.693L37.2401 41.9202Z" fill="white"/>
<path opacity="0.3" d="M37.2399 41.9202H36.0451L29.498 97.4401H30.6928L37.2399 41.9202Z" fill="#EF233C"/>
<path opacity="0.1" d="M25.1305 96.3867H24.9936C24.641 96.3826 24.2932 96.3038 23.9733 96.1554C23.6534 96.007 23.3686 95.7925 23.1376 95.526C22.9341 95.2871 22.7815 95.0091 22.6893 94.7091C22.5972 94.409 22.5674 94.0933 22.6017 93.7813C22.6942 93.2181 22.8547 92.6681 23.0796 92.1434C23.3097 91.6087 23.4658 91.0452 23.5436 90.4684C23.5605 89.8146 23.4663 89.1628 23.2652 88.5405C23.0332 87.6937 22.8175 86.819 23.1098 85.9328C23.3338 85.3672 23.6403 84.8379 24.0192 84.3621C24.4252 83.7937 24.8452 83.2021 24.9472 82.6013C24.9868 82.338 25.0008 82.0715 24.989 81.8055C24.989 81.2557 24.9728 80.6849 25.4089 80.1815C25.5516 80.0309 25.7068 79.8928 25.8729 79.7685C26.0318 79.6476 26.1786 79.5116 26.3114 79.3625C26.5086 79.0977 26.6405 78.7901 26.6965 78.4647C27.6245 74.7086 28.4922 70.8969 29.2601 67.1315C30.0791 63.1225 30.8168 59.0417 31.5314 55.0953L33.1368 46.2167C33.2725 45.5433 33.367 44.8623 33.4199 44.1774C33.4547 43.5881 32.9791 43.2494 32.6937 43.0917C32.2163 42.8566 31.6845 42.754 31.154 42.7949C30.6234 42.8357 30.1135 43.0183 29.6777 43.3237C29.2895 43.6085 28.9589 43.9643 28.7033 44.3723C28.0073 45.5323 28.0839 46.7944 28.1535 48.0193L28.172 48.3534C28.4249 53.1535 27.425 58.0649 26.4552 62.814C25.5504 67.2545 24.6155 71.8434 24.7083 76.3257C24.8788 76.3913 25.0621 76.4173 25.2442 76.4016C25.4263 76.386 25.6024 76.329 25.7592 76.2352C26.0444 76.0463 26.2666 75.7765 26.3972 75.4603C27.4157 73.3955 27.5967 71.2031 27.773 69.0849C27.824 68.4655 27.8774 67.8275 27.9493 67.2011C28.2115 64.9553 28.7544 62.6794 29.2787 60.4731C29.9909 57.4873 30.7287 54.4017 30.7635 51.3764C30.7635 51.0423 30.7635 50.7082 30.7635 50.3741C30.7449 48.9334 30.724 47.444 31.3829 45.994C31.5615 45.6276 31.6468 45.2227 31.6312 44.8154C31.6149 44.5834 31.3249 44.4767 31.0836 44.4697C30.7472 44.4697 30.3876 44.6043 30.3459 44.8873L29.0072 56.3203C28.6384 59.4732 28.2556 62.7351 26.5875 65.8323C26.581 65.8468 26.5715 65.8598 26.5598 65.8705C26.548 65.8812 26.5342 65.8894 26.5192 65.8946C26.5041 65.8997 26.4882 65.9017 26.4723 65.9004C26.4565 65.8991 26.441 65.8946 26.427 65.8871C26.413 65.8796 26.4006 65.8693 26.3908 65.8569C26.3809 65.8444 26.3737 65.83 26.3696 65.8147C26.3655 65.7993 26.3646 65.7833 26.3669 65.7675C26.3693 65.7518 26.3749 65.7367 26.3833 65.7233C28.0305 62.6609 28.4087 59.4221 28.7752 56.2878L30.1162 44.8549C30.1649 44.4303 30.6475 44.2238 31.0883 44.2331C31.5291 44.2424 31.84 44.4651 31.8608 44.7969C31.8799 45.2415 31.7883 45.684 31.594 46.0845C30.956 47.4765 30.9769 48.952 30.9955 50.3649C30.9955 50.7013 30.9955 51.0377 30.9955 51.3741C30.9607 54.4272 30.2206 57.5244 29.506 60.5218C28.9817 62.7165 28.4388 64.9855 28.179 67.2173C28.1071 67.8391 28.0537 68.4748 28.0027 69.0919C27.8264 71.2333 27.6431 73.4465 26.6107 75.5508C26.4638 75.9091 26.2103 76.2137 25.8845 76.4231C25.504 76.6551 24.8684 76.7247 24.532 76.4695C24.5176 76.4597 24.5059 76.4465 24.4978 76.4312C24.4898 76.4158 24.4855 76.3987 24.4856 76.3813C24.3812 71.8527 25.3231 67.2289 26.2348 62.756C27.2 58.0209 28.1999 53.1233 27.947 48.3534L27.9284 48.0217C27.8565 46.7619 27.7823 45.4581 28.5108 44.2401C28.7826 43.8071 29.1337 43.4293 29.5455 43.1265C30.0162 42.8007 30.5653 42.6061 31.1361 42.5629C31.707 42.5197 32.2791 42.6293 32.7935 42.8805C33.3712 43.1891 33.6728 43.6531 33.6426 44.1867C33.5882 44.8808 33.493 45.571 33.3572 46.2538L31.7843 55.1325C31.0697 59.0765 30.3296 63.1643 29.5107 67.1756C28.7404 70.9433 27.8867 74.7597 26.9448 78.5181C26.8816 78.8778 26.7337 79.2174 26.5132 79.5087C26.3732 79.6689 26.2178 79.815 26.0492 79.9449C25.8984 80.0618 25.7573 80.1906 25.627 80.33C25.2465 80.7685 25.2535 81.2696 25.2628 81.8009C25.2746 82.0823 25.2598 82.3643 25.2187 82.643C25.0957 83.2973 24.6596 83.9051 24.2373 84.499C23.8737 84.9567 23.5783 85.4646 23.3604 86.007C23.0912 86.8306 23.3 87.631 23.5204 88.4848C23.7276 89.1321 23.8241 89.8098 23.8058 90.4893C23.725 91.0883 23.5611 91.6732 23.3186 92.2269C23.1004 92.7344 22.9446 93.2665 22.8546 93.8115C22.8236 94.0915 22.8502 94.3748 22.9328 94.6442C23.0154 94.9135 23.1522 95.163 23.3348 95.3775C23.5447 95.6189 23.8033 95.8132 24.0936 95.9476C24.3839 96.0819 24.6993 96.1533 25.0192 96.157C25.9959 96.2057 26.8752 95.6559 27.2046 95.1177C27.2977 94.9883 27.3531 94.8357 27.3645 94.6768C27.376 94.5178 27.3431 94.3588 27.2696 94.2175C27.2617 94.2045 27.2566 94.19 27.2544 94.1749C27.2523 94.1598 27.2532 94.1445 27.2571 94.1298C27.261 94.1151 27.2678 94.1013 27.2771 94.0893C27.2864 94.0772 27.298 94.0672 27.3113 94.0597C27.3382 94.0444 27.37 94.0402 27.3999 94.048C27.4298 94.0558 27.4555 94.075 27.4714 94.1015C27.5668 94.2786 27.611 94.4787 27.5992 94.6795C27.5873 94.8802 27.5197 95.0737 27.4041 95.2383C27.1463 95.5994 26.8048 95.8925 26.4087 96.0925C26.0127 96.2925 25.5741 96.3935 25.1305 96.3867Z" fill="#EF233C"/>
<path opacity="0.1" d="M25.9436 95.3057C25.9163 95.3056 25.8899 95.2958 25.8693 95.2779C25.2058 94.7164 24.7998 94.0947 24.6931 93.4752C24.6385 93.0998 24.685 92.7166 24.8277 92.3651C24.9704 92.0136 25.2042 91.7065 25.5051 91.4754C25.7999 91.2256 26.1595 91.0647 26.5421 91.0114C26.9597 90.958 27.4562 91.0996 27.5653 91.4267C27.5792 91.4684 27.5908 91.5148 27.6047 91.5636C27.665 91.8072 27.6998 91.8512 27.8135 91.828C27.8494 91.8162 27.8827 91.7974 27.9113 91.7728C27.94 91.7481 27.9635 91.718 27.9805 91.6842C28.4527 91.0442 28.8424 90.3474 29.1405 89.6101C29.2916 89.1278 29.3858 88.6295 29.4213 88.1253C29.5674 86.6104 29.5605 85.0652 29.5558 83.5712C29.5442 80.9635 29.5326 78.2676 30.34 75.6275C30.4513 75.2609 30.572 74.8851 30.7065 74.5232C31.0277 73.6842 31.2609 72.8142 31.4025 71.9271C31.4281 71.716 31.2053 71.6301 31.1079 71.6023C30.797 71.5141 30.3794 71.6023 30.2541 71.8737C29.463 73.5789 29.1869 75.3537 28.9317 77.3234V77.3512C28.8571 78.2544 28.6524 79.1421 28.3239 79.9868C28.1324 80.4045 27.9146 80.8098 27.672 81.2001C27.5444 81.4182 27.4168 81.6363 27.2985 81.8544C26.876 82.6774 26.5146 83.5303 26.2173 84.4064L25.2476 87.0512C24.8764 88.0604 24.6096 88.9582 25.1014 89.7168C25.1387 89.7852 25.1915 89.8439 25.2556 89.8882C25.3196 89.9326 25.3932 89.9613 25.4703 89.972C25.691 89.9771 25.9061 89.9021 26.0758 89.7609C27.1662 89.0092 27.8506 87.9049 28.1081 86.4642C28.1957 85.921 28.2538 85.3734 28.2821 84.824C28.3122 84.152 28.3944 83.4834 28.5281 82.8241C28.5348 82.7934 28.5535 82.7665 28.5801 82.7496C28.6066 82.7326 28.6388 82.7269 28.6696 82.7336C28.7003 82.7404 28.7272 82.7591 28.7441 82.7857C28.7611 82.8122 28.7668 82.8444 28.7601 82.8752C28.6307 83.523 28.5532 84.1801 28.5281 84.8402C28.4978 85.3982 28.4381 85.9542 28.3494 86.506C28.0803 88.0047 27.3634 89.1624 26.222 89.9512C26.0064 90.1249 25.7353 90.2147 25.4587 90.204C25.3475 90.1891 25.2412 90.149 25.1479 90.0866C25.0546 90.0243 24.9768 89.9415 24.9205 89.8444C24.3242 88.9164 24.7395 87.7959 25.0434 86.97L26.0132 84.3275C26.3154 83.4445 26.6814 82.5846 27.1082 81.7546C27.2265 81.5226 27.3565 81.3115 27.4864 81.0934C27.7241 80.7102 27.938 80.3128 28.1267 79.9032C28.444 79.0779 28.6425 78.2116 28.716 77.3304V77.3025C28.9735 75.3096 29.2542 73.5209 30.0569 71.7856C30.2379 71.3935 30.7831 71.2752 31.1868 71.3888C31.3225 71.4084 31.4458 71.4786 31.5318 71.5854C31.6179 71.6921 31.6604 71.8274 31.6508 71.9642C31.5049 72.8684 31.2647 73.7549 30.9339 74.609C30.8086 74.9686 30.681 75.3421 30.5697 75.704C29.7716 78.3117 29.7832 80.989 29.7948 83.5804C29.8264 85.1076 29.7807 86.6353 29.6579 88.1578C29.6213 88.6795 29.5232 89.195 29.3656 89.6936C29.0649 90.45 28.6688 91.165 28.187 91.8211C28.1533 91.8786 28.1085 91.9287 28.0551 91.9685C28.0017 92.0084 27.9408 92.0371 27.8761 92.0531C27.5212 92.1296 27.4377 91.7979 27.3936 91.6192C27.3936 91.5775 27.3727 91.538 27.3611 91.5009C27.2985 91.32 26.9365 91.197 26.5839 91.2411C26.2409 91.2912 25.9191 91.4376 25.6559 91.6633C25.3873 91.8691 25.1781 92.1424 25.0498 92.4555C24.9214 92.7685 24.8783 93.11 24.9251 93.4451C25.0202 93.9949 25.3891 94.554 25.9737 95.0691C26.139 95.0162 26.2792 94.9048 26.3681 94.7559C26.3889 94.7214 26.4024 94.6831 26.408 94.6432C26.4136 94.6033 26.4111 94.5627 26.4006 94.5239C26.3959 94.5086 26.3942 94.4926 26.3957 94.4768C26.3972 94.4609 26.4017 94.4454 26.4092 94.4313C26.4166 94.4172 26.4267 94.4047 26.439 94.3945C26.4513 94.3843 26.4654 94.3766 26.4807 94.3719C26.4959 94.3672 26.5119 94.3655 26.5278 94.367C26.5437 94.3685 26.5591 94.373 26.5732 94.3805C26.5873 94.3879 26.5998 94.398 26.61 94.4103C26.6202 94.4226 26.6279 94.4367 26.6326 94.452C26.653 94.52 26.6594 94.5915 26.6514 94.662C26.6434 94.7326 26.6212 94.8008 26.5862 94.8626C26.4548 95.0836 26.2413 95.2437 25.9923 95.308L25.9436 95.3057Z" fill="#EF233C"/>
<path opacity="0.1" d="M30.9974 69.5837C30.9867 69.586 30.9756 69.586 30.9649 69.5837C30.9502 69.58 30.9364 69.5733 30.9244 69.5641C30.9124 69.5548 30.9023 69.5432 30.8949 69.53C30.8876 69.5167 30.883 69.5021 30.8814 69.487C30.8799 69.4719 30.8815 69.4567 30.886 69.4422C31.9347 65.7511 32.1806 61.9532 32.4172 58.2807C32.5564 56.1579 32.698 53.9655 32.9926 51.8102C33.0768 51.0817 33.2219 50.3615 33.4264 49.6572C33.7871 48.6216 34.2471 47.6232 34.7999 46.676C34.807 46.6624 34.8167 46.6503 34.8285 46.6405C34.8403 46.6306 34.8539 46.6232 34.8686 46.6187C34.8833 46.6142 34.8987 46.6126 34.914 46.6141C34.9293 46.6155 34.9441 46.62 34.9576 46.6273C34.9843 46.6425 35.0041 46.6674 35.0127 46.6968C35.0214 46.7262 35.0183 46.7579 35.004 46.7851C34.4553 47.7176 33.9984 48.7013 33.6399 49.7222C33.4381 50.4141 33.2953 51.122 33.213 51.838C32.9184 53.984 32.7768 56.1741 32.64 58.2899C32.408 61.9764 32.1551 65.7859 31.0995 69.5002C31.0927 69.5227 31.0793 69.5426 31.0612 69.5575C31.043 69.5724 31.0208 69.5815 30.9974 69.5837Z" fill="#EF233C"/>
</svg>
