<svg width="116" height="116" viewBox="0 0 116 116" fill="none" xmlns="http://www.w3.org/2000/svg">
<path d="M99.6115 55.3342H75.4766V88.7353H99.6115V55.3342Z" fill="#EBEBEB"/>
<path d="M100.782 54.0955H74.3086V55.3343H100.782V54.0955Z" fill="#DBDBDB"/>
<path d="M109.11 54.0955H100.783V55.3343H109.11V54.0955Z" fill="#EBEBEB"/>
<path d="M107.789 55.3342H99.6113V88.7353H107.789V55.3342Z" fill="#DBDBDB"/>
<path d="M97.014 70.7924H78.0781V60.0879H97.014V70.7924ZM78.1361 70.7344H96.956V60.1482H78.1361V70.7344Z" fill="#C7C7C7"/>
<path d="M88.5908 63.2178H84.9043V65.3359H88.5908V63.2178Z" fill="#C7C7C7"/>
<path d="M89.7074 65.2059H85.9629V63.3499H89.7074V65.2059ZM86.0209 65.1479H89.6494V63.4079H86.0209V65.1479Z" fill="#C7C7C7"/>
<path d="M97.014 84.2391H78.0781V73.5439H97.014V84.2391ZM78.1361 84.1811H96.956V73.595H78.1361V84.1811Z" fill="#C7C7C7"/>
<path d="M88.5908 76.6643H84.9043V78.7825H88.5908V76.6643Z" fill="#C7C7C7"/>
<path d="M89.7074 78.648H85.9629V76.792H89.7074V78.648ZM86.0209 78.59H89.6494V76.85H86.0209V78.59Z" fill="#C7C7C7"/>
<path d="M64.4707 8.38452H102.725V42.1405H64.4707V8.38452ZM101.716 9.39372H65.4799V41.1313H101.716V9.39372Z" fill="#EBEBEB"/>
<path d="M84.4955 9.6582H83.4863V41.6371H84.4955V9.6582Z" fill="#EBEBEB"/>
<path d="M63.558 11.8296L103.641 11.8296V10.426L63.558 10.426V11.8296Z" fill="#EBEBEB"/>
<path d="M63.558 13.4097L103.641 13.4097V12.0061L63.558 12.0061V13.4097Z" fill="#EBEBEB"/>
<path d="M63.558 14.9895L103.641 14.9895V13.5859L63.558 13.5859V14.9895Z" fill="#EBEBEB"/>
<path d="M63.558 16.5693L103.641 16.5693V15.1657L63.558 15.1657V16.5693Z" fill="#EBEBEB"/>
<path d="M63.558 18.1494L103.641 18.1494V16.7458L63.558 16.7458V18.1494Z" fill="#EBEBEB"/>
<path d="M63.558 19.7292L103.641 19.7292V18.3256L63.558 18.3256V19.7292Z" fill="#EBEBEB"/>
<path d="M63.558 21.3115L103.641 21.3115V19.9079L63.558 19.9079V21.3115Z" fill="#EBEBEB"/>
<path d="M63.558 22.8914L103.641 22.8914V21.4878L63.558 21.4878V22.8914Z" fill="#EBEBEB"/>
<path d="M63.558 24.4714L103.641 24.4714V23.0678L63.558 23.0678V24.4714Z" fill="#EBEBEB"/>
<path d="M66.8056 10.1406H66.5527V26.2762H66.8056V10.1406Z" fill="#263238"/>
<path d="M66.2324 27.4503H67.1256L66.9029 26.165H66.4551L66.2324 27.4503Z" fill="#263238"/>
<path d="M65.8974 10.1406H65.6445V40.7368H65.8974V10.1406Z" fill="#263238"/>
<path d="M65.3223 41.681H66.2178L65.9927 40.3958H65.5473L65.3223 41.681Z" fill="#263238"/>
<path d="M61.9928 11.1267L105.205 11.1267V8.18727L61.9928 8.18727V11.1267Z" fill="#DBDBDB"/>
<path d="M71.4265 44.957H77.5234L66.6009 88.7262H60.5039L71.4265 44.957Z" fill="#EBEBEB"/>
<path d="M77.5241 44.957H78.7955L67.8729 88.7262H66.6016L77.5241 44.957Z" fill="#DBDBDB"/>
<g opacity="0.98">
<path d="M72.9562 45.7041C72.5386 47.6204 72.1001 49.5321 71.657 51.4415L70.3067 57.1649L68.9031 62.8721L68.1886 65.7234L67.4531 68.57L68.0911 65.7002L68.75 62.835L70.1026 57.1092L71.4946 51.3974C71.9794 49.5019 72.4574 47.6019 72.9562 45.7041Z" fill="#DBDBDB"/>
<path d="M71.5741 54.9841C71.2957 56.2787 70.9964 57.5709 70.6925 58.8609C70.3886 60.1508 70.0707 61.436 69.7645 62.7236L68.7785 66.5841L68.2727 68.5051C68.0964 69.1454 67.9271 69.7857 67.7461 70.4214C67.883 69.7741 68.0314 69.1292 68.1753 68.4819L68.6254 66.5447L69.5534 62.6819C69.8805 61.3989 70.1983 60.1113 70.5347 58.8307C70.8711 57.5501 71.2238 56.2601 71.5741 54.9841Z" fill="#DBDBDB"/>
<path d="M74.4272 48.6667C74.1952 49.7803 73.9516 50.887 73.6987 51.9936C73.4458 53.1003 73.1767 54.2023 72.9169 55.3066C72.657 56.4109 72.374 57.5106 72.0886 58.6079L71.6594 60.2551C71.5086 60.8027 71.3648 61.3502 71.207 61.8977C71.3184 61.3409 71.439 60.7864 71.562 60.2319L71.9355 58.5708C72.1884 57.4642 72.4575 56.3622 72.7174 55.2579C72.9772 54.1535 73.2602 53.0539 73.5456 51.9565C73.831 50.8591 74.1186 49.7595 74.4272 48.6667Z" fill="#DBDBDB"/>
<path d="M75.5571 46.145C75.4481 46.7668 75.3251 47.3816 75.1859 48.001C75.0467 48.6205 74.9099 49.2283 74.7637 49.8408C74.6176 50.4533 74.4598 51.0611 74.2997 51.6689L74.0468 52.5784C73.9564 52.88 73.8728 53.1816 73.7754 53.4832C73.8288 53.1723 73.8914 52.8637 73.9494 52.5552L74.1466 51.6272C74.2765 51.0101 74.4227 50.3999 74.5688 49.7874C74.715 49.1749 74.8704 48.5671 75.0328 47.9593C75.1952 47.3514 75.3669 46.7459 75.5571 46.145Z" fill="#DBDBDB"/>
<path d="M72.5672 61.6169C72.2493 63.0205 71.9083 64.4218 71.5649 65.8208L70.5093 70.0153L69.4073 74.1913L68.8412 76.2793C68.644 76.9753 68.4561 77.6713 68.252 78.3673C68.4097 77.6713 68.5791 76.9637 68.7438 76.2608L69.2542 74.1612L70.3098 69.9689L71.4118 65.7929C71.7853 64.3986 72.1658 63.0066 72.5672 61.6169Z" fill="#DBDBDB"/>
<path d="M67.6041 76.3096C67.4673 77.0937 67.3072 77.8709 67.1401 78.6481C66.9731 79.4253 66.7968 80.1979 66.6251 80.9681C66.4534 81.7384 66.2609 82.5109 66.066 83.2881L65.769 84.4481C65.6623 84.8309 65.5649 85.216 65.4512 85.6081C65.5185 85.216 65.5997 84.8286 65.6716 84.4365L65.9036 83.2765C66.066 82.4993 66.2469 81.7268 66.4163 80.9565C66.5857 80.1863 66.7829 79.4114 66.9777 78.6365C67.1726 77.8617 67.3837 77.0752 67.6041 76.3096Z" fill="#DBDBDB"/>
<path d="M64.0595 78.3835C63.8995 79.1955 63.7162 80.0076 63.5306 80.8033C63.345 81.5991 63.1408 82.4064 62.9459 83.2068C62.7511 84.0072 62.5353 84.8053 62.3172 85.6011L61.9854 86.7935C61.8694 87.1879 61.7535 87.587 61.6328 87.9814C61.7117 87.5754 61.8045 87.1717 61.888 86.768L62.1641 85.5616C62.3497 84.7589 62.5539 83.9585 62.7487 83.1581C62.9436 82.3577 63.1594 81.5596 63.3774 80.7639C63.5955 79.9681 63.8159 79.1747 64.0595 78.3835Z" fill="#DBDBDB"/>
<path d="M66.9395 71.5535C66.6935 72.7668 66.4291 73.9755 66.1599 75.1843C65.8908 76.393 65.6031 77.5924 65.3271 78.7988C65.051 80.0052 64.7494 81.2047 64.4478 82.4041L63.9838 84.2021C63.8237 84.8007 63.6706 85.3992 63.5059 85.9955C63.6265 85.3899 63.7587 84.7844 63.8863 84.1789L64.2854 82.367C64.5545 81.1606 64.8399 79.9565 65.1183 78.7524C65.3967 77.5483 65.6959 76.3466 65.9975 75.1471C66.2991 73.9477 66.6123 72.7483 66.9395 71.5535Z" fill="#DBDBDB"/>
<path d="M76.3928 46.3049C76.1608 47.4649 75.9033 48.6249 75.6458 49.7989C75.3882 50.9728 75.1121 52.1189 74.8453 53.2789C74.5785 54.4389 74.2885 55.5989 73.9985 56.7589L73.5578 58.4896C73.4046 59.0649 73.2585 59.6496 73.0938 60.2156C73.2074 59.631 73.3257 59.0557 73.4557 58.4664L73.8408 56.7217C74.0983 55.5617 74.3744 54.4017 74.6412 53.2417C74.908 52.0817 75.198 50.9217 75.488 49.7617C75.778 48.6017 76.0773 47.4533 76.3928 46.3049Z" fill="#DBDBDB"/>
<path d="M67.5936 63.6167C67.3825 64.6166 67.1505 65.6096 66.9139 66.6025C66.6772 67.5955 66.4244 68.5838 66.1808 69.5745C65.9372 70.5651 65.6704 71.5488 65.4012 72.5348L64.9952 74.008C64.8537 74.4975 64.7168 74.9893 64.5684 75.4789C64.6728 74.9777 64.7888 74.4813 64.8978 73.9825L65.2481 72.493C65.4801 71.5001 65.7376 70.5117 65.9812 69.5211C66.2248 68.5305 66.494 67.5468 66.7608 66.5608C67.0276 65.5748 67.3013 64.5957 67.5936 63.6167Z" fill="#DBDBDB"/>
</g>
<path d="M66.1222 47.3699H72.6414L55.9977 88.7262H49.4785L66.1222 47.3699Z" fill="#EBEBEB"/>
<path d="M72.6417 47.3699H74.0012L57.3576 88.7262H55.998L72.6417 47.3699Z" fill="#DBDBDB"/>
<path d="M67.9765 47.3699C67.2805 49.2259 66.5474 51.0819 65.8213 52.9379L63.6265 58.5059L61.3947 64.0739L60.2649 66.8579L59.1211 69.6419L60.1906 66.8579L61.2764 64.0739L63.4711 58.5059L65.7029 52.9379C66.4593 51.0772 67.2109 49.2236 67.9765 47.3699Z" fill="#DBDBDB"/>
<path d="M65.2271 56.2668C64.7631 57.522 64.2596 58.7771 63.7632 60.0322L62.2575 63.7999L60.717 67.5606L59.9352 69.4398L59.1348 71.3167L59.8586 69.4352L60.5987 67.5513L62.1044 63.7883L63.6448 60.0276C64.1668 58.7701 64.6888 57.5173 65.2271 56.2668Z" fill="#DBDBDB"/>
<path d="M68.9945 49.8962C68.5955 50.9727 68.1802 52.0492 67.7626 53.1234L66.4889 56.3458L65.192 59.5683L64.5239 61.1784C64.2919 61.7143 64.0738 62.2502 63.8418 62.7862C64.039 62.2479 64.2455 61.712 64.4496 61.1738L65.0737 59.5614L66.3451 56.3366L67.6443 53.128C68.0874 52.0422 68.5328 50.9681 68.9945 49.8962Z" fill="#DBDBDB"/>
<path d="M70.4895 47.356C70.2807 47.9522 70.0579 48.5484 69.8329 49.1447C69.6079 49.7409 69.3689 50.3372 69.1369 50.9334C68.9049 51.5296 68.6543 52.1236 68.4038 52.7175L68.0256 53.6084C67.8934 53.9053 67.7658 54.2023 67.6289 54.4992C67.731 54.2 67.8423 53.903 67.9491 53.6037L68.2855 52.7105C68.5175 52.1143 68.7495 51.518 68.9815 50.9218C69.2135 50.3256 69.464 49.7316 69.7146 49.1377C69.9651 48.5438 70.218 47.9499 70.4895 47.356Z" fill="#DBDBDB"/>
<path d="M65.2175 62.3037C64.6862 63.6679 64.1364 65.032 63.5935 66.3939L61.9185 70.4864L60.2086 74.5765L59.341 76.6204L58.457 78.6644L59.2667 76.6158L60.0903 74.5696L61.7654 70.4817L63.4752 66.3916C64.032 65.0297 64.6213 63.6679 65.2175 62.3037Z" fill="#DBDBDB"/>
<path d="M58.1167 76.8455C57.8546 77.5995 57.5762 78.3511 57.2978 79.1051C57.0194 79.8591 56.7224 80.6085 56.437 81.3602C56.1517 82.1119 55.8454 82.8635 55.5415 83.6152L55.0775 84.7404C54.9174 85.1163 54.7643 85.4921 54.5996 85.8656C54.7295 85.4898 54.8664 85.1139 55.001 84.7358L55.4186 83.6083C55.6993 82.8543 55.9916 82.1026 56.277 81.3509C56.5623 80.5992 56.8686 79.8475 57.1748 79.0982C57.4811 78.3488 57.7919 77.5948 58.1167 76.8455Z" fill="#DBDBDB"/>
<path d="M54.2878 79.3625C54.0002 80.1467 53.6962 80.9262 53.3877 81.7081C53.0791 82.4899 52.7613 83.2694 52.4597 84.0513C52.1581 84.8331 51.8147 85.6103 51.483 86.3898L50.9842 87.5498C50.8102 87.9396 50.6431 88.3294 50.4668 88.7098C50.6083 88.3201 50.7614 87.928 50.9076 87.5382L51.3716 86.3643C51.6778 85.5848 51.998 84.803 52.2996 84.0234C52.6012 83.2439 52.9446 82.4621 53.2763 81.6825C53.6081 80.903 53.9468 80.1397 54.2878 79.3625Z" fill="#DBDBDB"/>
<path d="M58.1644 72.5093C57.7352 73.6832 57.2875 74.8548 56.8374 76.0264L55.4709 79.5435L54.0789 83.056L53.3597 84.8099L52.6289 86.5662L53.2831 84.8053L53.9536 83.049L55.3224 79.5319L56.7144 76.0194C57.1947 74.8502 57.6703 73.6786 58.1644 72.5093Z" fill="#DBDBDB"/>
<path d="M71.2911 47.3699C70.8781 48.4974 70.4489 49.6272 70.0151 50.7548L68.6996 54.1396L67.3471 57.5199L66.6511 59.2088C66.4191 59.7726 66.1871 60.3364 65.9551 60.8978C66.1592 60.334 66.375 59.7703 66.5838 59.2042L67.2288 57.5129L68.5465 54.128L69.8968 50.7478C70.3538 49.6203 70.8132 48.4881 71.2911 47.3699Z" fill="#DBDBDB"/>
<path d="M59.9997 64.9856C59.6331 65.953 59.2526 66.9182 58.8675 67.8856C58.4824 68.853 58.0833 69.8158 57.6936 70.781C57.3038 71.7461 56.8932 72.7112 56.4849 73.6763L55.8677 75.1217C55.6566 75.6019 55.4501 76.0845 55.2344 76.5647C55.4153 76.0822 55.6056 75.5996 55.7912 75.1147L56.3665 73.667C56.7517 72.6996 57.1484 71.7345 57.5405 70.7694C57.9325 69.8042 58.3385 68.8391 58.7492 67.8763C59.1598 66.9135 59.5705 65.9484 59.9997 64.9856Z" fill="#DBDBDB"/>
<path d="M17.9156 0H17.6836V19.4346H17.9156V0Z" fill="#C7C7C7"/>
<path d="M24.5485 25.9399L24.0057 27.1324H11.5937L11.0508 25.9399L16.3357 22.2812H19.2636L24.5485 25.9399Z" fill="#EBEBEB"/>
<path d="M19.6297 18.7571L19.2631 22.2812H16.3353L15.9688 18.7571H19.6297Z" fill="#DBDBDB"/>
<path d="M24.5485 25.9399L24.0057 27.1324H11.5913L11.0508 25.9399H24.5485Z" fill="#DBDBDB"/>
<path d="M34.2359 0H34.0039V15.5858H34.2359V0Z" fill="#C7C7C7"/>
<path d="M40.8689 22.0887L40.326 23.2835H27.9117L27.3711 22.0887L32.6561 18.4324H35.5839L40.8689 22.0887Z" fill="#EBEBEB"/>
<path d="M35.952 14.9082L35.5854 18.4323H32.6576L32.291 14.9082H35.952Z" fill="#DBDBDB"/>
<path d="M40.8665 22.0911L40.3237 23.2835H27.9117L27.3711 22.0911H40.8665Z" fill="#DBDBDB"/>
<path d="M91.3205 35.5748C91.3723 34.7016 91.4957 33.8341 91.6894 32.981C91.8433 32.1945 92.1594 31.4486 92.6174 30.791C92.8305 30.4917 93.1007 30.2376 93.4125 30.0433C93.7243 29.849 94.0714 29.7183 94.4339 29.6588C94.7824 29.6339 95.1323 29.6812 95.4616 29.7978C95.791 29.9144 96.0927 30.0977 96.3479 30.3362C96.9849 30.9246 97.5362 31.5993 97.9859 32.3407C98.5053 33.1389 98.9786 33.9662 99.4034 34.8185C99.4173 34.8486 99.3732 34.8718 99.3593 34.844C98.9933 34.1198 98.5697 33.4263 98.0926 32.7699C97.6606 32.1391 97.173 31.5482 96.6356 31.0044C96.1461 30.5265 95.5267 30.0764 94.8167 30.0578C94.4698 30.0624 94.1286 30.1476 93.8202 30.3066C93.5118 30.4657 93.2446 30.6942 93.0396 30.9742C92.5953 31.6042 92.2901 32.3215 92.1441 33.0785C91.9559 33.8909 91.8333 34.7172 91.7775 35.5493C91.6383 37.2591 91.6012 38.9782 91.5618 40.6927C91.5401 41.6625 91.5254 42.633 91.5177 43.6043C91.5177 44.0962 91.5177 44.588 91.5061 45.0775C91.5248 45.5523 91.5062 46.0278 91.4504 46.4997C91.4342 46.5971 91.2764 46.5878 91.2625 46.4997C91.2041 46.0537 91.1816 45.6037 91.1952 45.1541C91.1952 44.6901 91.1836 44.2261 91.179 43.7621C91.179 42.8573 91.1674 41.9502 91.179 41.0454C91.1767 39.2079 91.1975 37.389 91.3205 35.5748Z" fill="#A6A6A6"/>
<path d="M93.7635 34.2872C93.8395 33.7606 94.0193 33.2544 94.2925 32.7978C94.7889 32.125 95.3225 32.4173 94.8284 33.162C94.462 33.7157 94.2242 34.3443 94.1324 35.0018C94.1324 35.0018 94.9629 36.1896 95.9675 36.7743C95.8682 36.1671 95.8402 35.5505 95.884 34.9368C96.0765 33.4683 96.9651 33.5448 96.747 34.7048C96.5873 35.4807 96.5196 36.2726 96.5452 37.0643C96.8809 37.2821 97.2416 37.4589 97.6193 37.5909C97.5613 37.4216 97.4987 37.2151 97.4314 36.9692C97.0765 35.6514 97.9534 35.2408 97.9813 35.9808C98.0374 36.6125 98.1516 37.2377 98.3223 37.8484C98.8049 38.0108 99.2039 38.1222 99.4475 38.208C100.081 38.442 100.646 38.8285 101.095 39.3332C101.551 38.919 101.93 38.4273 102.215 37.8809C101.909 37.6164 101.424 37.2244 100.751 36.7488C99.4893 35.8579 99.9277 34.7327 100.93 35.4333C101.652 35.9368 102.211 36.8717 102.466 37.352C102.807 36.5164 103.001 35.6277 103.037 34.7257C102.046 33.7977 99.5937 32.4985 100.334 32.4985C101 32.4985 102.487 33.4729 103.032 33.8488C103.019 33.5929 102.991 33.3381 102.948 33.0855C102.02 32.473 98.9812 31.5218 99.4684 31.248C99.9997 30.9464 102.116 31.9278 102.756 32.2364C102.636 31.8211 102.447 31.4289 102.197 31.0764C100.907 29.348 98.5798 28.7564 97.5567 29.0835C96.8398 29.3155 97.0486 31.139 96.8955 31.0764C94.0141 29.928 92.7033 30.7469 93.7635 34.2872ZM100.835 34.0877C101.041 33.8395 101.995 34.5656 101.714 34.9647C101.433 35.3637 100.573 34.4032 100.835 34.0877ZM95.8886 32.5333C96.1369 32.6911 95.7703 33.6121 95.3852 33.3337C95.0581 33.0948 95.6381 32.3732 95.8886 32.5333Z" fill="#EBEBEB"/>
<path d="M96.266 32.8141C96.3959 32.5566 96.5305 32.3014 96.6813 32.0531C96.8132 31.8068 96.9686 31.5737 97.1453 31.3571C97.1035 31.3084 97.0641 31.255 97.0223 31.2063C97.0198 31.2045 97.0178 31.2021 97.0164 31.1994C97.0149 31.1967 97.0141 31.1937 97.0139 31.1907C97.0137 31.1876 97.0143 31.1846 97.0154 31.1817C97.0166 31.1789 97.0183 31.1763 97.0206 31.1742C97.0229 31.1722 97.0255 31.1706 97.0285 31.1697C97.0314 31.1687 97.0345 31.1685 97.0375 31.1689C97.0406 31.1693 97.0435 31.1704 97.0461 31.172C97.0486 31.1737 97.0508 31.1759 97.0524 31.1785C97.1012 31.2318 97.1452 31.2898 97.194 31.3455C97.1987 31.3476 97.2028 31.3508 97.2061 31.3549C97.2093 31.3589 97.2115 31.3637 97.2125 31.3687C97.3912 31.5822 97.5605 31.8026 97.7206 32.0276C98.0038 32.0898 98.2833 32.1672 98.5581 32.2596C98.8412 32.3547 99.1219 32.4545 99.3956 32.5705C99.4258 32.5821 99.4096 32.6285 99.3817 32.6169C99.1103 32.4962 98.8342 32.3849 98.5512 32.2828C98.2681 32.1807 98.0129 32.125 97.7415 32.0508C97.8296 32.1745 97.9155 32.2998 97.999 32.4266C98.5081 32.5877 99.0032 32.7902 99.4792 33.0322C99.9803 33.2642 100.463 33.5449 100.943 33.8233C100.969 33.8372 100.943 33.8813 100.918 33.865C100.446 33.589 99.9604 33.3374 99.4629 33.111C98.9989 32.8953 98.5187 32.7166 98.0501 32.5102C99.2286 34.3476 99.9362 36.4681 100.88 38.4331C100.894 38.461 100.848 38.4865 100.836 38.4563C100.549 37.7603 100.217 37.0968 99.9084 36.4194C99.6277 35.8115 99.3516 35.199 99.0685 34.5912C98.9873 34.4126 98.9015 34.2362 98.8156 34.0576C98.8667 35.039 98.8458 36.0389 99.0082 37.0086C99.0094 37.0125 99.0097 37.0165 99.009 37.0205C99.0084 37.0244 99.0068 37.0281 99.0044 37.0314C99.002 37.0346 98.9989 37.0372 98.9954 37.039C98.9918 37.0408 98.9879 37.0418 98.9838 37.0418C98.9798 37.0418 98.9759 37.0408 98.9723 37.039C98.9688 37.0372 98.9657 37.0346 98.9633 37.0314C98.9609 37.0281 98.9593 37.0244 98.9587 37.0205C98.958 37.0165 98.9583 37.0125 98.9595 37.0086C98.8899 35.9577 98.7066 34.9207 98.7136 33.8697C98.7136 33.8697 98.7136 33.8697 98.7136 33.8558C98.514 33.4544 98.3029 33.06 98.0709 32.6749C97.6812 33.6029 97.2705 34.5309 97.0896 35.5123C97.0887 35.5153 97.0872 35.5181 97.0851 35.5206C97.0831 35.5231 97.0806 35.5251 97.0778 35.5266C97.075 35.5281 97.072 35.5291 97.0688 35.5294C97.0657 35.5297 97.0625 35.5294 97.0594 35.5285C97.0564 35.5276 97.0535 35.5261 97.0511 35.5241C97.0486 35.522 97.0465 35.5196 97.045 35.5168C97.0435 35.514 97.0426 35.5109 97.0423 35.5077C97.042 35.5046 97.0423 35.5014 97.0432 35.4983C97.3077 34.51 97.5536 33.5194 98.0292 32.6053C97.7788 32.1891 97.5021 31.7892 97.2009 31.4082C97.0687 31.6541 96.9017 31.8722 96.7532 32.1181C96.6047 32.364 96.4655 32.5821 96.3309 32.8141C96.0405 33.3115 95.7936 33.8331 95.5932 34.3731C95.5816 34.401 95.5352 34.3871 95.5468 34.3592C95.7811 33.8488 96.0084 33.3222 96.266 32.8141Z" fill="#A6A6A6"/>
<path d="M86.9792 35.0507C87.7355 34.292 88.6032 33.2968 89.7818 33.2991C90.9093 33.2991 91.7399 34.2085 92.2154 35.1551C92.7143 36.1341 92.8952 37.2431 93.0344 38.3219C93.2002 39.6144 93.3001 40.9145 93.3337 42.2172C93.3546 42.941 93.3522 43.6648 93.3337 44.3864C93.3347 45.1195 93.2796 45.8517 93.169 46.5764C93.1481 46.6948 92.9602 46.6971 92.9532 46.5764C92.9184 45.9686 92.9532 45.3561 92.9532 44.746C92.9532 44.1358 92.9532 43.5465 92.9254 42.9456C92.8813 41.7323 92.7931 40.5212 92.6493 39.3148C92.5263 38.2616 92.4173 37.1804 92.111 36.162C91.828 35.2456 91.2944 34.1946 90.3641 33.7909C89.095 33.2411 87.8538 34.2549 87.0233 35.0948C87.0001 35.104 86.956 35.0716 86.9792 35.0507Z" fill="#A6A6A6"/>
<path d="M83.1206 36.7442C83.1206 36.8996 83.1369 37.0527 83.1461 37.2082C83.5112 36.9389 83.9365 36.7629 84.385 36.6955C85.4592 36.5818 85.3896 37.3915 84.6727 37.4309C84.1684 37.4371 83.6696 37.537 83.2018 37.7255C83.3758 39.1431 83.7656 40.2775 83.8236 40.2984C84.7757 40.244 85.723 40.1238 86.6586 39.9388C86.3918 39.3704 85.784 38.6164 86.0949 38.5468C86.4057 38.4772 86.7421 39.1593 86.9138 39.8808C87.6153 39.7463 88.3049 39.5562 88.9763 39.3124C88.5123 38.9041 87.7745 38.3844 88.0483 38.1803C88.3221 37.9761 88.9067 38.6791 89.2547 39.1987C89.5711 39.0707 89.8703 38.904 90.1456 38.7023C89.5099 37.7743 87.9601 37.5771 88.162 36.9019C88.3638 36.2268 89.8138 37.1641 90.4657 38.4146C91.229 37.6211 91.4541 36.4983 91.3729 35.5401C90.707 35.4635 89.4264 35.6027 89.5169 35.1248C89.6073 34.6469 90.5353 34.7374 91.294 35.0181C91.2228 34.6384 91.0709 34.2784 90.8485 33.9625C90.1525 33.0623 88.0042 34.2084 88.0042 34.2084C88.0042 34.2084 88.2362 32.0555 87.4149 31.6819C86.9509 31.4685 86.1134 31.4708 85.2805 31.9627C85.7445 31.9998 86.3129 32.1483 86.5403 32.4731C86.8303 32.886 86.3733 33.1111 86.0763 32.9208C85.8721 32.7863 85.4893 32.3594 84.798 32.3037C84.502 32.5526 84.2413 32.8406 84.0231 33.1598C83.9396 33.274 83.8622 33.3924 83.7911 33.5147C84.1868 33.3376 84.6167 33.25 85.0502 33.258C85.4837 33.266 85.9101 33.3695 86.299 33.5611C87.227 34.0251 86.7073 34.9856 85.9093 34.6121C85.1112 34.2386 84.3688 33.872 83.5197 34.0831C83.2207 34.8472 83.0817 35.6644 83.1113 36.4843C83.5257 36.1817 83.992 35.9576 84.4871 35.8231C85.4151 35.5911 85.6889 36.134 84.675 36.2361C84.1279 36.2987 83.5991 36.4715 83.1206 36.7442ZM84.2435 35.2617C84.1809 34.9624 84.8351 34.8766 84.9395 35.1202C85.0346 35.3267 84.3061 35.561 84.2435 35.264V35.2617ZM89.8463 36.9182C89.9089 36.7558 90.3451 36.9414 90.3103 37.1502C90.2477 37.417 89.7837 37.0829 89.8463 36.9182ZM86.7537 37.9691C87.0739 37.8415 87.5727 38.635 87.2177 38.8159C86.8628 38.9969 86.4939 38.0735 86.7537 37.9691Z" fill="#EBEBEB"/>
<path d="M83.9497 40.136C84.4323 39.3309 84.9079 38.5236 85.4113 37.7325C85.6433 37.3659 85.8939 37.004 86.1491 36.6513L86.0354 36.6235C85.9728 36.6119 85.9078 36.598 85.8429 36.5887C85.6967 36.5609 85.5459 36.54 85.3974 36.5261C85.2489 36.5121 85.1167 36.5029 84.9752 36.5029C84.824 36.4944 84.6723 36.5022 84.5228 36.5261C84.5065 36.5261 84.5019 36.5005 84.5228 36.5005C84.6736 36.5005 84.8267 36.4889 84.9868 36.4866C85.1469 36.4843 85.2791 36.4866 85.4253 36.4866C85.5714 36.4866 85.699 36.5075 85.8336 36.5284L86.0656 36.5678C86.1097 36.5678 86.1561 36.5841 86.2001 36.598C86.46 36.2392 86.7306 35.8881 87.0121 35.5447C86.1785 35.1393 85.2909 34.8557 84.3766 34.7025C84.3627 34.7025 84.3766 34.677 84.3766 34.6793C85.3007 34.8116 86.1985 35.0871 87.0377 35.496L87.5017 34.9322C87.6757 34.7234 87.8613 34.5193 88.019 34.2965C88.019 34.2826 88.0492 34.2965 88.0376 34.3105C87.8217 34.5498 87.618 34.7999 87.4274 35.0598C87.771 35.2998 88.0981 35.5625 88.4065 35.8463C88.7266 36.1293 89.0398 36.424 89.3345 36.7256C89.3461 36.7256 89.3345 36.7534 89.3182 36.7418C89.0182 36.4449 88.7088 36.1603 88.3902 35.8881C88.0631 35.6189 87.7221 35.3707 87.3949 35.1039C87.3207 35.2013 87.2465 35.3011 87.1629 35.3985L87.0516 35.5447C87.0526 35.5485 87.0526 35.5525 87.0516 35.5563L86.6781 36.0458C86.8233 36.2567 86.9476 36.4813 87.0493 36.7163C87.1583 36.9483 87.2511 37.1803 87.3393 37.4123C87.5101 37.9044 87.6443 38.4084 87.7406 38.9203C87.7406 38.9342 87.7197 38.9435 87.7151 38.9203C87.6129 38.4159 87.467 37.9215 87.2789 37.4425C87.1838 37.1965 87.0771 36.9553 86.9681 36.7163C86.859 36.4773 86.7477 36.2894 86.6549 36.0713C86.5458 36.2129 86.4391 36.359 86.3324 36.5029L86.2419 36.6305C86.2434 36.632 86.2447 36.6338 86.2455 36.6358C86.2463 36.6378 86.2468 36.6399 86.2468 36.6421C86.2468 36.6442 86.2463 36.6464 86.2455 36.6483C86.2447 36.6503 86.2434 36.6521 86.2419 36.6537C85.9101 37.1177 85.5946 37.5817 85.2907 38.0642C85.3084 38.0974 85.3224 38.1324 85.3325 38.1686C85.351 38.2266 85.3696 38.2846 85.3858 38.3449C85.4206 38.4633 85.4485 38.5769 85.4717 38.7022C85.4949 38.8275 85.5065 38.9342 85.5181 39.0456C85.5199 39.176 85.53 39.3062 85.5482 39.4353C85.5482 39.4539 85.5204 39.4562 85.5227 39.4353C85.5327 39.3133 85.5241 39.1905 85.4972 39.0711C85.4786 38.9489 85.4554 38.826 85.4276 38.7022C85.4021 38.5909 85.3719 38.4818 85.3394 38.3728C85.3232 38.3171 85.3046 38.2637 85.2861 38.2104C85.2675 38.157 85.2629 38.1524 85.2536 38.1222C85.1097 38.3542 84.9682 38.5723 84.829 38.7973C84.5506 39.2474 84.2769 39.6998 84.0008 40.1499C83.9845 40.1731 83.9358 40.1522 83.9497 40.136Z" fill="#A6A6A6"/>
<path d="M91.3718 46.3072C91.3834 45.8432 91.4553 45.3931 91.504 44.9384C91.5527 44.4836 91.6061 44.0289 91.6548 43.5719C91.7153 42.6867 91.8331 41.8063 92.0075 40.9364C92.1606 40.187 92.5338 39.5004 93.0793 38.9644C93.3625 38.6814 93.7344 38.5045 94.1326 38.4632C94.5323 38.4511 94.9248 38.5718 95.2485 38.8066C95.6169 39.0797 95.9349 39.4149 96.1881 39.7972C96.4602 40.1749 96.7044 40.5719 96.9189 40.9851C96.9189 41.0013 96.9027 41.0106 96.8957 40.9967C96.489 40.3069 95.9506 39.7038 95.3111 39.2219C95.0262 38.9873 94.6784 38.842 94.3112 38.8043C94.1323 38.8014 93.9546 38.8342 93.7885 38.9007C93.6224 38.9672 93.4713 39.0662 93.3438 39.1917C92.8339 39.6825 92.4783 40.3114 92.3207 41.0013C92.1338 41.8035 92.0013 42.6173 91.9239 43.4373L91.736 44.8827C91.6711 45.3629 91.6316 45.8548 91.5295 46.328C91.5282 46.3384 91.5248 46.3484 91.5195 46.3574C91.5143 46.3665 91.5074 46.3744 91.4991 46.3808C91.4908 46.3871 91.4813 46.3918 91.4712 46.3945C91.4611 46.3972 91.4506 46.3979 91.4402 46.3965C91.4299 46.3951 91.4199 46.3917 91.4108 46.3865C91.4018 46.3812 91.3939 46.3743 91.3875 46.366C91.3812 46.3577 91.3765 46.3482 91.3738 46.3381C91.3711 46.328 91.3704 46.3175 91.3718 46.3072Z" fill="#A6A6A6"/>
<path d="M93.6123 42.7669C93.7535 42.9577 93.9206 43.1279 94.1088 43.2726C94.0346 42.8272 93.9441 42.0384 94.1691 41.6161C94.5171 40.9642 94.9301 41.289 94.7213 41.8481C94.5135 42.3602 94.4003 42.9057 94.3872 43.4582C94.8605 43.757 95.3685 43.997 95.8999 44.1728C95.8443 43.9169 95.8279 43.6541 95.8511 43.3933C95.9207 42.6973 96.4567 42.6973 96.3151 43.435C96.2626 43.7165 96.2378 44.0025 96.2409 44.2888C97.0126 44.5266 97.8014 44.705 98.6003 44.8224C99.0093 44.2933 99.3383 43.707 99.5771 43.0824C99.0087 42.9409 97.8579 42.9084 97.8835 42.5001C97.9159 41.9549 99.0295 42.3748 99.6838 42.7715C99.8325 42.296 99.8992 41.7986 99.881 41.3006C99.3692 41.1571 98.8433 41.0699 98.3127 41.0408C97.1527 40.9387 97.1991 40.2752 98.0459 40.2914C98.6723 40.2914 99.4657 40.6858 99.8392 40.8853C99.5956 39.2915 98.3799 38.2707 97.4055 38.2313C95.7676 38.1663 96.3569 40.2033 96.3569 40.2033C96.3569 40.2033 95.2479 39.4237 94.2016 39.4446C93.1553 39.4655 92.4941 41.2078 93.6123 42.7669ZM97.9879 39.8205C97.9507 39.5885 98.6839 39.5351 98.721 39.8205C98.7581 40.1058 98.025 40.0525 97.9879 39.8205ZM99.1641 42.224C99.1502 42.0732 99.4657 42.0477 99.5353 42.2356C99.584 42.3469 99.178 42.3585 99.1641 42.224ZM95.2317 42.3632C95.4776 42.398 95.6191 43.2796 95.1946 43.2633C94.8698 43.2378 95.0229 42.3214 95.2317 42.3516V42.3632Z" fill="#EBEBEB"/>
<path d="M95.5843 43.3307C95.6261 43.2216 95.6609 43.0987 95.6957 42.9966C95.6629 43.1096 95.6358 43.2242 95.6145 43.3399C95.6143 43.3424 95.6136 43.3448 95.6124 43.3469C95.6112 43.3491 95.6096 43.3509 95.6075 43.3523C95.6055 43.3537 95.6032 43.3546 95.6008 43.355C95.5983 43.3554 95.5958 43.3552 95.5935 43.3545C95.5911 43.3538 95.589 43.3525 95.5872 43.3509C95.5854 43.3492 95.584 43.3471 95.5831 43.3448C95.5822 43.3425 95.5819 43.34 95.5821 43.3376C95.5823 43.3351 95.5831 43.3328 95.5843 43.3307Z" fill="#A6A6A6"/>
<path d="M95.6836 42.9966C95.6836 42.9711 95.6998 42.9456 95.7068 42.9177C95.7005 42.9444 95.6927 42.9707 95.6836 42.9966Z" fill="#A6A6A6"/>
<path d="M88.6309 45.4209L88.7469 47.8592L89.0438 54.1441H95.5259L95.8229 47.8592L95.9389 45.4209H88.6309Z" fill="#C7C7C7"/>
<path d="M88.6309 45.4209L88.7469 47.8592H95.8229L95.9389 45.4209H88.6309Z" fill="#A6A6A6"/>
<path d="M88.1694 46.407H96.3984V44.435H88.1694V46.407Z" fill="#C7C7C7"/>
<path d="M58.0008 108.216C80.7593 108.216 99.2086 105.82 99.2086 102.864C99.2086 99.9082 80.7593 97.512 58.0008 97.512C35.2423 97.512 16.793 99.9082 16.793 102.864C16.793 105.82 35.2423 108.216 58.0008 108.216Z" fill="#EBEBEB"/>
<path d="M23.376 28.8167H32.8208L28.7631 88.726H19.3184L23.376 28.8167Z" fill="#EF233C"/>
<path opacity="0.1" d="M23.376 28.8167H32.8208L28.7631 88.726H19.3184L23.376 28.8167Z" fill="black"/>
<path d="M32.8214 28.8167H34.791L30.7334 88.726H28.7637L32.8214 28.8167Z" fill="#EF233C"/>
<path opacity="0.3" d="M32.8214 28.8167H34.791L30.7334 88.726H28.7637L32.8214 28.8167Z" fill="black"/>
<g opacity="0.1">
<path d="M26.0695 28.8167C25.9489 31.5079 25.8004 34.1991 25.6496 36.8879L25.1694 44.9569L24.6358 53.0212L24.3597 57.0534L24.0488 61.0809L24.2483 57.0441L24.4803 53.0096L24.9629 44.943L25.4965 36.8763C25.6635 34.1898 25.8538 31.5032 26.0695 28.8167Z" fill="black"/>
<path d="M26.3945 41.7043C26.3156 43.5255 26.2089 45.3421 26.0998 47.161L25.7518 52.6107L25.3412 58.058L25.1092 60.7817L24.8633 63.5007L24.9978 60.7724L25.1579 58.0464L25.5198 52.5944L25.9305 47.1471C26.072 45.3328 26.2158 43.5186 26.3945 41.7043Z" fill="black"/>
<path d="M28.7682 32.48C28.7125 34.039 28.6336 35.5957 28.5362 37.1525L28.2578 41.8226L27.9237 46.4881L27.7381 48.8197C27.6685 49.5969 27.6059 50.3741 27.5293 51.1397C27.5548 50.3579 27.5943 49.5807 27.6267 48.8012L27.7474 46.4649L28.0281 41.7948L28.3622 37.1293C28.4898 35.5865 28.6151 34.0321 28.7682 32.48Z" fill="black"/>
<path d="M29.6954 28.7981C29.6954 29.6635 29.6513 30.5265 29.6142 31.3895C29.5771 32.2526 29.5167 33.1156 29.4703 33.9787C29.4239 34.8417 29.3474 35.7047 29.2731 36.5655L29.1571 37.8554C29.1084 38.2869 29.069 38.7161 29.0156 39.1453C29.0156 38.7138 29.0342 38.2823 29.0458 37.8484L29.0991 36.5539C29.1363 35.6908 29.1943 34.8278 29.243 33.9647C29.2917 33.1017 29.3636 32.241 29.4379 31.3779C29.5121 30.5149 29.591 29.6565 29.6954 28.7981Z" fill="black"/>
<path d="M29.3082 50.4507C29.1991 52.425 29.0762 54.3947 28.9277 56.376L28.4846 62.3036L27.9904 68.2288L27.7236 71.1915L27.4336 74.1495L27.6122 71.1822L27.8141 68.2196L28.2572 62.2943L28.7514 56.376C28.9254 54.3993 29.104 52.432 29.3082 50.4507Z" fill="black"/>
<path d="M26.0697 71.5139C26.0581 72.6066 26.0209 73.697 25.9792 74.7874C25.9374 75.8778 25.8771 76.9659 25.8284 78.054C25.7797 79.1421 25.7008 80.2325 25.6242 81.3206L25.5013 82.9446C25.4549 83.4874 25.4131 84.0326 25.3574 84.5686C25.3574 84.021 25.3806 83.4782 25.3899 82.9306L25.4479 81.3066C25.4897 80.2162 25.55 79.1258 25.5987 78.0378C25.6474 76.9497 25.7263 75.8593 25.8052 74.7735C25.8841 73.6878 25.9629 72.602 26.0697 71.5139Z" fill="black"/>
<path d="M21.761 75.168C21.7239 76.3024 21.6613 77.4346 21.594 78.5668C21.5267 79.6989 21.4432 80.8288 21.362 81.9586C21.2808 83.0884 21.1857 84.2206 21.0813 85.3481L20.9235 87.0417C20.8632 87.6055 20.8098 88.1692 20.7402 88.733C20.7565 88.1669 20.789 87.6009 20.8122 87.0325L20.9073 85.3365C20.9722 84.2044 21.0581 83.0745 21.1393 81.9424C21.2205 80.8102 21.3156 79.6827 21.4177 78.5528C21.5198 77.423 21.6288 76.2885 21.761 75.168Z" fill="black"/>
<path d="M24.0399 65.2361C23.9865 66.9343 23.9077 68.6326 23.8241 70.3401L23.5481 75.4302L23.2163 80.504L23.033 83.056L22.8242 85.5964L22.9217 83.0444L23.0423 80.4924L23.3184 75.3884L23.6501 70.3006C23.7685 68.6233 23.8961 66.9297 24.0399 65.2361Z" fill="black"/>
<path d="M30.856 28.8167C30.805 30.4407 30.7284 32.0879 30.6496 33.7211L30.392 38.6233L30.0719 43.5208L29.8956 45.9684C29.826 46.7851 29.768 47.5924 29.6914 48.416C29.7146 47.5971 29.754 46.7804 29.7819 45.9615L29.8979 43.5115L30.16 38.6094L30.4802 33.7119C30.6008 32.0786 30.7192 30.4476 30.856 28.8167Z" fill="black"/>
<path d="M23.049 54.3342C22.9886 55.7262 22.9051 57.1368 22.817 58.5357C22.7288 59.9347 22.6198 61.3314 22.5223 62.7303C22.4249 64.1293 22.2903 65.5259 22.1743 66.9225L21.9818 69.0105C21.9075 69.7065 21.8426 70.4025 21.7637 71.0985C21.7915 70.4025 21.8333 69.7065 21.8681 68.9966L21.998 66.897C22.0885 65.505 22.1952 64.113 22.295 62.7025C22.3947 61.2919 22.527 59.9069 22.643 58.5102C22.759 57.1136 22.8958 55.7285 23.049 54.3342Z" fill="black"/>
</g>
<path d="M19.3185 53.8494H27.0882L24.9259 88.7259H17.1562L19.3185 53.8494Z" fill="#EF233C"/>
<path d="M27.088 53.8494H28.7074L26.5451 88.7259H24.9258L27.088 53.8494Z" fill="#EF233C"/>
<path opacity="0.3" d="M27.088 53.8494H28.7074L26.5451 88.7259H24.9258L27.088 53.8494Z" fill="black"/>
<g opacity="0.1">
<path d="M22.6799 53.8704C22.6312 55.4132 22.5546 56.9536 22.4757 58.4941C22.3969 60.0346 22.2994 61.5728 22.2136 63.104L21.8957 67.7184L21.7194 70.0245C21.6521 70.7948 21.5918 71.5627 21.5176 72.3306C21.5408 71.5604 21.5779 70.7901 21.6081 70.0106L21.7217 67.6906L21.9862 63.104C22.0906 61.5635 22.1857 60.0253 22.3017 58.4872C22.4177 56.949 22.5361 55.4062 22.6799 53.8704Z" fill="black"/>
<path d="M22.865 61.248C22.8395 62.292 22.7884 63.336 22.7328 64.3731C22.6771 65.4101 22.6052 66.4611 22.5402 67.4935C22.4752 68.5259 22.3871 69.5815 22.3082 70.6116L22.1667 72.1683C22.111 72.688 22.0623 73.2076 22.002 73.725C22.002 73.203 22.0368 72.6833 22.0553 72.1613L22.1319 70.6C22.1876 69.5583 22.2618 68.512 22.3244 67.4796C22.3871 66.4472 22.4799 65.3916 22.5704 64.3615C22.6608 63.3314 22.7351 62.2851 22.865 61.248Z" fill="black"/>
<path d="M24.2229 55.9675C24.2229 56.8607 24.1741 57.7539 24.1324 58.6448C24.0906 59.5357 24.0326 60.4266 23.9839 61.3198C23.9352 62.213 23.8586 63.0992 23.7821 63.9878L23.6614 65.3218C23.615 65.7672 23.5733 66.2103 23.5176 66.6558C23.5176 66.208 23.5408 65.7626 23.5501 65.3148L23.6057 63.9762C23.6475 63.0853 23.7078 62.1944 23.7565 61.3035C23.8053 60.4126 23.8818 59.5218 23.9584 58.6332C24.0349 57.7446 24.1277 56.8538 24.2229 55.9675Z" fill="black"/>
<path d="M24.7535 53.8611C24.7674 54.3576 24.7535 54.8517 24.7535 55.3459C24.7535 55.84 24.7118 56.3365 24.6816 56.8307C24.6514 57.3248 24.612 57.8167 24.5586 58.3085L24.4774 59.0463C24.4426 59.2922 24.4148 59.5381 24.373 59.784C24.373 59.5358 24.373 59.2876 24.373 59.0393L24.3893 58.2969C24.4032 57.8028 24.431 57.3086 24.4612 56.8144C24.4914 56.3203 24.5331 55.8284 24.5865 55.3366C24.6398 54.8448 24.6746 54.3506 24.7535 53.8611Z" fill="black"/>
<path d="M24.5336 66.2546C24.4919 67.3845 24.4246 68.5166 24.3527 69.6465C24.2807 70.7763 24.1903 71.9108 24.1207 73.0406C24.0511 74.1705 23.9327 75.3026 23.826 76.4325L23.659 78.1284C23.5963 78.6922 23.5407 79.2559 23.4688 79.8197C23.4896 79.2513 23.5221 78.6852 23.5476 78.1191L23.6497 76.4232C23.7216 75.291 23.8121 74.1635 23.8817 73.0314C23.9513 71.8992 24.0673 70.774 24.1763 69.6442C24.2854 68.5143 24.3967 67.3845 24.5336 66.2546Z" fill="black"/>
<path d="M20.1691 55.0813C20.0949 57.2923 19.9951 59.5055 19.893 61.7188L19.5543 68.3587L19.1622 74.9985L18.9488 78.3161L18.7168 81.6314L18.8421 78.3091L18.9929 74.9892L19.3316 68.3517L19.719 61.7119C19.8559 59.5055 19.9998 57.3039 20.1691 55.0813Z" fill="black"/>
<path d="M22.6793 78.3115C22.6677 79.1815 22.6329 80.0515 22.5934 80.9215C22.554 81.7915 22.503 82.6569 22.4473 83.5199C22.3916 84.383 22.3243 85.2553 22.2501 86.1206L22.1318 87.4198C22.083 87.8537 22.0436 88.2875 21.9902 88.719C21.9902 88.2829 22.0088 87.849 22.0204 87.4129L22.0738 86.109C22.1132 85.2414 22.1712 84.3737 22.2199 83.5037C22.2686 82.6337 22.3429 81.7683 22.4194 80.903C22.496 80.0376 22.5749 79.1769 22.6793 78.3115Z" fill="black"/>
<path d="M20.2123 80.3997C20.2123 81.0957 20.1775 81.7917 20.1427 82.4877C20.1079 83.1837 20.0639 83.8797 20.0151 84.5757C19.9664 85.2717 19.9061 85.9677 19.8319 86.6637L19.7182 87.6961C19.6741 88.0441 19.637 88.3921 19.5859 88.7354C19.5859 88.3851 19.5999 88.0394 19.6068 87.6891L19.6532 86.6451C19.6834 85.9491 19.7321 85.2531 19.7831 84.5571C19.8342 83.8611 19.8922 83.1651 19.9641 82.4691C20.036 81.7731 20.1126 81.091 20.2123 80.3997Z" fill="black"/>
<path d="M21.5163 74.7178C21.5163 75.6899 21.4699 76.6643 21.4305 77.6363C21.391 78.6084 21.3423 79.5759 21.282 80.5503C21.2217 81.5247 21.159 82.4921 21.0825 83.4619L20.9642 84.9119C20.9154 85.3967 20.876 85.8816 20.8203 86.3665C20.8203 85.8793 20.8412 85.3921 20.8528 84.9072L20.9085 83.4479C20.9479 82.4759 21.0059 81.5038 21.0546 80.5317C21.1034 79.5596 21.1799 78.5899 21.2565 77.6201C21.333 76.6503 21.4119 75.6852 21.5163 74.7178Z" fill="black"/>
<path d="M25.4244 53.8704C25.4244 54.81 25.3826 55.7449 25.3432 56.6799C25.3037 57.6148 25.2504 58.5521 25.204 59.4871C25.1576 60.422 25.0833 61.357 25.0091 62.2896L24.8931 63.6816C24.8467 64.1456 24.8073 64.6096 24.7539 65.0736C24.7539 64.6096 24.7725 64.1456 24.7817 63.6677L24.8351 62.2641C24.8722 61.3361 24.9279 60.3919 24.9743 59.4569C25.0207 58.522 25.0949 57.587 25.1692 56.6544C25.2434 55.7217 25.3223 54.803 25.4244 53.8704Z" fill="black"/>
<path d="M20.9507 68.4771C20.9367 69.2821 20.8973 70.0825 20.8532 70.8852C20.8091 71.6879 20.7535 72.486 20.6955 73.2864C20.6375 74.0868 20.5679 74.8872 20.4843 75.6853L20.3614 76.8847C20.3103 77.2814 20.2686 77.6828 20.2129 78.0795C20.2129 77.6782 20.2384 77.2768 20.25 76.8754L20.3103 75.6737C20.3498 74.871 20.4078 74.0706 20.4681 73.2702C20.5284 72.4698 20.5957 71.6694 20.6792 70.8713C20.7627 70.0732 20.8416 69.2751 20.9507 68.4771Z" fill="black"/>
<path d="M25.2254 71.1104C25.1581 72.514 25.0653 73.9152 24.9702 75.3188C24.875 76.7224 24.7567 78.1191 24.6523 79.5204C24.5479 80.9216 24.4203 82.3206 24.2834 83.7195L24.0816 85.8075C24.005 86.5035 23.9354 87.1995 23.8496 87.8955C23.8798 87.1995 23.9262 86.492 23.9633 85.7913L24.1048 83.6871C24.1999 82.2951 24.3159 80.8845 24.4203 79.4832C24.5247 78.082 24.6523 76.683 24.7892 75.2864C24.9261 73.8897 25.056 72.507 25.2254 71.1104Z" fill="black"/>
</g>
<path d="M19.8449 39.9526H26.6379L14.4672 88.726H7.67188L19.8449 39.9526Z" fill="#EF233C"/>
<path d="M26.6375 39.9526H28.055L15.8843 88.726H14.4668L26.6375 39.9526Z" fill="#EF233C"/>
<path opacity="0.3" d="M26.6375 39.9526H28.055L15.8843 88.726H14.4668L26.6375 39.9526Z" fill="black"/>
<g opacity="0.1">
<path d="M21.5513 40.7832C21.0873 42.9199 20.5978 45.0474 20.1036 47.1771L18.598 53.5548L17.0412 59.9209L16.2408 63.1039L15.4219 66.2777L16.1318 63.0784L16.8672 59.8838L18.3729 53.5061L19.932 47.14C20.4632 45.0079 20.9945 42.8967 21.5513 40.7832Z" fill="black"/>
<path d="M20.0106 51.1235C19.6997 52.5689 19.3657 54.0073 19.0246 55.448C18.6836 56.8887 18.3286 58.3179 17.9829 59.7539L16.8949 64.032L16.3311 66.1757C16.1362 66.8879 15.946 67.6002 15.7441 68.3101C15.8973 67.5886 16.0643 66.8694 16.2221 66.1479L16.7255 63.9903L17.7672 59.6843C18.1314 58.2552 18.4841 56.8215 18.8576 55.3923C19.2311 53.9632 19.6093 52.5457 20.0106 51.1235Z" fill="black"/>
<path d="M23.2006 44.0798C22.9454 45.321 22.6693 46.553 22.3886 47.7918C22.1079 49.0307 21.8086 50.2534 21.507 51.483C21.2054 52.7126 20.9015 53.9375 20.579 55.1625L20.1011 56.9976C19.9317 57.6078 19.7717 58.2202 19.5977 58.8281C19.7206 58.2063 19.8598 57.5892 19.9921 56.9721L20.4097 55.1161C20.6904 53.8842 20.9897 52.6546 21.2797 51.425C21.5697 50.1954 21.8852 48.9704 22.2077 47.7454C22.5301 46.5205 22.8457 45.3025 23.2006 44.0798Z" fill="black"/>
<path d="M24.4484 41.2751C24.3278 41.9711 24.184 42.6532 24.0355 43.3376C23.887 44.022 23.7269 44.7064 23.5715 45.3862C23.416 46.0659 23.2351 46.748 23.0472 47.4231L22.7688 48.437C22.6667 48.7734 22.5739 49.1121 22.4648 49.4462C22.5228 49.0982 22.5948 48.7502 22.6597 48.4115L22.8778 47.3814C23.024 46.697 23.1864 46.0149 23.3418 45.3328C23.4972 44.6507 23.6805 43.9733 23.8661 43.2959C24.0517 42.6184 24.2373 41.9456 24.4484 41.2751Z" fill="black"/>
<path d="M21.1133 58.5173C20.7607 60.081 20.3802 61.6401 19.9974 63.1991L18.8212 67.8739L17.5939 72.5371L16.9628 74.8571C16.7448 75.6297 16.5336 76.4045 16.3086 77.1771C16.4826 76.3929 16.6728 75.6111 16.8538 74.8293L17.4245 72.4907L18.5984 67.8182L19.8257 63.1597C20.248 61.6145 20.6702 60.0648 21.1133 58.5173Z" fill="black"/>
<path d="M15.5876 74.8894C15.4322 75.7617 15.2558 76.6271 15.0726 77.4948C14.8893 78.3624 14.6898 79.2208 14.4995 80.0839C14.3093 80.9469 14.0935 81.8053 13.8754 82.6637L13.546 83.9467C13.4277 84.3736 13.314 84.8028 13.1934 85.2273C13.2676 84.7912 13.3558 84.3573 13.437 83.9235L13.7061 82.622C13.887 81.7566 14.0866 80.8959 14.2791 80.0328C14.4717 79.1698 14.6851 78.3114 14.9032 77.4553C15.1213 76.5992 15.3417 75.7408 15.5876 74.8894Z" fill="black"/>
<path d="M11.6376 77.2002C11.4567 78.1027 11.2525 79.0005 11.046 79.896C10.8395 80.7916 10.6122 81.6824 10.3964 82.5756C10.1807 83.4688 9.93241 84.3551 9.70041 85.2413L9.33153 86.5707C9.20161 87.0115 9.07865 87.4546 8.93945 87.8931C9.02761 87.443 9.12969 86.9929 9.22481 86.5428L9.53105 85.1996C9.73753 84.304 9.96489 83.4132 10.1807 82.52C10.3964 81.6268 10.6447 80.7382 10.8767 79.852C11.1087 78.9657 11.3685 78.0795 11.6376 77.2002Z" fill="black"/>
<path d="M14.8488 69.5999C14.5773 70.9501 14.2804 72.298 13.9788 73.6436C13.6772 74.9892 13.3616 76.3279 13.0508 77.6711C12.7399 79.0144 12.4035 80.3438 12.0648 81.6801L11.5567 83.6846C11.378 84.3504 11.2087 85.0186 11.0254 85.6821C11.1576 85.007 11.3061 84.3342 11.4476 83.6591L11.8931 81.6383C12.1924 80.2951 12.5125 78.9541 12.8211 77.6108C13.1296 76.2675 13.4684 74.9359 13.8048 73.5926C14.1412 72.2493 14.4799 70.9199 14.8488 69.5999Z" fill="black"/>
<path d="M25.3792 41.4536C25.1194 42.7551 24.8363 44.052 24.5463 45.3466C24.2563 46.6411 23.9524 47.9311 23.6555 49.2256C23.3585 50.5202 23.036 51.8055 22.7112 53.0931L22.2217 55.021C22.05 55.6613 21.8876 56.3039 21.709 56.9443C21.8366 56.2923 21.9781 55.6451 22.1127 54.9955L22.5419 53.0513C22.8295 51.7567 23.1358 50.4645 23.4327 49.1723C23.7297 47.88 24.0522 46.5924 24.377 45.3048C24.7018 44.0172 25.0289 42.7343 25.3792 41.4536Z" fill="black"/>
<path d="M15.5743 60.7444C15.3423 61.858 15.0779 62.9646 14.8157 64.0713C14.5535 65.1779 14.2705 66.2799 13.9991 67.3819C13.7276 68.4839 13.4283 69.5836 13.1314 70.6809L12.6674 72.3258C12.5073 72.871 12.3565 73.4209 12.1895 73.9637C12.3055 73.4069 12.4354 72.8525 12.5583 72.298L12.9481 70.6369C13.2126 69.5325 13.4933 68.4306 13.7647 67.3262C14.0362 66.2219 14.3355 65.1246 14.6347 64.0272C14.934 62.9298 15.2472 61.8348 15.5743 60.7444Z" fill="black"/>
</g>
<path d="M6.89258 88.7354L19.6688 88.6797L32.4451 88.6588L57.9999 88.6194L83.5547 88.6588L96.3309 88.6774L109.107 88.7354L96.3309 88.7911L83.5547 88.8119L57.9999 88.8514L32.4451 88.8119L19.6688 88.7911L6.89258 88.7354Z" fill="#263238"/>
<path d="M64.7598 103.089C64.2216 103.263 48.8748 103.064 48.2878 102.686C48.0558 102.546 47.963 100.308 47.919 97.6002V97.5144C47.9074 96.9576 47.9004 96.3822 47.9004 95.7999C47.9004 95.721 47.9004 95.6398 47.9004 95.5679L57.8996 95.5957L57.888 95.9066L57.8254 97.5306V97.6976C57.8254 97.6976 63.6648 100.403 64.2587 100.885C64.8526 101.368 65.2981 102.918 64.7598 103.089Z" fill="#EBEBEB"/>
<path d="M64.7609 103.089C64.4848 103.177 60.3158 103.168 56.2396 103.089C55.4206 103.073 54.6156 103.054 53.8291 103.031C50.9221 102.952 48.5209 102.832 48.2982 102.688C48.0755 102.544 47.9757 100.368 47.9316 97.7137C47.9316 97.6766 47.9316 97.6394 47.9316 97.6023C47.9316 97.5652 47.9316 97.5443 47.9316 97.5142L57.8218 97.535V97.7021C57.8218 97.7021 63.6636 100.405 64.2552 100.89C64.8468 101.375 65.2992 102.917 64.7609 103.089Z" fill="#EF233C"/>
<path d="M64.5943 102.493C62.0075 102.395 51.5675 102.247 49.0039 102.349C48.9831 102.349 48.9831 102.363 49.0039 102.365C51.5559 102.516 61.9959 102.579 64.5943 102.535C64.65 102.544 64.65 102.495 64.5943 102.493Z" fill="#263238"/>
<path d="M58.9282 97.5745C57.912 97.3727 56.6662 97.5119 55.8774 98.2265C55.8472 98.2543 55.8774 98.2984 55.9215 98.2891C56.8997 97.9862 57.9078 97.7901 58.9282 97.7045C58.9454 97.7045 58.9619 97.6976 58.9741 97.6854C58.9863 97.6732 58.9932 97.6567 58.9932 97.6395C58.9932 97.6223 58.9863 97.6057 58.9741 97.5936C58.9619 97.5814 58.9454 97.5745 58.9282 97.5745Z" fill="#263238"/>
<path d="M59.6594 98.0269C58.6455 97.8251 57.3974 97.9643 56.6109 98.6788C56.5784 98.7067 56.6109 98.7508 56.6526 98.7415C57.6294 98.4391 58.6359 98.2431 59.6547 98.1568C59.672 98.1575 59.6887 98.1512 59.7013 98.1395C59.714 98.1277 59.7214 98.1114 59.722 98.0942C59.7226 98.077 59.7164 98.0602 59.7046 98.0476C59.6929 98.035 59.6766 98.0275 59.6594 98.0269Z" fill="#263238"/>
<path d="M60.3892 98.4793C59.373 98.2775 58.1249 98.4167 57.3384 99.1312C57.3082 99.1591 57.3384 99.2032 57.3802 99.1939C58.3565 98.8883 59.3631 98.6892 60.3822 98.6C60.3946 98.5959 60.4055 98.5882 60.4134 98.5778C60.4213 98.5675 60.426 98.555 60.4267 98.542C60.4275 98.529 60.4243 98.5161 60.4176 98.5049C60.4109 98.4937 60.401 98.4848 60.3892 98.4793Z" fill="#263238"/>
<path d="M56.2396 103.087C55.4206 103.071 54.6156 103.052 53.8291 103.029C50.9221 102.95 48.5209 102.829 48.2982 102.686C48.0755 102.542 47.9757 100.366 47.9316 97.7115C47.9316 97.6744 47.9316 97.6372 47.9316 97.6001C47.9316 97.563 47.9316 97.5421 47.9316 97.512C49.2935 98.4632 54.068 101.642 56.2396 103.087Z" fill="#263238"/>
<path d="M58.5022 97.5676H47.4497C47.4497 97.5676 49.6769 71.7507 49.5887 71.3006C49.4797 70.7229 45.3547 54.5734 44.5636 51.518L42.457 43.384H51.8229C51.8229 43.384 52.897 46.8501 54.289 51.3509C56.5302 58.6705 59.5276 68.7509 59.8222 71.1892C60.2955 75.1448 58.5022 97.5676 58.5022 97.5676Z" fill="#455A64"/>
<path d="M58.0122 95.6815C56.3256 95.6467 56.8104 95.6328 55.1215 95.6166C54.2956 95.6166 48.8575 95.5609 48.0942 95.6885C48.078 95.6885 48.078 95.721 48.0942 95.7233C48.8668 95.8509 54.2956 95.8045 55.1215 95.7952C56.8104 95.779 56.3256 95.7651 58.0122 95.7303C58.0187 95.7303 58.0249 95.7277 58.0294 95.7231C58.034 95.7186 58.0366 95.7124 58.0366 95.7059C58.0366 95.6994 58.034 95.6932 58.0294 95.6887C58.0249 95.6841 58.0187 95.6815 58.0122 95.6815Z" fill="#263238"/>
<path d="M51.6686 69.7231C51.3043 68.1246 50.7638 66.5586 50.2928 64.9903C49.3354 61.8041 48.3711 58.6196 47.3998 55.4365C46.9172 53.845 46.4316 52.2535 45.9428 50.662C45.6946 49.8592 45.4486 49.0565 45.1981 48.2538C44.9475 47.4511 44.6714 46.6924 44.4487 45.9013C44.3582 45.5788 44.3095 45.7552 44.4255 46.1658C44.6575 46.9894 44.8895 47.8153 45.1215 48.6366C45.5994 50.2652 46.0789 51.8931 46.5599 53.5202C47.5173 56.7589 48.484 59.9945 49.4599 63.2271C49.9456 64.8495 50.4328 66.4735 50.9215 68.0991C51.1694 68.8701 51.3693 69.6558 51.5201 70.4516C51.6499 71.284 51.6826 72.1287 51.6175 72.9688C51.5108 74.66 51.3159 76.349 51.1535 78.0356C50.9911 79.7223 50.8426 81.4159 50.6895 83.1072C50.3802 86.4712 50.0709 89.8359 49.7615 93.2015C49.7221 93.6284 49.685 94.0552 49.6525 94.4821C49.6525 94.6236 49.859 94.6144 49.8729 94.4821C50.2371 91.1552 50.5155 87.8167 50.8287 84.4829L51.7567 74.5371C51.8333 73.7042 51.9214 72.8713 51.9238 72.0338C51.9257 71.2564 51.84 70.4813 51.6686 69.7231Z" fill="#263238"/>
<path d="M50.7498 43.384C50.1768 47.8268 49.381 62.7491 49.2047 69.7346C48.1468 65.5029 45.2166 54.0375 44.5647 51.5133C43.4673 47.2956 42.595 43.9455 42.4651 43.449C42.4624 43.434 42.4585 43.4193 42.4535 43.4049C42.453 43.4003 42.453 43.3956 42.4535 43.391L50.7498 43.384Z" fill="#263238"/>
<path d="M53.2188 103.089C52.6806 103.263 37.3338 103.064 36.7468 102.686C36.5148 102.546 36.422 100.308 36.3779 97.6002C36.3779 97.5724 36.3779 97.5422 36.3779 97.5144C36.3779 96.9576 36.3617 96.3822 36.3594 95.7999C36.3594 95.721 36.3594 95.6398 36.3594 95.5679L46.3586 95.5957L46.3447 95.9066L46.2843 97.5306V97.6976C46.2843 97.6976 52.1261 100.403 52.7177 100.885C53.3093 101.368 53.7594 102.918 53.2188 103.089Z" fill="#EBEBEB"/>
<path d="M53.2203 103.089C52.9442 103.177 48.7728 103.168 44.6989 103.089C43.8776 103.073 43.0749 103.054 42.2861 103.031C39.3815 102.952 36.9779 102.832 36.7552 102.688C36.5325 102.544 36.4351 100.368 36.3887 97.7137C36.3887 97.6766 36.3887 97.6394 36.3887 97.6023C36.3887 97.5652 36.3887 97.5443 36.3887 97.5142L46.2812 97.535V97.7021C46.2812 97.7021 52.1206 100.405 52.7122 100.89C53.3038 101.375 53.7585 102.917 53.2203 103.089Z" fill="#EF233C"/>
<path d="M53.0533 102.493C50.4665 102.395 40.0265 102.247 37.4629 102.349C37.442 102.349 37.442 102.363 37.4629 102.365C40.0149 102.516 50.4549 102.579 53.0533 102.535C53.1067 102.544 53.1067 102.495 53.0533 102.493Z" fill="#263238"/>
<path d="M47.3911 97.5745C46.375 97.3727 45.1268 97.5119 44.3403 98.2265C44.3102 98.2543 44.3403 98.2984 44.3821 98.2891C45.3588 97.9867 46.3654 97.7907 47.3842 97.7045C47.4014 97.7054 47.4183 97.6994 47.4311 97.6879C47.444 97.6764 47.4517 97.6602 47.4526 97.643C47.4535 97.6257 47.4476 97.6088 47.4361 97.596C47.4245 97.5832 47.4084 97.5754 47.3911 97.5745Z" fill="#263238"/>
<path d="M48.1196 98.0269C47.1034 97.8251 45.8576 97.9643 45.0688 98.6788C45.0386 98.7067 45.0688 98.7508 45.1129 98.7415C46.0888 98.4391 47.0946 98.2431 48.1126 98.1568C48.1299 98.1578 48.1468 98.1518 48.1596 98.1403C48.1724 98.1287 48.1802 98.1126 48.1811 98.0954C48.182 98.0781 48.1761 98.0612 48.1645 98.0484C48.153 98.0356 48.1368 98.0278 48.1196 98.0269Z" fill="#263238"/>
<path d="M48.8488 98.4793C47.8327 98.2775 46.5868 98.4167 45.8003 99.1312C45.7679 99.1591 45.8003 99.2032 45.8421 99.1939C46.8185 98.8883 47.825 98.6892 48.8442 98.6C48.8564 98.5956 48.8671 98.5877 48.8748 98.5772C48.8825 98.5667 48.8869 98.5542 48.8874 98.5412C48.8879 98.5282 48.8845 98.5154 48.8776 98.5043C48.8707 98.4933 48.8607 98.4846 48.8488 98.4793Z" fill="#263238"/>
<path d="M51.5041 43.384C51.5041 43.384 51.2884 47.8663 50.2629 51.4159C50.1794 51.7082 50.0913 51.9982 49.9938 52.2743C49.9938 52.2743 50.1354 52.1606 48.5044 53.1605C48.5044 53.1605 49.1354 70.9828 49.1609 72.0453C49.2561 76.0264 46.363 97.7254 46.363 97.7254L35.3105 97.7695C35.3105 97.7695 39.2545 73.1636 39.2545 71.7066C39.2337 69.3634 37.8393 59.1786 38.2685 51.6247C38.4535 48.7547 39.2166 45.9517 40.512 43.384H51.5041Z" fill="#455A64"/>
<path d="M45.9912 95.7626C44.3023 95.7347 44.7872 95.7185 43.0982 95.7092C42.2723 95.7092 36.8342 95.6814 36.0709 95.8136C36.0666 95.8136 36.0625 95.8153 36.0594 95.8184C36.0564 95.8214 36.0547 95.8256 36.0547 95.8299C36.0547 95.8342 36.0564 95.8383 36.0594 95.8414C36.0625 95.8444 36.0666 95.8461 36.0709 95.8461C36.8435 95.9714 42.2723 95.9018 43.0982 95.8902C44.7872 95.867 44.3023 95.8554 45.9912 95.8113C45.9964 95.8097 46.001 95.8064 46.0042 95.8021C46.0074 95.7977 46.0092 95.7924 46.0092 95.787C46.0092 95.7815 46.0074 95.7762 46.0042 95.7718C46.001 95.7675 45.9964 95.7642 45.9912 95.7626Z" fill="#263238"/>
<path d="M41.1702 44.0567C39.7782 46.7432 39.2516 49.801 39.1379 52.7984C39.0149 56.0464 39.4047 59.2944 39.748 62.5424C40.1076 65.9412 40.4208 69.3447 40.161 72.7504C39.8988 76.2026 39.2864 79.6292 38.7922 83.0536C38.298 86.4779 37.776 89.9022 37.3515 93.3358C37.2981 93.7696 37.2424 94.2035 37.1914 94.6396C37.1914 94.6605 37.2216 94.6721 37.2262 94.6396C37.8317 91.2571 38.3305 87.8536 38.8502 84.4548C39.3699 81.056 39.9476 77.6851 40.2956 74.2816C40.6436 70.8782 40.4974 67.498 40.1564 64.1015C39.8292 60.8326 39.3954 57.5637 39.3838 54.2716C39.3838 51.2116 39.6831 48.0796 40.7758 45.1935C40.9196 44.8084 41.0774 44.4279 41.2398 44.0497C41.2491 44.0033 41.2004 44.001 41.1702 44.0567Z" fill="#263238"/>
<path d="M50.4608 52.0121C49.3618 52.4714 48.3046 53.0249 47.3009 53.6662C47.2935 53.6715 47.2883 53.6792 47.2862 53.688C47.2841 53.6969 47.2853 53.7061 47.2896 53.7141C47.2938 53.7221 47.3009 53.7283 47.3094 53.7314C47.3179 53.7346 47.3273 53.7345 47.3357 53.7312C48.4006 53.2138 49.4887 52.715 50.5257 52.1397C50.5408 52.1301 50.5518 52.1152 50.5565 52.098C50.5612 52.0807 50.5593 52.0623 50.5512 52.0464C50.5431 52.0304 50.5293 52.0181 50.5126 52.0117C50.4959 52.0054 50.4774 52.0055 50.4608 52.0121Z" fill="#263238"/>
<path d="M50.5236 48.2096C50.4494 48.6017 50.3542 48.9915 50.2707 49.3696C50.1872 49.7478 50.1315 50.1097 50.0387 50.4716C49.961 50.8245 49.782 51.147 49.5237 51.3996C49.3798 51.5342 49.2221 51.6525 49.0597 51.7755C48.9785 51.8404 48.888 51.9031 48.8022 51.9704C48.8138 51.9193 48.823 51.866 48.8323 51.8126L48.9089 51.3648C48.9646 51.0354 49.0156 50.7036 49.0666 50.3719C49.1664 49.72 49.2592 49.0611 49.3938 48.4161C49.3949 48.413 49.3952 48.4096 49.3947 48.4063C49.3942 48.403 49.393 48.3999 49.3911 48.3972C49.3891 48.3944 49.3866 48.3922 49.3836 48.3907C49.3807 48.3892 49.3774 48.3884 49.374 48.3884C49.3707 48.3884 49.3674 48.3892 49.3645 48.3907C49.3615 48.3922 49.359 48.3944 49.357 48.3972C49.3551 48.3999 49.3538 48.403 49.3534 48.4063C49.3529 48.4096 49.3532 48.413 49.3543 48.4161C49.1919 49.0541 49.0133 49.6875 48.8718 50.3324C48.8022 50.648 48.5539 52.2093 48.5423 52.3207C48.5307 52.432 48.5214 52.5527 48.5191 52.664C48.504 52.7803 48.504 52.8981 48.5191 53.0144C48.5191 53.0422 48.5609 53.0376 48.5725 53.0144C48.6213 52.9066 48.6549 52.7926 48.6722 52.6756C48.7001 52.5643 48.7256 52.4436 48.7465 52.3392C48.7465 52.2975 48.7581 52.2557 48.765 52.214C48.9182 52.1212 49.062 51.9959 49.2058 51.8915C49.3497 51.7871 49.519 51.6595 49.6698 51.5481C49.9404 51.3189 50.1353 51.0132 50.229 50.6712C50.3246 50.3032 50.3867 49.9274 50.4146 49.5483C50.4633 49.1052 50.5004 48.6597 50.5607 48.2166C50.577 48.1934 50.5282 48.1818 50.5236 48.2096Z" fill="#263238"/>
<path d="M67.2867 101.82H64.8438L72.8524 56.5151H75.2953L67.2867 101.82Z" fill="#A6A6A6"/>
<path d="M83.52 101.82H85.963L77.9543 56.5151H75.5137L83.52 101.82Z" fill="#A6A6A6"/>
<path d="M82.668 89.6171V87.0952H67.6808V89.6171H82.668Z" fill="#A6A6A6"/>
<path d="M53.478 57.5918H33.8555V59.8979H53.478V57.5918Z" fill="#EF233C"/>
<path opacity="0.3" d="M53.478 57.5918H33.8555V59.8979H53.478V57.5918Z" fill="black"/>
<path d="M85.8185 54.5547H66.1982L33.8574 57.5916H53.4777L85.8185 54.5547Z" fill="#EF233C"/>
<path d="M85.8193 56.7541V54.5547L53.4785 57.5916V59.8976L85.8193 56.7541Z" fill="#EF233C"/>
<path opacity="0.1" d="M85.8193 56.7541V54.5547L53.4785 57.5916V59.8976L85.8193 56.7541Z" fill="black"/>
<path d="M43.668 57.5918L50.8159 56.8772L47.6004 57.5918H43.668Z" fill="#EF233C"/>
<path opacity="0.3" d="M43.668 57.5918L50.8159 56.8772L47.6004 57.5918H43.668Z" fill="black"/>
<path d="M38.918 57.5917L41.2728 57.2344L40.0942 57.5917H38.918Z" fill="#EF233C"/>
<path opacity="0.3" d="M38.918 57.5917L41.2728 57.2344L40.0942 57.5917H38.918Z" fill="black"/>
<path d="M35.8707 105.2H33.4277L41.4364 59.8977H43.8793L35.8707 105.2Z" fill="#A6A6A6"/>
<path d="M52.1024 105.2H54.5454L46.5367 59.8977H44.0938L52.1024 105.2Z" fill="#A6A6A6"/>
<path d="M51.252 92.9972V90.4753H36.2648V92.9972H51.252Z" fill="#A6A6A6"/>
<path d="M52.9823 31.4428C57.453 36.0434 64 47.72 64.8143 49.3973C65.3642 50.5341 59.4203 53.5733 59.1628 52.7451C58.8334 51.6848 53.5646 38.607 52.1564 33.6677C51.3769 30.944 52.059 30.494 52.9823 31.4428Z" fill="#EB9481"/>
<path d="M58.873 51.968C59.0842 52.534 59.801 54.9422 60.3045 55.2415C60.8079 55.5408 63.397 55.4596 64.7125 55.4503C66.0279 55.441 66.2762 55.0768 66.253 54.6267C66.2298 54.1766 63.4806 54.107 63.4806 54.107C63.4806 54.107 67.1555 55.1371 68.0811 55.3041C69.0068 55.4712 71.1343 56.0001 71.4382 55.2276C71.5727 54.8819 70.9904 54.5316 70.9904 54.5316C70.9904 54.5316 71.8836 54.7868 72.0228 54.3413C72.1806 53.8356 71.4706 53.5618 71.4706 53.5618C71.4706 53.5618 72.0298 53.6708 72.0391 53.2602C72.0623 52.3322 68.5706 51.9076 68.5706 51.9076C68.5706 51.9076 71.2502 53.1929 71.3314 52.4436C71.4428 51.4042 65.9606 50.2952 65.3876 49.8452C65.0097 49.5342 64.6947 49.1538 64.4596 48.7246L58.873 51.968Z" fill="#EB9481"/>
<path d="M66.2294 54.8518C66.2384 54.7877 66.2317 54.7223 66.2098 54.6613C66.188 54.6003 66.1518 54.5454 66.1042 54.5015C66.0084 54.4158 65.8996 54.3461 65.7817 54.295C65.5385 54.1956 65.2869 54.118 65.03 54.063C64.515 53.9354 63.9837 53.8473 63.457 53.7127C64.0036 53.7008 64.5494 53.7592 65.081 53.8867C65.3507 53.9473 65.6107 54.0449 65.8536 54.1767C65.9787 54.2449 66.0884 54.3381 66.1761 54.4505C66.2185 54.5072 66.2456 54.5739 66.255 54.6442C66.2643 54.7145 66.2555 54.7859 66.2294 54.8518Z" fill="#263238"/>
<path d="M70.9915 54.5315C70.6134 54.441 70.2398 54.3366 69.8686 54.2299C69.4974 54.1232 69.1262 54.0141 68.755 53.9051L67.6484 53.5641C67.2795 53.4504 66.9106 53.3321 66.5371 53.23C66.9277 53.2698 67.3153 53.3356 67.6971 53.4272C68.0753 53.513 68.4488 53.6174 68.82 53.7288C69.1912 53.8401 69.5601 53.9608 69.922 54.0977C70.2839 54.2345 70.6296 54.3691 70.9915 54.5315Z" fill="#263238"/>
<path d="M67.4102 52.3091C67.7665 52.3299 68.1208 52.3764 68.4704 52.4483C68.8205 52.5163 69.1667 52.603 69.5074 52.7081C69.8489 52.8124 70.1842 52.9355 70.512 53.077C70.8408 53.2162 71.1594 53.3782 71.4655 53.5619C71.1268 53.4482 70.7974 53.3299 70.461 53.2092C70.1246 53.0886 69.7928 52.9772 69.4541 52.8844C69.1154 52.7916 68.779 52.6826 68.4379 52.5852C68.0969 52.4877 67.7558 52.3996 67.4102 52.3091Z" fill="#263238"/>
<path d="M67.9453 51.4297C68.5203 51.4702 69.0874 51.5864 69.632 51.7754C70.1811 51.952 70.7039 52.2017 71.1864 52.5178C70.6435 52.3275 70.1145 52.1257 69.574 51.9494C69.0334 51.773 68.4928 51.6014 67.9453 51.4297Z" fill="#263238"/>
<path d="M52.2141 34.9486C53.5852 39.3983 56.817 48.0774 56.817 48.0774L62.849 45.1218C62.849 45.1218 57.281 36.4705 54.1443 32.4662C51.9357 29.6427 50.9636 30.8816 52.2141 34.9486Z" fill="#EF233C"/>
<path d="M55.9199 47.3976L62.7825 44.3538L63.569 45.9615L56.7064 49.1214L55.9199 47.3976Z" fill="#EF233C"/>
<path opacity="0.1" d="M55.9199 47.3976L62.7825 44.3538L63.569 45.9615L56.7064 49.1214L55.9199 47.3976Z" fill="black"/>
<path d="M38.9141 47.6922L53.5533 49.0238C53.5533 49.0238 53.6345 38.4864 53.4581 35.8578C53.2818 33.2293 53.1194 30.5218 52.6461 29.849C52.1729 29.1762 50.3702 28.6171 49.252 29.0022C48.1337 29.3874 46.004 31.1761 43.4149 36.4262C40.8257 41.6764 38.9141 47.6922 38.9141 47.6922Z" fill="#EF233C"/>
<path d="M48.8401 29.1787C48.8401 29.1787 49.1162 34.067 49.1417 34.1342C49.1673 34.2015 52.9883 34.1621 53.0347 34.1342C53.0811 34.1064 52.4454 29.6427 52.4454 29.6427L52.7934 29.9884C52.7934 29.9884 53.6657 34.4196 53.8212 37.489C53.9766 40.5583 53.6031 49.1493 53.6031 49.1493L38.8711 47.7782C39.6998 44.4218 40.9021 41.169 42.4555 38.0806C42.4555 38.0806 45.6269 37.5841 46.49 37.1201C47.353 36.6561 48.3831 29.3968 48.3831 29.3968L48.8401 29.1787Z" fill="#455A64"/>
<path d="M39.0363 48.2561C38.9528 48.3349 38.2754 53.2371 38.5839 53.4436C38.8925 53.6501 43.101 54.4458 43.4142 54.2927C43.7274 54.1396 44.203 49.2281 44.1774 49.1632C44.1519 49.0982 39.1941 48.096 39.0363 48.2561Z" fill="#EF233C"/>
<path opacity="0.1" d="M43.9641 51.3393C43.804 52.6965 43.5859 54.1975 43.4142 54.281C43.101 54.4342 38.8925 53.6384 38.584 53.4319C38.4146 53.3182 38.5422 51.8079 38.7046 50.4461C38.7781 49.7069 38.8896 48.9721 39.0387 48.2444C39.1942 48.0959 44.1427 49.0866 44.1775 49.1515C44.1891 49.184 44.0963 50.2094 43.9641 51.3393Z" fill="black"/>
<path d="M38.5124 48.0773C38.4405 48.01 38.9764 46.1889 39.2572 45.7341C39.2572 45.7341 43.7788 46.6621 47.6416 47.0797C50.53 47.386 53.8384 47.328 53.85 47.4092C53.8616 47.4904 53.9381 49.4647 53.8662 49.6248C53.7943 49.7848 49.4072 49.7037 46.9178 49.4972C44.4284 49.2907 38.7444 48.3047 38.5124 48.0773Z" fill="#EF233C"/>
<path d="M51.6617 47.1842C51.4877 47.0984 48.7107 46.9917 48.5622 47.0706C48.3116 47.2051 48.2629 49.6388 48.3302 49.7107C48.3975 49.7826 51.5387 49.836 51.6315 49.771C51.7243 49.7061 51.838 47.2724 51.6617 47.1842ZM51.3207 49.4625C50.4281 49.5006 49.5341 49.4851 48.6434 49.4161C48.597 49.3627 48.6434 47.4812 48.8383 47.3768C49.6776 47.3428 50.5183 47.3723 51.3531 47.465C51.5039 47.5322 51.3972 49.4161 51.3207 49.4625Z" fill="#DBDBDB"/>
<path d="M51.5532 48.3021L50.6719 48.2786L50.6629 48.6148L51.5442 48.6384L51.5532 48.3021Z" fill="#DBDBDB"/>
<path d="M47.5469 48.3233C47.5469 48.3491 47.5393 48.3743 47.5249 48.3957C47.5105 48.4171 47.4901 48.4338 47.4662 48.4435C47.4423 48.4533 47.4161 48.4557 47.3908 48.4505C47.3656 48.4453 47.3424 48.4327 47.3243 48.4143C47.3063 48.3959 47.2941 48.3725 47.2893 48.3472C47.2846 48.3218 47.2875 48.2957 47.2977 48.272C47.3079 48.2483 47.3249 48.2281 47.3465 48.2141C47.3682 48.2001 47.3936 48.1929 47.4193 48.1934C47.4363 48.1934 47.4531 48.1968 47.4687 48.2033C47.4844 48.2099 47.4985 48.2195 47.5104 48.2316C47.5223 48.2437 47.5316 48.258 47.5379 48.2738C47.5442 48.2895 47.5473 48.3063 47.5469 48.3233Z" fill="#263238"/>
<path d="M46.209 48.1933C46.2095 48.2192 46.2022 48.2446 46.1881 48.2663C46.174 48.2881 46.1537 48.3051 46.1299 48.3152C46.1061 48.3253 46.0798 48.3281 46.0544 48.3231C46.0289 48.3182 46.0056 48.3058 45.9873 48.2875C45.969 48.2692 45.9565 48.2458 45.9516 48.2204C45.9467 48.195 45.9494 48.1686 45.9596 48.1448C45.9697 48.121 45.9867 48.1007 46.0084 48.0866C46.0301 48.0725 46.0556 48.0652 46.0814 48.0657C46.1151 48.0663 46.1472 48.0799 46.171 48.1037C46.1948 48.1275 46.2084 48.1596 46.209 48.1933Z" fill="#263238"/>
<path d="M40.5822 42.9764L40.9864 43.0346C41.1386 43.0565 41.2759 43.1381 41.3681 43.2612C41.4602 43.3844 41.4997 43.5391 41.4777 43.6914L40.9115 47.6203L39.357 47.3963L39.9231 43.4674C39.9451 43.3151 40.0266 43.1778 40.1498 43.0857C40.2729 42.9935 40.4277 42.9541 40.5799 42.976L40.5822 42.9764Z" fill="#37474F"/>
<path d="M40.6604 47.5828L39.6133 47.4319L39.5534 47.8475L40.6005 47.9984L40.6604 47.5828Z" fill="#37474F"/>
<path d="M40.2431 47.9481L39.9102 47.9001L39.2666 52.3664L39.5995 52.4144L40.2431 47.9481Z" fill="#EBEBEB"/>
<path d="M39.7095 52.8334C39.7095 52.8334 39.4079 53.4899 39.3847 53.4876L39.2757 53.4714L39.1667 53.4551C39.1435 53.4551 39.0391 52.7359 39.0391 52.7359L39.2711 52.3694L39.6005 52.4158L39.7095 52.8334Z" fill="#EBEBEB"/>
<path d="M40.3432 43.5395L40.0723 43.5005L39.5706 46.9817L39.8416 47.0207L40.3432 43.5395Z" fill="#263238"/>
<path d="M40.8452 43.6106L40.5742 43.5715L40.0726 47.0527L40.3435 47.0917L40.8452 43.6106Z" fill="#263238"/>
<path d="M41.3491 43.6841L41.0781 43.645L40.5765 47.1262L40.8474 47.1652L41.3491 43.6841Z" fill="#263238"/>
<path d="M41.8118 44.7085L40.916 44.5637L40.69 45.9625L41.5857 46.1072L41.8118 44.7085Z" fill="#EBEBEB"/>
<path d="M41.663 44.9733L42.2685 45.0708C42.3613 45.0847 42.7836 44.7251 43.0666 44.7715L43.3798 44.8225C43.6489 44.8643 44.7393 45.3236 44.6256 46.0243C44.512 46.7249 44.5584 46.4442 44.5584 46.4442C44.5584 46.4442 44.4632 46.0498 44.2173 45.9384C44.1023 45.8873 43.9719 45.883 43.8537 45.9263C43.7355 45.9696 43.6388 46.0571 43.584 46.1704C43.4987 46.3694 43.4274 46.5741 43.3705 46.7829L42.2616 46.6043C42.2499 46.3503 42.215 46.0979 42.1572 45.8503C42.0852 45.66 41.5586 45.6183 41.5586 45.6183L41.663 44.9733Z" fill="#EBEBEB"/>
<path d="M43.1582 46.7484L42.4688 46.6372L42.0673 49.1269L42.7567 49.2381L43.1582 46.7484Z" fill="#EBEBEB"/>
<path d="M43.112 48.1008L42.0859 47.9353L41.1925 53.4758L42.2186 53.6413L43.112 48.1008Z" fill="#263238"/>
<path d="M43.9641 51.3392C43.804 52.6964 43.5859 54.1975 43.4142 54.281C43.101 54.4341 38.8925 53.6384 38.584 53.4319C38.4146 53.3182 38.5422 51.8079 38.7046 50.446L43.9641 51.3392Z" fill="#EF233C"/>
<path d="M53.0676 35.2175C52.9539 35.0852 48.924 35.1966 48.8753 35.3335C48.8266 35.4704 48.7361 38.136 48.8498 38.2404C49.1305 38.5096 50.9146 38.9364 51.2974 38.8924C51.988 38.7219 52.6394 38.4202 53.216 38.0038C53.3413 37.8901 53.3228 35.5098 53.0676 35.2175ZM53.0838 37.9203C52.8936 38.0688 51.773 38.6511 51.2719 38.7253C50.9308 38.7764 49.0679 38.2033 48.9983 38.1244C48.9287 38.0456 48.9612 36.0109 48.9844 35.4611C49.2674 35.25 52.8448 35.2592 52.9794 35.3729C53.0699 35.4495 53.2137 37.8159 53.0838 37.9203Z" fill="#263238"/>
<path d="M51.3783 32.1296C50.557 31.9765 49.6615 30.1112 49.5664 28.9674C49.5664 28.8885 49.9492 28.2714 50.39 27.4873C50.6545 27.0233 50.9375 26.4804 51.1602 25.9746C51.2066 25.8702 51.4758 26.2182 51.4758 26.2182L52.0604 26.6637L53.9906 28.1461C53.5323 28.6994 53.1427 29.3063 52.8306 29.9534C52.8019 30.0234 52.7786 30.0955 52.761 30.1692C52.7618 30.1815 52.7618 30.1939 52.761 30.2063C52.6358 30.6239 52.1718 32.2757 51.3783 32.1296Z" fill="#EB9481"/>
<path d="M52.757 30.1599C52.7578 30.1723 52.7578 30.1847 52.757 30.1971C52.6422 30.1642 52.5305 30.1215 52.423 30.0695C50.3094 29.0788 51.2421 26.2461 51.2421 26.2461L52.0703 26.6544L54.0006 28.1369C53.5422 28.6902 53.1527 29.297 52.8406 29.9442C52.807 30.0138 52.7791 30.0859 52.757 30.1599Z" fill="#263238"/>
<path d="M52.6217 22.1072C51.7215 23.0352 50.6567 26.4757 51.0673 27.5824C51.6612 29.1855 53.4523 30.2411 55.0113 29.3386C56.5309 28.4663 57.8394 23.9446 57.3058 22.8565C56.5286 21.2511 53.9511 20.7523 52.6217 22.1072Z" fill="#EB9481"/>
<path d="M54.6358 25.7266C54.6358 25.7266 54.6149 25.7266 54.6126 25.7405C54.543 25.9725 54.4247 26.23 54.1927 26.237C54.1927 26.237 54.1811 26.2509 54.1927 26.2509C54.4571 26.2996 54.6103 25.9586 54.6358 25.7266Z" fill="#263238"/>
<path d="M54.5205 25.418C54.1563 25.2672 53.8825 26.0026 54.2189 26.1418C54.5553 26.281 54.8152 25.5433 54.5205 25.418Z" fill="#263238"/>
<path d="M55.8663 26.1558C55.8663 26.1558 55.8803 26.1743 55.8663 26.1836C55.7759 26.4156 55.7086 26.6824 55.8849 26.8332C55.8849 26.8332 55.8849 26.8494 55.8849 26.8471C55.6506 26.7172 55.7434 26.3553 55.8663 26.1558Z" fill="#263238"/>
<path d="M56.159 25.984C56.5348 26.0931 56.2912 26.8401 55.9409 26.738C55.5906 26.636 55.8434 25.9028 56.159 25.984Z" fill="#263238"/>
<path d="M54.3304 24.9517C54.4262 25.0002 54.5245 25.0436 54.625 25.0816C54.7223 25.1431 54.8376 25.1701 54.9521 25.1582C54.9872 25.1475 55.0178 25.1256 55.0391 25.0958C55.0605 25.066 55.0715 25.0301 55.0704 24.9934C55.0568 24.9213 55.0242 24.8542 54.9761 24.7987C54.928 24.7433 54.8661 24.7016 54.7967 24.6779C54.6637 24.6091 54.5101 24.5917 54.3652 24.6292C54.3321 24.6393 54.3027 24.6588 54.2807 24.6854C54.2587 24.7121 54.245 24.7446 54.2413 24.7789C54.2375 24.8133 54.244 24.848 54.2599 24.8787C54.2757 24.9094 54.3002 24.9348 54.3304 24.9517Z" fill="#263238"/>
<path d="M56.58 25.7289C56.4849 25.6755 56.406 25.6082 56.3155 25.5456C56.2251 25.4829 56.1276 25.4273 56.0835 25.3136C56.0743 25.2783 56.077 25.2409 56.0912 25.2073C56.1055 25.1737 56.1306 25.1458 56.1624 25.128C56.2308 25.1019 56.305 25.0946 56.3772 25.1068C56.4494 25.1191 56.517 25.1504 56.5731 25.1976C56.7004 25.2767 56.7945 25.3996 56.8375 25.5433C56.8433 25.5759 56.8397 25.6095 56.8272 25.6402C56.8147 25.6709 56.7938 25.6974 56.767 25.7168C56.7401 25.7362 56.7083 25.7476 56.6752 25.7497C56.6422 25.7518 56.6092 25.7446 56.58 25.7289Z" fill="#263238"/>
<path d="M54.0565 27.0628C54.0806 27.1743 54.1275 27.2797 54.1942 27.3723C54.2608 27.4649 54.3458 27.5428 54.4439 27.6011C54.5306 27.6515 54.6234 27.6905 54.72 27.7171C54.738 27.7239 54.7566 27.7285 54.7757 27.731H54.8267C54.8396 27.7334 54.8529 27.7315 54.8646 27.7256C54.8764 27.7197 54.8859 27.7102 54.8917 27.6985C54.8928 27.6908 54.8928 27.683 54.8917 27.6753V27.6544C54.9613 27.4804 55.0425 27.209 55.0425 27.209C55.0958 27.2647 55.3673 27.5338 55.3974 27.441C55.6712 26.6428 55.8632 25.8188 55.9705 24.9818C55.969 24.9771 55.966 24.9731 55.9621 24.9702C55.9581 24.9674 55.9533 24.9658 55.9484 24.9658C55.9436 24.9658 55.9388 24.9674 55.9348 24.9702C55.9309 24.9731 55.9279 24.9771 55.9264 24.9818C55.6689 25.7172 55.5413 26.4944 55.2954 27.2391C55.1993 27.1416 55.0899 27.058 54.9706 26.9909C54.9427 26.9909 54.8198 27.5222 54.7827 27.5964C54.6337 27.5565 54.4942 27.4874 54.3723 27.393C54.2504 27.2986 54.1486 27.1808 54.0727 27.0466C54.0565 27.0303 54.0426 27.0396 54.0565 27.0628Z" fill="#263238"/>
<path d="M51.5616 24.9818C52.1579 25.2578 52.8632 23.8218 52.8632 23.8218C52.8632 23.8218 53.8306 24.1396 54.9164 23.1629C54.9164 23.1629 55.6657 24.4876 56.7097 24.8286C58.3476 25.3622 59.3522 23.4042 59.0065 22.7082C58.5193 21.7222 56.6703 21.7802 56.6703 21.7802C56.6703 21.7802 54.8584 20.0355 53.4455 21.1352C53.1588 21.0059 52.8338 20.9901 52.536 21.0908C52.2381 21.1915 51.9894 21.4014 51.84 21.6781C51.209 22.6826 51.1162 24.773 51.5616 24.9818Z" fill="#263238"/>
<path d="M52.57 23.8704C53.0371 24.0293 53.5436 24.0293 54.0107 23.8704C54.263 23.7789 54.4895 23.628 54.6712 23.4306C54.8529 23.2331 54.9845 22.9949 55.0547 22.7359C55.0547 22.708 55.1058 22.722 55.0988 22.7498C55.0365 23.0245 54.9144 23.2821 54.7411 23.5043C54.5679 23.7265 54.3478 23.9077 54.0966 24.0351C53.8504 24.1524 53.5777 24.2025 53.306 24.1805C53.0343 24.1585 52.7732 24.0651 52.5491 23.9098C52.5282 23.8959 52.5422 23.8611 52.57 23.8704Z" fill="#263238"/>
<path d="M52.0991 21.0099C52.5932 20.7965 53.0735 20.9821 53.5073 21.2419C53.5328 21.2581 53.5073 21.2976 53.4841 21.2813C53.2687 21.153 53.0226 21.0853 52.7719 21.0853C52.5211 21.0853 52.2751 21.153 52.0596 21.2813C51.6467 21.5133 51.4588 21.9773 51.3404 22.4135C51.1054 23.251 51.1881 24.1458 51.5724 24.9261C51.5724 24.9261 51.5608 24.9493 51.5516 24.9261C51.3207 24.5083 51.177 24.048 51.1291 23.573C51.0813 23.0981 51.1303 22.6184 51.2732 22.1629C51.4077 21.7152 51.642 21.2071 52.0991 21.0099Z" fill="#263238"/>
<path d="M53.6275 26.8446C53.4536 26.7542 53.3084 26.6168 53.2086 26.448C53.1088 26.2792 53.0582 26.0859 53.0628 25.8898C53.0673 25.6938 53.1267 25.503 53.2343 25.339C53.3418 25.1751 53.4932 25.0445 53.6711 24.9623C53.8491 24.88 54.0466 24.8493 54.2412 24.8736C54.4358 24.8979 54.6196 24.9763 54.7719 25.0998C54.9241 25.2234 55.0387 25.3871 55.1026 25.5725C55.1665 25.7579 55.1771 25.9575 55.1332 26.1486C55.1019 26.2828 55.0443 26.4095 54.9638 26.5214C54.8833 26.6333 54.7815 26.7282 54.6642 26.8007C54.5469 26.8731 54.4165 26.9216 54.2804 26.9435C54.1443 26.9654 54.0052 26.9602 53.8711 26.9281C53.7866 26.9114 53.7046 26.8833 53.6275 26.8446ZM54.5324 25.1092C54.4659 25.0734 54.3949 25.0468 54.3212 25.0304C54.0961 24.9768 53.859 25.0112 53.6583 25.1264C53.4575 25.2416 53.3083 25.4289 53.2409 25.6503C53.1735 25.8717 53.1931 26.1105 53.2956 26.318C53.3981 26.5255 53.5759 26.6861 53.7926 26.7671C54.0094 26.8481 54.2489 26.8434 54.4624 26.7539C54.6758 26.6645 54.8472 26.4971 54.9415 26.2857C55.0358 26.0744 55.0459 25.835 54.9699 25.6164C54.8939 25.3979 54.7374 25.2165 54.5324 25.1092Z" fill="#EF233C"/>
<path d="M55.8827 27.6915C55.5254 27.5059 55.3931 26.9723 55.588 26.4596C55.6753 26.2141 55.8376 26.0022 56.052 25.8541C56.1404 25.7841 56.2455 25.7383 56.3569 25.721C56.4683 25.7038 56.5823 25.7158 56.6877 25.7557C56.7931 25.7957 56.8863 25.8623 56.9583 25.9491C57.0303 26.0359 57.0785 26.1398 57.0983 26.2508C57.16 26.5054 57.1414 26.7728 57.045 27.0164C56.8385 27.557 56.349 27.8725 55.9407 27.7124L55.8827 27.6915ZM56.69 25.9098C56.6746 25.901 56.6583 25.8939 56.6413 25.8889C56.5563 25.8607 56.4658 25.8534 56.3774 25.8676C56.289 25.8817 56.2052 25.9168 56.1332 25.9701C55.9429 26.1031 55.7986 26.292 55.7203 26.5106C55.5416 26.9746 55.6646 27.4618 55.994 27.5871C56.3235 27.7124 56.7387 27.434 56.922 26.9654C57.0093 26.7504 57.0272 26.5135 56.9731 26.2879C56.9547 26.2087 56.92 26.1342 56.8713 26.0691C56.8225 26.004 56.7608 25.9497 56.69 25.9098Z" fill="#EF233C"/>
<path d="M55.0558 26.2555L55.0117 26.1232C55.2066 26.056 55.6149 26.0188 55.7564 26.3668L55.6265 26.4202C55.5012 26.107 55.0744 26.2508 55.0558 26.2555Z" fill="#EF233C"/>
<path d="M50.5908 24.8448L50.498 24.7404C50.5468 24.6964 50.9829 24.3159 51.2938 24.3785C51.6047 24.4412 53.2797 25.274 53.3516 25.3065L53.289 25.4341C52.8041 25.2021 51.491 24.5618 51.266 24.5061C51.0409 24.4504 50.7092 24.7381 50.5908 24.8448Z" fill="#EF233C"/>
<path d="M51.9686 25.0259C51.9686 25.0259 51.7598 23.6339 51.1659 23.6663C50.5719 23.6988 50.3724 25.4504 50.8202 25.926C50.8732 25.9911 50.9388 26.0448 51.0131 26.0839C51.0874 26.1229 51.1689 26.1465 51.2526 26.1532C51.3363 26.1599 51.4204 26.1497 51.5 26.123C51.5796 26.0963 51.653 26.0537 51.7157 25.9979L51.9686 25.0259Z" fill="#EB9481"/>
<path d="M51.1127 24.1721H51.1011C51.4097 24.5201 51.4352 24.9772 51.3935 25.4156C51.39 25.366 51.3758 25.3178 51.352 25.2741C51.3281 25.2305 51.2952 25.1925 51.2553 25.1628C51.2154 25.133 51.1696 25.1123 51.121 25.1018C51.0724 25.0914 51.0221 25.0916 50.9735 25.1024C50.9619 25.1024 50.9619 25.1256 50.9735 25.1303C51.0521 25.1418 51.1251 25.1775 51.1824 25.2324C51.2398 25.2872 51.2787 25.3586 51.2937 25.4365C51.317 25.5666 51.3263 25.6988 51.3215 25.8309C51.3215 25.875 51.3935 25.8866 51.4004 25.8309C51.6556 25.3553 51.6139 24.4807 51.1127 24.1721Z" fill="#263238"/>
<path d="M52.7798 30.1599L51.288 31.7839L49.8288 28.4663L48.8613 28.9883C48.8613 28.9883 49.729 33.7095 49.8102 33.5425L51.2208 32.1922L51.9168 33.7698L52.9144 30.8582L52.7798 30.1599Z" fill="#EF233C"/>
<path d="M52.4991 32.3502C52.6476 31.863 52.8123 31.3758 52.9376 30.8839C52.9376 30.8677 52.919 30.8491 52.9074 30.8677C52.6383 31.2899 52.0792 33.1529 51.9121 33.5867C51.8843 33.5194 51.2393 32.1785 51.2161 32.1947C50.947 32.3919 49.9146 33.3733 49.8241 33.4684C49.6872 32.719 49.1281 29.9652 48.8961 29.2228C48.8948 29.2192 48.8924 29.2162 48.8893 29.214C48.8862 29.2119 48.8825 29.2107 48.8787 29.2107C48.8749 29.2107 48.8712 29.2119 48.8681 29.214C48.865 29.2162 48.8626 29.2192 48.8613 29.2228C48.9425 29.9907 49.6756 33.6842 49.7058 33.6865C50.225 33.236 50.7206 32.759 51.1906 32.2574C51.2811 32.5311 51.8866 33.9974 51.9168 33.9278C52.1386 33.4126 52.333 32.886 52.4991 32.3502Z" fill="#263238"/>
<path d="M47.1851 38.447L41.9141 42.8782L46.6701 48.5321L51.9388 44.1009L47.1851 38.447ZM45.9369 46.1355L43.255 42.9455L47.0297 39.7717L49.7116 42.9617L45.9369 46.1355Z" fill="#263238"/>
<path d="M60.511 61.0809L60.5157 61.0693L60.0818 61.2642L60.0633 61.2479V61.2456L60.2558 60.8257L59.822 61.0183L59.8034 60.9997L59.9983 60.5775L59.5622 60.7724L59.5436 60.7538L59.7385 60.3339L59.3046 60.5241L59.2861 60.5079L59.481 60.0856L59.0448 60.2805L59.0262 60.2619L59.2188 59.8397L58.7826 60.0323L58.7664 60.016H58.7641L58.959 59.5938L58.5251 59.7864L58.5089 59.7701L58.7014 59.3479L58.2653 59.5404L58.249 59.5242H58.2467L58.4416 59.102L58.0078 59.2945L57.9915 59.2783L57.9892 59.276L58.1841 58.856L57.7479 59.0486L57.7317 59.0323L57.9242 58.6101L57.4881 58.8027L57.4695 58.7864L57.6667 58.3619L57.2306 58.5567L57.212 58.5382L57.4069 58.1183L56.9707 58.3108L56.9522 58.2946L57.147 57.87L56.7109 58.0626L56.6946 58.0463L56.8872 57.6241L56.451 57.8167L56.4348 57.8027L56.6274 57.3782L56.1935 57.5707L56.175 57.5545L56.3698 57.1323L55.9337 57.3248L55.9151 57.3086L56.11 56.8863L55.6738 57.0812L55.6553 57.065L55.8502 56.6404L55.4163 56.833L55.3978 56.8167L55.5903 56.3945L55.1542 56.5871L55.1379 56.5708L55.3328 56.1463L54.8966 56.3388L54.8781 56.3226L55.073 55.9003L54.6368 56.0952L54.6182 56.079L54.8131 55.6544L54.377 55.8493L54.3584 55.8331L54.5533 55.4085L54.1171 55.6034L54.1009 55.5872L54.2958 55.1626L53.8573 55.3575L53.841 55.3412L54.0359 54.9167L53.5998 55.1092L53.5835 55.093L53.7761 54.6707L53.3399 54.8656L53.3237 54.8494L53.5186 54.4248L53.0824 54.6174H53.0801L53.0638 54.6012L53.2564 54.1766L52.8202 54.3715L52.804 54.3552L52.9989 53.9307L52.5604 54.1256L52.5442 54.1093L52.739 53.6847L52.3029 53.8796L52.2866 53.8634L52.4815 53.4388L52.043 53.6337L52.0268 53.6175L52.2217 53.1929L51.7855 53.3878L51.7693 53.3716L51.9642 52.947L51.5234 53.1396L51.5094 53.1256L51.7043 52.7011L51.2635 52.8936L51.2496 52.8774L51.4445 52.4552L51.006 52.6477L50.9898 52.6315L51.1846 52.2069L50.7462 52.4018L50.7299 52.3856L50.9248 51.961L50.4886 52.1559L50.4701 52.1396L50.6673 51.7151L50.2288 51.91L50.2102 51.8937L50.4051 51.4692L49.9713 51.664L49.9527 51.6478L50.1476 51.2232L49.7091 51.4158L49.6929 51.4019L49.8878 50.9773L49.4493 51.1722L49.433 51.1583L49.6302 50.7314L49.1918 50.924L49.1732 50.9077L49.3681 50.4832L48.9319 50.6803L48.9134 50.6641L49.1106 50.2372L48.6721 50.4321L48.6558 50.4159L48.8507 49.9913L48.4122 50.1862L48.396 50.1723L48.5909 49.7477L48.1524 49.9426L48.1385 49.924L48.3334 49.4995L47.8949 49.6944L47.8786 49.6781L48.0735 49.2536L47.635 49.4484L47.6188 49.4345L47.816 49.0076L47.3752 49.2025L47.3613 49.1863L47.5562 48.7617L47.1154 48.9566L47.0991 48.9404L47.2963 48.5135L46.8578 48.7084L46.6699 48.532L51.9386 44.1008L63.1605 58.812L60.511 61.0809Z" fill="#C7C7C7"/>
<g opacity="0.3">
<path d="M55.5929 48.8918L49.0644 50.3371L48.7071 50.416L48.6654 50.4253L48.6561 50.416L48.851 49.9914L48.4125 50.1863L48.3963 50.1724L48.5911 49.7478L48.1527 49.9427L48.1387 49.9242L48.3336 49.4996L47.8951 49.6945L47.8789 49.6783L48.0135 49.3859L54.8203 47.8779L55.5929 48.8918Z" fill="white"/>
<path d="M62.6214 59.2737L60.7538 60.8722L60.1761 60.9998L60.255 60.8258L59.8212 61.0183L59.8026 60.9998L59.9975 60.5775L59.5613 60.7724L59.5427 60.7538L59.7376 60.3339L59.3038 60.5242L59.2852 60.5079L59.4801 60.0857L59.044 60.2806L59.0254 60.262L59.1228 60.0486L62.6214 59.2737Z" fill="white"/>
<path d="M56.1944 57.2112L55.9346 57.3249L55.916 57.3086L55.9346 57.2669L56.1944 57.2112Z" fill="white"/>
<path d="M61.883 57.1347L57.4031 58.1277L57.3683 58.1346L56.9878 58.2205L57.1479 57.8701L56.7117 58.0627L56.6955 58.0465L56.888 57.6242L56.4519 57.8168L56.4356 57.8028L56.6282 57.3783L56.1943 57.5708L56.1758 57.5546L56.3498 57.1765L61.1081 56.1208L61.883 57.1347Z" fill="white"/>
<path d="M54.1844 47.0449L47.2662 48.5761L47.0411 48.6272L46.823 48.6759L46.6699 48.5321L47.3427 47.966L53.797 46.5369L54.1844 47.0449Z" fill="white"/>
<path d="M55.0043 56.0512L55.0739 55.9004L54.6377 56.0953L54.6191 56.079L54.7421 55.8122L59.9853 54.6499L60.1802 54.9028L55.0043 56.0512Z" fill="white"/>
<path d="M53.5301 46.1866L48.0039 47.4092L48.4841 47.0079L53.3353 45.9314L53.5301 46.1866Z" fill="white"/>
</g>
<path d="M48.9262 41.4932C48.8591 41.6939 48.7323 41.8692 48.5627 41.9957C48.3931 42.1222 48.1888 42.1937 47.9774 42.2008C48.0738 42.5473 48.0459 42.9167 47.8985 43.2448C47.6131 43.8086 46.6016 43.609 46.6016 43.609C46.6264 43.9886 46.5367 44.3668 46.3441 44.6948C46.0146 45.2075 44.966 45.1588 44.966 45.1588C44.7961 45.52 44.5022 45.8081 44.1378 45.9708C43.1471 46.3675 41.8317 45.4024 40.9895 44.7969C40.1474 44.1914 38.3401 41.6672 37.9434 41.2241L41.7598 35.8022C41.7598 35.8022 46.3093 37.4378 47.1978 38.2893C47.9472 39.0062 49.1513 40.716 48.9262 41.4932Z" fill="#EB9481"/>
<path d="M48.0003 42.0871C47.3878 41.1336 46.5248 40.4121 45.7058 39.6465C45.6873 39.6279 45.6594 39.6581 45.678 39.6743C46.5039 40.4283 47.1674 41.3354 47.9586 42.1219C47.9636 42.1258 47.9698 42.1278 47.9761 42.1277C47.9824 42.1276 47.9885 42.1253 47.9934 42.1213C47.9983 42.1172 48.0016 42.1116 48.0029 42.1054C48.0041 42.0992 48.0032 42.0927 48.0003 42.0871Z" fill="#263238"/>
<path d="M46.6323 43.5255C46.4723 43.3214 46.2859 43.1396 46.0778 42.9849C45.869 42.8086 45.6579 42.6346 45.4421 42.4652C45.0137 42.1234 44.5752 41.794 44.1267 41.4769C44.1081 41.463 44.0803 41.4885 44.1012 41.5047C44.5281 41.8458 44.9526 42.2007 45.3656 42.5487C45.5721 42.7274 45.7762 42.9084 45.9804 43.0916C46.1618 43.276 46.3633 43.4395 46.5813 43.5788C46.5886 43.582 46.5968 43.5828 46.6047 43.5812C46.6125 43.5796 46.6197 43.5756 46.6253 43.5698C46.6308 43.564 46.6345 43.5567 46.6357 43.5487C46.637 43.5408 46.6358 43.5327 46.6323 43.5255Z" fill="#263238"/>
<path d="M44.9482 45.1357C44.8007 44.9526 44.6235 44.7957 44.4238 44.6717L43.8299 44.2077C43.4355 43.9014 43.0411 43.5929 42.656 43.2797C42.6374 43.2657 42.6096 43.2936 42.6305 43.3098C43.0179 43.6369 43.403 43.9687 43.7905 44.2935L44.3705 44.7575C44.5339 44.9168 44.7239 45.0464 44.9319 45.1403C44.9319 45.1403 44.9551 45.1449 44.9482 45.1357Z" fill="#263238"/>
<path d="M45.1133 29.696C37.4573 29.696 28.8524 31.8096 30.4137 34.3244C31.7617 36.496 37.6452 41.0524 38.9977 41.9804C39.7587 42.5024 43.5473 36.489 42.6309 36.1201C41.4636 35.5629 40.3316 34.9346 39.2413 34.2386C39.0859 34.0344 42.6564 33.7444 45.5332 32.6517C48.6373 31.4732 48.7417 29.696 45.1133 29.696Z" fill="#EB9481"/>
<path d="M40.765 34.8998L32.9141 38.8948C32.9141 38.8948 30.2693 36.2291 30.0442 33.9578C29.8192 31.6866 34.9162 29.5498 45.804 29.4246C46.565 29.4246 48.3096 29.4686 48.291 29.696C48.175 31.037 47.8595 32.3292 45.811 33.0345C43.8474 33.6974 41.818 34.1462 39.7581 34.3731L40.765 34.8998Z" fill="#EF233C"/>
<path d="M32.2676 38.8949L40.4781 34.6191L41.9141 35.4683C41.9141 35.4683 34.4205 40.7718 34.3254 40.6952C34.2303 40.6187 32.2676 38.8949 32.2676 38.8949Z" fill="#EF233C"/>
<path opacity="0.1" d="M32.2676 38.8949L40.4781 34.6191L41.9141 35.4683C41.9141 35.4683 34.4205 40.7718 34.3254 40.6952C34.2303 40.6187 32.2676 38.8949 32.2676 38.8949Z" fill="black"/>
<path d="M77.064 91.9902H76.2148V105.249H77.064V91.9902Z" fill="#EF233C"/>
<path d="M87.6905 99.2959L86.9922 99.0499L87.3564 98.8852L87.1755 98.5256L87.5397 98.3586L87.3588 98.0013L87.7253 97.8319L87.542 97.477L87.9086 97.3076L87.7276 96.948L88.0919 96.7833L87.9109 96.4237L88.2751 96.2567L88.0942 95.8994L88.4584 95.73L88.2775 95.3727L88.6417 95.2057L88.4608 94.8461L88.8273 94.6791L88.644 94.3218L89.0106 94.1547L88.8273 93.7975L89.1939 93.6281L89.0129 93.2708L89.3771 93.1038L89.1962 92.7442L89.5604 92.5771L89.3795 92.2199L89.7437 92.0528L89.5628 91.6932L89.9293 91.5262L89.746 91.1689L90.1126 90.9995L89.9316 90.6423L90.2959 90.4752L90.1149 90.1156L90.4791 89.9509L90.2982 89.5913L90.6624 89.4243L90.4815 89.067L90.8457 88.8976L90.6648 88.5403L91.0313 88.3733L90.848 88.0137L91.2146 87.849L91.0336 87.4894L91.3979 87.3223L91.2169 86.9651L91.5811 86.7957L91.4002 86.4384L91.7644 86.2714L91.5835 85.9118L91.9477 85.7471L91.7668 85.3875L92.4674 85.6311L87.6905 99.2959Z" fill="#C7C7C7"/>
<path d="M92.4763 85.6412L93.4941 82.7283L92.7911 82.4826L91.7733 85.3955L92.4763 85.6412Z" fill="#37474F"/>
<path d="M87.6973 99.296L87.8829 98.7647L90.4813 99.6765C90.6047 99.7187 90.7397 99.7105 90.8571 99.6535C90.9744 99.5966 91.0645 99.4956 91.1077 99.3725L95.2837 87.4361C95.3267 87.3128 95.3192 87.1773 95.2627 87.0595C95.2062 86.9417 95.1053 86.851 94.9821 86.8074L92.3813 85.9003L92.5693 85.376L95.17 86.2854C95.3008 86.331 95.4213 86.4019 95.5246 86.4941C95.628 86.5863 95.7121 86.698 95.7722 86.8228C95.8324 86.9476 95.8673 87.083 95.875 87.2213C95.8827 87.3596 95.8631 87.498 95.8173 87.6287L91.6413 99.5651C91.5487 99.8289 91.3553 100.045 91.1035 100.166C90.8516 100.288 90.562 100.304 90.298 100.212L87.6973 99.296Z" fill="#263238"/>
<path d="M95.1812 91.9902H94.332V105.249H95.1812V91.9902Z" fill="#EF233C"/>
<path d="M94.3767 93.0459H77.0625V93.728H94.3767V93.0459Z" fill="#EF233C"/>
<path d="M76.8344 90.5983L81.4118 89.6053L80.3469 84.6938L75.7695 85.6868L76.8344 90.5983ZM77.1522 88.9232L76.5514 86.1392L79.8295 85.4293L80.4304 88.1994L77.1522 88.9232Z" fill="#263238"/>
<path d="M82.4086 102.277L82.4016 102.275L82.687 102.122L82.6847 102.105V102.103L82.3784 102.033L82.6615 101.878L82.6591 101.862L82.3506 101.79L82.6383 101.637L82.6359 101.618L82.3274 101.549L82.6104 101.395V101.379L82.3019 101.307L82.5872 101.154L82.5849 101.136L82.2787 101.064L82.564 100.911L82.5617 100.894V100.892L82.2531 100.822L82.5385 100.669L82.5362 100.653L82.2299 100.581L82.513 100.426L82.5107 100.412L82.513 100.409L82.2044 100.34L82.4898 100.184L82.4875 100.17V100.168L82.1789 100.099L82.4643 99.9431L82.4619 99.9292L82.1557 99.855L82.4411 99.7019L82.4387 99.6856L82.1279 99.6137L82.4155 99.4606L82.4132 99.442L82.1047 99.3724L82.39 99.2193V99.2007L82.0791 99.1288L82.3645 98.9757L82.3622 98.9595L82.0559 98.8875L82.3413 98.7321L82.339 98.7182L82.0304 98.6463L82.3158 98.4931L82.3135 98.4746L82.0072 98.405L82.2903 98.2495V98.2333L81.9817 98.1637L82.2694 98.0083L82.2671 97.992L81.9585 97.9201L82.2415 97.767V97.7507L81.933 97.6788L82.2183 97.5234L82.216 97.5071L81.9075 97.4375L82.1928 97.2821L82.1905 97.2659L81.8819 97.1939L82.1696 97.0408L82.1673 97.0246L81.8587 96.9527L82.1441 96.7972V96.781L81.8332 96.7091L82.1209 96.5559L82.1186 96.5397L81.8077 96.4678L82.0954 96.3147L82.0931 96.2984L81.7845 96.2265L82.0699 96.0711L82.0675 96.0571L81.7613 95.9852L82.0467 95.8298L82.0443 95.8159L81.7358 95.7439L82.0211 95.5885L82.0188 95.5723L81.7103 95.5003L81.9956 95.3449V95.331L81.6847 95.2591L81.9724 95.1036L81.9701 95.0874L81.6615 95.0155L81.9469 94.8623L81.9446 94.8461L81.636 94.7742L81.9237 94.6211L81.9214 94.6048L81.6105 94.5329L81.8982 94.3798L81.8959 94.3635L81.585 94.2916L81.8727 94.1339L81.8703 94.1223L81.5618 94.0503L81.8495 93.8926L81.8448 93.8787L81.5363 93.8091L81.8239 93.6513L81.8216 93.6374L81.5131 93.5655L81.7984 93.41L81.7961 93.3938L81.4875 93.3219L81.7729 93.1687V93.1525L81.462 93.0806L81.7497 92.9275V92.9112L81.4388 92.8393L81.7242 92.6862V92.6699L81.4133 92.598L81.6987 92.4426V92.4263L81.3901 92.3544L81.6778 92.2013L81.6755 92.1851L81.3646 92.1155L81.6499 91.9577V91.9415L81.3391 91.8695L81.6267 91.7164V91.7002L81.3135 91.6283L81.6012 91.4751L81.5989 91.4589L81.2903 91.387L81.578 91.2315L81.5757 91.2176L81.2671 91.1457L81.5548 90.9903L81.5502 90.9763L81.2416 90.9044L81.527 90.749L81.5247 90.7327L81.2161 90.6608L81.5038 90.5077V90.4915L81.1906 90.4219L81.4783 90.2641L81.4759 90.2502L81.1674 90.1783L81.4551 90.0228L81.4527 90.0066L81.1419 89.9347L81.4295 89.7815L81.411 89.6052L76.8359 90.5982L80.0839 102.757L82.4086 102.277Z" fill="#C7C7C7"/>
<g opacity="0.3">
<path d="M77.895 94.5585L81.3889 91.6446L81.5791 91.4868L81.6023 91.4682L81.6 91.459L81.2914 91.387L81.5791 91.2316L81.5768 91.2177L81.2682 91.1458L81.5559 90.9903L81.5513 90.9764L81.2427 90.9045L81.5281 90.749L81.5258 90.7328L81.3146 90.6841L77.6699 93.721L77.895 94.5585Z" fill="white"/>
<path d="M80.5586 102.66L82.1965 102.321L82.5051 102.064L82.3798 102.033L82.6628 101.878L82.6605 101.862L82.3519 101.79L82.6396 101.637L82.6373 101.618L82.3287 101.549L82.6118 101.395V101.379L82.3032 101.307L82.5886 101.154L82.5863 101.136L82.4308 101.101L80.5586 102.66Z" fill="white"/>
<path d="M82.1211 98.3423L82.2905 98.2495V98.2333L82.2603 98.2263L82.1211 98.3423Z" fill="white"/>
<path d="M79.7153 101.372L82.1118 99.3747L82.1304 99.3584L82.3346 99.1891L82.0794 99.1287L82.3647 98.9756L82.3624 98.9594L82.0562 98.8875L82.3415 98.732L82.3392 98.7181L82.0306 98.6462L82.316 98.4931L82.3137 98.4745L82.0399 98.4119L79.4902 100.535L79.7153 101.372Z" fill="white"/>
<path d="M77.4864 93.0319L81.1891 89.9463L81.3097 89.8465L81.4257 89.7491L81.4118 89.6052L80.8272 89.7328L77.375 92.6119L77.4864 93.0319Z" fill="white"/>
<path d="M81.9937 97.2195L81.8824 97.194L82.17 97.0409L82.1677 97.0247L81.9728 96.9783L79.168 99.3168L79.2213 99.5279L81.9937 97.2195Z" fill="white"/>
<path d="M77.2959 92.322L80.2539 89.8582L79.8363 89.9486L77.2402 92.1132L77.2959 92.322Z" fill="white"/>
</g>
<path d="M82.008 102.136L80.9603 102.43C80.8122 102.471 80.6537 102.452 80.5196 102.377C80.3855 102.301 80.2868 102.176 80.2452 102.028L78.6398 96.3048L80.8043 95.6976L82.4098 101.421C82.4513 101.569 82.4323 101.727 82.357 101.861C82.2816 101.995 82.1561 102.094 82.008 102.136Z" fill="#37474F"/>
<path d="M78.9925 96.208L80.4512 95.7988L80.2889 95.2203L78.8302 95.6295L78.9925 96.208Z" fill="#37474F"/>
<path d="M79.3286 95.4862L79.791 95.3564L78.0427 89.1242L77.5803 89.2539L79.3286 95.4862Z" fill="#EBEBEB"/>
<path d="M77.1855 88.7793C77.1855 88.7793 77.2018 87.7422 77.2319 87.7329L77.3851 87.6912L77.5405 87.6494C77.5707 87.6494 78.1228 88.5194 78.1228 88.5194L78.037 89.1319L77.573 89.2618L77.1855 88.7793Z" fill="#EBEBEB"/>
<path d="M81.7514 101.328L82.1289 101.222L80.7673 96.3684L80.3897 96.4743L81.7514 101.328Z" fill="#263238"/>
<path d="M81.0502 101.524L81.4277 101.418L80.0661 96.5642L79.6886 96.6701L81.0502 101.524Z" fill="#263238"/>
<path d="M80.3491 101.723L80.7266 101.617L79.3649 96.7627L78.9874 96.8686L80.3491 101.723Z" fill="#263238"/>
<path d="M82.298 88.7649L83.3848 88.819C83.5384 88.8267 83.6827 88.895 83.7859 89.0091C83.8892 89.1231 83.9429 89.2735 83.9352 89.4271L83.6397 95.3636L81.3944 95.2519L81.6899 89.3154C81.6976 89.1617 81.7659 89.0174 81.88 88.9142C81.994 88.811 82.1444 88.7573 82.298 88.7649Z" fill="#37474F"/>
<path d="M83.2768 95.3461L81.7637 95.2708L81.7338 95.8709L83.2469 95.9462L83.2768 95.3461Z" fill="#37474F"/>
<path d="M82.7316 95.9187L82.252 95.8948L81.9301 102.36L82.4098 102.383L82.7316 95.9187Z" fill="#EBEBEB"/>
<path d="M82.6186 102.968C82.6186 102.968 82.2752 103.95 82.2427 103.947H82.0826H81.9249C81.8924 103.947 81.6465 102.936 81.6465 102.936L81.9226 102.384L82.4005 102.407L82.6186 102.968Z" fill="#EBEBEB"/>
<path d="M82.2861 89.6098L81.8945 89.5903L81.6439 94.6255L82.0355 94.645L82.2861 89.6098Z" fill="#263238"/>
<path d="M83.0913 89.7823L82.6992 89.7627L82.4472 94.8041L82.8392 94.8237L83.0913 89.7823Z" fill="#263238"/>
<path d="M83.7373 89.6867L83.3457 89.6672L83.095 94.7024L83.4866 94.7219L83.7373 89.6867Z" fill="#263238"/>
<path d="M85.7369 101.883L87.6602 101.651L86.2208 89.7219L84.2976 89.9539L85.7369 101.883Z" fill="#263238"/>
<path d="M84.2077 91.2341L86.6055 90.9448L86.3162 88.5471L83.9184 88.8364L84.2077 91.2341Z" fill="#C7C7C7"/>
<path d="M86.332 88.6587C86.332 88.6587 88.6149 87.0162 89.812 86.8723L90.3108 91.0089L86.5988 90.8256L86.332 88.6587Z" fill="#C7C7C7"/>
<g opacity="0.2">
<path d="M90.0362 88.784L88.4888 90.9184H88.4865L87.5469 90.872L89.8994 87.6379L90.0362 88.784Z" fill="white"/>
<path d="M89.6305 86.9048L86.7676 90.8349H86.5867L86.5449 90.4822L88.9856 87.1205C89.1933 87.0285 89.4092 86.9563 89.6305 86.9048Z" fill="white"/>
<path d="M88.4895 87.3433L86.5035 90.0762L86.4688 89.7885L88.0927 87.5497C88.225 87.4778 88.3572 87.4082 88.4895 87.3433Z" fill="white"/>
</g>
<path d="M90.4027 89.0052L88.9414 88.7695L88.5736 91.0508L90.0348 91.2864L90.4027 89.0052Z" fill="#EBEBEB"/>
<path d="M90.2866 89.6912L91.2772 89.8512C91.428 89.8744 92.117 89.2875 92.581 89.3617L93.0891 89.4452C93.5299 89.5148 95.314 90.2642 95.1284 91.4126C94.9428 92.561 95.017 92.0947 95.017 92.0947C95.017 92.0947 94.8593 91.452 94.4602 91.2711C94.2726 91.186 94.0591 91.178 93.8656 91.2487C93.6721 91.3194 93.5141 91.4633 93.4255 91.6492C93.2854 91.9744 93.1691 92.3094 93.0775 92.6515L91.2633 92.3592C91.2442 91.9443 91.1875 91.5319 91.0939 91.1272C90.9779 90.814 90.1172 90.7468 90.1172 90.7468L90.2866 89.6912Z" fill="#EBEBEB"/>
<path d="M92.7304 92.5892L91.6035 92.4075L90.9476 96.4752L92.0745 96.657L92.7304 92.5892Z" fill="#EBEBEB"/>
<path d="M92.6531 94.8038L90.9766 94.5334L89.5166 103.587L91.1932 103.858L92.6531 94.8038Z" fill="#263238"/>
<path d="M94.3326 96.1013H77.0625V105.249H94.3326V96.1013Z" fill="#EF233C"/>
<g opacity="0.1">
<path d="M77.0625 97.1591C77.9 97.1243 78.7375 97.108 79.5751 97.0941C80.4126 97.0802 81.2501 97.0802 82.0876 97.0732L84.6025 97.0918C85.44 97.1057 86.2775 97.1243 87.1151 97.1591C86.2775 97.1962 85.44 97.2124 84.6025 97.2264L82.0876 97.2472C81.2501 97.2472 80.4126 97.2472 79.5751 97.2264C78.7375 97.2055 77.9 97.2078 77.0625 97.1591Z" fill="black"/>
<path d="M81.1582 97.992C82.2579 97.9548 83.3552 97.9386 84.4526 97.9247L87.747 97.9038L91.0391 97.9247C92.1388 97.9386 93.2361 97.9548 94.3335 97.992C93.2361 98.0268 92.1388 98.043 91.0391 98.0569L87.747 98.0778L84.4526 98.0569C83.3552 98.043 82.2579 98.0268 81.1582 97.992Z" fill="black"/>
<path d="M91.4102 99.2423C90.3987 99.2795 89.3895 99.2957 88.378 99.3096L85.3457 99.3305L82.3135 99.3096C81.302 99.2957 80.2904 99.2795 79.2812 99.2423C80.2904 99.2075 81.302 99.189 82.3135 99.1751L85.3457 99.1565L88.378 99.1751C89.3825 99.189 90.3917 99.2075 91.4102 99.2423Z" fill="black"/>
<path d="M77.0625 99.7435C77.7051 99.7087 78.3478 99.6925 78.9904 99.6786C79.6331 99.6646 80.2757 99.6646 80.9183 99.6577C81.561 99.6507 82.2036 99.6577 82.8439 99.6762C83.4843 99.6948 84.1292 99.7087 84.7719 99.7435C84.1292 99.7806 83.4866 99.7969 82.8439 99.8108C82.2013 99.8247 81.561 99.8247 80.9183 99.8317C80.2757 99.8386 79.6331 99.8317 78.9904 99.8108C78.3478 99.7899 77.7051 99.7806 77.0625 99.7435Z" fill="black"/>
<path d="M77.0625 100.349L78.9904 100.305L80.9183 100.282L84.7742 100.261L88.63 100.282L90.5579 100.305L92.4859 100.349L90.5579 100.391L88.63 100.414L84.7742 100.435L80.9183 100.414L78.9904 100.391L77.0625 100.349Z" fill="black"/>
<path d="M94.3334 100.825C93.6374 100.859 92.9251 100.878 92.2198 100.892C91.5146 100.906 90.8093 100.904 90.1063 100.91C89.4034 100.917 88.6958 100.91 87.9905 100.892C87.2852 100.873 86.5822 100.859 85.877 100.825C86.573 100.788 87.2852 100.771 87.9905 100.757C88.6958 100.743 89.401 100.743 90.1063 100.736C90.8116 100.73 91.5146 100.736 92.2198 100.757C92.9251 100.778 93.6281 100.788 94.3334 100.825Z" fill="black"/>
<path d="M83.5938 101.558C84.2433 101.521 84.8953 101.504 85.5449 101.491C86.1945 101.477 86.8464 101.477 87.4983 101.47C88.1502 101.463 88.7998 101.47 89.4494 101.491C90.099 101.511 90.7533 101.521 91.4029 101.558C90.7533 101.593 90.1013 101.611 89.4494 101.625C88.7975 101.639 88.1479 101.625 87.4983 101.644C86.8487 101.662 86.1968 101.644 85.5449 101.623C84.893 101.602 84.2433 101.593 83.5938 101.558Z" fill="black"/>
<path d="M77.0625 102.913C78.1367 102.878 79.2085 102.862 80.2803 102.848L83.5005 102.827L86.7183 102.845C87.7902 102.859 88.8643 102.878 89.9362 102.913C88.8643 102.95 87.7902 102.966 86.7183 102.98L83.5005 103.001L80.2734 102.98C79.2085 102.966 78.1367 102.95 77.0625 102.913Z" fill="black"/>
<path d="M94.3323 103.834C93.6131 103.868 92.8939 103.885 92.1747 103.899C91.4555 103.913 90.734 103.913 90.0148 103.92C89.2956 103.926 88.5764 103.92 87.8572 103.901C87.138 103.882 86.4165 103.868 85.6973 103.834C86.4165 103.797 87.1357 103.78 87.8572 103.766C88.5787 103.752 89.2956 103.752 90.0148 103.746C90.734 103.739 91.4532 103.746 92.1747 103.766C92.8962 103.787 93.6131 103.797 94.3323 103.834Z" fill="black"/>
<path d="M77.0625 104.604C77.6657 104.569 78.2666 104.553 78.8675 104.539C79.4683 104.525 80.0715 104.525 80.6724 104.518C81.2733 104.511 81.8765 104.518 82.4774 104.537C83.0783 104.555 83.6815 104.569 84.2823 104.604C83.6815 104.641 83.0806 104.657 82.4774 104.671C81.8742 104.685 81.2756 104.685 80.6724 104.692C80.0692 104.699 79.4707 104.692 78.8675 104.671C78.2643 104.65 77.6657 104.632 77.0625 104.604Z" fill="black"/>
</g>
</svg>
