<svg width="116" height="116" viewBox="0 0 116 116" fill="none" xmlns="http://www.w3.org/2000/svg">
<path d="M17.1338 47.8756C17.1338 47.8756 7.7448 62.0392 14.4194 83.4018C21.0941 104.764 40.5055 110.214 52.022 104.282C63.5385 98.3496 65.2205 90.6286 74.526 85.0258C83.8315 79.423 103.009 79.6132 110.409 64.1992C117.81 48.7851 102.475 27.1812 85.1214 14.7391C67.7678 2.29692 30.0609 17.0196 17.1338 47.8756Z" fill="#EF233C"/>
<path opacity="0.7" d="M17.1338 47.8756C17.1338 47.8756 7.7448 62.0392 14.4194 83.4018C21.0941 104.764 40.5055 110.214 52.022 104.282C63.5385 98.3496 65.2205 90.6286 74.526 85.0258C83.8315 79.423 103.009 79.6132 110.409 64.1992C117.81 48.7851 102.475 27.1812 85.1214 14.7391C67.7678 2.29692 30.0609 17.0196 17.1338 47.8756Z" fill="white"/>
<path d="M85.8076 83.3738C86.5036 83.6731 88.174 83.636 88.174 83.636C88.174 83.636 87.8144 82.5363 87.782 82.476C87.4131 81.7058 86.2484 80.4321 85.2996 80.5597C85.1427 80.5855 84.993 80.6441 84.8602 80.7315C84.7275 80.8189 84.6145 80.9333 84.5288 81.0672C84.443 81.201 84.3864 81.3514 84.3625 81.5086C84.3386 81.6658 84.348 81.8262 84.3901 81.9795C84.5479 82.6291 85.223 83.1186 85.8076 83.3738Z" fill="#263238"/>
<path d="M86.3868 88.239C87.0991 88.341 88.5978 87.9072 88.7068 87.8724C88.9531 88.7302 89.257 89.5704 89.6163 90.3873C89.8228 90.8652 90.0455 91.3385 90.2752 91.8118C90.1383 91.6122 90.013 91.4336 89.9944 91.4104C89.4353 90.7654 87.9737 89.8444 87.0944 90.2179C86.9498 90.2841 86.8206 90.38 86.7155 90.4995C86.6104 90.6189 86.5316 90.7591 86.4843 90.911C86.437 91.063 86.4223 91.2231 86.4411 91.3811C86.4599 91.5391 86.5117 91.6914 86.5933 91.828C86.9181 92.4196 87.6976 92.7119 88.3287 92.8047C88.9597 92.8975 90.2543 92.5518 90.593 92.4567L90.8621 92.9996C91.296 93.8626 91.7321 94.7234 92.1358 95.5818C92.2773 95.8834 92.4049 96.185 92.5348 96.4889C92.4142 96.3102 92.3028 96.1618 92.3028 96.1409C91.7437 95.4936 90.2844 94.5749 89.4028 94.9484C89.2585 95.0146 89.1297 95.1105 89.0248 95.2297C88.9198 95.349 88.8412 95.489 88.794 95.6406C88.7467 95.7922 88.7319 95.9521 88.7504 96.1098C88.769 96.2676 88.8205 96.4196 88.9017 96.5562C89.2265 97.1501 90.006 97.4424 90.6371 97.5329C91.2681 97.6234 92.4374 97.3148 92.8411 97.2034C92.9664 97.5166 93.0893 97.8298 93.196 98.1314C93.2633 98.3449 93.3422 98.5444 93.3979 98.7625C93.4536 98.9806 93.5185 99.1894 93.5765 99.3982C93.674 99.8065 93.7784 100.229 93.8642 100.63C93.9245 100.908 93.9802 101.175 94.0336 101.444C93.8967 101.14 93.6136 100.556 93.5835 100.516C93.1311 99.7926 91.8249 98.6604 90.8992 98.8924C90.7465 98.9359 90.6046 99.011 90.4828 99.1129C90.3609 99.2147 90.2619 99.3411 90.1921 99.4838C90.1223 99.6264 90.0833 99.7822 90.0776 99.9409C90.0719 100.1 90.0997 100.258 90.1592 100.405C90.3912 101.041 91.1173 101.447 91.7275 101.635C92.398 101.839 93.8874 101.651 94.073 101.635C94.1612 102.078 94.2447 102.512 94.305 102.922C94.3444 103.138 94.3769 103.342 94.4117 103.549H95.0033C94.9592 103.317 94.9128 103.071 94.8641 102.818C94.7736 102.365 94.6716 101.89 94.5602 101.391C95.0082 101.212 95.4452 101.007 95.8687 100.776C96.3582 101.308 97.6133 101.936 97.7757 102.006C97.604 102.426 97.4347 102.834 97.2676 103.215L97.1192 103.549H97.7432L97.7896 103.435C97.966 103.01 98.1446 102.551 98.3232 102.08C98.5019 102.117 99.9751 102.416 100.662 102.261C101.284 102.12 102.038 101.767 102.316 101.152C102.387 101.01 102.426 100.854 102.433 100.695C102.439 100.537 102.412 100.378 102.353 100.231C102.294 100.083 102.205 99.9497 102.091 99.839C101.977 99.7283 101.841 99.6429 101.692 99.5884C100.785 99.2822 99.3997 100.312 98.894 101.001C98.8638 101.041 98.5877 101.516 98.4184 101.82C98.4903 101.628 98.5622 101.44 98.6341 101.24C98.7803 100.846 98.9125 100.447 99.0564 100.02C99.119 99.8111 99.184 99.6 99.2466 99.3866C99.3092 99.1731 99.3603 98.9458 99.4183 98.723C99.5412 98.2057 99.6503 97.6744 99.7292 97.1385C100.075 97.2638 101.309 97.693 101.949 97.6489C102.59 97.6048 103.383 97.3705 103.752 96.8044C103.843 96.6742 103.906 96.5262 103.937 96.3701C103.967 96.2139 103.964 96.0531 103.929 95.8982C103.893 95.7432 103.824 95.5975 103.729 95.4706C103.633 95.3438 103.511 95.2386 103.372 95.1618C102.522 94.7234 100.996 95.533 100.39 96.1339C100.353 96.171 99.9681 96.6536 99.7616 96.9227C99.8127 96.5979 99.8637 96.2778 99.9055 95.9483C100.021 94.9994 100.112 94.0343 100.205 93.0738C100.235 92.7792 100.265 92.4869 100.298 92.1922C100.421 92.2386 101.875 92.7815 102.592 92.7305C103.23 92.6864 104.028 92.4521 104.397 91.886C104.488 91.7557 104.551 91.6077 104.581 91.4516C104.611 91.2956 104.608 91.1349 104.572 90.98C104.537 90.8252 104.468 90.6796 104.373 90.5527C104.277 90.4258 104.156 90.3204 104.017 90.2434C103.165 89.805 101.641 90.6146 101.035 91.2178C100.989 91.2619 100.434 91.9556 100.302 92.1458C100.372 91.5009 100.446 90.8559 100.534 90.2249C100.668 89.3703 100.858 88.5256 101.103 87.6961C101.158 87.717 102.678 88.29 103.411 88.239C104.047 88.1926 104.845 87.9606 105.214 87.3945C105.305 87.2643 105.368 87.1163 105.398 86.9602C105.429 86.804 105.426 86.6432 105.39 86.4882C105.354 86.3333 105.286 86.1876 105.19 86.0607C105.094 85.9339 104.973 85.8286 104.833 85.7519C103.984 85.3134 102.46 86.1208 101.852 86.724C101.806 86.7727 101.209 87.5174 101.112 87.652C101.126 87.6033 101.135 87.5522 101.149 87.5058C101.411 86.6802 101.746 85.8796 102.151 85.1139C102.367 84.687 102.599 84.2926 102.833 83.9145C103.105 84.049 104.355 84.6569 105.019 84.6824C105.682 84.7079 106.476 84.5641 106.905 84.0421C107.01 83.9226 107.089 83.7824 107.136 83.6305C107.183 83.4787 107.198 83.3186 107.179 83.1606C107.161 83.0027 107.109 82.8504 107.028 82.7137C106.947 82.577 106.838 82.4589 106.708 82.367C105.91 81.8381 104.307 82.4738 103.638 83.0074C103.601 83.0352 103.265 83.3716 103.024 83.6198C103.13 83.4505 103.239 83.2718 103.346 83.1118C103.747 82.5086 104.151 81.9819 104.506 81.5179C104.713 81.2558 104.905 81.0238 105.088 80.8057C105.425 80.8057 106.777 80.7593 107.371 80.4809C107.965 80.2025 108.608 79.7037 108.749 79.0425C108.788 78.8881 108.793 78.7275 108.765 78.5709C108.737 78.4144 108.676 78.2656 108.586 78.1342C108.497 78.0028 108.38 77.8918 108.245 77.8085C108.11 77.7251 107.958 77.6713 107.8 77.6505C106.849 77.5461 105.712 78.8499 105.371 79.6318C105.341 79.699 104.993 80.808 105.012 80.808H105.03C104.852 81.0122 104.661 81.2326 104.457 81.4785C104.084 81.9425 103.669 82.4552 103.253 83.0514C102.8 83.6901 102.383 84.3539 102.005 85.0397C101.58 85.8072 101.224 86.6108 100.94 87.4409C100.94 87.4409 100.94 87.4594 100.94 87.471C100.94 87.1903 100.94 86.4062 100.926 86.3458C100.815 85.499 100.105 83.9261 99.1631 83.7521C99.0061 83.7274 98.8458 83.7362 98.6924 83.7777C98.5391 83.8193 98.3963 83.8927 98.2732 83.9932C98.1502 84.0937 98.0497 84.219 97.9784 84.3609C97.9071 84.5029 97.8665 84.6583 97.8592 84.817C97.8036 85.4898 98.2908 86.1626 98.7664 86.5894C99.3046 87.0674 100.794 87.5314 100.912 87.5685C100.645 88.4204 100.435 89.2893 100.284 90.1692C100.191 90.6796 100.117 91.1993 100.052 91.719C100.052 91.487 100.052 91.255 100.038 91.2294C99.9287 90.3826 99.2188 88.8097 98.2768 88.6357C98.1198 88.6111 97.9593 88.6198 97.8058 88.6613C97.6524 88.7029 97.5094 88.7762 97.3862 88.8767C97.263 88.9772 97.1623 89.1024 97.0907 89.2444C97.0191 89.3863 96.9782 89.5418 96.9707 89.7006C96.915 90.3734 97.4045 91.0485 97.8801 91.473C98.3557 91.8976 99.6248 92.3268 99.9681 92.4335L99.8916 93.0321C99.7779 93.9926 99.6596 94.953 99.5296 95.8903C99.4832 96.2198 99.4229 96.5422 99.3649 96.867C99.3649 96.6513 99.3649 96.4703 99.3533 96.4425C99.242 95.5957 98.532 94.0227 97.5924 93.8487C97.4354 93.8241 97.2749 93.8328 97.1214 93.8744C96.968 93.9159 96.825 93.9893 96.7018 94.0897C96.5786 94.1902 96.4779 94.3155 96.4063 94.4574C96.3347 94.5994 96.2938 94.7548 96.2863 94.9136C96.2306 95.5864 96.7178 96.2615 97.1957 96.6861C97.6736 97.1106 98.8197 97.4958 99.2164 97.6257C99.1445 97.9551 99.0772 98.2869 98.9844 98.6024C98.9241 98.8182 98.88 99.0293 98.8058 99.2404C98.7316 99.4515 98.6689 99.6626 98.6016 99.8691C98.4578 100.266 98.314 100.674 98.1632 101.055C98.0611 101.321 97.959 101.574 97.8569 101.827C97.908 101.5 97.9961 100.855 97.9961 100.802C97.9865 100.05 97.7836 99.3133 97.4068 98.6627C97.4097 98.5789 97.4042 98.4949 97.3906 98.4122C97.3713 98.2535 97.3185 98.1007 97.2358 97.9639C97.1531 97.8272 97.0423 97.7095 96.9107 97.6187C96.7791 97.5279 96.6298 97.4661 96.4726 97.4373C96.3154 97.4085 96.1538 97.4134 95.9986 97.4517C95.0706 97.6976 94.486 99.3193 94.4419 100.173C94.4419 100.224 94.472 100.774 94.4999 101.12C94.4535 100.918 94.4094 100.723 94.3607 100.516C94.2632 100.106 94.1542 99.7021 94.0382 99.2659C93.9756 99.0571 93.9106 98.846 93.848 98.6326C93.7853 98.4191 93.6972 98.2034 93.616 97.9853C93.4327 97.4865 93.2239 96.9877 93.0012 96.4912C93.3608 96.4054 94.6252 96.0829 95.1356 95.6908C95.646 95.2987 96.1772 94.6677 96.1726 93.9926C96.177 93.8336 96.1479 93.6755 96.0872 93.5286C96.0265 93.3817 95.9355 93.2492 95.8201 93.1397C95.7048 93.0303 95.5677 92.9464 95.4178 92.8935C95.2678 92.8405 95.1084 92.8198 94.95 92.8326C93.9988 92.937 93.1728 94.4566 93.0012 95.2894C92.9896 95.3405 92.9339 95.9553 92.9084 96.294C92.7738 95.9947 92.6392 95.6978 92.4908 95.4008C92.0662 94.5447 91.6092 93.691 91.1568 92.8372C91.0199 92.5774 90.883 92.3152 90.7484 92.053C90.876 92.0229 92.3887 91.6726 92.9594 91.2341C93.4652 90.8466 94.0034 90.211 93.9964 89.5358C94.0009 89.3769 93.9718 89.2188 93.911 89.0719C93.8503 88.9249 93.7593 88.7925 93.644 88.683C93.5286 88.5736 93.3915 88.4897 93.2416 88.4368C93.0917 88.3838 92.9323 88.3631 92.7738 88.3758C91.8226 88.4802 90.9967 89.9998 90.825 90.8327C90.8111 90.8954 90.7322 91.7793 90.7229 92.0043C90.4236 91.429 90.129 90.8443 89.8645 90.269C89.5037 89.4862 89.1938 88.6811 88.9365 87.8585C88.9968 87.8446 90.5791 87.485 91.1614 87.0372C91.6672 86.6474 92.2054 86.0118 92.2008 85.3366C92.2056 85.1776 92.1767 85.0194 92.1161 84.8722C92.0555 84.7251 91.9645 84.5925 91.8491 84.483C91.7337 84.3735 91.5964 84.2896 91.4463 84.2368C91.2962 84.184 91.1367 84.1635 90.9781 84.1766C90.0246 84.2787 89.201 85.8006 89.027 86.6312C89.0131 86.6962 88.9296 87.6474 88.9249 87.8214C88.911 87.775 88.8901 87.7262 88.8762 87.6775C88.64 86.849 88.4778 86.0012 88.3913 85.1441C88.338 84.6801 88.3148 84.2161 88.3008 83.7683C88.6024 83.7312 89.9782 83.5479 90.5466 83.2022C91.115 82.8566 91.7066 82.2998 91.7669 81.627C91.7885 81.4696 91.7767 81.3095 91.7323 81.157C91.6879 81.0045 91.612 80.863 91.5093 80.7418C91.4067 80.6206 91.2797 80.5223 91.1367 80.4534C90.9936 80.3845 90.8376 80.3464 90.6788 80.3417C89.7207 80.3417 88.7347 81.7546 88.4702 82.5666C88.4563 82.6106 88.3612 83.077 88.2962 83.418C88.2962 83.2162 88.2846 83.0074 88.2846 82.8148C88.2846 82.0933 88.3333 81.4228 88.3774 80.8428C88.4076 80.5087 88.44 80.2094 88.4725 79.9287C88.7486 79.7385 89.8645 78.9566 90.1963 78.3975C90.528 77.8384 90.7995 77.0658 90.5512 76.4394C90.4985 76.2895 90.4147 76.1524 90.3053 76.037C90.196 75.9217 90.0635 75.8307 89.9166 75.7701C89.7696 75.7094 89.6116 75.6804 89.4527 75.685C89.2938 75.6897 89.1377 75.7277 88.9945 75.7968C88.1431 76.2376 87.9204 77.9474 88.0665 78.7919C88.0804 78.8638 88.4006 79.9821 88.4145 79.9728L88.4308 79.9612C88.3936 80.2303 88.3565 80.5203 88.324 80.8382C88.266 81.4228 88.2057 82.0863 88.1872 82.8125C88.1605 83.5955 88.1791 84.3794 88.2428 85.1603C88.3109 86.0346 88.4568 86.9011 88.679 87.7494V87.7796C88.5282 87.5476 88.0851 86.8957 88.0456 86.8516C87.4865 86.2066 86.0272 85.2856 85.1456 85.6591C85.001 85.7253 84.8718 85.8212 84.7667 85.9407C84.6616 86.0601 84.5828 86.2003 84.5355 86.3523C84.4882 86.5042 84.4735 86.6643 84.4923 86.8223C84.5111 86.9803 84.5629 87.1326 84.6445 87.2692C84.9763 87.8538 85.7558 88.1462 86.3868 88.239Z" fill="#263238"/>
<path d="M102.796 83.7522C102.81 83.7522 103.1 82.6363 103.112 82.562C103.228 81.7176 102.959 80.01 102.098 79.5947C101.953 79.5297 101.796 79.4959 101.637 79.4956C101.478 79.4953 101.32 79.5286 101.175 79.5931C101.03 79.6577 100.9 79.7522 100.793 79.8704C100.687 79.9886 100.607 80.1278 100.558 80.2792C100.326 80.9125 100.618 81.692 100.966 82.228C101.384 82.8474 102.794 83.7522 102.796 83.7522Z" fill="#263238"/>
<path d="M8.63249 43.8017C8.26593 43.7669 8.06873 43.7669 8.06641 43.7669V43.5349C8.06641 43.5349 8.27753 43.5349 8.65569 43.572L8.63249 43.8017Z" fill="#263238"/>
<path d="M37.1753 52.6641C36.7902 52.6641 36.4035 52.6571 36.0153 52.6432V52.4112C36.4074 52.4112 36.7972 52.4297 37.1753 52.4321V52.6641ZM38.3353 52.6641V52.4321C38.732 52.4321 39.1218 52.4158 39.4953 52.3996V52.6316C39.1334 52.6478 38.7436 52.6641 38.3423 52.6641H38.3353ZM34.8298 52.6014C34.4447 52.5829 34.0549 52.5573 33.6698 52.5272L33.6884 52.2952C34.0781 52.3253 34.4656 52.3509 34.8484 52.3694L34.8298 52.6014ZM40.6716 52.5736L40.6576 52.3416C41.0636 52.3161 41.4488 52.2859 41.8176 52.2534L41.8385 52.4854C41.4743 52.5202 41.0868 52.5481 40.6785 52.5736H40.6716ZM32.5052 52.4321C32.1131 52.3903 31.7233 52.3462 31.3452 52.2975L31.3753 52.0655C31.7535 52.1142 32.1409 52.1583 32.5353 52.1977L32.5052 52.4321ZM30.1852 52.1305C29.7977 52.0678 29.4103 52.0005 29.0252 51.9286L29.0669 51.6966C29.4428 51.7685 29.8279 51.8358 30.213 51.8961L30.1852 52.1305ZM27.8884 51.6873C27.5032 51.5992 27.1204 51.5041 26.7516 51.4043L26.8119 51.1723C27.1784 51.2697 27.5566 51.3649 27.9394 51.453L27.8884 51.6873ZM25.6287 51.0749C25.2505 50.9542 24.877 50.8243 24.522 50.6921L24.6032 50.474C24.9559 50.6062 25.3248 50.7338 25.7006 50.8521L25.6287 51.0749ZM23.4316 50.2443C23.0697 50.0842 22.7124 49.9149 22.3737 49.7385L22.4804 49.5321C22.8145 49.7061 23.1764 49.8731 23.5268 50.0309L23.4316 50.2443ZM21.3436 49.1609C21.158 49.0449 20.9724 48.9289 20.7938 48.8036L20.3669 48.5182L20.4945 48.3233L20.9237 48.611C21.1 48.7317 21.281 48.843 21.4666 48.9637L21.3436 49.1609ZM19.3879 47.8895C19.0584 47.6853 18.722 47.4858 18.3903 47.2933L18.5063 47.0937C18.8404 47.2863 19.1791 47.4881 19.5108 47.6923L19.3879 47.8895ZM17.3741 46.7295C17.0308 46.5462 16.6781 46.3676 16.3394 46.2005L16.4415 45.9917C16.7872 46.1611 17.1375 46.3397 17.4832 46.5253L17.3741 46.7295ZM15.2861 45.711C14.9312 45.5533 14.5716 45.4025 14.2143 45.2633L14.3001 45.0475C14.6597 45.189 15.0216 45.3398 15.3812 45.4999L15.2861 45.711ZM13.1262 44.8573C12.7573 44.7297 12.3861 44.609 12.0219 44.5023L12.0892 44.2703C12.4557 44.3793 12.8316 44.5023 13.2028 44.6299L13.1262 44.8573ZM10.9036 44.203C10.5185 44.1079 10.1357 44.029 9.77148 43.971L9.81092 43.739C10.1821 43.8063 10.5672 43.8875 10.9709 43.971L10.9036 44.203Z" fill="#263238"/>
<path d="M43.0099 52.367L42.9844 52.135C43.1839 52.1118 43.3741 52.0863 43.5551 52.0608L43.5876 52.2928C43.4043 52.3183 43.2117 52.3438 43.0099 52.367Z" fill="#263238"/>
<path d="M43.4346 53.3554L45.207 51.8683L43.0332 51.0771L43.4346 53.3554Z" fill="#263238"/>
<path d="M8.27051 18.038L7.83203 17.6598L7.98515 17.4858L8.42131 17.864L8.27051 18.038Z" fill="#263238"/>
<path d="M43.3416 42.0337C43.0052 41.9061 42.6456 41.7646 42.2349 41.6022L42.3231 41.3864C42.7221 41.5488 43.0887 41.6903 43.4228 41.8156L43.3416 42.0337ZM41.1399 41.1474C40.7965 41.0036 40.4338 40.8489 40.0518 40.6834L40.1446 40.47C40.5266 40.6386 40.8886 40.7932 41.2304 40.934L41.1399 41.1474ZM38.9753 40.1893L37.8988 39.6905L37.9986 39.4794C38.3721 39.6557 38.7294 39.8204 39.0728 39.9782L38.9753 40.1893ZM36.8293 39.1801L35.8364 38.6975L35.7645 38.6627L35.8665 38.4539L35.9384 38.4887L36.9314 38.9713L36.8293 39.1801ZM34.7088 38.1082C34.384 37.9296 34.036 37.7301 33.6764 37.5166L33.7948 37.3171C34.152 37.5282 34.4908 37.7254 34.8225 37.9041L34.7088 38.1082ZM32.6626 36.8995C32.3355 36.6954 31.9991 36.4819 31.6604 36.2615L31.7856 36.0666C32.1244 36.2863 32.4577 36.4982 32.7856 36.7023L32.6626 36.8995ZM30.6674 35.6073C30.3457 35.3923 30.0186 35.1703 29.6861 34.9414L29.8183 34.7489C30.1477 34.9762 30.4741 35.1982 30.7973 35.4147L30.6674 35.6073ZM28.7117 34.264C28.3915 34.0397 28.069 33.8077 27.7442 33.568L27.8788 33.3801L28.8439 34.0761L28.7117 34.264ZM26.7814 32.872L25.8256 32.176L25.9648 31.9904L26.9183 32.6864L26.7814 32.872ZM24.8744 31.4591C24.5588 31.2271 24.2433 30.9951 23.9278 30.7446L24.067 30.5613C24.3825 30.7933 24.698 31.0392 25.0136 31.2735L24.8744 31.4591ZM22.9673 30.0346L22.0393 29.3085L22.1808 29.1252C22.494 29.3572 22.8073 29.6101 23.1205 29.849L22.9673 30.0346ZM21.1113 28.5823L20.1833 27.8492L20.3272 27.6659L21.2552 28.399L21.1113 28.5823ZM19.2553 27.1114L18.3273 26.3737L18.4712 26.1927L19.3992 26.9305L19.2553 27.1114ZM17.3993 25.629L16.4713 24.8842L16.6175 24.7033L17.5455 25.448L17.3993 25.629ZM15.5433 24.1279L14.6153 23.3739L14.7615 23.1953L15.6895 23.947L15.5433 24.1279ZM13.7105 22.6199L12.7988 21.8613L12.9472 21.6826L13.859 22.4413L13.7105 22.6199ZM11.8893 21.1119L10.9799 20.3486L11.1307 20.1723L12.0378 20.9356L11.8893 21.1119ZM10.0728 19.583C9.73869 19.3 9.43477 19.0425 9.16797 18.8128L9.31877 18.6365L10.2236 19.4067L10.0728 19.583Z" fill="#263238"/>
<path d="M44.9724 42.5952C44.8054 42.5442 44.6198 42.4839 44.418 42.4166L44.4922 42.1846C44.6917 42.2519 44.875 42.3099 45.042 42.3632L44.9724 42.5952Z" fill="#263238"/>
<path d="M44.4102 43.5069L46.6304 42.8596L44.96 41.2588L44.4102 43.5069Z" fill="#263238"/>
<path d="M8.27763 83.7752C7.89947 83.7567 7.69531 83.7381 7.69531 83.7381L7.71619 83.5061C7.71619 83.5061 7.91803 83.5247 8.28923 83.5409L8.27763 83.7752Z" fill="#263238"/>
<path d="M9.71993 83.8078H9.45312V83.5758H9.71993C9.99601 83.5758 10.2976 83.5758 10.6224 83.5642V83.7962C10.2999 83.8055 9.99833 83.8078 9.71993 83.8078ZM11.8079 83.7498V83.5178C12.1954 83.4969 12.5874 83.4691 12.9679 83.4389L12.9888 83.6709C12.5851 83.7034 12.1907 83.7312 11.801 83.7521L11.8079 83.7498ZM14.1511 83.5596L14.1256 83.3276C14.513 83.2858 14.9028 83.2371 15.2856 83.1837L15.3158 83.4157C14.926 83.4691 14.5339 83.5201 14.1511 83.5596ZM16.4711 83.2417L16.434 83.0097C16.8191 82.9471 17.2066 82.8775 17.594 82.8032L17.6381 83.0352C17.2483 83.1071 16.8586 83.1767 16.4711 83.2417ZM18.7772 82.7939L18.7262 82.5619C19.1066 82.4784 19.4871 82.3879 19.863 82.2928L19.9186 82.5248C19.5428 82.6176 19.1577 82.7081 18.7772 82.7939ZM21.0531 82.2163L20.9905 81.9843C21.3617 81.8775 21.7375 81.7639 22.1087 81.6455L22.1783 81.8776C21.8071 81.9936 21.4266 82.1095 21.0531 82.2163ZM23.2919 81.5017L23.2154 81.2836C23.5819 81.1537 23.9508 81.0168 24.3081 80.8776L24.3939 81.0934C24.032 81.2349 23.6631 81.3718 23.2919 81.5017ZM25.482 80.6479L25.3892 80.4345C25.7488 80.2814 26.1061 80.1213 26.4541 79.9589L26.5538 80.17C26.2151 80.3324 25.8416 80.5041 25.482 80.6479ZM27.6094 79.6527L27.5027 79.4462C27.8484 79.2699 28.1987 79.0866 28.5328 78.8963L28.6465 79.1005C28.3031 79.2908 27.9551 79.4763 27.6071 79.6527H27.6094ZM29.6626 78.5112L29.542 78.3117C29.7926 78.1632 30.0408 78.0078 30.2867 77.8477C30.3679 77.7967 30.4468 77.7456 30.5187 77.6899L30.651 77.8825L30.405 78.0449C30.1591 78.205 29.9132 78.3604 29.6626 78.5112ZM31.5975 77.1656L31.4467 76.987C31.7321 76.755 32.0198 76.4812 32.3005 76.2005L32.4652 76.3652C32.1775 76.6506 31.8875 76.9197 31.5975 77.1656ZM33.2679 75.4999L33.0916 75.3491C33.3375 75.0683 33.5858 74.7644 33.8317 74.4489L34.015 74.5904C33.7667 74.9106 33.5162 75.2168 33.2679 75.4999ZM34.7156 73.6439L34.5254 73.5093C34.7434 73.2031 34.9638 72.8783 35.1819 72.5442L35.3768 72.6695C35.1564 73.0105 34.9337 73.3376 34.7156 73.6462V73.6439ZM36.0032 71.6765L35.806 71.5559C36.0086 71.2233 36.2081 70.8885 36.4046 70.5513L36.6041 70.6673C36.4069 71.0083 36.2074 71.3471 36.0032 71.6881V71.6765ZM37.1841 69.6465L36.9799 69.5351C37.1702 69.1918 37.3573 68.8492 37.5414 68.5074L37.7455 68.6164C37.5599 68.9621 37.3743 69.3055 37.1841 69.6488V69.6465ZM38.2954 67.5817L38.0912 67.4727L38.6341 66.4356L38.8406 66.5423L38.2954 67.5817ZM39.3811 65.4937L39.177 65.387C39.3626 65.0328 39.5458 64.6871 39.7268 64.3499L39.931 64.4613C39.75 64.807 39.5667 65.1527 39.3811 65.5053V65.4937ZM40.4947 63.4359L40.2929 63.3222C40.5063 62.944 40.7012 62.6123 40.8891 62.3083L41.0863 62.429C40.9007 62.7422 40.7058 63.0716 40.4947 63.4475V63.4359Z" fill="#263238"/>
<path d="M41.7172 61.48L41.5293 61.3478C41.6453 61.1807 41.7613 61.0253 41.8773 60.8838L42.0583 61.0276C41.9469 61.1622 41.8332 61.313 41.7172 61.48Z" fill="#263238"/>
<path d="M42.5889 62.0137L43.1526 59.7703L40.9277 60.4036L42.5889 62.0137Z" fill="#263238"/>
<path d="M9.10344 66.273C8.72528 66.2382 8.52344 66.2081 8.52344 66.2081L8.55824 65.9761C8.55824 65.9761 8.75776 66.0039 9.12664 66.041L9.10344 66.273Z" fill="#263238"/>
<path d="M12.527 66.3915V66.1595C12.8959 66.1595 13.2787 66.1432 13.6615 66.127V66.359C13.2833 66.3752 12.9005 66.3869 12.527 66.3915ZM11.3856 66.3915C10.9958 66.3915 10.6107 66.3729 10.2441 66.3544L10.2557 66.1224C10.62 66.1409 11.0005 66.1549 11.3902 66.1595L11.3856 66.3915ZM14.8099 66.2917L14.7937 66.0597C15.1672 66.0342 15.5477 65.9994 15.9235 65.9623L15.9467 66.1943C15.5685 66.2314 15.1857 66.2639 14.8099 66.2917ZM17.0812 66.0597L17.051 65.8277C17.4269 65.779 17.805 65.7256 18.1762 65.6676L18.211 65.8996C17.8375 65.9623 17.457 66.0157 17.0812 66.0644V66.0597ZM19.3385 65.7094L19.2968 65.4774C19.661 65.4101 20.0322 65.3382 20.4104 65.257L20.4568 65.489C20.0786 65.5725 19.7051 65.656 19.3385 65.714V65.7094ZM21.5704 65.2454L21.517 65.0134C21.8836 64.9253 22.2548 64.8301 22.6167 64.7327L22.677 64.9647C22.3128 65.0575 21.9416 65.1526 21.575 65.2408L21.5704 65.2454ZM23.7767 64.6515L23.7094 64.4195C24.069 64.3128 24.4333 64.1875 24.7929 64.0785L24.8648 64.2988C24.5052 64.4218 24.1386 64.5378 23.7767 64.6468V64.6515ZM25.9436 63.9369L25.867 63.7188C26.2197 63.5912 26.5769 63.4567 26.9273 63.3175L27.0131 63.5332C26.6605 63.6678 26.3009 63.8 25.9436 63.9323V63.9369ZM28.071 63.104L27.9805 62.8906C28.3262 62.7444 28.6765 62.589 29.0199 62.4266L29.115 62.6377C28.767 62.7932 28.4167 62.9486 28.071 63.104ZM30.159 62.1505L30.0546 61.9417C30.2974 61.8211 30.541 61.6981 30.7854 61.5728L31.0661 61.4244L31.1752 61.6308L30.8921 61.777C30.623 61.8976 30.391 62.0229 30.1451 62.1436L30.159 62.1505ZM32.1844 61.1042L32.0753 60.8977L33.0845 60.3711L33.1936 60.5776L32.1844 61.1042ZM34.2028 60.0486L34.0937 59.8445L35.1029 59.3155L35.2097 59.522L34.2028 60.0486ZM36.2189 58.993L36.1098 58.7865L37.1167 58.2576L37.2257 58.4617L36.2189 58.993Z" fill="#263238"/>
<path d="M38.6242 57.4479L38.1113 57.7188L38.2197 57.9239L38.7325 57.653L38.6242 57.4479Z" fill="#263238"/>
<path d="M38.9163 58.7239L40.1506 56.7681L37.8398 56.6753L38.9163 58.7239Z" fill="#263238"/>
<path d="M20.8245 71.2727H19.291V76.6435H20.8245V71.2727Z" fill="#263238"/>
<path d="M20.9436 76.7595H19.1758V71.1567H20.9436V76.7595ZM19.4078 76.5275H20.7116V71.3887H19.4078V76.5275Z" fill="#263238"/>
<path d="M23.512 68.3796H21.9785V76.6435H23.512V68.3796Z" fill="#EF233C"/>
<path d="M23.5128 76.7595H21.9793C21.9485 76.7595 21.919 76.7473 21.8973 76.7255C21.8755 76.7038 21.8633 76.6743 21.8633 76.6435V68.3797C21.8633 68.3489 21.8755 68.3194 21.8973 68.2976C21.919 68.2759 21.9485 68.2637 21.9793 68.2637H23.5128C23.5436 68.2637 23.5731 68.2759 23.5948 68.2976C23.6166 68.3194 23.6288 68.3489 23.6288 68.3797V76.6435C23.6288 76.6743 23.6166 76.7038 23.5948 76.7255C23.5731 76.7473 23.5436 76.7595 23.5128 76.7595ZM22.0953 76.5275H23.3968V68.4957H22.0953V76.5275Z" fill="#263238"/>
<path d="M26.1956 72.8896H24.6621V76.6434H26.1956V72.8896Z" fill="#263238"/>
<path d="M26.3124 76.7594H24.5469V72.7737H26.3124V76.7594ZM24.7789 76.5274H26.0804V73.0057H24.7789V76.5274Z" fill="#263238"/>
<path d="M28.8812 68.7832H27.3477V76.6434H28.8812V68.7832Z" fill="#EF233C"/>
<path d="M28.88 76.7594H27.3465C27.3159 76.7588 27.2867 76.7464 27.2651 76.7248C27.2435 76.7031 27.2311 76.674 27.2305 76.6434V68.7832C27.2305 68.7525 27.2427 68.723 27.2644 68.7012C27.2862 68.6795 27.3157 68.6672 27.3465 68.6672H28.88C28.9108 68.6672 28.9403 68.6795 28.962 68.7012C28.9838 68.723 28.996 68.7525 28.996 68.7832V76.6434C28.996 76.6742 28.9838 76.7037 28.962 76.7254C28.9403 76.7472 28.9108 76.7594 28.88 76.7594ZM27.4625 76.5274H28.7686V68.9039H27.4671L27.4625 76.5274Z" fill="#263238"/>
<path d="M18.5726 68.0454H17.4961V68.2774H18.5726V68.0454Z" fill="#263238"/>
<path d="M18.5726 69.2566H17.4961V69.4886H18.5726V69.2566Z" fill="#263238"/>
<path d="M18.5726 70.4675H17.4961V70.6995H18.5726V70.4675Z" fill="#263238"/>
<path d="M18.5726 71.6809H17.4961V71.9129H18.5726V71.6809Z" fill="#263238"/>
<path d="M18.5726 72.8921H17.4961V73.1241H18.5726V72.8921Z" fill="#263238"/>
<path d="M18.5726 74.103H17.4961V74.335H18.5726V74.103Z" fill="#263238"/>
<path d="M18.5726 75.314H17.4961V75.546H18.5726V75.314Z" fill="#263238"/>
<path d="M18.5726 76.5273H17.4961V76.7593H18.5726V76.5273Z" fill="#263238"/>
<path d="M19.7358 69.9919L19.5664 69.8319L23.0302 66.1616L25.4476 69.5883L27.8372 66.7927L28.0135 66.9435L25.4314 69.9641L23.0023 66.5259L19.7358 69.9919Z" fill="#263238"/>
<path d="M28.5828 67.8761L29.005 65.6025L26.8242 66.3751L28.5828 67.8761Z" fill="#263238"/>
<path d="M17.5972 52.0469H8.05273V64.1086H17.5972V52.0469Z" fill="#263238"/>
<path d="M17.714 64.2247H7.9375V51.9287H17.714V64.2247ZM8.1695 63.9927H17.482V52.1607H8.1695V63.9927Z" fill="#263238"/>
<path d="M18.1734 51.5759H8.62891V63.6376H18.1734V51.5759Z" fill="#EF233C"/>
<path d="M18.1742 63.756H8.62967C8.59891 63.756 8.5694 63.7437 8.54765 63.722C8.52589 63.7002 8.51367 63.6707 8.51367 63.64V51.576C8.51367 51.5452 8.52589 51.5157 8.54765 51.4939C8.5694 51.4722 8.59891 51.46 8.62967 51.46H18.1742C18.2049 51.46 18.2344 51.4722 18.2562 51.4939C18.2779 51.5157 18.2902 51.5452 18.2902 51.576V63.64C18.2902 63.6707 18.2779 63.7002 18.2562 63.722C18.2344 63.7437 18.2049 63.756 18.1742 63.756ZM8.74567 63.524H18.0582V51.692H8.74567V63.524Z" fill="#263238"/>
<path d="M16.2844 54.9214H10.4102V55.1534H16.2844V54.9214Z" fill="#263238"/>
<path d="M16.2844 56.8098H10.4102V57.0418H16.2844V56.8098Z" fill="#263238"/>
<path d="M16.2844 58.6982H10.4102V58.9302H16.2844V58.6982Z" fill="#263238"/>
<path d="M16.2844 60.5869H10.4102V60.8189H16.2844V60.5869Z" fill="#263238"/>
<path d="M17.4196 51.1816C16.8097 51.1812 16.2133 51.3616 15.706 51.7001C15.1986 52.0387 14.8031 52.52 14.5694 53.0834C14.3356 53.6467 14.2742 54.2668 14.3929 54.865C14.5117 55.4633 14.8051 56.0129 15.2362 56.4443C15.6673 56.8757 16.2167 57.1696 16.8149 57.2888C17.4131 57.4079 18.0331 57.347 18.5966 57.1137C19.1602 56.8804 19.6419 56.4852 19.9808 55.9781C20.3197 55.471 20.5005 54.8748 20.5005 54.2649C20.5005 53.4476 20.176 52.6637 19.5983 52.0855C19.0206 51.5074 18.2369 51.1823 17.4196 51.1816ZM17.4196 56.687C16.9405 56.687 16.4723 56.5449 16.074 56.2788C15.6756 56.0127 15.3652 55.6344 15.1819 55.1918C14.9986 54.7492 14.9506 54.2622 15.044 53.7924C15.1375 53.3226 15.3682 52.891 15.7069 52.5523C16.0457 52.2135 16.4772 51.9828 16.9471 51.8894C17.4169 51.7959 17.9039 51.8439 18.3465 52.0272C18.7891 52.2105 19.1673 52.521 19.4335 52.9193C19.6996 53.3176 19.8417 53.7859 19.8417 54.2649C19.8417 54.583 19.779 54.898 19.6573 55.1918C19.5356 55.4857 19.3572 55.7527 19.1323 55.9776C18.9073 56.2025 18.6403 56.3809 18.3465 56.5026C18.0526 56.6244 17.7377 56.687 17.4196 56.687Z" fill="#263238"/>
<path d="M17.4184 57.4618C16.7854 57.4623 16.1666 57.275 15.6401 56.9236C15.1136 56.5722 14.7032 56.0726 14.4608 55.4879C14.2183 54.9032 14.1548 54.2598 14.2782 53.6389C14.4015 53.0181 14.7063 52.4479 15.1538 52.0003C15.6014 51.5527 16.1717 51.248 16.7925 51.1246C17.4133 51.0012 18.0568 51.0648 18.6415 51.3072C19.2261 51.5496 19.7258 51.9601 20.0771 52.4865C20.4285 53.013 20.6158 53.6319 20.6154 54.2648C20.6141 55.1123 20.2769 55.9248 19.6776 56.5241C19.0784 57.1234 18.2659 57.4606 17.4184 57.4618ZM17.4184 51.2976C16.8314 51.2971 16.2575 51.4707 15.7692 51.7965C15.281 52.1223 14.9003 52.5855 14.6753 53.1277C14.4504 53.6699 14.3913 54.2665 14.5055 54.8423C14.6198 55.418 14.9022 55.947 15.3171 56.3622C15.732 56.7774 16.2607 57.0602 16.8363 57.1749C17.412 57.2896 18.0087 57.231 18.5511 57.0065C19.0934 56.7819 19.557 56.4016 19.8831 55.9136C20.2093 55.4256 20.3834 54.8518 20.3834 54.2648C20.3821 53.4786 20.0694 52.725 19.5137 52.1688C18.958 51.6127 18.2046 51.2994 17.4184 51.2976ZM17.4184 56.8029C16.9162 56.8038 16.425 56.6558 16.0071 56.3774C15.5891 56.0991 15.263 55.703 15.0702 55.2393C14.8774 54.7756 14.8265 54.2652 14.9239 53.7725C15.0213 53.2799 15.2627 52.8272 15.6174 52.4718C15.9722 52.1164 16.4244 51.8742 16.9169 51.7759C17.4094 51.6776 17.9199 51.7275 18.384 51.9195C18.848 52.1115 19.2447 52.4368 19.5238 52.8543C19.8029 53.2718 19.9518 53.7627 19.9518 54.2648C19.9512 54.937 19.6843 55.5815 19.2094 56.0572C18.7346 56.5329 18.0905 56.8011 17.4184 56.8029ZM17.4184 51.9588C16.9621 51.9578 16.5158 52.0923 16.1359 52.3451C15.7561 52.598 15.4598 52.9578 15.2846 53.3791C15.1093 53.8004 15.063 54.2642 15.1514 54.7119C15.2399 55.1595 15.4591 55.5709 15.7815 55.8938C16.1038 56.2168 16.5147 56.4369 16.9622 56.5263C17.4096 56.6156 17.8735 56.5702 18.2952 56.3958C18.7168 56.2214 19.0773 55.9258 19.3309 55.5465C19.5845 55.1672 19.7198 54.7211 19.7198 54.2648C19.7168 53.6558 19.4732 53.0727 19.0421 52.6425C18.611 52.2123 18.0274 51.9699 17.4184 51.968V51.9588Z" fill="#263238"/>
<path d="M24.6791 58.5012C24.5915 58.5013 24.505 58.4815 24.4262 58.4432L19.7213 56.1441C19.5832 56.0764 19.4776 55.9566 19.4277 55.8111C19.3779 55.6655 19.388 55.5062 19.4556 55.368C19.5233 55.2299 19.6431 55.1243 19.7886 55.0745C19.9342 55.0247 20.0935 55.0347 20.2317 55.1024L24.932 57.3992C25.0503 57.4565 25.1457 57.5523 25.2024 57.6709C25.2592 57.7896 25.2739 57.9239 25.2442 58.052C25.2146 58.1801 25.1423 58.2944 25.0392 58.376C24.9361 58.4576 24.8083 58.5017 24.6768 58.5012H24.6791Z" fill="#263238"/>
<path d="M28.0152 41.3586H35.597C35.7571 41.3583 35.9158 41.3896 36.0638 41.4507C36.2119 41.5118 36.3464 41.6014 36.4598 41.7146C36.5731 41.8277 36.663 41.9621 36.7244 42.11C36.7857 42.2579 36.8173 42.4165 36.8173 42.5766V47.1656C36.8173 47.3258 36.7857 47.4843 36.7244 47.6322C36.663 47.7802 36.5731 47.9145 36.4598 48.0277C36.3464 48.1408 36.2119 48.2305 36.0638 48.2916C35.9158 48.3526 35.7571 48.3839 35.597 48.3836H34.9288L33.4951 50.5621L33.328 48.3836H28.0152C27.8551 48.3839 27.6965 48.3526 27.5484 48.2916C27.4004 48.2305 27.2658 48.1408 27.1525 48.0277C27.0391 47.9145 26.9492 47.7802 26.8879 47.6322C26.8265 47.4843 26.7949 47.3258 26.7949 47.1656V42.5766C26.7949 42.4165 26.8265 42.2579 26.8879 42.11C26.9492 41.9621 27.0391 41.8277 27.1525 41.7146C27.2658 41.6014 27.4004 41.5118 27.5484 41.4507C27.6965 41.3896 27.8551 41.3583 28.0152 41.3586Z" fill="#263238"/>
<path d="M33.4077 50.9101L33.2221 48.4996H28.0137C27.6601 48.499 27.3211 48.3583 27.0711 48.1082C26.821 47.8582 26.6803 47.5192 26.6797 47.1656V42.5767C26.6803 42.2227 26.8214 41.8834 27.0719 41.6333C27.3224 41.3831 27.662 41.2427 28.016 41.2427H35.5978C35.9518 41.2427 36.2913 41.3831 36.5419 41.6333C36.7924 41.8834 36.9335 42.2227 36.9341 42.5767V47.1656C36.9335 47.5196 36.7924 47.8589 36.5419 48.1091C36.2913 48.3592 35.9518 48.4996 35.5978 48.4996H34.9922L33.4077 50.9101ZM28.016 41.4747C27.7235 41.4747 27.443 41.5907 27.236 41.7973C27.0289 42.0039 26.9123 42.2842 26.9117 42.5767V47.1656C26.9123 47.4581 27.0289 47.7384 27.236 47.945C27.443 48.1516 27.7235 48.2676 28.016 48.2676H33.4378L33.5863 50.2141L34.867 48.2676H35.5978C35.8903 48.2676 36.1708 48.1516 36.3778 47.945C36.5849 47.7384 36.7015 47.4581 36.7021 47.1656V42.5767C36.7015 42.2842 36.5849 42.0039 36.3778 41.7973C36.1708 41.5907 35.8903 41.4747 35.5978 41.4747H28.016Z" fill="#263238"/>
<path d="M30.2647 44.8178C30.2643 44.7 30.2289 44.5849 30.1631 44.4872C30.0973 44.3894 30.0041 44.3134 29.8951 44.2686C29.7861 44.2238 29.6663 44.2124 29.5508 44.2356C29.4353 44.2589 29.3292 44.3159 29.2461 44.3993C29.1629 44.4828 29.1064 44.5891 29.0836 44.7046C29.0607 44.8202 29.0727 44.94 29.1179 45.0488C29.1631 45.1576 29.2395 45.2506 29.3375 45.316C29.4355 45.3814 29.5507 45.4164 29.6685 45.4164C29.747 45.4164 29.8247 45.4009 29.8972 45.3707C29.9697 45.3406 30.0355 45.2965 30.0909 45.2409C30.1463 45.1853 30.1902 45.1193 30.22 45.0467C30.2499 44.9741 30.265 44.8963 30.2647 44.8178Z" fill="white"/>
<path d="M32.1294 45.4142C32.4587 45.4142 32.7257 45.1472 32.7257 44.8179C32.7257 44.4886 32.4587 44.2217 32.1294 44.2217C31.8002 44.2217 31.5332 44.4886 31.5332 44.8179C31.5332 45.1472 31.8002 45.4142 32.1294 45.4142Z" fill="white"/>
<path d="M35.1886 44.8178C35.1881 44.7 35.1528 44.5849 35.087 44.4872C35.0212 44.3894 34.9279 44.3134 34.8189 44.2686C34.7099 44.2238 34.5901 44.2124 34.4746 44.2356C34.3591 44.2589 34.2531 44.3159 34.1699 44.3993C34.0868 44.4828 34.0302 44.5891 34.0074 44.7046C33.9846 44.8202 33.9965 44.94 34.0417 45.0488C34.0869 45.1576 34.1633 45.2506 34.2613 45.316C34.3593 45.3814 34.4745 45.4164 34.5923 45.4164C34.6708 45.4164 34.7485 45.4009 34.821 45.3707C34.8935 45.3406 34.9594 45.2965 35.0148 45.2409C35.0702 45.1853 35.114 45.1193 35.1439 45.0467C35.1737 44.9741 35.1889 44.8963 35.1886 44.8178Z" fill="white"/>
<path d="M29.4173 38.3728H21.8356C21.5119 38.3728 21.2015 38.5014 20.9727 38.7302C20.7438 38.9591 20.6152 39.2695 20.6152 39.5931V44.1821C20.6152 44.3422 20.6468 44.5008 20.7082 44.6487C20.7695 44.7967 20.8595 44.931 20.9728 45.0442C21.0861 45.1573 21.2207 45.247 21.3687 45.308C21.5168 45.3691 21.6754 45.4004 21.8356 45.4001H22.5037L23.9375 47.5786L24.1045 45.4001H29.4173C29.5775 45.4004 29.7361 45.3691 29.8841 45.308C30.0322 45.247 30.1667 45.1573 30.2801 45.0442C30.3934 44.931 30.4833 44.7967 30.5447 44.6487C30.6061 44.5008 30.6376 44.3422 30.6376 44.1821V39.5931C30.6376 39.2695 30.5091 38.9591 30.2802 38.7302C30.0514 38.5014 29.741 38.3728 29.4173 38.3728Z" fill="white"/>
<path d="M24.0264 47.9266L22.4418 45.5161H21.8363C21.4823 45.5161 21.1428 45.3756 20.8922 45.1255C20.6417 44.8754 20.5006 44.5361 20.5 44.1821V39.5932C20.5006 39.2389 20.6416 38.8994 20.8921 38.6489C21.1426 38.3984 21.4821 38.2574 21.8363 38.2568H29.4181C29.7723 38.2574 30.1118 38.3984 30.3623 38.6489C30.6128 38.8994 30.7538 39.2389 30.7544 39.5932V44.1821C30.7538 44.5361 30.6127 44.8754 30.3622 45.1255C30.1116 45.3756 29.7721 45.5161 29.4181 45.5161H24.212L24.0264 47.9266ZM21.8363 38.4888C21.5434 38.4888 21.2625 38.6052 21.0554 38.8123C20.8483 39.0194 20.732 39.3003 20.732 39.5932V44.1821C20.7326 44.4746 20.8492 44.7549 21.0563 44.9615C21.2633 45.1681 21.5438 45.2841 21.8363 45.2841H22.5671L23.8478 47.2306L23.9986 45.2841H29.4181C29.7106 45.2841 29.9911 45.1681 30.1981 44.9615C30.4052 44.7549 30.5218 44.4746 30.5224 44.1821V39.5932C30.5224 39.3003 30.4061 39.0194 30.199 38.8123C29.9919 38.6052 29.711 38.4888 29.4181 38.4888H21.8363Z" fill="#263238"/>
<path d="M23.7628 42.0594C23.7628 41.9414 23.7278 41.8262 23.6623 41.7281C23.5968 41.6301 23.5037 41.5537 23.3947 41.5085C23.2858 41.4634 23.1659 41.4516 23.0502 41.4746C22.9346 41.4976 22.8283 41.5544 22.7449 41.6378C22.6616 41.7212 22.6048 41.8274 22.5818 41.9431C22.5588 42.0587 22.5706 42.1786 22.6157 42.2875C22.6608 42.3965 22.7372 42.4896 22.8353 42.5551C22.9334 42.6206 23.0486 42.6556 23.1666 42.6556C23.3245 42.655 23.4758 42.592 23.5875 42.4803C23.6992 42.3686 23.7622 42.2173 23.7628 42.0594Z" fill="#263238"/>
<path d="M23.1661 42.7716C23.0246 42.7721 22.8861 42.7305 22.7682 42.6522C22.6504 42.5738 22.5584 42.4623 22.5041 42.3316C22.4497 42.2009 22.4353 42.0571 22.4628 41.9183C22.4903 41.7794 22.5584 41.6519 22.6585 41.5518C22.7586 41.4517 22.8861 41.3836 23.0249 41.3561C23.1638 41.3286 23.3076 41.343 23.4383 41.3974C23.569 41.4517 23.6805 41.5437 23.7589 41.6615C23.8372 41.7794 23.8788 41.9179 23.8783 42.0594C23.8777 42.2481 23.8025 42.4289 23.669 42.5624C23.5356 42.6958 23.3548 42.771 23.1661 42.7716ZM23.1661 41.5768C23.0706 41.5764 22.977 41.6043 22.8974 41.657C22.8177 41.7098 22.7555 41.785 22.7186 41.8731C22.6817 41.9613 22.6718 42.0584 22.6902 42.1521C22.7086 42.2459 22.7543 42.3321 22.8217 42.3998C22.8891 42.4675 22.9751 42.5137 23.0688 42.5325C23.1624 42.5513 23.2596 42.5419 23.3479 42.5054C23.4362 42.469 23.5117 42.4071 23.5648 42.3277C23.618 42.2483 23.6463 42.1549 23.6463 42.0594C23.6463 41.9318 23.5958 41.8094 23.5058 41.719C23.4158 41.6286 23.2937 41.5775 23.1661 41.5768Z" fill="#263238"/>
<path d="M26.2159 42.0594C26.2159 41.9414 26.181 41.8262 26.1154 41.7281C26.0499 41.6301 25.9568 41.5537 25.8479 41.5085C25.7389 41.4634 25.619 41.4516 25.5034 41.4746C25.3877 41.4976 25.2815 41.5544 25.1981 41.6378C25.1147 41.7212 25.0579 41.8274 25.0349 41.9431C25.0119 42.0587 25.0237 42.1786 25.0688 42.2875C25.114 42.3965 25.1904 42.4896 25.2884 42.5551C25.3865 42.6206 25.5018 42.6556 25.6197 42.6556C25.7776 42.655 25.9289 42.592 26.0406 42.4803C26.1523 42.3686 26.2153 42.2173 26.2159 42.0594Z" fill="#263238"/>
<path d="M25.627 42.7716C25.4855 42.7721 25.347 42.7305 25.2292 42.6522C25.1113 42.5738 25.0194 42.4623 24.965 42.3316C24.9106 42.2009 24.8963 42.0571 24.9238 41.9183C24.9513 41.7794 25.0194 41.6519 25.1194 41.5518C25.2195 41.4517 25.3471 41.3836 25.4859 41.3561C25.6247 41.3286 25.7686 41.343 25.8992 41.3974C26.0299 41.4517 26.1415 41.5437 26.2198 41.6615C26.2982 41.7794 26.3397 41.9179 26.3393 42.0594C26.3387 42.2481 26.2634 42.4289 26.13 42.5624C25.9965 42.6958 25.8157 42.771 25.627 42.7716ZM25.627 41.5768C25.5315 41.5764 25.438 41.6043 25.3583 41.657C25.2786 41.7098 25.2164 41.785 25.1796 41.8731C25.1427 41.9613 25.1328 42.0584 25.1511 42.1521C25.1695 42.2459 25.2153 42.3321 25.2827 42.3998C25.3501 42.4675 25.436 42.5137 25.5297 42.5325C25.6234 42.5513 25.7205 42.5419 25.8088 42.5054C25.8972 42.469 25.9727 42.4071 26.0258 42.3277C26.0789 42.2483 26.1073 42.1549 26.1073 42.0594C26.1073 41.9318 26.0568 41.8094 25.9668 41.719C25.8768 41.6286 25.7546 41.5775 25.627 41.5768Z" fill="#263238"/>
<path d="M28.6847 42.0594C28.6847 41.9414 28.6497 41.8262 28.5842 41.7281C28.5187 41.6301 28.4255 41.5537 28.3166 41.5085C28.2076 41.4634 28.0878 41.4516 27.9721 41.4746C27.8564 41.4976 27.7502 41.5544 27.6668 41.6378C27.5834 41.7212 27.5267 41.8274 27.5036 41.9431C27.4806 42.0587 27.4924 42.1786 27.5376 42.2875C27.5827 42.3965 27.6591 42.4896 27.7572 42.5551C27.8552 42.6206 27.9705 42.6556 28.0884 42.6556C28.2464 42.655 28.3977 42.592 28.5094 42.4803C28.621 42.3686 28.6841 42.2173 28.6847 42.0594Z" fill="#263238"/>
<path d="M28.088 42.7716C27.9464 42.7721 27.808 42.7305 27.6901 42.6522C27.5722 42.5738 27.4803 42.4623 27.4259 42.3316C27.3716 42.2009 27.3572 42.0571 27.3847 41.9183C27.4122 41.7794 27.4803 41.6519 27.5804 41.5518C27.6805 41.4517 27.808 41.3836 27.9468 41.3561C28.0856 41.3286 28.2295 41.343 28.3602 41.3974C28.4908 41.4517 28.6024 41.5437 28.6808 41.6615C28.7591 41.7794 28.8007 41.9179 28.8002 42.0594C28.7996 42.2481 28.7244 42.4289 28.5909 42.5624C28.4575 42.6958 28.2767 42.771 28.088 42.7716ZM28.088 41.5768C27.9924 41.5764 27.8989 41.6043 27.8192 41.657C27.7396 41.7098 27.6774 41.785 27.6405 41.8731C27.6036 41.9613 27.5937 42.0584 27.6121 42.1521C27.6304 42.2459 27.6762 42.3321 27.7436 42.3998C27.811 42.4675 27.897 42.5137 27.9907 42.5325C28.0843 42.5513 28.1815 42.5419 28.2698 42.5054C28.3581 42.469 28.4336 42.4071 28.4867 42.3277C28.5398 42.2483 28.5682 42.1549 28.5682 42.0594C28.5682 41.9318 28.5177 41.8094 28.4277 41.719C28.3377 41.6286 28.2156 41.5775 28.088 41.5768Z" fill="#263238"/>
<path d="M23.6943 24.2578H11.041V33.6399H23.6943V24.2578Z" fill="white"/>
<path d="M23.8111 33.7536H10.9258V24.1418H23.8111V33.7536ZM11.1578 33.5216H23.5791V24.3738H11.1578V33.5216Z" fill="#263238"/>
<path d="M23.6943 29.044L21.6202 27.2019L18.24 30.6935L15.5117 28.9465L11.041 33.6376H23.6943V29.044Z" fill="#263238"/>
<path d="M23.8103 33.7535H10.7695L15.4954 28.798L18.2214 30.5449L21.6155 27.0417L23.8103 28.9929V33.7535ZM11.3101 33.5215H23.5783V29.0973L21.6271 27.3619L18.2562 30.8419L15.5302 29.0973L11.3101 33.5215Z" fill="#263238"/>
<path d="M15.131 26.847C15.131 27.1329 15.0461 27.4125 14.8872 27.6502C14.7283 27.888 14.5024 28.0732 14.2382 28.1825C13.9739 28.2919 13.6832 28.3203 13.4028 28.2644C13.1223 28.2084 12.8648 28.0705 12.6628 27.8682C12.4607 27.6658 12.3232 27.408 12.2677 27.1275C12.2122 26.847 12.2412 26.5563 12.3509 26.2922C12.4607 26.0282 12.6463 25.8026 12.8843 25.6441C13.1223 25.4855 13.402 25.4012 13.6879 25.4016C14.0708 25.4022 14.4379 25.5548 14.7084 25.8258C14.979 26.0968 15.131 26.464 15.131 26.847Z" fill="#263238"/>
<path d="M13.6883 28.4084C13.3795 28.4084 13.0776 28.3168 12.8209 28.1452C12.5641 27.9737 12.364 27.7298 12.2458 27.4445C12.1276 27.1592 12.0967 26.8453 12.157 26.5424C12.2172 26.2395 12.3659 25.9613 12.5843 25.743C12.8026 25.5246 13.0808 25.3759 13.3837 25.3156C13.6866 25.2554 14.0005 25.2863 14.2858 25.4045C14.5711 25.5227 14.815 25.7228 14.9865 25.9796C15.1581 26.2363 15.2497 26.5382 15.2497 26.847C15.2491 27.2609 15.0844 27.6577 14.7917 27.9504C14.499 28.2431 14.1022 28.4078 13.6883 28.4084ZM13.6883 25.52C13.4254 25.52 13.1684 25.5979 12.9498 25.744C12.7311 25.8901 12.5608 26.0977 12.4601 26.3406C12.3595 26.5835 12.3332 26.8508 12.3845 27.1087C12.4358 27.3665 12.5624 27.6034 12.7483 27.7893C12.9342 27.9752 13.1711 28.1018 13.429 28.1531C13.6868 28.2044 13.9541 28.1781 14.197 28.0775C14.4399 27.9769 14.6476 27.8065 14.7936 27.5879C14.9397 27.3693 15.0177 27.1122 15.0177 26.8493C15.0171 26.4969 14.8768 26.1592 14.6276 25.91C14.3785 25.6608 14.0407 25.5206 13.6883 25.52Z" fill="#263238"/>
<path d="M31.2373 26.8145H18.584V36.1965H31.2373V26.8145Z" fill="white"/>
<path d="M31.3521 36.3102H18.4668V26.6985H31.3521V36.3102ZM18.6988 36.0782H31.1201V26.9305H18.6988V36.0782Z" fill="#263238"/>
<path d="M31.2373 31.6006L29.1655 29.7585L25.7829 33.2501L23.0569 31.5055L18.584 36.1942H31.2373V31.6006Z" fill="#EF233C"/>
<path d="M31.2365 36.3102H18.5832C18.5608 36.3099 18.5389 36.3031 18.5203 36.2907C18.5016 36.2782 18.487 36.2606 18.4781 36.2399C18.4693 36.2193 18.4666 36.1966 18.4705 36.1745C18.4743 36.1523 18.4844 36.1318 18.4997 36.1154L22.968 31.4243C22.9868 31.4051 23.0116 31.393 23.0382 31.3901C23.0649 31.3871 23.0917 31.3935 23.1142 31.4081L25.7613 33.1017L29.0766 29.6797C29.0979 29.6586 29.1266 29.6467 29.1566 29.6467C29.1866 29.6467 29.2154 29.6586 29.2367 29.6797L31.3084 31.5218C31.3207 31.5325 31.3305 31.5457 31.3373 31.5605C31.3441 31.5753 31.3477 31.5913 31.3479 31.6076V36.1919C31.3485 36.2223 31.3372 36.2517 31.3164 36.2738C31.2955 36.296 31.2669 36.309 31.2365 36.3102ZM18.8547 36.0782H31.1205V31.654L29.1694 29.9279L25.8657 33.3406C25.847 33.3598 25.8222 33.3719 25.7955 33.3749C25.7689 33.3778 25.742 33.3715 25.7195 33.3569L23.0747 31.6633L18.8547 36.0782Z" fill="#263238"/>
<path d="M21.2305 30.849C22.0288 30.849 22.6759 30.2019 22.6759 29.4036C22.6759 28.6054 22.0288 27.9583 21.2305 27.9583C20.4323 27.9583 19.7852 28.6054 19.7852 29.4036C19.7852 30.2019 20.4323 30.849 21.2305 30.849Z" fill="#EF233C"/>
<path d="M21.2313 30.965C20.9225 30.965 20.6206 30.8734 20.3638 30.7019C20.1071 30.5303 19.9069 30.2865 19.7888 30.0012C19.6706 29.7159 19.6397 29.4019 19.6999 29.099C19.7602 28.7962 19.9089 28.518 20.1272 28.2996C20.3456 28.0812 20.6238 27.9325 20.9267 27.8723C21.2296 27.812 21.5435 27.843 21.8288 27.9611C22.1141 28.0793 22.3579 28.2794 22.5295 28.5362C22.7011 28.793 22.7926 29.0948 22.7926 29.4036C22.792 29.8176 22.6273 30.2143 22.3347 30.507C22.042 30.7997 21.6452 30.9644 21.2313 30.965ZM21.2313 28.0743C20.9684 28.0743 20.7113 28.1523 20.4927 28.2983C20.2741 28.4444 20.1037 28.652 20.0031 28.8949C19.9025 29.1378 19.8762 29.4051 19.9275 29.663C19.9788 29.9209 20.1054 30.1577 20.2913 30.3436C20.4772 30.5296 20.7141 30.6562 20.9719 30.7075C21.2298 30.7588 21.4971 30.7324 21.74 30.6318C21.9829 30.5312 22.1905 30.3608 22.3366 30.1422C22.4827 29.9236 22.5606 29.6666 22.5606 29.4036C22.5606 29.0509 22.4207 28.7125 22.1714 28.4628C21.9222 28.2132 21.5841 28.0726 21.2313 28.072V28.0743Z" fill="#263238"/>
<path d="M108.744 103.435H17.0371V103.667H108.744V103.435Z" fill="#263238"/>
<path d="M14.7906 103.435H11.5449V103.667H14.7906V103.435Z" fill="#263238"/>
<path d="M48.8715 68.6719L45.8555 66.9273L47.2637 66.5631C47.6962 66.4781 48.0972 66.2768 48.4237 65.9807C48.582 65.7913 48.7204 65.586 48.8367 65.3683C49.0432 65.0133 49.2241 64.7071 49.4538 64.6723C49.4985 64.6642 49.5444 64.6663 49.5881 64.6784C49.6319 64.6904 49.6724 64.7121 49.7067 64.7419C49.9816 64.9809 50.1802 65.2955 50.2775 65.6466C50.3749 65.9977 50.3668 66.3697 50.2542 66.7162C49.9944 67.6094 48.9596 68.5722 48.9155 68.6209L48.8715 68.6719ZM46.4726 67.0085L48.839 68.3843C49.071 68.1523 49.8436 67.3565 50.0524 66.6443C50.1528 66.3424 50.1624 66.0176 50.0799 65.7104C49.9974 65.4031 49.8265 65.1268 49.5884 64.9159C49.5512 64.888 49.5303 64.8903 49.5211 64.8927C49.3958 64.9159 49.2102 65.2337 49.0571 65.4866C48.932 65.7184 48.7835 65.9369 48.6139 66.1385C48.2526 66.4737 47.8038 66.6997 47.3194 66.7904L46.4726 67.0085Z" fill="#263238"/>
<path d="M40.2885 83.8401L38.4766 83.6406L40.6249 81.9656L40.2885 83.8401Z" fill="white"/>
<path d="M40.3837 83.9678L38.1797 83.7358L40.792 81.6965L40.3837 83.9678ZM38.7736 83.5572L40.1934 83.7126L40.4556 82.244L38.7736 83.5572Z" fill="#263238"/>
<path d="M41.2967 66.5957L41.2225 68.0109C41.2225 68.0109 39.7701 73.9292 39.8444 74.1473C39.9186 74.3654 39.7353 80.6085 39.8792 81.3393C40.023 82.0701 40.2805 83.8449 40.2805 83.8449C40.2805 83.8449 42.2757 83.773 43.1829 83.2997C43.932 82.8599 44.6374 82.3495 45.2894 81.7755L44.5633 78.9451C44.9968 78.653 45.347 78.2533 45.5794 77.7851C45.7832 77.3205 45.9297 76.8328 46.0156 76.3328L46.5956 76.1518C46.5956 76.1518 47.3589 76.5508 47.7208 76.1866C48.0827 75.8224 47.795 75.3166 47.686 75.0614C47.5769 74.8062 47.1779 73.9014 47.1779 73.9014C47.1779 73.9014 47.6141 74.5556 48.0479 74.4837C48.4817 74.4118 48.5931 74.4466 48.6302 74.1566C48.6115 73.7873 48.55 73.4214 48.4469 73.0662C48.4469 73.0662 49.2821 73.3933 49.6069 73.0662C49.7122 72.9657 49.7856 72.8364 49.8178 72.6945C49.85 72.5525 49.8396 72.4042 49.7879 72.2681C49.7531 72.1591 48.7717 69.9481 48.7717 69.9481C48.7717 69.9481 50.6973 70.382 50.8412 70.382C51.0168 70.3715 51.1848 70.3063 51.3217 70.1957C51.4585 70.085 51.5574 69.9344 51.6045 69.7648C51.7483 69.2568 50.1521 68.6396 48.8205 67.6606C47.4888 66.6816 45.9877 66.2802 45.3706 66.2802C44.7535 66.2802 41.596 66.0505 41.2967 66.5957Z" fill="white"/>
<path d="M40.1874 83.9608L40.1735 83.8564C40.1735 83.8402 39.9183 82.0724 39.7744 81.3578C39.6886 80.9193 39.7141 78.662 39.7373 76.6714C39.7512 75.5114 39.7651 74.298 39.7373 74.1774C39.6654 73.9663 40.5702 70.2056 41.1154 67.983L41.1989 66.5423C41.4309 66.1108 42.8391 66.0783 44.8854 66.1409C45.0988 66.1409 45.2659 66.1525 45.3656 66.1525C45.9827 66.1525 47.4838 66.533 48.8827 67.5445C49.3583 67.8925 49.8687 68.1964 50.3188 68.4725C51.2027 68.9945 51.8407 69.3727 51.7224 69.7856C51.6666 69.9779 51.5524 70.1481 51.3958 70.2727C51.2391 70.3974 51.0477 70.4704 50.8478 70.4816C50.7202 70.4816 49.5323 70.2172 48.9779 70.0919C49.2331 70.6672 49.8734 72.1219 49.9059 72.2147C49.9658 72.3728 49.978 72.5451 49.9408 72.71C49.9037 72.875 49.8189 73.0255 49.6971 73.1427C49.4256 73.4141 48.9083 73.3213 48.6183 73.2378C48.7028 73.5399 48.7465 73.852 48.7482 74.1658C48.7064 74.4999 48.544 74.5231 48.2494 74.5648L48.0731 74.5927C47.8843 74.6122 47.6953 74.5573 47.5464 74.4396C47.6462 74.6716 47.7483 74.9036 47.797 75.0126L47.8341 75.0961C47.9594 75.3699 48.1914 75.8826 47.8086 76.2677C47.4258 76.6528 46.7715 76.3582 46.5906 76.2677L46.1266 76.4139C46.039 76.8995 45.8942 77.373 45.6951 77.8244C45.4678 78.2884 45.127 78.6874 44.7044 78.9844L45.4283 81.8056L45.3749 81.8543C44.716 82.4349 44.0028 82.9508 43.2451 83.3948C42.3171 83.8727 40.3753 83.9492 40.2918 83.9516L40.1874 83.9608ZM41.4193 66.6328L41.3474 68.0248C40.779 70.3448 39.9554 73.8712 39.967 74.1333C39.9948 74.2168 39.9902 74.8989 39.967 76.6853C39.9461 78.5668 39.9183 80.9077 39.9995 81.3253C40.1247 81.9424 40.3289 83.3391 40.3869 83.7312C40.8045 83.708 42.3798 83.5989 43.1361 83.2045C43.8572 82.7823 44.5369 82.2929 45.1661 81.7429L44.4399 78.88L44.5095 78.8336C44.9244 78.553 45.2599 78.1703 45.4839 77.7224C45.6817 77.2668 45.825 76.7894 45.9108 76.3002V76.2283L46.6068 76.0125L46.6486 76.0334C46.8411 76.1332 47.391 76.3396 47.6392 76.0914C47.8875 75.8432 47.7645 75.5044 47.6183 75.1796L47.5789 75.0938C47.4699 74.8386 47.0708 73.9338 47.0708 73.9338L47.2727 73.8224C47.384 73.9848 47.7367 74.4001 48.029 74.3514L48.2123 74.3236C48.4953 74.2841 48.4953 74.2841 48.5139 74.1264C48.4978 73.7723 48.4377 73.4216 48.3352 73.0824L48.2749 72.8504L48.4907 72.9339C48.7018 73.0174 49.305 73.1821 49.5277 72.9594C49.6185 72.8745 49.6816 72.7643 49.7089 72.6431C49.7362 72.5219 49.7264 72.3952 49.6808 72.2796C49.653 72.1961 49.0591 70.8505 48.6693 69.9596L48.5742 69.7485L48.8062 69.7996C49.537 69.9643 50.7364 70.2288 50.8524 70.2334C51.0022 70.2215 51.1448 70.164 51.261 70.0686C51.3771 69.9732 51.4612 69.8445 51.502 69.6998C51.5693 69.4678 50.9058 69.0641 50.2028 68.6488C49.7388 68.3774 49.2331 68.0735 48.7482 67.7208C47.4675 66.7928 46.0013 66.3636 45.3679 66.3636C45.2659 66.3636 45.0965 66.3636 44.8807 66.3497C44.0803 66.352 41.6954 66.2616 41.4193 66.6328Z" fill="#263238"/>
<path d="M48.4582 69.8088C48.0893 69.5211 47.0662 68.7509 46.7901 68.6673C46.5581 68.5977 44.4701 68.3588 43.2103 68.2033C42.6025 68.1337 42.3125 68.1013 42.1756 68.0688C42.0526 68.0409 42.055 68.0108 42.0573 67.9574V67.8484H42.1686V67.9505L42.1918 67.8507C42.2382 67.8507 42.6976 67.9133 43.2289 67.9737C44.9341 68.1685 46.6161 68.3634 46.8504 68.4377C47.2216 68.549 48.4558 69.5095 48.595 69.6185L48.4582 69.8088Z" fill="#263238"/>
<path d="M48.359 73.1172C47.8742 72.3168 47.0111 71.0106 46.749 70.9155C46.4404 70.8041 43.4198 70.2775 41.877 70.013L41.9141 69.781C42.0997 69.8112 46.4311 70.5466 46.8371 70.6928C47.2431 70.8389 48.3498 72.6369 48.5655 72.9942L48.359 73.1172Z" fill="#263238"/>
<path d="M46.8647 73.7993C46.5626 73.5274 46.2311 73.2901 45.8764 73.0917C45.5702 72.9502 42.8117 72.2983 41.3965 71.9735L41.4498 71.7415C41.6169 71.7809 45.5678 72.6903 45.9738 72.8759C46.3489 73.0839 46.6991 73.3337 47.0178 73.6206L46.8647 73.7993Z" fill="#263238"/>
<path d="M46.309 75.9383L45.0701 74.8061L42.757 74.7365L42.2095 75.1472L42.0703 74.9616L42.6828 74.5022L45.1629 74.5764L46.4644 75.7666L46.309 75.9383Z" fill="#263238"/>
<path d="M38.4766 83.6406L38.8965 85.3713C38.8965 85.3713 39.8918 85.6334 41.8823 84.847C43.2882 84.244 44.6234 83.4877 45.8634 82.5919L45.7057 81.3345C45.7057 81.3345 42.2489 83.8517 38.4766 83.6406Z" fill="white"/>
<path d="M39.3753 85.5292C39.2047 85.534 39.0341 85.5184 38.8672 85.4828L38.7999 85.4643L38.3359 83.5178H38.4937C42.1802 83.7219 45.6138 81.2581 45.6486 81.2326L45.8063 81.1189L45.9966 82.6385L45.9409 82.6779C45.9223 82.6919 43.9155 84.1627 41.9343 84.9446C41.1254 85.298 40.2574 85.4963 39.3753 85.5292ZM38.9925 85.2694C39.2407 85.3088 40.1989 85.3877 41.8391 84.7381C43.2158 84.1497 44.5243 83.413 45.7414 82.5411L45.6161 81.5388C44.8992 82.0167 41.8763 83.8774 38.6259 83.7637L38.9925 85.2694Z" fill="#263238"/>
<path d="M45.9685 82.1743C45.9685 82.1743 43.3492 83.8517 41.463 84.427C40.1995 84.7898 38.8974 85.0009 37.584 85.0558C37.584 85.0558 39.8901 95.6396 40.6232 97.2636C41.3563 98.8876 42.5395 103.551 42.5395 103.551H55.7635C55.7635 103.551 47.9057 88.3571 47.6435 87.2041C47.3813 86.051 45.9685 82.1743 45.9685 82.1743Z" fill="#263238"/>
<path d="M55.766 103.667H42.4561L42.4329 103.579C42.4329 103.532 41.2451 98.9062 40.5236 97.3147C39.8021 95.7232 37.5725 85.5175 37.4774 85.086L37.4473 84.9491H37.5888C38.8903 84.8931 40.1806 84.6836 41.433 84.325C43.289 83.7612 45.8851 82.1024 45.9106 82.0862L46.0336 82.0073L46.0823 82.1442C46.1403 82.302 47.5021 86.0418 47.762 87.1879C48.0218 88.334 55.7938 103.354 55.882 103.507L55.9701 103.676L55.766 103.667ZM42.6325 103.435H55.5757C54.6686 101.681 47.7829 88.3316 47.5323 87.2296C47.3003 86.2181 46.1612 83.0536 45.9083 82.3576C45.3677 82.694 43.1452 84.042 41.5003 84.5454C40.2722 84.8965 39.0082 85.1074 37.7326 85.1741C38.0041 86.4107 40.0526 95.7255 40.7324 97.2219C41.4121 98.7183 42.4561 102.776 42.6325 103.435Z" fill="#263238"/>
<path d="M51.3367 42.92C51.3367 42.92 48.8589 48.6806 49.1675 49.416C49.476 50.1515 50.7172 51.337 50.1604 52.142C49.6036 52.9471 46.3812 55.6104 47.0006 56.9746C47.62 58.3388 49.2301 58.3991 49.2301 58.3991C49.2301 58.3991 48.9216 60.1948 49.3531 60.6286L49.7869 61.0624C49.7869 61.0624 49.7869 61.9904 50.0978 62.4243C50.4087 62.8581 51.2114 63.2293 51.2114 63.2293C51.2114 63.2293 49.664 65.5215 49.9725 66.2639C50.2811 67.0063 53.8144 68.1848 55.3085 68.556C56.8026 68.9272 59.4567 68.4331 59.4567 68.4331L60.2014 72.1451L74.2606 63.9068L72.0937 58.3944C72.0937 58.3944 75.8057 55.049 75.996 50.0308C76.1862 45.0127 74.6318 40.3077 71.8455 38.635C69.0592 36.9623 65.2799 37.2732 65.2799 37.2732C64.5806 36.5537 63.6869 36.0535 62.7081 35.8335C61.7292 35.6135 60.7074 35.6833 59.7676 36.0343C56.3525 37.2128 51.3367 42.92 51.3367 42.92Z" fill="white"/>
<path d="M60.1109 72.3284L59.3592 68.5653C58.8279 68.6558 56.61 69.0015 55.2714 68.6674C54.007 68.3496 50.2207 67.1547 49.8658 66.3079C49.5711 65.6003 50.7103 63.7792 51.042 63.2734C50.6458 63.0854 50.2921 62.8186 50.0027 62.4892C49.715 62.0856 49.6779 61.3107 49.6732 61.0972L49.2719 60.6959C48.8635 60.2875 49.0399 58.9327 49.0955 58.4895C48.6872 58.4431 47.4391 58.2042 46.8939 57.0071C46.3997 55.9167 48.1165 54.1372 49.251 52.9587C49.54 52.6773 49.8112 52.3782 50.063 52.0631C50.4133 51.5574 49.9354 50.8428 49.5131 50.2071C49.3401 49.9674 49.1887 49.7127 49.0607 49.4462C48.7429 48.6783 50.9747 43.4443 51.2299 42.8504L51.2485 42.8203C51.455 42.5883 56.3247 37.0852 59.7211 35.9113C60.6746 35.5625 61.7077 35.4929 62.6993 35.7107C63.6909 35.9285 64.5998 36.4246 65.3193 37.1409C65.8042 37.1107 69.2981 36.9623 71.8988 38.5329C74.6086 40.1569 76.3068 44.7807 76.105 50.0331C75.931 54.6917 72.7039 57.9606 72.2236 58.4223L74.3975 63.9531L74.3116 64.0042L60.1109 72.3284ZM59.5425 68.2962L60.2756 71.9641L74.1098 63.858L71.9499 58.3643L72.0079 58.3086C72.045 58.2761 75.6897 54.9376 75.873 50.0308C76.0632 44.8595 74.4183 40.3216 71.7782 38.7371C69.0568 37.1131 65.3193 37.3868 65.2822 37.3891H65.2242L65.1917 37.352C64.5037 36.656 63.6301 36.1724 62.675 35.9589C61.7199 35.7454 60.7235 35.811 59.8047 36.1479C56.5567 37.2731 51.7195 42.6648 51.4527 42.9757C50.5015 45.1867 49.0793 48.8662 49.2927 49.3719C49.4151 49.6249 49.5587 49.867 49.7219 50.0958C50.1859 50.7918 50.7103 51.5736 50.2718 52.2093C50.0113 52.535 49.7317 52.8449 49.4343 53.1373C48.4088 54.1999 46.692 55.9793 47.1143 56.9282C47.6989 58.2111 49.2278 58.2831 49.244 58.2854H49.3763L49.3531 58.4153C49.2719 58.8979 49.1211 60.2226 49.4459 60.5427L49.9099 61.0067V61.0555C49.9099 61.0555 49.9099 61.951 50.1999 62.35C50.4899 62.7491 51.2601 63.1133 51.2671 63.1179L51.3923 63.1736L51.3158 63.2873C50.8935 63.9114 49.8542 65.6514 50.0885 66.2128C50.3623 66.8717 53.6984 68.0271 55.3363 68.4377C56.7817 68.7973 59.4103 68.3171 59.4358 68.3124L59.5425 68.2962Z" fill="#263238"/>
<path d="M50.2207 49.3535C50.2207 49.3535 50.2207 50.0332 51.0257 49.7247C51.8308 49.4161 52.2646 48.857 52.8817 48.98C53.4989 49.1029 54.3062 49.4138 53.8097 48.5484C53.3133 47.6831 52.137 48.052 51.4549 48.3605C50.983 48.6083 50.5638 48.9455 50.2207 49.3535Z" fill="#263238"/>
<path d="M50.6569 49.9217C50.5449 49.9252 50.4346 49.8935 50.3414 49.8313C50.2696 49.7739 50.2115 49.7012 50.1713 49.6186C50.1312 49.5359 50.11 49.4453 50.1094 49.3533V49.3116L50.1372 49.2791C50.492 48.8565 50.9273 48.5087 51.4179 48.256C52.6289 47.7038 53.5059 47.792 53.9188 48.488C54.0975 48.8012 54.1346 48.9984 54.0348 49.1306C53.8887 49.3278 53.5383 49.2443 53.13 49.1515L52.8655 49.0912C52.5222 49.0239 52.2322 49.1979 51.8656 49.4183C51.6142 49.5797 51.3486 49.7179 51.0722 49.8313C50.9404 49.8863 50.7997 49.917 50.6569 49.9217ZM50.3437 49.3905C50.3471 49.4391 50.3606 49.4866 50.3834 49.5297C50.4061 49.5729 50.4377 49.6108 50.4759 49.641C50.5573 49.6762 50.6456 49.6922 50.7341 49.6878C50.8226 49.6834 50.9089 49.6586 50.9863 49.6155C51.2506 49.508 51.5045 49.3768 51.745 49.2234C52.1371 48.9914 52.4781 48.7803 52.905 48.8662L53.1764 48.9265C53.3899 48.9775 53.7866 49.0703 53.8423 48.9937C53.8423 48.9937 53.891 48.9218 53.71 48.604C53.2599 47.8175 52.1371 48.1818 51.506 48.4671C51.0631 48.6977 50.6685 49.0111 50.3437 49.3905Z" fill="#263238"/>
<path d="M51.6811 54.4875C51.4306 54.4875 51.1939 54.2392 50.9596 53.7335C50.7268 53.1881 50.5556 52.6185 50.4492 52.0352C50.3294 51.4554 50.2757 50.8639 50.2891 50.272C50.3193 49.6595 50.4701 49.344 50.7531 49.2814C51.0362 49.2187 51.296 49.4693 51.5512 50.0261C51.786 50.5747 51.9572 51.1484 52.0616 51.7359C52.1808 52.3166 52.2337 52.9089 52.2194 53.5015C52.1915 54.1116 52.0407 54.4295 51.7554 54.4921L51.6811 54.4875ZM50.8459 49.7616C50.7439 49.9588 50.6673 50.7244 50.9063 51.9471C51.1452 53.1697 51.4979 53.8518 51.6649 53.9979C51.767 53.8007 51.8412 53.0351 51.6046 51.8125C51.3679 50.5875 51.013 49.9078 50.8459 49.7616Z" fill="#263238"/>
<path d="M63.5841 50.2385L51.7539 51.043L51.7854 51.5059L63.6156 50.7015L63.5841 50.2385Z" fill="#263238"/>
<path d="M50.0361 59.0764C49.877 59.0416 49.7124 59.04 49.5526 59.0718C49.3929 59.1035 49.2414 59.1679 49.1077 59.2609C48.974 59.3539 48.8609 59.4735 48.7755 59.6122C48.6902 59.7509 48.6344 59.9058 48.6116 60.067C48.5668 60.2588 48.5622 60.4578 48.5981 60.6514C48.6339 60.845 48.7095 61.0291 48.82 61.1922C48.9304 61.3552 49.0735 61.4935 49.2401 61.5986C49.4066 61.7036 49.5932 61.773 49.7879 61.8024C50.0987 61.8024 50.6555 61.4312 51.6439 61.865C52.6322 62.2989 53.4999 62.8557 53.4999 63.909C53.4999 64.9622 53.1287 65.7046 52.3236 65.642C51.5186 65.5794 50.9618 64.0946 50.5279 64.2802C50.0941 64.4658 48.9782 66.2011 49.7229 67.3774C50.4676 68.5536 55.4208 70.7831 57.0309 70.7228C58.641 70.6625 64.6498 65.4564 65.4548 63.5308C66.2599 61.6052 65.2066 60.8048 65.021 60.248C64.8354 59.6912 62.9771 54.9816 62.9771 53.6198C62.9771 52.2579 63.8447 49.1607 65.5778 49.0354C67.3108 48.9102 68.3618 52.6291 67.8096 53.991C67.514 54.7634 67.0232 55.446 66.3851 55.9722C66.3851 55.9722 66.0116 59.9371 67.0649 60.6123C68.1182 61.2874 70.9045 62.1597 72.206 62.2223C73.5075 62.285 74.0017 62.4706 74.6838 61.1691C75.3659 59.8675 74.1873 59.313 74.5608 58.5683C74.9343 57.8236 77.9666 54.1603 78.2728 50.2674C78.5791 46.3744 77.5907 43.2076 75.918 40.7298C74.2453 38.2521 70.6539 35.9599 69.4754 35.7743C68.6123 35.616 67.7635 35.3879 66.9373 35.0922C66.9373 35.0922 68.2365 34.5354 67.2459 33.6678C66.2552 32.8001 64.2739 32.3662 61.0515 33.4195C57.829 34.4728 56.6087 35.7279 56.6087 35.7279C56.6087 35.7279 56.7943 34.0552 54.9359 34.7999C53.0776 35.5446 49.8575 38.8878 50.2959 41.0639C50.7344 43.2401 51.7204 43.1705 53.0799 42.7366C54.4395 42.3028 56.5483 41.3748 57.4879 41.4978C58.4275 41.6207 59.0354 41.6834 57.365 43.1078C55.6946 44.5323 53.4001 46.0194 54.639 46.7015C55.8779 47.3836 59.3463 49.3022 59.7801 50.7267C60.2139 52.1512 58.293 62.1249 57.6109 63.3011C56.9288 64.4774 55.6296 64.8486 54.8269 63.9809C54.0242 63.1132 53.3398 60.886 51.9779 59.893C50.6161 58.9001 50.0361 59.0764 50.0361 59.0764Z" fill="#263238"/>
<path d="M56.9675 70.8389C55.2205 70.8389 50.3601 68.6001 49.627 67.4378C49.2465 66.8346 49.344 66.1409 49.4901 65.6653C49.7221 64.9415 50.1861 64.2988 50.4854 64.1735C50.7847 64.0483 51.026 64.3661 51.3252 64.728C51.6245 65.0899 51.9586 65.4983 52.3368 65.5284C52.4491 65.5409 52.5629 65.5294 52.6705 65.4946C52.7781 65.4598 52.877 65.4025 52.9608 65.3266C53.2369 65.0714 53.3877 64.5679 53.3877 63.9091C53.3877 62.8929 52.5293 62.3779 51.599 61.9719C51.131 61.7481 50.5958 61.7092 50.1003 61.8628C49.9985 61.8938 49.8933 61.9125 49.7871 61.9185C49.3939 61.8657 49.0364 61.6629 48.7895 61.3524C48.6443 61.1715 48.5424 60.9597 48.4918 60.7333C48.4411 60.5068 48.4429 60.2718 48.4972 60.0463C48.5229 59.8674 48.5849 59.6957 48.6795 59.5417C48.774 59.3876 48.8991 59.2546 49.047 59.1507C49.3417 58.972 49.6903 58.9038 50.0307 58.9582C50.1815 58.9257 50.7824 58.8863 52.0236 59.7887C52.8773 60.4082 53.4596 61.487 53.9747 62.4359C54.2253 62.9532 54.5327 63.4411 54.8911 63.8905C55.0287 64.0481 55.2027 64.1697 55.398 64.2449C55.5932 64.3201 55.8039 64.3465 56.0116 64.322C56.3256 64.2664 56.6226 64.1391 56.8793 63.95C57.136 63.7609 57.3456 63.515 57.4918 63.2316C58.1878 62.0438 60.0554 52.0956 59.6494 50.75C59.2248 49.358 55.7054 47.4255 54.564 46.7898C54.4551 46.7422 54.3601 46.6676 54.2883 46.573C54.2164 46.4783 54.1699 46.3669 54.1533 46.2492C54.093 45.5811 55.1393 44.7366 56.3527 43.7622C56.6589 43.5139 56.9768 43.2587 57.2691 43.0082C58.16 42.2495 58.3061 41.9526 58.2713 41.8482C58.2365 41.7438 57.8375 41.6649 57.4872 41.6162H57.4524C56.7981 41.528 55.478 42.0059 54.3157 42.4282C53.8796 42.5859 53.4689 42.7344 53.107 42.8504C52.2973 43.1056 51.6524 43.2147 51.1373 42.9107C50.6733 42.637 50.3624 42.057 50.1699 41.0895C49.7059 38.809 53.0096 35.4519 54.8864 34.7026C55.5314 34.4451 56.0186 34.4381 56.3411 34.6817C56.4558 34.7818 56.5485 34.9046 56.6132 35.0424C56.6779 35.1802 56.7132 35.3299 56.7169 35.4821C57.1809 35.1016 58.4894 34.1667 61.0252 33.3384C64.823 32.0949 66.6071 32.9742 67.3309 33.6075C67.6441 33.8813 67.7787 34.1597 67.7346 34.4381C67.6997 34.5766 67.6369 34.7066 67.5499 34.8199C67.4629 34.9332 67.3536 35.0275 67.2288 35.097C67.9707 35.3507 68.7307 35.5477 69.5024 35.6863C70.6764 35.8719 74.3188 38.1663 76.0216 40.6928C77.8776 43.4513 78.6827 46.6854 78.395 50.3046C78.1444 53.4876 76.1098 56.4874 75.1308 57.9281C74.9104 58.2529 74.7364 58.5104 74.6668 58.6473C74.5322 58.9164 74.6412 59.1623 74.7758 59.4732C74.9684 59.9117 75.2073 60.4569 74.7897 61.2503C74.1448 62.4846 73.6297 62.4498 72.5834 62.3871L72.2052 62.3663C70.8805 62.3036 68.0617 61.4197 67.0061 60.7423C65.9064 60.03 66.2568 56.1533 66.273 55.9886V55.9352L66.3148 55.9051C66.937 55.3911 67.4165 54.7256 67.7068 53.9725C68.0896 53.0445 67.6859 51.0493 66.8948 49.9566C66.621 49.5784 66.1709 49.1353 65.5932 49.1771C63.9484 49.2954 63.0992 52.3624 63.0992 53.6454C63.0992 54.752 64.3683 58.1601 64.9112 59.6147C65.0225 59.921 65.106 60.1391 65.1432 60.2365C65.1972 60.373 65.2665 60.503 65.3496 60.6239C65.6976 61.19 66.2243 62.0461 65.5816 63.6005C64.7256 65.6398 58.6704 70.7925 57.0556 70.8575L56.9675 70.8389ZM50.6084 64.38C50.5976 64.3778 50.5866 64.3778 50.5759 64.38C50.3671 64.4705 49.9263 65.0389 49.7128 65.7256C49.6163 65.9818 49.5763 66.2558 49.5955 66.5289C49.6147 66.802 49.6927 67.0677 49.8242 67.3079C50.5202 68.4145 55.4316 70.6695 57.0301 70.5999C58.552 70.5396 64.54 65.4217 65.352 63.4845C65.9575 62.0415 65.4888 61.2782 65.1455 60.7191C65.0513 60.5833 64.9734 60.4369 64.9135 60.2829C64.881 60.1878 64.7998 59.972 64.6815 59.6704C64.134 58.2042 62.8556 54.7683 62.8556 53.6199C62.8556 52.091 63.8115 49.0448 65.5654 48.9195C66.106 48.8801 66.628 49.184 67.0711 49.7965C67.9016 50.9426 68.3169 53.0445 67.9109 54.0351C67.6112 54.81 67.1223 55.4975 66.4888 56.035C66.3913 57.1555 66.3194 60.0022 67.1221 60.5219C68.1545 61.1877 70.9107 62.0507 72.2052 62.1134L72.588 62.1343C73.6158 62.1992 74.0009 62.2224 74.5763 61.1227C74.9405 60.4267 74.7433 59.979 74.5554 59.5451C74.4069 59.2087 74.2677 58.8886 74.451 58.522C74.5979 58.2655 74.7582 58.017 74.9312 57.7773C75.8964 56.3505 77.9078 53.3879 78.156 50.2651C78.4391 46.6993 77.6526 43.5139 75.8221 40.8019C74.1471 38.3218 70.5975 36.076 69.4584 35.8951C68.5905 35.7315 67.7371 35.4987 66.9064 35.1991L66.6303 35.0993L66.8994 34.9833C66.8994 34.9833 67.4469 34.7513 67.5072 34.3708C67.5374 34.1783 67.426 33.9695 67.1778 33.7537C66.4818 33.1505 64.7859 32.3223 61.0971 33.5217C57.9396 34.5541 56.6891 35.7721 56.6891 35.7837L56.4571 36.0157L56.4919 35.6886C56.4919 35.6886 56.5522 35.09 56.2065 34.8279C55.956 34.6353 55.543 34.6539 54.9792 34.8789C53.2114 35.5865 49.9773 38.8693 50.4042 41.0037C50.5805 41.8899 50.8682 42.4351 51.2626 42.6718C51.7034 42.9316 52.2927 42.8272 53.042 42.5883C53.4016 42.4746 53.81 42.3261 54.2438 42.1707C55.4896 41.7183 56.7796 41.2427 57.4918 41.3447H57.5243C58.0254 41.412 58.4198 41.4654 58.501 41.7415C58.5822 42.0175 58.269 42.4375 57.4268 43.1543C57.1299 43.4072 56.812 43.6647 56.4988 43.913C55.4363 44.7691 54.3389 45.653 54.3853 46.1982C54.3997 46.2779 54.4341 46.3527 54.4852 46.4156C54.5363 46.4785 54.6025 46.5274 54.6776 46.5578C55.8516 47.2027 59.422 49.1655 59.8744 50.6503C60.3384 52.1838 58.334 62.2131 57.696 63.3175C57.5316 63.632 57.2968 63.9043 57.0099 64.1132C56.7229 64.3221 56.3916 64.4618 56.0418 64.5215C55.7975 64.5494 55.5501 64.5182 55.3204 64.4306C55.0907 64.343 54.8854 64.2015 54.7217 64.0181C54.3504 63.5547 54.0322 63.0512 53.7728 62.5171C53.2717 61.5891 52.701 60.5358 51.889 59.9465C50.6153 59.0185 50.0771 59.1577 50.0724 59.1577H50.0446H50.0144C49.7259 59.1084 49.4293 59.1626 49.1769 59.3108C49.0509 59.4014 48.9451 59.5174 48.8664 59.6512C48.7877 59.785 48.7378 59.9338 48.7199 60.088C48.672 60.2804 48.6693 60.4812 48.712 60.6748C48.7547 60.8684 48.8415 61.0495 48.9658 61.2039C49.1699 61.4587 49.4606 61.6296 49.7824 61.6842C49.8697 61.6768 49.956 61.6605 50.04 61.6355C50.5847 61.4678 51.1726 61.5108 51.6872 61.7561C52.6407 62.1737 53.6151 62.7537 53.6151 63.9067C53.6151 64.6422 53.4411 65.192 53.114 65.4959C53.0068 65.5939 52.88 65.6678 52.7419 65.7126C52.6039 65.7574 52.4578 65.7722 52.3136 65.7558C51.8356 65.7187 51.4668 65.2709 51.1536 64.8742C50.954 64.6422 50.7383 64.38 50.6084 64.38Z" fill="#263238"/>
<path d="M64.7285 56.4688V56.2368C65.2822 56.1432 65.8305 56.0201 66.3711 55.8679L66.4291 56.0999C65.8689 56.252 65.3013 56.3751 64.7285 56.4688Z" fill="#263238"/>
<path d="M58.2536 74.0659C58.2536 74.0659 55.4882 76.314 55.0984 77.2629C54.7087 78.2118 54.7968 80.0283 54.7968 80.2023C54.7968 80.3763 52.6787 81.9725 51.9432 84.1347C51.2078 86.297 51.166 88.9742 51.166 88.9742L55.9615 80.2441L58.6967 74.7039L58.2536 74.0659Z" fill="#EF233C"/>
<path d="M51.041 89.4384V88.9744C51.041 88.9466 51.0921 86.2507 51.8252 84.1024C52.3797 82.4784 53.7067 81.1583 54.3424 80.5273C54.4574 80.4195 54.5666 80.3057 54.6695 80.1863V80.1213C54.637 78.7873 54.7414 77.8129 54.9827 77.2236C55.3771 76.2585 58.0567 74.073 58.1704 73.9756L58.2701 73.8967L58.8084 74.7064L56.0661 80.2953L51.041 89.4384ZM58.233 74.2401C57.7389 74.6484 55.5441 76.4975 55.217 77.3095C55.0616 77.6946 54.8829 78.4903 54.9224 80.1143V80.2048C54.9224 80.293 54.8528 80.3649 54.5257 80.6897C53.8993 81.3091 52.6001 82.5967 52.0641 84.1697C51.5282 85.7426 51.3681 87.6103 51.3125 88.4803L55.8713 80.1863L58.5601 74.7203L58.233 74.2401Z" fill="#263238"/>
<path d="M69.795 64.7768C69.795 64.7768 57.6544 71.528 57.84 72.3933C58.0256 73.2587 58.7077 75.8014 58.7077 75.8014C58.7077 75.8014 68.2452 68.2452 69.9806 67.3148C71.7159 66.3845 75.3699 65.0227 75.3699 65.0227C75.3699 65.0227 74.6878 63.227 74.5022 63.0414C74.3166 62.8558 71.1568 64.2176 69.795 64.7768Z" fill="white"/>
<path d="M58.6402 76.001L58.5961 75.8316C58.5961 75.8061 57.9117 73.2796 57.7261 72.4189C57.6867 72.231 57.5939 71.7948 63.6885 68.1594C66.6674 66.3846 69.7066 64.6794 69.7391 64.6794L70.4977 64.3662C73.7782 63.002 74.4162 62.8141 74.5717 62.9742C74.7665 63.1667 75.3512 64.6933 75.4672 64.9972L75.5066 65.1062L75.3976 65.1457C75.3605 65.1596 71.732 66.5168 70.0245 67.4309C68.3169 68.345 58.8629 75.8293 58.7678 75.9058L58.6402 76.001ZM69.8458 64.8812C64.0876 68.0828 57.9651 71.7971 57.9535 72.3725C58.1089 73.094 58.6193 75.0173 58.7748 75.5996C59.9997 74.6321 68.2868 68.0851 69.9247 67.2128C71.4791 66.3799 74.5972 65.1921 75.2189 64.9554C74.9969 64.3333 74.7342 63.7265 74.4325 63.1389H74.4185C74.0381 63.1389 71.8109 64.0669 70.5998 64.568L69.8458 64.8812Z" fill="#263238"/>
<path d="M59.2636 73.3862L49.5405 91.9044L42.541 103.551H84.4727C84.4727 103.551 84.1641 93.888 83.5447 87.7563C82.9253 81.6245 78.4152 69.6696 77.4733 68.44C76.5313 67.2104 76.297 66.584 76.297 66.584C76.297 66.584 76.1114 64.6004 75.4293 64.2918C74.7473 63.9832 67.9984 66.2615 59.2636 73.3862Z" fill="#263238"/>
<path d="M84.5947 103.667H42.3359L49.4421 91.8464L59.1745 73.3119L59.1931 73.298C67.7283 66.338 74.635 63.786 75.4795 64.1758C76.1755 64.4959 76.3843 66.2638 76.4075 66.5445C76.729 67.1899 77.1178 67.7996 77.5675 68.3634C78.5256 69.6394 83.0473 81.6755 83.6621 87.747C84.2769 93.8184 84.5901 103.451 84.5901 103.548L84.5947 103.667ZM42.7466 103.435H84.3558C84.3163 102.303 84.0055 93.4588 83.4278 87.7678C82.8176 81.7358 78.3238 69.7646 77.3795 68.5002C76.4353 67.2358 76.1987 66.6442 76.1894 66.6141V66.5816C76.1407 66.0503 75.8994 64.6166 75.3913 64.3846C74.7719 64.1038 68.1065 66.3357 59.3647 73.4604L49.6486 91.9601L42.7466 103.435Z" fill="#263238"/>
<path d="M93.8071 44.9152C102.929 44.9152 110.323 37.5207 110.323 28.3991C110.323 19.2776 102.929 11.8831 93.8071 11.8831C84.6855 11.8831 77.291 19.2776 77.291 28.3991C77.291 37.5207 84.6855 44.9152 93.8071 44.9152Z" fill="#263238"/>
<path d="M93.807 45.0313C90.5172 45.0326 87.3009 44.0583 84.5648 42.2316C81.8288 40.4049 79.6959 37.8078 78.436 34.7688C77.1761 31.7298 76.8457 28.3855 77.4867 25.1587C78.1277 21.9319 79.7112 18.9677 82.0369 16.641C84.3627 14.3142 87.3262 12.7295 90.5527 12.0872C93.7792 11.4449 97.1238 11.7738 100.163 13.0325C103.203 14.2911 105.801 16.4229 107.629 19.1582C109.457 21.8934 110.432 25.1094 110.432 28.3992C110.427 32.8076 108.674 37.0341 105.558 40.152C102.441 43.2698 98.2154 45.0245 93.807 45.0313ZM93.807 11.9991C90.5631 11.9977 87.3916 12.9584 84.6937 14.7596C81.9958 16.5609 79.8927 19.1217 78.6504 22.1183C77.408 25.1149 77.0822 28.4126 77.7143 31.5944C78.3463 34.7762 79.9077 37.699 82.201 39.9933C84.4943 42.2876 87.4165 43.8503 90.598 44.4836C93.7795 45.117 97.0774 44.7926 100.074 43.5515C103.072 42.3105 105.633 40.2084 107.436 37.5113C109.238 34.8142 110.2 31.6431 110.2 28.3992C110.195 24.0523 108.467 19.8848 105.394 16.8104C102.321 13.7361 98.1539 12.0059 93.807 11.9991Z" fill="#263238"/>
<path d="M82.2687 43.6509C83.5346 43.6509 84.5609 42.66 84.5609 41.4376C84.5609 40.2153 83.5346 39.2244 82.2687 39.2244C81.0028 39.2244 79.9766 40.2153 79.9766 41.4376C79.9766 42.66 81.0028 43.6509 82.2687 43.6509Z" fill="#263238"/>
<path d="M82.2689 43.7667C81.8142 43.7495 81.3747 43.5988 81.0049 43.3336C80.6352 43.0684 80.3516 42.7003 80.1894 42.2752C80.0273 41.85 79.9937 41.3866 80.0929 40.9425C80.1922 40.4984 80.4198 40.0933 80.7475 39.7776C81.0752 39.4619 81.4885 39.2496 81.9359 39.167C82.3834 39.0844 82.8453 39.1352 83.2641 39.3131C83.6829 39.491 84.0402 39.7881 84.2914 40.1675C84.5427 40.5468 84.6768 40.9917 84.6771 41.4467C84.6631 42.073 84.4021 42.6683 83.951 43.1029C83.4999 43.5374 82.8953 43.7761 82.2689 43.7667ZM82.2689 39.3402C81.8602 39.3575 81.4655 39.4944 81.1339 39.7341C80.8023 39.9738 80.5485 40.3056 80.4039 40.6883C80.2593 41.0711 80.2303 41.4878 80.3205 41.8869C80.4108 42.286 80.6163 42.6497 80.9115 42.933C81.2067 43.2162 81.5787 43.4065 81.9811 43.4802C82.3835 43.5539 82.7988 43.5077 83.1752 43.3474C83.5516 43.1871 83.8726 42.9197 84.0984 42.5785C84.3242 42.2373 84.4447 41.8373 84.4451 41.4282C84.4311 40.8635 84.1946 40.3272 83.787 39.9361C83.3794 39.545 82.8337 39.3308 82.2689 39.3402Z" fill="#263238"/>
<path d="M80.5182 44.2678C80.5298 44.5972 80.4427 44.9225 80.2681 45.2021C80.0935 45.4816 79.8394 45.7027 79.5383 45.8368C79.2373 45.9709 78.903 46.0121 78.5784 45.955C78.2538 45.8978 77.9537 45.745 77.7165 45.5162C77.4793 45.2873 77.3159 44.9928 77.2472 44.6705C77.1786 44.3481 77.2078 44.0126 77.3311 43.7069C77.4544 43.4013 77.6662 43.1394 77.9393 42.955C78.2125 42.7705 78.5345 42.6719 78.8641 42.6717C79.0775 42.6677 79.2897 42.7058 79.4884 42.7839C79.6871 42.862 79.8685 42.9785 80.0221 43.1267C80.1758 43.275 80.2987 43.4521 80.3838 43.6479C80.4689 43.8437 80.5146 44.0544 80.5182 44.2678Z" fill="#263238"/>
<path d="M78.8631 45.9778C78.5271 45.9664 78.2019 45.8563 77.928 45.6613C77.6541 45.4663 77.4437 45.1949 77.3231 44.8811C77.2024 44.5673 77.1768 44.2249 77.2494 43.8966C77.3221 43.5683 77.4898 43.2687 77.7316 43.0351C77.9735 42.8015 78.2787 42.6443 78.6093 42.5831C78.9399 42.5218 79.2812 42.5593 79.5907 42.6908C79.9001 42.8222 80.164 43.0419 80.3494 43.3224C80.5348 43.6029 80.6336 43.9317 80.6333 44.2679C80.6294 44.4965 80.5805 44.722 80.4894 44.9316C80.3983 45.1412 80.2668 45.3308 80.1024 45.4896C79.938 45.6483 79.744 45.7732 79.5313 45.8569C79.3187 45.9407 79.0917 45.9818 78.8631 45.9778ZM78.8631 42.7878C78.5731 42.7992 78.2929 42.8955 78.0572 43.0649C77.8215 43.2343 77.6409 43.4693 77.5377 43.7405C77.4345 44.0118 77.4133 44.3074 77.4768 44.5906C77.5403 44.8738 77.6857 45.1321 77.8948 45.3334C78.1039 45.5346 78.3676 45.6699 78.653 45.7225C78.9385 45.7751 79.2331 45.7425 79.5002 45.629C79.7673 45.5155 79.9951 45.3259 80.1553 45.0839C80.3155 44.8419 80.4011 44.5582 80.4013 44.2679C80.3934 43.8678 80.2269 43.4871 79.9385 43.2096C79.6501 42.932 79.2633 42.7803 78.8631 42.7878Z" fill="#263238"/>
<path d="M93.1723 43.8085C102.294 43.8085 109.688 36.414 109.688 27.2924C109.688 18.1709 102.294 10.7764 93.1723 10.7764C84.0507 10.7764 76.6562 18.1709 76.6562 27.2924C76.6562 36.414 84.0507 43.8085 93.1723 43.8085Z" fill="white"/>
<path d="M93.1731 43.9246C89.8836 43.9246 86.6679 42.9491 83.9328 41.1216C81.1977 39.294 79.0659 36.6964 77.8071 33.6573C76.5482 30.6182 76.2189 27.274 76.8606 24.0477C77.5024 20.8214 79.0864 17.8579 81.4124 15.5318C83.7385 13.2058 86.702 11.6217 89.9283 10.98C93.1546 10.3382 96.4988 10.6676 99.5379 11.9264C102.577 13.1853 105.175 15.3171 107.002 18.0522C108.83 20.7873 109.805 24.003 109.805 27.2925C109.8 31.7021 108.046 35.9297 104.928 39.0477C101.81 42.1658 97.5827 43.9197 93.1731 43.9246ZM93.1731 10.8924C89.9295 10.8924 86.7587 11.8543 84.0617 13.6563C81.3647 15.4584 79.2627 18.0197 78.0214 21.0164C76.7801 24.0132 76.4553 27.3107 77.0881 30.492C77.7209 33.6733 79.2829 36.5955 81.5765 38.8891C83.8701 41.1827 86.7923 42.7446 89.9736 43.3774C93.1549 44.0102 96.4524 43.6855 99.4491 42.4442C102.446 41.2029 105.007 39.1009 106.809 36.4039C108.611 33.7069 109.573 30.5361 109.573 27.2925C109.565 22.9464 107.834 18.7808 104.76 15.7088C101.686 12.6368 97.5192 10.9089 93.1731 10.904V10.8924Z" fill="#263238"/>
<path d="M81.6359 42.5442C82.9018 42.5442 83.9281 41.5533 83.9281 40.331C83.9281 39.1086 82.9018 38.1177 81.6359 38.1177C80.37 38.1177 79.3438 39.1086 79.3438 40.331C79.3438 41.5533 80.37 42.5442 81.6359 42.5442Z" fill="white"/>
<path d="M81.6361 42.6601C81.1814 42.6428 80.7419 42.4921 80.3721 42.2269C80.0024 41.9617 79.7188 41.5936 79.5566 41.1685C79.3945 40.7433 79.3609 40.2799 79.4601 39.8358C79.5594 39.3917 79.787 38.9866 80.1147 38.6709C80.4424 38.3552 80.8557 38.1429 81.3031 38.0603C81.7506 37.9777 82.2125 38.0285 82.6313 38.2064C83.0501 38.3843 83.4074 38.6814 83.6586 39.0608C83.9098 39.4401 84.044 39.885 84.0443 40.3401C84.0309 40.9665 83.7701 41.5621 83.3188 41.9969C82.8676 42.4316 82.2626 42.67 81.6361 42.6601ZM81.6361 38.2335C81.2274 38.2508 80.8327 38.3878 80.5011 38.6274C80.1695 38.8671 79.9157 39.1989 79.7711 39.5817C79.6265 39.9644 79.5975 40.3812 79.6877 40.7802C79.778 41.1793 79.9835 41.543 80.2787 41.8263C80.5739 42.1095 80.9458 42.2998 81.3483 42.3735C81.7507 42.4472 82.166 42.401 82.5424 42.2407C82.9188 42.0804 83.2398 41.813 83.4656 41.4718C83.6914 41.1306 83.8119 40.7306 83.8123 40.3215C83.7989 39.7566 83.5625 39.2199 83.1548 38.8287C82.7471 38.4375 82.2011 38.2235 81.6361 38.2335Z" fill="#263238"/>
<path d="M79.8835 43.1521C79.895 43.4816 79.8079 43.807 79.6332 44.0866C79.4585 44.3662 79.2042 44.5872 78.903 44.7213C78.6018 44.8553 78.2674 44.8964 77.9428 44.839C77.6181 44.7817 77.318 44.6287 77.0809 44.3996C76.8438 44.1705 76.6806 43.8758 76.6122 43.5533C76.5438 43.2308 76.5733 42.8952 76.697 42.5896C76.8206 42.284 77.0328 42.0223 77.3063 41.8381C77.5797 41.6539 77.9019 41.5556 78.2316 41.5559C78.4449 41.5522 78.6568 41.5906 78.8553 41.6688C79.0537 41.747 79.2348 41.8636 79.3882 42.0118C79.5416 42.16 79.6643 42.337 79.7493 42.5327C79.8342 42.7283 79.8798 42.9388 79.8835 43.1521Z" fill="white"/>
<path d="M78.2327 44.8734C77.8966 44.8624 77.5712 44.7528 77.2971 44.5581C77.0229 44.3635 76.8122 44.0924 76.6911 43.7788C76.57 43.4651 76.5439 43.1227 76.6161 42.7943C76.6884 42.466 76.8557 42.1661 77.0972 41.9322C77.3387 41.6983 77.6437 41.5407 77.9743 41.479C78.3048 41.4173 78.6461 41.4543 78.9558 41.5854C79.2654 41.7165 79.5296 41.9358 79.7154 42.216C79.9011 42.4963 80.0003 42.825 80.0005 43.1612C79.9926 43.6225 79.802 44.0618 79.4706 44.3828C79.1392 44.7038 78.694 44.8802 78.2327 44.8734ZM78.2327 41.681C77.9425 41.692 77.662 41.788 77.426 41.9571C77.1901 42.1262 77.009 42.361 76.9055 42.6323C76.802 42.9035 76.7805 43.1992 76.8437 43.4826C76.907 43.766 77.0522 44.0245 77.2612 44.2259C77.4703 44.4274 77.7339 44.5629 78.0194 44.6157C78.3049 44.6684 78.5997 44.636 78.8669 44.5226C79.1341 44.4091 79.3621 44.2195 79.5224 43.9775C79.6827 43.7354 79.7683 43.4515 79.7685 43.1612C79.7606 42.7614 79.5944 42.3811 79.3065 42.1037C79.0186 41.8262 78.6324 41.6742 78.2327 41.681Z" fill="#263238"/>
<path d="M100.224 24.9886C100.225 23.8679 99.9555 22.7635 99.439 21.7689C98.9226 20.7743 98.1741 19.9187 97.2569 19.2747C96.3398 18.6306 95.2809 18.217 94.17 18.0688C93.0592 17.9206 91.9289 18.0423 90.875 18.4235C89.8211 18.8046 88.8746 19.4341 88.1155 20.2586C87.3564 21.0831 86.8071 22.0783 86.5141 23.16C86.2211 24.2418 86.1931 25.3782 86.4323 26.4731C86.6715 27.5679 87.171 28.5891 87.8885 29.45C88.9151 30.6833 89.4774 32.2371 89.4777 33.8418V34.7999H97.0177V33.8441C97.0165 32.2439 97.5764 30.6939 98.6 29.4639C99.6526 28.2107 100.228 26.6253 100.224 24.9886Z" fill="#EF233C"/>
<path d="M97.0146 34.9136H89.4746C89.4438 34.9136 89.4143 34.9014 89.3926 34.8796C89.3708 34.8579 89.3586 34.8284 89.3586 34.7976V33.8417C89.3575 32.2648 88.8043 30.7381 87.7949 29.5265C86.9322 28.4905 86.3826 27.2301 86.2104 25.8929C86.0383 24.5558 86.2507 23.1972 86.8227 21.9764C87.3948 20.7556 88.3029 19.7231 89.4407 18.9998C90.5784 18.2765 91.8987 17.8923 93.2469 17.8923C94.5951 17.8923 95.9154 18.2765 97.0531 18.9998C98.1909 19.7231 99.099 20.7556 99.6711 21.9764C100.243 23.1972 100.456 24.5558 100.283 25.8929C100.111 27.2301 99.5616 28.4905 98.6989 29.5265C97.6912 30.7378 97.1396 32.2638 97.1399 33.8394V34.7999C97.1396 34.8158 97.1361 34.8314 97.1295 34.8458C97.123 34.8603 97.1136 34.8732 97.1018 34.8839C97.0901 34.8945 97.0763 34.9027 97.0613 34.9078C97.0463 34.9129 97.0304 34.9149 97.0146 34.9136ZM89.5906 34.6816H96.8986V33.8417C96.9003 32.2103 97.4751 30.6312 98.5226 29.3804C99.6454 28.0341 100.21 26.3089 100.1 24.5593C99.9908 22.8097 99.2153 21.1685 97.9333 19.9728C97.2465 19.3257 96.4323 18.8289 95.5427 18.5141C94.6531 18.1994 93.7076 18.0735 92.7667 18.1446C91.5076 18.2338 90.2975 18.6688 89.2698 19.4016C88.242 20.1344 87.4365 21.1367 86.9418 22.2979C86.4472 23.4592 86.2826 24.7345 86.4663 25.9833C86.65 27.2322 87.1747 28.4061 87.9828 29.3757C89.0293 30.629 89.6038 32.2091 89.6068 33.8417L89.5906 34.6816Z" fill="#263238"/>
<path d="M97.0169 34.7976H89.4746V36.6629H97.0169V34.7976Z" fill="white"/>
<path d="M97.0154 36.7811H89.4754C89.4446 36.7811 89.4151 36.7689 89.3933 36.7471C89.3716 36.7254 89.3594 36.6959 89.3594 36.6651V34.8091C89.3594 34.7784 89.3716 34.7488 89.3933 34.7271C89.4151 34.7053 89.4446 34.6931 89.4754 34.6931H97.0154C97.0461 34.6931 97.0756 34.7053 97.0974 34.7271C97.1192 34.7488 97.1314 34.7784 97.1314 34.8091V36.6651C97.1314 36.6959 97.1192 36.7254 97.0974 36.7471C97.0756 36.7689 97.0461 36.7811 97.0154 36.7811ZM89.5914 36.5491H96.8994V34.9251H89.5914V36.5491Z" fill="#263238"/>
<path d="M89.475 36.6699H97.0173V37.4402C97.0173 37.5843 96.9889 37.727 96.9338 37.8601C96.8786 37.9932 96.7978 38.1142 96.6959 38.2161C96.594 38.318 96.473 38.3988 96.3399 38.454C96.2067 38.5091 96.064 38.5375 95.9199 38.5375H90.57C90.279 38.5375 89.9999 38.4219 89.7941 38.2161C89.5883 38.0103 89.4727 37.7312 89.4727 37.4402V36.6699H89.475Z" fill="white"/>
<path d="M95.9203 38.651H90.5704C90.249 38.6504 89.941 38.5223 89.7139 38.2948C89.4869 38.0673 89.3594 37.759 89.3594 37.4376V36.6697C89.3594 36.6389 89.3716 36.6094 89.3933 36.5877C89.4151 36.5659 89.4446 36.5537 89.4754 36.5537H97.0154C97.0461 36.5537 97.0756 36.5659 97.0974 36.5877C97.1192 36.6094 97.1314 36.6389 97.1314 36.6697V37.4376C97.1314 37.759 97.0039 38.0673 96.7768 38.2948C96.5498 38.5223 96.2417 38.6504 95.9203 38.651ZM89.5914 36.795V37.4469C89.5914 37.7068 89.6944 37.956 89.878 38.14C90.0615 38.324 90.3105 38.4277 90.5704 38.4283H95.9203C96.1802 38.4277 96.4292 38.324 96.6128 38.14C96.7963 37.956 96.8994 37.7068 96.8994 37.4469V36.795H89.5914Z" fill="#263238"/>
<path d="M90.4258 38.5327H96.0634V38.9109C96.0634 39.1062 96.0249 39.2995 95.9502 39.48C95.8754 39.6604 95.7659 39.8243 95.6278 39.9624C95.4897 40.1005 95.3258 40.2101 95.1454 40.2848C94.9649 40.3595 94.7716 40.398 94.5763 40.398H91.9129C91.5185 40.398 91.1402 40.2413 90.8613 39.9624C90.5825 39.6835 90.4258 39.3053 90.4258 38.9109V38.5327Z" fill="#263238"/>
<path d="M94.577 40.514H91.9137C91.4887 40.5134 91.0813 40.3443 90.7808 40.0438C90.4803 39.7433 90.3112 39.3359 90.3105 38.9109V38.4167H96.1802V38.9109C96.1795 39.3359 96.0104 39.7433 95.7099 40.0438C95.4094 40.3443 95.002 40.5134 94.577 40.514ZM90.5425 38.658V38.9202C90.5432 39.2836 90.6878 39.632 90.9448 39.889C91.2018 40.146 91.5502 40.2907 91.9137 40.2913H94.577C94.9405 40.2907 95.2889 40.146 95.5459 39.889C95.8029 39.632 95.9475 39.2836 95.9482 38.9202V38.658H90.5425Z" fill="#263238"/>
<path d="M104.399 25.1417H101.212C101.181 25.1417 101.151 25.1294 101.13 25.1077C101.108 25.0859 101.096 25.0564 101.096 25.0257C101.096 24.9949 101.108 24.9654 101.13 24.9436C101.151 24.9219 101.181 24.9097 101.212 24.9097H104.399C104.43 24.9097 104.46 24.9219 104.481 24.9436C104.503 24.9654 104.515 24.9949 104.515 25.0257C104.515 25.0564 104.503 25.0859 104.481 25.1077C104.46 25.1294 104.43 25.1417 104.399 25.1417Z" fill="#263238"/>
<path d="M85.0203 25.1417H81.7723C81.7415 25.1417 81.712 25.1294 81.6902 25.1077C81.6685 25.0859 81.6562 25.0564 81.6562 25.0257C81.6562 24.9949 81.6685 24.9654 81.6902 24.9436C81.712 24.9219 81.7415 24.9097 81.7723 24.9097H85.0203C85.051 24.9097 85.0805 24.9219 85.1023 24.9436C85.124 24.9654 85.1363 24.9949 85.1363 25.0257C85.1357 25.0562 85.1232 25.0854 85.1016 25.107C85.08 25.1287 85.0508 25.1411 85.0203 25.1417Z" fill="#263238"/>
<path d="M93.0945 17.0333C93.0638 17.0333 93.0342 17.0211 93.0125 16.9994C92.9907 16.9776 92.9785 16.9481 92.9785 16.9173V13.7134C92.9785 13.6826 92.9907 13.6531 93.0125 13.6314C93.0342 13.6096 93.0638 13.5974 93.0945 13.5974C93.1253 13.5974 93.1548 13.6096 93.1765 13.6314C93.1983 13.6531 93.2105 13.6826 93.2105 13.7134V16.9173C93.2105 16.9481 93.1983 16.9776 93.1765 16.9994C93.1548 17.0211 93.1253 17.0333 93.0945 17.0333Z" fill="#263238"/>
<path d="M98.887 19.3488C98.8718 19.3487 98.8568 19.3456 98.8429 19.3396C98.8289 19.3336 98.8163 19.3249 98.8058 19.314C98.7949 19.3032 98.7863 19.2904 98.7804 19.2762C98.7745 19.2621 98.7715 19.2469 98.7715 19.2316C98.7715 19.2163 98.7745 19.2012 98.7804 19.187C98.7863 19.1729 98.7949 19.1601 98.8058 19.1493L101.012 16.936C101.034 16.9147 101.063 16.9028 101.093 16.9028C101.124 16.9028 101.153 16.9147 101.175 16.936C101.185 16.9468 101.194 16.9596 101.2 16.9737C101.206 16.9879 101.209 17.003 101.209 17.0184C101.209 17.0337 101.206 17.0488 101.2 17.063C101.194 17.0771 101.185 17.0899 101.175 17.1007L98.9705 19.307C98.9602 19.3193 98.9474 19.3293 98.9331 19.3365C98.9187 19.3437 98.903 19.3479 98.887 19.3488Z" fill="#263238"/>
<path d="M85.0974 33.1388C85.0665 33.1387 85.0367 33.1271 85.0138 33.1063C84.9924 33.0843 84.9805 33.0547 84.9805 33.024C84.9805 32.9932 84.9924 32.9637 85.0138 32.9416L87.2526 30.7028C87.2635 30.692 87.2763 30.6834 87.2904 30.6776C87.3046 30.6717 87.3197 30.6687 87.335 30.6687C87.3503 30.6687 87.3654 30.6717 87.3796 30.6776C87.3937 30.6834 87.4065 30.692 87.4174 30.7028C87.4282 30.7136 87.4368 30.7265 87.4426 30.7406C87.4485 30.7547 87.4515 30.7699 87.4515 30.7852C87.4515 30.8005 87.4485 30.8156 87.4426 30.8298C87.4368 30.8439 87.4282 30.8567 87.4174 30.8675L85.1786 33.1063C85.1563 33.1266 85.1274 33.1381 85.0974 33.1388Z" fill="#263238"/>
<path d="M87.2317 19.2837C87.2014 19.2839 87.1722 19.2722 87.1505 19.2512L85.0068 17.1075C84.9849 17.0857 84.9727 17.0561 84.9727 17.0252C84.9727 16.9943 84.9849 16.9646 85.0068 16.9428C85.0286 16.921 85.0582 16.9087 85.0891 16.9087C85.12 16.9087 85.1496 16.921 85.1715 16.9428L87.3129 19.0865C87.3288 19.1027 87.3395 19.1232 87.3439 19.1455C87.3482 19.1678 87.3459 19.1909 87.3373 19.2119C87.3286 19.2329 87.314 19.2509 87.2952 19.2636C87.2765 19.2764 87.2544 19.2834 87.2317 19.2837Z" fill="#263238"/>
<path d="M101.093 33.1387C101.063 33.1384 101.034 33.1268 101.012 33.1062L98.8779 30.9718C98.8671 30.961 98.8585 30.9481 98.8526 30.934C98.8468 30.9199 98.8438 30.9047 98.8438 30.8894C98.8437 30.8741 98.8468 30.859 98.8526 30.8449C98.8585 30.8307 98.8671 30.8179 98.8779 30.8071C98.8887 30.7962 98.9015 30.7877 98.9157 30.7818C98.9298 30.776 98.9449 30.7729 98.9602 30.7729C98.9755 30.7729 98.9907 30.776 99.0048 30.7818C99.0189 30.7877 99.0318 30.7962 99.0426 30.8071L101.175 32.9415C101.191 32.9577 101.201 32.9782 101.206 33.0005C101.21 33.0228 101.208 33.0458 101.199 33.0668C101.19 33.0878 101.176 33.1058 101.157 33.1186C101.138 33.1314 101.116 33.1383 101.093 33.1387Z" fill="#263238"/>
<path d="M37.5859 84.8773L39.3143 84.1975L39.4187 85.035L37.5859 84.8773Z" fill="white"/>
<path d="M39.5528 85.1628L37.082 84.9517L39.402 84.0237L39.5528 85.1628ZM38.0889 84.8055L39.286 84.9076L39.2188 84.3601L38.0889 84.8055Z" fill="#263238"/>
<path d="M68.5156 41.1175V40.396H67.6874C67.646 39.9947 67.5394 39.6029 67.3719 39.236L68.0934 38.8207L67.7431 38.1873L67.0216 38.6026C66.7858 38.2737 66.4974 37.986 66.1678 37.7512L66.5854 37.0296L65.959 36.6677L65.5414 37.3869C65.1744 37.22 64.7826 37.1142 64.3814 37.0737V36.2432H63.6576V37.0737C63.2564 37.1142 62.8646 37.22 62.4976 37.3869L62.08 36.6677L61.4559 37.0296L61.8712 37.7512C61.5416 37.986 61.2531 38.2737 61.0174 38.6026L60.2959 38.1873L59.9363 38.8137L60.6555 39.229C60.4877 39.5957 60.3819 39.9877 60.3423 40.389H59.5117V41.1105H60.3191C60.3587 41.5118 60.4645 41.9038 60.6323 42.2705L59.9131 42.6858L60.2727 43.3122L60.9942 42.8969C61.2305 43.2254 61.5189 43.513 61.848 43.7484L61.4327 44.4699L62.0568 44.8318L62.4744 44.1103C62.8409 44.279 63.2329 44.3856 63.6344 44.4258V45.2564H64.3582V44.4258C64.7597 44.3856 65.1517 44.279 65.5182 44.1103L65.9358 44.8318L66.5622 44.4699L66.1446 43.7484C66.4737 43.513 66.7621 43.2254 66.9984 42.8969L67.7199 43.3122L68.0818 42.6858L67.3603 42.2705C67.5278 41.9036 67.6344 41.5118 67.6758 41.1105L68.5156 41.1175ZM64.0032 37.9252C64.7096 37.9271 65.3897 38.193 65.91 38.6708C66.4303 39.1486 66.7531 39.8037 66.8151 40.5073H64.5322C64.4847 40.4051 64.409 40.3186 64.3141 40.2578C64.2192 40.197 64.109 40.1644 63.9963 40.164C63.9677 40.1616 63.939 40.1616 63.9104 40.164L62.7226 38.2221C63.1198 38.0227 63.5588 37.9209 64.0032 37.9252ZM61.1728 40.7556C61.1717 40.3004 61.2806 39.8518 61.4902 39.4478C61.6999 39.0439 62.0041 38.6966 62.3769 38.4356L63.5671 40.3681C63.4734 40.4746 63.4215 40.6114 63.4209 40.7532C63.4214 40.8823 63.4638 41.0076 63.5416 41.1105L62.3816 43.0686C62.0091 42.8085 61.7048 42.4625 61.4944 42.0598C61.284 41.6572 61.1737 41.2098 61.1728 40.7556ZM64.0032 43.5883C63.5598 43.5874 63.1228 43.4825 62.7272 43.282L63.8872 41.3332C63.9283 41.3427 63.9704 41.3474 64.0125 41.3472C64.1408 41.3473 64.2656 41.3054 64.3679 41.2279C64.4701 41.1504 64.5441 41.0415 64.5786 40.918H66.836C66.7956 41.6411 66.4792 42.3213 65.9522 42.8181C65.4251 43.3149 64.7275 43.5906 64.0032 43.5883Z" fill="#D1D1D1"/>
<path d="M70.4353 50.5877H71.1568V49.7571C71.5582 49.7167 71.9502 49.6101 72.3168 49.4416L72.7321 50.1631L73.3585 49.7989L72.9409 49.0797C73.27 48.8434 73.5583 48.555 73.7946 48.2259L74.5161 48.6412L74.8757 48.0148L74.1566 47.5995C74.3233 47.2324 74.429 46.8406 74.4697 46.4395H75.298V45.7041H74.4721C74.4306 45.3028 74.3241 44.911 74.1566 44.5441L74.8757 44.1288L74.5138 43.5024L73.7946 43.92C73.5577 43.5914 73.2694 43.3032 72.9409 43.0662L73.3561 42.3447L72.7297 41.9851L72.3145 42.7043C71.9478 42.5365 71.5558 42.4307 71.1545 42.3911V41.5605H70.4306V42.3888C70.0294 42.4302 69.6376 42.5368 69.2706 42.7043L68.853 41.9851L68.2289 42.347L68.6442 43.0662C68.3153 43.302 68.0276 43.5904 67.7928 43.92L67.0713 43.5047L66.7094 44.1311L67.4309 44.5464C67.2631 44.9131 67.1573 45.3051 67.1177 45.7064H66.2871V46.4302H67.1177C67.1581 46.8317 67.2647 47.2236 67.4332 47.5902L66.7047 48.0241L67.0666 48.6505L67.7881 48.2352C68.0251 48.563 68.3134 48.8505 68.6419 49.0866L68.2266 49.8081L68.853 50.1701L69.2683 49.4485C69.635 49.6163 70.027 49.7221 70.4283 49.7617L70.4353 50.5877ZM73.6253 46.0729C73.6251 46.7802 73.3603 47.4617 72.8828 47.9834C72.4053 48.5051 71.7499 48.8291 71.0454 48.8917V46.6089C71.1475 46.5614 71.2339 46.4858 71.2943 46.3908C71.3548 46.2958 71.3868 46.1855 71.3865 46.0729C71.3865 46.0451 71.3865 46.0173 71.3865 45.9894L73.3121 44.7993C73.5139 45.1938 73.6211 45.6298 73.6253 46.0729ZM70.7902 43.2425C71.2453 43.2418 71.6938 43.3509 72.0977 43.5605C72.5016 43.7701 72.8489 44.0741 73.1102 44.4466L71.18 45.6298C71.0739 45.5354 70.9368 45.4834 70.7949 45.4837C70.6666 45.4842 70.5419 45.5265 70.4399 45.6043L68.4818 44.4443C68.7423 44.0738 69.0879 43.7713 69.4896 43.5621C69.8913 43.353 70.3373 43.2434 70.7902 43.2425ZM67.9621 46.0753C67.962 45.6317 68.0669 45.1944 68.2684 44.7993L70.2149 45.9593C70.2055 46.0012 70.2009 46.0439 70.2009 46.0869C70.2009 46.2155 70.2432 46.3405 70.3211 46.4428C70.3991 46.5451 70.5085 46.6189 70.6325 46.6529V48.9103C69.9091 48.8693 69.229 48.5525 68.7322 48.0251C68.2354 47.4977 67.9598 46.7998 67.9621 46.0753Z" fill="#D1D1D1"/>
</svg>
