<svg width="116" height="116" viewBox="0 0 116 116" fill="none" xmlns="http://www.w3.org/2000/svg">
<path d="M58.3805 112.313C88.7678 112.313 113.402 97.8008 113.402 79.8984C113.402 61.9961 88.7678 47.4834 58.3805 47.4834C27.9932 47.4834 3.35938 61.9961 3.35938 79.8984C3.35938 97.8008 27.9932 112.313 58.3805 112.313Z" fill="#F5F5F5"/>
<path d="M45.6171 103.196C51.7148 103.196 56.6579 100.283 56.6579 96.6903C56.6579 93.0976 51.7148 90.1851 45.6171 90.1851C39.5193 90.1851 34.5762 93.0976 34.5762 96.6903C34.5762 100.283 39.5193 103.196 45.6171 103.196Z" fill="#E0E0E0"/>
<path d="M26.664 103.477C31.5137 103.477 35.4452 101.16 35.4452 98.303C35.4452 95.4457 31.5137 93.1294 26.664 93.1294C21.8143 93.1294 17.8828 95.4457 17.8828 98.303C17.8828 101.16 21.8143 103.477 26.664 103.477Z" fill="#E0E0E0"/>
<path d="M97.6346 72.073L74.8731 85.1996C74.3772 85.4856 73.8147 85.6362 73.2421 85.6362C72.6696 85.6362 72.1071 85.4856 71.6112 85.1996L69.5997 84.4641C69.4032 84.3507 69.2399 84.1876 69.1264 83.9911C69.0129 83.7946 68.9531 83.5717 68.9531 83.3447C68.9531 83.1178 69.0129 82.8949 69.1264 82.6984C69.2399 82.5019 69.4032 82.3387 69.5997 82.2253L92.3613 69.0988C92.8572 68.8127 93.4197 68.6621 93.9922 68.6621C94.5648 68.6621 95.1272 68.8127 95.6232 69.0988L97.6323 69.8342C97.829 69.9474 97.9924 70.1104 98.1061 70.3067C98.2199 70.5031 98.2798 70.726 98.2801 70.9529C98.2803 71.1799 98.2208 71.4029 98.1075 71.5995C97.9942 71.7961 97.8311 71.9594 97.6346 72.073Z" fill="#E0E0E0"/>
<path d="M87.2581 95.5841L77.463 101.229C77.0212 101.484 76.5199 101.618 76.0095 101.618C75.4992 101.618 74.9979 101.484 74.5561 101.229L66.9743 96.8531C66.8012 96.7504 66.6578 96.6044 66.5582 96.4295C66.4586 96.2546 66.4062 96.0568 66.4062 95.8555C66.4062 95.6543 66.4586 95.4564 66.5582 95.2815C66.6578 95.1066 66.8012 94.9607 66.9743 94.8579L76.7693 89.2111C77.2116 88.9557 77.7133 88.8213 78.224 88.8213C78.7347 88.8213 79.2364 88.9557 79.6786 89.2111L87.2581 93.5889C87.4312 93.6916 87.5746 93.8376 87.6742 94.0125C87.7738 94.1874 87.8261 94.3852 87.8261 94.5865C87.8261 94.7878 87.7738 94.9856 87.6742 95.1605C87.5746 95.3354 87.4312 95.4814 87.2581 95.5841Z" fill="#E0E0E0"/>
<path d="M70.1775 82.1418L59.9162 87.5566C59.4739 87.8109 58.9728 87.9447 58.4627 87.9447C57.9526 87.9447 57.4514 87.8109 57.0092 87.5566L49.4274 83.1788C49.2543 83.0761 49.1109 82.9301 49.0113 82.7552C48.9117 82.5803 48.8594 82.3825 48.8594 82.1812C48.8594 81.9799 48.9117 81.7821 49.0113 81.6072C49.1109 81.4323 49.2543 81.2863 49.4274 81.1836L59.6888 75.7687C60.1306 75.5134 60.632 75.3789 61.1423 75.3789C61.6526 75.3789 62.1539 75.5134 62.5958 75.7687L70.1775 80.1466C70.3506 80.2493 70.494 80.3953 70.5936 80.5702C70.6932 80.7451 70.7456 80.9429 70.7456 81.1442C70.7456 81.3454 70.6932 81.5433 70.5936 81.7182C70.494 81.8931 70.3506 82.0391 70.1775 82.1418Z" fill="#E0E0E0"/>
<path d="M27.9521 35.3449C27.981 34.9296 28.158 34.5386 28.4509 34.2429L30.0494 32.6305C30.1679 32.5102 30.2551 32.3627 30.3033 32.2009C30.3514 32.0391 30.359 31.8679 30.3255 31.7025L29.9218 29.7537C29.9096 29.6963 29.8847 29.6423 29.849 29.5958C29.8132 29.5492 29.7676 29.5112 29.7153 29.4845L27.451 28.3779L27.3976 28.3501C27.3313 28.3236 27.259 28.3155 27.1884 28.3265C27.1178 28.3375 27.0514 28.3673 26.9963 28.4127L26.3374 28.9556L27.0102 26.9093C27.0484 26.7928 27.0431 26.6663 26.9954 26.5533C26.9476 26.4403 26.8606 26.3484 26.7504 26.2945L24.4884 25.1879C24.4323 25.1572 24.3709 25.1376 24.3074 25.1299L22.8528 24.9466C22.7532 24.9336 22.6521 24.9429 22.5566 24.9738C22.4611 25.0047 22.3737 25.0564 22.3006 25.1253C22.23 25.1897 22.1745 25.2689 22.1382 25.3573L21.0664 27.7979C20.9646 28.0333 20.7929 28.2317 20.5745 28.3663L20.4956 28.1668C20.4597 28.0728 20.3879 27.9969 20.2961 27.9557L18.0736 26.8699L18.0016 26.8351C17.9324 26.807 17.8564 26.8001 17.7832 26.8154C17.7101 26.8307 17.6432 26.8674 17.591 26.9209L15.6863 28.8489C15.5516 28.9818 15.452 29.146 15.3963 29.3268C15.3443 29.4957 15.3316 29.6742 15.3592 29.8488L15.6329 31.6027C15.6657 31.8191 15.6187 32.0401 15.5007 32.2245L14.4149 33.9157C14.3556 34.0137 14.2766 34.0982 14.1829 34.164C14.0306 34.2727 13.8481 34.3311 13.6609 34.331H12.4197C12.3413 34.3291 12.263 34.3393 12.1877 34.3612C12.0557 34.3958 11.9341 34.462 11.8334 34.5542C11.7328 34.6464 11.6561 34.7617 11.61 34.8901L10.5173 37.869C10.48 37.9719 10.4802 38.0847 10.518 38.1874C10.5558 38.2902 10.6287 38.3763 10.7238 38.4305L12.3362 39.2216C12.3553 39.2926 12.3616 39.3664 12.3548 39.4397L12.1738 41.1101C12.1607 41.2168 12.1334 41.3214 12.0926 41.4209C12.0398 41.5591 11.961 41.6859 11.8606 41.7945L10.2088 43.5043C10.0901 43.6277 10.0037 43.7783 9.95722 43.943C9.91068 44.1077 9.90544 44.2813 9.94196 44.4485L10.406 46.5713C10.4162 46.6187 10.4378 46.6629 10.469 46.7001C10.5001 46.7373 10.5398 46.7663 10.5846 46.7848L12.8373 47.8868C12.8912 47.9173 12.9531 47.9308 13.0148 47.9254C13.0766 47.92 13.1352 47.896 13.183 47.8566L13.9138 47.2534L13.3013 49.3739C13.2859 49.4202 13.2796 49.469 13.2828 49.5177C13.2854 49.6079 13.3131 49.6956 13.3627 49.7709C13.4122 49.8463 13.4818 49.9064 13.5635 49.9446L15.7768 51.0188C15.8444 51.0695 15.9246 51.1008 16.0088 51.1093L17.2755 51.2693C17.4436 51.2888 17.6135 51.2546 17.761 51.1717C17.9085 51.0887 18.026 50.9613 18.0968 50.8077L19.164 48.3949C19.2737 48.1526 19.4572 47.9512 19.6883 47.8195L19.744 47.9796C19.7624 48.0334 19.7929 48.0822 19.8331 48.1224C19.8733 48.1626 19.9222 48.1931 19.976 48.2116L22.2008 49.302C22.2686 49.3349 22.3448 49.3465 22.4193 49.3353C22.4939 49.3242 22.5633 49.2907 22.6184 49.2393L24.558 47.4645C24.6736 47.3587 24.7617 47.2263 24.8146 47.0787C24.8676 46.9312 24.8838 46.773 24.8619 46.6177L24.5858 44.6782C24.542 44.3542 24.6152 44.0251 24.7923 43.7502L25.6808 42.3768C25.7936 42.2032 25.948 42.0605 26.1299 41.9616C26.3118 41.8627 26.5155 41.8109 26.7225 41.8107H27.9034C28.0482 41.8117 28.1897 41.7676 28.3082 41.6844C28.4267 41.6013 28.5163 41.4832 28.5646 41.3467L29.6364 38.4606C29.6835 38.3315 29.6837 38.1899 29.6371 38.0606C29.5904 37.9312 29.4999 37.8224 29.3812 37.753L29.3372 37.7321L27.8524 37.0083C27.8369 36.9461 27.8306 36.882 27.8338 36.8181L27.9521 35.3449ZM20.8344 33.9529C21.3039 33.6038 21.8464 33.3658 22.4212 33.2569C22.6662 33.7413 22.8121 34.2698 22.8504 34.8113C23.0824 37.4097 21.5628 40.7365 19.4331 42.2353C18.9685 42.5881 18.4337 42.8373 17.8648 42.9661C17.6008 42.4795 17.4427 41.9427 17.4008 41.3908C17.1688 38.7924 18.7069 35.4655 20.8344 33.9575V33.9529Z" fill="#EF233C"/>
<path opacity="0.2" d="M14.681 42.5996L12.2288 45.0913L9.9668 43.9313C10.0117 43.7716 10.0945 43.6252 10.2081 43.5044L11.8669 41.7969C11.9673 41.6883 12.0461 41.5615 12.0989 41.4233L14.681 42.5996Z" fill="white"/>
<path opacity="0.2" d="M16.4723 35.2636L16.4213 35.542H14.2892L12.2012 34.3495C12.2765 34.3277 12.3548 34.3175 12.4332 34.3194H13.6697C13.8569 34.3195 14.0394 34.2611 14.1917 34.1523L16.4723 35.2636Z" fill="white"/>
<path opacity="0.2" d="M20.2955 27.9558L19.3373 28.9001L17.6321 30.5682L15.3887 29.327C15.4444 29.1462 15.544 28.982 15.6787 28.849L17.588 26.9118C17.6402 26.8583 17.7071 26.8216 17.7803 26.8063C17.8534 26.791 17.9294 26.7979 17.9987 26.826L18.0706 26.8608L20.2955 27.9558Z" fill="white"/>
<path opacity="0.2" d="M26.761 26.2877H24.5292L22.3066 25.1277C22.3797 25.0589 22.4671 25.0071 22.5626 24.9763C22.6581 24.9454 22.7593 24.9361 22.8588 24.9491L24.3134 25.1323C24.3769 25.14 24.4383 25.1597 24.4944 25.1903L26.761 26.2877Z" fill="white"/>
<path d="M28.4506 34.2428L30.0491 32.6304C30.1677 32.5102 30.2548 32.3627 30.303 32.2008C30.3511 32.039 30.3588 31.8678 30.3252 31.7024L29.9215 29.7536C29.9083 29.6858 29.8777 29.6226 29.8327 29.5701C29.7878 29.5177 29.7299 29.4778 29.6649 29.4544C29.5999 29.4311 29.53 29.425 29.4619 29.4367C29.3938 29.4485 29.33 29.4777 29.2766 29.5216L27.6085 30.8857C27.5222 30.9573 27.412 30.9935 27.3 30.9871C27.1881 30.9806 27.0828 30.932 27.0053 30.8509L26.5274 30.3545C26.3792 30.2008 26.2758 30.0096 26.2284 29.8015C26.1809 29.5934 26.1913 29.3763 26.2582 29.1736L27.003 26.9023C27.0269 26.8309 27.0347 26.755 27.0257 26.6802C27.0167 26.6054 26.9912 26.5335 26.951 26.4697C26.9108 26.406 26.8569 26.352 26.7933 26.3117C26.7297 26.2713 26.6578 26.2456 26.583 26.2365L25.1284 26.0532C24.9813 26.0357 24.8324 26.0657 24.7034 26.1387C24.5745 26.2117 24.4722 26.324 24.4115 26.4592L23.335 28.9137C23.2044 29.2137 22.9636 29.4521 22.6622 29.5796L21.6948 29.9879C21.5807 30.0337 21.453 30.0323 21.3399 29.984C21.2268 29.9357 21.1375 29.8445 21.0916 29.7304L20.4861 28.1667C20.4631 28.1071 20.4256 28.0542 20.377 28.0128C20.3284 27.9714 20.2702 27.9429 20.2077 27.9297C20.1452 27.9166 20.0804 27.9193 20.0192 27.9376C19.958 27.9559 19.9024 27.9892 19.8574 28.0345L17.9503 29.9601C17.8209 30.0896 17.724 30.248 17.6676 30.4222C17.6111 30.5964 17.5967 30.7815 17.6255 30.9623L17.9062 32.7116C17.9401 32.928 17.893 33.1494 17.774 33.3333L16.6906 35.0316C16.6093 35.1591 16.4972 35.264 16.3645 35.3366C16.2319 35.4092 16.0831 35.4471 15.9319 35.4469H14.6977C14.5231 35.447 14.3528 35.5007 14.2097 35.6007C14.0666 35.7007 13.9575 35.8421 13.8973 36.006L12.8046 38.9756C12.7833 39.0346 12.7741 39.0973 12.7778 39.16C12.7814 39.2226 12.7977 39.2839 12.8256 39.3401C12.8536 39.3962 12.8927 39.4461 12.9405 39.4868C12.9883 39.5274 13.0439 39.5579 13.1038 39.5765L14.236 39.9198C14.3679 39.9601 14.4816 40.0452 14.5575 40.1604C14.6333 40.2757 14.6665 40.4138 14.6513 40.5509L14.4703 42.2213C14.4467 42.4834 14.3346 42.7296 14.1525 42.9196L12.496 44.6248C12.3768 44.7483 12.2899 44.8993 12.2429 45.0644C12.196 45.2295 12.1905 45.4036 12.2269 45.5713L12.6909 47.6941C12.7027 47.7456 12.7275 47.7931 12.7628 47.8324C12.7981 47.8716 12.8428 47.9012 12.8927 47.9183C12.9426 47.9355 12.996 47.9397 13.048 47.9305C13.0999 47.9213 13.1487 47.8991 13.1897 47.8658L14.8137 46.5225C14.8781 46.4695 14.9523 46.4297 15.032 46.4055C15.1118 46.3812 15.1956 46.3729 15.2786 46.3811C15.3616 46.3893 15.4421 46.4138 15.5156 46.4532C15.5891 46.4926 15.6541 46.5461 15.7069 46.6107L16.1198 47.1165C16.2196 47.2385 16.2882 47.3829 16.3197 47.5373C16.3512 47.6916 16.3447 47.8514 16.3008 48.0027L15.5793 50.499C15.5596 50.5663 15.5548 50.6371 15.5652 50.7065C15.5756 50.7758 15.6011 50.8421 15.6397 50.9006C15.6784 50.9591 15.7293 51.0085 15.789 51.0453C15.8487 51.0821 15.9156 51.1055 15.9853 51.1138L17.252 51.2739C17.4243 51.2982 17.5998 51.2659 17.7521 51.1818C17.9044 51.0976 18.0253 50.9663 18.0965 50.8076L19.1637 48.3948C19.2858 48.1212 19.5013 47.9 19.7715 47.7707L20.7158 47.3276C20.79 47.2924 20.8707 47.2733 20.9528 47.2714C21.0349 47.2695 21.1165 47.2849 21.1922 47.3167C21.2679 47.3484 21.3361 47.3957 21.3923 47.4556C21.4486 47.5154 21.4915 47.5864 21.5185 47.664L22.0196 49.1024C22.0406 49.1621 22.0761 49.2156 22.1228 49.2582C22.1696 49.3009 22.2262 49.3312 22.2875 49.3466C22.3489 49.362 22.4131 49.362 22.4745 49.3465C22.5358 49.331 22.5924 49.3005 22.639 49.2578L24.5786 47.483C24.6942 47.3772 24.7823 47.2448 24.8352 47.0972C24.8882 46.9497 24.9044 46.7914 24.8825 46.6362L24.6064 44.6967C24.5626 44.3727 24.6358 44.0436 24.8129 43.7687L25.7014 42.3953C25.8142 42.2217 25.9686 42.0789 26.1505 41.9801C26.3324 41.8812 26.5361 41.8294 26.7431 41.8292H27.924C28.0688 41.8302 28.2103 41.7861 28.3288 41.7029C28.4473 41.6198 28.5369 41.5017 28.5852 41.3652L29.657 38.4791C29.6853 38.4025 29.6973 38.3209 29.6922 38.2394C29.6871 38.1579 29.6651 38.0784 29.6276 38.0059C29.59 37.9334 29.5377 37.8696 29.4741 37.8184C29.4105 37.7673 29.3369 37.73 29.258 37.7089L28.2836 37.4467C28.1506 37.4101 28.0343 37.3287 27.9544 37.2163C27.8745 37.1038 27.8359 36.9672 27.8451 36.8296L27.9518 35.3587C27.9775 34.9386 28.1547 34.5421 28.4506 34.2428ZM21.7226 43.3604C19.5929 44.8684 17.6719 43.9868 17.4306 41.3907C17.1894 38.7946 18.7182 35.4654 20.8457 33.9667C22.9731 32.468 24.8964 33.3426 25.1377 35.9387C25.379 38.5348 23.8385 41.8547 21.711 43.3604H21.7226Z" fill="#EF233C"/>
<path opacity="0.5" d="M28.4506 34.2428L30.0491 32.6304C30.1677 32.5102 30.2548 32.3627 30.303 32.2008C30.3511 32.039 30.3588 31.8678 30.3252 31.7024L29.9215 29.7536C29.9083 29.6858 29.8777 29.6226 29.8327 29.5701C29.7878 29.5177 29.7299 29.4778 29.6649 29.4544C29.5999 29.4311 29.53 29.425 29.4619 29.4367C29.3938 29.4485 29.33 29.4777 29.2766 29.5216L27.6085 30.8857C27.5222 30.9573 27.412 30.9935 27.3 30.9871C27.1881 30.9806 27.0828 30.932 27.0053 30.8509L26.5274 30.3545C26.3792 30.2008 26.2758 30.0096 26.2284 29.8015C26.1809 29.5934 26.1913 29.3763 26.2582 29.1736L27.003 26.9023C27.0269 26.8309 27.0347 26.755 27.0257 26.6802C27.0167 26.6054 26.9912 26.5335 26.951 26.4697C26.9108 26.406 26.8569 26.352 26.7933 26.3117C26.7297 26.2713 26.6578 26.2456 26.583 26.2365L25.1284 26.0532C24.9813 26.0357 24.8324 26.0657 24.7034 26.1387C24.5745 26.2117 24.4722 26.324 24.4115 26.4592L23.335 28.9137C23.2044 29.2137 22.9636 29.4521 22.6622 29.5796L21.6948 29.9879C21.5807 30.0337 21.453 30.0323 21.3399 29.984C21.2268 29.9357 21.1375 29.8445 21.0916 29.7304L20.4861 28.1667C20.4631 28.1071 20.4256 28.0542 20.377 28.0128C20.3284 27.9714 20.2702 27.9429 20.2077 27.9297C20.1452 27.9166 20.0804 27.9193 20.0192 27.9376C19.958 27.9559 19.9024 27.9892 19.8574 28.0345L17.9503 29.9601C17.8209 30.0896 17.724 30.248 17.6676 30.4222C17.6111 30.5964 17.5967 30.7815 17.6255 30.9623L17.9062 32.7116C17.9401 32.928 17.893 33.1494 17.774 33.3333L16.6906 35.0316C16.6093 35.1591 16.4972 35.264 16.3645 35.3366C16.2319 35.4092 16.0831 35.4471 15.9319 35.4469H14.6977C14.5231 35.447 14.3528 35.5007 14.2097 35.6007C14.0666 35.7007 13.9575 35.8421 13.8973 36.006L12.8046 38.9756C12.7833 39.0346 12.7741 39.0973 12.7778 39.16C12.7814 39.2226 12.7977 39.2839 12.8256 39.3401C12.8536 39.3962 12.8927 39.4461 12.9405 39.4868C12.9883 39.5274 13.0439 39.5579 13.1038 39.5765L14.236 39.9198C14.3679 39.9601 14.4816 40.0452 14.5575 40.1604C14.6333 40.2757 14.6665 40.4138 14.6513 40.5509L14.4703 42.2213C14.4467 42.4834 14.3346 42.7296 14.1525 42.9196L12.496 44.6248C12.3768 44.7483 12.2899 44.8993 12.2429 45.0644C12.196 45.2295 12.1905 45.4036 12.2269 45.5713L12.6909 47.6941C12.7027 47.7456 12.7275 47.7931 12.7628 47.8324C12.7981 47.8716 12.8428 47.9012 12.8927 47.9183C12.9426 47.9355 12.996 47.9397 13.048 47.9305C13.0999 47.9213 13.1487 47.8991 13.1897 47.8658L14.8137 46.5225C14.8781 46.4695 14.9523 46.4297 15.032 46.4055C15.1118 46.3812 15.1956 46.3729 15.2786 46.3811C15.3616 46.3893 15.4421 46.4138 15.5156 46.4532C15.5891 46.4926 15.6541 46.5461 15.7069 46.6107L16.1198 47.1165C16.2196 47.2385 16.2882 47.3829 16.3197 47.5373C16.3512 47.6916 16.3447 47.8514 16.3008 48.0027L15.5793 50.499C15.5596 50.5663 15.5548 50.6371 15.5652 50.7065C15.5756 50.7758 15.6011 50.8421 15.6397 50.9006C15.6784 50.9591 15.7293 51.0085 15.789 51.0453C15.8487 51.0821 15.9156 51.1055 15.9853 51.1138L17.252 51.2739C17.4243 51.2982 17.5998 51.2659 17.7521 51.1818C17.9044 51.0976 18.0253 50.9663 18.0965 50.8076L19.1637 48.3948C19.2858 48.1212 19.5013 47.9 19.7715 47.7707L20.7158 47.3276C20.79 47.2924 20.8707 47.2733 20.9528 47.2714C21.0349 47.2695 21.1165 47.2849 21.1922 47.3167C21.2679 47.3484 21.3361 47.3957 21.3923 47.4556C21.4486 47.5154 21.4915 47.5864 21.5185 47.664L22.0196 49.1024C22.0406 49.1621 22.0761 49.2156 22.1228 49.2582C22.1696 49.3009 22.2262 49.3312 22.2875 49.3466C22.3489 49.362 22.4131 49.362 22.4745 49.3465C22.5358 49.331 22.5924 49.3005 22.639 49.2578L24.5786 47.483C24.6942 47.3772 24.7823 47.2448 24.8352 47.0972C24.8882 46.9497 24.9044 46.7914 24.8825 46.6362L24.6064 44.6967C24.5626 44.3727 24.6358 44.0436 24.8129 43.7687L25.7014 42.3953C25.8142 42.2217 25.9686 42.0789 26.1505 41.9801C26.3324 41.8812 26.5361 41.8294 26.7431 41.8292H27.924C28.0688 41.8302 28.2103 41.7861 28.3288 41.7029C28.4473 41.6198 28.5369 41.5017 28.5852 41.3652L29.657 38.4791C29.6853 38.4025 29.6973 38.3209 29.6922 38.2394C29.6871 38.1579 29.6651 38.0784 29.6276 38.0059C29.59 37.9334 29.5377 37.8696 29.4741 37.8184C29.4105 37.7673 29.3369 37.73 29.258 37.7089L28.2836 37.4467C28.1506 37.4101 28.0343 37.3287 27.9544 37.2163C27.8745 37.1038 27.8359 36.9672 27.8451 36.8296L27.9518 35.3587C27.9775 34.9386 28.1547 34.5421 28.4506 34.2428ZM21.7226 43.3604C19.5929 44.8684 17.6719 43.9868 17.4306 41.3907C17.1894 38.7946 18.7182 35.4654 20.8457 33.9667C22.9731 32.468 24.8964 33.3426 25.1377 35.9387C25.379 38.5348 23.8385 41.8547 21.711 43.3604H21.7226Z" fill="white"/>
<path d="M40.3691 15.0263C40.3902 14.723 40.5194 14.4373 40.7334 14.2212L41.8934 13.0404C41.9805 12.9521 42.0446 12.8436 42.0798 12.7246C42.115 12.6056 42.1203 12.4798 42.0952 12.3583L41.8006 10.9338C41.7916 10.8918 41.7734 10.8523 41.7473 10.8182C41.7213 10.7841 41.6879 10.7563 41.6498 10.7366L39.9956 9.92692L39.9538 9.90836C39.906 9.88877 39.8538 9.88252 39.8027 9.89028C39.7517 9.89805 39.7037 9.91953 39.6638 9.95244L39.2091 10.3468L39.701 8.85044C39.7286 8.76508 39.7246 8.67262 39.6897 8.58997C39.6547 8.50733 39.5912 8.44002 39.5107 8.40036L37.8566 7.593C37.8154 7.57075 37.7706 7.55583 37.7243 7.54892L36.6571 7.42364C36.5841 7.41411 36.5098 7.42082 36.4396 7.44328C36.3694 7.46573 36.3051 7.50339 36.2511 7.55356C36.2008 7.59978 36.1606 7.65585 36.1328 7.71828L35.3394 9.51164C35.2642 9.68318 35.1388 9.82795 34.9798 9.92692L34.9218 9.78076C34.9093 9.74655 34.8898 9.71529 34.8647 9.68894C34.8395 9.66259 34.8092 9.64172 34.7756 9.62764L33.1516 8.8342L33.1006 8.80868C33.0498 8.78876 32.9944 8.7843 32.9411 8.79586C32.8878 8.80742 32.8392 8.83448 32.8013 8.87364L31.4093 10.2819C31.3149 10.3762 31.2446 10.4918 31.2042 10.619C31.1638 10.7462 31.1546 10.8812 31.1773 11.0127L31.3768 12.2956C31.4028 12.457 31.3681 12.6223 31.2794 12.7596L30.4859 13.9962C30.4251 14.0874 30.3421 14.1616 30.2447 14.2119C30.1473 14.2622 30.0387 14.287 29.9291 14.2839H29.0266C28.899 14.2834 28.7743 14.3224 28.6697 14.3955C28.565 14.4686 28.4855 14.5722 28.442 14.6922L27.6439 16.8707C27.616 16.9459 27.6158 17.0286 27.6435 17.1039C27.6711 17.1792 27.7248 17.2421 27.7947 17.2813L28.9686 17.8636C28.9826 17.915 28.9873 17.9684 28.9826 18.0214L28.8503 19.2556C28.8425 19.3356 28.8221 19.4139 28.79 19.4876C28.7502 19.5898 28.6902 19.6829 28.6137 19.7614L27.4003 21.0096C27.3171 21.0971 27.2552 21.2027 27.2194 21.3181C27.1823 21.4425 27.1775 21.5742 27.2054 21.7009L27.5488 23.253C27.557 23.2875 27.5729 23.3196 27.5955 23.347C27.618 23.3743 27.6465 23.3961 27.6787 23.4108L29.3259 24.2181C29.3658 24.2392 29.4109 24.2483 29.4558 24.2442C29.5007 24.2401 29.5435 24.2229 29.5788 24.1949L30.1124 23.7541L29.6646 25.2876C29.6532 25.322 29.6485 25.3582 29.6507 25.3944C29.6521 25.4601 29.672 25.5241 29.7081 25.5791C29.7442 25.6341 29.7951 25.6778 29.8549 25.7052L31.458 26.4848C31.5075 26.5202 31.5648 26.5433 31.625 26.552L32.553 26.668C32.6771 26.6831 32.8028 26.6581 32.9117 26.5968C33.0206 26.5354 33.1071 26.4409 33.1586 26.327L33.9474 24.5661C34.0306 24.3903 34.1669 24.245 34.3371 24.1508L34.3789 24.2668C34.3916 24.3065 34.4136 24.3425 34.4431 24.372C34.4725 24.4014 34.5086 24.4235 34.5482 24.4362L36.1722 25.2343C36.222 25.2584 36.2779 25.2668 36.3326 25.2586C36.3872 25.2503 36.4381 25.2256 36.4785 25.1879L37.896 23.891C37.9822 23.8145 38.0484 23.718 38.0888 23.6101C38.1293 23.5021 38.1427 23.3859 38.128 23.2716L37.9262 21.854C37.8915 21.6112 37.9459 21.3639 38.0793 21.158L38.7289 20.1836C38.8114 20.0562 38.9244 19.9515 39.0577 19.8789C39.191 19.8064 39.3404 19.7684 39.4922 19.7684H40.3552C40.4608 19.7658 40.5631 19.7311 40.6485 19.6689C40.7339 19.6068 40.7983 19.5201 40.8331 19.4204L41.615 17.3092C41.6499 17.2149 41.6505 17.1113 41.6165 17.0166C41.5826 16.922 41.5163 16.8424 41.4294 16.7918C41.4193 16.785 41.4084 16.7796 41.3969 16.7756L40.3111 16.2396C40.299 16.1943 40.2951 16.1472 40.2995 16.1004L40.3691 15.0263ZM35.17 14.0124C35.5126 13.7554 35.9093 13.5801 36.33 13.4997C36.5104 13.8543 36.6169 14.2419 36.6432 14.6388C36.8195 16.5389 35.7013 18.9703 34.1446 20.0746C33.8051 20.3279 33.4162 20.5074 33.0031 20.6012C32.8131 20.2418 32.7002 19.8468 32.6714 19.4412C32.495 17.5481 33.6133 15.1144 35.17 14.0124Z" fill="#EF233C"/>
<path opacity="0.2" d="M30.6686 20.3324L28.8752 22.1559L27.2188 21.3022C27.2546 21.1868 27.3165 21.0812 27.3997 20.9936L28.6131 19.7454C28.6896 19.6669 28.7496 19.5738 28.7894 19.4717L30.6686 20.3324Z" fill="white"/>
<path opacity="0.2" d="M31.9721 14.9731L31.935 15.1773H30.3922L28.8633 14.305C28.9163 14.2909 28.9709 14.2839 29.0257 14.2841H29.9282C30.0662 14.2839 30.2007 14.2409 30.3133 14.1611L31.9721 14.9731Z" fill="white"/>
<path opacity="0.2" d="M34.7751 9.62102L34.0791 10.317L32.8379 11.5373L31.1953 10.6302C31.2376 10.4981 31.3108 10.378 31.4088 10.2799L32.8008 8.87166C32.8387 8.8325 32.8873 8.80544 32.9406 8.79388C32.9938 8.78232 33.0493 8.78678 33.1 8.8067L33.1511 8.83222L34.7751 9.62102Z" fill="white"/>
<path opacity="0.2" d="M39.5039 8.40053H37.8799L36.2559 7.54445C36.3101 7.49656 36.374 7.46098 36.4433 7.44016C36.5126 7.41933 36.5856 7.41375 36.6572 7.42381L37.7198 7.55605C37.7661 7.56296 37.8108 7.57788 37.852 7.60013L39.5039 8.40053Z" fill="white"/>
<path d="M40.7398 14.2214L41.8998 13.0405C41.987 12.9522 42.051 12.8437 42.0862 12.7248C42.1214 12.6058 42.1267 12.4799 42.1016 12.3584L41.807 10.9339C41.7956 10.8863 41.7726 10.8423 41.74 10.8058C41.7074 10.7693 41.6662 10.7415 41.6202 10.725C41.5741 10.7084 41.5246 10.7035 41.4763 10.7109C41.4279 10.7182 41.3821 10.7374 41.343 10.7669L40.1366 11.7645C40.074 11.817 39.9938 11.8435 39.9123 11.8388C39.8308 11.834 39.7542 11.7983 39.6981 11.739L39.3408 11.3678C39.232 11.2553 39.1561 11.1152 39.1213 10.9627C39.0866 10.8101 39.0943 10.6509 39.1436 10.5024L39.6888 8.8413C39.706 8.78893 39.7114 8.7334 39.7046 8.67869C39.6978 8.62398 39.679 8.57146 39.6495 8.52489C39.62 8.47832 39.5806 8.43885 39.534 8.40932C39.4875 8.37979 39.435 8.36094 39.3803 8.3541L38.3177 8.21954C38.2099 8.20548 38.1005 8.22685 38.0059 8.28041C37.9113 8.33398 37.8367 8.41684 37.7934 8.5165L37.0046 10.3145C36.9091 10.5334 36.733 10.7071 36.5127 10.7994L35.8167 11.0987C35.7755 11.1159 35.7313 11.1248 35.6866 11.1246C35.6419 11.1245 35.5977 11.1154 35.5566 11.0979C35.5155 11.0803 35.4784 11.0547 35.4473 11.0226C35.4163 10.9905 35.392 10.9524 35.3759 10.9107L34.9328 9.76698C34.9162 9.72269 34.8887 9.6833 34.8529 9.65248C34.817 9.62166 34.7739 9.6004 34.7276 9.59068C34.6813 9.58096 34.6333 9.58309 34.5881 9.59688C34.5428 9.61067 34.5018 9.63566 34.4688 9.66954L33.0768 11.0778C32.9837 11.1734 32.9142 11.2895 32.8739 11.4168C32.8336 11.5441 32.8236 11.6791 32.8448 11.8109L33.0443 13.0939C33.071 13.2553 33.0363 13.4208 32.9469 13.5579L32.1558 14.7967C32.0954 14.8896 32.0129 14.9659 31.9157 15.019C31.8186 15.072 31.7097 15.1001 31.599 15.1007H30.6965C30.5689 15.1002 30.4442 15.1392 30.3395 15.2123C30.2349 15.2853 30.1554 15.389 30.1119 15.509L29.3138 17.6875C29.2979 17.7305 29.291 17.7763 29.2934 17.8221C29.2959 17.8679 29.3077 17.9127 29.3282 17.9538C29.3486 17.9949 29.3772 18.0313 29.4122 18.0609C29.4472 18.0905 29.488 18.1126 29.5319 18.1259L30.3601 18.3788C30.4575 18.4077 30.5414 18.4702 30.5971 18.5551C30.6527 18.6401 30.6764 18.742 30.664 18.8428L30.5295 20.0655C30.5106 20.2538 30.4289 20.4304 30.2975 20.5666L29.0679 21.8078C28.9791 21.8978 28.9145 22.0088 28.88 22.1305C28.8456 22.2522 28.8423 22.3805 28.8707 22.5038L29.214 24.0559C29.2238 24.0926 29.2425 24.1264 29.2684 24.1543C29.2944 24.1821 29.3268 24.2032 29.3628 24.2156C29.3987 24.2279 29.4372 24.2313 29.4748 24.2253C29.5124 24.2193 29.5479 24.2041 29.5783 24.1811L30.7684 23.1998C30.8156 23.161 30.87 23.1319 30.9284 23.1141C30.9869 23.0964 31.0482 23.0904 31.109 23.0964C31.1698 23.1024 31.2288 23.1204 31.2826 23.1493C31.3365 23.1782 31.384 23.2174 31.4227 23.2647L31.7243 23.6336C31.7973 23.7231 31.8475 23.8289 31.8706 23.9421C31.8936 24.0553 31.8888 24.1723 31.8565 24.2832L31.3206 26.1044C31.304 26.1545 31.2989 26.2077 31.3055 26.26C31.312 26.3124 31.3302 26.3626 31.3587 26.4071C31.3871 26.4515 31.4251 26.4891 31.4699 26.517C31.5147 26.5449 31.5651 26.5625 31.6175 26.5684L32.5455 26.6844C32.6696 26.6995 32.7953 26.6745 32.9042 26.6131C33.0131 26.5518 33.0996 26.4573 33.1511 26.3434L33.9399 24.5825C34.0283 24.3797 34.1863 24.2151 34.3853 24.1185L35.0813 23.7914C35.1347 23.7652 35.1929 23.7505 35.2522 23.7482C35.3116 23.7458 35.3708 23.7559 35.426 23.7777C35.4813 23.7996 35.5314 23.8327 35.5731 23.875C35.6148 23.9173 35.6472 23.9678 35.6683 24.0234L36.0348 25.0767C36.0499 25.1205 36.0757 25.1598 36.1098 25.1911C36.1439 25.2225 36.1853 25.2448 36.2302 25.2561C36.2751 25.2674 36.3222 25.2673 36.3671 25.2558C36.4119 25.2443 36.4532 25.2218 36.4872 25.1903L37.9047 23.8935C37.9909 23.8169 38.0571 23.7205 38.0976 23.6125C38.138 23.5046 38.1515 23.3884 38.1367 23.274L37.9349 21.8565C37.9002 21.6136 37.9546 21.3664 38.088 21.1605L38.7283 20.1838C38.8108 20.0564 38.9239 19.9516 39.0572 19.8791C39.1905 19.8066 39.3398 19.7685 39.4916 19.7685H40.3547C40.4602 19.7659 40.5625 19.7313 40.6479 19.6691C40.7333 19.6069 40.7977 19.5202 40.8326 19.4205L41.6144 17.3093C41.6352 17.2534 41.6441 17.1938 41.6405 17.1342C41.637 17.0747 41.6211 17.0165 41.5938 16.9635C41.5665 16.9104 41.5284 16.8636 41.4821 16.8261C41.4357 16.7886 41.382 16.7612 41.3244 16.7455L40.6122 16.553C40.5142 16.5272 40.4284 16.4677 40.3699 16.385C40.3113 16.3023 40.2838 16.2016 40.292 16.1006L40.3686 15.0264C40.3915 14.7222 40.5233 14.4364 40.7398 14.2214ZM35.8098 20.8798C34.2531 21.9841 32.8471 21.3438 32.6708 19.4391C32.4945 17.5343 33.6127 15.1053 35.1695 14.0033C36.7262 12.9013 38.1321 13.5393 38.3084 15.444C38.4847 17.3487 37.3665 19.7871 35.8098 20.8798Z" fill="#EF233C"/>
<path opacity="0.5" d="M40.7398 14.2214L41.8998 13.0405C41.987 12.9522 42.051 12.8437 42.0862 12.7248C42.1214 12.6058 42.1267 12.4799 42.1016 12.3584L41.807 10.9339C41.7956 10.8863 41.7726 10.8423 41.74 10.8058C41.7074 10.7693 41.6662 10.7415 41.6202 10.725C41.5741 10.7084 41.5246 10.7035 41.4763 10.7109C41.4279 10.7182 41.3821 10.7374 41.343 10.7669L40.1366 11.7645C40.074 11.817 39.9938 11.8435 39.9123 11.8388C39.8308 11.834 39.7542 11.7983 39.6981 11.739L39.3408 11.3678C39.232 11.2553 39.1561 11.1152 39.1213 10.9627C39.0866 10.8101 39.0943 10.6509 39.1436 10.5024L39.6888 8.8413C39.706 8.78893 39.7114 8.7334 39.7046 8.67869C39.6978 8.62398 39.679 8.57146 39.6495 8.52489C39.62 8.47832 39.5806 8.43885 39.534 8.40932C39.4875 8.37979 39.435 8.36094 39.3803 8.3541L38.3177 8.21954C38.2099 8.20548 38.1005 8.22685 38.0059 8.28041C37.9113 8.33398 37.8367 8.41684 37.7934 8.5165L37.0046 10.3145C36.9091 10.5334 36.733 10.7071 36.5127 10.7994L35.8167 11.0987C35.7755 11.1159 35.7313 11.1248 35.6866 11.1246C35.6419 11.1245 35.5977 11.1154 35.5566 11.0979C35.5155 11.0803 35.4784 11.0547 35.4473 11.0226C35.4163 10.9905 35.392 10.9524 35.3759 10.9107L34.9328 9.76698C34.9162 9.72269 34.8887 9.6833 34.8529 9.65248C34.817 9.62166 34.7739 9.6004 34.7276 9.59068C34.6813 9.58096 34.6333 9.58309 34.5881 9.59688C34.5428 9.61067 34.5018 9.63566 34.4688 9.66954L33.0768 11.0778C32.9837 11.1734 32.9142 11.2895 32.8739 11.4168C32.8336 11.5441 32.8236 11.6791 32.8448 11.8109L33.0443 13.0939C33.071 13.2553 33.0363 13.4208 32.9469 13.5579L32.1558 14.7967C32.0954 14.8896 32.0129 14.9659 31.9157 15.019C31.8186 15.072 31.7097 15.1001 31.599 15.1007H30.6965C30.5689 15.1002 30.4442 15.1392 30.3395 15.2123C30.2349 15.2853 30.1554 15.389 30.1119 15.509L29.3138 17.6875C29.2979 17.7305 29.291 17.7763 29.2934 17.8221C29.2959 17.8679 29.3077 17.9127 29.3282 17.9538C29.3486 17.9949 29.3772 18.0313 29.4122 18.0609C29.4472 18.0905 29.488 18.1126 29.5319 18.1259L30.3601 18.3788C30.4575 18.4077 30.5414 18.4702 30.5971 18.5551C30.6527 18.6401 30.6764 18.742 30.664 18.8428L30.5295 20.0655C30.5106 20.2538 30.4289 20.4304 30.2975 20.5666L29.0679 21.8078C28.9791 21.8978 28.9145 22.0088 28.88 22.1305C28.8456 22.2522 28.8423 22.3805 28.8707 22.5038L29.214 24.0559C29.2238 24.0926 29.2425 24.1264 29.2684 24.1543C29.2944 24.1821 29.3268 24.2032 29.3628 24.2156C29.3987 24.2279 29.4372 24.2313 29.4748 24.2253C29.5124 24.2193 29.5479 24.2041 29.5783 24.1811L30.7684 23.1998C30.8156 23.161 30.87 23.1319 30.9284 23.1141C30.9869 23.0964 31.0482 23.0904 31.109 23.0964C31.1698 23.1024 31.2288 23.1204 31.2826 23.1493C31.3365 23.1782 31.384 23.2174 31.4227 23.2647L31.7243 23.6336C31.7973 23.7231 31.8475 23.8289 31.8706 23.9421C31.8936 24.0553 31.8888 24.1723 31.8565 24.2832L31.3206 26.1044C31.304 26.1545 31.2989 26.2077 31.3055 26.26C31.312 26.3124 31.3302 26.3626 31.3587 26.4071C31.3871 26.4515 31.4251 26.4891 31.4699 26.517C31.5147 26.5449 31.5651 26.5625 31.6175 26.5684L32.5455 26.6844C32.6696 26.6995 32.7953 26.6745 32.9042 26.6131C33.0131 26.5518 33.0996 26.4573 33.1511 26.3434L33.9399 24.5825C34.0283 24.3797 34.1863 24.2151 34.3853 24.1185L35.0813 23.7914C35.1347 23.7652 35.1929 23.7505 35.2522 23.7482C35.3116 23.7458 35.3708 23.7559 35.426 23.7777C35.4813 23.7996 35.5314 23.8327 35.5731 23.875C35.6148 23.9173 35.6472 23.9678 35.6683 24.0234L36.0348 25.0767C36.0499 25.1205 36.0757 25.1598 36.1098 25.1911C36.1439 25.2225 36.1853 25.2448 36.2302 25.2561C36.2751 25.2674 36.3222 25.2673 36.3671 25.2558C36.4119 25.2443 36.4532 25.2218 36.4872 25.1903L37.9047 23.8935C37.9909 23.8169 38.0571 23.7205 38.0976 23.6125C38.138 23.5046 38.1515 23.3884 38.1367 23.274L37.9349 21.8565C37.9002 21.6136 37.9546 21.3664 38.088 21.1605L38.7283 20.1838C38.8108 20.0564 38.9239 19.9516 39.0572 19.8791C39.1905 19.8066 39.3398 19.7685 39.4916 19.7685H40.3547C40.4602 19.7659 40.5625 19.7313 40.6479 19.6691C40.7333 19.6069 40.7977 19.5202 40.8326 19.4205L41.6144 17.3093C41.6352 17.2534 41.6441 17.1938 41.6405 17.1342C41.637 17.0747 41.6211 17.0165 41.5938 16.9635C41.5665 16.9104 41.5284 16.8636 41.4821 16.8261C41.4357 16.7886 41.382 16.7612 41.3244 16.7455L40.6122 16.553C40.5142 16.5272 40.4284 16.4677 40.3699 16.385C40.3113 16.3023 40.2838 16.2016 40.292 16.1006L40.3686 15.0264C40.3915 14.7222 40.5233 14.4364 40.7398 14.2214ZM35.8098 20.8798C34.2531 21.9841 32.8471 21.3438 32.6708 19.4391C32.4945 17.5343 33.6127 15.1053 35.1695 14.0033C36.7262 12.9013 38.1321 13.5393 38.3084 15.444C38.4847 17.3487 37.3665 19.7871 35.8098 20.8798Z" fill="white"/>
<path d="M68.1497 81.8794L60.7257 86.1018C60.2402 86.3795 59.6988 86.5452 59.1411 86.5866C58.3747 86.6461 57.6082 86.4731 56.9417 86.0902L52.1997 83.3433L51.6568 83.0301C51.0927 82.7044 50.6242 82.2361 50.2985 81.672C49.9727 81.108 49.801 80.4682 49.8008 79.8169V66.1289L60.9368 59.793V73.7756C60.935 74.3395 61.0821 74.8938 61.3632 75.3826C61.6443 75.8715 62.0494 76.2775 62.5376 76.5596L68.1659 79.8076C68.3461 79.9147 68.4951 80.0671 68.598 80.2496C68.7009 80.4322 68.7542 80.6386 68.7526 80.8482C68.751 81.0577 68.6944 81.2632 68.5886 81.4442C68.4829 81.6251 68.3315 81.7751 68.1497 81.8794Z" fill="#263238"/>
<path d="M59.1465 86.5868C59.7041 86.5446 60.2453 86.3789 60.731 86.1019L68.155 81.8795C68.3399 81.775 68.4936 81.6233 68.6006 81.4398C68.7076 81.2564 68.764 81.0479 68.764 80.8355C68.764 80.6232 68.7076 80.4147 68.6006 80.2312C68.4936 80.0478 68.3399 79.8961 68.155 79.7915L64.3108 77.5713H59.1465V86.5868Z" fill="#37474F"/>
<path d="M68.0187 78.8799L68.2252 79.0446C68.3913 79.1766 68.5254 79.3446 68.6175 79.5358C68.7095 79.7271 68.757 79.9367 68.7564 80.1489V80.8449H68.0117L68.0187 78.8799Z" fill="#37484F"/>
<path d="M61.7819 60.8535V73.4302C61.7822 73.9751 61.926 74.5103 62.1989 74.9819C62.4718 75.4536 62.8641 75.845 63.3363 76.1168L68.0181 78.8799C68.196 78.9813 68.344 79.1279 68.4469 79.305C68.5498 79.482 68.6041 79.6832 68.6041 79.888C68.6041 80.0928 68.5498 80.2939 68.4469 80.471C68.344 80.648 68.196 80.7947 68.0181 80.896L67.4868 81.1976L60.8307 84.9815C60.2722 85.2995 59.6402 85.4657 58.9975 85.4637C58.3548 85.4616 57.7239 85.2914 57.1674 84.9699L52.5576 82.2486C52.0879 81.9777 51.6976 81.5883 51.4257 81.1193C51.1537 80.6503 51.0096 80.1181 51.0078 79.5759V66.9853L61.7819 60.8535Z" fill="#455A64"/>
<path d="M61.7819 73.4302V60.8535L51.0078 66.9853V79.5759C51.0076 80.12 51.1507 80.6546 51.4228 81.1258C51.6948 81.5971 52.0862 81.9883 52.5576 82.2602L63.1739 76.0286C62.7447 75.7448 62.3928 75.3588 62.1498 74.9052C61.9068 74.4516 61.7804 73.9448 61.7819 73.4302Z" fill="#263238"/>
<path d="M82.0914 8.72769C82.0926 8.30685 81.9841 7.89298 81.7766 7.52684C81.5691 7.1607 81.2698 6.85494 80.9082 6.63969L80.8108 6.58169C80.1348 6.1797 79.363 5.96732 78.5766 5.96689C78.3255 5.96402 78.0785 6.0298 77.862 6.15713L25.0797 36.5143C24.4308 36.8893 23.8919 37.4284 23.5172 38.0775C23.1426 38.7266 22.9453 39.4629 22.9453 40.2124V89.2433C22.9443 89.4881 23.008 89.7289 23.1297 89.9412C23.2515 90.1536 23.4271 90.3301 23.6389 90.453C23.8507 90.5758 24.0911 90.6406 24.3359 90.6408C24.5808 90.6411 24.8213 90.5767 25.0333 90.4543L77.8133 60.1041C78.4629 59.7296 79.0023 59.1907 79.3774 58.5415C79.7525 57.8923 79.95 57.1558 79.95 56.406V8.72769H82.0914Z" fill="#455A64"/>
<path d="M29.4654 42.0473V87.9045L27.6929 88.9299L26.4679 89.6375V91.8717C25.6813 91.8727 24.9091 91.6602 24.2338 91.2569L24.1363 91.1989C23.8562 91.0315 23.6129 90.8092 23.4211 90.5452C23.2293 90.2812 23.093 89.9811 23.0204 89.663C22.9764 89.5266 22.9537 89.3842 22.9531 89.2408V40.2122C22.9567 39.5461 23.1156 38.8899 23.4171 38.2959L29.4654 42.0473Z" fill="#263238"/>
<path d="M27.6851 88.9301L26.4601 89.6377V91.8719C25.6735 91.8729 24.9013 91.6604 24.226 91.2571L24.1285 91.1991C23.8484 91.0317 23.6051 90.8094 23.4133 90.5454C23.2215 90.2814 23.0852 89.9813 23.0126 89.6632C22.9686 89.5268 22.9459 89.3844 22.9453 89.241V86.1948L27.6851 88.9301Z" fill="#37474F"/>
<path d="M79.9563 61.336L27.1739 91.6862C26.9619 91.8086 26.7214 91.873 26.4766 91.8727C26.2317 91.8725 25.9913 91.8077 25.7795 91.6848C25.5678 91.562 25.3921 91.3855 25.2704 91.1731C25.1486 90.9607 25.085 90.72 25.0859 90.4752V41.4443C25.086 40.6945 25.2835 39.958 25.6586 39.3088C26.0337 38.6596 26.5731 38.1207 27.2227 37.7462L79.9934 7.39597C80.2054 7.27356 80.446 7.20923 80.6908 7.20947C80.9356 7.20972 81.176 7.27452 81.3878 7.39735C81.5996 7.52018 81.7752 7.69669 81.897 7.90907C82.0188 8.12145 82.0824 8.3622 82.0814 8.60701V57.6379C82.0823 58.3865 81.8865 59.1221 81.5135 59.7712C81.1405 60.4202 80.6035 60.9599 79.9563 61.336Z" fill="#37474F"/>
<path d="M25.0781 87.4246V90.48C25.0772 90.7248 25.1408 90.9656 25.2625 91.178C25.3843 91.3903 25.56 91.5668 25.7717 91.6897C25.9835 91.8125 26.2239 91.8773 26.4688 91.8776C26.7136 91.8778 26.9541 91.8135 27.1661 91.6911L79.9577 61.3362C80.6067 60.9612 81.1456 60.4221 81.5202 59.773C81.8949 59.1239 82.0921 58.3876 82.0921 57.6381V54.52L25.0781 87.4246Z" fill="#455A64"/>
<path d="M79.0313 10.7227C78.7898 10.7214 78.5513 10.777 78.3353 10.8851L28.7221 39.4025C28.1489 39.7332 27.6728 40.2089 27.3417 40.7819C27.0106 41.3549 26.8362 42.005 26.8359 42.6668V81.8446C26.8354 82.0139 26.8702 82.1814 26.938 82.3364C27.0072 82.4963 27.1095 82.6398 27.2381 82.7573C27.3667 82.8748 27.5187 82.9638 27.6842 83.0184C27.8496 83.073 28.0248 83.0919 28.1981 83.0739C28.3714 83.0559 28.5389 83.0015 28.6896 82.9141L78.2935 54.3967C78.8668 54.066 79.3429 53.5903 79.6739 53.0173C80.005 52.4443 80.1795 51.7942 80.1797 51.1324V11.9546C80.1799 11.642 80.0614 11.341 79.8483 11.1123C79.6351 10.8837 79.3431 10.7444 79.0313 10.7227Z" fill="#EF233C"/>
<path opacity="0.4" d="M79.0313 10.7227C78.7898 10.7214 78.5513 10.777 78.3353 10.8851L28.7221 39.4025C28.1489 39.7332 27.6728 40.2089 27.3417 40.7819C27.0106 41.3549 26.8362 42.005 26.8359 42.6668V81.8446C26.8354 82.0139 26.8702 82.1814 26.938 82.3364C27.0072 82.4963 27.1095 82.6398 27.2381 82.7573C27.3667 82.8748 27.5187 82.9638 27.6842 83.0184C27.8496 83.073 28.0248 83.0919 28.1981 83.0739C28.3714 83.0559 28.5389 83.0015 28.6896 82.9141L78.2935 54.3967C78.8668 54.066 79.3429 53.5903 79.6739 53.0173C80.005 52.4443 80.1795 51.7942 80.1797 51.1324V11.9546C80.1799 11.642 80.0614 11.341 79.8483 11.1123C79.6351 10.8837 79.3431 10.7444 79.0313 10.7227Z" fill="black"/>
<path d="M31.6456 84.6798V47.75L30.1445 46.8823V83.3898C30.1455 83.5775 30.1868 83.7627 30.2656 83.933C30.3443 84.1033 30.4587 84.2547 30.601 84.377C30.7433 84.4993 30.9102 84.5896 31.0904 84.6418C31.2706 84.6941 31.4599 84.707 31.6456 84.6798Z" fill="#E0E0E0"/>
<path d="M30.8145 84.5336L32.3619 85.4083V82.6846L30.8145 84.5336Z" fill="#DFDFDF"/>
<path d="M85.0729 14.5672V53.5432C85.0733 54.2466 84.8881 54.9375 84.5362 55.5465C84.1843 56.1554 83.678 56.6608 83.0684 57.0116L33.5689 85.485C33.3697 85.6003 33.1436 85.6611 32.9134 85.6613C32.6832 85.6615 32.457 85.601 32.2576 85.486C32.0581 85.371 31.8925 85.2055 31.7774 85.0062C31.6622 84.8069 31.6016 84.5807 31.6016 84.3505V45.3745C31.6014 44.6716 31.7866 43.981 32.1386 43.3724C32.4905 42.7639 32.9967 42.2589 33.606 41.9084L83.1056 13.4304C83.3051 13.3158 83.5313 13.2556 83.7614 13.2559C83.9915 13.2561 84.2175 13.3169 84.4168 13.432C84.616 13.5472 84.7815 13.7126 84.8967 13.9119C85.0118 14.1111 85.0726 14.3371 85.0729 14.5672Z" fill="#FAFAFA"/>
<path d="M83.8015 13.377C84.0885 13.377 84.3637 13.4908 84.5668 13.6935C84.77 13.8962 84.8844 14.1712 84.885 14.4581V53.4341C84.8838 54.0963 84.7087 54.7465 84.3773 55.3198C84.0458 55.893 83.5697 56.3692 82.9965 56.7007L33.497 85.1764C33.3334 85.273 33.1472 85.3246 32.9572 85.326C32.7673 85.3274 32.5803 85.2784 32.4154 85.1842C32.2504 85.0899 32.1134 84.9537 32.0181 84.7893C31.9229 84.625 31.8728 84.4384 31.873 84.2484V45.2724C31.8718 44.6076 32.046 43.9542 32.3779 43.3783C32.7099 42.8023 33.1879 42.3241 33.7638 41.9919L83.2656 13.5232C83.428 13.4274 83.613 13.3769 83.8015 13.377ZM83.8015 13.145C83.5725 13.1456 83.3477 13.2064 83.1496 13.3213L33.6408 41.7877C33.032 42.1387 32.5265 42.6438 32.175 43.2523C31.8235 43.8608 31.6385 44.5511 31.6387 45.2538V84.2414C31.6387 84.5897 31.777 84.9237 32.0233 85.1699C32.2695 85.4162 32.6035 85.5545 32.9518 85.5545C33.1819 85.5542 33.4077 85.4925 33.606 85.3759L83.1125 56.9118C83.7216 56.5604 84.2275 56.0549 84.5793 55.4461C84.9312 54.8373 85.1166 54.1466 85.117 53.4434V14.4674C85.1164 14.1189 84.9775 13.785 84.7309 13.5388C84.4843 13.2926 84.15 13.1543 83.8015 13.1543V13.145Z" fill="#E0E0E0"/>
<path d="M82.9965 12.4978C82.7956 12.3695 82.5632 12.2992 82.325 12.2947C82.0867 12.2902 81.8518 12.3516 81.6462 12.4723L32.1467 40.9364C31.5362 41.2889 31.0295 41.7963 30.678 42.4073C30.3264 43.0184 30.1424 43.7114 30.1445 44.4164V46.8942L31.6456 47.7618L83.6136 17.748V14.21L84.4859 13.3377L82.9965 12.4955V12.4978Z" fill="#EF233C"/>
<path opacity="0.4" d="M82.9965 12.4978C82.7956 12.3695 82.5632 12.2992 82.325 12.2947C82.0867 12.2902 81.8518 12.3516 81.6462 12.4723L32.1467 40.9364C31.5362 41.2889 31.0295 41.7963 30.678 42.4073C30.3264 43.0184 30.1424 43.7114 30.1445 44.4164V46.8942L31.6456 47.7618L83.6136 17.748V14.21L84.4859 13.3377L82.9965 12.4955V12.4978Z" fill="white"/>
<path d="M85.1159 14.4579V16.88L31.6445 47.7499V45.2536C31.6437 44.5515 31.8276 43.8617 32.1778 43.2532C32.528 42.6448 33.0322 42.1393 33.6397 41.7875L83.1485 13.3211C83.3481 13.2064 83.5742 13.1462 83.8044 13.1465C84.0345 13.1468 84.2605 13.2075 84.4597 13.3226C84.659 13.4378 84.8245 13.6033 84.9397 13.8025C85.0548 14.0017 85.1156 14.2277 85.1159 14.4579Z" fill="#EF233C"/>
<path opacity="0.6" d="M85.1159 14.4579V16.88L31.6445 47.7499V45.2536C31.6437 44.5515 31.8276 43.8617 32.1778 43.2532C32.528 42.6448 33.0322 42.1393 33.6397 41.7875L83.1485 13.3211C83.3481 13.2064 83.5742 13.1462 83.8044 13.1465C84.0345 13.1468 84.2605 13.2075 84.4597 13.3226C84.659 13.4378 84.8245 13.6033 84.9397 13.8025C85.0548 14.0017 85.1156 14.2277 85.1159 14.4579Z" fill="white"/>
<path d="M30.6596 42.4419C30.3218 43.0409 30.1444 43.7169 30.1445 44.4046V46.8824L31.6456 47.7501V45.2537C31.6453 44.5696 31.8211 43.8969 32.156 43.3003L30.6596 42.4419Z" fill="#EF233C"/>
<path d="M49.7852 67.3264C49.6508 67.327 49.5186 67.2918 49.4024 67.2243C49.0892 67.0434 48.9082 66.635 48.9082 66.1014C48.9082 65.1363 49.5021 64.0134 50.2306 63.5866L69.6629 52.3694C69.7995 52.2749 69.959 52.2188 70.1247 52.2069C70.2904 52.1951 70.4562 52.228 70.6048 52.3021C70.9204 52.483 71.099 52.8914 71.099 53.425C71.099 54.3901 70.5074 55.513 69.7789 55.9398L50.3443 67.1594C50.1752 67.2618 49.9827 67.3193 49.7852 67.3264ZM70.222 52.432C70.0651 52.437 69.9122 52.4834 69.7789 52.5666L50.3443 63.8C49.6784 64.1828 49.1379 65.2222 49.1379 66.12C49.1379 66.5678 49.2771 66.9042 49.516 67.048C49.6301 67.1006 49.7561 67.1221 49.8812 67.1103C50.0063 67.0985 50.126 67.0538 50.2283 66.9807L69.6606 55.7612C70.3241 55.3784 70.8647 54.339 70.8647 53.4412C70.8647 52.9934 70.7278 52.657 70.4865 52.5132C70.4073 52.4627 70.3159 52.4347 70.222 52.432Z" fill="#EF233C"/>
<path opacity="0.5" d="M49.7852 67.3264C49.6508 67.327 49.5186 67.2918 49.4024 67.2243C49.0892 67.0434 48.9082 66.635 48.9082 66.1014C48.9082 65.1363 49.5021 64.0134 50.2306 63.5866L69.6629 52.3694C69.7995 52.2749 69.959 52.2188 70.1247 52.2069C70.2904 52.1951 70.4562 52.228 70.6048 52.3021C70.9204 52.483 71.099 52.8914 71.099 53.425C71.099 54.3901 70.5074 55.513 69.7789 55.9398L50.3443 67.1594C50.1752 67.2618 49.9827 67.3193 49.7852 67.3264ZM70.222 52.432C70.0651 52.437 69.9122 52.4834 69.7789 52.5666L50.3443 63.8C49.6784 64.1828 49.1379 65.2222 49.1379 66.12C49.1379 66.5678 49.2771 66.9042 49.516 67.048C49.6301 67.1006 49.7561 67.1221 49.8812 67.1103C50.0063 67.0985 50.126 67.0538 50.2283 66.9807L69.6606 55.7612C70.3241 55.3784 70.8647 54.339 70.8647 53.4412C70.8647 52.9934 70.7278 52.657 70.4865 52.5132C70.4073 52.4627 70.3159 52.4347 70.222 52.432Z" fill="black"/>
<path d="M50.6534 64.2198C50.4413 64.3566 50.2711 64.5493 50.1616 64.7766C50.0321 65.0148 49.9613 65.2805 49.9551 65.5515C49.9551 66.0665 50.2683 66.3032 50.6511 66.0805L62.381 59.3223V57.4663L50.6534 64.2198Z" fill="#EF233C"/>
<path opacity="0.3" d="M50.6534 64.2198C50.4413 64.3566 50.2711 64.5493 50.1616 64.7766C50.0321 65.0148 49.9613 65.2805 49.9551 65.5515C49.9551 66.0665 50.2683 66.3032 50.6511 66.0805L62.381 59.3223V57.4663L50.6534 64.2198Z" fill="black"/>
<path d="M69.3544 53.4457L62.3828 57.4616V59.3176L69.3544 55.304C69.5669 55.1661 69.7378 54.9727 69.8486 54.7449C69.977 54.5064 70.047 54.2408 70.0527 53.97C70.0643 53.4596 69.7395 53.2229 69.3544 53.4457Z" fill="#EF233C"/>
<path d="M60.8748 38.804C60.8563 39.1443 60.7578 39.4754 60.5873 39.7705C60.4168 40.0655 60.1791 40.3162 59.8935 40.5022C59.3529 40.8154 58.9121 40.5602 58.9121 39.9361C58.9306 39.5958 59.0291 39.2647 59.1996 38.9696C59.3702 38.6745 59.6079 38.4238 59.8935 38.2379C60.4364 37.9247 60.8748 38.1776 60.8748 38.804Z" fill="#EF233C"/>
<path d="M64.3156 37.8551C64.2987 38.1668 64.2086 38.4702 64.0526 38.7407C63.8966 39.0111 63.6791 39.2411 63.4177 39.4118C62.9213 39.6995 62.5176 39.4652 62.5176 38.8921C62.5349 38.5802 62.6255 38.2768 62.7818 38.0063C62.9382 37.7359 63.1561 37.5061 63.4177 37.3354C63.9142 37.0501 64.3156 37.2821 64.3156 37.8551Z" fill="#EF233C"/>
<path d="M66.5645 39.3191C66.5482 39.617 66.462 39.9068 66.3128 40.1652C66.1637 40.4236 65.9558 40.6432 65.7061 40.8063C65.2421 41.08 64.8477 40.8573 64.8477 40.3098C64.864 40.0119 64.9502 39.7221 65.0993 39.4637C65.2484 39.2054 65.4563 38.9858 65.7061 38.8227C66.1793 38.5489 66.5645 38.7716 66.5645 39.3191Z" fill="#EF233C"/>
<path opacity="0.5" d="M60.8748 38.804C60.8563 39.1443 60.7578 39.4754 60.5873 39.7705C60.4168 40.0655 60.1791 40.3162 59.8935 40.5022C59.3529 40.8154 58.9121 40.5602 58.9121 39.9361C58.9306 39.5958 59.0291 39.2647 59.1996 38.9696C59.3702 38.6745 59.6079 38.4238 59.8935 38.2379C60.4364 37.9247 60.8748 38.1776 60.8748 38.804Z" fill="black"/>
<path opacity="0.5" d="M64.3156 37.8551C64.2987 38.1668 64.2086 38.4702 64.0526 38.7407C63.8966 39.0111 63.6791 39.2411 63.4177 39.4118C62.9213 39.6995 62.5176 39.4652 62.5176 38.8921C62.5349 38.5802 62.6255 38.2768 62.7818 38.0063C62.9382 37.7359 63.1561 37.5061 63.4177 37.3354C63.9142 37.0501 64.3156 37.2821 64.3156 37.8551Z" fill="black"/>
<path opacity="0.5" d="M66.5645 39.3191C66.5482 39.617 66.462 39.9068 66.3128 40.1652C66.1637 40.4236 65.9558 40.6432 65.7061 40.8063C65.2421 41.08 64.8477 40.8573 64.8477 40.3098C64.864 40.0119 64.9502 39.7221 65.0993 39.4637C65.2484 39.2054 65.4563 38.9858 65.7061 38.8227C66.1793 38.5489 66.5645 38.7716 66.5645 39.3191Z" fill="black"/>
<path d="M66.909 42.5948C66.8936 42.8783 66.8117 43.1541 66.6698 43.4C66.5279 43.6458 66.3301 43.8548 66.0924 44.01C65.64 44.2699 65.2734 44.0587 65.2734 43.546C65.2887 43.2623 65.3709 42.9862 65.5132 42.7402C65.6556 42.4943 65.854 42.2855 66.0924 42.1308C66.5425 41.8617 66.909 42.0728 66.909 42.5948Z" fill="#EF233C"/>
<path d="M65.9001 46.7337C65.8853 47.0033 65.8072 47.2656 65.6722 47.4993C65.5372 47.7331 65.349 47.9318 65.1229 48.0793C64.6937 48.3252 64.3457 48.1257 64.3457 47.6292C64.3603 47.3599 64.4383 47.0979 64.5734 46.8645C64.7084 46.631 64.8967 46.4328 65.1229 46.2859C65.5521 46.0377 65.9001 46.2396 65.9001 46.7337Z" fill="#EF233C"/>
<path d="M63.7834 50.3623C63.7697 50.6175 63.6959 50.8658 63.5681 51.0871C63.4403 51.3085 63.2621 51.4965 63.0479 51.636C62.6419 51.868 62.3125 51.68 62.3125 51.2114C62.3262 50.9562 62.4 50.7078 62.5278 50.4865C62.6556 50.2652 62.8338 50.0772 63.0479 49.9377C63.4539 49.7034 63.7834 49.8936 63.7834 50.3623Z" fill="#EF233C"/>
<path opacity="0.3" d="M66.909 42.5948C66.8936 42.8783 66.8117 43.1541 66.6698 43.4C66.5279 43.6458 66.3301 43.8548 66.0924 44.01C65.64 44.2699 65.2734 44.0587 65.2734 43.546C65.2887 43.2623 65.3709 42.9862 65.5132 42.7402C65.6556 42.4943 65.854 42.2855 66.0924 42.1308C66.5425 41.8617 66.909 42.0728 66.909 42.5948Z" fill="black"/>
<path opacity="0.3" d="M65.9001 46.7337C65.8853 47.0033 65.8072 47.2656 65.6722 47.4993C65.5372 47.7331 65.349 47.9318 65.1229 48.0793C64.6937 48.3252 64.3457 48.1257 64.3457 47.6292C64.3603 47.3599 64.4383 47.0979 64.5734 46.8645C64.7084 46.631 64.8967 46.4328 65.1229 46.2859C65.5521 46.0377 65.9001 46.2396 65.9001 46.7337Z" fill="black"/>
<path opacity="0.3" d="M63.7834 50.3623C63.7697 50.6175 63.6959 50.8658 63.5681 51.0871C63.4403 51.3085 63.2621 51.4965 63.0479 51.636C62.6419 51.868 62.3125 51.68 62.3125 51.2114C62.3262 50.9562 62.4 50.7078 62.5278 50.4865C62.6556 50.2652 62.8338 50.0772 63.0479 49.9377C63.4539 49.7034 63.7834 49.8936 63.7834 50.3623Z" fill="black"/>
<path d="M60.5893 53.339C60.5762 53.5803 60.5063 53.8151 60.3854 54.0243C60.2644 54.2335 60.0958 54.4113 59.8933 54.5431C59.5105 54.7751 59.1973 54.5848 59.1973 54.1417C59.2107 53.9005 59.2807 53.6658 59.4017 53.4566C59.5226 53.2475 59.691 53.0697 59.8933 52.9376C60.2784 52.7172 60.5893 52.8959 60.5893 53.339Z" fill="#EF233C"/>
<path d="M57.0936 54.2254C57.0814 54.4523 57.0158 54.6731 56.9021 54.8698C56.7884 55.0666 56.6299 55.2337 56.4394 55.3575C56.0798 55.5663 55.7852 55.397 55.7852 54.9794C55.7981 54.7527 55.864 54.5321 55.9777 54.3355C56.0913 54.1389 56.2494 53.9717 56.4394 53.8472C56.8013 53.6384 57.0936 53.8078 57.0936 54.2254Z" fill="#EF233C"/>
<path d="M55.0261 52.6266C55.015 52.8395 54.9537 53.0467 54.8472 53.2313C54.7408 53.416 54.5922 53.5729 54.4136 53.6892C54.0749 53.8841 53.7988 53.7263 53.7988 53.3342C53.8108 53.1216 53.8727 52.9148 53.9795 52.7306C54.0863 52.5464 54.235 52.39 54.4136 52.274C54.7523 52.0768 55.0261 52.2369 55.0261 52.6266Z" fill="#EF233C"/>
<path opacity="0.2" d="M60.5893 53.339C60.5762 53.5803 60.5063 53.8151 60.3854 54.0243C60.2644 54.2335 60.0958 54.4113 59.8933 54.5431C59.5105 54.7751 59.1973 54.5848 59.1973 54.1417C59.2107 53.9005 59.2807 53.6658 59.4017 53.4566C59.5226 53.2475 59.691 53.0697 59.8933 52.9376C60.2784 52.7172 60.5893 52.8959 60.5893 53.339Z" fill="black"/>
<path opacity="0.2" d="M57.0936 54.2254C57.0814 54.4523 57.0158 54.6731 56.9021 54.8698C56.7884 55.0666 56.6299 55.2337 56.4394 55.3575C56.0798 55.5663 55.7852 55.397 55.7852 54.9794C55.7981 54.7527 55.864 54.5321 55.9777 54.3355C56.0913 54.1389 56.2494 53.9717 56.4394 53.8472C56.8013 53.6384 57.0936 53.8078 57.0936 54.2254Z" fill="black"/>
<path opacity="0.2" d="M55.0261 52.6266C55.015 52.8395 54.9537 53.0467 54.8472 53.2313C54.7408 53.416 54.5922 53.5729 54.4136 53.6892C54.0749 53.8841 53.7988 53.7263 53.7988 53.3342C53.8108 53.1216 53.8727 52.9148 53.9795 52.7306C54.0863 52.5464 54.235 52.39 54.4136 52.274C54.7523 52.0768 55.0261 52.2369 55.0261 52.6266Z" fill="black"/>
<path d="M54.2437 49.8172C54.2328 50.0158 54.1753 50.2089 54.0757 50.3811C53.9761 50.5532 53.8374 50.6994 53.6707 50.8078C53.3552 50.9911 53.0977 50.8426 53.0977 50.4784C53.1084 50.2798 53.1659 50.0866 53.2654 49.9144C53.365 49.7422 53.5039 49.5961 53.6707 49.4878C53.9862 49.3045 54.2437 49.453 54.2437 49.8172Z" fill="#EF233C"/>
<path d="M55.1856 45.5087C55.1765 45.6944 55.1236 45.8752 55.0313 46.0365C54.9389 46.1977 54.8098 46.3349 54.6543 46.4368C54.3597 46.6061 54.123 46.4692 54.123 46.1305C54.1316 45.9448 54.1843 45.7637 54.2766 45.6024C54.369 45.441 54.4985 45.3039 54.6543 45.2025C54.9466 45.0331 55.1856 45.17 55.1856 45.5087Z" fill="#EF233C"/>
<path d="M57.0939 42.0245C57.0857 42.1942 57.0375 42.3596 56.9532 42.5072C56.8689 42.6547 56.751 42.7803 56.609 42.8736C56.3376 43.0314 56.1172 42.9038 56.1172 42.5906C56.1264 42.4203 56.1757 42.2546 56.2612 42.107C56.3467 41.9594 56.4659 41.8342 56.609 41.7415C56.8758 41.586 57.0939 41.7113 57.0939 42.0245Z" fill="#EF233C"/>
<path d="M62.8005 45.0403L60.0212 42.0684L56.8613 48.4692L58.4668 47.5436V50.9354L61.1951 49.3601V45.9683L62.8005 45.0403Z" fill="#EF233C"/>
<path d="M72.8492 38.1548C72.8494 37.5777 73.0015 37.0108 73.2903 36.5111C73.579 36.0114 73.9942 35.5965 74.4941 35.3082L95.3903 23.2442C95.5297 23.1638 95.6852 23.1156 95.8456 23.1033C96.006 23.0909 96.1671 23.1146 96.3171 23.1727C96.4671 23.2308 96.6022 23.3218 96.7124 23.4389C96.8226 23.5561 96.9052 23.6964 96.954 23.8497C96.8979 23.6049 96.7927 23.374 96.6448 23.171C96.4968 22.968 96.3092 22.7972 96.0933 22.6688L96.0191 22.6247C95.4985 22.3176 94.9044 22.1573 94.2999 22.1607C94.107 22.1581 93.917 22.2078 93.7501 22.3046L72.8515 34.3686C72.3521 34.6572 71.9373 35.0722 71.649 35.5719C71.3607 36.0716 71.2089 36.6383 71.209 37.2152V82.3996C71.2088 82.5895 71.2589 82.7762 71.3541 82.9405C71.4494 83.1049 71.5864 83.2411 71.7514 83.3354C71.9163 83.4296 72.1033 83.4785 72.2932 83.4772C72.4832 83.4758 72.6694 83.4242 72.833 83.3276L72.8585 83.3113L72.8492 38.1548Z" fill="#37484F"/>
<path d="M95.3526 72.2149L74.4541 84.2789C74.2905 84.3756 74.1043 84.4272 73.9143 84.4285C73.7244 84.4299 73.5374 84.381 73.3725 84.2867C73.2075 84.1925 73.0705 84.0563 72.9752 83.8919C72.8799 83.7275 72.8299 83.5409 72.8301 83.3509V38.155C72.8303 37.5779 72.9824 37.011 73.2711 36.5113C73.5598 36.0116 73.975 35.5967 74.475 35.3084L95.3712 23.2444C95.5348 23.1477 95.721 23.0961 95.9109 23.0948C96.1009 23.0934 96.2879 23.1423 96.4528 23.2366C96.6177 23.3308 96.7548 23.467 96.8501 23.6314C96.9453 23.7958 96.9954 23.9824 96.9952 24.1724V69.3683C96.9952 69.9452 96.8435 70.5119 96.5552 71.0116C96.2669 71.5113 95.8521 71.9263 95.3526 72.2149Z" fill="#455A64"/>
<path d="M72.8487 83.3486V38.155C72.8494 37.6626 72.9604 37.1767 73.1735 36.7328L71.5495 35.7329C71.3187 36.1905 71.1987 36.6959 71.1992 37.2084V82.7779C71.1993 82.9571 71.246 83.1332 71.3347 83.289C71.4233 83.4447 71.5509 83.5748 71.705 83.6664L72.5379 84.1629C72.8261 84.3349 73.1557 84.4255 73.4914 84.4251H73.9043C73.6227 84.419 73.3545 84.303 73.1573 84.1018C72.96 83.9007 72.8493 83.6303 72.8487 83.3486Z" fill="#253239"/>
<path d="M94.6391 27.5874V65.5728C94.6391 66.0822 94.5048 66.5827 94.2499 67.0238C93.9949 67.4649 93.6283 67.831 93.1868 68.0853L74.7335 78.7411C74.5925 78.8229 74.4325 78.8661 74.2695 78.8664C74.3229 78.9893 74.4016 79.0996 74.5005 79.1901C74.5995 79.2805 74.7164 79.349 74.8437 79.391C74.971 79.4331 75.1057 79.4478 75.239 79.4341C75.3724 79.4205 75.5013 79.3788 75.6175 79.3118L94.0707 68.6584C94.512 68.4033 94.8785 68.0367 95.1334 67.5953C95.3883 67.1539 95.5227 66.6532 95.5231 66.1435V28.5363C95.5225 28.2958 95.4312 28.0644 95.2672 27.8884C95.1033 27.7125 94.879 27.605 94.6391 27.5874Z" fill="#37484F"/>
<path d="M74.2747 78.8664C74.4377 78.8661 74.5977 78.8229 74.7387 78.7411L93.192 68.0853C93.6334 67.831 94.0001 67.4649 94.255 67.0238C94.51 66.5827 94.6443 66.0822 94.6443 65.5728V27.5874C94.4587 27.5901 94.2759 27.6329 94.1084 27.7127L75.6551 38.3684C75.2139 38.6229 74.8476 38.9891 74.593 39.4302C74.3385 39.8713 74.2047 40.3717 74.2051 40.881V78.4882C74.2043 78.6207 74.2312 78.7518 74.284 78.8733L74.2747 78.8664Z" fill="#EF233C"/>
<g opacity="0.7">
<path d="M74.2747 78.8664C74.4377 78.8661 74.5977 78.8229 74.7387 78.7411L93.192 68.0853C93.6334 67.831 94.0001 67.4649 94.255 67.0238C94.51 66.5827 94.6443 66.0822 94.6443 65.5728V27.5874C94.4587 27.5901 94.2759 27.6329 94.1084 27.7127L75.6551 38.3684C75.2139 38.6229 74.8476 38.9891 74.593 39.4302C74.3385 39.8713 74.2047 40.3717 74.2051 40.881V78.4882C74.2043 78.6207 74.2312 78.7518 74.284 78.8733L74.2747 78.8664Z" fill="white"/>
</g>
<path d="M81.9979 32.8005C81.991 32.9158 81.9571 33.0279 81.8991 33.1278C81.8411 33.2277 81.7605 33.3127 81.6638 33.3759C81.4805 33.4826 81.332 33.3967 81.332 33.1833C81.3385 33.0681 81.3719 32.9561 81.4295 32.8562C81.4871 32.7562 81.5674 32.6712 81.6638 32.6079C81.8471 32.5012 81.9979 32.5894 81.9979 32.8005Z" fill="#253239"/>
<path d="M83.2338 32.0858C83.2281 32.2012 83.195 32.3135 83.1373 32.4135C83.0797 32.5136 82.999 32.5985 82.9021 32.6612C82.7188 32.7679 82.5703 32.6821 82.5703 32.471C82.5761 32.3556 82.6091 32.2433 82.6668 32.1433C82.7245 32.0432 82.8051 31.9583 82.9021 31.8956C83.0854 31.7842 83.2338 31.8747 83.2338 32.0858Z" fill="#253239"/>
<path d="M88.2239 29.5894L84.2057 31.9094C84.0456 32.0022 83.918 31.9094 83.918 31.6913C83.9201 31.5836 83.9472 31.4779 83.9971 31.3825C84.0471 31.2871 84.1184 31.2046 84.2057 31.1414L88.2239 28.8214C88.384 28.731 88.5116 28.8214 88.5116 29.0395C88.5094 29.1472 88.4823 29.2529 88.4324 29.3483C88.3825 29.4437 88.3111 29.5262 88.2239 29.5894Z" fill="#253239"/>
<path d="M87.544 73.6391C87.776 73.6391 87.9384 73.8943 87.9384 74.2887C87.9384 74.9081 87.551 75.6552 87.0939 75.9127L85.1706 77.024C85.0852 77.0789 84.9867 77.1101 84.8853 77.1144C84.6533 77.1144 84.4886 76.8592 84.4886 76.4648C84.4886 75.8454 84.876 75.1007 85.3354 74.8408L87.2586 73.7319C87.3444 73.6778 87.4427 73.6466 87.544 73.6414M87.544 73.479C87.4134 73.4828 87.2861 73.5212 87.1751 73.5904L85.2542 74.704C84.7415 75.0009 84.3262 75.7944 84.3262 76.4764C84.3262 76.9868 84.5582 77.2908 84.8853 77.2908C85.0157 77.2856 85.1427 77.2473 85.2542 77.1794L87.1751 76.0681C87.6879 75.7735 88.1031 74.98 88.1031 74.2956C88.1031 73.7876 87.8711 73.4836 87.544 73.4836V73.479Z" fill="#253239"/>
<path d="M76.5216 66.2781C76.4172 66.2792 76.3146 66.2519 76.2246 66.1992C75.981 66.06 75.8418 65.7352 75.8418 65.3315C75.8418 64.5845 76.3058 63.7075 76.8649 63.3874L91.8939 54.7106C91.9996 54.6367 92.1233 54.5928 92.2519 54.5834C92.3806 54.5741 92.5093 54.5995 92.6247 54.6572C92.8567 54.7987 93.0075 55.1212 93.0075 55.5272C93.0075 56.2742 92.5435 57.1512 91.9844 57.4714L76.9554 66.1481C76.8245 66.2283 76.675 66.2731 76.5216 66.2781ZM92.337 54.7523C92.2152 54.7572 92.0968 54.794 91.9936 54.859L76.9647 63.5358C76.4496 63.8328 76.0367 64.6355 76.0367 65.3246C76.0208 65.4587 76.0392 65.5946 76.0904 65.7197C76.1415 65.8447 76.2236 65.9546 76.329 66.0391C76.4172 66.0798 76.5145 66.0962 76.6111 66.0869C76.7078 66.0775 76.8001 66.0426 76.8788 65.9858L91.9078 57.309C92.4228 57.012 92.8358 56.2093 92.8358 55.5202C92.8517 55.3861 92.8332 55.2501 92.7821 55.1251C92.731 55.0001 92.6488 54.8902 92.5435 54.8057C92.4804 54.7705 92.4093 54.7521 92.337 54.7523Z" fill="#EF233C"/>
<path opacity="0.5" d="M76.5216 66.2781C76.4172 66.2792 76.3146 66.2519 76.2246 66.1992C75.981 66.06 75.8418 65.7352 75.8418 65.3315C75.8418 64.5845 76.3058 63.7075 76.8649 63.3874L91.8939 54.7106C91.9996 54.6367 92.1233 54.5928 92.2519 54.5834C92.3806 54.5741 92.5093 54.5995 92.6247 54.6572C92.8567 54.7987 93.0075 55.1212 93.0075 55.5272C93.0075 56.2742 92.5435 57.1512 91.9844 57.4714L76.9554 66.1481C76.8245 66.2283 76.675 66.2731 76.5216 66.2781ZM92.337 54.7523C92.2152 54.7572 92.0968 54.794 91.9936 54.859L76.9647 63.5358C76.4496 63.8328 76.0367 64.6355 76.0367 65.3246C76.0208 65.4587 76.0392 65.5946 76.0904 65.7197C76.1415 65.8447 76.2236 65.9546 76.329 66.0391C76.4172 66.0798 76.5145 66.0962 76.6111 66.0869C76.7078 66.0775 76.8001 66.0426 76.8788 65.9858L91.9078 57.309C92.4228 57.012 92.8358 56.2093 92.8358 55.5202C92.8517 55.3861 92.8332 55.2501 92.7821 55.1251C92.731 55.0001 92.6488 54.8902 92.5435 54.8057C92.4804 54.7705 92.4093 54.7521 92.337 54.7523Z" fill="black"/>
<path d="M77.1909 63.8745C77.0267 63.9815 76.895 64.1316 76.8105 64.3084C76.7106 64.4925 76.6558 64.6976 76.6504 64.9069C76.6504 65.306 76.8824 65.4869 77.1909 65.3153L86.2621 60.0883V58.6499L77.1909 63.8745Z" fill="#EF233C"/>
<path opacity="0.3" d="M77.1909 63.8745C77.0267 63.9815 76.895 64.1316 76.8105 64.3084C76.7106 64.4925 76.6558 64.6976 76.6504 64.9069C76.6504 65.306 76.8824 65.4869 77.1909 65.3153L86.2621 60.0883V58.6499L77.1909 63.8745Z" fill="black"/>
<path d="M91.6577 55.5433L86.2637 58.6498V60.0882L91.6577 56.9817C91.8218 56.8757 91.9535 56.7263 92.0381 56.5502C92.1387 56.3664 92.1936 56.1611 92.1982 55.9516C92.1982 55.5526 91.9546 55.3716 91.6577 55.5433Z" fill="#EF233C"/>
<path d="M85.0993 44.2168C85.0847 44.4801 85.0084 44.7364 84.8766 44.9649C84.7449 45.1933 84.5613 45.3877 84.3407 45.5322C83.9207 45.7642 83.582 45.5763 83.582 45.0938C83.5961 44.8303 83.6721 44.5738 83.804 44.3453C83.9358 44.1167 84.1197 43.9225 84.3407 43.7783C84.7583 43.537 85.0993 43.7342 85.0993 44.2168Z" fill="#EF233C"/>
<path d="M87.7592 43.484C87.7463 43.7254 87.6765 43.9603 87.5555 44.1695C87.4346 44.3788 87.2659 44.5565 87.0632 44.6881C86.6804 44.9201 86.3672 44.7299 86.3672 44.2868C86.3808 44.0456 86.4509 43.811 86.5718 43.6018C86.6927 43.3927 86.861 43.2149 87.0632 43.0827C87.4483 42.86 87.7592 43.0409 87.7592 43.484Z" fill="#EF233C"/>
<path d="M89.497 44.616C89.486 44.8481 89.4201 45.0742 89.3048 45.2759C89.1894 45.4775 89.0279 45.649 88.8334 45.776C88.4669 45.9872 88.1699 45.8155 88.1699 45.3909C88.1807 45.1588 88.2465 44.9326 88.3618 44.7309C88.4772 44.5293 88.6388 44.3579 88.8334 44.2309C89.2 44.0221 89.497 44.1938 89.497 44.616Z" fill="#EF233C"/>
<path opacity="0.5" d="M85.0993 44.2168C85.0847 44.4801 85.0084 44.7364 84.8766 44.9649C84.7449 45.1933 84.5613 45.3877 84.3407 45.5322C83.9207 45.7642 83.582 45.5763 83.582 45.0938C83.5961 44.8303 83.6721 44.5738 83.804 44.3453C83.9358 44.1167 84.1197 43.9225 84.3407 43.7783C84.7583 43.537 85.0993 43.7342 85.0993 44.2168Z" fill="black"/>
<path opacity="0.5" d="M87.7592 43.484C87.7463 43.7254 87.6765 43.9603 87.5555 44.1695C87.4346 44.3788 87.2659 44.5565 87.0632 44.6881C86.6804 44.9201 86.3672 44.7299 86.3672 44.2868C86.3808 44.0456 86.4509 43.811 86.5718 43.6018C86.6927 43.3927 86.861 43.2149 87.0632 43.0827C87.4483 42.86 87.7592 43.0409 87.7592 43.484Z" fill="black"/>
<path opacity="0.5" d="M89.497 44.616C89.486 44.8481 89.4201 45.0742 89.3048 45.2759C89.1894 45.4775 89.0279 45.649 88.8334 45.776C88.4669 45.9872 88.1699 45.8155 88.1699 45.3909C88.1807 45.1588 88.2465 44.9326 88.3618 44.7309C88.4772 44.5293 88.6388 44.3579 88.8334 44.2309C89.2 44.0221 89.497 44.1938 89.497 44.616Z" fill="black"/>
<path d="M89.7664 47.1497C89.7548 47.3692 89.6913 47.583 89.5812 47.7733C89.4712 47.9636 89.3175 48.1252 89.133 48.2447C88.785 48.4466 88.502 48.2842 88.502 47.8805C88.5133 47.6611 88.5764 47.4475 88.686 47.2572C88.7957 47.0669 88.9489 46.9052 89.133 46.7854C89.4833 46.5836 89.7664 46.746 89.7664 47.1497Z" fill="#EF233C"/>
<path d="M88.985 50.344C88.9735 50.5526 88.9132 50.7556 88.8088 50.9365C88.7044 51.1175 88.5589 51.2713 88.3841 51.3857C88.0523 51.5759 87.7832 51.4205 87.7832 51.0377C87.7944 50.8293 87.8547 50.6266 87.9591 50.446C88.0636 50.2654 88.2092 50.112 88.3841 49.9983C88.7158 49.8127 88.985 49.9681 88.985 50.344Z" fill="#EF233C"/>
<path d="M87.3481 53.1585C87.3373 53.3558 87.28 53.5478 87.1808 53.7188C87.0816 53.8898 86.9434 54.0348 86.7774 54.1421C86.4642 54.3254 86.209 54.1769 86.209 53.815C86.2195 53.6176 86.2765 53.4254 86.3752 53.254C86.474 53.0827 86.6118 52.9371 86.7774 52.829C87.0929 52.6481 87.3481 52.7942 87.3481 53.1585Z" fill="#EF233C"/>
<path opacity="0.3" d="M89.7664 47.1497C89.7548 47.3692 89.6913 47.583 89.5812 47.7733C89.4712 47.9636 89.3175 48.1252 89.133 48.2447C88.785 48.4466 88.502 48.2842 88.502 47.8805C88.5133 47.6611 88.5764 47.4475 88.686 47.2572C88.7957 47.0669 88.9489 46.9052 89.133 46.7854C89.4833 46.5836 89.7664 46.746 89.7664 47.1497Z" fill="black"/>
<path opacity="0.3" d="M88.985 50.344C88.9735 50.5526 88.9132 50.7556 88.8088 50.9365C88.7044 51.1175 88.5589 51.2713 88.3841 51.3857C88.0523 51.5759 87.7832 51.4205 87.7832 51.0377C87.7944 50.8293 87.8547 50.6266 87.9591 50.446C88.0636 50.2654 88.2092 50.112 88.3841 49.9983C88.7158 49.8127 88.985 49.9681 88.985 50.344Z" fill="black"/>
<path opacity="0.3" d="M87.3481 53.1585C87.3373 53.3558 87.28 53.5478 87.1808 53.7188C87.0816 53.8898 86.9434 54.0348 86.7774 54.1421C86.4642 54.3254 86.209 54.1769 86.209 53.815C86.2195 53.6176 86.2765 53.4254 86.3752 53.254C86.474 53.0827 86.6118 52.9371 86.7774 52.829C87.0929 52.6481 87.3481 52.7942 87.3481 53.1585Z" fill="black"/>
<path d="M84.8749 55.4596C84.8651 55.6456 84.8115 55.8266 84.7183 55.9879C84.6252 56.1492 84.4952 56.2862 84.339 56.3876C84.0421 56.5593 83.8008 56.4201 83.8008 56.0791C83.8116 55.8931 83.8659 55.7122 83.9594 55.551C84.0529 55.3898 84.1829 55.2528 84.339 55.1511C84.636 54.984 84.8749 55.1163 84.8749 55.4596Z" fill="#EF233C"/>
<path d="M82.1736 56.1441C82.1646 56.3195 82.1141 56.4903 82.0261 56.6423C81.9382 56.7944 81.8154 56.9234 81.6679 57.0187C81.3895 57.1811 81.1621 57.0489 81.1621 56.7264C81.1717 56.5511 81.2225 56.3805 81.3103 56.2286C81.3982 56.0766 81.5207 55.9475 81.6679 55.8518C81.9486 55.6917 82.1736 55.8239 82.1736 56.1441Z" fill="#EF233C"/>
<path d="M80.5744 54.91C80.5652 55.0746 80.5174 55.2348 80.4348 55.3775C80.3522 55.5202 80.237 55.6414 80.0988 55.7313C79.8389 55.8821 79.6348 55.7591 79.6348 55.4575C79.6429 55.294 79.6891 55.1346 79.7697 54.992C79.8502 54.8495 79.9629 54.7276 80.0988 54.6362C80.3609 54.4854 80.5744 54.6084 80.5744 54.91Z" fill="#EF233C"/>
<path opacity="0.2" d="M84.8749 55.4596C84.8651 55.6456 84.8115 55.8266 84.7183 55.9879C84.6252 56.1492 84.4952 56.2862 84.339 56.3876C84.0421 56.5593 83.8008 56.4201 83.8008 56.0791C83.8116 55.8931 83.8659 55.7122 83.9594 55.551C84.0529 55.3898 84.1829 55.2528 84.339 55.1511C84.636 54.984 84.8749 55.1163 84.8749 55.4596Z" fill="black"/>
<path opacity="0.2" d="M82.1736 56.1441C82.1646 56.3195 82.1141 56.4903 82.0261 56.6423C81.9382 56.7944 81.8154 56.9234 81.6679 57.0187C81.3895 57.1811 81.1621 57.0489 81.1621 56.7264C81.1717 56.5511 81.2225 56.3805 81.3103 56.2286C81.3982 56.0766 81.5207 55.9475 81.6679 55.8518C81.9486 55.6917 82.1736 55.8239 82.1736 56.1441Z" fill="black"/>
<path opacity="0.2" d="M80.5744 54.91C80.5652 55.0746 80.5174 55.2348 80.4348 55.3775C80.3522 55.5202 80.237 55.6414 80.0988 55.7313C79.8389 55.8821 79.6348 55.7591 79.6348 55.4575C79.6429 55.294 79.6891 55.1346 79.7697 54.992C79.8502 54.8495 79.9629 54.7276 80.0988 54.6362C80.3609 54.4854 80.5744 54.6084 80.5744 54.91Z" fill="black"/>
<path d="M79.9683 52.736C79.96 52.8895 79.9156 53.0389 79.8386 53.1719C79.7616 53.305 79.6542 53.4179 79.5252 53.5016C79.2932 53.6431 79.082 53.5294 79.082 53.2464C79.0908 53.093 79.1355 52.9438 79.2124 52.8108C79.2894 52.6778 79.3965 52.5648 79.5252 52.4808C79.7688 52.3392 79.9683 52.4529 79.9683 52.736Z" fill="#EF233C"/>
<path d="M80.6982 49.4163C80.6905 49.559 80.6493 49.6978 80.578 49.8215C80.5066 49.9452 80.4072 50.0504 80.2876 50.1286C80.0556 50.2585 79.877 50.1541 79.877 49.8966C79.8843 49.7539 79.9253 49.6149 79.9967 49.4911C80.0681 49.3673 80.1678 49.2622 80.2876 49.1843C80.5057 49.0359 80.6982 49.1426 80.6982 49.4163Z" fill="#EF233C"/>
<path d="M82.1727 46.7088C82.1655 46.8402 82.1276 46.9681 82.0619 47.0821C81.9962 47.1962 81.9046 47.2932 81.7945 47.3654C81.5834 47.486 81.4141 47.3886 81.4141 47.1473C81.4211 47.0156 81.4593 46.8874 81.5254 46.7733C81.5916 46.6592 81.6838 46.5623 81.7945 46.4907C82.0033 46.3701 82.1727 46.4675 82.1727 46.7088Z" fill="#EF233C"/>
<path d="M86.5877 49.0428L84.4371 46.7437L81.9941 51.6945L83.2353 50.9777V53.6016L85.3465 52.3836V49.7597L86.5877 49.0428Z" fill="#EF233C"/>
<path d="M50.995 62.8444L52.2965 64.3988L49.248 69.3102L50.3408 70.5816L54.6281 65.524C54.875 65.2326 55.0176 64.8671 55.0331 64.4855C55.0487 64.1038 54.9363 63.7279 54.714 63.4174L53.0343 61.0649L50.995 62.8444Z" fill="#945959"/>
<path d="M47.3145 57.1719L48.5116 57.0629C48.9735 57.0204 49.4386 57.095 49.864 57.28C50.2894 57.4649 50.6613 57.7541 50.9453 58.1208L53.5761 61.5057C53.5761 61.5057 53.2305 62.7956 51.0752 63.4893L47.9617 59.1045L47.3145 57.1719Z" fill="#EF233C"/>
<path opacity="0.2" d="M47.3145 57.1719L48.5116 57.0629C48.9735 57.0204 49.4386 57.095 49.864 57.28C50.2894 57.4649 50.6613 57.7541 50.9453 58.1208L53.5761 61.5057C53.5761 61.5057 53.2305 62.7956 51.0752 63.4893L47.9617 59.1045L47.3145 57.1719Z" fill="black"/>
<path d="M48.0048 94.4449C47.8011 94.984 47.7218 95.5621 47.7728 96.1362C47.7914 96.396 48.6452 96.6187 48.8864 96.6744C49.372 96.8845 49.8332 97.1467 50.2622 97.4563C50.9705 98.003 51.8383 98.3029 52.733 98.31C54.0136 98.31 54.6099 97.8646 54.6099 97.4191C54.6099 96.9737 53.7724 96.4703 53.1413 96.3775C52.733 96.3171 50.6891 95.1154 50.3179 94.1851L48.0048 94.4449Z" fill="#263238"/>
<path d="M48.0048 94.127C47.8011 94.6661 47.7218 95.2443 47.7728 95.8183C47.7914 96.0781 48.6452 96.3009 48.8864 96.3565C49.372 96.5657 49.8333 96.8271 50.2622 97.1361C50.9695 97.6849 51.8378 97.9857 52.733 97.9921C54.0136 97.9921 54.6099 97.5467 54.6099 97.0989C54.6099 96.6512 53.7724 96.1524 53.1413 96.0596C52.733 95.9993 50.6891 94.7952 50.3179 93.8672L48.0048 94.127Z" fill="#455A64"/>
<path d="M51.7006 97.2082C51.6843 97.4402 51.7006 97.8161 51.7006 97.8439C52.0397 97.9385 52.3901 97.9869 52.7423 97.9877C54.0229 97.9877 54.6191 97.5423 54.6191 97.0945C54.6191 96.6468 53.7816 96.148 53.1506 96.0552C53.1506 96.0598 51.7957 95.9833 51.7006 97.2082Z" fill="#FAFAFA"/>
<path d="M51.0152 96.0621C50.9927 96.0611 50.9706 96.0556 50.9502 96.0459C50.9198 96.0283 50.8974 95.9996 50.8879 95.9658C50.8783 95.932 50.8824 95.8958 50.8992 95.8649C51.1915 95.3452 51.8666 95.2826 51.8945 95.2803C51.9273 95.2806 51.9588 95.2932 51.9829 95.3154C52.0069 95.3377 52.0219 95.3682 52.0248 95.4008C52.0277 95.4335 52.0183 95.4661 51.9985 95.4923C51.9787 95.5185 51.9499 95.5363 51.9177 95.5424C51.9177 95.5424 51.3516 95.5981 51.1312 95.9948C51.1193 96.0151 51.1023 96.0319 51.082 96.0437C51.0617 96.0554 51.0387 96.0618 51.0152 96.0621Z" fill="#FAFAFA"/>
<path d="M50.4012 95.6352C50.379 95.6348 50.3574 95.6283 50.3385 95.6166C50.3231 95.6086 50.3094 95.5976 50.2984 95.5841C50.2874 95.5706 50.2792 95.5551 50.2744 95.5383C50.2697 95.5216 50.2684 95.5041 50.2706 95.4868C50.2728 95.4695 50.2786 95.4529 50.2875 95.438C50.5775 94.9183 51.2526 94.8557 51.2805 94.8533C51.2977 94.8514 51.3152 94.853 51.3318 94.8579C51.3485 94.8629 51.364 94.8711 51.3774 94.8821C51.3908 94.8932 51.4018 94.9068 51.4099 94.9221C51.418 94.9375 51.4229 94.9543 51.4243 94.9717C51.4259 94.989 51.424 95.0066 51.4188 95.0232C51.4136 95.0399 51.4051 95.0553 51.3939 95.0687C51.3827 95.0821 51.369 95.0931 51.3535 95.1011C51.338 95.1091 51.321 95.114 51.3037 95.1155C51.3037 95.1155 50.7399 95.1712 50.5172 95.5679C50.5054 95.5883 50.4885 95.6052 50.4682 95.617C50.4478 95.6288 50.4247 95.6351 50.4012 95.6352Z" fill="#FAFAFA"/>
<path d="M49.8461 95.1201C49.8235 95.1202 49.8011 95.1147 49.7812 95.1039C49.7662 95.0954 49.753 95.0841 49.7424 95.0705C49.7318 95.0569 49.724 95.0414 49.7194 95.0247C49.7149 95.0081 49.7137 94.9908 49.7159 94.9737C49.7182 94.9566 49.7238 94.9401 49.7325 94.9252C50.0225 94.4055 50.6976 94.3406 50.7254 94.3383C50.7604 94.3357 50.795 94.3468 50.8219 94.3693C50.8487 94.3919 50.8657 94.424 50.8693 94.4589C50.8713 94.4937 50.8599 94.528 50.8375 94.5548C50.8151 94.5815 50.7833 94.5987 50.7486 94.6027C50.7486 94.6027 50.1825 94.6561 49.9621 95.0528C49.9506 95.0734 49.9337 95.0904 49.9133 95.1023C49.8929 95.1141 49.8697 95.1202 49.8461 95.1201Z" fill="#FAFAFA"/>
<path d="M45.8008 69.3335L46.9608 82.3673C46.9608 82.3673 46.803 83.9263 47.1255 87.5687C47.448 91.2111 47.8215 94.3315 47.8215 94.3315C47.8215 94.3315 49.5801 94.9997 50.6217 94.0345C50.6217 94.0345 50.9164 85.1443 50.9187 82.1793C50.9187 78.9986 50.6217 69.4588 50.6217 69.4588L45.8008 69.3335Z" fill="#37474F"/>
<path d="M46.6107 78.4787L47.1837 74.0197C47.1837 74.0197 49.1001 73.7575 49.4341 72.8156C49.8517 71.644 49.6197 70.1407 49.6197 70.1407L45.8613 70.0015L46.6107 78.4787Z" fill="#263238"/>
<path d="M41.4947 96.0596C41.4947 96.0596 41.0957 98.3239 41.0957 99.1034C41.0957 99.8829 41.5597 100.89 42.8821 100.89C44.2045 100.89 44.1372 99.3679 44.0607 98.7415C43.9841 98.1151 43.6616 96.0596 43.6616 96.0596H41.4947Z" fill="#263238"/>
<path d="M41.5288 95.8164C41.5288 95.8164 41.1367 98.0274 41.1367 98.7883C41.1367 99.5493 41.6007 100.535 42.8837 100.535C44.1666 100.535 44.111 99.0482 44.0437 98.4357C43.9764 97.8232 43.64 95.8164 43.64 95.8164H41.5288Z" fill="#455A64"/>
<path d="M42.7228 98.5308H42.5419C42.2969 98.5305 42.0558 98.592 41.8409 98.7096C41.6259 98.8272 41.4441 98.9971 41.3123 99.2036L41.2148 99.3567C41.3153 99.7136 41.5349 100.025 41.8371 100.24C42.1393 100.455 42.5059 100.56 42.876 100.538C43.6856 100.538 43.9617 99.946 44.036 99.3567C43.9171 99.1093 43.7308 98.9005 43.4985 98.7544C43.2662 98.6083 42.9973 98.5308 42.7228 98.5308Z" fill="#FAFAFA"/>
<path d="M41.9658 69.1128L41.3719 81.9447C40.8889 84.4912 40.7222 87.0876 40.8754 89.675C41.1723 93.5888 41.2211 96.2638 41.2211 96.2638C41.2211 96.2638 42.9309 97.1546 43.7986 96.1153L45.5571 81.5735L46.7705 73.6206C46.7705 73.6206 49.1253 73.4976 49.5963 72.2587C49.8975 71.3956 50.0809 70.4959 50.1415 69.5838L41.9658 69.1128Z" fill="#37474F"/>
<path d="M42.0658 97.9044C42.042 97.9046 42.0185 97.8982 41.998 97.8859C41.9776 97.8736 41.9609 97.8559 41.9498 97.8348C41.9331 97.8043 41.9291 97.7685 41.9387 97.735C41.9482 97.7016 41.9706 97.6733 42.0009 97.6562C42.031 97.6399 42.7154 97.2757 43.3117 97.6562C43.3265 97.6654 43.3394 97.6775 43.3495 97.6917C43.3597 97.706 43.3669 97.7221 43.3708 97.7391C43.3747 97.7561 43.3751 97.7738 43.3721 97.791C43.3692 97.8082 43.3628 97.8247 43.3534 97.8394C43.334 97.8686 43.304 97.889 43.2698 97.8963C43.2356 97.9037 43.1998 97.8974 43.1701 97.8789C42.7061 97.5773 42.1331 97.8789 42.1285 97.8789C42.1103 97.893 42.0886 97.9018 42.0658 97.9044Z" fill="#FAFAFA"/>
<path d="M42.0658 97.3243C42.042 97.3245 42.0185 97.3181 41.998 97.3058C41.9776 97.2935 41.9609 97.2759 41.9498 97.2547C41.9331 97.2242 41.9291 97.1884 41.9387 97.1549C41.9482 97.1215 41.9706 97.0932 42.0009 97.0761C42.031 97.0598 42.7154 96.6956 43.3117 97.0761C43.3265 97.0853 43.3394 97.0974 43.3495 97.1116C43.3597 97.1259 43.3669 97.142 43.3708 97.159C43.3747 97.1761 43.3751 97.1937 43.3721 97.2109C43.3692 97.2282 43.3628 97.2446 43.3534 97.2594C43.334 97.2885 43.304 97.3089 43.2698 97.3163C43.2356 97.3236 43.1998 97.3174 43.1701 97.2988C42.7061 96.9972 42.1331 97.2988 42.1285 97.2988C42.1097 97.3118 42.0883 97.3205 42.0658 97.3243Z" fill="#FAFAFA"/>
<path d="M42.066 96.744C42.0424 96.7447 42.019 96.7387 41.9985 96.7269C41.978 96.715 41.9612 96.6976 41.95 96.6767C41.937 96.6487 41.934 96.617 41.9416 96.587C41.9492 96.557 41.967 96.5305 41.9918 96.512C42.022 96.4981 42.7064 96.1339 43.3026 96.512C43.3174 96.521 43.3302 96.5329 43.3403 96.5469C43.3504 96.561 43.3576 96.5769 43.3615 96.5937C43.3654 96.6106 43.3659 96.628 43.363 96.6451C43.36 96.6621 43.3537 96.6784 43.3444 96.693C43.3349 96.7076 43.3227 96.7203 43.3084 96.7302C43.2941 96.7401 43.2779 96.7471 43.2609 96.7508C43.2439 96.7545 43.2263 96.7547 43.2092 96.7516C43.192 96.7484 43.1757 96.7419 43.1611 96.7324C42.6971 96.4308 42.124 96.7324 42.1194 96.7324C42.1027 96.7402 42.0845 96.7441 42.066 96.744Z" fill="#FAFAFA"/>
<path d="M50.467 59.9283L50.808 70.2964C50.808 70.2964 47.2979 72.8484 41.709 70.9135V59.2671C41.7086 58.8476 41.8641 58.4429 42.1454 58.1317C42.4266 57.8204 42.8135 57.6248 43.2309 57.5828L47.3211 57.1675C47.7115 57.1292 48.1057 57.1714 48.4792 57.2916C48.8527 57.4118 49.1975 57.6073 49.4924 57.8661C49.7873 58.1248 50.0259 58.4414 50.1936 58.7961C50.3612 59.1508 50.4543 59.5362 50.467 59.9283Z" fill="#EF233C"/>
<path d="M38.9542 62.4082L37.9148 65.3082L30.623 66.7211V68.5771L38.9147 68.1131C39.2036 68.0973 39.4826 68.0024 39.7211 67.8387C39.9596 67.675 40.1486 67.4489 40.2673 67.1851L41.6918 64.0113L38.9542 62.4082Z" fill="#945959"/>
<path d="M43.2246 57.5874V58.9516C43.2242 60.0499 43.0115 61.1379 42.5982 62.1555L41.4126 65.0717C41.4126 65.0717 38.7632 64.5056 38.2969 63.2157L39.9951 59.2555C40.1972 58.7889 40.5269 58.3889 40.9464 58.1015C41.3659 57.8142 41.8581 57.6513 42.3662 57.6315L43.2246 57.5874Z" fill="#EF233C"/>
<path opacity="0.2" d="M43.2246 57.5874V58.9516C43.2242 60.0499 43.0115 61.1379 42.5982 62.1555L41.4126 65.0717C41.4126 65.0717 38.7632 64.5056 38.2969 63.2157L39.9951 59.2555C40.1972 58.7889 40.5269 58.3889 40.9464 58.1015C41.3659 57.8142 41.8581 57.6513 42.3662 57.6315L43.2246 57.5874Z" fill="black"/>
<path d="M49.6273 49.6133C49.6273 49.6133 51.1377 50.938 49.8269 53.8937L48.291 49.8986L49.6273 49.6133Z" fill="#263238"/>
<path d="M44.6465 57.4436L47.1962 59.3483V53.2861H44.6465V57.4436Z" fill="#945959"/>
<path d="M47.1953 56.7638C46.2534 56.4019 45.0609 55.7987 45.0609 55.2233L44.75 53.2861H47.1953V56.7638Z" fill="#703838"/>
<path d="M46.6659 48.7944C47.5939 48.7944 49.5635 49.3118 49.7909 51.7362C50.0183 54.1606 49.6633 56.2231 48.5474 56.2231C46.355 56.2231 44.2507 55.9447 44.2345 52.358C44.2183 49.1842 45.7634 48.7944 46.6659 48.7944Z" fill="#945959"/>
<path d="M44.6463 54.483L45.0036 53.3856C45.0302 53.4088 45.0629 53.4239 45.0979 53.429C45.1328 53.4341 45.1685 53.429 45.2006 53.4143C45.2327 53.3996 45.2599 53.3759 45.2788 53.3461C45.2978 53.3163 45.3078 53.2817 45.3075 53.2464V51.293C45.3075 51.293 46.217 51.0331 46.1219 50.2675C46.1219 50.2675 46.5859 50.6851 48.3746 50.6851C50.1633 50.6851 50.5971 49.1702 50.4185 48.3257C50.4185 48.3257 50.0867 48.6667 49.1425 48.6667C48.1983 48.6667 44.2705 47.4812 44.1591 49.8569C44.1591 49.8569 43.8274 49.3697 43.2915 49.8569L43.9875 50.2675C43.9875 50.2675 43.1708 50.242 43.2915 51.4438C43.3912 52.388 43.7856 54.1837 43.948 54.9029C43.9934 55.1018 44.1129 55.2761 44.2821 55.3901L44.6463 55.6337V54.483Z" fill="#263238"/>
<path d="M48.0605 52.4624V53.8938L48.8981 53.6363L48.0605 52.4624Z" fill="#703838"/>
<path d="M46.5746 52.7105C46.5718 52.769 46.5866 52.8269 46.6171 52.8768C46.6475 52.9267 46.6923 52.9664 46.7456 52.9906C46.7988 53.0148 46.8581 53.0224 46.9157 53.0126C46.9734 53.0027 47.0268 52.9758 47.069 52.9353C47.1112 52.8948 47.1402 52.8426 47.1524 52.7854C47.1646 52.7282 47.1594 52.6686 47.1374 52.6144C47.1153 52.5602 47.0776 52.5139 47.0289 52.4814C46.9803 52.4489 46.923 52.4317 46.8646 52.4321C46.7898 52.4326 46.718 52.4618 46.6641 52.5136C46.6102 52.5654 46.5781 52.6358 46.5746 52.7105Z" fill="#263238"/>
<path d="M48.7539 52.5086C48.7539 52.5666 48.7711 52.6232 48.8033 52.6713C48.8356 52.7194 48.8814 52.7569 48.9349 52.7789C48.9885 52.801 49.0474 52.8066 49.1041 52.7952C49.1609 52.7837 49.213 52.7556 49.2538 52.7145C49.2945 52.6734 49.3222 52.6211 49.3332 52.5642C49.3442 52.5074 49.3381 52.4485 49.3156 52.3952C49.2932 52.3418 49.2553 52.2963 49.2069 52.2644C49.1586 52.2326 49.1018 52.2159 49.0439 52.2163C49.0056 52.2163 48.9677 52.2239 48.9324 52.2386C48.8971 52.2533 48.865 52.2749 48.838 52.3021C48.8111 52.3293 48.7898 52.3615 48.7753 52.3969C48.7609 52.4324 48.7536 52.4704 48.7539 52.5086Z" fill="#263238"/>
<path d="M49.4004 51.9007L48.832 51.562C48.832 51.562 49.0501 51.33 49.2682 51.4715C49.3305 51.5217 49.3764 51.5894 49.4 51.6659C49.4235 51.7424 49.4237 51.8242 49.4004 51.9007Z" fill="#263238"/>
<path d="M46.2731 52.1122L46.8438 51.7734C46.8438 51.7734 46.6234 51.5414 46.4076 51.683C46.3447 51.7327 46.2981 51.8002 46.2741 51.8768C46.2501 51.9534 46.2498 52.0354 46.2731 52.1122Z" fill="#263238"/>
<path d="M48.4531 54.4738C48.1755 54.4932 47.8994 54.4188 47.669 54.2627C47.669 54.2627 47.6156 54.6757 47.9613 54.7545C48.0631 54.772 48.1679 54.7536 48.2576 54.7024C48.3473 54.6512 48.4164 54.5704 48.4531 54.4738Z" fill="#703838"/>
<path d="M44.8612 52.9774C45.1907 53.5505 45.1072 54.2441 44.6455 54.4831C44.3508 54.6339 43.4855 54.3045 43.1468 53.7338C42.808 53.163 43.0006 52.6712 43.4507 52.4114C43.9008 52.1515 44.5434 52.4067 44.8612 52.9774Z" fill="#945959"/>
<path d="M45.0287 53.4044L44.0195 52.3093L44.7434 51.8755L45.0287 53.4044Z" fill="#253239"/>
<path d="M40.5838 44.8226L39.1918 43.5535L35.38 50.249L32.248 51.3812L31.7121 50.2769L36.2616 43.7646L34.8696 42.4956C34.7258 42.5405 34.5796 42.5915 34.4311 42.6487C30.9511 44.0059 27.6637 48.1007 27.0976 51.7988C26.8331 53.5086 27.1997 54.8357 28.0256 55.6314L28.1671 55.7544L29.2691 56.7497L29.6403 57.1L24.6593 89.4315C22.3834 91.3339 20.5784 94.1898 20.1701 96.8393C19.9566 98.2313 20.1701 99.3704 20.6805 100.173V100.187L22.0725 101.456L22.4228 97.1339L24.4969 93.4915L25.1024 93.2758L27.6544 92.3594L28.8144 94.7536L26.5524 98.6002L25.0166 101.229L26.4086 102.498L28.2089 99.4214C30.5289 97.519 32.3849 94.619 32.7955 91.9278C32.9552 91.061 32.9011 90.1683 32.6378 89.3271H33.2224L31.9209 88.1393C31.4332 87.6529 30.7921 87.3504 30.1066 87.2832L35.1642 54.3392C37.468 52.4345 39.3031 49.5507 39.7138 46.8734C39.7486 46.6414 39.7671 46.4396 39.781 46.2308L40.5838 44.8226Z" fill="#EF233C"/>
<path d="M31.4841 88.5547L36.5417 55.6107C38.8454 53.706 40.6829 50.8222 41.0935 48.1449C41.307 46.7529 41.1051 45.6161 40.5831 44.8134L36.7714 51.5159L33.6231 52.6504L32.4631 50.2538L36.254 43.7578C36.1102 43.8019 35.9663 43.8529 35.8178 43.9109C32.3378 45.2658 29.0481 49.3629 28.482 53.0587C28.0737 55.7081 29.178 57.4342 31.1175 57.6987L26.0437 90.7123C23.7678 92.6147 21.9628 95.4729 21.5568 98.1224C21.3434 99.5144 21.5568 100.653 22.0672 101.456L25.879 94.7607L29.0249 93.6285L30.1849 96.0251L26.3917 102.521C26.5355 102.475 26.6817 102.426 26.8278 102.368C30.3078 101.013 33.5976 96.916 34.166 93.2202C34.5859 90.5244 33.4584 88.7913 31.4841 88.5547Z" fill="#EF233C"/>
<path d="M33.2092 89.3201L31.9077 88.1323C31.8071 88.0302 31.6985 87.9363 31.5829 87.8516L31.4785 88.5476C32.1239 88.6106 32.7314 88.8818 33.2092 89.3201Z" fill="#EF233C"/>
<path opacity="0.4" d="M33.2092 89.3201L31.9077 88.1323C31.8071 88.0302 31.6985 87.9363 31.5829 87.8516L31.4785 88.5476C32.1239 88.6106 32.7314 88.8818 33.2092 89.3201Z" fill="black"/>
<path d="M28.201 99.4237L30.1939 96.0133L29.0246 93.6167L28.3727 93.851L28.8065 94.7419L26.5515 98.6024L25.0156 101.231L26.4007 102.5L28.201 99.4237Z" fill="#EF233C"/>
<path opacity="0.2" d="M28.1477 55.7545L29.2497 56.7498L29.2706 56.7684C28.5421 55.9633 28.2243 54.6804 28.4748 53.068C29.0409 49.3722 32.326 45.2751 35.8107 43.9202C35.9592 43.8622 36.103 43.8112 36.2468 43.7671L34.8548 42.498C34.711 42.5429 34.5648 42.5939 34.4164 42.6512C30.9364 44.0084 27.6489 48.1032 27.0828 51.8012C26.8184 53.5111 27.1849 54.8381 28.0108 55.6339L28.1477 55.7545Z" fill="black"/>
<path opacity="0.2" d="M39.1965 43.5513L35.3848 50.2468L36.7721 51.5158L40.5839 44.8226L39.1965 43.5513Z" fill="black"/>
<path opacity="0.4" d="M35.3846 50.2466L36.772 51.5156L33.6237 52.6501L32.8906 51.1444L35.3846 50.2466Z" fill="black"/>
<path opacity="0.3" d="M31.1121 57.7055C30.5607 57.6391 30.0383 57.4224 29.6018 57.0791L29.6226 57.1L24.6602 89.4315L26.0522 90.7005L31.1121 57.7055Z" fill="black"/>
<path opacity="0.2" d="M20.1701 96.8395C19.9566 98.2315 20.1701 99.3706 20.6805 100.173V100.187L22.0725 101.456C21.5505 100.654 21.3486 99.5168 21.5621 98.1225C21.9681 95.473 23.773 92.6148 26.049 90.7124L24.657 89.4434C22.3834 91.3342 20.5784 94.1924 20.1701 96.8395Z" fill="black"/>
<path opacity="0.4" d="M28.8069 94.7419L30.1942 96.0133L29.025 93.6167L28.373 93.851L28.8069 94.7419Z" fill="black"/>
<path opacity="0.2" d="M25.0156 101.231L26.4007 102.5L30.1939 96.0136L28.8065 94.7422L25.0156 101.231Z" fill="black"/>
<path d="M85.5508 82.8243L80.7136 80.0403C80.4422 79.8431 80.0733 79.8384 79.665 80.0728L70.9 85.1211C70.327 85.4528 69.8282 86.1744 69.5776 86.9516C69.5567 87.0142 69.5358 87.0792 69.5196 87.1441V87.1766C69.5057 87.2346 69.4894 87.2926 69.4778 87.3506C69.4778 87.3715 69.4778 87.3924 69.4778 87.4132C69.4778 87.4341 69.4593 87.5084 69.4523 87.5571C69.4454 87.6058 69.4523 87.6244 69.4523 87.6592C69.4523 87.694 69.4523 87.7288 69.4523 87.7636C69.4523 87.8332 69.4523 87.9004 69.4523 87.97V95.5564C69.447 95.8215 69.4976 96.0848 69.6008 96.329C69.6189 96.3706 69.6398 96.4109 69.6634 96.4496C69.6964 96.5069 69.7353 96.5606 69.7794 96.6097C69.7794 96.6097 69.7794 96.6236 69.7957 96.6283C69.8552 96.6885 69.9242 96.7387 69.9998 96.7768L74.837 99.5608C74.8843 99.5963 74.9357 99.6259 74.9902 99.6489C75.1392 99.7047 75.2994 99.7238 75.4574 99.7044C75.6153 99.685 75.7662 99.6278 75.8973 99.5376L84.6622 94.4776C85.4882 93.9997 86.1586 92.7191 86.1586 91.6194V84.0469C86.1192 83.4136 85.8965 82.9774 85.5508 82.8243Z" fill="#EF233C"/>
<path opacity="0.2" d="M80.7143 80.0403C80.4428 79.8431 80.0739 79.8384 79.6656 80.0728L70.9007 85.1211C70.498 85.3795 70.1662 85.7343 69.9355 86.1535L74.9305 88.9375C75.1557 88.5437 75.4744 88.2114 75.8585 87.97L84.6235 82.9078C84.7574 82.8149 84.9125 82.7568 85.0745 82.739C85.2366 82.7212 85.4005 82.7441 85.5515 82.8057L80.7143 80.0403Z" fill="black"/>
<path opacity="0.4" d="M69.9349 86.1533C69.7883 86.4062 69.6685 86.6736 69.5776 86.9514C69.5567 87.014 69.5358 87.079 69.5196 87.144V87.1764C69.5057 87.2344 69.4894 87.2924 69.4778 87.3504C69.4778 87.3713 69.4778 87.3922 69.4778 87.4131C69.4778 87.434 69.4593 87.5082 69.4523 87.5569C69.4454 87.6056 69.4523 87.6242 69.4523 87.659C69.4523 87.6938 69.4523 87.7286 69.4523 87.7634C69.4523 87.833 69.4523 87.9003 69.4523 87.9699V95.5563C69.447 95.8214 69.4976 96.0846 69.6008 96.3288C69.6189 96.3704 69.6398 96.4108 69.6634 96.4495C69.6964 96.5067 69.7353 96.5604 69.7794 96.6096C69.7794 96.6096 69.7794 96.6235 69.7957 96.6281C69.8552 96.6884 69.9242 96.7385 69.9998 96.7766L74.837 99.5606C74.5679 99.3564 74.4009 98.9551 74.4009 98.4006V90.8142C74.4191 90.1446 74.6153 89.492 74.9693 88.9234L69.9349 86.1533Z" fill="black"/>
<path d="M74.3684 86.1279C74.2634 86.1279 74.1594 86.1072 74.0625 86.0669C73.9655 86.0267 73.8774 85.9677 73.8033 85.8933C73.7291 85.819 73.6704 85.7307 73.6304 85.6336C73.5904 85.5365 73.57 85.4325 73.5703 85.3275V80.0565C73.5703 77.7365 75.1502 74.9896 77.1663 73.8249C78.2799 73.1823 79.3657 73.1034 80.2287 73.5929C81.0918 74.0824 81.565 75.0731 81.565 76.356V81.6294C81.565 81.8417 81.4807 82.0453 81.3306 82.1954C81.1805 82.3455 80.9769 82.4298 80.7646 82.4298C80.5524 82.4298 80.3488 82.3455 80.1987 82.1954C80.0486 82.0453 79.9642 81.8417 79.9642 81.6294V76.363C79.9642 75.6856 79.7694 75.1821 79.4283 74.9873C79.0873 74.7924 78.556 74.8713 77.9667 75.2193C76.4518 76.0962 75.1688 78.3049 75.1688 80.0565V85.3275C75.1691 85.4327 75.1486 85.5369 75.1085 85.6342C75.0684 85.7314 75.0094 85.8198 74.9351 85.8941C74.8607 85.9685 74.7723 86.0275 74.6751 86.0676C74.5778 86.1077 74.4736 86.1282 74.3684 86.1279Z" fill="#37474F"/>
<path d="M81.2364 90.7124L82.0809 93.1415L79.1137 94.8629L79.8561 91.8724L79.9604 91.4479C79.4593 91.4618 79.1113 91.0743 79.1113 90.3899C79.1156 90.1152 79.1625 89.8428 79.2505 89.5826C79.4821 88.8572 79.9576 88.2342 80.5961 87.8194C81.4174 87.3554 82.0809 87.7289 82.0809 88.6778C82.0405 89.4342 81.7406 90.1536 81.2318 90.7147L81.2364 90.7124Z" fill="#455A64"/>
<path d="M79.8561 91.8724L79.9604 91.4478C79.4593 91.4617 79.1113 91.0743 79.1113 90.3899C79.1156 90.1152 79.1625 89.8428 79.2505 89.5825L81.2364 90.7286L82.0809 93.1576L79.8561 91.8724Z" fill="#37474F"/>
</svg>
