<svg width="116" height="116" viewBox="0 0 116 116" fill="none" xmlns="http://www.w3.org/2000/svg">
<g clip-path="url(#clip0_2075_12482)">
<path d="M75.1291 8.36606C75.1291 8.36606 56.7222 1.13462 39.1181 11.3403C21.5139 21.546 13.0575 42.5443 5.76113 59.3504C-1.53527 76.1565 3.39473 93.5959 17.2637 101.871C31.1326 110.147 40.1087 98.7672 59.2557 98.7347C78.4026 98.7022 83.6296 101.688 99.227 90.9024C114.824 80.1167 116.987 53.678 103.918 33.7051C90.8494 13.7322 75.1291 8.36606 75.1291 8.36606Z" fill="#EF233C"/>
<path opacity="0.7" d="M75.1291 8.36606C75.1291 8.36606 56.7222 1.13462 39.1181 11.3403C21.5139 21.546 13.0575 42.5443 5.76113 59.3504C-1.53527 76.1565 3.39473 93.5959 17.2637 101.871C31.1326 110.147 40.1087 98.7672 59.2557 98.7347C78.4026 98.7022 83.6296 101.688 99.227 90.9024C114.824 80.1167 116.987 53.678 103.918 33.7051C90.8494 13.7322 75.1291 8.36606 75.1291 8.36606Z" fill="white"/>
<path d="M28.072 109.604V101.345C27.9809 101.375 27.8879 101.399 27.7936 101.417C27.6173 101.458 27.4178 101.5 27.1951 101.542L26.6035 101.651C26.4318 101.686 26.3413 101.702 26.332 101.702V100.702C26.4712 100.669 26.636 100.623 26.8192 100.567C27.0122 100.507 27.2019 100.436 27.3876 100.356C27.5832 100.274 27.7691 100.171 27.9421 100.048C28.1144 99.929 28.2664 99.7833 28.3922 99.6162H29.3898V109.604H28.072Z" fill="#263238"/>
<path d="M53.7793 109.604V108.676L56.3174 104.718C56.5076 104.423 56.6816 104.147 56.8417 103.892C57.0021 103.638 57.1344 103.367 57.2361 103.085C57.3452 102.77 57.3979 102.439 57.3915 102.106C57.4076 101.73 57.3278 101.356 57.1595 101.02C57.0805 100.888 56.9655 100.78 56.828 100.71C56.6904 100.641 56.5359 100.611 56.3823 100.626C56.25 100.617 56.1174 100.636 55.9925 100.681C55.8677 100.725 55.7532 100.795 55.6562 100.885C55.4743 101.072 55.3502 101.307 55.2989 101.563C55.2302 101.858 55.1967 102.16 55.1991 102.463V102.776H53.8791V102.431C53.8648 101.905 53.9434 101.381 54.1111 100.883C54.2557 100.474 54.5282 100.121 54.8883 99.8786C55.3178 99.6225 55.8132 99.4982 56.3127 99.5213C57.1178 99.5213 57.7187 99.7533 58.1131 100.206C58.5075 100.658 58.7047 101.294 58.7047 102.099C58.7117 102.479 58.6592 102.858 58.5492 103.222C58.4501 103.536 58.3163 103.838 58.1502 104.122C57.9862 104.4 57.8053 104.688 57.6073 104.985L55.3128 108.486H58.4703V109.595L53.7793 109.604Z" fill="#263238"/>
<path d="M82.4767 109.716C82.0051 109.733 81.5373 109.626 81.1195 109.407C80.7615 109.205 80.4771 108.895 80.3075 108.521C80.1177 108.09 80.025 107.623 80.036 107.152V106.818H81.3422V107.05C81.348 107.32 81.383 107.588 81.4466 107.85C81.4972 108.069 81.6138 108.268 81.7807 108.419C81.9796 108.571 82.227 108.645 82.4767 108.627C82.7401 108.645 83.0003 108.562 83.2052 108.395C83.3801 108.219 83.496 107.993 83.5369 107.748C83.5979 107.431 83.6267 107.108 83.6228 106.785C83.6419 106.338 83.5418 105.894 83.3328 105.498C83.225 105.326 83.0748 105.186 82.8968 105.09C82.7188 104.993 82.519 104.944 82.3166 104.948C82.2858 104.944 82.2546 104.944 82.2238 104.948H82.1287V103.612H82.3027C82.4875 103.622 82.6724 103.594 82.8463 103.531C83.0202 103.468 83.1794 103.37 83.3142 103.243C83.5184 103.012 83.6204 102.63 83.6204 102.097C83.6368 101.721 83.557 101.347 83.3884 101.011C83.2353 100.739 82.9244 100.605 82.4813 100.605C82.0382 100.605 81.7296 100.753 81.5812 101.055C81.419 101.42 81.3352 101.815 81.3352 102.215V102.426H80.0407V102.08C80.0277 101.61 80.1205 101.142 80.3121 100.712C80.4866 100.341 80.7731 100.035 81.1311 99.837C81.5575 99.6338 82.024 99.5283 82.4964 99.5283C82.9688 99.5283 83.4353 99.6338 83.8617 99.837C84.2191 100.038 84.5041 100.346 84.676 100.719C84.8674 101.151 84.9602 101.621 84.9475 102.094C84.9722 102.604 84.8367 103.109 84.56 103.537C84.3055 103.894 83.9375 104.154 83.516 104.275C83.8101 104.359 84.0767 104.519 84.2886 104.739C84.5097 104.982 84.6758 105.27 84.7758 105.584C84.8964 105.969 84.9544 106.37 84.9475 106.774C84.9586 107.3 84.8753 107.824 84.7016 108.321C84.5548 108.738 84.2784 109.096 83.9128 109.344C83.482 109.609 82.9817 109.738 82.4767 109.716Z" fill="#263238"/>
<g opacity="0.3">
<path d="M88.75 63.2852H71.9207C71.8899 63.2852 71.8604 63.2729 71.8387 63.2512C71.8169 63.2294 71.8047 63.1999 71.8047 63.1692V49.284C71.8047 49.2532 71.8169 49.2237 71.8387 49.2019C71.8604 49.1802 71.8899 49.168 71.9207 49.168H77.5606C77.5914 49.168 77.6209 49.1802 77.6426 49.2019C77.6644 49.2237 77.6766 49.2532 77.6766 49.284V49.8454C77.6766 49.9777 77.7292 50.1046 77.8227 50.1981C77.9162 50.2917 78.0431 50.3442 78.1754 50.3442C78.3077 50.3442 78.4346 50.2917 78.5281 50.1981C78.6217 50.1046 78.6742 49.9777 78.6742 49.8454V49.284C78.6742 49.2532 78.6864 49.2237 78.7082 49.2019C78.7299 49.1802 78.7594 49.168 78.7902 49.168H81.8781C81.9089 49.168 81.9384 49.1802 81.9602 49.2019C81.9819 49.2237 81.9941 49.2532 81.9941 49.284V49.8454C81.9895 49.9136 81.9989 49.9821 82.0218 50.0465C82.0447 50.1109 82.0806 50.1699 82.1272 50.2199C82.1739 50.2698 82.2303 50.3097 82.2931 50.3369C82.3558 50.3642 82.4234 50.3782 82.4918 50.3782C82.5601 50.3782 82.6278 50.3642 82.6905 50.3369C82.7532 50.3097 82.8096 50.2698 82.8563 50.2199C82.903 50.1699 82.9389 50.1109 82.9618 50.0465C82.9847 49.9821 82.9941 49.9136 82.9894 49.8454V49.284C82.9894 49.2532 83.0016 49.2237 83.0234 49.2019C83.0451 49.1802 83.0746 49.168 83.1054 49.168H88.7476C88.7784 49.168 88.8079 49.1802 88.8297 49.2019C88.8514 49.2237 88.8636 49.2532 88.8636 49.284V63.1692C88.8637 63.1995 88.8518 63.2287 88.8305 63.2504C88.8092 63.2721 88.7803 63.2846 88.75 63.2852ZM72.046 63.0532H88.6247V49.4H83.2237V49.8454C83.2293 49.9447 83.2146 50.0441 83.1805 50.1375C83.1463 50.2309 83.0935 50.3163 83.0252 50.3886C82.9569 50.4608 82.8746 50.5184 82.7832 50.5577C82.6919 50.5971 82.5935 50.6174 82.4941 50.6174C82.3947 50.6174 82.2963 50.5971 82.2049 50.5577C82.1136 50.5184 82.0313 50.4608 81.963 50.3886C81.8947 50.3163 81.8418 50.2309 81.8077 50.1375C81.7736 50.0441 81.7588 49.9447 81.7644 49.8454V49.4H78.9085V49.8454C78.9085 50.0392 78.8315 50.2251 78.6945 50.3622C78.5574 50.4992 78.3715 50.5762 78.1777 50.5762C77.9839 50.5762 77.798 50.4992 77.661 50.3622C77.5239 50.2251 77.4469 50.0392 77.4469 49.8454V49.4H72.039L72.046 63.0532Z" fill="black"/>
<path d="M75.0518 55.4203H72.9383C72.9075 55.4203 72.878 55.4081 72.8562 55.3864C72.8345 55.3646 72.8223 55.3351 72.8223 55.3043V53.1931C72.8223 53.1624 72.8345 53.1329 72.8562 53.1111C72.878 53.0894 72.9075 53.0771 72.9383 53.0771H75.0518C75.0825 53.0771 75.1121 53.0894 75.1338 53.1111C75.1556 53.1329 75.1678 53.1624 75.1678 53.1931V55.3043C75.1678 55.3351 75.1556 55.3646 75.1338 55.3864C75.1121 55.4081 75.0825 55.4203 75.0518 55.4203ZM73.0543 55.1883H74.9358V53.3091H73.0543V55.1883Z" fill="black"/>
<path d="M78.2237 55.4203H76.1101C76.0794 55.4203 76.0499 55.4081 76.0281 55.3864C76.0064 55.3646 75.9941 55.3351 75.9941 55.3043V53.1931C75.9941 53.1624 76.0064 53.1329 76.0281 53.1111C76.0499 53.0894 76.0794 53.0771 76.1101 53.0771H78.2237C78.2544 53.0771 78.2839 53.0894 78.3057 53.1111C78.3274 53.1329 78.3397 53.1624 78.3397 53.1931V55.3043C78.3397 55.3351 78.3274 55.3646 78.3057 55.3864C78.2839 55.4081 78.2544 55.4203 78.2237 55.4203ZM76.2261 55.1883H78.1077V53.3091H76.2261V55.1883Z" fill="black"/>
<path d="M81.3936 55.4203H79.2801C79.2493 55.4203 79.2198 55.4081 79.198 55.3864C79.1763 55.3646 79.1641 55.3351 79.1641 55.3043V53.1931C79.1641 53.1624 79.1763 53.1329 79.198 53.1111C79.2198 53.0894 79.2493 53.0771 79.2801 53.0771H81.3936C81.4243 53.0771 81.4539 53.0894 81.4756 53.1111C81.4974 53.1329 81.5096 53.1624 81.5096 53.1931V55.3043C81.5096 55.3351 81.4974 55.3646 81.4756 55.3864C81.4539 55.4081 81.4243 55.4203 81.3936 55.4203ZM79.3961 55.1883H81.2776V53.3091H79.3961V55.1883Z" fill="black"/>
<path d="M84.5615 55.4203H82.448C82.4173 55.4203 82.3878 55.4081 82.366 55.3864C82.3443 55.3646 82.332 55.3351 82.332 55.3043V53.1931C82.332 53.1624 82.3443 53.1329 82.366 53.1111C82.3878 53.0894 82.4173 53.0771 82.448 53.0771H84.5615C84.5923 53.0771 84.6218 53.0894 84.6436 53.1111C84.6653 53.1329 84.6775 53.1624 84.6775 53.1931V55.3043C84.6775 55.3351 84.6653 55.3646 84.6436 55.3864C84.6218 55.4081 84.5923 55.4203 84.5615 55.4203ZM82.564 55.1883H84.4479V53.3091H82.5664L82.564 55.1883Z" fill="black"/>
<path d="M87.7334 55.4203H85.6199C85.5891 55.4203 85.5596 55.4081 85.5379 55.3864C85.5161 55.3646 85.5039 55.3351 85.5039 55.3043V53.1931C85.5039 53.1624 85.5161 53.1329 85.5379 53.1111C85.5596 53.0894 85.5891 53.0771 85.6199 53.0771H87.7334C87.7642 53.0771 87.7937 53.0894 87.8155 53.1111C87.8372 53.1329 87.8494 53.1624 87.8494 53.1931V55.3043C87.8494 55.3351 87.8372 55.3646 87.8155 55.3864C87.7937 55.4081 87.7642 55.4203 87.7334 55.4203ZM85.7359 55.1883H87.6174V53.3091H85.7359V55.1883Z" fill="black"/>
<path d="M75.0518 58.68H72.9383C72.9077 58.6794 72.8785 58.667 72.8569 58.6454C72.8353 58.6237 72.8229 58.5946 72.8223 58.564V56.4505C72.8223 56.4197 72.8345 56.3902 72.8562 56.3684C72.878 56.3467 72.9075 56.3345 72.9383 56.3345H75.0518C75.0825 56.3345 75.1121 56.3467 75.1338 56.3684C75.1556 56.3902 75.1678 56.4197 75.1678 56.4505V58.564C75.1678 58.5948 75.1556 58.6243 75.1338 58.646C75.1121 58.6678 75.0825 58.68 75.0518 58.68ZM73.0543 58.448H74.9358V56.5665H73.0543V58.448Z" fill="black"/>
<path d="M78.2237 58.68H76.1101C76.0794 58.68 76.0499 58.6678 76.0281 58.646C76.0064 58.6243 75.9941 58.5948 75.9941 58.564V56.4505C75.9941 56.4197 76.0064 56.3902 76.0281 56.3684C76.0499 56.3467 76.0794 56.3345 76.1101 56.3345H78.2237C78.2544 56.3345 78.2839 56.3467 78.3057 56.3684C78.3274 56.3902 78.3397 56.4197 78.3397 56.4505V58.564C78.3391 58.5946 78.3267 58.6237 78.305 58.6454C78.2834 58.667 78.2542 58.6794 78.2237 58.68ZM76.2261 58.448H78.1077V56.5665H76.2261V58.448Z" fill="black"/>
<path d="M81.3936 58.68H79.2801C79.2495 58.6794 79.2203 58.667 79.1987 58.6454C79.1771 58.6237 79.1647 58.5946 79.1641 58.564V56.4505C79.1641 56.4197 79.1763 56.3902 79.198 56.3684C79.2198 56.3467 79.2493 56.3345 79.2801 56.3345H81.3936C81.4243 56.3345 81.4539 56.3467 81.4756 56.3684C81.4974 56.3902 81.5096 56.4197 81.5096 56.4505V58.564C81.5096 58.5948 81.4974 58.6243 81.4756 58.646C81.4539 58.6678 81.4243 58.68 81.3936 58.68ZM79.3961 58.448H81.2776V56.5665H79.3961V58.448Z" fill="black"/>
<path d="M84.5615 58.68H82.448C82.4175 58.6794 82.3883 58.667 82.3667 58.6454C82.345 58.6237 82.3326 58.5946 82.332 58.564V56.4505C82.332 56.4197 82.3443 56.3902 82.366 56.3684C82.3878 56.3467 82.4173 56.3345 82.448 56.3345H84.5615C84.5923 56.3345 84.6218 56.3467 84.6436 56.3684C84.6653 56.3902 84.6775 56.4197 84.6775 56.4505V58.564C84.6775 58.5948 84.6653 58.6243 84.6436 58.646C84.6218 58.6678 84.5923 58.68 84.5615 58.68ZM82.564 58.448H84.4479V56.5665H82.5664L82.564 58.448Z" fill="black"/>
<path d="M87.7334 58.68H85.6199C85.5891 58.68 85.5596 58.6678 85.5379 58.646C85.5161 58.6243 85.5039 58.5948 85.5039 58.564V56.4505C85.5039 56.4197 85.5161 56.3902 85.5379 56.3684C85.5596 56.3467 85.5891 56.3345 85.6199 56.3345H87.7334C87.7642 56.3345 87.7937 56.3467 87.8155 56.3684C87.8372 56.3902 87.8494 56.4197 87.8494 56.4505V58.564C87.8488 58.5946 87.8364 58.6237 87.8148 58.6454C87.7932 58.667 87.764 58.6794 87.7334 58.68ZM85.7359 58.448H87.6174V56.5665H85.7359V58.448Z" fill="black"/>
<path d="M75.0518 61.9441H72.9383C72.9075 61.9441 72.878 61.9319 72.8562 61.9102C72.8345 61.8884 72.8223 61.8589 72.8223 61.8281V59.7146C72.8229 59.6841 72.8353 59.6549 72.8569 59.6333C72.8785 59.6116 72.9077 59.5992 72.9383 59.5986H75.0518C75.0825 59.5986 75.1121 59.6108 75.1338 59.6326C75.1556 59.6544 75.1678 59.6839 75.1678 59.7146V61.8281C75.1678 61.8589 75.1556 61.8884 75.1338 61.9102C75.1121 61.9319 75.0825 61.9441 75.0518 61.9441ZM73.0543 61.7121H74.9358V59.8306H73.0543V61.7121Z" fill="black"/>
<path d="M78.2237 61.9441H76.1101C76.0794 61.9441 76.0499 61.9319 76.0281 61.9102C76.0064 61.8884 75.9941 61.8589 75.9941 61.8281V59.7146C75.9941 59.6839 76.0064 59.6544 76.0281 59.6326C76.0499 59.6108 76.0794 59.5986 76.1101 59.5986H78.2237C78.2542 59.5992 78.2834 59.6116 78.305 59.6333C78.3267 59.6549 78.3391 59.6841 78.3397 59.7146V61.8281C78.3397 61.8589 78.3274 61.8884 78.3057 61.9102C78.2839 61.9319 78.2544 61.9441 78.2237 61.9441ZM76.2261 61.7121H78.1077V59.8306H76.2261V61.7121Z" fill="black"/>
<path d="M81.3936 61.9441H79.2801C79.2493 61.9441 79.2198 61.9319 79.198 61.9102C79.1763 61.8884 79.1641 61.8589 79.1641 61.8281V59.7146C79.1647 59.6841 79.1771 59.6549 79.1987 59.6333C79.2203 59.6116 79.2495 59.5992 79.2801 59.5986H81.3936C81.4243 59.5986 81.4539 59.6108 81.4756 59.6326C81.4974 59.6544 81.5096 59.6839 81.5096 59.7146V61.8281C81.5096 61.8589 81.4974 61.8884 81.4756 61.9102C81.4539 61.9319 81.4243 61.9441 81.3936 61.9441ZM79.3961 61.7121H81.2776V59.8306H79.3961V61.7121Z" fill="black"/>
<path d="M84.5615 61.9441H82.448C82.4173 61.9441 82.3878 61.9319 82.366 61.9102C82.3443 61.8884 82.332 61.8589 82.332 61.8281V59.7146C82.3326 59.6841 82.345 59.6549 82.3667 59.6333C82.3883 59.6116 82.4175 59.5992 82.448 59.5986H84.5615C84.5923 59.5986 84.6218 59.6108 84.6436 59.6326C84.6653 59.6544 84.6775 59.6839 84.6775 59.7146V61.8281C84.6775 61.8589 84.6653 61.8884 84.6436 61.9102C84.6218 61.9319 84.5923 61.9441 84.5615 61.9441ZM82.564 61.7121H84.4479V59.8306H82.5664L82.564 61.7121Z" fill="black"/>
<path d="M87.7334 61.9441H85.6199C85.5891 61.9441 85.5596 61.9319 85.5379 61.9102C85.5161 61.8884 85.5039 61.8589 85.5039 61.8281V59.7146C85.5039 59.6839 85.5161 59.6544 85.5379 59.6326C85.5596 59.6108 85.5891 59.5986 85.6199 59.5986H87.7334C87.764 59.5992 87.7932 59.6116 87.8148 59.6333C87.8364 59.6549 87.8488 59.6841 87.8494 59.7146V61.8281C87.8494 61.8589 87.8372 61.8884 87.8155 61.9102C87.7937 61.9319 87.7642 61.9441 87.7334 61.9441ZM85.7359 61.7121H87.6174V59.8306H85.7359V61.7121Z" fill="black"/>
<path d="M78.1839 50.5761C77.9903 50.5755 77.8048 50.4983 77.6678 50.3614C77.5309 50.2245 77.4537 50.0389 77.4531 49.8453V47.7318C77.4531 47.538 77.5301 47.3521 77.6672 47.215C77.8042 47.078 77.9901 47.001 78.1839 47.001C78.3777 47.001 78.5636 47.078 78.7007 47.215C78.8377 47.3521 78.9147 47.538 78.9147 47.7318V49.8453C78.9147 49.9413 78.8958 50.0363 78.8591 50.125C78.8224 50.2136 78.7685 50.2942 78.7007 50.3621C78.6328 50.4299 78.5523 50.4837 78.4636 50.5205C78.3749 50.5572 78.2799 50.5761 78.1839 50.5761ZM78.1839 47.2353C78.052 47.2353 77.9255 47.2875 77.832 47.3806C77.7386 47.4736 77.6857 47.5999 77.6851 47.7318V49.8453C77.6851 49.9776 77.7377 50.1045 77.8312 50.198C77.9248 50.2915 78.0516 50.3441 78.1839 50.3441C78.3162 50.3441 78.4431 50.2915 78.5366 50.198C78.6302 50.1045 78.6827 49.9776 78.6827 49.8453V47.7318C78.6827 47.6664 78.6698 47.6016 78.6447 47.5412C78.6196 47.4809 78.5828 47.426 78.5365 47.3799C78.4901 47.3338 78.4351 47.2972 78.3746 47.2724C78.3141 47.2476 78.2493 47.235 78.1839 47.2353Z" fill="black"/>
<path d="M82.4945 50.576C82.3008 50.5753 82.1153 50.4982 81.9784 50.3612C81.8415 50.2243 81.7643 50.0388 81.7637 49.8452V47.7316C81.7742 47.5452 81.8556 47.3699 81.9913 47.2417C82.127 47.1134 82.3066 47.042 82.4933 47.042C82.68 47.042 82.8596 47.1134 82.9953 47.2417C83.131 47.3699 83.2124 47.5452 83.223 47.7316V49.8452C83.223 50.0386 83.1463 50.2241 83.0097 50.3611C82.8732 50.4981 82.6879 50.5753 82.4945 50.576ZM82.4945 47.2352C82.3626 47.2352 82.2361 47.2874 82.1426 47.3804C82.0491 47.4735 81.9963 47.5997 81.9957 47.7316V49.8452C81.991 49.9134 82.0004 49.9818 82.0233 50.0462C82.0462 50.1106 82.0821 50.1697 82.1288 50.2196C82.1755 50.2696 82.2319 50.3094 82.2946 50.3367C82.3573 50.3639 82.4249 50.378 82.4933 50.378C82.5617 50.378 82.6293 50.3639 82.692 50.3367C82.7547 50.3094 82.8112 50.2696 82.8578 50.2196C82.9045 50.1697 82.9404 50.1106 82.9633 50.0462C82.9862 49.9818 82.9956 49.9134 82.991 49.8452V47.7316C82.991 47.6 82.9386 47.4737 82.8455 47.3806C82.7524 47.2875 82.6261 47.2352 82.4945 47.2352Z" fill="black"/>
</g>
<g opacity="0.3">
<path d="M11.3679 42.4069H8.88553C8.85477 42.4069 8.82526 42.3946 8.80351 42.3729C8.78175 42.3511 8.76953 42.3216 8.76953 42.2909V36.5535C8.76953 36.5227 8.78175 36.4932 8.80351 36.4715C8.82526 36.4497 8.85477 36.4375 8.88553 36.4375H11.3679C11.3987 36.4375 11.4282 36.4497 11.45 36.4715C11.4717 36.4932 11.4839 36.5227 11.4839 36.5535V42.2909C11.4839 42.3216 11.4717 42.3511 11.45 42.3729C11.4282 42.3946 11.3987 42.4069 11.3679 42.4069ZM9.00849 42.1749H11.2519V36.6695H9.00153L9.00849 42.1749Z" fill="black"/>
<path d="M14.6754 42.4072H12.2C12.1692 42.4072 12.1397 42.395 12.118 42.3732C12.0962 42.3515 12.084 42.322 12.084 42.2912V33.6214C12.084 33.5906 12.0962 33.5611 12.118 33.5393C12.1397 33.5176 12.1692 33.5054 12.2 33.5054H14.6754C14.7062 33.5054 14.7357 33.5176 14.7574 33.5393C14.7792 33.5611 14.7914 33.5906 14.7914 33.6214V42.2912C14.7914 42.322 14.7792 42.3515 14.7574 42.3732C14.7357 42.395 14.7062 42.4072 14.6754 42.4072ZM12.316 42.1752H14.5594V33.7374H12.316V42.1752Z" fill="black"/>
<path d="M17.9922 42.4068H15.5144C15.4837 42.4068 15.4542 42.3946 15.4324 42.3728C15.4107 42.3511 15.3984 42.3216 15.3984 42.2908V29.9275C15.3984 29.8968 15.4107 29.8673 15.4324 29.8455C15.4542 29.8237 15.4837 29.8115 15.5144 29.8115H17.9922C18.023 29.8115 18.0525 29.8237 18.0742 29.8455C18.096 29.8673 18.1082 29.8968 18.1082 29.9275V42.2954C18.107 42.3254 18.0942 42.3537 18.0726 42.3745C18.051 42.3952 18.0222 42.4068 17.9922 42.4068ZM15.6304 42.1748H17.8762V30.0389H15.6304V42.1748Z" fill="black"/>
<path d="M21.3066 42.407H18.8289C18.7981 42.407 18.7686 42.3948 18.7469 42.3731C18.7251 42.3513 18.7129 42.3218 18.7129 42.291V27.3758C18.7129 27.345 18.7251 27.3155 18.7469 27.2937C18.7686 27.272 18.7981 27.2598 18.8289 27.2598H21.3066C21.3374 27.2598 21.3669 27.272 21.3887 27.2937C21.4104 27.3155 21.4226 27.345 21.4226 27.3758V42.2934C21.422 42.3237 21.4096 42.3526 21.3879 42.3739C21.3662 42.3952 21.337 42.4071 21.3066 42.407ZM18.9449 42.175H21.1906V27.4894H18.9449V42.175Z" fill="black"/>
</g>
<path d="M110.788 39.5442C115.6 34.7323 115.6 26.9308 110.788 22.1189C105.976 17.3071 98.1749 17.3071 93.363 22.1189C88.5512 26.9308 88.5512 34.7323 93.363 39.5442C98.1749 44.356 105.976 44.356 110.788 39.5442Z" fill="#EF233C"/>
<path d="M102.08 43.2681C99.6202 43.2681 97.2155 42.5387 95.1702 41.172C93.1248 39.8054 91.5307 37.8629 90.5893 35.5902C89.648 33.3176 89.4017 30.8168 89.8816 28.4042C90.3615 25.9915 91.546 23.7754 93.2854 22.0359C95.0249 20.2965 97.241 19.112 99.6537 18.6321C102.066 18.1522 104.567 18.3985 106.84 19.3398C109.112 20.2812 111.055 21.8753 112.422 23.9207C113.788 25.966 114.518 28.3707 114.518 30.8306C114.514 34.1281 113.202 37.2895 110.871 39.6212C108.539 41.9529 105.378 43.2644 102.08 43.2681ZM102.08 18.6251C99.6661 18.6251 97.3063 19.3409 95.2991 20.6821C93.2919 22.0232 91.7275 23.9295 90.8037 26.1597C89.8799 28.39 89.6382 30.8441 90.1091 33.2118C90.5801 35.5794 91.7425 37.7542 93.4495 39.4612C95.1565 41.1682 97.3313 42.3306 99.6989 42.8016C102.067 43.2725 104.521 43.0308 106.751 42.107C108.981 41.1832 110.887 39.6188 112.229 37.6116C113.57 35.6044 114.286 33.2446 114.286 30.8306C114.282 27.5946 112.995 24.4922 110.707 22.2041C108.418 19.9159 105.316 18.6288 102.08 18.6251Z" fill="#263238"/>
<path d="M109.054 37.8085C112.907 33.9552 112.907 27.7078 109.054 23.8545C105.201 20.0013 98.9533 20.0013 95.1 23.8545C91.2468 27.7078 91.2468 33.9552 95.1 37.8085C98.9533 41.6618 105.201 41.6618 109.054 37.8085Z" fill="white"/>
<path d="M102.081 40.8133C100.108 40.8133 98.1796 40.2282 96.5391 39.1321C94.8986 38.0359 93.6199 36.4779 92.8649 34.655C92.1098 32.8321 91.9122 30.8263 92.2972 28.8911C92.6821 26.956 93.6322 25.1784 95.0274 23.7832C96.4225 22.3881 98.2001 21.4379 100.135 21.053C102.07 20.6681 104.076 20.8657 105.899 21.6207C107.722 22.3758 109.28 23.6544 110.376 25.295C111.472 26.9355 112.057 28.8643 112.057 30.8373C112.053 33.4816 111 36.0162 109.13 37.886C107.26 39.7558 104.726 40.8084 102.081 40.8133ZM102.081 21.0794C100.154 21.0794 98.2704 21.6509 96.668 22.7216C95.0656 23.7923 93.8167 25.3141 93.0792 27.0945C92.3417 28.875 92.1487 30.8342 92.5247 32.7244C92.9007 34.6145 93.8287 36.3507 95.1914 37.7135C96.5541 39.0762 98.2904 40.0042 100.181 40.3802C102.071 40.7562 104.03 40.5632 105.81 39.8257C107.591 39.0882 109.113 37.8393 110.183 36.2369C111.254 34.6345 111.825 32.7506 111.825 30.8234C111.821 28.2407 110.792 25.7651 108.966 23.9388C107.14 22.1125 104.664 21.0843 102.081 21.0794Z" fill="#263238"/>
<path d="M106.544 35.2986C109.011 32.8315 109.011 28.8316 106.544 26.3645C104.077 23.8974 100.077 23.8974 97.6096 26.3645C95.1425 28.8316 95.1425 32.8315 97.6096 35.2986C100.077 37.7657 104.077 37.7657 106.544 35.2986Z" fill="#EF233C"/>
<path d="M102.082 37.2637C100.809 37.2637 99.5656 36.8864 98.5076 36.1795C97.4497 35.4726 96.6251 34.4678 96.1382 33.2923C95.6512 32.1167 95.5238 30.8232 95.7721 29.5752C96.0203 28.3273 96.633 27.181 97.5327 26.2813C98.4325 25.3815 99.5788 24.7688 100.827 24.5206C102.075 24.2724 103.368 24.3998 104.544 24.8867C105.719 25.3736 106.724 26.1982 107.431 27.2562C108.138 28.3141 108.515 29.5579 108.515 30.8303C108.513 32.536 107.835 34.1713 106.629 35.3774C105.423 36.5835 103.787 37.2619 102.082 37.2637ZM102.082 24.629C100.855 24.629 99.6563 24.9927 98.6365 25.6741C97.6167 26.3555 96.8219 27.324 96.3525 28.4572C95.8831 29.5903 95.7603 30.8372 95.9996 32.0402C96.2389 33.2431 96.8295 34.3481 97.6968 35.2154C98.5641 36.0826 99.669 36.6733 100.872 36.9125C102.075 37.1518 103.322 37.029 104.455 36.5596C105.588 36.0903 106.557 35.2954 107.238 34.2756C107.919 33.2558 108.283 32.0568 108.283 30.8303C108.281 29.1862 107.627 27.6099 106.465 26.4473C105.302 25.2848 103.726 24.6308 102.082 24.629Z" fill="#263238"/>
<path d="M104.601 33.3563C105.996 31.9619 105.996 29.7012 104.601 28.3068C103.207 26.9125 100.946 26.9125 99.5521 28.3068C98.1577 29.7012 98.1577 31.9619 99.5521 33.3563C100.946 34.7506 103.207 34.7506 104.601 33.3563Z" fill="white"/>
<path d="M102.081 34.517C101.352 34.517 100.639 34.3008 100.033 33.8957C99.4267 33.4906 98.9542 32.9149 98.6752 32.2413C98.3961 31.5677 98.3231 30.8264 98.4654 30.1113C98.6076 29.3962 98.9587 28.7394 99.4743 28.2238C99.9898 27.7082 100.647 27.3571 101.362 27.2149C102.077 27.0726 102.818 27.1456 103.492 27.4247C104.165 27.7037 104.741 28.1762 105.146 28.7824C105.551 29.3887 105.767 30.1014 105.767 30.8305C105.766 31.8079 105.377 32.7448 104.686 33.4359C103.995 34.127 103.058 34.5158 102.081 34.517ZM102.081 27.376C101.398 27.376 100.73 27.5786 100.162 27.9582C99.5937 28.3378 99.151 28.8773 98.8895 29.5086C98.628 30.1398 98.5596 30.8344 98.6929 31.5045C98.8262 32.1746 99.1552 32.7901 99.6383 33.2732C100.121 33.7563 100.737 34.0853 101.407 34.2186C102.077 34.3519 102.772 34.2835 103.403 34.022C104.034 33.7606 104.574 33.3178 104.953 32.7497C105.333 32.1816 105.535 31.5138 105.535 30.8305C105.534 29.9147 105.17 29.0368 104.522 28.3892C103.875 27.7416 102.997 27.3773 102.081 27.376Z" fill="#263238"/>
<path d="M103.584 30.8303C103.584 30.532 103.496 30.2405 103.33 29.9925C103.165 29.7445 102.929 29.5512 102.653 29.4371C102.378 29.3229 102.075 29.2931 101.782 29.3512C101.49 29.4094 101.221 29.5531 101.01 29.764C100.799 29.9748 100.656 30.2435 100.597 30.5361C100.539 30.8286 100.569 31.1318 100.683 31.4074C100.797 31.6829 100.991 31.9184 101.239 32.0841C101.487 32.2498 101.778 32.3383 102.076 32.3383C102.476 32.3383 102.86 32.1794 103.143 31.8966C103.425 31.6138 103.584 31.2302 103.584 30.8303Z" fill="#263238"/>
<path d="M102.081 32.4545C101.76 32.4545 101.446 32.3593 101.179 32.1808C100.912 32.0024 100.704 31.7488 100.581 31.452C100.458 31.1553 100.426 30.8287 100.488 30.5137C100.551 30.1987 100.706 29.9093 100.933 29.6822C101.16 29.4551 101.449 29.3004 101.764 29.2377C102.079 29.1751 102.406 29.2072 102.703 29.3302C102.999 29.4531 103.253 29.6612 103.431 29.9283C103.61 30.1954 103.705 30.5093 103.705 30.8305C103.705 31.2613 103.534 31.6743 103.229 31.9789C102.925 32.2834 102.512 32.4545 102.081 32.4545ZM102.081 29.4385C101.806 29.4385 101.537 29.5202 101.308 29.6731C101.079 29.8261 100.9 30.0435 100.795 30.2978C100.69 30.5522 100.662 30.8321 100.716 31.1021C100.769 31.3721 100.902 31.6202 101.097 31.8148C101.291 32.0095 101.539 32.1421 101.809 32.1958C102.079 32.2495 102.359 32.2219 102.614 32.1166C102.868 32.0112 103.085 31.8328 103.238 31.6039C103.391 31.375 103.473 31.1059 103.473 30.8305C103.473 30.4614 103.326 30.1073 103.065 29.8462C102.804 29.5852 102.45 29.4385 102.081 29.4385Z" fill="#263238"/>
<path d="M101.776 31.1298H85.207V30.5312H101.776C101.856 30.5312 101.932 30.5628 101.988 30.6189C102.044 30.675 102.076 30.7512 102.076 30.8305C102.076 30.8698 102.068 30.9087 102.053 30.9451C102.038 30.9814 102.016 31.0144 101.988 31.0422C101.96 31.0699 101.927 31.092 101.891 31.107C101.855 31.1221 101.816 31.1298 101.776 31.1298Z" fill="#263238"/>
<path d="M101.777 31.2456H85.2078C85.177 31.2456 85.1475 31.2334 85.1258 31.2116C85.104 31.1899 85.0918 31.1604 85.0918 31.1296V30.531C85.0918 30.5003 85.104 30.4708 85.1258 30.449C85.1475 30.4273 85.177 30.415 85.2078 30.415H101.777C101.832 30.415 101.886 30.4258 101.936 30.4466C101.987 30.4675 102.032 30.4981 102.071 30.5367C102.109 30.5752 102.14 30.621 102.161 30.6714C102.182 30.7218 102.193 30.7758 102.193 30.8303C102.193 30.8849 102.182 30.9389 102.161 30.9892C102.14 31.0396 102.109 31.0854 102.071 31.124C102.032 31.1625 101.987 31.1931 101.936 31.214C101.886 31.2349 101.832 31.2456 101.777 31.2456ZM85.3238 31.0136H101.777C101.826 31.0136 101.872 30.9943 101.907 30.9599C101.941 30.9255 101.961 30.8789 101.961 30.8303C101.961 30.7817 101.941 30.7351 101.907 30.7007C101.872 30.6663 101.826 30.647 101.777 30.647H85.3238V31.0136Z" fill="#263238"/>
<path d="M83.7342 28.7056L83.827 28.8123L85.5577 30.5291H80.3771L78.5234 28.7056H83.7342Z" fill="#263238"/>
<path d="M85.5579 30.6449H80.3773C80.3471 30.6451 80.3179 30.6334 80.2961 30.6124L78.4401 28.7889C78.4235 28.7727 78.412 28.752 78.407 28.7293C78.4021 28.7066 78.4039 28.6829 78.4123 28.6613C78.4211 28.6397 78.4363 28.6214 78.4557 28.6085C78.4752 28.5957 78.498 28.589 78.5213 28.5894H83.7321C83.7487 28.5891 83.7653 28.5924 83.7805 28.5993C83.7958 28.6061 83.8093 28.6162 83.8202 28.6288L83.913 28.7355L85.6391 30.4477C85.6549 30.4639 85.6657 30.4844 85.6702 30.5066C85.6748 30.5288 85.6728 30.5518 85.6646 30.573C85.6559 30.5942 85.6411 30.6123 85.6221 30.6251C85.6032 30.6379 85.5808 30.6448 85.5579 30.6449ZM80.4237 30.4129H85.2772L83.681 28.8214H78.809L80.4237 30.4129Z" fill="#263238"/>
<path d="M78.5234 32.8858L80.3794 31.1226H85.56C84.8824 31.6384 84.2659 32.2299 83.7226 32.8858H78.5234Z" fill="#263238"/>
<path d="M83.7202 33.002H78.5234C78.5 33.0019 78.477 32.9947 78.4576 32.9815C78.4382 32.9683 78.4232 32.9496 78.4144 32.9278C78.4059 32.9065 78.404 32.8832 78.409 32.8609C78.4139 32.8385 78.4255 32.8182 78.4422 32.8025L80.2982 31.0393C80.3203 31.0187 80.3493 31.0071 80.3794 31.0068H85.56C85.5848 31.0067 85.609 31.0145 85.6291 31.0291C85.6491 31.0437 85.6639 31.0644 85.6714 31.088C85.6796 31.1109 85.68 31.1359 85.6725 31.159C85.6649 31.1821 85.6498 31.2021 85.6296 31.2156C84.9592 31.7265 84.349 32.3118 83.8107 32.9603C83.7994 32.9732 83.7855 32.9835 83.7699 32.9907C83.7543 32.9979 83.7374 33.0018 83.7202 33.002ZM78.8134 32.77H83.6646C84.1338 32.2115 84.655 31.6988 85.2213 31.2388H80.4235L78.8134 32.77Z" fill="#263238"/>
<path opacity="0.3" d="M9.68028 30.5707L9.54804 30.3804L30.1844 16.182L30.2471 16.2145L50.916 26.8865C51.1603 27.0127 51.4283 27.0864 51.7028 27.1028C51.9773 27.1192 52.2522 27.0779 52.5098 26.9816L65.2257 22.2372L64.5993 25.9144L74.7052 16.5903L60.9732 16.1681L63.8476 18.5322L51.9484 22.968L51.9043 22.9448L30.9431 12.1359C30.626 11.9729 30.2706 11.8989 29.9148 11.9217C29.5589 11.9446 29.216 12.0635 28.9224 12.2659L7.31388 27.144L7.18164 26.9515L28.7901 12.064C29.1185 11.8379 29.5021 11.7051 29.9001 11.6797C30.298 11.6544 30.6954 11.7375 31.0498 11.9202L51.9692 22.7198L63.3929 18.4579L60.298 15.9059L75.276 16.3699L64.2652 26.5362L64.9404 22.5922L52.591 27.1904C52.3033 27.2975 51.9964 27.3434 51.69 27.325C51.3836 27.3066 51.0844 27.2244 50.8116 27.0837L30.2007 16.4535L9.68028 30.5707Z" fill="black"/>
<path opacity="0.3" d="M23.1735 58.3181L23.0946 58.1L64.2793 43.1708L63.5972 46.8387L73.833 37.6747L60.1079 37.0506L62.9522 39.4565L62.7643 39.5261L21.7722 54.3833L21.6934 54.1653L62.4975 39.3753L59.4398 36.7861L74.4107 37.4682L63.2446 47.4651L63.9754 43.5281L23.1735 58.3181Z" fill="black"/>
<path opacity="0.3" d="M3.81219 89.6076L3.73331 89.3895L54.8429 71.1775L54.1608 74.8431L64.3967 65.6791L50.6716 65.055L53.5182 67.4632L53.328 67.5304L2.40859 85.6728L2.33203 85.4548L53.0612 67.3796L50.0034 64.7905L64.9744 65.4749L53.8082 75.4695L54.5413 71.5301L3.81219 89.6076Z" fill="black"/>
<path d="M15.0594 110.952C15.0286 110.952 14.9991 110.939 14.9773 110.918C14.9556 110.896 14.9434 110.866 14.9434 110.836V97.9318C14.9434 97.901 14.9556 97.8715 14.9773 97.8498C14.9991 97.828 15.0286 97.8158 15.0594 97.8158H28.4643V92.6074C28.4643 92.5766 28.4765 92.5471 28.4983 92.5254C28.52 92.5036 28.5496 92.4914 28.5803 92.4914H41.9922V87.283C41.9922 87.2522 42.0045 87.2227 42.0262 87.201C42.048 87.1792 42.0775 87.167 42.1082 87.167H55.5086V81.9609C55.5086 81.9301 55.5208 81.9006 55.5425 81.8789C55.5643 81.8571 55.5938 81.8449 55.6246 81.8449H69.0272V76.6365C69.0272 76.6057 69.0394 76.5762 69.0612 76.5545C69.0829 76.5327 69.1124 76.5205 69.1432 76.5205H82.5458V71.3144C82.5458 71.2837 82.5581 71.2542 82.5798 71.2324C82.6016 71.2106 82.6311 71.1984 82.6618 71.1984H96.0482V65.99C96.0482 65.9593 96.0605 65.9298 96.0822 65.908C96.104 65.8862 96.1335 65.874 96.1642 65.874H109.69C109.721 65.874 109.75 65.8862 109.772 65.908C109.794 65.9298 109.806 65.9593 109.806 65.99C109.805 66.0206 109.793 66.0498 109.771 66.0714C109.75 66.093 109.72 66.1054 109.69 66.106H96.2802V71.3144C96.2802 71.3452 96.268 71.3747 96.2463 71.3964C96.2245 71.4182 96.195 71.4304 96.1642 71.4304H82.7686V76.6365C82.7686 76.6673 82.7563 76.6968 82.7346 76.7185C82.7128 76.7403 82.6833 76.7525 82.6526 76.7525H69.2499V81.9609C69.2499 81.9917 69.2377 82.0212 69.2159 82.0429C69.1942 82.0647 69.1647 82.0769 69.1339 82.0769H55.7313V87.283C55.7313 87.3137 55.7191 87.3433 55.6973 87.365C55.6755 87.3868 55.646 87.399 55.6153 87.399H42.2242V92.6074C42.2242 92.6382 42.212 92.6677 42.1903 92.6894C42.1685 92.7112 42.139 92.7234 42.1082 92.7234H28.6963V97.9318C28.6957 97.9624 28.6833 97.9915 28.6617 98.0132C28.6401 98.0348 28.6109 98.0472 28.5803 98.0478H15.1754V110.836C15.1754 110.851 15.1724 110.866 15.1665 110.88C15.1607 110.894 15.1522 110.907 15.1414 110.918C15.1306 110.928 15.1178 110.937 15.1037 110.943C15.0897 110.949 15.0746 110.952 15.0594 110.952Z" fill="#263238"/>
<path d="M42.0984 111.156C42.0677 111.156 42.0381 111.144 42.0164 111.122C41.9946 111.1 41.9824 111.071 41.9824 111.04V94.2732C41.9824 94.2425 41.9946 94.213 42.0164 94.1912C42.0381 94.1694 42.0677 94.1572 42.0984 94.1572C42.1292 94.1572 42.1587 94.1694 42.1804 94.1912C42.2022 94.213 42.2144 94.2425 42.2144 94.2732V111.04C42.2144 111.071 42.2022 111.1 42.1804 111.122C42.1587 111.144 42.1292 111.156 42.0984 111.156Z" fill="#263238"/>
<path d="M69.239 111.156C69.2083 111.156 69.1788 111.143 69.157 111.122C69.1353 111.1 69.123 111.07 69.123 111.04V84.2459C69.1236 84.2153 69.1361 84.1861 69.1577 84.1645C69.1793 84.1429 69.2085 84.1305 69.239 84.1299C69.2698 84.1299 69.2993 84.1421 69.3211 84.1639C69.3428 84.1856 69.355 84.2151 69.355 84.2459V111.04C69.355 111.07 69.3428 111.1 69.3211 111.122C69.2993 111.143 69.2698 111.156 69.239 111.156Z" fill="#263238"/>
<path d="M96.3777 111.156C96.347 111.156 96.3174 111.144 96.2957 111.122C96.2739 111.1 96.2617 111.071 96.2617 111.04V75.2586C96.2617 75.2278 96.2739 75.1983 96.2957 75.1765C96.3174 75.1548 96.347 75.1426 96.3777 75.1426C96.4085 75.1426 96.438 75.1548 96.4597 75.1765C96.4815 75.1983 96.4937 75.2278 96.4937 75.2586V111.04C96.4937 111.071 96.4815 111.1 96.4597 111.122C96.438 111.144 96.4085 111.156 96.3777 111.156Z" fill="#263238"/>
<path d="M16.1984 89.8001L16.101 90.9207L16.8202 92.438C16.8202 92.438 17.5464 93.1897 17.4211 93.4518C17.3794 93.5577 17.3059 93.648 17.2108 93.7103C17.1156 93.7726 17.0035 93.8039 16.8898 93.7998C16.6949 93.7859 14.2914 92.6677 13.672 92.3684C13.0525 92.0691 12.8669 90.6933 12.744 90.2804C12.621 89.8674 11.4703 88.7399 11.751 87.9882C12.0317 87.2365 13.433 86.5034 13.433 86.5034L16.1984 89.8001Z" fill="white"/>
<path d="M16.9356 93.9161H16.8938C16.6317 93.8975 13.6621 92.4893 13.6319 92.473C13.0728 92.2039 12.8501 91.204 12.7178 90.617C12.69 90.4918 12.6691 90.385 12.6459 90.3131C12.5515 90.1165 12.4339 89.9319 12.2956 89.7633C11.929 89.2343 11.4233 88.5128 11.6367 87.9421C11.9313 87.1579 13.3164 86.4248 13.3744 86.3946C13.3979 86.382 13.4251 86.3779 13.4513 86.383C13.4775 86.388 13.5011 86.402 13.5182 86.4225L16.286 89.7262C16.2961 89.7375 16.3037 89.7507 16.3085 89.765C16.3133 89.7794 16.3151 89.7946 16.3138 89.8097L16.2187 90.9001L16.9147 92.371C17.1467 92.6215 17.6641 93.2062 17.5225 93.5008C17.4742 93.6186 17.3934 93.7202 17.2894 93.7938C17.1855 93.8673 17.0628 93.9097 16.9356 93.9161ZM13.4092 86.6452C13.1122 86.8122 12.0891 87.4224 11.8641 88.0233C11.6924 88.4873 12.1564 89.1438 12.4951 89.631C12.6439 89.8193 12.7664 90.0269 12.8593 90.2482C12.8802 90.3247 12.9057 90.4361 12.9336 90.5637C13.0473 91.0834 13.263 92.0508 13.7201 92.2712C14.5692 92.6795 16.7059 93.6632 16.9008 93.691C16.9909 93.6931 17.0794 93.667 17.1539 93.6162C17.2284 93.5654 17.2851 93.4926 17.3161 93.408C17.3625 93.3082 17.0841 92.8883 16.7361 92.5241L16.7152 92.4939L16.0076 90.972C16.0019 90.9523 16.0019 90.9314 16.0076 90.9117L16.1004 89.8375L13.4092 86.6452Z" fill="#263238"/>
<path d="M23.8961 68.0039L24.4831 76.393L13.8505 85.8099L12.7949 86.9119C12.7949 86.9119 14.0895 89.0695 14.6347 89.5428C15.0571 89.8682 15.5408 90.1049 16.0568 90.2388C16.3241 89.9609 16.5311 89.6307 16.6647 89.269C16.8828 88.6728 17.1287 87.7355 17.1287 87.7355C17.1287 87.7355 29.3412 79.8313 29.6196 79.5459C29.898 79.2605 31.1044 70.0896 31.1044 70.0896L23.8961 68.0039Z" fill="#263238"/>
<path d="M16.0575 90.3434H16.0296C15.4957 90.2093 14.995 89.9669 14.5588 89.6311C14.0066 89.1532 12.7492 87.0629 12.7028 86.9747C12.6904 86.9524 12.6854 86.9267 12.6883 86.9014C12.6912 86.876 12.7019 86.8522 12.719 86.8332L13.7746 85.7312L24.3608 76.3445L23.7761 68.0134C23.7745 67.9946 23.7774 67.9757 23.7847 67.9583C23.7919 67.9409 23.8033 67.9256 23.8179 67.9136C23.8325 67.9024 23.8496 67.8946 23.8677 67.891C23.8858 67.8874 23.9044 67.888 23.9223 67.8927L31.1352 69.9668C31.1615 69.9744 31.1843 69.9912 31.1992 70.0142C31.2141 70.0373 31.2202 70.0649 31.2164 70.0921C30.9333 72.252 29.9844 79.3234 29.6991 79.6157C29.4137 79.908 18.6466 86.8796 17.2268 87.7983C17.1757 87.9909 16.9669 88.775 16.7767 89.297C16.6383 89.6758 16.4217 90.0213 16.141 90.3109C16.1184 90.332 16.0885 90.3437 16.0575 90.3434ZM12.9417 86.9283C13.1737 87.3134 14.2432 89.0488 14.7096 89.4548C15.1003 89.7539 15.5467 89.9724 16.0227 90.0974C16.2548 89.8409 16.4359 89.5425 16.5563 89.2182C16.7697 88.6335 17.0203 87.7055 17.0203 87.6962C17.0279 87.6681 17.0452 87.6435 17.069 87.6266C20.4492 85.4412 29.2745 79.7108 29.5413 79.4533C29.7385 79.1424 30.5064 73.7623 30.982 70.1617L24.022 68.1618L24.5928 76.3839C24.5941 76.4015 24.5914 76.4192 24.585 76.4357C24.5786 76.4521 24.5685 76.467 24.5556 76.479L13.9208 85.8959L12.9417 86.9283Z" fill="#263238"/>
<path d="M20.7879 81.2556C20.7571 81.2556 20.7276 81.2434 20.7059 81.2217C20.6841 81.1999 20.6719 81.1704 20.6719 81.1396C20.6719 81.1089 20.6841 81.0794 20.7059 81.0576C20.7276 81.0359 20.7571 81.0236 20.7879 81.0236C22.0917 80.8937 28.01 79.4368 28.0704 79.4205C28.1002 79.4136 28.1316 79.4187 28.1577 79.4347C28.1837 79.4508 28.2024 79.4766 28.2096 79.5064C28.2134 79.521 28.2142 79.5362 28.2121 79.5512C28.2099 79.5662 28.2048 79.5805 28.197 79.5935C28.1892 79.6065 28.179 79.6178 28.1668 79.6267C28.1546 79.6356 28.1407 79.642 28.126 79.6456C27.8801 79.7059 22.1312 81.1234 20.8111 81.2556H20.7879Z" fill="white"/>
<path d="M20.9167 80.5483C20.8859 80.5507 20.8554 80.5409 20.8319 80.5208C20.8084 80.5008 20.7938 80.4723 20.7914 80.4415C20.7889 80.4108 20.7988 80.3803 20.8188 80.3568C20.8388 80.3333 20.8673 80.3187 20.8981 80.3163L23.1833 79.9427C23.1984 79.9404 23.2138 79.9411 23.2286 79.9448C23.2434 79.9484 23.2574 79.955 23.2696 79.964C23.2819 79.9731 23.2923 79.9845 23.3002 79.9975C23.3081 80.0106 23.3133 80.0251 23.3155 80.0402C23.3182 80.0551 23.3178 80.0705 23.3144 80.0853C23.3111 80.1001 23.3048 80.114 23.2959 80.1264C23.287 80.1387 23.2758 80.1491 23.2628 80.157C23.2499 80.1649 23.2354 80.1702 23.2204 80.1724L20.9352 80.5459L20.9167 80.5483Z" fill="white"/>
<path d="M34.5387 89.0093L36.6707 90.5242C36.6707 90.5242 38.1138 91.3409 38.3295 91.3664C38.4448 91.3706 38.5538 91.4199 38.6332 91.5036C38.7126 91.5873 38.756 91.6988 38.7541 91.8142C38.7263 92.067 38.246 92.4522 37.3992 92.5102C36.5524 92.5682 34.1512 92.1158 33.9772 92.0949C33.8032 92.074 31.46 91.0857 30.822 90.9047C30.184 90.7238 30.0564 89.9071 30.1863 89.4106C30.3163 88.9142 31.1747 87.731 31.1747 87.731L34.5387 89.0093Z" fill="white"/>
<path d="M37.2483 92.6235C36.4757 92.6235 34.9445 92.366 34.2647 92.2523C34.1047 92.2245 33.9979 92.2059 33.9631 92.2036C33.875 92.192 33.5293 92.0574 32.7034 91.7396C31.9656 91.445 31.1304 91.1132 30.7917 91.0181C30.0655 90.8139 29.9333 89.9207 30.0725 89.3941C30.2117 88.8674 31.0446 87.7237 31.0817 87.675C31.0968 87.6546 31.1181 87.6397 31.1423 87.6326C31.1666 87.6255 31.1926 87.6265 31.2163 87.6355L34.5803 88.9208L34.6058 88.9347L36.7379 90.4497C37.2528 90.7612 37.7894 91.0356 38.3433 91.271C38.4811 91.2869 38.6103 91.3462 38.7122 91.4403C38.769 91.491 38.8129 91.5545 38.8403 91.6255C38.8677 91.6965 38.8779 91.773 38.8699 91.8486C38.8328 92.1874 38.2621 92.5887 37.406 92.6398C37.3527 92.6235 37.3063 92.6235 37.2483 92.6235ZM31.2163 87.8629C31.0307 88.125 30.4019 89.0229 30.2883 89.4312C30.1676 89.8952 30.2883 90.6306 30.8451 90.7861C31.1954 90.8858 32.0375 91.2199 32.7799 91.5146C33.3043 91.7234 33.8982 91.9577 33.9817 91.9786L34.2949 92.0296C35.0164 92.1526 36.71 92.4356 37.3828 92.3962C38.1763 92.3451 38.6101 91.9925 38.631 91.8092C38.6342 91.7694 38.6281 91.7294 38.6132 91.6924C38.5983 91.6553 38.575 91.6223 38.5451 91.5958C38.4802 91.5375 38.3995 91.4996 38.3131 91.4867C38.0811 91.4635 36.8539 90.7698 36.6079 90.6306L34.4782 89.1203L31.2163 87.8629Z" fill="#263238"/>
<path d="M22.0397 60.2388C22.0397 60.2388 21.2021 63.7327 21.2416 64.9925C21.281 66.2522 23.0048 68.1036 23.369 68.4585C23.7333 68.8135 25.5545 69.3726 25.689 69.477C25.8236 69.5814 35.8483 73.6994 35.8483 73.6994C35.8483 73.6994 35.1732 75.3234 34.6883 76.4416C34.2034 77.5599 31.6723 86.6891 31.6723 86.6891L31.1155 87.2552L30.7977 88.5196L35.2312 89.487C35.2312 89.487 35.6302 88.6077 35.6952 88.3479C35.7601 88.088 35.6349 86.8608 35.6604 86.6404C35.6859 86.42 41.1286 74.5555 41.3977 73.7342C41.6669 72.9129 42.5577 71.3957 42.2492 70.9131C41.9406 70.4305 32.5052 64.6282 32.5052 64.6282L32.6374 62.6261C32.6374 62.6261 25.3642 62.176 22.0397 60.2388Z" fill="#263238"/>
<path d="M35.2149 89.6032H35.1894L30.7559 88.6242C30.7255 88.617 30.6991 88.5981 30.6826 88.5716C30.6661 88.5451 30.6608 88.5131 30.6677 88.4827L30.9879 87.2183C30.9927 87.198 31.0032 87.1795 31.018 87.1649L31.5516 86.6197C31.7372 85.9562 34.1036 77.4719 34.5676 76.3862C34.9713 75.4582 35.5188 74.1358 35.6766 73.753C32.5979 72.4909 25.7168 69.6582 25.5962 69.5561C25.5544 69.5283 25.2946 69.4331 25.0417 69.3403C24.4084 69.1083 23.5384 68.7835 23.2808 68.533C23.26 68.5121 21.165 66.4334 21.1186 64.988C21.0792 63.7259 21.8842 60.348 21.919 60.2019C21.9233 60.1844 21.9317 60.1682 21.9433 60.1545C21.955 60.1408 21.9697 60.13 21.9863 60.123C22.0025 60.115 22.0204 60.1108 22.0385 60.1108C22.0566 60.1108 22.0744 60.115 22.0907 60.123C25.3572 62.0254 32.5539 62.4894 32.6258 62.494C32.6414 62.4944 32.6567 62.4981 32.6707 62.5049C32.6847 62.5117 32.6971 62.5215 32.707 62.5335C32.7171 62.5448 32.7247 62.558 32.7295 62.5723C32.7343 62.5867 32.7361 62.6019 32.7348 62.617L32.6072 64.5495C33.8206 65.2966 42.0311 70.3495 42.335 70.8344C42.5832 71.2265 42.2097 72.0756 41.8478 72.8969C41.7086 73.2147 41.574 73.5163 41.4975 73.753C41.349 74.2007 39.7644 77.7109 38.2332 81.1051C37.0408 83.7452 35.8088 86.4735 35.7624 86.6452C35.7624 86.7125 35.7624 86.9747 35.7856 87.2252C35.8275 87.603 35.8275 87.9842 35.7856 88.362C35.7091 88.6288 35.3216 89.4826 35.3054 89.522C35.2995 89.5427 35.2879 89.5613 35.2719 89.5757C35.2559 89.5901 35.2361 89.5996 35.2149 89.6032ZM30.9229 88.4316L35.1476 89.3596C35.2474 89.1276 35.5188 88.5267 35.5768 88.3226C35.6018 87.9694 35.5963 87.6146 35.5606 87.2623C35.5412 87.0534 35.5335 86.8435 35.5374 86.6336C35.5374 86.5292 36.1383 85.2115 38.0244 81.0331C39.4837 77.8014 41.1379 74.1381 41.2724 73.7043C41.3536 73.456 41.4882 73.1498 41.632 72.825C41.9359 72.129 42.3164 71.2706 42.1355 70.9829C41.9035 70.6326 36.1986 67.0551 32.4216 64.7351C32.4036 64.724 32.389 64.7082 32.3792 64.6894C32.3694 64.6706 32.3648 64.6496 32.3659 64.6284L32.4912 62.7399C31.5632 62.6727 25.2366 62.1576 22.1046 60.4199C21.9468 61.102 21.3112 63.8999 21.346 64.995C21.3808 66.1318 22.9073 67.8625 23.434 68.3799C23.666 68.5979 24.5684 68.9343 25.1136 69.1362C25.3292 69.2003 25.5376 69.2866 25.7354 69.3937C25.9674 69.5236 33.1246 72.4723 35.8645 73.5975C35.8927 73.6095 35.9152 73.632 35.9271 73.6602C35.9388 73.6884 35.9388 73.7201 35.9271 73.7483C35.9271 73.7646 35.2474 75.3909 34.7671 76.4929C34.2869 77.5949 31.7767 86.6336 31.7512 86.7241C31.7471 86.7435 31.7375 86.7613 31.7233 86.7751L31.1897 87.318L30.9229 88.4316Z" fill="#263238"/>
<path d="M31.8721 64.2639C31.8519 64.264 31.832 64.2593 31.8141 64.25C31.2086 63.9136 30.2388 63.3963 30.0579 63.3452C29.914 63.3035 29.0208 63.503 28.2413 63.7187C28.2261 63.7228 28.2102 63.7239 28.1945 63.7219C28.1789 63.7199 28.1638 63.7148 28.1501 63.7069C28.1364 63.699 28.1244 63.6886 28.1148 63.6761C28.1052 63.6636 28.0981 63.6493 28.094 63.6341C28.0899 63.6188 28.0888 63.6029 28.0908 63.5873C28.0929 63.5716 28.098 63.5565 28.1058 63.5429C28.1137 63.5292 28.1242 63.5172 28.1367 63.5076C28.1492 63.4979 28.1634 63.4908 28.1787 63.4867C28.4548 63.4102 29.8444 63.0227 30.1205 63.1132C30.3966 63.2037 31.77 63.9507 31.9278 64.0412C31.9494 64.054 31.9663 64.0735 31.9759 64.0967C31.9855 64.12 31.9873 64.1457 31.981 64.17C31.9747 64.1943 31.9607 64.216 31.9411 64.2317C31.9214 64.2473 31.8972 64.2562 31.8721 64.257V64.2639Z" fill="white"/>
<path d="M26.6391 64.5424C26.6249 64.5427 26.6109 64.5402 26.5978 64.535C26.5846 64.5298 26.5726 64.5221 26.5625 64.5123C26.5514 64.5019 26.5426 64.4893 26.5365 64.4753C26.5305 64.4613 26.5273 64.4463 26.5273 64.4311C26.5273 64.4158 26.5305 64.4008 26.5365 64.3868C26.5426 64.3729 26.5514 64.3603 26.5625 64.3499C26.8524 64.0474 27.1952 63.8005 27.574 63.6214C27.588 63.6149 27.6031 63.6113 27.6185 63.6109C27.6339 63.6104 27.6492 63.6131 27.6635 63.6188C27.6778 63.6244 27.6908 63.6329 27.7018 63.6437C27.7127 63.6545 27.7213 63.6674 27.7271 63.6817C27.7391 63.7098 27.7397 63.7414 27.7289 63.7699C27.7181 63.7985 27.6967 63.8217 27.6691 63.8348C27.3218 64.0004 27.0074 64.2276 26.7411 64.5053C26.7289 64.5199 26.713 64.531 26.695 64.5375C26.6771 64.544 26.6578 64.5457 26.6391 64.5424Z" fill="white"/>
<path d="M25.6249 63.9811C25.6083 63.981 25.5919 63.9774 25.5767 63.9706C25.5616 63.9638 25.5479 63.954 25.5368 63.9417C25.5171 63.9178 25.5076 63.8873 25.5102 63.8565C25.5128 63.8257 25.5273 63.7972 25.5507 63.777C26.4624 63.0067 28.1932 62.9696 28.2674 62.9673C28.2978 62.9678 28.3269 62.9798 28.3489 63.0009C28.3708 63.022 28.384 63.0506 28.3857 63.081C28.386 63.0962 28.3833 63.1113 28.3778 63.1255C28.3722 63.1397 28.364 63.1527 28.3534 63.1637C28.3428 63.1747 28.3302 63.1835 28.3163 63.1896C28.3023 63.1957 28.2873 63.199 28.272 63.1993C28.2535 63.1993 26.5483 63.2364 25.7015 63.9556C25.6797 63.9728 25.6526 63.9819 25.6249 63.9811Z" fill="white"/>
<path d="M36.4236 73.8339C36.4006 73.8341 36.3781 73.8274 36.3591 73.8145C36.34 73.8017 36.3253 73.7834 36.3168 73.762C36.3112 73.7478 36.3084 73.7327 36.3086 73.7174C36.3088 73.7022 36.312 73.6871 36.3181 73.6731C36.3241 73.6591 36.3328 73.6464 36.3438 73.6358C36.3547 73.6252 36.3676 73.6168 36.3818 73.6112C37.3446 73.2354 39.6298 71.8457 39.6577 71.8318C39.6841 71.8158 39.7158 71.8109 39.7459 71.8183C39.7759 71.8257 39.8017 71.8447 39.8177 71.8712C39.8337 71.8977 39.8386 71.9294 39.8312 71.9594C39.8238 71.9894 39.8048 72.0153 39.7783 72.0313C39.6832 72.0893 37.4583 73.4442 36.4653 73.827L36.4236 73.8339Z" fill="white"/>
<path d="M40.5489 57.6707L41.6904 57.6522L42.9594 57.4619C42.9594 57.4619 45.1773 58.0025 45.1889 58.2229C45.1984 58.3825 45.1681 58.5419 45.1008 58.6869C45.0474 58.8284 44.4048 60.631 44.2377 60.8329C44.1912 60.9097 44.1199 60.9684 44.0355 60.9992C43.9512 61.03 43.8588 61.0311 43.7737 61.0022C43.5557 60.9767 42.5534 60.7563 42.5534 60.7563C42.5534 60.7563 41.3354 60.4733 41.0524 60.3689C40.7641 60.2356 40.4864 60.0805 40.2218 59.9049L39.7578 59.7425L40.5489 57.6707Z" fill="white"/>
<path d="M43.9326 61.1322C43.8775 61.1313 43.8226 61.1274 43.7679 61.1206C43.5359 61.0974 42.5754 60.8886 42.5337 60.8723C42.4919 60.8561 41.3041 60.587 41.0187 60.4826C40.7266 60.3496 40.445 60.1945 40.1765 60.0186L39.7288 59.8608C39.7144 59.8558 39.7012 59.8478 39.69 59.8374C39.6789 59.827 39.6699 59.8145 39.6638 59.8005C39.6575 59.7867 39.6543 59.7716 39.6543 59.7564C39.6543 59.7412 39.6575 59.7262 39.6638 59.7123L40.4457 57.6243C40.4542 57.6026 40.4688 57.5839 40.4877 57.5703C40.5066 57.5567 40.5291 57.5489 40.5524 57.5478L41.6938 57.5292L42.9489 57.3413H42.993C45.2945 57.9027 45.313 58.1255 45.313 58.2113C45.326 58.3759 45.2973 58.541 45.2295 58.6915L45.1854 58.8168C44.5706 60.5104 44.4059 60.819 44.3363 60.9048C44.2948 60.9748 44.2357 61.0326 44.1649 61.0725C44.094 61.1124 44.0139 61.133 43.9326 61.1322ZM39.919 59.6822L40.267 59.8051L40.2902 59.8167C40.5486 59.9846 40.8184 60.1342 41.0976 60.2645C41.3713 60.3643 42.5731 60.645 42.5847 60.6473C42.5963 60.6496 43.5846 60.8677 43.7934 60.8793C44.0022 60.8909 44.0254 60.9048 44.1507 60.7494C44.1925 60.7007 44.3549 60.4037 44.9581 58.7333L45.0068 58.6034C45.0579 58.4906 45.0817 58.3675 45.0764 58.2438C44.9256 58.1092 43.8793 57.7937 42.9559 57.5687L41.7077 57.7543L40.6313 57.7751L39.919 59.6822Z" fill="#263238"/>
<path d="M41.1895 58.1834C41.1895 58.1834 42.2474 57.2322 42.4051 57.1394C42.5629 57.0466 43.4515 57.1928 43.702 57.2554C43.9526 57.318 44.3168 57.5709 44.2287 57.7194C44.1405 57.8679 43.8923 59.3434 43.7647 59.4733C43.6883 59.551 43.5883 59.6011 43.4804 59.6158C43.3725 59.6304 43.2628 59.6089 43.1684 59.5545C42.9619 59.42 43.0803 58.1161 43.0803 58.1161C43.0803 58.1161 42.9063 59.2761 42.5188 59.4455C42.1314 59.6149 41.4215 59.3968 41.4215 59.3968" fill="white"/>
<path d="M43.4043 59.726C43.2983 59.7271 43.1943 59.6973 43.105 59.6402C43.0006 59.5706 42.9519 59.3455 42.9356 59.0718C42.8707 59.2641 42.7411 59.4281 42.5691 59.5358C42.1445 59.7306 41.4091 59.5033 41.3882 59.494C41.3589 59.4844 41.3345 59.4638 41.3202 59.4365C41.3059 59.4092 41.3028 59.3774 41.3116 59.3478C41.3212 59.3186 41.3419 59.2942 41.3691 59.2799C41.3964 59.2656 41.4282 59.2625 41.4578 59.2713C41.6434 59.3316 42.1886 59.4546 42.4716 59.3246C42.7036 59.2156 42.9031 58.5057 42.9681 58.0834C42.9718 58.0527 42.9876 58.0246 43.0119 58.0055C43.0363 57.9864 43.0673 57.9777 43.098 57.9814C43.1288 57.9851 43.1568 58.0008 43.176 58.0252C43.1951 58.0495 43.2038 58.0805 43.2001 58.1113C43.1421 58.7493 43.1607 59.3594 43.2395 59.4453C43.3105 59.4838 43.392 59.4983 43.4719 59.4866C43.5518 59.4749 43.6257 59.4376 43.6827 59.3803C43.7894 59.0645 43.8724 58.7411 43.9309 58.4129C43.97 58.1496 44.0377 57.8913 44.1327 57.6426C44.0068 57.5091 43.8461 57.4135 43.6687 57.3666C43.3439 57.283 42.5737 57.181 42.46 57.2366C42.3463 57.2923 41.6712 57.9025 41.2652 58.2667C41.2541 58.278 41.2409 58.2869 41.2262 58.2929C41.2116 58.2989 41.1959 58.3018 41.1801 58.3015C41.1643 58.3012 41.1487 58.2976 41.1343 58.2911C41.1199 58.2845 41.107 58.2751 41.0964 58.2633C41.0858 58.2516 41.0777 58.2379 41.0726 58.2229C41.0675 58.2079 41.0655 58.1921 41.0668 58.1763C41.068 58.1606 41.0725 58.1452 41.0799 58.1312C41.0873 58.1173 41.0974 58.1049 41.1098 58.095C41.2188 57.9976 42.1816 57.1322 42.344 57.0371C42.576 56.9002 43.6154 57.1137 43.736 57.1415C43.9872 57.2018 44.2057 57.3563 44.3462 57.573C44.3595 57.6043 44.3652 57.6383 44.3628 57.6722C44.3604 57.7061 44.3499 57.7389 44.3323 57.7679C44.2616 57.9962 44.2051 58.2287 44.1629 58.4639C44.0144 59.1437 43.9309 59.4522 43.8567 59.5404C43.7975 59.6 43.7269 59.6471 43.6492 59.679C43.5715 59.7109 43.4882 59.7269 43.4043 59.726Z" fill="#263238"/>
<path d="M42.9574 59.1509L42.6465 60.2923L42.9643 60.4014" fill="white"/>
<path d="M42.9648 60.5175C42.9525 60.5197 42.9399 60.5197 42.9277 60.5175L42.6098 60.4084C42.5818 60.3993 42.5585 60.3798 42.5446 60.3538C42.5308 60.3278 42.5275 60.2975 42.5356 60.2692L42.8441 59.1278C42.8521 59.097 42.872 59.0707 42.8994 59.0546C42.9269 59.0385 42.9595 59.0339 42.9903 59.0419C43.0211 59.0499 43.0474 59.0698 43.0635 59.0972C43.0796 59.1247 43.0841 59.1573 43.0761 59.1881L42.7931 60.2251L43.0089 60.2994C43.0396 60.3043 43.0672 60.3212 43.0855 60.3465C43.1037 60.3717 43.1112 60.4032 43.1063 60.4339C43.1014 60.4647 43.0844 60.4923 43.0592 60.5105C43.034 60.5288 43.0025 60.5363 42.9717 60.5314L42.9648 60.5175Z" fill="#263238"/>
<path d="M40.8803 57.6705L39.9198 60.0253L33.0039 59.1113L34.2706 54.6592L40.8803 57.6705Z" fill="white"/>
<path d="M39.9197 60.1416H39.9035L32.9899 59.2275C32.9735 59.2251 32.9579 59.2193 32.9439 59.2105C32.9299 59.2018 32.9179 59.1901 32.9087 59.1764C32.8994 59.1622 32.8931 59.1462 32.8903 59.1294C32.8875 59.1126 32.8883 59.0955 32.8924 59.079L34.1592 54.6292C34.1637 54.6131 34.1716 54.5981 34.1825 54.5853C34.1934 54.5725 34.2069 54.5623 34.2221 54.5552C34.2373 54.5481 34.2539 54.5445 34.2706 54.5444C34.2874 54.5444 34.304 54.548 34.3192 54.555L40.9266 57.571C40.9542 57.5828 40.9761 57.605 40.9874 57.6328C40.9987 57.6606 40.9985 57.6918 40.9869 57.7195L40.0264 60.0743C40.0173 60.0948 40.0023 60.1121 39.9833 60.1241C39.9643 60.136 39.9422 60.1421 39.9197 60.1416ZM33.1523 59.014L39.8455 59.9003L40.7294 57.7311L34.3355 54.8218L33.1523 59.014Z" fill="#263238"/>
<path d="M38.6538 59.9652H38.619C38.5898 59.9556 38.5656 59.9349 38.5516 59.9075C38.5377 59.8801 38.5352 59.8483 38.5448 59.819L39.3985 57.0721C39.4031 57.0569 39.4106 57.0427 39.4207 57.0304C39.4307 57.0181 39.4431 57.0079 39.4571 57.0003C39.4711 56.9928 39.4865 56.9881 39.5023 56.9865C39.5181 56.9849 39.5341 56.9864 39.5493 56.9909C39.5646 56.9955 39.5787 57.003 39.5911 57.0131C39.6034 57.0231 39.6136 57.0355 39.6212 57.0495C39.6287 57.0635 39.6334 57.0789 39.635 57.0947C39.6366 57.1105 39.6351 57.1265 39.6305 57.1417L38.7768 59.8747C38.7707 59.9021 38.7549 59.9264 38.7323 59.943C38.7097 59.9597 38.6818 59.9675 38.6538 59.9652Z" fill="#263238"/>
<path d="M30.4548 40.1938C30.4548 40.1938 25.671 43.8478 25.2139 45.915C24.7569 47.9821 23.4043 52.5084 23.4043 52.5084C23.4043 52.5084 21.5483 60.0438 21.5785 60.3964C21.6086 60.749 22.7385 61.1783 23.2326 61.3963C23.7268 61.6144 27.1047 62.7094 29.1695 62.9391C30.3247 63.0802 31.4922 63.0895 32.6495 62.967C32.6495 62.967 33.2272 62.4751 33.2574 62.1851C33.2875 61.8951 33.5636 59.4429 33.5729 59.3454C33.5822 59.248 35.06 50.0654 34.9278 47.7454C34.7955 45.4254 34.9927 44.5183 34.9927 44.5183L36.1527 43.2423L34.4823 42.4025L30.4548 40.1938Z" fill="white"/>
<path d="M31.1229 63.1737C30.4656 63.1727 29.8088 63.1355 29.1556 63.0623C27.1186 62.8303 23.7453 61.7585 23.1862 61.5125L22.9542 61.4128C22.1561 61.0764 21.4926 60.7701 21.4671 60.4152C21.4416 60.0602 23.105 53.2533 23.2952 52.4808C23.3092 52.4297 24.6524 47.9359 25.1048 45.892C25.5688 43.804 30.1926 40.2521 30.3875 40.092C30.4066 40.0801 30.4287 40.0737 30.4513 40.0737C30.4738 40.0737 30.4959 40.0801 30.5151 40.092L34.5472 42.3029L36.2153 43.1405C36.2311 43.1486 36.2448 43.1603 36.2553 43.1746C36.2659 43.1889 36.273 43.2055 36.2761 43.2229C36.2792 43.2404 36.2783 43.2584 36.2734 43.2755C36.2685 43.2925 36.2598 43.3083 36.2478 43.3214L35.1156 44.5742C35.0855 44.7459 34.9416 45.6809 35.06 47.741C35.1667 49.597 34.2781 55.694 33.7376 59.1554C33.719 59.283 33.7074 59.3573 33.7051 59.3689L33.3896 62.2062C33.3524 62.5333 32.8026 63.0113 32.74 63.0646C32.7236 63.0787 32.7034 63.0876 32.682 63.0901C32.1646 63.1516 31.6439 63.1795 31.1229 63.1737ZM30.464 40.3333C29.9142 40.7601 25.7521 44.0569 25.3276 45.9361C24.8636 47.9893 23.5272 52.4924 23.5133 52.5365C22.7779 55.5362 21.6852 60.1113 21.6944 60.3943C21.7107 60.6263 22.6433 61.0277 23.04 61.1947L23.272 61.2968C23.7059 61.487 27.0699 62.5937 29.1741 62.828C30.3125 62.9641 31.4623 62.975 32.6031 62.8605C32.8142 62.6772 33.1297 62.3477 33.1483 62.1645L33.4638 59.3271C33.4638 59.3271 33.4638 59.2413 33.4963 59.0951C34.4243 53.2185 34.8883 49.075 34.8164 47.7271C34.6841 45.4071 34.8744 44.5069 34.8836 44.4791C34.8887 44.4594 34.8982 44.4412 34.9115 44.4257L35.9624 43.2657L34.4289 42.4955L30.464 40.3333Z" fill="#263238"/>
<path d="M36.1581 43.2446L35.7289 45.0589L35.1953 44.2794L36.1581 43.2446Z" fill="white"/>
<path d="M35.7291 45.1752C35.7103 45.1753 35.6917 45.1706 35.6751 45.1617C35.6585 45.1528 35.6444 45.1399 35.634 45.1242L35.0981 44.347C35.0833 44.3249 35.0764 44.2984 35.0785 44.2719C35.0806 44.2454 35.0916 44.2203 35.1097 44.2008L36.0748 43.1661C36.0922 43.1479 36.1152 43.1359 36.1401 43.1318C36.165 43.1278 36.1905 43.1321 36.2128 43.1439C36.2351 43.1557 36.2529 43.1744 36.2636 43.1973C36.2743 43.2201 36.2772 43.2458 36.272 43.2705L35.8405 45.0847C35.8352 45.1065 35.824 45.1263 35.808 45.1419C35.792 45.1575 35.7719 45.1683 35.75 45.1729L35.7291 45.1752ZM35.344 44.2913L35.6757 44.7762L35.9449 43.644L35.344 44.2913Z" fill="#263238"/>
<path d="M37.7427 32.8046C38.1941 33.4654 38.4476 34.2412 38.4735 35.0411C38.5199 36.3867 38.7797 36.7091 39.0581 36.8367C39.3365 36.9643 39.4664 37.2752 39.1973 37.6371C39.0033 37.8892 38.7917 38.1272 38.564 38.3494C38.564 38.3494 38.2276 40.5023 38.0164 40.9362C37.8053 41.37 37.3204 41.087 36.6384 40.9779C36.3123 40.9396 35.9921 40.8617 35.6848 40.7459L34.8566 42.6019L30.8848 39.8435L31.5483 37.9875C31.5483 37.9875 31.068 37.3123 31.3441 35.1223C31.6202 32.9322 35.7289 32.1225 37.7427 32.8046Z" fill="white"/>
<path d="M34.8556 42.7252C34.8322 42.7254 34.8095 42.7181 34.7906 42.7043L30.8188 39.9459C30.7973 39.9317 30.7812 39.9107 30.7732 39.8863C30.7652 39.8618 30.7657 39.8354 30.7747 39.8113L31.4197 38.0087C31.3106 37.8045 30.9881 37.0157 31.2271 35.1179C31.3106 34.4451 31.7491 33.8443 32.4915 33.3803C33.8835 32.5103 36.3009 32.1947 37.7788 32.6959C37.8002 32.7033 37.8188 32.717 37.8321 32.7353C38.302 33.4129 38.5648 34.2125 38.5885 35.0367C38.6349 36.3429 38.8761 36.6259 39.1058 36.7327C39.1869 36.7681 39.2591 36.8213 39.3169 36.8884C39.3747 36.9555 39.4168 37.0346 39.4399 37.1201C39.4607 37.2235 39.4577 37.3303 39.4312 37.4324C39.4047 37.5345 39.3553 37.6292 39.2868 37.7094C39.096 37.9549 38.8891 38.1874 38.6673 38.4054C38.6186 38.7047 38.317 40.5676 38.1129 40.9852C37.9087 41.4028 37.5097 41.2938 37.0805 41.1894C36.9343 41.1546 36.7812 41.1175 36.6165 41.0919C36.3205 41.0483 36.0287 40.98 35.7441 40.8878L34.96 42.6556C34.9527 42.6707 34.9424 42.6841 34.9296 42.6949C34.9168 42.7057 34.9018 42.7137 34.8857 42.7183C34.8762 42.7225 34.866 42.7249 34.8556 42.7252ZM31.0229 39.8043L34.7999 42.4352L35.5701 40.6952C35.5832 40.6674 35.6064 40.6458 35.6351 40.6349C35.6493 40.6286 35.6647 40.6253 35.6803 40.6253C35.6959 40.6253 35.7113 40.6286 35.7256 40.6349C36.0252 40.7467 36.3365 40.8246 36.6536 40.8669C36.8299 40.8947 36.9923 40.9342 37.1385 40.969C37.621 41.085 37.7997 41.1082 37.9087 40.8878C38.0757 40.5444 38.3518 38.9297 38.4446 38.3358C38.449 38.3103 38.4612 38.2868 38.4794 38.2685C38.7036 38.0522 38.9114 37.8195 39.1012 37.5725C39.1495 37.5201 39.1851 37.4572 39.2052 37.3888C39.2254 37.3204 39.2294 37.2483 39.2172 37.1781C39.2018 37.126 39.1748 37.078 39.1382 37.0379C39.1017 36.9977 39.0565 36.9663 39.0061 36.9461C38.6975 36.8023 38.4052 36.4821 38.3541 35.0483C38.323 34.2835 38.0822 33.5419 37.6581 32.9047C36.2337 32.4407 33.9299 32.7469 32.6029 33.5775C31.9208 34.0067 31.5217 34.5495 31.4429 35.1481C31.1784 37.2361 31.6238 37.9321 31.6285 37.9321C31.6387 37.9477 31.6453 37.9654 31.6477 37.9839C31.6501 38.0023 31.6483 38.0211 31.6424 38.0388L31.0229 39.8043Z" fill="#263238"/>
<path d="M38.0857 37.3519C37.9743 37.3519 37.8189 37.2869 37.7006 36.9737C37.5399 36.4696 37.5399 35.928 37.7006 35.4239C37.8189 35.1084 37.9743 35.0435 38.0834 35.0435C38.1924 35.0435 38.3478 35.1084 38.4662 35.4216C38.5516 35.6709 38.594 35.933 38.5914 36.1965C38.5964 36.4598 38.5556 36.722 38.4708 36.9714C38.3548 37.2846 38.1994 37.3519 38.088 37.3519H38.0857ZM38.0857 35.2755C38.0578 35.2755 37.9859 35.3219 37.9186 35.5075C37.7754 35.9604 37.7754 36.4465 37.9186 36.8995C37.9859 37.0804 38.0578 37.1315 38.0857 37.1315C38.1135 37.1315 38.1854 37.0827 38.2527 36.8995C38.3267 36.675 38.362 36.4397 38.3571 36.2035C38.3605 35.967 38.3236 35.7316 38.2481 35.5075C38.1785 35.3311 38.1089 35.2847 38.081 35.2847L38.0857 35.2755Z" fill="#263238"/>
<path d="M37.6935 36.3245L33.6915 36.1621C33.6763 36.1615 33.6613 36.1579 33.6475 36.1515C33.6336 36.1451 33.6212 36.136 33.6108 36.1248C33.6005 36.1136 33.5925 36.1005 33.5872 36.0862C33.5819 36.0719 33.5796 36.0567 33.5802 36.0414C33.5801 36.026 33.5833 36.0107 33.5894 35.9966C33.5956 35.9824 33.6047 35.9697 33.616 35.9592C33.6273 35.9487 33.6407 35.9407 33.6553 35.9357C33.6699 35.9307 33.6854 35.9288 33.7008 35.9301L37.7028 36.0925C37.7336 36.0925 37.7631 36.1047 37.7848 36.1265C37.8066 36.1482 37.8188 36.1777 37.8188 36.2085C37.8188 36.2392 37.8066 36.2687 37.7848 36.2905C37.7631 36.3123 37.7336 36.3245 37.7028 36.3245H37.6935Z" fill="#263238"/>
<path d="M38.2239 35.0323C38.2063 35.0317 38.1889 35.0278 38.1728 35.0207C37.9171 34.923 37.652 34.8523 37.3817 34.8095C37.3515 34.8039 37.3246 34.7867 37.3069 34.7615C37.2891 34.7364 37.2818 34.7054 37.2866 34.675C37.2888 34.66 37.2941 34.6456 37.302 34.6326C37.3099 34.6196 37.3203 34.6084 37.3326 34.5995C37.3449 34.5907 37.3589 34.5843 37.3737 34.581C37.3885 34.5776 37.4039 34.5772 37.4188 34.5799C37.7125 34.6259 38.0003 34.7037 38.2772 34.8119C38.291 34.8185 38.3032 34.8279 38.3133 34.8393C38.3233 34.8508 38.331 34.8642 38.3357 34.8787C38.3405 34.8933 38.3423 34.9086 38.341 34.9238C38.3397 34.939 38.3354 34.9538 38.3283 34.9673C38.3187 34.9868 38.3038 35.0033 38.2854 35.0148C38.2669 35.0262 38.2456 35.0323 38.2239 35.0323Z" fill="#263238"/>
<path d="M38.1694 39.0757H38.1554L37.7378 39.0293C37.7226 39.0279 37.7078 39.0234 37.6942 39.0162C37.6807 39.009 37.6687 38.9992 37.659 38.9873C37.6493 38.9754 37.6421 38.9618 37.6377 38.9471C37.6333 38.9324 37.6318 38.917 37.6334 38.9017C37.6375 38.8709 37.6533 38.8429 37.6775 38.8235C37.7017 38.804 37.7324 38.7947 37.7634 38.7973L38.181 38.8437C38.212 38.8472 38.2404 38.8628 38.2599 38.8872C38.2795 38.9115 38.2886 38.9426 38.2854 38.9736C38.2815 39.0017 38.2676 39.0275 38.2463 39.0462C38.225 39.065 38.1977 39.0754 38.1694 39.0757Z" fill="#263238"/>
<path d="M33.6904 36.0459C33.6904 36.0459 34.7019 36.0598 34.6045 35.7559C34.507 35.452 34.1729 35.2177 34.3725 34.9787C34.572 34.7398 35.377 34.4683 35.3956 34.0136C35.4141 33.5589 35.1636 33.3686 35.2517 33.2457C35.3399 33.1227 36.7203 33.5403 37.0033 33.3431C37.2864 33.1459 37.0753 32.9905 37.0753 32.9905C37.0753 32.9905 38.7294 33.6981 39.0078 33.2387C39.2862 32.7794 39.1076 31.4523 37.1797 30.5846C35.2517 29.717 31.5397 29.601 30.5932 30.4756C29.6466 31.3502 28.8369 32.7631 28.8764 34.1713C28.9158 35.5796 29.9598 37.3613 30.2823 37.9854C30.6048 38.6095 31.266 39.1454 31.8785 38.9134C32.4909 38.6814 33.0385 37.5214 33.1591 36.8022C33.2797 36.083 33.6904 36.0459 33.6904 36.0459Z" fill="#263238"/>
<path d="M31.571 39.0827C31.0049 39.0827 30.4644 38.6048 30.179 38.0387L30.0468 37.7905C29.6408 37.0319 28.7963 35.4543 28.7592 34.1736C28.7174 32.6192 29.6385 31.1994 30.5131 30.3897C31.5432 29.4385 35.3341 29.6287 37.2272 30.4802C38.5937 31.095 39.0205 31.9 39.1528 32.3362C39.2112 32.4929 39.2372 32.6599 39.2292 32.827C39.2213 32.9941 39.1795 33.1578 39.1064 33.3083C38.8419 33.7398 37.777 33.3987 37.2504 33.2015C37.2199 33.3044 37.1521 33.3921 37.0601 33.4475C36.8722 33.5774 36.4407 33.5171 35.8491 33.4173C35.6774 33.3895 35.4547 33.35 35.348 33.3477C35.348 33.3709 35.3689 33.4034 35.3805 33.4289C35.4663 33.6164 35.5076 33.8213 35.5011 34.0275C35.4849 34.3871 35.0974 34.6283 34.7842 34.8209C34.6638 34.8831 34.5522 34.9611 34.4525 35.0529C34.3875 35.1364 34.4269 35.213 34.5453 35.3986C34.615 35.499 34.6711 35.6082 34.7123 35.7234C34.7242 35.7586 34.7275 35.7962 34.7218 35.8329C34.7162 35.8696 34.7018 35.9045 34.6798 35.9345C34.5151 36.1665 33.9003 36.1665 33.6985 36.1665C33.6497 36.1665 33.3505 36.2616 33.2623 36.8254C33.144 37.5794 32.5663 38.7835 31.9074 39.0271C31.7994 39.0652 31.6856 39.0841 31.571 39.0827ZM33.2693 29.9883C32.1093 29.9883 31.0815 30.1763 30.6639 30.5614C29.8635 31.3015 28.9425 32.6888 28.9842 34.169C29.019 35.3916 29.8473 36.9391 30.244 37.6815L30.3785 37.932C30.6755 38.5051 31.2857 39.0062 31.8309 38.8043C32.3761 38.6025 32.9305 37.4518 33.0349 36.7836C33.1579 35.9995 33.6567 35.9322 33.6776 35.9299H33.6915C34.072 35.9299 34.4594 35.8672 34.4965 35.793C34.4602 35.6968 34.4119 35.6056 34.3527 35.5215C34.239 35.3452 34.0998 35.1271 34.2738 34.9067C34.3874 34.7892 34.519 34.6906 34.6636 34.6144C34.9304 34.4497 35.2621 34.2455 35.2714 34.0089C35.2768 33.8362 35.2419 33.6646 35.1693 33.5078C35.1229 33.3941 35.0789 33.2758 35.1461 33.183C35.2134 33.0902 35.3781 33.0948 35.8909 33.183C36.2342 33.2387 36.8049 33.3361 36.9302 33.2503C37.0021 33.1992 37.0277 33.1598 37.0277 33.1366C37.0242 33.1165 37.0135 33.0983 36.9975 33.0855C36.9757 33.0678 36.9609 33.0429 36.9558 33.0153C36.9507 32.9876 36.9556 32.9591 36.9697 32.9347C36.9838 32.9107 37.0061 32.8925 37.0325 32.8836C37.0589 32.8746 37.0877 32.8755 37.1135 32.886C37.7422 33.1551 38.7375 33.4359 38.9022 33.1807C38.9581 33.058 38.9888 32.9254 38.9924 32.7907C38.996 32.656 38.9724 32.5219 38.9231 32.3965C38.8025 32.0091 38.4104 31.2713 37.1251 30.6936C36.0904 30.2273 34.587 29.9883 33.2693 29.9883Z" fill="#263238"/>
<path d="M33.8424 36.4541C33.8424 36.4541 33.7914 35.4356 33.2578 35.2454C32.7242 35.0551 32.1651 35.6792 32.3692 36.4866C32.3949 36.6298 32.4508 36.766 32.5331 36.8861C32.6154 37.0062 32.7223 37.1075 32.8466 37.1831C32.971 37.2588 33.11 37.3072 33.2545 37.3251C33.399 37.343 33.5456 37.33 33.6847 37.287" fill="white"/>
<path d="M33.409 37.4588C33.2388 37.4568 33.071 37.4181 32.9172 37.3451C32.7542 37.2633 32.6114 37.1464 32.499 37.0028C32.3867 36.8592 32.3076 36.6924 32.2676 36.5145C32.2037 36.3044 32.1977 36.081 32.2504 35.8678C32.3031 35.6546 32.4124 35.4596 32.5669 35.3035C32.6626 35.209 32.7829 35.1433 32.9142 35.1137C33.0454 35.0842 33.1823 35.0921 33.3093 35.1364C33.9078 35.3499 33.9681 36.4032 33.9705 36.4496C33.9711 36.4648 33.9687 36.48 33.9634 36.4943C33.9582 36.5086 33.9501 36.5218 33.9398 36.533C33.9295 36.5442 33.917 36.5532 33.9032 36.5596C33.8893 36.566 33.8743 36.5696 33.8591 36.5702C33.844 36.5711 33.8288 36.569 33.8145 36.564C33.8002 36.559 33.7871 36.5512 33.7758 36.5411C33.7646 36.5309 33.7555 36.5186 33.7491 36.5049C33.7427 36.4912 33.7391 36.4763 33.7385 36.4612C33.7245 36.199 33.6085 35.4891 33.2304 35.3568C33.1431 35.3269 33.0492 35.3222 32.9594 35.3431C32.8695 35.364 32.7874 35.4098 32.7223 35.4752C32.6165 35.5975 32.5394 35.7419 32.4965 35.8978C32.4537 36.0538 32.4462 36.2173 32.4747 36.3765C32.5031 36.5357 32.5668 36.6866 32.661 36.818C32.7552 36.9495 32.8776 37.0582 33.0193 37.1363C33.1155 37.1862 33.2209 37.2158 33.3291 37.2234C33.4372 37.231 33.5457 37.2164 33.648 37.1804C33.676 37.1678 33.7078 37.1669 33.7365 37.1777C33.7652 37.1886 33.7884 37.2104 33.8011 37.2384C33.8077 37.252 33.8115 37.2669 33.8123 37.2821C33.8131 37.2972 33.8108 37.3124 33.8056 37.3267C33.8004 37.3409 33.7924 37.354 33.7821 37.3652C33.7717 37.3763 33.7593 37.3852 33.7454 37.3915C33.6393 37.4373 33.5246 37.4603 33.409 37.4588Z" fill="#263238"/>
<path d="M35.6842 40.7418C35.3275 40.6349 34.9928 40.4652 34.6958 40.2406C34.4853 40.0827 34.2972 39.897 34.1367 39.6885L35.0462 42.0758L35.6842 40.7418Z" fill="#263238"/>
<path d="M35.0468 42.1915C35.0241 42.1904 35.0022 42.1829 34.9837 42.1697C34.9652 42.1565 34.9508 42.1383 34.9424 42.1172L34.033 39.7299C34.0229 39.7034 34.0229 39.6741 34.0329 39.6476C34.043 39.621 34.0625 39.5991 34.0877 39.586C34.1128 39.5728 34.1419 39.5693 34.1695 39.5762C34.197 39.5831 34.2211 39.5998 34.2371 39.6232C34.3924 39.821 34.5726 39.998 34.773 40.1499C35.0594 40.3633 35.3804 40.5257 35.7219 40.6301C35.7383 40.6348 35.7534 40.6431 35.7663 40.6543C35.7791 40.6655 35.7893 40.6795 35.7962 40.6951C35.8035 40.7103 35.8074 40.7269 35.8074 40.7438C35.8074 40.7607 35.8035 40.7773 35.7962 40.7925L35.1582 42.1265C35.1481 42.1471 35.1322 42.1643 35.1123 42.1759C35.0925 42.1874 35.0697 42.1929 35.0468 42.1915ZM34.4506 40.1847L35.0584 41.7808L35.5224 40.8111C35.1982 40.7012 34.8941 40.5389 34.6222 40.3308L34.4506 40.1847Z" fill="#263238"/>
<path d="M30.6239 51.7592C30.5935 51.7592 30.5644 51.7473 30.5427 51.726C30.521 51.7048 30.5085 51.6759 30.5079 51.6455C30.5073 51.6302 30.5098 51.6149 30.5152 51.6006C30.5206 51.5862 30.5289 51.5732 30.5395 51.5621C30.5501 51.5511 30.5629 51.5423 30.577 51.5363C30.5911 51.5303 30.6063 51.5272 30.6216 51.5272C30.8598 51.5256 31.0976 51.5093 31.3338 51.4785C31.3491 51.4765 31.3646 51.4776 31.3794 51.4817C31.3942 51.4858 31.4081 51.4928 31.4201 51.5023C31.4322 51.5118 31.4423 51.5236 31.4498 51.5371C31.4573 51.5505 31.462 51.5653 31.4637 51.5805C31.4657 51.5955 31.4646 51.6107 31.4607 51.6252C31.4567 51.6398 31.4499 51.6534 31.4406 51.6652C31.4313 51.6771 31.4197 51.687 31.4066 51.6944C31.3934 51.7017 31.379 51.7064 31.364 51.7081C31.1192 51.7386 30.8729 51.7556 30.6262 51.7592H30.6239Z" fill="#263238"/>
<path d="M29.9718 51.7361C29.0583 51.6686 28.1558 51.4942 27.2829 51.2164C27.2541 51.2064 27.2305 51.1854 27.217 51.1581C27.2035 51.1307 27.2014 51.0992 27.211 51.0703C27.216 51.0557 27.2237 51.0423 27.2339 51.0308C27.2441 51.0194 27.2564 51.01 27.2702 51.0033C27.284 50.9966 27.299 50.9927 27.3144 50.9919C27.3297 50.991 27.345 50.9932 27.3595 50.9983C28.2109 51.2674 29.0906 51.4371 29.9811 51.5041C30.0115 51.5065 30.0397 51.5207 30.0596 51.5437C30.0796 51.5667 30.0897 51.5967 30.0878 51.6271C30.0866 51.6568 30.0738 51.6849 30.0521 51.7053C30.0304 51.7257 30.0016 51.7367 29.9718 51.7361Z" fill="#263238"/>
<path d="M30.929 53.6894H30.8988C30.6356 53.6146 30.3769 53.5248 30.124 53.4203C30.0954 53.4089 30.0724 53.3866 30.0603 53.3583C30.0481 53.33 30.0476 53.2981 30.059 53.2695C30.0704 53.2409 30.0927 53.2179 30.121 53.2058C30.1492 53.1936 30.1812 53.1931 30.2098 53.2045C30.4543 53.3063 30.7045 53.3938 30.9592 53.4667C30.9741 53.4701 30.9881 53.4766 31.0004 53.4858C31.0127 53.4949 31.023 53.5065 31.0306 53.5197C31.0382 53.533 31.043 53.5477 31.0447 53.5629C31.0464 53.5782 31.0449 53.5936 31.0404 53.6082C31.0329 53.6319 31.0181 53.6525 30.9981 53.6671C30.978 53.6817 30.9538 53.6895 30.929 53.6894Z" fill="#263238"/>
<path d="M29.6428 53.1952C29.6267 53.1986 29.6101 53.1986 29.5941 53.1952C28.8197 52.83 28.0647 52.425 27.3321 51.9819C27.3059 51.9656 27.2873 51.9396 27.2803 51.9095C27.2734 51.8795 27.2786 51.848 27.2949 51.8218C27.3112 51.7957 27.3373 51.7771 27.3673 51.7701C27.3973 51.7631 27.4289 51.7684 27.455 51.7847C28.1786 52.224 28.9252 52.6244 29.6915 52.9841C29.715 52.9955 29.734 53.0145 29.7454 53.038C29.7567 53.0614 29.7599 53.0881 29.7542 53.1136C29.7486 53.1391 29.7345 53.1619 29.7143 53.1784C29.6941 53.1949 29.6689 53.2041 29.6428 53.2045V53.1952Z" fill="#263238"/>
<path d="M27.7103 56.4992C27.6926 56.5 27.6749 56.496 27.6593 56.4876C27.3758 56.3386 27.1174 56.146 26.8937 55.9168C26.8828 55.9061 26.8742 55.8932 26.8683 55.8791C26.8624 55.865 26.8594 55.8498 26.8594 55.8345C26.8594 55.8192 26.8624 55.804 26.8683 55.7899C26.8742 55.7757 26.8828 55.7629 26.8937 55.7521C26.9158 55.7307 26.9453 55.7188 26.976 55.7188C27.0068 55.7188 27.0363 55.7307 27.0584 55.7521C27.2623 55.9627 27.497 56.141 27.7544 56.2811C27.7684 56.2875 27.7809 56.2967 27.7911 56.3081C27.8014 56.3195 27.8093 56.3329 27.8143 56.3474C27.8193 56.3619 27.8213 56.3773 27.8202 56.3926C27.819 56.4079 27.8148 56.4229 27.8078 56.4365C27.7988 56.4549 27.785 56.4705 27.7678 56.4815C27.7506 56.4926 27.7308 56.4987 27.7103 56.4992Z" fill="#263238"/>
<path d="M26.381 55.2994C26.3638 55.2994 26.3468 55.2957 26.3311 55.2885C26.3155 55.2813 26.3016 55.2708 26.2905 55.2576C25.6807 54.4856 25.1308 53.6682 24.6456 52.8124C24.6382 52.7989 24.6334 52.7842 24.6316 52.769C24.6299 52.7537 24.6311 52.7383 24.6353 52.7235C24.6395 52.7088 24.6466 52.695 24.6561 52.683C24.6656 52.6709 24.6775 52.6609 24.6909 52.6534C24.7043 52.646 24.719 52.6412 24.7342 52.6394C24.7495 52.6377 24.7649 52.6389 24.7797 52.6431C24.7944 52.6473 24.8082 52.6544 24.8203 52.6639C24.8323 52.6735 24.8423 52.6853 24.8498 52.6987C25.3283 53.5427 25.8712 54.3486 26.4738 55.1091C26.4926 55.1335 26.5014 55.1641 26.4984 55.1947C26.4953 55.2254 26.4807 55.2537 26.4575 55.2739C26.4355 55.2906 26.4086 55.2996 26.381 55.2994Z" fill="#263238"/>
<path d="M33.8281 43.639L34.552 45.6458L34.8814 48.8521C34.8814 48.8521 35.3802 47.307 35.5055 46.7641C35.5625 46.385 35.4906 45.9978 35.3013 45.6644L35.0044 44.5206L34.8559 45.2561L34.1599 43.6089L33.8281 43.639Z" fill="#EF233C"/>
<path d="M34.8816 48.9682C34.8554 48.9656 34.8309 48.954 34.8123 48.9354C34.7936 48.9168 34.7821 48.8923 34.7795 48.8661L34.4501 45.6738L33.7309 43.6809C33.7229 43.665 33.7188 43.6476 33.7188 43.6298C33.7188 43.6121 33.7229 43.5946 33.7309 43.5788C33.7399 43.5638 33.7525 43.5511 33.7674 43.5418C33.7823 43.5325 33.7992 43.5269 33.8167 43.5254L34.1485 43.4976C34.1727 43.4952 34.1971 43.5007 34.2179 43.5133C34.2388 43.5258 34.2551 43.5447 34.2645 43.5672L34.8166 44.8664L34.8909 44.4998C34.8956 44.4742 34.9091 44.451 34.9289 44.4341C34.9488 44.4172 34.9738 44.4077 34.9999 44.407C35.0258 44.4073 35.051 44.4157 35.0718 44.4312C35.0926 44.4466 35.1081 44.4682 35.1159 44.4929L35.4105 45.6227C35.6097 45.9787 35.6833 46.3914 35.6193 46.7943C35.4941 47.3326 35.0138 48.8266 34.9929 48.8823C34.9863 48.9068 34.9719 48.9285 34.9517 48.944C34.9316 48.9595 34.907 48.968 34.8816 48.9682ZM33.9884 43.7412L34.6612 45.5972V45.625L34.9326 48.2745C35.0904 47.7757 35.3085 47.0588 35.3966 46.7294C35.4468 46.3789 35.3799 46.0217 35.2064 45.7132C35.2051 45.7032 35.2051 45.6931 35.2064 45.683L35.0347 45.0288L34.986 45.2608C34.9812 45.2845 34.9689 45.3061 34.9509 45.3224C34.933 45.3387 34.9103 45.3488 34.8862 45.3513C34.8613 45.3539 34.8362 45.3486 34.8146 45.3361C34.7929 45.3236 34.7757 45.3045 34.7656 45.2817L34.0997 43.7134L33.9884 43.7412Z" fill="#263238"/>
<path d="M30.6923 39.2407L30.0566 40.2476L33.6712 44.47L35.4669 42.4168L30.6923 39.2407Z" fill="white"/>
<path d="M33.6704 44.586C33.6537 44.5863 33.6371 44.5829 33.6219 44.5761C33.6067 44.5693 33.5931 44.5592 33.5822 44.5465L29.9677 40.3241C29.9531 40.3043 29.9453 40.2803 29.9453 40.2557C29.9453 40.2311 29.9531 40.2071 29.9677 40.1873L30.601 39.1781C30.6182 39.1521 30.6448 39.1338 30.6753 39.127C30.7056 39.1207 30.7373 39.1265 30.7634 39.1433L35.5403 42.3193C35.554 42.3283 35.5655 42.3403 35.5739 42.3544C35.5824 42.3684 35.5875 42.3842 35.589 42.4005C35.5915 42.4169 35.5905 42.4337 35.5861 42.4497C35.5817 42.4656 35.574 42.4805 35.5635 42.4933L33.7585 44.5442C33.7476 44.5569 33.734 44.5672 33.7189 44.5744C33.7037 44.5816 33.6872 44.5855 33.6704 44.586ZM30.1904 40.2383L33.6704 44.2937L35.2944 42.4377L30.7286 39.4008L30.1904 40.2383Z" fill="#263238"/>
<path d="M34.8824 48.8521C34.8824 48.8521 32.0172 55.652 31.4813 56.8398C30.9453 58.0276 29.5742 59.8953 29.5742 59.8953L29.6995 62.2918L32.2213 60.7838C32.2213 60.7838 33.9451 56.1438 34.4323 53.2229C34.9195 50.302 34.8824 48.8521 34.8824 48.8521Z" fill="#EF233C"/>
<path d="M29.6969 62.4081C29.6782 62.4082 29.6598 62.4034 29.6435 62.3941C29.6256 62.3852 29.6104 62.3717 29.5994 62.355C29.5884 62.3383 29.582 62.319 29.5809 62.299L29.4649 59.8955C29.4644 59.8689 29.4725 59.8428 29.4881 59.8213C29.502 59.8027 30.8801 57.9467 31.3812 56.789C31.8823 55.6313 34.7545 48.8732 34.7823 48.8059C34.7929 48.7813 34.8115 48.761 34.8351 48.7484C34.8587 48.7358 34.8859 48.7315 34.9122 48.7363C34.938 48.7416 34.9613 48.7555 34.9782 48.7757C34.995 48.7959 35.0045 48.8213 35.005 48.8477C35.005 48.8639 35.0352 50.3348 34.5526 53.2301C34.0701 56.1255 32.3533 60.7655 32.3347 60.8119C32.3268 60.8375 32.3094 60.8591 32.286 60.8722L29.7665 62.3872C29.7463 62.4017 29.7217 62.4091 29.6969 62.4081ZM29.6969 59.9303L29.8105 62.0949L32.1305 60.7029C32.2953 60.2528 33.8659 55.9353 34.3206 53.2C34.5384 51.9652 34.684 50.7188 34.7568 49.4671C34.0608 51.1213 32.0215 55.9213 31.5923 56.8911C31.0889 58.0001 29.8871 59.6589 29.6969 59.9257V59.9303Z" fill="#263238"/>
<path d="M31.3708 43.4629C31.3708 43.4629 30.4034 42.8412 29.6587 42.9618C28.914 43.0825 27.1809 44.029 26.4107 44.9199C25.6404 45.8108 19.5087 49.0959 19.2697 49.5599C19.0308 50.0239 15.168 59.6565 15.168 59.6565L17.5506 60.7585L19.7662 57.3481L22.8286 51.8497L30.3036 49.2977" fill="white"/>
<path d="M17.5525 60.8793C17.5365 60.8826 17.5199 60.8826 17.5038 60.8793L15.1212 59.775C15.0944 59.7623 15.0734 59.7399 15.0626 59.7123C15.0519 59.6847 15.052 59.654 15.0632 59.6265C15.2209 59.2344 18.9306 49.9916 19.1673 49.5206C19.2879 49.2886 20.3597 48.6367 22.2413 47.5138C23.9697 46.4837 25.9277 45.3168 26.3245 44.8551C27.0785 43.9781 28.8324 42.9852 29.6397 42.8552C30.4471 42.7253 31.3937 43.3471 31.4331 43.3726C31.4461 43.3806 31.4573 43.3912 31.4662 43.4036C31.4751 43.416 31.4814 43.4301 31.4849 43.4449C31.4883 43.4598 31.4888 43.4752 31.4863 43.4903C31.4838 43.5053 31.4783 43.5197 31.4702 43.5327C31.4535 43.559 31.4271 43.5777 31.3967 43.5847C31.3662 43.5916 31.3343 43.5863 31.3078 43.5698C31.3078 43.5698 30.3798 42.9736 29.6838 43.0849C28.9878 43.1963 27.271 44.1196 26.5077 45.0059C26.0855 45.4977 24.1877 46.6299 22.3665 47.7133C21.0163 48.5184 19.4874 49.4301 19.383 49.625C19.151 50.0612 15.7406 58.5756 15.3253 59.6126L17.5177 60.6264L19.6777 57.2996L22.7354 51.7988C22.7492 51.7741 22.7715 51.7552 22.7981 51.7455L30.2754 49.1935C30.3043 49.1839 30.3359 49.186 30.3633 49.1995C30.3906 49.2129 30.4116 49.2366 30.4216 49.2654C30.4313 49.2946 30.4292 49.3265 30.4158 49.3542C30.4023 49.382 30.3786 49.4034 30.3497 49.4139L22.9257 51.9496L19.8865 57.4063L17.6662 60.826C17.6544 60.8448 17.6374 60.8599 17.6172 60.8693C17.5971 60.8788 17.5746 60.8823 17.5525 60.8793Z" fill="#263238"/>
<path d="M18.0646 59.9467C18.0493 59.9502 18.0335 59.9502 18.0182 59.9467L15.4662 58.8285C15.4401 58.8147 15.4202 58.7915 15.4106 58.7636C15.401 58.7357 15.4024 58.7051 15.4145 58.6782C15.4267 58.6513 15.4486 58.63 15.4759 58.6187C15.5032 58.6074 15.5337 58.6069 15.5613 58.6174L18.1133 59.7333C18.1413 59.746 18.1632 59.7691 18.1745 59.7976C18.1857 59.8262 18.1854 59.858 18.1737 59.8864C18.1631 59.9058 18.1472 59.9218 18.1279 59.9324C18.1086 59.9431 18.0866 59.9481 18.0646 59.9467Z" fill="#263238"/>
<path d="M17.5539 60.7631L17.7859 62.8511L17.4008 63.8C17.4524 64.0705 17.4857 64.3441 17.5006 64.619C17.4843 64.8046 17.5678 64.9043 17.2894 64.8231C17.011 64.7419 16.7025 64.1271 16.7025 64.1271L16.2756 64.9461C16.2756 64.9461 16.1387 65.018 15.7443 64.8278C15.6162 64.7486 15.5052 64.6446 15.418 64.5219C15.3307 64.3992 15.2689 64.2602 15.2362 64.1132C15.2362 64.1132 14.0275 63.336 13.9208 62.9671C13.8571 62.6189 13.8571 62.2621 13.9208 61.9139L15.1759 59.6611L17.5539 60.7631Z" fill="white"/>
<path d="M16.1876 65.0716C16.0143 65.0605 15.8455 65.0114 15.6934 64.9277C15.5553 64.847 15.4348 64.7396 15.3388 64.6117C15.2428 64.4838 15.1732 64.3381 15.1343 64.183C14.9023 64.0299 13.9163 63.378 13.8003 63.0021C13.7306 62.6357 13.7306 62.2595 13.8003 61.8932C13.8024 61.88 13.8072 61.8674 13.8142 61.856L15.067 59.6056C15.0813 59.5799 15.1048 59.5606 15.1328 59.5515C15.1608 59.5425 15.1912 59.5444 15.2178 59.5569L17.6004 60.6589C17.6189 60.667 17.6348 60.6799 17.6466 60.6962C17.6584 60.7125 17.6657 60.7317 17.6677 60.7517L17.8997 62.8397C17.9054 62.8578 17.9054 62.8773 17.8997 62.8954L17.5262 63.8072C17.5795 64.0771 17.6106 64.3511 17.619 64.6261C17.619 64.6609 17.619 64.6934 17.619 64.7212C17.6266 64.758 17.6247 64.7961 17.6133 64.8318C17.6019 64.8676 17.5815 64.8998 17.554 64.9254C17.4868 64.9811 17.394 64.9695 17.2617 64.9254C17.046 64.8604 16.8325 64.5635 16.7096 64.357L16.3824 64.9857C16.3713 65.005 16.3553 65.021 16.336 65.0321C16.291 65.0584 16.2397 65.072 16.1876 65.0716ZM14.0276 61.9442C13.9675 62.2678 13.9675 62.5997 14.0276 62.9232C14.1042 63.1668 14.8512 63.7144 15.306 64.002C15.3319 64.0193 15.3502 64.0459 15.357 64.0763C15.3824 64.2086 15.4341 64.3345 15.509 64.4465C15.5839 64.5584 15.6805 64.6542 15.7932 64.7282C15.9165 64.7988 16.0548 64.8393 16.1968 64.8465L16.6005 64.0786C16.6098 64.0595 16.6243 64.0435 16.6424 64.0324C16.6605 64.0213 16.6814 64.0156 16.7026 64.016C16.7243 64.0162 16.7455 64.0224 16.7639 64.0338C16.7823 64.0453 16.7972 64.0616 16.807 64.0809C16.9253 64.3129 17.1643 64.6748 17.322 64.7212L17.3824 64.7375C17.3801 64.6981 17.3801 64.6586 17.3824 64.6192C17.3688 64.3535 17.3362 64.0891 17.2849 63.828C17.2792 63.8068 17.2792 63.7844 17.2849 63.7631L17.6631 62.849L17.4311 60.8515L15.2039 59.8214L14.0276 61.9442Z" fill="#263238"/>
<path d="M13.921 61.9141C13.921 61.9141 13.1461 61.9883 13.0046 62.211C12.8631 62.4337 12.2344 63.6819 12.2344 63.6819L12.7309 64.0531C12.7309 64.0531 13.058 63.32 13.283 62.9325C13.3363 62.8262 13.4209 62.7387 13.5255 62.6819C13.63 62.6251 13.7494 62.6016 13.8677 62.6147L13.921 61.9141Z" fill="#263238"/>
<path d="M12.7249 64.1688C12.6996 64.1698 12.6749 64.1615 12.6553 64.1456L12.1588 63.7744C12.1372 63.7582 12.122 63.7348 12.1161 63.7085C12.1101 63.6821 12.1138 63.6545 12.1263 63.6306C12.1518 63.5795 12.7597 62.3731 12.9012 62.1481C13.0427 61.9231 13.7666 61.8117 13.9034 61.7978C13.9203 61.7964 13.9373 61.7985 13.9533 61.8041C13.9693 61.8097 13.9839 61.8186 13.9962 61.8303C14.0087 61.8421 14.0183 61.8566 14.0243 61.8727C14.0303 61.8887 14.0326 61.906 14.031 61.9231L13.9777 62.6191C13.9757 62.635 13.9705 62.6503 13.9626 62.6642C13.9546 62.6781 13.9439 62.6903 13.9311 62.7C13.9184 62.7097 13.9038 62.7168 13.8883 62.7208C13.8728 62.7248 13.8567 62.7257 13.8408 62.7235C13.7456 62.7144 13.65 62.7349 13.5669 62.7822C13.4839 62.8296 13.4175 62.9014 13.3768 62.9879C13.1448 63.3638 12.8316 64.0899 12.827 64.0969C12.82 64.1129 12.8095 64.127 12.7962 64.1383C12.783 64.1496 12.7673 64.1576 12.7504 64.1619L12.7249 64.1688ZM12.3769 63.6491L12.6785 63.8811C12.7829 63.6491 13.0079 63.1735 13.1773 62.8812C13.2324 62.7734 13.3146 62.6818 13.4159 62.6155C13.5172 62.5491 13.6341 62.5104 13.755 62.5031L13.7898 62.053C13.4789 62.0947 13.1564 62.1852 13.0938 62.285C12.9917 62.4543 12.5277 63.3615 12.3769 63.6491Z" fill="#263238"/>
<path d="M17.0501 63.1646L16.774 63.8327C16.774 63.8327 17.2032 64.0809 17.0872 64.3501C16.9712 64.6192 16.4121 65.8882 16.4121 65.8882L16.9736 66.1643C16.9736 66.1643 17.7484 65.0739 17.7368 64.4684C17.7333 64.2123 17.6692 63.9607 17.5499 63.7341C17.4305 63.5075 17.2593 63.3123 17.0501 63.1646Z" fill="#263238"/>
<path d="M16.9741 66.2779C16.9556 66.2785 16.9372 66.2746 16.9207 66.2663L16.3616 65.9902C16.335 65.9767 16.3145 65.9537 16.3042 65.9258C16.2939 65.8978 16.2945 65.867 16.3059 65.8395C16.3059 65.8395 16.8673 64.5704 16.981 64.3036C17.0437 64.1621 16.8047 63.9858 16.7165 63.9347C16.6919 63.9205 16.6734 63.8978 16.6644 63.8709C16.6554 63.844 16.6566 63.8147 16.6678 63.7886L16.9369 63.1181C16.9438 63.1025 16.954 63.0885 16.9668 63.0773C16.9796 63.0661 16.9948 63.0578 17.0112 63.0531C17.0274 63.048 17.0446 63.0466 17.0615 63.049C17.0784 63.0514 17.0945 63.0576 17.1086 63.067C17.3322 63.2249 17.5154 63.4332 17.6436 63.675C17.7717 63.9168 17.8412 64.1854 17.8464 64.459C17.8603 65.097 17.0924 66.1805 17.0599 66.2246C17.0508 66.2396 17.0383 66.2523 17.0234 66.2616C17.0085 66.2708 16.9916 66.2764 16.9741 66.2779ZM16.5634 65.8302L16.9346 66.0135C17.1086 65.7559 17.6306 64.9393 17.6306 64.4683C17.6257 64.2533 17.5762 64.0416 17.4851 63.8467C17.3941 63.6518 17.2635 63.4779 17.1017 63.3362L16.9184 63.8002C17.0993 63.9301 17.3012 64.1598 17.1945 64.4057C17.0877 64.6516 16.7049 65.5239 16.5634 65.8302Z" fill="#263238"/>
<path d="M10.0001 62.1622L19.6792 67.8764C19.6792 67.8764 20.3056 68.4842 20.0782 68.9389C19.8509 69.3936 16.2665 77.2909 16.1157 77.4765C15.9649 77.6621 15.8025 77.9034 15.1668 77.8129C14.5311 77.7224 5.04694 71.4956 4.94254 71.3703C4.83814 71.245 4.42054 70.8877 4.66182 70.3912C4.9031 69.8948 8.87262 62.777 8.9747 62.429C9.07678 62.081 9.71246 62.1761 10.0001 62.1622Z" fill="#878787"/>
<path d="M15.4213 77.9519C15.3304 77.9523 15.2397 77.9453 15.1499 77.931C14.3843 77.8196 4.90013 71.5023 4.85373 71.4559L4.81197 71.4095C4.66117 71.2471 4.30853 70.8643 4.55677 70.3492C4.64957 70.1567 5.25277 69.0477 6.03229 67.6441C7.13429 65.6396 8.80237 62.6144 8.86269 62.4056C8.97173 62.0344 9.47981 62.046 9.81853 62.0529H9.99485C10.0165 62.0526 10.038 62.0574 10.0575 62.0668L19.7388 67.7833L19.7597 67.7996C19.7876 67.8274 20.4557 68.4747 20.182 68.9967C20.1008 69.1568 19.602 70.2448 18.9686 71.6252C17.2077 75.4672 16.296 77.4392 16.2078 77.5528C16.1242 77.6834 16.0072 77.7892 15.8689 77.8594C15.7306 77.9296 15.5761 77.9615 15.4213 77.9519ZM9.65845 62.2733C9.41253 62.2733 9.13413 62.2965 9.08541 62.4612C9.02509 62.6724 7.81405 64.881 6.23645 67.7462C5.49405 69.0918 4.85605 70.2541 4.76557 70.4397C4.58461 70.8132 4.84445 71.094 4.98365 71.2424L5.03005 71.2958C5.09037 71.3468 14.5652 77.6085 15.1824 77.6967C15.7322 77.7779 15.8784 77.5946 16.0106 77.4206C16.1428 77.2466 17.7158 73.7968 18.7598 71.5208C19.3908 70.1404 19.892 69.05 19.9732 68.8853C20.1263 68.5837 19.769 68.1313 19.6066 67.9689L9.97629 62.278H9.65845V62.2733Z" fill="#263238"/>
<path d="M16.8043 72.1635C16.783 72.1639 16.7621 72.1583 16.744 72.1473L7.16468 66.4145C7.15136 66.4071 7.13969 66.3971 7.13042 66.385C7.12114 66.3729 7.11444 66.359 7.11075 66.3442C7.10705 66.3294 7.10643 66.314 7.10892 66.299C7.11141 66.2839 7.11697 66.2696 7.12524 66.2568C7.13269 66.2435 7.14273 66.2319 7.15476 66.2225C7.16679 66.2132 7.18057 66.2064 7.19529 66.2025C7.21 66.1986 7.22534 66.1977 7.24041 66.1999C7.25548 66.202 7.26996 66.2072 7.283 66.215L16.8623 71.9501C16.8847 71.9623 16.9024 71.9817 16.9124 72.0053C16.9225 72.0288 16.9243 72.055 16.9176 72.0797C16.9109 72.1044 16.896 72.126 16.8755 72.1413C16.8549 72.1565 16.8298 72.1643 16.8043 72.1635Z" fill="#263238"/>
<path d="M15.2111 77.6111H15.1786C14.7146 77.4743 14.6566 77.1703 14.6891 76.9383C14.7448 76.5486 18.4011 68.9923 18.7653 68.5167C18.818 68.4362 18.8862 68.3669 18.966 68.313C19.0458 68.2591 19.1355 68.2217 19.2299 68.2029C19.3243 68.1841 19.4215 68.1843 19.5158 68.2036C19.6101 68.2228 19.6997 68.2606 19.7792 68.3149C19.7919 68.3235 19.8028 68.3346 19.8112 68.3474C19.8196 68.3603 19.8254 68.3747 19.8282 68.3898C19.831 68.4049 19.8308 68.4204 19.8276 68.4354C19.8243 68.4505 19.8181 68.4647 19.8093 68.4773C19.7912 68.502 19.7643 68.5189 19.7341 68.5245C19.7039 68.5301 19.6728 68.524 19.6469 68.5075C19.5921 68.4694 19.5299 68.443 19.4644 68.43C19.3989 68.417 19.3315 68.4175 19.2662 68.4317C19.2009 68.4458 19.1393 68.4732 19.085 68.5122C19.0308 68.5512 18.9852 68.6009 18.9509 68.6583C18.5264 69.2127 14.9768 76.6971 14.9188 76.9731C14.8886 77.1866 14.9861 77.3119 15.2436 77.3884C15.2743 77.3927 15.3021 77.4091 15.3208 77.4339C15.3396 77.4587 15.3476 77.4899 15.3433 77.5207C15.339 77.5514 15.3227 77.5792 15.2979 77.5979C15.2731 77.6166 15.2419 77.6247 15.2111 77.6204V77.6111Z" fill="#263238"/>
</g>
<defs>
<clipPath id="clip0_2075_12482">
<rect width="116" height="116" fill="white"/>
</clipPath>
</defs>
</svg>
