<svg width="116" height="116" viewBox="0 0 116 116" fill="none" xmlns="http://www.w3.org/2000/svg">
<path d="M72.6456 25.425C70.1679 22.4368 67.1983 20.1168 62.2915 19.7572C53.5497 19.1169 48.868 26.8263 42.5251 31.3317C34.6139 36.9508 24.2528 35.5773 16.9123 42.2891C8.89436 49.6203 11.6436 56.4921 17.1443 60.3851C22.645 64.278 23.7864 70.4655 27.6817 78.2491C31.577 86.0327 40.9684 93.5959 48.7566 94.2826C53.8838 94.735 59.1664 92.415 63.8366 90.5706C71.3557 87.6126 78.9676 86.1139 86.7118 84.0189C93.0964 82.2905 99.785 79.4184 102.597 72.9711C106.49 64.0368 103.513 51.4368 96.8688 45.9408C90.2243 40.4447 84.4985 39.7556 79.9165 34.944C77.0444 31.9535 75.084 28.3644 72.6456 25.425Z" fill="#EF233C"/>
<path opacity="0.7" d="M72.6456 25.425C70.1679 22.4368 67.1983 20.1168 62.2915 19.7572C53.5497 19.1169 48.868 26.8263 42.5251 31.3317C34.6139 36.9508 24.2528 35.5773 16.9123 42.2891C8.89436 49.6203 11.6436 56.4921 17.1443 60.3851C22.645 64.278 23.7864 70.4655 27.6817 78.2491C31.577 86.0327 40.9684 93.5959 48.7566 94.2826C53.8838 94.735 59.1664 92.415 63.8366 90.5706C71.3557 87.6126 78.9676 86.1139 86.7118 84.0189C93.0964 82.2905 99.785 79.4184 102.597 72.9711C106.49 64.0368 103.513 51.4368 96.8688 45.9408C90.2243 40.4447 84.4985 39.7556 79.9165 34.944C77.0444 31.9535 75.084 28.3644 72.6456 25.425Z" fill="white"/>
<path d="M22.7566 69.6464L19.8334 67.4818C19.0877 66.93 18.3892 66.3169 17.7454 65.649C17.237 65.1354 16.7583 64.5932 16.3117 64.025L15.8477 63.3592L20.1257 61.5264C20.1257 61.5264 20.3137 67.048 22.7566 69.6464Z" fill="#263238"/>
<path d="M16.4922 61.1482C16.4922 61.1482 17.4202 65.9599 24.0531 70.6602C30.6859 75.3605 63.9107 95.2847 65.7435 95.8577C67.5763 96.4308 68.4903 95.8577 69.2931 95.2847C70.0958 94.7116 100.56 69.3958 100.56 69.3958C100.56 69.3958 86.816 62.408 76.3946 56.3389C65.9731 50.2697 58.4123 46.0311 56.2361 44.08C54.0599 42.1289 51.5404 40.187 51.5404 40.187C51.5404 40.187 34.0175 51.8682 27.7163 55.1905C21.4152 58.5127 16.4922 61.1482 16.4922 61.1482Z" fill="#EF233C" stroke="#263238" stroke-linecap="round" stroke-linejoin="round"/>
<path d="M40.5078 54.8957L52.8456 46.5298" stroke="white" stroke-linecap="round" stroke-linejoin="round"/>
<path d="M28.5195 63.0251L39.115 55.8401" stroke="white" stroke-linecap="round" stroke-linejoin="round"/>
<path d="M38.0293 61.1621L56.0998 48.9102" stroke="white" stroke-linecap="round" stroke-linejoin="round"/>
<path d="M31.7715 65.4055L36.1748 62.4197" stroke="white" stroke-linecap="round" stroke-linejoin="round"/>
<path d="M35.0273 67.7835L59.3525 51.2883" stroke="white" stroke-linecap="round" stroke-linejoin="round"/>
<path d="M41.3398 68.0873L62.6073 53.6685" stroke="white" stroke-linecap="round" stroke-linejoin="round"/>
<path d="M38.2793 70.1637L40.2211 68.8459" stroke="white" stroke-linecap="round" stroke-linejoin="round"/>
<path d="M41.5352 72.5418L65.8604 56.0466" stroke="white" stroke-linecap="round" stroke-linejoin="round"/>
<path d="M44.7871 74.922L69.1123 58.4268" stroke="white" stroke-linecap="round" stroke-linejoin="round"/>
<path d="M60.2539 69.0177L72.3666 60.8049" stroke="white" stroke-linecap="round" stroke-linejoin="round"/>
<path d="M48.043 77.3001L58.4574 70.238" stroke="white" stroke-linecap="round" stroke-linejoin="round"/>
<path d="M67.0801 68.9759L75.62 63.1829" stroke="white" stroke-linecap="round" stroke-linejoin="round"/>
<path d="M57.5898 75.4116L65.689 69.9202" stroke="white" stroke-linecap="round" stroke-linejoin="round"/>
<path d="M51.2949 79.678L56.1971 76.3557" stroke="white" stroke-linecap="round" stroke-linejoin="round"/>
<path d="M77.1211 66.7534L78.875 65.5632" stroke="white" stroke-linecap="round" stroke-linejoin="round"/>
<path d="M54.5508 82.0584L75.621 67.7695" stroke="white" stroke-linecap="round" stroke-linejoin="round"/>
<path d="M60.8418 82.3762L82.1278 67.9412" stroke="white" stroke-linecap="round" stroke-linejoin="round"/>
<path d="M57.8027 84.4363L59.5613 83.2461" stroke="white" stroke-linecap="round" stroke-linejoin="round"/>
<path d="M65.5142 88.0647C65.1774 88.3685 64.9106 88.7418 64.7324 89.1588C64.5541 89.5758 64.4686 90.0265 64.4818 90.4799C64.4818 92.0853 66.3146 93.0017 67.1173 92.772C67.92 92.5423 70.4395 89.6795 70.4395 89.6795C70.4395 89.6795 69.7436 87.5033 68.3771 87.3896C67.0106 87.2759 65.5142 88.0647 65.5142 88.0647Z" fill="#263238" stroke="#263238" stroke-linecap="round" stroke-linejoin="round"/>
<path d="M67.2421 96.1059C67.2421 96.1059 69.1793 95.3937 69.4066 93.7859C69.634 92.1782 68.3766 89.893 67.3465 89.0903C66.8005 88.6423 66.1802 88.2936 65.5137 88.0602C65.5137 88.0602 81.4335 77.2931 85.5561 73.6275C89.6788 69.9619 97.3533 64.2361 97.3533 64.2361C97.3533 64.2361 98.9565 63.4357 100.216 64.2361C101.476 65.0365 102.304 65.8439 102.392 67.672C102.446 68.7091 100.332 70.1915 100.332 70.1915L71.6988 93.9066C71.6988 93.9066 68.2861 96.2637 67.2421 96.1059Z" fill="white"/>
<mask id="mask0_2075_11677" style="mask-type:luminance" maskUnits="userSpaceOnUse" x="65" y="63" width="38" height="34">
<path d="M67.2421 96.1059C67.2421 96.1059 69.1793 95.3937 69.4066 93.7859C69.634 92.1782 68.3766 89.893 67.3465 89.0903C66.8005 88.6423 66.1802 88.2936 65.5137 88.0602C65.5137 88.0602 81.4335 77.2931 85.5561 73.6275C89.6788 69.9619 97.3533 64.2361 97.3533 64.2361C97.3533 64.2361 98.9565 63.4357 100.216 64.2361C101.476 65.0365 102.304 65.8439 102.392 67.672C102.446 68.7091 100.332 70.1915 100.332 70.1915L71.6988 93.9066C71.6988 93.9066 68.2861 96.2637 67.2421 96.1059Z" fill="white"/>
</mask>
<g mask="url(#mask0_2075_11677)">
<path d="M102.393 67.6767C102.381 67.4085 102.348 67.1416 102.294 66.8787C101.384 67.6675 99.7416 69.0571 96.7442 71.4955C90.559 76.5345 85.6337 80.2001 85.6337 80.2001C85.6337 80.2001 91.0161 76.1911 89.0696 77.1075C87.1231 78.0239 82.8845 81.6895 79.1122 84.7821C76.7179 86.7402 72.4886 90.6726 69.4146 93.7907C69.1826 95.3938 67.25 96.1107 67.25 96.1107C68.294 96.2684 71.7067 93.9113 71.7067 93.9113L100.34 70.2009C100.34 70.2009 102.447 68.7138 102.393 67.6767Z" fill="#EF233C"/>
<path opacity="0.5" d="M102.393 67.6767C102.381 67.4085 102.348 67.1416 102.294 66.8787C101.384 67.6675 99.7416 69.0571 96.7442 71.4955C90.559 76.5345 85.6337 80.2001 85.6337 80.2001C85.6337 80.2001 91.0161 76.1911 89.0696 77.1075C87.1231 78.0239 82.8845 81.6895 79.1122 84.7821C76.7179 86.7402 72.4886 90.6726 69.4146 93.7907C69.1826 95.3938 67.25 96.1107 67.25 96.1107C68.294 96.2684 71.7067 93.9113 71.7067 93.9113L100.34 70.2009C100.34 70.2009 102.447 68.7138 102.393 67.6767Z" fill="white"/>
</g>
<path d="M67.2421 96.1059C67.2421 96.1059 69.1793 95.3937 69.4066 93.7859C69.634 92.1782 68.3766 89.893 67.3465 89.0903C66.8005 88.6423 66.1802 88.2936 65.5137 88.0602C65.5137 88.0602 81.4335 77.2931 85.5561 73.6275C89.6788 69.9619 97.3533 64.2361 97.3533 64.2361C97.3533 64.2361 98.9565 63.4357 100.216 64.2361C101.476 65.0365 102.304 65.8439 102.392 67.672C102.446 68.7091 100.332 70.1915 100.332 70.1915L71.6988 93.9066C71.6988 93.9066 68.2861 96.2637 67.2421 96.1059Z" stroke="#263238" stroke-linecap="round" stroke-linejoin="round"/>
<path d="M79.7092 35.5169C79.7092 35.5169 80.8251 34.6608 81.1175 34.104C81.3657 33.64 81.549 32.9602 81.3077 32.4475C81.2547 32.3254 81.1766 32.2157 81.0785 32.1258C80.9804 32.0358 80.8645 31.9675 80.7382 31.9252C80.6119 31.883 80.4782 31.8678 80.3457 31.8806C80.2132 31.8935 80.0849 31.9341 79.9691 31.9997C79.2847 32.4127 79.1919 33.8557 79.3543 34.5517C79.3682 34.6097 79.6976 35.5261 79.7092 35.5169Z" fill="#263238"/>
<path d="M69.3931 42.6415C69.4395 42.6833 70.219 43.2656 70.2236 43.2517C70.2283 43.2377 70.6876 41.92 70.618 41.2982C70.5647 40.7646 70.3466 40.1034 69.864 39.8111C69.7527 39.7379 69.6272 39.689 69.4958 39.6676C69.3643 39.6462 69.2297 39.6528 69.101 39.6869C68.9722 39.7211 68.8521 39.782 68.7485 39.8658C68.6449 39.9496 68.5602 40.0543 68.4999 40.173C68.1565 40.8969 68.8734 42.1497 69.3931 42.6415Z" fill="#263238"/>
<path d="M92.6244 37.0225C92.6244 37.0225 88.5203 41.1381 88.4692 46.2677C88.4182 51.3972 92.4411 55.5917 92.4411 55.5917C92.4411 55.5917 96.5452 51.4737 96.5939 46.3465C96.6426 41.2193 92.6244 37.0225 92.6244 37.0225Z" fill="#263238"/>
<path d="M86.6835 49.3139C86.7379 49.257 86.7876 49.1957 86.8319 49.1306C87.1335 48.6898 87.3934 48.0425 87.2124 47.5066C87.1738 47.3792 87.1088 47.2614 87.0217 47.1607C86.9346 47.0601 86.8272 46.9789 86.7067 46.9224C86.5861 46.866 86.455 46.8355 86.3219 46.833C86.1888 46.8306 86.0567 46.8561 85.9341 46.9081C85.3819 47.1586 85.1012 48.0356 85.0316 48.7641C84.8135 48.7107 84.6163 48.6689 84.447 48.6388L84.2359 48.1423C84.157 47.9706 84.1059 47.7989 84.0363 47.6249C83.9435 47.3674 83.86 47.096 83.7765 46.8269C84.099 46.69 85.0363 46.2654 85.3889 45.8873C85.7415 45.5091 86.1081 44.8966 86.0107 44.3398C85.9919 44.2081 85.9457 44.0817 85.875 43.969C85.8042 43.8563 85.7106 43.7597 85.6001 43.6856C85.4896 43.6114 85.3648 43.5613 85.2336 43.5385C85.1025 43.5157 84.9681 43.5208 84.8391 43.5533C84.0688 43.7714 83.5979 45.1356 83.5723 45.8525C83.5723 45.8757 83.5723 46.0265 83.5932 46.2051C83.5213 45.9406 83.4471 45.6761 83.3798 45.4047C83.1942 44.6345 83.0271 43.8433 82.8578 43.0499C82.823 42.8852 82.7859 42.7228 82.7487 42.5581C83.0202 42.4421 84.041 41.9943 84.4099 41.5953C84.7787 41.1962 85.1291 40.6069 85.0293 40.0478C85.0107 39.9172 84.965 39.7918 84.8951 39.6799C84.8252 39.568 84.7326 39.4719 84.6234 39.3978C84.5142 39.3238 84.3906 39.2734 84.2608 39.2499C84.1309 39.2264 83.9976 39.2303 83.8693 39.2613C83.0991 39.4794 82.6281 40.8459 82.6003 41.5605C82.6003 41.586 82.6119 41.7669 82.6281 41.9688C82.5307 41.5396 82.4263 41.115 82.3103 40.6951C82.1166 39.9737 81.8748 39.266 81.5864 38.5769C81.6815 38.5375 82.8879 38.0341 83.2986 37.5933C83.6628 37.2012 84.0178 36.6026 83.9203 36.0458C83.9016 35.9141 83.8554 35.7877 83.7846 35.675C83.7139 35.5623 83.6203 35.4657 83.5098 35.3916C83.3993 35.3174 83.2744 35.2673 83.1433 35.2445C83.0122 35.2217 82.8778 35.2268 82.7487 35.2593C81.9785 35.4774 81.5075 36.8416 81.4797 37.5585C81.4797 37.6072 81.5284 38.2545 81.5539 38.4865C81.5546 38.478 81.5546 38.4694 81.5539 38.4609C81.2535 37.792 80.8949 37.1508 80.4821 36.5446C80.1142 36.0016 79.7153 35.4803 79.2873 34.9833C78.8952 34.5193 78.5078 34.1179 78.1621 33.7653C77.9742 33.575 77.7979 33.4057 77.6331 33.2502H77.6494C77.6633 33.2502 77.2875 32.3524 77.2573 32.2967C76.907 31.6726 75.8653 30.6727 75.0788 30.8328C74.9493 30.8628 74.8276 30.9198 74.7216 31C74.6156 31.0802 74.5277 31.1818 74.4635 31.2982C74.3994 31.4147 74.3605 31.5433 74.3494 31.6758C74.3383 31.8082 74.3552 31.9415 74.3991 32.067C74.5661 32.6076 75.1554 32.9788 75.6565 33.1597C76.1576 33.3407 77.3037 33.2757 77.5844 33.2549C77.7538 33.4219 77.9324 33.6005 78.125 33.8024C78.4637 34.162 78.8395 34.5703 79.22 35.0413C79.3221 35.1665 79.4265 35.3057 79.5286 35.4403C79.3082 35.2524 79.0019 34.9995 78.9695 34.9763C78.3709 34.5842 76.9859 34.1782 76.3618 34.6817C76.2605 34.768 76.1786 34.8747 76.1213 34.9948C76.0639 35.1149 76.0325 35.2457 76.029 35.3787C76.0255 35.5117 76.05 35.644 76.1009 35.7669C76.1519 35.8898 76.2281 36.0007 76.3247 36.0922C76.7237 36.4936 77.4174 36.5562 77.9487 36.4797C78.4799 36.4031 79.4961 35.8045 79.7119 35.67C79.9439 35.9693 80.1596 36.2801 80.3754 36.6189C80.7708 37.2263 81.1117 37.8676 81.3939 38.5352C81.4101 38.5723 81.4217 38.6141 81.4356 38.6535C81.3428 38.5421 80.7883 37.9575 80.7396 37.9297C80.1875 37.4657 78.8535 36.9181 78.1876 37.3497C78.0788 37.4248 77.9869 37.5217 77.9176 37.6343C77.8484 37.7469 77.8034 37.8727 77.7855 38.0037C77.7676 38.1347 77.7772 38.268 77.8137 38.395C77.8502 38.5221 77.9127 38.6401 77.9974 38.7417C78.35 39.1848 79.0321 39.317 79.5657 39.3054C80.1828 39.2915 81.4031 38.6976 81.4495 38.6744C81.7109 39.3482 81.9294 40.0378 82.1038 40.7392C82.2337 41.2565 82.3358 41.7878 82.4518 42.3214C82.3288 42.1799 81.8138 41.644 81.772 41.6092C81.2199 41.1452 79.8859 40.5977 79.22 41.0292C79.1109 41.104 79.0187 41.2009 78.9493 41.3135C78.8798 41.4261 78.8347 41.552 78.8168 41.6831C78.7989 41.8142 78.8086 41.9475 78.8452 42.0746C78.8819 42.2018 78.9448 42.3198 79.0298 42.4212C79.3824 42.8643 80.0645 42.9989 80.5981 42.9873C81.199 42.9733 82.3729 42.4096 82.4703 42.3609C82.5191 42.6045 82.5678 42.8457 82.6142 43.0893C82.7673 43.8828 82.9158 44.6785 83.0782 45.4604C83.1385 45.7318 83.2058 45.9963 83.2731 46.2631C83.0805 46.0543 82.7209 45.6831 82.6861 45.6553C82.1363 45.1913 80.8023 44.6414 80.1341 45.0729C80.0253 45.148 79.9334 45.245 79.8641 45.3576C79.7949 45.4702 79.7499 45.596 79.732 45.727C79.7141 45.858 79.7237 45.9912 79.7602 46.1183C79.7966 46.2454 79.8592 46.3634 79.9439 46.4649C80.2942 46.9081 80.9786 47.0403 81.5122 47.0287C82.0458 47.0171 83.0457 46.5647 83.3241 46.4325C83.4401 46.8733 83.5561 47.3071 83.7069 47.7293C83.7719 47.9103 83.8275 48.1005 83.8995 48.2699C83.9366 48.3604 83.9714 48.4509 84.0085 48.539L83.8531 48.5228C83.8531 48.5228 83.8391 48.7733 83.8531 49.1817C83.2707 48.7525 82.4263 48.3789 81.8718 48.6249C81.7517 48.682 81.6449 48.7638 81.5584 48.8649C81.4719 48.966 81.4077 49.0842 81.3698 49.2117C81.332 49.3393 81.3214 49.4734 81.3387 49.6053C81.356 49.7372 81.4009 49.864 81.4704 49.9774C81.5053 50.0388 81.5465 50.0964 81.5934 50.1491C81.6872 50.7715 81.9406 51.3589 82.3288 51.8543C82.359 51.8914 82.7534 52.2649 82.9599 52.4529C82.7603 52.3392 82.5608 52.2209 82.3543 52.1095C82.0551 51.9378 81.7465 51.7476 81.4449 51.5666L80.9693 51.272C80.8115 51.1722 80.67 51.0585 80.5192 50.9495C80.2988 50.7871 80.0807 50.6085 79.8627 50.4298C80.0529 50.1352 80.6027 49.2698 80.6886 48.7548C80.7744 48.2397 80.7419 47.5321 80.3522 47.1308C80.2632 47.0319 80.1544 46.9529 80.0329 46.8988C79.9114 46.8447 79.7799 46.8167 79.6469 46.8167C79.5139 46.8167 79.3824 46.8447 79.2609 46.8988C79.1394 46.9529 79.0306 47.0319 78.9416 47.1308C78.4173 47.7363 78.7792 49.1353 79.1527 49.7477C79.1643 49.7663 79.2548 49.8869 79.3662 50.0308C79.1597 49.8498 78.9509 49.6689 78.7467 49.4786C78.1644 48.9381 77.5867 48.372 77.0114 47.8036L76.6495 47.4533C76.8119 47.2073 77.4151 46.2701 77.5032 45.7365C77.5914 45.2029 77.5566 44.5138 77.1668 44.1125C77.078 44.0133 76.9693 43.9339 76.8478 43.8796C76.7263 43.8253 76.5947 43.7972 76.4615 43.7972C76.3284 43.7972 76.1968 43.8253 76.0753 43.8796C75.9538 43.9339 75.845 44.0133 75.7563 44.1125C75.2343 44.7203 75.5939 46.1193 75.9674 46.7294C75.9813 46.7503 76.0903 46.8941 76.2156 47.0542C75.8978 46.7526 75.5753 46.4533 75.2482 46.168C74.6877 45.6727 74.0948 45.2154 73.4734 44.7992C73.5337 44.7133 74.2622 43.6392 74.3619 43.036C74.4478 42.5093 74.413 41.8133 74.0255 41.412C73.9374 41.3124 73.8293 41.2324 73.7082 41.1773C73.5871 41.1222 73.4559 41.0932 73.3228 41.0921C73.1898 41.091 73.0581 41.1179 72.9361 41.171C72.8142 41.2241 72.7048 41.3023 72.615 41.4004C72.0907 42.0082 72.4526 43.4072 72.8238 44.0173C72.8516 44.0614 73.2553 44.5788 73.4038 44.7597L73.3829 44.7435C72.7626 44.3512 72.1089 44.0143 71.4295 43.7366C70.8239 43.4863 70.2042 43.2717 69.5735 43.094C68.9888 42.9223 68.4459 42.8017 67.9634 42.6973C67.7012 42.6439 67.4599 42.5998 67.2349 42.5604H67.2488C67.2604 42.5604 66.4507 42.0105 66.3974 41.9827C65.7617 41.6556 64.3395 41.3981 63.7711 41.9618C63.6797 42.0587 63.6097 42.1737 63.5655 42.2993C63.5214 42.425 63.5041 42.5585 63.5148 42.6912C63.5255 42.824 63.564 42.953 63.6277 43.0699C63.6915 43.1869 63.7791 43.2891 63.8848 43.3701C64.3233 43.7273 65.0193 43.7111 65.539 43.5858C66.0587 43.4605 66.9751 42.7738 67.1978 42.6021C67.4298 42.6462 67.678 42.6973 67.9518 42.7599C68.4297 42.8736 68.9703 43.0058 69.5479 43.1891C69.7011 43.2378 69.8658 43.2958 70.0259 43.3492C69.7382 43.3144 69.3415 43.2726 69.302 43.2726C68.5875 43.2726 67.214 43.7018 66.9635 44.4651C66.927 44.5931 66.9178 44.7274 66.9366 44.8592C66.9553 44.991 67.0014 45.1174 67.0721 45.2302C67.1427 45.3431 67.2362 45.4398 67.3466 45.5142C67.457 45.5886 67.5817 45.6391 67.7128 45.6622C68.265 45.7782 68.8728 45.4302 69.2788 45.0915C69.6848 44.7528 70.2068 43.674 70.3019 43.4443C70.6546 43.5696 71.0119 43.7041 71.3784 43.8689C72.0434 44.1569 72.6815 44.5032 73.2855 44.9036C73.3203 44.9291 73.3527 44.9569 73.3875 44.9801C73.2483 44.9384 72.4595 44.7644 72.4108 44.7481C71.7009 44.6739 70.2811 44.9453 69.9563 45.6761C69.9057 45.7993 69.8817 45.9316 69.8856 46.0647C69.8896 46.1977 69.9215 46.3284 69.9792 46.4483C70.037 46.5682 70.1193 46.6746 70.2209 46.7606C70.3224 46.8466 70.441 46.9103 70.5687 46.9475C71.107 47.1238 71.7496 46.857 72.1927 46.5531C72.6985 46.2028 73.3899 45.0335 73.4154 44.9894C74.0059 45.4054 74.5685 45.8595 75.0997 46.3489C75.4964 46.7085 75.8815 47.0913 76.2597 47.4765C76.0764 47.4254 75.3526 47.2653 75.2992 47.2584C74.587 47.1818 73.1695 47.4533 72.8423 48.1864C72.7918 48.3095 72.7677 48.4419 72.7717 48.5749C72.7756 48.7079 72.8075 48.8386 72.8653 48.9585C72.9231 49.0784 73.0054 49.1848 73.107 49.2709C73.2085 49.3569 73.327 49.4205 73.4548 49.4577C73.9931 49.6341 74.6357 49.3673 75.0788 49.0633C75.5707 48.72 76.2388 47.6041 76.2945 47.5089C76.4685 47.6853 76.6425 47.8593 76.8142 48.0356C77.3803 48.6133 77.944 49.1956 78.5194 49.7547C78.7166 49.9473 78.9207 50.1305 79.1226 50.3138C78.8465 50.2465 78.3431 50.1352 78.299 50.1305C77.5867 50.054 76.1692 50.3254 75.8444 51.0585C75.7939 51.1815 75.7697 51.3137 75.7735 51.4466C75.7773 51.5795 75.809 51.7102 75.8665 51.83C75.924 51.9499 76.0061 52.0564 76.1074 52.1425C76.2087 52.2286 76.327 52.2924 76.4546 52.3299C76.9928 52.5062 77.6378 52.2394 78.0786 51.9355C78.5194 51.6316 79.0994 50.7013 79.2595 50.4391C79.5982 50.743 79.9415 51.0377 80.2942 51.3091C80.4473 51.4251 80.5981 51.5411 80.7582 51.6525L81.2222 51.968C81.54 52.1698 81.837 52.3601 82.1502 52.5433C82.301 52.6361 82.4471 52.7197 82.5956 52.8078C82.3242 52.6988 81.8996 52.5317 81.8555 52.5225C81.1595 52.3392 79.7188 52.3925 79.2873 53.0653C79.2186 53.1794 79.1746 53.3067 79.1583 53.4389C79.142 53.5711 79.1537 53.7052 79.1927 53.8326C79.2316 53.9599 79.2969 54.0777 79.3844 54.1781C79.4719 54.2786 79.5795 54.3595 79.7003 54.4156C80.2037 54.6708 80.8811 54.5061 81.3614 54.2717C81.8903 54.0119 82.6954 53.0445 82.7928 52.9261C83.1571 53.1396 83.5143 53.3461 83.8507 53.5317C84.7532 54.0305 85.5397 54.4295 86.1499 54.7265C88.1219 56.4827 90.9314 56.7124 90.9314 56.7124C90.9314 56.7124 91.1263 53.3461 89.1751 51.1026C88.4884 50.328 87.6371 49.7168 86.6835 49.3139ZM83.0712 52.5457C83.1362 52.4088 83.628 51.3462 83.6698 50.743C83.7811 50.7245 83.9018 50.7013 84.0015 50.6781C84.1894 51.7452 84.5979 52.7614 85.201 53.6616C84.8391 53.4822 84.4524 53.2842 84.041 53.0677C83.7255 52.9076 83.403 52.7313 83.0712 52.5457Z" fill="#263238"/>
<path d="M101.422 48.8777C101.422 48.8777 98.0538 48.9334 95.9612 51.0469C93.8685 53.1604 93.8477 56.529 93.8477 56.529C93.8477 56.529 97.2163 56.4734 99.3089 54.3598C101.402 52.2463 101.422 48.8777 101.422 48.8777Z" fill="#263238"/>
<path d="M92.5936 50.924L95.9437 47.9962L95.8045 47.8361L92.596 50.6387L92.6331 46.7411L92.6516 46.7527L95.5076 42.6996L95.3336 42.579L92.6377 46.4047L92.7282 37.0226L92.5171 37.0203L92.4544 43.3887L90.3734 41.535L90.2319 41.6927L92.4521 43.6694L92.4057 48.2212L89.2528 45.3514L89.1113 45.5091L92.4034 48.5066L92.364 52.6524L89.9906 50.7361L89.856 50.9008L92.3616 52.9215L92.3338 55.5919H92.5472L92.5936 50.9217V50.924Z" fill="white"/>
<path d="M89.5302 52.0284L89.3191 52.0005L89.0198 54.353L87.6209 52.7452H87.6232L87.303 49.8893L87.0942 49.9125L87.3796 52.4668L83.9042 48.4695L83.7441 48.6087L86.1013 51.3208L84.584 51.3184V51.5296L86.2869 51.5342L87.941 53.4343L85.5677 53.4041L85.5653 53.6176L88.1266 53.65L89.63 55.3784L87.9549 55.4573L87.9642 55.6684L89.8086 55.5826L90.8085 56.7356L90.9686 56.5964L89.2054 54.5688L89.5302 52.0284Z" fill="white"/>
<path d="M97.5136 52.9818L100.337 52.4482L100.298 52.2394L97.7712 52.715L101.499 48.9519L101.349 48.8035L98.8198 51.3578L98.7084 49.8428L98.4973 49.8591L98.6203 51.5573L96.8478 53.3483L96.7016 50.9796L96.4905 50.9935L96.6483 53.5502L95.0359 55.1788L94.834 53.5131L94.6229 53.5386L94.8456 55.3691L93.7715 56.4548L93.9223 56.6033L95.8131 54.6939L98.3697 54.8285L98.3813 54.6151L96.0126 54.4921L97.5113 52.9771L97.5136 52.9818Z" fill="white"/>
<path d="M32.3914 36.1549C32.3914 36.1549 31.5283 35.6909 31.2662 35.3498C31.0342 35.0529 30.8393 34.6144 30.946 34.2362C30.9679 34.1465 31.0084 34.0623 31.0649 33.9892C31.1215 33.9161 31.1927 33.8557 31.2741 33.812C31.3555 33.7682 31.4452 33.742 31.5374 33.7352C31.6295 33.7284 31.7221 33.741 31.809 33.7722C32.3264 33.9764 32.5561 34.9531 32.5236 35.4496C32.5213 35.496 32.4006 36.1595 32.3914 36.1549Z" fill="#263238"/>
<path d="M40.2687 39.8459C40.2432 39.8807 39.7769 40.3679 39.7723 40.3609C39.7676 40.354 39.3083 39.5025 39.2781 39.0664C39.2526 38.6975 39.3268 38.2196 39.6238 37.9621C39.6916 37.8993 39.7719 37.8517 39.8595 37.8221C39.947 37.7925 40.0398 37.7818 40.1317 37.7906C40.2237 37.7993 40.3128 37.8274 40.3932 37.8729C40.4735 37.9185 40.5434 37.9805 40.5982 38.0549C40.916 38.5119 40.5703 39.4515 40.2687 39.8459Z" fill="#263238"/>
<path d="M23.722 38.665C23.722 38.665 27.0025 41.0129 27.6265 44.5184C28.2506 48.0239 25.984 51.3578 25.984 51.3578C25.984 51.3578 22.7035 49.0099 22.0794 45.5044C21.4553 41.9989 23.722 38.665 23.722 38.665Z" fill="#263238"/>
<path d="M29.2014 46.4001C29.1569 46.3679 29.1157 46.3313 29.0784 46.291C28.8209 46.0242 28.568 45.6113 28.6307 45.2238C28.6422 45.1322 28.6728 45.0439 28.7208 44.9649C28.7687 44.8859 28.8327 44.8179 28.9087 44.7654C28.9847 44.7128 29.0709 44.6769 29.1617 44.66C29.2525 44.643 29.3459 44.6454 29.4357 44.667C29.844 44.7761 30.1317 45.3421 30.2663 45.827C30.4101 45.7667 30.54 45.7157 30.6514 45.6739L30.7419 45.3097C30.7744 45.1844 30.7906 45.0591 30.8161 44.9338C30.8509 44.7459 30.8764 44.551 30.9043 44.3585C30.6723 44.3005 29.9763 44.1265 29.6932 43.8945C29.4102 43.6625 29.0877 43.2982 29.09 42.9061C29.0874 42.8139 29.1043 42.7221 29.1396 42.6368C29.1749 42.5515 29.2277 42.4747 29.2947 42.4112C29.3617 42.3477 29.4413 42.299 29.5284 42.2684C29.6154 42.2378 29.708 42.2258 29.8 42.2333C30.3544 42.2937 30.8324 43.1753 30.9321 43.6601C30.9321 43.6764 30.946 43.7808 30.9576 43.9061C30.9785 43.7158 30.9971 43.5256 31.011 43.333C31.0504 42.7832 31.0736 42.2241 31.0992 41.6626C31.0992 41.5443 31.1108 41.4306 31.1177 41.3123C30.9182 41.2636 30.1688 41.0803 29.8696 40.8483C29.5703 40.6163 29.264 40.2544 29.2687 39.86C29.2661 39.7677 29.283 39.676 29.3182 39.5907C29.3535 39.5054 29.4064 39.4285 29.4733 39.365C29.5403 39.3015 29.62 39.2529 29.707 39.2222C29.7941 39.1916 29.8866 39.1797 29.9786 39.1872C30.5308 39.2475 31.011 40.1291 31.1108 40.6163C31.1108 40.6325 31.127 40.7578 31.1386 40.8993C31.1572 40.5931 31.178 40.2892 31.2105 39.9899C31.2603 39.4736 31.3448 38.9613 31.4634 38.4564C31.3938 38.4401 30.5099 38.236 30.1781 37.9924C29.8835 37.7604 29.5726 37.3961 29.5749 37.0041C29.5723 36.9116 29.5892 36.8196 29.6246 36.7342C29.66 36.6487 29.7131 36.5717 29.7804 36.5082C29.8476 36.4446 29.9275 36.396 30.0149 36.3656C30.1022 36.3351 30.195 36.3234 30.2872 36.3313C30.8393 36.3916 31.3172 37.2593 31.417 37.7581C31.417 37.7929 31.4657 38.2476 31.475 38.41C31.475 38.41 31.475 38.41 31.475 38.3914C31.603 37.8982 31.7754 37.4175 31.99 36.9553C32.1789 36.5411 32.392 36.1383 32.628 35.7489C32.8415 35.387 33.0619 35.0669 33.2568 34.7861C33.3635 34.6353 33.4656 34.4985 33.5607 34.3732C33.5607 34.3732 33.7045 33.7166 33.7208 33.6772C33.8878 33.2132 34.4864 32.4058 35.0432 32.4244C35.1353 32.4302 35.2252 32.4554 35.307 32.4982C35.3888 32.5411 35.4607 32.6006 35.518 32.673C35.5754 32.7454 35.6168 32.8291 35.6397 32.9185C35.6626 33.008 35.6665 33.1013 35.651 33.1923C35.5976 33.5797 35.238 33.9022 34.9132 34.0832C34.5884 34.2641 33.7996 34.3523 33.6048 34.3709C33.5096 34.5031 33.4076 34.6469 33.2985 34.807C33.1083 35.0924 32.8972 35.4149 32.6907 35.7814C32.635 35.8789 32.5816 35.9856 32.526 36.0877C32.6559 35.9345 32.8345 35.7257 32.8554 35.7072C33.2196 35.3708 34.1221 34.9323 34.607 35.2061C34.6862 35.2535 34.7545 35.3171 34.8075 35.3927C34.8605 35.4683 34.8969 35.5542 34.9144 35.6448C34.9319 35.7355 34.9301 35.8288 34.9091 35.9187C34.8881 36.0086 34.8484 36.093 34.7926 36.1665C34.5606 36.4867 34.0966 36.6073 33.7277 36.6189C33.3588 36.6305 32.5909 36.3336 32.4285 36.2663C32.3079 36.4983 32.1965 36.7303 32.0828 36.9925C31.882 37.4539 31.7221 37.9322 31.6049 38.4216L31.591 38.5074C31.642 38.4193 31.9552 37.9622 31.9808 37.9321C32.3056 37.5585 33.1547 37.0226 33.6651 37.2361C33.7481 37.2746 33.8222 37.3301 33.8825 37.3989C33.9429 37.4677 33.9883 37.5483 34.0158 37.6356C34.0433 37.7229 34.0524 37.815 34.0423 37.906C34.0322 37.997 34.0033 38.0849 33.9574 38.1641C33.7672 38.5097 33.3148 38.6791 32.9482 38.7325C32.5236 38.7928 31.6212 38.526 31.5864 38.5167C31.4842 39.0074 31.4137 39.5041 31.3752 40.0038C31.3451 40.375 31.3288 40.7509 31.3172 41.1267C31.3868 41.0153 31.6792 40.5908 31.7024 40.5629C32.0272 40.1871 32.8763 39.6535 33.389 39.8669C33.4721 39.9055 33.5461 39.9609 33.6065 40.0298C33.6669 40.0986 33.7121 40.1793 33.7395 40.2667C33.7668 40.3541 33.7755 40.4463 33.7651 40.5372C33.7547 40.6282 33.7253 40.716 33.679 40.7949C33.4888 41.1383 33.0364 41.3077 32.6698 41.361C32.2568 41.4213 31.3892 41.1685 31.3172 41.1476C31.3172 41.3193 31.3172 41.4909 31.301 41.6626C31.301 42.2241 31.2778 42.7855 31.25 43.34C31.25 43.5325 31.2244 43.7205 31.2082 43.9107C31.3172 43.746 31.5191 43.4467 31.54 43.4281C31.8648 43.0523 32.7139 42.5187 33.2266 42.7321C33.3097 42.7707 33.3837 42.8261 33.4441 42.895C33.5045 42.9638 33.5497 43.0446 33.5771 43.1319C33.6044 43.2193 33.6131 43.3115 33.6027 43.4024C33.5923 43.4934 33.5629 43.5812 33.5166 43.6601C33.3264 44.0035 32.874 44.1729 32.5074 44.2262C32.1408 44.2796 31.4054 44.0847 31.1989 44.0267C31.1711 44.3399 31.1363 44.6531 31.0876 44.9547C31.062 45.0846 31.0458 45.2192 31.0156 45.3445C31.0017 45.4117 30.9878 45.4767 30.9716 45.5417L31.076 45.5138C31.076 45.5138 31.1154 45.6832 31.1502 45.9639C31.4982 45.6043 32.0341 45.2517 32.4424 45.3561C32.5314 45.3815 32.6139 45.4254 32.6848 45.4848C32.7556 45.5443 32.8132 45.618 32.8537 45.7011C32.8942 45.7843 32.9167 45.8751 32.9198 45.9675C32.9229 46.0599 32.9065 46.152 32.8716 46.2377C32.8541 46.2825 32.8331 46.3259 32.809 46.3676C32.814 46.8046 32.7078 47.2357 32.5004 47.6204C32.4842 47.6482 32.2568 47.9498 32.1362 48.1006C32.2615 48.0009 32.3844 47.9034 32.512 47.7967C32.6953 47.6459 32.8856 47.4789 33.0712 47.3327L33.3519 47.0705C33.4493 46.9847 33.5328 46.8896 33.6233 46.7968C33.7556 46.6599 33.8855 46.5138 34.0131 46.3653C33.8484 46.1866 33.3728 45.6553 33.2568 45.3143C33.1408 44.9733 33.0804 44.4837 33.2985 44.1543C33.3475 44.076 33.4124 44.0088 33.4891 43.9571C33.5657 43.9055 33.6523 43.8706 33.7433 43.8546C33.8344 43.8386 33.9277 43.842 34.0174 43.8644C34.107 43.8869 34.1909 43.9279 34.2636 43.9849C34.6905 44.3399 34.6047 45.3398 34.4191 45.7992C34.4191 45.8154 34.3634 45.9082 34.3054 46.0173C34.426 45.8711 34.5374 45.7226 34.6673 45.5695C35.0014 45.1333 35.3308 44.6786 35.6626 44.2239C35.7299 44.1288 35.8018 44.036 35.8691 43.9409C35.7299 43.7924 35.2102 43.2193 35.0872 42.8644C34.9643 42.5094 34.9109 42.0338 35.129 41.7044C35.1777 41.6257 35.2425 41.5583 35.3192 41.5064C35.3958 41.4546 35.4825 41.4195 35.5736 41.4035C35.6648 41.3875 35.7582 41.391 35.8479 41.4136C35.9376 41.4363 36.0215 41.4777 36.0941 41.535C36.5233 41.89 36.4352 42.8876 36.2519 43.3493C36.2519 43.3655 36.1846 43.4769 36.1173 43.6021C36.3006 43.3562 36.4862 43.1149 36.6788 42.8829C37.0048 42.4794 37.3583 42.0988 37.7367 41.7438C37.6856 41.6905 37.0639 41.0316 36.927 40.6372C36.8064 40.2869 36.7507 39.8066 36.9688 39.4772C37.018 39.3991 37.083 39.3322 37.1597 39.2808C37.2363 39.2294 37.3229 39.1945 37.4138 39.1786C37.5047 39.1626 37.5979 39.1659 37.6875 39.1882C37.7771 39.2104 37.861 39.2512 37.9339 39.3078C38.3608 39.6651 38.2749 40.6627 38.0893 41.1244C38.0893 41.1569 37.8573 41.5582 37.7784 41.6974H37.7924C38.171 41.3569 38.5794 41.051 39.0127 40.7833C39.3987 40.5423 39.7984 40.3238 40.2098 40.1291C40.5903 39.9458 40.9476 39.7997 41.2677 39.6651C41.4394 39.5978 41.5995 39.5398 41.748 39.4865C41.748 39.4865 42.2305 39.0225 42.2653 38.9923C42.662 38.6954 43.6063 38.3543 44.0587 38.6768C44.1326 38.7323 44.1941 38.8028 44.239 38.8836C44.2839 38.9645 44.3113 39.0539 44.3194 39.146C44.3275 39.2381 44.3161 39.3309 44.286 39.4184C44.2559 39.5058 44.2077 39.5859 44.1445 39.6535C43.8847 39.9481 43.4068 40.0177 43.0356 39.9899C42.6644 39.9621 41.9591 39.6001 41.7874 39.5073C41.6343 39.5653 41.4696 39.628 41.2886 39.7022C40.9754 39.8345 40.6204 39.9876 40.2469 40.1801L39.9384 40.3449C40.1309 40.2869 40.4024 40.2126 40.4232 40.2103C40.9128 40.1291 41.908 40.2613 42.1609 40.7555C42.2011 40.8387 42.2232 40.9295 42.2259 41.0218C42.2286 41.1142 42.2118 41.206 42.1765 41.2914C42.1413 41.3768 42.0884 41.4538 42.0213 41.5174C41.9543 41.581 41.8746 41.6297 41.7874 41.6603C41.4208 41.8041 40.9638 41.6441 40.6483 41.4515C40.3328 41.2589 39.8572 40.5861 39.7574 40.44C39.5254 40.5676 39.2934 40.6998 39.0614 40.8553C38.639 41.1281 38.2422 41.4387 37.8759 41.7833L37.8132 41.8459C37.9037 41.8018 38.4188 41.593 38.4559 41.5814C38.9338 41.4492 39.936 41.4724 40.2446 41.9364C40.2935 42.0148 40.3252 42.1026 40.3379 42.1941C40.3505 42.2856 40.3436 42.3787 40.3178 42.4674C40.292 42.5561 40.2477 42.6383 40.1879 42.7087C40.1281 42.7791 40.0542 42.8361 39.9708 42.876C39.6228 43.0593 39.1519 42.9502 38.8108 42.7925C38.4257 42.6092 37.8179 41.8877 37.7947 41.8645C37.4392 42.217 37.1067 42.5921 36.7994 42.9873C36.5674 43.2797 36.3493 43.5859 36.1312 43.8945C36.2496 43.8388 36.7275 43.6439 36.7646 43.6346C37.2425 43.5001 38.2448 43.5233 38.551 43.9873C38.5979 44.0652 38.6281 44.1521 38.6396 44.2423C38.6512 44.3325 38.6438 44.4242 38.6181 44.5114C38.5924 44.5987 38.5488 44.6796 38.4901 44.7492C38.4314 44.8187 38.3589 44.8752 38.2772 44.9153C37.9292 45.0985 37.4583 44.9895 37.1172 44.8317C36.7391 44.6554 36.1544 43.9664 36.1057 43.9037C36.006 44.0429 35.9062 44.1821 35.8088 44.3237C35.4886 44.7877 35.1684 45.2517 34.8413 45.6948C34.7253 45.8502 34.6093 45.9987 34.491 46.1588C34.672 46.0799 35.0037 45.9453 35.0339 45.9384C35.5118 45.8038 36.514 45.827 36.8203 46.291C36.8692 46.3693 36.9011 46.4569 36.9139 46.5483C36.9267 46.6397 36.92 46.7328 36.8944 46.8215C36.8688 46.9101 36.8248 46.9924 36.7653 47.0629C36.7057 47.1334 36.632 47.1905 36.5488 47.2306C36.2008 47.4139 35.7299 47.3049 35.3888 47.1471C35.0478 46.9893 34.549 46.4209 34.4075 46.2585C34.2103 46.5045 34.0108 46.7457 33.7996 46.9731C33.7068 47.0705 33.6187 47.1749 33.5259 47.2608L33.2591 47.5601C33.0642 47.7364 32.8832 47.9011 32.6976 48.0589L32.4239 48.2909C32.5956 48.1841 32.8716 48.0217 32.8879 48.0101C33.3519 47.8037 34.3356 47.6761 34.7091 48.0867C34.7693 48.1569 34.814 48.239 34.8403 48.3277C34.8667 48.4163 34.8741 48.5095 34.8621 48.6012C34.85 48.6929 34.8188 48.781 34.7705 48.8599C34.7221 48.9387 34.6577 49.0065 34.5815 49.0588C34.2636 49.2908 33.7834 49.256 33.4215 49.1493C33.0294 49.0333 32.3682 48.4533 32.287 48.3929C32.055 48.5832 31.8416 48.7642 31.6328 48.9312C31.0736 49.3743 30.5795 49.7386 30.1967 50.0123C29.0367 51.4391 27.1505 51.9193 27.1505 51.9193C27.1505 51.9193 26.6308 49.6388 27.7096 47.8779C28.0912 47.2808 28.6008 46.7761 29.2014 46.4001ZM32.0457 48.1981C31.7878 47.8412 31.5794 47.451 31.4263 47.0381C31.3497 47.0381 31.2708 47.0381 31.1943 47.0381C31.1893 47.7897 31.0265 48.5319 30.7164 49.2165C30.9484 49.0541 31.1804 48.8732 31.4472 48.6783C31.6374 48.5206 31.8392 48.3628 32.0457 48.1981Z" fill="#263238"/>
<path d="M19.0605 47.7919C19.0605 47.7919 21.3805 47.4439 23.0486 48.6503C24.7167 49.8567 25.1366 52.1605 25.1366 52.1605C25.1366 52.1605 22.8166 52.5108 21.1485 51.3044C19.4805 50.098 19.0605 47.7919 19.0605 47.7919Z" fill="#263238"/>
<path d="M25.3375 48.1795L22.7089 46.5601L22.7855 46.4348L25.3027 47.9846L24.8294 45.3212L24.8202 45.3305L22.4004 42.8852L22.5048 42.7808L24.79 45.0916L23.6485 38.6791L23.7947 38.6536L24.5673 43.0059L25.7783 41.4979L25.8943 41.5907L24.6021 43.1984L25.1542 46.3096L26.9847 43.9826L27.1007 44.0731L25.189 46.5021L25.6925 49.3372L27.0984 47.7526L27.2074 47.85L25.7273 49.5204L26.0497 51.344L25.9059 51.3718L25.3375 48.1795Z" fill="white"/>
<path d="M27.5632 48.5832L27.7048 48.5414L28.1804 50.1167L28.9529 48.8569H28.9506L28.8416 46.864L28.9877 46.8571L29.0852 48.6388L31.0061 45.5022L31.1314 45.5788L29.8299 47.7062L30.8669 47.5299L30.8924 47.676L29.7278 47.8732L28.8137 49.365L30.4331 49.0727L30.4586 49.2165L28.7093 49.5344L27.8788 50.8892L29.0341 50.75L29.0527 50.8962L27.7813 51.0493L27.2268 51.9541L27.1016 51.8752L28.076 50.286L27.5632 48.5832Z" fill="white"/>
<path d="M22.2079 50.1538L20.2127 50.112L20.2151 49.9658L21.9991 50.0006L19.0156 47.8523L19.1015 47.7317L21.1268 49.191L21.0294 48.1423L21.1755 48.1284L21.2846 49.3046L22.7044 50.3278L22.5327 48.6898L22.6789 48.6736L22.8645 50.4438L24.1544 51.3718L24.1034 50.2094L24.2495 50.2025L24.3075 51.4831L25.1659 52.1002L25.0801 52.2209L23.5675 51.1305L21.8321 51.5156L21.7996 51.3718L23.4074 51.0145L22.2079 50.1514V50.1538Z" fill="white"/>
<path d="M61.6626 49.0959C61.6626 49.0959 60.8807 49.6319 60.781 49.7038C60.6812 49.7757 60.4863 51.5598 60.4863 51.6456C60.4863 51.7315 61.8783 51.6201 62.1335 51.351C62.3887 51.0819 62.4027 50.2444 62.4027 50.2444C62.3701 50.0107 62.2871 49.7869 62.1592 49.5885C62.0314 49.3902 61.8619 49.2221 61.6626 49.0959Z" fill="white" stroke="#263238" stroke-linecap="round" stroke-linejoin="round"/>
<path d="M63.8003 40.6347L63.6704 46.4927L61.6543 49.0958C61.6543 49.0958 62.4338 49.6804 62.3689 50.33L64.5821 48.9635C64.5821 48.9635 64.5821 43.1079 64.4522 41.6115C64.3223 40.1151 63.9395 40.1151 63.8003 40.6347Z" fill="white" stroke="#263238" stroke-linecap="round" stroke-linejoin="round"/>
<path d="M60.3613 51.6966C60.3613 51.6966 60.751 50.4624 60.8253 50.2652C60.8995 50.068 62.9133 50.0703 62.9133 50.0703C62.9549 50.2413 62.9774 50.4164 62.9805 50.5923C62.9805 50.8522 62.5165 51.112 62.5165 51.112C62.5246 51.2741 62.4934 51.4358 62.4256 51.5832C62.3577 51.7307 62.2552 51.8595 62.1268 51.9588C61.7621 52.2393 61.3658 52.476 60.9459 52.6641L60.1641 52.4042L60.3613 51.6966Z" fill="white" stroke="#263238" stroke-linecap="round" stroke-linejoin="round"/>
<path d="M61.4943 49.2861C61.4943 49.2861 61.0535 49.2861 60.9793 49.409C60.9051 49.532 61.028 50.6386 61.1765 50.6386C61.325 50.6386 61.6173 50.7361 61.666 50.4414C61.7147 50.1468 61.8145 49.2373 61.4943 49.2861Z" fill="white" stroke="#263238" stroke-linecap="round" stroke-linejoin="round"/>
<path d="M50.3578 80.9239C50.3578 80.9239 49.8033 82.2046 49.9564 82.6616C50.1095 83.1186 50.3439 83.411 51.3879 83.063C52.4319 82.715 54.8679 80.8497 54.8679 80.3903C54.8679 79.931 51.9655 80.5434 51.9655 80.5434C51.9655 80.5434 51.8078 81.0005 50.3578 80.9239Z" fill="white" stroke="#263238" stroke-linecap="round" stroke-linejoin="round"/>
<path d="M43.9152 76.6296C43.9152 76.6296 43.7667 77.7548 43.8665 77.9288C43.9574 78.0555 44.0778 78.1583 44.2172 78.2282C44.3566 78.2981 44.511 78.3331 44.6669 78.3301C45.0172 78.3046 45.2423 78.3046 45.3165 78.0285C45.3907 77.7525 45.4418 77.4787 45.516 77.2537C45.583 77.079 45.6089 76.8912 45.5916 76.7049C45.5743 76.5187 45.5143 76.3389 45.4163 76.1795C45.1402 75.7039 44.1635 75.8477 43.8526 76.727" fill="white"/>
<path d="M43.9152 76.6296C43.9152 76.6296 43.7667 77.7548 43.8665 77.9288C43.9574 78.0555 44.0778 78.1583 44.2172 78.2282C44.3566 78.2981 44.511 78.3331 44.6669 78.3301C45.0172 78.3046 45.2423 78.3046 45.3165 78.0285C45.3907 77.7525 45.4418 77.4787 45.516 77.2537C45.583 77.079 45.6089 76.8912 45.5916 76.7049C45.5743 76.5187 45.5143 76.3389 45.4163 76.1795C45.1402 75.7039 44.1635 75.8477 43.8526 76.727" stroke="#263238" stroke-linecap="round" stroke-linejoin="round"/>
<path d="M46.2319 61.9114C46.2319 61.9114 46.3084 65.2708 46.3084 65.6536C46.3084 66.0364 44.935 68.709 44.935 69.3957C44.935 70.0824 43.8516 76.7269 43.8516 76.7269C43.9371 76.8554 44.0498 76.9635 44.1817 77.0436C44.3136 77.1238 44.4614 77.1741 44.6148 77.1909C44.8867 77.1915 45.1526 77.1107 45.3781 76.9589C45.3781 76.9589 47.4661 70.1637 48.0647 69.4769C48.6632 68.7902 49.7444 66.041 49.7444 66.041C49.7444 66.041 50.4404 70.1637 50.3568 70.6973C50.2733 71.2309 49.5936 73.523 49.6608 74.6691C49.7281 75.8152 50.271 81.2347 50.271 81.2347C50.3946 81.3934 50.5608 81.5136 50.7502 81.5814C50.9395 81.6492 51.1443 81.6617 51.3405 81.6175C51.7896 81.4824 52.1709 81.1824 52.4077 80.7776C52.4077 80.7776 53.3241 73.4465 53.4007 72.6832C53.4772 71.9199 54.3171 67.2613 54.3936 65.6582C54.4702 64.0551 54.4702 61.8395 54.4702 61.8395C52.9471 62.1414 51.373 62.0617 49.8882 61.6075C48.6695 61.2276 47.4951 60.7181 46.385 60.0879L46.2319 61.9114Z" fill="#263238" stroke="#263238" stroke-linecap="round" stroke-linejoin="round"/>
<path d="M52.4087 39.6418C52.522 40.0313 52.6119 40.4272 52.6778 40.8274C52.6705 41.0254 52.6527 41.2228 52.6245 41.419C52.6245 41.419 53.056 41.6347 53.056 41.9038C53.056 42.173 52.6778 42.6578 52.6778 42.6578L52.5178 43.9501C52.4621 44.3793 52.1396 44.8642 51.8218 44.9709C51.5219 45.0373 51.2134 45.0561 50.9077 45.0266L50.7453 46.8014L47.6759 45.6715L47.8917 44.0475C47.8917 44.0475 47.1957 42.1637 47.5158 41.0872C47.836 40.0107 49.1839 39.7416 49.9913 39.4632C50.7986 39.1848 52.4087 39.6418 52.4087 39.6418Z" fill="white" stroke="#263238" stroke-linecap="round" stroke-linejoin="round"/>
<path d="M47.7262 44.5439C47.7262 44.5439 46.1022 42.66 46.0024 40.8829C45.9026 39.1058 46.5406 37.976 47.6264 37.6001C48.7122 37.2243 49.2945 37.3287 49.2945 37.3287C49.2945 37.3287 48.4871 37.1686 49.3502 36.7904C50.2132 36.4123 51.1806 37.0596 51.1806 37.0596C51.1806 37.0596 50.6424 36.6304 51.2874 36.6837C51.9323 36.7371 52.2014 37.0596 52.7954 38.4075C53.3893 39.7554 51.7722 40.2356 51.5031 40.3447C51.234 40.4537 51.988 40.7762 51.879 41.0407C51.7699 41.3052 51.183 41.7367 51.183 41.7367L51.343 42.9222C51.343 42.9222 51.0739 43.3514 50.9138 43.0823C50.7538 42.8132 50.6981 42.2749 50.2178 42.5974C49.7376 42.9199 50.3246 43.9894 50.487 43.9894C50.6494 43.9894 50.1088 44.581 49.4105 44.7968C49.0484 44.9306 48.6537 44.9493 48.2806 44.8501C48.1719 44.841 48.0662 44.809 47.9707 44.7563C47.8751 44.7035 47.7918 44.6311 47.7262 44.5439Z" fill="#263238" stroke="#263238" stroke-linecap="round" stroke-linejoin="round"/>
<path d="M47.0251 45.6715C47.1182 45.4891 47.2691 45.3426 47.4541 45.2549C47.6392 45.1672 47.8481 45.1432 48.0482 45.1866C48.7442 45.349 50.2012 45.9406 50.5236 46.3721C50.8461 46.8036 51.2196 48.0936 51.2196 48.0936L47.2362 46.3164C47.2362 46.3164 46.6469 46.0473 47.0251 45.6715Z" fill="white" stroke="#263238" stroke-linecap="round" stroke-linejoin="round"/>
<path d="M43.993 60.1763L44.1066 60.7447V61.9441L43.935 62.4081L43.6519 62.5218V62.2364L43.8213 63.3199L43.4802 63.6029C43.4802 63.6029 42.7402 62.4081 42.5685 62.0671C42.3968 61.726 42.5685 60.167 42.5685 60.167C42.5685 60.167 42.8538 60.4616 43.993 60.1763Z" fill="white" stroke="#263238" stroke-linecap="round" stroke-linejoin="round"/>
<path d="M54.1739 49.6203C54.1739 49.6203 52.6474 48.8547 51.0443 47.864C49.4411 46.8734 47.149 45.8016 46.5388 45.4188C45.9287 45.036 45.4206 44.5232 44.3255 45.268C42.2097 46.7017 43.4091 50.836 43.4091 51.3742C43.4091 51.9124 42.263 55.4226 42.3396 56.1093C42.4162 56.796 42.5716 60.1554 42.5716 60.1554C42.5716 60.1554 42.8755 60.7679 44.0216 60.4616C44.0216 60.4616 44.7849 56.9492 44.8614 55.9562C44.9759 55.0538 45.1542 54.1607 45.395 53.2836L46.1606 57.6359L45.395 61.2249C45.395 61.2249 45.931 62.9812 47.6872 63.5913C49.4434 64.2015 51.2716 64.7281 53.4106 63.9741C54.2505 63.6748 55.6263 62.5241 55.6263 62.5241C55.6263 62.5241 54.9303 54.7359 54.9303 54.3531C54.9303 53.9703 54.7864 51.3 54.1739 49.6203Z" fill="white"/>
<mask id="mask1_2075_11677" style="mask-type:luminance" maskUnits="userSpaceOnUse" x="42" y="44" width="14" height="21">
<path d="M54.1739 49.6203C54.1739 49.6203 52.6474 48.8547 51.0443 47.864C49.4411 46.8734 47.149 45.8016 46.5388 45.4188C45.9287 45.036 45.4206 44.5232 44.3255 45.268C42.2097 46.7017 43.4091 50.836 43.4091 51.3742C43.4091 51.9124 42.263 55.4226 42.3396 56.1093C42.4162 56.796 42.5716 60.1554 42.5716 60.1554C42.5716 60.1554 42.8755 60.7679 44.0216 60.4616C44.0216 60.4616 44.7849 56.9492 44.8614 55.9562C44.9759 55.0538 45.1542 54.1607 45.395 53.2836L46.1606 57.6359L45.395 61.2249C45.395 61.2249 45.931 62.9812 47.6872 63.5913C49.4434 64.2015 51.2716 64.7281 53.4106 63.9741C54.2505 63.6748 55.6263 62.5241 55.6263 62.5241C55.6263 62.5241 54.9303 54.7359 54.9303 54.3531C54.9303 53.9703 54.7864 51.3 54.1739 49.6203Z" fill="white"/>
</mask>
<g mask="url(#mask1_2075_11677)">
<path d="M53.4109 63.9741C54.2507 63.6748 55.6265 62.5241 55.6265 62.5241C55.6265 62.5241 55.3295 59.1601 55.1253 56.7473C55.0754 56.7263 55.0205 56.72 54.9671 56.729C54.9137 56.7381 54.864 56.7621 54.8237 56.7984C54.2971 57.2368 54.4734 61.1043 54.1277 60.9303C53.7821 60.7563 52.107 56.0049 50.7869 54.0724C49.4669 52.1398 51.2277 55.2138 50.8751 56.2694C50.5225 57.325 46.9311 50.2026 44.9846 49.3233C43.0381 48.444 44.632 50.9056 44.632 50.9056L44.9869 55.0955C45.1493 54.2116 45.3999 53.2836 45.3999 53.2836L46.1655 57.6359L45.3999 61.2249C45.3999 61.2249 45.9358 62.9812 47.6921 63.5913C49.4483 64.2015 51.2718 64.7281 53.4109 63.9741Z" fill="#EF233C"/>
<path opacity="0.5" d="M53.4109 63.9741C54.2507 63.6748 55.6265 62.5241 55.6265 62.5241C55.6265 62.5241 55.3295 59.1601 55.1253 56.7473C55.0754 56.7263 55.0205 56.72 54.9671 56.729C54.9137 56.7381 54.864 56.7621 54.8237 56.7984C54.2971 57.2368 54.4734 61.1043 54.1277 60.9303C53.7821 60.7563 52.107 56.0049 50.7869 54.0724C49.4669 52.1398 51.2277 55.2138 50.8751 56.2694C50.5225 57.325 46.9311 50.2026 44.9846 49.3233C43.0381 48.444 44.632 50.9056 44.632 50.9056L44.9869 55.0955C45.1493 54.2116 45.3999 53.2836 45.3999 53.2836L46.1655 57.6359L45.3999 61.2249C45.3999 61.2249 45.9358 62.9812 47.6921 63.5913C49.4483 64.2015 51.2718 64.7281 53.4109 63.9741Z" fill="white"/>
</g>
<path d="M54.1739 49.6203C54.1739 49.6203 52.6474 48.8547 51.0443 47.864C49.4411 46.8734 47.149 45.8016 46.5388 45.4188C45.9287 45.036 45.4206 44.5232 44.3255 45.268C42.2097 46.7017 43.4091 50.836 43.4091 51.3742C43.4091 51.9124 42.263 55.4226 42.3396 56.1093C42.4162 56.796 42.5716 60.1554 42.5716 60.1554C42.5716 60.1554 42.8755 60.7679 44.0216 60.4616C44.0216 60.4616 44.7849 56.9492 44.8614 55.9562C44.9759 55.0538 45.1542 54.1607 45.395 53.2836L46.1606 57.6359L45.395 61.2249C45.395 61.2249 45.931 62.9812 47.6872 63.5913C49.4434 64.2015 51.2716 64.7281 53.4106 63.9741C54.2505 63.6748 55.6263 62.5241 55.6263 62.5241C55.6263 62.5241 54.9303 54.7359 54.9303 54.3531C54.9303 53.9703 54.7864 51.3 54.1739 49.6203Z" stroke="#263238" stroke-linecap="round" stroke-linejoin="round"/>
<path d="M45.3923 53.2835C45.3923 53.2835 44.6963 51.3834 44.1465 49.8638" stroke="#263238" stroke-linecap="round" stroke-linejoin="round"/>
<path d="M52.5707 49.7711C52.5707 49.7711 53.7168 49.4671 54.1738 49.6203C54.6309 49.7734 56.923 55.8843 56.923 55.8843L59.9785 52.1444C59.9785 52.1444 60.4425 51.5319 61.3519 52.8404L57.4589 60.1693C57.4589 60.1693 56.9949 60.8653 56.2363 60.2459C55.4777 59.6264 51.6543 53.5921 51.6543 53.5921" fill="white"/>
<path d="M52.5707 49.7711C52.5707 49.7711 53.7168 49.4671 54.1738 49.6203C54.6309 49.7734 56.923 55.8843 56.923 55.8843L59.9785 52.1444C59.9785 52.1444 60.4425 51.5319 61.3519 52.8404L57.4589 60.1693C57.4589 60.1693 56.9949 60.8653 56.2363 60.2459C55.4777 59.6264 51.6543 53.5921 51.6543 53.5921" stroke="#263238" stroke-linecap="round" stroke-linejoin="round"/>
<path d="M72.7892 70.6835C72.7892 70.6835 72.7243 73.3121 73.3112 74.1032C73.8982 74.8943 74.6128 74.6739 74.6128 73.8202C74.6128 72.9664 74.288 71.1823 73.8309 70.4005C73.3739 69.6187 72.7892 70.6835 72.7892 70.6835Z" fill="white" stroke="#263238" stroke-linecap="round" stroke-linejoin="round"/>
<path d="M65.2408 66.0134C65.2408 66.0134 63.2247 67.3149 63.0948 67.9645C62.9649 68.6141 65.4357 67.8996 66.1525 66.9878C66.8694 66.076 66.1525 65.7536 65.2408 66.0134Z" fill="white" stroke="#263238" stroke-linecap="round" stroke-linejoin="round"/>
<path d="M64.4607 52.6639C64.4607 52.6639 64.1986 57.283 64.5257 58.9117C64.8528 60.5403 64.7855 66.3937 64.7855 66.3937C64.7855 66.3937 65.2495 66.5236 65.63 66.6535C66.0105 66.7834 66.6067 66.1338 66.6067 66.1338L67.5835 58.8467L68.2331 56.0488L69.7944 62.2293L72.7895 71.0128C72.7895 71.0128 72.9844 71.21 73.634 71.2749C73.7157 71.2905 73.7996 71.2891 73.8807 71.2709C73.9618 71.2528 74.0383 71.2181 74.1055 71.1692C74.1727 71.1203 74.2291 71.0581 74.2714 70.9865C74.3136 70.9149 74.3406 70.8354 74.3509 70.7529L73.4391 61.1876L72.7895 53.0537C72.7895 53.0537 70.1865 53.0537 68.5602 52.8588C67.4085 52.6773 66.2898 52.3271 65.2403 51.8194L64.3958 51.5039L64.4607 52.6639Z" fill="#263238" stroke="#263238" stroke-linecap="round" stroke-linejoin="round"/>
<path d="M67.7781 37.1199L64.4605 38.2266C63.8736 38.4215 63.8086 39.201 63.8086 40.1127C63.8086 41.0245 64.3283 48.6364 64.1984 49.5482C64.0684 50.4599 63.9385 53.1279 63.9385 53.1279C64.4528 53.6146 64.9951 54.0709 65.5625 54.4944C66.0032 54.7555 66.4886 54.9325 66.9939 55.0164L67.4579 53.6499L68.0426 55.3412C68.0426 55.3412 69.7339 55.8609 71.1004 55.666C72.4668 55.4711 73.5735 53.3251 73.5735 53.3251L72.8473 48.9635C72.8473 48.9635 74.9353 40.8969 74.4087 39.9155C73.882 38.9342 71.8706 37.7672 70.5041 37.3125C69.6218 37.0426 68.6896 36.9767 67.7781 37.1199Z" fill="white"/>
<mask id="mask2_2075_11677" style="mask-type:luminance" maskUnits="userSpaceOnUse" x="63" y="37" width="12" height="19">
<path d="M67.7781 37.1199L64.4605 38.2266C63.8736 38.4215 63.8086 39.201 63.8086 40.1127C63.8086 41.0245 64.3283 48.6364 64.1984 49.5482C64.0684 50.4599 63.9385 53.1279 63.9385 53.1279C64.4528 53.6146 64.9951 54.0709 65.5625 54.4944C66.0032 54.7555 66.4886 54.9325 66.9939 55.0164L67.4579 53.6499L68.0426 55.3412C68.0426 55.3412 69.7339 55.8609 71.1004 55.666C72.4668 55.4711 73.5735 53.3251 73.5735 53.3251L72.8473 48.9635C72.8473 48.9635 74.9353 40.8969 74.4087 39.9155C73.882 38.9342 71.8706 37.7672 70.5041 37.3125C69.6218 37.0426 68.6896 36.9767 67.7781 37.1199Z" fill="white"/>
</mask>
<g mask="url(#mask2_2075_11677)">
<path d="M73.1113 43.4326C73.1113 43.4326 72.4941 45.1912 71.9675 47.2142C71.4409 49.2373 69.6823 52.8402 69.506 53.1047C69.3297 53.3692 65.8125 48.6201 66.077 49.3231C66.2932 49.9862 66.4691 50.6618 66.6037 51.3461L64.0517 44.6437C64.17 46.8361 64.2837 49.0818 64.2071 49.5505C64.0772 50.4622 63.9473 53.1279 63.9473 53.1279C64.4616 53.6146 65.0038 54.0709 65.5713 54.4944C66.012 54.7555 66.4974 54.9325 67.0027 55.0164L67.4667 53.6499L68.0513 55.3412C68.0513 55.3412 69.7426 55.8609 71.1091 55.666C72.4756 55.4711 73.5822 53.3251 73.5822 53.3251L72.8468 48.9635C72.8468 48.9635 73.4314 46.6969 73.9024 44.4209L73.1113 43.4326Z" fill="#EF233C"/>
<path opacity="0.5" d="M73.1113 43.4326C73.1113 43.4326 72.4941 45.1912 71.9675 47.2142C71.4409 49.2373 69.6823 52.8402 69.506 53.1047C69.3297 53.3692 65.8125 48.6201 66.077 49.3231C66.2932 49.9862 66.4691 50.6618 66.6037 51.3461L64.0517 44.6437C64.17 46.8361 64.2837 49.0818 64.2071 49.5505C64.0772 50.4622 63.9473 53.1279 63.9473 53.1279C64.4616 53.6146 65.0038 54.0709 65.5713 54.4944C66.012 54.7555 66.4974 54.9325 67.0027 55.0164L67.4667 53.6499L68.0513 55.3412C68.0513 55.3412 69.7426 55.8609 71.1091 55.666C72.4756 55.4711 73.5822 53.3251 73.5822 53.3251L72.8468 48.9635C72.8468 48.9635 73.4314 46.6969 73.9024 44.4209L73.1113 43.4326Z" fill="white"/>
</g>
<path d="M67.7781 37.1199L64.4605 38.2266C63.8736 38.4215 63.8086 39.201 63.8086 40.1127C63.8086 41.0245 64.3283 48.6364 64.1984 49.5482C64.0684 50.4599 63.9385 53.1279 63.9385 53.1279C64.4528 53.6146 64.9951 54.0709 65.5625 54.4944C66.0032 54.7555 66.4886 54.9325 66.9939 55.0164L67.4579 53.6499L68.0426 55.3412C68.0426 55.3412 69.7339 55.8609 71.1004 55.666C72.4668 55.4711 73.5735 53.3251 73.5735 53.3251L72.8473 48.9635C72.8473 48.9635 74.9353 40.8969 74.4087 39.9155C73.882 38.9342 71.8706 37.7672 70.5041 37.3125C69.6218 37.0426 68.6896 36.9767 67.7781 37.1199Z" stroke="#263238" stroke-linecap="round" stroke-linejoin="round"/>
<path d="M66.6072 37.512L65.6304 39.5953L66.6721 41.0268L65.4355 42.0012L67.1292 44.4093" fill="white"/>
<path d="M66.6072 37.512L65.6304 39.5953L66.6721 41.0268L65.4355 42.0012L67.1292 44.4093" stroke="#263238" stroke-linecap="round" stroke-linejoin="round"/>
<path d="M71.2933 37.6421L71.9429 40.5699L70.3816 40.962L71.0961 42.0014C71.0961 42.0014 70.1217 43.108 69.21 43.6254C68.2982 44.1427 66.6719 45.1218 66.6719 45.1218L67.1359 52.279" fill="white"/>
<path d="M71.2933 37.6421L71.9429 40.5699L70.3816 40.962L71.0961 42.0014C71.0961 42.0014 70.1217 43.108 69.21 43.6254C68.2982 44.1427 66.6719 45.1218 66.6719 45.1218L67.1359 52.279" stroke="#263238" stroke-linecap="round" stroke-linejoin="round"/>
<path d="M67.3882 37.12C67.3882 37.12 67.1934 39.3982 67.1934 40.6997C67.2303 41.7073 67.3608 42.7092 67.5831 43.6925C67.5831 43.6925 69.4693 41.0245 70.0562 39.9179C70.6432 38.8113 70.9007 37.8299 70.5202 37.3149C70.1398 36.7998 69.8034 36.8509 69.8034 36.8509C69.8034 36.8509 67.9752 36.3405 67.3882 37.12Z" fill="white" stroke="#263238" stroke-linecap="round" stroke-linejoin="round"/>
<path d="M67.649 40.3101L67.7789 40.8321L67.3242 42.2635L67.5841 43.6949L68.4285 42.4584L68.2986 40.962L68.7557 40.44L68.4285 39.4656L67.649 40.3101Z" fill="#263238"/>
<path d="M67.2578 40.4399L68.2972 39.8552L69.3389 40.8969" stroke="#263238" stroke-linecap="round" stroke-linejoin="round"/>
<path d="M73.5694 54.2346L73.1797 55.6011L73.3096 56.6428H73.5694L73.6994 56.0581L73.7643 57.5545L74.4163 57.6195L75.1308 55.8609V54.3645L73.5694 54.2346Z" fill="white" stroke="#263238" stroke-linecap="round" stroke-linejoin="round"/>
<path d="M73.7755 40.57C73.7755 40.57 72.6689 42.194 72.6039 42.9781C72.539 43.7623 72.8011 44.6694 72.931 45.3213C73.061 45.9732 72.996 49.096 73.2558 50.1933C73.5157 51.2907 73.5806 54.2278 73.5806 54.2278C73.5806 54.2278 74.0447 54.8797 75.142 54.3577C75.142 54.3577 75.606 49.3488 75.4691 46.7458C75.3858 45.16 75.1235 43.5886 74.6873 42.0617C74.6873 42.0617 75.0121 40.3032 74.3625 39.6536" fill="white"/>
<path d="M73.7755 40.57C73.7755 40.57 72.6689 42.194 72.6039 42.9781C72.539 43.7623 72.8011 44.6694 72.931 45.3213C73.061 45.9732 72.996 49.096 73.2558 50.1933C73.5157 51.2907 73.5806 54.2278 73.5806 54.2278C73.5806 54.2278 74.0447 54.8797 75.142 54.3577C75.142 54.3577 75.606 49.3488 75.4691 46.7458C75.3858 45.16 75.1235 43.5886 74.6873 42.0617C74.6873 42.0617 75.0121 40.3032 74.3625 39.6536" stroke="#263238" stroke-linecap="round" stroke-linejoin="round"/>
<path d="M67.9748 37.5121C67.9748 37.5121 67.9098 39.8553 68.2996 39.8553C68.6893 39.8553 69.666 37.3172 69.796 36.8625C69.9259 36.4078 67.9748 37.5121 67.9748 37.5121Z" fill="white" stroke="#263238" stroke-linecap="round" stroke-linejoin="round"/>
<path d="M66.6394 32.9441C66.6394 32.9441 66.4631 35.2177 66.8714 36.1503C67.2797 37.083 67.5674 38.2383 68.2124 38.3056C68.8573 38.3729 70.2517 36.5586 70.2517 36.5586L70.4257 36.0946C70.8702 35.4405 71.1122 34.6699 71.1217 33.879C71.1263 32.5868 67.7437 31.7701 66.6394 32.9441Z" fill="white" stroke="#263238" stroke-linecap="round" stroke-linejoin="round"/>
<path d="M67.681 34.8904L67.5371 36.2453L68.1078 36.3868" fill="white"/>
<path d="M67.681 34.8904L67.5371 36.2453L68.1078 36.3868" stroke="#263238" stroke-width="0.75" stroke-linecap="round" stroke-linejoin="round"/>
<path d="M67.299 34.8952C67.299 35.046 67.2596 35.169 67.2108 35.169C67.1621 35.169 67.125 35.046 67.125 34.8952C67.125 34.7444 67.1644 34.6191 67.2108 34.6191C67.2572 34.6191 67.299 34.7421 67.299 34.8952Z" fill="#263238"/>
<path d="M68.5389 35.2408C68.5389 35.3939 68.5017 35.5169 68.453 35.5169C68.4043 35.5169 68.3672 35.3939 68.3672 35.2408C68.3672 35.0877 68.4043 34.967 68.453 34.967C68.5017 34.967 68.5389 35.09 68.5389 35.2408Z" fill="#263238"/>
<path d="M68.1348 34.6051C68.1348 34.6051 68.7983 34.4311 69.0883 34.9229L68.1348 34.6051Z" fill="white"/>
<path d="M68.1348 34.6051C68.1348 34.6051 68.7983 34.4311 69.0883 34.9229" stroke="#263238" stroke-width="0.75" stroke-linecap="round" stroke-linejoin="round"/>
<path d="M66.9219 34.3174C67.0256 34.2697 67.1437 34.2641 67.2514 34.3018C67.3592 34.3394 67.4481 34.4174 67.4996 34.5193" fill="white"/>
<path d="M66.9219 34.3174C67.0256 34.2697 67.1437 34.2641 67.2514 34.3018C67.3592 34.3394 67.4481 34.4174 67.4996 34.5193" stroke="#263238" stroke-width="0.75" stroke-linecap="round" stroke-linejoin="round"/>
<path d="M67.5586 36.8301C67.6487 36.9271 67.7687 36.9912 67.8994 37.0122C68.0301 37.0332 68.1641 37.0099 68.2801 36.9461" fill="white"/>
<path d="M67.5586 36.8301C67.6487 36.9271 67.7687 36.9912 67.8994 37.0122C68.0301 37.0332 68.1641 37.0099 68.2801 36.9461" stroke="#263238" stroke-width="0.75" stroke-linecap="round" stroke-linejoin="round"/>
<path d="M67.6295 30.5474C67.6295 30.5474 65.6482 30.9534 65.8802 32.1714C66.1122 33.3894 68.0935 33.7444 68.6781 33.7444C69.1098 33.7303 69.539 33.672 69.9588 33.5704C69.9588 33.5704 69.3765 34.2107 69.7268 34.4984C70.0771 34.7861 70.2511 34.9624 70.2511 34.9624C70.2511 34.9624 70.6594 35.2547 70.6594 34.9044C70.6808 34.6075 70.7393 34.3145 70.8334 34.0321L71.3577 33.9718C71.3577 33.9718 72.0537 32.6911 71.8217 31.8165C71.5897 30.9418 69.9008 29.2065 67.6295 30.5474Z" fill="#263238" stroke="#263238" stroke-linecap="round" stroke-linejoin="round"/>
<path d="M70.252 34.974C70.252 34.974 70.6603 33.401 71.3586 33.9833C72.0569 34.5657 70.7763 35.7326 70.484 35.6746" fill="white"/>
<path d="M70.252 34.974C70.252 34.974 70.6603 33.401 71.3586 33.9833C72.0569 34.5657 70.7763 35.7326 70.484 35.6746" stroke="#263238" stroke-linecap="round" stroke-linejoin="round"/>
</svg>
