<svg width="116" height="116" viewBox="0 0 116 116" fill="none" xmlns="http://www.w3.org/2000/svg">
<path d="M57.7797 111.397C88.6129 111.397 113.608 96.9654 113.608 79.163C113.608 61.3606 88.6129 46.929 57.7797 46.929C26.9464 46.929 1.95117 61.3606 1.95117 79.163C1.95117 96.9654 26.9464 111.397 57.7797 111.397Z" fill="#FAFAFA"/>
<path d="M88.3625 99.9038C94.5396 99.9038 99.5472 97.0131 99.5472 93.4473C99.5472 89.8814 94.5396 86.9907 88.3625 86.9907C82.1853 86.9907 77.1777 89.8814 77.1777 93.4473C77.1777 97.0131 82.1853 99.9038 88.3625 99.9038Z" fill="#E0E0E0"/>
<path d="M15.6508 90.5543L6.47982 85.26C5.96246 84.9607 5.96246 84.4782 6.47982 84.1789L59.8259 53.3786C60.1164 53.2329 60.437 53.157 60.762 53.157C61.0871 53.157 61.4076 53.2329 61.6981 53.3786L70.8714 58.6751C71.3888 58.9721 71.3888 59.457 70.8714 59.7563L17.5253 90.5543C17.2349 90.7018 16.9138 90.7787 16.5881 90.7787C16.2623 90.7787 15.9412 90.7018 15.6508 90.5543Z" fill="#E0E0E0"/>
<path d="M21.8083 12.2357L19.7412 13.4328C19.7412 13.34 19.7574 13.2495 19.7574 13.159V12.5582C19.7574 11.4886 19.0081 11.0548 18.0801 11.5907C17.6823 11.8354 17.3421 12.1631 17.0825 12.5512C16.9293 11.2056 15.8761 10.6952 14.5931 11.4446C13.2011 12.245 12.0852 14.1891 12.0852 15.7899V16.6878C12.0751 17.0466 12.1473 17.4029 12.2963 17.7294L10.5725 18.7247C10.3025 18.9016 10.0779 19.1395 9.91667 19.4192C9.75548 19.6989 9.66226 20.0125 9.64453 20.3348C9.64453 20.9287 10.0621 21.17 10.5725 20.873L21.8083 14.384C22.0784 14.2072 22.3032 13.9694 22.4644 13.6897C22.6256 13.41 22.7187 13.0963 22.7363 12.7739C22.7363 12.18 22.328 11.9387 21.8083 12.2357Z" fill="#EBEBEB"/>
<path d="M32.5549 17.2051L30.9889 18.1099C30.9981 18.0407 31.0027 17.971 31.0028 17.9011V17.4371C31.0028 16.6298 30.4367 16.3027 29.7384 16.7063C29.4374 16.8899 29.1801 17.1369 28.9844 17.4302C28.8684 16.4163 28.0726 16.0382 27.1052 16.5973C26.0612 17.2005 25.2121 18.6691 25.2121 19.8755V20.5552C25.2054 20.8253 25.2602 21.0935 25.3722 21.3394L24.073 22.0911C23.8698 22.2249 23.7009 22.4047 23.58 22.6159C23.4591 22.8271 23.3895 23.0637 23.377 23.3067C23.377 23.7545 23.6925 23.9355 24.073 23.7127L32.5549 18.8152C32.7579 18.6812 32.9267 18.5014 33.0476 18.2902C33.1685 18.0791 33.2381 17.8425 33.2509 17.5995C33.2578 17.168 32.9446 16.9824 32.5549 17.2051Z" fill="#EBEBEB"/>
<path d="M48.6179 81.1188L56.5059 76.56C57.3202 76.096 57.7262 75.4742 57.7262 74.8594C57.7262 74.2446 57.7262 73.7644 57.7262 73.7644L49.5459 69.1499C49.3176 69.0008 49.1276 68.8001 48.9914 68.5639C48.8551 68.3276 48.7765 68.0627 48.7618 67.7904V58.0696L34.9902 66.0272V75.748C35.0053 76.0202 35.0841 76.285 35.2203 76.5212C35.3565 76.7573 35.5463 76.9582 35.7744 77.1075L42.7344 81.1188C44.3561 82.0561 46.9916 82.0561 48.6179 81.1188Z" fill="#263238"/>
<path d="M38.2943 77.4694V78.5621L35.7701 77.1075C35.5422 76.9582 35.3527 76.7573 35.2169 76.5211C35.081 76.2849 35.0027 76.02 34.9883 75.748V66.0295L37.6099 64.5145C37.6656 65.1804 37.7236 65.8694 37.7792 66.5399L35.9395 67.6048V75.2005C35.9533 75.473 36.0315 75.7383 36.1679 75.9746C36.3042 76.211 36.4947 76.4116 36.7236 76.56L38.2943 77.4694Z" fill="black"/>
<path d="M35.9395 75.2027C35.9542 75.475 36.0328 75.74 36.1691 75.9762C36.3053 76.2124 36.4953 76.4132 36.7236 76.5622L42.7301 80.0213C44.3541 80.9609 46.9919 80.9609 48.6183 80.0213L56.5063 75.4649C58.1303 74.5369 58.1303 73.0057 56.5063 72.0661L50.4951 68.6023C50.2664 68.4536 50.0761 68.253 49.9398 68.0167C49.8036 67.7804 49.7251 67.5152 49.711 67.2428V59.6494L35.9418 67.607L35.9395 75.2027Z" fill="#37474F"/>
<path d="M52.0936 69.528L50.4951 68.6C50.2664 68.4513 50.0761 68.2506 49.9398 68.0144C49.8036 67.7781 49.7251 67.5129 49.711 67.2405V59.6494L35.9395 67.607V75.2027C35.9542 75.475 36.0328 75.74 36.1691 75.9762C36.3053 76.2124 36.4953 76.4132 36.7236 76.5622L38.2943 77.467L52.0936 69.528Z" fill="#263238"/>
<path d="M57.7245 73.776V74.8734C57.7245 75.4882 57.3162 76.1006 56.5042 76.5716L48.6162 81.1281C47.7518 81.5892 46.7863 81.8284 45.8066 81.8241V80.7314C46.7865 80.7368 47.7522 80.4976 48.6162 80.0354L56.5042 75.4742C57.3162 74.9963 57.7245 74.3815 57.7245 73.776Z" fill="#455A64"/>
<path d="M13.8273 84.6428C14.1245 84.7865 14.4514 84.8582 14.7815 84.8521C15.1116 84.8461 15.4356 84.7625 15.7274 84.608L68.9853 53.8587C69.2713 53.6732 69.5093 53.4226 69.6799 53.1274C69.8504 52.8323 69.9487 52.5009 69.9666 52.1605V8.93659C69.9533 8.60595 69.8624 8.2831 69.7012 7.99413C69.5399 7.70515 69.313 7.45817 69.0386 7.27315C68.7414 7.12949 68.4145 7.05778 68.0845 7.06383C67.7544 7.06987 67.4304 7.1535 67.1386 7.30795L13.8876 38.0479C13.602 38.2339 13.3643 38.4846 13.1938 38.7797C13.0233 39.0747 12.9248 39.4059 12.9062 39.7462V82.9794C12.9188 83.3094 13.0087 83.6319 13.1687 83.9208C13.3286 84.2097 13.5542 84.457 13.8273 84.6428Z" fill="#455A64"/>
<path d="M15.7271 84.6058L68.985 53.8588C69.2706 53.6729 69.5083 53.4222 69.6788 53.1271C69.8493 52.832 69.9479 52.5009 69.9664 52.1606V8.93665C69.9664 8.31025 69.5279 8.05737 68.985 8.37057L15.7294 39.1175C15.4438 39.3035 15.2061 39.5542 15.0356 39.8493C14.8651 40.1443 14.7666 40.4755 14.748 40.8158V84.0397C14.748 84.6661 15.1865 84.912 15.7271 84.6058Z" fill="#EF233C"/>
<path d="M15.7271 84.6058L68.985 53.8588C69.2706 53.6729 69.5083 53.4222 69.6788 53.1271C69.8493 52.832 69.9479 52.5009 69.9664 52.1606V8.93665C69.9664 8.31025 69.5279 8.05737 68.985 8.37057L15.7294 39.1175C15.4438 39.3035 15.2061 39.5542 15.0356 39.8493C14.8651 40.1443 14.7666 40.4755 14.748 40.8158V84.0397C14.748 84.6661 15.1865 84.912 15.7271 84.6058Z" fill="#37474F"/>
<path d="M15.583 85.7262C15.3044 85.8464 15.0031 85.9052 14.6997 85.8988C14.3963 85.8924 14.0978 85.8209 13.8245 85.6891C13.5498 85.5038 13.3227 85.2565 13.1615 84.9671C13.0002 84.6777 12.9095 84.3544 12.8965 84.0233V80.1002L14.7362 81.1651V85.0882C14.7455 85.6589 15.1074 85.9165 15.583 85.7262Z" fill="#263238"/>
<path d="M14.7461 81.1651V85.0859C14.7461 85.7123 15.1846 85.9652 15.7251 85.652L68.9854 54.9051C69.2713 54.7189 69.5092 54.4678 69.6797 54.1723C69.8502 53.8768 69.9486 53.5452 69.9667 53.2045V49.2767L14.7461 81.1651Z" fill="#37474F"/>
<path opacity="0.2" d="M14.748 81.1559V85.0859C14.748 85.7123 15.1865 85.9652 15.7271 85.652L68.985 54.9051C69.2709 54.7189 69.5088 54.4678 69.6793 54.1723C69.8499 53.8768 69.9482 53.5452 69.9664 53.2045V49.2767L14.748 81.1559Z" fill="black"/>
<path d="M16.5879 76.2422V41.4282C16.5991 41.2238 16.6582 41.0248 16.7606 40.8474C16.863 40.6701 17.0057 40.5194 17.1772 40.4074L67.5351 11.3332C67.8622 11.1453 68.1244 11.2984 68.1244 11.6719V46.4882C68.1132 46.6926 68.054 46.8916 67.9517 47.069C67.8493 47.2463 67.7066 47.397 67.5351 47.509L17.1679 76.5832C16.8501 76.7711 16.5879 76.618 16.5879 76.2422Z" fill="#EF233C"/>
<path opacity="0.3" d="M16.5879 76.2422V41.4282C16.5991 41.2238 16.6582 41.0248 16.7606 40.8474C16.863 40.6701 17.0057 40.5194 17.1772 40.4074L67.5351 11.3332C67.8622 11.1453 68.1244 11.2984 68.1244 11.6719V46.4882C68.1132 46.6926 68.054 46.8916 67.9517 47.069C67.8493 47.2463 67.7066 47.397 67.5351 47.509L17.1679 76.5832C16.8501 76.7711 16.5879 76.618 16.5879 76.2422Z" fill="black"/>
<path d="M42.3557 66.4679C42.0866 66.6419 41.8623 66.8768 41.701 67.1538C41.5398 67.4307 41.4461 67.7418 41.4277 68.0618C41.4277 68.6487 41.8407 68.8877 42.3557 68.593C42.6251 68.4194 42.8497 68.1844 43.0109 67.9074C43.1722 67.6304 43.2657 67.3192 43.2837 66.9992C43.2768 66.4122 42.8638 66.1733 42.3557 66.4679Z" fill="#455A64"/>
<path d="M15.036 39.8459C14.8613 40.1405 14.7617 40.4735 14.746 40.8156V81.1651L12.9062 80.1002V39.7554C12.9197 39.4129 13.0194 39.0793 13.1962 38.7856L15.036 39.8459Z" fill="#263238"/>
<path d="M77.3835 8.73257C77.3044 8.69272 77.2158 8.67533 77.1274 8.68228C77.0391 8.68923 76.9543 8.72027 76.8824 8.77201L23.8031 39.4262C23.6015 39.5556 23.4333 39.7309 23.3124 39.9378C23.1914 40.1446 23.1211 40.3771 23.1071 40.6163V76.4023C23.0989 76.5184 23.1214 76.6346 23.1723 76.7393C23.2232 76.8439 23.3007 76.9333 23.3971 76.9986C23.5085 77.0589 24.0931 77.4022 24.2741 77.4974C24.3366 77.5294 24.4066 77.5441 24.4768 77.5401C24.5469 77.536 24.6147 77.5132 24.6731 77.4742L77.7594 46.8084C77.9611 46.6791 78.1294 46.5038 78.2503 46.297C78.3713 46.0901 78.4416 45.8575 78.4554 45.6183V9.65825C78.467 9.56866 78.4532 9.4776 78.4154 9.39552C78.3777 9.31345 78.3175 9.24368 78.2419 9.19425C78.112 9.15017 77.5088 8.81609 77.3835 8.73257Z" fill="#EF233C"/>
<path d="M24.6823 39.9249L77.7593 9.27999C78.1398 9.06191 78.4553 9.24055 78.4553 9.67903V45.639C78.4415 45.8783 78.3713 46.1109 78.2503 46.3177C78.1293 46.5246 77.9611 46.6999 77.7593 46.8292L24.6823 77.4741C24.3018 77.6922 23.9863 77.3372 23.9863 76.8987V41.115C24.0001 40.8758 24.0704 40.6432 24.1913 40.4363C24.3123 40.2295 24.4806 40.0542 24.6823 39.9249Z" fill="#FAFAFA"/>
<path d="M78.0679 9.40766C78.1954 9.40766 78.2163 9.57006 78.2163 9.6675V45.6275C78.2038 45.8254 78.1456 46.0176 78.0461 46.1891C77.9467 46.3606 77.8088 46.5067 77.6433 46.6158L24.5663 77.2723C24.5335 77.295 24.4949 77.3078 24.455 77.3094C24.3343 77.3094 24.223 77.1169 24.223 76.8988V41.1151C24.2355 40.9169 24.2937 40.7244 24.3931 40.5525C24.4926 40.3806 24.6305 40.2341 24.796 40.1245L77.8753 9.4703C77.9332 9.43359 77.9994 9.41204 78.0679 9.40766ZM78.0679 9.17566C77.9588 9.17979 77.8526 9.21173 77.7593 9.26846L24.6823 39.9249C24.4806 40.0543 24.3123 40.2295 24.1913 40.4364C24.0704 40.6433 24.0001 40.8759 23.9863 41.1151V76.8988C23.9863 77.2468 24.1789 77.5414 24.4503 77.5414C24.5324 77.5407 24.6126 77.5174 24.6823 77.4741L77.7593 46.8084C77.9611 46.6791 78.1293 46.5038 78.2503 46.2969C78.3713 46.0901 78.4415 45.8575 78.4553 45.6182V9.65822C78.4553 9.34502 78.2999 9.16638 78.0748 9.16638L78.0679 9.17566Z" fill="#E0E0E0"/>
<path d="M23.4046 76.9986C23.4788 77.038 24.0148 77.3442 24.2491 77.4765C24.1644 77.4069 24.0974 77.3183 24.0535 77.2179C24.0095 77.1175 23.9899 77.0082 23.9962 76.8988V43.3632L23.1146 42.8481V76.4023C23.1073 76.5183 23.1302 76.6341 23.1811 76.7386C23.2319 76.8431 23.3089 76.9327 23.4046 76.9986Z" fill="#F0F0F0"/>
<path d="M78.4483 9.66057C78.4483 9.22673 78.1375 9.05041 77.7523 9.26849L24.6823 39.925C24.4806 40.0543 24.3123 40.2296 24.1913 40.4364C24.0704 40.6433 24.0001 40.8759 23.9863 41.1151V43.3632L78.4483 11.9179V9.66057Z" fill="#EF233C"/>
<g opacity="0.4">
<path d="M77.7603 9.28003L24.6834 39.9249C24.4807 40.0507 24.3137 40.2264 24.1985 40.4353L23.3262 39.9296C23.4397 39.7235 23.6042 39.5502 23.8041 39.4261L76.8834 8.77195C76.955 8.72052 77.0392 8.68947 77.127 8.68212C77.2148 8.67476 77.303 8.69138 77.3822 8.73019C77.5051 8.80675 78.0782 9.13155 78.222 9.20811C78.1449 9.18209 78.0627 9.17504 77.9824 9.18756C77.902 9.20008 77.8258 9.2318 77.7603 9.28003Z" fill="white"/>
</g>
<path opacity="0.15" d="M23.1133 42.8504V40.6163C23.1219 40.3699 23.1947 40.13 23.3244 39.9203L24.199 40.4237C24.073 40.6295 24.0027 40.8646 23.9949 41.1058V43.3539L23.1133 42.8504Z" fill="black"/>
<path d="M23.9965 43.3631L23.9941 47.4138L78.4469 15.9732V11.9178L23.9965 43.3631Z" fill="#EBEBEB"/>
<path d="M26.2621 43.0638L29.7838 41.0408V43.0569L26.2598 45.0915L26.2621 43.0638Z" fill="#E0E0E0"/>
<path d="M30.6543 40.5281V41.3262L32.4105 40.31V39.5143L30.6543 40.5281Z" fill="#E0E0E0"/>
<path d="M30.6543 41.7601V42.5581L32.4105 41.542V40.7462L30.6543 41.7601Z" fill="#E0E0E0"/>
<path d="M33.2891 39.0062V39.8042L35.0453 38.7904V37.9923L33.2891 39.0062Z" fill="#E0E0E0"/>
<path d="M33.2891 40.2381V41.0362L35.0453 40.0223V39.2242L33.2891 40.2381Z" fill="#E0E0E0"/>
<path d="M35.9219 37.4843V38.2824L37.6781 37.2685V36.4705L35.9219 37.4843Z" fill="#E0E0E0"/>
<path d="M35.9219 38.7162V39.5143L37.6781 38.5005V37.7024L35.9219 38.7162Z" fill="#E0E0E0"/>
<path d="M43.8262 32.9208V33.7189L45.5824 32.7051V31.907L43.8262 32.9208Z" fill="#E0E0E0"/>
<path d="M43.8262 34.1551V34.9508L45.5824 33.937V33.1389L43.8262 34.1551Z" fill="#E0E0E0"/>
<path d="M46.4629 31.4013V32.1971L48.2191 31.1832V30.3851L46.4629 31.4013Z" fill="#E0E0E0"/>
<path d="M46.4629 32.6331V33.4289L48.2191 32.415V31.6169L46.4629 32.6331Z" fill="#E0E0E0"/>
<path d="M49.0957 29.8793L49.098 30.6774L50.8543 29.6636V28.8655L49.0957 29.8793Z" fill="#E0E0E0"/>
<path d="M49.0957 31.1113L49.098 31.9093L50.8543 30.8932V30.0974L49.0957 31.1113Z" fill="#E0E0E0"/>
<path d="M38.5586 35.9647L42.9504 33.429V35.4566L38.5586 37.9924V35.9647Z" fill="#E0E0E0"/>
<path d="M51.7328 28.3574L55.2545 26.3344V28.3528L51.7305 30.3874L51.7328 28.3574Z" fill="#E0E0E0"/>
<path d="M56.123 25.8216L56.1254 26.6197L57.8816 25.6058V24.8077L56.123 25.8216Z" fill="#E0E0E0"/>
<path d="M56.123 27.0535L56.1254 27.8516L57.8816 26.8378V26.0397L56.123 27.0535Z" fill="#E0E0E0"/>
<path d="M58.7578 24.302V25.1001L60.5141 24.084V23.2859L58.7578 24.302Z" fill="#E0E0E0"/>
<path d="M58.7578 25.534V26.3321L60.5141 25.3159V24.5178L58.7578 25.534Z" fill="#E0E0E0"/>
<path d="M61.3945 22.7801V23.5782L63.1508 22.562V21.7639L61.3945 22.7801Z" fill="#E0E0E0"/>
<path d="M61.3945 24.012V24.8101L63.1508 23.7939V22.9982L61.3945 24.012Z" fill="#E0E0E0"/>
<path d="M69.2988 18.2167V19.0148L71.0551 17.9986V17.2006L69.2988 18.2167Z" fill="#E0E0E0"/>
<path d="M69.2988 19.4485V20.2466L71.0551 19.2305V18.4347L69.2988 19.4485Z" fill="#E0E0E0"/>
<path d="M71.9336 16.6947V17.4928L73.6898 16.479V15.6809L71.9336 16.6947Z" fill="#E0E0E0"/>
<path d="M71.9336 17.9267V18.7248L73.6898 17.7109V16.9128L71.9336 17.9267Z" fill="#E0E0E0"/>
<path d="M74.5664 15.1728V15.9709L76.325 14.957V14.1589L74.5664 15.1728Z" fill="#E0E0E0"/>
<path d="M74.5664 16.4047V17.2028L76.325 16.1889V15.3909L74.5664 16.4047Z" fill="#E0E0E0"/>
<path d="M64.0293 21.2582L68.4211 18.7224V20.7524L64.0293 23.2859V21.2582Z" fill="#E0E0E0"/>
<path d="M23.9949 43.3632L23.1133 42.8481V46.9058L23.9926 47.4139L23.9949 43.3632Z" fill="#E0E0E0"/>
<path d="M64.3965 18.4347V18.5855C64.3965 18.8175 64.5635 18.9196 64.77 18.8013L75.442 12.6417C75.5508 12.5702 75.6413 12.4742 75.7062 12.3614C75.7711 12.2486 75.8085 12.122 75.8155 11.9921V11.8436C75.8155 11.6116 75.6485 11.5072 75.442 11.6278L64.77 17.7874C64.6611 17.8582 64.5705 17.9538 64.5056 18.0663C64.4407 18.1788 64.4033 18.305 64.3965 18.4347Z" fill="#F5F5F5"/>
<path d="M75.8124 11.9921V11.8436C75.8124 11.6116 75.6454 11.5072 75.4389 11.6278L74.0469 12.4259V13.4398L75.4389 12.6417C75.5477 12.5702 75.6382 12.4742 75.7031 12.3614C75.7679 12.2486 75.8054 12.122 75.8124 11.9921Z" fill="#455A64"/>
<path d="M24.873 47.9173L77.5718 17.4974V19.5205L29.2625 47.4138V73.7806L24.873 76.3141V47.9173Z" fill="#F0F0F0"/>
<path d="M29.2637 47.4139L33.6531 44.8805V46.9035L29.2637 49.4416V47.4139Z" fill="#EF233C"/>
<path d="M29.2637 63.6377L33.6531 61.1042V63.1273L29.2637 65.6654V63.6377Z" fill="#EF233C"/>
<path d="M29.2637 65.6653L33.6531 63.1318V65.1549L29.2637 67.693V65.6653Z" fill="#EF233C"/>
<path opacity="0.8" d="M29.2637 65.6653L33.6531 63.1318V65.1549L29.2637 67.693V65.6653Z" fill="white"/>
<path d="M55.6094 48.4254L59.9988 45.892V47.915L55.6094 50.4531V48.4254Z" fill="#EF233C"/>
<path opacity="0.3" d="M55.6094 48.4254L59.9988 45.892V47.915L55.6094 50.4531V48.4254Z" fill="black"/>
<path d="M55.6094 50.4531L59.9988 47.9197V49.9427L55.6094 52.4808V50.4531Z" fill="#EF233C"/>
<path opacity="0.4" d="M55.6094 50.4531L59.9988 47.9197V49.9427L55.6094 52.4808V50.4531Z" fill="black"/>
<path d="M55.6094 52.4831L59.9988 49.9497V51.9727L55.6094 54.5108V52.4831Z" fill="#EF233C"/>
<path opacity="0.5" d="M55.6094 52.4831L59.9988 49.9497V51.9727L55.6094 54.5108V52.4831Z" fill="black"/>
<path d="M55.6094 54.5107L59.9988 51.9773V54.0003L55.6094 56.5384V54.5107Z" fill="#EF233C"/>
<path opacity="0.3" d="M55.6094 54.5107L59.9988 51.9773V54.0003L55.6094 56.5384V54.5107Z" fill="black"/>
<path d="M51.2227 34.7351L55.6098 32.2017V42.3424L51.2227 44.8805V34.7351Z" fill="#EF233C"/>
<path d="M51.2227 46.9058L55.6098 44.3723V58.5684L51.2227 61.1065V46.9058Z" fill="#EF233C"/>
<path d="M33.6523 57.0465L38.0395 54.5131V56.5361L33.6523 59.0742V57.0465Z" fill="#EF233C"/>
<path opacity="0.3" d="M33.6523 57.0465L38.0395 54.5131V56.5361L33.6523 59.0742V57.0465Z" fill="black"/>
<path d="M42.4375 41.8343L46.8269 39.3009V41.3239L42.4375 43.862V41.8343Z" fill="#EF233C"/>
<path opacity="0.6" d="M42.4375 41.8343L46.8269 39.3009V41.3239L42.4375 43.862V41.8343Z" fill="white"/>
<path d="M64.3965 41.3262L68.7836 38.7927V40.8158L64.3965 43.3538V41.3262Z" fill="#EF233C"/>
<path opacity="0.8" d="M64.3965 41.3262L68.7836 38.7927V40.8158L64.3965 43.3538V41.3262Z" fill="white"/>
<path d="M64.3965 45.3839L68.7836 42.8505V44.8735L64.3965 47.4116V45.3839Z" fill="#EF233C"/>
<path d="M24.8248 47.8268L24.7715 47.857V76.5044L77.6234 45.9848L77.6791 45.9546V17.3073L24.8248 47.8268ZM77.468 43.8063L73.292 46.2168V44.4373L77.468 42.0292V43.8063ZM24.9826 50.01L29.1586 47.5995V49.3789L24.9826 51.7894V50.01ZM51.1151 47.096V48.8755L46.9391 51.286V49.5065L51.1151 47.096ZM46.9391 49.256V47.4765L51.1151 45.0661V46.8455L46.9391 49.256ZM51.3308 46.9708L55.5068 44.5603V46.3397L51.3308 48.7502V46.9708ZM51.3308 46.7202V44.9431L55.5068 42.5303V44.312L51.3308 46.7202ZM51.3308 44.6925V42.92L55.5068 40.5096V42.289L51.3308 44.6925ZM51.3308 42.6625V40.8854L55.5068 38.4726V40.2521L51.3308 42.6625ZM51.1151 42.7878L46.9391 45.1983V43.4188L51.1151 41.0084V42.7878ZM51.1151 43.0384V44.8178L46.9391 47.2283V45.4488L51.1151 43.0384ZM46.7233 47.3536L42.5473 49.764V47.9846L46.7233 45.5741V47.3536ZM46.7233 47.6018V49.3812L42.5473 51.7917V50.0123L46.7233 47.6018ZM46.7233 49.6318V51.4113L42.5473 53.8217V52.0423L46.7233 49.6318ZM46.7233 51.6595V53.4389L42.5473 55.8494V54.07L46.7233 51.6595ZM46.9391 51.5342L51.1151 49.1237V50.9032L46.9391 53.3137V51.5342ZM51.1151 51.1537V52.9332L46.9391 55.3437V53.5642L51.1151 51.1537ZM51.3308 51.0285L55.5068 48.618V50.3974L51.3308 52.8079V51.0285ZM51.3308 50.7779V48.9985L55.5068 46.588V48.3674L51.3308 50.7779ZM55.7226 46.465L59.8986 44.0545V45.834L55.7226 48.2445V46.465ZM55.7226 46.2144V44.435L59.8986 42.0245V43.804L55.7226 46.2144ZM55.7226 44.1868V42.4073L59.8986 39.9968V41.7763L55.7226 44.1868ZM55.7226 42.1568V40.3681L59.8986 37.9576V39.737L55.7226 42.1568ZM55.7226 40.1291V38.3497L59.8986 35.9392V37.7163L55.7226 40.1291ZM55.7226 38.0991V36.3197L59.8986 33.9092V35.6886L55.7226 38.0991ZM55.5068 38.2244L51.3308 40.6348V38.8554L55.5068 36.4449V38.2244ZM51.1151 40.7601L46.9391 43.1706V41.3912L51.1151 38.9807V40.7601ZM46.7233 43.2959L42.5473 45.7064V43.9269L46.7233 41.5164V43.2959ZM46.7233 43.5441V45.3236L42.5473 47.734V45.9546L46.7233 43.5441ZM42.3316 47.8593L38.1556 50.2698V48.488L42.3316 46.0776V47.8593ZM42.3316 48.1099V49.88L38.1556 52.2928V50.5134L42.3316 48.1099ZM42.3316 50.1376V51.917L38.1556 54.3275V52.548L42.3316 50.1376ZM42.3316 52.1676V53.9447L38.1556 56.3575V54.578L42.3316 52.1676ZM42.3316 54.1953V55.9747L38.1556 58.3852V56.608L42.3316 54.1953ZM42.3316 56.2253V58L38.1556 60.4128V58.6334L42.3316 56.2253ZM42.5473 56.1L46.7233 53.6895V55.4689L42.5473 57.8794V56.1ZM46.7233 55.7172V57.4966L42.5473 59.9071V58.1277L46.7233 55.7172ZM46.9391 55.5919L51.1151 53.1814V54.9608L46.9391 57.3713V55.5919ZM51.3308 53.0561L55.5068 50.6457V52.432L51.3308 54.8425V53.0561ZM55.7226 50.5227L59.8986 48.1122V49.8917L55.7226 52.3021V50.5227ZM55.7226 50.2721V48.488L59.8986 46.0776V47.857L55.7226 50.2721ZM60.1144 45.9569L64.2904 43.5464V45.3259L60.1144 47.7364V45.9569ZM60.1144 45.7087V43.9293L64.2904 41.5188V43.2982L60.1144 45.7087ZM60.1144 43.6787V41.8993L64.2904 39.4888V41.2682L60.1144 43.6787ZM60.1144 41.651V39.8716L64.2904 37.4611V39.2405L60.1144 41.651ZM60.1144 39.621V37.8416L64.2904 35.4311V37.2105L60.1144 39.621ZM60.1144 37.5933V35.8139L64.2904 33.4034V35.1828L60.1144 37.5933ZM60.1144 35.5633V33.7839L64.2904 31.3734V33.1528L60.1144 35.5633ZM60.1144 33.5357V31.7562L64.2904 29.3457V31.1252L60.1144 33.5357ZM59.8986 33.6586L55.7226 36.0714V34.292L59.8986 31.8815V33.6586ZM55.5068 36.1921L51.3308 38.6025V36.8254L55.5068 34.4126V36.1921ZM51.1151 38.7278L46.9391 41.1383V39.3588L51.1151 36.9484V38.7278ZM46.7233 41.2636L42.5473 43.6741V41.8946L46.7233 39.4841V41.2636ZM42.3316 43.8017L38.1556 46.2121V44.4327L42.3316 42.0222V43.8017ZM42.3316 44.0522V45.8293L38.1556 48.2421V46.4627L42.3316 44.0522ZM37.9398 48.3651L33.7638 50.7756V48.9985L37.9398 46.5857V48.3651ZM37.9398 48.6157V50.3951L33.7638 52.8056V51.0261L37.9398 48.6157ZM37.9398 50.6433V52.432L33.7638 54.8425V53.0631L37.9398 50.6433ZM37.9398 52.6733V54.4528L33.7638 56.8633V55.0838L37.9398 52.6733ZM37.9398 54.701V56.4804L33.7638 58.8909V57.1138L37.9398 54.701ZM37.9398 56.731V58.5105L33.7638 60.9209V59.1415L37.9398 56.731ZM37.9398 58.7587V60.5381L33.7638 62.9486V61.1715L37.9398 58.7587ZM37.9398 60.7887V62.5681L33.7638 64.9786V63.1992L37.9398 60.7887ZM38.1556 60.6634L42.3316 58.2529V60.0324L38.1556 62.4428V60.6634ZM42.3316 60.2829V62.0624L38.1556 64.4728V62.6934L42.3316 60.2829ZM42.5473 60.1576L46.7233 57.7472V59.5266L42.5473 61.9371V60.1576ZM46.9391 57.6219L51.1151 55.2114V56.9908L46.9391 59.4013V57.6219ZM51.3308 55.0861L55.5068 52.6757V54.4551L51.3308 56.8656V55.0861ZM55.7226 52.5504L59.8986 50.1399V51.9193L55.7226 54.3298V52.5504ZM60.1144 50.0146L64.2904 47.6041V49.3836L60.1144 51.794V50.0146ZM60.1144 49.7664V47.9869L64.2904 45.5765V47.3559L60.1144 49.7664ZM64.4968 45.4512L68.6728 43.0407V44.8201L64.4968 47.2306V45.4512ZM64.4968 45.2006V43.4212L68.6728 41.0107V42.7901L64.4968 45.2006ZM64.4968 43.1729V41.3935L68.6728 38.9761V40.7555L64.4968 43.1729ZM64.4968 41.1429V39.3635L68.6728 36.953V38.7441L64.4968 41.1429ZM64.4968 39.1153V37.3358L68.6728 34.9253V36.7048L64.4968 39.1153ZM64.4968 37.0853V35.3058L68.6728 32.8953V34.6748L64.4968 37.0853ZM64.4968 35.0576V33.2781L68.6728 30.8677V32.6471L64.4968 35.0576ZM64.4968 33.0276V31.2481L68.6728 28.8377V30.6241L64.4968 33.0276ZM64.4968 30.9999V29.2321L68.6728 26.8216V28.601L64.4968 30.9999ZM64.4968 28.9699V27.1905L68.6728 24.78V26.5594L64.4968 28.9699ZM64.2811 29.0952L60.1051 31.5057V29.7262L64.2811 27.3157V29.0952ZM59.8893 31.6309L55.7133 34.0414V32.262L59.8893 29.8515V31.6309ZM55.4976 34.1667L51.3216 36.5772V34.8001L55.4976 32.3896V34.1667ZM51.1151 36.7024L46.9391 39.1129V37.3335L51.1151 34.923V36.7024ZM46.7233 39.2382L42.5473 41.6487V39.8693L46.7233 37.4588V39.2382ZM42.3316 41.7717L38.1556 44.1845V42.405L42.3316 39.9945V41.7717ZM37.9398 44.312L33.7638 46.7225V44.9454L37.9398 42.5326V44.312ZM37.9398 44.5626V46.3421L33.7638 48.7525V46.9731L37.9398 44.5626ZM33.548 48.8778L29.372 51.2883V49.5088L33.548 47.0984V48.8778ZM33.548 49.126V50.9055L29.372 53.316V51.5365L33.548 49.126ZM33.548 51.156V52.9355L29.372 55.346V53.5665L33.548 51.156ZM33.548 53.1837V54.9632L29.372 57.3737V55.5942L33.548 53.1837ZM33.548 55.2137V56.9932L29.372 59.392V57.6126L33.548 55.2137ZM33.548 57.2414V59.0208L29.372 61.4313V59.6473L33.548 57.2414ZM33.548 59.2714V61.0508L29.372 63.4613V61.6819L33.548 59.2714ZM33.548 61.2991V63.0785L29.372 65.489V63.7096L33.548 61.2991ZM33.548 63.3291V65.1085L29.372 67.512V65.7326L33.548 63.3291ZM33.548 65.3568V67.1362L29.372 69.5467V67.7673L33.548 65.3568ZM33.7638 65.2338L37.9398 62.821V64.6005L33.7638 67.0109V65.2338ZM37.9398 64.851V66.6305L33.7638 69.0409V67.2568L37.9398 64.851ZM38.1556 64.7257L42.3316 62.3153V64.0947L38.1556 66.5052V64.7257ZM42.5473 62.176L46.7233 59.7656V61.545L42.5473 63.9555V62.176ZM46.9391 59.6403L51.1151 57.2298V59.0093L46.9391 61.4197V59.6403ZM51.3308 57.1068L55.5068 54.694V56.4735L51.3308 58.884V57.1068ZM55.7226 54.5711L59.8986 52.1606V53.94L55.7226 56.3505V54.5711ZM60.1144 52.0353L64.2904 49.6248V51.4043L60.1144 53.8148V52.0353ZM64.4968 49.5088L68.6728 47.096V48.8755L64.4968 51.286V49.5088ZM64.4968 49.2583V47.4788L68.6728 45.0684V46.8478L64.4968 49.2583ZM68.9048 44.9454L73.0808 42.5326V44.312L68.9048 46.7225V44.9454ZM68.9048 44.6948V42.92L73.0808 40.5096V42.289L68.9048 44.6948ZM68.9048 42.6648V40.8877L73.0808 38.4749V40.2544L68.9048 42.6648ZM68.9048 40.6372V38.8577L73.0808 36.4473V38.2267L68.9048 40.6372ZM68.9048 38.6072V36.8301L73.0808 34.4173V36.1921L68.9048 38.6072ZM68.9048 36.5795V34.8001L73.0808 32.3896V34.169L68.9048 36.5795ZM68.9048 34.5495V32.7724L73.0808 30.3596V32.139L68.9048 34.5495ZM68.9048 32.5218V30.7424L73.0808 28.3319V30.1113L68.9048 32.5218ZM68.9048 30.4918V28.7147L73.0808 26.3019V28.0721L68.9048 30.4918ZM68.9048 28.4641V26.6801L73.0808 24.2696V26.049L68.9048 28.4641ZM68.9048 26.4341V24.657L73.0808 22.2442V24.0237L68.9048 26.4341ZM68.9048 24.4065V22.627L73.0808 20.2165V21.996L68.9048 24.4065ZM68.6868 24.5317L64.5108 26.9422V25.1628L68.6868 22.7523V24.5317ZM64.2973 27.0675L60.1213 29.478V27.6985L64.2973 25.2881V27.0675ZM59.9056 29.6009L55.7296 32.0137V30.2343L59.9056 27.8238V29.6009ZM55.5138 32.1367L51.3378 34.5472V32.7701L55.5138 30.3596V32.1367ZM51.122 34.6725L46.946 37.0829V35.3058L51.122 32.8953V34.6725ZM46.7303 37.2082L42.5543 39.6187V37.8416L46.7303 35.4311V37.2082ZM42.3385 39.744L38.1625 42.1544V40.3681L42.3385 37.9576V39.744ZM37.9468 42.2797L33.7708 44.6902V42.92L37.9468 40.5073V42.2797ZM33.548 44.8155L29.372 47.226V45.4465L33.548 43.0361V44.8155ZM33.548 45.0637V46.8432L29.372 49.2537V47.4742L33.548 45.0637ZM24.9826 52.04L29.1586 49.6295V51.4089L24.9826 53.8194V52.04ZM24.9826 54.0677L29.1586 51.6572V53.4366L24.9826 55.8471V54.0677ZM24.9826 56.0977L29.1586 53.6872V55.4666L24.9826 57.8771V56.0977ZM24.9826 58.1253L29.1586 55.7148V57.4943L24.9826 59.9048V58.1253ZM24.9826 60.1553L29.1586 57.7448V59.5243L24.9826 61.9348V60.1553ZM24.9826 62.183L29.1586 59.7725V61.552L24.9826 63.9625V62.183ZM24.9826 64.213L29.1586 61.8025V63.582L24.9826 65.9925V64.213ZM24.9826 66.2407L29.1586 63.8302V65.6096L24.9826 68.0201V66.2407ZM24.9826 68.2707L29.1586 65.8602V67.6396L24.9826 70.0501V68.2707ZM24.9826 70.2984L29.1586 67.8879V69.6673L24.9826 72.0778V70.2984ZM24.9826 72.3284L29.1586 69.9179V71.688L24.9826 74.0985V72.3284ZM29.372 69.7926L33.548 67.3821V69.1616L29.372 71.572V69.7926ZM33.548 69.4098V71.1823L29.372 73.5951V71.8203L33.548 69.4098ZM33.7638 69.2845L37.9398 66.874V68.6488L33.7638 71.0593V69.2845ZM38.1556 66.7511L42.3316 64.3406V66.12L38.1556 68.5305V66.7511ZM42.5473 64.2153L46.7233 61.8048V63.568L42.5473 65.9785V64.2153ZM46.9391 61.6796L51.1151 59.2691V61.0416L46.9391 63.452V61.6796ZM51.3308 59.1438L55.5068 56.7333V58.5058L51.3308 60.9163V59.1438ZM55.7226 56.608L59.8986 54.1976V55.97L55.7226 58.3805V56.608ZM60.1144 54.0723L64.2904 51.6618V53.4343L60.1144 55.8448V54.0723ZM64.4968 51.5365L68.6728 49.126V50.8985L64.4968 53.309V51.5365ZM68.9048 49.0031L73.0808 46.5903V48.3628L68.9048 50.7733V49.0031ZM68.9048 48.7525V46.9731L73.0808 44.5626V46.3421L68.9048 48.7525ZM77.4703 41.7786L73.2943 44.1891V42.4097L77.4703 39.9992V41.7786ZM77.4703 39.7486L73.2943 42.1591V40.3797L77.4703 37.9715V39.7486ZM77.4703 37.7209L73.2896 40.1361V38.3566L77.4656 35.9461L77.4703 37.7209ZM77.4703 35.6909L73.2943 38.1014V36.322L77.4703 33.9115V35.6909ZM77.4703 33.6633L73.2943 36.0737V34.2943L77.4703 31.8838V33.6633ZM77.4703 31.6333L73.2943 34.0437V32.2643L77.4703 29.8538V31.6333ZM77.4703 29.6056L73.2896 32.0161V30.2366L77.4656 27.8261L77.4703 29.6056ZM77.4703 27.5756L73.2943 29.9861V28.2066L77.4703 25.7961V27.5756ZM77.4703 25.5479L73.2943 27.9584V26.1789L77.4703 23.7685V25.5479ZM77.4703 23.5179L73.2943 25.9284V24.1489L77.4703 21.7385V23.5179ZM77.4703 21.4902L73.2896 23.8961V22.1213L77.4656 19.7108L77.4703 21.4902ZM77.4703 19.4602L73.2943 21.8707V20.0936L77.4703 17.6831V19.4602ZM29.1563 45.5718V47.3512L24.9803 49.7594V47.9823L29.1563 45.5718ZM24.9803 74.356L29.1563 71.9456V73.718L24.9803 76.1285V74.356ZM73.2896 48.2398V46.4673L77.4656 44.0568V45.8293L73.2896 48.2398Z" fill="#E0E0E0"/>
<path d="M59.998 29.6612L77.572 19.5228V29.6682L59.998 39.8019V29.6612Z" fill="#FAFAFA"/>
<path d="M59.8809 40.0038V29.594L59.9389 29.5615L77.6869 19.3234V29.7355L59.8809 40.0038ZM60.1129 29.7286V39.6025L77.4549 29.601V19.7201L60.1129 29.7286Z" fill="#E0E0E0"/>
<path d="M60.8849 37.3521H60.857C60.8351 37.3437 60.8174 37.3272 60.8074 37.306C60.7975 37.2848 60.7961 37.2606 60.8037 37.2384L63.1793 30.7424C63.184 30.7307 63.1911 30.7202 63.2002 30.7114C63.2093 30.7027 63.2201 30.6961 63.232 30.6919C63.2438 30.6877 63.2565 30.6861 63.269 30.6872C63.2815 30.6884 63.2937 30.6921 63.3046 30.6983L65.8729 32.2481L68.4643 29.6079C68.48 29.5951 68.4997 29.5881 68.52 29.5881C68.5403 29.5881 68.5599 29.5951 68.5757 29.6079L71.1277 31.2853L73.7191 24.9006C73.7238 24.8896 73.7308 24.8796 73.7395 24.8713C73.7483 24.8631 73.7586 24.8567 73.7699 24.8525C73.7812 24.8484 73.7932 24.8466 73.8052 24.8473C73.8172 24.848 73.829 24.8512 73.8397 24.8566L76.4729 26.2068C76.483 26.212 76.4919 26.2191 76.4992 26.2277C76.5065 26.2364 76.5121 26.2463 76.5155 26.2571C76.519 26.2679 76.5203 26.2792 76.5193 26.2905C76.5184 26.3018 76.5152 26.3127 76.5101 26.3228C76.5049 26.3329 76.4978 26.3418 76.4891 26.3491C76.4805 26.3564 76.4705 26.3619 76.4597 26.3654C76.449 26.3688 76.4376 26.3701 76.4264 26.3692C76.4151 26.3682 76.4041 26.3651 76.3941 26.3599L73.8421 25.0538L71.2437 31.45C71.2387 31.4618 71.2312 31.4724 71.2215 31.4809C71.2119 31.4893 71.2004 31.4954 71.188 31.4987C71.1768 31.5044 71.1645 31.5074 71.152 31.5074C71.1395 31.5074 71.1272 31.5044 71.1161 31.4987L68.5409 29.8028L65.9517 32.4406C65.938 32.4544 65.9201 32.4633 65.9008 32.4658C65.8814 32.4683 65.8618 32.4643 65.845 32.4546L63.3093 30.9373L60.9707 37.3242C60.9601 37.336 60.9466 37.3447 60.9315 37.3496C60.9164 37.3545 60.9003 37.3554 60.8849 37.3521Z" fill="#455A64"/>
<path d="M63.2606 30.4802C63.1828 30.531 63.1182 30.5996 63.0723 30.6803C63.0263 30.7609 63.0002 30.8514 62.9961 30.9442C62.9961 31.1136 63.1144 31.1762 63.2606 31.0973C63.3382 31.0464 63.4027 30.9778 63.4486 30.8972C63.4946 30.8165 63.5208 30.7261 63.5251 30.6333C63.5251 30.464 63.4067 30.3921 63.2606 30.4802Z" fill="#EF233C"/>
<path d="M65.8895 32.0486C65.8121 32.0998 65.7478 32.1684 65.7019 32.249C65.656 32.3296 65.6296 32.4199 65.625 32.5126C65.625 32.6819 65.7433 32.7446 65.8895 32.6657C65.9669 32.6145 66.0311 32.5458 66.0771 32.4652C66.123 32.3846 66.1494 32.2944 66.154 32.2017C66.1586 32.0347 66.0403 31.9651 65.8895 32.0486Z" fill="#EF233C"/>
<path d="M68.5262 29.3596C68.4488 29.4108 68.3846 29.4795 68.3386 29.5601C68.2927 29.6407 68.2663 29.7309 68.2617 29.8236C68.2617 29.993 68.38 30.0556 68.5262 29.9767C68.6038 29.9258 68.6683 29.8572 68.7143 29.7766C68.7602 29.6959 68.7864 29.6055 68.7907 29.5127C68.7907 29.3457 68.6724 29.2761 68.5262 29.3596Z" fill="#EF233C"/>
<path d="M71.159 31.088C71.0812 31.1388 71.0167 31.2074 70.9707 31.2881C70.9247 31.3687 70.8986 31.4592 70.8945 31.552C70.8945 31.7214 71.0129 31.784 71.159 31.7051C71.2368 31.6544 71.3013 31.5858 71.3473 31.5051C71.3933 31.4244 71.4194 31.3339 71.4235 31.2411C71.4235 31.088 71.3052 31.0115 71.159 31.088Z" fill="#EF233C"/>
<path d="M73.7938 24.613C73.716 24.6638 73.6515 24.7323 73.6055 24.813C73.5595 24.8937 73.5334 24.9842 73.5293 25.077C73.5293 25.2463 73.6476 25.309 73.7938 25.2301C73.8714 25.1792 73.9359 25.1106 73.9818 25.0299C74.0278 24.9493 74.054 24.8589 74.0583 24.7661C74.0583 24.5921 73.9399 24.5271 73.7938 24.613Z" fill="#EF233C"/>
<path d="M76.4266 25.9632C76.3488 26.014 76.2843 26.0826 76.2383 26.1632C76.1923 26.2439 76.1662 26.3344 76.1621 26.4272C76.1621 26.5966 76.2804 26.6592 76.4266 26.5803C76.5044 26.5296 76.5689 26.461 76.6149 26.3803C76.6609 26.2996 76.687 26.2091 76.6911 26.1163C76.6911 25.947 76.5728 25.8774 76.4266 25.9632Z" fill="#EF233C"/>
<path d="M84.8815 56.884L80.209 59.5822L84.8815 62.2804L89.5539 59.5822L84.8815 56.884Z" fill="#455A64"/>
<path d="M89.5553 59.5775V70.3075L84.8828 73.0057V62.2826L89.5553 59.5775Z" fill="#37474F"/>
<path d="M84.8815 62.2826V73.0057L80.209 70.3075V59.5775L84.8815 62.2826Z" fill="#263238"/>
<path d="M78.735 65.0875L74.0625 67.7857L78.735 70.4838L83.4075 67.7857L78.735 65.0875Z" fill="#EF233C"/>
<path opacity="0.3" d="M78.735 65.0875L74.0625 67.7857L78.735 70.4838L83.4075 67.7857L78.735 65.0875Z" fill="white"/>
<path d="M83.4069 67.7788V73.8572L78.7344 76.5554V70.4839L83.4069 67.7788Z" fill="#EF233C"/>
<path d="M78.735 70.4839V76.5554L74.0625 73.8572V67.7811L78.735 70.4839Z" fill="#EF233C"/>
<path opacity="0.1" d="M78.735 70.4839V76.5554L74.0625 73.8572V67.7811L78.735 70.4839Z" fill="black"/>
<path d="M72.5865 66.113L67.9141 68.8112L72.5865 71.5094L77.259 68.8112L72.5865 66.113Z" fill="#EF233C"/>
<path opacity="0.88" d="M72.5865 66.113L67.9141 68.8112L72.5865 71.5094L77.259 68.8112L72.5865 66.113Z" fill="white"/>
<path d="M77.2584 68.8065V77.4068L72.5859 80.1049V71.5093L77.2584 68.8065Z" fill="#EF233C"/>
<path opacity="0.75" d="M77.2584 68.8065V77.4068L72.5859 80.1049V71.5093L77.2584 68.8065Z" fill="white"/>
<path d="M72.5865 71.5093V80.1049L67.9141 77.4068V68.8065L72.5865 71.5093Z" fill="#EF233C"/>
<path opacity="0.6" d="M72.5865 71.5093V80.1049L67.9141 77.4068V68.8065L72.5865 71.5093Z" fill="white"/>
<path d="M66.4381 75.226L61.7656 77.9241L66.4381 80.6223L71.1106 77.9241L66.4381 75.226Z" fill="#EF233C"/>
<path opacity="0.3" d="M66.4381 75.226L61.7656 77.9241L66.4381 80.6223L71.1106 77.9241L66.4381 75.226Z" fill="black"/>
<path d="M71.11 77.9171V80.9563L66.4375 83.6545V80.6222L71.11 77.9171Z" fill="#EF233C"/>
<path opacity="0.4" d="M71.11 77.9171V80.9563L66.4375 83.6545V80.6222L71.11 77.9171Z" fill="black"/>
<path d="M66.4381 80.6222V83.6545L61.7656 80.9563V77.9171L66.4381 80.6222Z" fill="#EF233C"/>
<path opacity="0.55" d="M66.4381 80.6222V83.6545L61.7656 80.9563V77.9171L66.4381 80.6222Z" fill="black"/>
<path d="M40.9833 94.0991V95.8693L39.2363 91.1203V89.3547L40.9833 94.0991Z" fill="#263238"/>
<path d="M40.9863 94.1014V95.8693L48.1922 93.3683V91.6005L40.9863 94.1014Z" fill="#37474F"/>
<path d="M39.2363 89.3525L40.9856 94.1015L48.1915 91.6006C46.2126 89.8745 42.772 89.0115 39.2363 89.3525Z" fill="#455A64"/>
<path d="M40.266 96.331L39.208 101.365C34.8395 100.938 31.682 98.7299 31.7191 96.2034V94.4819C31.7191 96.9875 34.8673 99.1753 39.2104 99.5975L39.9435 96.1384L40.266 96.331Z" fill="#EF233C"/>
<path opacity="0.4" d="M40.266 96.331L39.208 101.365C34.8395 100.938 31.682 98.7299 31.7191 96.2034V94.4819C31.7191 96.9875 34.8673 99.1753 39.2104 99.5975L39.9435 96.1384L40.266 96.331Z" fill="black"/>
<path d="M40.0156 99.6556V101.423C41.819 101.525 43.6249 101.275 45.3331 100.688C47.3932 99.9735 48.8479 98.832 49.4302 97.4934C49.601 97.1039 49.6925 96.6843 49.6993 96.2591C49.6993 96.0898 49.6993 94.431 49.6993 94.431C49.6993 94.431 49.2005 94.3915 48.6159 93.7698L47.2656 94.2338L41.0875 96.3775L40.0156 99.6556Z" fill="#EF233C"/>
<path opacity="0.6" d="M40.0156 99.6556V101.423C41.819 101.525 43.6249 101.275 45.3331 100.688C47.3932 99.9735 48.8479 98.832 49.4302 97.4934C49.601 97.1039 49.6925 96.6843 49.6993 96.2591C49.6993 96.0898 49.6993 94.431 49.6993 94.431C49.6993 94.431 49.2005 94.3915 48.6159 93.7698L47.2656 94.2338L41.0875 96.3775L40.0156 99.6556Z" fill="white"/>
<path d="M34.6387 92.4079L40.0072 95.5074V93.7395L34.6387 90.64V92.4079Z" fill="#EF233C"/>
<path opacity="0.1" d="M34.6387 92.4079L40.0072 95.5074V93.7395L34.6387 90.64V92.4079Z" fill="black"/>
<path d="M31.7843 93.844C31.1974 96.6071 34.501 99.1382 39.2083 99.5976L40.2778 94.5632L34.0649 90.9764C32.7564 91.7908 32.0163 92.7304 31.7843 93.844Z" fill="#EF233C"/>
<path opacity="0.3" d="M31.7843 93.844C31.1974 96.6071 34.501 99.1382 39.2083 99.5976L40.2778 94.5632L34.0649 90.9764C32.7564 91.7908 32.0163 92.7304 31.7843 93.844Z" fill="black"/>
<path d="M40.0458 99.5093L40.0156 99.6555C41.8184 99.76 43.6243 99.5134 45.3331 98.9293C47.3932 98.2148 48.8479 97.0733 49.4302 95.7347C49.9777 94.4657 49.6877 93.1525 48.6159 92.0227L47.2656 92.4867L41.0875 94.6304L40.0458 99.5093Z" fill="#EF233C"/>
<path opacity="0.75" d="M40.0458 99.5093L40.0156 99.6555C41.8184 99.76 43.6243 99.5134 45.3331 98.9293C47.3932 98.2148 48.8479 97.0733 49.4302 95.7347C49.9777 94.4657 49.6877 93.1525 48.6159 92.0227L47.2656 92.4867L41.0875 94.6304L40.0458 99.5093Z" fill="white"/>
<path d="M34.6387 90.64L40.0072 93.7395L38.4296 89.4521C37.1043 89.6146 35.8197 90.0171 34.6387 90.64Z" fill="#EF233C"/>
<path d="M40.2672 96.3309V94.5631L39.1953 99.5975V101.365L40.2672 96.3309Z" fill="#EF233C"/>
<path opacity="0.55" d="M40.2672 96.3309V94.5631L39.1953 99.5975V101.365L40.2672 96.3309Z" fill="black"/>
<path d="M47.1146 86.7007L45.9453 87.3758L47.1146 88.0509L48.2839 87.3758L47.1146 86.7007Z" fill="#EF233C"/>
<path opacity="0.3" d="M47.1146 86.7007L45.9453 87.3758L47.1146 88.0509L48.2839 87.3758L47.1146 86.7007Z" fill="black"/>
<path d="M48.2845 87.3759V88.0533L47.1152 88.7284V88.051L48.2845 87.3759Z" fill="#EF233C"/>
<path opacity="0.4" d="M48.2845 87.3759V88.0533L47.1152 88.7284V88.051L48.2845 87.3759Z" fill="black"/>
<path d="M47.1146 88.051V88.7284L45.9453 88.0533V87.3759L47.1146 88.051Z" fill="#EF233C"/>
<path opacity="0.55" d="M47.1146 88.051V88.7284L45.9453 88.0533V87.3759L47.1146 88.051Z" fill="black"/>
<path d="M48.9006 86.1764L53.2344 83.6754C53.3736 83.6015 53.5284 83.5616 53.686 83.5588C53.8436 83.5559 53.9996 83.5903 54.1415 83.6592C54.3735 83.7984 54.3735 84.0327 54.1113 84.1835L49.7776 86.6844C49.6381 86.7578 49.4834 86.7974 49.3259 86.8002C49.1684 86.8031 49.0124 86.769 48.8704 86.7007C48.6292 86.5615 48.6408 86.3272 48.9006 86.1764Z" fill="#E0E0E0"/>
<path d="M49.7513 88.2227L48.582 88.8978L49.7513 89.5729L50.9206 88.8978L49.7513 88.2227Z" fill="#EF233C"/>
<path opacity="0.88" d="M49.7513 88.2227L48.582 88.8978L49.7513 89.5729L50.9206 88.8978L49.7513 88.2227Z" fill="white"/>
<path d="M50.9193 88.8954V89.5728L49.75 90.2479V89.5728L50.9193 88.8954Z" fill="#EF233C"/>
<path opacity="0.75" d="M50.9193 88.8954V89.5728L49.75 90.2479V89.5728L50.9193 88.8954Z" fill="white"/>
<path d="M49.7513 89.5728V90.2479L48.582 89.5728V88.8954L49.7513 89.5728Z" fill="#EF233C"/>
<path opacity="0.6" d="M49.7513 89.5728V90.2479L48.582 89.5728V88.8954L49.7513 89.5728Z" fill="white"/>
<path d="M51.5363 87.696L55.8677 85.195C56.0068 85.1208 56.1614 85.0805 56.3191 85.0772C56.4767 85.074 56.6328 85.108 56.7748 85.1765C57.0184 85.318 57.0068 85.5523 56.747 85.7008L52.4132 88.2064C52.2738 88.2797 52.1191 88.3194 51.9616 88.3222C51.8041 88.325 51.6481 88.2909 51.5061 88.2226C51.2718 88.0811 51.2718 87.8468 51.5363 87.696Z" fill="#E0E0E0"/>
<path d="M52.3841 89.7445L51.2148 90.4196L52.3864 91.0947L53.5557 90.4196L52.3841 89.7445Z" fill="#EF233C"/>
<path opacity="0.3" d="M52.3841 89.7445L51.2148 90.4196L52.3864 91.0947L53.5557 90.4196L52.3841 89.7445Z" fill="white"/>
<path d="M53.556 90.4174V91.0948L52.3867 91.7699V91.0948L53.556 90.4174Z" fill="#EF233C"/>
<path d="M52.3864 91.0948V91.7699L51.2148 91.0948V90.4174L52.3864 91.0948Z" fill="#EF233C"/>
<path opacity="0.1" d="M52.3864 91.0948V91.7699L51.2148 91.0948V90.4174L52.3864 91.0948Z" fill="black"/>
<path d="M54.1709 89.2202L58.5047 86.7169C58.6441 86.6436 58.7988 86.6039 58.9563 86.6011C59.1138 86.5983 59.2698 86.6324 59.4118 86.7007C59.6554 86.8422 59.6438 87.0765 59.384 87.225L55.0502 89.726C54.9111 89.8002 54.7565 89.8405 54.5989 89.8438C54.4412 89.847 54.2851 89.813 54.1431 89.7445C53.8995 89.603 53.9134 89.3687 54.1709 89.2202Z" fill="#E0E0E0"/>
<path d="M55.0189 91.2642L53.8496 91.9393L55.0189 92.6144L56.1882 91.9393L55.0189 91.2642Z" fill="#455A64"/>
<path d="M56.1888 91.9392V92.6166L55.0195 93.2918V92.6143L56.1888 91.9392Z" fill="#37474F"/>
<path d="M55.0189 92.6143V93.2918L53.8496 92.6166V91.9392L55.0189 92.6143Z" fill="#263238"/>
<path d="M56.8057 90.7422L61.1394 88.2389C61.2789 88.1656 61.4336 88.1259 61.5911 88.1231C61.7486 88.1203 61.9046 88.1544 62.0466 88.2226C62.2902 88.3618 62.2786 88.5962 62.0164 88.747L57.685 91.2479C57.5457 91.3218 57.391 91.3618 57.2333 91.3646C57.0757 91.3674 56.9197 91.333 56.7778 91.2642C56.5342 91.125 56.5482 90.8907 56.8057 90.7422Z" fill="#E0E0E0"/>
<path d="M91.6934 54.6313C93.3011 54.6313 94.0644 55.0953 94.6444 56.6219C95.2244 58.1485 96.7579 61.6911 96.7881 62.7397C96.8206 63.8278 93.3081 67.1269 93.4426 67.0712C93.4798 67.0526 92.3731 65.0714 92.3731 65.0714L94.3451 62.6562L93.2153 59.3781L91.6934 54.6313Z" fill="#FFA8A7"/>
<path d="M93.6839 90.6771C93.7837 90.7723 93.8022 90.8627 93.7976 91.2061C93.7929 91.5495 93.9391 91.9323 93.7628 92.2524C93.6329 92.4844 92.9601 92.6561 92.619 92.4844C92.3218 92.2898 92.0558 92.0512 91.8302 91.7768C91.6182 91.5349 91.3853 91.3121 91.1342 91.111C90.8442 90.8952 90.5078 90.7514 90.2062 90.5542C89.9698 90.4011 89.7713 90.1962 89.6258 89.955C89.4803 89.7139 89.3916 89.4427 89.3664 89.1622C89.3469 88.9791 89.3841 88.7944 89.4731 88.6332C89.5453 88.5467 89.6403 88.4822 89.7473 88.4469C89.8544 88.4117 89.9691 88.4071 90.0786 88.4337C90.4057 88.4871 91.5147 89.1065 91.7699 89.2828C92.104 89.5009 93.5818 90.5797 93.6839 90.6771Z" fill="#263238"/>
<path d="M92.0558 89.2573C92.0442 89.5032 91.0071 88.9279 90.5826 88.9836H90.571C90.1743 89.1738 90.5037 89.7283 90.8703 90.0113C91.2368 90.2944 92.4386 91.1713 92.4386 91.1713L92.6845 89.7492L92.0558 89.2573Z" fill="#FFA8A7"/>
<path d="M87.5555 93.2639C87.7481 93.2639 87.8339 93.895 87.8711 94.3798C87.8966 94.7557 88.0404 95.3705 87.9059 95.6466C87.7713 95.9226 87.2679 96.0943 86.486 96.0781C85.9779 96.0781 85.1845 96.4006 84.6416 96.6952C84.0951 96.9583 83.4776 97.0357 82.8831 96.9156C82.1871 96.8251 81.4725 96.4122 81.3635 96.1245C81.2544 95.8368 81.4029 95.6976 83.0501 95.0202C83.0663 95.0202 84.7901 94.2615 85.6021 93.3962L87.5555 93.2639Z" fill="#263238"/>
<path d="M83.0567 95.0202C82.8247 95.113 82.6322 95.1966 82.4582 95.2708C82.4141 95.4262 82.4744 95.6745 83.2029 95.7951C84.3118 95.9807 87.5737 93.5238 87.5737 93.5238C87.5737 93.5238 87.1097 93.6538 87.0193 93.387H85.6017C84.7897 94.2616 83.0567 95.0133 83.0567 95.0202Z" fill="#FFA8A7"/>
<path d="M94.345 82.6082C94.3622 81.5269 94.2548 80.4471 94.0248 79.3904C94.0248 79.3904 94.2197 75.2468 94.2406 72.6438C94.2847 67.4934 94.1872 66.7371 93.0481 64.5238C93.0481 64.5238 86.3967 63.7466 86.116 66.9876C85.768 71.0244 85.362 77.778 85.3712 79.7012C85.3712 81.1327 85.5429 82.6848 85.6218 85.9304C85.6728 88.0184 85.8909 90.9463 85.594 93.4055C85.9698 94.0365 86.986 94.0249 87.566 93.5331C87.733 91.1249 88.9301 86.5128 89.1157 84.905C89.2163 83.7436 89.168 82.5741 88.9719 81.425C88.9719 81.425 89.8535 74.5485 90.0089 73.5022C90.2346 74.6087 90.3634 75.7327 90.394 76.8616C90.394 77.3256 90.5518 78.8498 90.814 81.425C90.974 82.9933 92.083 89.1228 92.3243 91.0924C92.8811 91.6307 93.6003 91.2595 93.6328 91.0275C93.8184 88.624 94.345 84.1092 94.345 82.6082Z" fill="#FFA8A7"/>
<path opacity="0.15" d="M90.0156 73.4952L90.6026 70.1568C91.6038 70.0021 92.5252 69.5189 93.2219 68.7833C93.2219 68.7833 92.8692 70.1173 91.1339 70.572L90.4379 73.588L90.3219 76.3419L90.0156 73.4952Z" fill="black"/>
<path d="M88.3418 53.5108L88.6179 56.536L91.2766 56.376L91.0724 53.0189L88.3418 53.5108Z" fill="#FFA8A7"/>
<path d="M93.6764 65.3288C93.3716 64.5238 92.9828 63.7532 92.5164 63.0297C93.6532 59.3688 94.0174 58.1368 93.797 56.5708C93.6555 55.5756 92.8691 54.5803 91.9039 54.6336H91.1755C91.1337 55.3296 89.2058 55.3598 88.475 54.8819L87.7999 54.9004C87.3243 55.0698 85.7119 57.4524 85.5263 59.0184C85.3801 60.2968 86.3847 61.4057 86.3847 61.4057C86.3883 61.9485 86.3565 62.491 86.2895 63.0297C86.2895 63.0297 86.2895 66.1269 86.2895 67.6697C86.2895 67.6697 86.6631 68.8576 90.5653 68.4864C94.0453 68.1569 94.1195 66.9714 94.1195 66.9714C94.0364 66.4085 93.8876 65.8572 93.6764 65.3288Z" fill="#EF233C"/>
<g opacity="0.3">
<path d="M93.6764 65.3288C93.3716 64.5238 92.9828 63.7532 92.5164 63.0297C93.6532 59.3688 94.0174 58.1368 93.797 56.5708C93.6555 55.5756 92.8691 54.5803 91.9039 54.6336H91.1755C91.1337 55.3296 89.2058 55.3598 88.475 54.8819L87.7999 54.9004C87.3243 55.0698 85.7119 57.4524 85.5263 59.0184C85.3801 60.2968 86.3847 61.4057 86.3847 61.4057C86.3883 61.9485 86.3565 62.491 86.2895 63.0297C86.2895 63.0297 86.2895 66.1269 86.2895 67.6697C86.2895 67.6697 86.6631 68.8576 90.5653 68.4864C94.0453 68.1569 94.1195 66.9714 94.1195 66.9714C94.0364 66.4085 93.8876 65.8572 93.6764 65.3288Z" fill="black"/>
</g>
<path d="M88.7436 46.4302C88.3515 46.3787 87.9526 46.4222 87.5808 46.5571C87.2089 46.6919 86.8749 46.9142 86.6069 47.2051C85.2474 48.7363 86.7392 49.8638 86.7392 49.8638L88.7436 46.4302Z" fill="#263238"/>
<path d="M86.3793 50.1838C86.3793 50.1838 85.7877 51.0724 85.8643 51.1675C86.0016 51.2586 86.154 51.3246 86.3143 51.3624L86.3793 50.1838Z" fill="#F28F8F"/>
<path d="M88.1827 47.3698C87.6097 47.6644 86.619 48.2073 86.3592 50.3139C86.0924 52.4784 86.5726 53.2301 86.8673 53.5155C87.0645 53.708 88.0922 53.7799 88.6281 53.6152C89.3009 53.4087 90.7556 52.6872 91.4377 51.5783C92.2427 50.2675 92.4144 48.5159 91.491 47.8268C90.1918 46.864 88.6676 47.1215 88.1827 47.3698Z" fill="#FFA8A7"/>
<path d="M87.8989 49.8591C86.6995 49.2489 87.0057 47.6574 87.0057 47.6574C87.0057 47.6574 88.7179 45.2098 91.8777 46.7921C92.9704 47.3396 93.627 48.5831 93.6015 50.0401C93.6015 50.9495 93.2402 51.8216 92.5971 52.4647C91.9541 53.1078 91.0819 53.469 90.1725 53.469C89.6421 53.469 89.1334 53.2583 88.7584 52.8833C88.3834 52.5082 88.1727 51.9996 88.1727 51.4692V51.3369L88.2747 51.3694C88.4379 51.408 88.6081 51.4055 88.77 51.3622C88.932 51.3189 89.0806 51.2361 89.2027 51.1212C89.7294 50.6572 89.792 49.7779 89.1262 49.5552C88.4603 49.3325 88.1147 50.112 88.1147 50.112L87.8571 50.808C87.795 50.7854 87.7379 50.7509 87.6891 50.7063C87.6403 50.6616 87.6008 50.6079 87.5728 50.548C87.5447 50.4881 87.5288 50.4233 87.5259 50.3572C87.5229 50.2912 87.533 50.2252 87.5555 50.163C87.5836 50.0882 87.6296 50.0213 87.6894 49.9684C87.7493 49.9154 87.8212 49.8779 87.8989 49.8591Z" fill="#263238"/>
<path d="M80.6479 50.3463L74.9453 53.2022L77.6272 60.9302L82.9539 58.0626L80.6479 50.3463Z" fill="#EF233C"/>
<path d="M80.3776 51.0934L75.5938 53.4899L77.9694 60.1367L82.4377 57.7309L80.3776 51.0934Z" fill="#F5F5F5"/>
<path opacity="0.15" d="M79.365 51.7894L79.2769 51.5574C79.2281 51.4275 78.8314 51.4994 78.3906 51.7175L77.5485 52.1328C77.11 52.3508 76.7921 52.6339 76.8409 52.7661L76.929 52.9981L79.365 51.7894Z" fill="black"/>
<path d="M79.2886 50.8497C79.2584 50.7662 79.0867 50.7778 78.9034 50.8729L78.574 51.0423C78.574 51.0423 78.3814 50.5319 77.6228 50.8706C76.8642 51.2093 77.0266 51.7986 77.0266 51.7986L76.6762 51.9842C76.4837 52.0863 76.3445 52.2371 76.3654 52.3183L76.4048 52.4691L79.3442 51.0005L79.2886 50.8497Z" fill="#37474F"/>
<path d="M78.9681 51.1839C78.6943 51.3138 78.5876 51.3764 78.6619 51.5783C78.7361 51.7801 78.8266 51.9727 78.8266 51.9727L77.5274 52.6246C77.5274 52.6246 77.4253 52.3323 77.3789 52.2209C77.3325 52.1095 77.242 52.0515 77.0355 52.1559L76.959 52.0724L79.0099 51.0725L78.9681 51.1839Z" fill="#263238"/>
<path d="M79.4194 51.8033L79.3335 51.5713C79.2848 51.4414 78.8881 51.511 78.4473 51.7291L77.6051 52.1467C77.1643 52.3648 76.8488 52.6478 76.8975 52.7777L76.9834 53.0097L79.4194 51.8033Z" fill="#37474F"/>
<path d="M87.7947 54.9005C86.8968 54.8866 86.354 54.9654 85.129 56.7843C83.904 58.6032 81.6304 61.944 81.366 62.3871C80.9948 62.9903 80.902 63.916 81.2128 64.4751C81.4936 65.0018 81.99 65.185 83.4029 63.684C84.4469 62.5727 86.6509 59.6217 86.6509 59.6217C86.6509 59.6217 88.3561 56.441 87.7947 54.9005Z" fill="#FFA8A7"/>
<path d="M81.7688 64.8625C81.0287 65.0945 78.312 61.8604 77.558 60.8884C76.9513 60.0785 76.238 59.3543 75.4375 58.7354C74.3912 57.935 74.5652 56.7356 75.0454 55.6428C75.2124 55.2624 75.7414 55.5199 75.7414 55.5199L75.9247 56.0465L76.2402 56.9583C76.4606 57.1694 76.5882 57.239 76.6021 57.1764C76.6323 57.0604 76.449 56.5708 76.4606 56.0628C76.4768 55.4526 76.8991 55.8609 77.022 56.0767C77.1912 56.4052 77.3362 56.7456 77.4559 57.0952C77.66 57.645 77.5626 58.1948 77.8178 58.573C78.073 58.9512 81.7618 62.0136 81.7618 62.0136L81.7688 64.8625Z" fill="#FFA8A7"/>
<path d="M92.5266 63.0298C92.5266 63.0298 89.9259 64.5656 86.2835 63.0298C85.9587 64.9404 85.738 66.8673 85.6223 68.8019C85.4924 71.2658 85.207 76.5531 85.207 76.5531C85.207 76.5531 86.2812 77.8082 90.1185 77.553C93.8073 77.321 94.4569 76.3466 94.4569 76.3466C94.4569 76.3466 94.4569 71.5975 94.4847 69.5211C94.5102 66.8671 94.139 65.424 92.5266 63.0298Z" fill="#EF233C"/>
<path opacity="0.5" d="M92.5266 63.0298C92.5266 63.0298 89.9259 64.5656 86.2835 63.0298C85.9587 64.9404 85.738 66.8673 85.6223 68.8019C85.4924 71.2658 85.207 76.5531 85.207 76.5531C85.207 76.5531 86.2812 77.8082 90.1185 77.553C93.8073 77.321 94.4569 76.3466 94.4569 76.3466C94.4569 76.3466 94.4569 71.5975 94.4847 69.5211C94.5102 66.8671 94.139 65.424 92.5266 63.0298Z" fill="black"/>
<path d="M93.7274 49.0192L94.3376 48.4624C94.2557 48.3742 94.1463 48.3163 94.0274 48.2981C93.9084 48.2799 93.7867 48.3025 93.6822 48.3622C93.5776 48.4218 93.4963 48.5151 93.4515 48.6268C93.4066 48.7385 93.4009 48.8621 93.4351 48.9775C93.3609 48.9775 93.2843 48.9659 93.2031 48.9659V53.8564C93.2031 54.5313 93.4704 55.1786 93.9465 55.6569C94.4226 56.1351 95.0687 56.4054 95.7435 56.4084V51.504C95.7412 50.922 95.5399 50.3583 95.1733 49.9064C94.8066 49.4545 94.2964 49.1414 93.7274 49.0192Z" fill="#263238"/>
</svg>
