<svg width="116" height="116" viewBox="0 0 116 116" fill="none" xmlns="http://www.w3.org/2000/svg">
<path d="M104.377 92.4497H96.6934V92.5077H104.377V92.4497Z" fill="#EBEBEB"/>
<path d="M76.8423 93.0808H74.8262V93.1388H76.8423V93.0808Z" fill="#EBEBEB"/>
<path d="M96.4618 90.2966H92.0098V90.3546H96.4618V90.2966Z" fill="#EBEBEB"/>
<path d="M22.19 90.6865H12.1699V90.7445H22.19V90.6865Z" fill="#EBEBEB"/>
<path d="M25.7264 90.6865H24.2578V90.7445H25.7264V90.6865Z" fill="#EBEBEB"/>
<path d="M52.2357 91.6655H30.502V91.7235H52.2357V91.6655Z" fill="#EBEBEB"/>
<path d="M55.3095 78.3696H10.5103C10.1589 78.3696 9.82198 78.23 9.57355 77.9816C9.32512 77.7332 9.18555 77.3962 9.18555 77.0449V14.0731C9.18861 13.7238 9.32952 13.3898 9.57763 13.1439C9.82573 12.898 10.1609 12.76 10.5103 12.76H55.3095C55.4834 12.76 55.6557 12.7943 55.8164 12.8608C55.9771 12.9274 56.1232 13.025 56.2462 13.148C56.3692 13.271 56.4668 13.4171 56.5334 13.5778C56.5999 13.7385 56.6342 13.9108 56.6342 14.0847V77.0449C56.6342 77.2188 56.5999 77.3911 56.5334 77.5518C56.4668 77.7126 56.3692 77.8586 56.2462 77.9816C56.1232 78.1046 55.9771 78.2022 55.8164 78.2688C55.6557 78.3353 55.4834 78.3696 55.3095 78.3696ZM10.5103 12.8064C10.1745 12.807 9.85266 12.9407 9.61524 13.1781C9.37781 13.4155 9.24416 13.7374 9.24355 14.0731V77.0449C9.24416 77.3807 9.37781 77.7025 9.61524 77.9399C9.85266 78.1773 10.1745 78.311 10.5103 78.3116H55.3095C55.6452 78.311 55.9671 78.1773 56.2045 77.9399C56.4419 77.7025 56.5756 77.3807 56.5762 77.0449V14.0731C56.5756 13.7374 56.4419 13.4155 56.2045 13.1781C55.9671 12.9407 55.6452 12.807 55.3095 12.8064H10.5103Z" fill="#EBEBEB"/>
<path d="M105.491 78.3696H60.6919C60.3406 78.3696 60.0036 78.23 59.7552 77.9816C59.5068 77.7332 59.3672 77.3962 59.3672 77.0449V14.0731C59.3702 13.7238 59.5112 13.3898 59.7593 13.1439C60.0074 12.898 60.3426 12.76 60.6919 12.76H105.491C105.842 12.76 106.179 12.8996 106.428 13.148C106.676 13.3964 106.816 13.7334 106.816 14.0847V77.0449C106.816 77.3962 106.676 77.7332 106.428 77.9816C106.179 78.23 105.842 78.3696 105.491 78.3696ZM60.6919 12.8064C60.3561 12.807 60.0343 12.9407 59.7969 13.1781C59.5595 13.4155 59.4258 13.7374 59.4252 14.0731V77.0449C59.4258 77.3807 59.5595 77.7025 59.7969 77.9399C60.0343 78.1773 60.3561 78.311 60.6919 78.3116H105.491C105.827 78.311 106.149 78.1773 106.386 77.9399C106.624 77.7025 106.757 77.3807 106.758 77.0449V14.0731C106.757 13.7374 106.624 13.4155 106.386 13.1781C106.149 12.9407 105.827 12.807 105.491 12.8064H60.6919Z" fill="#EBEBEB"/>
<path d="M116 88.7168H0V88.7748H116V88.7168Z" fill="#EBEBEB"/>
<path d="M49.3192 26.0235C49.0753 26.0196 48.8379 26.1018 48.6487 26.2555C48.687 26.0454 48.687 25.83 48.6487 25.6199C48.5461 25.1205 48.2789 24.67 47.8897 24.3406C47.5006 24.0112 47.0122 23.822 46.5027 23.8033C46.2162 23.7997 45.9341 23.8734 45.686 24.0167C45.4975 23.6707 45.2221 23.3798 44.8868 23.1727C44.5516 22.9657 44.1682 22.8496 43.7744 22.8359C43.547 22.8279 43.3208 22.8726 43.1135 22.9663C42.9062 23.0601 42.7234 23.2005 42.5793 23.3765C42.4351 23.5525 42.3336 23.7595 42.2825 23.9812C42.2314 24.2029 42.2323 24.4334 42.2849 24.6547C42.3007 24.7331 42.3208 24.8106 42.3452 24.8867C42.1855 24.8442 42.021 24.8224 41.8557 24.8218C41.6283 24.8138 41.4022 24.8585 41.1949 24.9522C40.9876 25.046 40.8048 25.1864 40.6606 25.3624C40.5165 25.5384 40.4149 25.7454 40.3639 25.9671C40.3128 26.1888 40.3136 26.4193 40.3663 26.6407C40.4685 27.1402 40.7356 27.591 41.1248 27.9204C41.514 28.2499 42.0027 28.439 42.5123 28.4572H49.7576C49.9103 28.4627 50.0623 28.4329 50.2016 28.3701C50.3409 28.3073 50.4638 28.2132 50.5608 28.0951C50.6578 27.977 50.7262 27.8382 50.7607 27.6893C50.7953 27.5404 50.795 27.3856 50.7599 27.2369C50.6897 26.9029 50.5097 26.6019 50.2486 26.382C49.9875 26.1621 49.6603 26.0359 49.3192 26.0235Z" fill="#F5F5F5"/>
<path d="M37.4139 27.5222C36.9711 27.5142 36.5397 27.663 36.1959 27.9421C36.2688 27.5589 36.2688 27.1653 36.1959 26.7821C35.8665 24.9586 34.1242 23.4807 32.3006 23.4807C31.7814 23.4749 31.2702 23.6087 30.8205 23.8682C30.1245 22.6177 28.7626 21.7268 27.3405 21.7268C25.517 21.7268 24.3059 23.2046 24.6354 25.0282C24.6632 25.1765 24.7004 25.323 24.7467 25.4666C24.4567 25.3901 24.1581 25.3504 23.8582 25.3483C22.0346 25.3483 20.8259 26.8262 21.153 28.6474C21.4802 30.4686 23.2271 31.9487 25.0483 31.9487H38.2027C39.4277 31.9487 40.2397 30.9558 40.0193 29.7308C39.892 29.1256 39.5669 28.5799 39.0951 28.18C38.6233 27.7801 38.0318 27.5486 37.4139 27.5222Z" fill="#F5F5F5"/>
<path d="M90.57 28.2739C90.1269 28.2664 89.6955 28.416 89.352 28.6961C89.4247 28.3129 89.4247 27.9194 89.352 27.5361C89.0249 25.7149 87.2803 24.2371 85.4568 24.2371C84.9383 24.2314 84.4279 24.3652 83.9789 24.6245C83.2829 23.374 81.9188 22.4832 80.4989 22.4832C78.6754 22.4832 77.4644 23.961 77.7938 25.7822C77.8224 25.9311 77.8596 26.0783 77.9052 26.223C77.6154 26.1446 77.3167 26.1041 77.0166 26.1024C75.1954 26.1024 73.9844 27.5802 74.3138 29.4037C74.6432 31.2272 76.3948 32.712 78.2184 32.712H91.3704C92.5954 32.712 93.4074 31.7191 93.187 30.4964C93.062 29.8868 92.7363 29.3366 92.2619 28.9337C91.7876 28.5308 91.1919 28.2985 90.57 28.2739Z" fill="#F5F5F5"/>
<path d="M97.6721 25.3392C97.4871 25.3354 97.3069 25.3979 97.164 25.5155C97.1942 25.3568 97.1942 25.1939 97.164 25.0352C97.0871 24.6569 96.8851 24.3154 96.5905 24.0658C96.2959 23.8162 95.9259 23.6731 95.54 23.6595C95.3233 23.6563 95.1099 23.7125 94.9229 23.8219C94.7802 23.5604 94.5719 23.3405 94.3185 23.1839C94.065 23.0273 93.7752 22.9394 93.4775 22.9287C93.3055 22.9226 93.1344 22.9563 92.9775 23.0272C92.8206 23.0981 92.6823 23.2043 92.5731 23.3374C92.464 23.4705 92.3871 23.6271 92.3484 23.7948C92.3097 23.9625 92.3103 24.1369 92.35 24.3044C92.3619 24.3664 92.3774 24.4276 92.3964 24.4877C92.2762 24.4545 92.1522 24.4374 92.0275 24.4367C91.8554 24.4301 91.684 24.4635 91.5269 24.5343C91.3698 24.605 91.2312 24.7112 91.122 24.8444C91.0128 24.9777 90.9359 25.1344 90.8974 25.3024C90.8589 25.4703 90.8598 25.6449 90.9 25.8124C90.9773 26.1904 91.1796 26.5313 91.4741 26.7804C91.7687 27.0296 92.1385 27.1724 92.524 27.1859H98.0038C98.1197 27.1898 98.2349 27.167 98.3404 27.119C98.446 27.0711 98.539 26.9994 98.6122 26.9095C98.6855 26.8197 98.7369 26.7141 98.7626 26.601C98.7883 26.488 98.7874 26.3705 98.7602 26.2579C98.7067 26.0056 98.5708 25.7783 98.3737 25.6119C98.1767 25.4455 97.9298 25.3496 97.6721 25.3392Z" fill="#F0F0F0"/>
<path d="M63.9373 36.4774V34.2363H59.4086V36.4774H51.8965V89.2018H65.0323V36.4774H63.9373Z" fill="#F0F0F0"/>
<path d="M58.0782 39.3079H56.1387V41.2474H58.0782V39.3079Z" fill="#FAFAFA"/>
<path d="M60.7891 39.3079H58.8496V41.2474H60.7891V39.3079Z" fill="#FAFAFA"/>
<path d="M55.3692 42.2334H53.4297V44.1729H55.3692V42.2334Z" fill="#FAFAFA"/>
<path d="M58.0782 42.2334H56.1387V44.1729H58.0782V42.2334Z" fill="#FAFAFA"/>
<path d="M63.4981 42.2334H61.5586V44.1729H63.4981V42.2334Z" fill="#FAFAFA"/>
<path d="M55.3692 45.1611H53.4297V47.1007H55.3692V45.1611Z" fill="#FAFAFA"/>
<path d="M60.7891 45.1611H58.8496V47.1007H60.7891V45.1611Z" fill="#FAFAFA"/>
<path d="M63.4981 45.1611H61.5586V47.1007H63.4981V45.1611Z" fill="#FAFAFA"/>
<path d="M55.3692 51.0122H53.4297V52.9517H55.3692V51.0122Z" fill="#FAFAFA"/>
<path d="M60.7891 51.0122H58.8496V52.9517H60.7891V51.0122Z" fill="#FAFAFA"/>
<path d="M55.3692 53.9377H53.4297V55.8773H55.3692V53.9377Z" fill="#FAFAFA"/>
<path d="M58.0782 53.9377H56.1387V55.8773H58.0782V53.9377Z" fill="#FAFAFA"/>
<path d="M63.4981 53.9377H61.5586V55.8773H63.4981V53.9377Z" fill="#FAFAFA"/>
<path d="M55.3692 68.5491H53.4297V70.4886H55.3692V68.5491Z" fill="#FAFAFA"/>
<path d="M58.0782 68.5491H56.1387V70.4886H58.0782V68.5491Z" fill="#FAFAFA"/>
<path d="M63.4981 68.5491H61.5586V70.4886H63.4981V68.5491Z" fill="#FAFAFA"/>
<path d="M55.3692 71.4746H53.4297V73.4141H55.3692V71.4746Z" fill="#FAFAFA"/>
<path d="M60.7891 71.4746H58.8496V73.4141H60.7891V71.4746Z" fill="#FAFAFA"/>
<path d="M63.4981 71.4746H61.5586V73.4141H63.4981V71.4746Z" fill="#FAFAFA"/>
<path d="M55.3692 77.3279H53.4297V79.2674H55.3692V77.3279Z" fill="#FAFAFA"/>
<path d="M60.7891 77.3279H58.8496V79.2674H60.7891V77.3279Z" fill="#FAFAFA"/>
<path d="M55.3692 80.2534H53.4297V82.1929H55.3692V80.2534Z" fill="#FAFAFA"/>
<path d="M58.0782 80.2534H56.1387V82.1929H58.0782V80.2534Z" fill="#FAFAFA"/>
<path d="M63.4981 80.2534H61.5586V82.1929H63.4981V80.2534Z" fill="#FAFAFA"/>
<path d="M63.4981 56.8655H61.5586V58.805H63.4981V56.8655Z" fill="#FAFAFA"/>
<path d="M55.3692 59.791H53.4297V61.7305H55.3692V59.791Z" fill="#FAFAFA"/>
<path d="M58.0782 59.791H56.1387V61.7305H58.0782V59.791Z" fill="#FAFAFA"/>
<path d="M60.8026 62.7494L58.8633 62.7217L58.8355 64.661L60.7748 64.6888L60.8026 62.7494Z" fill="#FAFAFA"/>
<path d="M63.5116 62.7883L61.5723 62.7605L61.5445 64.6998L63.4838 64.7276L63.5116 62.7883Z" fill="#FAFAFA"/>
<path d="M55.3692 65.6421H53.4297V67.5816H55.3692V65.6421Z" fill="#FAFAFA"/>
<path d="M89.144 46.5253V44.7134H92.8073V46.5253H98.8904V89.2017H88.2578V46.5253H89.144Z" fill="#F0F0F0"/>
<path d="M93.8864 50.3882H95.457V48.8175H93.8864V50.3882Z" fill="#FAFAFA"/>
<path d="M91.6911 50.3882H93.2617V48.8175H91.6911V50.3882Z" fill="#FAFAFA"/>
<path d="M96.0778 52.7568H97.6484V51.1862H96.0778V52.7568Z" fill="#FAFAFA"/>
<path d="M93.8864 52.7568H95.457V51.1862H93.8864V52.7568Z" fill="#FAFAFA"/>
<path d="M89.4958 52.7568H91.0664V51.1862H89.4958V52.7568Z" fill="#FAFAFA"/>
<path d="M96.0778 55.1255H97.6484V53.5548H96.0778V55.1255Z" fill="#FAFAFA"/>
<path d="M91.6911 55.1255H93.2617V53.5548H91.6911V55.1255Z" fill="#FAFAFA"/>
<path d="M89.4958 55.1255H91.0664V53.5548H89.4958V55.1255Z" fill="#FAFAFA"/>
<path d="M96.0778 59.8606H97.6484V58.29H96.0778V59.8606Z" fill="#FAFAFA"/>
<path d="M91.6911 59.8606H93.2617V58.29H91.6911V59.8606Z" fill="#FAFAFA"/>
<path d="M96.0778 62.2317H97.6484V60.661H96.0778V62.2317Z" fill="#FAFAFA"/>
<path d="M93.8864 62.2317H95.457V60.661H93.8864V62.2317Z" fill="#FAFAFA"/>
<path d="M89.4958 62.2317H91.0664V60.661H89.4958V62.2317Z" fill="#FAFAFA"/>
<path d="M96.0778 74.0566H97.6484V72.486H96.0778V74.0566Z" fill="#FAFAFA"/>
<path d="M93.8864 74.0566H95.457V72.486H93.8864V74.0566Z" fill="#FAFAFA"/>
<path d="M89.4958 74.0566H91.0664V72.486H89.4958V74.0566Z" fill="#FAFAFA"/>
<path d="M96.0778 76.4231H97.6484V74.8525H96.0778V76.4231Z" fill="#FAFAFA"/>
<path d="M91.6911 76.4231H93.2617V74.8525H91.6911V76.4231Z" fill="#FAFAFA"/>
<path d="M89.4958 76.4231H91.0664V74.8525H89.4958V76.4231Z" fill="#FAFAFA"/>
<path d="M96.0778 81.1628H97.6484V79.5922H96.0778V81.1628Z" fill="#FAFAFA"/>
<path d="M91.6911 81.1628H93.2617V79.5922H91.6911V81.1628Z" fill="#FAFAFA"/>
<path d="M96.0778 83.5317H97.6484V81.9611H96.0778V83.5317Z" fill="#FAFAFA"/>
<path d="M93.8864 83.5317H95.457V81.9611H93.8864V83.5317Z" fill="#FAFAFA"/>
<path d="M89.4958 83.5317H91.0664V81.9611H89.4958V83.5317Z" fill="#FAFAFA"/>
<path d="M89.4958 64.6003H91.0664V63.0297H89.4958V64.6003Z" fill="#FAFAFA"/>
<path d="M96.0778 66.9668H97.6484V65.3962H96.0778V66.9668Z" fill="#FAFAFA"/>
<path d="M93.8864 66.9668H95.457V65.3962H93.8864V66.9668Z" fill="#FAFAFA"/>
<path d="M91.7049 69.3594L93.2754 69.3369L93.2529 67.7664L91.6824 67.7889L91.7049 69.3594Z" fill="#FAFAFA"/>
<path d="M89.5076 69.3953L91.0781 69.3728L91.0556 67.8023L89.4852 67.8248L89.5076 69.3953Z" fill="#FAFAFA"/>
<path d="M96.0778 71.7043H97.6484V70.1337H96.0778V71.7043Z" fill="#FAFAFA"/>
<path d="M67.0254 46.9546H70.6539H76.6743V89.2018H66.1484V46.9546H67.0254Z" fill="#EBEBEB"/>
<path d="M71.721 50.7778H73.2754V49.2234H71.721V50.7778Z" fill="#FAFAFA"/>
<path d="M69.5491 50.7778H71.1035V49.2234H69.5491V50.7778Z" fill="#FAFAFA"/>
<path d="M73.889 53.1233H75.4434V51.5689H73.889V53.1233Z" fill="#FAFAFA"/>
<path d="M71.721 53.1233H73.2754V51.5689H71.721V53.1233Z" fill="#FAFAFA"/>
<path d="M67.3772 53.1233H68.9316V51.5689H67.3772V53.1233Z" fill="#FAFAFA"/>
<path d="M73.889 55.4666H75.4434V53.9122H73.889V55.4666Z" fill="#FAFAFA"/>
<path d="M69.5491 55.4666H71.1035V53.9122H69.5491V55.4666Z" fill="#FAFAFA"/>
<path d="M67.3772 55.4666H68.9316V53.9122H67.3772V55.4666Z" fill="#FAFAFA"/>
<path d="M73.889 60.1577H75.4434V58.6033H73.889V60.1577Z" fill="#FAFAFA"/>
<path d="M69.5491 60.1577H71.1035V58.6033H69.5491V60.1577Z" fill="#FAFAFA"/>
<path d="M73.889 62.5007H75.4434V60.9463H73.889V62.5007Z" fill="#FAFAFA"/>
<path d="M71.721 62.5007H73.2754V60.9463H71.721V62.5007Z" fill="#FAFAFA"/>
<path d="M67.3772 62.5007H68.9316V60.9463H67.3772V62.5007Z" fill="#FAFAFA"/>
<path d="M73.889 74.2075H75.4434V72.6531H73.889V74.2075Z" fill="#FAFAFA"/>
<path d="M71.721 74.2075H73.2754V72.6531H71.721V74.2075Z" fill="#FAFAFA"/>
<path d="M67.3772 74.2075H68.9316V72.6531H67.3772V74.2075Z" fill="#FAFAFA"/>
<path d="M73.889 76.553H75.4434V74.9986H73.889V76.553Z" fill="#FAFAFA"/>
<path d="M69.5491 76.553H71.1035V74.9986H69.5491V76.553Z" fill="#FAFAFA"/>
<path d="M67.3772 76.553H68.9316V74.9986H67.3772V76.553Z" fill="#FAFAFA"/>
<path d="M73.889 81.2417H75.4434V79.6873H73.889V81.2417Z" fill="#FAFAFA"/>
<path d="M69.5491 81.2417H71.1035V79.6873H69.5491V81.2417Z" fill="#FAFAFA"/>
<path d="M73.889 83.585H75.4434V82.0306H73.889V83.585Z" fill="#FAFAFA"/>
<path d="M71.721 83.585H73.2754V82.0306H71.721V83.585Z" fill="#FAFAFA"/>
<path d="M67.3772 83.585H68.9316V82.0306H67.3772V83.585Z" fill="#FAFAFA"/>
<path d="M67.3772 64.8464H68.9316V63.292H67.3772V64.8464Z" fill="#FAFAFA"/>
<path d="M73.889 67.1895H75.4434V65.6351H73.889V67.1895Z" fill="#FAFAFA"/>
<path d="M71.721 67.1895H73.2754V65.6351H71.721V67.1895Z" fill="#FAFAFA"/>
<path d="M69.5629 69.562L71.1172 69.5398L71.0949 67.9856L69.5407 68.0078L69.5629 69.562Z" fill="#FAFAFA"/>
<path d="M67.3872 69.5913L68.9414 69.5691L68.9192 68.0148L67.3649 68.0371L67.3872 69.5913Z" fill="#FAFAFA"/>
<path d="M73.889 71.8806H75.4434V70.3262H73.889V71.8806Z" fill="#FAFAFA"/>
<path d="M18.4535 46.9546H22.0797H28.1024V89.2018H17.5742V46.9546H18.4535Z" fill="#F0F0F0"/>
<path d="M23.1468 50.7778H24.7012V49.2234H23.1468V50.7778Z" fill="#FAFAFA"/>
<path d="M20.9749 50.7778H22.5293V49.2234H20.9749V50.7778Z" fill="#FAFAFA"/>
<path d="M25.3167 53.1233H26.8711V51.5689H25.3167V53.1233Z" fill="#FAFAFA"/>
<path d="M23.1468 53.1233H24.7012V51.5689H23.1468V53.1233Z" fill="#FAFAFA"/>
<path d="M18.803 53.1233H20.3574V51.5689H18.803V53.1233Z" fill="#FAFAFA"/>
<path d="M25.3167 55.4666H26.8711V53.9122H25.3167V55.4666Z" fill="#FAFAFA"/>
<path d="M20.9749 55.4666H22.5293V53.9122H20.9749V55.4666Z" fill="#FAFAFA"/>
<path d="M18.803 55.4666H20.3574V53.9122H18.803V55.4666Z" fill="#FAFAFA"/>
<path d="M25.3167 60.1577H26.8711V58.6033H25.3167V60.1577Z" fill="#FAFAFA"/>
<path d="M20.9749 60.1577H22.5293V58.6033H20.9749V60.1577Z" fill="#FAFAFA"/>
<path d="M25.3167 62.5007H26.8711V60.9463H25.3167V62.5007Z" fill="#FAFAFA"/>
<path d="M23.1468 62.5007H24.7012V60.9463H23.1468V62.5007Z" fill="#FAFAFA"/>
<path d="M18.803 62.5007H20.3574V60.9463H18.803V62.5007Z" fill="#FAFAFA"/>
<path d="M25.3167 74.2075H26.8711V72.6531H25.3167V74.2075Z" fill="#FAFAFA"/>
<path d="M23.1468 74.2075H24.7012V72.6531H23.1468V74.2075Z" fill="#FAFAFA"/>
<path d="M18.803 74.2075H20.3574V72.6531H18.803V74.2075Z" fill="#FAFAFA"/>
<path d="M25.3167 76.553H26.8711V74.9986H25.3167V76.553Z" fill="#FAFAFA"/>
<path d="M20.9749 76.553H22.5293V74.9986H20.9749V76.553Z" fill="#FAFAFA"/>
<path d="M18.803 76.553H20.3574V74.9986H18.803V76.553Z" fill="#FAFAFA"/>
<path d="M25.3167 81.2417H26.8711V79.6873H25.3167V81.2417Z" fill="#FAFAFA"/>
<path d="M20.9749 81.2417H22.5293V79.6873H20.9749V81.2417Z" fill="#FAFAFA"/>
<path d="M25.3167 83.585H26.8711V82.0306H25.3167V83.585Z" fill="#FAFAFA"/>
<path d="M23.1468 83.585H24.7012V82.0306H23.1468V83.585Z" fill="#FAFAFA"/>
<path d="M18.803 83.585H20.3574V82.0306H18.803V83.585Z" fill="#FAFAFA"/>
<path d="M18.803 64.8464H20.3574V63.292H18.803V64.8464Z" fill="#FAFAFA"/>
<path d="M25.3167 67.1895H26.8711V65.6351H25.3167V67.1895Z" fill="#FAFAFA"/>
<path d="M23.1468 67.1895H24.7012V65.6351H23.1468V67.1895Z" fill="#FAFAFA"/>
<path d="M20.9887 69.5628L22.543 69.5405L22.5207 67.9863L20.9665 68.0085L20.9887 69.5628Z" fill="#FAFAFA"/>
<path d="M18.8149 69.5921L20.3691 69.5698L20.3469 68.0156L18.7927 68.0378L18.8149 69.5921Z" fill="#FAFAFA"/>
<path d="M25.3167 71.8806H26.8711V70.3262H25.3167V71.8806Z" fill="#FAFAFA"/>
<path d="M39.2168 89.2016H50.7797V40.2705L39.2168 41.5071V89.2016Z" fill="#F0F0F0"/>
<path d="M46.9964 45.4905H50.1562V42.3306H46.9964V45.4905Z" fill="#FAFAFA"/>
<path d="M43.4183 45.4905H46.5781V42.3306H43.4183V45.4905Z" fill="#F0F0F0"/>
<path d="M39.8382 45.4905H42.998V42.3306H39.8382V45.4905Z" fill="#FAFAFA"/>
<path d="M46.9964 49.0217H50.1562V45.8619H46.9964V49.0217Z" fill="#FAFAFA"/>
<path d="M43.4183 49.0217H46.5781V45.8619H43.4183V49.0217Z" fill="#FAFAFA"/>
<path d="M39.8382 49.0217H42.998V45.8619H39.8382V49.0217Z" fill="#FAFAFA"/>
<path d="M46.9964 52.5527H50.1562V49.3929H46.9964V52.5527Z" fill="#FAFAFA"/>
<path d="M43.4183 52.5527H46.5781V49.3929H43.4183V52.5527Z" fill="#F0F0F0"/>
<path d="M39.8382 52.5527H42.998V49.3929H39.8382V52.5527Z" fill="#FAFAFA"/>
<path d="M46.9964 56.0813H50.1562V52.9215H46.9964V56.0813Z" fill="#F0F0F0"/>
<path d="M43.4183 56.0813H46.5781V52.9215H43.4183V56.0813Z" fill="#FAFAFA"/>
<path d="M39.8382 56.0813H42.998V52.9215H39.8382V56.0813Z" fill="#FAFAFA"/>
<path d="M46.9964 59.6123H50.1562V56.4525H46.9964V59.6123Z" fill="#FAFAFA"/>
<path d="M43.4183 59.6123H46.5781V56.4525H43.4183V59.6123Z" fill="#FAFAFA"/>
<path d="M39.8382 59.6123H42.998V56.4525H39.8382V59.6123Z" fill="#F0F0F0"/>
<path d="M46.9964 63.1389H50.1562V59.9791H46.9964V63.1389Z" fill="#FAFAFA"/>
<path d="M43.4183 63.1389H46.5781V59.9791H43.4183V63.1389Z" fill="#F0F0F0"/>
<path d="M39.8382 63.1389H42.998V59.9791H39.8382V63.1389Z" fill="#FAFAFA"/>
<path d="M46.9964 66.6699H50.1562V63.5101H46.9964V66.6699Z" fill="#F0F0F0"/>
<path d="M43.4183 66.6699H46.5781V63.5101H43.4183V66.6699Z" fill="#F0F0F0"/>
<path d="M39.8382 66.6699H42.998V63.5101H39.8382V66.6699Z" fill="#FAFAFA"/>
<path d="M46.9964 70.2009H50.1562V67.0411H46.9964V70.2009Z" fill="#FAFAFA"/>
<path d="M43.4183 70.2009H46.5781V67.0411H43.4183V70.2009Z" fill="#F0F0F0"/>
<path d="M39.8382 70.2009H42.998V67.0411H39.8382V70.2009Z" fill="#FAFAFA"/>
<path d="M46.9964 73.7295H50.1562V70.5697H46.9964V73.7295Z" fill="#FAFAFA"/>
<path d="M43.4183 73.7295H46.5781V70.5697H43.4183V73.7295Z" fill="#FAFAFA"/>
<path d="M39.8382 73.7295H42.998V70.5697H39.8382V73.7295Z" fill="#FAFAFA"/>
<path d="M46.9964 77.2583H50.1562V74.0985H46.9964V77.2583Z" fill="#F0F0F0"/>
<path d="M43.4183 77.2583H46.5781V74.0985H43.4183V77.2583Z" fill="#FAFAFA"/>
<path d="M39.8382 77.2583H42.998V74.0985H39.8382V77.2583Z" fill="#F0F0F0"/>
<path d="M46.9964 80.7893H50.1562V77.6295H46.9964V80.7893Z" fill="#FAFAFA"/>
<path d="M43.4183 80.7893H46.5781V77.6295H43.4183V80.7893Z" fill="#F0F0F0"/>
<path d="M39.8382 80.7893H42.998V77.6295H39.8382V80.7893Z" fill="#FAFAFA"/>
<path d="M46.9964 84.3181H50.1562V81.1583H46.9964V84.3181Z" fill="#F0F0F0"/>
<path d="M43.4183 84.3181H46.5781V81.1583H43.4183V84.3181Z" fill="#FAFAFA"/>
<path d="M39.8382 84.3181H42.998V81.1583H39.8382V84.3181Z" fill="#FAFAFA"/>
<path d="M77.7891 89.2016H87.1479V49.5923L77.7891 50.5945V89.2016Z" fill="#F0F0F0"/>
<path d="M84.0856 53.8193H86.6445V51.2604H84.0856V53.8193Z" fill="#FAFAFA"/>
<path d="M81.1891 53.8193H83.748V51.2604H81.1891V53.8193Z" fill="#F0F0F0"/>
<path d="M78.2906 53.8193H80.8496V51.2604H78.2906V53.8193Z" fill="#FAFAFA"/>
<path d="M84.0856 56.6753H86.6445V54.1163H84.0856V56.6753Z" fill="#FAFAFA"/>
<path d="M81.1891 56.6753H83.748V54.1163H81.1891V56.6753Z" fill="#FAFAFA"/>
<path d="M78.2906 56.6753H80.8496V54.1163H78.2906V56.6753Z" fill="#FAFAFA"/>
<path d="M84.0856 59.5359H86.6445V56.9769H84.0856V59.5359Z" fill="#FAFAFA"/>
<path d="M81.1891 59.5359H83.748V56.9769H81.1891V59.5359Z" fill="#F0F0F0"/>
<path d="M78.2906 59.5359H80.8496V56.9769H78.2906V59.5359Z" fill="#FAFAFA"/>
<path d="M84.0856 62.3918H86.6445V59.8329H84.0856V62.3918Z" fill="#F0F0F0"/>
<path d="M81.1891 62.3918H83.748V59.8329H81.1891V62.3918Z" fill="#FAFAFA"/>
<path d="M78.2906 62.3918H80.8496V59.8329H78.2906V62.3918Z" fill="#FAFAFA"/>
<path d="M84.0856 65.2478H86.6445V62.6888H84.0856V65.2478Z" fill="#FAFAFA"/>
<path d="M81.1891 65.2478H83.748V62.6888H81.1891V65.2478Z" fill="#FAFAFA"/>
<path d="M78.2906 65.2478H80.8496V62.6888H78.2906V65.2478Z" fill="#F0F0F0"/>
<path d="M84.0856 68.106H86.6445V65.547H84.0856V68.106Z" fill="#FAFAFA"/>
<path d="M81.1891 68.106H83.748V65.547H81.1891V68.106Z" fill="#F0F0F0"/>
<path d="M78.2906 68.106H80.8496V65.547H78.2906V68.106Z" fill="#FAFAFA"/>
<path d="M84.0856 70.9619H86.6445V68.403H84.0856V70.9619Z" fill="#F0F0F0"/>
<path d="M81.1891 70.9619H83.748V68.403H81.1891V70.9619Z" fill="#F0F0F0"/>
<path d="M78.2906 70.9619H80.8496V68.403H78.2906V70.9619Z" fill="#FAFAFA"/>
<path d="M84.0856 73.8201H86.6445V71.2611H84.0856V73.8201Z" fill="#FAFAFA"/>
<path d="M81.1891 73.8201H83.748V71.2611H81.1891V73.8201Z" fill="#F0F0F0"/>
<path d="M78.2906 73.8201H80.8496V71.2611H78.2906V73.8201Z" fill="#FAFAFA"/>
<path d="M84.0856 76.676H86.6445V74.1171H84.0856V76.676Z" fill="#FAFAFA"/>
<path d="M81.1891 76.676H83.748V74.1171H81.1891V76.676Z" fill="#FAFAFA"/>
<path d="M78.2906 76.676H80.8496V74.1171H78.2906V76.676Z" fill="#FAFAFA"/>
<path d="M84.0856 79.5342H86.6445V76.9752H84.0856V79.5342Z" fill="#F0F0F0"/>
<path d="M81.1891 79.5342H83.748V76.9752H81.1891V79.5342Z" fill="#FAFAFA"/>
<path d="M78.2906 79.5342H80.8496V76.9752H78.2906V79.5342Z" fill="#F0F0F0"/>
<path d="M84.0856 82.3901H86.6445V79.8312H84.0856V82.3901Z" fill="#FAFAFA"/>
<path d="M81.1891 82.3901H83.748V79.8312H81.1891V82.3901Z" fill="#F0F0F0"/>
<path d="M78.2906 82.3901H80.8496V79.8312H78.2906V82.3901Z" fill="#FAFAFA"/>
<path d="M84.0856 85.2483H86.6445V82.6893H84.0856V85.2483Z" fill="#F0F0F0"/>
<path d="M81.1891 85.2483H83.748V82.6893H81.1891V85.2483Z" fill="#FAFAFA"/>
<path d="M78.2906 85.2483H80.8496V82.6893H78.2906V85.2483Z" fill="#FAFAFA"/>
<path d="M28.8516 89.2944H38.2128V49.6851L28.8516 50.6873V89.2944Z" fill="#F5F5F5"/>
<path d="M35.1481 53.9121H37.707V51.3531H35.1481V53.9121Z" fill="#FAFAFA"/>
<path d="M32.2535 53.9121H34.8125V51.3531H32.2535V53.9121Z" fill="#F0F0F0"/>
<path d="M29.3551 53.9121H31.9141V51.3531H29.3551V53.9121Z" fill="#FAFAFA"/>
<path d="M35.1481 56.7681H37.707V54.2091H35.1481V56.7681Z" fill="#FAFAFA"/>
<path d="M32.2535 56.7681H34.8125V54.2091H32.2535V56.7681Z" fill="#FAFAFA"/>
<path d="M29.3551 56.7681H31.9141V54.2091H29.3551V56.7681Z" fill="#FAFAFA"/>
<path d="M35.1481 59.6262H37.707V57.0673H35.1481V59.6262Z" fill="#FAFAFA"/>
<path d="M32.2535 59.6262H34.8125V57.0673H32.2535V59.6262Z" fill="#F0F0F0"/>
<path d="M29.3551 59.6262H31.9141V57.0673H29.3551V59.6262Z" fill="#FAFAFA"/>
<path d="M35.1481 62.4846H37.707V59.9257H35.1481V62.4846Z" fill="#F0F0F0"/>
<path d="M32.2535 62.4846H34.8125V59.9257H32.2535V62.4846Z" fill="#FAFAFA"/>
<path d="M29.3551 62.4846H31.9141V59.9257H29.3551V62.4846Z" fill="#FAFAFA"/>
<path d="M35.1481 65.3428H37.707V62.7838H35.1481V65.3428Z" fill="#FAFAFA"/>
<path d="M32.2535 65.3428H34.8125V62.7838H32.2535V65.3428Z" fill="#FAFAFA"/>
<path d="M29.3551 65.3428H31.9141V62.7838H29.3551V65.3428Z" fill="#F0F0F0"/>
<path d="M35.1481 68.1987H37.707V65.6398H35.1481V68.1987Z" fill="#FAFAFA"/>
<path d="M32.2535 68.1987H34.8125V65.6398H32.2535V68.1987Z" fill="#F0F0F0"/>
<path d="M29.3551 68.1987H31.9141V65.6398H29.3551V68.1987Z" fill="#FAFAFA"/>
<path d="M35.1481 71.0547H37.707V68.4957H35.1481V71.0547Z" fill="#F0F0F0"/>
<path d="M32.2535 71.0547H34.8125V68.4957H32.2535V71.0547Z" fill="#F0F0F0"/>
<path d="M29.3551 71.0547H31.9141V68.4957H29.3551V71.0547Z" fill="#FAFAFA"/>
<path d="M35.1481 73.9128H37.707V71.3539H35.1481V73.9128Z" fill="#FAFAFA"/>
<path d="M32.2535 73.9128H34.8125V71.3539H32.2535V73.9128Z" fill="#F0F0F0"/>
<path d="M29.3551 73.9128H31.9141V71.3539H29.3551V73.9128Z" fill="#FAFAFA"/>
<path d="M35.1481 76.7688H37.707V74.2098H35.1481V76.7688Z" fill="#FAFAFA"/>
<path d="M32.2535 76.7688H34.8125V74.2098H32.2535V76.7688Z" fill="#FAFAFA"/>
<path d="M29.3551 76.7688H31.9141V74.2098H29.3551V76.7688Z" fill="#FAFAFA"/>
<path d="M35.1481 79.627H37.707V77.068H35.1481V79.627Z" fill="#F0F0F0"/>
<path d="M32.2535 79.627H34.8125V77.068H32.2535V79.627Z" fill="#FAFAFA"/>
<path d="M29.3551 79.627H31.9141V77.068H29.3551V79.627Z" fill="#F0F0F0"/>
<path d="M35.1481 82.4829H37.707V79.924H35.1481V82.4829Z" fill="#FAFAFA"/>
<path d="M32.2535 82.4829H34.8125V79.924H32.2535V82.4829Z" fill="#F0F0F0"/>
<path d="M29.3551 82.4829H31.9141V79.924H29.3551V82.4829Z" fill="#FAFAFA"/>
<path d="M35.1481 85.3413H37.707V82.7823H35.1481V85.3413Z" fill="#F0F0F0"/>
<path d="M32.2535 85.3413H34.8125V82.7823H32.2535V85.3413Z" fill="#FAFAFA"/>
<path d="M29.3551 85.3413H31.9141V82.7823H29.3551V85.3413Z" fill="#FAFAFA"/>
<path d="M76.2198 27.3017C75.922 27.2966 75.632 27.3968 75.4008 27.5847C75.4508 27.328 75.4508 27.0642 75.4008 26.8075C75.2741 26.1976 74.9464 25.6479 74.4703 25.2462C73.9942 24.8445 73.3971 24.6142 72.7746 24.5919C72.4248 24.5878 72.0804 24.6776 71.777 24.8517C71.5451 24.4291 71.2075 24.074 70.7972 23.821C70.3868 23.5681 69.9178 23.426 69.4361 23.4087C68.2065 23.4087 67.3922 24.4063 67.6126 25.6336C67.6313 25.7342 67.6569 25.8334 67.6892 25.9305C67.4931 25.8781 67.2912 25.8508 67.0883 25.8493C65.861 25.8493 65.0444 26.8446 65.2671 28.0742C65.3919 28.6854 65.7184 29.237 66.1943 29.6404C66.6701 30.0439 67.2676 30.2758 67.891 30.2991H76.758C76.9448 30.3055 77.1306 30.2688 77.3009 30.1917C77.4712 30.1147 77.6214 29.9994 77.7399 29.8549C77.8584 29.7104 77.942 29.5404 77.9841 29.3584C78.0263 29.1763 78.0259 28.9869 77.983 28.805C77.9009 28.3927 77.6822 28.0201 77.3623 27.7473C77.0424 27.4746 76.6399 27.3175 76.2198 27.3017Z" fill="#FAFAFA"/>
<path d="M58.0001 98.3008C82.8432 98.3008 102.983 97.125 102.983 95.6746C102.983 94.2241 82.8432 93.0483 58.0001 93.0483C33.1569 93.0483 13.0176 94.2241 13.0176 95.6746C13.0176 97.125 33.1569 98.3008 58.0001 98.3008Z" fill="#F5F5F5"/>
<path d="M84.9243 57.5036H82.9198C82.3601 57.503 81.8234 57.2804 81.4276 56.8846C81.0318 56.4888 80.8092 55.9522 80.8086 55.3924V53.3856C80.8092 52.8259 81.0318 52.2892 81.4276 51.8935C81.8234 51.4977 82.3601 51.275 82.9198 51.2744H84.9243C85.4842 51.275 86.0211 51.4976 86.4173 51.8933C86.8134 52.289 87.0366 52.8257 87.0378 53.3856V55.3924C87.0366 55.9524 86.8134 56.489 86.4173 56.8847C86.0211 57.2804 85.4842 57.503 84.9243 57.5036ZM82.9198 51.8892C82.5231 51.8898 82.1429 52.0477 81.8624 52.3282C81.5819 52.6087 81.424 52.9889 81.4234 53.3856V55.3924C81.4234 55.7893 81.581 56.1699 81.8617 56.4505C82.1423 56.7312 82.5229 56.8888 82.9198 56.8888H84.9243C85.3211 56.8888 85.7018 56.7312 85.9824 56.4505C86.263 56.1699 86.4207 55.7893 86.4207 55.3924V53.3856C86.4201 52.9889 86.2622 52.6087 85.9817 52.3282C85.7012 52.0477 85.321 51.8898 84.9243 51.8892H82.9198Z" fill="#EF233C"/>
<g opacity="0.6">
<path d="M84.9243 57.5036H82.9198C82.3601 57.503 81.8234 57.2804 81.4276 56.8846C81.0318 56.4888 80.8092 55.9522 80.8086 55.3924V53.3856C80.8092 52.8259 81.0318 52.2892 81.4276 51.8935C81.8234 51.4977 82.3601 51.275 82.9198 51.2744H84.9243C85.4842 51.275 86.0211 51.4976 86.4173 51.8933C86.8134 52.289 87.0366 52.8257 87.0378 53.3856V55.3924C87.0366 55.9524 86.8134 56.489 86.4173 56.8847C86.0211 57.2804 85.4842 57.503 84.9243 57.5036ZM82.9198 51.8892C82.5231 51.8898 82.1429 52.0477 81.8624 52.3282C81.5819 52.6087 81.424 52.9889 81.4234 53.3856V55.3924C81.4234 55.7893 81.581 56.1699 81.8617 56.4505C82.1423 56.7312 82.5229 56.8888 82.9198 56.8888H84.9243C85.3211 56.8888 85.7018 56.7312 85.9824 56.4505C86.263 56.1699 86.4207 55.7893 86.4207 55.3924V53.3856C86.4201 52.9889 86.2622 52.6087 85.9817 52.3282C85.7012 52.0477 85.321 51.8898 84.9243 51.8892H82.9198Z" fill="white"/>
</g>
<path d="M83.7029 56.1023L80.7773 53.1791L81.6473 52.3068L83.7029 54.3623L87.4265 50.6387L88.2965 51.5087L83.7029 56.1023Z" fill="#EF233C"/>
<path d="M40.73 35.0482H38.9576C38.4664 35.0446 37.9965 34.8478 37.6492 34.5006C37.3019 34.1533 37.1052 33.6833 37.1016 33.1922V31.4174C37.1022 30.9243 37.2975 30.4513 37.6451 30.1016C37.9927 29.7518 38.4644 29.5535 38.9576 29.5498H40.73C41.2252 29.5504 41.6998 29.7474 42.05 30.0975C42.4001 30.4476 42.597 30.9223 42.5976 31.4174V33.176C42.5979 33.4215 42.5499 33.6647 42.4562 33.8917C42.3625 34.1187 42.225 34.325 42.0516 34.4989C41.8782 34.6727 41.6722 34.8107 41.4455 34.905C41.2187 34.9992 40.9756 35.0479 40.73 35.0482ZM38.9576 30.0834C38.6066 30.0834 38.27 30.2227 38.0217 30.4706C37.7733 30.7185 37.6335 31.0549 37.6328 31.4058V33.176C37.6335 33.5269 37.7733 33.8633 38.0217 34.1112C38.27 34.3591 38.6066 34.4984 38.9576 34.4984H40.73C41.0808 34.4984 41.4171 34.359 41.6651 34.111C41.9131 33.863 42.0524 33.5267 42.0524 33.176V31.4012C42.0524 31.0504 41.9131 30.7141 41.6651 30.4661C41.4171 30.2181 41.0808 30.0788 40.73 30.0788L38.9576 30.0834Z" fill="#EF233C"/>
<g opacity="0.6">
<path d="M40.73 35.0482H38.9576C38.4664 35.0446 37.9965 34.8478 37.6492 34.5006C37.3019 34.1533 37.1052 33.6833 37.1016 33.1922V31.4174C37.1022 30.9243 37.2975 30.4513 37.6451 30.1016C37.9927 29.7518 38.4644 29.5535 38.9576 29.5498H40.73C41.2252 29.5504 41.6998 29.7474 42.05 30.0975C42.4001 30.4476 42.597 30.9223 42.5976 31.4174V33.176C42.5979 33.4215 42.5499 33.6647 42.4562 33.8917C42.3625 34.1187 42.225 34.325 42.0516 34.4989C41.8782 34.6727 41.6722 34.8107 41.4455 34.905C41.2187 34.9992 40.9756 35.0479 40.73 35.0482ZM38.9576 30.0834C38.6066 30.0834 38.27 30.2227 38.0217 30.4706C37.7733 30.7185 37.6335 31.0549 37.6328 31.4058V33.176C37.6335 33.5269 37.7733 33.8633 38.0217 34.1112C38.27 34.3591 38.6066 34.4984 38.9576 34.4984H40.73C41.0808 34.4984 41.4171 34.359 41.6651 34.111C41.9131 33.863 42.0524 33.5267 42.0524 33.176V31.4012C42.0524 31.0504 41.9131 30.7141 41.6651 30.4661C41.4171 30.2181 41.0808 30.0788 40.73 30.0788L38.9576 30.0834Z" fill="white"/>
</g>
<path d="M39.6489 33.807L37.0645 31.2226L37.8324 30.4523L39.6489 32.2689L42.941 28.9768L43.7113 29.747L39.6489 33.807Z" fill="#EF233C"/>
<path d="M92.7994 32.3871C90.9757 31.955 89.2461 31.1939 87.6954 30.1414C86.1449 31.1943 84.4152 31.9554 82.5914 32.3871C81.9249 32.5456 81.2493 32.6626 80.5684 32.7374C80.5684 32.7676 80.5684 32.8001 80.5684 32.8302C80.5684 39.0942 83.3802 43.4674 87.6977 46.8871C92.0152 43.4674 94.8271 39.0966 94.8271 32.8302C94.8271 32.8001 94.8271 32.7676 94.8271 32.7374C94.1446 32.6627 93.4674 32.5457 92.7994 32.3871Z" fill="#EF233C"/>
<path opacity="0.1" d="M87.6954 30.1414C86.1449 31.1943 84.4152 31.9554 82.5914 32.3871C81.9249 32.5456 81.2493 32.6626 80.5684 32.7374C80.5684 32.7676 80.5684 32.8001 80.5684 32.8302C80.5684 39.0942 83.3802 43.4674 87.6977 46.8871L87.6954 30.1414Z" fill="black"/>
<g opacity="0.5">
<path d="M87.6948 45.7503L87.5045 45.5879C83.6139 42.2563 81.7045 38.5026 81.4725 33.7698L81.4609 33.5099L81.7161 33.4659C82.0827 33.4032 82.4493 33.329 82.8019 33.2339C84.4752 32.8375 86.0755 32.1798 87.544 31.2851L87.6971 31.1899L87.8502 31.2851C89.3189 32.1794 90.9191 32.8371 92.5923 33.2339C92.9496 33.3197 93.3138 33.3939 93.6781 33.4659L93.9356 33.5099L93.9217 33.7698C93.6897 38.5026 91.778 42.2587 87.8897 45.5879L87.6948 45.7503ZM82.0711 33.9995C82.3402 38.3611 84.1336 41.8596 87.6948 44.9754C91.256 41.8619 93.0493 38.3611 93.3185 33.9995C93.0285 33.9461 92.7385 33.8835 92.4531 33.8139C90.7786 33.4169 89.1741 32.7676 87.6948 31.8883C86.2156 32.768 84.6111 33.4173 82.9365 33.8139C82.6534 33.8835 82.3588 33.9438 82.0711 33.9995Z" fill="white"/>
</g>
<path opacity="0.9" d="M87.6951 44.9755C84.1339 41.8597 82.3406 38.3612 82.0715 33.9996C82.3638 33.9439 82.6538 33.8836 82.9368 33.814C84.6115 33.4174 86.216 32.7681 87.6951 31.8884V31.1924L87.542 31.2875C86.0736 32.1823 84.4732 32.8399 82.7999 33.2363C82.4473 33.3221 82.0807 33.3964 81.7142 33.4683L81.459 33.5124L81.4706 33.7722C81.7026 38.505 83.6143 42.2588 87.5026 45.5903L87.6928 45.7527L87.6951 44.9755Z" fill="#F0F0F0"/>
<g opacity="0.2">
<path d="M87.2923 41.2124L84.1719 38.0896L85.0999 37.1616L87.2923 39.354L91.2664 35.3799L92.1968 36.3079L87.2923 41.2124Z" fill="#EF233C"/>
</g>
<g opacity="0.9">
<path d="M87.2923 41.2124L84.1719 38.0896L85.0999 37.1616L87.2923 39.354L91.2664 35.3799L92.1968 36.3079L87.2923 41.2124Z" fill="white"/>
</g>
<path d="M74.2502 29.9141H66.1465V37.4471H74.2502V29.9141Z" fill="#EF233C"/>
<path opacity="0.3" d="M74.2502 29.9141H66.1465V37.4471H74.2502V29.9141Z" fill="white"/>
<path d="M77.8456 29.9141H73.7949V37.4471H77.8456V29.9141Z" fill="#EF233C"/>
<path d="M71.4669 31.3918H68.9219V37.447H71.4669V31.3918Z" fill="#263238"/>
<path d="M69.5576 31.3918H68.9219V37.447H69.5576V31.3918Z" fill="#EF233C"/>
<path d="M69.2632 36.4426H48.1582V96.3914H69.2632V36.4426Z" fill="#EF233C"/>
<path opacity="0.6" d="M69.2632 36.4426H48.1582V96.3914H69.2632V36.4426Z" fill="white"/>
<path d="M68.9492 36.4426V45.3073H64.293V47.2724H68.9492V54.8704H64.293V56.8354H68.9492V64.4334H64.293V66.3985H68.9492V73.9965H64.293V75.9615H68.9492V83.5595H64.293V85.5246H68.9492V96.3914H78.9275V36.4426H68.9492Z" fill="#EF233C"/>
<path opacity="0.2" d="M68.9492 36.4426V45.3073H64.293V47.2724H68.9492V54.8704H64.293V56.8354H68.9492V64.4334H64.293V66.3985H68.9492V73.9965H64.293V75.9615H68.9492V83.5595H64.293V85.5246H68.9492V96.3914H78.9275V36.4426H68.9492Z" fill="white"/>
<path d="M64.5542 83.5593H45.2031V85.5244H64.5542V83.5593Z" fill="#EF233C"/>
<path d="M64.5542 73.9963H45.2031V75.9614H64.5542V73.9963Z" fill="#EF233C"/>
<path d="M64.5542 64.4333H45.2031V66.3984H64.5542V64.4333Z" fill="#EF233C"/>
<path d="M64.5542 54.8704H45.2031V56.8354H64.5542V54.8704Z" fill="#EF233C"/>
<path d="M64.5542 45.3074H45.2031V47.2724H64.5542V45.3074Z" fill="#EF233C"/>
<g opacity="0.4">
<path d="M64.5542 83.5596H45.2031V85.5246H64.5542V83.5596Z" fill="white"/>
<path d="M64.5542 73.9966H45.2031V75.9616H64.5542V73.9966Z" fill="white"/>
<path d="M64.5542 64.4333H45.2031V66.3984H64.5542V64.4333Z" fill="white"/>
<path d="M64.5542 54.8704H45.2031V56.8354H64.5542V54.8704Z" fill="white"/>
<path d="M64.5542 45.3074H45.2031V47.2724H64.5542V45.3074Z" fill="white"/>
</g>
<path d="M64.8773 87.6729H52.5488V96.3914H64.8773V87.6729Z" fill="#EF233C"/>
<path d="M55.054 38.7556H49.9453V43.8643H55.054V38.7556Z" fill="#EF233C"/>
<path d="M61.1458 38.7556H56.0371V43.8643H61.1458V38.7556Z" fill="#EF233C"/>
<path opacity="0.7" d="M67.2376 38.7556H62.1289V43.8643H67.2376V38.7556Z" fill="white"/>
<path opacity="0.7" d="M55.054 48.5159H49.9453V53.6245H55.054V48.5159Z" fill="white"/>
<path d="M61.1458 48.5159H56.0371V53.6245H61.1458V48.5159Z" fill="#EF233C"/>
<path opacity="0.7" d="M67.2376 48.5159H62.1289V53.6245H67.2376V48.5159Z" fill="white"/>
<path opacity="0.7" d="M55.054 58.0789H49.9453V63.1875H55.054V58.0789Z" fill="white"/>
<path opacity="0.7" d="M61.1458 58.0789H56.0371V63.1875H61.1458V58.0789Z" fill="white"/>
<path d="M67.2376 58.0789H62.1289V63.1875H67.2376V58.0789Z" fill="#EF233C"/>
<path opacity="0.7" d="M55.054 67.6418H49.9453V72.7505H55.054V67.6418Z" fill="white"/>
<path d="M61.1458 67.6418H56.0371V72.7505H61.1458V67.6418Z" fill="#EF233C"/>
<path opacity="0.7" d="M67.2376 67.6418H62.1289V72.7505H67.2376V67.6418Z" fill="white"/>
<path d="M55.054 77.2073H49.9453V82.3159H55.054V77.2073Z" fill="#EF233C"/>
<path d="M61.1458 77.2073H56.0371V82.3159H61.1458V77.2073Z" fill="#EF233C"/>
<path opacity="0.7" d="M67.2376 77.2073H62.1289V82.3159H67.2376V77.2073Z" fill="white"/>
<path d="M50.4836 38.7556H49.9453V43.8643H50.4836V38.7556Z" fill="#EF233C"/>
<path d="M56.5754 38.7556H56.0371V43.8643H56.5754V38.7556Z" fill="#EF233C"/>
<path d="M62.6671 38.7556H62.1289V43.8643H62.6671V38.7556Z" fill="#EF233C"/>
<path d="M50.4836 48.5159H49.9453V53.6245H50.4836V48.5159Z" fill="#EF233C"/>
<path d="M56.5754 48.5159H56.0371V53.6245H56.5754V48.5159Z" fill="#EF233C"/>
<path d="M62.6671 48.5159H62.1289V53.6245H62.6671V48.5159Z" fill="#EF233C"/>
<path d="M50.4836 58.0789H49.9453V63.1875H50.4836V58.0789Z" fill="#EF233C"/>
<path d="M56.5754 58.0789H56.0371V63.1875H56.5754V58.0789Z" fill="#EF233C"/>
<path d="M62.6671 58.0789H62.1289V63.1875H62.6671V58.0789Z" fill="#EF233C"/>
<path d="M50.4836 67.6418H49.9453V72.7505H50.4836V67.6418Z" fill="#EF233C"/>
<path d="M56.5754 67.6418H56.0371V72.7505H56.5754V67.6418Z" fill="#EF233C"/>
<path d="M62.6671 67.6418H62.1289V72.7505H62.6671V67.6418Z" fill="#EF233C"/>
<path d="M50.4836 77.2073H49.9453V82.3159H50.4836V77.2073Z" fill="#EF233C"/>
<path d="M56.5754 77.2073H56.0371V82.3159H56.5754V77.2073Z" fill="#EF233C"/>
<path d="M62.6671 77.2073H62.1289V82.3159H62.6671V77.2073Z" fill="#EF233C"/>
<g opacity="0.2">
<path d="M50.4836 38.7556H49.9453V43.8643H50.4836V38.7556Z" fill="black"/>
<path d="M56.5754 38.7556H56.0371V43.8643H56.5754V38.7556Z" fill="black"/>
<path d="M62.6691 38.7556H62.1309V43.8643H62.6691V38.7556Z" fill="black"/>
<path d="M50.4836 48.5159H49.9453V53.6245H50.4836V48.5159Z" fill="black"/>
<path d="M56.5754 48.5159H56.0371V53.6245H56.5754V48.5159Z" fill="black"/>
<path d="M62.6691 48.5159H62.1309V53.6245H62.6691V48.5159Z" fill="black"/>
<path d="M50.4836 58.0789H49.9453V63.1875H50.4836V58.0789Z" fill="black"/>
<path d="M56.5754 58.0789H56.0371V63.1875H56.5754V58.0789Z" fill="black"/>
<path d="M62.6691 58.0789H62.1309V63.1875H62.6691V58.0789Z" fill="black"/>
<path d="M50.4836 67.6418H49.9453V72.7505H50.4836V67.6418Z" fill="black"/>
<path d="M56.5754 67.6418H56.0371V72.7505H56.5754V67.6418Z" fill="black"/>
<path d="M62.6691 67.6418H62.1309V72.7505H62.6691V67.6418Z" fill="black"/>
<path d="M50.4836 77.2073H49.9453V82.3159H50.4836V77.2073Z" fill="black"/>
<path d="M56.5754 77.2073H56.0371V82.3159H56.5754V77.2073Z" fill="black"/>
<path d="M62.6691 77.2073H62.1309V82.3159H62.6691V77.2073Z" fill="black"/>
</g>
<path opacity="0.4" d="M64.2879 88.262H58.7129V96.3912H64.2879V88.262Z" fill="white"/>
<path opacity="0.7" d="M58.7117 88.262H53.1367V96.3912H58.7117V88.262Z" fill="white"/>
<path d="M53.726 88.262H53.1367V96.3912H53.726V88.262Z" fill="#EF233C"/>
<path opacity="0.2" d="M53.726 88.262H53.1367V96.3912H53.726V88.262Z" fill="black"/>
<path d="M23.4314 48.5205C23.5274 48.0714 23.668 47.6331 23.8513 47.212C24.0439 46.748 24.2619 46.284 24.5009 45.82C24.7399 45.356 24.9904 44.892 25.2456 44.428C25.5008 43.964 25.7815 43.5 26.0414 43.0685L23.9905 41.76C23.6657 42.2542 23.3896 42.7321 23.1089 43.2309C22.8282 43.7297 22.5707 44.2331 22.3224 44.7505C22.0742 45.2678 21.8584 45.8061 21.6473 46.3745C21.4235 46.9738 21.2679 47.5964 21.1833 48.2305C21.1624 48.4471 21.1569 48.665 21.1671 48.8824H23.3803C23.3865 48.7605 23.4036 48.6394 23.4314 48.5205Z" fill="#CE7A63"/>
<path d="M40.2661 43.4257C39.7513 44.3264 39.1754 45.1907 38.5423 46.0125C38.3988 46.1947 38.2438 46.3675 38.0783 46.5299C37.9506 46.661 37.8045 46.7728 37.6445 46.8616H37.6189C37.6189 46.8616 37.5354 46.8106 37.438 46.7132C37.1301 46.4103 36.8598 46.0715 36.6329 45.7039C36.3754 45.291 36.1249 44.8456 35.8905 44.3862C35.6562 43.9268 35.4265 43.4582 35.2131 42.9803C34.9997 42.5023 34.7839 42.0082 34.5913 41.5488L32.334 42.4165C32.5405 42.9733 32.7632 43.4744 32.9975 43.9941C33.2318 44.5138 33.4893 45.0172 33.7654 45.5207C34.0473 46.0352 34.3571 46.534 34.6934 47.0147C34.8697 47.2607 35.0577 47.5043 35.2665 47.7479C35.4916 48.0121 35.7426 48.253 36.0158 48.4671C36.1802 48.5957 36.3566 48.7084 36.5425 48.8035C36.7787 48.9233 37.0337 49.0017 37.2965 49.0355C37.5916 49.0681 37.8904 49.0348 38.1711 48.938C38.393 48.861 38.6018 48.7507 38.7905 48.6109C39.0843 48.3945 39.3467 48.1384 39.5701 47.8499C39.7627 47.6034 39.9379 47.3437 40.0944 47.0727C40.3878 46.5658 40.6415 46.0368 40.853 45.4905C41.0634 44.9611 41.2393 44.4186 41.3797 43.8665L40.2661 43.4257Z" fill="#CE7A63"/>
<path d="M37.142 45.3861L34.6225 47.2676C34.6225 47.2676 34.5251 47.1609 34.365 46.9753C34.249 46.8408 34.0982 46.6598 33.9242 46.4487C32.9451 45.2562 31.5137 43.0777 31.5021 42.0128C31.4835 40.4213 33.1261 40.187 34.9821 41.8133C35.7802 42.5093 36.1978 43.6809 36.6061 44.4024C36.7407 44.6344 36.8544 44.8479 36.9425 45.0103C37.0724 45.24 37.142 45.3861 37.142 45.3861Z" fill="#263238"/>
<path opacity="0.5" d="M37.142 45.3861L34.6225 47.2676C34.6225 47.2676 34.5251 47.1609 34.365 46.9753C34.249 46.8408 34.0982 46.6598 33.9242 46.4487C32.9451 45.2562 31.5137 43.0777 31.5021 42.0128C31.4835 40.4213 33.1261 40.187 34.9821 41.8133C35.7802 42.5093 36.1978 43.6809 36.6061 44.4024C36.7407 44.6344 36.8544 44.8479 36.9425 45.0103C37.0724 45.24 37.142 45.3861 37.142 45.3861Z" fill="white"/>
<path opacity="0.2" d="M31.4864 42.196C32.0548 41.8179 32.4701 42.7923 33.5976 43.6159C34.0987 43.9848 35.1984 46.3767 35.1079 46.9056L34.623 47.2676C34.623 47.2676 31.4725 43.7806 31.4864 42.196Z" fill="black"/>
<path d="M40.0703 43.8086L40.9682 42.1846L41.7894 44.3213C41.7894 44.3213 40.7733 45.1704 40.2536 44.5997L40.0703 43.8086Z" fill="#CE7A63"/>
<path d="M42.0104 42.166L42.3724 43.7645L41.79 44.312L40.9688 42.1753L42.0104 42.166Z" fill="#CE7A63"/>
<path d="M40.2159 43.6833C40.1989 43.3891 40.1331 43.0998 40.021 42.8272C39.8818 42.5117 39.557 42.2472 39.6243 42.0732C39.6568 41.9967 39.8563 41.9595 39.9375 41.9781C40.1299 42.0674 40.2914 42.212 40.4015 42.3934C40.5105 42.5836 40.8145 43.2495 40.8145 43.2495L40.2159 43.6833Z" fill="#CE7A63"/>
<path d="M31.3562 33.2896C31.3562 33.2896 32.0522 33.6144 31.7297 34.134C31.8091 34.1881 31.8765 34.258 31.9276 34.3393C31.9786 34.4207 32.0123 34.5118 32.0265 34.6068C32.0406 34.7018 32.035 34.7987 32.0099 34.8914C31.9847 34.9842 31.9407 35.0707 31.8805 35.1456C31.8805 35.1456 31.9199 36.1014 31.3562 35.5469C30.7924 34.9924 30.623 33.4357 30.623 33.4357L31.3562 33.2896Z" fill="#263238"/>
<path d="M26.5997 43.6555C26.1999 44.7645 25.7351 45.8491 25.2077 46.9035C25.0941 47.1355 24.9757 47.3512 24.9015 47.5229C24.7507 47.8199 24.6556 48.0008 24.6556 48.0008L21.4238 46.2121C21.4238 46.2121 21.4656 46.0752 21.5375 45.8479C21.5955 45.6762 21.6674 45.4488 21.7695 45.189C22.3077 43.6555 23.4074 40.9179 24.4839 40.7624C26.094 40.5165 27.254 41.7206 26.5997 43.6555Z" fill="#263238"/>
<path opacity="0.5" d="M26.5997 43.6555C26.1999 44.7645 25.7351 45.8491 25.2077 46.9035C25.0941 47.1355 24.9757 47.3512 24.9015 47.5229C24.7507 47.8199 24.6556 48.0008 24.6556 48.0008L21.4238 46.2121C21.4238 46.2121 21.4656 46.0752 21.5375 45.8479C21.5955 45.6762 21.6674 45.4488 21.7695 45.189C22.3077 43.6555 23.4074 40.9179 24.4839 40.7624C26.094 40.5165 27.254 41.7206 26.5997 43.6555Z" fill="white"/>
<path d="M38.6372 94.4147L40.1545 93.9229L39.2126 90.3455L37.6953 90.8373L38.6372 94.4147Z" fill="#CE7A63"/>
<path d="M40.1773 93.7279L38.4721 94.28C38.4576 94.2841 38.444 94.2909 38.4321 94.3002C38.4203 94.3095 38.4104 94.3211 38.4031 94.3343C38.3957 94.3475 38.3911 94.362 38.3894 94.3769C38.3877 94.3919 38.389 94.4071 38.3932 94.4216L38.7482 95.7973C38.7711 95.8681 38.821 95.927 38.8869 95.9613C38.9529 95.9956 39.0298 96.0025 39.1008 95.9806C39.6924 95.7764 39.9639 95.6512 40.7248 95.4076C41.1888 95.2568 43.1632 94.6698 43.7988 94.4633C44.4345 94.2568 44.2141 93.6328 43.9241 93.6629C42.6319 93.7998 41.0172 93.9344 40.4812 93.7348C40.3836 93.6985 40.2765 93.696 40.1773 93.7279Z" fill="#263238"/>
<path opacity="0.2" d="M37.6953 90.8373L39.2126 90.3455L39.6975 92.1899L38.1802 92.6817L37.6953 90.8373Z" fill="black"/>
<path d="M33.996 54.6196C33.996 54.6196 36.149 67.6116 36.78 72.1333C37.476 77.0935 40.2252 91.6004 40.2252 91.6004L37.4087 92.3776C37.4087 92.3776 33.4067 78.3207 32.2467 73.4975C31.0171 68.2659 28.3027 54.6196 28.3027 54.6196H33.996Z" fill="#263238"/>
<path opacity="0.4" d="M30.5382 59.9442C31.6402 62.6957 31.7655 67.3682 31.3177 69.2914C30.6426 66.1432 29.8677 62.3778 29.2715 59.45C29.4849 58.696 29.87 58.2714 30.5382 59.9442Z" fill="black"/>
<path d="M37.3467 92.4335L40.3627 91.6029L40.3047 90.3733L36.9082 91.5472L37.3467 92.4335Z" fill="#263238"/>
<path d="M40.8013 93.8116C40.6633 93.8506 40.5219 93.8762 40.379 93.8882C40.3718 93.8886 40.3645 93.8871 40.358 93.8838C40.3515 93.8806 40.3459 93.8757 40.3419 93.8696C40.338 93.8634 40.3359 93.8561 40.3359 93.8487C40.3359 93.8414 40.338 93.8341 40.3419 93.8279C40.379 93.7791 40.7131 93.3453 40.9219 93.3639C40.9455 93.3648 40.9684 93.372 40.9884 93.3846C41.0083 93.3972 41.0246 93.4149 41.0356 93.4358C41.0568 93.4654 41.0698 93.5002 41.073 93.5365C41.0763 93.5728 41.0698 93.6093 41.0542 93.6423C40.9929 93.7272 40.9032 93.7874 40.8013 93.8116ZM40.4579 93.8116C40.7479 93.7768 40.9451 93.7049 40.9938 93.6121C41.0028 93.5901 41.006 93.5663 41.0032 93.5427C41.0004 93.5192 40.9915 93.4967 40.9776 93.4775C40.973 93.4666 40.9653 93.4572 40.9554 93.4506C40.9455 93.4439 40.9338 93.4404 40.9219 93.4404C40.8106 93.4265 40.5994 93.6353 40.4579 93.8047V93.8116Z" fill="#EF233C"/>
<path d="M40.3859 93.8858H40.3674C40.3611 93.8848 40.3551 93.8822 40.3502 93.8781C40.3453 93.874 40.3416 93.8686 40.3395 93.8626C40.3395 93.844 40.1563 93.4194 40.2607 93.2222C40.2738 93.1965 40.2929 93.1743 40.3163 93.1574C40.3397 93.1405 40.3667 93.1293 40.3952 93.1248C40.4256 93.115 40.4585 93.1161 40.4882 93.128C40.5178 93.1398 40.5424 93.1617 40.5576 93.1898C40.6458 93.3429 40.5228 93.7326 40.3999 93.8718C40.3971 93.878 40.3921 93.883 40.3859 93.8858ZM40.3859 93.2037C40.3716 93.2081 40.3583 93.2152 40.3467 93.2248C40.3352 93.2344 40.3257 93.2461 40.3187 93.2594C40.2826 93.4328 40.3029 93.6133 40.3767 93.7744C40.4809 93.6131 40.5199 93.4182 40.4857 93.2292C40.4741 93.2083 40.4555 93.1874 40.4022 93.199L40.3859 93.2037Z" fill="#EF233C"/>
<path d="M23.3711 95.1131H24.9649L25.4962 91.4197H23.9024L23.3711 95.1131Z" fill="#CE7A63"/>
<path d="M25.0678 94.9275H23.2744C23.2435 94.9272 23.2136 94.938 23.1901 94.9581C23.1667 94.9781 23.1513 95.006 23.1468 95.0365L22.9357 96.4541C22.9309 96.4911 22.9343 96.5287 22.9456 96.5643C22.9568 96.5999 22.9757 96.6326 23.0008 96.6602C23.026 96.6878 23.0569 96.7096 23.0913 96.7241C23.1257 96.7385 23.1628 96.7454 23.2002 96.7441C23.8242 96.7325 24.1282 96.6953 24.9146 96.6953C25.3995 96.6953 27.4666 96.7464 28.1255 96.7464C28.7844 96.7464 28.8215 96.0829 28.5547 96.0249C27.3066 95.7557 25.7707 95.3845 25.3415 95.0296C25.2657 94.9633 25.1684 94.927 25.0678 94.9275Z" fill="#263238"/>
<path opacity="0.2" d="M23.9007 91.4197H25.4969L25.2231 93.3244H23.627L23.9007 91.4197Z" fill="black"/>
<path d="M31.1083 54.5386C31.1083 54.5386 30.1942 66.7279 29.5353 71.2959C28.8161 76.2955 25.9463 92.8719 25.9463 92.8719H23.0254C23.0254 92.8719 24.5264 76.7062 24.784 71.7599C25.0624 66.3868 25.6029 54.5502 25.6029 54.5502L31.1083 54.5386Z" fill="#263238"/>
<path d="M22.9075 92.8648H26.065L26.3364 91.7559L22.8379 91.9275L22.9075 92.8648Z" fill="#263238"/>
<path d="M25.6081 95.2058C25.4663 95.2027 25.3254 95.1832 25.1882 95.1478C25.1814 95.1467 25.1751 95.1434 25.1705 95.1383C25.1659 95.1333 25.1631 95.1268 25.1626 95.1199C25.1613 95.1126 25.1624 95.105 25.1658 95.0983C25.1691 95.0916 25.1745 95.0862 25.1812 95.0828C25.2346 95.0457 25.7125 94.7371 25.9004 94.8137C25.9221 94.8225 25.9409 94.8372 25.9548 94.856C25.9687 94.8748 25.9772 94.8971 25.9793 94.9204C25.9853 94.9568 25.9825 94.9941 25.9712 95.0292C25.9599 95.0643 25.9404 95.0962 25.9143 95.1222C25.8252 95.1852 25.7168 95.2148 25.6081 95.2058ZM25.2949 95.0944C25.5756 95.1524 25.7867 95.1431 25.8656 95.0689C25.8829 95.052 25.8956 95.031 25.9025 95.0079C25.9094 94.9847 25.9103 94.9602 25.905 94.9366C25.9043 94.9252 25.9005 94.9142 25.8939 94.9048C25.8874 94.8954 25.8784 94.8879 25.8679 94.8833C25.7658 94.8415 25.4898 94.9761 25.2879 95.0944H25.2949Z" fill="#EF233C"/>
<path d="M25.1947 95.1502H25.1784C25.1732 95.1472 25.1689 95.1428 25.166 95.1375C25.1631 95.1322 25.1618 95.1261 25.1622 95.1201C25.1622 95.1015 25.1622 94.6422 25.3408 94.4867C25.3624 94.4668 25.3882 94.4518 25.4163 94.443C25.4444 94.4342 25.4741 94.4317 25.5032 94.4357C25.5339 94.4365 25.5633 94.4481 25.5862 94.4685C25.6091 94.4888 25.6241 94.5167 25.6285 94.547C25.6494 94.721 25.3826 95.0551 25.2155 95.1502H25.1947ZM25.4707 94.503C25.4398 94.5031 25.4101 94.5147 25.3872 94.5355C25.2868 94.6856 25.235 94.863 25.2387 95.0435C25.3872 94.9252 25.5682 94.6723 25.5543 94.5586C25.5543 94.5354 25.5403 94.5099 25.487 94.5053L25.4707 94.503Z" fill="#EF233C"/>
<path d="M33.9967 54.6196H25.4638C25.4035 53.8564 25.5798 51.3716 25.4499 48.2234C25.3694 45.8832 25.0853 43.5544 24.6007 41.2634C24.5636 41.0917 24.5242 40.9224 24.4824 40.7507C24.4824 40.7507 24.9163 40.6625 25.5357 40.572C26.0507 40.4955 26.6957 40.4189 27.3291 40.3888C28.536 40.3203 29.7459 40.3203 30.9529 40.3888C31.5097 40.4398 32.0549 40.5326 32.4887 40.6208C33.0455 40.7321 33.3727 40.8296 33.3727 40.8296C33.3727 40.8296 35.4746 45.6482 33.9967 54.6196Z" fill="#263238"/>
<path opacity="0.5" d="M33.9967 54.6196H25.4638C25.4035 53.8564 25.5798 51.3716 25.4499 48.2234C25.3694 45.8832 25.0853 43.5544 24.6007 41.2634C24.5636 41.0917 24.5242 40.9224 24.4824 40.7507C24.4824 40.7507 24.9163 40.6625 25.5357 40.572C26.0507 40.4955 26.6957 40.4189 27.3291 40.3888C28.536 40.3203 29.7459 40.3203 30.9529 40.3888C31.5097 40.4398 32.0549 40.5326 32.4887 40.6208C33.0455 40.7321 33.3727 40.8296 33.3727 40.8296C33.3727 40.8296 35.4746 45.6482 33.9967 54.6196Z" fill="white"/>
<path d="M28.5903 42.5L29.4858 41.3725L29.6969 41.0987L30.1749 41.3539L31.3186 42.2239C32.2466 41.4444 31.7826 40.7461 31.5947 40.4677C31.3859 40.4375 31.1702 40.4097 30.9498 40.3888C29.742 40.3203 28.5313 40.3203 27.3236 40.3888C27.0614 40.3888 26.7946 40.4213 26.5371 40.4468C26.7222 40.9104 26.9996 41.3315 27.3526 41.6845C27.7056 42.0375 28.1267 42.3149 28.5903 42.5Z" fill="#263238"/>
<path opacity="0.7" d="M28.5903 42.5L29.4858 41.3725L29.6969 41.0987L30.1749 41.3539L31.3186 42.2239C32.2466 41.4444 31.7826 40.7461 31.5947 40.4677C31.3859 40.4375 31.1702 40.4097 30.9498 40.3888C29.742 40.3203 28.5313 40.3203 27.3236 40.3888C27.0614 40.3888 26.7946 40.4213 26.5371 40.4468C26.7222 40.9104 26.9996 41.3315 27.3526 41.6845C27.7056 42.0375 28.1267 42.3149 28.5903 42.5Z" fill="white"/>
<path d="M27.4051 36.322L28.3749 37.1271L29.6973 38.2244C29.6578 38.4004 29.6291 38.5786 29.6114 38.758C29.5418 39.4749 29.7274 40.1268 30.7714 40.382C30.7714 40.382 32.0219 41.2103 30.1659 41.3611C30.16 41.5629 30.1288 41.7632 30.0731 41.9573C29.91 41.7311 29.7081 41.5355 29.4769 41.3796C27.4469 41.3448 27.1777 40.4052 27.1777 40.4052C27.9781 39.6187 27.6742 37.4913 27.4051 36.322Z" fill="#CE7A63"/>
<path opacity="0.2" d="M29.6959 38.2243C29.6564 38.4003 29.6277 38.5785 29.6101 38.7579C29.1182 38.6582 28.4501 38.1338 28.3921 37.6304C28.3671 37.4638 28.3609 37.2949 28.3735 37.127L29.6959 38.2243Z" fill="black"/>
<path d="M27.0046 34.6422C27.3433 36.192 27.4686 37.1153 28.378 37.8229C28.6733 38.0557 29.0266 38.2034 29.3998 38.2501C29.7729 38.2968 30.1517 38.2408 30.4953 38.088C30.8389 37.9351 31.1342 37.6914 31.3494 37.383C31.5647 37.0746 31.6916 36.7133 31.7165 36.3381C31.8371 34.8928 31.2525 32.5983 29.6285 32.1621C29.2779 32.0586 28.9064 32.049 28.5509 32.1341C28.1955 32.2192 27.8686 32.3961 27.603 32.6472C27.3373 32.8983 27.1423 33.2147 27.0373 33.5648C26.9322 33.9149 26.921 34.2864 27.0046 34.6422Z" fill="#CE7A63"/>
<path d="M29.0487 35.1991C29.0673 35.3267 29.1531 35.4311 29.2366 35.4126C29.3202 35.394 29.3712 35.2919 29.3503 35.1643C29.3294 35.0367 29.2482 34.9323 29.1647 34.9509C29.0812 34.9694 29.0302 35.0715 29.0487 35.1991Z" fill="#263238"/>
<path d="M30.4921 35.0319C30.513 35.1595 30.5965 35.2639 30.68 35.2453C30.7635 35.2268 30.8146 35.1247 30.796 34.9971C30.7774 34.8695 30.6916 34.7651 30.6081 34.7836C30.5246 34.8022 30.4735 34.8996 30.4921 35.0319Z" fill="#263238"/>
<path d="M30.2461 35.1458C30.4588 35.5176 30.7202 35.8593 31.0233 36.1619C30.9444 36.2345 30.8505 36.2887 30.7482 36.3208C30.646 36.3529 30.5379 36.362 30.4317 36.3475L30.2461 35.1458Z" fill="#BA4D3C"/>
<path d="M30.1363 36.8113C29.9869 36.8138 29.8386 36.7857 29.7005 36.7286C29.5625 36.6716 29.4376 36.5868 29.3336 36.4796C29.3299 36.476 29.327 36.4717 29.325 36.4669C29.3231 36.4622 29.3221 36.4571 29.3223 36.452C29.3224 36.4468 29.3236 36.4418 29.3258 36.4371C29.328 36.4325 29.3311 36.4283 29.3349 36.425C29.3388 36.4216 29.3433 36.419 29.3482 36.4175C29.3531 36.4159 29.3583 36.4154 29.3634 36.416C29.3685 36.4165 29.3734 36.4181 29.3779 36.4207C29.3823 36.4233 29.3862 36.4267 29.3892 36.4308C29.5045 36.5448 29.6442 36.6308 29.7979 36.6823C29.9515 36.7337 30.1149 36.7493 30.2755 36.7278C30.2804 36.7278 30.2852 36.7288 30.2897 36.7306C30.2942 36.7325 30.2983 36.7352 30.3017 36.7387C30.3052 36.7421 30.3079 36.7462 30.3098 36.7507C30.3116 36.7552 30.3126 36.76 30.3126 36.7649C30.3126 36.7698 30.3116 36.7746 30.3098 36.7791C30.3079 36.7836 30.3052 36.7877 30.3017 36.7912C30.2983 36.7946 30.2942 36.7974 30.2897 36.7992C30.2852 36.8011 30.2804 36.802 30.2755 36.802C30.2293 36.8081 30.1828 36.8112 30.1363 36.8113Z" fill="#263238"/>
<path d="M28.7322 34.8C28.7201 34.8034 28.7072 34.8034 28.6951 34.8C28.6778 34.7902 28.665 34.7741 28.6594 34.755C28.6538 34.736 28.6558 34.7155 28.6649 34.6979C28.7206 34.5925 28.8014 34.5025 28.9001 34.4357C28.9989 34.369 29.1125 34.3275 29.231 34.3151C29.241 34.3145 29.2509 34.3158 29.2603 34.3191C29.2697 34.3224 29.2784 34.3276 29.2857 34.3343C29.2931 34.341 29.299 34.3492 29.3032 34.3582C29.3073 34.3673 29.3096 34.3771 29.3099 34.387C29.3105 34.3969 29.3092 34.4069 29.3059 34.4163C29.3025 34.4257 29.2974 34.4343 29.2907 34.4417C29.284 34.4491 29.2758 34.455 29.2668 34.4592C29.2577 34.4633 29.2479 34.4656 29.238 34.4659C29.1453 34.4768 29.0567 34.5102 28.9799 34.5632C28.9031 34.6162 28.8404 34.6871 28.7972 34.7698C28.7898 34.7799 28.7799 34.788 28.7686 34.7932C28.7572 34.7985 28.7447 34.8008 28.7322 34.8Z" fill="#263238"/>
<path d="M31.238 34.4589C31.2258 34.4585 31.2138 34.4554 31.2029 34.4498C31.1921 34.4442 31.1827 34.4362 31.1753 34.4264C31.1246 34.3466 31.0565 34.2794 30.9762 34.2296C30.8958 34.1798 30.8053 34.1487 30.7113 34.1387C30.6912 34.1381 30.6721 34.1299 30.6578 34.1156C30.6436 34.1014 30.6353 34.0823 30.6348 34.0622C30.6348 34.0419 30.6428 34.0224 30.6572 34.008C30.6715 33.9937 30.691 33.9856 30.7113 33.9856C30.8321 33.9942 30.9493 34.0307 31.0536 34.0923C31.1578 34.1539 31.2464 34.2389 31.3122 34.3406C31.3233 34.3574 31.3276 34.3778 31.3241 34.3976C31.3207 34.4174 31.3098 34.4352 31.2936 34.4473C31.2856 34.4528 31.2765 34.4566 31.267 34.4586C31.2574 34.4606 31.2476 34.4607 31.238 34.4589Z" fill="#263238"/>
<path d="M26.5846 40.354C26.6242 40.3486 26.6646 40.3544 26.7011 40.3708C26.7376 40.3872 26.7688 40.4136 26.791 40.4468C27.4151 41.4027 31.8069 48.2188 32.0226 50.9704C32.1062 52.0352 31.1921 54.4341 30.6098 55.8424C30.4819 56.1489 30.2549 56.4037 29.9651 56.5661C29.6754 56.7284 29.3395 56.7889 29.0113 56.7379L25.6055 56.2043C25.5308 56.1926 25.4593 56.1659 25.3951 56.1259C25.331 56.0859 25.2756 56.0333 25.2322 55.9713C25.1889 55.9094 25.1585 55.8393 25.1429 55.7653C25.1274 55.6913 25.1269 55.6149 25.1415 55.5408C25.267 54.8606 25.326 54.1699 25.3178 53.4783C25.3178 51.6919 25.2181 46.8964 25.2181 46.8964C25.2181 46.8964 26.6101 44.2076 24.949 40.8644C24.9343 40.8343 24.9271 40.8012 24.9278 40.7678C24.9285 40.7343 24.9371 40.7015 24.953 40.6721C24.9688 40.6426 24.9915 40.6173 25.019 40.5984C25.0465 40.5794 25.0782 40.5672 25.1114 40.5628L26.5846 40.354Z" fill="#EF233C"/>
<path opacity="0.1" d="M32.015 50.9703C31.913 49.6688 30.8759 47.4579 29.7461 45.3884C29.2171 47.5669 28.7694 49.8985 28.897 51.142C28.999 52.1419 29.9966 54.2183 30.7042 55.5895C31.2912 54.1673 32.1009 51.9679 32.015 50.9703Z" fill="black"/>
<path opacity="0.6" d="M31.1104 48.0912C30.9643 47.7664 30.8065 47.4323 30.6465 47.0936C29.9017 47.1168 29.1709 47.1214 28.4865 47.1145C28.0887 44.7827 27.3663 42.518 26.3405 40.3865L25.278 40.535C26.3035 42.609 27.03 44.818 27.4356 47.0959C26.5076 47.0727 25.7164 47.0356 25.2246 47.0078C25.2246 47.1841 25.2362 47.5483 25.2455 48.0216C25.786 48.0541 26.6143 48.0935 27.6003 48.1144C28.002 50.8899 27.9346 53.7132 27.4008 56.4664L28.4007 56.6242C28.9435 53.821 29.0219 50.9476 28.6327 48.119H28.9992C29.679 48.133 30.3912 48.1214 31.1104 48.0912Z" fill="white"/>
<path d="M31.8442 40.3819C31.8178 40.3762 31.7904 40.3766 31.7641 40.3832C31.7379 40.3898 31.7135 40.4023 31.6929 40.4198C31.6722 40.4373 31.6559 40.4593 31.6451 40.4841C31.6344 40.5089 31.6295 40.5359 31.6308 40.5629C31.6551 41.6281 31.527 42.6914 31.2503 43.7204C30.5705 46.2724 29.2064 49.5714 29.3688 51.1444C29.4755 52.1977 30.5775 54.4458 31.2851 55.803C31.4475 56.1145 31.7155 56.358 32.0412 56.4898C32.3669 56.6216 32.7289 56.6331 33.0622 56.5222L34.0389 56.1974C34.1657 56.1551 34.2733 56.0691 34.3426 55.9548C34.4119 55.8405 34.4383 55.7053 34.4171 55.5733C34.3359 55.0258 34.2733 53.9493 34.5238 52.0446C34.9229 49.0123 34.5238 45.0846 34.5238 45.0846C33.9586 43.7249 33.5831 42.294 33.4079 40.832C33.4027 40.7951 33.3863 40.7607 33.361 40.7334C33.3358 40.706 33.3027 40.687 33.2664 40.6789L31.8442 40.3819Z" fill="#EF233C"/>
<path opacity="0.6" d="M34.6839 47.7503C34.6839 47.4788 34.6653 47.219 34.6537 46.9754C34.6537 46.8942 34.6537 46.813 34.6421 46.7434C34.3359 46.7967 34.0134 46.8431 33.6839 46.8826C33.5801 44.7897 33.3687 42.7036 33.0506 40.6325L31.9857 40.4167C32.3447 42.5915 32.5771 44.7853 32.6817 46.987C31.8697 47.0543 31.0322 47.0937 30.2132 47.1099C30.1042 47.4579 29.9998 47.8059 29.9023 48.1331C30.8303 48.1168 31.7955 48.0774 32.7327 47.9985C32.7583 48.546 32.7815 49.1191 32.8 49.7223C32.9021 53.2324 32.8975 55.3575 32.8673 56.5755C32.9349 56.564 33.0015 56.5477 33.0668 56.5268L33.8858 56.2554C33.909 54.9747 33.9043 52.9146 33.8092 49.6921C33.7907 49.0611 33.7675 48.4648 33.7419 47.8964C34.0644 47.857 34.3823 47.8129 34.6885 47.7619L34.6839 47.7503Z" fill="white"/>
<path d="M27.9212 51.7221C27.5012 51.4228 25.97 51.7082 25.3042 51.852C25.3042 52.49 25.3181 53.063 25.3181 53.476C25.3181 53.7683 25.3181 54.0328 25.2949 54.2741C25.9468 54.4063 27.4595 54.6754 27.9212 54.411C28.6172 54.0119 28.5568 52.1768 27.9212 51.7221Z" fill="#EF233C"/>
<path opacity="0.2" d="M27.9212 51.7221C27.5012 51.4228 25.97 51.7082 25.3042 51.852C25.3042 52.49 25.3181 53.063 25.3181 53.476C25.3181 53.7683 25.3181 54.0328 25.2949 54.2741C25.9468 54.4063 27.4595 54.6754 27.9212 54.411C28.6172 54.0119 28.5568 52.1768 27.9212 51.7221Z" fill="black"/>
<path d="M30.7857 53.6615C29.8334 53.6727 28.8819 53.6029 27.9414 53.4527L28.0876 52.657C29.9447 52.9257 31.8309 52.9257 33.688 52.657L33.7971 53.4574C32.7991 53.5942 31.793 53.6624 30.7857 53.6615Z" fill="#EF233C"/>
<g opacity="0.2">
<path d="M30.7857 53.6615C29.8334 53.6727 28.8819 53.6029 27.9414 53.4527L28.0876 52.657C29.9447 52.9257 31.8309 52.9257 33.688 52.657L33.7971 53.4574C32.7991 53.5942 31.793 53.6624 30.7857 53.6615Z" fill="black"/>
</g>
<path d="M34.5669 51.6293C34.1446 51.5689 33.741 51.5666 33.5716 51.7221C33.0751 52.1861 33.0287 54.0119 33.5716 54.4086C33.8081 54.5246 34.0751 54.5636 34.3349 54.52C34.337 53.6948 34.3967 52.8707 34.5135 52.0538L34.5669 51.6293Z" fill="#EF233C"/>
<path opacity="0.2" d="M34.5669 51.6293C34.1446 51.5689 33.741 51.5666 33.5716 51.7221C33.0751 52.1861 33.0287 54.0119 33.5716 54.4086C33.8081 54.5246 34.0751 54.5636 34.3349 54.52C34.337 53.6948 34.3967 52.8707 34.5135 52.0538L34.5669 51.6293Z" fill="black"/>
<path d="M27.0366 34.0135C27.0366 34.0135 25.6214 34.4404 26.1597 35.0111C26.1597 35.0111 25.64 35.4403 26.1434 35.851C26.1434 35.851 25.8581 36.5887 26.684 36.547C26.684 36.547 26.6446 37.4193 27.2756 37.1177C27.2756 37.1177 27.4426 37.4425 27.786 37.1803C28.1294 36.9182 27.7071 36.0203 27.7071 36.0203C27.7071 36.0203 28.3103 35.7582 28.1108 35.2037C28.1108 35.2037 28.6398 34.9717 28.3683 34.2757C28.3683 34.2757 28.8068 33.8929 28.656 33.6238L27.0366 34.0135Z" fill="#263238"/>
<path d="M26.6461 36.2593C26.8971 36.563 27.2455 36.7704 27.6321 36.8463C28.1216 36.9298 28.2307 36.4751 27.9824 36.0389C27.7504 35.6445 27.2331 35.1271 26.7969 35.2408C26.3608 35.3545 26.3306 35.8788 26.6461 36.2593Z" fill="#CE7A63"/>
<path d="M31.3556 32.7722L26.5927 34.1341C26.5927 34.1341 25.8247 31.8002 28.1123 31.2526C30.2907 30.7306 31.3556 32.7722 31.3556 32.7722Z" fill="#EF233C"/>
<path d="M28.4084 32.5031L26.506 33.0506C26.4797 33.0576 26.452 33.0576 26.4257 33.0505C26.3993 33.0435 26.3753 33.0296 26.3561 33.0103C26.3368 32.9911 26.3229 32.9671 26.3159 32.9407C26.3088 32.9144 26.3088 32.8867 26.3158 32.8604L26.4411 32.3964C26.4494 32.366 26.4667 32.3389 26.4907 32.3186C26.5147 32.2983 26.5443 32.2858 26.5756 32.2827L28.3597 32.104C28.3773 32.1021 28.3951 32.1039 28.4119 32.1093C28.4288 32.1147 28.4443 32.1236 28.4574 32.1354C28.4706 32.1473 28.4811 32.1618 28.4882 32.1779C28.4954 32.1941 28.499 32.2116 28.4989 32.2293V32.3778C28.5 32.4058 28.4917 32.4333 28.4753 32.4561C28.4589 32.4788 28.4353 32.4953 28.4084 32.5031Z" fill="#EF233C"/>
<path opacity="0.2" d="M28.4084 32.5031L26.506 33.0506C26.4797 33.0576 26.452 33.0576 26.4257 33.0505C26.3993 33.0435 26.3753 33.0296 26.3561 33.0103C26.3368 32.9911 26.3229 32.9671 26.3159 32.9407C26.3088 32.9144 26.3088 32.8867 26.3158 32.8604L26.4411 32.3964C26.4494 32.366 26.4667 32.3389 26.4907 32.3186C26.5147 32.2983 26.5443 32.2858 26.5756 32.2827L28.3597 32.104C28.3773 32.1021 28.3951 32.1039 28.4119 32.1093C28.4288 32.1147 28.4443 32.1236 28.4574 32.1354C28.4706 32.1473 28.4811 32.1618 28.4882 32.1779C28.4954 32.1941 28.499 32.2116 28.4989 32.2293V32.3778C28.5 32.4058 28.4917 32.4333 28.4753 32.4561C28.4589 32.4788 28.4353 32.4953 28.4084 32.5031Z" fill="white"/>
<path d="M30.5742 31.9997L30.0731 32.0763C29.9651 32.0947 29.8542 32.0697 29.7645 32.0067C29.3986 31.7388 28.9666 31.5757 28.5149 31.5348C28.0633 31.4939 27.609 31.5769 27.2009 31.7747C27.1914 31.7806 27.1799 31.7824 27.1691 31.7798C27.1582 31.7771 27.1488 31.7703 27.1429 31.7608C27.1371 31.7512 27.1353 31.7398 27.1379 31.7289C27.1405 31.718 27.1473 31.7086 27.1569 31.7028C27.7044 31.255 29.0453 30.4662 30.6369 31.7561C30.6591 31.7719 30.6761 31.794 30.6855 31.8196C30.6949 31.8453 30.6963 31.8731 30.6895 31.8995C30.6827 31.926 30.668 31.9497 30.6475 31.9676C30.6269 31.9855 30.6013 31.9967 30.5742 31.9997Z" fill="#EF233C"/>
<path opacity="0.2" d="M30.5742 31.9997L30.0731 32.0763C29.9651 32.0947 29.8542 32.0697 29.7645 32.0067C29.3986 31.7388 28.9666 31.5757 28.5149 31.5348C28.0633 31.4939 27.609 31.5769 27.2009 31.7747C27.1914 31.7806 27.1799 31.7824 27.1691 31.7798C27.1582 31.7771 27.1488 31.7703 27.1429 31.7608C27.1371 31.7512 27.1353 31.7398 27.1379 31.7289C27.1405 31.718 27.1473 31.7086 27.1569 31.7028C27.7044 31.255 29.0453 30.4662 30.6369 31.7561C30.6591 31.7719 30.6761 31.794 30.6855 31.8196C30.6949 31.8453 30.6963 31.8731 30.6895 31.8995C30.6827 31.926 30.668 31.9497 30.6475 31.9676C30.6269 31.9855 30.6013 31.9967 30.5742 31.9997Z" fill="white"/>
<path opacity="0.6" d="M31.1316 32.4266L29.9716 32.705C29.9465 32.7115 29.92 32.7096 29.8961 32.6995C29.8722 32.6894 29.8523 32.6718 29.8394 32.6493L29.7512 32.4962C29.7421 32.4795 29.7371 32.4609 29.7364 32.4419C29.7357 32.4229 29.7395 32.404 29.7474 32.3867C29.7552 32.3694 29.767 32.3541 29.7818 32.3421C29.7965 32.3301 29.8139 32.3217 29.8324 32.3176L30.8509 32.1064C30.9506 32.2076 31.0444 32.3145 31.1316 32.4266Z" fill="white"/>
<path d="M31.284 32.6494C31.284 32.6494 33.0936 33.1134 31.3559 33.4985C30.0555 33.7625 28.7371 33.9293 27.4119 33.9973L26.6254 34.2293C26.586 34.2409 26.5437 34.2364 26.5076 34.2168C26.4716 34.1973 26.4447 34.1642 26.4329 34.1249V34.0994C26.4265 34.079 26.4244 34.0575 26.4266 34.0363C26.4289 34.015 26.4354 33.9944 26.4458 33.9758C26.4562 33.9571 26.4703 33.9408 26.4872 33.9277C26.5041 33.9147 26.5235 33.9052 26.5442 33.8999L31.284 32.6494Z" fill="#EF233C"/>
<path opacity="0.2" d="M31.284 32.6494C31.284 32.6494 33.0936 33.1134 31.3559 33.4985C30.0555 33.7625 28.7371 33.9293 27.4119 33.9973L26.6254 34.2293C26.586 34.2409 26.5437 34.2364 26.5076 34.2168C26.4716 34.1973 26.4447 34.1642 26.4329 34.1249V34.0994C26.4265 34.079 26.4244 34.0575 26.4266 34.0363C26.4289 34.015 26.4354 33.9944 26.4458 33.9758C26.4562 33.9571 26.4703 33.9408 26.4872 33.9277C26.5041 33.9147 26.5235 33.9052 26.5442 33.8999L31.284 32.6494Z" fill="white"/>
<path d="M34.5026 46.6506H29.793L27.3965 52.4158L27.545 52.5434H32.2546L34.6488 46.7782L34.5026 46.6506Z" fill="#263238"/>
<path opacity="0.4" d="M34.5026 46.6506H29.793L27.3965 52.4158L27.545 52.5434H32.2546L34.6488 46.7782L34.5026 46.6506Z" fill="white"/>
<path d="M32.2545 52.5433H27.5449L29.9415 46.7781H34.6488L32.2545 52.5433Z" fill="#263238"/>
<path d="M33.282 46.5671H31.4886L31.2148 47.2283L31.2752 47.2817H33.0685L33.3446 46.6205L33.282 46.5671Z" fill="#EF233C"/>
<path opacity="0.5" d="M33.282 46.5671H31.4886L31.2148 47.2283L31.2752 47.2817H33.0685L33.3446 46.6205L33.282 46.5671Z" fill="white"/>
<path d="M33.0687 47.2816L33.3448 46.6204H31.5515L31.2754 47.2816H33.0687Z" fill="#EF233C"/>
<path opacity="0.2" d="M33.0687 47.2816L33.3448 46.6204H31.5515L31.2754 47.2816H33.0687Z" fill="white"/>
<path d="M27.0433 49.6689L28.5653 49.0193L28.1825 51.04C28.1825 51.04 26.7325 51.3718 26.6211 50.6108L27.0433 49.6689Z" fill="#CE7A63"/>
<path d="M29.9677 49.6643L29.0907 51.3254L28.1836 51.0493L28.5664 49.0193L29.9677 49.6643Z" fill="#CE7A63"/>
<path d="M23.4307 48.5134H21.1687C21.1508 48.8385 21.1852 49.1644 21.2707 49.4785C21.2893 49.5412 21.3102 49.6038 21.3357 49.6711C21.3661 49.7511 21.4025 49.8287 21.4447 49.9031C21.5196 50.0388 21.6116 50.1644 21.7185 50.2766C21.8916 50.4593 22.0948 50.6108 22.3194 50.7244C22.6514 50.8917 23.0063 51.0089 23.3727 51.0724C23.6792 51.1285 23.9893 51.1626 24.3007 51.1745C25.4679 51.2061 26.6342 51.0828 27.7691 50.8079L27.6438 49.6177C26.5998 49.5739 25.5598 49.4623 24.5303 49.2837C24.2999 49.2376 24.0722 49.1787 23.8483 49.1073C23.6881 49.0517 23.5328 48.9826 23.3843 48.9009C23.3831 48.7709 23.3947 48.6411 23.4191 48.5134H23.4307Z" fill="#CE7A63"/>
</svg>
