<svg width="116" height="116" viewBox="0 0 116 116" fill="none" xmlns="http://www.w3.org/2000/svg">
<path d="M116 88.7168H0V88.7748H116V88.7168Z" fill="#EBEBEB"/>
<path d="M104.375 92.4497H96.6914V92.5077H104.375V92.4497Z" fill="#EBEBEB"/>
<path d="M76.8442 93.0807H74.8281V93.1387H76.8442V93.0807Z" fill="#EBEBEB"/>
<path d="M96.4599 90.2968H92.0078V90.3548H96.4599V90.2968Z" fill="#EBEBEB"/>
<path d="M22.192 90.6865H12.1719V90.7445H22.192V90.6865Z" fill="#EBEBEB"/>
<path d="M25.7264 90.6865H24.2578V90.7445H25.7264V90.6865Z" fill="#EBEBEB"/>
<path d="M52.2338 91.6655H30.5V91.7235H52.2338V91.6655Z" fill="#EBEBEB"/>
<path d="M54.9826 78.3696H10.1857C9.83475 78.369 9.49839 78.2292 9.25046 77.9808C9.00253 77.7324 8.86328 77.3958 8.86328 77.0449V14.0731C8.86634 13.7242 9.00693 13.3906 9.25454 13.1447C9.50214 12.8989 9.83675 12.7606 10.1857 12.76H54.9826C55.3339 12.76 55.6709 12.8996 55.9193 13.148C56.1677 13.3964 56.3073 13.7334 56.3073 14.0847V77.0449C56.3073 77.3962 56.1677 77.7332 55.9193 77.9816C55.6709 78.23 55.3339 78.3696 54.9826 78.3696ZM10.1857 12.8064C9.85013 12.807 9.52853 12.9408 9.29147 13.1782C9.05442 13.4157 8.92128 13.7376 8.92128 14.0731V77.0449C8.92128 77.3804 9.05442 77.7023 9.29147 77.9398C9.52853 78.1773 9.85013 78.311 10.1857 78.3116H54.9826C55.3183 78.311 55.6402 78.1773 55.8776 77.9399C56.115 77.7025 56.2487 77.3807 56.2493 77.0449V14.0731C56.2487 13.7374 56.115 13.4155 55.8776 13.1781C55.6402 12.9407 55.3183 12.807 54.9826 12.8064H10.1857Z" fill="#EBEBEB"/>
<path d="M105.167 78.3696H60.3677C60.0165 78.369 59.68 78.2292 59.4317 77.9809C59.1834 77.7326 59.0436 77.396 59.043 77.0449V14.0731C59.0466 13.724 59.1877 13.3904 59.4357 13.1446C59.6837 12.8988 60.0185 12.7606 60.3677 12.76H105.167C105.515 12.7612 105.849 12.8997 106.097 13.1455C106.344 13.3913 106.484 13.7246 106.487 14.0731V77.0449C106.487 77.3954 106.348 77.7317 106.101 77.98C105.853 78.2283 105.517 78.3684 105.167 78.3696ZM60.3677 12.8064C60.0319 12.807 59.7101 12.9407 59.4727 13.1781C59.2352 13.4155 59.1016 13.7374 59.101 14.0731V77.0449C59.1016 77.3807 59.2352 77.7025 59.4727 77.9399C59.7101 78.1773 60.0319 78.311 60.3677 78.3116H105.167C105.503 78.311 105.824 78.1773 106.062 77.9399C106.299 77.7025 106.433 77.3807 106.434 77.0449V14.0731C106.433 13.7374 106.299 13.4155 106.062 13.1781C105.824 12.9407 105.503 12.807 105.167 12.8064H60.3677Z" fill="#EBEBEB"/>
<path d="M62.1263 88.7168H70.2695V58.3874H62.1263V88.7168Z" fill="#E6E6E6"/>
<path d="M63.4799 88.7168H62.125V85.9862H64.902L63.4799 88.7168Z" fill="#F0F0F0"/>
<path d="M95.267 88.7168H103.41V58.3874H95.267V88.7168Z" fill="#E6E6E6"/>
<path d="M62.1264 87.6682H96.4531V58.3875H62.1264L62.1264 87.6682Z" fill="#F0F0F0"/>
<path d="M63.1799 67.7139H95.4023V59.6844H63.1799V67.7139Z" fill="#E6E6E6"/>
<path d="M77.7658 62.176H80.8096C82.132 62.176 83.3964 61.1853 84.3059 59.436H74.2695C75.179 61.19 76.4434 62.176 77.7658 62.176Z" fill="#F0F0F0"/>
<path d="M95.0979 88.7168H96.4528V85.9862H93.6758L95.0979 88.7168Z" fill="#F0F0F0"/>
<path d="M63.1799 77.0426H95.4023V69.0131H63.1799V77.0426Z" fill="#E6E6E6"/>
<path d="M77.7658 71.507H80.8096C82.132 71.507 83.3964 70.5164 84.3059 68.7671H74.2695C75.179 70.528 76.4434 71.507 77.7658 71.507Z" fill="#F0F0F0"/>
<path d="M63.1799 86.3713H95.4023V78.3418H63.1799V86.3713Z" fill="#E6E6E6"/>
<path d="M77.7658 80.8357H80.8096C82.132 80.8357 83.3964 79.8451 84.3059 78.0958H74.2695C75.179 79.8451 76.4434 80.8357 77.7658 80.8357Z" fill="#F0F0F0"/>
<path d="M18.0941 51.5087L49.1914 51.5087L49.1914 20.0425L18.0941 20.0425L18.0941 51.5087Z" fill="#E6E6E6"/>
<path d="M15.933 51.5087L48.6172 51.5087L48.6172 20.0425L15.933 20.0425L15.933 51.5087Z" fill="#F0F0F0"/>
<path d="M45.8828 48.771V22.78H18.6762V48.771H45.8828Z" fill="white"/>
<path d="M32.0915 26.216L27.0989 31.218C25.8924 32.4275 25.2148 34.0661 25.2148 35.7744C25.2148 37.4828 25.8924 39.1214 27.0989 40.3309L32.0915 45.3259C32.1159 45.3503 32.1448 45.3697 32.1766 45.3829C32.2085 45.3961 32.2426 45.4029 32.2771 45.4029C32.3116 45.4029 32.3457 45.3961 32.3776 45.3829C32.4094 45.3697 32.4383 45.3503 32.4627 45.3259L37.4577 40.3309C38.6641 39.1214 39.3417 37.4828 39.3417 35.7744C39.3417 34.0661 38.6641 32.4275 37.4577 31.218L32.465 26.216C32.4151 26.1672 32.3481 26.1398 32.2783 26.1398C32.2084 26.1398 32.1414 26.1672 32.0915 26.216ZM27.4701 39.9504C26.3623 38.8397 25.7403 37.335 25.7403 35.7663C25.7403 34.1976 26.3623 32.6929 27.4701 31.5822V39.9504ZM37.0865 39.9504V31.5915C38.1942 32.7022 38.8163 34.2069 38.8163 35.7756C38.8163 37.3443 38.1942 38.849 37.0865 39.9597V39.9504Z" fill="#F0F0F0"/>
<path d="M94.3886 47.5601H77.0141L76.0234 57.8191H93.3979L94.3886 47.5601Z" fill="#E6E6E6"/>
<path d="M93.3995 57.8191L93.3299 58.3875H75.9531L76.025 57.8191H93.3995Z" fill="#E6E6E6"/>
<path d="M93.8557 47.5601H76.4812L75.4883 57.8191H92.8628L93.8557 47.5601Z" fill="#F0F0F0"/>
<path d="M92.5105 57.1509L93.2367 48.256C93.2386 48.2265 93.2344 48.1968 93.2244 48.1689C93.2145 48.1409 93.1989 48.1153 93.1787 48.0936C93.1585 48.0719 93.1341 48.0545 93.107 48.0426C93.0799 48.0306 93.0506 48.0243 93.0209 48.024H77.0477C76.9929 48.0239 76.9401 48.0443 76.8997 48.0812C76.8593 48.1182 76.8343 48.169 76.8296 48.2236L76.0942 57.1161C76.0923 57.1459 76.0965 57.1758 76.1066 57.2039C76.1167 57.232 76.1325 57.2577 76.1529 57.2794C76.1734 57.3012 76.1981 57.3185 76.2255 57.3303C76.2529 57.3421 76.2824 57.3482 76.3123 57.3481H92.2855C92.3412 57.3507 92.3958 57.3316 92.4377 57.2949C92.4797 57.2581 92.5058 57.2065 92.5105 57.1509Z" fill="white"/>
<path d="M88.3355 57.8191L88.2659 58.3875H69.1328L69.2024 57.8191H88.3355Z" fill="#F0F0F0"/>
<path d="M64.9793 42.0756L97.6055 42.0756V20.3859L64.9793 20.3859V42.0756Z" fill="#E6E6E6"/>
<path d="M64.2567 42.0756L96.8828 42.0756V20.3859L64.2567 20.3859V42.0756Z" fill="#F5F5F5"/>
<path d="M95.582 40.6139V21.8497L65.5589 21.8497V40.6139H95.582Z" fill="white"/>
<path d="M66.1055 40.6116V21.8474H65.5579V40.6116H66.1055Z" fill="#E6E6E6"/>
<path d="M64.7941 38.1245L96.3438 38.1245V36.1618L64.7941 36.1618V38.1245Z" fill="#F5F5F5"/>
<path d="M62.8386 17.9684H99.0306C99.0833 17.969 99.1337 17.9902 99.171 18.0275C99.2083 18.0648 99.2295 18.1152 99.2301 18.1679C99.2301 18.2208 99.2091 18.2716 99.1716 18.309C99.1342 18.3464 99.0835 18.3674 99.0306 18.3674H62.8386C62.8122 18.3677 62.786 18.3628 62.7615 18.3529C62.737 18.343 62.7147 18.3284 62.696 18.3098C62.6772 18.2913 62.6623 18.2692 62.6521 18.2448C62.642 18.2204 62.6367 18.1943 62.6367 18.1679C62.6373 18.1148 62.6589 18.064 62.6966 18.0267C62.7344 17.9893 62.7854 17.9684 62.8386 17.9684Z" fill="#E6E6E6"/>
<path d="M62.1367 18.1679C62.1367 18.2669 62.1661 18.3637 62.221 18.446C62.276 18.5284 62.3541 18.5926 62.4455 18.6306C62.537 18.6686 62.6376 18.6787 62.7348 18.6595C62.8319 18.6404 62.9212 18.5929 62.9914 18.523C63.0615 18.4532 63.1095 18.3641 63.129 18.2671C63.1486 18.17 63.1391 18.0693 63.1015 17.9777C63.0639 17.8861 63 17.8077 62.9179 17.7523C62.8358 17.697 62.7392 17.6672 62.6402 17.6668C62.5742 17.6664 62.5087 17.6792 62.4477 17.7042C62.3866 17.7293 62.3311 17.7661 62.2843 17.8127C62.2375 17.8593 62.2004 17.9146 62.1751 17.9756C62.1498 18.0365 62.1367 18.1019 62.1367 18.1679Z" fill="#E6E6E6"/>
<path d="M97.3355 19.2908C97.4067 19.2909 97.4751 19.2629 97.5258 19.213C97.5766 19.1631 97.6058 19.0952 97.607 19.024V18.444C97.607 18.3721 97.5784 18.303 97.5275 18.2521C97.4766 18.2012 97.4075 18.1726 97.3355 18.1726C97.3 18.1726 97.2648 18.1796 97.232 18.1933C97.1992 18.207 97.1694 18.227 97.1444 18.2522C97.1194 18.2775 97.0996 18.3074 97.0862 18.3403C97.0728 18.3733 97.0661 18.4085 97.0664 18.444V19.024C97.0676 19.0948 97.0964 19.1623 97.1467 19.2122C97.197 19.262 97.2647 19.2903 97.3355 19.2908Z" fill="#E6E6E6"/>
<path d="M65.8565 19.2908C65.9259 19.2879 65.9916 19.2587 66.0403 19.2092C66.089 19.1597 66.117 19.0935 66.1187 19.024V18.444C66.1187 18.3721 66.0901 18.303 66.0392 18.2521C65.9883 18.2012 65.9192 18.1726 65.8472 18.1726C65.8117 18.1726 65.7765 18.1796 65.7437 18.1933C65.7109 18.207 65.6811 18.227 65.6561 18.2522C65.6311 18.2775 65.6113 18.3074 65.5979 18.3403C65.5846 18.3733 65.5778 18.4085 65.5781 18.444V19.024C65.5787 19.0599 65.5864 19.0953 65.6008 19.1281C65.6151 19.161 65.6358 19.1907 65.6617 19.2155C65.6876 19.2403 65.7182 19.2597 65.7516 19.2726C65.785 19.2856 65.8207 19.2918 65.8565 19.2908Z" fill="#E6E6E6"/>
<path opacity="0.4" d="M62.901 39.2405L96.3438 39.2405V18.1679L62.901 18.1679V39.2405Z" fill="#E0E0E0"/>
<path d="M93.6133 18.168C93.6133 18.2671 93.6427 18.364 93.6977 18.4464C93.7528 18.5288 93.8311 18.593 93.9226 18.631C94.0142 18.6689 94.115 18.6788 94.2122 18.6595C94.3094 18.6401 94.3987 18.5924 94.4687 18.5223C94.5388 18.4523 94.5866 18.363 94.6059 18.2658C94.6252 18.1685 94.6153 18.0678 94.5774 17.9762C94.5394 17.8847 94.4752 17.8064 94.3928 17.7513C94.3104 17.6963 94.2135 17.6669 94.1144 17.6669C93.9815 17.6669 93.854 17.7197 93.7601 17.8136C93.6661 17.9076 93.6133 18.0351 93.6133 18.168Z" fill="#E6E6E6"/>
<path d="M46.2829 87.2135H48.9648V63.9509H46.2829V87.2135Z" fill="#F0F0F0"/>
<path d="M17.1929 88.6866H47.9375V87.2135H17.1929V88.6866Z" fill="#F0F0F0"/>
<path d="M46.283 63.9508H16.1602V87.2134H46.283V63.9508Z" fill="#F5F5F5"/>
<path d="M42.5228 66.8137H19.9214C19.0091 66.8137 18.2695 67.5533 18.2695 68.4656V72.79C18.2695 73.7023 19.0091 74.4419 19.9214 74.4419H42.5228C43.4351 74.4419 44.1747 73.7023 44.1747 72.79V68.4656C44.1747 67.5533 43.4351 66.8137 42.5228 66.8137Z" fill="#F0F0F0"/>
<path d="M42.5228 76.7201H19.9214C19.0091 76.7201 18.2695 77.4596 18.2695 78.3719V82.6964C18.2695 83.6087 19.0091 84.3483 19.9214 84.3483H42.5228C43.4351 84.3483 44.1747 83.6087 44.1747 82.6964V78.3719C44.1747 77.4596 43.4351 76.7201 42.5228 76.7201Z" fill="#F0F0F0"/>
<path d="M25.6103 71.152H36.8344C36.9731 71.152 37.1061 71.0971 37.2044 70.9993C37.3026 70.9015 37.3581 70.7687 37.3587 70.63C37.3581 70.4912 37.3027 70.3582 37.2045 70.26C37.1063 70.1618 36.9733 70.1063 36.8344 70.1057H25.6103C25.4714 70.1063 25.3384 70.1618 25.2402 70.26C25.142 70.3582 25.0865 70.4912 25.0859 70.63C25.0866 70.7687 25.1421 70.9015 25.2403 70.9993C25.3386 71.0971 25.4716 71.152 25.6103 71.152Z" fill="#F5F5F5"/>
<path d="M25.6103 81.0585H36.8344C36.9731 81.0585 37.1061 81.0036 37.2044 80.9058C37.3026 80.8079 37.3581 80.6752 37.3587 80.5365C37.3581 80.3977 37.3027 80.2647 37.2045 80.1665C37.1063 80.0683 36.9733 80.0128 36.8344 80.0122H25.6103C25.4714 80.0128 25.3384 80.0683 25.2402 80.1665C25.142 80.2647 25.0865 80.3977 25.0859 80.5365C25.0866 80.6752 25.1421 80.8079 25.2403 80.9058C25.3386 81.0036 25.4716 81.0585 25.6103 81.0585Z" fill="#F5F5F5"/>
<path d="M57.9981 99.1939C82.8412 99.1939 102.981 98.0181 102.981 96.5676C102.981 95.1172 82.8412 93.9414 57.9981 93.9414C33.155 93.9414 13.0156 95.1172 13.0156 96.5676C13.0156 98.0181 33.155 99.1939 57.9981 99.1939Z" fill="#F5F5F5"/>
<path d="M67.94 23.5364H25.0664L28.3979 81.9238H71.2692L67.94 23.5364Z" fill="#263238"/>
<path d="M68.772 23.5364H25.8984L29.23 81.9238H72.1036L68.772 23.5364Z" fill="#EF233C"/>
<path opacity="0.5" d="M65.8192 25.4991H27.8594L30.5807 78.3511H69.5266L65.8192 25.4991Z" fill="black"/>
<path d="M27.8594 25.4991C30.6805 43.1172 28.7456 60.7353 31.5714 78.3511H70.5126C67.6915 60.7353 69.6263 43.1172 66.8006 25.4991H27.8594Z" fill="white"/>
<g opacity="0.3">
<path d="M35.8211 41.3355C36.6811 41.3424 37.5056 41.679 38.1246 42.276C38.7436 42.873 39.1099 43.6849 39.148 44.544C39.1653 44.9573 39.0983 45.3698 38.9512 45.7564C38.804 46.143 38.5797 46.4956 38.2919 46.7927C38.0041 47.0898 37.6588 47.3253 37.2771 47.4847C36.8954 47.6442 36.4853 47.7242 36.0716 47.7201C35.217 47.713 34.3978 47.3773 33.784 46.7825C33.1702 46.1877 32.8089 45.3795 32.7749 44.5255C32.757 44.1134 32.8224 43.7019 32.9671 43.3157C33.1118 42.9294 33.3329 42.5763 33.6171 42.2774C33.9022 41.9812 34.2446 41.7461 34.6236 41.5866C35.0025 41.427 35.4099 41.3463 35.8211 41.3494M35.7979 40.6789C35.2978 40.6758 34.8024 40.7747 34.3418 40.9696C33.8813 41.1644 33.4653 41.4512 33.1194 41.8123C32.7735 42.1735 32.5048 42.6014 32.3299 43.0699C32.155 43.5383 32.0775 44.0376 32.1021 44.5371C32.1426 45.5682 32.5785 46.5441 33.3193 47.2625C34.0601 47.9809 35.049 48.3865 36.0809 48.3952C36.5833 48.3994 37.0812 48.3015 37.5447 48.1076C38.0081 47.9136 38.4273 47.6277 38.777 47.2669C39.1266 46.9062 39.3994 46.4783 39.5788 46.0091C39.7582 45.5398 39.8406 45.039 39.8208 44.5371C39.7709 43.5015 39.3261 42.5243 38.5778 41.8067C37.8295 41.089 36.8347 40.6854 35.7979 40.6789Z" fill="#EF233C"/>
</g>
<path d="M57.3527 70.2774H45.0567C44.9647 70.2759 44.8734 70.2939 44.789 70.3304C44.7045 70.3669 44.6288 70.421 44.5669 70.4891C44.505 70.5571 44.4583 70.6376 44.43 70.7251C44.4016 70.8126 44.3922 70.9052 44.4025 70.9966C44.4248 71.1922 44.5173 71.3731 44.6628 71.5057C44.8082 71.6384 44.9968 71.7138 45.1936 71.7182H57.4896C57.5816 71.7198 57.673 71.7018 57.7574 71.6651C57.8418 71.6284 57.9174 71.574 57.979 71.5056C58.0406 71.4372 58.0868 71.3563 58.1144 71.2685C58.142 71.1807 58.1505 71.088 58.1392 70.9966C58.1173 70.8019 58.0256 70.6216 57.8809 70.4894C57.7363 70.3571 57.5486 70.2818 57.3527 70.2774Z" fill="#E0E0E0"/>
<path d="M63.9309 67.2499H44.8095C44.7169 67.2481 44.6251 67.266 44.5399 67.3022C44.4548 67.3385 44.3783 67.3924 44.3154 67.4603C44.2525 67.5282 44.2047 67.6086 44.1751 67.6963C44.1455 67.784 44.1348 67.8769 44.1436 67.9691C44.1603 68.164 44.2488 68.3458 44.392 68.4792C44.5352 68.6125 44.7229 68.6878 44.9185 68.6906H64.0307C64.1234 68.6932 64.2155 68.6763 64.3012 68.6407C64.3868 68.6052 64.464 68.5519 64.5275 68.4844C64.5911 68.4169 64.6396 68.3367 64.6699 68.2491C64.7003 68.1614 64.7117 68.0684 64.7035 67.976C64.6884 67.7805 64.6009 67.5975 64.458 67.4632C64.315 67.3289 64.127 67.2528 63.9309 67.2499Z" fill="#E0E0E0"/>
<g opacity="0.3">
<path d="M36.2129 53.824C37.0666 53.8301 37.8848 54.1659 38.4966 54.7613C39.1084 55.3566 39.4664 56.1655 39.4957 57.0186C39.5113 57.4316 39.4436 57.8436 39.2965 58.2298C39.1494 58.6161 38.926 58.9687 38.6396 59.2667C38.353 59.5635 38.009 59.7989 37.6285 59.9584C37.2479 60.118 36.8389 60.1984 36.4263 60.1947C35.5706 60.1888 34.75 59.8537 34.1349 59.2589C33.5197 58.664 33.1572 57.8551 33.1227 57.0001C33.1086 56.5864 33.1782 56.1742 33.3275 55.7882C33.4767 55.4021 33.7024 55.0502 33.991 54.7536C34.2796 54.4569 34.6252 54.2217 35.007 54.0619C35.3889 53.9022 35.799 53.8213 36.2129 53.824ZM36.2129 53.1512C35.7102 53.1481 35.2121 53.2466 34.7484 53.4407C34.2847 53.6348 33.865 53.9206 33.5144 54.2809C33.1639 54.6412 32.8897 55.0686 32.7084 55.5374C32.527 56.0063 32.4423 56.5069 32.4591 57.0094C32.5003 58.0433 32.9386 59.0215 33.6827 59.7406C34.4268 60.4596 35.4194 60.8641 36.4542 60.8698C36.9554 60.8718 37.4518 60.7723 37.9134 60.5772C38.3751 60.3821 38.7925 60.0956 39.1405 59.7349C39.4884 59.3741 39.7597 58.9467 39.938 58.4782C40.1163 58.0098 40.1978 57.5101 40.1778 57.0094C40.143 55.9787 39.7109 55.0015 38.9718 54.2823C38.2328 53.5631 37.2441 53.1578 36.2129 53.1512Z" fill="#EF233C"/>
</g>
<path d="M50.5278 43.7297H43.9506C43.7573 43.7281 43.572 43.6523 43.433 43.518C43.294 43.3838 43.2118 43.2012 43.2035 43.0081C43.2004 42.9148 43.2161 42.8218 43.2497 42.7347C43.2833 42.6475 43.334 42.568 43.399 42.5009C43.4639 42.4338 43.5417 42.3805 43.6277 42.344C43.7137 42.3076 43.8061 42.2889 43.8995 42.2889H50.4744C50.6677 42.2905 50.8532 42.3657 50.9929 42.4994C51.1326 42.6331 51.216 42.815 51.2261 43.0081C51.2295 43.1019 51.214 43.1953 51.1804 43.2829C51.1468 43.3704 51.0959 43.4503 51.0307 43.5177C50.9654 43.5851 50.8873 43.6386 50.8009 43.675C50.7144 43.7115 50.6215 43.73 50.5278 43.7297Z" fill="#E0E0E0"/>
<path d="M58.1182 43.7297H53.6638C53.4703 43.7281 53.2848 43.6524 53.1454 43.5182C53.006 43.384 52.9233 43.2014 52.9144 43.0081C52.9113 42.9148 52.927 42.8218 52.9606 42.7347C52.9942 42.6475 53.045 42.568 53.1099 42.5009C53.1749 42.4338 53.2526 42.3805 53.3386 42.344C53.4246 42.3076 53.5171 42.2889 53.6104 42.2889H58.0672C58.2603 42.2905 58.4455 42.3658 58.5848 42.4996C58.7242 42.6333 58.8071 42.8153 58.8165 43.0081C58.82 43.1019 58.8044 43.1953 58.7709 43.2829C58.7373 43.3704 58.6863 43.4503 58.6211 43.5177C58.5559 43.5851 58.4777 43.6386 58.3913 43.675C58.3049 43.7115 58.212 43.73 58.1182 43.7297Z" fill="#E0E0E0"/>
<path d="M61.7089 46.7574H44.0537C43.8605 46.7563 43.6752 46.6807 43.5364 46.5462C43.3976 46.4118 43.3162 46.2289 43.309 46.0358C43.3059 45.9425 43.3216 45.8495 43.3551 45.7624C43.3887 45.6752 43.4395 45.5957 43.5044 45.5286C43.5694 45.4615 43.6472 45.4082 43.7332 45.3718C43.8192 45.3353 43.9116 45.3166 44.005 45.3167H61.6579C61.8505 45.3177 62.0352 45.3931 62.1735 45.5271C62.3119 45.6611 62.3931 45.8434 62.4003 46.0358C62.4037 46.129 62.3884 46.2219 62.3552 46.309C62.3221 46.3961 62.2717 46.4756 62.2073 46.5429C62.1428 46.6102 62.0654 46.6639 61.9798 46.7007C61.8942 46.7375 61.8021 46.7568 61.7089 46.7574Z" fill="#E0E0E0"/>
<g opacity="0.3">
<path d="M36.7178 66.2964C37.5832 66.3134 38.412 66.6489 39.0455 67.2387C39.679 67.8286 40.0728 68.6313 40.1514 69.4934C40.193 69.8972 40.1504 70.3054 40.0262 70.6919C39.902 71.0785 39.6989 71.4351 39.4299 71.7391C39.1586 72.0379 38.8265 72.2753 38.456 72.4353C38.0855 72.5954 37.6851 72.6744 37.2815 72.6671C36.4086 72.653 35.5709 72.3206 34.9258 71.7323C34.2807 71.144 33.8727 70.3404 33.7784 69.4725C33.7386 69.0656 33.7854 68.6549 33.9157 68.2674C34.0461 67.88 34.257 67.5245 34.5347 67.2244C34.814 66.9264 35.1525 66.69 35.5284 66.5302C35.9043 66.3704 36.3094 66.2908 36.7178 66.2964ZM36.6853 65.6259C36.1885 65.6162 35.6952 65.7116 35.2378 65.9058C34.7804 66.1001 34.3692 66.3888 34.0312 66.7531C33.6932 67.1174 33.436 67.549 33.2765 68.0197C33.1169 68.4903 33.0587 68.9894 33.1055 69.4841C33.2842 71.6138 35.2167 73.3422 37.3465 73.3422C39.4763 73.3422 41.0028 71.6138 40.8265 69.4841C40.7345 68.4435 40.2608 67.4738 39.4967 66.7615C38.7326 66.0493 37.7321 65.6448 36.6876 65.6259H36.6853Z" fill="#EF233C"/>
</g>
<path d="M64.7285 57.7981H44.3565C44.2632 57.7981 44.1707 57.8168 44.0847 57.8532C43.9987 57.8897 43.921 57.943 43.856 58.0101C43.7911 58.0772 43.7403 58.1567 43.7067 58.2439C43.6731 58.331 43.6574 58.424 43.6605 58.5173C43.6689 58.7098 43.7508 58.8917 43.8893 59.0256C44.0279 59.1594 44.2126 59.2349 44.4053 59.2365H64.7865C64.8798 59.2366 64.9723 59.2178 65.0583 59.1814C65.1443 59.145 65.2221 59.0917 65.287 59.0245C65.3519 58.9574 65.4027 58.8779 65.4363 58.7908C65.4699 58.7037 65.4856 58.6107 65.4825 58.5173C65.4752 58.3229 65.3924 58.1389 65.2516 58.0046C65.1107 57.8703 64.9231 57.7962 64.7285 57.7981Z" fill="#E0E0E0"/>
<path d="M59.8989 54.7683H44.2668C44.1732 54.7682 44.0806 54.7871 43.9944 54.8236C43.9083 54.8602 43.8304 54.9137 43.7654 54.9811C43.7004 55.0485 43.6497 55.1282 43.6163 55.2156C43.5828 55.303 43.5673 55.3963 43.5708 55.4898C43.5774 55.6821 43.6581 55.8643 43.7961 55.9984C43.934 56.1325 44.1185 56.2079 44.3109 56.209H59.9453C60.0387 56.2091 60.1312 56.1903 60.2172 56.1539C60.3031 56.1175 60.3809 56.0642 60.4459 55.997C60.5108 55.9299 60.5616 55.8504 60.5952 55.7633C60.6287 55.6762 60.6445 55.5832 60.6413 55.4898C60.6359 55.2966 60.5553 55.1131 60.4166 54.9783C60.278 54.8436 60.0923 54.7682 59.8989 54.7683Z" fill="#E0E0E0"/>
<path d="M36.1746 46.799L35.9008 46.3489C35.2999 45.3676 34.0448 44.4929 33.6133 44.2354L33.9381 43.6601C34.7902 44.1759 35.5495 44.8316 36.1838 45.5996C37.1698 44.2749 38.6106 42.913 40.5617 41.4421L40.9816 41.985C38.8936 43.5557 37.4134 45.001 36.4646 46.3768C36.3694 46.5183 36.272 46.6598 36.1746 46.799Z" fill="#EF233C"/>
<path d="M36.5238 59.2807C36.4333 59.1299 36.3405 58.9791 36.2477 58.8306C35.6445 57.8493 34.3917 56.9746 33.9648 56.7148L34.2943 56.1394C35.1421 56.6567 35.8972 57.3123 36.5284 58.0789C37.5168 56.7565 38.9691 55.3924 40.9504 53.9215L41.361 54.4644C39.2452 56.035 37.7557 57.4804 36.8115 58.8561L36.5238 59.2807Z" fill="#EF233C"/>
<path d="M37.3199 71.7901L37.0136 71.34C36.3455 70.3587 35.0509 69.484 34.6055 69.2265L34.9071 68.6511C35.7838 69.1707 36.5736 69.8243 37.2479 70.5883C38.1574 69.2659 39.5401 67.9018 41.4611 66.4332L41.8949 66.9761C39.844 68.5467 38.4358 69.9921 37.5797 71.3679L37.3199 71.7901Z" fill="#EF233C"/>
<path d="M51.9895 29.928C51.5812 30.8189 51.1628 31.709 50.7344 32.5983C51.6176 33.0376 52.3727 33.697 52.927 34.513C53.4812 35.3289 53.816 36.2739 53.8989 37.2569H56.9821C56.778 34.104 54.7503 31.3594 51.9895 29.928Z" fill="#EF233C"/>
<path d="M40.2456 37.2616H43.3289C43.2533 36.3895 43.4122 35.513 43.7891 34.7229C44.166 33.9328 44.7472 33.2578 45.4726 32.7677C44.8725 31.8769 44.2631 30.986 43.6444 30.0951C41.394 31.5521 40.0484 34.2224 40.2456 37.2616Z" fill="#263238"/>
<path d="M47.8205 28.8933C46.3412 28.8787 44.8898 29.2964 43.6445 30.0951C44.2632 30.986 44.8726 31.8768 45.4727 32.7677C46.2765 32.2424 47.2176 31.9664 48.1778 31.9743C49.0662 31.9794 49.9407 32.1949 50.7298 32.603C51.1567 31.7121 51.5751 30.822 51.9849 29.9327C50.6996 29.2589 49.2717 28.9025 47.8205 28.8933Z" fill="#EF233C"/>
<path opacity="0.5" d="M47.8205 28.8933C46.3412 28.8787 44.8898 29.2964 43.6445 30.0951C44.2632 30.986 44.8726 31.8768 45.4727 32.7677C46.2765 32.2424 47.2176 31.9664 48.1778 31.9743C49.0662 31.9794 49.9407 32.1949 50.7298 32.603C51.1567 31.7121 51.5751 30.822 51.9849 29.9327C50.6996 29.2589 49.2717 28.9025 47.8205 28.8933Z" fill="#263238"/>
<path d="M51.5878 35.1504C51.5878 35.1504 48.4743 36.4241 48.1449 36.6561C48.0662 36.7157 48.0002 36.7904 47.9508 36.8758C47.9015 36.9613 47.8697 37.0558 47.8574 37.1537C47.845 37.2516 47.8524 37.351 47.8791 37.4461C47.9058 37.5411 47.9512 37.6298 48.0126 37.707C48.1289 37.8721 48.3047 37.9854 48.503 38.0231C48.7014 38.0608 48.9066 38.0198 49.0752 37.9089C49.4162 37.663 51.5924 35.1504 51.5878 35.1504ZM48.3166 37.4704C48.2863 37.4324 48.2639 37.3887 48.2508 37.3419C48.2376 37.2952 48.234 37.2462 48.24 37.198C48.2461 37.1498 48.2617 37.1033 48.286 37.0612C48.3103 37.0192 48.3428 36.9824 48.3815 36.953C48.465 36.8993 48.566 36.8797 48.6636 36.8982C48.7612 36.9168 48.8479 36.9721 48.9058 37.0528C48.9361 37.0908 48.9585 37.1345 48.9716 37.1812C48.9848 37.228 48.9884 37.277 48.9824 37.3252C48.9763 37.3734 48.9607 37.4199 48.9364 37.462C48.9121 37.504 48.8796 37.5408 48.8409 37.5702C48.7585 37.6249 48.6582 37.646 48.5607 37.6291C48.4632 37.6123 48.3759 37.5588 48.3166 37.4797V37.4704Z" fill="#263238"/>
<path d="M55.2785 33.6771C55.2937 33.8168 55.2789 33.958 55.2352 34.0915C55.1915 34.225 55.1198 34.3477 55.025 34.4513C54.9302 34.5549 54.8143 34.6371 54.6852 34.6925C54.5561 34.7478 54.4167 34.775 54.2762 34.7722C53.9786 34.7663 53.6935 34.6517 53.4746 34.4499C53.2558 34.2482 53.1184 33.9733 53.0884 33.6771C53.0725 33.5382 53.0865 33.3975 53.1294 33.2645C53.1723 33.1314 53.2431 33.0091 53.3371 32.9056C53.4311 32.8021 53.5462 32.72 53.6745 32.6646C53.8029 32.6092 53.9416 32.5818 54.0813 32.5844C54.3798 32.5894 54.6661 32.7032 54.8865 32.9045C55.1069 33.1057 55.2463 33.3804 55.2785 33.6771Z" fill="white"/>
<path d="M53.9194 33.4266C53.9217 33.4486 53.9193 33.4709 53.9124 33.492C53.9055 33.513 53.8943 33.5324 53.8794 33.5488C53.8645 33.5652 53.8463 33.5783 53.826 33.5872C53.8058 33.5962 53.7838 33.6007 53.7617 33.6006C53.7141 33.6002 53.6683 33.5823 53.6331 33.5501C53.598 33.518 53.576 33.474 53.5714 33.4266C53.5688 33.4045 53.5709 33.3821 53.5776 33.3608C53.5844 33.3396 53.5956 33.3201 53.6106 33.3036C53.6256 33.2871 53.6439 33.274 53.6643 33.2652C53.6848 33.2564 53.7069 33.2521 53.7292 33.2526C53.7768 33.253 53.8226 33.2709 53.8577 33.3031C53.8929 33.3352 53.9148 33.3792 53.9194 33.4266Z" fill="#263238"/>
<path d="M54.7499 33.4265C54.7522 33.4488 54.7497 33.4713 54.7427 33.4925C54.7357 33.5137 54.7242 33.5332 54.7091 33.5496C54.6939 33.5661 54.6755 33.5791 54.6549 33.5879C54.6343 33.5967 54.6122 33.601 54.5898 33.6005C54.5425 33.5992 54.4972 33.5809 54.4623 33.5489C54.4274 33.517 54.4051 33.4736 54.3996 33.4265C54.3969 33.4042 54.399 33.3816 54.4059 33.3602C54.4128 33.3388 54.4243 33.3192 54.4395 33.3026C54.4547 33.2861 54.4733 33.2731 54.4941 33.2644C54.5148 33.2558 54.5372 33.2517 54.5596 33.2525C54.6073 33.2529 54.653 33.2709 54.6882 33.303C54.7233 33.3351 54.7453 33.3792 54.7499 33.4265Z" fill="#263238"/>
<path d="M54.234 34.336C54.0046 34.3342 53.7839 34.2474 53.6146 34.0924C53.5987 34.0764 53.5898 34.0547 53.5898 34.0321C53.5898 34.0095 53.5987 33.9879 53.6146 33.9718C53.6224 33.9637 53.6318 33.9572 53.6421 33.9528C53.6525 33.9483 53.6637 33.946 53.6749 33.946C53.6862 33.946 53.6974 33.9483 53.7077 33.9528C53.7181 33.9572 53.7275 33.9637 53.7352 33.9718C53.8726 34.0983 54.052 34.1694 54.2387 34.1713C54.3254 34.1733 54.4115 34.1569 54.4915 34.1233C54.5714 34.0897 54.6434 34.0397 54.7027 33.9764C54.7184 33.9598 54.74 33.9501 54.7629 33.9495C54.7742 33.9491 54.7854 33.9511 54.796 33.9551C54.8066 33.9591 54.8163 33.9652 54.8245 33.973C54.8327 33.9807 54.8393 33.99 54.844 34.0004C54.8486 34.0107 54.8511 34.0218 54.8515 34.0331C54.8518 34.0444 54.8499 34.0557 54.8458 34.0663C54.8418 34.0769 54.8357 34.0865 54.828 34.0948C54.7516 34.1745 54.6591 34.2373 54.5568 34.2789C54.4544 34.3204 54.3445 34.3399 54.234 34.336Z" fill="#263238"/>
<path d="M49.0952 30.4152C49.1144 30.5532 49.1034 30.6938 49.0629 30.8272C49.0225 30.9605 48.9535 31.0835 48.8609 31.1877C48.7682 31.2918 48.6541 31.3746 48.5263 31.4302C48.3985 31.4859 48.2602 31.5132 48.1208 31.5102C47.8207 31.5032 47.5331 31.3889 47.3101 31.188C47.087 30.9871 46.9434 30.7129 46.9052 30.4152C46.8844 30.2778 46.8941 30.1375 46.9334 30.0042C46.9727 29.8709 47.0408 29.7478 47.1328 29.6437C47.2248 29.5395 47.3385 29.4568 47.4659 29.4013C47.5933 29.3458 47.7314 29.3189 47.8703 29.3225C48.1709 29.3295 48.4593 29.4434 48.6837 29.6436C48.9081 29.8438 49.054 30.1173 49.0952 30.4152Z" fill="white"/>
<path d="M47.7287 30.16C47.7317 30.1818 47.73 30.204 47.7236 30.225C47.7173 30.2461 47.7065 30.2656 47.692 30.2821C47.6774 30.2986 47.6595 30.3118 47.6394 30.3207C47.6194 30.3297 47.5976 30.3342 47.5756 30.334C47.5278 30.3328 47.4819 30.3147 47.4462 30.2828C47.4105 30.2509 47.3873 30.2074 47.3807 30.16C47.3773 30.1382 47.3787 30.1158 47.3849 30.0946C47.3911 30.0734 47.4019 30.0537 47.4165 30.0371C47.4311 30.0205 47.4492 30.0073 47.4695 29.9985C47.4897 29.9897 47.5117 29.9854 47.5338 29.986C47.5818 29.9867 47.6279 30.0047 47.6637 30.0367C47.6995 30.0686 47.7226 30.1124 47.7287 30.16Z" fill="#263238"/>
<path d="M48.5588 30.16C48.5618 30.182 48.56 30.2044 48.5536 30.2256C48.5471 30.2468 48.5361 30.2664 48.5213 30.2829C48.5065 30.2995 48.4883 30.3126 48.4679 30.3215C48.4476 30.3303 48.4255 30.3346 48.4033 30.334C48.3556 30.3324 48.31 30.314 48.2744 30.2823C48.2388 30.2505 48.2155 30.2072 48.2085 30.16C48.2054 30.138 48.2072 30.1156 48.2137 30.0944C48.2202 30.0732 48.2312 30.0536 48.246 30.0371C48.2607 30.0205 48.279 30.0074 48.2993 29.9986C48.3197 29.9897 48.3417 29.9855 48.3639 29.986C48.4117 29.9872 48.4576 30.0054 48.4933 30.0372C48.529 30.0691 48.5522 30.1126 48.5588 30.16Z" fill="#263238"/>
<path d="M48.5815 30.856H47.4958C47.4751 30.8526 47.4564 30.842 47.4428 30.8261C47.4293 30.8101 47.4219 30.7899 47.4219 30.769C47.4219 30.7481 47.4293 30.7279 47.4428 30.7119C47.4564 30.696 47.4751 30.6854 47.4958 30.682H48.5815C48.6022 30.6854 48.6209 30.696 48.6345 30.7119C48.648 30.7279 48.6554 30.7481 48.6554 30.769C48.6554 30.7899 48.648 30.8101 48.6345 30.8261C48.6209 30.842 48.6022 30.8526 48.5815 30.856Z" fill="#263238"/>
<path d="M43.5832 33.6771C43.5984 33.8168 43.5836 33.958 43.5399 34.0915C43.4962 34.225 43.4245 34.3477 43.3297 34.4513C43.2349 34.5549 43.119 34.6371 42.9899 34.6925C42.8608 34.7478 42.7214 34.775 42.5809 34.7722C42.2833 34.7663 41.9982 34.6517 41.7793 34.4499C41.5605 34.2482 41.4231 33.9733 41.3931 33.6771C41.3772 33.5382 41.3912 33.3975 41.4341 33.2645C41.4769 33.1314 41.5478 33.0091 41.6418 32.9056C41.7358 32.8021 41.8508 32.72 41.9792 32.6646C42.1076 32.6092 42.2463 32.5818 42.386 32.5844C42.6843 32.5899 42.9703 32.7039 43.1906 32.905C43.411 33.1061 43.5505 33.3806 43.5832 33.6771Z" fill="white"/>
<path d="M42.2241 33.4266C42.2264 33.4486 42.224 33.4709 42.2171 33.492C42.2102 33.513 42.199 33.5324 42.1841 33.5488C42.1692 33.5652 42.151 33.5783 42.1307 33.5872C42.1104 33.5962 42.0885 33.6007 42.0664 33.6006C42.0187 33.6002 41.973 33.5823 41.9378 33.5501C41.9027 33.518 41.8807 33.474 41.8761 33.4266C41.8735 33.4045 41.8756 33.3821 41.8823 33.3608C41.8891 33.3396 41.9003 33.3201 41.9153 33.3036C41.9302 33.2871 41.9486 33.274 41.969 33.2652C41.9895 33.2564 42.0116 33.2521 42.0339 33.2526C42.0815 33.253 42.1273 33.2709 42.1624 33.3031C42.1975 33.3352 42.2195 33.3792 42.2241 33.4266Z" fill="#263238"/>
<path d="M43.0522 33.4266C43.0549 33.4487 43.0528 33.4711 43.046 33.4924C43.0393 33.5136 43.028 33.5331 43.0131 33.5496C42.9981 33.5661 42.9798 33.5792 42.9593 33.588C42.9389 33.5968 42.9167 33.6011 42.8945 33.6006C42.8472 33.5993 42.8019 33.5809 42.767 33.549C42.7321 33.517 42.7098 33.4736 42.7042 33.4266C42.7016 33.4045 42.7037 33.3821 42.7105 33.3608C42.7172 33.3396 42.7284 33.3201 42.7434 33.3036C42.7584 33.2871 42.7767 33.274 42.7972 33.2652C42.8176 33.2564 42.8397 33.2521 42.862 33.2526C42.9098 33.2524 42.9558 33.2702 42.9911 33.3025C43.0263 33.3347 43.0482 33.379 43.0522 33.4266Z" fill="#263238"/>
<path d="M41.989 34.3361C41.9783 34.3362 41.9677 34.3343 41.9577 34.3303C41.9477 34.3263 41.9387 34.3204 41.931 34.3129C41.9151 34.2968 41.9062 34.2751 41.9062 34.2526C41.9062 34.23 41.9151 34.2083 41.931 34.1922C42.0063 34.1122 42.0973 34.0487 42.1983 34.0055C42.2993 33.9624 42.4081 33.9407 42.518 33.9417C42.7478 33.9441 42.9685 34.0318 43.1374 34.1876C43.1456 34.1954 43.152 34.2048 43.1565 34.2151C43.1609 34.2255 43.1632 34.2367 43.1632 34.2479C43.1632 34.2592 43.1609 34.2704 43.1565 34.2807C43.152 34.2911 43.1456 34.3004 43.1374 34.3082C43.1207 34.3237 43.0987 34.3323 43.0759 34.3323C43.0531 34.3323 43.0312 34.3237 43.0145 34.3082C42.8772 34.1802 42.6964 34.1089 42.5087 34.1087C42.4222 34.1068 42.3363 34.1229 42.2564 34.1561C42.1765 34.1892 42.1044 34.2387 42.0447 34.3013C42.0311 34.3194 42.0113 34.3319 41.989 34.3361Z" fill="#263238"/>
<path d="M59.5627 25.65C58.8389 24.1257 57.1499 23.1165 55.3287 23.1165H51.6167C51.3619 23.1278 51.1085 23.0715 50.8824 22.9533C50.6563 22.8352 50.4654 22.6594 50.3291 22.4437C49.8118 21.474 48.5775 20.7826 47.1762 20.7826C45.775 20.7826 44.6242 21.4786 44.2159 22.4437C44.0466 22.852 43.5617 23.1165 43.0049 23.1165H39.2929C37.4717 23.1165 35.8964 24.1257 35.3489 25.65C35.3286 25.7032 35.3207 25.7603 35.3257 25.817C35.3316 25.936 35.3831 26.0481 35.4695 26.1302C35.5559 26.2123 35.6705 26.2579 35.7897 26.2578H59.1938C59.2654 26.258 59.3357 26.2396 59.3981 26.2046C59.4604 26.1696 59.5127 26.1191 59.5498 26.058C59.5869 25.9968 59.6076 25.9271 59.6099 25.8557C59.6121 25.7842 59.5959 25.7133 59.5627 25.65ZM47.327 23.5364C47.0501 23.5307 46.7854 23.4216 46.5849 23.2305C46.3844 23.0395 46.2627 22.7803 46.2436 22.504C46.2343 22.371 46.2527 22.2374 46.2976 22.1118C46.3425 21.9862 46.4129 21.8712 46.5045 21.7742C46.5961 21.6772 46.7067 21.6003 46.8295 21.5482C46.9523 21.4961 47.0846 21.47 47.218 21.4716C47.4967 21.4745 47.764 21.5824 47.9666 21.7738C48.1691 21.9652 48.292 22.226 48.3107 22.504C48.3201 22.6379 48.3015 22.7722 48.256 22.8985C48.2106 23.0248 48.1393 23.1401 48.0467 23.2373C47.9541 23.3344 47.8423 23.4112 47.7184 23.4627C47.5945 23.5142 47.4612 23.5393 47.327 23.5364Z" fill="#263238"/>
<path d="M83.6168 94.9135C83.4353 94.9358 83.2519 94.8904 83.1018 94.7859C83.082 94.7613 83.07 94.7315 83.0671 94.7001C83.0642 94.6688 83.0706 94.6373 83.0856 94.6095C83.0967 94.5857 83.1131 94.5647 83.1336 94.5482C83.1542 94.5317 83.1782 94.5201 83.2039 94.5144C83.4776 94.4379 84.111 94.7766 84.1319 94.7928C84.1398 94.7963 84.1463 94.8022 84.1505 94.8098C84.1547 94.8173 84.1563 94.826 84.1551 94.8346C84.1547 94.8423 84.1518 94.8497 84.1467 94.8556C84.1417 94.8615 84.1348 94.8655 84.1272 94.8671C83.9587 94.8971 83.788 94.9126 83.6168 94.9135ZM83.3106 94.584C83.2852 94.5802 83.2594 94.5802 83.234 94.584C83.2182 94.5869 83.2033 94.5935 83.1904 94.6032C83.1775 94.6128 83.167 94.6253 83.1598 94.6397C83.1366 94.6907 83.1598 94.7163 83.1598 94.7302C83.2526 94.8392 83.6841 94.8415 83.995 94.7975C83.7815 94.6858 83.5497 94.6135 83.3106 94.584Z" fill="#EF233C"/>
<path d="M84.1261 94.867H84.1098C83.8941 94.7742 83.444 94.403 83.4533 94.2128C83.4533 94.1664 83.4811 94.1107 83.5925 94.0991C83.6758 94.092 83.7588 94.1169 83.8245 94.1687C83.998 94.3505 84.1156 94.5784 84.1632 94.8253C84.166 94.831 84.1675 94.8374 84.1675 94.8438C84.1675 94.8502 84.166 94.8566 84.1632 94.8624C84.1579 94.8662 84.1517 94.8686 84.1452 94.8694C84.1387 94.8702 84.1322 94.8694 84.1261 94.867ZM83.6319 94.171H83.6087C83.5368 94.171 83.5345 94.2058 83.5345 94.2151C83.5345 94.3311 83.8384 94.6211 84.0634 94.7464C84.0194 94.5483 83.9205 94.3666 83.7781 94.222C83.736 94.1905 83.6845 94.1741 83.6319 94.1756V94.171Z" fill="#EF233C"/>
<path d="M85.995 94.8277H84.2898L83.6797 90.879H85.3849L85.995 94.8277Z" fill="#FFC3BD"/>
<path d="M84.2788 94.6304H86.1348C86.1698 94.6313 86.2036 94.6429 86.2318 94.6637C86.26 94.6844 86.2812 94.7133 86.2925 94.7464L86.7983 96.2613C86.809 96.2953 86.8118 96.3312 86.8064 96.3664C86.8009 96.4016 86.7875 96.435 86.7671 96.4642C86.7467 96.4933 86.7199 96.5174 86.6887 96.5345C86.6575 96.5517 86.6227 96.5614 86.5872 96.5629C85.9144 96.5629 84.94 96.5142 84.0955 96.5142C83.1095 96.5142 83.1977 96.5676 82.04 96.5676C81.344 96.5676 81.0679 95.86 81.344 95.795C82.6455 95.505 82.7963 95.4725 83.8681 94.7626C83.9882 94.6774 84.1316 94.6312 84.2788 94.6304Z" fill="#263238"/>
<path opacity="0.2" d="M83.6797 90.8813L83.9952 92.916H85.7004L85.3849 90.8813H83.6797Z" fill="black"/>
<path d="M85.8006 52.3043L84.6406 53.4759L86.4177 54.1046C86.4177 54.1046 87.1137 53.1488 86.6242 52.4946L85.8006 52.3043Z" fill="#FFC3BD"/>
<path d="M84.25 55.1139L86.0248 55.3737L86.4215 54.1047L84.6444 53.476L84.25 55.1139Z" fill="#FFC3BD"/>
<path d="M86.5741 37.8785C86.7249 38.2033 86.8455 38.4794 86.9662 38.781C87.0868 39.0826 87.1982 39.3726 87.3142 39.6696C87.5346 40.2658 87.7318 40.8737 87.915 41.4885C88.1016 42.1105 88.2564 42.7416 88.379 43.3793L88.4672 43.8665L88.5391 44.3629C88.5646 44.5277 88.5809 44.6993 88.5948 44.8687C88.6087 45.0381 88.6319 45.1912 88.6319 45.4046V45.7062V45.973L88.618 46.2352L88.5925 46.4834C88.5623 46.8175 88.5182 47.1307 88.4765 47.4485C88.3837 48.0749 88.277 48.6874 88.1586 49.3045C87.9127 50.5179 87.6436 51.7034 87.3188 52.8982L85.2053 52.4806C85.3398 51.3021 85.479 50.1049 85.5904 48.9264C85.6438 48.3371 85.7018 47.7501 85.7342 47.1748C85.7482 46.8917 85.7644 46.6041 85.7644 46.3326V46.1285V45.9405V45.7526L85.7482 45.5995C85.7376 45.4773 85.7205 45.3557 85.6971 45.2353C85.6762 45.1053 85.6577 44.9754 85.6275 44.8432L85.5417 44.4465L85.4419 44.0474C85.2981 43.5138 85.1357 42.9779 84.9501 42.442C84.7645 41.9061 84.558 41.3725 84.3399 40.8435C84.2332 40.5767 84.1218 40.3122 84.0058 40.0524C83.8898 39.7925 83.7738 39.5211 83.6602 39.2961L86.5741 37.8785Z" fill="#263238"/>
<path d="M78.5664 51.4738C78.5664 51.4738 78.8495 64.5214 79.6151 69.7182C80.4131 75.1238 83.3271 92.5215 83.3271 92.5215H86.2131C86.2131 92.5215 85.1784 75.9637 84.849 70.6439C84.4894 64.8439 84.5682 51.4738 84.5682 51.4738H78.5664Z" fill="#EF233C"/>
<path d="M82.6333 91.3708C82.6193 91.3708 82.9302 92.5703 82.9302 92.5703H86.4427L86.4172 91.5008L82.6333 91.3708Z" fill="#263238"/>
<path d="M77.9135 30.3222C77.9224 30.1777 77.8529 30.0558 77.7582 30.05C77.6636 30.0441 77.5797 30.1566 77.5708 30.3011C77.5619 30.4456 77.6314 30.5675 77.726 30.5733C77.8207 30.5791 77.9046 30.4667 77.9135 30.3222Z" fill="#263238"/>
<path d="M77.8425 30.5729C77.6543 31.0152 77.4078 31.4303 77.1094 31.8071C77.2068 31.8779 77.3187 31.9263 77.437 31.9487C77.5553 31.9712 77.6772 31.9672 77.7938 31.937L77.8425 30.5729Z" fill="#ED847E"/>
<path d="M78.4563 29.5103C78.4383 29.5104 78.4207 29.5056 78.4052 29.4964C78.3222 29.4311 78.2246 29.3869 78.1208 29.3675C78.017 29.3481 77.91 29.3541 77.809 29.385C77.7986 29.3891 77.7876 29.3911 77.7765 29.3909C77.7653 29.3906 77.7544 29.3882 77.7442 29.3836C77.7341 29.3791 77.7249 29.3726 77.7173 29.3644C77.7097 29.3563 77.7038 29.3468 77.7 29.3363C77.6963 29.3257 77.6948 29.3144 77.6955 29.3031C77.6962 29.2919 77.6991 29.2809 77.704 29.2708C77.709 29.2606 77.7159 29.2516 77.7244 29.2441C77.7328 29.2367 77.7426 29.2309 77.7533 29.2273C77.8805 29.1859 78.0158 29.1761 78.1475 29.1988C78.2793 29.2214 78.4036 29.2758 78.5096 29.3572C78.5272 29.371 78.5387 29.391 78.5417 29.4131C78.5447 29.4352 78.5391 29.4576 78.5259 29.4755C78.5177 29.4863 78.5072 29.495 78.4951 29.501C78.4831 29.5071 78.4698 29.5102 78.4563 29.5103Z" fill="#263238"/>
<path d="M82.4292 31.9045C82.1415 33.1527 81.8167 35.4379 82.6612 36.2685C82.6612 36.2685 82.2761 37.5329 79.9584 37.5329C77.4064 37.5329 78.7868 36.2685 78.7868 36.2685C80.1788 35.9367 80.1904 34.9066 79.9816 33.9369L82.4292 31.9045Z" fill="#FFC3BD"/>
<path d="M83.558 36.8531C83.8085 36.345 84.0846 35.7604 83.558 35.5794C82.9826 35.3776 79.8019 35.1734 78.686 35.5493C78.3879 35.6253 78.1321 35.8166 77.9751 36.0811C77.818 36.3456 77.7725 36.6617 77.8484 36.9598L83.558 36.8531Z" fill="#EF233C"/>
<path d="M85.997 36.758C87.4656 37.4354 88.2126 42.5719 88.2126 42.5719L85.2546 43.4999C84.7262 42.1409 84.2974 40.7452 83.9716 39.3239C83.5169 37.1802 84.4936 36.0666 85.997 36.758Z" fill="#263238"/>
<path d="M67.818 44.7505L66.4538 43.5765L65.2266 45.3629C65.2266 45.3629 66.3286 46.2469 67.5466 45.8849L67.818 44.7505Z" fill="#FFC3BD"/>
<path d="M64.6567 43.0081L64.4688 44.7736L65.2274 45.3629L66.4547 43.5765L64.6567 43.0081Z" fill="#FFC3BD"/>
<path d="M82.7398 30.0045C82.5682 31.777 82.5566 32.821 81.6286 33.7304C81.3297 34.0265 80.9559 34.2357 80.5472 34.3357C80.1385 34.4357 79.7104 34.4226 79.3086 34.298C78.9067 34.1733 78.5464 33.9418 78.266 33.6281C77.9857 33.3144 77.7959 32.9303 77.717 32.5171C77.3922 30.9255 77.717 28.2947 79.4872 27.5894C79.864 27.4269 80.2769 27.3663 80.6845 27.4137C81.0921 27.4612 81.4801 27.6149 81.8096 27.8595C82.139 28.1041 82.3984 28.4311 82.5617 28.8076C82.7249 29.184 82.7864 29.5968 82.7398 30.0045Z" fill="#FFC3BD"/>
<path d="M79.1118 30.5729C78.9564 29.348 78.9819 28.884 79.6361 28.6125C78.9564 28.478 78.3671 28.4594 78.0863 28.0627C77.8056 27.666 77.7383 26.6521 79.1025 26.1881C78.9772 26.4201 79.374 26.9027 80.6291 26.4665C81.8842 26.0304 83.7124 25.984 83.8771 27.26C84.5406 27.028 85.6519 29.0765 84.3411 30.5729C83.2484 31.8257 82.5199 32.6911 82.3041 33.3569C82.294 33.3881 82.2774 33.4168 82.2554 33.4411C82.2334 33.4654 82.2065 33.4848 82.1765 33.4979C82.1464 33.5111 82.114 33.5177 82.0812 33.5174C82.0484 33.5171 82.016 33.5098 81.9863 33.4961C81.5339 33.285 80.7242 33.466 80.3623 33.5634C80.3113 33.5766 80.2574 33.5721 80.2093 33.5506C80.1612 33.5291 80.1219 33.4919 80.0978 33.4451C79.8635 32.9625 79.2301 31.5844 79.1118 30.5729Z" fill="#263238"/>
<path d="M83.6289 27.4154C83.6289 27.4154 84.1671 26.6567 85.1995 27.2205C84.6687 27.1957 84.1376 27.2617 83.6289 27.4154Z" fill="#263238"/>
<path d="M83.7188 27.5778C83.7188 27.5778 84.4681 27.1138 83.8835 26.2391C83.9193 26.6919 83.8633 27.1472 83.7188 27.5778Z" fill="#263238"/>
<path d="M79.9772 30.624C79.8958 31.0626 79.6782 31.4644 79.3554 31.7724C78.9262 32.1784 78.555 31.8907 78.5434 31.3687C78.5318 30.9047 78.7406 30.1205 79.2394 29.9117C79.7382 29.7029 80.0653 30.0996 79.9772 30.624Z" fill="#FFC3BD"/>
<path opacity="0.3" d="M78.8047 58.7238C78.9717 62.6167 79.2339 67.1361 79.6144 69.7182C79.7605 70.7019 79.974 72.08 80.2292 73.6785C81.2546 68.0826 81.8671 60.8721 78.8047 58.7238Z" fill="black"/>
<path d="M77.5273 94.9135C77.3092 94.9135 77.0981 94.8833 77.0308 94.7859C77.0133 94.7598 77.0039 94.7291 77.0039 94.6977C77.0039 94.6663 77.0133 94.6356 77.0308 94.6095C77.062 94.5629 77.109 94.5291 77.1631 94.5144C77.4484 94.4379 78.0331 94.7766 78.0586 94.7928C78.0658 94.7968 78.0714 94.8031 78.0743 94.8107C78.0773 94.8184 78.0775 94.8268 78.0748 94.8346C78.0732 94.8426 78.0692 94.8499 78.0635 94.8557C78.0577 94.8615 78.0504 94.8654 78.0424 94.8671C77.8723 94.8968 77.7 94.9123 77.5273 94.9135ZM77.2698 94.584C77.2436 94.5802 77.2171 94.5802 77.1909 94.584C77.1743 94.5872 77.1585 94.5938 77.1445 94.6034C77.1305 94.613 77.1187 94.6253 77.1097 94.6397C77.0796 94.6907 77.0888 94.7163 77.0981 94.7302C77.1747 94.8392 77.6039 94.8415 77.924 94.7975C77.7221 94.6841 77.4998 94.6116 77.2698 94.584Z" fill="#EF233C"/>
<path d="M78.0429 94.8671H78.0267C77.8249 94.7743 77.4281 94.4031 77.4676 94.2128C77.4676 94.1664 77.5093 94.1107 77.6207 94.0991C77.6621 94.0939 77.7041 94.0974 77.744 94.1094C77.784 94.1214 77.821 94.1416 77.8527 94.1687C78.0638 94.3474 78.0847 94.8067 78.0847 94.8253C78.0845 94.8325 78.0828 94.8395 78.0796 94.8459C78.0764 94.8524 78.0718 94.858 78.0661 94.8624C78.059 94.8661 78.0509 94.8677 78.0429 94.8671ZM77.6509 94.1711H77.6277C77.5534 94.1711 77.5488 94.2059 77.5465 94.2151C77.5233 94.3311 77.7901 94.6211 77.9965 94.7464C77.9837 94.5545 77.9116 94.3712 77.7901 94.2221C77.7506 94.1907 77.7013 94.1742 77.6509 94.1757V94.1711Z" fill="#EF233C"/>
<path d="M79.919 94.8277H78.2161L78.1836 90.879H79.8888L79.919 94.8277Z" fill="#FFC3BD"/>
<path d="M78.2325 94.6304H80.0885C80.1217 94.6299 80.154 94.6414 80.1796 94.6626C80.2051 94.6839 80.2222 94.7136 80.2277 94.7464L80.5131 96.2613C80.5196 96.2987 80.5177 96.3369 80.5077 96.3735C80.4977 96.41 80.4798 96.4439 80.4552 96.4727C80.4306 96.5015 80.4 96.5245 80.3655 96.5401C80.3309 96.5557 80.2934 96.5635 80.2555 96.5629C79.5851 96.5629 78.6153 96.5142 77.7732 96.5142C76.7848 96.5142 75.9311 96.5676 74.7734 96.5676C74.0774 96.5676 73.9057 95.86 74.2003 95.795C75.5436 95.505 76.634 95.4725 77.8103 94.7626C77.9364 94.6811 78.0824 94.6354 78.2325 94.6304Z" fill="#263238"/>
<path opacity="0.2" d="M78.1836 90.8813L78.1975 92.916H79.9027L79.8888 90.8813H78.1836Z" fill="black"/>
<path d="M75.5221 51.4738C75.5221 51.4738 74.8261 64.2175 74.84 69.4143C74.84 74.8199 77.5776 92.5215 77.5776 92.5215H80.4637C80.4637 92.5215 79.712 75.1354 80.0368 69.8319C80.3825 64.0319 82.0576 51.4784 82.0576 51.4784L75.5221 51.4738Z" fill="#EF233C"/>
<path d="M77.0635 91.3708C77.0496 91.3708 77.1818 92.5703 77.1818 92.5703H80.6943L80.8289 91.5008L77.0635 91.3708Z" fill="#263238"/>
<path d="M76.1466 36.7418C76.1466 36.7418 73.2419 44.0799 74.5063 56.7634H85.1134C85.2247 55.3714 84.1158 43.247 85.698 36.6536C84.6944 36.4593 83.6792 36.3307 82.6588 36.2685C81.3684 36.1942 80.0748 36.1942 78.7844 36.2685C77.8942 36.358 77.0123 36.5163 76.1466 36.7418Z" fill="#263238"/>
<path opacity="0.2" d="M74.6446 43.3839C74.4869 44.5439 74.357 45.8687 74.2734 47.3279C76.3336 45.4348 77.0389 40.7183 77.0389 40.7183L74.6446 43.3839Z" fill="black"/>
<path d="M77.2398 40.2357C76.8222 41.3214 76.4 42.3677 75.936 43.4187C75.472 44.4697 74.9917 45.5067 74.4512 46.5461L74.24 46.9335L74.1333 47.1284C74.0893 47.2073 74.0939 47.2119 73.9733 47.4137C73.7653 47.7409 73.4769 48.0092 73.1357 48.1933C72.8536 48.3416 72.5457 48.4345 72.2286 48.467C71.7928 48.5069 71.3533 48.4716 70.9294 48.3626C70.5943 48.2797 70.2655 48.1727 69.9457 48.0425C69.3717 47.8048 68.8158 47.5257 68.2823 47.2073C68.0201 47.0565 67.7696 46.8941 67.5213 46.7433C67.2731 46.5925 67.0481 46.3999 66.7812 46.2143L68.034 44.2933C68.9331 44.7887 69.8768 45.1981 70.8528 45.516C71.06 45.58 71.2717 45.6281 71.4862 45.6598C71.6086 45.6859 71.7351 45.6859 71.8574 45.6598C71.8713 45.6598 71.8272 45.6459 71.7507 45.6853C71.6575 45.7329 71.5777 45.8031 71.5187 45.8895C71.47 45.9707 71.5326 45.8501 71.5535 45.8037L71.637 45.6204L71.804 45.2561C72.2448 44.2725 72.6532 43.254 73.0499 42.2401C73.4466 41.2263 73.8317 40.1684 74.1867 39.1453L77.2398 40.2357Z" fill="#263238"/>
<path d="M78.3898 37.512C78.9327 39.0293 75.0907 45.1379 75.0907 45.1379L72.8125 42.8805C72.8125 42.8805 73.3948 40.9619 74.1627 38.6511C74.9191 36.3799 77.8724 36.062 78.3898 37.512Z" fill="#263238"/>
</svg>
