<svg width="116" height="116" viewBox="0 0 116 116" fill="none" xmlns="http://www.w3.org/2000/svg">
<path d="M116 88.7168H0V88.7748H116V88.7168Z" fill="#EBEBEB"/>
<path d="M104.375 92.4497H96.6914V92.5077H104.375V92.4497Z" fill="#EBEBEB"/>
<path d="M76.8442 93.0808H74.8281V93.1388H76.8442V93.0808Z" fill="#EBEBEB"/>
<path d="M96.4599 90.2966H92.0078V90.3546H96.4599V90.2966Z" fill="#EBEBEB"/>
<path d="M22.192 90.6865H12.1719V90.7445H22.192V90.6865Z" fill="#EBEBEB"/>
<path d="M25.7264 90.6865H24.2578V90.7445H25.7264V90.6865Z" fill="#EBEBEB"/>
<path d="M52.2338 91.6655H30.5V91.7235H52.2338V91.6655Z" fill="#EBEBEB"/>
<path d="M54.9826 78.3696H10.1857C9.83475 78.369 9.49839 78.2292 9.25046 77.9808C9.00253 77.7324 8.86328 77.3958 8.86328 77.0449V14.0731C8.86634 13.7242 9.00693 13.3906 9.25454 13.1447C9.50214 12.8989 9.83675 12.7606 10.1857 12.76H54.9826C55.3339 12.76 55.6709 12.8996 55.9193 13.148C56.1677 13.3964 56.3073 13.7334 56.3073 14.0847V77.0449C56.3073 77.3962 56.1677 77.7332 55.9193 77.9816C55.6709 78.23 55.3339 78.3696 54.9826 78.3696ZM10.1857 12.8064C9.85013 12.807 9.52853 12.9408 9.29147 13.1782C9.05442 13.4157 8.92128 13.7376 8.92128 14.0731V77.0449C8.92128 77.3804 9.05442 77.7023 9.29147 77.9398C9.52853 78.1773 9.85013 78.311 10.1857 78.3116H54.9826C55.3183 78.311 55.6402 78.1773 55.8776 77.9399C56.115 77.7025 56.2487 77.3807 56.2493 77.0449V14.0731C56.2487 13.7374 56.115 13.4155 55.8776 13.1781C55.6402 12.9407 55.3183 12.807 54.9826 12.8064H10.1857Z" fill="#EBEBEB"/>
<path d="M105.167 78.3696H60.3677C60.0165 78.369 59.68 78.2292 59.4317 77.9809C59.1834 77.7326 59.0436 77.396 59.043 77.0449V14.0731C59.0466 13.724 59.1877 13.3904 59.4357 13.1446C59.6837 12.8988 60.0185 12.7606 60.3677 12.76H105.167C105.515 12.7612 105.849 12.8997 106.097 13.1455C106.344 13.3913 106.484 13.7246 106.487 14.0731V77.0449C106.487 77.3954 106.348 77.7317 106.101 77.98C105.853 78.2283 105.517 78.3684 105.167 78.3696ZM60.3677 12.8064C60.0319 12.807 59.7101 12.9407 59.4727 13.1781C59.2352 13.4155 59.1016 13.7374 59.101 14.0731V77.0449C59.1016 77.3807 59.2352 77.7025 59.4727 77.9399C59.7101 78.1773 60.0319 78.311 60.3677 78.3116H105.167C105.503 78.311 105.824 78.1773 106.062 77.9399C106.299 77.7025 106.433 77.3807 106.434 77.0449V14.0731C106.433 13.7374 106.299 13.4155 106.062 13.1781C105.824 12.9407 105.503 12.807 105.167 12.8064H60.3677Z" fill="#EBEBEB"/>
<path d="M62.1263 88.7168H70.2695V58.3874H62.1263V88.7168Z" fill="#E6E6E6"/>
<path d="M63.4799 88.7167H62.125V85.9861H64.902L63.4799 88.7167Z" fill="#F0F0F0"/>
<path d="M95.267 88.7168H103.41V58.3874H95.267V88.7168Z" fill="#E6E6E6"/>
<path d="M62.1264 87.6682H96.4531V58.3875H62.1264L62.1264 87.6682Z" fill="#F0F0F0"/>
<path d="M63.1799 67.7139H95.4023V59.6844H63.1799V67.7139Z" fill="#E6E6E6"/>
<path d="M77.7658 62.176H80.8096C82.132 62.176 83.3964 61.1853 84.3059 59.436H74.2695C75.179 61.19 76.4434 62.176 77.7658 62.176Z" fill="#F0F0F0"/>
<path d="M95.0979 88.7167H96.4528V85.9861H93.6758L95.0979 88.7167Z" fill="#F0F0F0"/>
<path d="M63.1799 77.0425H95.4023V69.013H63.1799V77.0425Z" fill="#E6E6E6"/>
<path d="M77.7658 71.507H80.8096C82.132 71.507 83.3964 70.5164 84.3059 68.7671H74.2695C75.179 70.528 76.4434 71.507 77.7658 71.507Z" fill="#F0F0F0"/>
<path d="M63.1799 86.3713H95.4023V78.3418H63.1799V86.3713Z" fill="#E6E6E6"/>
<path d="M77.7658 80.8359H80.8096C82.132 80.8359 83.3964 79.8452 84.3059 78.0959H74.2695C75.179 79.8452 76.4434 80.8359 77.7658 80.8359Z" fill="#F0F0F0"/>
<path d="M18.0941 51.5085L49.1914 51.5085L49.1914 20.0424L18.0941 20.0424L18.0941 51.5085Z" fill="#E6E6E6"/>
<path d="M15.933 51.5085L48.6172 51.5085L48.6172 20.0424L15.933 20.0424L15.933 51.5085Z" fill="#F0F0F0"/>
<path d="M45.8828 48.771V22.78H18.6762V48.771H45.8828Z" fill="white"/>
<path d="M32.0915 26.2159L27.0989 31.2178C25.8924 32.4273 25.2148 34.066 25.2148 35.7743C25.2148 37.4827 25.8924 39.1213 27.0989 40.3308L32.0915 45.3258C32.1159 45.3502 32.1448 45.3695 32.1766 45.3827C32.2085 45.396 32.2426 45.4028 32.2771 45.4028C32.3116 45.4028 32.3457 45.396 32.3776 45.3827C32.4094 45.3695 32.4383 45.3502 32.4627 45.3258L37.4577 40.3308C38.6641 39.1213 39.3417 37.4827 39.3417 35.7743C39.3417 34.066 38.6641 32.4273 37.4577 31.2178L32.465 26.2159C32.4151 26.167 32.3481 26.1396 32.2783 26.1396C32.2084 26.1396 32.1414 26.167 32.0915 26.2159ZM27.4701 39.9503C26.3623 38.8396 25.7403 37.3349 25.7403 35.7662C25.7403 34.1975 26.3623 32.6928 27.4701 31.5821V39.9503ZM37.0865 39.9503V31.5914C38.1942 32.7021 38.8163 34.2068 38.8163 35.7755C38.8163 37.3442 38.1942 38.8489 37.0865 39.9596V39.9503Z" fill="#F0F0F0"/>
<path d="M94.3886 47.5601H77.0141L76.0234 57.8191H93.3979L94.3886 47.5601Z" fill="#E6E6E6"/>
<path d="M93.3995 57.8191L93.3299 58.3875H75.9531L76.025 57.8191H93.3995Z" fill="#E6E6E6"/>
<path d="M93.8557 47.5601H76.4812L75.4883 57.8191H92.8628L93.8557 47.5601Z" fill="#F0F0F0"/>
<path d="M92.5105 57.1508L93.2367 48.2559C93.2386 48.2263 93.2344 48.1967 93.2244 48.1687C93.2145 48.1408 93.1989 48.1152 93.1787 48.0935C93.1585 48.0718 93.1341 48.0544 93.107 48.0424C93.0799 48.0305 93.0506 48.0242 93.0209 48.0239H77.0477C76.9929 48.0237 76.9401 48.0441 76.8997 48.0811C76.8593 48.1181 76.8343 48.1689 76.8296 48.2234L76.0942 57.116C76.0923 57.1458 76.0965 57.1757 76.1066 57.2037C76.1167 57.2318 76.1325 57.2575 76.1529 57.2793C76.1734 57.301 76.1981 57.3184 76.2255 57.3302C76.2529 57.342 76.2824 57.3481 76.3123 57.348H92.2855C92.3412 57.3506 92.3958 57.3315 92.4377 57.2948C92.4797 57.258 92.5058 57.2064 92.5105 57.1508Z" fill="white"/>
<path d="M88.3355 57.8191L88.2659 58.3875H69.1328L69.2024 57.8191H88.3355Z" fill="#F0F0F0"/>
<path d="M64.9793 42.0754L97.6055 42.0754V20.3858L64.9793 20.3858V42.0754Z" fill="#E6E6E6"/>
<path d="M64.2567 42.0754L96.8828 42.0754V20.3858L64.2567 20.3858V42.0754Z" fill="#F5F5F5"/>
<path d="M95.582 40.614V21.8499L65.5589 21.8499V40.614H95.582Z" fill="white"/>
<path d="M66.1055 40.6116V21.8474H65.5579V40.6116H66.1055Z" fill="#E6E6E6"/>
<path d="M64.7941 38.1245L96.3438 38.1245V36.1618L64.7941 36.1618V38.1245Z" fill="#F5F5F5"/>
<path d="M62.8386 17.9685H99.0306C99.0833 17.9691 99.1337 17.9903 99.171 18.0276C99.2083 18.0649 99.2295 18.1153 99.2301 18.168C99.2301 18.2209 99.2091 18.2717 99.1716 18.3091C99.1342 18.3465 99.0835 18.3675 99.0306 18.3675H62.8386C62.8122 18.3679 62.786 18.3629 62.7615 18.353C62.737 18.3431 62.7147 18.3285 62.696 18.3099C62.6772 18.2914 62.6623 18.2693 62.6521 18.2449C62.642 18.2206 62.6367 18.1944 62.6367 18.168C62.6373 18.1149 62.6589 18.0642 62.6966 18.0268C62.7344 17.9894 62.7854 17.9685 62.8386 17.9685Z" fill="#E6E6E6"/>
<path d="M62.1367 18.1679C62.1367 18.2669 62.1661 18.3637 62.221 18.446C62.276 18.5284 62.3541 18.5926 62.4455 18.6306C62.537 18.6686 62.6376 18.6787 62.7348 18.6595C62.8319 18.6404 62.9212 18.5929 62.9914 18.523C63.0615 18.4532 63.1095 18.3641 63.129 18.2671C63.1486 18.17 63.1391 18.0693 63.1015 17.9777C63.0639 17.8861 63 17.8077 62.9179 17.7523C62.8358 17.697 62.7392 17.6672 62.6402 17.6668C62.5742 17.6664 62.5087 17.6792 62.4477 17.7042C62.3866 17.7293 62.3311 17.7661 62.2843 17.8127C62.2375 17.8593 62.2004 17.9146 62.1751 17.9756C62.1498 18.0365 62.1367 18.1019 62.1367 18.1679Z" fill="#E6E6E6"/>
<path d="M97.3355 19.2908C97.4067 19.2909 97.4751 19.2629 97.5258 19.213C97.5766 19.1631 97.6058 19.0952 97.607 19.024V18.444C97.607 18.3721 97.5784 18.303 97.5275 18.2521C97.4766 18.2012 97.4075 18.1726 97.3355 18.1726C97.3 18.1726 97.2648 18.1796 97.232 18.1933C97.1992 18.207 97.1694 18.227 97.1444 18.2522C97.1194 18.2775 97.0996 18.3074 97.0862 18.3403C97.0728 18.3733 97.0661 18.4085 97.0664 18.444V19.024C97.0676 19.0948 97.0964 19.1623 97.1467 19.2122C97.197 19.262 97.2647 19.2903 97.3355 19.2908Z" fill="#E6E6E6"/>
<path d="M65.8565 19.2908C65.9259 19.2879 65.9916 19.2587 66.0403 19.2092C66.089 19.1597 66.117 19.0935 66.1187 19.024V18.444C66.1187 18.3721 66.0901 18.303 66.0392 18.2521C65.9883 18.2012 65.9192 18.1726 65.8472 18.1726C65.8117 18.1726 65.7765 18.1796 65.7437 18.1933C65.7109 18.207 65.6811 18.227 65.6561 18.2522C65.6311 18.2775 65.6113 18.3074 65.5979 18.3403C65.5846 18.3733 65.5778 18.4085 65.5781 18.444V19.024C65.5787 19.0599 65.5864 19.0953 65.6008 19.1281C65.6151 19.161 65.6358 19.1907 65.6617 19.2155C65.6876 19.2403 65.7182 19.2597 65.7516 19.2726C65.785 19.2856 65.8207 19.2918 65.8565 19.2908Z" fill="#E6E6E6"/>
<path opacity="0.4" d="M62.901 39.2405L96.3438 39.2405V18.1679L62.901 18.1679V39.2405Z" fill="#E0E0E0"/>
<path d="M93.6133 18.1679C93.6133 18.267 93.6427 18.3639 93.6977 18.4463C93.7528 18.5287 93.8311 18.5929 93.9226 18.6308C94.0142 18.6688 94.115 18.6787 94.2122 18.6594C94.3094 18.64 94.3987 18.5923 94.4687 18.5222C94.5388 18.4521 94.5866 18.3628 94.6059 18.2656C94.6252 18.1684 94.6153 18.0677 94.5774 17.9761C94.5394 17.8845 94.4752 17.8063 94.3928 17.7512C94.3104 17.6961 94.2135 17.6667 94.1144 17.6667C93.9815 17.6667 93.854 17.7195 93.7601 17.8135C93.6661 17.9075 93.6133 18.035 93.6133 18.1679Z" fill="#E6E6E6"/>
<path d="M46.2829 87.2134H48.9648V63.9507H46.2829V87.2134Z" fill="#F0F0F0"/>
<path d="M17.1929 88.6865H47.9375V87.2133H17.1929V88.6865Z" fill="#F0F0F0"/>
<path d="M46.283 63.9509H16.1602V87.2136H46.283V63.9509Z" fill="#F5F5F5"/>
<path d="M42.5228 66.8137H19.9214C19.0091 66.8137 18.2695 67.5533 18.2695 68.4656V72.79C18.2695 73.7023 19.0091 74.4419 19.9214 74.4419H42.5228C43.4351 74.4419 44.1747 73.7023 44.1747 72.79V68.4656C44.1747 67.5533 43.4351 66.8137 42.5228 66.8137Z" fill="#F0F0F0"/>
<path d="M42.5228 76.72H19.9214C19.0091 76.72 18.2695 77.4595 18.2695 78.3718V82.6963C18.2695 83.6086 19.0091 84.3481 19.9214 84.3481H42.5228C43.4351 84.3481 44.1747 83.6086 44.1747 82.6963V78.3718C44.1747 77.4595 43.4351 76.72 42.5228 76.72Z" fill="#F0F0F0"/>
<path d="M25.6103 71.152H36.8344C36.9731 71.152 37.1061 71.0971 37.2044 70.9993C37.3026 70.9015 37.3581 70.7687 37.3587 70.63C37.3581 70.4912 37.3027 70.3582 37.2045 70.26C37.1063 70.1618 36.9733 70.1063 36.8344 70.1057H25.6103C25.4714 70.1063 25.3384 70.1618 25.2402 70.26C25.142 70.3582 25.0865 70.4912 25.0859 70.63C25.0866 70.7687 25.1421 70.9015 25.2403 70.9993C25.3386 71.0971 25.4716 71.152 25.6103 71.152Z" fill="#F5F5F5"/>
<path d="M25.6103 81.0585H36.8344C36.9731 81.0585 37.1061 81.0036 37.2044 80.9058C37.3026 80.8079 37.3581 80.6752 37.3587 80.5365C37.3581 80.3977 37.3027 80.2647 37.2045 80.1665C37.1063 80.0683 36.9733 80.0128 36.8344 80.0122H25.6103C25.4714 80.0128 25.3384 80.0683 25.2402 80.1665C25.142 80.2647 25.0865 80.3977 25.0859 80.5365C25.0866 80.6752 25.1421 80.8079 25.2403 80.9058C25.3386 81.0036 25.4716 81.0585 25.6103 81.0585Z" fill="#F5F5F5"/>
<path d="M57.9981 99.1939C82.8412 99.1939 102.981 98.0181 102.981 96.5676C102.981 95.1172 82.8412 93.9414 57.9981 93.9414C33.155 93.9414 13.0156 95.1172 13.0156 96.5676C13.0156 98.0181 33.155 99.1939 57.9981 99.1939Z" fill="#F5F5F5"/>
<path d="M67.94 23.5364H25.0664L28.3979 81.9238H71.2692L67.94 23.5364Z" fill="#263238"/>
<path d="M68.772 23.5364H25.8984L29.23 81.9238H72.1036L68.772 23.5364Z" fill="#EF233C"/>
<path opacity="0.5" d="M65.8192 25.499H27.8594L30.5807 78.3509H69.5266L65.8192 25.499Z" fill="black"/>
<path d="M27.8594 25.499C30.6805 43.1171 28.7456 60.7352 31.5714 78.3509H70.5126C67.6915 60.7352 69.6263 43.1171 66.8006 25.499H27.8594Z" fill="white"/>
<g opacity="0.3">
<path d="M35.8211 41.3353C36.6811 41.3422 37.5056 41.6789 38.1246 42.2759C38.7436 42.8729 39.1099 43.6847 39.148 44.5439C39.1653 44.9572 39.0983 45.3697 38.9512 45.7563C38.804 46.1429 38.5797 46.4955 38.2919 46.7926C38.0041 47.0897 37.6588 47.3252 37.2771 47.4846C36.8954 47.644 36.4853 47.7241 36.0716 47.72C35.217 47.7129 34.3978 47.3772 33.784 46.7824C33.1702 46.1876 32.8089 45.3794 32.7749 44.5253C32.757 44.1133 32.8224 43.7018 32.9671 43.3156C33.1118 42.9293 33.3329 42.5762 33.6171 42.2773C33.9022 41.981 34.2446 41.746 34.6236 41.5864C35.0025 41.4269 35.4099 41.3462 35.8211 41.3493M35.7979 40.6788C35.2978 40.6757 34.8024 40.7746 34.3418 40.9694C33.8813 41.1643 33.4653 41.4511 33.1194 41.8122C32.7735 42.1734 32.5048 42.6012 32.3299 43.0697C32.155 43.5382 32.0775 44.0375 32.1021 44.5369C32.1426 45.5681 32.5785 46.544 33.3193 47.2624C34.0601 47.9807 35.049 48.3864 36.0809 48.3951C36.5833 48.3993 37.0812 48.3014 37.5447 48.1075C38.0081 47.9135 38.4273 47.6275 38.777 47.2668C39.1266 46.9061 39.3994 46.4782 39.5788 46.0089C39.7582 45.5397 39.8406 45.0389 39.8208 44.5369C39.7709 43.5013 39.3261 42.5242 38.5778 41.8066C37.8295 41.0889 36.8347 40.6853 35.7979 40.6788Z" fill="#EF233C"/>
</g>
<path d="M57.3527 70.2774H45.0567C44.9647 70.2759 44.8734 70.2939 44.789 70.3304C44.7045 70.3669 44.6288 70.421 44.5669 70.4891C44.505 70.5571 44.4583 70.6376 44.43 70.7251C44.4016 70.8126 44.3922 70.9052 44.4025 70.9966C44.4248 71.1922 44.5173 71.3731 44.6628 71.5057C44.8082 71.6384 44.9968 71.7138 45.1936 71.7182H57.4896C57.5816 71.7198 57.673 71.7018 57.7574 71.6651C57.8418 71.6284 57.9174 71.574 57.979 71.5056C58.0406 71.4372 58.0868 71.3563 58.1144 71.2685C58.142 71.1807 58.1505 71.088 58.1392 70.9966C58.1173 70.8019 58.0256 70.6216 57.8809 70.4894C57.7363 70.3571 57.5486 70.2818 57.3527 70.2774Z" fill="#E0E0E0"/>
<path d="M63.9309 67.2499H44.8095C44.7169 67.2481 44.6251 67.266 44.5399 67.3022C44.4548 67.3385 44.3783 67.3924 44.3154 67.4603C44.2525 67.5282 44.2047 67.6086 44.1751 67.6963C44.1455 67.784 44.1348 67.8769 44.1436 67.9691C44.1603 68.164 44.2488 68.3458 44.392 68.4792C44.5352 68.6125 44.7229 68.6878 44.9185 68.6906H64.0307C64.1234 68.6932 64.2155 68.6763 64.3012 68.6407C64.3868 68.6052 64.464 68.5519 64.5275 68.4844C64.5911 68.4169 64.6396 68.3367 64.6699 68.2491C64.7003 68.1614 64.7117 68.0684 64.7035 67.976C64.6884 67.7805 64.6009 67.5975 64.458 67.4632C64.315 67.3289 64.127 67.2528 63.9309 67.2499Z" fill="#E0E0E0"/>
<g opacity="0.3">
<path d="M36.2129 53.824C37.0666 53.8301 37.8848 54.1659 38.4966 54.7613C39.1084 55.3566 39.4664 56.1655 39.4957 57.0186C39.5113 57.4316 39.4436 57.8436 39.2965 58.2298C39.1494 58.6161 38.926 58.9687 38.6396 59.2667C38.353 59.5635 38.009 59.7989 37.6285 59.9584C37.2479 60.118 36.8389 60.1984 36.4263 60.1947C35.5706 60.1888 34.75 59.8537 34.1349 59.2589C33.5197 58.664 33.1572 57.8551 33.1227 57.0001C33.1086 56.5864 33.1782 56.1742 33.3275 55.7882C33.4767 55.4021 33.7024 55.0502 33.991 54.7536C34.2796 54.4569 34.6252 54.2217 35.007 54.0619C35.3889 53.9022 35.799 53.8213 36.2129 53.824ZM36.2129 53.1512C35.7102 53.1481 35.2121 53.2466 34.7484 53.4407C34.2847 53.6348 33.865 53.9206 33.5144 54.2809C33.1639 54.6412 32.8897 55.0686 32.7084 55.5374C32.527 56.0063 32.4423 56.5069 32.4591 57.0094C32.5003 58.0433 32.9386 59.0215 33.6827 59.7406C34.4268 60.4596 35.4194 60.8641 36.4542 60.8698C36.9554 60.8718 37.4518 60.7723 37.9134 60.5772C38.3751 60.3821 38.7925 60.0956 39.1405 59.7349C39.4884 59.3741 39.7597 58.9467 39.938 58.4782C40.1163 58.0098 40.1978 57.5101 40.1778 57.0094C40.143 55.9787 39.7109 55.0015 38.9718 54.2823C38.2328 53.5631 37.2441 53.1578 36.2129 53.1512Z" fill="#EF233C"/>
</g>
<path d="M50.5278 43.7295H43.9506C43.7573 43.7279 43.572 43.6522 43.433 43.5179C43.294 43.3836 43.2118 43.2011 43.2035 43.008C43.2004 42.9147 43.2161 42.8217 43.2497 42.7345C43.2833 42.6474 43.334 42.5679 43.399 42.5008C43.4639 42.4337 43.5417 42.3803 43.6277 42.3439C43.7137 42.3075 43.8061 42.2888 43.8995 42.2888H50.4744C50.6677 42.2903 50.8532 42.3656 50.9929 42.4993C51.1326 42.633 51.216 42.8149 51.2261 43.008C51.2295 43.1017 51.214 43.1952 51.1804 43.2828C51.1468 43.3703 51.0959 43.4502 51.0307 43.5176C50.9654 43.585 50.8873 43.6385 50.8008 43.6749C50.7144 43.7113 50.6215 43.7299 50.5278 43.7295Z" fill="#E0E0E0"/>
<path d="M58.1182 43.7295H53.6638C53.4703 43.728 53.2848 43.6523 53.1454 43.5181C53.006 43.3839 52.9233 43.2013 52.9144 43.008C52.9113 42.9147 52.927 42.8217 52.9606 42.7345C52.9942 42.6474 53.045 42.5679 53.1099 42.5008C53.1749 42.4337 53.2526 42.3803 53.3386 42.3439C53.4246 42.3075 53.5171 42.2888 53.6104 42.2888H58.0672C58.2603 42.2904 58.4455 42.3657 58.5848 42.4994C58.7242 42.6332 58.8071 42.8151 58.8165 43.008C58.82 43.1017 58.8044 43.1952 58.7709 43.2828C58.7373 43.3703 58.6863 43.4502 58.6211 43.5176C58.5559 43.585 58.4777 43.6385 58.3913 43.6749C58.3049 43.7113 58.212 43.7299 58.1182 43.7295Z" fill="#E0E0E0"/>
<path d="M61.7089 46.7571H44.0537C43.8605 46.7561 43.6752 46.6804 43.5364 46.546C43.3976 46.4115 43.3162 46.2287 43.309 46.0356C43.3059 45.9423 43.3216 45.8493 43.3551 45.7621C43.3887 45.675 43.4395 45.5955 43.5044 45.5284C43.5694 45.4613 43.6472 45.4079 43.7332 45.3715C43.8192 45.3351 43.9116 45.3164 44.005 45.3164H61.6579C61.8505 45.3175 62.0352 45.3929 62.1735 45.5269C62.3119 45.6609 62.3931 45.8431 62.4003 46.0356C62.4037 46.1287 62.3884 46.2216 62.3552 46.3087C62.3221 46.3958 62.2717 46.4754 62.2073 46.5427C62.1428 46.61 62.0654 46.6636 61.9798 46.7005C61.8942 46.7373 61.8021 46.7566 61.7089 46.7571Z" fill="#E0E0E0"/>
<g opacity="0.3">
<path d="M36.7178 66.2962C37.5832 66.3131 38.412 66.6487 39.0455 67.2385C39.679 67.8284 40.0728 68.6311 40.1514 69.4931C40.193 69.897 40.1504 70.3051 40.0262 70.6917C39.902 71.0782 39.6989 71.4348 39.4299 71.7389C39.1586 72.0377 38.8265 72.275 38.456 72.4351C38.0855 72.5951 37.6851 72.6742 37.2815 72.6669C36.4086 72.6528 35.5709 72.3203 34.9258 71.7321C34.2807 71.1438 33.8727 70.3402 33.7784 69.4722C33.7386 69.0654 33.7854 68.6547 33.9157 68.2672C34.0461 67.8797 34.257 67.5242 34.5347 67.2242C34.814 66.9262 35.1525 66.6897 35.5284 66.53C35.9043 66.3702 36.3094 66.2905 36.7178 66.2962ZM36.6853 65.6257C36.1885 65.6159 35.6952 65.7113 35.2378 65.9056C34.7804 66.0998 34.3692 66.3886 34.0312 66.7529C33.6932 67.1172 33.436 67.5488 33.2765 68.0194C33.1169 68.4901 33.0587 68.9891 33.1055 69.4838C33.2842 71.6136 35.2167 73.342 37.3465 73.342C39.4763 73.342 41.0028 71.6136 40.8265 69.4838C40.7345 68.4433 40.2608 67.4736 39.4967 66.7613C38.7326 66.049 37.7321 65.6445 36.6876 65.6257H36.6853Z" fill="#EF233C"/>
</g>
<path d="M64.7285 57.7981H44.3565C44.2632 57.7981 44.1707 57.8168 44.0847 57.8532C43.9987 57.8897 43.921 57.943 43.856 58.0101C43.7911 58.0772 43.7403 58.1567 43.7067 58.2439C43.6731 58.331 43.6574 58.424 43.6605 58.5173C43.6689 58.7098 43.7508 58.8917 43.8893 59.0256C44.0279 59.1594 44.2126 59.2349 44.4053 59.2365H64.7865C64.8798 59.2366 64.9723 59.2178 65.0583 59.1814C65.1443 59.145 65.2221 59.0917 65.287 59.0245C65.3519 58.9574 65.4027 58.8779 65.4363 58.7908C65.4699 58.7037 65.4856 58.6107 65.4825 58.5173C65.4752 58.3229 65.3924 58.1389 65.2516 58.0046C65.1107 57.8703 64.9231 57.7962 64.7285 57.7981Z" fill="#E0E0E0"/>
<path d="M59.8989 54.7681H44.2668C44.1732 54.768 44.0806 54.7868 43.9944 54.8234C43.9083 54.8599 43.8304 54.9135 43.7654 54.9809C43.7004 55.0482 43.6497 55.128 43.6163 55.2154C43.5828 55.3028 43.5673 55.3961 43.5708 55.4896C43.5774 55.6818 43.6581 55.8641 43.7961 55.9982C43.934 56.1322 44.1185 56.2077 44.3109 56.2088H59.9453C60.0387 56.2088 60.1312 56.1901 60.2172 56.1537C60.3031 56.1173 60.3809 56.0639 60.4459 55.9968C60.5108 55.9297 60.5616 55.8502 60.5952 55.7631C60.6287 55.6759 60.6445 55.5829 60.6413 55.4896C60.6359 55.2963 60.5553 55.1128 60.4167 54.9781C60.278 54.8433 60.0923 54.768 59.8989 54.7681Z" fill="#E0E0E0"/>
<path d="M36.1746 46.799L35.9008 46.3489C35.2999 45.3676 34.0448 44.4929 33.6133 44.2354L33.9381 43.6601C34.7902 44.1759 35.5495 44.8316 36.1838 45.5996C37.1698 44.2749 38.6106 42.913 40.5617 41.4421L40.9816 41.985C38.8936 43.5557 37.4134 45.001 36.4646 46.3768C36.3694 46.5183 36.272 46.6598 36.1746 46.799Z" fill="#EF233C"/>
<path d="M36.5238 59.2806C36.4333 59.1298 36.3405 58.979 36.2477 58.8305C35.6445 57.8491 34.3917 56.9745 33.9648 56.7147L34.2943 56.1393C35.1421 56.6566 35.8972 57.3121 36.5284 58.0788C37.5168 56.7564 38.9691 55.3923 40.9504 53.9214L41.361 54.4643C39.2452 56.0349 37.7557 57.4803 36.8115 58.856L36.5238 59.2806Z" fill="#EF233C"/>
<path d="M37.3199 71.79L37.0136 71.3399C36.3455 70.3585 35.0509 69.4839 34.6055 69.2264L34.9071 68.651C35.7838 69.1705 36.5736 69.8242 37.2479 70.5882C38.1574 69.2658 39.5401 67.9017 41.4611 66.4331L41.8949 66.976C39.844 68.5466 38.4358 69.992 37.5797 71.3677L37.3199 71.79Z" fill="#EF233C"/>
<path d="M51.9895 29.928C51.5812 30.8189 51.1628 31.709 50.7344 32.5983C51.6176 33.0376 52.3727 33.697 52.927 34.513C53.4812 35.3289 53.816 36.2739 53.8989 37.2569H56.9821C56.778 34.104 54.7503 31.3594 51.9895 29.928Z" fill="#EF233C"/>
<path d="M40.2456 37.2615H43.3289C43.2533 36.3893 43.4122 35.5129 43.7891 34.7228C44.166 33.9327 44.7472 33.2577 45.4726 32.7676C44.8725 31.8767 44.2631 30.9859 43.6444 30.095C41.394 31.5519 40.0484 34.2223 40.2456 37.2615Z" fill="#263238"/>
<path d="M47.8205 28.8932C46.3412 28.8786 44.8898 29.2962 43.6445 30.095C44.2632 30.9858 44.8726 31.8767 45.4727 32.7676C46.2765 32.2423 47.2176 31.9663 48.1778 31.9742C49.0662 31.9793 49.9407 32.1947 50.7298 32.6029C51.1567 31.712 51.5751 30.8219 51.9849 29.9326C50.6996 29.2588 49.2717 28.9024 47.8205 28.8932Z" fill="#EF233C"/>
<path opacity="0.5" d="M47.8205 28.8932C46.3412 28.8786 44.8898 29.2962 43.6445 30.095C44.2632 30.9858 44.8726 31.8767 45.4727 32.7676C46.2765 32.2423 47.2176 31.9663 48.1778 31.9742C49.0662 31.9793 49.9407 32.1947 50.7298 32.6029C51.1567 31.712 51.5751 30.8219 51.9849 29.9326C50.6996 29.2588 49.2717 28.9024 47.8205 28.8932Z" fill="#263238"/>
<path d="M51.5878 35.1501C51.5878 35.1501 48.4743 36.4238 48.1449 36.6558C48.0662 36.7154 48.0002 36.7901 47.9508 36.8756C47.9015 36.961 47.8697 37.0555 47.8574 37.1534C47.845 37.2514 47.8524 37.3508 47.8791 37.4458C47.9058 37.5408 47.9512 37.6296 48.0126 37.7068C48.1289 37.8718 48.3047 37.9852 48.503 38.0229C48.7014 38.0605 48.9066 38.0196 49.0752 37.9086C49.4162 37.6627 51.5924 35.1501 51.5878 35.1501ZM48.3166 37.4701C48.2863 37.4321 48.2639 37.3885 48.2508 37.3417C48.2376 37.2949 48.234 37.246 48.24 37.1978C48.2461 37.1496 48.2617 37.1031 48.286 37.061C48.3103 37.0189 48.3428 36.9821 48.3815 36.9528C48.465 36.899 48.566 36.8794 48.6636 36.898C48.7612 36.9166 48.8479 36.9719 48.9058 37.0525C48.9361 37.0905 48.9585 37.1342 48.9716 37.181C48.9848 37.2278 48.9884 37.2767 48.9824 37.3249C48.9763 37.3731 48.9607 37.4196 48.9364 37.4617C48.9121 37.5038 48.8796 37.5406 48.8409 37.5699C48.7585 37.6246 48.6582 37.6457 48.5607 37.6289C48.4632 37.6121 48.3759 37.5586 48.3166 37.4794V37.4701Z" fill="#263238"/>
<path d="M55.2785 33.6771C55.2937 33.8168 55.2789 33.958 55.2352 34.0915C55.1915 34.225 55.1198 34.3477 55.025 34.4513C54.9302 34.5549 54.8143 34.6371 54.6852 34.6925C54.5561 34.7478 54.4167 34.775 54.2762 34.7722C53.9786 34.7663 53.6935 34.6517 53.4746 34.4499C53.2558 34.2482 53.1184 33.9733 53.0884 33.6771C53.0725 33.5382 53.0865 33.3975 53.1294 33.2645C53.1723 33.1314 53.2431 33.0091 53.3371 32.9056C53.4311 32.8021 53.5462 32.72 53.6745 32.6646C53.8029 32.6092 53.9416 32.5818 54.0813 32.5844C54.3798 32.5894 54.6661 32.7032 54.8865 32.9045C55.1069 33.1057 55.2463 33.3804 55.2785 33.6771Z" fill="white"/>
<path d="M53.9194 33.4265C53.9217 33.4485 53.9193 33.4708 53.9124 33.4918C53.9055 33.5129 53.8943 33.5323 53.8794 33.5487C53.8645 33.5651 53.8463 33.5782 53.826 33.5871C53.8058 33.596 53.7838 33.6006 53.7617 33.6005C53.7141 33.6001 53.6683 33.5822 53.6331 33.55C53.598 33.5179 53.576 33.4739 53.5714 33.4265C53.5688 33.4044 53.5709 33.3819 53.5776 33.3607C53.5844 33.3395 53.5956 33.32 53.6106 33.3035C53.6256 33.287 53.6439 33.2739 53.6643 33.2651C53.6848 33.2563 53.7069 33.252 53.7292 33.2525C53.7768 33.2528 53.8226 33.2708 53.8577 33.3029C53.8929 33.3351 53.9148 33.3791 53.9194 33.4265Z" fill="#263238"/>
<path d="M54.7499 33.4265C54.7522 33.4488 54.7497 33.4713 54.7427 33.4925C54.7357 33.5137 54.7242 33.5332 54.7091 33.5496C54.6939 33.5661 54.6755 33.5791 54.6549 33.5879C54.6343 33.5967 54.6122 33.601 54.5898 33.6005C54.5425 33.5992 54.4972 33.5809 54.4623 33.5489C54.4274 33.517 54.4051 33.4736 54.3996 33.4265C54.3969 33.4042 54.399 33.3816 54.4059 33.3602C54.4128 33.3388 54.4243 33.3192 54.4395 33.3026C54.4547 33.2861 54.4733 33.2731 54.4941 33.2644C54.5148 33.2558 54.5372 33.2517 54.5596 33.2525C54.6073 33.2529 54.653 33.2709 54.6882 33.303C54.7233 33.3351 54.7453 33.3792 54.7499 33.4265Z" fill="#263238"/>
<path d="M54.234 34.3358C54.0046 34.334 53.7839 34.2472 53.6146 34.0922C53.5987 34.0761 53.5898 34.0545 53.5898 34.0319C53.5898 34.0093 53.5987 33.9876 53.6146 33.9716C53.6224 33.9634 53.6318 33.9569 53.6421 33.9525C53.6525 33.9481 53.6637 33.9458 53.6749 33.9458C53.6862 33.9458 53.6974 33.9481 53.7077 33.9525C53.7181 33.9569 53.7275 33.9634 53.7352 33.9716C53.8726 34.0981 54.052 34.1692 54.2387 34.1711C54.3254 34.173 54.4115 34.1567 54.4915 34.1231C54.5714 34.0895 54.6434 34.0395 54.7027 33.9762C54.7184 33.9596 54.74 33.9499 54.7629 33.9492C54.7742 33.9489 54.7854 33.9508 54.796 33.9548C54.8066 33.9589 54.8163 33.9649 54.8245 33.9727C54.8327 33.9805 54.8393 33.9898 54.844 34.0001C54.8486 34.0104 54.8511 34.0216 54.8515 34.0329C54.8518 34.0442 54.8499 34.0555 54.8458 34.066C54.8418 34.0766 54.8357 34.0863 54.828 34.0945C54.7516 34.1743 54.6591 34.237 54.5568 34.2786C54.4544 34.3202 54.3445 34.3397 54.234 34.3358Z" fill="#263238"/>
<path d="M49.0952 30.4151C49.1144 30.5531 49.1034 30.6937 49.0629 30.8271C49.0225 30.9604 48.9535 31.0834 48.8609 31.1875C48.7682 31.2917 48.6541 31.3744 48.5263 31.4301C48.3985 31.4858 48.2602 31.5131 48.1208 31.5101C47.8207 31.5031 47.5331 31.3888 47.3101 31.1879C47.087 30.987 46.9434 30.7128 46.9052 30.4151C46.8844 30.2776 46.8941 30.1373 46.9334 30.0041C46.9727 29.8708 47.0408 29.7477 47.1328 29.6435C47.2248 29.5394 47.3385 29.4566 47.4659 29.4011C47.5933 29.3457 47.7314 29.3188 47.8703 29.3223C48.1709 29.3294 48.4593 29.4432 48.6837 29.6434C48.9081 29.8436 49.054 30.1172 49.0952 30.4151Z" fill="white"/>
<path d="M47.7287 30.1599C47.7317 30.1817 47.73 30.2039 47.7236 30.2249C47.7173 30.246 47.7065 30.2654 47.692 30.2819C47.6774 30.2984 47.6595 30.3116 47.6394 30.3206C47.6194 30.3296 47.5976 30.3341 47.5756 30.3339C47.5278 30.3327 47.4819 30.3145 47.4462 30.2827C47.4105 30.2508 47.3873 30.2073 47.3807 30.1599C47.3773 30.138 47.3787 30.1157 47.3849 30.0945C47.3911 30.0732 47.4019 30.0536 47.4165 30.037C47.4311 30.0204 47.4492 30.0072 47.4695 29.9984C47.4897 29.9896 47.5117 29.9853 47.5338 29.9859C47.5818 29.9866 47.6279 30.0046 47.6637 30.0366C47.6995 30.0685 47.7226 30.1123 47.7287 30.1599Z" fill="#263238"/>
<path d="M48.5588 30.1599C48.5618 30.1819 48.56 30.2043 48.5536 30.2255C48.5471 30.2467 48.5361 30.2663 48.5213 30.2828C48.5065 30.2994 48.4883 30.3125 48.4679 30.3213C48.4476 30.3301 48.4255 30.3344 48.4033 30.3339C48.3556 30.3322 48.31 30.3139 48.2744 30.2821C48.2388 30.2503 48.2155 30.2071 48.2085 30.1599C48.2054 30.1379 48.2072 30.1155 48.2137 30.0943C48.2202 30.0731 48.2312 30.0535 48.246 30.037C48.2607 30.0204 48.279 30.0073 48.2993 29.9984C48.3197 29.9896 48.3417 29.9853 48.3639 29.9859C48.4117 29.9871 48.4576 30.0052 48.4933 30.0371C48.529 30.069 48.5522 30.1125 48.5588 30.1599Z" fill="#263238"/>
<path d="M48.5815 30.8559H47.4958C47.4751 30.8525 47.4564 30.8419 47.4428 30.826C47.4293 30.81 47.4219 30.7898 47.4219 30.7689C47.4219 30.748 47.4293 30.7277 47.4428 30.7118C47.4564 30.6959 47.4751 30.6853 47.4958 30.6819H48.5815C48.6022 30.6853 48.6209 30.6959 48.6345 30.7118C48.648 30.7277 48.6554 30.748 48.6554 30.7689C48.6554 30.7898 48.648 30.81 48.6345 30.826C48.6209 30.8419 48.6022 30.8525 48.5815 30.8559Z" fill="#263238"/>
<path d="M43.5832 33.6771C43.5984 33.8168 43.5836 33.958 43.5399 34.0915C43.4962 34.225 43.4245 34.3477 43.3297 34.4513C43.2349 34.5549 43.119 34.6371 42.9899 34.6925C42.8608 34.7478 42.7214 34.775 42.5809 34.7722C42.2833 34.7663 41.9982 34.6517 41.7793 34.4499C41.5605 34.2482 41.4231 33.9733 41.3931 33.6771C41.3772 33.5382 41.3912 33.3975 41.4341 33.2645C41.4769 33.1314 41.5478 33.0091 41.6418 32.9056C41.7358 32.8021 41.8508 32.72 41.9792 32.6646C42.1076 32.6092 42.2463 32.5818 42.386 32.5844C42.6843 32.5899 42.9703 32.7039 43.1906 32.905C43.411 33.1061 43.5505 33.3806 43.5832 33.6771Z" fill="white"/>
<path d="M42.2241 33.4265C42.2264 33.4485 42.224 33.4708 42.2171 33.4918C42.2102 33.5129 42.199 33.5323 42.1841 33.5487C42.1692 33.5651 42.151 33.5782 42.1307 33.5871C42.1104 33.596 42.0885 33.6006 42.0664 33.6005C42.0187 33.6001 41.973 33.5822 41.9378 33.55C41.9027 33.5179 41.8807 33.4739 41.8761 33.4265C41.8735 33.4044 41.8756 33.3819 41.8823 33.3607C41.8891 33.3395 41.9003 33.32 41.9153 33.3035C41.9302 33.287 41.9486 33.2739 41.969 33.2651C41.9895 33.2563 42.0116 33.252 42.0339 33.2525C42.0815 33.2528 42.1273 33.2708 42.1624 33.3029C42.1975 33.3351 42.2195 33.3791 42.2241 33.4265Z" fill="#263238"/>
<path d="M43.0522 33.4265C43.0549 33.4486 43.0528 33.471 43.046 33.4922C43.0393 33.5135 43.028 33.533 43.0131 33.5495C42.9981 33.566 42.9798 33.5791 42.9593 33.5879C42.9389 33.5967 42.9167 33.601 42.8945 33.6005C42.8472 33.5991 42.8019 33.5808 42.767 33.5489C42.7321 33.5169 42.7098 33.4735 42.7042 33.4265C42.7016 33.4044 42.7037 33.3819 42.7105 33.3607C42.7172 33.3395 42.7284 33.32 42.7434 33.3035C42.7584 33.287 42.7767 33.2739 42.7972 33.2651C42.8176 33.2563 42.8397 33.252 42.862 33.2525C42.9098 33.2523 42.9558 33.2701 42.9911 33.3023C43.0263 33.3346 43.0482 33.3789 43.0522 33.4265Z" fill="#263238"/>
<path d="M41.989 34.3358C41.9783 34.336 41.9677 34.334 41.9577 34.33C41.9477 34.3261 41.9387 34.3201 41.931 34.3126C41.9151 34.2966 41.9062 34.2749 41.9062 34.2523C41.9062 34.2297 41.9151 34.2081 41.931 34.192C42.0063 34.112 42.0973 34.0484 42.1983 34.0053C42.2993 33.9622 42.4081 33.9404 42.518 33.9414C42.7478 33.9439 42.9685 34.0315 43.1374 34.1874C43.1456 34.1952 43.152 34.2045 43.1565 34.2149C43.1609 34.2253 43.1632 34.2364 43.1632 34.2477C43.1632 34.2589 43.1609 34.2701 43.1565 34.2805C43.152 34.2908 43.1456 34.3002 43.1374 34.308C43.1207 34.3235 43.0987 34.3321 43.0759 34.3321C43.0531 34.3321 43.0312 34.3235 43.0145 34.308C42.8772 34.1799 42.6964 34.1086 42.5087 34.1085C42.4222 34.1065 42.3363 34.1227 42.2564 34.1558C42.1765 34.189 42.1044 34.2384 42.0447 34.301C42.0311 34.3192 42.0113 34.3316 41.989 34.3358Z" fill="#263238"/>
<path d="M59.5627 25.6498C58.8389 24.1256 57.1499 23.1164 55.3287 23.1164H51.6167C51.3619 23.1276 51.1085 23.0713 50.8824 22.9532C50.6563 22.835 50.4654 22.6592 50.3291 22.4436C49.8118 21.4738 48.5775 20.7825 47.1762 20.7825C45.775 20.7825 44.6242 21.4785 44.2159 22.4436C44.0466 22.8519 43.5617 23.1164 43.0049 23.1164H39.2929C37.4717 23.1164 35.8964 24.1256 35.3489 25.6498C35.3286 25.703 35.3207 25.7602 35.3257 25.8169C35.3316 25.9359 35.3831 26.048 35.4695 26.1301C35.5559 26.2121 35.6705 26.2578 35.7897 26.2577H59.1938C59.2654 26.2578 59.3357 26.2395 59.3981 26.2045C59.4604 26.1695 59.5127 26.119 59.5498 26.0578C59.5869 25.9967 59.6076 25.927 59.6099 25.8555C59.6121 25.7841 59.5959 25.7132 59.5627 25.6498ZM47.327 23.5363C47.0501 23.5306 46.7854 23.4215 46.5849 23.2304C46.3844 23.0394 46.2627 22.7802 46.2436 22.5039C46.2343 22.3708 46.2527 22.2373 46.2976 22.1117C46.3425 21.9861 46.4129 21.8711 46.5045 21.7741C46.5961 21.6771 46.7067 21.6001 46.8295 21.548C46.9523 21.496 47.0846 21.4699 47.218 21.4715C47.4967 21.4744 47.764 21.5823 47.9666 21.7737C48.1691 21.9651 48.292 22.2259 48.3107 22.5039C48.3201 22.6378 48.3015 22.7721 48.256 22.8984C48.2106 23.0246 48.1393 23.14 48.0467 23.2372C47.9541 23.3343 47.8423 23.4111 47.7184 23.4626C47.5945 23.5141 47.4612 23.5392 47.327 23.5363Z" fill="#263238"/>
<path d="M83.6168 94.9137C83.4353 94.9361 83.2519 94.8906 83.1018 94.7861C83.082 94.7616 83.07 94.7318 83.0671 94.7004C83.0642 94.669 83.0706 94.6375 83.0856 94.6098C83.0967 94.5859 83.1131 94.5649 83.1336 94.5484C83.1542 94.5319 83.1782 94.5204 83.2039 94.5147C83.4776 94.4381 84.111 94.7768 84.1319 94.7931C84.1398 94.7965 84.1463 94.8025 84.1505 94.81C84.1547 94.8176 84.1563 94.8263 84.1551 94.8348C84.1547 94.8426 84.1518 94.85 84.1467 94.8558C84.1417 94.8617 84.1348 94.8658 84.1272 94.8673C83.9587 94.8973 83.788 94.9128 83.6168 94.9137ZM83.3106 94.5843C83.2852 94.5804 83.2594 94.5804 83.234 94.5843C83.2182 94.5872 83.2033 94.5937 83.1904 94.6034C83.1775 94.6131 83.167 94.6256 83.1598 94.6399C83.1366 94.691 83.1598 94.7165 83.1598 94.7304C83.2526 94.8395 83.6841 94.8418 83.995 94.7977C83.7815 94.6861 83.5497 94.6138 83.3106 94.5843Z" fill="#EF233C"/>
<path d="M84.1261 94.8673H84.1098C83.8941 94.7745 83.444 94.4033 83.4533 94.213C83.4533 94.1666 83.4811 94.1109 83.5925 94.0993C83.6758 94.0922 83.7588 94.1171 83.8245 94.1689C83.998 94.3508 84.1156 94.5787 84.1632 94.8255C84.166 94.8313 84.1675 94.8376 84.1675 94.8441C84.1675 94.8505 84.166 94.8568 84.1632 94.8626C84.1579 94.8664 84.1517 94.8688 84.1452 94.8696C84.1387 94.8704 84.1322 94.8696 84.1261 94.8673ZM83.6319 94.1713H83.6087C83.5368 94.1713 83.5345 94.2061 83.5345 94.2153C83.5345 94.3313 83.8384 94.6213 84.0634 94.7466C84.0194 94.5485 83.9205 94.3668 83.7781 94.2223C83.736 94.1907 83.6845 94.1743 83.6319 94.1759V94.1713Z" fill="#EF233C"/>
<path d="M85.995 94.8278H84.2898L83.6797 90.8792H85.3849L85.995 94.8278Z" fill="#FFC3BD"/>
<path d="M84.2788 94.6306H86.1348C86.1698 94.6316 86.2036 94.6432 86.2318 94.6639C86.26 94.6846 86.2812 94.7135 86.2925 94.7466L86.7983 96.2616C86.809 96.2955 86.8118 96.3315 86.8064 96.3666C86.8009 96.4018 86.7875 96.4353 86.7671 96.4644C86.7467 96.4936 86.7199 96.5177 86.6887 96.5348C86.6575 96.5519 86.6227 96.5616 86.5872 96.5632C85.9144 96.5632 84.94 96.5145 84.0955 96.5145C83.1095 96.5145 83.1977 96.5678 82.04 96.5678C81.344 96.5678 81.0679 95.8602 81.344 95.7953C82.6455 95.5053 82.7963 95.4728 83.8681 94.7628C83.9882 94.6777 84.1316 94.6315 84.2788 94.6306Z" fill="#263238"/>
<path opacity="0.2" d="M83.6797 90.8813L83.9952 92.916H85.7004L85.3849 90.8813H83.6797Z" fill="black"/>
<path d="M85.8006 52.3044L84.6406 53.476L86.4177 54.1048C86.4177 54.1048 87.1137 53.1489 86.6242 52.4947L85.8006 52.3044Z" fill="#FFC3BD"/>
<path d="M84.25 55.114L86.0248 55.3738L86.4215 54.1048L84.6444 53.4761L84.25 55.114Z" fill="#FFC3BD"/>
<path d="M86.5741 37.8787C86.7249 38.2035 86.8455 38.4795 86.9662 38.7811C87.0868 39.0827 87.1982 39.3727 87.3142 39.6697C87.5346 40.2659 87.7318 40.8738 87.915 41.4886C88.1016 42.1106 88.2564 42.7417 88.379 43.3794L88.4672 43.8666L88.5391 44.3631C88.5646 44.5278 88.5809 44.6995 88.5948 44.8688C88.6087 45.0382 88.6319 45.1913 88.6319 45.4047V45.7063V45.9731L88.618 46.2353L88.5925 46.4835C88.5623 46.8176 88.5182 47.1308 88.4765 47.4487C88.3837 48.0751 88.277 48.6875 88.1586 49.3047C87.9127 50.518 87.6436 51.7035 87.3188 52.8983L85.2053 52.4807C85.3398 51.3022 85.479 50.1051 85.5904 48.9265C85.6438 48.3372 85.7018 47.7503 85.7342 47.1749C85.7482 46.8919 85.7644 46.6042 85.7644 46.3327V46.1286V45.9407V45.7527L85.7482 45.5996C85.7376 45.4774 85.7205 45.3558 85.6971 45.2354C85.6762 45.1055 85.6577 44.9755 85.6275 44.8433L85.5417 44.4466L85.4419 44.0475C85.2981 43.5139 85.1357 42.978 84.9501 42.4421C84.7645 41.9062 84.558 41.3726 84.3399 40.8436C84.2332 40.5768 84.1218 40.3123 84.0058 40.0525C83.8898 39.7927 83.7738 39.5212 83.6602 39.2962L86.5741 37.8787Z" fill="#263238"/>
<path d="M78.5664 51.4739C78.5664 51.4739 78.8495 64.5216 79.6151 69.7184C80.4131 75.124 83.3271 92.5216 83.3271 92.5216H86.2131C86.2131 92.5216 85.1784 75.9638 84.849 70.644C84.4894 64.844 84.5682 51.4739 84.5682 51.4739H78.5664Z" fill="#EF233C"/>
<path d="M82.6333 91.3708C82.6193 91.3708 82.9302 92.5703 82.9302 92.5703H86.4427L86.4172 91.5008L82.6333 91.3708Z" fill="#263238"/>
<path d="M77.9135 30.3222C77.9224 30.1777 77.8529 30.0558 77.7582 30.05C77.6636 30.0441 77.5797 30.1566 77.5708 30.3011C77.5619 30.4456 77.6314 30.5675 77.726 30.5733C77.8207 30.5791 77.9046 30.4667 77.9135 30.3222Z" fill="#263238"/>
<path d="M77.8425 30.573C77.6543 31.0153 77.4078 31.4304 77.1094 31.8072C77.2068 31.878 77.3187 31.9264 77.437 31.9488C77.5553 31.9713 77.6772 31.9673 77.7938 31.9372L77.8425 30.573Z" fill="#ED847E"/>
<path d="M78.4563 29.5105C78.4383 29.5105 78.4207 29.5057 78.4052 29.4965C78.3222 29.4312 78.2246 29.387 78.1208 29.3676C78.017 29.3482 77.91 29.3542 77.809 29.3852C77.7986 29.3893 77.7876 29.3912 77.7765 29.391C77.7653 29.3908 77.7544 29.3883 77.7442 29.3838C77.7341 29.3792 77.7249 29.3727 77.7173 29.3646C77.7097 29.3564 77.7038 29.3469 77.7 29.3365C77.6963 29.3258 77.6948 29.3145 77.6955 29.3033C77.6962 29.292 77.6991 29.281 77.704 29.2709C77.709 29.2608 77.7159 29.2517 77.7244 29.2442C77.7328 29.2368 77.7426 29.2311 77.7533 29.2274C77.8805 29.1861 78.0158 29.1763 78.1475 29.1989C78.2793 29.2215 78.4036 29.2759 78.5096 29.3573C78.5272 29.3711 78.5387 29.3911 78.5417 29.4132C78.5447 29.4353 78.5391 29.4577 78.5259 29.4757C78.5177 29.4864 78.5072 29.4951 78.4951 29.5011C78.4831 29.5072 78.4698 29.5104 78.4563 29.5105Z" fill="#263238"/>
<path d="M82.4292 31.9048C82.1415 33.1529 81.8167 35.4381 82.6612 36.2687C82.6612 36.2687 82.2761 37.5331 79.9584 37.5331C77.4064 37.5331 78.7868 36.2687 78.7868 36.2687C80.1788 35.9369 80.1904 34.9069 79.9816 33.9371L82.4292 31.9048Z" fill="#FFC3BD"/>
<path d="M83.558 36.8534C83.8085 36.3453 84.0846 35.7607 83.558 35.5797C82.9826 35.3779 79.8019 35.1737 78.686 35.5495C78.3879 35.6255 78.1321 35.8168 77.9751 36.0814C77.818 36.3459 77.7725 36.662 77.8484 36.9601L83.558 36.8534Z" fill="#EF233C"/>
<path d="M85.997 36.7581C87.4656 37.4356 88.2126 42.5721 88.2126 42.5721L85.2546 43.5001C84.7262 42.141 84.2974 40.7453 83.9716 39.3241C83.5169 37.1804 84.4936 36.0668 85.997 36.7581Z" fill="#263238"/>
<path d="M67.818 44.7506L66.4538 43.5767L65.2266 45.3631C65.2266 45.3631 66.3286 46.247 67.5466 45.8851L67.818 44.7506Z" fill="#FFC3BD"/>
<path d="M64.6567 43.0083L64.4688 44.7738L65.2274 45.3631L66.4547 43.5767L64.6567 43.0083Z" fill="#FFC3BD"/>
<path d="M82.7398 30.0046C82.5682 31.7771 82.5566 32.8211 81.6286 33.7305C81.3297 34.0266 80.9559 34.2358 80.5472 34.3358C80.1385 34.4358 79.7104 34.4227 79.3086 34.2981C78.9067 34.1735 78.5464 33.9419 78.266 33.6282C77.9857 33.3145 77.7959 32.9304 77.717 32.5172C77.3922 30.9257 77.717 28.2948 79.4872 27.5895C79.864 27.427 80.2769 27.3665 80.6845 27.4139C81.0921 27.4613 81.4801 27.615 81.8096 27.8596C82.139 28.1043 82.3984 28.4312 82.5617 28.8077C82.7249 29.1841 82.7864 29.5969 82.7398 30.0046Z" fill="#FFC3BD"/>
<path d="M79.1118 30.573C78.9564 29.3481 78.9819 28.8841 79.6361 28.6126C78.9564 28.4781 78.3671 28.4595 78.0863 28.0628C77.8056 27.6661 77.7383 26.6522 79.1025 26.1882C78.9772 26.4202 79.374 26.9028 80.6291 26.4666C81.8842 26.0305 83.7124 25.9841 83.8771 27.2601C84.5406 27.0281 85.6519 29.0766 84.3411 30.573C83.2484 31.8258 82.5199 32.6912 82.3041 33.357C82.294 33.3882 82.2774 33.4169 82.2554 33.4412C82.2334 33.4655 82.2065 33.4849 82.1765 33.4981C82.1464 33.5112 82.114 33.5178 82.0812 33.5175C82.0484 33.5172 82.016 33.51 81.9863 33.4962C81.5339 33.2851 80.7242 33.4661 80.3623 33.5635C80.3113 33.5767 80.2574 33.5722 80.2093 33.5507C80.1612 33.5292 80.1219 33.492 80.0978 33.4452C79.8635 32.9626 79.2301 31.5846 79.1118 30.573Z" fill="#263238"/>
<path d="M83.6289 27.4155C83.6289 27.4155 84.1671 26.6568 85.1995 27.2206C84.6687 27.1959 84.1376 27.2618 83.6289 27.4155Z" fill="#263238"/>
<path d="M83.7188 27.5779C83.7188 27.5779 84.4681 27.1139 83.8835 26.2393C83.9193 26.692 83.8633 27.1473 83.7188 27.5779Z" fill="#263238"/>
<path d="M79.9772 30.624C79.8958 31.0626 79.6782 31.4644 79.3554 31.7724C78.9262 32.1784 78.555 31.8907 78.5434 31.3687C78.5318 30.9047 78.7406 30.1205 79.2394 29.9117C79.7382 29.7029 80.0653 30.0996 79.9772 30.624Z" fill="#FFC3BD"/>
<path opacity="0.3" d="M78.8047 58.7239C78.9717 62.6168 79.2339 67.1362 79.6144 69.7184C79.7605 70.702 79.974 72.0801 80.2292 73.6786C81.2546 68.0828 81.8671 60.8722 78.8047 58.7239Z" fill="black"/>
<path d="M77.5273 94.9137C77.3092 94.9137 77.0981 94.8835 77.0308 94.7861C77.0133 94.7601 77.0039 94.7294 77.0039 94.6979C77.0039 94.6665 77.0133 94.6358 77.0308 94.6098C77.062 94.5631 77.109 94.5293 77.1631 94.5147C77.4484 94.4381 78.0331 94.7768 78.0586 94.7931C78.0658 94.797 78.0714 94.8033 78.0743 94.811C78.0773 94.8186 78.0775 94.8271 78.0748 94.8348C78.0732 94.8428 78.0692 94.8502 78.0635 94.8559C78.0577 94.8617 78.0504 94.8657 78.0424 94.8673C77.8723 94.897 77.7 94.9125 77.5273 94.9137ZM77.2698 94.5843C77.2436 94.5805 77.2171 94.5805 77.1909 94.5843C77.1743 94.5875 77.1585 94.594 77.1445 94.6036C77.1305 94.6132 77.1187 94.6256 77.1097 94.6399C77.0796 94.691 77.0888 94.7165 77.0981 94.7304C77.1747 94.8395 77.6039 94.8418 77.924 94.7977C77.7221 94.6843 77.4998 94.6118 77.2698 94.5843Z" fill="#EF233C"/>
<path d="M78.0429 94.8672H78.0267C77.8249 94.7744 77.4281 94.4032 77.4676 94.2129C77.4676 94.1665 77.5093 94.1109 77.6207 94.0993C77.6621 94.0941 77.7041 94.0976 77.744 94.1095C77.784 94.1215 77.821 94.1417 77.8527 94.1689C78.0638 94.3475 78.0847 94.8069 78.0847 94.8254C78.0845 94.8326 78.0828 94.8396 78.0796 94.8461C78.0764 94.8525 78.0718 94.8581 78.0661 94.8625C78.059 94.8662 78.0509 94.8678 78.0429 94.8672ZM77.6509 94.1712H77.6277C77.5534 94.1712 77.5488 94.206 77.5465 94.2153C77.5233 94.3313 77.7901 94.6213 77.9965 94.7465C77.9837 94.5546 77.9116 94.3714 77.7901 94.2222C77.7506 94.1908 77.7013 94.1744 77.6509 94.1758V94.1712Z" fill="#EF233C"/>
<path d="M79.919 94.8278H78.2161L78.1836 90.8792H79.8888L79.919 94.8278Z" fill="#FFC3BD"/>
<path d="M78.2325 94.6306H80.0885C80.1217 94.6302 80.154 94.6416 80.1796 94.6629C80.2051 94.6842 80.2222 94.7139 80.2277 94.7466L80.5131 96.2616C80.5196 96.2989 80.5177 96.3372 80.5077 96.3737C80.4977 96.4102 80.4798 96.4441 80.4552 96.4729C80.4306 96.5017 80.4 96.5247 80.3655 96.5403C80.3309 96.5559 80.2934 96.5637 80.2555 96.5632C79.5851 96.5632 78.6153 96.5145 77.7732 96.5145C76.7848 96.5145 75.9311 96.5678 74.7734 96.5678C74.0774 96.5678 73.9057 95.8602 74.2003 95.7953C75.5436 95.5053 76.634 95.4728 77.8103 94.7629C77.9364 94.6813 78.0824 94.6356 78.2325 94.6306Z" fill="#263238"/>
<path opacity="0.2" d="M78.1836 90.8813L78.1975 92.916H79.9027L79.8888 90.8813H78.1836Z" fill="black"/>
<path d="M75.5221 51.4739C75.5221 51.4739 74.8261 64.2176 74.84 69.4144C74.84 74.82 77.5776 92.5216 77.5776 92.5216H80.4637C80.4637 92.5216 79.712 75.1356 80.0368 69.832C80.3825 64.032 82.0576 51.4785 82.0576 51.4785L75.5221 51.4739Z" fill="#EF233C"/>
<path d="M77.0635 91.3708C77.0496 91.3708 77.1818 92.5703 77.1818 92.5703H80.6943L80.8289 91.5008L77.0635 91.3708Z" fill="#263238"/>
<path d="M76.1466 36.7419C76.1466 36.7419 73.2419 44.08 74.5063 56.7635H85.1134C85.2247 55.3715 84.1158 43.2472 85.698 36.6537C84.6944 36.4594 83.6792 36.3308 82.6588 36.2686C81.3684 36.1943 80.0748 36.1943 78.7844 36.2686C77.8942 36.3582 77.0123 36.5164 76.1466 36.7419Z" fill="#263238"/>
<path opacity="0.2" d="M74.6446 43.3842C74.4869 44.5442 74.357 45.8689 74.2734 47.3282C76.3336 45.4351 77.0389 40.7185 77.0389 40.7185L74.6446 43.3842Z" fill="black"/>
<path d="M77.2398 40.2359C76.8222 41.3217 76.4 42.368 75.936 43.4189C75.472 44.4699 74.9917 45.5069 74.4512 46.5463L74.24 46.9337L74.1333 47.1286C74.0893 47.2075 74.0939 47.2121 73.9733 47.414C73.7653 47.7411 73.4769 48.0095 73.1357 48.1935C72.8536 48.3418 72.5457 48.4348 72.2286 48.4673C71.7928 48.5072 71.3533 48.4719 70.9294 48.3629C70.5943 48.2799 70.2655 48.1729 69.9457 48.0427C69.3717 47.8051 68.8158 47.5259 68.2823 47.2075C68.0201 47.0567 67.7696 46.8943 67.5213 46.7435C67.2731 46.5927 67.0481 46.4001 66.7812 46.2145L68.034 44.2936C68.9331 44.789 69.8768 45.1983 70.8528 45.5162C71.06 45.5802 71.2717 45.6283 71.4862 45.6601C71.6086 45.6861 71.7351 45.6861 71.8574 45.6601C71.8713 45.6601 71.8272 45.6461 71.7507 45.6856C71.6575 45.7331 71.5777 45.8033 71.5187 45.8897C71.47 45.9709 71.5326 45.8503 71.5535 45.8039L71.637 45.6206L71.804 45.2564C72.2448 44.2727 72.6532 43.2542 73.0499 42.2404C73.4466 41.2266 73.8317 40.1686 74.1867 39.1455L77.2398 40.2359Z" fill="#263238"/>
<path d="M78.3898 37.5121C78.9327 39.0294 75.0907 45.138 75.0907 45.138L72.8125 42.8806C72.8125 42.8806 73.3948 40.962 74.1627 38.6513C74.9191 36.38 77.8724 36.0621 78.3898 37.5121Z" fill="#263238"/>
</svg>
