<svg width="116" height="116" viewBox="0 0 116 116" fill="none" xmlns="http://www.w3.org/2000/svg">
<path d="M108.067 28.3156C107.698 27.6969 107.311 27.086 106.907 26.4828C101.532 18.5136 92.2775 13.0639 83.1738 10.6001C79.1796 9.53756 75.0763 8.93892 70.9451 8.81598C43.8892 7.88798 33.1128 29.232 24.1716 34.7234C15.2303 40.2149 1.47269 49.6271 2.39141 69.3448C3.31013 89.0625 17.5224 107.625 45.0353 108.785C72.5482 109.945 74.3833 97.549 89.744 92.9647C99.9103 89.9301 107.144 79.6804 110.67 70.2078C115.491 57.304 115.264 40.5281 108.067 28.3156Z" fill="#EF233C"/>
<path opacity="0.7" d="M108.067 28.3156C107.698 27.6969 107.311 27.086 106.907 26.4828C101.532 18.5136 92.2775 13.0639 83.1738 10.6001C79.1796 9.53756 75.0763 8.93892 70.9451 8.81598C43.8892 7.88798 33.1128 29.232 24.1716 34.7234C15.2303 40.2149 1.47269 49.6271 2.39141 69.3448C3.31013 89.0625 17.5224 107.625 45.0353 108.785C72.5482 109.945 74.3833 97.549 89.744 92.9647C99.9103 89.9301 107.144 79.6804 110.67 70.2078C115.491 57.304 115.264 40.5281 108.067 28.3156Z" fill="white"/>
<path d="M2.27734 103.764H112.227" stroke="#263238" stroke-miterlimit="10"/>
<path d="M104.632 72.3654C104.633 72.3629 104.634 72.3601 104.634 72.3573C104.634 72.3544 104.633 72.3516 104.632 72.349C104.631 72.3464 104.629 72.3441 104.627 72.3421C104.625 72.3402 104.623 72.3386 104.62 72.3376C104.616 72.334 104.611 72.332 104.605 72.332C104.6 72.332 104.594 72.334 104.59 72.3376C103.921 73.9281 103.392 75.5737 103.008 77.256C102.624 78.935 102.336 80.6344 102.145 82.3461L102.022 83.6314C102.003 83.8471 101.98 84.0606 101.964 84.274L101.929 84.9213C101.911 85.3505 101.885 85.782 101.871 86.2112L101.883 87.5034L101.899 88.1507C101.899 88.3665 101.922 88.5799 101.938 88.7957C101.971 89.2249 101.996 89.6541 102.036 90.0833C102.119 90.9394 102.247 91.7931 102.379 92.6353C102.38 92.6408 102.383 92.6459 102.387 92.6497C102.391 92.6535 102.397 92.6557 102.402 92.6562C102.408 92.6556 102.414 92.653 102.418 92.6488C102.422 92.6445 102.425 92.6389 102.426 92.633C102.426 92.2038 102.405 91.7746 102.395 91.3454C102.386 90.9162 102.344 90.4916 102.351 90.0624C102.358 89.6332 102.351 89.2063 102.337 88.7794V88.1391V87.4988V86.2182L102.372 84.9375L102.386 84.2972C102.386 84.0838 102.409 83.8703 102.421 83.6569L102.5 82.3786C102.651 80.674 102.898 78.9793 103.24 77.3024C103.56 75.6196 104.026 73.9677 104.632 72.3654Z" fill="#263238"/>
<path d="M104.807 79.0609C104.808 79.0553 104.807 79.0496 104.805 79.0446C104.802 79.0395 104.798 79.0355 104.793 79.033C104.79 79.0319 104.787 79.0314 104.784 79.0315C104.781 79.0316 104.778 79.0323 104.775 79.0336C104.772 79.0349 104.77 79.0368 104.768 79.0391C104.765 79.0413 104.764 79.044 104.763 79.0469C104.401 80.1125 104.097 81.1967 103.851 82.2949C103.61 83.3985 103.43 84.5146 103.313 85.6381C103.199 86.7586 103.081 87.8815 103.06 89.009C103.031 90.1364 103.071 91.2644 103.178 92.3869C103.178 92.3985 103.178 92.4078 103.199 92.4078C103.202 92.4081 103.205 92.4079 103.208 92.407C103.211 92.4061 103.214 92.4047 103.216 92.4027C103.219 92.4008 103.221 92.3984 103.222 92.3957C103.224 92.393 103.224 92.39 103.225 92.3869C103.355 91.2664 103.433 90.1458 103.512 89.0276C103.591 87.9093 103.601 86.7888 103.675 85.6682C103.83 83.4319 104.209 81.2167 104.807 79.0562V79.0609Z" fill="#263238"/>
<path d="M108.521 81.4181C108.519 81.416 108.517 81.4144 108.514 81.4133C108.512 81.4122 108.509 81.4116 108.506 81.4116C108.503 81.4116 108.5 81.4122 108.498 81.4133C108.495 81.4144 108.493 81.416 108.491 81.4181C107.562 82.0147 106.726 82.7439 106.009 83.5826C105.647 84.0045 105.322 84.4562 105.036 84.9329L104.837 85.3087L104.681 85.6985C104.626 85.8284 104.586 85.9629 104.545 86.0952C104.503 86.2274 104.461 86.362 104.424 86.4965C104.14 87.5677 103.968 88.6656 103.911 89.7724C103.855 90.8728 103.896 91.976 104.034 93.0691C104.034 93.0807 104.034 93.09 104.055 93.09C104.061 93.09 104.066 93.0879 104.071 93.084C104.075 93.0802 104.078 93.0748 104.078 93.0691L104.361 89.8025C104.44 88.723 104.578 87.6488 104.777 86.5847C104.804 86.4525 104.844 86.3249 104.876 86.1949C104.906 86.0642 104.944 85.9356 104.99 85.8098L105.122 85.4317L105.294 85.0767C105.552 84.6019 105.849 84.1495 106.183 83.7241C106.846 82.859 107.631 82.0947 108.514 81.4552C108.518 81.4542 108.521 81.4521 108.524 81.4492C108.527 81.4463 108.529 81.4427 108.529 81.4388C108.53 81.4349 108.53 81.4309 108.528 81.4272C108.527 81.4236 108.524 81.4204 108.521 81.4181Z" fill="#263238"/>
<path d="M106.722 85.6079C106.24 85.9603 105.852 86.4265 105.593 86.9651C105.321 87.4945 105.108 88.0524 104.959 88.6285C104.915 88.7701 104.88 88.9139 104.85 89.0601L104.748 89.4939C104.693 89.7853 104.656 90.0797 104.637 90.3755C104.637 90.6701 104.637 90.9671 104.637 91.2617C104.658 91.5576 104.697 91.852 104.753 92.1434C104.754 92.1478 104.756 92.1519 104.759 92.1552C104.763 92.1585 104.767 92.1608 104.771 92.1619C104.774 92.1626 104.777 92.1626 104.78 92.162C104.783 92.1614 104.786 92.1602 104.788 92.1585C104.791 92.1567 104.793 92.1544 104.794 92.1518C104.796 92.1492 104.797 92.1463 104.797 92.1434C104.865 91.8572 104.918 91.5675 104.955 91.2757C105.001 90.988 105.045 90.7026 105.08 90.4173C105.115 90.1319 105.159 89.8489 105.182 89.5612C105.205 89.2735 105.242 88.9905 105.303 88.7097C105.403 88.1445 105.566 87.5921 105.787 87.0625C105.987 86.5224 106.313 86.0374 106.736 85.6474C106.738 85.6454 106.74 85.6431 106.741 85.6405C106.742 85.6379 106.743 85.6351 106.743 85.6323C106.743 85.6295 106.742 85.6267 106.741 85.6241C106.74 85.6215 106.738 85.6191 106.736 85.6172C106.735 85.6148 106.733 85.6127 106.73 85.6111C106.728 85.6095 106.725 85.6084 106.722 85.6079Z" fill="#263238"/>
<path d="M101.516 88.8837C101.395 87.4337 101.156 86 100.929 84.5639C100.701 83.1278 100.455 81.701 100.191 80.2719C99.9264 78.8428 99.6341 77.4229 99.3279 76.0054C99.3259 75.9997 99.3221 75.9948 99.317 75.9915C99.312 75.9881 99.306 75.9865 99.3 75.9869C99.2941 75.9885 99.2889 75.9922 99.2855 75.9973C99.2821 76.0024 99.2807 76.0086 99.2815 76.0147C99.5297 77.4438 99.7455 78.8753 99.9775 80.309C100.209 81.7428 100.4 83.1789 100.581 84.6149C100.762 86.051 100.896 87.4964 101.075 88.9301L101.606 93.2453C101.606 93.2509 101.608 93.2562 101.612 93.2601C101.616 93.264 101.621 93.2662 101.627 93.2662C101.63 93.2666 101.633 93.2663 101.636 93.2654C101.638 93.2645 101.641 93.263 101.643 93.261C101.645 93.259 101.647 93.2566 101.648 93.2539C101.65 93.2512 101.65 93.2483 101.65 93.2453C101.666 92.8811 101.669 92.5169 101.678 92.1526C101.687 91.7884 101.662 91.4265 101.655 91.0622C101.634 90.3337 101.571 89.6076 101.516 88.8837Z" fill="#263238"/>
<path d="M100.649 88.8559C100.57 88.2806 100.466 87.7099 100.357 87.1415L100.152 86.2947C100.085 86.0139 100.022 85.7309 99.9389 85.4525C99.6502 84.3306 99.2804 83.2311 98.8323 82.1627L98.6583 81.7637L98.4657 81.3739C98.3428 81.1118 98.1943 80.8612 98.0528 80.6084C97.7688 80.099 97.4168 79.6307 97.0065 79.2164C97.0021 79.2121 96.9963 79.2097 96.9902 79.2097C96.9841 79.2097 96.9783 79.2121 96.974 79.2164C96.9706 79.2211 96.9688 79.2268 96.9688 79.2326C96.9688 79.2384 96.9706 79.2441 96.974 79.2488C97.3551 79.6765 97.6774 80.1532 97.9321 80.6664C98.0574 80.9239 98.1897 81.1767 98.2987 81.4435L98.4681 81.8379L98.6189 82.2416C99.0201 83.3159 99.3434 84.4176 99.5863 85.5384C99.7185 86.0952 99.8044 86.6636 99.9134 87.2273L100.048 88.0764C100.099 88.3595 100.159 88.6379 100.199 88.9232C100.289 89.4893 100.394 90.0554 100.491 90.6215C100.589 91.1875 100.684 91.7583 100.804 92.3267C100.806 92.3315 100.808 92.3358 100.812 92.3391C100.816 92.3424 100.82 92.3445 100.825 92.3452C100.828 92.3456 100.831 92.3453 100.834 92.3442C100.837 92.3432 100.84 92.3415 100.842 92.3393C100.845 92.337 100.846 92.3343 100.847 92.3313C100.848 92.3283 100.849 92.3252 100.848 92.322C100.848 91.7443 100.837 91.162 100.809 90.5867C100.781 90.0113 100.709 89.4383 100.649 88.8559Z" fill="#263238"/>
<path d="M99.4488 88.9372C99.1797 88.1763 98.8688 87.4316 98.5208 86.7008C98.1765 85.9731 97.7891 85.2666 97.3608 84.5849C97.3566 84.5813 97.3513 84.5793 97.3457 84.5793C97.3402 84.5793 97.3349 84.5813 97.3307 84.5849C97.3286 84.5869 97.327 84.5892 97.3259 84.5918C97.3248 84.5944 97.3242 84.5972 97.3242 84.6C97.3242 84.6028 97.3248 84.6056 97.3259 84.6082C97.327 84.6108 97.3286 84.6131 97.3307 84.6151C97.7018 85.3225 98.0303 86.0515 98.3143 86.7982C98.609 87.5406 98.8758 88.2923 99.0962 89.0556C99.3166 89.8188 99.4859 90.5984 99.6901 91.364C99.8943 92.1296 100.075 92.9044 100.312 93.684C100.313 93.6885 100.316 93.6924 100.32 93.6953C100.323 93.6982 100.328 93.6999 100.333 93.7002C100.339 93.7002 100.345 93.6978 100.349 93.6934C100.353 93.6891 100.356 93.6832 100.356 93.677C100.364 92.8676 100.286 92.0596 100.124 91.2665C99.9626 90.473 99.7368 89.694 99.4488 88.9372Z" fill="#263238"/>
<path d="M99.3984 91.4707C99.2515 90.996 99.0366 90.5452 98.7604 90.1321C98.5043 89.7057 98.1922 89.3156 97.8324 88.9721C97.6482 88.8065 97.4503 88.6567 97.2408 88.5243C97.034 88.3903 96.8079 88.2886 96.5703 88.2227C96.5654 88.2216 96.5602 88.2222 96.5556 88.2243C96.551 88.2263 96.5472 88.2299 96.5448 88.2343C96.5425 88.2399 96.5423 88.2461 96.5445 88.2518C96.5467 88.2574 96.551 88.262 96.5564 88.2645C96.9844 88.4693 97.3634 88.7636 97.6677 89.1275C97.9774 89.4815 98.2381 89.8756 98.4426 90.2991C98.663 90.7167 98.7767 91.1761 98.9669 91.6053C99.0527 91.8257 99.1363 92.0461 99.2337 92.2665C99.3162 92.4951 99.4131 92.7183 99.5237 92.9347C99.5254 92.9381 99.5281 92.941 99.5313 92.9431C99.5346 92.9451 99.5384 92.9462 99.5423 92.9463C99.5453 92.9466 99.5484 92.9463 99.5513 92.9454C99.5543 92.9445 99.557 92.9431 99.5594 92.9411C99.5618 92.9392 99.5637 92.9368 99.5652 92.9341C99.5666 92.9314 99.5675 92.9284 99.5678 92.9254C99.5748 92.6776 99.5655 92.4296 99.5399 92.183C99.5075 91.951 99.4564 91.7097 99.3984 91.4707Z" fill="#263238"/>
<path d="M99.4873 78.0797C98.7634 77.8778 98.1084 77.482 97.5932 76.9349C97.078 76.3878 96.7221 75.7102 96.5641 74.9755C96.0142 72.4235 97.7821 73.5139 96.1975 69.4934C94.6129 65.4728 94.9795 64.561 95.527 63.4034C96.0746 62.2457 96.3808 62.6122 96.868 64.1342C97.3552 65.6561 99.1207 68.0318 99.7912 72.4862C100.462 76.9406 99.4873 78.0797 99.4873 78.0797Z" fill="#EF233C"/>
<path d="M104.167 73.7575C104.167 73.7575 102.584 73.2076 102.522 70.2241C102.459 67.2406 103.682 67.8484 103.863 64.1341C104.044 60.4198 104.29 57.8005 104.958 57.7402C105.626 57.6799 107.394 59.566 108.004 63.7072C108.614 67.8484 107.213 70.5883 105.995 71.8086C104.777 73.029 104.167 73.7575 104.167 73.7575Z" fill="#EF233C"/>
<path d="M98.6341 81.6639C98.6341 81.6639 98.2699 79.4715 97.5391 78.4368C96.8083 77.4021 95.2191 76.488 94.189 74.4789C93.1589 72.4698 91.9966 71.4931 92.0569 74.3559C92.1173 77.2188 93.3979 78.6804 94.9801 79.6548C96.5624 80.6292 98.6341 81.6639 98.6341 81.6639Z" fill="#EF233C"/>
<path d="M97.9671 85.4503C97.9671 85.4503 96.5055 82.6478 94.3734 80.5783C92.2414 78.5089 90.5362 77.4719 91.144 78.5066C91.7518 79.5413 92.485 79.481 93.5197 81.3091C94.5544 83.1373 94.2505 84.4759 95.7121 85.5107C97.1737 86.5454 97.9671 85.4503 97.9671 85.4503Z" fill="#EF233C"/>
<path d="M97.783 89.044C97.7227 88.8607 97.66 87.5197 95.5906 86.4247C93.5211 85.3297 91.57 85.7542 91.8136 86.3017C92.0572 86.8493 93.3355 87.7633 94.6162 88.3132C95.8968 88.863 97.783 89.044 97.783 89.044Z" fill="#EF233C"/>
<path d="M104.058 81.7962C104.058 81.7962 103.144 80.6361 103.631 78.2025C104.118 75.7688 105.214 76.3743 106.432 75.096C107.65 73.8177 107.406 73.6344 108.624 72.2934C109.842 70.9525 110.944 70.224 111.426 70.7715C111.909 71.319 111.194 73.0266 110.452 74.001C109.71 74.9754 108.564 75.4625 108.016 76.6805C107.469 77.8985 107.712 79.8474 106.311 80.7591C104.91 81.6709 104.058 81.7962 104.058 81.7962Z" fill="#EF233C"/>
<path d="M107.102 82.4645C107.102 82.4645 109.294 79.9682 110.879 78.1423C112.463 76.3165 113.071 74.9129 113.131 76.1309C113.192 77.3489 113.679 78.3233 112.4 79.9078C111.122 81.4924 107.102 82.4645 107.102 82.4645Z" fill="#EF233C"/>
<path d="M105.941 86.4851C105.941 86.4851 105.881 85.5107 109.352 83.2579C112.823 81.0052 114.287 80.5783 113.92 81.4901C113.553 82.4019 112.034 83.3183 110.389 84.9701C108.744 86.6219 105.941 86.4851 105.941 86.4851Z" fill="#EF233C"/>
<path d="M99.632 77.8197C99.632 77.8197 98.8177 73.4512 97.9662 70.3447C97.1148 67.2382 96.5742 65.3521 96.5742 65.3521" stroke="#263238" stroke-width="0.5" stroke-linecap="round" stroke-linejoin="round"/>
<path d="M104.039 73.8015C104.039 73.8015 105.519 69.0663 106.006 66.2035C106.494 63.3406 105.944 61.2108 105.7 59.9395" stroke="#263238" stroke-width="0.5" stroke-linecap="round" stroke-linejoin="round"/>
<path d="M98.4441 81.5827C97.788 80.455 97.0367 79.3855 96.1984 78.3858C94.8597 76.8012 93.8227 75.9498 93.2148 74.4255" stroke="#263238" stroke-width="0.5" stroke-linecap="round" stroke-linejoin="round"/>
<path d="M104.059 81.7962C104.059 81.7962 104.546 78.873 105.701 77.3487C106.857 75.8245 109.181 73.4511 110.086 71.9292" stroke="#263238" stroke-width="0.5" stroke-linecap="round" stroke-linejoin="round"/>
<path d="M97.6391 88.9767C97.6391 88.9767 95.5905 87.6427 94.1289 86.9119" stroke="#263238" stroke-width="0.5" stroke-linecap="round" stroke-linejoin="round"/>
<path d="M104.965 105.043H99.2296L98 91.4265H106.194L104.965 105.043Z" fill="#263238" stroke="#263238" stroke-linecap="round" stroke-linejoin="round"/>
<path d="M32.527 21.562H14.707V43.7621H32.527V21.562Z" stroke="#263238" stroke-linecap="round" stroke-linejoin="round"/>
<path d="M31.9443 22.2859H15.2891V43.0337H31.9443V22.2859Z" stroke="#263238" stroke-linecap="round" stroke-linejoin="round"/>
<path d="M27.044 28.3967H20.1953V36.9274H27.044V28.3967Z" stroke="#263238" stroke-linecap="round" stroke-linejoin="round"/>
<path d="M46.0664 8.47043L46.3912 12.8784C46.484 12.8002 46.5967 12.7492 46.7167 12.731C46.8367 12.7127 46.9594 12.728 47.0713 12.7751C47.1832 12.8222 47.2799 12.8993 47.3507 12.9978C47.4216 13.0964 47.4638 13.2126 47.4728 13.3337C47.4817 13.4547 47.4571 13.5759 47.4015 13.6839C47.346 13.7918 47.2617 13.8823 47.158 13.9453C47.0543 14.0084 46.9351 14.0416 46.8138 14.0412C46.6924 14.0409 46.5734 14.007 46.4701 13.9433L46.5374 14.8481C46.6418 14.7594 46.7719 14.7066 46.9086 14.6973C46.9946 14.6909 47.0811 14.7015 47.1631 14.7286C47.2451 14.7556 47.3209 14.7985 47.3863 14.8548C47.4517 14.9112 47.5053 14.9798 47.5442 15.0569C47.583 15.134 47.6063 15.2179 47.6127 15.304C47.6191 15.3901 47.6085 15.4765 47.5814 15.5585C47.5544 15.6405 47.5115 15.7163 47.4552 15.7817C47.3988 15.8471 47.3302 15.9007 47.2531 15.9396C47.176 15.9784 47.0921 16.0017 47.006 16.0081C46.8685 16.019 46.7311 15.9857 46.6139 15.913L46.6812 16.8178C46.7608 16.7516 46.855 16.7052 46.956 16.6824C47.057 16.6595 47.1619 16.6609 47.2623 16.6863C47.3627 16.7118 47.4556 16.7606 47.5335 16.8289C47.6114 16.8971 47.672 16.9828 47.7105 17.0789C47.7489 17.175 47.7641 17.2789 47.7547 17.382C47.7454 17.4851 47.7118 17.5846 47.6567 17.6722C47.6015 17.7599 47.5265 17.8333 47.4376 17.8864C47.3487 17.9395 47.2485 17.9708 47.1452 17.9778C47.0085 17.9885 46.8719 17.9552 46.7554 17.8827L46.8204 18.7875C46.9001 18.7198 46.9947 18.6721 47.0964 18.6482C47.1981 18.6243 47.3041 18.625 47.4055 18.6502C47.507 18.6753 47.601 18.7242 47.6798 18.7929C47.7585 18.8615 47.8199 18.9479 47.8587 19.045C47.8975 19.142 47.9127 19.2469 47.903 19.3509C47.8933 19.455 47.8589 19.5552 47.8028 19.6434C47.7467 19.7315 47.6704 19.8051 47.5803 19.858C47.4902 19.9109 47.3887 19.9415 47.2844 19.9475C47.1469 19.9584 47.0095 19.925 46.8923 19.8524L46.9596 20.7572C47.0523 20.6785 47.165 20.6271 47.2851 20.6086C47.4052 20.59 47.5282 20.6051 47.6403 20.652C47.7524 20.699 47.8493 20.7761 47.9204 20.8747C47.9914 20.9734 48.0338 21.0897 48.0428 21.211C48.0518 21.3322 48.027 21.4535 47.9714 21.5616C47.9157 21.6696 47.8312 21.7602 47.7272 21.8232C47.6233 21.8862 47.5039 21.9192 47.3824 21.9186C47.2608 21.918 47.1418 21.8838 47.0385 21.8197L47.1034 22.7268C47.2083 22.637 47.3392 22.5833 47.477 22.5737C47.5809 22.5652 47.6854 22.5814 47.7819 22.6211C47.8783 22.6608 47.964 22.7228 48.0318 22.8021C48.0996 22.8813 48.1476 22.9756 48.1718 23.077C48.1961 23.1784 48.196 23.2842 48.1714 23.3856C48.1468 23.4869 48.0986 23.581 48.0305 23.6601C47.9625 23.7392 47.8767 23.8009 47.7801 23.8404C47.6836 23.8798 47.579 23.8957 47.4751 23.8869C47.3712 23.878 47.2708 23.8446 47.1823 23.7894L47.2496 24.6942C47.3424 24.616 47.4551 24.565 47.5751 24.5467C47.6951 24.5285 47.8178 24.5437 47.9297 24.5908C48.0416 24.6379 48.1383 24.715 48.2091 24.8136C48.28 24.9122 48.3222 25.0284 48.3312 25.1494C48.3401 25.2705 48.3155 25.3917 48.2599 25.4996C48.2044 25.6075 48.1201 25.698 48.0164 25.7611C47.9127 25.8242 47.7935 25.8573 47.6722 25.857C47.5508 25.8566 47.4318 25.8227 47.3285 25.7591L47.3934 26.6639C47.4985 26.5747 47.6295 26.5219 47.767 26.5131C47.853 26.5068 47.9395 26.5176 48.0214 26.5448C48.1033 26.5719 48.1791 26.615 48.2443 26.6714C48.3096 26.7278 48.3631 26.7966 48.4018 26.8737C48.4405 26.9509 48.4637 27.0348 48.4699 27.1209C48.4762 27.207 48.4654 27.2934 48.4382 27.3753C48.4111 27.4573 48.368 27.533 48.3116 27.5983C48.2552 27.6636 48.1864 27.7171 48.1093 27.7558C48.0322 27.7945 47.9482 27.8176 47.8621 27.8239C47.7253 27.8346 47.5888 27.8012 47.4723 27.7288L47.5396 28.6336C47.6192 28.5674 47.7134 28.521 47.8144 28.4981C47.9154 28.4753 48.0203 28.4766 48.1207 28.5021C48.2211 28.5276 48.314 28.5764 48.3919 28.6446C48.4698 28.7128 48.5304 28.7985 48.5689 28.8947C48.6073 28.9908 48.6225 29.0947 48.6131 29.1978C48.6038 29.3009 48.5702 29.4003 48.5151 29.488C48.4599 29.5757 48.3849 29.649 48.296 29.7021C48.2071 29.7552 48.1069 29.7866 48.0036 29.7936C47.8661 29.8044 47.7287 29.7711 47.6115 29.6984L47.6788 30.6032C47.7584 30.5371 47.8526 30.4906 47.9536 30.4678C48.0546 30.445 48.1595 30.4463 48.2599 30.4718C48.3603 30.4972 48.4532 30.5461 48.5311 30.6143C48.609 30.6825 48.6696 30.7682 48.7081 30.8643C48.7465 30.9605 48.7617 31.0643 48.7523 31.1675C48.743 31.2706 48.7094 31.37 48.6543 31.4577C48.5991 31.5453 48.5241 31.6187 48.4352 31.6718C48.3463 31.7249 48.2461 31.7562 48.1428 31.7632C48.0061 31.7739 47.8695 31.7406 47.753 31.6681L47.818 32.5729C47.9107 32.4943 48.0234 32.4429 48.1435 32.4243C48.2636 32.4058 48.3866 32.4208 48.4987 32.4678C48.6108 32.5148 48.7077 32.5918 48.7788 32.6905C48.8498 32.7891 48.8922 32.9055 48.9012 33.0267C48.9102 33.1479 48.8854 33.2693 48.8298 33.3773C48.7741 33.4854 48.6896 33.5759 48.5856 33.6389C48.4817 33.7019 48.3623 33.735 48.2408 33.7344C48.1192 33.7338 48.0002 33.6995 47.8969 33.6355L47.9642 34.5426C48.069 34.4528 48.2 34.3991 48.3377 34.3895C48.4416 34.3809 48.5461 34.3972 48.6426 34.4369C48.739 34.4766 48.8247 34.5386 48.8925 34.6178C48.9603 34.6971 49.0083 34.7913 49.0326 34.8928C49.0568 34.9942 49.0567 35.1 49.0321 35.2013C49.0076 35.3027 48.9593 35.3968 48.8912 35.4758C48.8232 35.5549 48.7374 35.6167 48.6408 35.6561C48.5443 35.6956 48.4397 35.7115 48.3358 35.7026C48.2319 35.6938 48.1315 35.6604 48.043 35.6052L48.108 36.51C48.1877 36.4423 48.2823 36.3946 48.384 36.3707C48.4857 36.3468 48.5917 36.3475 48.6931 36.3726C48.7946 36.3978 48.8886 36.4467 48.9674 36.5154C49.0461 36.584 49.1075 36.6704 49.1463 36.7674C49.1851 36.8645 49.2003 36.9693 49.1906 37.0734C49.1809 37.1774 49.1465 37.2777 49.0904 37.3659C49.0343 37.454 48.958 37.5276 48.8679 37.5805C48.7778 37.6333 48.6763 37.664 48.572 37.67C48.4344 37.679 48.2973 37.645 48.1799 37.5725L48.2472 38.4773C48.3516 38.3886 48.4817 38.3358 48.6184 38.3265C48.7922 38.3136 48.9641 38.3703 49.0961 38.484C49.2282 38.5978 49.3096 38.7594 49.3225 38.9332C49.3354 39.107 49.2788 39.2789 49.165 39.4109C49.0512 39.5429 48.8897 39.6244 48.7158 39.6373C48.5791 39.6485 48.4423 39.6151 48.3261 39.5422L48.391 40.447C48.4707 40.3793 48.5653 40.3316 48.667 40.3077C48.7688 40.2839 48.8747 40.2845 48.9762 40.3097C49.0776 40.3348 49.1716 40.3837 49.2504 40.4524C49.3292 40.521 49.3905 40.6074 49.4293 40.7045C49.4681 40.8015 49.4833 40.9064 49.4736 41.0104C49.4639 41.1145 49.4296 41.2147 49.3735 41.3029C49.3174 41.3911 49.2411 41.4646 49.1509 41.5175C49.0608 41.5704 48.9594 41.6011 48.855 41.607C48.7183 41.6177 48.5817 41.5844 48.4653 41.5119L48.5326 42.4167C48.6122 42.3505 48.7064 42.3041 48.8073 42.2812C48.9083 42.2584 49.0133 42.2598 49.1137 42.2852C49.214 42.3107 49.3069 42.3595 49.3848 42.4277C49.4627 42.496 49.5234 42.5816 49.5618 42.6778C49.6003 42.7739 49.6154 42.8778 49.6061 42.9809C49.5967 43.084 49.5631 43.1835 49.508 43.2711C49.4529 43.3588 49.3778 43.4321 49.2889 43.4852C49.2001 43.5384 49.0999 43.5697 48.9966 43.5767C48.8591 43.5875 48.7217 43.5542 48.6045 43.4816L48.6718 44.3864C48.7645 44.3078 48.8771 44.2563 48.9973 44.2378C49.1174 44.2192 49.2403 44.2343 49.3524 44.2812C49.4646 44.3282 49.5615 44.4053 49.6325 44.5039C49.7036 44.6026 49.7459 44.7189 49.7549 44.8402C49.7639 44.9614 49.7392 45.0827 49.6835 45.1908C49.6278 45.2988 49.5433 45.3894 49.4394 45.4524C49.3354 45.5154 49.2161 45.5484 49.0945 45.5478C48.973 45.5472 48.854 45.513 48.7506 45.4489L48.8179 46.356C48.9221 46.2667 49.0522 46.213 49.1891 46.2029C49.2931 46.1944 49.3976 46.2106 49.494 46.2503C49.5905 46.29 49.6761 46.352 49.7439 46.4313C49.8117 46.5105 49.8597 46.6048 49.884 46.7062C49.9083 46.8076 49.9081 46.9134 49.8836 47.0148C49.859 47.1161 49.8107 47.2102 49.7427 47.2893C49.6747 47.3684 49.5888 47.4301 49.4923 47.4696C49.3957 47.509 49.2912 47.5249 49.1872 47.5161C49.0833 47.5072 48.983 47.4738 48.8945 47.4186L48.9618 48.3234C49.0546 48.2452 49.1672 48.1941 49.2873 48.1759C49.4073 48.1577 49.53 48.1729 49.6419 48.22C49.7537 48.2671 49.8504 48.3442 49.9213 48.4428C49.9921 48.5414 50.0344 48.6576 50.0433 48.7786C50.0523 48.8997 50.0276 49.0209 49.9721 49.1288C49.9166 49.2367 49.8323 49.3272 49.7286 49.3903C49.6248 49.4534 49.5057 49.4865 49.3843 49.4862C49.2629 49.4858 49.144 49.4519 49.0406 49.3883L49.1056 50.2931C49.2106 50.2039 49.3416 50.1511 49.4791 50.1423C49.5652 50.1359 49.6517 50.1465 49.7336 50.1735C49.8156 50.2005 49.8915 50.2435 49.9568 50.2998C50.0222 50.3561 50.0759 50.4248 50.1147 50.5019C50.1536 50.5789 50.1768 50.6629 50.1832 50.749C50.1896 50.835 50.179 50.9215 50.152 51.0035C50.125 51.0854 50.0821 51.1613 50.0257 51.2267C49.9694 51.292 49.9007 51.3457 49.8237 51.3845C49.7466 51.4234 49.6626 51.4467 49.5766 51.4531C49.4391 51.4639 49.3017 51.4306 49.1845 51.358L49.2518 52.2628C49.3314 52.1966 49.4256 52.1502 49.5265 52.1273C49.6275 52.1045 49.7325 52.1058 49.8329 52.1313C49.9332 52.1568 50.0261 52.2056 50.104 52.2738C50.1819 52.342 50.2426 52.4277 50.281 52.5239C50.3195 52.62 50.3346 52.7239 50.3253 52.827C50.3159 52.9301 50.2823 53.0295 50.2272 53.1172C50.1721 53.2048 50.097 53.2782 50.0081 53.3313C49.9193 53.3844 49.8191 53.4158 49.7158 53.4228C49.579 53.4335 49.4424 53.4001 49.326 53.3276L49.391 54.2324C49.4706 54.1648 49.5652 54.117 49.667 54.0932C49.7687 54.0693 49.8747 54.07 49.9761 54.0951C50.0775 54.1203 50.1715 54.1692 50.2503 54.2378C50.3291 54.3065 50.3904 54.3929 50.4293 54.4899C50.4681 54.5869 50.4832 54.6918 50.4735 54.7959C50.4638 54.8999 50.4295 55.0002 50.3734 55.0883C50.3173 55.1765 50.241 55.2501 50.1509 55.3029C50.0607 55.3558 49.9593 55.3865 49.855 55.3924C49.7175 55.4033 49.5801 55.37 49.4629 55.2973L49.5302 56.2021C49.6229 56.1235 49.7355 56.0721 49.8557 56.0535C49.9758 56.035 50.0987 56.05 50.2108 56.097C50.323 56.144 50.4199 56.221 50.4909 56.3197C50.562 56.4183 50.6043 56.5347 50.6133 56.6559C50.6223 56.7771 50.5976 56.8985 50.5419 57.0065C50.4862 57.1146 50.4017 57.2051 50.2978 57.2681C50.1938 57.3311 50.0745 57.3642 49.9529 57.3636C49.8314 57.363 49.7124 57.3287 49.609 57.2647L49.674 58.1718C49.7788 58.082 49.9098 58.0283 50.0475 58.0187C50.1515 58.0101 50.256 58.0263 50.3524 58.0661C50.4489 58.1058 50.5345 58.1678 50.6023 58.247C50.6701 58.3263 50.7181 58.4205 50.7424 58.522C50.7667 58.6234 50.7665 58.7292 50.742 58.8305C50.7174 58.9319 50.6691 59.026 50.6011 59.105C50.5331 59.1841 50.4472 59.2459 50.3507 59.2853C50.2541 59.3247 50.1496 59.3407 50.0456 59.3318C49.9417 59.323 49.8414 59.2896 49.7529 59.2344L49.8202 60.1392C49.8998 60.0715 49.9944 60.0238 50.0962 59.9999C50.1979 59.976 50.3039 59.9767 50.4053 60.0018C50.5067 60.027 50.6007 60.0759 50.6795 60.1446C50.7583 60.2132 50.8196 60.2996 50.8585 60.3966C50.8973 60.4937 50.9124 60.5985 50.9027 60.7026C50.893 60.8066 50.8587 60.9069 50.8026 60.9951C50.7465 61.0832 50.6702 61.1568 50.5801 61.2097C50.4899 61.2625 50.3885 61.2932 50.2842 61.2992C50.1465 61.3082 50.0095 61.2742 49.8921 61.2017L50.0359 63.1552L89.6615 60.2412L85.692 5.56812L46.0664 8.47043Z" fill="#263238" stroke="#263238" stroke-linecap="round" stroke-linejoin="round"/>
<path d="M45.1641 7.20371L45.4865 11.6117C45.5794 11.5335 45.692 11.4825 45.812 11.4642C45.932 11.446 46.0548 11.4613 46.1666 11.5084C46.2785 11.5554 46.3752 11.6325 46.4461 11.7311C46.5169 11.8297 46.5591 11.9459 46.5681 12.067C46.5771 12.188 46.5524 12.3092 46.4969 12.4171C46.4413 12.5251 46.3571 12.6156 46.2533 12.6786C46.1496 12.7417 46.0305 12.7749 45.9091 12.7745C45.7877 12.7742 45.6688 12.7403 45.5654 12.6766L45.6327 13.5814C45.7369 13.492 45.867 13.4384 46.0039 13.4283C46.1075 13.4209 46.2113 13.4382 46.307 13.4786C46.4027 13.519 46.4874 13.5815 46.5543 13.6609C46.6213 13.7403 46.6685 13.8344 46.6921 13.9355C46.7158 14.0366 46.7152 14.1419 46.6904 14.2427C46.6656 14.3436 46.6173 14.4371 46.5495 14.5158C46.4817 14.5944 46.3963 14.6559 46.3002 14.6953C46.2041 14.7346 46.1 14.7507 45.9965 14.7422C45.893 14.7337 45.793 14.7008 45.7046 14.6463L45.7696 15.5511C45.8624 15.4729 45.9751 15.4218 46.0951 15.4036C46.2151 15.3854 46.3378 15.4006 46.4497 15.4477C46.5616 15.4948 46.6583 15.5719 46.7291 15.6705C46.7999 15.769 46.8422 15.8853 46.8511 16.0063C46.8601 16.1274 46.8355 16.2486 46.7799 16.3565C46.7244 16.4644 46.6401 16.5549 46.5364 16.618C46.4326 16.681 46.3135 16.7142 46.1921 16.7139C46.0707 16.7135 45.9518 16.6796 45.8485 16.616L45.9157 17.5208C46.0202 17.4321 46.1503 17.3792 46.2869 17.37C46.4608 17.357 46.6326 17.4137 46.7647 17.5275C46.8967 17.6412 46.9781 17.8028 46.9911 17.9766C47.004 18.1505 46.9473 18.3223 46.8336 18.4543C46.7198 18.5864 46.5582 18.6678 46.3844 18.6808C46.2469 18.6916 46.1095 18.6583 45.9923 18.5856L46.0596 19.4904C46.1392 19.4243 46.2334 19.3778 46.3344 19.355C46.4354 19.3321 46.5403 19.3335 46.6407 19.359C46.741 19.3844 46.834 19.4333 46.9118 19.5015C46.9897 19.5697 47.0504 19.6554 47.0888 19.7515C47.1273 19.8477 47.1425 19.9515 47.1331 20.0547C47.1238 20.1578 47.0902 20.2572 47.035 20.3449C46.9799 20.4325 46.9049 20.5059 46.816 20.559C46.7271 20.6121 46.6269 20.6434 46.5236 20.6504C46.3868 20.6611 46.2503 20.6278 46.1338 20.5553L46.2011 21.4601C46.2807 21.3939 46.3749 21.3475 46.4759 21.3247C46.5769 21.3018 46.6818 21.3032 46.7822 21.3287C46.8826 21.3541 46.9755 21.4029 47.0534 21.4712C47.1313 21.5394 47.1919 21.6251 47.2304 21.7212C47.2688 21.8174 47.284 21.9212 47.2746 22.0243C47.2653 22.1275 47.2317 22.2269 47.1766 22.3146C47.1214 22.4022 47.0464 22.4756 46.9575 22.5287C46.8686 22.5818 46.7684 22.6131 46.6651 22.6201C46.5276 22.631 46.3902 22.5977 46.273 22.525L46.3403 23.4298C46.433 23.3525 46.5452 23.3022 46.6646 23.2845C46.784 23.2668 46.9059 23.2824 47.017 23.3295C47.1281 23.3766 47.2241 23.4534 47.2944 23.5515C47.3648 23.6496 47.4067 23.7651 47.4156 23.8855C47.4245 24.0059 47.4001 24.1264 47.345 24.2337C47.2899 24.3411 47.2063 24.4312 47.1033 24.4942C47.0003 24.5571 46.882 24.5905 46.7613 24.5906C46.6406 24.5907 46.5222 24.5575 46.4192 24.4947L46.4841 25.3995C46.589 25.3096 46.7199 25.2559 46.8577 25.2464C46.9616 25.2378 47.0661 25.254 47.1626 25.2937C47.259 25.3334 47.3447 25.3955 47.4125 25.4747C47.4803 25.554 47.5283 25.6482 47.5525 25.7497C47.5768 25.8511 47.5767 25.9568 47.5521 26.0582C47.5275 26.1596 47.4792 26.2537 47.4112 26.3327C47.3432 26.4118 47.2574 26.4736 47.1608 26.513C47.0642 26.5524 46.9597 26.5684 46.8558 26.5595C46.7519 26.5506 46.6515 26.5172 46.563 26.462L46.6303 27.3668C46.7231 27.2886 46.8358 27.2376 46.9558 27.2194C47.0758 27.2011 47.1985 27.2164 47.3104 27.2635C47.4223 27.3106 47.519 27.3877 47.5898 27.4862C47.6607 27.5848 47.7029 27.701 47.7119 27.8221C47.7208 27.9431 47.6962 28.0643 47.6406 28.1723C47.5851 28.2802 47.5008 28.3707 47.3971 28.4337C47.2934 28.4968 47.1742 28.53 47.0529 28.5296C46.9315 28.5293 46.8125 28.4954 46.7092 28.4317L46.7741 29.3365C46.8792 29.2474 47.0102 29.1945 47.1477 29.1857C47.3215 29.1728 47.4933 29.2295 47.6254 29.3432C47.7574 29.457 47.8389 29.6186 47.8518 29.7924C47.8647 29.9662 47.808 30.1381 47.6943 30.2701C47.5805 30.4022 47.4189 30.4836 47.2451 30.4965C47.1105 30.5022 46.9775 30.4657 46.8646 30.3921L46.9319 31.2969C47.0115 31.2307 47.1057 31.1843 47.2067 31.1615C47.3077 31.1386 47.4126 31.14 47.513 31.1655C47.6134 31.1909 47.7063 31.2397 47.7842 31.308C47.8621 31.3762 47.9227 31.4619 47.9612 31.558C47.9996 31.6542 48.0148 31.758 48.0054 31.8611C47.9961 31.9643 47.9625 32.0637 47.9074 32.1514C47.8522 32.239 47.7772 32.3124 47.6883 32.3655C47.5994 32.4186 47.4992 32.4499 47.3959 32.4569C47.2591 32.4681 47.1224 32.4347 47.0061 32.3618L47.0711 33.2666C47.1508 33.1989 47.2454 33.1512 47.3471 33.1273C47.4488 33.1035 47.5548 33.1041 47.6562 33.1293C47.7577 33.1544 47.8517 33.2033 47.9305 33.272C48.0092 33.3406 48.0706 33.427 48.1094 33.5241C48.1482 33.6211 48.1634 33.726 48.1537 33.83C48.1439 33.9341 48.1096 34.0343 48.0535 34.1225C47.9974 34.2107 47.9211 34.2842 47.831 34.3371C47.7409 34.39 47.6394 34.4207 47.5351 34.4266C47.3984 34.4373 47.2618 34.404 47.1453 34.3315L47.2126 35.2363C47.3055 35.1591 47.4178 35.1091 47.5372 35.0916C47.6566 35.0742 47.7786 35.09 47.8896 35.1373C48.0006 35.1846 48.0965 35.2617 48.1666 35.3599C48.2367 35.4582 48.2784 35.5738 48.287 35.6942C48.2957 35.8146 48.271 35.9351 48.2157 36.0423C48.1603 36.1496 48.0765 36.2395 47.9734 36.3022C47.8702 36.365 47.7518 36.3981 47.6311 36.3979C47.5104 36.3977 47.3921 36.3642 47.2892 36.3012L47.3565 37.206C47.4613 37.1161 47.5923 37.0624 47.73 37.0528C47.8339 37.0443 47.9384 37.0605 48.0349 37.1002C48.1313 37.1399 48.217 37.2019 48.2848 37.2812C48.3526 37.3605 48.4006 37.4547 48.4249 37.5561C48.4491 37.6576 48.449 37.7633 48.4244 37.8647C48.3998 37.9661 48.3516 38.0601 48.2835 38.1392C48.2155 38.2183 48.1297 38.2801 48.0331 38.3195C47.9366 38.3589 47.832 38.3748 47.7281 38.366C47.6242 38.3571 47.5238 38.3237 47.4353 38.2685L47.5026 39.1733C47.6074 39.0852 47.7373 39.0324 47.8738 39.0225C47.9778 39.014 48.0823 39.0302 48.1787 39.0699C48.2752 39.1096 48.3608 39.1716 48.4286 39.2509C48.4964 39.3301 48.5444 39.4244 48.5687 39.5258C48.593 39.6272 48.5928 39.733 48.5683 39.8344C48.5437 39.9357 48.4954 40.0298 48.4274 40.1089C48.3594 40.188 48.2735 40.2497 48.177 40.2892C48.0804 40.3286 47.9759 40.3445 47.8719 40.3357C47.768 40.3268 47.6677 40.2934 47.5792 40.2382L47.6465 41.143C47.7515 41.0539 47.8825 41.001 48.02 40.9922C48.1061 40.9859 48.1925 40.9967 48.2744 41.0239C48.3563 41.051 48.4321 41.0941 48.4973 41.1505C48.5626 41.207 48.6161 41.2757 48.6549 41.3528C48.6936 41.43 48.7167 41.514 48.7229 41.6C48.7292 41.6861 48.7184 41.7726 48.6913 41.8545C48.6641 41.9364 48.6211 42.0121 48.5646 42.0774C48.5082 42.1427 48.4394 42.1962 48.3623 42.2349C48.2852 42.2736 48.2012 42.2967 48.1151 42.303C47.9784 42.3137 47.8418 42.2804 47.7253 42.2079L47.7903 43.1127C47.87 43.045 47.9646 42.9973 48.0663 42.9734C48.168 42.9495 48.274 42.9502 48.3754 42.9753C48.4769 43.0005 48.5709 43.0494 48.6496 43.1181C48.7284 43.1867 48.7898 43.2731 48.8286 43.3702C48.8674 43.4672 48.8826 43.5721 48.8729 43.6761C48.8632 43.7802 48.8288 43.8804 48.7727 43.9686C48.7166 44.0567 48.6403 44.1303 48.5502 44.1832C48.4601 44.2361 48.3586 44.2667 48.2543 44.2727C48.1168 44.2835 47.9794 44.2502 47.8622 44.1776L47.9295 45.0824C48.0091 45.0162 48.1033 44.9698 48.2043 44.9469C48.3053 44.9241 48.4102 44.9254 48.5106 44.9509C48.611 44.9764 48.7039 45.0252 48.7818 45.0934C48.8597 45.1616 48.9203 45.2473 48.9588 45.3435C48.9972 45.4396 49.0124 45.5435 49.003 45.6466C48.9937 45.7497 48.9601 45.8491 48.905 45.9368C48.8498 46.0244 48.7748 46.0978 48.6859 46.1509C48.597 46.204 48.4968 46.2354 48.3935 46.2424C48.2659 46.2554 48.1373 46.2295 48.0246 46.1681L48.0896 47.0729C48.1692 47.0053 48.2638 46.9575 48.3656 46.9336C48.4673 46.9098 48.5733 46.9104 48.6747 46.9356C48.7761 46.9607 48.8701 47.0097 48.9489 47.0783C49.0277 47.147 49.0891 47.2334 49.1279 47.3304C49.1667 47.4274 49.1819 47.5323 49.1721 47.6364C49.1624 47.7404 49.1281 47.8406 49.072 47.9288C49.0159 48.017 48.9396 48.0905 48.8495 48.1434C48.7593 48.1963 48.6579 48.227 48.5536 48.2329C48.417 48.2413 48.2812 48.2081 48.1638 48.1378L48.2311 49.0426C48.3353 48.9532 48.4654 48.8996 48.6023 48.8895C48.6904 48.8794 48.7797 48.8873 48.8648 48.9125C48.9498 48.9378 49.0289 48.98 49.0972 49.0366C49.1655 49.0932 49.2217 49.163 49.2624 49.2418C49.3031 49.3206 49.3275 49.4069 49.3341 49.4953C49.3406 49.5838 49.3293 49.6727 49.3006 49.7567C49.272 49.8407 49.2267 49.918 49.1675 49.984C49.1083 50.0501 49.0363 50.1035 48.9559 50.141C48.8755 50.1786 48.7884 50.1995 48.6997 50.2026C48.5621 50.2117 48.4251 50.1776 48.3077 50.1052L48.3749 51.01C48.4678 50.9317 48.5804 50.8807 48.7004 50.8625C48.8204 50.8442 48.9432 50.8595 49.055 50.9066C49.1669 50.9537 49.2636 51.0308 49.3345 51.1293C49.4053 51.2279 49.4475 51.3441 49.4565 51.4652C49.4655 51.5863 49.4408 51.7074 49.3853 51.8154C49.3297 51.9233 49.2455 52.0138 49.1417 52.0769C49.038 52.1399 48.9189 52.1731 48.7975 52.1727C48.6761 52.1724 48.5572 52.1385 48.4538 52.0748L48.5211 52.9796C48.6255 52.891 48.7556 52.8381 48.8923 52.8288C49.0661 52.8159 49.238 52.8726 49.37 52.9863C49.5021 53.1001 49.5835 53.2617 49.5964 53.4355C49.6093 53.6093 49.5527 53.7812 49.4389 53.9132C49.3251 54.0453 49.1636 54.1267 48.9897 54.1396C48.8523 54.1505 48.7149 54.1172 48.5977 54.0445L48.6649 54.9493C48.7446 54.8831 48.8387 54.8367 48.9397 54.8139C49.0407 54.791 49.1457 54.7924 49.246 54.8179C49.3464 54.8433 49.4393 54.8921 49.5172 54.9604C49.5951 55.0286 49.6557 55.1143 49.6942 55.2104C49.7326 55.3065 49.7478 55.4104 49.7385 55.5135C49.7291 55.6167 49.6955 55.7161 49.6404 55.8038C49.5853 55.8914 49.5102 55.9648 49.4213 56.0179C49.3324 56.071 49.2322 56.1023 49.1289 56.1093C48.9922 56.12 48.8556 56.0867 48.7392 56.0142L48.8041 56.919C48.8838 56.8513 48.9784 56.8036 49.0801 56.7797C49.1819 56.7558 49.2878 56.7565 49.3893 56.7817C49.4907 56.8068 49.5847 56.8557 49.6635 56.9244C49.7423 56.993 49.8036 57.0794 49.8424 57.1765C49.8812 57.2735 49.8964 57.3784 49.8867 57.4824C49.877 57.5865 49.8427 57.6867 49.7866 57.7749C49.7305 57.8631 49.6542 57.9366 49.564 57.9895C49.4739 58.0424 49.3725 58.073 49.2681 58.079C49.1307 58.0899 48.9933 58.0565 48.8761 57.9839L48.9433 58.8887C49.023 58.8225 49.1171 58.7761 49.2181 58.7532C49.3191 58.7304 49.4241 58.7318 49.5244 58.7572C49.6248 58.7827 49.7177 58.8315 49.7956 58.8997C49.8735 58.968 49.9341 59.0536 49.9726 59.1498C50.011 59.2459 50.0262 59.3498 50.0169 59.4529C50.0075 59.556 49.9739 59.6555 49.9188 59.7431C49.8637 59.8308 49.7886 59.9041 49.6997 59.9572C49.6108 60.0103 49.5107 60.0417 49.4073 60.0487C49.2708 60.057 49.1349 60.0239 49.0176 59.9536L49.1614 61.9047L88.787 58.9908L84.7897 4.28979L45.1641 7.20371Z" fill="white" stroke="#263238" stroke-miterlimit="10"/>
<path d="M60.2773 21.938L80.4915 20.4509" stroke="#263238" stroke-miterlimit="10"/>
<path d="M57.8003 19.4753L53.0039 19.8284L53.357 24.6248L58.1534 24.2717L57.8003 19.4753Z" stroke="#263238" stroke-miterlimit="10"/>
<path d="M60.8672 29.9327L81.0813 28.4456" stroke="#263238" stroke-miterlimit="10"/>
<path d="M58.3901 27.4699L53.5938 27.823L53.9468 32.6194L58.7432 32.2663L58.3901 27.4699Z" stroke="#263238" stroke-miterlimit="10"/>
<path d="M61.4531 37.9252L81.6673 36.4404" stroke="#263238" stroke-miterlimit="10"/>
<path d="M58.9761 35.465L54.1797 35.8181L54.5328 40.6145L59.3291 40.2614L58.9761 35.465Z" stroke="#263238" stroke-miterlimit="10"/>
<path d="M62.043 45.92L82.2571 44.4329" stroke="#263238" stroke-miterlimit="10"/>
<path d="M59.5659 43.4599L54.7695 43.813L55.1226 48.6094L59.919 48.2563L59.5659 43.4599Z" stroke="#263238" stroke-miterlimit="10"/>
<path d="M62.6289 53.9146L82.8431 52.4275" stroke="#263238" stroke-miterlimit="10"/>
<path d="M60.1558 51.455L55.3594 51.8081L55.7124 56.6045L60.5088 56.2514L60.1558 51.455Z" stroke="#263238" stroke-miterlimit="10"/>
<path d="M53.7539 19.089L55.2155 23.3439L60.1455 17.0103" stroke="#EF233C" stroke-width="4" stroke-linecap="round" stroke-linejoin="round"/>
<path d="M54.2109 26.8612L56.1667 30.0489L60.4077 25.2581" stroke="#EF233C" stroke-width="4" stroke-linecap="round" stroke-linejoin="round"/>
<path d="M54.832 35.3128L56.7878 38.4982L61.0287 33.7097" stroke="#EF233C" stroke-width="4" stroke-linecap="round" stroke-linejoin="round"/>
<path d="M60.2181 15.2587C60.1807 15.1928 60.16 15.1187 60.1578 15.0429L60.0673 13.92C60.0673 13.8226 60.0395 13.6648 60.0232 13.4421C59.9792 12.9781 59.9351 12.4376 59.891 11.846L59.8585 11.4539C59.8307 11.7014 59.7773 12.0494 59.6984 12.4979C59.6196 12.9619 59.5685 13.3447 59.5453 13.6416V13.688L59.5337 13.8342C59.5309 13.9518 59.5137 14.0687 59.4827 14.1822C59.4711 14.2362 59.4422 14.285 59.4003 14.321C59.3584 14.3571 59.3058 14.3784 59.2507 14.3817C59.0697 14.3956 58.9607 14.1636 58.9259 13.6857C58.902 13.4014 58.8539 13.1197 58.782 12.8436C58.7078 12.5466 58.5941 12.1824 58.4456 11.7485L58.1719 10.904L58.2345 11.832C58.2546 12.1058 58.3057 12.627 58.3876 13.3957L58.441 13.9131L58.5338 14.9524C58.5411 15.0596 58.508 15.1655 58.441 15.2494C58.3912 15.2595 58.3395 15.2558 58.2917 15.2386C58.2438 15.2214 58.2016 15.1914 58.1696 15.152C58.1074 15.049 58.0737 14.9312 58.0721 14.8109L58.042 14.1868C58.042 13.9108 58.028 13.7066 58.0188 13.5697L57.8958 12.1012L57.7705 10.6233C57.7551 10.4052 57.7365 10.0781 57.7148 9.64197L57.9097 9.50509C57.9614 9.51263 58.008 9.54011 58.0396 9.58164C58.0999 9.65796 58.152 9.74039 58.1951 9.82757C58.4483 10.4311 58.6599 11.0512 58.8284 11.6836C58.8619 11.7895 58.8897 11.8972 58.912 12.006C58.9955 12.296 59.0558 12.5164 59.0906 12.6672L59.2484 13.2426L59.2832 12.9897L59.3806 12.354C59.4363 11.9828 59.4804 11.658 59.5128 11.382C59.5453 11.1059 59.5755 10.802 59.6033 10.4795C59.6312 10.0967 59.6428 9.78349 59.6404 9.52133V9.47493C59.6424 9.44379 59.6505 9.41336 59.6645 9.38545C59.6784 9.35755 59.6979 9.33274 59.7216 9.31252C59.7715 9.26958 59.8345 9.24502 59.9003 9.24293C59.9236 9.24161 59.947 9.24551 59.9687 9.25434C59.9903 9.26316 60.0098 9.2767 60.0256 9.29397C60.0598 9.3276 60.0818 9.37168 60.0882 9.41924C60.1331 10.0302 60.2228 10.9388 60.3573 12.1452C60.4269 12.7361 60.4872 13.3153 60.5383 13.8829C60.5684 14.1404 60.5963 14.4676 60.6264 14.862C60.6369 14.9733 60.6126 15.0852 60.5568 15.1821C60.5401 15.2219 60.5134 15.2567 60.4792 15.2831C60.4451 15.3096 60.4047 15.3267 60.362 15.3329C60.3332 15.3375 60.3038 15.3327 60.2779 15.3193C60.252 15.306 60.2311 15.2847 60.2181 15.2587Z" fill="#263238"/>
<path d="M61.999 14.9457C62.0469 14.8343 62.0431 14.4012 61.9874 13.6465C61.9729 13.4532 61.9466 13.2611 61.9085 13.0711L61.8691 12.853C61.8481 12.7503 61.8327 12.6465 61.8227 12.5421L61.8087 12.3449C61.7484 12.222 61.6371 11.9923 61.4793 11.6489C61.3215 11.3056 61.1893 11.0318 61.0919 10.8045C61.0059 10.6351 60.9435 10.4548 60.9062 10.2685V10.2291L61.071 10.0876C61.1591 10.0876 61.2589 10.1966 61.3702 10.4031C61.4964 10.6581 61.6064 10.9208 61.6997 11.1896C61.825 11.5298 61.8876 11.7108 61.8876 11.7325C61.9039 11.6745 61.9317 11.4819 61.9688 11.1525C62 10.8585 62.0473 10.5666 62.1103 10.2778C62.1776 10.0249 62.2588 9.89269 62.3423 9.88573C62.3908 9.88251 62.439 9.89558 62.4792 9.92285C62.4977 9.93485 62.5131 9.95092 62.5244 9.96982C62.5356 9.98873 62.5424 10.01 62.5442 10.0319C62.5501 10.4066 62.5057 10.7804 62.4119 11.1432C62.3152 11.5112 62.2661 11.8901 62.2658 12.2707L62.4328 14.5605C62.4583 14.8993 62.3864 15.0756 62.2194 15.0872C62.1382 15.1034 62.0639 15.0524 61.999 14.9457Z" fill="#263238"/>
<path d="M65.7343 14.7112C65.6195 14.6704 65.5138 14.6073 65.4234 14.5256C65.3374 14.4389 65.2675 14.3375 65.2169 14.2263C65.1548 14.1021 65.1044 13.9724 65.0661 13.8389C65.0243 13.7041 64.9941 13.5659 64.9756 13.4259C64.9455 13.245 64.9246 13.0872 64.9084 12.9619L64.8759 12.5211L64.855 12.2172C64.8341 11.9226 64.8202 11.6813 64.8179 11.4934C64.8114 11.249 64.8262 11.0044 64.862 10.7626C64.8862 10.5465 64.9516 10.337 65.0545 10.1455C65.142 9.96495 65.2921 9.82234 65.4768 9.7441C65.5763 9.69942 65.6833 9.67346 65.7923 9.66754C66.0104 9.65052 66.124 9.7062 66.1333 9.83458C66.136 9.86326 66.1317 9.89216 66.1208 9.91883C66.1099 9.94549 66.0927 9.96912 66.0707 9.9877C66.0251 10.0302 65.9659 10.0549 65.9036 10.0573C65.8759 10.0608 65.8479 10.0608 65.8201 10.0573H65.7436C65.6973 10.0623 65.653 10.079 65.6148 10.1058C65.5767 10.1326 65.546 10.1686 65.5255 10.2104C65.4579 10.3326 65.4109 10.4651 65.3863 10.6025C65.3262 10.9457 65.2959 11.2934 65.2958 11.6419C65.2958 11.9875 65.3074 12.2451 65.3213 12.4121C65.3352 12.5791 65.3584 12.8204 65.3956 13.1081C65.429 13.3548 65.4905 13.5969 65.5789 13.8296C65.6136 13.9305 65.6628 14.0259 65.725 14.1127C65.7791 14.1829 65.847 14.2414 65.9245 14.2843C66.0072 14.333 66.1026 14.3556 66.1983 14.3493C66.4419 14.3307 66.5324 13.9178 66.4744 13.1058L66.4489 12.7601C66.3898 12.7493 66.3293 12.7493 66.2702 12.7601H66.2029H66.1194C65.9408 12.7717 65.848 12.7207 65.841 12.6047C65.8363 12.5736 65.8394 12.542 65.8499 12.5124C65.8604 12.4829 65.8781 12.4564 65.9013 12.4353C65.9517 12.3913 66.0155 12.366 66.0823 12.3634H66.189C66.653 12.3309 66.885 12.3912 66.885 12.549C66.8854 12.6413 66.8792 12.7336 66.8664 12.8251C66.8479 12.9167 66.8394 13.01 66.8409 13.1035C66.8409 13.1893 66.8641 13.3239 66.8943 13.5048L66.9384 13.9062C66.9521 14.015 66.9399 14.1255 66.9028 14.2287C66.8657 14.3319 66.8048 14.4249 66.7249 14.5001C66.5602 14.6535 66.3466 14.7439 66.1217 14.7553C65.9909 14.7682 65.8589 14.7532 65.7343 14.7112Z" fill="#263238"/>
<path d="M68.2954 14.5627C68.1721 14.4816 68.0696 14.3727 67.9961 14.2448C67.8233 13.9366 67.7056 13.6005 67.6481 13.2518C67.5786 12.9252 67.5313 12.5942 67.5066 12.2612C67.5034 12.2102 67.5034 12.1591 67.5066 12.1081V11.9712C67.5066 11.9457 67.5066 11.9341 67.495 11.9341V11.7972L67.4648 11.2636C67.4648 11.1012 67.4648 10.8414 67.4648 10.4841C67.472 10.2398 67.5134 9.99769 67.5878 9.76489C67.6078 9.67516 67.6492 9.59159 67.7084 9.52129C67.755 9.46754 67.8208 9.43422 67.8917 9.42849C68.0802 9.4104 68.2703 9.43416 68.4485 9.49809C68.612 9.55753 68.7602 9.65263 68.8824 9.77649C69.0013 9.91057 69.0998 10.0614 69.1747 10.2242C69.2596 10.4095 69.325 10.6031 69.3696 10.8019C69.4179 11.0243 69.4497 11.25 69.4647 11.4771V11.5374C69.4763 11.6951 69.4902 11.8367 69.5041 11.9619L69.5436 12.3958C69.6503 13.8543 69.3641 14.609 68.6852 14.6601C68.5479 14.6733 68.4103 14.6389 68.2954 14.5627ZM68.8568 14.2147C68.9336 14.1249 68.9863 14.0171 69.01 13.9014C69.09 13.6257 69.1283 13.3395 69.1236 13.0523C69.1236 12.7925 69.1236 12.5675 69.112 12.3795C69.0958 12.1475 69.0564 11.8529 68.9937 11.4863C68.9311 11.1198 68.8986 10.8089 68.8847 10.6163L68.8731 10.4794C68.853 10.2948 68.7712 10.1224 68.6411 9.98993C68.5842 9.92758 68.514 9.87892 68.4356 9.84758C68.3573 9.81624 68.2729 9.80304 68.1887 9.80897C68.1051 9.8149 68.0265 9.85078 67.9673 9.91002C67.908 9.96926 67.8721 10.0479 67.8662 10.1314C67.8258 10.3338 67.8157 10.541 67.836 10.7463C67.836 10.8414 67.8523 10.9226 67.8616 10.9783L67.8755 11.1847L67.8871 11.5351C67.8871 11.6418 67.8871 11.7671 67.8987 11.8854C67.9172 12.1591 67.9451 12.4306 67.9799 12.6997C68.0268 13.0713 68.1044 13.4383 68.2119 13.797C68.3209 14.1683 68.4439 14.3469 68.6109 14.3353C68.6579 14.3325 68.7038 14.3204 68.746 14.2996C68.7882 14.2789 68.8259 14.25 68.8568 14.2147Z" fill="#263238"/>
<path d="M71.7474 14.3051C71.7164 14.2836 71.691 14.2548 71.6736 14.2212C71.6563 14.1877 71.6473 14.1504 71.6477 14.1126C71.6194 13.8534 71.5752 13.5961 71.5154 13.3423L71.4737 13.1846L70.7127 13.1266C70.6895 13.2449 70.664 13.4839 70.6338 13.8435C70.6407 14.0183 70.604 14.1921 70.5271 14.3492C70.5103 14.3731 70.4881 14.3927 70.4623 14.4064C70.4365 14.4201 70.4078 14.4276 70.3786 14.4281C70.3189 14.432 70.2595 14.4165 70.2093 14.384C70.1844 14.3703 70.1633 14.3506 70.1479 14.3267C70.1325 14.3028 70.1233 14.2755 70.1211 14.2471L70.135 14.21V14.1775C70.3691 12.8839 70.5287 11.5779 70.6129 10.266C70.6129 10.2451 70.6129 10.2103 70.6129 10.1639C70.6129 10.1175 70.6129 10.0433 70.6129 9.95282C70.6129 9.7649 70.6129 9.6141 70.6315 9.50042C70.6345 9.41065 70.6575 9.32269 70.6988 9.2429L70.9586 9.22434C71.0225 9.21849 71.0868 9.23054 71.1442 9.25914C71.1694 9.27229 71.1906 9.2919 71.2057 9.31596C71.2208 9.34001 71.2292 9.36764 71.2301 9.39602C71.2895 9.96997 71.3856 10.5395 71.5177 11.1012C71.6375 11.6372 71.7281 12.1794 71.7892 12.7252C71.8026 12.8037 71.8213 12.8812 71.8449 12.9572C71.8704 13.0327 71.889 13.1104 71.9005 13.1892C71.9005 13.224 71.94 13.3748 72.0096 13.6393C72.0541 13.7915 72.0882 13.9465 72.1117 14.1033C72.1209 14.1467 72.1154 14.1919 72.0961 14.2318C72.0768 14.2717 72.0447 14.304 72.0049 14.3237C71.9189 14.3401 71.8302 14.3337 71.7474 14.3051ZM71.3577 12.6347C71.3046 12.0508 71.221 11.47 71.1071 10.8947L70.9725 10.1106C70.8403 11.317 70.7591 12.2287 70.722 12.8435C70.9418 12.9072 71.1711 12.9316 71.3994 12.9155C71.376 12.8236 71.362 12.7295 71.3577 12.6347Z" fill="#263238"/>
<path d="M73.2761 14.2079C73.2025 14.2629 73.1148 14.2959 73.0232 14.303C72.9926 14.3048 72.962 14.2995 72.9338 14.2874C72.9056 14.2753 72.8806 14.2568 72.8608 14.2334C72.8167 14.1893 72.7895 14.1309 72.7843 14.0687C72.7541 13.6418 72.7286 13.0734 72.7123 12.3612C72.6861 11.6018 72.6598 11.0349 72.6335 10.6606V10.6073C72.5801 10.2894 72.5476 10.0528 72.536 9.89502C72.5012 9.41478 72.5708 9.16653 72.7495 9.15493C72.7742 9.15285 72.7992 9.15589 72.8227 9.16388C72.8463 9.17186 72.8679 9.18461 72.8863 9.20133C72.9056 9.21695 72.9215 9.2363 72.9331 9.25824C72.9446 9.28017 72.9516 9.30422 72.9536 9.32893C72.9536 9.39157 72.9536 9.48902 72.9536 9.62126C72.9479 9.71784 72.9479 9.81467 72.9536 9.91126C72.9784 10.2515 73.0039 10.5609 73.0302 10.8393C73.0534 11.1084 73.0789 11.4123 73.1044 11.7533C73.0812 11.8552 73.0734 11.96 73.0812 12.0642V12.1547L73.1091 12.7556C73.1091 12.9342 73.123 13.1384 73.1392 13.3657C73.1647 13.7161 73.2622 13.8854 73.4292 13.8715H73.4779L73.5731 13.8599C73.6171 13.8599 73.6751 13.846 73.7471 13.8413C74.0208 13.8205 74.1623 13.8854 74.1739 14.0385C74.1757 14.064 74.1713 14.0894 74.1612 14.1128C74.1512 14.1362 74.1356 14.1569 74.1159 14.1731C74.0694 14.2132 74.0136 14.2411 73.9535 14.2543C73.7317 14.2023 73.5029 14.1866 73.2761 14.2079Z" fill="#263238"/>
<path d="M74.7217 14.0779C74.6891 14.0562 74.6613 14.0282 74.6398 13.9955C74.6182 13.9628 74.6035 13.9262 74.5964 13.8877L74.6706 13.7531C74.7199 13.7534 74.769 13.7596 74.8168 13.7717C74.8754 13.7775 74.9345 13.7775 74.9931 13.7717C75.0397 13.7662 75.0846 13.7508 75.1246 13.7263C75.1647 13.7019 75.199 13.6691 75.2251 13.6302C75.2973 13.5328 75.3457 13.42 75.3666 13.3007C75.4121 13.0827 75.4285 12.8595 75.4154 12.6372C75.3774 12.2639 75.2405 11.9075 75.0186 11.6048L74.9258 11.4656C74.8168 11.3055 74.724 11.1617 74.6475 11.0364C74.5702 10.9037 74.5042 10.7648 74.4502 10.6211C74.3754 10.4344 74.33 10.2371 74.3157 10.0365C74.3014 9.7948 74.3353 9.55269 74.4155 9.32424C74.454 9.20893 74.5211 9.1052 74.6103 9.02264C74.6949 8.94439 74.8039 8.89769 74.9189 8.8904C75.0112 8.88413 75.1031 8.90771 75.181 8.95768C75.2175 8.97842 75.2485 9.00754 75.2715 9.04264C75.2945 9.07773 75.3088 9.11779 75.3133 9.15952C75.3154 9.18013 75.3122 9.20093 75.3041 9.21999C75.296 9.23906 75.2832 9.25576 75.2669 9.26856C75.2313 9.29758 75.1875 9.31463 75.1416 9.31728C75.0852 9.32189 75.0287 9.30979 74.9792 9.28247C74.8678 9.29639 74.7867 9.4008 74.7333 9.60032C74.6958 9.74572 74.6786 9.89563 74.6822 10.0458C74.6938 10.197 74.7282 10.3456 74.7843 10.4866C74.8368 10.6255 74.9053 10.7579 74.9885 10.881L75.1787 11.1733L75.4826 11.6558C75.5699 11.8073 75.6392 11.9685 75.6891 12.1361C75.7454 12.3203 75.7812 12.5101 75.7958 12.7022C75.8185 13.009 75.7676 13.3168 75.6474 13.6C75.5892 13.7431 75.4949 13.8686 75.3736 13.9642C75.2521 14.0587 75.105 14.1145 74.9514 14.1243V14.1522C74.8696 14.1481 74.7904 14.1225 74.7217 14.0779Z" fill="#263238"/>
<path d="M13.0616 79.9195C13.0616 79.9195 13.5256 66.8255 15.0312 66.4775C16.5369 66.1295 20.4786 67.4055 33.111 66.9415C45.7434 66.4775 52.4668 66.8278 52.9308 67.1735C53.3948 67.5191 55.0188 87.1092 54.3228 87.3412C53.6268 87.5732 39.1384 86.0652 33.111 86.1812C27.0836 86.2972 14.9152 92.8698 13.8712 92.6378C12.8272 92.4058 13.0616 79.9195 13.0616 79.9195Z" fill="#CCCCCC" stroke="#263238" stroke-linecap="round" stroke-linejoin="round"/>
<path d="M93.7569 79.9195C93.7569 79.9195 93.2929 66.8255 91.7873 66.4775C90.2816 66.1295 86.3399 67.4055 73.7075 66.9415C61.0751 66.4775 54.3517 66.8278 53.8877 67.1735C53.4237 67.5191 53.6233 87.1092 54.3193 87.3412C55.0153 87.5732 67.6801 86.0652 73.7075 86.1812C79.7349 86.2972 93.0122 91.5984 94.0562 91.3664C95.1002 91.1344 93.7569 79.9195 93.7569 79.9195Z" fill="#CCCCCC" stroke="#263238" stroke-linecap="round" stroke-linejoin="round"/>
<path d="M96.1274 105.212H11.4961V108.829H96.1274V105.212Z" fill="#263238" stroke="#263238" stroke-linecap="round" stroke-linejoin="round"/>
<path d="M95.9302 100.203H13.1758V105.534H95.9302V100.203Z" fill="#CCCCCC" stroke="#263238" stroke-linecap="round" stroke-linejoin="round"/>
<path d="M54.9374 95.2662H11.6602L17.2954 86.0627H54.9374V95.2662Z" fill="#E0E0E0" stroke="#263238" stroke-linecap="round" stroke-linejoin="round"/>
<path d="M95.6211 95.2662H54.7891V86.0627H91.4984L95.6211 95.2662Z" fill="#E0E0E0" stroke="#263238" stroke-linecap="round" stroke-linejoin="round"/>
<path d="M54.9381 91.2805H13.1758V100.482H54.9381V91.2805Z" fill="#CCCCCC" stroke="#263238" stroke-linecap="round" stroke-linejoin="round"/>
<path d="M95.6211 91.2805H54.7891V100.482H95.6211V91.2805Z" fill="#CCCCCC" stroke="#263238" stroke-linecap="round" stroke-linejoin="round"/>
<path d="M32.5305 73.1983C32.5305 73.1983 28.4728 71.9246 27.8905 72.2703C27.3081 72.616 28.7025 79.4623 29.0505 81.3183C29.3985 83.1743 28.7025 85.84 29.3985 86.1903C30.0945 86.5406 43.7685 87.0023 45.6245 86.7703C47.4805 86.5383 43.6525 76.4556 43.3045 73.5579C42.9565 70.6602 43.1885 71.0059 41.7965 71.4699C40.4045 71.9339 35.6578 73.1983 32.5305 73.1983Z" fill="white" stroke="#263238" stroke-linecap="round" stroke-linejoin="round"/>
<path d="M9.51172 78.2978L13.8084 75.783H16.4996C16.7457 75.783 16.9817 75.8807 17.1558 76.0548C17.3298 76.2288 17.4276 76.4648 17.4276 76.711V85.8634L14.3188 91.3571L9.51172 78.2978Z" fill="#CCCCCC" stroke="#263238" stroke-linecap="round" stroke-linejoin="round"/>
<path d="M28.7349 68.4053C28.7349 68.4053 24.7909 71.6533 21.0789 71.7647C17.3669 71.8761 15.7429 70.955 13.5459 72.1127C11.3488 73.2704 17.4899 86.3691 19.5779 87.0651C21.6659 87.7611 32.8019 85.2091 34.0639 84.7451C35.326 84.2811 31.1686 72.8064 30.5839 70.9527C29.9993 69.099 30.0109 67.8253 28.7349 68.4053Z" fill="#EF233C" stroke="#263238" stroke-miterlimit="10"/>
<path d="M9.84885 78.2979H13.1664C13.3215 78.2979 13.4751 78.3284 13.6184 78.3877C13.7616 78.4471 13.8918 78.5341 14.0015 78.6437C14.1111 78.7534 14.1981 78.8836 14.2574 79.0268C14.3168 79.1701 14.3473 79.3237 14.3473 79.4787V108.126C14.3473 108.392 14.2417 108.647 14.0538 108.835C13.8658 109.023 13.6109 109.128 13.3451 109.128H9.67021C9.4044 109.128 9.14948 109.023 8.96152 108.835C8.77356 108.647 8.66797 108.392 8.66797 108.126V79.4787C8.66797 79.3237 8.69851 79.1701 8.75786 79.0268C8.8172 78.8836 8.90419 78.7534 9.01384 78.6437C9.1235 78.5341 9.25368 78.4471 9.39695 78.3877C9.54022 78.3284 9.69377 78.2979 9.84885 78.2979Z" fill="#CCCCCC" stroke="#263238" stroke-linecap="round" stroke-linejoin="round"/>
<path d="M97.7244 78.2978L93.4278 75.783H90.7366C90.4905 75.783 90.2544 75.8807 90.0804 76.0548C89.9064 76.2288 89.8086 76.4648 89.8086 76.711V85.8634L94.0681 91.3571L97.7244 78.2978Z" fill="#CCCCCC" stroke="#263238" stroke-linecap="round" stroke-linejoin="round"/>
<path d="M94.4074 78.2979H97.725C98.0382 78.2979 98.3386 78.4223 98.56 78.6437C98.7815 78.8652 98.9059 79.1655 98.9059 79.4787V108.126C98.9059 108.392 98.8003 108.647 98.6124 108.835C98.4244 109.023 98.1695 109.128 97.9037 109.128H94.2288C93.963 109.128 93.7081 109.023 93.5201 108.835C93.3322 108.647 93.2266 108.392 93.2266 108.126V79.4787C93.2266 79.1655 93.351 78.8652 93.5724 78.6437C93.7939 78.4223 94.0943 78.2979 94.4074 78.2979Z" fill="#CCCCCC" stroke="#263238" stroke-linecap="round" stroke-linejoin="round"/>
<path d="M77.3196 69.0246C77.3196 69.0246 81.2636 72.2726 84.9756 72.384C88.6876 72.4953 90.3116 71.5743 92.5086 72.732C94.7057 73.8897 88.5646 86.9884 86.4766 87.6844C84.3886 88.3804 73.2642 85.8284 71.9905 85.3644C70.7169 84.9004 74.8882 73.4257 75.4705 71.572C76.0529 69.7183 76.0436 68.44 77.3196 69.0246Z" fill="#EF233C" stroke="#263238" stroke-miterlimit="10"/>
<path d="M78.3926 73.1983C78.3926 73.1983 82.4503 71.9246 83.0326 72.2703C83.6149 72.616 82.2206 79.4623 81.8726 81.3183C81.5246 83.1743 82.2206 85.84 81.5246 86.1903C80.8286 86.5406 67.1545 87.0023 65.2985 86.7703C63.4425 86.5383 67.2682 76.4556 67.6185 73.5579C67.9688 70.6602 67.7345 71.0059 69.1265 71.4699C70.5185 71.9339 75.2652 73.1983 78.3926 73.1983Z" fill="white" stroke="#263238" stroke-linecap="round" stroke-linejoin="round"/>
<path d="M43.8976 87.8816C43.8976 87.8816 45.032 88.0394 45.2896 88.5451C45.5471 89.0509 45.0065 89.9951 43.8396 90.3106C42.3369 90.6575 40.7615 90.4942 39.362 89.8466C37.7844 89.1205 37.6266 88.8676 37.9421 88.6472C38.2576 88.4268 43.8976 87.8816 43.8976 87.8816Z" fill="white" stroke="#263238" stroke-miterlimit="10"/>
<path d="M31.2108 62.4917C31.2108 62.4917 29.9974 63.03 28.8281 63.5264C28.0089 63.8552 27.2831 64.3802 26.7146 65.0553L26.3086 65.5031L27.522 76.8363C27.522 76.8363 26.174 80.4346 26.5777 83.1768C26.9814 85.9191 29.3617 87.5849 31.7049 88.2136C34.0481 88.8423 37.6418 89.2947 40.0708 88.9792C42.4999 88.6636 44.6575 87.7658 45.3767 87.4944C46.0959 87.2229 46.6364 85.9655 46.6364 85.9655C46.6364 85.9655 51.0885 82.4136 52.3019 81.1538C53.5152 79.894 53.6498 76.7458 52.6174 75.892C51.585 75.0383 50.1443 75.5765 49.6478 75.848C49.1513 76.1194 47.5807 76.2516 44.9707 77.0613C42.3607 77.871 41.1937 78.096 41.1937 78.096L38.2264 78.328C38.2264 78.328 38.0919 76.2586 38.3169 75.5835C38.542 74.9084 39.7553 71.9411 39.7553 71.9411C39.7553 71.9411 40.34 70.9968 40.384 69.3334C40.4281 67.67 38.586 64.9254 38.0014 64.2062C37.4168 63.487 35.2568 61.464 34.7534 61.3735C34.25 61.283 31.2108 62.4917 31.2108 62.4917Z" fill="#7D7D7D" stroke="#263238" stroke-linecap="round" stroke-linejoin="round"/>
<path d="M38.469 74.4861C38.469 74.4861 40.3041 77.6993 41.021 78.6482C41.4928 79.2955 42.0317 79.8912 42.6288 80.4253C42.8607 80.6552 43.0719 80.9052 43.2598 81.1723H40.8493L38.1813 79.1075C38.1813 79.1075 37.6083 77.1262 37.664 76.1217C37.7183 75.495 38.0055 74.9114 38.469 74.4861Z" fill="white" stroke="#263238" stroke-miterlimit="10"/>
<path d="M42.2578 80.7893C42.7127 80.5188 43.182 80.2732 43.6637 80.0539C43.8127 80.0394 43.9631 80.0547 44.1061 80.0989C44.2491 80.1431 44.3818 80.2154 44.4966 80.3114C44.7776 80.4864 45.0952 80.5943 45.4246 80.6269C45.5685 80.6269 45.8538 80.5689 45.826 80.8288C45.7981 81.0886 45.4826 81.1721 45.4826 81.1721L42.5548 81.0585L42.2578 80.7893Z" fill="white" stroke="#263238" stroke-miterlimit="10"/>
<path d="M38.3145 75.5764C38.5465 74.9036 39.7529 71.934 39.7529 71.934C39.7529 71.934 40.3375 70.9897 40.3816 69.3263C40.4257 67.6629 38.5836 64.9183 37.999 64.1991C37.4143 63.4799 35.2544 61.4569 34.751 61.3664C34.2475 61.2759 31.199 62.4916 31.199 62.4916C31.199 62.4916 29.9857 63.0298 28.8164 63.5263C27.9972 63.855 27.2714 64.38 26.7029 65.0552L26.2969 65.5029L27.5102 76.8361C26.9827 78.316 26.6475 79.8575 26.5126 81.4228C27.1808 81.7824 28.5194 82.1443 31.199 82.1443C36.5513 82.1443 38.2147 80.4785 38.3052 79.6248C38.3707 79.1888 38.3398 78.7437 38.2147 78.3209C38.2147 78.3209 38.0894 76.2515 38.3145 75.5764Z" fill="#EF233C" stroke="#263238" stroke-miterlimit="10"/>
<path d="M33.582 74.6553L36.1549 73.2888" stroke="#263238" stroke-miterlimit="10"/>
<path d="M37.0016 73.1567L35.6328 74.1358" stroke="#263238" stroke-miterlimit="10"/>
<path d="M42.2571 80.7896C42.2571 80.7896 35.5106 81.2141 35.2763 81.2536C34.9535 81.3418 34.6379 81.4543 34.332 81.5899L42.176 81.5575C42.176 81.5575 41.6516 81.1584 42.2571 80.7896Z" fill="white" stroke="#263238" stroke-miterlimit="10"/>
<path d="M42.1738 81.5527L47.2221 81.5179L47.2894 81.1816C47.2894 81.1816 44.8998 81.1468 43.7212 80.9496C42.5427 80.7524 42.2411 80.7175 41.9023 81.1189L42.1738 81.5527Z" fill="#E0E0E0" stroke="#263238" stroke-linecap="round" stroke-linejoin="round"/>
<path d="M33.2541 82.8241L30.832 85.7241L38.8082 86.028L42.1745 81.5527C42.1455 81.4395 42.0805 81.3387 41.9893 81.2655C41.8981 81.1923 41.7856 81.1506 41.6687 81.1467C41.2651 81.1467 34.3306 81.5852 34.3306 81.5852L33.2541 82.8241Z" fill="white" stroke="#263238" stroke-miterlimit="10"/>
<path d="M40.7621 82.1281C40.5301 82.7104 38.8759 85.5269 38.5859 86.0234H38.8179L42.1843 81.5481C42.1552 81.4348 42.0902 81.334 41.999 81.2608C41.9078 81.1876 41.7954 81.146 41.6785 81.1421C41.2784 81.368 40.9582 81.7125 40.7621 82.1281Z" fill="#E0E0E0" stroke="#263238" stroke-linecap="round" stroke-linejoin="round"/>
<path d="M49.7163 76.792C49.0985 77.04 48.5262 77.3889 48.0227 77.8244C47.3638 78.4554 45.125 80.5225 45.125 80.5225" stroke="#263238" stroke-miterlimit="10"/>
<path d="M41.8555 82.0608C41.8555 82.0608 44.208 82.3206 45.4422 83.1234C46.6764 83.9261 46.8203 85.3923 46.6347 85.9654" fill="#7D7D7D"/>
<path d="M41.8555 82.0608C41.8555 82.0608 44.208 82.3206 45.4422 83.1234C46.6764 83.9261 46.8203 85.3923 46.6347 85.9654" stroke="#263238" stroke-linecap="round" stroke-linejoin="round"/>
<path d="M44.3236 87.0256C44.3236 87.0256 42.2356 88.4037 40.4492 88.9211" stroke="#263238" stroke-miterlimit="10"/>
<path d="M27.8164 83.65C27.8164 83.65 28.6655 82.8357 30.38 82.3462" stroke="#263238" stroke-miterlimit="10"/>
<path d="M27.0898 82.9122C28.0562 82.6872 29.0392 82.5413 30.0293 82.4761" stroke="#263238" stroke-miterlimit="10"/>
<path d="M37.1672 81.5016L36.9004 81.7336L33.9749 78.2953C33.9601 78.2779 33.9488 78.2576 33.9419 78.2358C33.9349 78.2139 33.9323 78.1909 33.9342 78.168C33.9362 78.1452 33.9426 78.1229 33.9532 78.1026C33.9637 78.0822 33.9782 78.0642 33.9958 78.0494C34.0311 78.0198 34.0766 78.0051 34.1225 78.0086C34.1685 78.012 34.2113 78.0334 34.2417 78.068L37.1672 81.5016Z" fill="white" stroke="#263238" stroke-miterlimit="10"/>
<path d="M26.2835 66.6096C26.2835 66.6096 24.4275 76.4464 24.2953 77.0983C24.2516 77.344 24.2882 77.5972 24.3998 77.8204C24.5114 78.0436 24.692 78.2248 24.9147 78.3372C25.1746 78.4347 28.8889 81.2024 30.2252 81.9193C31.5615 82.6362 32.993 83.3855 32.993 83.3855C32.993 83.3855 33.7748 83.94 34.4267 84.0375C35.046 84.0803 35.668 84.0586 36.2827 83.9725C36.2827 83.9725 37.6747 83.9075 37.9067 83.7405C38.1387 83.5735 38.5262 82.5016 38.4287 82.3067C38.3313 82.1119 37.452 80.9147 37.0924 80.6456C36.7328 80.3765 34.6495 81.1653 34.2597 81.33C33.933 81.4408 33.5927 81.5063 33.2482 81.5249L27.6802 76.4093L30.0002 69.9133L26.2835 66.6096Z" fill="white" stroke="#263238" stroke-miterlimit="10"/>
<path d="M35.2422 83.0283L38.1399 83.4506" stroke="#263238" stroke-miterlimit="10"/>
<path d="M35.7266 82.0818L38.2693 82.9634" stroke="#263238" stroke-miterlimit="10"/>
<path d="M36.1523 81.1699L38.4329 82.3114" stroke="#263238" stroke-miterlimit="10"/>
<path d="M30.5322 67.5284L29.9939 69.911L25.5859 66.9437C25.7953 66.4489 26.0355 65.9677 26.3051 65.503C26.5385 65.1284 26.7941 64.7681 27.0707 64.4242C27.6126 64.0479 28.2025 63.746 28.8247 63.5264C29.2953 63.3394 29.8019 63.2602 30.3071 63.2944" fill="#EF233C"/>
<path d="M30.5322 67.5284L29.9939 69.911L25.5859 66.9437C25.7953 66.4489 26.0355 65.9677 26.3051 65.503C26.5385 65.1284 26.7941 64.7681 27.0707 64.4242C27.6126 64.0479 28.2025 63.746 28.8247 63.5264C29.2953 63.3394 29.8019 63.2602 30.3071 63.2944" stroke="#263238" stroke-miterlimit="10"/>
<path d="M36.563 49.2258C36.563 49.2258 31.5704 49.2699 29.4569 50.8498C27.3433 52.4298 29.0068 59.1253 29.0509 60.8258C29.0749 61.376 28.9743 61.9245 28.7566 62.4302C28.5388 62.936 28.2096 63.3861 27.7934 63.7467C27.4779 64.0182 27.0742 64.4218 27.0742 64.4218C27.0742 64.4218 30.2665 63.7467 31.3894 63.2618C32.5123 62.777 34.134 61.2388 34.3126 61.0138C34.4913 60.7887 36.2034 64.2061 37.0108 64.8371C37.8181 65.4682 39.7553 69.1546 40.0268 70.187C40.1084 70.4818 40.1266 70.7905 40.0802 71.0928C40.0338 71.3952 39.9239 71.6842 39.7577 71.941C39.7577 71.941 41.9617 70.2775 42.4094 68.795C42.8572 67.3126 41.5116 64.5657 40.5209 63.4428C39.5303 62.3199 38.1801 59.6589 38.0478 58.6242C37.9156 57.5894 39.3981 52.4622 39.173 50.8429C38.948 49.2235 37.2822 48.8639 36.563 49.2258Z" fill="#263238" stroke="#263238" stroke-miterlimit="10"/>
<path d="M36.8703 50.8381C36.8703 50.8381 37.9119 52.0701 38.1973 53.2092C38.4827 54.3483 38.7982 55.325 39.0511 55.673C39.3039 56.021 39.9025 56.1788 39.935 56.4618C39.9675 56.7449 39.1763 57.3156 39.1763 57.3156C39.1146 58.0896 39.0092 58.8595 38.8608 59.6217C38.6706 60.4128 38.4502 60.4429 37.9444 60.3177C37.4387 60.1924 36.397 60.0021 36.397 60.0021C36.397 60.0021 35.8912 62.3082 36.1116 63.097C36.332 63.8858 37.2716 65.1201 37.4085 65.8462C37.5454 66.5724 37.6289 67.4563 35.353 67.679C33.0771 67.9017 31.8475 64.895 31.3417 64.1085L30.8359 63.3174C30.8359 63.3174 32.9541 62.1574 33.4575 60.7654C33.7606 59.9369 33.8264 59.0402 33.6478 58.1763C33.2071 58.0486 32.8263 57.7682 32.5736 57.3852C32.4755 57.1947 32.4244 56.9835 32.4244 56.7692C32.4244 56.5549 32.4755 56.3438 32.5736 56.1533C33.045 56.1385 33.5127 56.0645 33.9656 55.9329C34.4714 55.7426 35.3878 54.1001 36.0536 53.0259C36.4589 52.3535 36.7358 51.6116 36.8703 50.8381Z" fill="white" stroke="#263238" stroke-miterlimit="10"/>
<path d="M37.5977 57.4734C37.5977 57.4734 37.8505 57.7889 38.6417 57.7263" stroke="#263238" stroke-miterlimit="10"/>
<path d="M37.25 54.288C37.3483 54.1372 37.4844 54.015 37.6449 53.9336C37.8053 53.8521 37.9844 53.8143 38.1641 53.824" stroke="#263238" stroke-miterlimit="10"/>
<path d="M38.1586 54.984C38.2189 55.216 38.1865 55.4178 38.0844 55.448C37.9823 55.4781 37.8524 55.3134 37.7921 55.0861C37.7317 54.8587 37.7642 54.6522 37.864 54.6221C37.9637 54.5919 38.096 54.752 38.1586 54.984Z" fill="#263238"/>
<path d="M36.3981 60.0022L35.4492 59.7168L36.1777 61.2016L36.3981 60.0022Z" fill="#263238" stroke="#263238" stroke-miterlimit="10"/>
</svg>
