<svg width="116" height="116" viewBox="0 0 116 116" fill="none" xmlns="http://www.w3.org/2000/svg">
<path d="M23.0892 90.7119C23.0892 90.7119 16.2104 93.6189 11.1992 83.4341C6.18797 73.2493 7.15773 63.7117 18.7925 57.7308C30.4273 51.7498 35.6056 34.4496 50.964 29.4384C66.3224 24.4272 77.9618 31.2178 83.1354 38.4864C88.309 45.7549 87.4993 50.4506 96.7144 56.7541C105.929 63.0575 108.194 69.5141 107.546 77.2861C106.899 85.0581 97.524 90.5425 97.524 90.5425L23.0892 90.7119Z" fill="#EF233C"/>
<path opacity="0.7" d="M23.0892 90.7119C23.0892 90.7119 16.2104 93.6189 11.1992 83.4341C6.18797 73.2493 7.15773 63.7117 18.7925 57.7308C30.4273 51.7498 35.6056 34.4496 50.964 29.4384C66.3224 24.4272 77.9618 31.2178 83.1354 38.4864C88.309 45.7549 87.4993 50.4506 96.7144 56.7541C105.929 63.0575 108.194 69.5141 107.546 77.2861C106.899 85.0581 97.524 90.5425 97.524 90.5425L23.0892 90.7119Z" fill="white"/>
<path d="M30.7559 18.8848C30.7559 18.8848 31.2199 18.277 33.9482 18.4208C36.6765 18.5647 44.5111 19.488 48.0839 19.256C51.6567 19.024 57.3639 17.8872 58.343 18.4951C59.322 19.1029 57.9625 20.184 57.9625 20.184L31.8207 20.1075L30.7559 18.8848Z" fill="white" stroke="#263238" stroke-linecap="round" stroke-linejoin="round"/>
<path d="M31.8214 20.1005C31.8214 20.1005 31.9722 18.8083 30.7565 18.8849C29.5408 18.9614 29.0838 20.4045 29.7682 22.0006C30.4526 23.5968 31.0604 23.5202 32.1253 27.3204C33.1902 31.1205 32.5035 45.1032 32.5035 48.5994C32.5035 52.0957 32.58 53.0074 32.58 53.0074L35.241 52.6269C35.241 52.6269 34.7075 28.84 33.9488 25.0398C33.1902 21.2397 31.8214 20.1005 31.8214 20.1005Z" fill="#263238" stroke="#263238" stroke-linecap="round" stroke-linejoin="round"/>
<path d="M38.668 52.0447C38.668 52.3486 37.5312 85.7659 37.5312 85.7659L38.8212 85.5339L40.0299 52.5551L38.668 52.0447Z" fill="white" stroke="#263238" stroke-linecap="round" stroke-linejoin="round"/>
<path d="M37.5305 85.7657L38.6603 52.3229L37.672 52.1721L36.4238 85.2205L37.5305 85.7657Z" fill="#263238" stroke="#263238" stroke-linecap="round" stroke-linejoin="round"/>
<path d="M55.6799 49.801C55.7031 50.1026 58.856 83.209 58.856 83.209L57.8491 82.6661L54.3691 50.4019L55.6799 49.801Z" fill="#263238" stroke="#263238" stroke-linecap="round" stroke-linejoin="round"/>
<path d="M58.8514 83.2115L55.7031 50.0772L56.6775 49.8545L60.0114 82.9795L58.8514 83.2115Z" fill="white" stroke="#263238" stroke-width="0.710934" stroke-linecap="round" stroke-linejoin="round"/>
<path d="M44.4382 50.5759C44.4382 50.7917 43.6309 74.5485 43.6309 74.5485L44.5473 74.3814L45.4057 50.9355L44.4382 50.5759Z" fill="white" stroke="#263238" stroke-width="0.710934" stroke-linecap="round" stroke-linejoin="round"/>
<path d="M43.6302 74.5486L44.433 50.7732L43.73 50.6665L42.8438 74.1611L43.6302 74.5486Z" fill="#263238" stroke="#263238" stroke-width="0.710934" stroke-linecap="round" stroke-linejoin="round"/>
<path d="M31.8223 20.1006C31.8965 20.4811 33.8731 53.7684 33.8731 53.7684L60.929 52.4762L57.964 20.1841L31.8223 20.1006Z" fill="white" stroke="#263238" stroke-linecap="round" stroke-linejoin="round"/>
<path d="M40.4866 36.9738L38.3058 37.0133L37.3105 24.4157L39.4937 24.3762L40.4866 36.9738Z" fill="#263238"/>
<path d="M43.6764 36.9157L41.4932 36.9552L40.7949 28.0905L42.9757 28.051L43.6764 36.9157Z" fill="#EF233C"/>
<path d="M46.8639 36.8579L44.6831 36.8973L44.2168 30.986L46.3976 30.9465L46.8639 36.8579Z" fill="#263238"/>
<path d="M50.0511 36.7999L47.8703 36.8393L46.875 24.2417L49.0581 24.2L50.0511 36.7999Z" fill="#EF233C"/>
<path d="M35.0117 25.0814L36.355 25.0559" stroke="#263238" stroke-width="0.75" stroke-linecap="round" stroke-linejoin="round"/>
<path d="M35.1465 26.7913L36.4898 26.7681" stroke="#263238" stroke-width="0.75" stroke-linecap="round" stroke-linejoin="round"/>
<path d="M35.2812 28.5035L36.6245 28.478" stroke="#263238" stroke-width="0.75" stroke-linecap="round" stroke-linejoin="round"/>
<path d="M35.418 30.2133L36.7589 30.1877" stroke="#263238" stroke-width="0.75" stroke-linecap="round" stroke-linejoin="round"/>
<path d="M35.5527 31.9231L36.896 31.8999" stroke="#263238" stroke-width="0.75" stroke-linecap="round" stroke-linejoin="round"/>
<path d="M35.6855 33.6354L37.0288 33.6099" stroke="#263238" stroke-width="0.75" stroke-linecap="round" stroke-linejoin="round"/>
<path d="M35.8203 35.3452L37.1636 35.322" stroke="#263238" stroke-width="0.75" stroke-linecap="round" stroke-linejoin="round"/>
<path d="M35.957 37.0573L37.298 37.0317" stroke="#263238" stroke-width="0.75" stroke-linecap="round" stroke-linejoin="round"/>
<path d="M48.1611 44.6344C48.1611 44.5741 48.1611 44.5115 48.1611 44.4512C48.163 43.1997 47.7085 41.9905 46.8828 41.05L42.9922 44.4512L48.1611 44.6344Z" fill="#EF233C" stroke="white" stroke-linecap="round" stroke-linejoin="round"/>
<path d="M43.3987 39.2961C43.2641 39.2961 43.1295 39.2776 42.9927 39.2776C41.8255 39.2783 40.6929 39.6737 39.7788 40.3994C38.8647 41.1252 38.2229 42.1387 37.9577 43.2753C37.6924 44.4119 37.8192 45.6049 38.3176 46.6603C38.816 47.7157 39.6566 48.5716 40.7028 49.0889L42.9927 44.4489L43.3987 39.2961Z" fill="#263238" stroke="white" stroke-linecap="round" stroke-linejoin="round"/>
<path d="M42.993 44.4512L40.7031 49.0912C41.4145 49.4451 42.1984 49.6286 42.993 49.6271C44.3333 49.6273 45.6213 49.1071 46.5856 48.1762C47.5499 47.2452 48.115 45.9763 48.1619 44.6368L42.993 44.4512Z" fill="#EF233C" stroke="white" stroke-linecap="round" stroke-linejoin="round"/>
<path d="M46.888 41.0501C46.0024 40.0322 44.7529 39.4024 43.408 39.2961L43.002 44.4512L46.888 41.0501Z" fill="#EF233C" stroke="white" stroke-linecap="round" stroke-linejoin="round"/>
<path d="M75.9202 42.6554C75.8873 42.5356 75.8801 42.4101 75.8989 42.2872C75.9176 42.1644 75.9621 42.0468 76.0292 41.9423C76.0964 41.8377 76.1848 41.7484 76.2887 41.6802C76.3927 41.612 76.5098 41.5665 76.6324 41.5465C77.3748 41.4467 78.2866 42.442 78.5743 43.0452C78.5998 43.0962 78.8944 43.9569 78.8805 43.9569C78.8666 43.9569 77.5651 43.9871 77.0245 43.7528C76.5721 43.5533 76.0432 43.1705 75.9202 42.6554ZM94.986 40.3679C94.8746 40.8853 94.3596 41.2797 93.9072 41.4931C93.4548 41.7065 92.3852 41.7413 92.1208 41.746C91.9792 41.9153 91.8284 42.0986 91.6568 42.3028C91.376 42.667 91.0582 43.08 90.745 43.5509C90.6615 43.6762 90.578 43.8154 90.4921 43.9477C90.6824 43.7528 90.9445 43.4837 90.9747 43.4697C91.4967 43.0521 92.7518 42.5533 93.3759 42.9686C93.4774 43.0403 93.5627 43.1324 93.6263 43.2392C93.6899 43.3459 93.7304 43.4649 93.745 43.5882C93.7597 43.7116 93.7482 43.8367 93.7114 43.9554C93.6746 44.0741 93.6132 44.1837 93.5313 44.2771C93.1949 44.6877 92.5546 44.7991 92.0558 44.7805C91.557 44.762 90.5571 44.2841 90.346 44.1797C90.1627 44.4743 89.9794 44.7852 89.81 45.1077C89.4935 45.7091 89.2303 46.3371 89.0236 46.9845L89.063 47.0054C89.2161 46.8059 89.5455 46.3929 89.578 46.3605C90.042 45.8965 91.2438 45.2561 91.9096 45.5995C92.0186 45.6596 92.1136 45.742 92.1886 45.8414C92.2636 45.9407 92.3168 46.0546 92.3449 46.1759C92.3729 46.2971 92.375 46.4229 92.3512 46.5451C92.3274 46.6672 92.2781 46.783 92.2066 46.8848C91.9189 47.3279 91.2948 47.5112 90.796 47.546C90.223 47.5854 89.0352 47.1377 88.9888 47.1214C88.8032 47.7705 88.6591 48.4307 88.5572 49.0981C88.4807 49.5922 88.4227 50.0957 88.3693 50.6014C88.4737 50.4576 88.9076 49.9054 88.9424 49.8799C89.4064 49.4159 90.6104 48.7756 91.274 49.1189C91.3828 49.1791 91.4778 49.2615 91.5528 49.3608C91.6278 49.46 91.6812 49.5739 91.7094 49.695C91.7376 49.8162 91.7401 49.9419 91.7166 50.0641C91.6932 50.1863 91.6443 50.3021 91.5732 50.4042C91.2832 50.8473 90.6592 51.0306 90.1604 51.0654C89.6012 51.1049 88.4621 50.6803 88.3647 50.6432C88.3415 50.8752 88.316 51.1072 88.2928 51.3392C88.2208 52.0909 88.1512 52.8472 88.0608 53.5896C88.0283 53.8448 87.9865 54.0977 87.9471 54.3505C88.1095 54.1417 88.4111 53.7636 88.4412 53.7357C88.9052 53.2717 90.1093 52.6314 90.7612 52.9748C90.8703 53.0345 90.9655 53.1165 91.0407 53.2155C91.1159 53.3145 91.1694 53.4283 91.1977 53.5494C91.2259 53.6704 91.2283 53.7961 91.2047 53.9182C91.181 54.0403 91.1319 54.156 91.0605 54.2577C90.7705 54.7009 90.1464 54.8841 89.6476 54.9189C89.1488 54.9537 88.1814 54.6173 87.9123 54.5199C87.8427 54.9398 87.7638 55.3551 87.6664 55.7611C87.6223 55.9351 87.5875 56.1137 87.5341 56.2785C87.4808 56.4432 87.4344 56.6102 87.3856 56.7749C87.272 57.109 87.1699 57.4199 87.0562 57.7308C87.0005 57.8862 86.9425 58.0324 86.8868 58.1832C87.0191 57.9512 87.2348 57.573 87.258 57.5429C87.6547 57.0046 88.7382 56.1973 89.4481 56.4362C89.5647 56.4793 89.671 56.5465 89.7601 56.6332C89.8491 56.72 89.919 56.8245 89.9651 56.9399C90.0112 57.0554 90.0326 57.1792 90.0279 57.3035C90.0232 57.4277 89.9924 57.5496 89.9376 57.6612C89.7196 58.1414 89.128 58.4175 88.6408 58.5289C88.1048 58.6495 86.9518 58.4152 86.8103 58.385C86.6711 58.7562 86.5319 59.1135 86.395 59.4476C85.9635 60.5032 85.5621 61.3639 85.2744 61.9648L85.228 62.0622H87.3276L86.6038 76.198C86.5771 76.7154 86.3528 77.2029 85.9773 77.5599C85.6017 77.9168 85.1035 78.1161 84.5854 78.1166C84.0673 78.1161 83.5691 77.9168 83.1935 77.5599C82.818 77.2029 82.5937 76.7154 82.567 76.198L81.8432 62.0622H84.0959C84.0959 61.9648 84.075 61.8604 84.0611 61.7444C83.9845 61.0902 83.8639 60.1575 83.669 59.0462C83.6133 58.7237 83.5484 58.385 83.4788 58.037C83.3326 58.0579 82.168 58.2041 81.6436 58.037C81.1657 57.8909 80.5973 57.573 80.4164 57.0742C80.3696 56.9591 80.3476 56.8355 80.3518 56.7113C80.356 56.5871 80.3864 56.4652 80.4409 56.3536C80.4954 56.242 80.5729 56.1431 80.6682 56.0634C80.7635 55.9836 80.8745 55.9249 80.994 55.891C81.7202 55.7054 82.741 56.587 83.096 57.1554C83.1192 57.1925 83.3396 57.6519 83.4486 57.8862C83.4045 57.6774 83.3627 57.4686 83.314 57.2505C83.2491 56.9373 83.1679 56.6079 83.082 56.2877L82.9428 55.7889C82.8988 55.6196 82.8361 55.4618 82.7828 55.2948C82.6992 55.0628 82.6018 54.8076 82.5067 54.5617C82.1912 54.6498 81.2608 54.8911 80.7806 54.8215C80.3004 54.7519 79.6786 54.5199 79.4234 54.0559C79.3597 53.9492 79.3192 53.8302 79.3045 53.7068C79.2899 53.5834 79.3014 53.4582 79.3384 53.3396C79.3754 53.2209 79.437 53.1114 79.5192 53.0181C79.6014 52.9249 79.7024 52.8501 79.8155 52.7985C80.5115 52.5061 81.6483 53.2253 82.0844 53.7265C82.0984 53.7427 82.1796 53.8587 82.2747 53.9979C82.1749 53.7659 82.0728 53.5339 81.9615 53.288C81.646 52.6175 81.3049 51.9447 80.9662 51.2673C80.8943 51.1257 80.827 50.9842 80.7551 50.8427C80.4906 50.9193 79.4837 51.1884 78.9826 51.1165C78.4815 51.0445 77.8806 50.8149 77.6254 50.3509C77.5617 50.2442 77.5212 50.1252 77.5065 50.0018C77.4919 49.8783 77.5034 49.7532 77.5404 49.6345C77.5774 49.5159 77.639 49.4063 77.7212 49.3131C77.8034 49.2199 77.9044 49.145 78.0175 49.0934C78.7135 48.7988 79.8503 49.5203 80.2864 50.0214C80.3027 50.0377 80.4001 50.1792 80.5068 50.3346C80.3259 49.9657 80.1519 49.5945 79.9918 49.221C79.7112 48.5809 79.4732 47.9229 79.2796 47.2513C79.1868 47.2792 78.0151 47.6202 77.456 47.539C76.9619 47.4671 76.354 47.2374 76.0988 46.7734C76.0351 46.6667 75.9946 46.5478 75.98 46.4243C75.9653 46.3009 75.9769 46.1758 76.0139 46.0571C76.0509 45.9384 76.1125 45.8289 76.1947 45.7357C76.2769 45.6424 76.3778 45.5676 76.4909 45.516C77.1869 45.2237 78.3237 45.9429 78.7599 46.444C78.7924 46.4788 79.138 46.9845 79.2564 47.1701C79.2553 47.1625 79.2553 47.1546 79.2564 47.1469C79.0818 46.4835 78.9676 45.8056 78.9153 45.1216C78.8657 44.5112 78.851 43.8985 78.8712 43.2865C78.8852 42.7157 78.9316 42.1984 78.978 41.739C79.0035 41.4908 79.0336 41.2634 79.0615 41.043H79.0499C79.0383 41.043 78.7877 40.1753 78.7761 40.115C78.6671 39.4561 78.8411 38.1175 79.5069 37.7718C79.619 37.7181 79.7412 37.6885 79.8655 37.6849C79.9898 37.6814 80.1134 37.7039 80.2284 37.7512C80.3435 37.7984 80.4473 37.8693 80.5332 37.9591C80.6191 38.049 80.6852 38.1559 80.7272 38.2729C80.9198 38.7648 80.7087 39.3819 80.4488 39.8065C80.189 40.231 79.3445 40.9038 79.1125 41.0639C79.087 41.2959 79.0615 41.5279 79.0406 41.7808C79.0035 42.2448 78.9687 42.7575 78.9687 43.3236C78.9687 43.4744 78.9687 43.6368 78.9687 43.7876C79.0197 43.5208 79.094 43.1565 79.1056 43.1217C79.312 42.4861 80.0846 41.3794 80.8316 41.3794C80.956 41.3831 81.0781 41.413 81.1901 41.467C81.3021 41.521 81.4016 41.5981 81.4819 41.693C81.5622 41.788 81.6216 41.8988 81.6563 42.0182C81.6909 42.1377 81.7001 42.2631 81.6831 42.3863C81.6297 42.9129 81.1564 43.3607 80.7296 43.6205C80.3027 43.8804 79.2076 44.0335 78.971 44.0613C78.9826 44.4093 79.0012 44.7573 79.0429 45.1401C79.1111 45.8166 79.2384 46.4858 79.4234 47.14H79.4675C79.4837 46.8894 79.5324 46.3605 79.5417 46.3187C79.6763 45.6621 80.3212 44.4766 81.066 44.3977C81.19 44.3876 81.3148 44.4037 81.4323 44.445C81.5497 44.4863 81.6571 44.5519 81.7475 44.6375C81.8379 44.723 81.9092 44.8267 81.9569 44.9417C82.0046 45.0567 82.0275 45.1804 82.0241 45.3049C82.0241 45.8315 81.6065 46.3303 81.2098 46.6342C80.7458 46.9845 79.5162 47.2653 79.4698 47.2745C79.672 47.9193 79.9161 48.5501 80.2006 49.163C80.4094 49.627 80.6391 50.0701 80.8734 50.5202C80.8734 50.3439 80.943 49.6525 80.9523 49.6038C81.0868 48.9473 81.7341 47.7617 82.4788 47.6805C82.6028 47.6704 82.7275 47.6865 82.8448 47.7278C82.9621 47.7691 83.0694 47.8347 83.1596 47.9204C83.2498 48.006 83.321 48.1097 83.3684 48.2247C83.4158 48.3396 83.4384 48.4633 83.4347 48.5877C83.4347 49.1166 83.0194 49.6154 82.6227 49.9193C82.1772 50.2604 80.9987 50.5365 80.892 50.5573L81.2121 51.1721C81.5671 51.8403 81.9244 52.5085 82.2561 53.1789C82.3721 53.4109 82.4765 53.6429 82.5832 53.8749C82.6018 53.6105 82.6459 53.1279 82.6552 53.0885C82.7897 52.4319 83.437 51.2464 84.1817 51.1675C84.3057 51.1573 84.4304 51.1734 84.5477 51.2148C84.665 51.2561 84.7723 51.3217 84.8625 51.4073C84.9527 51.4929 85.0238 51.5966 85.0712 51.7116C85.1186 51.8266 85.1412 51.9503 85.1376 52.0746C85.1376 52.6013 84.7223 53.1001 84.3256 53.404C83.9288 53.7079 82.9336 53.9608 82.6552 54.0281C82.8292 54.4178 82.9939 54.8076 83.1377 55.1881C83.1957 55.3597 83.2653 55.5291 83.3117 55.6938C83.3581 55.8585 83.4115 56.0256 83.4625 56.1903C83.553 56.5313 83.6365 56.8492 83.7131 57.1693C83.7525 57.3294 83.785 57.4825 83.8221 57.6333C83.8012 57.3619 83.7757 56.9373 83.778 56.8933C83.8128 56.2251 84.2722 54.9561 84.9937 54.7635C85.1147 54.7349 85.2405 54.732 85.3627 54.7551C85.4849 54.7783 85.6009 54.8269 85.703 54.8978C85.8052 54.9687 85.8914 55.0603 85.9558 55.1667C86.0203 55.273 86.0616 55.3918 86.0772 55.5152C86.0886 55.5795 86.0933 55.6448 86.0911 55.7101C86.3857 56.2199 86.5454 56.7964 86.5551 57.3851C86.5551 57.4269 86.4855 57.9326 86.4437 58.1878C86.5249 57.9906 86.6038 57.7934 86.6757 57.5846C86.7917 57.2854 86.9077 56.9652 87.0191 56.6566C87.0701 56.4942 87.1235 56.3295 87.1768 56.1648C87.2302 56.0001 87.2696 55.833 87.3184 55.666C87.381 55.4177 87.4367 55.1579 87.49 54.9004C87.1791 54.8006 86.2697 54.4874 85.9101 54.1649C85.5505 53.8425 85.1561 53.3042 85.1979 52.7729C85.2042 52.6488 85.2365 52.5273 85.2928 52.4164C85.349 52.3055 85.4279 52.2076 85.5243 52.1291C85.6208 52.0506 85.7326 51.9932 85.8526 51.9607C85.9726 51.9281 86.0981 51.9211 86.221 51.9401C86.9564 52.0769 87.5132 53.3066 87.5991 53.9701C87.5991 53.9909 87.5991 54.1325 87.5991 54.3018C87.6432 54.0489 87.6896 53.7961 87.729 53.5362C87.8357 52.8031 87.9215 52.0537 88.012 51.3021C88.0306 51.1466 88.0515 50.9889 88.07 50.8381C87.8079 50.7545 86.8195 50.4251 86.446 50.0864C86.0725 49.7477 85.692 49.2257 85.7361 48.6944C85.7421 48.5703 85.7742 48.4489 85.8301 48.338C85.8861 48.2271 85.9648 48.1292 86.0611 48.0506C86.1573 47.9721 86.269 47.9147 86.3889 47.8821C86.5088 47.8495 86.6341 47.8425 86.7569 47.8615C87.4947 47.9984 88.0492 49.228 88.135 49.8915C88.135 49.9147 88.135 50.0841 88.135 50.2743C88.1907 49.866 88.251 49.4623 88.3206 49.0609C88.4398 48.3725 88.6049 47.6928 88.8148 47.0263C88.722 46.9985 87.555 46.6342 87.1351 46.2607C86.7639 45.9266 86.3811 45.4 86.4252 44.8687C86.4308 44.7445 86.4626 44.6229 86.5185 44.5118C86.5743 44.4007 86.653 44.3027 86.7494 44.2241C86.8457 44.1455 86.9575 44.0881 87.0776 44.0556C87.1976 44.0232 87.3231 44.0164 87.446 44.0358C88.1814 44.1704 88.7382 45.4023 88.824 46.0658C88.824 46.1122 88.8403 46.7247 88.8356 46.9451V46.9219C89.0573 46.2718 89.3368 45.6429 89.6708 45.0427C89.9655 44.5063 90.2908 43.9873 90.6452 43.4883C90.97 43.0243 91.2972 42.6137 91.5872 42.2564C91.7472 42.0638 91.8957 41.8921 92.0372 41.7321H92.021C92.0071 41.7321 92.2808 40.8644 92.304 40.8041C92.5755 40.1939 93.464 39.1801 94.2041 39.2543C94.3333 39.2655 94.4584 39.3049 94.5708 39.3696C94.6831 39.4343 94.78 39.5228 94.8545 39.629C94.929 39.7351 94.9793 39.8562 95.0021 39.9839C95.0248 40.1115 95.0193 40.2426 94.986 40.3679ZM86.402 58.3317C86.2744 58.269 85.293 57.7841 84.9079 57.3689C84.5767 57.5498 84.235 57.711 83.8848 57.8514C83.9729 58.2365 84.0541 58.6124 84.1168 58.965C84.3488 60.0833 84.481 61.0229 84.5808 61.6841C84.5993 61.8233 84.6156 61.9485 84.6318 62.0645H84.6805L84.8452 61.7444C85.1422 61.1574 85.5575 60.3129 86.0052 59.2759C86.1328 58.9813 86.2651 58.6634 86.3996 58.334L86.402 58.3317ZM90.3228 44.0381C90.3344 44.0381 90.5548 43.1658 90.571 43.1101C90.6638 42.449 90.4527 41.115 89.7776 40.7902C89.6641 40.7391 89.5411 40.7125 89.4167 40.7121C89.2922 40.7117 89.1691 40.7375 89.0553 40.7878C88.9415 40.8381 88.8396 40.9119 88.7562 41.0042C88.6727 41.0966 88.6097 41.2054 88.5712 41.3237C88.3925 41.8202 88.6199 42.4281 88.8913 42.848C89.2092 43.3398 90.3204 44.0405 90.3204 44.0405L90.3228 44.0381Z" fill="#EF233C"/>
<path opacity="0.3" d="M75.9202 42.6554C75.8873 42.5356 75.8801 42.4101 75.8989 42.2872C75.9176 42.1644 75.9621 42.0468 76.0292 41.9423C76.0964 41.8377 76.1848 41.7484 76.2887 41.6802C76.3927 41.612 76.5098 41.5665 76.6324 41.5465C77.3748 41.4467 78.2866 42.442 78.5743 43.0452C78.5998 43.0962 78.8944 43.9569 78.8805 43.9569C78.8666 43.9569 77.5651 43.9871 77.0245 43.7528C76.5721 43.5533 76.0432 43.1705 75.9202 42.6554ZM94.986 40.3679C94.8746 40.8853 94.3596 41.2797 93.9072 41.4931C93.4548 41.7065 92.3852 41.7413 92.1208 41.746C91.9792 41.9153 91.8284 42.0986 91.6568 42.3028C91.376 42.667 91.0582 43.08 90.745 43.5509C90.6615 43.6762 90.578 43.8154 90.4921 43.9477C90.6824 43.7528 90.9445 43.4837 90.9747 43.4697C91.4967 43.0521 92.7518 42.5533 93.3759 42.9686C93.4774 43.0403 93.5627 43.1324 93.6263 43.2392C93.6899 43.3459 93.7304 43.4649 93.745 43.5882C93.7597 43.7116 93.7482 43.8367 93.7114 43.9554C93.6746 44.0741 93.6132 44.1837 93.5313 44.2771C93.1949 44.6877 92.5546 44.7991 92.0558 44.7805C91.557 44.762 90.5571 44.2841 90.346 44.1797C90.1627 44.4743 89.9794 44.7852 89.81 45.1077C89.4935 45.7091 89.2303 46.3371 89.0236 46.9845L89.063 47.0054C89.2161 46.8059 89.5455 46.3929 89.578 46.3605C90.042 45.8965 91.2438 45.2561 91.9096 45.5995C92.0186 45.6596 92.1136 45.742 92.1886 45.8414C92.2636 45.9407 92.3168 46.0546 92.3449 46.1759C92.3729 46.2971 92.375 46.4229 92.3512 46.5451C92.3274 46.6672 92.2781 46.783 92.2066 46.8848C91.9189 47.3279 91.2948 47.5112 90.796 47.546C90.223 47.5854 89.0352 47.1377 88.9888 47.1214C88.8032 47.7705 88.6591 48.4307 88.5572 49.0981C88.4807 49.5922 88.4227 50.0957 88.3693 50.6014C88.4737 50.4576 88.9076 49.9054 88.9424 49.8799C89.4064 49.4159 90.6104 48.7756 91.274 49.1189C91.3828 49.1791 91.4778 49.2615 91.5528 49.3608C91.6278 49.46 91.6812 49.5739 91.7094 49.695C91.7376 49.8162 91.7401 49.9419 91.7166 50.0641C91.6932 50.1863 91.6443 50.3021 91.5732 50.4042C91.2832 50.8473 90.6592 51.0306 90.1604 51.0654C89.6012 51.1049 88.4621 50.6803 88.3647 50.6432C88.3415 50.8752 88.316 51.1072 88.2928 51.3392C88.2208 52.0909 88.1512 52.8472 88.0608 53.5896C88.0283 53.8448 87.9865 54.0977 87.9471 54.3505C88.1095 54.1417 88.4111 53.7636 88.4412 53.7357C88.9052 53.2717 90.1093 52.6314 90.7612 52.9748C90.8703 53.0345 90.9655 53.1165 91.0407 53.2155C91.1159 53.3145 91.1694 53.4283 91.1977 53.5494C91.2259 53.6704 91.2283 53.7961 91.2047 53.9182C91.181 54.0403 91.1319 54.156 91.0605 54.2577C90.7705 54.7009 90.1464 54.8841 89.6476 54.9189C89.1488 54.9537 88.1814 54.6173 87.9123 54.5199C87.8427 54.9398 87.7638 55.3551 87.6664 55.7611C87.6223 55.9351 87.5875 56.1137 87.5341 56.2785C87.4808 56.4432 87.4344 56.6102 87.3856 56.7749C87.272 57.109 87.1699 57.4199 87.0562 57.7308C87.0005 57.8862 86.9425 58.0324 86.8868 58.1832C87.0191 57.9512 87.2348 57.573 87.258 57.5429C87.6547 57.0046 88.7382 56.1973 89.4481 56.4362C89.5647 56.4793 89.671 56.5465 89.7601 56.6332C89.8491 56.72 89.919 56.8245 89.9651 56.9399C90.0112 57.0554 90.0326 57.1792 90.0279 57.3035C90.0232 57.4277 89.9924 57.5496 89.9376 57.6612C89.7196 58.1414 89.128 58.4175 88.6408 58.5289C88.1048 58.6495 86.9518 58.4152 86.8103 58.385C86.6711 58.7562 86.5319 59.1135 86.395 59.4476C85.9635 60.5032 85.5621 61.3639 85.2744 61.9648L85.228 62.0622H87.3276L86.6038 76.198C86.5771 76.7154 86.3528 77.2029 85.9773 77.5599C85.6017 77.9168 85.1035 78.1161 84.5854 78.1166C84.0673 78.1161 83.5691 77.9168 83.1935 77.5599C82.818 77.2029 82.5937 76.7154 82.567 76.198L81.8432 62.0622H84.0959C84.0959 61.9648 84.075 61.8604 84.0611 61.7444C83.9845 61.0902 83.8639 60.1575 83.669 59.0462C83.6133 58.7237 83.5484 58.385 83.4788 58.037C83.3326 58.0579 82.168 58.2041 81.6436 58.037C81.1657 57.8909 80.5973 57.573 80.4164 57.0742C80.3696 56.9591 80.3476 56.8355 80.3518 56.7113C80.356 56.5871 80.3864 56.4652 80.4409 56.3536C80.4954 56.242 80.5729 56.1431 80.6682 56.0634C80.7635 55.9836 80.8745 55.9249 80.994 55.891C81.7202 55.7054 82.741 56.587 83.096 57.1554C83.1192 57.1925 83.3396 57.6519 83.4486 57.8862C83.4045 57.6774 83.3627 57.4686 83.314 57.2505C83.2491 56.9373 83.1679 56.6079 83.082 56.2877L82.9428 55.7889C82.8988 55.6196 82.8361 55.4618 82.7828 55.2948C82.6992 55.0628 82.6018 54.8076 82.5067 54.5617C82.1912 54.6498 81.2608 54.8911 80.7806 54.8215C80.3004 54.7519 79.6786 54.5199 79.4234 54.0559C79.3597 53.9492 79.3192 53.8302 79.3045 53.7068C79.2899 53.5834 79.3014 53.4582 79.3384 53.3396C79.3754 53.2209 79.437 53.1114 79.5192 53.0181C79.6014 52.9249 79.7024 52.8501 79.8155 52.7985C80.5115 52.5061 81.6483 53.2253 82.0844 53.7265C82.0984 53.7427 82.1796 53.8587 82.2747 53.9979C82.1749 53.7659 82.0728 53.5339 81.9615 53.288C81.646 52.6175 81.3049 51.9447 80.9662 51.2673C80.8943 51.1257 80.827 50.9842 80.7551 50.8427C80.4906 50.9193 79.4837 51.1884 78.9826 51.1165C78.4815 51.0445 77.8806 50.8149 77.6254 50.3509C77.5617 50.2442 77.5212 50.1252 77.5065 50.0018C77.4919 49.8783 77.5034 49.7532 77.5404 49.6345C77.5774 49.5159 77.639 49.4063 77.7212 49.3131C77.8034 49.2199 77.9044 49.145 78.0175 49.0934C78.7135 48.7988 79.8503 49.5203 80.2864 50.0214C80.3027 50.0377 80.4001 50.1792 80.5068 50.3346C80.3259 49.9657 80.1519 49.5945 79.9918 49.221C79.7112 48.5809 79.4732 47.9229 79.2796 47.2513C79.1868 47.2792 78.0151 47.6202 77.456 47.539C76.9619 47.4671 76.354 47.2374 76.0988 46.7734C76.0351 46.6667 75.9946 46.5478 75.98 46.4243C75.9653 46.3009 75.9769 46.1758 76.0139 46.0571C76.0509 45.9384 76.1125 45.8289 76.1947 45.7357C76.2769 45.6424 76.3778 45.5676 76.4909 45.516C77.1869 45.2237 78.3237 45.9429 78.7599 46.444C78.7924 46.4788 79.138 46.9845 79.2564 47.1701C79.2553 47.1625 79.2553 47.1546 79.2564 47.1469C79.0818 46.4835 78.9676 45.8056 78.9153 45.1216C78.8657 44.5112 78.851 43.8985 78.8712 43.2865C78.8852 42.7157 78.9316 42.1984 78.978 41.739C79.0035 41.4908 79.0336 41.2634 79.0615 41.043H79.0499C79.0383 41.043 78.7877 40.1753 78.7761 40.115C78.6671 39.4561 78.8411 38.1175 79.5069 37.7718C79.619 37.7181 79.7412 37.6885 79.8655 37.6849C79.9898 37.6814 80.1134 37.7039 80.2284 37.7512C80.3435 37.7984 80.4473 37.8693 80.5332 37.9591C80.6191 38.049 80.6852 38.1559 80.7272 38.2729C80.9198 38.7648 80.7087 39.3819 80.4488 39.8065C80.189 40.231 79.3445 40.9038 79.1125 41.0639C79.087 41.2959 79.0615 41.5279 79.0406 41.7808C79.0035 42.2448 78.9687 42.7575 78.9687 43.3236C78.9687 43.4744 78.9687 43.6368 78.9687 43.7876C79.0197 43.5208 79.094 43.1565 79.1056 43.1217C79.312 42.4861 80.0846 41.3794 80.8316 41.3794C80.956 41.3831 81.0781 41.413 81.1901 41.467C81.3021 41.521 81.4016 41.5981 81.4819 41.693C81.5622 41.788 81.6216 41.8988 81.6563 42.0182C81.6909 42.1377 81.7001 42.2631 81.6831 42.3863C81.6297 42.9129 81.1564 43.3607 80.7296 43.6205C80.3027 43.8804 79.2076 44.0335 78.971 44.0613C78.9826 44.4093 79.0012 44.7573 79.0429 45.1401C79.1111 45.8166 79.2384 46.4858 79.4234 47.14H79.4675C79.4837 46.8894 79.5324 46.3605 79.5417 46.3187C79.6763 45.6621 80.3212 44.4766 81.066 44.3977C81.19 44.3876 81.3148 44.4037 81.4323 44.445C81.5497 44.4863 81.6571 44.5519 81.7475 44.6375C81.8379 44.723 81.9092 44.8267 81.9569 44.9417C82.0046 45.0567 82.0275 45.1804 82.0241 45.3049C82.0241 45.8315 81.6065 46.3303 81.2098 46.6342C80.7458 46.9845 79.5162 47.2653 79.4698 47.2745C79.672 47.9193 79.9161 48.5501 80.2006 49.163C80.4094 49.627 80.6391 50.0701 80.8734 50.5202C80.8734 50.3439 80.943 49.6525 80.9523 49.6038C81.0868 48.9473 81.7341 47.7617 82.4788 47.6805C82.6028 47.6704 82.7275 47.6865 82.8448 47.7278C82.9621 47.7691 83.0694 47.8347 83.1596 47.9204C83.2498 48.006 83.321 48.1097 83.3684 48.2247C83.4158 48.3396 83.4384 48.4633 83.4347 48.5877C83.4347 49.1166 83.0194 49.6154 82.6227 49.9193C82.1772 50.2604 80.9987 50.5365 80.892 50.5573L81.2121 51.1721C81.5671 51.8403 81.9244 52.5085 82.2561 53.1789C82.3721 53.4109 82.4765 53.6429 82.5832 53.8749C82.6018 53.6105 82.6459 53.1279 82.6552 53.0885C82.7897 52.4319 83.437 51.2464 84.1817 51.1675C84.3057 51.1573 84.4304 51.1734 84.5477 51.2148C84.665 51.2561 84.7723 51.3217 84.8625 51.4073C84.9527 51.4929 85.0238 51.5966 85.0712 51.7116C85.1186 51.8266 85.1412 51.9503 85.1376 52.0746C85.1376 52.6013 84.7223 53.1001 84.3256 53.404C83.9288 53.7079 82.9336 53.9608 82.6552 54.0281C82.8292 54.4178 82.9939 54.8076 83.1377 55.1881C83.1957 55.3597 83.2653 55.5291 83.3117 55.6938C83.3581 55.8585 83.4115 56.0256 83.4625 56.1903C83.553 56.5313 83.6365 56.8492 83.7131 57.1693C83.7525 57.3294 83.785 57.4825 83.8221 57.6333C83.8012 57.3619 83.7757 56.9373 83.778 56.8933C83.8128 56.2251 84.2722 54.9561 84.9937 54.7635C85.1147 54.7349 85.2405 54.732 85.3627 54.7551C85.4849 54.7783 85.6009 54.8269 85.703 54.8978C85.8052 54.9687 85.8914 55.0603 85.9558 55.1667C86.0203 55.273 86.0616 55.3918 86.0772 55.5152C86.0886 55.5795 86.0933 55.6448 86.0911 55.7101C86.3857 56.2199 86.5454 56.7964 86.5551 57.3851C86.5551 57.4269 86.4855 57.9326 86.4437 58.1878C86.5249 57.9906 86.6038 57.7934 86.6757 57.5846C86.7917 57.2854 86.9077 56.9652 87.0191 56.6566C87.0701 56.4942 87.1235 56.3295 87.1768 56.1648C87.2302 56.0001 87.2696 55.833 87.3184 55.666C87.381 55.4177 87.4367 55.1579 87.49 54.9004C87.1791 54.8006 86.2697 54.4874 85.9101 54.1649C85.5505 53.8425 85.1561 53.3042 85.1979 52.7729C85.2042 52.6488 85.2365 52.5273 85.2928 52.4164C85.349 52.3055 85.4279 52.2076 85.5243 52.1291C85.6208 52.0506 85.7326 51.9932 85.8526 51.9607C85.9726 51.9281 86.0981 51.9211 86.221 51.9401C86.9564 52.0769 87.5132 53.3066 87.5991 53.9701C87.5991 53.9909 87.5991 54.1325 87.5991 54.3018C87.6432 54.0489 87.6896 53.7961 87.729 53.5362C87.8357 52.8031 87.9215 52.0537 88.012 51.3021C88.0306 51.1466 88.0515 50.9889 88.07 50.8381C87.8079 50.7545 86.8195 50.4251 86.446 50.0864C86.0725 49.7477 85.692 49.2257 85.7361 48.6944C85.7421 48.5703 85.7742 48.4489 85.8301 48.338C85.8861 48.2271 85.9648 48.1292 86.0611 48.0506C86.1573 47.9721 86.269 47.9147 86.3889 47.8821C86.5088 47.8495 86.6341 47.8425 86.7569 47.8615C87.4947 47.9984 88.0492 49.228 88.135 49.8915C88.135 49.9147 88.135 50.0841 88.135 50.2743C88.1907 49.866 88.251 49.4623 88.3206 49.0609C88.4398 48.3725 88.6049 47.6928 88.8148 47.0263C88.722 46.9985 87.555 46.6342 87.1351 46.2607C86.7639 45.9266 86.3811 45.4 86.4252 44.8687C86.4308 44.7445 86.4626 44.6229 86.5185 44.5118C86.5743 44.4007 86.653 44.3027 86.7494 44.2241C86.8457 44.1455 86.9575 44.0881 87.0776 44.0556C87.1976 44.0232 87.3231 44.0164 87.446 44.0358C88.1814 44.1704 88.7382 45.4023 88.824 46.0658C88.824 46.1122 88.8403 46.7247 88.8356 46.9451V46.9219C89.0573 46.2718 89.3368 45.6429 89.6708 45.0427C89.9655 44.5063 90.2908 43.9873 90.6452 43.4883C90.97 43.0243 91.2972 42.6137 91.5872 42.2564C91.7472 42.0638 91.8957 41.8921 92.0372 41.7321H92.021C92.0071 41.7321 92.2808 40.8644 92.304 40.8041C92.5755 40.1939 93.464 39.1801 94.2041 39.2543C94.3333 39.2655 94.4584 39.3049 94.5708 39.3696C94.6831 39.4343 94.78 39.5228 94.8545 39.629C94.929 39.7351 94.9793 39.8562 95.0021 39.9839C95.0248 40.1115 95.0193 40.2426 94.986 40.3679ZM86.402 58.3317C86.2744 58.269 85.293 57.7841 84.9079 57.3689C84.5767 57.5498 84.235 57.711 83.8848 57.8514C83.9729 58.2365 84.0541 58.6124 84.1168 58.965C84.3488 60.0833 84.481 61.0229 84.5808 61.6841C84.5993 61.8233 84.6156 61.9485 84.6318 62.0645H84.6805L84.8452 61.7444C85.1422 61.1574 85.5575 60.3129 86.0052 59.2759C86.1328 58.9813 86.2651 58.6634 86.3996 58.334L86.402 58.3317ZM90.3228 44.0381C90.3344 44.0381 90.5548 43.1658 90.571 43.1101C90.6638 42.449 90.4527 41.115 89.7776 40.7902C89.6641 40.7391 89.5411 40.7125 89.4167 40.7121C89.2922 40.7117 89.1691 40.7375 89.0553 40.7878C88.9415 40.8381 88.8396 40.9119 88.7562 41.0042C88.6727 41.0966 88.6097 41.2054 88.5712 41.3237C88.3925 41.8202 88.6199 42.4281 88.8913 42.848C89.2092 43.3398 90.3204 44.0405 90.3204 44.0405L90.3228 44.0381Z" fill="white"/>
<path d="M74.8203 52.5132C74.8203 52.5132 77.1774 50.8033 77.3282 50.6896C77.479 50.576 79.5717 51.4877 79.6854 52.0584C79.799 52.6291 79.7225 52.7799 79.5717 52.8565C79.4209 52.9331 75.2402 54.0722 75.1242 54.1093C75.0082 54.1464 74.8203 52.5132 74.8203 52.5132Z" fill="#EF233C" stroke="#263238" stroke-linecap="round" stroke-linejoin="round"/>
<path d="M58.2782 38.3959C58.1668 38.0462 58.1783 37.6688 58.3107 37.3264C58.5427 36.8067 58.8953 36.6443 58.7329 36.2546C58.5705 35.8648 57.5961 34.9879 57.4987 34.5007C57.4012 34.0135 57.1089 34.0367 56.9465 34.3383C56.8646 34.488 56.8393 34.6623 56.875 34.8292C56.9108 34.9961 57.0053 35.1446 57.1414 35.2477C57.2402 35.3008 57.3263 35.3748 57.3936 35.4646C57.4609 35.5543 57.5078 35.6577 57.5312 35.7674C57.5312 35.8648 57.2992 35.9994 57.2992 35.9994C57.2992 35.9994 56.3271 35.1224 56.0997 35.0575C55.8724 34.9925 55.8074 35.0575 55.8074 35.4472C55.8074 35.837 55.7448 37.4958 56.0046 38.0804C56.2644 38.6651 57.3966 39.2404 57.3966 39.2404L58.2782 38.3959Z" fill="white" stroke="#263238" stroke-linecap="round" stroke-linejoin="round"/>
<path d="M57.3594 37.939C57.4387 37.9056 57.5018 37.8424 57.5352 37.7631C57.5686 37.6837 57.5696 37.5945 57.538 37.5144L52.5152 24.6987L52.2832 24.7753L56.9232 37.7464C56.9385 37.7887 56.9623 37.8274 56.9931 37.8603C57.0239 37.8931 57.061 37.9193 57.1023 37.9373C57.1435 37.9553 57.188 37.9648 57.233 37.965C57.278 37.9653 57.3225 37.9565 57.364 37.939H57.3594Z" fill="#263238"/>
<path d="M66.4886 37.8716C66.486 37.8645 66.4812 37.8584 66.475 37.8541C66.4688 37.8497 66.4614 37.8474 66.4538 37.8474C66.4463 37.8474 66.4389 37.8497 66.4326 37.8541C66.4264 37.8584 66.4217 37.8645 66.419 37.8716C65.907 38.9574 65.4759 40.0794 65.1291 41.2287C64.6838 42.5971 64.0506 43.8972 63.2476 45.0915C63.2476 45.0915 60.5842 41.7483 59.8047 40.644C59.0252 39.5397 58.2781 38.4029 58.2781 38.4029L57.1738 39.1175C57.6756 40.532 58.2502 41.9197 58.8953 43.2749C59.7073 44.8641 61.5702 47.5205 62.707 48.5923C63.8438 49.6642 64.6512 49.7709 65.3565 49.3139C65.665 49.1143 66.7485 47.2027 66.7485 47.2027C66.7485 47.2027 67.2125 43.9245 67.0408 41.521C66.9782 40.2892 66.7933 39.0667 66.4886 37.8716Z" fill="#EF233C" stroke="#263238" stroke-linecap="round" stroke-linejoin="round"/>
<path d="M75.4233 58.9488C75.4233 56.2553 75.3584 52.5201 75.3584 52.5201C73.8077 52.7414 72.2465 52.8823 70.6813 52.9423C68.7023 52.9748 66.5586 51.3833 66.5586 51.3833C66.5586 51.3833 66.2663 52.2927 66.2663 54.7937C66.2663 57.2947 66.5586 66.1199 66.5586 66.1199C66.5586 66.1199 66.9901 69.3911 67.1131 71.2239C67.2361 73.0567 68.9529 83.3599 68.9529 83.3599C68.9529 83.3599 67.7256 84.5848 66.8649 85.3203C66.0041 86.0557 64.9045 86.5452 65.6399 86.9141C66.3753 87.283 68.0272 86.8538 68.3961 86.7331C68.5886 86.6682 69.1083 86.174 69.6164 85.9188C69.7769 85.8329 69.9526 85.7793 70.1337 85.7611C70.3183 85.7452 70.4957 85.6821 70.6488 85.5778L71.0339 85.3203C71.0339 85.3203 71.1569 86.7911 71.1569 87.4083C71.1569 88.0254 71.5234 89.4963 72.0153 89.6146C72.5071 89.7329 72.9804 89.6795 73.4699 88.7005C73.9594 87.7215 73.3121 83.5199 73.3121 83.5199C73.3121 83.5199 73.6764 81.4899 73.862 80.0678C74.0777 78.3603 75.4233 60.9115 75.4233 58.9488Z" fill="#263238" stroke="#263238" stroke-linecap="round" stroke-linejoin="round"/>
<path d="M72.8145 54.3135C72.8145 54.3135 73.0952 55.3482 73.5661 55.8656C74.0371 56.3829 75.0695 56.3296 75.0695 56.3296" stroke="white" stroke-width="0.75" stroke-linecap="round" stroke-linejoin="round"/>
<path d="M69.1016 54.8308L69.2431 57.4153L69.7604 58.0278L69.9484 55.3946" stroke="white" stroke-width="0.75" stroke-linecap="round" stroke-linejoin="round"/>
<path d="M69.2129 83.3645C69.731 83.7841 70.3406 84.0758 70.9923 84.2159" stroke="white" stroke-width="0.75" stroke-linecap="round" stroke-linejoin="round"/>
<path d="M73.3111 83.5198C73.3111 83.5198 72.3831 84.9118 71.3066 83.8353" stroke="white" stroke-width="0.75" stroke-linecap="round" stroke-linejoin="round"/>
<path d="M68.793 56.7378L70.0063 58.436L71.0689 83.3644C71.0689 83.3644 72.7718 79.8079 73.3889 77.1004C74.006 74.393 74.2403 70.6833 74.2403 70.6833" stroke="white" stroke-width="0.75" stroke-linecap="round" stroke-linejoin="round"/>
<path d="M70.0969 37.0991C70.0969 37.0991 66.8489 37.6513 66.4614 37.7812C66.074 37.9111 66.364 43.6578 66.364 43.6578C66.364 43.6578 66.2016 52.033 66.4939 52.9099C66.7862 53.7869 68.5819 54.0699 69.3104 54.2138C70.6279 54.4627 71.9826 54.4358 73.2892 54.1349C74.0478 53.9678 75.0918 53.882 75.2937 52.9749C75.4955 52.0678 75.7159 46.871 76.1706 45.1495C76.6254 43.4281 78.312 40.6696 77.6299 39.5328C76.9478 38.396 73.9295 37.5538 72.6303 37.3914C71.3311 37.229 70.0969 37.0991 70.0969 37.0991Z" fill="#EF233C" stroke="#263238" stroke-linecap="round" stroke-linejoin="round"/>
<path d="M69.4158 38.5907L69.8357 40.7993L67.5645 51.418L68.8312 53.5593L70.4204 51.6755L70.2255 40.9293L71.3623 38.9805L70.7127 37.7161L69.4158 38.5907Z" fill="#263238"/>
<path d="M70.5273 36.5793C70.0491 36.8367 69.6209 37.1777 69.2629 37.5862C68.7108 38.2335 67.7689 39.9549 67.8709 39.89C67.973 39.825 70.5645 38.2335 70.5645 38.2335L70.5273 36.5793Z" fill="#EF233C" stroke="#263238" stroke-linecap="round" stroke-linejoin="round"/>
<path d="M72.6947 36.2546L70.6484 38.4958L71.2331 40.5397L73.6366 37.4889L72.6947 36.2546Z" fill="#EF233C" stroke="#263238" stroke-linecap="round" stroke-linejoin="round"/>
<path d="M68.9299 28.4292C68.9299 28.4292 67.5982 28.689 67.4358 27.5197C67.2734 26.3505 69.0923 24.6963 71.6884 24.6963C74.2845 24.6963 76.3284 26.8701 76.2356 28.9813C76.1529 30.3463 75.6918 31.6614 74.9039 32.7792C74.774 32.974 73.7022 33.5587 73.2474 33.6236C72.7927 33.6886 72.4679 33.039 72.6953 32.1945C72.9226 31.3501 72.2081 31.125 72.5004 30.3385C72.7927 29.5521 73.1825 29.559 73.3124 29.2992C73.4423 29.0393 72.0132 28.4872 70.714 28.5521C69.4148 28.6171 68.9299 28.4292 68.9299 28.4292Z" fill="#263238" stroke="#263238" stroke-linecap="round" stroke-linejoin="round"/>
<path d="M71.5488 27.3086C73.1009 27.2714 75.2747 27.5406 75.5415 29.3478" stroke="white" stroke-linecap="round" stroke-linejoin="round"/>
<path d="M69.9727 27.4571C69.9727 27.4571 70.2951 27.3991 70.7847 27.355" stroke="white" stroke-linecap="round" stroke-linejoin="round"/>
<path d="M73.127 26.5105C73.127 26.5105 75.8762 26.6172 76.2358 28.9813" stroke="white" stroke-linecap="round" stroke-linejoin="round"/>
<path d="M70.356 35.3127C70.356 35.3127 70.356 35.3591 70.3351 35.4379C70.2655 35.837 70.0544 37.0875 69.9987 37.8461C69.9337 38.7532 70.5833 38.7207 70.8432 38.4609C71.103 38.2011 72.4672 36.8369 72.6992 36.2546C72.9312 35.6723 73.4462 33.916 73.4462 33.916L70.356 35.3127Z" fill="white" stroke="#263238" stroke-linecap="round" stroke-linejoin="round"/>
<path d="M68.9299 28.4291C68.9299 28.4291 68.4659 30.9625 68.3128 32.2919C68.1597 33.6212 67.988 34.4031 68.5448 35.2476C69.1016 36.092 70.6537 35.5399 71.4332 35.2151C72.2127 34.8903 73.8043 33.8509 73.8043 33.8509C73.8043 33.8509 74.9086 33.9159 75.3633 33.3637C75.4402 33.2656 75.4942 33.1515 75.5213 33.0299C75.5484 32.9082 75.548 32.782 75.5199 32.6605C75.4919 32.539 75.437 32.4253 75.3593 32.3278C75.2816 32.2303 75.1831 32.1515 75.071 32.097C74.8111 32.032 74.2265 32.2594 74.0316 32.4868C73.8367 32.7141 73.8692 32.974 73.6419 32.974C73.4145 32.974 73.0897 33.0389 73.1547 32.8116C73.2196 32.5842 73.7068 31.8372 73.5769 31.3523C73.447 30.8674 72.4726 30.5403 73.2846 30.0856C74.0966 29.6308 74.9411 29.6633 74.5513 28.9812C74.1615 28.2992 72.1478 27.5892 70.8811 27.8444C70.2113 27.9675 69.557 28.1635 68.9299 28.4291Z" fill="white" stroke="#263238" stroke-linecap="round" stroke-linejoin="round"/>
<path d="M69.3512 29.1762C69.3512 29.1762 70.1098 29.0138 70.0634 29.7933C70.0472 30.0995 68.7016 31.5147 68.9034 31.8372C69.0369 32.0461 69.2142 32.2234 69.4231 32.3569" stroke="#263238" stroke-linecap="round" stroke-linejoin="round"/>
<path d="M70.9727 29.9881C71.0766 29.9037 71.1981 29.8438 71.3282 29.8125C71.4584 29.7813 71.5938 29.7797 71.7247 29.8077C71.8556 29.8358 71.9785 29.8928 72.0844 29.9746C72.1903 30.0564 72.2766 30.1609 72.3368 30.2804" stroke="#263238" stroke-linecap="round" stroke-linejoin="round"/>
<path d="M69.0918 33.2988C69.0918 33.2988 69.2867 33.786 70.0639 33.7211C70.8411 33.6561 71.0708 33.4891 71.0708 33.4891" stroke="#263238" stroke-linecap="round" stroke-linejoin="round"/>
<path d="M71.4231 31.0532C71.3767 31.269 71.2491 31.4221 71.1354 31.3989C71.0218 31.3757 70.9661 31.1808 71.0125 30.9674C71.0589 30.7539 71.1865 30.5985 71.3001 30.6217C71.4138 30.6449 71.4672 30.8398 71.4231 31.0532Z" fill="#263238"/>
<path d="M69.5334 30.3362C69.4939 30.5426 69.371 30.6934 69.2619 30.6726C69.1529 30.6517 69.0949 30.4638 69.1366 30.2573C69.1784 30.0508 69.299 29.9 69.4104 29.9209C69.5218 29.9418 69.5751 30.1274 69.5334 30.3362Z" fill="#263238"/>
<path d="M75.2285 44.4372C75.32 43.7913 75.4938 43.1598 75.7459 42.558C76.2099 41.4607 77.3374 39.2404 77.6297 39.542C77.922 39.8436 78.4417 40.8088 78.7665 42.4977C79.0913 44.1867 80.0982 49.3812 80.5204 50.2906C80.9427 51.2 81.0401 51.555 80.7803 51.9146C80.7803 51.9146 79.8708 53.2138 78.6691 52.6941C77.4673 52.1744 75.4559 47.2398 75.4559 47.2398" fill="#EF233C"/>
<path d="M75.2285 44.4372C75.32 43.7913 75.4938 43.1598 75.7459 42.558C76.2099 41.4607 77.3374 39.2404 77.6297 39.542C77.922 39.8436 78.4417 40.8088 78.7665 42.4977C79.0913 44.1867 80.0982 49.3812 80.5204 50.2906C80.9427 51.2 81.0401 51.555 80.7803 51.9146C80.7803 51.9146 79.8708 53.2138 78.6691 52.6941C77.4673 52.1744 75.4559 47.2398 75.4559 47.2398" stroke="#263238" stroke-linecap="round" stroke-linejoin="round"/>
<path d="M55.1127 34.4775C54.9201 34.9137 55.5349 35.2686 55.8876 35.3429C56.1799 35.4055 56.4838 34.916 56.2657 34.6956C56.0648 34.5097 55.8169 34.3821 55.5488 34.3267C55.476 34.3094 55.4 34.3108 55.3278 34.3307C55.2556 34.3505 55.1896 34.3883 55.1359 34.4404C55.1268 34.4519 55.119 34.4643 55.1127 34.4775Z" fill="white" stroke="#263238" stroke-linecap="round" stroke-linejoin="round"/>
<path d="M56.2439 35.8323C56.2439 35.8323 55.4319 35.649 55.1953 35.7418C54.9587 35.8346 54.9633 36.4239 55.0909 36.5793C55.2185 36.7348 56.3878 36.6582 56.5455 36.5283C56.7033 36.3984 56.6383 35.9599 56.2439 35.8323Z" fill="white" stroke="#263238" stroke-linecap="round" stroke-linejoin="round"/>
<path d="M55.2345 36.6721C55.2345 36.6721 55.2229 37.2753 55.3923 37.4447C55.5617 37.614 56.7681 37.4052 56.8609 37.1964C56.9537 36.9876 56.7565 36.4749 56.6497 36.5004C56.543 36.526 55.7078 36.7765 55.2345 36.6721Z" fill="white" stroke="#263238" stroke-linecap="round" stroke-linejoin="round"/>
<path d="M55.4709 37.4981C55.4674 37.7114 55.5262 37.921 55.6402 38.1013C55.8119 38.2846 56.8211 37.9575 57.0044 37.7208C57.0352 37.686 57.0566 37.644 57.0667 37.5986C57.0768 37.5532 57.0751 37.506 57.0619 37.4614C57.0486 37.4168 57.0243 37.3764 56.9911 37.3438C56.9579 37.3113 56.9169 37.2877 56.8721 37.2754C56.5644 37.3705 56.2493 37.4403 55.9302 37.4842C55.6286 37.4981 55.4709 37.4981 55.4709 37.4981Z" fill="white" stroke="#263238" stroke-linecap="round" stroke-linejoin="round"/>
<path d="M93.0823 65.5564C96.1571 66.8819 99.2288 68.2113 102.297 69.5445C102.576 69.6626 102.798 69.8849 102.915 70.164C103.032 70.4432 103.035 70.757 102.924 71.0386C102.46 72.2287 101.592 74.1845 100.337 75.711C98.3998 78.0682 97.7154 80.1562 97.488 82.5133C97.2606 84.8704 97.488 89.2018 97.488 89.2018L85.707 78.9405C85.707 78.9405 87.0758 72.9758 89.2427 71.1499C91.0157 69.6768 92.3449 67.7404 93.0823 65.5564Z" fill="#263238"/>
<path d="M91.0687 63.8464C91.0687 63.8464 86.7349 63.9972 86.3567 63.9972C85.9786 63.9972 84.7977 69.7369 84.4172 72.4328C84.0367 75.1286 83.6191 77.1447 83.6191 77.1447C83.6191 77.1447 87.4959 79.5018 89.3959 80.3764C91.296 81.2511 93.3098 82.2 93.3098 82.2C93.3098 82.2 95.5138 75.8919 96.8431 73.2308C98.1725 70.5698 99.3511 70.4584 98.553 68.976C97.7549 67.4935 95.2864 65.5934 94.3352 64.96C93.384 64.3267 91.0687 63.8464 91.0687 63.8464Z" fill="#EF233C" stroke="#263238" stroke-linecap="round" stroke-linejoin="round"/>
<path d="M89.3967 66.7348L89.6635 68.5583L84.875 77.952C84.875 77.952 86.963 79.5482 87.0024 79.3208C87.0419 79.0934 90.2713 68.7578 90.2713 68.7578L91.828 67.5027L91.03 65.6467C90.4176 65.8953 89.862 66.2654 89.3967 66.7348Z" fill="#263238"/>
<path d="M90.0153 63.503C90.0153 63.503 89.9016 63.5425 89.3309 64.4148C88.7601 65.2871 88.5722 68.1407 88.6859 68.0247C88.7996 67.9087 90.1684 66.1687 90.5094 66.2778C90.8505 66.3868 91.8017 68.6349 91.8388 68.8298C91.8759 69.0246 93.3978 67.5004 93.8526 66.2082C94.3073 64.9159 94.1194 63.6562 93.5881 63.2826C93.0568 62.9091 90.8783 62.7444 90.0153 63.503Z" fill="#EF233C" stroke="#263238" stroke-linecap="round" stroke-linejoin="round"/>
<path d="M19.4873 68.3287L12.5273 73.7947C12.4356 73.8663 12.3624 73.9589 12.314 74.0646C12.2655 74.1704 12.2432 74.2863 12.2489 74.4025C12.2546 74.5187 12.2881 74.6318 12.3467 74.7323C12.4052 74.8329 12.487 74.9179 12.5853 74.9802C14.1025 75.9337 17.1069 78.0379 18.0048 80.2234C19.2205 83.1883 19.6752 87.253 20.6264 88.6983C21.2382 89.5905 22.0922 90.2892 23.0879 90.7121L30.4957 81.3625C30.4957 81.3625 29.1292 81.6687 28.1409 77.1865C27.1525 72.7043 24.4544 69.8901 23.2689 69.0155C22.0833 68.1408 19.4873 68.3287 19.4873 68.3287Z" fill="#263238"/>
<path d="M29.0891 67.9875C29.0891 67.9875 35.2464 70.9896 35.3531 71.8248C35.4598 72.66 34.8589 74.6761 34.4785 74.9406C34.098 75.2051 30.6412 73.7644 30.0705 73.421C29.4997 73.0776 28.7109 69.013 29.0891 67.9875Z" fill="#EF233C" stroke="#263238" stroke-linecap="round" stroke-linejoin="round"/>
<path d="M24.9105 66.2013C25.5522 65.8381 26.2429 65.5693 26.9614 65.4033C27.5042 65.2617 28.6341 65.8673 29.0494 67.1131C29.4097 68.1201 29.828 69.1055 30.3022 70.0641C30.6873 70.8901 31.425 72.0013 31.4111 72.927C31.3926 74.0058 30.7151 75.2006 30.1908 76.1193L31.4088 78.9312L23.7319 88.7355C23.7319 88.7355 21.7182 88.2042 21.4514 85.1627C21.1846 82.1212 21.5279 77.7921 21.5279 77.7921C21.5279 77.7921 19.4005 76.1959 18.9759 74.4489C18.5514 72.702 20.0385 70.1917 21.5279 69.0897C23.0174 67.9877 24.9105 66.2013 24.9105 66.2013Z" fill="#EF233C" stroke="#263238" stroke-linecap="round" stroke-linejoin="round"/>
<path d="M25.7836 56.7402C25.7836 56.7402 26.127 58.413 26.8856 58.5638C27.6443 58.7146 28.0271 58.4872 27.9505 59.2853C27.9191 59.7321 27.7754 60.1638 27.5329 60.5404C27.5329 60.5404 27.8739 62.5147 27.7649 63.3894C27.6559 64.264 27.0063 64.0738 26.2453 64.1874C25.8431 64.2524 25.4369 64.2904 25.0296 64.3011C25.0296 64.3011 25.1804 65.8973 25.4936 66.6954C25.8068 67.4934 26.1409 67.8368 25.7604 68.0247C25.3799 68.2126 23.4056 67.1895 22.4544 65.8973C21.5032 64.605 22.7955 63.3128 23.3662 62.2874C23.9369 61.2619 22.1505 60.1228 23.1759 58.6774C23.8353 57.7888 24.7425 57.1149 25.7836 56.7402Z" fill="white" stroke="#263238" stroke-linecap="round" stroke-linejoin="round"/>
<path d="M26.3501 59.0185C26.4174 59.2505 26.4058 59.4825 26.3246 59.4964C26.2434 59.5103 26.1228 59.341 26.0555 59.0974C25.9882 58.8538 25.9998 58.6334 26.081 58.6195C26.1622 58.6055 26.2829 58.7749 26.3501 59.0185Z" fill="#263238"/>
<path d="M25.1758 58.5266C25.1758 58.5266 25.2152 57.7656 25.8718 57.7656Z" fill="white"/>
<path d="M25.1758 58.5266C25.1758 58.5266 25.2152 57.7656 25.8718 57.7656" stroke="#263238" stroke-linecap="round" stroke-linejoin="round"/>
<path d="M98.3932 93.4566C97.9362 79.8428 80.8981 68.9041 59.9462 68.9041C38.7089 68.9041 21.4922 80.1491 21.4922 94.0227" fill="white"/>
<path d="M98.3932 93.4566C97.9362 79.8428 80.8981 68.9041 59.9462 68.9041C38.7089 68.9041 21.4922 80.1491 21.4922 94.0227" stroke="#263238" stroke-linecap="round" stroke-linejoin="round"/>
<path d="M40.5674 75.5486L35.3242 83.1489L41.63 84.404L46.495 76.3095L40.5674 75.5486Z" fill="white" stroke="#263238" stroke-linecap="round" stroke-linejoin="round"/>
<path d="M41.3255 76.2771L37.2539 82.7429" stroke="#263238" stroke-width="0.5" stroke-linecap="round" stroke-linejoin="round"/>
<path d="M42.1994 76.4348L38.0977 82.9099" stroke="#263238" stroke-width="0.5" stroke-linecap="round" stroke-linejoin="round"/>
<path d="M43.0761 76.595L38.9883 83.0794" stroke="#263238" stroke-width="0.5" stroke-linecap="round" stroke-linejoin="round"/>
<path d="M43.9522 76.7549L39.8574 83.1998" stroke="#263238" stroke-width="0.5" stroke-linecap="round" stroke-linejoin="round"/>
<path d="M44.8263 76.9126L40.7988 83.3692" stroke="#263238" stroke-width="0.5" stroke-linecap="round" stroke-linejoin="round"/>
<path d="M40.0254 76.6899L45.3312 77.5831" stroke="#263238" stroke-width="0.5" stroke-linecap="round" stroke-linejoin="round"/>
<path d="M39.6172 77.2444L44.9926 78.1608" stroke="#263238" stroke-width="0.5" stroke-linecap="round" stroke-linejoin="round"/>
<path d="M39.2559 77.7988L44.6568 78.7384" stroke="#263238" stroke-width="0.5" stroke-linecap="round" stroke-linejoin="round"/>
<path d="M38.9434 78.3535L44.349 79.3001" stroke="#263238" stroke-width="0.5" stroke-linecap="round" stroke-linejoin="round"/>
<path d="M38.5059 78.9565L43.9509 79.8567" stroke="#263238" stroke-width="0.5" stroke-linecap="round" stroke-linejoin="round"/>
<path d="M38.0723 79.4878L43.5521 80.4135" stroke="#263238" stroke-width="0.5" stroke-linecap="round" stroke-linejoin="round"/>
<path d="M37.7598 80.0168L43.1561 80.9704" stroke="#263238" stroke-width="0.5" stroke-linecap="round" stroke-linejoin="round"/>
<path d="M37.3984 80.5969L42.7576 81.5272" stroke="#263238" stroke-width="0.5" stroke-linecap="round" stroke-linejoin="round"/>
<path d="M36.9902 81.1746L42.361 82.084" stroke="#263238" stroke-width="0.5" stroke-linecap="round" stroke-linejoin="round"/>
<path d="M36.5547 81.7058L41.9626 82.6408" stroke="#263238" stroke-width="0.5" stroke-linecap="round" stroke-linejoin="round"/>
<path d="M36.1445 82.2834L41.5641 83.1975" stroke="#263238" stroke-width="0.5" stroke-linecap="round" stroke-linejoin="round"/>
<path d="M41.6289 84.404L45.4685 83.4157L51.0156 73.8782L46.4939 76.3095L41.6289 84.404Z" fill="#263238" stroke="#263238" stroke-linecap="round" stroke-linejoin="round"/>
<path d="M66.9154 81.1723L58.3917 81.5249L56.3594 72.9247L64.8831 72.572L66.9154 81.1723Z" fill="white" stroke="#263238" stroke-linecap="round" stroke-linejoin="round"/>
<path d="M71.2783 82.7892L62.7569 83.1418L60.7246 74.5416L69.246 74.189L71.2783 82.7892Z" fill="#EF233C" stroke="#263238" stroke-linecap="round" stroke-linejoin="round"/>
<path d="M85.2231 91.5217L73.5047 91.6029L72.3262 85.209L84.0445 85.1301L85.2231 91.5217Z" fill="white" stroke="#263238" stroke-linecap="round" stroke-linejoin="round"/>
<path d="M43.3019 92.155L31.166 91.8488L32.7645 85.7078L44.9004 86.014L43.3019 92.155Z" fill="#EF233C" stroke="#263238" stroke-linecap="round" stroke-linejoin="round"/>
<path d="M94.7923 71.456L91.1755 79.9564C89.3197 80.395 87.4427 80.7381 85.5518 80.9842C82.9302 81.2881 80.3457 81.3624 80.3457 81.3624L80.3828 82.9585C80.3828 82.9585 84.4869 83.4225 87.7929 83.4527C91.0989 83.4828 92.3911 84.4039 93.2658 83.5664C94.1404 82.7288 98.85 73.4976 99.4207 71.7877C99.9915 70.0779 98.5461 68.6348 97.6343 67.9875" fill="#EF233C"/>
<path d="M94.7923 71.456L91.1755 79.9564C89.3197 80.395 87.4427 80.7381 85.5518 80.9842C82.9302 81.2881 80.3457 81.3624 80.3457 81.3624L80.3828 82.9585C80.3828 82.9585 84.4869 83.4225 87.7929 83.4527C91.0989 83.4828 92.3911 84.4039 93.2658 83.5664C94.1404 82.7288 98.85 73.4976 99.4207 71.7877C99.9915 70.0779 98.5461 68.6348 97.6343 67.9875" stroke="#263238" stroke-linecap="round" stroke-linejoin="round"/>
<path d="M80.3532 81.3625C80.3532 81.3625 77.7687 80.1863 77.0843 79.8429C76.3999 79.4995 73.9314 80.6804 73.6275 80.7941C73.3236 80.9078 72.6392 81.3254 72.7528 81.5922C72.8665 81.859 73.8177 81.9727 73.8177 81.9727C73.8177 81.9727 72.9431 82.0863 73.1333 82.3508C73.3236 82.6153 76.2491 82.1606 76.5136 82.1606C76.778 82.1606 77.3882 82.845 78.1097 82.9981C78.8312 83.1512 80.3903 82.9587 80.3903 82.9587L80.3532 81.3625Z" fill="white" stroke="#263238" stroke-linecap="round" stroke-linejoin="round"/>
<path d="M37.2978 79.6919C37.4324 79.6015 37.7618 79.5388 38.4393 79.6919C39.1167 79.8451 40.2233 80.1559 40.1097 80.2998C39.996 80.4436 39.6921 80.4506 39.3116 80.4506C38.9311 80.4506 38.3998 80.49 38.3998 80.49C38.3998 80.49 36.5763 80.1861 37.2978 79.6919Z" fill="white" stroke="#263238" stroke-linecap="round" stroke-linejoin="round"/>
<path d="M19.401 73.3469C19.401 73.3469 19.8951 76.4998 20.8069 80.6039C21.7186 84.708 22.8578 86.5315 23.4656 86.7983C24.0734 87.0651 31.219 84.5548 32.7758 83.8333C34.3325 83.1118 35.4739 83.302 35.9681 83.302C36.4622 83.302 37.1466 82.1606 37.6408 81.9727C38.135 81.7848 40.3668 82.3137 40.5292 81.8961C40.6916 81.4785 39.4272 80.641 39.0467 80.3765C38.6662 80.112 37.8682 79.5019 37.2974 79.6921C36.7267 79.8824 35.2094 81.9332 34.7895 82.1606C34.3696 82.388 30.3444 82.6246 28.3306 82.5805C26.3169 82.5364 26.1266 82.504 26.1266 82.504C26.1266 82.504 24.607 76.008 24.607 74.7505C24.607 73.5905 24.2799 71.7972 23.0619 71.3076C22.2337 70.9782 20.8672 70.9179 20.1596 71.5605C19.9138 71.7876 19.7191 72.0642 19.5883 72.3722C19.4575 72.6802 19.3937 73.0124 19.401 73.3469Z" fill="white" stroke="#263238" stroke-linecap="round" stroke-linejoin="round"/>
<path d="M24.2266 85.7334C25.5954 85.0374 26.1266 82.504 26.1266 82.504C26.1266 82.504 24.607 76.008 24.607 74.7505C24.607 73.5905 24.2799 71.7972 23.0619 71.3076C22.2337 70.9782 20.8672 70.9179 20.1596 71.5605C19.9138 71.7876 19.7191 72.0642 19.5883 72.3722C19.4575 72.6802 19.3937 73.0124 19.401 73.3469C19.401 73.3469 19.8951 76.4998 20.8069 80.6039C21.4565 83.5317 22.2221 85.2949 22.8299 86.1719C23.3168 86.1051 23.7889 85.9569 24.2266 85.7334Z" fill="#EF233C" stroke="#263238" stroke-linecap="round" stroke-linejoin="round"/>
<path d="M40.5306 81.8961C40.5306 81.8961 38.25 81.0586 37.9067 81.0586C37.6868 81.0622 37.469 81.1014 37.2617 81.1746" fill="white"/>
<path d="M40.5306 81.8961C40.5306 81.8961 38.25 81.0586 37.9067 81.0586C37.6868 81.0622 37.469 81.1014 37.2617 81.1746" stroke="#263238" stroke-linecap="round" stroke-linejoin="round"/>
<path d="M37.3379 80.4507C37.6867 80.3462 38.0603 80.3601 38.4005 80.4902C38.8645 80.7222 40.2565 81.3254 40.2565 81.3254" fill="white"/>
<path d="M37.3379 80.4507C37.6867 80.3462 38.0603 80.3601 38.4005 80.4902C38.8645 80.7222 40.2565 81.3254 40.2565 81.3254" stroke="#263238" stroke-linecap="round" stroke-linejoin="round"/>
<path d="M35.398 71.6741C35.398 71.6741 34.7159 71.4421 34.1057 72.5487C33.4956 73.6553 33.4979 74.5996 34.3725 75.2074C35.2472 75.8153 37.602 76.386 38.1727 76.8036C38.7434 77.2212 39.2376 77.7919 39.5415 77.8685C39.8454 77.945 40.9845 78.1724 40.6806 76.6133C40.3767 75.0543 38.1286 73.421 36.9941 72.5093C35.8597 71.5975 35.398 71.6741 35.398 71.6741Z" fill="white" stroke="#263238" stroke-linecap="round" stroke-linejoin="round"/>
<path d="M39.0587 76.096C38.9396 76.4047 38.7729 76.6928 38.5645 76.9498C38.2699 77.2769 38.0077 77.4416 38.2699 77.9033C38.5289 78.3716 38.7613 78.8542 38.9659 79.3487C39.1306 79.7431 39.4067 79.2628 39.4717 78.7362C39.5366 78.2095 39.0912 77.4834 39.4276 77.4091C39.5273 77.3883 39.8197 76.8175 40.4461 77.1145C41.0725 77.4115 42.1211 78.4601 42.2185 77.6713C42.316 76.8825 41.6942 76.2259 40.9704 75.864C40.2465 75.5021 39.4206 75.4 39.0587 76.096Z" fill="white" stroke="#263238" stroke-linecap="round" stroke-linejoin="round"/>
<path d="M42.4766 76.6924C42.4766 76.6924 42.8037 76.6924 43.1331 77.3165C43.4626 77.9405 43.625 78.2677 43.3953 78.3674C43.1656 78.4672 43.1006 78.3674 42.9034 78.0055C42.7062 77.6436 42.5415 77.2817 42.5415 77.2817V76.8548L42.4766 76.6924Z" fill="white" stroke="#263238" stroke-linecap="round" stroke-linejoin="round"/>
<path d="M41.6875 76.1658C41.8763 76.2019 42.0532 76.2845 42.2023 76.406C42.3513 76.5275 42.4678 76.6841 42.5413 76.8618C42.7733 77.4534 42.9032 78.1772 42.706 78.4719C42.5088 78.7665 42.1144 78.6041 42.0494 78.0775C41.9845 77.5508 41.6875 76.1658 41.6875 76.1658Z" fill="white" stroke="#263238" stroke-linecap="round" stroke-linejoin="round"/>
<path d="M40.8652 75.7387C40.8652 75.7387 41.2248 75.6737 41.6865 76.1656C42.1482 76.6574 42.2456 78.3672 42.0809 78.4972C41.9162 78.6271 41.6169 78.6944 41.4568 78.2652C41.2968 77.836 40.8652 75.7387 40.8652 75.7387Z" fill="white" stroke="#263238" stroke-linecap="round" stroke-linejoin="round"/>
<path d="M39.6836 75.8038C39.6836 75.8038 40.3077 74.9176 40.7021 75.377C41.0965 75.8363 41.4909 78.2677 41.3586 78.4324C41.2264 78.5971 40.8343 78.6946 40.5698 78.1053C40.3603 77.5494 40.1959 76.9777 40.078 76.3954" fill="white"/>
<path d="M39.6836 75.8038C39.6836 75.8038 40.3077 74.9176 40.7021 75.377C41.0965 75.8363 41.4909 78.2677 41.3586 78.4324C41.2264 78.5971 40.8343 78.6946 40.5698 78.1053C40.3603 77.5494 40.1959 76.9777 40.078 76.3954" stroke="#263238" stroke-linecap="round" stroke-linejoin="round"/>
<path d="M25.4535 57.536C24.8433 58.0325 24.2076 58.4849 24.0359 59.3247C23.7691 60.617 25.0614 61.4893 24.2262 62.6679C23.391 63.8464 22.3261 64.1503 23.4652 65.3289C24.6043 66.5075 28.14 68.3681 27.5322 71.5604C26.9243 74.7527 24.6067 74.4488 24.0731 74.1124C23.5395 73.776 21.2241 72.2889 20.1987 72.8202C19.1732 73.3515 19.9319 75.3281 19.6279 75.9754C19.324 76.6227 16.2083 75.9754 15.1063 74.5695C14.0043 73.1635 13.0531 69.3239 14.2316 67.2336C15.4102 65.1433 17.2337 64.496 16.663 62.3268C16.0923 60.1576 15.4867 57.5383 17.0829 55.1348C18.6791 52.7313 21.7902 51.3764 24.2262 51.9425C25.3723 52.2093 26.6227 52.9494 26.9615 54.1511C27.2607 55.223 26.7596 56.2206 26.0335 56.9931C25.8522 57.1865 25.6584 57.3679 25.4535 57.536Z" fill="#263238" stroke="#263238" stroke-linecap="round" stroke-linejoin="round"/>
<path d="M26.036 55.5247C25.7932 56.0501 25.4062 56.4959 24.92 56.8099C23.4492 57.7565 22.5049 58.8075 22.9248 60.2783C23.3448 61.7492 23.4492 62.6935 21.5584 63.64C19.6676 64.5866 20.6118 67.7441 22.6093 68.5793C24.6068 69.4145 27.3375 71.4143 25.6555 73.2007" stroke="white" stroke-linecap="round" stroke-linejoin="round"/>
<path d="M26.3915 54.0793C26.3833 54.3275 26.3483 54.5741 26.2871 54.8148" stroke="white" stroke-linecap="round" stroke-linejoin="round"/>
<path d="M17.0703 73.312C17.1654 73.8131 17.3974 74.2075 17.5668 74.2632" stroke="white" stroke-linecap="round" stroke-linejoin="round"/>
<path d="M23.5547 57.8608C23.5547 57.8608 20.9285 58.9118 21.0352 60.0672C21.1419 61.2225 21.5595 62.0647 20.8241 62.9045C20.0886 63.7444 17.4624 64.5865 17.4624 66.2662C17.4624 67.9459 19.5504 68.8924 19.4576 70.1545C19.3648 71.4166 17.7779 70.9944 17.2513 71.9409C17.1904 72.0503 17.1421 72.1663 17.1074 72.2866" stroke="white" stroke-linecap="round" stroke-linejoin="round"/>
<path d="M89.0161 54.7637C89.0161 54.7637 88.2574 55.9423 88.2574 56.6638C88.2574 57.3853 88.4894 57.6893 88.3317 57.8029C88.1739 57.9166 86.0534 57.9189 86.3945 58.4873C86.6377 58.8547 86.9805 59.1452 87.3828 59.3249C87.3828 59.3249 87.2691 62.2875 87.3828 62.9348C87.4965 63.5821 87.6867 63.5426 88.218 63.3988C88.6053 63.2953 88.999 63.2178 89.3966 63.1668C89.3966 63.1668 89.8907 65.7513 90.5751 66.1294C91.2595 66.5076 93.0065 64.6098 93.1596 63.8883C93.3127 63.1668 92.9694 61.7609 93.1967 61.3363C93.4241 60.9117 94.4124 60.1949 94.2616 59.1694C94.1108 58.144 93.1967 57.8401 92.7791 57.383C92.3615 56.926 92.8534 55.94 92.4752 55.3693C92.097 54.7985 89.3966 54.5735 89.0161 54.7637Z" fill="white" stroke="#263238" stroke-linecap="round" stroke-linejoin="round"/>
<path d="M92.6641 61.1483C92.6641 61.1483 92.1305 61.9835 91.5992 61.907C91.068 61.8304 90.7246 61.1089 90.7246 61.1089" fill="white"/>
<path d="M92.6641 61.1483C92.6641 61.1483 92.1305 61.9835 91.5992 61.907C91.068 61.8304 90.7246 61.1089 90.7246 61.1089" stroke="#263238" stroke-linecap="round" stroke-linejoin="round"/>
<path d="M91.2579 61.7561C91.2579 61.7561 90.1559 62.5913 89.2812 62.821Z" fill="white"/>
<path d="M91.2579 61.7561C91.2579 61.7561 90.1559 62.5913 89.2812 62.821" stroke="#263238" stroke-linecap="round" stroke-linejoin="round"/>
<path d="M87.3815 59.3248C87.3815 59.3248 88.9382 61.1089 88.4069 61.4894C87.8757 61.8699 86.9245 60.921 86.9245 60.1971C86.9245 59.4733 86.8873 59.2111 87.3815 59.3248Z" fill="#263238" stroke="#263238" stroke-linecap="round" stroke-linejoin="round"/>
<path d="M88.9798 58C88.9659 58.2529 88.8777 58.4524 88.778 58.4478C88.6782 58.4431 88.6109 58.2343 88.6249 57.9838C88.6388 57.7332 88.7269 57.5198 88.8244 57.536C88.9218 57.5523 88.9914 57.7471 88.9798 58Z" fill="#263238"/>
<path d="M88.5742 56.9258C88.5742 56.9258 89.2331 56.7727 89.3862 57.8909" stroke="#263238" stroke-linecap="round" stroke-linejoin="round"/>
<path d="M91.5998 55.5246C91.5998 55.5246 87.6558 55.3344 87.1547 54.005C86.6536 52.6757 90.3842 50.5088 94.4488 51.3069C98.5134 52.1049 98.8313 57.8794 97.3001 59.0951C95.7689 60.3108 93.6507 61.5659 93.0823 61.6471C92.5139 61.7283 92.5116 61.4151 92.6647 61.1529C92.8178 60.8908 93.841 58.9861 93.1589 58.9095C92.4768 58.8329 91.1428 59.6055 90.992 59.6055C90.8412 59.6055 90.651 59.3735 90.8018 59.0371C90.9526 58.7007 91.5233 58.4664 90.9154 57.8957C90.3076 57.3249 89.8529 57.137 90.1568 56.7171C90.4607 56.2972 91.5998 55.5246 91.5998 55.5246Z" fill="#263238" stroke="#263238" stroke-linecap="round" stroke-linejoin="round"/>
<path d="M88.1738 53.9724C88.1738 53.9724 88.4894 54.0791 90.3802 54.4991C92.271 54.919 97.419 55.0234 97.6302 57.7471" stroke="white" stroke-linecap="round" stroke-linejoin="round"/>
<path d="M96.1618 58.8376C96.1899 59.0753 96.1521 59.316 96.0527 59.5336" stroke="white" stroke-linecap="round" stroke-linejoin="round"/>
<path d="M90.7988 56.4944C91.8696 57.0987 93.0461 57.4924 94.2649 57.6544C94.7649 57.6829 95.2498 57.836 95.6755 58.0998" stroke="white" stroke-linecap="round" stroke-linejoin="round"/>
<path d="M92.166 58.072C92.166 58.072 95.9476 59.0163 95.1078 60.1716" stroke="white" stroke-linecap="round" stroke-linejoin="round"/>
<path d="M86.3567 63.9973C86.3567 63.9973 85.141 64.4915 84.7211 65.5564C84.3011 66.6212 79.9349 71.5605 79.2876 72.7762C78.6403 73.9919 78.4895 74.7134 79.2876 75.1704C80.0857 75.6275 80.6935 75.3607 81.7584 74.6368C82.8233 73.913 84.5981 70.9643 84.5981 70.9643L86.3567 63.9973Z" fill="#EF233C" stroke="#263238" stroke-linecap="round" stroke-linejoin="round"/>
<path d="M80.0865 72.0918C80.0865 72.0918 78.9079 72.9664 78.4903 74.2958C78.0727 75.6252 76.4766 79.3441 76.4766 79.3441L77.9219 80.4461C77.9219 80.4461 81.1514 75.3932 81.3787 74.6322C81.6061 73.8712 81.4158 73.4931 81.4158 73.4931" fill="#EF233C"/>
<path d="M80.0865 72.0918C80.0865 72.0918 78.9079 72.9664 78.4903 74.2958C78.0727 75.6252 76.4766 79.3441 76.4766 79.3441L77.9219 80.4461C77.9219 80.4461 81.1514 75.3932 81.3787 74.6322C81.6061 73.8712 81.4158 73.4931 81.4158 73.4931" stroke="#263238" stroke-linecap="round" stroke-linejoin="round"/>
<path d="M76.9321 79.1121C77.0714 79.0706 77.218 79.0593 77.362 79.0789C77.506 79.0985 77.6442 79.1486 77.7673 79.2258C78.1478 79.4926 79.0596 80.7454 78.7556 80.8614C78.4517 80.9774 78.0341 80.8219 77.7302 80.4809C77.4263 80.1399 77.0829 79.9102 76.9321 79.9102H76.5586L76.9321 79.1121Z" fill="white" stroke="#263238" stroke-linecap="round" stroke-linejoin="round"/>
<path d="M74.0444 80.1467C73.698 80.329 73.3887 80.5745 73.1326 80.8706C72.8658 81.2487 72.5619 82.541 72.715 82.6546C72.8681 82.7683 73.0561 82.3902 73.3229 81.7058C73.5897 81.0214 74.0444 80.1467 74.0444 80.1467Z" fill="white" stroke="#263238" stroke-linecap="round" stroke-linejoin="round"/>
<path d="M76.9335 79.112C77.0727 79.2094 76.2096 80.7847 75.8686 81.432C75.5275 82.0793 74.0126 82.8008 73.6275 82.8379C73.2423 82.875 73.1333 80.787 74.2353 79.8753C75.3373 78.9635 76.5599 78.8545 76.9335 79.112Z" fill="white" stroke="#263238" stroke-linecap="round" stroke-linejoin="round"/>
<path d="M74.1953 82.6175C74.1953 82.6175 73.8171 82.1535 74.1581 81.1744C74.3565 80.6034 74.5889 80.0449 74.8541 79.5017" stroke="#263238" stroke-linecap="round" stroke-linejoin="round"/>
<path d="M74.8795 82.2C74.8795 82.2 74.7659 81.736 75.0327 80.8312C75.2164 80.233 75.4711 79.659 75.7913 79.1213" stroke="#263238" stroke-linecap="round" stroke-linejoin="round"/>
</svg>
