<svg width="116" height="116" viewBox="0 0 116 116" fill="none" xmlns="http://www.w3.org/2000/svg">
<path d="M98.3407 66.0758C103.844 57.4593 106.275 44.6297 101.125 35.2848C96.3548 26.666 86.0726 22.5039 76.6 22.2719C68.4058 22.0724 61.9005 24.4968 55.5066 29.2574C52.2098 31.7143 48.8783 34.3429 44.9088 35.7743C41.8093 36.8925 38.6216 37.6628 35.4246 38.5165C23.8641 41.6091 16.7394 52.0978 18.2914 63.3753C19.4886 72.0429 26.2166 80.1049 34.8006 83.325C41.4566 85.8213 48.4514 83.9769 54.8825 81.7961C58.3486 80.6199 61.8425 79.4042 65.5011 78.8567C69.0391 78.3254 72.4611 78.9889 75.9643 78.6061C84.597 77.6642 93.4966 73.6692 98.3407 66.0758Z" fill="#EF233C"/>
<path opacity="0.7" d="M98.3407 66.0758C103.844 57.4593 106.275 44.6297 101.125 35.2848C96.3548 26.666 86.0726 22.5039 76.6 22.2719C68.4058 22.0724 61.9005 24.4968 55.5066 29.2574C52.2098 31.7143 48.8783 34.3429 44.9088 35.7743C41.8093 36.8925 38.6216 37.6628 35.4246 38.5165C23.8641 41.6091 16.7394 52.0978 18.2914 63.3753C19.4886 72.0429 26.2166 80.1049 34.8006 83.325C41.4566 85.8213 48.4514 83.9769 54.8825 81.7961C58.3486 80.6199 61.8425 79.4042 65.5011 78.8567C69.0391 78.3254 72.4611 78.9889 75.9643 78.6061C84.597 77.6642 93.4966 73.6692 98.3407 66.0758Z" fill="white"/>
<path d="M101.072 70.2937H100.09H55.6669H54.6855V72.2611H55.6669V92.2571H100.09V72.2611H101.072V70.2937Z" fill="#EF233C"/>
<path opacity="0.5" d="M101.072 70.2937H100.09H55.6669H54.6855V72.2611H55.6669V92.2571H100.09V72.2611H101.072V70.2937Z" fill="white"/>
<path d="M56.8574 80.736H68.9725V74.2678H56.8574V80.736ZM57.1033 74.5068H68.7265V80.504H57.1033V74.5068Z" fill="white"/>
<path d="M71.9023 80.736H84.0197V74.2678H71.9023V80.736ZM72.1529 74.5137H83.7784V80.504H72.1529V74.5137Z" fill="white"/>
<path d="M86.9492 74.2678V80.736H99.0643V74.2678H86.9492ZM98.8183 80.504H87.1951V74.5137H98.8183V80.504Z" fill="white"/>
<path d="M56.8574 89.4314H68.9725V82.9563H56.8574V89.4314ZM57.1033 83.2022H68.7265V89.1855H57.1033V83.2022Z" fill="white"/>
<path d="M71.9023 89.4314H84.0197V82.9563H71.9023V89.4314ZM72.1529 83.2022H83.7784V89.1855H72.1529V83.2022Z" fill="white"/>
<path d="M86.9492 89.4314H99.0643V82.9563H86.9492V89.4314ZM87.1951 83.2022H98.8183V89.1855H87.1951V83.2022Z" fill="white"/>
<path d="M63.0435 78.3256C64.1301 78.3256 65.0109 77.9953 65.0109 77.5879C65.0109 77.1804 64.1301 76.8501 63.0435 76.8501C61.957 76.8501 61.0762 77.1804 61.0762 77.5879C61.0762 77.9953 61.957 78.3256 63.0435 78.3256Z" fill="white"/>
<path d="M78.0181 78.3256C79.1047 78.3256 79.9855 77.9953 79.9855 77.5879C79.9855 77.1804 79.1047 76.8501 78.0181 76.8501C76.9316 76.8501 76.0508 77.1804 76.0508 77.5879C76.0508 77.9953 76.9316 78.3256 78.0181 78.3256Z" fill="white"/>
<path d="M93.4244 78.3256C94.5109 78.3256 95.3918 77.9953 95.3918 77.5879C95.3918 77.1804 94.5109 76.8501 93.4244 76.8501C92.3379 76.8501 91.457 77.1804 91.457 77.5879C91.457 77.9953 92.3379 78.3256 93.4244 78.3256Z" fill="white"/>
<path d="M63.0435 85.5383C61.9578 85.5383 61.0762 85.8678 61.0762 86.2761C61.0762 86.6844 61.9578 87.0115 63.0435 87.0115C64.1293 87.0115 65.0109 86.6821 65.0109 86.2761C65.0109 85.8701 64.1293 85.5383 63.0435 85.5383Z" fill="white"/>
<path d="M78.0181 85.5383C76.9324 85.5383 76.0508 85.8678 76.0508 86.2761C76.0508 86.6844 76.9324 87.0115 78.0181 87.0115C79.1039 87.0115 79.9855 86.6821 79.9855 86.2761C79.9855 85.8701 79.1132 85.5383 78.0181 85.5383Z" fill="white"/>
<path d="M93.424 85.5383C92.3383 85.5383 91.459 85.8678 91.459 86.2761C91.459 86.6844 92.3383 87.0115 93.424 87.0115C94.5098 87.0115 95.3914 86.6821 95.3914 86.2761C95.3914 85.8701 94.5121 85.5383 93.424 85.5383Z" fill="white"/>
<path d="M49.226 68.5745C48.3305 69.9038 47.0823 71.6322 46.4165 73.0196C46.6694 72.1055 46.9176 71.2402 47.1427 70.4676C47.4837 69.7971 48.3978 68.1058 49.4627 66.9876C50.8013 65.5538 51.3743 64.6328 50.6528 64.5539C50.154 64.4982 48.6924 66.4447 47.776 68.3773C47.9755 67.7161 48.1333 67.2173 48.24 66.918C48.2841 66.7834 48.3259 66.6373 48.3676 66.4818C49.3155 65.1557 50.1788 63.771 50.9521 62.336C52.3047 59.8095 52.7408 57.4246 51.8383 58.45C51.0078 59.3942 49.5624 64.0899 48.414 66.2986C48.5115 65.9181 48.6043 65.4982 48.6855 65.0829C48.8479 64.6815 49.0613 64.2732 49.1819 63.902C49.3699 63.3313 49.5346 62.7559 49.6668 62.169C49.8849 61.257 49.9955 60.3226 49.9963 59.385C50.0195 58.2836 49.7195 57.1995 49.1332 56.2669C48.9778 56.0349 48.0266 54.6127 47.7412 55.3389C47.704 55.4598 47.6969 55.588 47.7203 55.7124C47.8595 56.9211 48.298 58.0324 48.5695 59.2086C48.9755 60.9695 48.7063 63.9252 48.5695 65.1826C48.5184 65.3822 48.4535 65.6281 48.3769 65.9134C48.5648 63.7234 47.6159 61.1273 46.7367 60.6726C45.6486 60.1111 46.7158 62.3151 47.5556 64.2407C47.9535 65.0834 48.1406 66.0102 48.1008 66.9412C47.9291 67.5722 47.7319 68.2845 47.5278 69.0037C47.486 69.1011 47.4489 69.2009 47.4118 69.2983C47.5062 68.8289 47.5443 68.3499 47.5255 67.8715C47.4466 66.6141 46.0221 64.0969 45.0755 64.4518C44.129 64.8068 45.7321 66.1338 46.5882 67.679C47.0373 68.5334 47.21 69.5062 47.0823 70.463C47.0823 70.521 47.0638 70.5766 47.0568 70.63C46.9571 70.9594 46.8596 71.275 46.7668 71.5766C46.5348 72.2726 46.3376 72.9407 46.1404 73.5857C46.3827 72.6499 46.489 71.6842 46.4559 70.7182C46.3376 68.8761 45.2588 67.1361 44.3679 66.8971C43.4771 66.6582 45.1776 69.6649 45.7483 71.3538C46.0587 72.3403 46.1114 73.3897 45.9015 74.4023C45.6254 75.3164 45.3655 76.2189 45.0987 77.1724C45.1733 75.9233 45.1461 74.6703 45.0175 73.4256C44.8435 71.3747 43.6255 70.0662 42.7857 70.1196C41.9459 70.173 42.8228 71.3376 44.0339 73.8316C44.6733 75.1411 44.9581 76.5954 44.8598 78.0494C44.7507 78.4507 44.6278 78.8637 44.5257 79.2952C44.3958 79.787 44.2937 80.323 44.2009 80.8705C44.0803 80.381 43.8993 79.6664 43.6882 78.8776C43.4423 78.0056 43.2639 77.1159 43.1546 76.2166C43.0409 75.1702 42.7648 73.8641 41.7394 73.3212C41.6697 73.2727 41.5902 73.2399 41.5065 73.2254C41.4229 73.2108 41.337 73.2147 41.255 73.2368C41.173 73.2589 41.0968 73.2987 41.0318 73.3533C40.9668 73.408 40.9145 73.4762 40.8787 73.5532C40.7846 73.7777 40.7635 74.026 40.8183 74.2631C40.9545 74.9749 41.1887 75.6643 41.5143 76.3117C41.3129 76.6979 41.2214 77.1321 41.2499 77.5668C41.2499 77.7292 41.2638 77.8916 41.2754 78.054C41.1849 77.887 41.0991 77.7338 41.0179 77.59C40.8704 77.344 40.6893 77.1199 40.4796 76.9242C40.5322 76.5397 40.5585 76.1522 40.5585 75.7642C40.5585 75.2561 39.9623 73.9592 39.424 74.9197C39.2083 75.3048 39.25 76.0588 39.2291 76.5599C39.083 76.6991 39.0389 76.9822 39.1619 77.4276C39.0783 78.5876 39.0621 79.7754 39.3428 80.9076L39.1572 80.5851C38.8957 79.243 38.7406 77.8824 38.6932 76.5158C38.6259 74.2585 38.9855 72.4071 38.3707 71.7111C37.7559 71.0151 37.4126 73.4627 37.6747 76.1307C37.7982 77.3481 38.1228 78.5366 38.6352 79.6478C38.032 78.5644 37.4358 77.4601 36.872 76.3998C36.64 75.8314 36.0647 74.2933 36.2062 72.7342C36.3848 70.7692 36.5147 69.1591 35.7677 68.0525C35.0207 66.9458 34.8652 67.665 35.2318 69.9711C35.4823 71.5534 35.7491 73.6692 36.2085 75.1378C35.7723 74.2956 35.3617 73.4952 34.9951 72.7714C34.7863 72.0475 34.2991 70.1892 34.2991 68.6464C34.2991 66.6837 34.0903 65.6304 33.5103 66.055C33.1067 66.3542 33.3665 68.7763 34.0161 70.8133C33.7122 70.1938 33.4825 69.7182 33.3503 69.4375C33.2899 69.3099 33.2227 69.173 33.1461 69.0315C32.9338 67.4157 32.62 65.8148 32.2065 64.2384C31.4711 61.4683 30.1603 59.4267 30.202 60.7932C30.2391 62.0506 32.3875 66.4679 33.0579 68.8668C32.8677 68.5211 32.6473 68.1522 32.4246 67.7926C32.2691 67.3866 32.1462 66.9435 31.9815 66.5909C31.7286 66.0457 31.4571 65.5121 31.1532 64.9924C30.6891 64.1752 30.1308 63.4153 29.4898 62.7281C28.7472 61.8825 27.7688 61.2782 26.6803 60.9927C26.4065 60.9278 24.7454 60.5287 25.0284 61.2711C25.0813 61.3844 25.161 61.4831 25.2604 61.5588C26.1884 62.3476 27.2649 62.8603 28.2764 63.5354C29.7751 64.547 31.5963 66.8902 32.348 67.9086L32.7053 68.5745C31.3481 66.8438 28.8819 65.5956 27.9307 65.8647C26.7522 66.1965 29.0351 67.0781 30.963 67.911C31.8292 68.2552 32.5985 68.8055 33.2041 69.5141C33.5103 70.0941 33.8514 70.746 34.1924 71.4118C34.2319 71.5116 34.269 71.609 34.3084 71.7065C34.0577 71.299 33.7594 70.9229 33.4199 70.5859C32.5035 69.7229 29.7427 68.8529 29.2949 69.7577C28.8471 70.6625 30.9189 70.5418 32.6032 71.0847C33.5104 71.403 34.2971 71.9937 34.8559 72.776C34.8884 72.8224 34.9186 72.8711 34.9511 72.9152C35.1042 73.2214 35.248 73.5207 35.3849 73.8038C35.7004 74.4696 36.002 75.0937 36.2967 75.6992C35.8368 74.8469 35.2562 74.0655 34.5729 73.3792C33.2273 72.1125 31.2507 71.5789 30.4317 72.0197C29.6127 72.4605 32.9118 73.4882 34.4824 74.3397C35.3827 74.8492 36.1375 75.5808 36.6748 76.4648C37.0971 77.3209 37.5216 78.1584 37.9787 79.0377C37.1807 78.0741 36.3063 77.1765 35.364 76.3534C33.8351 74.973 32.0511 74.8478 31.4734 75.4602C30.8957 76.0727 32.3318 76.3256 34.9163 77.3162C36.2763 77.8367 37.4762 78.7046 38.3963 79.8334C38.5911 80.2023 38.7907 80.5805 39.0041 80.9749C39.2361 81.4203 39.5307 81.8843 39.8416 82.346C39.4194 82.0722 38.7976 81.6732 38.1063 81.2417C37.3304 80.7721 36.5927 80.2423 35.8999 79.6571C35.1019 78.9727 34.0091 78.2048 32.8839 78.5087C32.8002 78.5209 32.7201 78.5514 32.6494 78.598C32.5788 78.6446 32.5192 78.7061 32.4749 78.7783C32.4306 78.8504 32.4028 78.9314 32.3933 79.0155C32.3838 79.0997 32.3929 79.1848 32.4199 79.265C32.5019 79.4945 32.6557 79.6914 32.8584 79.8265C33.9163 80.6454 35.3385 81.0398 36.5704 81.5247C37.6994 81.9689 38.8565 82.3378 40.0342 82.629C40.3265 83.049 40.6304 83.4642 40.9367 83.8586L40.3845 83.8749C39.7303 83.8958 36.7792 82.5571 35.2805 82.1279C33.7818 81.6987 32.3805 82.5107 33.9511 83.3552C35.5218 84.1997 39.7929 84.0118 39.7929 84.0118L41.0248 83.9746C41.3148 84.3458 41.5979 84.6985 41.867 85.021H36.0136V86.645H37.1736L38.1016 92.4194H45.8806L46.8202 86.645H47.9802V85.021H44.1035C44.0721 84.3191 44.0907 83.6159 44.1591 82.9167C44.4178 82.6537 44.7049 82.4203 45.0152 82.2207C46.7181 81.0445 49.6042 80.947 50.3721 78.6804C50.5577 78.1352 50.3466 77.4346 49.6947 77.4647C49.2307 77.4856 48.7272 77.8986 48.4349 78.235C47.4605 79.3602 46.7274 80.5271 45.4607 81.3809C45.0255 81.7154 44.6073 82.0716 44.2079 82.4481C44.2519 82.0792 44.3076 81.6848 44.3795 81.2626C44.6856 80.7197 45.0348 80.2022 45.4235 79.7151C46.4606 78.4275 48.0382 77.6735 49.1587 76.4462C49.5021 76.0704 49.9545 74.7202 48.9059 75.0542C48.4419 75.2027 47.8897 75.9103 47.5139 76.2328C46.4815 77.1608 45.4259 78.1491 44.7531 79.3694C44.7809 79.2488 44.8111 79.1374 44.8389 79.0075C45.5627 77.847 46.3781 76.7461 47.2772 75.7154C48.7667 74.0218 50.2932 72.9129 50.3187 71.9849C50.3443 71.0569 48.4233 72.6113 46.7923 74.7364C46.0525 75.7113 45.4787 76.8017 45.0941 77.9635C45.3934 76.7618 45.7112 75.5461 46.0221 74.3814C46.2355 73.8014 46.8689 72.2934 48.0359 71.2471C49.5091 69.9317 50.7015 68.8459 50.9127 67.5351C51.1238 66.2243 50.5322 66.6396 49.226 68.5745ZM40.9877 83.4967C40.7673 83.1974 40.5376 82.8726 40.2917 82.513C40.1452 81.9031 40.0475 81.2825 39.9994 80.657C39.9697 80.1246 39.9945 79.5906 40.0736 79.0632C40.4696 79.5535 40.89 80.0235 41.3334 80.4714C41.3228 80.9353 41.2661 81.3969 41.164 81.8495C41.0771 82.3952 41.0183 82.945 40.9877 83.4967ZM42.2498 85.0256C41.9505 84.7078 41.6234 84.3296 41.2684 83.8656C41.2773 83.4976 41.3279 83.1318 41.4192 82.7752C41.5609 82.213 41.7648 81.6683 42.0271 81.1512C42.5769 81.6732 42.9806 82.0189 42.9806 82.0189L43.9086 82.8332C43.8367 83.6429 43.7949 84.4038 43.7694 85.021L42.2498 85.0256ZM43.9202 82.6917L43.5049 82.3274C43.2729 82.1186 42.8553 81.3113 42.4006 80.381C42.5945 79.9895 42.7665 79.5875 42.9156 79.1769C43.4075 80.0886 43.8436 80.8009 44.1011 81.179C44.0269 81.6825 43.9689 82.1952 43.9202 82.6917Z" fill="#EF233C"/>
<path opacity="0.5" d="M49.226 68.5745C48.3305 69.9038 47.0823 71.6322 46.4165 73.0196C46.6694 72.1055 46.9176 71.2402 47.1427 70.4676C47.4837 69.7971 48.3978 68.1058 49.4627 66.9876C50.8013 65.5538 51.3743 64.6328 50.6528 64.5539C50.154 64.4982 48.6924 66.4447 47.776 68.3773C47.9755 67.7161 48.1333 67.2173 48.24 66.918C48.2841 66.7834 48.3259 66.6373 48.3676 66.4818C49.3155 65.1557 50.1788 63.771 50.9521 62.336C52.3047 59.8095 52.7408 57.4246 51.8383 58.45C51.0078 59.3942 49.5624 64.0899 48.414 66.2986C48.5115 65.9181 48.6043 65.4982 48.6855 65.0829C48.8479 64.6815 49.0613 64.2732 49.1819 63.902C49.3699 63.3313 49.5346 62.7559 49.6668 62.169C49.8849 61.257 49.9955 60.3226 49.9963 59.385C50.0195 58.2836 49.7195 57.1995 49.1332 56.2669C48.9778 56.0349 48.0266 54.6127 47.7412 55.3389C47.704 55.4598 47.6969 55.588 47.7203 55.7124C47.8595 56.9211 48.298 58.0324 48.5695 59.2086C48.9755 60.9695 48.7063 63.9252 48.5695 65.1826C48.5184 65.3822 48.4535 65.6281 48.3769 65.9134C48.5648 63.7234 47.6159 61.1273 46.7367 60.6726C45.6486 60.1111 46.7158 62.3151 47.5556 64.2407C47.9535 65.0834 48.1406 66.0102 48.1008 66.9412C47.9291 67.5722 47.7319 68.2845 47.5278 69.0037C47.486 69.1011 47.4489 69.2009 47.4118 69.2983C47.5062 68.8289 47.5443 68.3499 47.5255 67.8715C47.4466 66.6141 46.0221 64.0969 45.0755 64.4518C44.129 64.8068 45.7321 66.1338 46.5882 67.679C47.0373 68.5334 47.21 69.5062 47.0823 70.463C47.0823 70.521 47.0638 70.5766 47.0568 70.63C46.9571 70.9594 46.8596 71.275 46.7668 71.5766C46.5348 72.2726 46.3376 72.9407 46.1404 73.5857C46.3827 72.6499 46.489 71.6842 46.4559 70.7182C46.3376 68.8761 45.2588 67.1361 44.3679 66.8971C43.4771 66.6582 45.1776 69.6649 45.7483 71.3538C46.0587 72.3403 46.1114 73.3897 45.9015 74.4023C45.6254 75.3164 45.3655 76.2189 45.0987 77.1724C45.1733 75.9233 45.1461 74.6703 45.0175 73.4256C44.8435 71.3747 43.6255 70.0662 42.7857 70.1196C41.9459 70.173 42.8228 71.3376 44.0339 73.8316C44.6733 75.1411 44.9581 76.5954 44.8598 78.0494C44.7507 78.4507 44.6278 78.8637 44.5257 79.2952C44.3958 79.787 44.2937 80.323 44.2009 80.8705C44.0803 80.381 43.8993 79.6664 43.6882 78.8776C43.4423 78.0056 43.2639 77.1159 43.1546 76.2166C43.0409 75.1702 42.7648 73.8641 41.7394 73.3212C41.6697 73.2727 41.5902 73.2399 41.5065 73.2254C41.4229 73.2108 41.337 73.2147 41.255 73.2368C41.173 73.2589 41.0968 73.2987 41.0318 73.3533C40.9668 73.408 40.9145 73.4762 40.8787 73.5532C40.7846 73.7777 40.7635 74.026 40.8183 74.2631C40.9545 74.9749 41.1887 75.6643 41.5143 76.3117C41.3129 76.6979 41.2214 77.1321 41.2499 77.5668C41.2499 77.7292 41.2638 77.8916 41.2754 78.054C41.1849 77.887 41.0991 77.7338 41.0179 77.59C40.8704 77.344 40.6893 77.1199 40.4796 76.9242C40.5322 76.5397 40.5585 76.1522 40.5585 75.7642C40.5585 75.2561 39.9623 73.9592 39.424 74.9197C39.2083 75.3048 39.25 76.0588 39.2291 76.5599C39.083 76.6991 39.0389 76.9822 39.1619 77.4276C39.0783 78.5876 39.0621 79.7754 39.3428 80.9076L39.1572 80.5851C38.8957 79.243 38.7406 77.8824 38.6932 76.5158C38.6259 74.2585 38.9855 72.4071 38.3707 71.7111C37.7559 71.0151 37.4126 73.4627 37.6747 76.1307C37.7982 77.3481 38.1228 78.5366 38.6352 79.6478C38.032 78.5644 37.4358 77.4601 36.872 76.3998C36.64 75.8314 36.0647 74.2933 36.2062 72.7342C36.3848 70.7692 36.5147 69.1591 35.7677 68.0525C35.0207 66.9458 34.8652 67.665 35.2318 69.9711C35.4823 71.5534 35.7491 73.6692 36.2085 75.1378C35.7723 74.2956 35.3617 73.4952 34.9951 72.7714C34.7863 72.0475 34.2991 70.1892 34.2991 68.6464C34.2991 66.6837 34.0903 65.6304 33.5103 66.055C33.1067 66.3542 33.3665 68.7763 34.0161 70.8133C33.7122 70.1938 33.4825 69.7182 33.3503 69.4375C33.2899 69.3099 33.2227 69.173 33.1461 69.0315C32.9338 67.4157 32.62 65.8148 32.2065 64.2384C31.4711 61.4683 30.1603 59.4267 30.202 60.7932C30.2391 62.0506 32.3875 66.4679 33.0579 68.8668C32.8677 68.5211 32.6473 68.1522 32.4246 67.7926C32.2691 67.3866 32.1462 66.9435 31.9815 66.5909C31.7286 66.0457 31.4571 65.5121 31.1532 64.9924C30.6891 64.1752 30.1308 63.4153 29.4898 62.7281C28.7472 61.8825 27.7688 61.2782 26.6803 60.9927C26.4065 60.9278 24.7454 60.5287 25.0284 61.2711C25.0813 61.3844 25.161 61.4831 25.2604 61.5588C26.1884 62.3476 27.2649 62.8603 28.2764 63.5354C29.7751 64.547 31.5963 66.8902 32.348 67.9086L32.7053 68.5745C31.3481 66.8438 28.8819 65.5956 27.9307 65.8647C26.7522 66.1965 29.0351 67.0781 30.963 67.911C31.8292 68.2552 32.5985 68.8055 33.2041 69.5141C33.5103 70.0941 33.8514 70.746 34.1924 71.4118C34.2319 71.5116 34.269 71.609 34.3084 71.7065C34.0577 71.299 33.7594 70.9229 33.4199 70.5859C32.5035 69.7229 29.7427 68.8529 29.2949 69.7577C28.8471 70.6625 30.9189 70.5418 32.6032 71.0847C33.5104 71.403 34.2971 71.9937 34.8559 72.776C34.8884 72.8224 34.9186 72.8711 34.9511 72.9152C35.1042 73.2214 35.248 73.5207 35.3849 73.8038C35.7004 74.4696 36.002 75.0937 36.2967 75.6992C35.8368 74.8469 35.2562 74.0655 34.5729 73.3792C33.2273 72.1125 31.2507 71.5789 30.4317 72.0197C29.6127 72.4605 32.9118 73.4882 34.4824 74.3397C35.3827 74.8492 36.1375 75.5808 36.6748 76.4648C37.0971 77.3209 37.5216 78.1584 37.9787 79.0377C37.1807 78.0741 36.3063 77.1765 35.364 76.3534C33.8351 74.973 32.0511 74.8478 31.4734 75.4602C30.8957 76.0727 32.3318 76.3256 34.9163 77.3162C36.2763 77.8367 37.4762 78.7046 38.3963 79.8334C38.5911 80.2023 38.7907 80.5805 39.0041 80.9749C39.2361 81.4203 39.5307 81.8843 39.8416 82.346C39.4194 82.0722 38.7976 81.6732 38.1063 81.2417C37.3304 80.7721 36.5927 80.2423 35.8999 79.6571C35.1019 78.9727 34.0091 78.2048 32.8839 78.5087C32.8002 78.5209 32.7201 78.5514 32.6494 78.598C32.5788 78.6446 32.5192 78.7061 32.4749 78.7783C32.4306 78.8504 32.4028 78.9314 32.3933 79.0155C32.3838 79.0997 32.3929 79.1848 32.4199 79.265C32.5019 79.4945 32.6557 79.6914 32.8584 79.8265C33.9163 80.6454 35.3385 81.0398 36.5704 81.5247C37.6994 81.9689 38.8565 82.3378 40.0342 82.629C40.3265 83.049 40.6304 83.4642 40.9367 83.8586L40.3845 83.8749C39.7303 83.8958 36.7792 82.5571 35.2805 82.1279C33.7818 81.6987 32.3805 82.5107 33.9511 83.3552C35.5218 84.1997 39.7929 84.0118 39.7929 84.0118L41.0248 83.9746C41.3148 84.3458 41.5979 84.6985 41.867 85.021H36.0136V86.645H37.1736L38.1016 92.4194H45.8806L46.8202 86.645H47.9802V85.021H44.1035C44.0721 84.3191 44.0907 83.6159 44.1591 82.9167C44.4178 82.6537 44.7049 82.4203 45.0152 82.2207C46.7181 81.0445 49.6042 80.947 50.3721 78.6804C50.5577 78.1352 50.3466 77.4346 49.6947 77.4647C49.2307 77.4856 48.7272 77.8986 48.4349 78.235C47.4605 79.3602 46.7274 80.5271 45.4607 81.3809C45.0255 81.7154 44.6073 82.0716 44.2079 82.4481C44.2519 82.0792 44.3076 81.6848 44.3795 81.2626C44.6856 80.7197 45.0348 80.2022 45.4235 79.7151C46.4606 78.4275 48.0382 77.6735 49.1587 76.4462C49.5021 76.0704 49.9545 74.7202 48.9059 75.0542C48.4419 75.2027 47.8897 75.9103 47.5139 76.2328C46.4815 77.1608 45.4259 78.1491 44.7531 79.3694C44.7809 79.2488 44.8111 79.1374 44.8389 79.0075C45.5627 77.847 46.3781 76.7461 47.2772 75.7154C48.7667 74.0218 50.2932 72.9129 50.3187 71.9849C50.3443 71.0569 48.4233 72.6113 46.7923 74.7364C46.0525 75.7113 45.4787 76.8017 45.0941 77.9635C45.3934 76.7618 45.7112 75.5461 46.0221 74.3814C46.2355 73.8014 46.8689 72.2934 48.0359 71.2471C49.5091 69.9317 50.7015 68.8459 50.9127 67.5351C51.1238 66.2243 50.5322 66.6396 49.226 68.5745ZM40.9877 83.4967C40.7673 83.1974 40.5376 82.8726 40.2917 82.513C40.1452 81.9031 40.0475 81.2825 39.9994 80.657C39.9697 80.1246 39.9945 79.5906 40.0736 79.0632C40.4696 79.5535 40.89 80.0235 41.3334 80.4714C41.3228 80.9353 41.2661 81.3969 41.164 81.8495C41.0771 82.3952 41.0183 82.945 40.9877 83.4967ZM42.2498 85.0256C41.9505 84.7078 41.6234 84.3296 41.2684 83.8656C41.2773 83.4976 41.3279 83.1318 41.4192 82.7752C41.5609 82.213 41.7648 81.6683 42.0271 81.1512C42.5769 81.6732 42.9806 82.0189 42.9806 82.0189L43.9086 82.8332C43.8367 83.6429 43.7949 84.4038 43.7694 85.021L42.2498 85.0256ZM43.9202 82.6917L43.5049 82.3274C43.2729 82.1186 42.8553 81.3113 42.4006 80.381C42.5945 79.9895 42.7665 79.5875 42.9156 79.1769C43.4075 80.0886 43.8436 80.8009 44.1011 81.179C44.0269 81.6825 43.9689 82.1952 43.9202 82.6917Z" fill="white"/>
<path d="M26.3438 24.8843V48.4091H44.2078V24.8843H26.3438ZM42.9689 46.7688H27.5919V26.5268H42.9689V46.7688Z" fill="#EF233C"/>
<path opacity="0.5" d="M26.3438 24.8843V48.4091H44.2078V24.8843H26.3438ZM42.9689 46.7688H27.5919V26.5268H42.9689V46.7688Z" fill="white"/>
<path d="M88.8555 36.3613V53.7335H102.052V36.3613H88.8555ZM101.131 52.5201H89.7835V37.584H101.138L101.131 52.5201Z" fill="#EF233C"/>
<path opacity="0.5" d="M88.8555 36.3613V53.7335H102.052V36.3613H88.8555ZM101.131 52.5201H89.7835V37.584H101.138L101.131 52.5201Z" fill="white"/>
<path d="M13.4043 94.8463C14.0701 92.5912 20.9675 69.15 20.9443 68.9736C20.9211 68.7973 21.5081 65.6491 22.8815 63.0252C24.2549 60.4012 26.162 57.478 26.4009 57.1208C26.7646 56.5386 27.0076 55.8893 27.1155 55.2114C27.2941 54.2579 29.2035 51.6316 29.7997 50.9171C30.396 50.2025 32.1847 46.4441 32.3053 45.8479C32.426 45.2516 33.1382 44.7737 34.0941 44.5951C35.0499 44.4164 36.3607 44.2378 36.3607 44.2378C36.6033 44.5233 36.7494 44.8781 36.7783 45.2516C36.7783 45.7876 34.63 58.6102 34.5117 60.7585C34.3933 62.9068 34.6903 64.097 33.7368 66.3056C32.7833 68.5143 29.9784 69.8831 28.6073 70.7786C27.2361 71.6741 27.3405 71.8597 27.3405 71.8597C27.3405 71.8597 28.1154 93.3267 28.0969 95.0133" fill="white"/>
<mask id="mask0_2075_13639" style="mask-type:luminance" maskUnits="userSpaceOnUse" x="13" y="44" width="24" height="52">
<path d="M13.4043 94.8463C14.0701 92.5912 20.9675 69.15 20.9443 68.9736C20.9211 68.7973 21.5081 65.6491 22.8815 63.0252C24.2549 60.4012 26.162 57.478 26.4009 57.1208C26.7646 56.5386 27.0076 55.8893 27.1155 55.2114C27.2941 54.2579 29.2035 51.6316 29.7997 50.9171C30.396 50.2025 32.1847 46.4441 32.3053 45.8479C32.426 45.2516 33.1382 44.7737 34.0941 44.5951C35.0499 44.4164 36.3607 44.2378 36.3607 44.2378C36.6033 44.5233 36.7494 44.8781 36.7783 45.2516C36.7783 45.7876 34.63 58.6102 34.5117 60.7585C34.3933 62.9068 34.6903 64.097 33.7368 66.3056C32.7833 68.5143 29.9784 69.8831 28.6073 70.7786C27.2361 71.6741 27.3405 71.8597 27.3405 71.8597C27.3405 71.8597 28.1154 93.3267 28.0969 95.0133" fill="white"/>
</mask>
<g mask="url(#mask0_2075_13639)">
<g style="mix-blend-mode:multiply" opacity="0.7">
<path d="M37.6499 58.304C37.4017 57.1927 35.7939 57.8098 35.7939 57.8098C34.6991 58.9979 33.3512 59.9248 31.8499 60.5219C29.3371 61.4721 26.9087 62.6324 24.5907 63.9903C24.8551 63.459 25.1428 62.9231 25.4537 62.3663C27.0568 59.5313 29.8919 55.7102 31.4857 55.2161C32.4694 54.9145 33.4507 55.5385 34.0632 56.0675L34.1328 44.5835H34.0934C33.1375 44.7621 32.423 45.2401 32.3047 45.8363C32.1863 46.4325 30.3953 50.1886 29.7991 50.9055C29.2028 51.6224 27.2935 54.2463 27.1148 55.1998C27.0069 55.8777 26.7639 56.527 26.4003 57.1092C26.1683 57.4665 24.2519 60.3873 22.8808 63.0136C21.5097 65.6398 20.9204 68.7834 20.9436 68.9621C20.9599 69.092 18.3058 78.7061 16.6191 84.7566C18.0111 82.019 20.1757 77.5901 21.4911 74.3166C22.0085 74.2656 23.0107 72.8643 23.8413 71.7229C24.8273 70.368 26.3051 69.9968 29.2655 67.7789C32.2258 65.5609 35.5503 62.4777 36.0445 61.2457C36.5387 60.0138 37.8959 59.4129 37.6499 58.304Z" fill="#EF233C"/>
</g>
</g>
<path d="M13.4043 94.8463C14.0701 92.5912 20.9675 69.15 20.9443 68.9736C20.9211 68.7973 21.5081 65.6491 22.8815 63.0252C24.2549 60.4012 26.162 57.478 26.4009 57.1208C26.7646 56.5386 27.0076 55.8893 27.1155 55.2114C27.2941 54.2579 29.2035 51.6316 29.7997 50.9171C30.396 50.2025 32.1847 46.4441 32.3053 45.8479C32.426 45.2516 33.1382 44.7737 34.0941 44.5951C35.0499 44.4164 36.3607 44.2378 36.3607 44.2378C36.6033 44.5233 36.7494 44.8781 36.7783 45.2516C36.7783 45.7876 34.63 58.6102 34.5117 60.7585C34.3933 62.9068 34.6903 64.097 33.7368 66.3056C32.7833 68.5143 29.9784 69.8831 28.6073 70.7786C27.2361 71.6741 27.3405 71.8597 27.3405 71.8597C27.3405 71.8597 28.1154 93.3267 28.0969 95.0133" stroke="#2E353A" stroke-linecap="round" stroke-linejoin="round"/>
<path d="M33.9729 58.8492C33.9729 58.8492 33.3187 58.7889 32.6621 57.5964" stroke="#2E353A" stroke-linecap="round" stroke-linejoin="round"/>
<path d="M33.2578 51.156C33.2578 51.156 35.1138 51.5133 35.3458 53.063" stroke="#2E353A" stroke-linecap="round" stroke-linejoin="round"/>
<path d="M33.8555 46.3235C34.266 46.6359 34.6058 47.0316 34.8525 47.4846C35.0992 47.9376 35.2472 48.4377 35.2869 48.952" stroke="#2E353A" stroke-linecap="round" stroke-linejoin="round"/>
<path d="M93.9934 58.8538L93.8472 34.0832C93.8466 33.3612 93.5594 32.669 93.0486 32.1587C92.5379 31.6485 91.8455 31.3618 91.1235 31.3618H36.9167C36.195 31.3618 35.5028 31.6485 34.9924 32.1589C34.4821 32.6692 34.1954 33.3614 34.1954 34.0832L34.0469 58.8538C34.0466 59.2149 34.1175 59.5726 34.2555 59.9062C34.3936 60.2399 34.5961 60.5431 34.8514 60.7985C35.1068 61.0538 35.41 61.2563 35.7436 61.3944C36.0773 61.5324 36.435 61.6033 36.7961 61.603H91.2442C91.6053 61.6033 91.9629 61.5324 92.2966 61.3944C92.6303 61.2563 92.9335 61.0538 93.1888 60.7985C93.4442 60.5431 93.6467 60.2399 93.7847 59.9062C93.9228 59.5726 93.9937 59.2149 93.9934 58.8538Z" fill="#2E353A" stroke="#363636" stroke-width="0.868674" stroke-linecap="round" stroke-linejoin="round"/>
<path d="M90.9475 60.2575L90.8292 32.6936H37.2117L37.0957 60.2575H90.9475Z" fill="white" stroke="#363636" stroke-width="0.651505" stroke-linecap="round" stroke-linejoin="round"/>
<path d="M90.8292 32.6936H37.2117L37.207 34.0694H42.3574L43.6752 35.9532H90.8431L90.8292 32.6936Z" fill="#EF233C" stroke="#2E353A" stroke-linecap="round" stroke-linejoin="round"/>
<g style="mix-blend-mode:multiply" opacity="0.5">
<path d="M90.829 38.178L53.1406 60.2574H90.9473L90.829 38.178Z" fill="#EF233C"/>
</g>
<path d="M92.7441 46.468C92.747 46.2387 92.5635 46.0504 92.3342 46.0474C92.1048 46.0445 91.9165 46.228 91.9136 46.4573C91.9106 46.6867 92.0941 46.875 92.3234 46.8779C92.5528 46.8809 92.7411 46.6974 92.7441 46.468Z" fill="white"/>
<path d="M41.3413 42.7647C42.5675 42.7647 43.5616 41.7707 43.5616 40.5445C43.5616 39.3183 42.5675 38.3242 41.3413 38.3242C40.1151 38.3242 39.1211 39.3183 39.1211 40.5445C39.1211 41.7707 40.1151 42.7647 41.3413 42.7647Z" fill="#EF233C" stroke="#2E353A" stroke-linecap="round" stroke-linejoin="round"/>
<path d="M41.3413 51.8938C42.5675 51.8938 43.5616 50.8998 43.5616 49.6736C43.5616 48.4474 42.5675 47.4534 41.3413 47.4534C40.1151 47.4534 39.1211 48.4474 39.1211 49.6736C39.1211 50.8998 40.1151 51.8938 41.3413 51.8938Z" fill="white" stroke="#2E353A" stroke-linecap="round" stroke-linejoin="round"/>
<path d="M56.5152 42.7647C57.7414 42.7647 58.7354 41.7707 58.7354 40.5445C58.7354 39.3183 57.7414 38.3242 56.5152 38.3242C55.289 38.3242 54.2949 39.3183 54.2949 40.5445C54.2949 41.7707 55.289 42.7647 56.5152 42.7647Z" fill="white" stroke="#2E353A" stroke-linecap="round" stroke-linejoin="round"/>
<path d="M56.5152 51.8938C57.7414 51.8938 58.7354 50.8998 58.7354 49.6736C58.7354 48.4474 57.7414 47.4534 56.5152 47.4534C55.289 47.4534 54.2949 48.4474 54.2949 49.6736C54.2949 50.8998 55.289 51.8938 56.5152 51.8938Z" fill="#EF233C" stroke="#2E353A" stroke-linecap="round" stroke-linejoin="round"/>
<path d="M71.689 42.7647C72.9152 42.7647 73.9092 41.7707 73.9092 40.5445C73.9092 39.3183 72.9152 38.3242 71.689 38.3242C70.4628 38.3242 69.4688 39.3183 69.4688 40.5445C69.4688 41.7707 70.4628 42.7647 71.689 42.7647Z" fill="#EF233C" stroke="#2E353A" stroke-linecap="round" stroke-linejoin="round"/>
<path d="M71.689 51.8938C72.9152 51.8938 73.9092 50.8998 73.9092 49.6736C73.9092 48.4474 72.9152 47.4534 71.689 47.4534C70.4628 47.4534 69.4688 48.4474 69.4688 49.6736C69.4688 50.8998 70.4628 51.8938 71.689 51.8938Z" fill="#EF233C" stroke="#2E353A" stroke-width="2" stroke-linecap="round" stroke-linejoin="round"/>
<path d="M86.8628 42.7647C88.089 42.7647 89.0831 41.7707 89.0831 40.5445C89.0831 39.3183 88.089 38.3242 86.8628 38.3242C85.6366 38.3242 84.6426 39.3183 84.6426 40.5445C84.6426 41.7707 85.6366 42.7647 86.8628 42.7647Z" fill="#EF233C" stroke="#2E353A" stroke-linecap="round" stroke-linejoin="round"/>
<path d="M86.8628 51.8938C88.089 51.8938 89.0831 50.8998 89.0831 49.6736C89.0831 48.4474 88.089 47.4534 86.8628 47.4534C85.6366 47.4534 84.6426 48.4474 84.6426 49.6736C84.6426 50.8998 85.6366 51.8938 86.8628 51.8938Z" fill="white" stroke="#2E353A" stroke-linecap="round" stroke-linejoin="round"/>
<path d="M45.1992 43.551H52.4724" stroke="#2E353A" stroke-linecap="round" stroke-linejoin="round"/>
<path d="M45.1992 45.2285H52.4724" stroke="#2E353A" stroke-linecap="round" stroke-linejoin="round"/>
<path d="M45.1992 46.9082H52.4724" stroke="#2E353A" stroke-linecap="round" stroke-linejoin="round"/>
<path d="M60.166 43.551H67.4392" stroke="#2E353A" stroke-linecap="round" stroke-linejoin="round"/>
<path d="M60.166 45.2285H67.4392" stroke="#2E353A" stroke-linecap="round" stroke-linejoin="round"/>
<path d="M60.166 46.9082H67.4392" stroke="#2E353A" stroke-linecap="round" stroke-linejoin="round"/>
<path d="M76.1113 43.551H83.3845" stroke="#2E353A" stroke-linecap="round" stroke-linejoin="round"/>
<path d="M76.1113 45.2285H83.3845" stroke="#2E353A" stroke-linecap="round" stroke-linejoin="round"/>
<path d="M76.1113 46.9082H83.3845" stroke="#2E353A" stroke-linecap="round" stroke-linejoin="round"/>
<path d="M45.1992 53.0491H52.4724" stroke="#2E353A" stroke-linecap="round" stroke-linejoin="round"/>
<path d="M45.1992 54.7288H52.4724" stroke="#2E353A" stroke-linecap="round" stroke-linejoin="round"/>
<path d="M45.1992 56.4062H52.4724" stroke="#2E353A" stroke-linecap="round" stroke-linejoin="round"/>
<path d="M60.166 53.0491H67.4392" stroke="#2E353A" stroke-linecap="round" stroke-linejoin="round"/>
<path d="M60.166 54.7288H67.4392" stroke="#2E353A" stroke-linecap="round" stroke-linejoin="round"/>
<path d="M60.166 56.4062H67.4392" stroke="#2E353A" stroke-linecap="round" stroke-linejoin="round"/>
<path d="M76.1113 53.0491H83.3845" stroke="#2E353A" stroke-linecap="round" stroke-linejoin="round"/>
<path d="M76.1113 54.7288H83.3845" stroke="#2E353A" stroke-linecap="round" stroke-linejoin="round"/>
<path d="M76.1113 56.4062H83.3845" stroke="#2E353A" stroke-linecap="round" stroke-linejoin="round"/>
<path d="M67.3086 49.7874H68.6867" stroke="#2E353A" stroke-linecap="round" stroke-linejoin="round"/>
<path d="M71.8359 47.0335V45.312" stroke="#2E353A" stroke-linecap="round" stroke-linejoin="round"/>
<path d="M68.7852 47.2307L69.6714 47.9198" stroke="#2E353A" stroke-linecap="round" stroke-linejoin="round"/>
<path d="M69.8686 51.5574L68.7852 52.149" stroke="#2E353A" stroke-linecap="round" stroke-linejoin="round"/>
<path d="M76.4601 49.7874H75.082" stroke="#2E353A" stroke-linecap="round" stroke-linejoin="round"/>
<path d="M74.9816 47.2307L74.0977 47.9198" stroke="#2E353A" stroke-linecap="round" stroke-linejoin="round"/>
<path d="M70.7637 54.3484L71.9237 58.4919" stroke="#2E353A" stroke-linecap="round" stroke-linejoin="round"/>
<path d="M69.6016 53.8496L70.2651 56.0049" stroke="#2E353A" stroke-linecap="round" stroke-linejoin="round"/>
<path d="M98.1898 93.3104C98.1898 93.3104 92.6798 83.1488 91.8956 81.367C91.1115 79.5852 90.5199 76.778 90.3273 76.0078C90.0488 75.104 90.0231 74.1412 90.2531 73.2238C90.5431 71.9246 90.3714 68.2172 90.5013 67.3658C90.6312 66.5143 90.1046 63.851 89.8053 62.3592C89.506 60.8675 88.8286 59.8072 87.9145 59.6912C87.6487 59.6594 87.3791 59.6938 87.1297 59.7913C86.8804 59.8889 86.659 60.0466 86.4854 60.2504C86.4854 60.2504 86.1049 57.0743 85.736 56.4154C85.3671 55.7565 84.1654 55.8516 83.5227 56.0094C82.8801 56.1671 82.5715 58.2227 82.5715 58.2227C82.5715 58.2227 82.0147 56.2483 81.9985 55.3667C81.9823 54.4851 80.9104 53.7265 80.0752 53.9353C79.24 54.1441 78.7899 54.5269 78.5626 56.3551C78.3352 58.1832 78.7644 61.0113 78.7644 61.0113L78.3306 61.1876C78.3306 61.1876 76.7669 55.7124 76.2704 54.2671C75.7739 52.8217 75.296 51.1676 74.9619 50.0911C74.6279 49.0146 74.1314 47.3071 72.7649 47.5692C71.3984 47.8314 71.7348 50.8172 71.7348 50.8172C71.7348 50.8172 73.8715 59.9673 73.9829 60.6888C74.0943 61.4103 74.4469 63.916 74.3773 64.7512C74.3077 65.5864 74.31 67.7672 74.31 67.7672L72.2754 65.3404C72.0247 64.6838 71.7083 64.0543 71.3311 63.4612C70.6351 62.3384 69.0877 61.292 68.0831 61.6052C67.0786 61.9184 67.872 62.9531 68.2873 63.5308C68.7026 64.1085 69.039 65.7302 69.039 66.5468C69.039 67.3635 69.735 67.9388 70.5748 69.4375C71.4147 70.9363 75.6301 76.1145 76.2681 77.0472C76.7406 77.6738 77.3348 78.1986 78.0151 78.59C78.0151 78.59 80.4511 80.7128 81.5879 83.3622C82.7247 86.0116 86.2116 93.6189 86.2116 93.6189" fill="white"/>
<mask id="mask1_2075_13639" style="mask-type:luminance" maskUnits="userSpaceOnUse" x="67" y="47" width="32" height="47">
<path d="M98.1898 93.3104C98.1898 93.3104 92.6798 83.1488 91.8956 81.367C91.1115 79.5852 90.5199 76.778 90.3273 76.0078C90.0488 75.104 90.0231 74.1412 90.2531 73.2238C90.5431 71.9246 90.3714 68.2172 90.5013 67.3658C90.6312 66.5143 90.1046 63.851 89.8053 62.3592C89.506 60.8675 88.8286 59.8072 87.9145 59.6912C87.6487 59.6594 87.3791 59.6938 87.1297 59.7913C86.8804 59.8889 86.659 60.0466 86.4854 60.2504C86.4854 60.2504 86.1049 57.0743 85.736 56.4154C85.3671 55.7565 84.1654 55.8516 83.5227 56.0094C82.8801 56.1671 82.5715 58.2227 82.5715 58.2227C82.5715 58.2227 82.0147 56.2483 81.9985 55.3667C81.9823 54.4851 80.9104 53.7265 80.0752 53.9353C79.24 54.1441 78.7899 54.5269 78.5626 56.3551C78.3352 58.1832 78.7644 61.0113 78.7644 61.0113L78.3306 61.1876C78.3306 61.1876 76.7669 55.7124 76.2704 54.2671C75.7739 52.8217 75.296 51.1676 74.9619 50.0911C74.6279 49.0146 74.1314 47.3071 72.7649 47.5692C71.3984 47.8314 71.7348 50.8172 71.7348 50.8172C71.7348 50.8172 73.8715 59.9673 73.9829 60.6888C74.0943 61.4103 74.4469 63.916 74.3773 64.7512C74.3077 65.5864 74.31 67.7672 74.31 67.7672L72.2754 65.3404C72.0247 64.6838 71.7083 64.0543 71.3311 63.4612C70.6351 62.3384 69.0877 61.292 68.0831 61.6052C67.0786 61.9184 67.872 62.9531 68.2873 63.5308C68.7026 64.1085 69.039 65.7302 69.039 66.5468C69.039 67.3635 69.735 67.9388 70.5748 69.4375C71.4147 70.9363 75.6301 76.1145 76.2681 77.0472C76.7406 77.6738 77.3348 78.1986 78.0151 78.59C78.0151 78.59 80.4511 80.7128 81.5879 83.3622C82.7247 86.0116 86.2116 93.6189 86.2116 93.6189" fill="white"/>
</mask>
<g mask="url(#mask1_2075_13639)">
<g style="mix-blend-mode:multiply" opacity="0.7">
<path d="M89.847 90.8929C90.9861 89.8489 91.2692 81.4157 91.1253 78.2767C91.1253 78.2512 91.1253 78.221 91.1253 78.1932C90.7193 77.1446 90.4038 76.2931 90.3319 76.0078C90.0534 75.1039 90.0277 74.1411 90.2577 73.2238C90.5477 71.9246 90.376 68.2172 90.5059 67.3658C90.5825 66.8623 90.427 65.7162 90.2275 64.5562C89.4016 64.4843 87.8889 65.229 87.8889 65.229C87.8889 65.229 86.6965 63.4937 85.9193 63.4334C85.1421 63.373 83.7941 64.5934 83.7941 64.5934C83.7941 64.5934 83.0216 61.9903 81.4347 62.2571C79.8478 62.5239 79.4024 62.2571 78.776 62.285C78.1496 62.3128 77.6415 60.7886 77.0151 59.2922C76.3887 57.7958 75.4909 52.1999 74.9596 51.0399C74.9596 51.0399 74.1267 48.706 73.0479 49.4832C71.9691 50.2604 72.9829 52.8008 73.4887 54.325C73.9945 55.8493 74.2659 58.7446 74.6765 60.125C75.1405 61.6632 74.9085 63.9484 75.3331 65.6234C75.7577 67.2985 76.8481 67.8413 76.2472 70.0314C75.6463 72.2215 74.3332 71.5232 72.8693 70.2356C71.4053 68.948 70.6815 65.9993 69.8533 66.2916C69.5663 66.3642 69.289 66.4709 69.0273 66.6094C69.0459 67.4121 69.7233 68.0014 70.5632 69.4677C71.403 70.9339 75.6301 76.1145 76.2681 77.0471C76.7405 77.6738 77.3347 78.1986 78.015 78.5899C78.015 78.5899 80.451 80.7127 81.5878 83.3622C81.792 83.8378 82.1168 84.5407 82.5158 85.3759C82.9798 85.7471 81.9961 83.9839 82.2374 84.2762C83.8452 86.1624 88.7102 91.9392 89.847 90.8929Z" fill="#EF233C"/>
</g>
</g>
<path d="M98.1898 93.3104C98.1898 93.3104 92.6798 83.1488 91.8956 81.367C91.1115 79.5852 90.5199 76.778 90.3273 76.0078C90.0488 75.104 90.0231 74.1412 90.2531 73.2238C90.5431 71.9246 90.3714 68.2172 90.5013 67.3658C90.6312 66.5143 90.1046 63.851 89.8053 62.3592C89.506 60.8675 88.8286 59.8072 87.9145 59.6912C87.6487 59.6594 87.3791 59.6938 87.1297 59.7913C86.8804 59.8889 86.659 60.0466 86.4854 60.2504C86.4854 60.2504 86.1049 57.0743 85.736 56.4154C85.3671 55.7565 84.1654 55.8516 83.5227 56.0094C82.8801 56.1671 82.5715 58.2227 82.5715 58.2227C82.5715 58.2227 82.0147 56.2483 81.9985 55.3667C81.9823 54.4851 80.9104 53.7265 80.0752 53.9353C79.24 54.1441 78.7899 54.5269 78.5626 56.3551C78.3352 58.1832 78.7644 61.0113 78.7644 61.0113L78.3306 61.1876C78.3306 61.1876 76.7669 55.7124 76.2704 54.2671C75.7739 52.8217 75.296 51.1676 74.9619 50.0911C74.6279 49.0146 74.1314 47.3071 72.7649 47.5692C71.3984 47.8314 71.7348 50.8172 71.7348 50.8172C71.7348 50.8172 73.8715 59.9673 73.9829 60.6888C74.0943 61.4103 74.4469 63.916 74.3773 64.7512C74.3077 65.5864 74.31 67.7672 74.31 67.7672L72.2754 65.3404C72.0247 64.6838 71.7083 64.0543 71.3311 63.4612C70.6351 62.3384 69.0877 61.292 68.0831 61.6052C67.0786 61.9184 67.872 62.9531 68.2873 63.5308C68.7026 64.1085 69.039 65.7302 69.039 66.5468C69.039 67.3635 69.735 67.9388 70.5748 69.4375C71.4147 70.9363 75.6301 76.1145 76.2681 77.0472C76.7406 77.6738 77.3348 78.1986 78.0151 78.59C78.0151 78.59 80.4511 80.7128 81.5879 83.3622C82.7247 86.0116 86.2116 93.6189 86.2116 93.6189" stroke="#2E353A" stroke-linecap="round" stroke-linejoin="round"/>
<path d="M72.041 48.2329C72.041 48.2329 72.2939 49.8012 72.3426 49.9984C72.4517 50.4416 74.2845 50.2304 74.4306 49.8894C74.5605 49.5855 74.4654 48.9266 74.4654 48.9266" stroke="#2E353A" stroke-linecap="round" stroke-linejoin="round"/>
<path d="M68.9029 63.6027C69.0553 63.4479 69.1498 63.2453 69.1705 63.029C69.1912 62.8127 69.1368 62.5959 69.0165 62.4149C68.585 61.7723 68.3438 61.6284 68.3438 61.6284" stroke="#2E353A" stroke-linecap="round" stroke-linejoin="round"/>
<path d="M74.1621 57.3204C74.1621 57.3204 74.9811 57.5942 75.7513 56.585" stroke="#2E353A" stroke-width="0.75" stroke-linecap="round" stroke-linejoin="round"/>
<path d="M74.2598 56.6081C74.2598 56.6081 75.3525 55.7892 76.1877 55.8565" stroke="#2E353A" stroke-width="0.75" stroke-linecap="round" stroke-linejoin="round"/>
<path d="M73.127 52.3276C73.127 52.3276 73.9459 51.511 74.6025 51.6873" stroke="#2E353A" stroke-width="0.75" stroke-linecap="round" stroke-linejoin="round"/>
<path d="M73.8984 52.135C74.2351 52.1916 74.5799 52.1758 74.91 52.0886" stroke="#2E353A" stroke-width="0.75" stroke-linecap="round" stroke-linejoin="round"/>
<path d="M82.5703 58.2297L83.0018 60.7841" stroke="#2E353A" stroke-linecap="round" stroke-linejoin="round"/>
<path d="M86.4844 60.2573L86.9461 62.9392" stroke="#2E353A" stroke-linecap="round" stroke-linejoin="round"/>
<path d="M74.3081 67.7834C74.3081 67.7834 74.1921 69.7902 74.3846 70.5674" stroke="#2E353A" stroke-linecap="round" stroke-linejoin="round"/>
<path d="M83.0039 62.1436C83.0039 62.1436 83.4795 63.4033 83.3635 64.2316" stroke="#2E353A" stroke-width="0.75" stroke-linecap="round" stroke-linejoin="round"/>
<path d="M86.8945 63.4451C86.8945 63.4451 87.217 64.0947 87.0245 65.2779" stroke="#2E353A" stroke-width="0.75" stroke-linecap="round" stroke-linejoin="round"/>
<path d="M31.7662 59.8028C31.7662 59.8028 33.7359 59.4455 34.8077 58.1347C35.8795 56.8239 38.4455 55.1512 39.2807 54.8542C40.1159 54.5572 41.429 54.4946 41.9069 54.9122C42.3848 55.3298 42.6215 56.3436 41.9069 57.5384C41.1923 58.7332 38.2784 59.8561 37.6706 60.399C37.0627 60.9419 36.5384 61.2945 35.8146 62.9046C35.11 64.4643 34.0958 65.8646 32.8334 67.0203C31.6989 68.0341 29.6132 69.7648 28.5391 70.4191" fill="white"/>
<mask id="mask2_2075_13639" style="mask-type:luminance" maskUnits="userSpaceOnUse" x="28" y="54" width="15" height="17">
<path d="M31.7662 59.8028C31.7662 59.8028 33.7359 59.4455 34.8077 58.1347C35.8795 56.8239 38.4455 55.1512 39.2807 54.8542C40.1159 54.5572 41.429 54.4946 41.9069 54.9122C42.3848 55.3298 42.6215 56.3436 41.9069 57.5384C41.1923 58.7332 38.2784 59.8561 37.6706 60.399C37.0627 60.9419 36.5384 61.2945 35.8146 62.9046C35.11 64.4643 34.0958 65.8646 32.8334 67.0203C31.6989 68.0341 29.6132 69.7648 28.5391 70.4191" fill="white"/>
</mask>
<g mask="url(#mask2_2075_13639)">
<g style="mix-blend-mode:multiply" opacity="0.7">
<path d="M37.6499 58.304C37.4017 57.1927 35.7939 57.8098 35.7939 57.8098C34.6991 58.9979 33.3512 59.9248 31.8499 60.5219C29.3371 61.4721 26.9087 62.6324 24.5907 63.9903C24.8551 63.459 25.1428 62.9231 25.4537 62.3663C27.0568 59.5313 29.8919 55.7102 31.4857 55.2161C32.4694 54.9145 33.4507 55.5385 34.0632 56.0675L34.1328 44.5835H34.0934C33.1375 44.7621 32.423 45.2401 32.3047 45.8363C32.1863 46.4325 30.3953 50.1886 29.7991 50.9055C29.2028 51.6224 27.2935 54.2463 27.1148 55.1998C27.0069 55.8777 26.7639 56.527 26.4003 57.1092C26.1683 57.4665 24.2519 60.3873 22.8808 63.0136C21.5097 65.6398 20.9204 68.7834 20.9436 68.9621C20.9599 69.092 18.3058 78.7061 16.6191 84.7566C18.0111 82.019 20.1757 77.5901 21.4911 74.3166C22.0085 74.2656 23.0107 72.8643 23.8413 71.7229C24.8273 70.368 26.3051 69.9968 29.2655 67.7789C32.2258 65.5609 35.5503 62.4777 36.0445 61.2457C36.5387 60.0138 37.8959 59.4129 37.6499 58.304Z" fill="#EF233C"/>
</g>
</g>
<path d="M31.7662 59.8028C31.7662 59.8028 33.7359 59.4455 34.8077 58.1347C35.8795 56.8239 38.4455 55.1512 39.2807 54.8542C40.1159 54.5572 41.429 54.4946 41.9069 54.9122C42.3848 55.3298 42.6215 56.3436 41.9069 57.5384C41.1923 58.7332 38.2784 59.8561 37.6706 60.399C37.0627 60.9419 36.5384 61.2945 35.8146 62.9046C35.11 64.4643 34.0958 65.8646 32.8334 67.0203C31.6989 68.0341 29.6132 69.7648 28.5391 70.4191" stroke="#2E353A" stroke-linecap="round" stroke-linejoin="round"/>
<path d="M41.9657 57.072C41.6084 57.608 40.7129 57.6683 40.7129 57.6683C40.7129 57.6683 40.3556 56.8934 40.1167 56.4155C39.9306 56.0939 39.6634 55.8267 39.3418 55.6406C39.3418 55.6406 39.6411 54.8657 40.2373 54.8657" stroke="#2E353A" stroke-linecap="round" stroke-linejoin="round"/>
<path d="M18.6167 71.9014C20.8178 71.4247 23.0723 71.2413 25.3215 71.3562C29.1286 71.5395 30.0334 73.7134 30.0334 73.7134L29.8525 78.6062C29.8525 78.6062 27.8596 77.1562 23.6905 76.6134C19.5215 76.0705 17.3477 76.4324 17.3477 76.4324L18.6167 71.9014Z" fill="white" stroke="#2E353A" stroke-linecap="round" stroke-linejoin="round"/>
<path d="M30.0709 94.7325L31.0522 79.0284C24.7093 75.2213 17.348 76.4324 17.348 76.4324L11.084 94.7325H30.0709Z" fill="#2E353A" stroke="#2E353A" stroke-linecap="round" stroke-linejoin="round"/>
<path d="M79.5742 82.6686C79.5742 82.6686 80.1937 80.1955 83.5948 78.1841C86.9959 76.1726 92.1022 76.9475 92.1022 76.9475L92.8748 78.9566C92.8748 78.9566 88.6988 78.8035 85.6062 80.5041C82.5137 82.2046 80.9662 84.2161 80.9662 84.2161L79.5742 82.6686Z" fill="white" stroke="#2E353A" stroke-linecap="round" stroke-linejoin="round"/>
<path d="M102.601 94.7327L93.4236 78.3257C93.4236 78.3257 89.9436 77.4116 85.7676 79.1121C81.5916 80.8127 79.8887 84.0607 79.8887 84.0607L81.6449 94.7327H102.601Z" fill="#2E353A" stroke="#2E353A" stroke-linecap="round" stroke-linejoin="round"/>
<path d="M81.8813 84.5571C81.9973 85.0559 81.8581 85.5153 81.5657 85.5826C81.2734 85.6499 80.944 85.3019 80.828 84.8031C80.712 84.3043 80.8512 83.8449 81.1412 83.7776C81.4312 83.7103 81.7629 84.0583 81.8813 84.5571Z" fill="white"/>
</svg>
