<svg width="116" height="116" viewBox="0 0 116 116" fill="none" xmlns="http://www.w3.org/2000/svg">
<path d="M45.296 6.05521C45.296 6.05521 34.16 6.72337 23.4508 14.971C14.1291 22.163 8.95779 32.8999 8.41955 44.5811C8.06227 52.2928 9.90435 59.8119 12.1316 67.1338C14.9921 76.553 16.8388 87.2831 22.8036 95.3335C32.1044 107.861 50.0844 113.146 65.1204 110.903C74.8342 109.455 85.0979 103.943 88.0884 93.967C89.195 90.2758 89.7356 86.311 91.6264 82.8982C93.8907 78.8104 98.0017 76.4231 101.122 73.0939C104.976 68.9829 106.53 63.8603 107.491 58.4408C110.613 40.832 103.936 25.8958 91.8862 14.971C79.8361 4.04609 50.4232 4.27113 45.296 6.05521Z" fill="#EF233C"/>
<path opacity="0.7" d="M45.296 6.05521C45.296 6.05521 34.16 6.72337 23.4508 14.971C14.1291 22.163 8.95779 32.8999 8.41955 44.5811C8.06227 52.2928 9.90435 59.8119 12.1316 67.1338C14.9921 76.553 16.8388 87.2831 22.8036 95.3335C32.1044 107.861 50.0844 113.146 65.1204 110.903C74.8342 109.455 85.0979 103.943 88.0884 93.967C89.195 90.2758 89.7356 86.311 91.6264 82.8982C93.8907 78.8104 98.0017 76.4231 101.122 73.0939C104.976 68.9829 106.53 63.8603 107.491 58.4408C110.613 40.832 103.936 25.8958 91.8862 14.971C79.8361 4.04609 50.4232 4.27113 45.296 6.05521Z" fill="white"/>
<path d="M47.0025 15.1218C45.5223 14.3144 44.8472 14.9872 44.309 14.3144C43.7707 13.6416 45.7914 11.89 41.757 10.1384C41.757 10.1384 41.4878 6.36842 35.957 6.23386C30.4261 6.0993 31.9178 10.0039 30.4354 10.9458C28.9529 11.8877 28.5515 10.4075 27.069 11.3518C25.5866 12.296 26.264 14.1799 25.0553 14.449C23.8466 14.7181 22.2272 13.2356 20.747 14.1799C19.2669 15.1241 19.2553 15.9291 18.5871 15.9291C17.919 15.9291 16.5664 15.3909 15.759 15.9291C14.9517 16.4674 14.0098 17.1425 14.0098 17.1425H48.0813C48.0813 17.1425 48.4873 15.9291 47.0025 15.1218Z" stroke="#263238" stroke-linecap="round" stroke-linejoin="round"/>
<path d="M26.8493 14.5674C26.6555 14.6772 26.4539 14.7726 26.2461 14.8527" stroke="#263238" stroke-linecap="round" stroke-linejoin="round"/>
<path d="M34.1352 8.27783C33.8011 8.4273 33.5075 8.65429 33.2787 8.93996C33.05 9.22563 32.8926 9.56173 32.8197 9.92039C32.5738 11.1546 31.9985 11.9759 31.3419 12.0571C30.6853 12.1383 28.2192 11.8947 27.8062 12.7972C27.6968 13.0625 27.6189 13.3397 27.5742 13.6231" stroke="#263238" stroke-linecap="round" stroke-linejoin="round"/>
<path d="M37.214 27.8146C36.6363 27.4991 36.3742 27.7613 36.1631 27.4991C35.9519 27.2369 36.7407 26.5502 35.1631 25.8751C35.1631 25.8751 35.0587 24.4019 32.9011 24.3485C30.7435 24.2952 31.3212 25.8217 30.7435 26.1906C30.1659 26.5595 30.0058 25.9795 29.4281 26.3484C28.8504 26.7173 29.1126 27.4527 28.6393 27.5571C28.166 27.6615 27.5327 27.0931 26.955 27.4527C26.3773 27.8123 26.375 28.1487 26.1128 28.1487C25.8507 28.1487 25.324 27.9376 25.0085 28.1487C24.693 28.3598 24.3125 28.6127 24.3125 28.6127H37.6247C37.6247 28.6127 37.794 28.1301 37.214 27.8146Z" stroke="#263238" stroke-linecap="round" stroke-linejoin="round"/>
<path d="M29.3394 27.6079C29.2646 27.6494 29.1871 27.6858 29.1074 27.717" stroke="#263238" stroke-linecap="round" stroke-linejoin="round"/>
<path d="M32.1886 25.1396C32.0578 25.1981 31.9429 25.2868 31.8533 25.3986C31.7637 25.5104 31.7021 25.6419 31.6736 25.7823C31.5784 26.2648 31.3534 26.585 31.0959 26.6175C30.8384 26.65 29.8756 26.5525 29.7155 26.9052C29.6725 27.0086 29.6421 27.1169 29.625 27.2276" stroke="#263238" stroke-linecap="round" stroke-linejoin="round"/>
<path d="M102.328 24.7382C101.748 24.4227 101.486 24.6872 101.275 24.4227C101.063 24.1582 101.855 23.4761 100.275 22.7987C100.275 22.7987 100.17 21.3255 98.0126 21.2744C95.855 21.2234 96.435 22.7476 95.855 23.1142C95.275 23.4808 95.1195 22.9054 94.5395 23.272C93.9595 23.6385 94.224 24.3786 93.7507 24.483C93.2775 24.5874 92.6464 24.019 92.0664 24.3786C91.4864 24.7382 91.4887 25.0607 91.2243 25.0607C90.9598 25.0607 90.4355 24.8519 90.1199 25.0607C89.8044 25.2695 89.4355 25.52 89.4355 25.52H102.748C102.748 25.52 102.905 25.056 102.328 24.7382Z" stroke="#263238" stroke-linecap="round" stroke-linejoin="round"/>
<path d="M94.4527 24.5225C94.3784 24.5656 94.3008 24.6028 94.2207 24.6338" stroke="#263238" stroke-linecap="round" stroke-linejoin="round"/>
<path d="M97.2996 22.0654C97.1689 22.1237 97.0541 22.2124 96.9649 22.3243C96.8756 22.4361 96.8146 22.5677 96.7868 22.7081C96.6894 23.1883 96.4644 23.5108 96.2068 23.5409C95.9493 23.5711 94.9865 23.4783 94.8264 23.8309C94.7836 23.9343 94.754 24.0427 94.7383 24.1534" stroke="#263238" stroke-linecap="round" stroke-linejoin="round"/>
<path d="M88.8429 52.773C84.0173 49.7965 71.6332 41.405 67.8864 41.7646C64.4574 42.0964 54.9152 49.2605 51.2148 52.773H88.8429Z" fill="#B2B2B2"/>
<path d="M60.5011 52.773C53.5225 48.4694 35.6098 36.3242 30.1903 36.8485C25.2301 37.3287 11.4284 47.6922 6.07617 52.773H60.5011Z" fill="#707070"/>
<path d="M74.9358 44.0523C74.0728 44.0523 73.045 43.7994 72.5137 42.7391C71.4837 40.679 73.3953 38.5075 75.2676 36.6352C77.1398 34.763 77.5296 32.9047 77.5342 32.8884L77.808 32.9418C77.7941 33.0184 77.4136 34.8859 75.4671 36.8324C73.6621 38.6374 71.8177 40.7184 72.7643 42.6115C73.6691 44.4211 76.2675 43.5813 76.293 43.572L76.3812 43.8388C75.9119 43.9779 75.4253 44.0498 74.9358 44.0523Z" fill="#263238"/>
<path d="M80.4592 38.7231H74.1465V45.9476H80.4592V38.7231Z" fill="#EF233C" stroke="#263238" stroke-miterlimit="10"/>
<path d="M77.6117 24.9837L76.9121 25.0896L79.6275 43.023L80.3271 42.917L77.6117 24.9837Z" fill="#263238" stroke="#263238" stroke-miterlimit="10"/>
<path d="M79.1617 32.2957L77.5996 32.5322L79.198 43.0885L80.7601 42.852L79.1617 32.2957Z" fill="#EF233C" stroke="#263238" stroke-miterlimit="10"/>
<path d="M63.7317 13.9912L63.3887 14.6101L79.2523 23.4035L79.5954 22.7846L63.7317 13.9912Z" fill="#263238" stroke="#263238" stroke-miterlimit="10"/>
<path d="M70.4691 17.2268L69.7031 18.6086L79.0411 23.7848L79.8071 22.403L70.4691 17.2268Z" fill="#EF233C" stroke="#263238" stroke-miterlimit="10"/>
<path d="M84.7441 40.7764L84.3033 39.2336C84.3004 39.1792 84.2942 39.1249 84.2848 39.0712L81.1296 24.265C81.0568 23.9237 80.8983 23.6065 80.669 23.3434C80.4396 23.0804 80.147 22.8802 79.8188 22.7616L61.8805 16.2656L61.3887 19.212L76.4687 25.8519C76.736 25.9696 76.9751 26.1431 77.17 26.3608C77.3648 26.5785 77.5109 26.8352 77.5985 27.1139L81.582 39.7742C81.6814 40.0907 81.8897 40.3618 82.17 40.5393C82.4504 40.7169 82.7845 40.7894 83.1132 40.7439L83.1016 40.7671L84.7441 40.7764Z" fill="#EF233C" stroke="#263238" stroke-miterlimit="10"/>
<path d="M79.2673 27.1231L83.2508 39.7833C83.3075 39.9638 83.4 40.131 83.523 40.2748C83.6459 40.4186 83.7966 40.536 83.966 40.6201C84.1355 40.7042 84.3202 40.7531 84.5091 40.764C84.6979 40.7749 84.887 40.7475 85.065 40.6835C85.3873 40.5697 85.6565 40.3413 85.8212 40.0418C85.9859 39.7423 86.0347 39.3926 85.9582 39.0595L82.803 24.2533C82.7307 23.9121 82.5726 23.595 82.3437 23.332C82.1147 23.0689 81.8225 22.8686 81.4945 22.7499L63.554 16.2539L63.0645 19.2003L78.1445 25.8401C78.4127 25.961 78.6518 26.138 78.8455 26.3594C79.0393 26.5808 79.1831 26.8412 79.2673 27.1231Z" fill="#EF233C" stroke="#263238" stroke-miterlimit="10"/>
<path d="M89.7222 42.5813H77.1641V49.3163H89.7222V42.5813Z" fill="#EF233C" stroke="#263238" stroke-miterlimit="10"/>
<path d="M106.201 49.3997L96.1066 46.3837C95.6516 46.2295 95.1762 46.1443 94.696 46.1309L94.051 46.0891H91.1742V46.1378C90.9726 46.1251 90.7704 46.1251 90.5687 46.1378V43.5649H89.4458V46.3489L79.2518 49.648C78.9574 49.7429 78.7008 49.9288 78.519 50.179C78.3372 50.4292 78.2396 50.7307 78.2402 51.04V51.3207C78.2402 51.7079 78.3939 52.0794 78.6675 52.3534C78.9411 52.6274 79.3123 52.7817 79.6995 52.7823H105.707C106.12 52.7808 106.518 52.6312 106.83 52.3607C107.142 52.0903 107.346 51.7169 107.406 51.3084C107.466 50.9 107.377 50.4836 107.156 50.135C106.935 49.7865 106.596 49.5289 106.201 49.409V49.3997Z" fill="#263238" stroke="#263238" stroke-miterlimit="10"/>
<path d="M95.5575 44.1567V30.7842C95.5578 30.7249 95.5464 30.6661 95.5239 30.6112C95.5014 30.5564 95.4683 30.5065 95.4265 30.4644C95.3847 30.4224 95.3349 30.389 95.2802 30.3663C95.2254 30.3435 95.1667 30.3318 95.1074 30.3318H86.4376C85.8879 30.3314 85.3474 30.4727 84.8682 30.7422C84.3891 31.0116 83.9875 31.4 83.7023 31.8699C83.3975 32.3712 83.237 32.9468 83.2383 33.5334V44.1567H95.5575Z" fill="#263238" stroke="#263238" stroke-miterlimit="10"/>
<path d="M83.2363 39.048H89.1454V44.1567H89.6465V39.048H94.6554V38.5469H89.6465V30.7332H89.1454V38.5469H83.2363V39.048Z" fill="#EF233C" stroke="#263238" stroke-miterlimit="10"/>
<path d="M95.1188 30.3318H86.4374C85.6594 30.3334 84.9087 30.6188 84.3262 31.1345H94.3555V44.1567H95.5573V30.7842C95.5579 30.6664 95.5124 30.5531 95.4304 30.4685C95.3484 30.3839 95.2366 30.3348 95.1188 30.3318Z" fill="#EF233C" stroke="#263238" stroke-miterlimit="10"/>
<path d="M102.571 44.1566V37.4448H95.5579L89.041 44.1566H102.571Z" fill="#EF233C" stroke="#263238" stroke-miterlimit="10"/>
<path d="M102.57 38.8484H96.4592L93.6543 41.9525H102.57V38.8484Z" fill="#263238" stroke="#263238" stroke-miterlimit="10"/>
<path d="M96.1694 49.3997L86.0751 46.3837C85.6202 46.2296 85.1447 46.1443 84.6646 46.1309L84.0196 46.0891H81.1382L81.0825 46.9986L72.865 49.648C72.5707 49.7429 72.3141 49.9288 72.1323 50.179C71.9505 50.4292 71.8529 50.7307 71.8535 51.04V51.3207C71.8535 51.7084 72.0075 52.0801 72.2816 52.3542C72.5557 52.6283 72.9275 52.7823 73.3151 52.7823H95.6753C96.0881 52.7808 96.4866 52.6312 96.7985 52.3608C97.1103 52.0903 97.3148 51.7169 97.3746 51.3084C97.4344 50.9 97.3457 50.4836 97.1245 50.135C96.9034 49.7865 96.5645 49.5289 96.1694 49.409V49.3997Z" fill="#545454" stroke="#263238" stroke-miterlimit="10"/>
<path d="M79.4246 46.3466L69.2166 49.641C68.9223 49.7359 68.6657 49.9218 68.4838 50.172C68.302 50.4222 68.2044 50.7237 68.2051 51.033V51.3137C68.2051 51.701 68.3588 52.0724 68.6324 52.3464C68.906 52.6204 69.2771 52.7747 69.6644 52.7753H92.0268C92.2532 52.7753 92.4774 52.7307 92.6865 52.6441C92.8956 52.5575 93.0857 52.4305 93.2457 52.2704C93.4058 52.1104 93.5328 51.9203 93.6194 51.7112C93.706 51.5021 93.7506 51.2779 93.7506 51.0516C93.7506 50.6809 93.6309 50.3201 93.4093 50.0229C93.1878 49.7257 92.8762 49.5079 92.521 49.402L82.4267 46.386C81.4564 46.0494 80.4034 46.0356 79.4246 46.3466Z" fill="#8A8A8A" stroke="#263238" stroke-miterlimit="10"/>
<path d="M69.6683 51.931C69.5042 51.9304 69.347 51.8649 69.2309 51.7489C69.1149 51.6329 69.0494 51.4756 69.0488 51.3116V51.0401C69.0489 50.9091 69.0904 50.7815 69.1676 50.6756C69.2447 50.5698 69.3534 50.4911 69.478 50.4508L79.686 47.1588C80.074 47.0321 80.4797 46.9678 80.8878 46.9685C81.3213 46.9685 81.7517 47.0406 82.1615 47.182L92.2883 50.2142C92.491 50.275 92.6651 50.4066 92.7788 50.5851C92.8924 50.7636 92.9381 50.9771 92.9074 51.1865C92.8768 51.3959 92.7718 51.5872 92.6117 51.7256C92.4516 51.864 92.247 51.9402 92.0354 51.9403L69.6683 51.931Z" fill="#263238" stroke="#263238" stroke-miterlimit="10"/>
<path d="M63.6369 17.7666L63.4977 14.848C63.4883 14.6541 63.4343 14.465 63.34 14.2953C63.2456 14.1256 63.1134 13.98 62.9535 13.8698C62.7937 13.7596 62.6106 13.6878 62.4185 13.6598C62.2264 13.6319 62.0304 13.6487 61.8458 13.7089L58.0225 14.9501C57.6229 15.0804 57.2547 15.2919 56.9408 15.5714C56.627 15.8509 56.3744 16.1923 56.1989 16.5741L50.791 28.4061L52.6865 30.4407L62.7831 20.0216C63.0715 19.7237 63.296 19.37 63.4428 18.9822C63.5896 18.5945 63.6556 18.1808 63.6369 17.7666Z" fill="#EF233C" stroke="#263238" stroke-miterlimit="10"/>
<path d="M64.6834 17.7666L64.5442 14.848C64.5348 14.6541 64.4808 14.465 64.3865 14.2953C64.2921 14.1256 64.1599 13.98 64 13.8698C63.8402 13.7596 63.6571 13.6878 63.465 13.6598C63.2729 13.6319 63.0769 13.6487 62.8923 13.7089L59.0713 14.9571C58.6714 15.0866 58.3027 15.2978 57.9888 15.5774C57.6749 15.857 57.4225 16.1987 57.2478 16.5811L51.8398 28.4131L53.733 30.4477L63.8296 20.0286C64.1193 19.7302 64.3446 19.3754 64.4915 18.9863C64.6384 18.5972 64.7037 18.182 64.6834 17.7666Z" fill="#EF233C" stroke="#263238" stroke-miterlimit="10"/>
<path d="M47.559 25.1141H42.223C41.2509 25.0133 40.2727 25.2351 39.439 25.7451C34.5972 28.5523 39.439 35.9183 39.439 35.9183H45.9629L48.0671 29.9559L47.559 25.1141Z" fill="#545454" stroke="#263238" stroke-miterlimit="10"/>
<path d="M54.5749 29.9559L45.9469 35.9183C45.9469 35.9183 41.105 28.5523 45.9469 25.7451C50.7887 22.9379 54.5749 29.9559 54.5749 29.9559Z" fill="#263238" stroke="#263238" stroke-miterlimit="10"/>
<path d="M39.4219 35.9182V38.4424H39.9648V37.236H40.3824V38.4424H41.1062V37.236H41.5261V38.4424H42.2476V37.236H42.6676V38.4424H43.3891V37.236H43.809V38.4424H44.5305V37.236H44.9504V38.4424H45.9457V35.9182H39.4219Z" fill="#8A8A8A" stroke="#263238" stroke-miterlimit="10"/>
<path d="M3.71289 52.7729H112.628" stroke="#263238" stroke-miterlimit="10"/>
<path d="M93.9725 70.1106H65.6406V71.433H93.9725V70.1106Z" fill="white" stroke="#263238" stroke-linejoin="round"/>
<path d="M68.4219 71.4956L70.779 75.8154C71.5585 77.4139 74.5861 78.1865 79.2795 78.1865C83.9728 78.1865 87.1675 77.2237 87.7823 75.8154L90.1394 71.4956H68.4219Z" fill="white" stroke="#263238" stroke-linejoin="round"/>
<path d="M69.3986 73.2843C71.5748 74.4814 75.1986 75.2656 79.2795 75.2656C83.3604 75.2656 86.9865 74.4814 89.1627 73.2843L90.1394 71.4956H68.4219L69.3986 73.2843Z" fill="#263238" stroke="#263238" stroke-linejoin="round"/>
<path d="M79.2786 74.7065C85.9337 74.7065 91.3287 72.6343 91.3287 70.0781C91.3287 67.5219 85.9337 65.4497 79.2786 65.4497C72.6235 65.4497 67.2285 67.5219 67.2285 70.0781C67.2285 72.6343 72.6235 74.7065 79.2786 74.7065Z" fill="#EF233C" stroke="#263238" stroke-linejoin="round"/>
<path d="M89.1744 66.5841L86.2558 60.0881H72.3033L69.3871 66.5841C69.0484 67.3428 68.6308 68.062 68.248 68.7997C68.1202 69.0382 68.0525 69.3041 68.0508 69.5746C68.0508 71.8552 73.0782 73.7065 79.2796 73.7065C85.4809 73.7065 90.5107 71.8505 90.5107 69.5746C90.5089 69.3041 90.4413 69.0382 90.3135 68.7997C89.9307 68.0713 89.5131 67.3521 89.1744 66.5841Z" fill="white" stroke="#263238" stroke-linejoin="round"/>
<path d="M89.0918 68.4609L89.5349 69.382" stroke="#263238" stroke-linecap="round" stroke-linejoin="round"/>
<path d="M85.8125 61.6541L88.3668 66.9599" stroke="#263238" stroke-linecap="round" stroke-linejoin="round"/>
<path d="M79.279 62.4452C83.1318 62.4452 86.2552 61.3847 86.2552 60.0765C86.2552 58.7683 83.1318 57.7078 79.279 57.7078C75.4261 57.7078 72.3027 58.7683 72.3027 60.0765C72.3027 61.3847 75.4261 62.4452 79.279 62.4452Z" fill="#263238" stroke="#263238" stroke-linejoin="round"/>
<path d="M60.9431 72.4236H58.0176V73.2101H60.9431V72.4236Z" fill="white" stroke="#263238" stroke-linejoin="round"/>
<path d="M62.0359 82.0399L61.5417 81.2604L65.2653 77.1864L60.8828 73.1775L61.3236 72.3469L66.1214 76.734C66.1735 76.7857 66.2148 76.8471 66.2431 76.9148C66.2714 76.9825 66.286 77.0551 66.2861 77.1284C66.2954 77.2779 66.2463 77.4251 66.1492 77.5391L62.0359 82.0399Z" fill="white" stroke="#263238" stroke-linejoin="round"/>
<path d="M63.0296 69.948C61.2548 69.948 59.8164 72.964 59.8164 76.6992C59.8164 80.4344 61.2548 83.4504 63.0296 83.4504C64.8044 83.4504 66.2428 80.4344 66.2428 76.6992C66.2428 72.964 64.8044 69.948 63.0296 69.948ZM63.2013 82.1906C61.8511 82.1906 60.7583 79.7314 60.7583 76.6992C60.7583 73.667 61.8511 71.2101 63.2013 71.2101C64.5515 71.2101 65.6558 73.667 65.6558 76.6992C65.6558 79.7314 64.5492 82.1906 63.2013 82.1906Z" fill="white" stroke="#263238" stroke-linejoin="round"/>
<path d="M87.4941 87.7261H71.8549L66.0039 81.9888L66.454 93.6885L71.7761 88.8513H87.4941V87.7261Z" fill="white" stroke="#263238" stroke-linejoin="round"/>
<path d="M98.7529 91.1877H85.5312L89.1319 81.6501H102.354L98.7529 91.1877Z" fill="white" stroke="#263238" stroke-linejoin="round"/>
<path d="M106.63 66.1433H93.4082V85.7867H106.63V66.1433Z" fill="white" stroke="#263238" stroke-linejoin="round"/>
<path d="M65.01 95.218L45.4355 105.377L45.8502 106.176L65.4247 96.0169L65.01 95.218Z" fill="white" stroke="#263238" stroke-linejoin="round"/>
<path d="M66.7906 65.4473H64.8789V106.177H66.7906V65.4473Z" fill="white" stroke="#263238" stroke-linejoin="round"/>
<path d="M93.4038 106.179C98.5931 106.179 102.8 101.973 102.8 96.7835C102.8 91.5942 98.5931 87.3875 93.4038 87.3875C88.2145 87.3875 84.0078 91.5942 84.0078 96.7835C84.0078 101.973 88.2145 106.179 93.4038 106.179Z" fill="#263238" stroke="#263238" stroke-linejoin="round"/>
<path d="M93.403 103.704C97.2251 103.704 100.324 100.606 100.324 96.7836C100.324 92.9615 97.2251 89.863 93.403 89.863C89.5809 89.863 86.4824 92.9615 86.4824 96.7836C86.4824 100.606 89.5809 103.704 93.403 103.704Z" fill="#EF233C" stroke="#263238" stroke-miterlimit="10"/>
<path d="M14.7016 102.145L13.9453 103.409C13.9453 103.409 12.4837 103.641 12.0893 104.14C11.6949 104.639 11.7645 106.089 11.7645 106.089H21.7428C21.8349 105.743 21.8349 105.379 21.7428 105.033L21.5108 104.303C21.5108 104.303 21.9168 102.679 21.8356 101.785H15.0009L14.7016 102.145Z" fill="#EF233C" stroke="#263238" stroke-miterlimit="10"/>
<path d="M11.7538 106.089H21.7438C21.8254 105.77 21.8326 105.437 21.7646 105.115H11.7886C11.7548 105.438 11.7432 105.764 11.7538 106.089Z" fill="white" stroke="#263238" stroke-miterlimit="10"/>
<path d="M17.6024 102.679H15.4077C15.3431 102.679 15.2811 102.653 15.2354 102.607C15.1897 102.562 15.1641 102.5 15.1641 102.435C15.1641 102.37 15.1897 102.308 15.2354 102.263C15.2811 102.217 15.3431 102.191 15.4077 102.191H17.6024C17.667 102.191 17.729 102.217 17.7746 102.263C17.8203 102.308 17.846 102.37 17.846 102.435C17.846 102.5 17.8203 102.562 17.7746 102.607C17.729 102.653 17.667 102.679 17.6024 102.679Z" fill="#263238"/>
<path d="M17.2785 103.24H15.0815C15.0169 103.24 14.9549 103.214 14.9092 103.169C14.8636 103.123 14.8379 103.061 14.8379 102.996C14.8379 102.932 14.8636 102.87 14.9092 102.824C14.9549 102.778 15.0169 102.753 15.0815 102.753H17.2762C17.3408 102.753 17.4028 102.778 17.4485 102.824C17.4941 102.87 17.5198 102.932 17.5198 102.996C17.5198 103.061 17.4941 103.123 17.4485 103.169C17.4028 103.214 17.3408 103.24 17.2762 103.24H17.2785Z" fill="#263238"/>
<path d="M16.9497 103.815H14.7573C14.6927 103.815 14.6307 103.79 14.585 103.744C14.5393 103.698 14.5137 103.636 14.5137 103.572C14.5137 103.507 14.5393 103.445 14.585 103.399C14.6307 103.354 14.6927 103.328 14.7573 103.328H16.9497C17.0143 103.328 17.0762 103.354 17.1219 103.399C17.1676 103.445 17.1933 103.507 17.1933 103.572C17.1933 103.636 17.1676 103.698 17.1219 103.744C17.0762 103.79 17.0143 103.815 16.9497 103.815Z" fill="#263238"/>
<path d="M19.3086 106.089L20.0394 104.14" stroke="#263238" stroke-miterlimit="10"/>
<path d="M47.6363 102.145L48.3926 103.409C48.3926 103.409 49.8542 103.641 50.2486 104.14C50.643 104.639 50.5734 106.089 50.5734 106.089H40.5998C40.5076 105.743 40.5076 105.379 40.5998 105.033L40.8434 104.303C40.8434 104.303 40.4373 102.679 40.5185 101.785H47.3278L47.6363 102.145Z" fill="#EF233C" stroke="#263238" stroke-miterlimit="10"/>
<path d="M50.5762 106.089H40.6002C40.5186 105.77 40.5114 105.437 40.5794 105.115H50.5554C50.5846 105.438 50.5916 105.764 50.5762 106.089Z" fill="white" stroke="#263238" stroke-miterlimit="10"/>
<path d="M44.7377 102.679H46.9325C46.9971 102.679 47.059 102.653 47.1047 102.607C47.1504 102.562 47.1761 102.5 47.1761 102.435C47.1761 102.37 47.1504 102.308 47.1047 102.263C47.059 102.217 46.9971 102.191 46.9325 102.191H44.7377C44.6731 102.191 44.6112 102.217 44.5655 102.263C44.5198 102.308 44.4941 102.37 44.4941 102.435C44.4941 102.5 44.5198 102.562 44.5655 102.607C44.6112 102.653 44.6731 102.679 44.7377 102.679Z" fill="#263238"/>
<path d="M45.062 103.24H47.2567C47.3213 103.24 47.3832 103.214 47.4289 103.169C47.4746 103.123 47.5003 103.061 47.5003 102.996C47.5003 102.932 47.4746 102.87 47.4289 102.824C47.3832 102.778 47.3213 102.753 47.2567 102.753H45.062C44.9974 102.753 44.9354 102.778 44.8897 102.824C44.844 102.87 44.8184 102.932 44.8184 102.996C44.8184 103.061 44.844 103.123 44.8897 103.169C44.9354 103.214 44.9974 103.24 45.062 103.24Z" fill="#263238"/>
<path d="M45.3862 103.815H47.5809C47.6455 103.815 47.7075 103.79 47.7531 103.744C47.7988 103.698 47.8245 103.636 47.8245 103.572C47.8245 103.507 47.7988 103.445 47.7531 103.399C47.7075 103.354 47.6455 103.328 47.5809 103.328H45.3862C45.3216 103.328 45.2596 103.354 45.2139 103.399C45.1682 103.445 45.1426 103.507 45.1426 103.572C45.1426 103.636 45.1682 103.698 45.2139 103.744C45.2596 103.79 45.3216 103.815 45.3862 103.815Z" fill="#263238"/>
<path d="M43.0316 106.089L42.3008 104.14" stroke="#263238" stroke-miterlimit="10"/>
<path d="M47.2675 99.3353C47.2675 99.1149 46.1585 98.746 46.1585 98.746C46.1585 98.746 45.7154 93.2754 45.6412 91.6514C45.5669 90.0274 43.3513 86.4036 42.9082 84.8515C42.4651 83.2994 41.2077 73.3234 40.6161 69.9223C40.0245 66.5212 38.5466 61.5703 38.5466 61.5703L38.6209 61.1272H23.7172L23.7914 61.5703C23.7914 61.5703 22.3136 66.5212 21.722 69.9223C21.1304 73.3234 19.866 83.2994 19.4298 84.8515C18.9937 86.4036 16.7711 90.0158 16.7038 91.6514C16.6365 93.287 16.1865 98.746 16.1865 98.746C16.1865 98.746 15.0798 99.1149 15.0798 99.3353C15.0798 99.5557 14.7109 102.145 14.7109 102.145H21.8078C21.8078 102.145 22.4713 100.37 22.3971 99.558C22.3229 98.746 21.8821 98.5233 22.1025 97.637C22.3229 96.7508 24.5408 89.3593 25.2066 86.8467C25.5778 85.4207 26.0215 84.0144 26.536 82.6336L31.176 67.1801L35.816 82.6336C36.3304 84.0144 36.7741 85.4207 37.1453 86.8467C37.8112 89.3593 40.0268 96.7508 40.2495 97.637C40.4722 98.5233 40.0175 98.746 39.9525 99.558C39.8876 100.37 40.5441 102.145 40.5441 102.145H47.6387C47.6387 102.145 47.2675 99.558 47.2675 99.3353Z" fill="#263238" stroke="#263238" stroke-miterlimit="10"/>
<path d="M23.7183 41.47C23.7183 41.47 21.2057 41.6185 20.5399 42.3562C19.8741 43.094 13.0834 52.1118 13.3061 53.0723C13.3131 53.1012 13.3232 53.1292 13.3363 53.1558C13.2959 53.3748 13.3102 53.6003 13.3781 53.8124C13.7493 54.9213 19.3567 59.0602 19.3567 59.0602L22.7578 57.7285L18.9461 52.8194C20.9761 51.2349 23.6441 49.0077 23.6441 49.0077L23.7183 41.47Z" fill="white"/>
<path d="M22.7571 57.7286L22.5391 57.4502V57.8144L22.7571 57.7286Z" fill="#EF233C"/>
<path d="M23.1999 42.9848H23.0143V41.5418C22.8727 41.558 22.715 41.5812 22.5503 41.609V42.9848H21.2603V41.9292C21.1791 41.9594 21.1003 41.9918 21.0283 42.0243V42.9848H20.6293V42.2702C20.5968 42.2981 20.5667 42.3282 20.5388 42.3561C20.4367 42.4698 20.1931 42.776 19.8428 43.2168H19.9217V44.9359H19.7361V43.3537L19.2721 43.9615V44.9359H18.5599L18.3882 45.1679H19.293V46.8894H18.0031V45.676L17.7711 45.9938V46.8894H17.3743V46.539C17.1423 46.8592 16.9103 47.1825 16.6783 47.5088V48.8428H16.4927V47.7686C16.335 47.989 16.1819 48.2094 16.0287 48.4275V48.8428H15.7387L15.5787 49.0748H16.0287V50.8078H14.7481V50.3253L14.5161 50.6826V50.8078H14.4372C14.3862 50.8867 14.3375 50.9633 14.2911 51.0398H14.5231V52.7613H14.1194V51.3206C13.8582 51.7309 13.6257 52.1588 13.4234 52.6012V52.7613H13.3607C13.3329 52.8362 13.3134 52.914 13.3027 52.9933H13.4234V53.9213C13.6646 54.3016 13.9583 54.646 14.2957 54.9444H14.5277V55.1532L14.7597 55.3666V54.9444H16.0403V56.4686L16.5623 56.8978H16.6899V56.9999C16.9219 57.1902 17.1539 57.3758 17.3859 57.5521V56.8978H17.7711V57.863L18.0031 58.0439V56.8978H19.2837V58.6541H19.7477V56.8978H19.9333V58.6541H20.4159L20.627 58.5706V56.8978H21.026V58.4151L21.258 58.3246V56.8978H22.1002L21.9215 56.6658H21.2603V55.8098L21.0283 55.5128V56.6728H20.6293V54.9838L19.9333 54.086V54.6962H19.7477V53.847L19.2837 53.2508V54.6962H18.0031V52.9747H19.0703L18.945 52.8123L19.0331 52.7427H18.0031V51.0398H19.2837V52.5641C19.4368 52.4458 19.5923 52.3321 19.7477 52.1975V51.0375H19.9333V52.0467L20.6293 51.4899V51.0259H21.0283V51.1558L21.4715 50.8078H21.2603V49.0864H22.5387V49.9332C22.7103 49.794 22.8658 49.6641 23.0027 49.5504V49.0864H23.1883V49.3973L23.6523 49.0191L23.7265 41.4814C23.7265 41.4814 23.5131 41.4954 23.1975 41.5302L23.1999 42.9848ZM14.5161 54.7031H14.1194V52.9817H14.5161V54.7031ZM16.0287 54.7031H14.7481V52.9817H16.0287V54.7031ZM16.0287 52.7497H14.7481V51.0398H16.0287V52.7497ZM16.6783 56.6566H16.4927V54.9351H16.6783V56.6566ZM16.6783 54.7031H16.4927V52.9817H16.6783V54.7031ZM16.6783 52.7497H16.4927V51.0398H16.6783V52.7497ZM16.6783 50.7962H16.4927V49.0748H16.6783V50.7962ZM17.7711 56.6566H17.3743V54.9351H17.7711V56.6566ZM17.7711 54.7031H17.3743V52.9817H17.7711V54.7031ZM17.7711 52.7497H17.3743V51.0398H17.7711V52.7497ZM17.7711 50.7962H17.3743V49.0748H17.7711V50.7962ZM17.7711 48.8428H17.3743V47.1214H17.7711V48.8428ZM19.7477 54.9351H19.9333V56.6566H19.7477V54.9351ZM19.2837 54.9351V56.6566H18.0031V54.9351H19.2837ZM19.2837 50.7962H18.0031V49.0748H19.2837V50.7962ZM19.2837 48.8428H18.0031V47.1214H19.2837V48.8428ZM19.9333 50.7962H19.7477V49.0748H19.9333V50.7962ZM19.9333 48.8428H19.7477V47.1214H19.9333V48.8428ZM19.9333 46.8894H19.7477V45.1679H19.9333V46.8894ZM21.0283 50.8078H20.6293V49.0864H21.0283V50.8078ZM21.0283 48.8544H20.6293V47.133H21.0283V48.8544ZM21.0283 46.901H20.6293V45.1795H21.0283V46.901ZM21.0283 44.9475H20.6293V43.2284H21.0283V44.9475ZM22.5387 48.8544H21.2603V47.133H22.5387V48.8544ZM22.5387 46.901H21.2603V45.1795H22.5387V46.901ZM22.5387 44.9475H21.2603V43.2284H22.5387V44.9475ZM23.1883 48.8544H23.0027V47.133H23.1883V48.8544ZM23.1883 46.901H23.0027V45.1795H23.1883V46.901ZM23.1883 44.9475H23.0027V43.2284H23.1883V44.9475Z" fill="#EF233C"/>
<path d="M13.3359 53.1557C13.4775 52.295 14.308 51.5642 14.308 51.5642" stroke="#263238" stroke-miterlimit="10"/>
<path d="M18.9449 52.8194L18.1074 51.7429" stroke="#263238" stroke-miterlimit="10"/>
<path d="M13.3369 53.1557C13.2965 53.3747 13.3108 53.6002 13.3787 53.8123C13.7499 54.9213 19.3573 59.0601 19.3573 59.0601L22.7584 57.7285L18.9467 52.8193" stroke="#263238" stroke-miterlimit="10"/>
<path d="M18.9461 52.8194C20.9761 51.2349 23.6441 49.0077 23.6441 49.0077L23.7183 41.47C23.7183 41.47 21.2057 41.6185 20.5399 42.3562C19.8741 43.094 13.0834 52.1118 13.3061 53.0723C13.3131 53.1012 13.3232 53.1292 13.3363 53.1558" stroke="#263238" stroke-miterlimit="10"/>
<path d="M38.9512 41.47C38.9512 41.47 41.4637 41.6185 42.1296 42.3562C42.7954 43.094 49.5861 52.1118 49.3633 53.0723C49.3564 53.1012 49.3463 53.1292 49.3332 53.1558C49.3736 53.3748 49.3593 53.6003 49.2914 53.8124C48.9202 54.9213 43.3105 59.0602 43.3105 59.0602L39.9047 57.7285L43.7165 52.8194C41.6865 51.2349 39.0185 49.0077 39.0185 49.0077L38.9512 41.47Z" fill="white"/>
<path d="M39.9121 57.7286L40.1302 57.4502V57.8144L39.9121 57.7286Z" fill="#EF233C"/>
<path d="M39.4805 42.9848H39.6661V41.5418C39.8076 41.558 39.9654 41.5812 40.1301 41.609V42.9848H41.4084V41.9292C41.4896 41.9594 41.5685 41.9918 41.6404 42.0243V42.9848H42.0395V42.2702C42.0719 42.2981 42.1021 42.3282 42.1299 42.3561C42.2297 42.4698 42.4756 42.776 42.8143 43.2168H42.7355V44.9359H42.9211V43.3537L43.3851 43.9615V44.9359H44.1182L44.2899 45.1679H43.3851V46.8894H44.6657V45.676L44.8977 45.9938V46.8894H45.2944V46.539C45.5264 46.8592 45.7584 47.1825 45.9904 47.5088V48.8428H46.176V47.7686L46.64 48.4275V48.8428H46.9277C46.9834 48.9217 47.0367 48.9982 47.0878 49.0748H46.6331V50.8078H47.9137V50.3253L48.1457 50.6826V50.8078H48.2246C48.2756 50.8867 48.3243 50.9633 48.3707 51.0398H48.1387V52.7613H48.5355V51.3206C48.7966 51.7309 49.0292 52.1588 49.2315 52.6012V52.7613H49.2941C49.3219 52.8362 49.3414 52.914 49.3521 52.9933H49.2315V53.9213C48.9902 54.3016 48.6965 54.646 48.3591 54.9444H48.1387V55.1532L47.9067 55.3666V54.9444H46.6331V56.4686L46.1111 56.8978H45.9835V56.9999C45.7515 57.1902 45.5195 57.3758 45.2875 57.5521V56.8978H44.8907V57.863L44.6587 58.0439V56.8978H43.3851V58.6541H42.9211V56.8978H42.7355V58.6541H42.2506L42.0395 58.5706V56.8978H41.6404V58.4151L41.4084 58.3246V56.8978H40.5663L40.7449 56.6658H41.4084V55.8098L41.6404 55.5128V56.6728H42.0395V54.9838L42.7355 54.086V54.6962H42.9211V53.847L43.3851 53.2508V54.6962H44.6657V52.9747H43.5985L43.7238 52.8123L43.6356 52.7427H44.6657V51.0398H43.3851V52.5641C43.2319 52.4458 43.0765 52.3321 42.9211 52.1975V51.0375H42.7355V52.0467L42.0395 51.4899V51.0259H41.6404V51.1558L41.1973 50.8078H41.4084V49.0864H40.1371V49.9332C39.9654 49.794 39.8099 49.6641 39.6731 49.5504V49.0864H39.4875V49.3973L39.0235 49.0191L38.9492 41.4814C38.9492 41.4814 39.1603 41.4954 39.4782 41.5302L39.4805 42.9848ZM48.1527 54.7031H48.5494V52.9817H48.1527V54.7031ZM46.64 54.7031H47.9207V52.9817H46.6331L46.64 54.7031ZM46.64 52.7497H47.9207V51.0398H46.6331L46.64 52.7497ZM45.9904 56.6566H46.176V54.9351H45.9904V56.6566ZM45.9904 54.7031H46.176V52.9817H45.9904V54.7031ZM45.9904 52.7497H46.176V51.0398H45.9904V52.7497ZM45.9904 50.7962H46.176V49.0748H45.9904V50.7962ZM44.8977 56.6566H45.2944V54.9351H44.8977V56.6566ZM44.8977 54.7031H45.2944V52.9817H44.8977V54.7031ZM44.8977 52.7497H45.2944V51.0398H44.8977V52.7497ZM44.8977 50.7962H45.2944V49.0748H44.8977V50.7962ZM44.8977 48.8428H45.2944V47.1214H44.8977V48.8428ZM42.9211 54.9351H42.7355V56.6566H42.9211V54.9351ZM43.3851 54.9351V56.6566H44.6657V54.9351H43.3851ZM43.3851 50.8078H44.6657V49.0864H43.3851V50.8078ZM43.3851 48.8544H44.6657V47.133H43.3851V48.8544ZM42.7355 50.8078H42.9211V49.0864H42.7355V50.8078ZM42.7355 48.8544H42.9211V47.133H42.7355V48.8544ZM42.7355 46.901H42.9211V45.1795H42.7355V46.901ZM41.6404 50.8078H42.0395V49.0864H41.6404V50.8078ZM41.6404 48.8544H42.0395V47.133H41.6404V48.8544ZM41.6404 46.901H42.0395V45.1795H41.6404V46.901ZM41.6404 44.9475H42.0395V43.2284H41.6404V44.9475ZM40.1371 48.8428H41.4154V47.1214H40.1371V48.8428ZM40.1371 46.8894H41.4154V45.1679H40.1371V46.8894ZM40.1371 44.9359H41.4154V43.2168H40.1371V44.9359ZM39.4875 48.8428H39.6731V47.1214H39.4875V48.8428ZM39.4875 46.8894H39.6731V45.1679H39.4875V46.8894ZM39.4875 44.9359H39.6731V43.2168H39.4875V44.9359Z" fill="#EF233C"/>
<path d="M49.3334 53.1557C49.1919 52.295 48.3613 51.5642 48.3613 51.5642" stroke="#263238" stroke-miterlimit="10"/>
<path d="M43.7227 52.8194L44.5602 51.7429" stroke="#263238" stroke-miterlimit="10"/>
<path d="M49.3328 53.1557C49.3732 53.3747 49.3589 53.6002 49.291 53.8123C48.9198 54.9213 43.3101 59.0601 43.3101 59.0601L39.9043 57.7285L43.7161 52.8193" stroke="#263238" stroke-miterlimit="10"/>
<path d="M43.7234 52.8194C41.6934 51.2349 39.0254 49.0077 39.0254 49.0077L38.9512 41.47C38.9512 41.47 41.4637 41.6185 42.1296 42.3562C42.7954 43.094 49.5861 52.1118 49.3633 53.0723C49.3564 53.1012 49.3463 53.1292 49.3332 53.1558" stroke="#263238" stroke-miterlimit="10"/>
<path d="M28.3005 39.6233L23.2754 41.3239L23.7928 61.5728H38.7939L39.4597 40.8065L33.2514 39.1941L28.3005 39.6233Z" fill="#EF233C" stroke="#263238" stroke-miterlimit="10"/>
<path d="M23.5625 52.6292L23.6321 55.3644H38.9928L39.081 52.6292H23.5625Z" fill="white" stroke="#263238" stroke-miterlimit="10"/>
<path d="M38.8398 60.1691L38.9256 57.4338H23.6855L23.7551 60.1691H38.8398Z" fill="white" stroke="#263238" stroke-miterlimit="10"/>
<path d="M28.6699 42.21L31.6256 50.265L34.2124 42.0615L28.6699 42.21Z" fill="white"/>
<path d="M33.4879 43.2332V44.3608L33.9519 42.8899V42.0686H33.4879V42.9966H32.2072V42.1104H31.9752V42.9896H31.5762V42.1312L30.8802 42.1498V43.0012H30.6946V42.1544L30.2306 42.1684V43.0012H29.4998C29.4418 43.0778 29.3838 43.1544 29.3281 43.2332H30.2306V44.9547H29.6761L29.762 45.1867H30.226V46.4673L30.69 47.7317V47.1401H30.8756V48.2375L31.4045 49.6782L31.5716 49.5436V49.0936H31.9706V49.1562L32.2026 48.4208V47.1401H32.6063L32.6805 46.9081H32.2026V45.1867H33.2234L33.2953 44.9547H32.2026V43.2332H33.4879ZM30.8802 46.9081H30.6946V45.1867H30.8802V46.9081ZM30.8802 44.9547H30.6946V43.2332H30.8802V44.9547ZM31.9752 48.8616H31.5762V47.1401H31.9752V48.8616ZM31.9752 46.9081H31.5762V45.1867H31.9752V46.9081ZM31.9752 44.9547H31.5762V43.2332H31.9752V44.9547Z" fill="#EF233C"/>
<path d="M34.1367 42.3028L34.211 42.0615L34.1367 42.0638V42.3028Z" fill="#EF233C"/>
<path d="M28.6699 42.21L31.6256 50.265L34.2124 42.0615L28.6699 42.21Z" stroke="#263238" stroke-miterlimit="10"/>
<path d="M40.2987 63.5679H21.5462C21.2348 63.5679 20.9824 63.8203 20.9824 64.1316V64.1873C20.9824 64.4987 21.2348 64.7511 21.5462 64.7511H40.2987C40.6101 64.7511 40.8625 64.4987 40.8625 64.1873V64.1316C40.8625 63.8203 40.6101 63.5679 40.2987 63.5679Z" fill="#B0B0B0" stroke="#263238" stroke-miterlimit="10"/>
<path d="M31.4359 97.1545H30.7051V106.177H31.4359V97.1545Z" fill="#263238" stroke="#263238" stroke-miterlimit="10"/>
<path d="M35.3204 64.6769C35.3204 62.677 33.418 62.1643 31.0702 62.1643C28.7223 62.1643 26.8223 62.677 26.8223 64.6769C26.8317 65.196 26.9605 65.7061 27.1987 66.1675C27.4369 66.629 27.778 67.0294 28.1957 67.3379C28.5325 67.5932 28.8068 67.9218 28.9977 68.2989C29.1887 68.6759 29.2912 69.0915 29.2977 69.5141V97.8041H32.8705V69.5001C32.8766 69.0797 32.9779 68.6661 33.1668 68.2904C33.3556 67.9147 33.6271 67.5867 33.9609 67.3309C34.3749 67.0215 34.7126 66.6215 34.9482 66.1614C35.1839 65.7014 35.3112 65.1936 35.3204 64.6769Z" fill="#B0B0B0" stroke="#263238" stroke-miterlimit="10"/>
<path d="M33.3721 61.9417H28.5488C28.044 61.9417 27.6348 62.3509 27.6348 62.8557V67.7324C27.6348 68.2372 28.044 68.6465 28.5488 68.6465H33.3721C33.877 68.6465 34.2862 68.2372 34.2862 67.7324V62.8557C34.2862 62.3509 33.877 61.9417 33.3721 61.9417Z" fill="#EF233C" stroke="#263238" stroke-miterlimit="10"/>
<path d="M28.1445 81.9678H34.0234L32.9516 91.8765H29.2164L28.1445 81.9678Z" fill="#EF233C" stroke="#263238" stroke-miterlimit="10"/>
<path d="M43.7449 59.4291C43.7449 59.4291 42.4156 57.9512 41.012 57.3596C39.6084 56.768 37.764 57.065 37.764 57.065L36.5089 61.7932C36.5089 61.7932 35.4741 62.1644 35.3257 62.6075C35.2213 62.923 35.3767 64.2524 35.4765 64.9901C35.4955 65.1285 35.5641 65.2553 35.6695 65.347C35.7748 65.4387 35.9098 65.4891 36.0495 65.4889H39.0957C39.0957 65.4889 39.9077 65.6374 39.9077 64.8973V63.6422C39.9077 63.6422 40.425 63.1991 40.4993 62.9021C40.5453 62.7082 40.5702 62.5098 40.5735 62.3105L43.7449 59.4291Z" fill="#EF233C" stroke="#263238" stroke-miterlimit="10"/>
<path d="M36.2809 65.4147L36.0605 62.9021" stroke="#263238" stroke-miterlimit="10"/>
<path d="M37.3164 65.4889V63.0505" stroke="#263238" stroke-miterlimit="10"/>
<path d="M38.498 65.3404V63.1248" stroke="#263238" stroke-miterlimit="10"/>
<path d="M18.2871 59.4291C18.2871 59.4291 19.6188 57.9512 21.0224 57.3596C22.426 56.768 24.2704 57.065 24.2704 57.065L25.5209 61.7932C25.5209 61.7932 26.5556 62.1644 26.7041 62.6075C26.8085 62.923 26.6507 64.2524 26.5533 64.9901C26.5342 65.1285 26.4656 65.2553 26.3603 65.347C26.2549 65.4387 26.1199 65.4891 25.9802 65.4889H22.9433C22.9433 65.4889 22.1313 65.6374 22.1313 64.8973V63.6422C22.1313 63.6422 21.614 63.1991 21.5397 62.9021C21.4937 62.7082 21.4688 62.5098 21.4655 62.3105L18.2871 59.4291Z" fill="#EF233C" stroke="#263238" stroke-miterlimit="10"/>
<path d="M25.752 65.4147L25.9724 62.9021" stroke="#263238" stroke-miterlimit="10"/>
<path d="M24.7188 65.4889V63.0505" stroke="#263238" stroke-miterlimit="10"/>
<path d="M23.5352 65.3404V63.1248" stroke="#263238" stroke-miterlimit="10"/>
<path d="M29.3419 43.0452C29.3419 43.0452 30.0727 43.6878 30.4439 43.6878H30.8127C30.8127 43.6878 31.1074 44.2794 31.5505 44.2794C31.9936 44.2794 32.2163 43.6878 32.2163 43.6878C32.5683 43.7269 32.9243 43.6758 33.2511 43.5394C33.6942 43.319 33.9911 42.5046 33.9911 42.5046L29.1191 42.5789L29.3419 43.0452Z" fill="white" stroke="#263238" stroke-miterlimit="10"/>
<path d="M35.8679 36.6304C35.8679 39.6696 34.056 42.1358 31.2279 42.1358C28.3998 42.1358 26.5879 39.6696 26.5879 36.6304C26.5879 33.5912 28.3998 30.4592 31.2279 30.4592C34.056 30.4592 35.8679 33.5889 35.8679 36.6304Z" fill="#EF233C" stroke="#263238" stroke-miterlimit="10"/>
<path d="M27.4863 39.9922C27.4863 39.9922 31.1821 41.3239 34.9521 39.9922L34.7085 41.7763C34.6527 42.13 34.4725 42.4521 34.2003 42.6848C33.9281 42.9174 33.5818 43.0453 33.2237 43.0453H29.3423C29.0033 43.0454 28.6741 42.9308 28.4084 42.7202C28.1426 42.5097 27.9559 42.2154 27.8784 41.8853L27.4863 39.9922Z" fill="#EF233C" stroke="#263238" stroke-miterlimit="10"/>
<path d="M28.8926 40.2891V39.2312C28.8909 38.9926 28.9549 38.7581 29.0777 38.5534C29.2005 38.3488 29.3773 38.182 29.5886 38.0712L31.324 37.178L32.6858 38.1199C32.8581 38.2396 32.9989 38.3991 33.0963 38.5849C33.1936 38.7707 33.2446 38.9773 33.2449 39.1871V40.2821" stroke="#263238" stroke-miterlimit="10"/>
<path d="M31.2417 32.0854H31.1953C30.9429 32.0854 30.7383 32.2901 30.7383 32.5425V38.3541C30.7383 38.6065 30.9429 38.8111 31.1953 38.8111H31.2417C31.4941 38.8111 31.6988 38.6065 31.6988 38.3541V32.5425C31.6988 32.2901 31.4941 32.0854 31.2417 32.0854Z" fill="#EF233C" stroke="#263238" stroke-miterlimit="10"/>
<path d="M3.71289 106.179H112.628" stroke="#263238" stroke-miterlimit="10"/>
</svg>
