<svg width="116" height="116" viewBox="0 0 116 116" fill="none" xmlns="http://www.w3.org/2000/svg">
<path d="M63.099 106.975C90.6341 106.975 112.956 94.2794 112.956 78.6181C112.956 62.9568 90.6341 50.2607 63.099 50.2607C35.5638 50.2607 13.2422 62.9568 13.2422 78.6181C13.2422 94.2794 35.5638 106.975 63.099 106.975Z" fill="#F5F5F5"/>
<path d="M94.7233 91.8143C101.308 91.8143 106.646 88.4676 106.646 84.3393C106.646 80.2109 101.308 76.8643 94.7233 76.8643C88.1387 76.8643 82.8008 80.2109 82.8008 84.3393C82.8008 88.4676 88.1387 91.8143 94.7233 91.8143Z" fill="#E6E6E6"/>
<path d="M16.0097 62.6398C15.8668 60.9195 15.4696 59.23 14.8311 57.6263C13.7802 55.0348 11.7687 52.4318 9.45106 51.9446C7.13338 51.4574 6.15434 53.0118 6.64154 54.543C7.06378 55.8607 8.78522 56.9558 10.0937 58.1065C11.4022 59.2572 13.8428 62.0505 14.5203 64.7255L15.8287 64.8693L16.0097 62.6398Z" fill="#EF233C"/>
<g opacity="0.15">
<path d="M16.0097 62.6398C15.8668 60.9195 15.4696 59.23 14.8311 57.6263C13.7802 55.0348 11.7687 52.4318 9.45106 51.9446C7.13338 51.4574 6.15434 53.0118 6.64154 54.543C7.06378 55.8607 8.78522 56.9558 10.0937 58.1065C11.4022 59.2572 13.8428 62.0505 14.5203 64.7255L15.8287 64.8693L16.0097 62.6398Z" fill="black"/>
</g>
<path d="M15.1104 63.8417C15.0731 63.8418 15.0372 63.8272 15.0103 63.8013C14.9835 63.7753 14.9678 63.7399 14.9666 63.7025C14.723 56.9467 8.12027 53.1697 8.04835 53.128C8.01687 53.108 7.99421 53.0768 7.985 53.0407C7.97579 53.0045 7.98073 52.9663 7.99881 52.9337C8.01689 52.9011 8.04673 52.8766 8.08225 52.8653C8.11776 52.854 8.15626 52.8567 8.18987 52.8728C8.25947 52.9122 15.0083 56.7704 15.2566 63.6863C15.2578 63.7247 15.244 63.762 15.2179 63.7902C15.1919 63.8185 15.1557 63.8353 15.1174 63.8371L15.1104 63.8417Z" fill="white"/>
<path d="M17.0512 74.5319C17.0512 74.5319 15.7009 75.3856 13.5897 75.0214C12.907 74.9306 12.2709 74.6251 11.7732 74.1491C11.228 73.5876 11.1421 73.0216 10.989 72.2699C10.9468 71.9557 10.8394 71.6538 10.6735 71.3836C10.2095 70.7619 9.31862 70.7735 8.56694 70.6111C7.49974 70.3791 6.51838 69.6135 6.20982 68.5671C5.90126 67.5208 6.40238 66.2471 7.4139 65.8342L6.1727 65.0384C5.78685 64.8119 5.43003 64.5393 5.11014 64.2264C4.79083 63.9075 4.60006 63.4822 4.57422 63.0316C4.57422 62.3728 5.06374 61.7835 5.66694 61.5144C6.28483 61.2758 6.95529 61.2069 7.60878 61.3148C8.27072 61.3958 8.92137 61.5515 9.5483 61.7788C9.71914 61.856 9.90379 61.8978 10.0912 61.9018C10.3351 61.8586 10.5636 61.7531 10.7547 61.5956C12.1745 60.6676 14.4876 60.7302 15.2485 62.498C15.3599 62.7579 15.4272 63.0363 15.5478 63.2915C15.9886 64.245 17.2298 63.9573 18.0325 64.4028C18.2845 64.5623 18.4982 64.7753 18.6586 65.0267C18.819 65.2781 18.922 65.5617 18.9605 65.8574C19.1206 66.7993 18.8585 67.8735 18.6845 68.8038C18.5105 69.7341 18.2901 70.5995 18.0372 71.4811C17.8307 72.2095 17.6033 72.9311 17.3621 73.648C17.311 73.7964 17.1997 74.4391 17.0512 74.5319Z" fill="#EF233C"/>
<path d="M17.9001 72.3562C17.1925 70.4094 16.0305 68.6596 14.5106 67.2522C14.4948 67.2183 14.4665 67.1917 14.4317 67.178C13.9938 66.7675 13.5346 66.3803 13.056 66.018C12.8751 64.7652 13.0354 63.4869 13.52 62.3176C13.5363 62.2828 13.5381 62.243 13.525 62.2069C13.512 62.1708 13.4851 62.1413 13.4504 62.125C13.4156 62.1087 13.3758 62.1069 13.3397 62.1199C13.3035 62.133 13.2741 62.1599 13.2578 62.1946C12.7773 63.322 12.5928 64.5534 12.7219 65.7721C10.7773 64.3696 8.62004 63.2887 6.33259 62.5705C6.2954 62.5611 6.25602 62.5665 6.22272 62.5856C6.18942 62.6046 6.16478 62.6358 6.15395 62.6726C6.14869 62.691 6.14718 62.7103 6.14948 62.7293C6.15179 62.7483 6.15788 62.7667 6.16739 62.7834C6.1769 62.8 6.18964 62.8146 6.20486 62.8262C6.22008 62.8379 6.23748 62.8464 6.25603 62.8512C6.31635 62.8674 10.432 64.0367 13.8378 67.0272C11.7498 66.663 9.26043 67.6698 9.14675 67.7232C9.1148 67.7352 9.08817 67.7582 9.07159 67.788C9.05502 67.8178 9.0496 67.8526 9.05629 67.886C9.06299 67.9195 9.08136 67.9495 9.10813 67.9707C9.1349 67.9918 9.16832 68.0028 9.20243 68.0016C9.22084 68.0049 9.2397 68.0049 9.25811 68.0016C9.28595 67.9877 12.2115 66.8045 14.2786 67.4471C15.7799 68.8238 16.9301 70.5396 17.6333 72.4514C17.643 72.4799 17.6615 72.5046 17.686 72.5221C17.7106 72.5396 17.74 72.5489 17.7702 72.5488H17.8189C17.8372 72.5419 17.8539 72.5314 17.8681 72.5178C17.8822 72.5043 17.8934 72.488 17.901 72.47C17.9086 72.452 17.9124 72.4326 17.9123 72.413C17.9121 72.3935 17.908 72.3741 17.9001 72.3562Z" fill="white"/>
<path d="M17.0977 74.3305C17.1223 74.6699 17.2268 74.9988 17.4026 75.2902C17.5784 75.5817 17.8205 75.8276 18.1092 76.0078L46.4016 92.336C46.7142 92.4949 47.06 92.5777 47.4108 92.5777C47.7615 92.5777 48.1073 92.4949 48.42 92.336L87.1245 69.9897C87.4289 69.8282 87.6835 69.5868 87.8611 69.2915C88.0386 68.9962 88.1324 68.6581 88.1324 68.3135C88.1324 67.969 88.0386 67.6309 87.8611 67.3356C87.6835 67.0403 87.4289 66.7989 87.1245 66.6373L58.8368 50.3045C58.5238 50.1467 58.1781 50.0645 57.8276 50.0645C57.477 50.0645 57.1314 50.1467 56.8184 50.3045L18.1092 72.6554C17.8206 72.8353 17.5786 73.0807 17.4029 73.3718C17.2271 73.6629 17.1225 73.9913 17.0977 74.3305Z" fill="#37474F"/>
<path d="M47.4037 90.3968V92.5799C47.053 92.5897 46.7056 92.5099 46.3945 92.3479L18.0951 76.0081C17.7994 75.8523 17.5502 75.6208 17.3731 75.3372C17.196 75.0537 17.0972 74.7283 17.0868 74.3941C17.0765 74.06 17.1549 73.7291 17.3141 73.4351C17.4733 73.1411 17.7075 72.8946 17.993 72.7207C17.5406 73.0455 17.5754 73.5211 18.0951 73.8204L46.3991 90.1532C46.7079 90.3183 47.0536 90.4022 47.4037 90.3968Z" fill="#263238"/>
<path d="M16.1497 72.6905C15.8687 72.4993 15.6366 72.2447 15.4722 71.9473C15.3077 71.6499 15.2156 71.318 15.2031 70.9783V37.22C15.2222 36.87 15.3235 36.5294 15.4988 36.2258C15.6742 35.9223 15.9186 35.6644 16.2123 35.473L54.9169 13.1268C55.2174 12.9673 55.5513 12.8809 55.8915 12.8744C56.2317 12.868 56.5686 12.9417 56.875 13.0897C57.156 13.2809 57.388 13.5354 57.5525 13.8329C57.7169 14.1303 57.8091 14.4622 57.8215 14.8018V48.5602C57.8025 48.9102 57.7012 49.2508 57.5258 49.5543C57.3505 49.8579 57.106 50.1158 56.8123 50.3071L18.1078 72.6557C17.8069 72.8143 17.4729 72.9 17.1329 72.9061C16.7928 72.9121 16.456 72.8383 16.1497 72.6905Z" fill="#455A64"/>
<path d="M17.9871 72.7155C17.6975 72.8454 17.383 72.9104 17.0656 72.906C16.7482 72.9016 16.4356 72.8279 16.1497 72.69C15.8687 72.4988 15.6366 72.2443 15.4722 71.9468C15.3077 71.6494 15.2156 71.3175 15.2031 70.9778V37.2195C15.2142 36.8684 15.3166 36.5261 15.5001 36.2266L17.3932 37.317C17.2113 37.6173 17.1091 37.9591 17.0962 38.3099V72.0706C17.0962 72.6691 17.486 72.9359 17.9871 72.7155Z" fill="#263238"/>
<path d="M17.0977 38.3146V72.0706C17.0977 72.7156 17.5617 72.9754 18.1092 72.6552L56.8137 50.3067C57.1074 50.1153 57.3519 49.8574 57.5272 49.5539C57.7026 49.2504 57.8039 48.9097 57.8229 48.5597V14.8014C57.8229 14.1588 57.3705 13.8966 56.8137 14.2191L18.1092 36.5653C17.8147 36.7566 17.5696 37.0148 17.3939 37.3188C17.2181 37.6228 17.1166 37.964 17.0977 38.3146Z" fill="#37474F"/>
<path d="M18.1068 73.8205L46.3992 90.1533C46.7122 90.3112 47.0579 90.3934 47.4084 90.3934C47.759 90.3934 48.1046 90.3112 48.4176 90.1533L87.1222 67.8071C87.6813 67.4846 87.6813 66.9626 87.1222 66.6471L58.8344 50.3143C58.5214 50.1564 58.1758 50.0742 57.8252 50.0742C57.4747 50.0742 57.129 50.1564 56.816 50.3143L18.1068 72.6559C17.5477 72.9761 17.5477 73.4981 18.1068 73.8205Z" fill="#455A64"/>
<path d="M18.6508 38.4407L55.968 16.8995C56.3021 16.707 56.5735 16.8647 56.5735 17.2498V46.4818C56.5619 46.6919 56.5011 46.8962 56.3959 47.0784C56.2907 47.2606 56.1441 47.4154 55.968 47.5305L18.6508 69.0601C18.3144 69.2526 18.043 69.0972 18.043 68.7098V39.4778C18.0559 39.2694 18.1176 39.0669 18.2232 38.8868C18.3288 38.7066 18.4753 38.5538 18.6508 38.4407Z" fill="#FAFAFA"/>
<path d="M21.39 72.9453L57.3175 52.1999C57.4737 52.1199 57.6466 52.0781 57.8221 52.0781C57.9976 52.0781 58.1706 52.1199 58.3267 52.1999L60.1642 53.2601C60.2245 53.2813 60.2768 53.3207 60.3137 53.3728C60.3507 53.425 60.3706 53.4873 60.3706 53.5513C60.3706 53.6152 60.3507 53.6776 60.3137 53.7297C60.2768 53.7819 60.2245 53.8213 60.1642 53.8424L24.232 74.5855C24.0758 74.6656 23.9029 74.7073 23.7274 74.7073C23.5519 74.7073 23.379 74.6656 23.2228 74.5855L21.39 73.5276C21.3297 73.5065 21.2774 73.4671 21.2404 73.4149C21.2035 73.3628 21.1836 73.3004 21.1836 73.2365C21.1836 73.1725 21.2035 73.1102 21.2404 73.058C21.2774 73.0059 21.3297 72.9665 21.39 72.9453Z" fill="#37474F"/>
<path d="M26.1242 75.6805L62.0518 54.9374C62.2083 54.8585 62.3811 54.8174 62.5564 54.8174C62.7316 54.8174 62.9045 54.8585 63.061 54.9374L74.364 61.4636C74.4243 61.4847 74.4766 61.5241 74.5136 61.5763C74.5505 61.6284 74.5704 61.6908 74.5704 61.7547C74.5704 61.8187 74.5505 61.881 74.5136 61.9332C74.4766 61.9854 74.4243 62.0247 74.364 62.0459L38.4782 82.7589C38.3215 82.8384 38.1482 82.8798 37.9725 82.8798C37.7967 82.8798 37.6235 82.8384 37.4667 82.7589L26.1266 76.2629C26.065 76.2431 26.0113 76.2043 25.9732 76.1522C25.935 76.1 25.9143 76.0372 25.9141 75.9725C25.9138 75.9079 25.934 75.8449 25.9717 75.7924C26.0095 75.74 26.0629 75.7008 26.1242 75.6805Z" fill="#263238"/>
<path d="M58.3313 64.2646L59.4541 63.6173C59.5028 63.5895 59.5005 63.5431 59.4541 63.5129L58.1526 62.7612C58.125 62.747 58.0944 62.7396 58.0633 62.7396C58.0322 62.7396 58.0016 62.747 57.974 62.7612L56.8488 63.4108C56.8001 63.4364 56.8024 63.4828 56.8488 63.5129L58.148 64.2646C58.1763 64.2792 58.2077 64.2869 58.2396 64.2869C58.2715 64.2869 58.3029 64.2792 58.3313 64.2646ZM56.111 61.6848L54.9835 62.339C54.9348 62.3668 54.9394 62.4132 54.9835 62.4434L56.2827 63.1928C56.3107 63.207 56.3417 63.2145 56.3732 63.2145C56.4046 63.2145 56.4356 63.207 56.4637 63.1928L57.5889 62.5432C57.6353 62.5153 57.6329 62.4689 57.5889 62.4388L56.2873 61.6894C56.26 61.6755 56.2298 61.6683 56.1992 61.6683C56.1685 61.6683 56.1383 61.6755 56.111 61.6894V61.6848ZM52.4756 63.8006L50.5732 64.898C50.5245 64.9258 50.5268 64.9722 50.5732 65.0024L51.8724 65.754C51.9006 65.7678 51.9315 65.7749 51.9629 65.7749C51.9942 65.7749 52.0251 65.7678 52.0533 65.754L53.9557 64.6567C54.0045 64.6288 53.9998 64.5824 53.9557 64.5523L52.6635 63.8006C52.6346 63.7852 52.6023 63.7771 52.5695 63.7771C52.5368 63.7771 52.5045 63.7852 52.4756 63.8006ZM54.4661 62.6406L53.3409 63.2902C53.2945 63.318 53.2969 63.3644 53.3409 63.3946L54.6425 64.1463C54.6702 64.16 54.7008 64.1671 54.7318 64.1671C54.7627 64.1671 54.7933 64.16 54.8211 64.1463L55.9463 63.4967C55.9927 63.4688 55.9904 63.4224 55.9463 63.3946L54.6448 62.6406C54.6172 62.6264 54.5865 62.6189 54.5555 62.6189C54.5244 62.6189 54.4938 62.6264 54.4661 62.6406ZM50.0581 65.1926L48.9329 65.8399C48.8865 65.8677 48.8889 65.9141 48.9329 65.9443L50.2345 66.696C50.2621 66.7102 50.2927 66.7176 50.3238 66.7176C50.3548 66.7176 50.3855 66.7102 50.4131 66.696L51.5383 66.0464C51.5847 66.0208 51.5824 65.9744 51.5383 65.9443L50.2321 65.1926C50.2045 65.1784 50.1739 65.1709 50.1428 65.1709C50.1117 65.1709 50.0811 65.1784 50.0535 65.1926H50.0581ZM48.4132 66.1415L47.2904 66.7911C47.2417 66.8166 47.244 66.863 47.2904 66.8932L48.5919 67.6448C48.6197 67.6585 48.6502 67.6657 48.6812 67.6657C48.7122 67.6657 48.7428 67.6585 48.7705 67.6448L49.8957 66.9952C49.9445 66.9674 49.9398 66.921 49.8957 66.8908L48.5965 66.1392C48.5678 66.1234 48.5356 66.1149 48.5029 66.1145C48.4701 66.1141 48.4377 66.1218 48.4086 66.1368L48.4132 66.1415ZM53.5312 69.1946L54.6564 68.545C54.7028 68.5172 54.7005 68.4708 54.6564 68.4406L53.3549 67.6912C53.3272 67.677 53.2966 67.6696 53.2655 67.6696C53.2345 67.6696 53.2038 67.677 53.1762 67.6912L52.051 68.3408C52.0023 68.3687 52.0069 68.4151 52.051 68.4452L53.3502 69.1946C53.378 69.2074 53.4083 69.2136 53.4389 69.2128C53.4695 69.212 53.4995 69.2042 53.5265 69.19L53.5312 69.1946ZM51.8863 70.1435L53.0115 69.4939C53.0602 69.466 53.0556 69.4196 53.0115 69.3895L51.7123 68.6401C51.6843 68.6259 51.6533 68.6184 51.6218 68.6184C51.5904 68.6184 51.5594 68.6259 51.5313 68.6401L50.4061 69.2897C50.3597 69.3176 50.3621 69.364 50.4061 69.3941L51.7077 70.1458C51.7353 70.1577 51.7653 70.1633 51.7954 70.162C51.8256 70.1608 51.855 70.1529 51.8817 70.1388L51.8863 70.1435ZM50.2414 71.0924L51.3666 70.4428C51.4153 70.4149 51.413 70.3685 51.3666 70.3407L50.0674 69.589C50.0398 69.5748 50.0092 69.5673 49.9781 69.5673C49.947 69.5673 49.9164 69.5748 49.8888 69.589L48.7636 70.2386C48.7149 70.2664 48.7172 70.3128 48.7636 70.343L50.0651 71.0947C50.0925 71.1062 50.122 71.1116 50.1517 71.1104C50.1814 71.1092 50.2104 71.1014 50.2368 71.0877L50.2414 71.0924ZM48.5989 72.0412L49.7241 71.3916C49.7705 71.3661 49.7681 71.3197 49.7241 71.2896L48.4109 70.5286C48.3833 70.5144 48.3527 70.5069 48.3216 70.5069C48.2905 70.5069 48.2599 70.5144 48.2323 70.5286L47.1071 71.1759C47.0584 71.2037 47.063 71.2501 47.1071 71.2803L48.4063 72.032C48.4348 72.0481 48.4669 72.057 48.4997 72.0578C48.5324 72.0586 48.5649 72.0513 48.5942 72.0366L48.5989 72.0412ZM56.691 65.2251L57.8162 64.5755C57.8626 64.5476 57.8603 64.5012 57.8162 64.4711L56.5147 63.7194C56.4869 63.7057 56.4564 63.6986 56.4254 63.6986C56.3944 63.6986 56.3638 63.7057 56.3361 63.7194L55.2109 64.369C55.1645 64.3968 55.1668 64.4432 55.2109 64.4711L56.5124 65.2228C56.5397 65.2354 56.5695 65.2417 56.5996 65.2413C56.6297 65.2409 56.6594 65.2338 56.6864 65.2204L56.691 65.2251ZM55.1737 68.2411L57.684 66.7911C57.7327 66.7632 57.7281 66.7168 57.684 66.689L54.5195 64.8655C54.4915 64.8512 54.4605 64.8438 54.429 64.8438C54.3976 64.8438 54.3666 64.8512 54.3385 64.8655L53.0417 65.6148C52.9929 65.6427 52.9953 65.6891 53.0417 65.7192L54.7121 66.6844C54.7654 66.7145 54.7677 66.7609 54.7121 66.7864L53.675 67.3873C53.6263 67.4152 53.6286 67.4616 53.675 67.4917L54.9765 68.2411C55.0059 68.2578 55.0391 68.2665 55.0728 68.2665C55.1066 68.2665 55.1397 68.2578 55.1691 68.2411H55.1737ZM46.7707 67.0811L45.6455 67.7307C45.5968 67.7585 45.6014 67.8049 45.6455 67.8328L46.9447 68.5844C46.9727 68.5987 47.0037 68.6061 47.0352 68.6061C47.0666 68.6061 47.0976 68.5987 47.1257 68.5844L48.2485 67.9348C48.2973 67.907 48.2949 67.8606 48.2485 67.8304L46.947 67.0788C46.9184 67.0657 46.8871 67.0596 46.8557 67.0608C46.8243 67.062 46.7936 67.0705 46.7661 67.0857L46.7707 67.0811ZM45.1258 68.03L44.0006 68.6796C43.9542 68.7074 43.9565 68.7538 44.0006 68.784L45.3021 69.5333C45.3298 69.5476 45.3604 69.555 45.3915 69.555C45.4225 69.555 45.4532 69.5476 45.4808 69.5333L46.606 68.8837C46.6524 68.8559 46.6501 68.8095 46.606 68.7793L45.3045 68.03C45.2759 68.0156 45.2442 68.0086 45.2122 68.0094C45.1803 68.0102 45.149 68.0188 45.1212 68.0346L45.1258 68.03ZM36.9107 78.6741C36.9385 78.6878 36.969 78.695 37 78.695C37.031 78.695 37.0616 78.6878 37.0893 78.6741L38.2145 78.0245C38.2633 77.9967 38.2609 77.9503 38.2145 77.9224L36.9153 77.1708C36.8871 77.157 36.8562 77.1499 36.8249 77.1499C36.7935 77.1499 36.7626 77.157 36.7344 77.1708L35.6115 77.8204C35.5628 77.8482 35.5651 77.8946 35.6115 77.9248L36.9107 78.6741ZM31.9691 75.6326L30.8439 76.2822C30.7975 76.31 30.7998 76.3564 30.8439 76.3866L32.1454 77.136C32.173 77.1502 32.2037 77.1576 32.2347 77.1576C32.2658 77.1576 32.2964 77.1502 32.3241 77.136L33.4493 76.4864C33.4957 76.4585 33.4933 76.4121 33.4493 76.382L32.1477 75.6326C32.1201 75.6184 32.0895 75.6109 32.0584 75.6109C32.0273 75.6109 31.9967 75.6184 31.9691 75.6326ZM34.6162 77.8598C34.644 77.8735 34.6746 77.8806 34.7055 77.8806C34.7365 77.8806 34.7671 77.8735 34.7949 77.8598L35.9201 77.2102C35.9665 77.1824 35.9641 77.136 35.9201 77.1058L34.6185 76.3541C34.5909 76.3399 34.5603 76.3324 34.5292 76.3324C34.4981 76.3324 34.4675 76.3399 34.4399 76.3541L33.3147 77.0037C33.2683 77.0316 33.2706 77.0756 33.3147 77.1058L34.6162 77.8598ZM39.8084 79.2518L40.9336 78.6022C40.9823 78.5767 40.9777 78.5303 40.9336 78.5001L39.6344 77.7484C39.6063 77.7342 39.5753 77.7267 39.5439 77.7267C39.5124 77.7267 39.4814 77.7342 39.4534 77.7484L38.3282 78.3957C38.2818 78.4236 38.2841 78.47 38.3282 78.5001L39.6297 79.2518C39.6572 79.2664 39.6877 79.2742 39.7188 79.2746C39.7498 79.275 39.7806 79.268 39.8084 79.2541V79.2518ZM37.9849 80.1984C38.013 80.2121 38.044 80.2192 38.0753 80.2192C38.1067 80.2192 38.1376 80.2121 38.1658 80.1984L39.2887 79.5488C39.3374 79.5209 39.3351 79.4745 39.2887 79.4444L37.9872 78.6927C37.9596 78.6784 37.9289 78.671 37.8979 78.671C37.8668 78.671 37.8362 78.6784 37.8085 78.6927L36.6787 79.3446C36.63 79.3701 36.6323 79.4165 36.6787 79.4467L37.9849 80.1984ZM33.614 74.6768L32.4888 75.3264C32.4401 75.3542 32.4424 75.4006 32.4888 75.4284L33.788 76.1801C33.8156 76.1944 33.8462 76.2018 33.8773 76.2018C33.9084 76.2018 33.939 76.1944 33.9666 76.1801L35.0918 75.5305C35.1405 75.5027 35.1382 75.4563 35.0918 75.4261L33.7903 74.6744C33.7625 74.6618 33.7321 74.6557 33.7016 74.6565C33.6711 74.6573 33.6411 74.665 33.614 74.6791V74.6768ZM41.8337 69.93L40.7085 70.5796C40.6598 70.6075 40.6645 70.6539 40.7085 70.684L42.0077 71.4334C42.0358 71.4477 42.0668 71.4551 42.0982 71.4551C42.1297 71.4551 42.1607 71.4477 42.1887 71.4334L43.3139 70.7838C43.3603 70.756 43.358 70.7096 43.3139 70.6794L42.0124 69.93C41.9846 69.9162 41.9538 69.9091 41.9228 69.9095C41.8917 69.9099 41.8612 69.9178 41.8337 69.9324V69.93ZM35.2635 73.7302L34.1383 74.3798C34.0919 74.4076 34.0942 74.454 34.1383 74.4819L35.4398 75.2336C35.4674 75.2478 35.4981 75.2552 35.5291 75.2552C35.5602 75.2552 35.5908 75.2478 35.6185 75.2336L36.7437 74.584C36.7924 74.5561 36.7877 74.5097 36.7437 74.4796L35.4445 73.7279C35.4161 73.7145 35.3851 73.7078 35.3537 73.7082C35.3224 73.7086 35.2915 73.7161 35.2635 73.7302ZM43.4833 68.9835L42.3604 69.6331C42.3117 69.6609 42.314 69.7073 42.3604 69.7375L43.6619 70.4868C43.6895 70.5011 43.7201 70.5085 43.7512 70.5085C43.7823 70.5085 43.8129 70.5011 43.8405 70.4868L44.9657 69.8372C45.0145 69.8094 45.0121 69.763 44.9657 69.7328L43.6665 68.9835C43.6373 68.9676 43.6046 68.9593 43.5714 68.9593C43.5382 68.9593 43.5055 68.9676 43.4763 68.9835H43.4833ZM40.1958 70.8812L39.0706 71.5308C39.0242 71.5587 39.0265 71.6051 39.0706 71.6352L40.3675 72.3846C40.3953 72.3983 40.4258 72.4054 40.4568 72.4054C40.4878 72.4054 40.5184 72.3983 40.5461 72.3846L41.6713 71.735C41.7201 71.7072 41.7154 71.6608 41.6713 71.6329L40.3675 70.8859C40.3402 70.8709 40.3098 70.8627 40.2787 70.8619C40.2477 70.8611 40.2168 70.8677 40.1889 70.8812H40.1958ZM38.5533 71.8301L37.4281 72.4797C37.3793 72.5076 37.3817 72.554 37.4281 72.5841L38.7296 73.3358C38.7572 73.35 38.7878 73.3575 38.8189 73.3575C38.85 73.3575 38.8806 73.35 38.9082 73.3358L40.0334 72.6862C40.0821 72.6584 40.0798 72.612 40.0334 72.5841L38.7319 71.8324C38.7034 71.8172 38.6717 71.8091 38.6394 71.8087C38.6071 71.8083 38.5752 71.8156 38.5463 71.8301H38.5533ZM36.9084 72.7813L35.7832 73.4309C35.7345 73.4564 35.7391 73.5028 35.7832 73.533L37.0824 74.2847C37.1104 74.2989 37.1414 74.3064 37.1729 74.3064C37.2043 74.3064 37.2353 74.2989 37.2633 74.2847L38.3885 73.6374C38.4349 73.6096 38.4326 73.5632 38.3885 73.533L37.087 72.7813C37.0585 72.7659 37.0266 72.7578 36.9942 72.7578C36.9618 72.7578 36.9299 72.7659 36.9014 72.7813H36.9084ZM45.3114 73.9413L46.4366 73.2917C46.4853 73.2639 46.483 73.2175 46.4366 73.1873L45.1351 72.4356C45.1073 72.4219 45.0767 72.4148 45.0458 72.4148C45.0148 72.4148 44.9842 72.4219 44.9565 72.4356L43.8313 73.0852C43.7825 73.1131 43.7849 73.1595 43.8313 73.1873L45.1328 73.939C45.1597 73.9517 45.1891 73.9582 45.2189 73.9578C45.2486 73.9574 45.2779 73.9501 45.3045 73.9367L45.3114 73.9413ZM59.7511 59.5968L58.6259 60.2464C58.5795 60.2742 58.5818 60.3206 58.6259 60.3484L59.9274 61.1001C59.955 61.1144 59.9857 61.1218 60.0167 61.1218C60.0478 61.1218 60.0784 61.1144 60.106 61.1001L61.2313 60.4505C61.28 60.4227 61.2753 60.3763 61.2313 60.3461L59.932 59.5944C59.9031 59.5792 59.871 59.5711 59.8384 59.5707C59.8057 59.5703 59.7734 59.5776 59.7441 59.5921L59.7511 59.5968ZM57.7605 60.7452L56.6377 61.3948C56.5889 61.4226 56.5913 61.469 56.6377 61.4992L57.9392 62.2485C57.9668 62.2628 57.9974 62.2702 58.0285 62.2702C58.0596 62.2702 58.0902 62.2628 58.1178 62.2485L59.243 61.5989C59.2917 61.5711 59.2894 61.5247 59.243 61.4945L57.9438 60.7452C57.915 60.7286 57.8825 60.7195 57.8493 60.7187C57.8161 60.7179 57.7832 60.7254 57.7536 60.7405L57.7605 60.7452ZM61.396 58.6572L60.2708 59.3068C60.2221 59.3323 60.2267 59.3787 60.2708 59.4088L61.57 60.1605C61.5982 60.1743 61.6291 60.1814 61.6604 60.1814C61.6918 60.1814 61.7228 60.1743 61.7509 60.1605L62.8761 59.5109C62.9225 59.4831 62.9202 59.4367 62.8761 59.4065L61.5746 58.6548C61.5471 58.6376 61.5157 58.6275 61.4833 58.6255C61.4509 58.6234 61.4185 58.6296 61.389 58.6432L61.396 58.6572ZM52.8862 67.4314L54.0114 66.7818C54.0578 66.754 54.0555 66.7076 54.0114 66.6774L52.7099 65.928C52.6823 65.9138 52.6516 65.9064 52.6206 65.9064C52.5895 65.9064 52.5589 65.9138 52.5312 65.928L51.4061 66.5776C51.3597 66.6055 51.362 66.6519 51.4061 66.682L52.7076 67.4314C52.7353 67.4424 52.7653 67.4469 52.795 67.4444C52.8248 67.442 52.8536 67.4328 52.8793 67.4175L52.8862 67.4314ZM63.2195 57.7106C63.1915 57.6963 63.1605 57.6889 63.129 57.6889C63.0976 57.6889 63.0666 57.6963 63.0385 57.7106L61.9157 58.3579C61.8669 58.3857 61.8693 58.4321 61.9157 58.4623L63.2172 59.214C63.2448 59.2282 63.2754 59.2356 63.3065 59.2356C63.3376 59.2356 63.3682 59.2282 63.3958 59.214L64.521 58.5644C64.5697 58.5388 64.5674 58.4924 64.521 58.4623L63.2195 57.7106ZM46.9563 72.9994L48.0815 72.3521C48.1302 72.3243 48.1256 72.2779 48.0815 72.2477L46.7823 71.496C46.7543 71.4818 46.7233 71.4743 46.6918 71.4743C46.6604 71.4743 46.6294 71.4818 46.6013 71.496L45.4715 72.1294C45.4251 72.1549 45.4274 72.2013 45.4715 72.2315L46.773 72.9832C46.8002 72.9974 46.8303 73.005 46.8609 73.0054C46.8915 73.0058 46.9218 72.999 46.9493 72.9855L46.9563 72.9994ZM67.1171 61.36L68.2423 60.7104C68.291 60.6825 68.2864 60.6361 68.2423 60.6083L66.9431 59.8566C66.9151 59.8423 66.8841 59.8349 66.8526 59.8349C66.8212 59.8349 66.7902 59.8423 66.7621 59.8566L65.6393 60.5062C65.5905 60.534 65.5928 60.5804 65.6393 60.6106L66.9408 61.3623C66.9685 61.3721 66.998 61.3757 67.0272 61.3729C67.0565 61.3701 67.0848 61.3609 67.1101 61.346L67.1171 61.36ZM63.6162 61.237L64.7414 60.5874C64.7878 60.5596 64.7855 60.5132 64.7414 60.483L63.4399 59.7336C63.4123 59.7194 63.3816 59.712 63.3506 59.712C63.3195 59.712 63.2889 59.7194 63.2612 59.7336L62.136 60.3832C62.0873 60.4111 62.092 60.4575 62.136 60.4876L63.4352 61.237C63.4634 61.248 63.4937 61.2525 63.5239 61.2501C63.554 61.2477 63.5832 61.2384 63.6092 61.2231L63.6162 61.237ZM65.0778 58.7848C65.0498 58.7705 65.0188 58.7631 64.9873 58.7631C64.9559 58.7631 64.9249 58.7705 64.8969 58.7848L63.774 59.4344C63.7253 59.4622 63.7276 59.5086 63.774 59.5388L65.0755 60.2881C65.1031 60.3024 65.1337 60.3098 65.1648 60.3098C65.1959 60.3098 65.2265 60.3024 65.2541 60.2881L66.3793 59.6385C66.4281 59.6107 66.4257 59.5643 66.3793 59.5341L65.0778 58.7848ZM65.4235 58.5829L68.5833 60.4088C68.6111 60.4225 68.6417 60.4296 68.6727 60.4296C68.7036 60.4296 68.7342 60.4225 68.762 60.4088L69.8872 59.7592C69.9336 59.7313 69.9313 59.6849 69.8872 59.6571L66.7273 57.8312C66.6996 57.8175 66.669 57.8104 66.638 57.8104C66.607 57.8104 66.5765 57.8175 66.5487 57.8312L65.4235 58.4808C65.3632 58.4948 65.3655 58.5412 65.4235 58.569V58.5829ZM61.6094 60.6709L60.4842 61.3205C60.4378 61.3484 60.4401 61.3948 60.4842 61.4249L61.7857 62.1743C61.8134 62.1885 61.844 62.196 61.875 62.196C61.9061 62.196 61.9368 62.1885 61.9644 62.1743L63.0896 61.5247C63.1383 61.4968 63.1337 61.4504 63.0896 61.4203L61.7904 60.6709C61.762 60.6544 61.7301 60.6451 61.6973 60.6439C61.6645 60.6427 61.6319 60.6496 61.6025 60.664L61.6094 60.6709ZM49.2299 67.8072L48.1047 68.4568C48.056 68.4847 48.0606 68.5311 48.1047 68.5612L49.4039 69.3129C49.4319 69.3272 49.4629 69.3346 49.4944 69.3346C49.5258 69.3346 49.5568 69.3272 49.5849 69.3129L50.7077 68.6633C50.7565 68.6355 50.7541 68.5914 50.7077 68.5612L49.4155 67.8119C49.3872 67.7963 49.3556 67.7878 49.3233 67.787C49.291 67.7861 49.2589 67.7931 49.2299 67.8072ZM65.2866 62.2926C65.3146 62.3069 65.3456 62.3143 65.3771 62.3143C65.4085 62.3143 65.4395 62.3069 65.4676 62.2926L66.5928 61.643C66.6392 61.6175 66.6369 61.5711 66.5928 61.5409L65.2843 60.7846C65.2565 60.7709 65.226 60.7638 65.195 60.7638C65.164 60.7638 65.1334 60.7709 65.1057 60.7846L63.9805 61.4342C63.9317 61.462 63.9364 61.5084 63.9805 61.5386L65.2866 62.2926ZM50.8725 66.8584L49.7496 67.508C49.7009 67.5358 49.7032 67.5822 49.7496 67.6124L51.0511 68.364C51.0789 68.3777 51.1094 68.3849 51.1404 68.3849C51.1714 68.3849 51.202 68.3777 51.2297 68.364L52.3549 67.7144C52.4037 67.6866 52.4013 67.6402 52.3549 67.6124L51.0557 66.8607C51.0276 66.8457 50.9963 66.8376 50.9644 66.8372C50.9325 66.8368 50.901 66.8441 50.8725 66.8584ZM38.5509 77.7206C38.5787 77.7343 38.6093 77.7414 38.6403 77.7414C38.6712 77.7414 38.7018 77.7343 38.7296 77.7206L39.8548 77.071C39.9012 77.0432 39.8989 76.9968 39.8548 76.9689L38.5533 76.2172C38.5256 76.203 38.495 76.1956 38.4639 76.1956C38.4329 76.1956 38.4022 76.203 38.3746 76.2172L37.2494 76.8668C37.203 76.8947 37.2053 76.9411 37.2494 76.9712L38.5509 77.7206ZM36.0778 75.4006L34.9526 76.0479C34.9039 76.0757 34.9062 76.1221 34.9526 76.1523L36.2518 76.904C36.2798 76.9182 36.3108 76.9257 36.3423 76.9257C36.3737 76.9257 36.4047 76.9182 36.4328 76.904L37.5557 76.2544C37.6044 76.2288 37.6021 76.1824 37.5557 76.1523L36.2565 75.4006C36.2288 75.3864 36.1982 75.3789 36.1671 75.3789C36.1361 75.3789 36.1054 75.3864 36.0778 75.4006ZM40.3675 76.7926L41.4904 76.143C41.5391 76.1152 41.5368 76.0688 41.4904 76.0386L40.1889 75.2892C40.1612 75.275 40.1306 75.2676 40.0995 75.2676C40.0685 75.2676 40.0378 75.275 40.0102 75.2892L38.885 75.9388C38.8363 75.9667 38.8386 76.0131 38.885 76.0432L40.1842 76.7926C40.2125 76.8072 40.244 76.8149 40.2759 76.8149C40.3077 76.8149 40.3392 76.8072 40.3675 76.7926ZM42.0101 75.8437L43.1353 75.1941C43.184 75.1663 43.1793 75.1199 43.1353 75.0897L41.8361 74.3404C41.808 74.3261 41.777 74.3187 41.7456 74.3187C41.7141 74.3187 41.6831 74.3261 41.6551 74.3404L40.5299 74.99C40.4835 75.0178 40.4858 75.0642 40.5299 75.0944L41.8314 75.8437C41.8607 75.8577 41.893 75.8642 41.9254 75.8626C41.9578 75.861 41.9893 75.8513 42.017 75.8344L42.0101 75.8437ZM43.6549 74.8948L44.7801 74.2452C44.8265 74.2174 44.8242 74.171 44.7801 74.1408L43.4786 73.3892C43.4508 73.3754 43.4203 73.3683 43.3893 73.3683C43.3583 73.3683 43.3278 73.3754 43.3 73.3892L42.1748 74.0388C42.1261 74.0666 42.1307 74.113 42.1748 74.1408L43.474 74.8925C43.5035 74.9069 43.536 74.9138 43.5688 74.9126C43.6016 74.9114 43.6336 74.9021 43.6619 74.8856L43.6549 74.8948ZM37.7134 74.461L36.5882 75.1106C36.5418 75.1384 36.5441 75.1848 36.5882 75.215L37.8897 75.9667C37.9175 75.9804 37.9481 75.9875 37.9791 75.9875C38.01 75.9875 38.0406 75.9804 38.0684 75.9667L39.1936 75.3171C39.2423 75.2892 39.2377 75.2428 39.1936 75.215L37.8944 74.4633C37.868 74.4488 37.8387 74.4402 37.8087 74.4382C37.7786 74.4362 37.7485 74.4408 37.7204 74.4517L37.7134 74.461ZM39.3583 73.5121L38.2331 74.1617C38.1844 74.1896 38.189 74.236 38.2331 74.2661L39.5323 75.0178C39.5605 75.0315 39.5914 75.0387 39.6228 75.0387C39.6541 75.0387 39.6851 75.0315 39.7133 75.0178L40.8385 74.3682C40.8849 74.3404 40.8825 74.294 40.8385 74.2661L39.5369 73.5144C39.5111 73.4995 39.4822 73.4907 39.4524 73.4887C39.4227 73.4867 39.3928 73.4915 39.3653 73.5028L39.3583 73.5121ZM45.9355 69.7073L44.8126 70.3569C44.7639 70.3848 44.7662 70.4312 44.8126 70.459L46.1141 71.2107C46.1418 71.2249 46.1724 71.2323 46.2035 71.2323C46.2345 71.2323 46.2652 71.2249 46.2928 71.2107L47.418 70.5611C47.4667 70.5332 47.4644 70.4868 47.418 70.4567L46.1188 69.705C46.0901 69.6912 46.0587 69.6843 46.0269 69.6847C45.9951 69.6851 45.9638 69.6928 45.9355 69.7073ZM44.2929 70.6562L43.1677 71.3058C43.119 71.3336 43.1237 71.38 43.1677 71.4079L44.4669 72.1596C44.495 72.1738 44.526 72.1812 44.5574 72.1812C44.5889 72.1812 44.6199 72.1738 44.6479 72.1596L45.7731 71.51C45.8195 71.4821 45.8172 71.4357 45.7731 71.4056L44.4716 70.6539C44.4442 70.6413 44.4144 70.6349 44.3843 70.6353C44.3542 70.6357 44.3246 70.6429 44.2976 70.6562H44.2929ZM47.5804 68.7584L46.4552 69.408C46.4088 69.4336 46.4111 69.48 46.4552 69.5101L47.7567 70.2618C47.7843 70.276 47.8149 70.2835 47.846 70.2835C47.8771 70.2835 47.9077 70.276 47.9353 70.2618L49.0605 69.6145C49.1069 69.5867 49.1046 69.5403 49.0605 69.5101L47.759 68.7584C47.732 68.745 47.7022 68.7379 47.672 68.7379C47.6418 68.7379 47.612 68.745 47.585 68.7584H47.5804ZM41.0055 72.554L39.8803 73.2036C39.8316 73.2314 39.8339 73.2778 39.8803 73.308L41.1818 74.0573C41.2094 74.0716 41.2401 74.079 41.2711 74.079C41.3022 74.079 41.3328 74.0716 41.3605 74.0573L42.4857 73.4077C42.5344 73.3799 42.5321 73.3335 42.4857 73.3033L41.1841 72.554C41.1571 72.5405 41.1273 72.5335 41.0971 72.5335C41.0669 72.5335 41.0372 72.5405 41.0101 72.554H41.0055ZM42.6481 71.6051L41.5229 72.2547C41.4765 72.2825 41.4788 72.3289 41.5229 72.3591L42.8244 73.1084C42.852 73.1227 42.8826 73.1301 42.9137 73.1301C42.9448 73.1301 42.9754 73.1227 43.003 73.1084L44.1282 72.4588C44.1769 72.431 44.1723 72.3846 44.1282 72.3544L42.8267 71.6051C42.7997 71.5916 42.7699 71.5846 42.7397 71.5846C42.7095 71.5846 42.6797 71.5916 42.6527 71.6051H42.6481ZM41.4486 78.3052L42.5738 77.6556C42.6202 77.6278 42.6179 77.5814 42.5738 77.5536L41.27 76.7926C41.2424 76.7784 41.2117 76.7709 41.1807 76.7709C41.1496 76.7709 41.119 76.7784 41.0913 76.7926L39.9661 77.4422C39.9174 77.47 39.9221 77.5164 39.9661 77.5466L41.2653 78.2983C41.2939 78.3142 41.3258 78.3232 41.3585 78.3244C41.3911 78.3256 41.4236 78.319 41.4533 78.3052H41.4486ZM31.7997 77.3308L30.5005 76.5815C30.4725 76.5672 30.4415 76.5598 30.4101 76.5598C30.3786 76.5598 30.3476 76.5672 30.3196 76.5815L29.1944 77.2311C29.148 77.2589 29.1503 77.3053 29.1944 77.3355L30.4959 78.0848C30.5235 78.0991 30.5541 78.1065 30.5852 78.1065C30.6163 78.1065 30.6469 78.0991 30.6745 78.0848L31.7997 77.4352C31.8601 77.4074 31.8554 77.361 31.8044 77.3308H31.7997ZM34.2636 78.0547L32.9644 77.303C32.9362 77.2893 32.9052 77.2821 32.8739 77.2821C32.8425 77.2821 32.8116 77.2893 32.7834 77.303L31.0527 78.3006C31.0063 78.3284 31.0086 78.3748 31.0527 78.405L32.3542 79.1567C32.3818 79.1709 32.4125 79.1784 32.4435 79.1784C32.4746 79.1784 32.5052 79.1709 32.5329 79.1567L34.2636 78.1591C34.3355 78.1312 34.3193 78.0848 34.2682 78.0547H34.2636ZM29.8045 75.8808L28.5053 75.1292C28.4773 75.1149 28.4463 75.1075 28.4149 75.1075C28.3834 75.1075 28.3524 75.1149 28.3244 75.1292L26.9324 75.9296C26.886 75.9574 26.8883 76.0038 26.9324 76.0316L28.2339 76.7833C28.2615 76.7976 28.2921 76.805 28.3232 76.805C28.3543 76.805 28.3849 76.7976 28.4125 76.7833L29.8045 75.9829C29.8649 75.9551 29.8602 75.9087 29.8092 75.8808H29.8045ZM30.8671 75.266C30.8947 75.2803 30.9253 75.2877 30.9564 75.2877C30.9875 75.2877 31.0181 75.2803 31.0457 75.266L32.1709 74.6164C32.2173 74.5886 32.215 74.5422 32.1709 74.512L30.8671 73.7766C30.8395 73.7624 30.8088 73.7549 30.7778 73.7549C30.7467 73.7549 30.7161 73.7624 30.6885 73.7766L29.5633 74.4262C29.5169 74.454 29.5192 74.5004 29.5633 74.5306L30.8671 75.266ZM36.5604 78.8806L35.2635 78.1266C35.2359 78.1124 35.2053 78.1049 35.1742 78.1049C35.1431 78.1049 35.1125 78.1124 35.0849 78.1266L32.9203 79.3748C32.8739 79.4026 32.8762 79.449 32.9203 79.4792L34.2218 80.2285C34.2494 80.2428 34.2801 80.2502 34.3111 80.2502C34.3422 80.2502 34.3728 80.2428 34.4005 80.2285L36.5627 78.9804C36.6137 78.9548 36.6114 78.9084 36.5604 78.8806ZM37.6392 80.4025L36.3377 79.6508C36.3099 79.6371 36.2793 79.63 36.2483 79.63C36.2174 79.63 36.1868 79.6371 36.159 79.6508L34.767 80.4489C34.7206 80.4768 34.7229 80.5232 34.767 80.5533L36.0685 81.305C36.0963 81.3187 36.1269 81.3258 36.1579 81.3258C36.1888 81.3258 36.2194 81.3187 36.2472 81.305L37.6392 80.5069C37.6925 80.4768 37.6902 80.4304 37.6392 80.4002V80.4025ZM43.0935 68.2086C43.1217 68.2223 43.1526 68.2295 43.184 68.2295C43.2153 68.2295 43.2463 68.2223 43.2745 68.2086L44.3997 67.559C44.4461 67.5312 44.4437 67.4848 44.3997 67.4569L43.0981 66.7052C43.0705 66.691 43.0399 66.6836 43.0088 66.6836C42.9777 66.6836 42.9471 66.691 42.9195 66.7052L41.7943 67.3548C41.7456 67.3827 41.7502 67.4291 41.7943 67.4592L43.0935 68.2086ZM39.8061 70.1064C39.8341 70.1206 39.8651 70.1281 39.8965 70.1281C39.928 70.1281 39.959 70.1206 39.987 70.1064L41.1099 69.4568C41.1586 69.4312 41.1563 69.3848 41.1099 69.3547L39.8084 68.603C39.7806 68.5893 39.75 68.5822 39.7191 68.5822C39.6881 68.5822 39.6575 68.5893 39.6297 68.603L38.5115 69.2526C38.4628 69.2804 38.4651 69.3268 38.5115 69.357L39.8061 70.1064ZM32.5143 74.3148C32.5423 74.3291 32.5733 74.3365 32.6048 74.3365C32.6362 74.3365 32.6672 74.3291 32.6953 74.3148L33.8181 73.6652C33.8669 73.6374 33.8645 73.591 33.8181 73.5608L32.5166 72.8115C32.489 72.7972 32.4584 72.7898 32.4273 72.7898C32.3962 72.7898 32.3656 72.7972 32.338 72.8115L31.2128 73.4611C31.1641 73.4889 31.1687 73.5353 31.2128 73.5655L32.5143 74.3148ZM41.4509 69.1575C41.4787 69.1712 41.5093 69.1783 41.5403 69.1783C41.5712 69.1783 41.6018 69.1712 41.6296 69.1575L42.7548 68.5079C42.8035 68.48 42.7989 68.4336 42.7548 68.4058L41.4556 67.6541C41.4275 67.6399 41.3965 67.6324 41.3651 67.6324C41.3336 67.6324 41.3026 67.6399 41.2746 67.6541L40.1494 68.3037C40.103 68.3316 40.1053 68.378 40.1494 68.4081L41.4509 69.1575ZM38.1635 71.0552C38.1911 71.0695 38.2217 71.0769 38.2528 71.0769C38.2839 71.0769 38.3145 71.0695 38.3421 71.0552L39.4673 70.408C39.5137 70.3801 39.5114 70.3337 39.4673 70.3036L38.1658 69.5519C38.1382 69.5376 38.1076 69.5302 38.0765 69.5302C38.0454 69.5302 38.0148 69.5376 37.9872 69.5519L36.862 70.2015C36.8156 70.227 36.8179 70.2734 36.862 70.3036L38.1635 71.0552ZM38.544 80.5208C38.5159 80.5066 38.4849 80.4991 38.4535 80.4991C38.422 80.4991 38.391 80.5066 38.363 80.5208L36.6323 81.5208C36.5859 81.5486 36.5882 81.595 36.6323 81.6228L37.9338 82.3745C37.9614 82.3888 37.9921 82.3962 38.0231 82.3962C38.0542 82.3962 38.0848 82.3888 38.1125 82.3745L39.8432 81.3746C39.8896 81.3468 39.8873 81.3004 39.8432 81.2702L38.544 80.5208ZM35.8041 72.4171C35.8318 72.4308 35.8624 72.4379 35.8934 72.4379C35.9244 72.4379 35.9549 72.4308 35.9827 72.4171L37.1079 71.7675C37.1543 71.7396 37.152 71.6932 37.1079 71.6631L35.8064 70.9114C35.7786 70.8977 35.748 70.8906 35.7171 70.8906C35.6861 70.8906 35.6555 70.8977 35.6277 70.9114L34.5025 71.561C34.4561 71.5888 34.4585 71.6352 34.5025 71.6631L35.8041 72.4171ZM34.1592 73.366C34.1868 73.3802 34.2174 73.3876 34.2485 73.3876C34.2796 73.3876 34.3102 73.3802 34.3378 73.366L35.463 72.7164C35.5117 72.6885 35.5094 72.6421 35.463 72.612L34.1638 71.8603C34.1356 71.8465 34.1047 71.8394 34.0733 71.8394C34.042 71.8394 34.011 71.8465 33.9829 71.8603L32.86 72.5099C32.8113 72.5377 32.8136 72.5841 32.86 72.612L34.1592 73.366ZM69.0009 62.926C68.9733 62.9117 68.9427 62.9043 68.9116 62.9043C68.8805 62.9043 68.8499 62.9117 68.8223 62.926L66.0522 64.5244C66.0058 64.5523 66.0081 64.5987 66.0522 64.6288L67.3537 65.3805C67.3815 65.3942 67.4121 65.4014 67.4431 65.4014C67.474 65.4014 67.5046 65.3942 67.5324 65.3805L70.3071 63.8006C70.3558 63.7728 70.3535 63.7264 70.3071 63.6985L69.0009 62.926ZM65.3655 65.014C65.3377 65.0003 65.3071 64.9931 65.2762 64.9931C65.2452 64.9931 65.2146 65.0003 65.1869 65.014L64.0617 65.6636C64.0153 65.6914 64.0176 65.7378 64.0617 65.7656L65.3632 66.5173C65.3909 66.531 65.4215 66.5382 65.4525 66.5382C65.4835 66.5382 65.514 66.531 65.5418 66.5173L66.667 65.8677C66.7134 65.8399 66.7111 65.7935 66.667 65.7633L65.3655 65.014ZM43.0935 77.3355L44.2187 76.6859C44.2674 76.658 44.2651 76.6116 44.2187 76.5838L42.9195 75.8646C42.8919 75.8504 42.8612 75.8429 42.8302 75.8429C42.7991 75.8429 42.7685 75.8504 42.7409 75.8646L41.6157 76.5142C41.5669 76.542 41.5693 76.5884 41.6157 76.6186L42.9172 77.3703C42.946 77.3819 42.9771 77.3866 43.0081 77.3842C43.0391 77.3818 43.0691 77.3723 43.0958 77.3564L43.0935 77.3355ZM62.0757 66.914C62.0481 66.8998 62.0175 66.8924 61.9864 66.8924C61.9553 66.8924 61.9247 66.8998 61.8971 66.914L60.7719 67.5636C60.7232 67.5915 60.7278 67.6379 60.7719 67.668L62.0711 68.4174C62.0991 68.4317 62.1301 68.4391 62.1616 68.4391C62.193 68.4391 62.224 68.4317 62.252 68.4174L63.3773 67.7678C63.4236 67.74 63.4213 67.6936 63.3773 67.6634L62.0757 66.914ZM70.6435 61.9678C70.6155 61.9535 70.5845 61.9461 70.553 61.9461C70.5216 61.9461 70.4906 61.9535 70.4625 61.9678L69.3373 62.6174C69.2909 62.6452 69.2933 62.6916 69.3373 62.7218L70.6389 63.4712C70.6665 63.4854 70.6971 63.4928 70.7282 63.4928C70.7592 63.4928 70.7899 63.4854 70.8175 63.4712L71.9427 62.8216C71.9914 62.7937 71.9868 62.7473 71.9427 62.7172L70.6435 61.9678ZM73.5876 61.7683L70.4277 59.9448C70.4001 59.9305 70.3695 59.9231 70.3384 59.9231C70.3073 59.9231 70.2767 59.9305 70.2491 59.9448L69.1239 60.5944C69.0752 60.6199 69.0798 60.6663 69.1239 60.6964L72.2814 62.52C72.3094 62.5342 72.3404 62.5417 72.3719 62.5417C72.4033 62.5417 72.4343 62.5342 72.4624 62.52L73.5876 61.8704C73.6433 61.8657 73.6409 61.8193 73.5899 61.7892L73.5876 61.7683ZM55.9324 70.459C55.9046 70.4453 55.874 70.4382 55.8431 70.4382C55.8121 70.4382 55.7815 70.4453 55.7537 70.459L54.3617 71.2571C54.313 71.2849 54.3177 71.3313 54.3617 71.3615L55.6609 72.1132C55.6891 72.1269 55.7201 72.134 55.7514 72.134C55.7828 72.134 55.8137 72.1269 55.8419 72.1132L57.2339 71.3151C57.2803 71.2872 57.278 71.2408 57.2339 71.2107L55.9324 70.459ZM60.0875 68.0833C60.0599 68.0691 60.0292 68.0616 59.9982 68.0616C59.9671 68.0616 59.9365 68.0691 59.9089 68.0833L58.1781 69.0832C58.1317 69.1111 58.1341 69.1575 58.1781 69.1876L59.4797 69.937C59.5073 69.9512 59.5379 69.9587 59.569 69.9587C59.6001 69.9587 59.6307 69.9512 59.6583 69.937L61.389 68.9371C61.4354 68.9092 61.4331 68.8628 61.389 68.835L60.0875 68.0833ZM52.1276 72.6792C52.1 72.665 52.0693 72.6576 52.0382 72.6576C52.0072 72.6576 51.9766 72.665 51.9489 72.6792L42.6898 78.0152C42.6411 78.0431 42.6457 78.0895 42.6898 78.1196L43.989 78.8713C44.0172 78.8851 44.0481 78.8922 44.0795 78.8922C44.1108 78.8922 44.1418 78.8851 44.17 78.8713L53.4268 73.5353C53.4755 73.5075 53.4732 73.4611 53.4268 73.4332L52.1276 72.6792ZM42.3511 78.3238C42.3231 78.3095 42.2921 78.3021 42.2606 78.3021C42.2292 78.3021 42.1982 78.3095 42.1701 78.3238L40.7781 79.1219C40.7317 79.1497 40.7341 79.1961 40.7781 79.2263L42.0797 79.9756C42.1073 79.9899 42.1379 79.9973 42.169 79.9973C42.2 79.9973 42.2307 79.9899 42.2583 79.9756L43.6503 79.1752C43.699 79.1497 43.6944 79.1033 43.6503 79.0732L42.3511 78.3238ZM54.0323 71.5796C54.0043 71.5653 53.9733 71.5579 53.9418 71.5579C53.9104 71.5579 53.8794 71.5653 53.8513 71.5796L52.4593 72.3776C52.4106 72.4055 52.4129 72.4519 52.4593 72.482L53.7609 73.2314C53.7885 73.2456 53.8191 73.2531 53.8502 73.2531C53.8812 73.2531 53.9119 73.2456 53.9395 73.2314L55.3315 72.431C55.3802 72.4055 55.3756 72.3591 55.3315 72.3289L54.0323 71.5796ZM40.4464 79.4235C40.4188 79.4092 40.3881 79.4018 40.3571 79.4018C40.326 79.4018 40.2954 79.4092 40.2677 79.4235L38.8757 80.2239C38.827 80.2517 38.8317 80.2981 38.8757 80.3283L40.1749 81.0776C40.203 81.0919 40.234 81.0993 40.2654 81.0993C40.2969 81.0993 40.3279 81.0919 40.3559 81.0776L41.7479 80.2772C41.7966 80.2494 41.7943 80.203 41.7479 80.1752L40.4464 79.4235ZM57.8464 69.3825C57.8183 69.3683 57.7873 69.3608 57.7559 69.3608C57.7244 69.3608 57.6934 69.3683 57.6654 69.3825L56.2734 70.1829C56.2247 70.2108 56.227 70.2572 56.2734 70.285L57.5749 71.0367C57.6027 71.0504 57.6333 71.0575 57.6643 71.0575C57.6952 71.0575 57.7258 71.0504 57.7536 71.0367L59.1456 70.2363C59.1943 70.2084 59.1897 70.162 59.1456 70.1319L57.8464 69.3825ZM63.7299 65.9837C63.7017 65.97 63.6708 65.9628 63.6394 65.9628C63.6081 65.9628 63.5771 65.97 63.5489 65.9837L62.426 66.6333C62.3773 66.6612 62.3797 66.7076 62.426 66.7354L63.7276 67.4871C63.7552 67.5013 63.7858 67.5088 63.8169 67.5088C63.848 67.5088 63.8786 67.5013 63.9062 67.4871L65.0314 66.8375C65.0801 66.8096 65.0778 66.7632 65.0314 66.7331L63.7299 65.9837ZM67.3329 63.3691L68.4557 62.7195C68.5045 62.6916 68.5021 62.6452 68.4557 62.6151L67.1542 61.8657C67.1266 61.8515 67.096 61.844 67.0649 61.844C67.0338 61.844 67.0032 61.8515 66.9756 61.8657L65.8504 62.5153C65.8017 62.5432 65.804 62.5896 65.8504 62.6197L67.1496 63.3691C67.177 63.3826 67.2072 63.3896 67.2377 63.3896C67.2683 63.3896 67.2985 63.3826 67.3259 63.3691H67.3329ZM59.9808 63.3204L61.106 62.6708C61.1547 62.6452 61.1501 62.5988 61.106 62.5687L59.8068 61.817C59.7786 61.8033 59.7476 61.7961 59.7163 61.7961C59.6849 61.7961 59.654 61.8033 59.6258 61.817L58.5006 62.4666C58.4542 62.4944 58.4565 62.5408 58.5006 62.571L59.8021 63.3227C59.829 63.3354 59.8585 63.3418 59.8882 63.3414C59.918 63.341 59.9473 63.3338 59.9738 63.3204H59.9808ZM56.2688 69.763L59.5562 67.8652C59.6026 67.8374 59.6003 67.791 59.5562 67.7608L58.2315 67.0092C58.2037 66.9954 58.1732 66.9883 58.1422 66.9883C58.1112 66.9883 58.0806 66.9954 58.0529 67.0092L54.7631 68.9046C54.7144 68.9324 54.7167 68.9788 54.7631 69.009L56.0623 69.7584C56.0908 69.7745 56.1229 69.7834 56.1557 69.7842C56.1884 69.785 56.2209 69.7777 56.2502 69.763H56.2688ZM65.5209 64.3133C65.5486 64.3276 65.5792 64.335 65.6102 64.335C65.6413 64.335 65.672 64.3276 65.6996 64.3133L66.8248 63.6637C66.8712 63.6359 66.8689 63.5895 66.8248 63.5593L65.5233 62.81C65.4956 62.7957 65.465 62.7883 65.4339 62.7883C65.4029 62.7883 65.3722 62.7957 65.3446 62.81L64.2194 63.4596C64.173 63.4874 64.1753 63.5338 64.2194 63.564L65.5209 64.3133ZM63.8413 63.2461L64.9665 62.5965C65.0129 62.5687 65.0105 62.5223 64.9665 62.4921L63.6649 61.7404C63.6373 61.7262 63.6067 61.7188 63.5756 61.7188C63.5445 61.7188 63.5139 61.7262 63.4863 61.7404L62.3611 62.39C62.3147 62.4156 62.317 62.462 62.3611 62.4921L63.6626 63.2438C63.6877 63.2551 63.7149 63.2611 63.7424 63.2615C63.7699 63.2619 63.7973 63.2567 63.8227 63.2461H63.8413ZM54.6239 70.7119L55.7491 70.0623C55.7955 70.0344 55.7932 69.988 55.7491 69.9602L54.4476 69.2085C54.42 69.1943 54.3893 69.1868 54.3583 69.1868C54.3272 69.1868 54.2966 69.1943 54.2689 69.2085L53.1437 69.8581C53.0973 69.886 53.0997 69.9324 53.1437 69.9625L54.4453 70.7142C54.4707 70.7247 54.498 70.73 54.5255 70.7296C54.5531 70.7292 54.5802 70.7232 54.6053 70.7119H54.6239ZM61.8855 66.4129C61.9131 66.4272 61.9437 66.4346 61.9748 66.4346C62.0059 66.4346 62.0365 66.4272 62.0641 66.4129L63.1893 65.7633C63.2381 65.7355 63.2357 65.6891 63.1893 65.6612L61.8878 64.9096C61.86 64.8958 61.8295 64.8887 61.7985 64.8887C61.7675 64.8887 61.7369 64.8958 61.7092 64.9096L60.584 65.5592C60.5353 65.587 60.5376 65.6334 60.584 65.6636L61.8855 66.4129ZM46.4041 75.4609L47.5293 74.8113C47.5757 74.7835 47.5734 74.7371 47.5293 74.7069L46.2278 73.9576C46.2002 73.9433 46.1696 73.9359 46.1385 73.9359C46.1074 73.9359 46.0768 73.9433 46.0492 73.9576L44.924 74.6072C44.8753 74.635 44.8799 74.6814 44.924 74.7116L46.2232 75.4609C46.2489 75.4719 46.2766 75.4774 46.3046 75.477C46.3326 75.4766 46.3602 75.4704 46.3856 75.4586L46.4041 75.4609ZM48.0467 74.512L49.1719 73.8624C49.2206 73.8346 49.2183 73.7882 49.1719 73.758L47.8727 73.0064C47.8449 72.9926 47.8144 72.9855 47.7834 72.9855C47.7524 72.9855 47.7218 72.9926 47.6941 73.0064L46.5689 73.656C46.5201 73.6838 46.5225 73.7302 46.5689 73.758L47.8704 74.5097C47.8946 74.5201 47.9206 74.5254 47.9469 74.5254C47.9732 74.5254 47.9993 74.5201 48.0235 74.5097L48.0467 74.512ZM44.7593 76.4098L45.8845 75.7602C45.9332 75.7324 45.9285 75.686 45.8845 75.6558L44.5853 74.9064C44.5572 74.8922 44.5262 74.8847 44.4948 74.8847C44.4633 74.8847 44.4323 74.8922 44.4043 74.9064L43.2791 75.556C43.2327 75.5839 43.235 75.6303 43.2791 75.6604L44.5806 76.4098C44.6059 76.4208 44.6333 76.4262 44.6609 76.4258C44.6885 76.4254 44.7157 76.4192 44.7407 76.4075L44.7593 76.4098ZM51.3179 72.6166L52.4408 71.9693C52.4895 71.9415 52.4872 71.8951 52.4408 71.8649L51.1393 71.1132C51.1116 71.099 51.081 71.0916 51.0499 71.0916C51.0189 71.0916 50.9882 71.099 50.9606 71.1132L49.8354 71.7628C49.7867 71.7884 49.7913 71.8348 49.8354 71.8649L51.1346 72.6166C51.1629 72.6312 51.1944 72.6389 51.2263 72.6389C51.2581 72.6389 51.2896 72.6312 51.3179 72.6166ZM49.673 73.5678L50.7982 72.9182C50.8446 72.8904 50.8423 72.844 50.7982 72.8138L49.4967 72.0621C49.4689 72.0484 49.4383 72.0413 49.4074 72.0413C49.3764 72.0413 49.3458 72.0484 49.3181 72.0621L48.1929 72.7117C48.1465 72.7396 48.1488 72.786 48.1929 72.8138L49.4944 73.5655C49.5225 73.5785 49.5533 73.5848 49.5842 73.584C49.6152 73.5832 49.6456 73.5753 49.673 73.5608V73.5678ZM52.9605 71.6677L54.0857 71.0181C54.1344 70.9903 54.1297 70.9439 54.0857 70.916L52.7865 70.1644C52.7583 70.1506 52.7273 70.1435 52.696 70.1435C52.6646 70.1435 52.6337 70.1506 52.6055 70.1644L51.4826 70.814C51.4339 70.8418 51.4362 70.8882 51.4826 70.9184L52.7841 71.67C52.8123 71.682 52.8428 71.6873 52.8734 71.6857C52.9039 71.6841 52.9337 71.6756 52.9605 71.6608V71.6677ZM60.4819 57.6271C60.5099 57.6413 60.5409 57.6488 60.5724 57.6488C60.6038 57.6488 60.6348 57.6413 60.6629 57.6271L61.788 56.9775C61.8344 56.952 61.8321 56.9056 61.788 56.8754L61.4424 56.6759C61.4143 56.6616 61.3833 56.6542 61.3519 56.6542C61.3204 56.6542 61.2894 56.6616 61.2614 56.6759L60.1362 57.3255C60.0898 57.3533 60.0921 57.3997 60.1362 57.4299L60.4819 57.6271ZM52.3944 62.8471C52.422 62.8613 52.4526 62.8688 52.4837 62.8688C52.5148 62.8688 52.5454 62.8613 52.573 62.8471L53.6982 62.1975C53.7446 62.1696 53.7423 62.1232 53.6982 62.0931L52.3967 61.3437C52.3691 61.3295 52.3384 61.322 52.3074 61.322C52.2763 61.322 52.2457 61.3295 52.2181 61.3437L51.0929 61.9933C51.0465 62.0212 51.0488 62.0676 51.0929 62.0977L52.3944 62.8471ZM55.6795 60.9424C55.7071 60.9566 55.7377 60.964 55.7688 60.964C55.7999 60.964 55.8305 60.9566 55.8581 60.9424L56.9833 60.2928C57.0321 60.2649 57.0274 60.2185 56.9833 60.1884L55.6841 59.4367C55.656 59.4229 55.625 59.4158 55.5937 59.4158C55.5623 59.4158 55.5314 59.4229 55.5032 59.4367L54.378 60.0863C54.3316 60.1141 54.3339 60.1605 54.378 60.1884L55.6795 60.9424ZM50.3829 64.0001C50.4111 64.0139 50.4421 64.021 50.4734 64.021C50.5048 64.021 50.5357 64.0139 50.5639 64.0001L51.6891 63.3505C51.7355 63.3227 51.7332 63.2763 51.6891 63.2461L50.3876 62.4944C50.3598 62.4807 50.3292 62.4736 50.2983 62.4736C50.2673 62.4736 50.2367 62.4807 50.2089 62.4944L49.0837 63.144C49.035 63.1696 49.0397 63.216 49.0837 63.2461L50.3829 64.0001ZM54.0346 61.8912C54.0626 61.9055 54.0936 61.9129 54.1251 61.9129C54.1565 61.9129 54.1875 61.9055 54.2156 61.8912L55.3385 61.2416C55.3872 61.2138 55.3849 61.1674 55.3385 61.1372L54.0369 60.3879C54.0093 60.3736 53.9787 60.3662 53.9476 60.3662C53.9165 60.3662 53.8859 60.3736 53.8583 60.3879L52.7331 61.0375C52.6844 61.0653 52.6867 61.1117 52.7331 61.1419L54.0346 61.8912ZM47.0955 65.8886C47.1231 65.9028 47.1537 65.9103 47.1848 65.9103C47.2159 65.9103 47.2465 65.9028 47.2741 65.8886L48.3993 65.239C48.4481 65.2112 48.4457 65.1648 48.3993 65.1346L47.0955 64.3992C47.0679 64.3849 47.0372 64.3775 47.0062 64.3775C46.9751 64.3775 46.9445 64.3849 46.9169 64.3992L45.7917 65.0488C45.7429 65.0766 45.7453 65.123 45.7917 65.1532L47.0955 65.8886ZM48.7427 64.9606C48.7703 64.9748 48.8009 64.9823 48.832 64.9823C48.8631 64.9823 48.8937 64.9748 48.9213 64.9606L50.0465 64.311C50.0953 64.2832 50.0906 64.2368 50.0465 64.2066L48.745 63.4549C48.7172 63.4412 48.6867 63.4341 48.6557 63.4341C48.6247 63.4341 48.5942 63.4412 48.5664 63.4549L47.4412 64.1045C47.3948 64.1324 47.3971 64.1788 47.4412 64.2066L48.7427 64.9606ZM57.1945 59.5295C57.2221 59.5437 57.2527 59.5511 57.2838 59.5511C57.3148 59.5511 57.3455 59.5437 57.3731 59.5295L58.4983 58.8799C58.547 58.852 58.5447 58.8056 58.4983 58.7755L58.1526 58.576C58.125 58.5617 58.0944 58.5543 58.0633 58.5543C58.0322 58.5543 58.0016 58.5617 57.974 58.576L56.8488 59.2256C56.8001 59.2534 56.8047 59.2998 56.8488 59.33L57.1945 59.5295ZM62.1268 56.6828C62.1546 56.6965 62.1851 56.7037 62.2161 56.7037C62.2471 56.7037 62.2776 56.6965 62.3054 56.6828L63.4306 56.0332C63.4793 56.0054 63.477 55.959 63.4306 55.9312L63.0849 55.7316C63.0573 55.7174 63.0267 55.71 62.9956 55.71C62.9645 55.71 62.9339 55.7174 62.9063 55.7316L61.7811 56.3812C61.7324 56.4091 61.737 56.4555 61.7811 56.4856L62.1268 56.6828ZM64.8597 58.2604C64.8875 58.2741 64.9181 58.2813 64.949 58.2813C64.98 58.2813 65.0106 58.2741 65.0384 58.2604L66.1636 57.6108C66.2123 57.583 66.2077 57.5366 66.1636 57.5088L64.862 56.7571C64.8344 56.7428 64.8038 56.7354 64.7727 56.7354C64.7417 56.7354 64.711 56.7428 64.6834 56.7571L63.5582 57.4067C63.5118 57.4345 63.5141 57.4809 63.5582 57.5111L64.8597 58.2604ZM68.9685 62.4364L70.0937 61.7868C70.1424 61.759 70.1377 61.7126 70.0937 61.6824L68.7945 60.9308C68.7663 60.917 68.7353 60.9099 68.704 60.9099C68.6726 60.9099 68.6417 60.917 68.6135 60.9308L67.4883 61.5804C67.4419 61.6082 67.4442 61.6546 67.4883 61.6824L68.7898 62.4341C68.8185 62.4463 68.8497 62.4513 68.8808 62.4489C68.9119 62.4465 68.942 62.4366 68.9685 62.4202V62.4364ZM58.8393 58.5852C58.8671 58.5989 58.8977 58.6061 58.9287 58.6061C58.9596 58.6061 58.9902 58.5989 59.018 58.5852L60.1432 57.9356C60.1896 57.9078 60.1872 57.8614 60.1432 57.8312L59.7975 57.6317C59.7699 57.6175 59.7392 57.61 59.7082 57.61C59.6771 57.61 59.6465 57.6175 59.6189 57.6317L58.4937 58.2813C58.4449 58.3092 58.4473 58.3556 58.4937 58.3857L58.8393 58.5852ZM45.4529 66.863C45.481 66.8773 45.512 66.8847 45.5434 66.8847C45.5749 66.8847 45.6059 66.8773 45.6339 66.863L46.7591 66.2134C46.8055 66.1856 46.8032 66.1392 46.7591 66.109L45.4576 65.3596C45.43 65.3454 45.3993 65.338 45.3683 65.338C45.3372 65.338 45.3066 65.3454 45.2789 65.3596L44.1537 66.0092C44.105 66.0371 44.1097 66.0835 44.1537 66.1136L45.4529 66.863Z" fill="#455A64"/>
<path d="M52.7469 76.7153L63.8481 70.2959C64.0359 70.2009 64.2433 70.1514 64.4537 70.1514C64.664 70.1514 64.8715 70.2009 65.0592 70.2959L71.4253 73.9707C71.7593 74.1656 71.7593 74.4788 71.4253 74.6667L60.3217 81.0885C60.1344 81.1846 59.9268 81.2347 59.7162 81.2347C59.5056 81.2347 59.2981 81.1846 59.1107 81.0885L52.7446 77.4136C52.4129 77.2211 52.4129 76.9079 52.7469 76.7153Z" fill="#263238"/>
<path d="M55.1719 20.2357V21.9316L29.9048 36.5197C29.7308 36.6195 29.5893 36.5383 29.5893 36.3365L29.6078 35.7286C29.4572 35.6685 29.302 35.6204 29.1438 35.5848L21.576 39.9533C21.4838 40.0139 21.4071 40.0951 21.3519 40.1906C21.2967 40.2861 21.2646 40.3931 21.2582 40.5032V41.1435C21.2528 41.2536 21.2215 41.3608 21.1666 41.4564C21.1118 41.552 21.035 41.6332 20.9426 41.6933L20.0703 42.1968V40.5032C20.0756 40.3931 20.107 40.2858 20.1618 40.1902C20.2167 40.0947 20.2935 40.0135 20.3858 39.9533L54.8564 20.0524C55.0304 19.9526 55.1719 20.0338 55.1719 20.2357Z" fill="#EF233C"/>
<path d="M55.1742 45.6304C55.1683 45.7403 55.1364 45.8473 55.0812 45.9424C55.0259 46.0376 54.9489 46.1183 54.8564 46.178L20.3858 66.0789C20.2118 66.181 20.0703 66.0975 20.0703 65.8956V42.1968L20.9426 41.6934C21.1166 41.5936 21.4066 40.0555 21.576 39.9534L29.1438 35.5848C29.3178 35.4851 29.7308 36.6196 29.9048 36.5128L55.1719 21.9316V45.6304H55.1742Z" fill="#EBEBEB"/>
<path d="M21.5772 48.6927L36.7176 39.944C36.8916 39.8419 37.0331 39.9255 37.0331 40.1273V55.0078C37.0278 55.1179 36.9964 55.2251 36.9416 55.3207C36.8867 55.4163 36.8099 55.4975 36.7176 55.5576L21.5772 64.3063C21.4032 64.4061 21.2617 64.3249 21.2617 64.1231V49.2426C21.267 49.1325 21.2984 49.0252 21.3532 48.9296C21.4081 48.8341 21.4849 48.7529 21.5772 48.6927Z" fill="#FAFAFA"/>
<path d="M21.5772 44.7626L53.6698 26.235C53.8438 26.1329 53.9853 26.2165 53.9853 26.4183V28.6478C53.9797 28.7575 53.9481 28.8643 53.8933 28.9595C53.8384 29.0546 53.7619 29.1355 53.6698 29.1953L21.5772 47.7252C21.4032 47.825 21.2617 47.7437 21.2617 47.5419V45.3124C21.267 45.2023 21.2984 45.0951 21.3532 44.9995C21.4081 44.9039 21.4849 44.8227 21.5772 44.7626Z" fill="#455A64"/>
<path d="M42.0859 34.6891V35.2784C42.0859 35.4014 42.1718 35.4501 42.2762 35.3898L51.6049 30.0027V28.9727L42.2762 34.3597C42.2209 34.3959 42.1749 34.4446 42.1419 34.5018C42.1088 34.559 42.0897 34.6232 42.0859 34.6891Z" fill="#FAFAFA"/>
<path d="M52.6054 28.395C52.7121 28.3347 52.7956 28.395 52.7956 28.504V29.0956C52.7923 29.1617 52.7733 29.226 52.7402 29.2833C52.7071 29.3405 52.6609 29.3891 52.6054 29.4251L51.6055 30.0027V28.9727L52.6054 28.395Z" fill="#EF233C"/>
<path d="M52.5301 29.2046L52.4164 29.1698C52.4284 29.1228 52.4346 29.0745 52.4349 29.026C52.4391 28.9818 52.432 28.9373 52.4141 28.8967C52.3962 28.8561 52.3683 28.8207 52.3329 28.794C52.3083 28.7793 52.2803 28.7715 52.2517 28.7715C52.2231 28.7715 52.195 28.7793 52.1705 28.794C52.0977 28.8474 52.0388 28.9173 51.9984 28.998C51.9581 29.0787 51.9375 29.1678 51.9385 29.258C51.9347 29.3021 51.9421 29.3465 51.9599 29.387C51.9777 29.4275 52.0055 29.463 52.0405 29.49C52.0626 29.5021 52.0873 29.5085 52.1125 29.5085C52.1446 29.5076 52.1758 29.498 52.2029 29.4807C52.2863 29.4244 52.3496 29.3432 52.3839 29.2487L52.4953 29.2835H52.5069C52.5156 29.2839 52.5242 29.2814 52.5313 29.2763C52.5385 29.2713 52.5437 29.264 52.5463 29.2557C52.55 29.2466 52.5504 29.2365 52.5474 29.2272C52.5445 29.2179 52.5383 29.2099 52.5301 29.2046ZM52.1705 29.4181C52.1585 29.4252 52.1449 29.429 52.131 29.429C52.1171 29.429 52.1035 29.4252 52.0916 29.4181C52.069 29.397 52.0518 29.3709 52.0413 29.3418C52.0308 29.3128 52.0274 29.2817 52.0313 29.251C52.0303 29.1763 52.046 29.1023 52.0773 29.0345C52.1086 28.9667 52.1547 28.9067 52.2122 28.8589C52.2278 28.8497 52.2452 28.8441 52.2633 28.8427C52.2722 28.8393 52.2821 28.8393 52.2911 28.8427C52.3305 28.8636 52.3514 28.9262 52.3514 29.0074C52.3564 29.0854 52.3425 29.1634 52.311 29.2348C52.2795 29.3063 52.2313 29.3691 52.1705 29.4181Z" fill="#FAFAFA"/>
<path d="M55.1719 21.9316V23.9941L20.0703 44.2593V42.1968L20.7222 41.821C20.8962 41.7189 20.9542 41.5658 21.0378 41.2712L21.2582 40.5032C21.2709 40.3948 21.3057 40.2901 21.3604 40.1956C21.415 40.101 21.4884 40.0186 21.576 39.9534L29.1438 35.5848C29.1775 35.5548 29.218 35.5335 29.2618 35.5226C29.3056 35.5117 29.3514 35.5116 29.3952 35.5223C29.439 35.533 29.4796 35.5543 29.5134 35.5841C29.5472 35.614 29.5733 35.6517 29.5893 35.6939L29.8607 36.1857C29.9605 36.3574 30.0092 36.4595 30.1832 36.3574L55.1719 21.9316Z" fill="#E6E6E6"/>
<path d="M53.6865 21.301C53.9185 21.1734 54.0856 21.2754 54.0856 21.533C54.0788 21.6723 54.0392 21.808 53.9698 21.929C53.9004 22.05 53.8033 22.1528 53.6865 22.229C53.4545 22.3566 53.2852 22.2522 53.2852 21.997C53.2916 21.8573 53.3314 21.7213 53.4012 21.6002C53.471 21.4791 53.5689 21.3765 53.6865 21.301Z" fill="#455A64"/>
<path d="M52.2506 22.1291C52.471 22.0015 52.6496 22.1036 52.6496 22.3611C52.6429 22.5004 52.6032 22.6361 52.5339 22.7571C52.4645 22.8781 52.3674 22.9809 52.2506 23.0571C52.0186 23.1847 51.8516 23.0803 51.8516 22.8251C51.8581 22.6857 51.8977 22.55 51.9671 22.4289C52.0365 22.3079 52.1336 22.2051 52.2506 22.1291Z" fill="#455A64"/>
<path d="M50.8092 22.9689C51.0296 22.8413 51.2082 22.9434 51.2082 23.2009C51.2015 23.3402 51.1618 23.476 51.0925 23.597C51.0231 23.718 50.926 23.8208 50.8092 23.8969C50.5772 24.0245 50.4102 23.9201 50.4102 23.6649C50.4167 23.5256 50.4563 23.3898 50.5257 23.2688C50.5951 23.1478 50.6922 23.045 50.8092 22.9689Z" fill="#455A64"/>
<path opacity="0.5" d="M21.5233 42.3474L21.0245 42.6328L21.2148 42.2685C21.2221 42.255 21.2259 42.2398 21.2259 42.2245C21.2259 42.2091 21.2221 42.1939 21.2148 42.1804C21.1985 42.1618 21.173 42.1804 21.1568 42.2059L20.8877 42.7256V42.7441C20.8865 42.7534 20.8865 42.7627 20.8877 42.772C20.8864 42.7789 20.8864 42.786 20.8877 42.7929V42.8045L21.1568 43.0133C21.1611 43.0155 21.1659 43.0167 21.1707 43.0167C21.1756 43.0167 21.1803 43.0155 21.1846 43.0133C21.1974 43.0024 21.2077 42.989 21.2148 42.9738C21.2226 42.9608 21.2267 42.946 21.2267 42.9309C21.2267 42.9158 21.2226 42.9009 21.2148 42.888L21.0245 42.7441L21.5233 42.4565C21.5358 42.4459 21.5458 42.4328 21.5526 42.4179C21.5594 42.4031 21.5629 42.3869 21.5628 42.3706C21.5744 42.3497 21.5442 42.3335 21.5233 42.3474Z" fill="#455A64"/>
<path opacity="0.5" d="M21.9418 42.1062L22.4406 41.8185L22.2503 41.6723C22.2341 41.6607 22.2318 41.6213 22.2503 41.5888C22.2689 41.5563 22.2898 41.5378 22.306 41.5494L22.5775 41.7582C22.5788 41.7659 22.5788 41.7737 22.5775 41.7814C22.5786 41.7906 22.5786 41.8 22.5775 41.8092C22.5781 41.8154 22.5781 41.8216 22.5775 41.8278L22.306 42.3475C22.3001 42.3594 22.2913 42.3697 22.2805 42.3776C22.2761 42.3808 22.2708 42.3825 22.2654 42.3825C22.26 42.3825 22.2547 42.3808 22.2503 42.3776C22.243 42.3641 22.2392 42.3489 22.2392 42.3335C22.2392 42.3181 22.243 42.303 22.2503 42.2895L22.4406 41.9229L21.9418 42.2245C21.9186 42.2384 21.9023 42.2245 21.9023 42.1874C21.9024 42.1717 21.906 42.1563 21.9128 42.1423C21.9197 42.1282 21.9296 42.1159 21.9418 42.1062Z" fill="#455A64"/>
<path opacity="0.5" d="M23.5718 40.6723C23.5718 40.6421 23.5417 40.6468 23.5301 40.6723L23.4605 40.8393C23.3445 40.8254 23.203 40.9391 23.1078 41.1409C22.9849 41.4031 22.9849 41.7116 23.1078 41.8369C23.1387 41.8661 23.1789 41.8835 23.2213 41.8861C23.2637 41.8886 23.3057 41.8761 23.3398 41.8508C23.4423 41.7853 23.5231 41.6908 23.5718 41.5794C23.5881 41.5446 23.5881 41.5052 23.5718 41.4912C23.5556 41.4773 23.5301 41.4912 23.5162 41.5237C23.4234 41.7186 23.2842 41.8044 23.1821 41.7163C23.1354 41.6389 23.1108 41.5503 23.1108 41.4599C23.1108 41.3696 23.1354 41.2809 23.1821 41.2036C23.247 41.0644 23.3422 40.9716 23.4141 40.9716L23.363 41.0968C23.3491 41.1293 23.363 41.1618 23.3816 41.1479L23.5858 41.0156C23.5936 41.0087 23.5997 41.0001 23.6037 40.9904C23.6077 40.9808 23.6095 40.9704 23.609 40.96L23.5718 40.6723Z" fill="#455A64"/>
<path opacity="0.5" d="M28.9229 36.5262L29.1062 36.1411C29.1165 36.1231 29.122 36.1027 29.122 36.082C29.122 36.0612 29.1165 36.0408 29.1062 36.0228C29.083 36.0019 29.0482 36.0228 29.0273 36.0669L28.8463 36.452L28.6654 36.2757C28.6422 36.2571 28.6097 36.2757 28.5865 36.3221C28.5761 36.3401 28.5706 36.3605 28.5706 36.3812C28.5706 36.402 28.5761 36.4224 28.5865 36.4404L28.7674 36.6167L28.5865 36.9995C28.5759 37.0179 28.5703 37.0387 28.5703 37.0598C28.5703 37.081 28.5759 37.1018 28.5865 37.1202C28.5923 37.1241 28.5992 37.1263 28.6062 37.1263C28.6132 37.1263 28.6201 37.1241 28.6259 37.1202C28.643 37.1075 28.6565 37.0908 28.6654 37.0714L28.8463 36.6886L29.0273 36.8626C29.0299 36.8652 29.0329 36.8673 29.0363 36.8687C29.0397 36.8701 29.0433 36.8708 29.047 36.8708C29.0507 36.8708 29.0543 36.8701 29.0577 36.8687C29.0611 36.8673 29.0641 36.8652 29.0667 36.8626C29.0843 36.8515 29.098 36.8354 29.1062 36.8162C29.1167 36.7979 29.1223 36.7771 29.1223 36.7559C29.1223 36.7347 29.1167 36.7139 29.1062 36.6956L28.9229 36.5262Z" fill="#455A64"/>
<path d="M24.2344 41.1463V40.5037C24.2397 40.3936 24.271 40.2863 24.3259 40.1907C24.3808 40.0951 24.4575 40.0139 24.5499 39.9538L53.072 23.4957C53.246 23.396 53.3875 23.4772 53.3875 23.679V24.3217C53.3822 24.4317 53.3508 24.539 53.296 24.6346C53.2411 24.7302 53.1643 24.8114 53.072 24.8715L24.5499 41.3296C24.3759 41.4293 24.2344 41.3481 24.2344 41.1463Z" fill="#FAFAFA"/>
<path d="M52.8963 23.8361L52.9798 24.0125C52.9835 24.0153 52.988 24.0168 52.9926 24.0168C52.9972 24.0168 53.0017 24.0153 53.0054 24.0125L53.1933 23.9405C53.2211 23.9405 53.235 23.9707 53.2118 24.0101L53.0773 24.263C53.0731 24.279 53.0731 24.2958 53.0773 24.3117L53.1098 24.5437C53.1098 24.5785 53.0819 24.6273 53.0564 24.6249L52.8894 24.6041C52.8827 24.6037 52.8762 24.6053 52.8704 24.6086C52.8647 24.6119 52.86 24.6168 52.8569 24.6226L52.6898 24.8361C52.662 24.8685 52.6318 24.8569 52.6365 24.8152L52.669 24.5507C52.672 24.545 52.6736 24.5386 52.6736 24.5321C52.6736 24.5257 52.672 24.5193 52.669 24.5136L52.5321 24.4161C52.5112 24.3999 52.5321 24.3442 52.553 24.321L52.7386 24.1795C52.7522 24.1681 52.7619 24.1526 52.7664 24.1354L52.8499 23.864C52.836 23.8292 52.8731 23.8083 52.8963 23.8361Z" stroke="#E0E0E0" stroke-width="0.75" stroke-miterlimit="10"/>
<g opacity="0.5">
<path d="M53.7616 23.4192C53.7423 23.4187 53.7235 23.4134 53.7068 23.4036C53.6902 23.3939 53.6763 23.3801 53.6665 23.3635C53.6522 23.3379 53.6486 23.3078 53.6564 23.2795C53.6642 23.2513 53.6828 23.2273 53.7082 23.2127L54.5991 22.6977C54.6239 22.6876 54.6515 22.6868 54.6769 22.6954C54.7022 22.704 54.7236 22.7214 54.7372 22.7446C54.7507 22.7677 54.7554 22.7949 54.7505 22.8212C54.7456 22.8475 54.7314 22.8712 54.7105 22.8879L53.8242 23.4029C53.8058 23.4153 53.7837 23.4211 53.7616 23.4192Z" fill="#455A64"/>
<path d="M53.7614 23.9338C53.7421 23.9334 53.7233 23.928 53.7067 23.9183C53.69 23.9085 53.6761 23.8947 53.6663 23.8781C53.6593 23.8657 53.6548 23.8519 53.6531 23.8377C53.6514 23.8235 53.6525 23.809 53.6564 23.7953C53.6603 23.7815 53.6669 23.7686 53.6757 23.7573C53.6846 23.7461 53.6956 23.7367 53.7081 23.7297L54.5989 23.2123C54.6237 23.2022 54.6514 23.2014 54.6767 23.21C54.7021 23.2186 54.7235 23.2361 54.737 23.2592C54.7505 23.2823 54.7553 23.3095 54.7504 23.3359C54.7455 23.3622 54.7312 23.3859 54.7103 23.4025L53.8241 23.9199C53.8049 23.9303 53.7832 23.9352 53.7614 23.9338Z" fill="#455A64"/>
<path d="M53.7614 24.4495C53.7373 24.4495 53.7139 24.4416 53.6948 24.4268C53.6757 24.4121 53.662 24.3914 53.6559 24.3681C53.6498 24.3447 53.6516 24.32 53.661 24.2978C53.6705 24.2756 53.687 24.2572 53.7081 24.2454L54.599 23.7303C54.6113 23.7225 54.6251 23.7174 54.6396 23.7151C54.654 23.7129 54.6688 23.7136 54.6829 23.7173C54.697 23.721 54.7103 23.7276 54.7218 23.7366C54.7333 23.7456 54.7428 23.7569 54.7498 23.7698C54.7642 23.7951 54.7682 23.825 54.7608 23.8532C54.7534 23.8814 54.7353 23.9056 54.7103 23.9206L53.8241 24.4356C53.8049 24.4461 53.7832 24.4509 53.7614 24.4495Z" fill="#455A64"/>
</g>
<path d="M28.5089 52.2001C29.7826 50.9032 30.1097 50.314 30.1097 49.7943C30.1097 49.2746 29.8917 48.9475 29.2142 49.3303C28.7358 49.5977 28.3774 50.0374 28.212 50.5599C28.1696 50.6697 28.103 50.7685 28.017 50.8488C27.931 50.9292 27.8279 50.989 27.7155 51.0239L26.8316 51.2188C26.6205 51.2675 26.4789 51.1329 26.53 50.9218C26.9174 49.3419 27.8941 47.8826 29.2653 47.0915C30.9125 46.1403 31.8729 46.8595 31.8729 48.4649C31.8729 50.0077 31.0609 51.2953 30.2489 52.221C30.0977 52.4149 30.0094 52.6505 29.9961 52.8961V53.4204C29.9895 53.538 29.9554 53.6523 29.8966 53.7543C29.8378 53.8562 29.7558 53.9429 29.6573 54.0074L28.5716 54.6338C28.3837 54.7428 28.2329 54.6547 28.2329 54.4389V52.8567C28.2493 52.6132 28.3465 52.3822 28.5089 52.2001Z" fill="#455A64"/>
<path d="M28.211 56.8102C28.2086 56.4881 28.2902 56.1708 28.4476 55.8898C28.605 55.6087 28.8329 55.3734 29.1088 55.2071C29.6911 54.8684 29.9951 55.1676 29.9951 55.7801C29.9998 56.1023 29.9206 56.4203 29.7652 56.7026C29.6098 56.9849 29.3836 57.2219 29.1088 57.3902C28.5126 57.7336 28.211 57.4227 28.211 56.8102Z" fill="#455A64"/>
<path d="M64.184 14.8197L63.3326 14.3232C63.2501 14.2835 63.1583 14.2671 63.0671 14.2757C62.976 14.2842 62.8889 14.3175 62.8152 14.3719L41.6174 26.6076C41.4056 26.7456 41.2293 26.9316 41.1027 27.1505C40.9761 27.3693 40.9029 27.6149 40.8889 27.8674V58.3545C40.8808 58.443 40.8955 58.5322 40.9316 58.6134C40.9678 58.6947 41.0242 58.7653 41.0954 58.8185L41.9538 59.315L62.806 46.5318C63.0175 46.3936 63.1934 46.2075 63.3196 45.9887C63.4457 45.7698 63.5186 45.5243 63.5321 45.272L64.184 14.8197Z" fill="#EF233C"/>
<path opacity="0.15" d="M41.9405 59.3149L41.0937 58.8254C41.0222 58.7725 40.9658 58.7019 40.9299 58.6205C40.8941 58.5391 40.8802 58.4498 40.8895 58.3614V27.8673C40.8991 27.5999 40.9792 27.3398 41.1215 27.1133L41.9892 27.6074C41.8461 27.8345 41.766 28.0955 41.7572 28.3638V58.8532C41.747 58.9393 41.7584 59.0266 41.7904 59.1072C41.8224 59.1878 41.874 59.2592 41.9405 59.3149Z" fill="black"/>
<path d="M42.4707 27.106L63.6685 14.868C64.0699 14.636 64.3947 14.8239 64.3947 15.2879V45.775C64.3811 46.0273 64.3083 46.2728 64.1821 46.4917C64.056 46.7105 63.88 46.8966 63.6685 47.0348L42.4707 59.2728C42.0693 59.5048 41.7422 59.3168 41.7422 58.8528V28.3634C41.7565 28.1114 41.83 27.8662 41.9565 27.6478C42.083 27.4294 42.2592 27.2438 42.4707 27.106Z" fill="#EF233C"/>
<path opacity="0.4" d="M63.3336 14.3233L64.1642 14.8035C64.0837 14.7745 63.9975 14.7653 63.9127 14.7766C63.8279 14.7879 63.747 14.8194 63.677 14.8685L42.4791 27.1065C42.2775 27.231 42.1094 27.4031 41.9896 27.6076L41.1289 27.1134C41.2485 26.9076 41.4165 26.7339 41.6184 26.6077L62.8047 14.3836C62.8784 14.3293 62.9657 14.2963 63.0569 14.2881C63.1481 14.28 63.2398 14.2969 63.322 14.3372L63.3336 14.3233Z" fill="white"/>
<path d="M44.8764 28.3032L61.8518 18.5012C62.1557 18.3249 62.4017 18.4687 62.4017 18.819V44.8981C62.3913 45.0891 62.3361 45.2749 62.2406 45.4405C62.1451 45.6062 62.0119 45.747 61.8518 45.8517L44.8764 55.6351C44.5725 55.8091 44.3242 55.6676 44.3242 55.3173V29.2613C44.3334 29.0692 44.3883 28.8821 44.4843 28.7154C44.5803 28.5488 44.7147 28.4074 44.8764 28.3032Z" fill="white"/>
<path d="M58.3286 34.0455L58.5003 33.904C58.2169 33.5967 57.8488 33.3803 57.4424 33.2822L57.3867 33.4957C57.747 33.5847 58.074 33.7756 58.3286 34.0455Z" fill="#37474F"/>
<path d="M58.7061 34.9112L58.3558 34.5678C58.2729 34.4814 58.2266 34.3663 58.2266 34.2465C58.2266 34.1267 58.2729 34.0116 58.3558 33.9252C58.4422 33.8422 58.5574 33.7959 58.6771 33.7959C58.7969 33.7959 58.9121 33.8422 58.9985 33.9252L59.3465 34.2685C59.4294 34.3549 59.4757 34.4701 59.4757 34.5898C59.4757 34.7096 59.4294 34.8248 59.3465 34.9112C59.2602 34.9934 59.1455 35.0393 59.0263 35.0393C58.9071 35.0393 58.7924 34.9934 58.7061 34.9112Z" fill="#EF233C"/>
<mask id="mask0_2285_38986" style="mask-type:luminance" maskUnits="userSpaceOnUse" x="44" y="18" width="19" height="38">
<path d="M44.8764 28.3032L61.8518 18.5012C62.1557 18.3249 62.4017 18.4687 62.4017 18.819V44.8981C62.3913 45.0891 62.3361 45.2749 62.2406 45.4405C62.1451 45.6062 62.0119 45.747 61.8518 45.8517L44.8764 55.6351C44.5725 55.8091 44.3242 55.6676 44.3242 55.3173V29.2613C44.3334 29.0692 44.3883 28.8821 44.4843 28.7154C44.5803 28.5488 44.7147 28.4074 44.8764 28.3032Z" fill="white"/>
</mask>
<g mask="url(#mask0_2285_38986)">
<path d="M61.7968 42.8402L62.581 44.1811C62.581 44.1811 67.7175 41.4574 68.0075 41.1002C68.2975 40.7429 68.2789 40.0214 68.323 39.6316C68.3949 38.982 68.156 38.4229 68.1212 38.1886C68.0632 37.7802 68.6501 37.757 68.9401 38.3254C69.1536 38.7384 69.1721 39.2117 69.3531 39.2163C69.6122 39.0343 69.8538 38.8285 70.0746 38.6015C70.3924 38.2535 70.9678 37.6735 71.404 37.7524C71.4781 37.7696 71.5453 37.8087 71.597 37.8645C71.6487 37.9203 71.6825 37.9904 71.694 38.0656C71.7065 38.3054 71.7614 38.5411 71.8564 38.7616C71.9272 38.8453 71.985 38.9391 72.028 39.04C72.0419 39.1897 72.0419 39.3404 72.028 39.4901C72.0466 39.7058 72.26 39.7963 72.2832 40.0074C72.2766 40.1701 72.2587 40.3321 72.2299 40.4923C72.2299 40.5967 72.2624 40.6872 72.2624 40.7916C72.2401 41.0059 72.147 41.2068 71.9979 41.3623C71.5634 41.8686 71.0484 42.2997 70.4736 42.6383C70.0096 42.9446 69.3879 43.216 68.8496 43.5037C68.3114 43.7914 62.2655 48.436 61.4604 47.8885C61.131 47.6565 60.2633 46.5498 59.3516 45.311" fill="#FFA8A7"/>
<path d="M59.1614 45.4701C58.2345 44.1799 57.3824 42.8375 56.6094 41.4496C55.6814 38.8512 56.7323 37.1205 56.7323 37.1205C56.7323 37.1205 58.0663 36.7075 59.1776 38.4614C59.6671 39.234 60.9478 41.4055 61.7876 42.8393" fill="#FFA8A7"/>
<path d="M54.3984 37.1603C54.3984 37.1603 55.8693 36.564 56.8228 36.6267C57.7764 36.6893 58.4816 36.9584 59.1823 38.0836C60.1103 39.5847 61.6624 42.1784 61.6624 42.1784C61.0064 43.527 59.9595 44.6467 58.658 45.3916L55.809 41.095L54.3984 37.1603Z" fill="#455A64"/>
<path d="M49.73 39.7586C49.2394 40.1537 48.8776 40.686 48.6907 41.2875C48.4731 42.0144 48.3667 42.7699 48.3751 43.5286V48.4122L48.3125 57.6551C51.412 58.7107 55.3514 57.7804 58.6574 54.1055C58.6574 54.1055 58.4741 42.2735 58.4741 40.3409C58.4741 40.2528 58.4741 40.1646 58.4741 40.0741C58.3535 37.3342 55.9894 36.0629 53.6601 37.3806L51.702 38.4849L49.737 39.7586H49.73Z" fill="#F0F0F0"/>
<path d="M50.8104 28.5161C50.8104 28.5161 49.2908 28.3978 48.9544 29.8084C48.6458 31.0658 50.938 36.0306 50.8869 35.9471C50.8359 35.8636 50.8104 28.5161 50.8104 28.5161Z" fill="#263238"/>
<path d="M56.1763 25.6764C56.1763 25.6764 55.6125 24.1591 52.8749 25.2379C51.4829 25.7877 50.9609 27.5115 50.9609 27.5115L56.1763 25.6764Z" fill="#EF233C"/>
<path opacity="0.4" d="M56.1763 25.6764C56.1763 25.6764 55.6125 24.1591 52.8749 25.2379C51.4829 25.7877 50.9609 27.5115 50.9609 27.5115L56.1763 25.6764Z" fill="black"/>
<path d="M51.8516 29.7065C51.8516 31.7945 53.3132 33.089 55.1181 32.6041C56.9231 32.1193 58.3847 30.0521 58.3847 27.9641C58.3847 25.8761 56.828 25.8761 55.023 26.3633C53.218 26.8505 51.8516 27.6231 51.8516 29.7065Z" fill="#263238"/>
<path d="M50.1484 33.0049C50.1484 33.0049 50.6287 35.4873 50.8212 35.8654C50.8793 35.975 50.9638 36.0683 51.0672 36.1368C51.1705 36.2052 51.2893 36.2468 51.4128 36.2575L51.3804 34.4294L50.1484 33.0049Z" fill="#263238"/>
<path d="M50.7519 29.1025C50.5617 29.1334 50.3803 29.2049 50.2201 29.3122C50.06 29.4195 49.9249 29.5601 49.8239 29.7243C49.4295 30.2973 49.6499 31.7033 50.1441 33.0048L51.0489 32.8818L50.7519 29.1025Z" fill="#263238"/>
<path d="M51.3253 32.8105C51.142 32.9845 50.8845 32.6505 50.6594 32.4393C50.4344 32.2282 49.7036 32.0542 49.337 33.0402C48.9705 34.0262 49.6595 35.0563 50.2372 35.112C51.2302 35.2048 51.3786 34.4299 51.3786 34.4299L51.4111 38.6685C53.0792 40.4364 55.9978 38.353 54.6846 37.5712V36.3114C55.1403 36.2722 55.5897 36.1787 56.0233 36.033C56.7541 35.7059 57.2134 34.9194 57.4362 33.945C57.7911 32.3837 57.9257 31.161 57.6241 28.3608C57.2946 25.2891 54.1093 26.1104 52.3902 27.8202C50.671 29.5301 51.3253 32.8105 51.3253 32.8105Z" fill="#FFA8A7"/>
<path d="M51.3279 33.1742C51.2351 33.2021 50.8871 32.629 50.662 32.4504C50.3488 32.2045 50.7525 29.1142 50.7525 29.1142C50.3906 28.3161 51.0588 27.1121 51.7571 26.6225C52.2588 26.3004 52.825 26.0922 53.4159 26.0124C53.917 25.9227 54.4166 25.8539 54.9146 25.8059C55.5236 25.7741 56.1297 25.7012 56.7288 25.5878C57.1979 25.4766 57.6525 25.3115 58.0837 25.096C58.4642 24.922 58.7797 25.3141 58.4433 25.966C58.1422 26.5589 57.7239 27.0845 57.2137 27.5111C55.7336 28.6224 54.0144 28.8892 52.518 29.0539C52.1816 29.091 52.1074 29.4877 51.9264 30.5665C51.7664 31.5038 51.6341 33.0745 51.3279 33.1742Z" fill="#263238"/>
<path d="M49.6114 29.1281L48.5117 28.7406C48.6672 28.3346 49.0407 28.0933 49.3423 28.2001C49.6439 28.3068 49.7668 28.7221 49.6114 29.1281Z" fill="#263238"/>
<path d="M54.6835 36.3108C54.6835 36.3108 53.0595 36.3688 52.4841 36.1716C52.1403 36.0517 51.8571 35.8018 51.6953 35.4756C51.7738 35.8185 51.9267 36.1401 52.1431 36.4175C52.5607 36.9209 54.6835 36.8049 54.6835 36.8049V36.3108Z" fill="#F28F8F"/>
<path d="M54.2903 31.5509C54.2889 31.6519 54.2572 31.7501 54.1993 31.8329C54.1414 31.9156 54.0599 31.9791 53.9655 32.0149C53.7868 32.0613 53.6407 31.9244 53.6407 31.7086C53.6392 31.6053 53.6696 31.5039 53.7277 31.4184C53.7858 31.3329 53.8688 31.2674 53.9655 31.2307C54.1464 31.1913 54.2903 31.3189 54.2903 31.5509Z" fill="#263238"/>
<path d="M53.7658 30.1239L53.0698 30.7572C53.021 30.6388 53.0104 30.508 53.0395 30.3832C53.0686 30.2584 53.136 30.1459 53.2322 30.0612C53.2666 30.0207 53.3105 29.9892 53.36 29.9697C53.4095 29.9502 53.463 29.9433 53.5158 29.9495C53.5687 29.9557 53.6191 29.9748 53.6628 30.0053C53.7064 30.0357 53.7418 30.0764 53.7658 30.1239Z" fill="#263238"/>
<path d="M54.5353 34.0859L55.28 34.2089C55.2587 34.3273 55.1963 34.4343 55.1038 34.5111C55.0112 34.5879 54.8945 34.6296 54.7743 34.6288C54.5678 34.5963 54.4611 34.3527 54.5353 34.0859Z" fill="#F28F8F"/>
<path d="M57.2903 29.511L56.6523 29.1142C56.7846 28.8822 57.0305 28.7593 57.2068 28.8683C57.2963 28.9471 57.354 29.0557 57.3694 29.1739C57.3848 29.2922 57.3567 29.4119 57.2903 29.511Z" fill="#263238"/>
<path d="M57.0098 30.7083C57.0116 30.8123 56.9811 30.9144 56.9225 31.0004C56.8639 31.0864 56.7801 31.1521 56.6827 31.1885C56.5017 31.2349 56.3555 31.0981 56.3555 30.8823C56.3539 30.7786 56.3845 30.6769 56.4431 30.5913C56.5017 30.5057 56.5854 30.4404 56.6827 30.4044C56.8636 30.3557 57.0098 30.4925 57.0098 30.7083Z" fill="#263238"/>
<path d="M55.3945 30.8379L55.4316 33.1161L56.6032 32.5037L55.3945 30.8379Z" fill="#F28F8F"/>
<path d="M44.8201 53.5903C45.7342 44.1943 47.2121 40.8559 49.5274 39.9209C50.3046 40.5287 50.4299 43.3011 49.5506 45.3822C49.5506 45.3822 47.6157 51.6137 47.4626 53.7342C47.3649 55.7173 47.4387 57.7052 47.683 59.6757C47.6954 59.7941 47.7326 59.9086 47.7922 60.0117C47.8517 60.1149 47.9323 60.2043 48.0287 60.2743C48.5229 60.613 48.4788 61.0863 48.8268 61.5433C49.1005 61.9006 49.3604 61.9702 49.2908 62.1001C49.2329 62.2301 49.1323 62.3364 49.0057 62.4013C48.8791 62.4663 48.7341 62.4861 48.5948 62.4574C48.3729 62.3804 48.1674 62.2624 47.9893 62.1094C48.1201 62.6096 48.3267 63.0868 48.6017 63.5246C49.2281 64.5384 49.1817 65.2089 47.6459 65.3968C46.6831 65.5151 45.9987 64.9027 45.5741 62.4875C45.4535 61.7915 45.1565 60.5387 45.0429 59.6386C44.7134 57.0703 44.6717 55.103 44.8201 53.5903Z" fill="#FFA8A7"/>
<path d="M50.1923 39.4756C50.1923 39.4756 48.508 40.0185 47.6403 41.3664C46.7727 42.7143 45.905 44.8951 45.2461 48.7904C45.2461 48.7904 46.2669 50.2613 49.0532 49.1268C49.0532 49.1268 50.3733 44.1713 50.5287 42.2016C50.6888 40.0533 50.1923 39.4756 50.1923 39.4756Z" fill="#455A64"/>
<path d="M51.7573 25.7508C50.182 26.7368 49.5022 27.9339 49.4628 29.3769C49.449 30.3682 49.4885 31.3595 49.5811 32.3465C49.2844 32.5602 49.0398 32.838 48.8654 33.1594C48.6911 33.4808 48.5916 33.8373 48.5742 34.2025C48.5742 35.1792 49.3653 35.7592 50.3421 35.4971C50.8322 35.352 51.2654 35.0586 51.5819 34.6573C51.8985 34.256 52.083 33.7664 52.1099 33.256C52.1299 32.9391 52.0309 32.6262 51.8322 32.3785C51.6334 32.1309 51.3494 31.9664 51.0357 31.9173C50.8385 30.539 50.8424 29.1394 51.0473 27.7622C51.3977 25.6742 55.2999 24.4701 56.1745 25.6742C55.9124 24.6348 53.9473 24.3704 51.7573 25.7508Z" fill="#EF233C"/>
<path opacity="0.15" d="M51.7573 25.7508C50.182 26.7368 49.5022 27.9339 49.4628 29.3769C49.449 30.3682 49.4885 31.3595 49.5811 32.3465C49.2844 32.5602 49.0398 32.838 48.8654 33.1594C48.6911 33.4808 48.5916 33.8373 48.5742 34.2025C48.5742 35.1792 49.3653 35.7592 50.3421 35.4971C50.8322 35.352 51.2654 35.0586 51.5819 34.6573C51.8985 34.256 52.083 33.7664 52.1099 33.256C52.1299 32.9391 52.0309 32.6262 51.8322 32.3785C51.6334 32.1309 51.3494 31.9664 51.0357 31.9173C50.8385 30.539 50.8424 29.1394 51.0473 27.7622C51.3977 25.6742 55.2999 24.4701 56.1745 25.6742C55.9124 24.6348 53.9473 24.3704 51.7573 25.7508Z" fill="black"/>
<path d="M51.1901 33.5015C51.195 33.3977 51.1742 33.2942 51.1293 33.2004C51.0845 33.1066 51.0172 33.0254 50.9333 32.964C50.8494 32.9027 50.7515 32.8631 50.6486 32.8488C50.5456 32.8344 50.4407 32.8459 50.3433 32.8821C50.1084 32.9517 49.901 33.0924 49.7493 33.2847C49.5977 33.4771 49.5094 33.7116 49.4965 33.9562C49.4929 34.0596 49.5149 34.1622 49.5605 34.255C49.6062 34.3478 49.674 34.4279 49.7579 34.4883C49.8419 34.5486 49.9395 34.5873 50.042 34.6009C50.1445 34.6146 50.2488 34.6027 50.3456 34.5664C50.5787 34.4972 50.7849 34.3578 50.936 34.1673C51.0871 33.9768 51.1758 33.7443 51.1901 33.5015Z" fill="#EF233C"/>
</g>
<path d="M37.8283 48.4082C37.7901 48.4454 37.7552 48.4858 37.7239 48.5289C37.6682 48.5974 37.6264 48.6762 37.6009 48.7609C37.5841 48.8097 37.5841 48.8628 37.6009 48.9117C37.6071 48.9462 37.6242 48.978 37.6497 49.0021C37.6619 49.0163 37.6759 49.0288 37.6914 49.0393L36.84 48.5474C36.8059 48.5285 36.7777 48.5003 36.7588 48.4662C36.7452 48.4339 36.7383 48.3992 36.7383 48.3641C36.7383 48.3291 36.7452 48.2944 36.7588 48.2621C36.7773 48.2045 36.8039 48.1498 36.8377 48.0997C36.8817 48.0336 36.9313 47.9715 36.9861 47.9141L37.8283 48.4082Z" fill="#EF233C"/>
<path d="M37.8344 48.3998C37.3913 48.8638 37.5467 49.177 38.1824 49.0958L41.7413 48.6852V44.3398L37.8344 48.3998Z" fill="#EF233C"/>
<path d="M37.8353 48.3995C37.5546 48.6918 37.5151 48.9238 37.6822 49.0375L36.8307 48.5457C36.6521 48.4343 36.6915 48.1977 36.9746 47.9007L40.8838 43.8477L41.7445 44.3465L37.8353 48.3995Z" fill="#EF233C"/>
<path opacity="0.15" d="M37.8283 48.4082C37.7901 48.4454 37.7552 48.4858 37.7239 48.5289C37.67 48.5986 37.6284 48.6771 37.6009 48.7609C37.5873 48.8102 37.5873 48.8623 37.6009 48.9117C37.6077 48.946 37.6247 48.9776 37.6497 49.0021C37.6619 49.0163 37.6759 49.0288 37.6914 49.0393L36.84 48.5474C36.8059 48.5285 36.7777 48.5003 36.7588 48.4662C36.7452 48.4339 36.7383 48.3992 36.7383 48.3641C36.7383 48.3291 36.7452 48.2944 36.7588 48.2621C36.7783 48.2049 36.8048 48.1504 36.8377 48.0997C36.8817 48.0336 36.9313 47.9715 36.9861 47.9141L37.8283 48.4082Z" fill="black"/>
<path opacity="0.4" d="M41.7449 44.3395L37.8357 48.3995L36.9727 47.9007L40.8842 43.8477L41.7449 44.3395Z" fill="white"/>
<path d="M61.7957 42.8409L62.5798 44.1819C62.5798 44.1819 67.7163 41.4582 68.0063 41.1009C68.2963 40.7436 68.2778 40.0221 68.3218 39.6324C68.3938 38.9828 68.1548 38.4236 68.12 38.1893C68.0504 37.6905 68.7673 37.8065 68.9946 38.0037C69.144 38.1627 69.2683 38.3434 69.3635 38.5396C69.4749 38.7252 69.6837 39.3308 69.8971 39.3679C70.0642 39.398 70.3959 39.1614 70.5328 39.0593C71.0966 38.6324 71.4446 38.0408 71.8784 37.5003C71.9556 37.384 72.0631 37.2909 72.1893 37.2312C72.3001 37.2091 72.4144 37.2125 72.5237 37.241C72.633 37.2695 72.7344 37.3225 72.8203 37.3959C73.0032 37.4981 73.1616 37.639 73.2843 37.8088C73.3592 37.9361 73.4125 38.0748 73.4421 38.2195C73.6741 39.2032 73.1683 40.0337 72.5721 40.7715C71.9737 41.4971 71.2643 42.1235 70.4702 42.6275C70.0062 42.9337 69.3844 43.2052 68.8462 43.4928C68.3079 43.7805 62.5404 48.6131 61.733 48.0656C60.7679 47.3147 59.9032 46.443 59.1602 45.4718" fill="#FFA8A7"/>
<path d="M99.6875 34.459C101.544 34.459 102.518 35.0158 103.288 36.7303C104.026 38.3705 106.316 43.1288 106.202 44.2819C106.088 45.4349 101.386 50.344 101.386 50.344L100.042 48.72L102.956 43.8248L100.087 39.672L99.6875 34.459Z" fill="#FFA8A7"/>
<path d="M95.1807 84.9492C95.1807 84.9492 95.3894 85.5826 95.5031 86.1394C95.5936 86.5802 95.7212 87.3156 95.5658 87.6474C95.4103 87.9791 94.8095 88.1926 93.8768 88.1856C93.2713 88.1856 92.3294 88.5916 91.6844 88.9535C91.0394 89.3155 89.6312 89.4732 88.9259 89.3897C88.0954 89.2923 87.2346 88.8097 87.1001 88.4617C86.9655 88.1137 86.8518 87.6474 89.1022 86.9259C89.1208 86.9259 91.8236 86.0396 92.7702 84.9933L95.1807 84.9492Z" fill="#263238"/>
<path d="M95.1819 85.0123L94.7527 84.959L92.7715 84.9984C91.8249 86.0447 89.1221 86.9263 89.1035 86.931L88.7439 87.0516C88.3519 87.3671 88.6836 87.9031 89.6116 87.9796C90.5396 88.0562 93.4327 87.0887 94.073 86.7802C94.4089 86.6242 94.6924 86.3742 94.8892 86.0605C95.086 85.7467 95.1877 85.3827 95.1819 85.0123Z" fill="#FFA8A7"/>
<path d="M95.181 84.1602C95.181 84.1602 95.181 84.7007 95.181 85.0116C95.181 85.3225 94.8191 85.7818 93.8725 85.747C93.209 85.7238 92.745 85.5452 92.7705 84.9977V84.2158L95.181 84.1602Z" fill="#FFA8A7"/>
<path d="M101.534 81.3925C101.704 81.4621 101.738 81.7916 101.745 82.4435C101.745 82.9353 101.836 83.7984 101.253 83.9561C100.671 84.1139 99.829 84.0002 99.4717 83.5269C99.0262 82.9353 98.727 82.4157 98.0797 81.6895C97.5252 81.0608 96.9197 80.4715 96.7155 79.6015C96.5276 78.8173 96.7155 78.4856 97.2468 78.2721C97.7781 78.0587 98.2676 78.235 99.01 78.8545C99.2171 78.9948 99.4388 79.1122 99.6712 79.2048C100.165 79.3602 101.362 81.3229 101.534 81.3925Z" fill="#263238"/>
<path d="M101.551 80.7894L101.528 81.5898C101.528 81.5898 100.994 82.6361 99.5069 81.5898C99.4744 81.5109 99.3398 79.9658 99.3398 79.9658L101.551 80.7894Z" fill="#FFA8A7"/>
<path d="M99.6774 79.2095C99.445 79.117 99.2233 78.9995 99.0162 78.8592C98.4177 78.6667 97.1602 78.8894 97.724 79.7617C98.1963 80.4788 98.801 81.0992 99.5057 81.5899C100.179 81.9216 100.413 81.511 100.413 81.511L100.181 79.6341C100.047 79.4566 99.875 79.3115 99.6774 79.2095Z" fill="#FFA8A7"/>
<path d="M102.634 69.7276C102.337 67.1037 101.769 65.5887 101.769 65.5887C101.769 65.5887 102.272 62.0577 102.666 58.6728C103.594 50.7222 102.977 50.5946 101.854 47.8291C101.854 47.8291 91.6627 46.5183 91.2358 50.757C90.7045 56.035 90.9458 66.2708 91.0339 68.143C91.1221 70.0153 91.2659 70.8621 91.832 74.7829C92.2543 77.7687 92.6556 84.2949 92.6556 84.2949C93.9919 85.0651 95.2772 84.1603 95.2772 84.1603C95.2772 84.1603 96.5555 76.1354 96.5254 73.9755C96.4993 72.3767 96.2654 70.7881 95.8294 69.2497C95.8294 69.2497 96.6971 60.6471 96.9175 59.2737C96.9175 59.2737 97.1634 62.0182 97.2539 63.8905C97.3443 65.7627 97.8501 67.5607 98.2979 71.0477C98.6853 74.0637 99.3303 80.381 99.3303 80.381C100.667 81.1513 101.599 80.8033 101.599 80.8033C101.599 80.8033 102.929 72.3492 102.634 69.7276Z" fill="#EF233C"/>
<path d="M95.375 32.7427L95.7485 36.7053L99.2285 36.4849L98.9501 32.0908L95.375 32.7427Z" fill="#FFA8A7"/>
<path d="M102.355 36.141C102 35.0923 101.281 34.4775 99.6867 34.459L99.0997 34.4775C98.9884 35.0622 97.2739 35.5355 95.5803 34.9415C95.3483 35.0042 94.6871 35.1248 94.3182 35.1735L93.5062 35.2919C92.2743 35.6955 91.7291 37.8439 91.6108 41.2334C91.4925 44.6229 90.9844 51.8915 90.9844 51.8915C90.9844 51.8915 93.6361 53.3113 97.8214 52.7615C101.568 52.2696 103.025 50.054 102.895 50.3371C102.456 48.4569 101.807 46.632 100.96 44.8967C102.932 40.0455 102.879 37.6977 102.355 36.141Z" fill="#455A64"/>
<path d="M95.7461 52.8822C96.4395 52.8895 97.1326 52.8476 97.8202 52.7569C101.235 52.3092 102.748 50.4369 102.889 50.314C102.451 48.4402 101.803 46.6216 100.959 44.8921C101.957 42.4422 102.435 40.6326 102.597 39.2383C102.435 40.2544 100.934 44.1892 98.9686 45.37C98.9686 45.37 100.078 45.5417 101.026 46.8456C101.975 48.1494 101.196 52.6015 95.7461 52.8822Z" fill="#37474F"/>
<path d="M94.3181 35.1689C92.6825 35.3754 91.2743 35.6677 90.6781 37.2732C89.8916 39.4595 88.6849 41.4708 87.1261 43.1938C86.11 44.2819 81.9386 46.3653 80.999 46.2098C80.0594 46.0544 79.2126 44.7157 78.7301 44.9941C78.2475 45.2725 79.3054 46.2284 79.2474 46.465C79.1894 46.7017 77.4958 46.2098 76.6954 45.6414C75.895 45.073 75.4194 46.704 76.4634 47.9243C77.5074 49.1446 79.4609 49.2397 81.586 48.8152C83.7111 48.3906 87.5948 47.1285 89.1376 45.6901C91.1606 43.7993 91.5295 42.7716 92.4065 41.1429C95.1997 38.9761 94.3181 35.1689 94.3181 35.1689Z" fill="#FFA8A7"/>
<path d="M93.5525 27.822C93.5525 27.822 92.2393 26.256 93.2694 24.7294C94.4851 22.9291 96.6241 22.3213 99.2689 23.1054C100.577 23.4929 102.501 25.3025 102.598 27.8406C102.672 29.7963 97.1879 31.0886 97.2761 32.4295L93.5525 27.822Z" fill="#263238"/>
<path d="M92.8005 28.3945C92.8005 28.3945 92.0303 29.5545 92.13 29.6845C92.3108 29.803 92.511 29.8886 92.7216 29.9373L92.8005 28.3945Z" fill="#F28F8F"/>
<path d="M95.1476 24.7032C94.3982 25.0907 93.1037 25.8052 92.7696 28.566C92.4286 31.3987 93.0596 32.3824 93.4447 32.7536C93.7069 33.0042 95.0525 33.0947 95.7647 32.8766C96.644 32.6051 98.5487 31.6655 99.4373 30.2039C100.486 28.4825 100.702 26.1903 99.4906 25.2902C97.7762 24.0258 95.781 24.3761 95.1476 24.7032Z" fill="#FFA8A7"/>
<path d="M94.9243 24.8238C94.9243 24.8238 94.2701 27.4083 95.0519 29.0416C95.0519 29.0416 95.5159 28.0324 96.3767 28.3224C97.2374 28.6124 97.1701 29.777 96.4834 30.371C96.3082 30.5419 96.0881 30.6596 95.8487 30.7105C95.6093 30.7614 95.3604 30.7434 95.1308 30.6586C95.1308 30.6586 95.154 32.0901 96.3767 32.6562C96.3767 32.6562 98.9287 33.8788 101.249 31.4103C103.337 29.1692 103.074 25.1463 99.9866 24.1278C96.8986 23.1094 94.9243 24.8238 94.9243 24.8238Z" fill="#263238"/>
<path d="M105.315 35.7285C104.828 35.7285 104.346 35.6324 103.897 35.4457C103.447 35.259 103.039 34.9853 102.695 34.6404C102.352 34.2956 102.08 33.8862 101.895 33.436C101.71 32.9857 101.615 32.5033 101.617 32.0165V27.2744C102.597 27.2744 103.537 27.6638 104.231 28.3569C104.924 29.05 105.313 29.99 105.313 30.9702L105.315 35.7285Z" fill="#263238"/>
<path d="M92.9356 23.6641C91.7872 24.8241 91.7222 28.2137 95.0538 29.0442L97.2369 23.0609C95.9655 22.2327 93.961 22.6155 92.9356 23.6641Z" fill="#263238"/>
<path d="M94.7207 29.9648C94.6372 29.9371 94.5601 29.8929 94.494 29.8349C94.4278 29.7769 94.374 29.7062 94.3356 29.6271C94.2972 29.5479 94.275 29.4619 94.2704 29.3741C94.2658 29.2862 94.2789 29.1983 94.3088 29.1156C94.3387 29.0329 94.3848 28.9569 94.4445 28.8923C94.5042 28.8277 94.5763 28.7757 94.6564 28.7394C94.7365 28.7031 94.8231 28.6832 94.9111 28.6809C94.999 28.6786 95.0865 28.6939 95.1684 28.7259L94.7207 29.9648Z" fill="#263238"/>
<path opacity="0.1" d="M96.9219 59.2781L97.4764 55.7308C98.5932 55.5971 99.6679 55.2235 100.627 54.6357C100.627 54.6357 99.9309 55.6821 98.0981 56.1182L97.532 60.2269L97.3 64.5305L96.9219 59.2781Z" fill="black"/>
</svg>
