<svg width="116" height="116" viewBox="0 0 116 116" fill="none" xmlns="http://www.w3.org/2000/svg">
<path d="M116 88.7168H0V88.7748H116V88.7168Z" fill="#EBEBEB"/>
<path d="M104.375 92.4492H96.6914V92.5072H104.375V92.4492Z" fill="#EBEBEB"/>
<path d="M93.7717 92.4492H77.3438V92.5072H93.7717V92.4492Z" fill="#EBEBEB"/>
<path d="M68.2841 90.2969H63.832V90.3549H68.2841V90.2969Z" fill="#EBEBEB"/>
<path d="M20.1272 90.6865H12.1719V90.7445H20.1272V90.6865Z" fill="#EBEBEB"/>
<path d="M36.6566 90.6865H22.1914V90.7445H36.6566V90.6865Z" fill="#EBEBEB"/>
<path d="M52.2313 91.665H43.6914V91.723H52.2313V91.665Z" fill="#EBEBEB"/>
<path d="M54.9826 78.3694H10.1857C9.83475 78.3687 9.49839 78.2289 9.25046 77.9805C9.00253 77.7322 8.86328 77.3956 8.86328 77.0446V14.0729C8.86634 13.724 9.00693 13.3903 9.25454 13.1445C9.50214 12.8986 9.83675 12.7604 10.1857 12.7598H54.9826C55.3339 12.7598 55.6709 12.8993 55.9193 13.1478C56.1677 13.3962 56.3073 13.7331 56.3073 14.0845V77.0446C56.3073 77.396 56.1677 77.7329 55.9193 77.9814C55.6709 78.2298 55.3339 78.3694 54.9826 78.3694ZM10.1857 12.8062C9.85013 12.8068 9.52853 12.9405 9.29147 13.178C9.05442 13.4155 8.92128 13.7373 8.92128 14.0729V77.0446C8.92128 77.3802 9.05442 77.702 9.29147 77.9395C9.52853 78.177 9.85013 78.3107 10.1857 78.3114H54.9826C55.3183 78.3107 55.6402 78.1771 55.8776 77.9397C56.115 77.7022 56.2487 77.3804 56.2493 77.0446V14.0729C56.2487 13.7371 56.115 13.4153 55.8776 13.1779C55.6402 12.9404 55.3183 12.8068 54.9826 12.8062H10.1857Z" fill="#EBEBEB"/>
<path d="M105.167 78.3694H60.3677C60.0165 78.3687 59.68 78.229 59.4317 77.9807C59.1834 77.7324 59.0436 77.3958 59.043 77.0446V14.0729C59.0466 13.7238 59.1877 13.3901 59.4357 13.1443C59.6837 12.8985 60.0185 12.7604 60.3677 12.7598H105.167C105.515 12.761 105.849 12.8995 106.097 13.1453C106.344 13.3911 106.484 13.7244 106.487 14.0729V77.0446C106.487 77.3952 106.348 77.7314 106.101 77.9797C105.853 78.228 105.517 78.3681 105.167 78.3694ZM60.3677 12.8062C60.0319 12.8068 59.7101 12.9404 59.4727 13.1779C59.2352 13.4153 59.1016 13.7371 59.101 14.0729V77.0446C59.1016 77.3804 59.2352 77.7022 59.4727 77.9397C59.7101 78.1771 60.0319 78.3107 60.3677 78.3114H105.167C105.503 78.3107 105.824 78.1771 106.062 77.9397C106.299 77.7022 106.433 77.3804 106.434 77.0446V14.0729C106.433 13.7371 106.299 13.4153 106.062 13.1779C105.824 12.9404 105.503 12.8068 105.167 12.8062H60.3677Z" fill="#EBEBEB"/>
<path d="M78.1822 87.4131H82.4766V56.1928H78.1822V87.4131Z" fill="#F0F0F0"/>
<path d="M34.3475 88.7139H81.6523V87.4124H34.3475V88.7139Z" fill="#F0F0F0"/>
<path d="M78.1834 56.1943H33.5234V87.4146H78.1834V56.1943Z" fill="#F5F5F5"/>
<path d="M78.1822 56.1943H82.4766V55.0575H78.1822V56.1943Z" fill="#E6E6E6"/>
<path d="M78.1834 55.0576H33.5234V56.1944H78.1834V55.0576Z" fill="#F0F0F0"/>
<path d="M76.6385 65.6097H35.0664V58.5801H76.6385V65.6097ZM35.3541 65.3197H76.3508V58.8701H35.3541V65.3197Z" fill="#E0E0E0"/>
<path d="M76.6385 85.0276H35.0664V67.333H76.6385V85.0276ZM35.3541 84.74H76.3508V67.6207H35.3541V84.74Z" fill="#E0E0E0"/>
<path d="M40.6679 59.6494L71.0391 59.6494V58.7261L40.6679 58.7261V59.6494Z" fill="#E0E0E0"/>
<path d="M40.6679 68.4004H71.0391V67.477H40.6679V68.4004Z" fill="#E0E0E0"/>
<path d="M97.648 87.8885C97.5568 87.8879 97.4694 87.8512 97.4051 87.7864C97.3408 87.7216 97.3047 87.6341 97.3047 87.5428V33.9322C97.3047 33.8412 97.3409 33.7538 97.4053 33.6894C97.4696 33.625 97.557 33.5889 97.648 33.5889C97.7391 33.5889 97.8264 33.625 97.8908 33.6894C97.9552 33.7538 97.9914 33.8412 97.9914 33.9322V87.5428C97.9914 87.6341 97.9553 87.7216 97.891 87.7864C97.8267 87.8512 97.7393 87.8879 97.648 87.8885Z" fill="#F5F5F5"/>
<path d="M96.9576 87.0576H98.3496C98.5994 87.0576 98.8389 87.1569 99.0156 87.3335C99.1922 87.5101 99.2915 87.7497 99.2915 87.9995V88.7141H96.0156V87.9995C96.0156 87.7497 96.1149 87.5101 96.2915 87.3335C96.4682 87.1569 96.7077 87.0576 96.9576 87.0576Z" fill="#F0F0F0"/>
<path d="M90.9766 41.0639C90.9766 41.0639 91.1459 34.5029 97.6489 34.5029C104.152 34.5029 104.324 41.0639 104.324 41.0639H90.9766Z" fill="#E0E0E0"/>
<path d="M18.3496 87.8885C18.2579 87.8885 18.17 87.852 18.1052 87.7872C18.0403 87.7224 18.0039 87.6345 18.0039 87.5428V33.9322C18.0045 33.8409 18.0412 33.7536 18.106 33.6893C18.1707 33.625 18.2583 33.5889 18.3496 33.5889C18.4407 33.5889 18.528 33.625 18.5924 33.6894C18.6568 33.7538 18.6929 33.8412 18.6929 33.9322V87.5428C18.6929 87.6341 18.6568 87.7216 18.5925 87.7864C18.5282 87.8512 18.4409 87.8879 18.3496 87.8885Z" fill="#F5F5F5"/>
<path d="M17.6607 87.0576H19.0527C19.3025 87.0576 19.5421 87.1569 19.7187 87.3335C19.8954 87.5101 19.9946 87.7497 19.9946 87.9995V88.7141H16.7188V87.9995C16.7188 87.8758 16.7431 87.7534 16.7904 87.6391C16.8378 87.5248 16.9072 87.421 16.9946 87.3335C17.0821 87.246 17.1859 87.1767 17.3002 87.1293C17.4145 87.082 17.537 87.0576 17.6607 87.0576Z" fill="#F0F0F0"/>
<path d="M11.6758 41.0639C11.6758 41.0639 11.8451 34.5029 18.3504 34.5029C24.8557 34.5029 25.0227 41.0639 25.0227 41.0639H11.6758Z" fill="#E0E0E0"/>
<path d="M66.3639 54.5664H49.8594V55.0582H66.3639V54.5664Z" fill="#E0E0E0"/>
<path d="M66.3639 54.5665H49.8594L51.4463 45.1172H67.9507L66.3639 54.5665Z" fill="#E0E0E0"/>
<path d="M66.0592 54.5665H49.5547L51.1416 45.1172H67.646L66.0592 54.5665Z" fill="#EBEBEB"/>
<path d="M50.1791 53.8238L51.5293 45.7896C51.5371 45.74 51.5625 45.6949 51.6009 45.6626C51.6392 45.6302 51.6879 45.6127 51.7381 45.6133H66.8181C66.8488 45.6132 66.8792 45.6198 66.9071 45.6327C66.935 45.6456 66.9597 45.6644 66.9796 45.6878C66.9995 45.7112 67.014 45.7387 67.0222 45.7683C67.0304 45.7979 67.032 45.8289 67.0269 45.8592L65.6767 53.8934C65.6685 53.943 65.643 53.9881 65.6048 54.0208C65.5666 54.0534 65.5181 54.0716 65.4679 54.072H50.3879C50.3569 54.0722 50.3263 54.0655 50.2982 54.0525C50.2701 54.0395 50.2453 54.0205 50.2253 53.9968C50.2054 53.9731 50.1909 53.9453 50.1829 53.9154C50.175 53.8855 50.1736 53.8542 50.1791 53.8238Z" fill="#FAFAFA"/>
<path d="M62.6295 54.5664H46.125V55.0582H62.6295V54.5664Z" fill="#F0F0F0"/>
<path d="M79.5516 20.3604H35.8242V34.4938H79.5516V20.3604Z" fill="#EBEBEB"/>
<path d="M79.5494 34.4912H80.1758V20.3578H79.5494V34.4912Z" fill="#E0E0E0"/>
<path d="M77.6353 22.2744H37.7383V32.5775H77.6353V22.2744Z" fill="white"/>
<path d="M60.0892 27.4261L57.6875 25.0244L55.2858 27.4261L57.6875 29.8278L60.0892 27.4261Z" fill="#F5F5F5"/>
<path d="M53.64 27.4261L51.2383 25.0244L48.8366 27.4261L51.2383 29.8278L53.64 27.4261Z" fill="#F5F5F5"/>
<path d="M47.1946 27.4261L44.793 25.0244L42.3913 27.4261L44.793 29.8278L47.1946 27.4261Z" fill="#F5F5F5"/>
<path d="M66.5345 27.4261L64.1328 25.0244L61.7311 27.4261L64.1328 29.8278L66.5345 27.4261Z" fill="#F5F5F5"/>
<path d="M72.9837 27.4261L70.582 25.0244L68.1804 27.4261L70.582 29.8278L72.9837 27.4261Z" fill="#F5F5F5"/>
<path d="M57.9981 99.1939C82.8412 99.1939 102.981 98.0181 102.981 96.5676C102.981 95.1172 82.8412 93.9414 57.9981 93.9414C33.155 93.9414 13.0156 95.1172 13.0156 96.5676C13.0156 98.0181 33.155 99.1939 57.9981 99.1939Z" fill="#F5F5F5"/>
<path d="M84.2021 28.5471C84.2234 28.2789 84.1885 28.0092 84.0997 27.7552C84.0109 27.5012 83.87 27.2685 83.6862 27.072C83.5024 26.8755 83.2796 26.7195 83.032 26.614C82.7845 26.5084 82.5177 26.4557 82.2486 26.4591H50.1329C49.568 26.4672 49.0264 26.6856 48.6141 27.0718C48.2018 27.4579 47.9483 27.984 47.9033 28.5471L47.1656 39.6715L42.5418 73.8707C42.4967 74.131 42.51 74.3981 42.5807 74.6527C42.6514 74.9073 42.7778 75.1431 42.9508 75.3429C43.1237 75.5426 43.3388 75.7015 43.5807 75.808C43.8225 75.9145 44.085 75.966 44.3491 75.9587H76.4672C77.0446 75.9433 77.5983 75.7259 78.0319 75.3444C78.4656 74.9629 78.7517 74.4414 78.8405 73.8707L83.4643 39.6715L84.2021 28.5471Z" fill="#EF233C"/>
<path opacity="0.2" d="M84.2021 28.5471C84.2234 28.2789 84.1885 28.0092 84.0997 27.7552C84.0109 27.5012 83.87 27.2685 83.6862 27.072C83.5024 26.8755 83.2796 26.7195 83.032 26.614C82.7845 26.5084 82.5177 26.4557 82.2486 26.4591H50.1329C49.568 26.4672 49.0264 26.6856 48.6141 27.0718C48.2018 27.4579 47.9483 27.984 47.9033 28.5471L47.1656 39.6715L42.5418 73.8707C42.4967 74.131 42.51 74.3981 42.5807 74.6527C42.6514 74.9073 42.7778 75.1431 42.9508 75.3429C43.1237 75.5426 43.3388 75.7015 43.5807 75.808C43.8225 75.9145 44.085 75.966 44.3491 75.9587H76.4672C77.0446 75.9433 77.5983 75.7259 78.0319 75.3444C78.4656 74.9629 78.7517 74.4414 78.8405 73.8707L83.4643 39.6715L84.2021 28.5471Z" fill="black"/>
<path d="M75.3222 75.9613H43.2041C42.9401 75.9682 42.6778 75.9165 42.4362 75.8098C42.1946 75.7032 41.9796 75.5443 41.8068 75.3446C41.6339 75.1449 41.5075 74.9094 41.4366 74.655C41.3658 74.4006 41.3522 74.1336 41.3968 73.8733L46.0206 39.6719H82.3193L77.6956 73.871C77.6072 74.4421 77.3213 74.9642 76.8876 75.3462C76.4539 75.7281 75.8999 75.9458 75.3222 75.9613Z" fill="#EF233C"/>
<path d="M54.9049 25.6426H50.1211V25.8746H54.9049V25.6426Z" fill="#EF233C"/>
<path d="M47.8592 26.1228L47.7617 25.9117C48.1459 25.7347 48.5637 25.6429 48.9867 25.6426V25.8746C48.5973 25.8749 48.2126 25.9595 47.8592 26.1228Z" fill="#EF233C"/>
<path d="M81.1049 26.4474H48.9868C48.422 26.4554 47.8804 26.6739 47.4681 27.06C47.0557 27.4462 46.8023 27.9723 46.7573 28.5354L46.0195 39.6714H82.3182L83.0537 28.547C83.077 28.2782 83.0438 28.0074 82.9562 27.7522C82.8685 27.4969 82.7284 27.2629 82.5448 27.0651C82.3612 26.8673 82.1383 26.7102 81.8903 26.6038C81.6423 26.4974 81.3747 26.4441 81.1049 26.4474Z" fill="#EF233C"/>
<path opacity="0.9" d="M47.8157 36.9481L48.3308 29.1691C48.3544 28.8726 48.4879 28.5955 48.705 28.3922C48.9221 28.1888 49.2073 28.0737 49.5047 28.0694H80.3769C80.5187 28.0673 80.6593 28.0949 80.7898 28.1504C80.9202 28.2059 81.0376 28.2881 81.1344 28.3916C81.2312 28.4952 81.3052 28.6179 81.3518 28.7518C81.3984 28.8857 81.4164 29.0278 81.4047 29.1691L80.8897 36.9481C80.8655 37.2444 80.7319 37.5212 80.5149 37.7245C80.2979 37.9277 80.013 38.043 79.7157 38.0478H48.8435C48.7019 38.0495 48.5614 38.0217 48.4311 37.9661C48.3009 37.9105 48.1836 37.8283 48.0869 37.7248C47.9902 37.6213 47.9161 37.4988 47.8694 37.365C47.8227 37.2313 47.8044 37.0893 47.8157 36.9481Z" fill="white"/>
<g opacity="0.4">
<path d="M78.1486 29.3431L77.7983 29.6702C77.7897 29.6785 77.7795 29.6851 77.7683 29.6895C77.7572 29.6938 77.7453 29.696 77.7333 29.6957H75.8773C75.8642 29.696 75.8512 29.6935 75.8392 29.6883C75.8272 29.6831 75.8164 29.6753 75.8077 29.6655L75.5061 29.3407C75.4934 29.3272 75.485 29.3102 75.4819 29.292C75.4787 29.2737 75.481 29.2549 75.4884 29.2379C75.4958 29.2208 75.508 29.2064 75.5235 29.1962C75.539 29.186 75.5572 29.1806 75.5757 29.1807H78.0883C78.107 29.1809 78.1253 29.1868 78.1406 29.1976C78.156 29.2084 78.1677 29.2236 78.1742 29.2411C78.1807 29.2587 78.1818 29.2779 78.1772 29.2961C78.1726 29.3143 78.1627 29.3307 78.1486 29.3431Z" fill="#EF233C"/>
<path d="M77.6586 35.3725H75.146C75.1269 35.3725 75.1082 35.3668 75.0924 35.356C75.0766 35.3453 75.0644 35.33 75.0574 35.3123C75.0504 35.2945 75.0489 35.275 75.0531 35.2564C75.0573 35.2377 75.0671 35.2208 75.0811 35.2078L75.4291 34.883C75.4469 34.8669 75.47 34.8579 75.494 34.8575H77.35C77.3634 34.8571 77.3766 34.8598 77.3887 34.8655C77.4007 34.8711 77.4113 34.8795 77.4196 34.8899L77.7235 35.2147C77.7353 35.2281 77.743 35.2444 77.746 35.2619C77.7489 35.2794 77.7469 35.2974 77.7401 35.3138C77.7334 35.3302 77.7221 35.3444 77.7077 35.3548C77.6933 35.3652 77.6763 35.3713 77.6586 35.3725Z" fill="#EF233C"/>
<path d="M77.9019 32.3401L77.7232 32.5094C77.7053 32.5255 77.6823 32.5345 77.6583 32.5349H75.4798C75.4669 32.5347 75.4542 32.5318 75.4424 32.5264C75.4307 32.5211 75.4201 32.5134 75.4115 32.5038C75.4028 32.4943 75.3961 32.4831 75.3919 32.4709C75.3877 32.4587 75.386 32.4457 75.387 32.4329L75.4102 32.1057C75.4119 32.0817 75.4227 32.0593 75.4404 32.0429C75.458 32.0266 75.4812 32.0175 75.5053 32.0176H77.6907C77.7038 32.0174 77.7168 32.02 77.7288 32.0252C77.7407 32.0304 77.7515 32.0381 77.7603 32.0477L77.9088 32.2078C77.9171 32.2169 77.9236 32.2276 77.9277 32.2392C77.9319 32.2508 77.9337 32.2631 77.9331 32.2754C77.9324 32.2877 77.9293 32.2998 77.924 32.3109C77.9186 32.322 77.9111 32.3319 77.9019 32.3401Z" fill="#EF233C"/>
<path d="M78.2004 32.5189L78.0171 35.0315C78.0154 35.0498 78.0084 35.0673 77.997 35.0817C77.9856 35.0962 77.9703 35.107 77.9528 35.1129C77.9354 35.1188 77.9166 35.1195 77.8988 35.1149C77.881 35.1104 77.8649 35.1007 77.8524 35.0872L77.5531 34.7624C77.5441 34.7528 77.5372 34.7415 77.5328 34.7291C77.5284 34.7167 77.5266 34.7036 77.5276 34.6905L77.6645 32.8229C77.6648 32.8109 77.6677 32.7991 77.6729 32.7884C77.6781 32.7776 77.6855 32.768 77.6946 32.7602L78.0426 32.4354C78.0571 32.4224 78.0752 32.4142 78.0945 32.4118C78.1139 32.4095 78.1334 32.4131 78.1506 32.4222C78.1678 32.4313 78.1818 32.4454 78.1907 32.4627C78.1996 32.48 78.203 32.4997 78.2004 32.5189Z" fill="#EF233C"/>
<path d="M78.4152 29.538L78.232 32.0575C78.2307 32.0761 78.224 32.0938 78.2128 32.1086C78.2015 32.1233 78.1862 32.1345 78.1687 32.1407C78.1512 32.1468 78.1322 32.1477 78.1142 32.1433C78.0962 32.1388 78.0799 32.1292 78.0672 32.1155L77.7657 31.7884C77.7574 31.7789 77.751 31.7679 77.7471 31.7559C77.7431 31.744 77.7415 31.7314 77.7424 31.7188L77.877 29.8512C77.8792 29.8274 77.8899 29.8052 77.9072 29.7886L78.2552 29.4614C78.2691 29.4483 78.2868 29.4396 78.3057 29.4367C78.3247 29.4337 78.3441 29.4366 78.3615 29.4449C78.3788 29.4531 78.3932 29.4665 78.4028 29.4831C78.4124 29.4997 78.4167 29.5189 78.4152 29.538Z" fill="#EF233C"/>
</g>
<path opacity="0.4" d="M74.1262 36.4241C74.1336 36.3374 74.1728 36.2566 74.2361 36.1971C74.2995 36.1376 74.3827 36.1035 74.4696 36.1016H78.4136C78.4597 36.1011 78.5053 36.1103 78.5477 36.1283C78.5901 36.1464 78.6283 36.1731 78.6599 36.2066C78.6915 36.2402 78.7158 36.2799 78.7313 36.3233C78.7468 36.3667 78.7532 36.4129 78.75 36.4589C78.7425 36.5459 78.703 36.627 78.6392 36.6866C78.5753 36.7462 78.4916 36.7799 78.4043 36.7813H74.4696C74.4227 36.7835 74.3759 36.7756 74.3324 36.7582C74.2888 36.7408 74.2494 36.7143 74.2169 36.6805C74.1844 36.6467 74.1595 36.6063 74.1439 36.5621C74.1282 36.5179 74.1222 36.4708 74.1262 36.4241Z" fill="#EF233C"/>
<path opacity="0.4" d="M69.1965 36.4241C69.2039 36.3374 69.2431 36.2566 69.3064 36.1971C69.3698 36.1376 69.4529 36.1035 69.5399 36.1016H73.4839C73.5299 36.1011 73.5756 36.1103 73.618 36.1283C73.6604 36.1464 73.6986 36.1731 73.7302 36.2066C73.7618 36.2402 73.7861 36.2799 73.8016 36.3233C73.8171 36.3667 73.8235 36.4129 73.8203 36.4589C73.8128 36.5459 73.7733 36.627 73.7095 36.6866C73.6456 36.7462 73.5619 36.7799 73.4746 36.7813H69.5306C69.4845 36.7822 69.4387 36.7733 69.3963 36.7553C69.3538 36.7373 69.3156 36.7106 69.2841 36.677C69.2526 36.6433 69.2286 36.6034 69.2135 36.5598C69.1984 36.5162 69.1926 36.47 69.1965 36.4241Z" fill="#EF233C"/>
<path opacity="0.4" d="M64.2629 36.424C64.2703 36.3374 64.3095 36.2566 64.3728 36.1971C64.4362 36.1375 64.5193 36.1035 64.6063 36.1016H68.5503C68.5962 36.1015 68.6416 36.1108 68.6837 36.129C68.7258 36.1472 68.7637 36.1739 68.7951 36.2075C68.8264 36.241 68.8505 36.2806 68.8659 36.3239C68.8812 36.3671 68.8875 36.4131 68.8843 36.4588C68.8774 36.5461 68.8381 36.6275 68.7741 36.6872C68.7101 36.7469 68.6261 36.7804 68.5387 36.7813H64.5947C64.5488 36.7818 64.5033 36.7727 64.4611 36.7546C64.4189 36.7364 64.381 36.7097 64.3498 36.6761C64.3185 36.6424 64.2946 36.6026 64.2797 36.5592C64.2647 36.5158 64.259 36.4698 64.2629 36.424Z" fill="#EF233C"/>
<path opacity="0.4" d="M59.3293 36.424C59.3367 36.3374 59.3759 36.2566 59.4392 36.1971C59.5026 36.1375 59.5857 36.1035 59.6727 36.1016H63.6167C63.6626 36.1015 63.708 36.1108 63.7501 36.129C63.7922 36.1472 63.8301 36.1739 63.8615 36.2075C63.8928 36.241 63.9169 36.2806 63.9323 36.3239C63.9476 36.3671 63.9539 36.4131 63.9507 36.4588C63.9438 36.5461 63.9045 36.6275 63.8405 36.6872C63.7765 36.7469 63.6925 36.7804 63.6051 36.7813H59.6611C59.6152 36.7818 59.5697 36.7727 59.5275 36.7546C59.4853 36.7364 59.4474 36.7097 59.4162 36.6761C59.3849 36.6424 59.3611 36.6026 59.3461 36.5592C59.3311 36.5158 59.3254 36.4698 59.3293 36.424Z" fill="#EF233C"/>
<path opacity="0.1" d="M48.4381 55.5334L49.8904 44.7988C49.9447 44.4469 50.1207 44.1253 50.3878 43.89C50.6549 43.6547 50.9962 43.5206 51.352 43.5112H62.0867C62.2495 43.5067 62.4113 43.5385 62.5604 43.6042C62.7094 43.6699 62.842 43.7679 62.9486 43.8911C63.0552 44.0143 63.133 44.1596 63.1766 44.3166C63.2201 44.4736 63.2282 44.6383 63.2003 44.7988L61.748 55.5334C61.6942 55.885 61.5187 56.2066 61.2519 56.442C60.9852 56.6773 60.6443 56.8115 60.2887 56.821H49.5517C49.3889 56.8255 49.2271 56.7937 49.078 56.728C48.929 56.6623 48.7964 56.5643 48.6898 56.4411C48.5832 56.3179 48.5054 56.1725 48.4619 56.0156C48.4183 55.8586 48.4102 55.6939 48.4381 55.5334Z" fill="#263238"/>
<path opacity="0.1" d="M63.7315 55.5335L65.1908 44.7988C65.245 44.447 65.4211 44.1254 65.6882 43.8901C65.9553 43.6547 66.2966 43.5207 66.6524 43.5112H77.3871C77.55 43.5063 77.712 43.5378 77.8613 43.6034C78.0106 43.6689 78.1434 43.7669 78.25 43.8903C78.3567 44.0136 78.4345 44.1591 78.4778 44.3163C78.5212 44.4734 78.529 44.6383 78.5007 44.7988L77.0507 55.5335C76.996 55.8851 76.8199 56.2065 76.5528 56.4417C76.2858 56.677 75.9448 56.8112 75.5891 56.8211H64.8428C64.68 56.8256 64.5183 56.7939 64.3693 56.7282C64.2203 56.6624 64.0879 56.5644 63.9815 56.4411C63.8751 56.3179 63.7974 56.1725 63.7542 56.0155C63.711 55.8585 63.7032 55.6938 63.7315 55.5335Z" fill="#263238"/>
<path opacity="0.1" d="M46.3709 70.8271L47.8232 60.0878C47.8779 59.7362 48.054 59.4148 48.3211 59.1796C48.5881 58.9443 48.9291 58.8101 49.2848 58.8002H60.0195C60.1823 58.7957 60.3441 58.8275 60.4932 58.8932C60.6422 58.9589 60.7748 59.0569 60.8814 59.1801C60.988 59.3033 61.0658 59.4487 61.1093 59.6057C61.1529 59.7626 61.161 59.9273 61.1331 60.0878L59.6808 70.8248C59.6265 71.176 59.4508 71.497 59.1841 71.7319C58.9174 71.9668 58.5767 72.1006 58.2215 72.1101H47.4845C47.3221 72.1144 47.1608 72.0827 47.0122 72.0173C46.8635 71.9518 46.7312 71.8543 46.6247 71.7316C46.5182 71.6089 46.4402 71.4642 46.3963 71.3078C46.3525 71.1514 46.3438 70.9873 46.3709 70.8271Z" fill="#263238"/>
<path opacity="0.1" d="M61.6643 70.8271L63.1143 60.0878C63.169 59.7362 63.3451 59.4148 63.6121 59.1796C63.8792 58.9443 64.2202 58.8101 64.5759 58.8002H75.3106C75.4734 58.7957 75.6352 58.8275 75.7843 58.8932C75.9333 58.9589 76.0659 59.0569 76.1725 59.1801C76.279 59.3033 76.3569 59.4487 76.4004 59.6057C76.444 59.7626 76.4521 59.9273 76.4242 60.0878L74.9742 70.8248C74.919 71.176 74.7427 71.4968 74.4757 71.7316C74.2087 71.9664 73.8679 72.1003 73.5126 72.1101H62.7756C62.6133 72.1145 62.452 72.0828 62.3034 72.0174C62.1549 71.9519 62.0226 71.8543 61.9163 71.7316C61.81 71.6088 61.7323 71.4641 61.6887 71.3076C61.6451 71.1512 61.6368 70.9871 61.6643 70.8271Z" fill="#263238"/>
<path d="M47.7233 55.5334L49.1826 44.7988C49.2368 44.4469 49.4128 44.1253 49.6799 43.89C49.947 43.6547 50.2883 43.5206 50.6442 43.5112H61.3788C61.5416 43.5067 61.7034 43.5385 61.8525 43.6042C62.0016 43.6699 62.1342 43.7679 62.2407 43.8911C62.3473 44.0143 62.4251 44.1596 62.4687 44.3166C62.5122 44.4736 62.5203 44.6383 62.4924 44.7988L61.0401 55.5334C60.9864 55.885 60.8108 56.2066 60.5441 56.442C60.2773 56.6773 59.9364 56.8115 59.5808 56.821H48.8369C48.674 56.8255 48.5122 56.7937 48.3632 56.728C48.2141 56.6623 48.0815 56.5643 47.975 56.4411C47.8684 56.3179 47.7905 56.1725 47.747 56.0156C47.7035 55.8586 47.6954 55.6939 47.7233 55.5334Z" fill="#EF233C"/>
<path opacity="0.2" d="M47.7233 55.5334L49.1826 44.7988C49.2368 44.4469 49.4128 44.1253 49.6799 43.89C49.947 43.6547 50.2883 43.5206 50.6442 43.5112H61.3788C61.5416 43.5067 61.7034 43.5385 61.8525 43.6042C62.0016 43.6699 62.1342 43.7679 62.2407 43.8911C62.3473 44.0143 62.4251 44.1596 62.4687 44.3166C62.5122 44.4736 62.5203 44.6383 62.4924 44.7988L61.0401 55.5334C60.9864 55.885 60.8108 56.2066 60.5441 56.442C60.2773 56.6773 59.9364 56.8115 59.5808 56.821H48.8369C48.674 56.8255 48.5122 56.7937 48.3632 56.728C48.2141 56.6623 48.0815 56.5643 47.975 56.4411C47.8684 56.3179 47.7905 56.1725 47.747 56.0156C47.7035 55.8586 47.6954 55.6939 47.7233 55.5334Z" fill="white"/>
<path d="M63.0167 55.5335L64.4667 44.7988C64.5209 44.447 64.6969 44.1254 64.9641 43.8901C65.2312 43.6547 65.5724 43.5207 65.9283 43.5112H76.6629C76.8259 43.5063 76.9879 43.5378 77.1372 43.6034C77.2864 43.6689 77.4192 43.7669 77.5259 43.8903C77.6325 44.0136 77.7104 44.1591 77.7537 44.3163C77.7971 44.4734 77.8049 44.6383 77.7765 44.7988L76.3265 55.5335C76.2719 55.8851 76.0957 56.2065 75.8287 56.4417C75.5617 56.677 75.2207 56.8112 74.8649 56.8211H64.128C63.9652 56.8256 63.8035 56.7939 63.6545 56.7282C63.5055 56.6624 63.373 56.5644 63.2666 56.4411C63.1602 56.3179 63.0826 56.1725 63.0394 56.0155C62.9961 55.8585 62.9884 55.6938 63.0167 55.5335Z" fill="#EF233C"/>
<path opacity="0.2" d="M63.0167 55.5335L64.4667 44.7988C64.5209 44.447 64.6969 44.1254 64.9641 43.8901C65.2312 43.6547 65.5724 43.5207 65.9283 43.5112H76.6629C76.8259 43.5063 76.9879 43.5378 77.1372 43.6034C77.2864 43.6689 77.4192 43.7669 77.5259 43.8903C77.6325 44.0136 77.7104 44.1591 77.7537 44.3163C77.7971 44.4734 77.8049 44.6383 77.7765 44.7988L76.3265 55.5335C76.2719 55.8851 76.0957 56.2065 75.8287 56.4417C75.5617 56.677 75.2207 56.8112 74.8649 56.8211H64.128C63.9652 56.8256 63.8035 56.7939 63.6545 56.7282C63.5055 56.6624 63.373 56.5644 63.2666 56.4411C63.1602 56.3179 63.0826 56.1725 63.0394 56.0155C62.9961 55.8585 62.9884 55.6938 63.0167 55.5335Z" fill="white"/>
<path d="M45.6561 70.8271L47.1084 60.0878C47.163 59.7362 47.3392 59.4148 47.6062 59.1796C47.8732 58.9443 48.2143 58.8101 48.57 58.8002H59.3046C59.4675 58.7957 59.6293 58.8275 59.7783 58.8932C59.9274 58.9589 60.06 59.0569 60.1666 59.1801C60.2731 59.3033 60.351 59.4487 60.3945 59.6057C60.438 59.7626 60.4461 59.9273 60.4182 60.0878L58.9659 70.8248C58.9117 71.176 58.7359 71.497 58.4692 71.7319C58.2026 71.9668 57.8619 72.1006 57.5066 72.1101H46.7697C46.6073 72.1144 46.446 72.0827 46.2973 72.0173C46.1486 71.9518 46.0163 71.8543 45.9098 71.7316C45.8034 71.6089 45.7254 71.4642 45.6815 71.3078C45.6376 71.1514 45.6289 70.9873 45.6561 70.8271Z" fill="#EF233C"/>
<path opacity="0.2" d="M45.6561 70.8271L47.1084 60.0878C47.163 59.7362 47.3392 59.4148 47.6062 59.1796C47.8732 58.9443 48.2143 58.8101 48.57 58.8002H59.3046C59.4675 58.7957 59.6293 58.8275 59.7783 58.8932C59.9274 58.9589 60.06 59.0569 60.1666 59.1801C60.2731 59.3033 60.351 59.4487 60.3945 59.6057C60.438 59.7626 60.4461 59.9273 60.4182 60.0878L58.9659 70.8248C58.9117 71.176 58.7359 71.497 58.4692 71.7319C58.2026 71.9668 57.8619 72.1006 57.5066 72.1101H46.7697C46.6073 72.1144 46.446 72.0827 46.2973 72.0173C46.1486 71.9518 46.0163 71.8543 45.9098 71.7316C45.8034 71.6089 45.7254 71.4642 45.6815 71.3078C45.6376 71.1514 45.6289 70.9873 45.6561 70.8271Z" fill="white"/>
<path d="M60.9495 70.8271L62.4064 60.0878C62.4611 59.7362 62.6372 59.4148 62.9043 59.1796C63.1713 58.9443 63.5123 58.8101 63.868 58.8002H74.6027C74.7655 58.7957 74.9273 58.8275 75.0764 58.8932C75.2254 58.9589 75.358 59.0569 75.4646 59.1801C75.5712 59.3033 75.649 59.4487 75.6925 59.6057C75.7361 59.7626 75.7442 59.9273 75.7163 60.0878L74.2663 70.8248C74.2111 71.176 74.0348 71.4968 73.7678 71.7316C73.5008 71.9664 73.1601 72.1003 72.8047 72.1101H62.0608C61.8984 72.1145 61.7372 72.0828 61.5886 72.0174C61.44 71.9519 61.3078 71.8543 61.2015 71.7316C61.0952 71.6088 61.0174 71.4641 60.9739 71.3076C60.9303 71.1512 60.922 70.9871 60.9495 70.8271Z" fill="#EF233C"/>
<path opacity="0.2" d="M60.9495 70.8271L62.4064 60.0878C62.4611 59.7362 62.6372 59.4148 62.9043 59.1796C63.1713 58.9443 63.5123 58.8101 63.868 58.8002H74.6027C74.7655 58.7957 74.9273 58.8275 75.0764 58.8932C75.2254 58.9589 75.358 59.0569 75.4646 59.1801C75.5712 59.3033 75.649 59.4487 75.6925 59.6057C75.7361 59.7626 75.7442 59.9273 75.7163 60.0878L74.2663 70.8248C74.2111 71.176 74.0348 71.4968 73.7678 71.7316C73.5008 71.9664 73.1601 72.1003 72.8047 72.1101H62.0608C61.8984 72.1145 61.7372 72.0828 61.5886 72.0174C61.44 71.9519 61.3078 71.8543 61.2015 71.7316C61.0952 71.6088 61.0174 71.4641 60.9739 71.3076C60.9303 71.1512 60.922 70.9871 60.9495 70.8271Z" fill="white"/>
<path d="M54.5001 54.6329C54.3375 54.6365 54.1761 54.6042 54.0274 54.5382C53.8788 54.4723 53.7465 54.3743 53.6401 54.2513C53.5338 54.1283 53.4559 53.9833 53.412 53.8267C53.3681 53.67 53.3594 53.5057 53.3865 53.3453L54.2472 46.9885C54.3022 46.6368 54.4784 46.3154 54.7453 46.0799C55.0122 45.8443 55.353 45.7095 55.7088 45.6986C55.8717 45.6945 56.0336 45.7266 56.1826 45.7925C56.3317 45.8585 56.4642 45.9567 56.5707 46.0801C56.6772 46.2035 56.7551 46.349 56.7986 46.506C56.8421 46.6631 56.8502 46.8279 56.8224 46.9885L55.964 53.3453C55.9084 53.697 55.7317 54.0181 55.4643 54.2532C55.197 54.4884 54.8559 54.6227 54.5001 54.6329Z" fill="white"/>
<path d="M50.6365 50.1672C50.692 49.8153 50.8686 49.4938 51.1359 49.2583C51.4032 49.0228 51.7443 48.888 52.1004 48.8772H58.4618C58.6247 48.8735 58.7863 48.9059 58.9351 48.972C59.084 49.0381 59.2164 49.1363 59.3228 49.2596C59.4292 49.3829 59.5071 49.5282 59.5507 49.6851C59.5944 49.842 59.6029 50.0066 59.5754 50.1672C59.5199 50.5184 59.3435 50.8393 59.0767 51.0744C58.8099 51.3094 58.4693 51.444 58.1138 51.4548H51.757C51.5939 51.4594 51.4317 51.4279 51.2822 51.3624C51.1327 51.2968 50.9995 51.199 50.8924 51.0759C50.7852 50.9527 50.7067 50.8074 50.6624 50.6502C50.6182 50.4931 50.6093 50.3281 50.6365 50.1672Z" fill="white"/>
<path d="M49.4523 68.6161C49.0184 68.1149 49.1298 67.296 49.6982 66.7949L54.8022 62.2987C55.3706 61.7976 56.1942 61.7976 56.6234 62.2987C57.0572 62.7998 56.9459 63.6211 56.3775 64.1222L51.2735 68.6161C50.7051 69.1172 49.8791 69.1172 49.4523 68.6161Z" fill="white"/>
<path d="M50.3076 62.2987C50.876 61.7976 51.6996 61.7976 52.1311 62.2987L56.0171 66.7949C56.4509 67.296 56.3396 68.1149 55.7712 68.6161C55.2028 69.1172 54.3792 69.1172 53.95 68.6161L50.0616 64.1222C49.6278 63.6211 49.7392 62.7998 50.3076 62.2987Z" fill="white"/>
<path d="M65.9294 50.1672C65.985 49.8153 66.1616 49.4939 66.4289 49.2584C66.6962 49.0229 67.0373 48.8881 67.3934 48.8773H73.7502C73.9131 48.8732 74.0749 48.9053 74.224 48.9713C74.373 49.0372 74.5056 49.1354 74.6121 49.2588C74.7186 49.3822 74.7965 49.5277 74.84 49.6848C74.8835 49.8418 74.8916 50.0066 74.8638 50.1672C74.8083 50.5185 74.6319 50.8394 74.365 51.0744C74.0982 51.3095 73.7576 51.444 73.4022 51.4548H67.0477C66.8847 51.4591 66.7228 51.4273 66.5736 51.3617C66.4243 51.296 66.2915 51.1981 66.1846 51.075C66.0777 50.9519 65.9994 50.8067 65.9553 50.6497C65.9111 50.4928 65.9023 50.328 65.9294 50.1672Z" fill="white"/>
<path d="M64.1329 63.4539C64.1885 63.1022 64.3653 62.7811 64.6326 62.546C64.8999 62.3108 65.241 62.1765 65.5969 62.1663H71.9537C72.1163 62.1627 72.2776 62.195 72.4263 62.261C72.5749 62.3269 72.7072 62.4249 72.8136 62.5479C72.92 62.671 72.9979 62.8159 73.0417 62.9725C73.0856 63.1292 73.0943 63.2935 73.0673 63.4539C73.0123 63.8056 72.8361 64.127 72.5692 64.3625C72.3023 64.5981 71.9615 64.7329 71.6057 64.7438H65.2465C65.0837 64.7475 64.9221 64.7151 64.7733 64.649C64.6244 64.5829 64.492 64.4847 64.3856 64.3614C64.2792 64.2381 64.2013 64.0928 64.1576 63.9359C64.114 63.7791 64.1055 63.6144 64.1329 63.4539Z" fill="white"/>
<path d="M63.5904 67.4608C63.6459 67.1095 63.8223 66.7887 64.0892 66.5536C64.356 66.3185 64.6966 66.184 65.052 66.1732H71.4088C71.5716 66.1692 71.7333 66.2013 71.8822 66.2671C72.0311 66.3329 72.1637 66.4309 72.2703 66.5539C72.377 66.677 72.4551 66.8221 72.4991 66.9789C72.543 67.1356 72.5518 67.3002 72.5247 67.4608C72.4692 67.8127 72.2926 68.1341 72.0253 68.3696C71.758 68.6051 71.4169 68.7399 71.0608 68.7507H64.704C64.5411 68.7548 64.3792 68.7227 64.2302 68.6568C64.0811 68.5908 63.9486 68.4926 63.8421 68.3692C63.7356 68.2458 63.6577 68.1003 63.6142 67.9432C63.5707 67.7862 63.5626 67.6214 63.5904 67.4608Z" fill="white"/>
<path d="M30.9394 41.6904C30.5218 42.4653 30.0926 43.3005 29.7005 44.1171C29.3084 44.9338 28.9302 45.7667 28.6054 46.5995C28.5196 46.8083 28.45 47.0171 28.3734 47.2259C28.3328 47.3329 28.3093 47.4457 28.3038 47.56C28.2945 47.8892 28.3554 48.2167 28.4825 48.5205C28.8146 49.3012 29.256 50.0308 29.7933 50.6874L29.0022 51.6154C28.7816 51.473 28.5693 51.3181 28.3665 51.1514C28.1627 50.9918 27.9683 50.8206 27.7842 50.6387C27.3934 50.2638 27.0512 49.8414 26.7657 49.3812C26.4333 48.8533 26.2255 48.2567 26.1578 47.6366C26.1246 47.2793 26.1537 46.919 26.2437 46.5717C26.3086 46.3397 26.369 46.0845 26.4432 45.8455C26.7275 44.8971 27.0707 43.9672 27.471 43.0615C27.6705 42.6138 27.8746 42.1707 28.0997 41.7345C28.3247 41.2983 28.5405 40.8761 28.8096 40.4307L30.9394 41.6904Z" fill="#FF8B7B"/>
<path d="M29.4631 50.4209L30.6231 50.7271L29.7601 52.4045C29.7601 52.4045 28.897 52.0751 28.6836 51.3164L29.4631 50.4209Z" fill="#FF8B7B"/>
<path d="M32.2271 51.2555L31.1878 52.571L29.7656 52.4039L30.6287 50.7266L32.2271 51.2555Z" fill="#FF8B7B"/>
<path d="M36.4102 32.8423C36.4357 32.9722 36.5262 33.0627 36.6097 33.0464C36.6932 33.0302 36.742 32.9095 36.7141 32.7819C36.6863 32.6543 36.5981 32.5499 36.5146 32.5778C36.4311 32.6056 36.3824 32.7123 36.4102 32.8423Z" fill="#263238"/>
<path d="M36.5156 33.0645C36.7492 33.4278 37.0319 33.7573 37.3555 34.0435C37.279 34.1227 37.1864 34.1844 37.0839 34.2245C36.9814 34.2645 36.8714 34.2819 36.7615 34.2755L36.5156 33.0645Z" fill="#FF5652"/>
<path d="M36.6888 33.9411C36.3106 33.9411 35.9348 33.5282 35.8211 32.9621C35.7591 32.6858 35.7776 32.3976 35.8745 32.1315C35.9014 32.0219 35.9589 31.9223 36.0403 31.8441C36.1216 31.7659 36.2235 31.7124 36.334 31.6898C36.4446 31.6672 36.5593 31.6765 36.6648 31.7164C36.7703 31.7564 36.8623 31.8256 36.9301 31.9158C37.1184 32.1263 37.2474 32.3832 37.3036 32.66C37.3599 32.9368 37.3415 33.2237 37.2502 33.491C37.2169 33.598 37.1568 33.6946 37.0756 33.7718C36.9944 33.8489 36.8947 33.904 36.7862 33.9318C36.7541 33.9381 36.7215 33.9412 36.6888 33.9411ZM36.4382 31.7394C36.4074 31.736 36.3763 31.736 36.3454 31.7394C36.2474 31.7659 36.1576 31.8169 36.0846 31.8875C36.0116 31.9581 35.9576 32.046 35.9278 32.1431C35.8353 32.3989 35.8176 32.6757 35.8768 32.9412C35.9951 33.5282 36.3988 33.9434 36.7793 33.8692C36.8776 33.8433 36.9677 33.7926 37.0408 33.7219C37.1139 33.6512 37.1676 33.5629 37.1969 33.4655C37.2841 33.2088 37.3017 32.9336 37.2479 32.6679C37.1941 32.4021 37.0708 32.1554 36.8906 31.9529C36.8331 31.8891 36.7635 31.8373 36.6859 31.8007C36.6082 31.764 36.524 31.7432 36.4382 31.7394Z" fill="#263238"/>
<path d="M48.6384 46.214L50.1255 45.8984L50.318 47.9168C50.318 47.9168 49.0328 48.1628 48.418 47.1466L48.6384 46.214Z" fill="#FF8B7B"/>
<path d="M51.5309 46.3508L51.4358 47.824L50.3176 47.9168L50.125 45.8984L51.5309 46.3508Z" fill="#FF8B7B"/>
<path d="M35.7897 32.2224C35.7803 32.2225 35.7709 32.2206 35.7621 32.2171C35.7534 32.2135 35.7454 32.2082 35.7387 32.2015C35.7312 32.1946 35.7252 32.1862 35.7211 32.1768C35.717 32.1674 35.7148 32.1573 35.7148 32.147C35.7148 32.1368 35.717 32.1266 35.7211 32.1173C35.7252 32.1079 35.7312 32.0995 35.7387 32.0925C35.8198 32.0007 35.9218 31.9296 36.036 31.8852C36.1502 31.8408 36.2734 31.8244 36.3953 31.8373C36.4054 31.8387 36.4151 31.8421 36.4238 31.8474C36.4326 31.8526 36.4402 31.8595 36.4463 31.8677C36.4523 31.8759 36.4567 31.8853 36.4591 31.8952C36.4615 31.9051 36.4619 31.9154 36.4602 31.9255C36.4563 31.9458 36.4447 31.9638 36.4279 31.9759C36.411 31.988 36.3903 31.9932 36.3697 31.9904C36.2733 31.9809 36.1759 31.9947 36.0859 32.0306C35.9959 32.0666 35.9158 32.1236 35.8524 32.1969C35.8443 32.2053 35.8345 32.2119 35.8238 32.2163C35.813 32.2207 35.8014 32.2228 35.7897 32.2224Z" fill="#263238"/>
<path d="M32.8273 35.1895C33.0593 36.3843 33.2031 38.0384 32.3633 38.8342C32.3633 38.8342 32.6881 40.0452 34.9153 40.0452C37.3559 40.0452 36.0892 38.9827 36.0892 38.9827C35.0754 38.6671 35.0846 37.5141 35.3166 36.5861L32.8273 35.1895Z" fill="#FF8B7B"/>
<path d="M35.3359 38.5441C35.8835 38.1497 36.6931 37.688 36.8625 38.1706C36.9646 38.4606 37.0063 39.8781 36.4426 39.7714C35.6097 39.616 35.3359 38.5441 35.3359 38.5441Z" fill="#263238"/>
<path d="M31.9113 39.6327C31.6932 39.3265 31.7025 38.3544 31.9345 38.1827C32.308 37.9066 33.9088 37.8417 36.0664 38.3382C35.8344 39.2801 36.3332 39.7742 36.3332 39.7742L31.9113 39.6327Z" fill="#EF233C"/>
<path d="M24.6613 94.7113C24.7272 94.7345 24.797 94.7444 24.8667 94.7405C24.9364 94.7365 25.0046 94.7187 25.0673 94.6881C25.0922 94.6665 25.1093 94.6373 25.116 94.605C25.1227 94.5728 25.1186 94.5392 25.1044 94.5095C25.098 94.4843 25.0859 94.461 25.069 94.4413C25.0521 94.4216 25.0309 94.406 25.007 94.3958C24.775 94.2891 24.2785 94.4955 24.2576 94.5048C24.2507 94.5076 24.2448 94.5124 24.2407 94.5186C24.2365 94.5248 24.2344 94.5322 24.2344 94.5396C24.234 94.5472 24.2357 94.5547 24.2394 94.5612C24.2431 94.5678 24.2487 94.5732 24.2553 94.5767C24.386 94.6346 24.522 94.6796 24.6613 94.7113ZM24.9281 94.4491L24.9722 94.4654C24.9864 94.4711 24.9992 94.4799 25.0096 94.4911C25.02 94.5024 25.0278 94.5157 25.0325 94.5303C25.0534 94.5999 25.0325 94.6231 25.0186 94.6301C24.9304 94.7043 24.6033 94.6301 24.376 94.5443C24.5507 94.472 24.7393 94.4395 24.9281 94.4491Z" fill="#EF233C"/>
<path d="M24.2637 94.5795H24.2822C24.4678 94.5239 24.8622 94.2431 24.8669 94.0599C24.867 94.0307 24.8572 94.0024 24.8391 93.9796C24.8209 93.9568 24.7955 93.9409 24.7671 93.9346C24.7392 93.9242 24.7094 93.9201 24.6797 93.9225C24.6501 93.9249 24.6213 93.9338 24.5954 93.9485C24.3773 94.0599 24.2405 94.5099 24.2358 94.5308C24.2344 94.5358 24.234 94.5411 24.2347 94.5463C24.2353 94.5515 24.237 94.5565 24.2396 94.561C24.2422 94.5655 24.2456 94.5695 24.2498 94.5727C24.2539 94.5759 24.2586 94.5782 24.2637 94.5795ZM24.7277 94.0019H24.7439C24.7926 94.0181 24.7926 94.0413 24.7926 94.0529C24.7926 94.1619 24.5281 94.3823 24.3286 94.4705C24.3784 94.2893 24.4819 94.1275 24.6256 94.0065C24.657 93.992 24.6928 93.9903 24.7253 94.0019H24.7277Z" fill="#EF233C"/>
<path d="M36.7088 94.9856C36.9199 94.9856 37.1217 94.9555 37.189 94.8627C37.206 94.8377 37.215 94.8082 37.215 94.778C37.215 94.7478 37.206 94.7183 37.189 94.6933C37.1758 94.6706 37.158 94.6509 37.1369 94.6354C37.1157 94.6198 37.0916 94.6087 37.066 94.6028C36.7946 94.5286 36.2239 94.8534 36.2007 94.8673C36.1938 94.8712 36.1882 94.877 36.1845 94.884C36.1808 94.891 36.1792 94.8989 36.1798 94.9067C36.1815 94.9147 36.1854 94.9221 36.1912 94.9278C36.197 94.9336 36.2043 94.9376 36.2123 94.9392C36.3761 94.9694 36.5422 94.9849 36.7088 94.9856ZM36.9686 94.6678C36.9933 94.6652 37.0182 94.6652 37.0429 94.6678C37.0743 94.675 37.1017 94.6942 37.1194 94.7211C37.1473 94.7699 37.1357 94.7931 37.1194 94.807C37.0429 94.9137 36.6299 94.916 36.3283 94.8719C36.5267 94.7635 36.7441 94.6942 36.9686 94.6678Z" fill="#EF233C"/>
<path d="M36.2153 94.9391H36.2315C36.4287 94.8509 36.8185 94.4983 36.7883 94.3127C36.7883 94.2686 36.7512 94.2152 36.6445 94.2059C36.606 94.2016 36.567 94.205 36.5299 94.2162C36.4928 94.2274 36.4584 94.246 36.4287 94.2709C36.2814 94.4493 36.1931 94.6689 36.1758 94.8996C36.1755 94.905 36.1763 94.9104 36.1782 94.9154C36.18 94.9205 36.1829 94.9251 36.1866 94.929C36.1902 94.9329 36.1947 94.936 36.1996 94.9382C36.2046 94.9403 36.2099 94.9414 36.2153 94.9414V94.9391ZM36.612 94.2779H36.6352C36.7048 94.2779 36.7095 94.3103 36.7118 94.3196C36.7303 94.431 36.4635 94.7094 36.264 94.83C36.2817 94.6438 36.3572 94.4678 36.4798 94.3266C36.5161 94.2942 36.5634 94.2768 36.612 94.2779Z" fill="#EF233C"/>
<path d="M34.4219 94.9023H36.0552L36.2176 91.123H34.5843L34.4219 94.9023Z" fill="#FF8B7B"/>
<path d="M22.4453 94.1454L24.0392 94.4911L25.6423 90.9717L24.0461 90.626L22.4453 94.1454Z" fill="#FF8B7B"/>
<path d="M24.1916 94.3311L22.4006 93.9436C22.3689 93.9368 22.3359 93.9409 22.3068 93.9552C22.2778 93.9696 22.2544 93.9933 22.2405 94.0225L21.6188 95.3727C21.6022 95.4054 21.5936 95.4416 21.5938 95.4782C21.5939 95.5149 21.6027 95.551 21.6194 95.5836C21.6362 95.6162 21.6604 95.6443 21.6901 95.6658C21.7198 95.6872 21.7542 95.7013 21.7904 95.7068C22.4192 95.8298 22.7324 95.86 23.5188 96.0293C24.0037 96.136 25.0988 96.4028 25.7669 96.5467C26.4351 96.6905 26.6671 96.0479 26.4072 95.9295C25.2472 95.3936 24.7461 94.9227 24.4306 94.4842C24.3726 94.4054 24.2875 94.3509 24.1916 94.3311Z" fill="#263238"/>
<path d="M36.0405 94.7119H34.2588C34.2263 94.7117 34.1948 94.7227 34.1694 94.7429C34.1441 94.7632 34.1265 94.7916 34.1196 94.8233L33.7971 96.2802C33.7876 96.3153 33.7865 96.3521 33.7939 96.3876C33.8012 96.4232 33.8168 96.4565 33.8393 96.4849C33.8619 96.5134 33.8908 96.5361 33.9238 96.5513C33.9567 96.5665 33.9928 96.5738 34.0291 96.5726C34.6717 96.561 35.602 96.5238 36.4094 96.5238C37.3536 96.5238 38.1703 96.5749 39.2792 96.5749C39.9474 96.5749 40.1353 95.8974 39.8546 95.8348C38.5763 95.5564 37.5346 95.5262 36.4326 94.8465C36.3169 94.7661 36.1812 94.7195 36.0405 94.7119Z" fill="#263238"/>
<path d="M29.4481 39.2078C27.9192 39.5582 26.6641 43.4627 26.6641 43.4627L29.7357 45.8036C30.5294 44.9561 31.0891 43.9167 31.3597 42.7876C31.8841 40.7367 31.0117 38.8459 29.4481 39.2078Z" fill="#EF233C"/>
<path opacity="0.4" d="M29.4481 39.2078C27.9192 39.5582 26.6641 43.4627 26.6641 43.4627L29.7357 45.8036C30.5294 44.9561 31.0891 43.9167 31.3597 42.7876C31.8841 40.7367 31.0117 38.8459 29.4481 39.2078Z" fill="white"/>
<path d="M38.6177 41.0635L41.1952 43.4345C41.6244 43.8289 42.0536 44.221 42.4851 44.6061C42.9166 44.9912 43.3482 45.3764 43.7634 45.7104L43.4038 45.5179C43.6034 45.5921 43.8122 45.664 44.0326 45.722C44.253 45.78 44.4803 45.8288 44.7146 45.8752C45.1968 45.9625 45.6831 46.0252 46.1716 46.0631C46.6704 46.1048 47.1808 46.1327 47.6935 46.1466C48.2062 46.1605 48.7375 46.1721 49.241 46.1744L49.473 47.3762C48.943 47.5684 48.4004 47.7234 47.849 47.8402C47.2964 47.9596 46.737 48.0448 46.1739 48.0954C45.5962 48.1481 45.0153 48.1567 44.4362 48.1209C43.8208 48.0855 43.2114 47.9805 42.6197 47.8077L42.4457 47.7567L42.2624 47.6152C41.752 47.2231 41.2996 46.8403 40.8449 46.4552C40.3902 46.07 39.9494 45.671 39.5086 45.2743C38.6316 44.4762 37.7616 43.6828 36.9102 42.8592L38.6177 41.0635Z" fill="#FF8B7B"/>
<path opacity="0.2" d="M30.7577 42.0752C29.9271 42.8965 29.6557 44.3952 29.5977 45.6944L29.7345 45.7988C30.5276 44.9508 31.0872 43.9117 31.3585 42.7828C31.3887 42.6622 31.4165 42.5508 31.4374 42.4186L30.7577 42.0752Z" fill="black"/>
<path d="M39.1104 40.8321C39.4445 42.5953 39.6533 46.2168 38.6836 53.3856H29.9557C29.8954 52.0469 30.7376 45.5092 29.4453 39.1965C30.4108 39.0111 31.3872 38.8879 32.3685 38.8276C33.6048 38.7567 34.8442 38.7567 36.0805 38.8276C36.4888 38.8647 36.8902 38.925 37.2405 38.9877C37.7021 39.0701 38.1278 39.2905 38.4616 39.6198C38.7954 39.949 39.0216 40.3717 39.1104 40.8321Z" fill="#EF233C"/>
<path opacity="0.4" d="M39.1104 40.8321C39.4445 42.5953 39.6533 46.2168 38.6836 53.3856H29.9557C29.8954 52.0469 30.7376 45.5092 29.4453 39.1965C30.4108 39.0111 31.3872 38.8879 32.3685 38.8276C33.6048 38.7567 34.8442 38.7567 36.0805 38.8276C36.4888 38.8647 36.8902 38.925 37.2405 38.9877C37.7021 39.0701 38.1278 39.2905 38.4616 39.6198C38.7954 39.949 39.0216 40.3717 39.1104 40.8321Z" fill="white"/>
<path opacity="0.2" d="M37.776 43.4465L39.3536 43.0684C39.4023 44.0242 39.4069 45.2074 39.335 46.6713C38.6089 45.8454 37.6832 44.5555 37.776 43.4465Z" fill="black"/>
<path opacity="0.2" d="M36.2168 91.123L36.1333 93.0719H34.5L34.5835 91.123H36.2168Z" fill="black"/>
<path opacity="0.2" d="M24.0447 90.626L25.6408 90.9717L24.8126 92.7859L23.2188 92.4402L24.0447 90.626Z" fill="black"/>
<path d="M32.0508 33.4454C32.4707 35.0091 32.6378 35.9464 33.6029 36.596C35.0552 37.575 36.8509 36.4521 36.9182 34.7933C36.9692 33.3016 36.2755 30.9932 34.5982 30.6777C34.2281 30.6063 33.8459 30.6308 33.488 30.7487C33.13 30.8666 32.8081 31.0741 32.5529 31.3514C32.2977 31.6287 32.1176 31.9666 32.0297 32.3331C31.9418 32.6996 31.9491 33.0825 32.0508 33.4454Z" fill="#FF8B7B"/>
<path d="M35.6019 33.5634C36.335 33.459 36.1239 32.6122 35.8501 32.1969C35.8501 32.1969 37.4741 30.2365 35.6019 29.4454C33.7296 28.6543 34.182 29.8885 34.182 29.8885C34.182 29.8885 32.7135 28.7865 31.4375 29.6774C30.1615 30.5683 31.2635 30.9534 31.2635 30.9534C31.2635 30.9534 28.9435 31.6355 29.8715 32.8094C30.7995 33.9833 31.7576 33.865 31.7576 33.865C31.7576 33.865 29.8343 34.6236 31.2936 35.4751C32.7529 36.3265 33.3004 36.3636 33.3004 36.3636C33.6905 36.4121 34.0852 36.3212 34.4146 36.1068C34.7441 35.8923 34.9871 35.5683 35.1007 35.192L35.6019 33.5634Z" fill="#263238"/>
<path d="M34.9703 33.5683C35.0016 33.9706 35.1647 34.3514 35.4343 34.6517C35.7893 35.0438 36.1605 34.7979 36.2254 34.3223C36.2811 33.8908 36.1651 33.1623 35.7289 32.9535C35.2928 32.7447 34.9425 33.0834 34.9703 33.5683Z" fill="#FF8B7B"/>
<path d="M35.5885 53.3923C35.5885 53.3923 33.7325 65.8623 32.7187 70.5348C31.6051 75.6504 25.6357 92.5748 25.6357 92.5748L22.7148 91.9415C22.7148 91.9415 26.8908 78.1467 27.8188 70.9942C28.538 65.5004 29.9509 53.3877 29.9509 53.3877L35.5885 53.3923Z" fill="#263238"/>
<path d="M26.3365 91.6026L25.7913 92.6605L22.5039 91.9483L22.7823 90.96L26.3365 91.6026Z" fill="#EF233C"/>
<path opacity="0.3" d="M34.4194 57.8349C32.278 58.2548 32.5054 66.2403 32.7629 70.349C33.38 67.4443 34.2848 61.8578 34.9019 57.8929C34.7524 57.8191 34.5821 57.7986 34.4194 57.8349Z" fill="black"/>
<path d="M38.685 53.3926C38.685 53.3926 38.917 65.5935 38.7337 70.5606C38.5481 75.7365 36.7408 92.6841 36.7408 92.6841H33.9754C33.9754 92.6841 33.8756 76.0381 33.7434 70.955C33.6181 65.4241 32.9453 53.3926 32.9453 53.3926H38.685Z" fill="#263238"/>
<path d="M37.2701 91.5938C37.284 91.5938 37.1146 92.7398 37.1146 92.7398H33.7506L33.6602 91.7167L37.2701 91.5938Z" fill="#EF233C"/>
<path d="M35.6916 41.3748C34.9074 43.4837 39.5056 45.9684 39.5056 45.9684L41.4962 43.4164C41.4962 43.4164 40.1668 40.7739 38.5382 39.5815C36.5244 38.1036 36.2855 39.7694 35.6916 41.3748Z" fill="#EF233C"/>
<path opacity="0.4" d="M35.6916 41.3748C34.9074 43.4837 39.5056 45.9684 39.5056 45.9684L41.4962 43.4164C41.4962 43.4164 40.1668 40.7739 38.5382 39.5815C36.5244 38.1036 36.2855 39.7694 35.6916 41.3748Z" fill="white"/>
<path d="M48.8988 46.8525C49.214 46.8525 49.4696 46.6604 49.4696 46.4233C49.4696 46.1863 49.214 45.9941 48.8988 45.9941C48.5836 45.9941 48.3281 46.1863 48.3281 46.4233C48.3281 46.6604 48.5836 46.8525 48.8988 46.8525Z" fill="#263238"/>
<path d="M48.6759 47.7923C48.6586 47.7925 48.6416 47.7888 48.6259 47.7816C48.6103 47.7744 48.5964 47.7637 48.5854 47.7505C48.5659 47.727 48.5564 47.6968 48.559 47.6664C48.5616 47.636 48.5761 47.6079 48.5993 47.5881C48.6132 47.5765 48.9102 47.3051 48.7826 46.674C48.7796 46.6592 48.7795 46.644 48.7824 46.6292C48.7854 46.6144 48.7912 46.6003 48.7996 46.5878C48.808 46.5752 48.8189 46.5645 48.8315 46.5562C48.8441 46.5479 48.8582 46.5422 48.8731 46.5395C48.888 46.5364 48.9034 46.5363 48.9183 46.5392C48.9333 46.5421 48.9475 46.5479 48.9603 46.5563C48.973 46.5647 48.9839 46.5756 48.9924 46.5882C49.0009 46.6008 49.0069 46.615 49.0099 46.6299C49.1677 47.4025 48.7663 47.7505 48.7501 47.7644C48.7293 47.782 48.7031 47.7918 48.6759 47.7923Z" fill="#263238"/>
<path opacity="0.4" d="M49.3616 46.3995C49.3616 46.5758 49.1551 46.7173 48.8976 46.7173C48.6401 46.7173 48.4336 46.5758 48.4336 46.3995C48.4336 46.2232 48.6401 46.084 48.8976 46.084C49.1551 46.084 49.3616 46.2162 49.3616 46.3995Z" fill="white"/>
<path d="M36.4122 38.853C35.345 39.6162 33.496 42.565 33.1642 44.3073C33.162 44.3188 33.1563 44.3294 33.1479 44.3376C33.1395 44.3458 33.1288 44.3512 33.1173 44.3533C33.1057 44.3553 33.0938 44.3537 33.0831 44.3488C33.0725 44.3439 33.0635 44.3359 33.0575 44.3258C32.0501 42.6939 31.4523 40.8425 31.3152 38.9295C31.3146 38.9219 31.3125 38.9145 31.3091 38.9076C31.3056 38.9008 31.3008 38.8948 31.295 38.8898C31.2892 38.8848 31.2824 38.8811 31.2751 38.8787C31.2678 38.8764 31.2602 38.8755 31.2526 38.8762C30.9927 38.8935 30.734 38.9253 30.4777 38.9713C30.465 38.9748 30.4538 38.9824 30.4459 38.9929C30.4379 39.0033 30.4336 39.0161 30.4336 39.0293C30.5596 41.4202 31.4109 43.7161 32.8742 45.6111C32.8771 45.6169 32.8786 45.6232 32.8786 45.6297C32.8786 45.6361 32.8771 45.6425 32.8742 45.6482C32.7327 48.2582 32.9206 52.9238 32.9438 53.4782C32.9444 53.4932 32.9508 53.5074 32.9616 53.5178C32.9724 53.5281 32.9868 53.5339 33.0018 53.5339H33.6978C33.7057 53.5339 33.7134 53.5324 33.7206 53.5293C33.7278 53.5262 33.7343 53.5218 33.7397 53.5161C33.7451 53.5105 33.7493 53.5038 33.7521 53.4965C33.7549 53.4892 33.7561 53.4814 33.7558 53.4736C33.7234 52.94 33.5053 48.887 33.7558 45.5624C34.1479 43.0893 36.4934 39.7462 37.317 39.085C37.3259 39.0784 37.3326 39.0693 37.3362 39.0589C37.3399 39.0485 37.3404 39.0372 37.3377 39.0265C37.3349 39.0158 37.3291 39.0062 37.3209 38.9989C37.3127 38.9915 37.3024 38.9867 37.2915 38.9852C36.9435 38.9086 36.5445 38.8599 36.4494 38.8506C36.4371 38.8473 36.424 38.8481 36.4122 38.853Z" fill="#EF233C"/>
</svg>
