<svg width="116" height="116" viewBox="0 0 116 116" fill="none" xmlns="http://www.w3.org/2000/svg">
<path d="M104.375 92.4492H96.6914V92.5072H104.375V92.4492Z" fill="#EBEBEB"/>
<path d="M76.8442 93.0801H74.8281V93.1381H76.8442V93.0801Z" fill="#EBEBEB"/>
<path d="M96.4599 90.2969H92.0078V90.3549H96.4599V90.2969Z" fill="#EBEBEB"/>
<path d="M22.192 90.6865H12.1719V90.7445H22.192V90.6865Z" fill="#EBEBEB"/>
<path d="M25.7264 90.6865H24.2578V90.7445H25.7264V90.6865Z" fill="#EBEBEB"/>
<path d="M52.2338 91.665H30.5V91.723H52.2338V91.665Z" fill="#EBEBEB"/>
<path d="M54.9826 78.3694H10.188C9.83666 78.3694 9.49972 78.2298 9.25128 77.9814C9.00285 77.7329 8.86328 77.396 8.86328 77.0446V14.0729C8.86634 13.7236 9.00726 13.3896 9.25536 13.1437C9.50346 12.8977 9.83866 12.7598 10.188 12.7598H54.9826C55.3339 12.7598 55.6708 12.8993 55.9193 13.1478C56.1677 13.3962 56.3073 13.7331 56.3073 14.0845V77.0446C56.3073 77.396 56.1677 77.7329 55.9193 77.9814C55.6708 78.2298 55.3339 78.3694 54.9826 78.3694ZM10.188 12.8062C9.85223 12.8068 9.5304 12.9404 9.29297 13.1779C9.05555 13.4153 8.92189 13.7371 8.92128 14.0729V77.0446C8.92189 77.3804 9.05555 77.7022 9.29297 77.9397C9.5304 78.1771 9.85223 78.3107 10.188 78.3114H54.9826C55.3183 78.3107 55.6402 78.1771 55.8776 77.9397C56.115 77.7022 56.2487 77.3804 56.2493 77.0446V14.0729C56.2487 13.7371 56.115 13.4153 55.8776 13.1779C55.6402 12.9404 55.3183 12.8068 54.9826 12.8062H10.188Z" fill="#EBEBEB"/>
<path d="M105.167 78.3694H60.3677C60.0165 78.3687 59.68 78.229 59.4317 77.9807C59.1834 77.7324 59.0436 77.3958 59.043 77.0446V14.0729C59.0466 13.7238 59.1877 13.3901 59.4357 13.1443C59.6837 12.8985 60.0185 12.7604 60.3677 12.7598H105.167C105.515 12.761 105.849 12.8995 106.097 13.1453C106.344 13.3911 106.484 13.7244 106.487 14.0729V77.0446C106.487 77.3952 106.348 77.7314 106.101 77.9797C105.853 78.228 105.517 78.3681 105.167 78.3694ZM60.3677 12.8062C60.0319 12.8068 59.7101 12.9404 59.4727 13.1779C59.2352 13.4153 59.1016 13.7371 59.101 14.0729V77.0446C59.1016 77.3804 59.2352 77.7022 59.4727 77.9397C59.7101 78.1771 60.0319 78.3107 60.3677 78.3114H105.167C105.503 78.3107 105.824 78.1771 106.062 77.9397C106.299 77.7022 106.433 77.3804 106.434 77.0446V14.0729C106.433 13.7371 106.299 13.4153 106.062 13.1779C105.824 12.9404 105.503 12.8068 105.167 12.8062H60.3677Z" fill="#EBEBEB"/>
<path d="M116 88.7168H0V88.7748H116V88.7168Z" fill="#EBEBEB"/>
<path d="M96.6857 21.9629H67.7344V52.7934H96.6857V21.9629Z" fill="#EBEBEB"/>
<path d="M94.9478 23.7031H69.4766V51.0536H94.9478V23.7031Z" fill="#F5F5F5"/>
<path d="M79.4727 51.0536H87.1287L94.316 23.7031H86.66L79.4727 51.0536Z" fill="#FAFAFA"/>
<path d="M83.1014 23.7031L75.9141 51.0536H77.7701L84.9574 23.7031H83.1014Z" fill="#FAFAFA"/>
<path d="M97.0507 23.4128H67.3686L66.7422 21.9512H97.6771L97.0507 23.4128Z" fill="#F5F5F5"/>
<path d="M97.0507 24.2604H67.3686L66.7422 22.7988H97.6771L97.0507 24.2604Z" fill="#F0F0F0"/>
<path d="M97.0507 25.1071H67.3686L66.7422 23.6455H97.6771L97.0507 25.1071Z" fill="#E6E6E6"/>
<path d="M97.0507 25.9538H67.3686L66.7422 24.4922H97.6771L97.0507 25.9538Z" fill="#E0E0E0"/>
<path d="M98.7589 20.1211H65.6641V22.0699H98.7589V20.1211Z" fill="#E0E0E0"/>
<path d="M66.0005 39.739C65.9112 39.739 65.8257 39.7036 65.7626 39.6405C65.6995 39.5774 65.6641 39.4919 65.6641 39.4026V28.0346C65.6641 27.9454 65.6995 27.8599 65.7626 27.7968C65.8257 27.7337 65.9112 27.6982 66.0005 27.6982C66.0897 27.6982 66.1752 27.7337 66.2383 27.7968C66.3014 27.8599 66.3369 27.9454 66.3369 28.0346V39.4026C66.3369 39.4919 66.3014 39.5774 66.2383 39.6405C66.1752 39.7036 66.0897 39.739 66.0005 39.739Z" fill="#E0E0E0"/>
<path d="M66.1225 21.6797H65.8789V28.4309H66.1225V21.6797Z" fill="#E0E0E0"/>
<path d="M20.9996 21.3672H20.582V53.933H20.9996V21.3672Z" fill="#E0E0E0"/>
<path d="M46.9957 21.3672H46.5781V53.933H46.9957V21.3672Z" fill="#E0E0E0"/>
<path d="M48.6334 23.4128H18.9467L18.3203 21.9512H49.2575L48.6334 23.4128Z" fill="#F5F5F5"/>
<path d="M48.6334 25.4196H18.9467L18.3203 23.958H49.2575L48.6334 25.4196Z" fill="#F5F5F5"/>
<path d="M48.6334 27.4264H18.9467L18.3203 25.9648H49.2575L48.6334 27.4264Z" fill="#F5F5F5"/>
<path d="M48.6334 29.4333H18.9467L18.3203 27.9717H49.2575L48.6334 29.4333Z" fill="#F5F5F5"/>
<path d="M48.6334 31.4401H18.9467L18.3203 29.9785H49.2575L48.6334 31.4401Z" fill="#F5F5F5"/>
<path d="M48.6334 33.447H18.9467L18.3203 31.9854H49.2575L48.6334 33.447Z" fill="#F5F5F5"/>
<path d="M48.6334 35.4538H18.9467L18.3203 33.9922H49.2575L48.6334 35.4538Z" fill="#F5F5F5"/>
<path d="M48.6334 37.4606H18.9467L18.3203 35.999H49.2575L48.6334 37.4606Z" fill="#F5F5F5"/>
<path d="M48.6334 39.4675H18.9467L18.3203 38.0059H49.2575L48.6334 39.4675Z" fill="#F5F5F5"/>
<path d="M48.6334 41.4743H18.9467L18.3203 40.0127H49.2575L48.6334 41.4743Z" fill="#F5F5F5"/>
<path d="M48.6334 43.4811H18.9467L18.3203 42.0195H49.2575L48.6334 43.4811Z" fill="#F5F5F5"/>
<path d="M48.6334 45.486H18.9467L18.3203 44.0244H49.2575L48.6334 45.486Z" fill="#F5F5F5"/>
<path d="M48.6334 47.4952H18.9467L18.3203 46.0312H49.2575L48.6334 47.4952Z" fill="#F5F5F5"/>
<path d="M48.6334 49.4997H18.9467L18.3203 48.0381H49.2575L48.6334 49.4997Z" fill="#F5F5F5"/>
<path d="M48.6334 51.5065H18.9467L18.3203 50.0449H49.2575L48.6334 51.5065Z" fill="#F5F5F5"/>
<path d="M48.6334 53.5134H18.9467L18.3203 52.0518H49.2575L48.6334 53.5134Z" fill="#F5F5F5"/>
<path d="M49.2575 53.5127H18.3203V54.3479H49.2575V53.5127Z" fill="#E0E0E0"/>
<path d="M50.337 20.1211H17.2422V22.0699H50.337V20.1211Z" fill="#E0E0E0"/>
<path d="M17.5825 39.739C17.4933 39.739 17.4077 39.7036 17.3446 39.6405C17.2815 39.5774 17.2461 39.4919 17.2461 39.4026V28.0346C17.2461 27.9454 17.2815 27.8599 17.3446 27.7968C17.4077 27.7337 17.4933 27.6982 17.5825 27.6982C17.6717 27.6982 17.7573 27.7337 17.8204 27.7968C17.8835 27.8599 17.9189 27.9454 17.9189 28.0346V39.4026C17.9189 39.4919 17.8835 39.5774 17.8204 39.6405C17.7573 39.7036 17.6717 39.739 17.5825 39.739Z" fill="#E0E0E0"/>
<path d="M17.7045 21.6797H17.4609V28.4309H17.7045V21.6797Z" fill="#E0E0E0"/>
<path d="M20.7235 74.7922C20.6957 74.8224 20.8511 75.0404 20.2155 74.9453C18.6495 74.7133 15.9235 74.0753 15.1648 72.4652C14.0814 70.1661 17.4407 71.006 17.3247 69.8297C17.2087 68.6535 13.3807 68.8576 12.9794 67.1339C12.578 65.4101 15.1671 66.2314 15.2019 65.3916C15.2367 64.5517 12.2486 65.0714 11.6547 63.2108C11.0607 61.3501 13.3204 62.7212 13.0606 61.9464C12.8007 61.1715 10.2766 57.6752 11.6477 57.2692C13.0188 56.8632 15.3411 60.4523 16.2413 60.9604C17.1415 61.4684 17.9303 58.5383 18.9975 59.7772C20.0647 61.016 18.3711 65.3452 19.7306 66.1827C20.7444 66.8091 20.4591 65.0853 21.7954 65.4078C23.6027 65.844 22.9925 72.2541 20.7235 74.7922Z" fill="#EBEBEB"/>
<path d="M15.8882 65.4008C16.349 65.4348 16.8035 65.5276 17.2408 65.6769C16.9509 65.2414 16.6291 64.8281 16.278 64.4403C16.2591 64.418 16.2494 64.3893 16.2507 64.3602C16.2521 64.331 16.2644 64.3033 16.2852 64.2828C16.306 64.2623 16.3338 64.2504 16.363 64.2495C16.3922 64.2486 16.4207 64.2587 16.4427 64.2779C17.1994 65.1265 17.8471 66.0665 18.3706 67.0758C18.8648 64.1085 17.6213 61.5078 17.6073 61.4893C17.5999 61.4688 17.6004 61.4463 17.6086 61.4261C17.6168 61.4059 17.6322 61.3895 17.6518 61.3799C17.6714 61.3704 17.6938 61.3685 17.7147 61.3746C17.7356 61.3806 17.7536 61.3942 17.7651 61.4127C17.779 61.4405 19.1037 64.2083 18.5029 67.3217C18.6629 67.6256 18.8253 67.9528 18.9831 68.3031C19.5445 69.552 19.988 70.8507 20.3078 72.1821C20.8873 71.089 21.2049 69.8763 21.2358 68.6395C21.2361 68.6282 21.2386 68.6171 21.2432 68.6068C21.2478 68.5965 21.2544 68.5872 21.2626 68.5795C21.2708 68.5717 21.2804 68.5656 21.291 68.5616C21.3015 68.5576 21.3127 68.5557 21.324 68.556C21.3356 68.5563 21.347 68.5589 21.3576 68.5636C21.3681 68.5683 21.3777 68.575 21.3857 68.5834C21.3936 68.5918 21.3999 68.6017 21.404 68.6125C21.4082 68.6233 21.4101 68.6349 21.4098 68.6465C21.382 69.9726 21.0257 71.2711 20.3728 72.4257C20.9648 75.0459 21.1626 77.7396 20.9597 80.4181C20.9589 80.4334 20.955 80.4483 20.9483 80.462C20.9416 80.4758 20.9323 80.488 20.9209 80.4982C20.9095 80.5083 20.8962 80.5161 20.8817 80.5211C20.8673 80.526 20.852 80.5281 20.8368 80.5272H20.8229C20.7948 80.5221 20.7697 80.5066 20.7525 80.4838C20.7353 80.461 20.7273 80.4326 20.7301 80.4042C21.0154 76.2282 20.3937 72.8851 19.5306 70.347C19.0517 69.7922 18.3962 69.4195 17.6746 69.2914C17.6523 69.2869 17.6324 69.2741 17.6191 69.2556C17.6058 69.2371 17.5999 69.2143 17.6027 69.1916C17.6041 69.1803 17.6078 69.1694 17.6135 69.1595C17.6192 69.1497 17.6268 69.141 17.6358 69.1341C17.6449 69.1272 17.6553 69.1221 17.6663 69.1193C17.6774 69.1164 17.6889 69.1158 17.7001 69.1174C18.333 69.2266 18.9201 69.5186 19.3891 69.9573C18.8877 68.5452 18.2244 67.196 17.4125 65.9367C16.9232 65.7322 16.4034 65.6099 15.8743 65.5748C15.8513 65.573 15.83 65.5623 15.8148 65.5449C15.7996 65.5276 15.7918 65.505 15.7931 65.482C15.7937 65.4703 15.7966 65.4588 15.8018 65.4483C15.8069 65.4378 15.8142 65.4284 15.8231 65.4208C15.832 65.4132 15.8424 65.4075 15.8536 65.4041C15.8648 65.4006 15.8766 65.3995 15.8882 65.4008Z" fill="#F5F5F5"/>
<path d="M22.7358 75.6801C24.0373 75.7033 26.2599 74.4946 27.1438 73.3207C28.0277 72.1468 25.5383 72.8567 25.7935 71.9287C26.0487 71.0007 29.1204 71.6851 29.6865 70.3418C30.2526 68.9985 28.0393 69.3094 28.1275 68.6227C28.2156 67.936 30.5101 68.0775 31.2455 66.6507C31.981 65.2239 29.9649 66.0243 30.2804 65.4327C30.5959 64.8411 33.127 62.3541 32.0691 61.8367C31.0112 61.3193 28.6379 63.9085 27.8444 64.1985C27.051 64.4885 26.8631 62.6974 25.8283 63.5535C24.7936 64.4096 25.5685 68.1494 24.3528 68.6436C23.4457 69.0125 23.8308 67.298 22.7868 67.7318C20.9401 68.4905 22.1999 75.6685 22.7358 75.6801Z" fill="#E0E0E0"/>
<g opacity="0.3">
<path d="M22.7358 75.6801C24.0373 75.7033 26.2599 74.4946 27.1438 73.3207C28.0277 72.1468 25.5383 72.8567 25.7935 71.9287C26.0487 71.0007 29.1204 71.6851 29.6865 70.3418C30.2526 68.9985 28.0393 69.3094 28.1275 68.6227C28.2156 67.936 30.5101 68.0775 31.2455 66.6507C31.981 65.2239 29.9649 66.0243 30.2804 65.4327C30.5959 64.8411 33.127 62.3541 32.0691 61.8367C31.0112 61.3193 28.6379 63.9085 27.8444 64.1985C27.051 64.4885 26.8631 62.6974 25.8283 63.5535C24.7936 64.4096 25.5685 68.1494 24.3528 68.6436C23.4457 69.0125 23.8308 67.298 22.7868 67.7318C20.9401 68.4905 22.1999 75.6685 22.7358 75.6801Z" fill="#E0E0E0"/>
</g>
<path d="M23.1588 74.1194C23.1392 74.1122 23.1227 74.0982 23.1124 74.08C22.6164 72.9911 22.4148 71.7912 22.5278 70.6C22.527 70.5874 22.529 70.5747 22.5335 70.563C22.538 70.5512 22.545 70.5405 22.554 70.5316C22.563 70.5228 22.5738 70.516 22.5857 70.5117C22.5976 70.5074 22.6102 70.5057 22.6228 70.5067C22.6354 70.5077 22.6476 70.5114 22.6587 70.5175C22.6697 70.5237 22.6793 70.5321 22.6868 70.5423C22.6943 70.5524 22.6995 70.5641 22.7021 70.5764C22.7047 70.5888 22.7046 70.6016 22.7018 70.6139C22.6046 71.7446 22.7854 72.882 23.2284 73.9269C23.7664 72.4755 24.4293 71.0736 25.2097 69.7369C24.9777 66.9529 26.4115 64.6561 26.4254 64.6329C26.4377 64.6136 26.4572 64.5999 26.4796 64.5949C26.502 64.5899 26.5255 64.594 26.5449 64.6063C26.5643 64.6186 26.578 64.6381 26.583 64.6605C26.588 64.6829 26.5839 64.7064 26.5716 64.7257C25.7423 66.1659 25.3257 67.8065 25.3675 69.4678C26.3029 67.8631 27.4191 66.3709 28.6944 65.0204C28.7048 65.0083 28.7177 64.9985 28.7321 64.9917C28.7466 64.9848 28.7623 64.981 28.7783 64.9805C28.7942 64.98 28.8101 64.9828 28.825 64.9888C28.8398 64.9947 28.8533 65.0037 28.8645 65.015C28.8757 65.0264 28.8845 65.04 28.8902 65.0549C28.8959 65.0698 28.8985 65.0858 28.8978 65.1018C28.8971 65.1177 28.893 65.1334 28.886 65.1477C28.8789 65.1621 28.869 65.1748 28.8568 65.1851C27.9146 66.1764 27.0643 67.2511 26.3164 68.396C27.1001 68.1008 27.9311 67.9515 28.7686 67.9552C28.7916 67.9564 28.8132 67.9665 28.8288 67.9834C28.8444 68.0003 28.8528 68.0227 28.8521 68.0457C28.8515 68.068 28.8422 68.0893 28.8262 68.1049C28.8101 68.1205 28.7886 68.1292 28.7663 68.1292C27.866 68.1216 26.9735 68.296 26.1424 68.6419C25.6299 69.4287 25.1575 70.241 24.7272 71.0756C25.0767 70.8331 25.4747 70.6693 25.8936 70.5956C26.3126 70.5219 26.7426 70.54 27.1539 70.6487C27.1762 70.6547 27.1953 70.6693 27.2071 70.6892C27.2188 70.7092 27.2222 70.733 27.2165 70.7554C27.2136 70.7664 27.2085 70.7768 27.2015 70.7858C27.1945 70.7948 27.1858 70.8024 27.1758 70.808C27.1659 70.8136 27.1549 70.8172 27.1436 70.8185C27.1323 70.8198 27.1208 70.8189 27.1098 70.8157C26.6639 70.701 26.1966 70.6977 25.7492 70.8061C25.3017 70.9146 24.8878 71.1314 24.5439 71.4375C23.048 74.4028 22.195 77.6504 22.0406 80.9681C22.0394 80.998 22.0266 81.0263 22.005 81.0471C21.9834 81.0679 21.9546 81.0794 21.9246 81.0794C21.8946 81.0794 21.8658 81.0679 21.8442 81.0471C21.8225 81.0263 21.8098 80.998 21.8086 80.9681C21.9059 78.6296 22.3613 76.3199 23.1588 74.1194Z" fill="#F5F5F5"/>
<path d="M19.0696 88.3915C17.8284 86.0576 17.0117 82.6843 17.0117 81.1995C17.0177 80.5942 17.1568 79.9975 17.419 79.4519C17.6812 78.9062 18.0601 78.4249 18.529 78.042H24.8881C25.357 78.4249 25.736 78.9062 25.9982 79.4519C26.2604 79.9975 26.3994 80.5942 26.4054 81.1995C26.4054 82.6797 25.5888 86.0529 24.3476 88.3915H19.0696Z" fill="#F0F0F0"/>
<path d="M56.8809 98.3003C81.7241 98.3003 101.863 97.1245 101.863 95.6741C101.863 94.2237 81.7241 93.0479 56.8809 93.0479C32.0378 93.0479 11.8984 94.2237 11.8984 95.6741C11.8984 97.1245 32.0378 98.3003 56.8809 98.3003Z" fill="#F5F5F5"/>
<path d="M67.894 27.7564H62.326C62.1447 27.7602 61.9699 27.8247 61.8294 27.9395C61.689 28.0543 61.591 28.2128 61.5512 28.3897L61.514 28.5637C61.4178 28.9954 61.1793 29.3822 60.8368 29.662C60.4944 29.9418 60.0677 30.0984 59.6256 30.1065H54.336C53.9164 30.1159 53.5102 29.9589 53.2059 29.6699C52.9017 29.3808 52.7241 28.9832 52.712 28.5637V28.3897C52.7077 28.2178 52.6355 28.0546 52.5111 27.9359C52.3867 27.8172 52.2203 27.7526 52.0484 27.7564H46.4804C45.5659 27.7726 44.6891 28.1234 44.0158 28.7425C43.3425 29.3615 42.9193 30.2058 42.8264 31.1157L38.3581 82.281C38.3109 82.7088 38.3554 83.1418 38.4886 83.551C38.6218 83.9603 38.8407 84.3365 39.1307 84.6545C39.4206 84.9726 39.775 85.2252 40.1703 85.3956C40.5655 85.566 40.9925 85.6502 41.4228 85.6427H62.8295C63.7442 85.6259 64.621 85.2745 65.2943 84.6551C65.9676 84.0357 66.3906 83.1911 66.4835 82.281L70.9611 31.1157C71.0079 30.6879 70.9631 30.255 70.8296 29.8459C70.6961 29.4367 70.477 29.0607 70.1868 28.7429C69.8966 28.425 69.542 28.1727 69.1467 28.0026C68.7514 27.8325 68.3243 27.7485 67.894 27.7564Z" fill="#EF233C"/>
<path opacity="0.7" d="M67.894 27.7564H62.326C62.1447 27.7602 61.9699 27.8247 61.8294 27.9395C61.689 28.0543 61.591 28.2128 61.5512 28.3897L61.514 28.5637C61.4178 28.9954 61.1793 29.3822 60.8368 29.662C60.4944 29.9418 60.0677 30.0984 59.6256 30.1065H54.336C53.9164 30.1159 53.5102 29.9589 53.2059 29.6699C52.9017 29.3808 52.7241 28.9832 52.712 28.5637V28.3897C52.7077 28.2178 52.6355 28.0546 52.5111 27.9359C52.3867 27.8172 52.2203 27.7526 52.0484 27.7564H46.4804C45.5659 27.7726 44.6891 28.1234 44.0158 28.7425C43.3425 29.3615 42.9193 30.2058 42.8264 31.1157L38.3581 82.281C38.3109 82.7088 38.3554 83.1418 38.4886 83.551C38.6218 83.9603 38.8407 84.3365 39.1307 84.6545C39.4206 84.9726 39.775 85.2252 40.1703 85.3956C40.5655 85.566 40.9925 85.6502 41.4228 85.6427H62.8295C63.7442 85.6259 64.621 85.2745 65.2943 84.6551C65.9676 84.0357 66.3906 83.1911 66.4835 82.281L70.9611 31.1157C71.0079 30.6879 70.9631 30.255 70.8296 29.8459C70.6961 29.4367 70.477 29.0607 70.1868 28.7429C69.8966 28.425 69.542 28.1727 69.1467 28.0026C68.7514 27.8325 68.3243 27.7485 67.894 27.7564Z" fill="white"/>
<path d="M65.7258 51.2901H54.3578C54.2622 51.2916 54.1673 51.2728 54.0795 51.2349C53.9917 51.197 53.9129 51.1409 53.8484 51.0703C53.7839 50.9997 53.7352 50.9161 53.7054 50.8252C53.6756 50.7343 53.6655 50.6382 53.6757 50.5431L54.5318 40.755C54.5522 40.5526 54.6462 40.3648 54.7958 40.2271C54.9455 40.0895 55.1405 40.0115 55.3438 40.0079H66.7118C66.8075 40.006 66.9026 40.0246 66.9906 40.0624C67.0786 40.1001 67.1575 40.1562 67.2221 40.227C67.2866 40.2977 67.3354 40.3814 67.365 40.4724C67.3946 40.5635 67.4045 40.6598 67.3939 40.755L66.5378 50.5431C66.5169 50.7452 66.4228 50.9327 66.2732 51.0703C66.1237 51.2079 65.929 51.2861 65.7258 51.2901Z" fill="white"/>
<path d="M61.9425 81.8959H42.9185C42.6808 81.9003 42.4449 81.854 42.2265 81.76C42.0081 81.666 41.8122 81.5266 41.6519 81.3509C41.4917 81.1753 41.3707 80.9675 41.2971 80.7415C41.2234 80.5154 41.1989 80.2762 41.2249 80.0399C41.2765 79.5373 41.5102 79.071 41.8821 78.729C42.254 78.3871 42.7382 78.1932 43.2433 78.1839H62.2673C62.5051 78.1795 62.741 78.2258 62.9594 78.3198C63.1778 78.4137 63.3737 78.5532 63.5339 78.7288C63.6942 78.9044 63.8152 79.1122 63.8888 79.3383C63.9625 79.5644 63.987 79.8036 63.961 80.0399C63.9099 80.5426 63.6763 81.0092 63.3043 81.3513C62.9323 81.6933 62.4478 81.8871 61.9425 81.8959Z" fill="white"/>
<path d="M63.4601 37.3175H46.0067C45.8729 37.3215 45.7398 37.2966 45.6166 37.2443C45.4934 37.1921 45.3829 37.1138 45.2927 37.0148C45.2026 36.9159 45.1349 36.7986 45.0944 36.671C45.0538 36.5435 45.0414 36.4087 45.0578 36.2758L45.1993 34.6518C45.2287 34.3703 45.3601 34.1092 45.5686 33.9177C45.7771 33.7263 46.0485 33.6177 46.3315 33.6125H63.7849C63.9181 33.6101 64.0503 33.636 64.1727 33.6886C64.2951 33.7412 64.405 33.8193 64.4949 33.9176C64.5849 34.0158 64.6529 34.1322 64.6945 34.2587C64.7361 34.3853 64.7502 34.5193 64.7361 34.6518L64.5922 36.2758C64.5634 36.5578 64.4323 36.8194 64.2237 37.0113C64.0151 37.2033 63.7435 37.3122 63.4601 37.3175Z" fill="white"/>
<path d="M67.0073 34.5954C66.9993 34.674 66.9628 34.7469 66.9046 34.8004C66.8465 34.8538 66.7707 34.8841 66.6917 34.8854C66.6547 34.8859 66.6179 34.8786 66.5838 34.8638C66.5498 34.8491 66.5192 34.8273 66.4942 34.7999C66.4692 34.7725 66.4503 34.7401 66.4388 34.7048C66.4273 34.6696 66.4233 34.6323 66.4273 34.5954C66.4353 34.517 66.4719 34.4443 66.5301 34.3912C66.5883 34.3382 66.664 34.3084 66.7428 34.3077C66.7798 34.3068 66.8165 34.3138 66.8506 34.3283C66.8846 34.3428 66.9152 34.3644 66.9402 34.3916C66.9653 34.4188 66.9842 34.4511 66.9958 34.4862C67.0073 34.5214 67.0112 34.5586 67.0073 34.5954Z" fill="white"/>
<path d="M66.9307 35.4639C66.9233 35.5423 66.8873 35.6152 66.8295 35.6687C66.7717 35.7222 66.6963 35.7525 66.6175 35.7539C66.5804 35.7544 66.5436 35.7471 66.5096 35.7323C66.4755 35.7176 66.445 35.6958 66.42 35.6684C66.395 35.641 66.3761 35.6086 66.3646 35.5733C66.353 35.538 66.3491 35.5007 66.353 35.4639C66.3605 35.3855 66.3965 35.3125 66.4543 35.259C66.512 35.2055 66.5875 35.1752 66.6662 35.1739C66.7033 35.1733 66.7401 35.1807 66.7742 35.1954C66.8082 35.2101 66.8388 35.2319 66.8638 35.2593C66.8888 35.2867 66.9076 35.3191 66.9192 35.3544C66.9307 35.3897 66.9347 35.427 66.9307 35.4639Z" fill="white"/>
<path d="M66.8588 36.3291C66.8509 36.4077 66.8144 36.4806 66.7562 36.5341C66.6981 36.5875 66.6223 36.6178 66.5433 36.6191C66.5062 36.6196 66.4694 36.6123 66.4354 36.5976C66.4013 36.5828 66.3708 36.561 66.3458 36.5336C66.3208 36.5062 66.3019 36.4738 66.2904 36.4385C66.2788 36.4033 66.2749 36.366 66.2788 36.3291C66.2868 36.2505 66.3233 36.1776 66.3815 36.1241C66.4396 36.0706 66.5154 36.0404 66.5944 36.0391C66.6314 36.0386 66.6682 36.0459 66.7023 36.0606C66.7363 36.0754 66.7669 36.0972 66.7919 36.1246C66.8169 36.152 66.8358 36.1844 66.8473 36.2196C66.8588 36.2549 66.8628 36.2922 66.8588 36.3291Z" fill="white"/>
<path d="M64.3118 67.4374H43.0768C42.9811 67.4393 42.886 67.4208 42.7981 67.383C42.7101 67.3453 42.6311 67.2891 42.5666 67.2184C42.502 67.1477 42.4533 67.064 42.4236 66.973C42.394 66.8819 42.3842 66.7856 42.3947 66.6904L43.3831 55.5196C43.4035 55.3173 43.4974 55.1294 43.6471 54.9918C43.7968 54.8541 43.9917 54.7761 44.1951 54.7726H65.4231C65.5186 54.771 65.6134 54.7898 65.7011 54.8277C65.7888 54.8656 65.8675 54.9218 65.9318 54.9925C65.9961 55.0631 66.0446 55.1467 66.0741 55.2376C66.1036 55.3285 66.1134 55.4246 66.1028 55.5196L65.1261 66.6904C65.1056 66.8931 65.0114 67.0813 64.8612 67.219C64.7111 67.3567 64.5155 67.4345 64.3118 67.4374Z" fill="white"/>
<path d="M48.9184 69.7715H42.3064C42.2832 69.772 42.2602 69.7675 42.2389 69.7584C42.2176 69.7492 42.1985 69.7356 42.1829 69.7185C42.1673 69.7013 42.1556 69.681 42.1485 69.659C42.1413 69.6369 42.139 69.6136 42.1417 69.5905C42.1463 69.5411 42.1689 69.495 42.2053 69.4612C42.2417 69.4274 42.2892 69.4082 42.3389 69.4073H48.9509C48.9743 69.4067 48.9975 69.4113 49.019 69.4206C49.0405 69.4298 49.0597 69.4437 49.0754 69.4611C49.091 69.4785 49.1027 69.4991 49.1096 69.5214C49.1166 69.5438 49.1186 69.5673 49.1156 69.5905C49.1105 69.6396 49.0877 69.6851 49.0513 69.7184C49.015 69.7517 48.9677 69.7706 48.9184 69.7715Z" fill="white"/>
<path d="M57.183 69.7715H50.0861C50.0627 69.7723 50.0394 69.7681 50.0179 69.7591C49.9963 69.7501 49.9769 69.7365 49.961 69.7194C49.9452 69.7022 49.9332 69.6818 49.926 69.6595C49.9187 69.6373 49.9164 69.6138 49.919 69.5905C49.9236 69.5411 49.9462 69.495 49.9826 69.4612C50.019 69.4274 50.0666 69.4082 50.1162 69.4073H57.2154C57.2388 69.4067 57.2621 69.4113 57.2836 69.4206C57.305 69.4298 57.3243 69.4437 57.3399 69.4611C57.3555 69.4785 57.3672 69.4991 57.3742 69.5214C57.3811 69.5438 57.3832 69.5673 57.3802 69.5905C57.3751 69.6396 57.3522 69.6851 57.3159 69.7184C57.2795 69.7517 57.2323 69.7706 57.183 69.7715Z" fill="white"/>
<path d="M46.6318 71.3841H42.1681C42.1446 71.3846 42.1213 71.3801 42.0997 71.3708C42.0781 71.3615 42.0588 71.3478 42.043 71.3304C42.0272 71.3131 42.0152 71.2925 42.008 71.2702C42.0008 71.2478 41.9984 71.2242 42.0011 71.2009C42.0061 71.1516 42.0289 71.1058 42.0652 71.0721C42.1014 71.0384 42.1487 71.019 42.1983 71.0176H46.6712C46.6946 71.0175 46.7177 71.0223 46.7391 71.0317C46.7605 71.0411 46.7797 71.0548 46.7955 71.0721C46.8112 71.0894 46.8232 71.1098 46.8305 71.1319C46.8379 71.1541 46.8405 71.1776 46.8383 71.2009C46.833 71.2517 46.8089 71.2988 46.7707 71.3327C46.7325 71.3666 46.6829 71.385 46.6318 71.3841Z" fill="white"/>
<path d="M55.1314 71.3842H47.8048C47.7813 71.3847 47.758 71.3801 47.7364 71.3708C47.7149 71.3616 47.6955 71.3478 47.6797 71.3304C47.6639 71.3131 47.652 71.2926 47.6447 71.2702C47.6375 71.2479 47.6351 71.2242 47.6378 71.2009C47.6429 71.1512 47.666 71.1052 47.7028 71.0714C47.7395 71.0376 47.7874 71.0185 47.8373 71.0176H55.1615C55.185 71.0171 55.2083 71.0217 55.2299 71.0309C55.2515 71.0402 55.2708 71.054 55.2866 71.0713C55.3025 71.0887 55.3144 71.1092 55.3216 71.1316C55.3289 71.1539 55.3312 71.1776 55.3286 71.2009C55.324 71.2504 55.3014 71.2964 55.265 71.3302C55.2286 71.364 55.181 71.3832 55.1314 71.3842Z" fill="white"/>
<path d="M53.95 72.9941H42.0275C42.0041 72.9949 41.9809 72.9907 41.9593 72.9817C41.9377 72.9727 41.9183 72.9592 41.9024 72.942C41.8866 72.9248 41.8746 72.9044 41.8674 72.8822C41.8601 72.8599 41.8578 72.8364 41.8605 72.8132C41.8655 72.7635 41.8887 72.7174 41.9254 72.6837C41.9622 72.6499 42.0101 72.6308 42.06 72.6299H53.9825C54.0058 72.6298 54.029 72.6346 54.0504 72.644C54.0718 72.6534 54.091 72.6671 54.1067 72.6844C54.1224 72.7017 54.1344 72.7221 54.1418 72.7442C54.1491 72.7664 54.1518 72.7899 54.1495 72.8132C54.1439 72.8624 54.1205 72.9079 54.0838 72.9412C54.0471 72.9745 53.9995 72.9933 53.95 72.9941Z" fill="white"/>
<path d="M55.9116 72.9942H55.1251C55.1018 72.995 55.0785 72.9908 55.0569 72.9818C55.0353 72.9728 55.016 72.9592 55.0001 72.942C54.9842 72.9248 54.9723 72.9044 54.965 72.8822C54.9578 72.86 54.9554 72.8364 54.9581 72.8132C54.9627 72.7637 54.9853 72.7177 55.0217 72.6839C55.0581 72.6501 55.1056 72.6309 55.1553 72.6299H55.9441C55.9675 72.6294 55.9907 72.6339 56.0122 72.6432C56.0337 72.6525 56.0529 72.6663 56.0686 72.6837C56.0842 72.7011 56.0959 72.7217 56.1029 72.7441C56.1098 72.7664 56.1118 72.79 56.1088 72.8132C56.1037 72.8623 56.0809 72.9077 56.0445 72.9411C56.0082 72.9744 55.9609 72.9933 55.9116 72.9942Z" fill="white"/>
<path d="M47.4507 74.6068H41.8827C41.8593 74.6069 41.8362 74.6021 41.8148 74.5928C41.7934 74.5834 41.7742 74.5696 41.7584 74.5523C41.7427 74.535 41.7307 74.5146 41.7234 74.4925C41.716 74.4703 41.7134 74.4468 41.7156 74.4236C41.7207 74.3739 41.7438 74.3278 41.7806 74.294C41.8174 74.2603 41.8652 74.2411 41.9152 74.2403H47.4832C47.5066 74.2398 47.5299 74.2443 47.5515 74.2536C47.5731 74.2629 47.5925 74.2766 47.6083 74.294C47.6241 74.3114 47.636 74.3319 47.6432 74.3542C47.6505 74.3766 47.6528 74.4002 47.6502 74.4236C47.6451 74.4732 47.622 74.5193 47.5852 74.5531C47.5485 74.5868 47.5006 74.606 47.4507 74.6068Z" fill="white"/>
<path d="M55.5492 74.6068H48.6171C48.5937 74.6069 48.5705 74.6021 48.5491 74.5928C48.5277 74.5834 48.5085 74.5696 48.4928 74.5523C48.4771 74.535 48.4651 74.5146 48.4577 74.4925C48.4504 74.4703 48.4477 74.4468 48.45 74.4236C48.4551 74.3739 48.4782 74.3278 48.515 74.294C48.5518 74.2603 48.5996 74.2411 48.6495 74.2403H55.5794C55.6029 74.2398 55.6262 74.2443 55.6477 74.2536C55.6693 74.2629 55.6887 74.2766 55.7045 74.294C55.7203 74.3114 55.7322 74.3319 55.7395 74.3542C55.7467 74.3766 55.7491 74.4002 55.7464 74.4236C55.7414 74.4728 55.7186 74.5186 55.6823 74.5523C55.646 74.586 55.5987 74.6054 55.5492 74.6068Z" fill="white"/>
<path d="M48.5998 76.2169H41.7442C41.7208 76.2174 41.6976 76.2129 41.6761 76.2036C41.6546 76.1943 41.6354 76.1805 41.6197 76.1631C41.6041 76.1457 41.5924 76.1251 41.5854 76.1027C41.5785 76.0804 41.5765 76.0568 41.5795 76.0336C41.5846 75.9846 41.6074 75.9391 41.6438 75.9057C41.6801 75.8724 41.7274 75.8535 41.7767 75.8526H48.63C48.6533 75.8518 48.6766 75.856 48.6982 75.865C48.7198 75.874 48.7391 75.8876 48.755 75.9048C48.7709 75.922 48.7828 75.9424 48.7901 75.9646C48.7973 75.9868 48.7997 76.0104 48.797 76.0336C48.7924 76.0831 48.7698 76.1291 48.7334 76.1629C48.697 76.1967 48.6495 76.2159 48.5998 76.2169Z" fill="white"/>
<path d="M55.2853 76.2169H49.7637C49.7403 76.2174 49.7171 76.2129 49.6956 76.2036C49.6741 76.1943 49.6549 76.1805 49.6393 76.1631C49.6236 76.1457 49.6119 76.1251 49.605 76.1027C49.598 76.0804 49.596 76.0568 49.599 76.0336C49.6041 75.9846 49.627 75.9391 49.6633 75.9057C49.6996 75.8724 49.7469 75.8535 49.7962 75.8526H55.3178C55.3412 75.8518 55.3644 75.856 55.386 75.865C55.4076 75.874 55.427 75.8876 55.4429 75.9048C55.4587 75.922 55.4707 75.9424 55.4779 75.9646C55.4852 75.9868 55.4875 76.0104 55.4849 76.0336C55.4798 76.0833 55.4566 76.1293 55.4199 76.1631C55.3831 76.1969 55.3352 76.216 55.2853 76.2169Z" fill="white"/>
<path d="M65.4552 50.3629C65.435 50.3861 65.4105 50.405 65.3829 50.4186C65.3554 50.4322 65.3254 50.4402 65.2948 50.4422C65.2642 50.4441 65.2334 50.44 65.2044 50.4299C65.1754 50.4199 65.1486 50.4042 65.1257 50.3838L55.63 41.3219C55.5868 41.2784 55.5625 41.2196 55.5625 41.1583C55.5625 41.097 55.5868 41.0382 55.63 40.9948C55.6501 40.9716 55.6747 40.9527 55.7022 40.9391C55.7297 40.9255 55.7597 40.9174 55.7903 40.9155C55.821 40.9136 55.8517 40.9177 55.8807 40.9277C55.9097 40.9378 55.9365 40.9534 55.9594 40.9739L65.4552 50.0358C65.4984 50.0793 65.5226 50.1381 65.5226 50.1994C65.5226 50.2607 65.4984 50.3195 65.4552 50.3629Z" fill="#EF233C"/>
<path d="M54.79 50.3599C54.7711 50.3352 54.7574 50.307 54.7496 50.277C54.7418 50.2469 54.7401 50.2156 54.7447 50.1849C54.7492 50.1541 54.7599 50.1247 54.776 50.0981C54.7922 50.0716 54.8135 50.0486 54.8387 50.0305L59.6829 46.0702C59.7289 46.0304 59.7888 46.0102 59.8496 46.0142C59.9103 46.0181 59.9671 46.0457 60.0077 46.0911C60.0262 46.1157 60.0397 46.1437 60.0472 46.1735C60.0548 46.2034 60.0564 46.2344 60.0519 46.2649C60.0473 46.2953 60.0368 46.3246 60.0208 46.3509C60.0049 46.3772 59.9839 46.4001 59.959 46.4182L55.1148 50.3808C55.0688 50.4206 55.0089 50.4408 54.9481 50.4369C54.8874 50.4329 54.8306 50.4053 54.79 50.3599Z" fill="#EF233C"/>
<path d="M61.0506 45.2395C61.0321 45.215 61.0186 45.1869 61.0111 45.1571C61.0035 45.1273 61.0019 45.0962 61.0064 45.0658C61.011 45.0353 61.0215 45.0061 61.0375 44.9798C61.0534 44.9534 61.0744 44.9305 61.0993 44.9124L65.9528 40.9452C65.9988 40.9054 66.0587 40.8852 66.1194 40.8892C66.1802 40.8931 66.237 40.9207 66.2776 40.9661C66.2961 40.9907 66.3095 41.0187 66.3171 41.0485C66.3247 41.0784 66.3263 41.1094 66.3217 41.1399C66.3172 41.1703 66.3066 41.1996 66.2907 41.2259C66.2747 41.2522 66.2537 41.2751 66.2288 41.2932L61.3754 45.2604C61.3293 45.3003 61.2695 45.3204 61.2087 45.3165C61.148 45.3126 61.0912 45.2849 61.0506 45.2395Z" fill="#EF233C"/>
<g opacity="0.7">
<path d="M65.4552 50.3629C65.435 50.3861 65.4105 50.405 65.3829 50.4186C65.3554 50.4322 65.3254 50.4402 65.2948 50.4422C65.2642 50.4441 65.2334 50.44 65.2044 50.4299C65.1754 50.4199 65.1486 50.4042 65.1257 50.3838L55.63 41.3219C55.5868 41.2784 55.5625 41.2196 55.5625 41.1583C55.5625 41.097 55.5868 41.0382 55.63 40.9948C55.6501 40.9716 55.6747 40.9527 55.7022 40.9391C55.7297 40.9255 55.7597 40.9174 55.7903 40.9155C55.821 40.9136 55.8517 40.9177 55.8807 40.9277C55.9097 40.9378 55.9365 40.9534 55.9594 40.9739L65.4552 50.0358C65.4984 50.0793 65.5226 50.1381 65.5226 50.1994C65.5226 50.2607 65.4984 50.3195 65.4552 50.3629Z" fill="white"/>
</g>
<g opacity="0.7">
<path d="M54.79 50.3599C54.7711 50.3352 54.7574 50.307 54.7496 50.277C54.7418 50.2469 54.7401 50.2156 54.7447 50.1849C54.7492 50.1541 54.7599 50.1247 54.776 50.0981C54.7922 50.0716 54.8135 50.0486 54.8387 50.0305L59.6829 46.0702C59.7289 46.0304 59.7888 46.0102 59.8496 46.0142C59.9103 46.0181 59.9671 46.0457 60.0077 46.0911C60.0262 46.1157 60.0397 46.1437 60.0472 46.1735C60.0548 46.2034 60.0564 46.2344 60.0519 46.2649C60.0473 46.2953 60.0368 46.3246 60.0208 46.3509C60.0049 46.3772 59.9839 46.4001 59.959 46.4182L55.1148 50.3808C55.0688 50.4206 55.0089 50.4408 54.9481 50.4369C54.8874 50.4329 54.8306 50.4053 54.79 50.3599Z" fill="white"/>
</g>
<g opacity="0.7">
<path d="M61.0506 45.2395C61.0321 45.215 61.0186 45.1869 61.0111 45.1571C61.0035 45.1273 61.0019 45.0962 61.0064 45.0658C61.011 45.0353 61.0215 45.0061 61.0375 44.9798C61.0534 44.9534 61.0744 44.9305 61.0993 44.9124L65.9528 40.9452C65.9988 40.9054 66.0587 40.8852 66.1194 40.8892C66.1802 40.8931 66.237 40.9207 66.2776 40.9661C66.2961 40.9907 66.3095 41.0187 66.3171 41.0485C66.3247 41.0784 66.3263 41.1094 66.3217 41.1399C66.3172 41.1703 66.3066 41.1996 66.2907 41.2259C66.2747 41.2522 66.2537 41.2751 66.2288 41.2932L61.3754 45.2604C61.3293 45.3003 61.2695 45.3204 61.2087 45.3165C61.148 45.3126 61.0912 45.2849 61.0506 45.2395Z" fill="white"/>
</g>
<path d="M38.4516 26.6426H35.4356C35.1435 26.6438 34.8638 26.7607 34.6577 26.9677C34.4516 27.1746 34.3359 27.4548 34.3359 27.7469V30.7629C34.3359 31.0558 34.4523 31.3367 34.6594 31.5438C34.8665 31.7509 35.1474 31.8672 35.4403 31.8672H38.4563C38.7491 31.8672 39.03 31.7509 39.2371 31.5438C39.4442 31.3367 39.5606 31.0558 39.5606 30.7629V27.7469C39.5606 27.6015 39.5319 27.4575 39.4761 27.3232C39.4203 27.1889 39.3385 27.067 39.2355 26.9644C39.1325 26.8618 39.0102 26.7805 38.8756 26.7253C38.7411 26.6701 38.597 26.642 38.4516 26.6426ZM36.9506 27.7098C37.403 27.7098 37.6466 28.0787 37.6466 28.5311C37.6466 28.9835 37.403 29.3523 36.9506 29.3523C36.4982 29.3523 36.2546 28.9858 36.2546 28.5311C36.2546 28.0763 36.4959 27.7098 36.9506 27.7098ZM38.7625 30.7884H35.1363C35.1217 30.7885 35.1072 30.7856 35.0937 30.78C35.0801 30.7745 35.0678 30.7663 35.0575 30.756L35.2895 30.1226C35.3619 29.9229 35.494 29.7502 35.6679 29.6282C35.8418 29.5062 36.0491 29.4407 36.2615 29.4405H37.6327C37.8454 29.4405 38.0531 29.506 38.2274 29.628C38.4017 29.75 38.5342 29.9227 38.6071 30.1226L38.8391 30.756C38.8291 30.7662 38.8172 30.7744 38.8041 30.78C38.7909 30.7855 38.7768 30.7884 38.7625 30.7884Z" fill="#EF233C"/>
<path opacity="0.7" d="M38.4516 26.6426H35.4356C35.1435 26.6438 34.8638 26.7607 34.6577 26.9677C34.4516 27.1746 34.3359 27.4548 34.3359 27.7469V30.7629C34.3359 31.0558 34.4523 31.3367 34.6594 31.5438C34.8665 31.7509 35.1474 31.8672 35.4403 31.8672H38.4563C38.7491 31.8672 39.03 31.7509 39.2371 31.5438C39.4442 31.3367 39.5606 31.0558 39.5606 30.7629V27.7469C39.5606 27.6015 39.5319 27.4575 39.4761 27.3232C39.4203 27.1889 39.3385 27.067 39.2355 26.9644C39.1325 26.8618 39.0102 26.7805 38.8756 26.7253C38.7411 26.6701 38.597 26.642 38.4516 26.6426ZM36.9506 27.7098C37.403 27.7098 37.6466 28.0787 37.6466 28.5311C37.6466 28.9835 37.403 29.3523 36.9506 29.3523C36.4982 29.3523 36.2546 28.9858 36.2546 28.5311C36.2546 28.0763 36.4959 27.7098 36.9506 27.7098ZM38.7625 30.7884H35.1363C35.1217 30.7885 35.1072 30.7856 35.0937 30.78C35.0801 30.7745 35.0678 30.7663 35.0575 30.756L35.2895 30.1226C35.3619 29.9229 35.494 29.7502 35.6679 29.6282C35.8418 29.5062 36.0491 29.4407 36.2615 29.4405H37.6327C37.8454 29.4405 38.0531 29.506 38.2274 29.628C38.4017 29.75 38.5342 29.9227 38.6071 30.1226L38.8391 30.756C38.8291 30.7662 38.8172 30.7744 38.8041 30.78C38.7909 30.7855 38.7768 30.7884 38.7625 30.7884Z" fill="white"/>
<path d="M27.7622 39.0039H25.4793C25.2841 39.0036 25.0908 39.0418 24.9104 39.1163C24.73 39.1907 24.566 39.3001 24.4279 39.438C24.2898 39.5759 24.1802 39.7397 24.1054 39.92C24.0307 40.1003 23.9922 40.2935 23.9922 40.4887V42.7716C23.9922 43.166 24.1489 43.5443 24.4278 43.8231C24.7066 44.102 25.0849 44.2587 25.4793 44.2587H27.7622C27.9574 44.2587 28.1506 44.2202 28.3309 44.1455C28.5112 44.0707 28.675 43.9611 28.8129 43.823C28.9508 43.6849 29.0601 43.5209 29.1346 43.3405C29.2091 43.1601 29.2473 42.9668 29.247 42.7716V40.4887C29.2473 40.2936 29.2091 40.1004 29.1346 39.9201C29.0601 39.7399 28.9507 39.5761 28.8128 39.4381C28.6748 39.3002 28.511 39.1908 28.3308 39.1163C28.1505 39.0418 27.9573 39.0036 27.7622 39.0039ZM26.6207 42.876C26.6207 42.876 25.6927 41.8575 25.6927 41.3378C25.6927 41.0889 25.7916 40.8502 25.9676 40.6743C26.1436 40.4983 26.3823 40.3994 26.6312 40.3994C26.8801 40.3994 27.1188 40.4983 27.2948 40.6743C27.4708 40.8502 27.5696 41.0889 27.5696 41.3378C27.558 41.8575 26.6207 42.876 26.6207 42.876Z" fill="#EF233C"/>
<path d="M26.619 40.9102C26.5339 40.9097 26.4506 40.9345 26.3797 40.9815C26.3088 41.0285 26.2534 41.0955 26.2206 41.174C26.1878 41.2526 26.1791 41.3391 26.1956 41.4225C26.2121 41.506 26.253 41.5827 26.3132 41.6428C26.3734 41.703 26.4501 41.7439 26.5335 41.7604C26.617 41.7769 26.7035 41.7682 26.782 41.7354C26.8605 41.7027 26.9275 41.6473 26.9745 41.5764C27.0215 41.5054 27.0464 41.4221 27.0459 41.337C27.0459 41.2238 27.0009 41.1152 26.9209 41.0352C26.8408 40.9551 26.7322 40.9102 26.619 40.9102Z" fill="#EF233C"/>
<g opacity="0.7">
<path d="M27.7622 39.0039H25.4793C25.2841 39.0036 25.0908 39.0418 24.9104 39.1163C24.73 39.1907 24.566 39.3001 24.4279 39.438C24.2898 39.5759 24.1802 39.7397 24.1054 39.92C24.0307 40.1003 23.9922 40.2935 23.9922 40.4887V42.7716C23.9922 43.166 24.1489 43.5443 24.4278 43.8231C24.7066 44.102 25.0849 44.2587 25.4793 44.2587H27.7622C27.9574 44.2587 28.1506 44.2202 28.3309 44.1455C28.5112 44.0707 28.675 43.9611 28.8129 43.823C28.9508 43.6849 29.0601 43.5209 29.1346 43.3405C29.2091 43.1601 29.2473 42.9668 29.247 42.7716V40.4887C29.2473 40.2936 29.2091 40.1004 29.1346 39.9201C29.0601 39.7399 28.9507 39.5761 28.8128 39.4381C28.6748 39.3002 28.511 39.1908 28.3308 39.1163C28.1505 39.0418 27.9573 39.0036 27.7622 39.0039ZM26.6207 42.876C26.6207 42.876 25.6927 41.8575 25.6927 41.3378C25.6927 41.0889 25.7916 40.8502 25.9676 40.6743C26.1436 40.4983 26.3823 40.3994 26.6312 40.3994C26.8801 40.3994 27.1188 40.4983 27.2948 40.6743C27.4708 40.8502 27.5696 41.0889 27.5696 41.3378C27.558 41.8575 26.6207 42.876 26.6207 42.876Z" fill="white"/>
<path d="M26.619 40.9111C26.5339 40.9107 26.4506 40.9355 26.3797 40.9825C26.3088 41.0295 26.2534 41.0965 26.2206 41.175C26.1878 41.2535 26.1791 41.34 26.1956 41.4235C26.2121 41.507 26.253 41.5837 26.3132 41.6438C26.3734 41.704 26.4501 41.7449 26.5335 41.7614C26.617 41.7779 26.7035 41.7692 26.782 41.7364C26.8605 41.7036 26.9275 41.6483 26.9745 41.5773C27.0215 41.5064 27.0464 41.4231 27.0459 41.338C27.0459 41.2248 27.0009 41.1162 26.9209 41.0362C26.8408 40.9561 26.7322 40.9111 26.619 40.9111Z" fill="white"/>
</g>
<path d="M77.8828 32.5327L79.4117 31.5444L77.8828 30.5537V32.5327Z" fill="#EF233C"/>
<path d="M79.8543 28.8467H76.9404C76.6112 28.8467 76.2955 28.9775 76.0628 29.2102C75.83 29.443 75.6992 29.7587 75.6992 30.0879V33.0018C75.6998 33.3308 75.8308 33.6462 76.0634 33.8788C76.2961 34.1114 76.6114 34.2424 76.9404 34.243H79.8543C80.1835 34.243 80.4992 34.1122 80.732 33.8795C80.9648 33.6467 81.0955 33.331 81.0955 33.0018V30.0879C81.0958 29.9248 81.0639 29.7633 81.0017 29.6125C80.9394 29.4618 80.848 29.3249 80.7327 29.2095C80.6174 29.0942 80.4804 29.0028 80.3297 28.9405C80.179 28.8783 80.0174 28.8464 79.8543 28.8467ZM78.3974 33.4867C78.0132 33.4867 77.6377 33.3727 77.3183 33.1593C76.9989 32.9458 76.75 32.6424 76.6031 32.2874C76.4562 31.9325 76.4179 31.5419 76.493 31.1652C76.5681 30.7884 76.7533 30.4424 77.0251 30.1709C77.2969 29.8995 77.6431 29.7147 78.02 29.64C78.3968 29.5654 78.7873 29.6042 79.1421 29.7515C79.4969 29.8988 79.8 30.1481 80.0131 30.4677C80.2262 30.7873 80.3397 31.163 80.3392 31.5472C80.3389 31.8019 80.2884 32.054 80.1907 32.2892C80.0929 32.5244 79.9498 32.738 79.7695 32.9179C79.5892 33.0978 79.3752 33.2404 79.1398 33.3376C78.9043 33.4348 78.6521 33.4847 78.3974 33.4844V33.4867Z" fill="#EF233C"/>
<g opacity="0.7">
<path d="M77.8828 32.5336L79.4117 31.5453L77.8828 30.5547V32.5336Z" fill="white"/>
<path d="M79.8543 28.8467H76.9404C76.6112 28.8467 76.2955 28.9775 76.0628 29.2102C75.83 29.443 75.6992 29.7587 75.6992 30.0879V33.0018C75.6998 33.3308 75.8308 33.6462 76.0634 33.8788C76.2961 34.1114 76.6114 34.2424 76.9404 34.243H79.8543C80.1835 34.243 80.4992 34.1122 80.732 33.8795C80.9648 33.6467 81.0955 33.331 81.0955 33.0018V30.0879C81.0958 29.9248 81.0639 29.7633 81.0017 29.6125C80.9394 29.4618 80.848 29.3249 80.7327 29.2095C80.6174 29.0942 80.4804 29.0028 80.3297 28.9405C80.179 28.8783 80.0174 28.8464 79.8543 28.8467ZM78.3974 33.4867C78.0132 33.4867 77.6377 33.3727 77.3183 33.1593C76.9989 32.9458 76.75 32.6424 76.6031 32.2874C76.4562 31.9325 76.4179 31.5419 76.493 31.1652C76.5681 30.7884 76.7533 30.4424 77.0251 30.1709C77.2969 29.8995 77.6431 29.7147 78.02 29.64C78.3968 29.5654 78.7873 29.6042 79.1421 29.7515C79.4969 29.8988 79.8 30.1481 80.0131 30.4677C80.2262 30.7873 80.3397 31.163 80.3392 31.5472C80.3389 31.8019 80.2884 32.054 80.1907 32.2892C80.0929 32.5244 79.9498 32.738 79.7695 32.9179C79.5892 33.0978 79.3752 33.2404 79.1398 33.3376C78.9043 33.4348 78.6521 33.4847 78.3974 33.4844V33.4867Z" fill="white"/>
</g>
<path d="M82.7137 40.0224C82.7137 39.9621 82.7137 39.9018 82.7137 39.8438L83.064 39.6489C83.0385 39.483 82.9949 39.3204 82.9341 39.164H82.535C82.4843 39.0551 82.4237 38.951 82.3541 38.8531L82.5605 38.5121C82.4547 38.3812 82.3358 38.2615 82.2056 38.1548L81.8622 38.3613C81.7647 38.2929 81.6615 38.2331 81.5537 38.1826V37.7813C81.3967 37.722 81.2343 37.6785 81.0688 37.6514L80.8739 38.0017C80.8159 38.0017 80.7556 38.0017 80.6953 38.0017C80.6349 38.0017 80.5769 38.0017 80.5166 38.0017L80.3217 37.6514C80.1563 37.6791 79.994 37.7226 79.8369 37.7813V38.1826C79.7287 38.2326 79.6255 38.2924 79.5283 38.3613L79.1849 38.1548C79.0534 38.2608 78.9336 38.3806 78.8277 38.5121L79.0341 38.8531C78.9661 38.9516 78.9063 39.0556 78.8555 39.164H78.4565C78.3959 39.3207 78.3516 39.4832 78.3242 39.6489L78.6745 39.8438C78.6745 39.9018 78.6745 39.9621 78.6745 40.0224C78.6745 40.0827 78.6745 40.143 78.6745 40.201L78.3242 40.3959C78.3513 40.5617 78.3956 40.7242 78.4565 40.8808H78.8555C78.9063 40.9892 78.9661 41.0932 79.0341 41.1917L78.8277 41.535C78.9343 41.6653 79.054 41.7842 79.1849 41.89L79.5283 41.6835C79.6249 41.7533 79.7283 41.8131 79.8369 41.8622V42.2635C79.9936 42.3233 80.1561 42.3669 80.3217 42.3934L80.5166 42.0431C80.5769 42.0431 80.6349 42.0431 80.6953 42.0431C80.7556 42.0431 80.8159 42.0431 80.8739 42.0431L81.0688 42.3934C81.2346 42.3675 81.3971 42.3239 81.5537 42.2635V41.8622C81.662 41.8126 81.7653 41.7528 81.8622 41.6835L82.2056 41.89C82.3352 41.7836 82.4541 41.6647 82.5605 41.535L82.3541 41.1917C82.4237 41.0938 82.4843 40.9897 82.535 40.8808H82.9341C82.9952 40.7245 83.0388 40.5619 83.064 40.3959L82.7137 40.201C82.709 40.1361 82.7137 40.0827 82.7137 40.0224ZM80.6906 41.3958C80.419 41.3958 80.1534 41.3153 79.9276 41.1644C79.7017 41.0135 79.5257 40.799 79.4217 40.548C79.3178 40.297 79.2906 40.0209 79.3436 39.7545C79.3966 39.488 79.5274 39.2433 79.7194 39.0512C79.9115 38.8592 80.1562 38.7284 80.4227 38.6754C80.6891 38.6224 80.9652 38.6496 81.2162 38.7535C81.4672 38.8575 81.6817 39.0335 81.8326 39.2594C81.9835 39.4852 82.0641 39.7508 82.0641 40.0224C82.0641 40.3867 81.9194 40.736 81.6618 40.9936C81.4042 41.2511 81.0549 41.3958 80.6906 41.3958Z" fill="#EF233C"/>
<path opacity="0.7" d="M82.7137 40.0224C82.7137 39.9621 82.7137 39.9018 82.7137 39.8438L83.064 39.6489C83.0385 39.483 82.9949 39.3204 82.9341 39.164H82.535C82.4843 39.0551 82.4237 38.951 82.3541 38.8531L82.5605 38.5121C82.4547 38.3812 82.3358 38.2615 82.2056 38.1548L81.8622 38.3613C81.7647 38.2929 81.6615 38.2331 81.5537 38.1826V37.7813C81.3967 37.722 81.2343 37.6785 81.0688 37.6514L80.8739 38.0017C80.8159 38.0017 80.7556 38.0017 80.6953 38.0017C80.6349 38.0017 80.5769 38.0017 80.5166 38.0017L80.3217 37.6514C80.1563 37.6791 79.994 37.7226 79.8369 37.7813V38.1826C79.7287 38.2326 79.6255 38.2924 79.5283 38.3613L79.1849 38.1548C79.0534 38.2608 78.9336 38.3806 78.8277 38.5121L79.0341 38.8531C78.9661 38.9516 78.9063 39.0556 78.8555 39.164H78.4565C78.3959 39.3207 78.3516 39.4832 78.3242 39.6489L78.6745 39.8438C78.6745 39.9018 78.6745 39.9621 78.6745 40.0224C78.6745 40.0827 78.6745 40.143 78.6745 40.201L78.3242 40.3959C78.3513 40.5617 78.3956 40.7242 78.4565 40.8808H78.8555C78.9063 40.9892 78.9661 41.0932 79.0341 41.1917L78.8277 41.535C78.9343 41.6653 79.054 41.7842 79.1849 41.89L79.5283 41.6835C79.6249 41.7533 79.7283 41.8131 79.8369 41.8622V42.2635C79.9936 42.3233 80.1561 42.3669 80.3217 42.3934L80.5166 42.0431C80.5769 42.0431 80.6349 42.0431 80.6953 42.0431C80.7556 42.0431 80.8159 42.0431 80.8739 42.0431L81.0688 42.3934C81.2346 42.3675 81.3971 42.3239 81.5537 42.2635V41.8622C81.662 41.8126 81.7653 41.7528 81.8622 41.6835L82.2056 41.89C82.3352 41.7836 82.4541 41.6647 82.5605 41.535L82.3541 41.1917C82.4237 41.0938 82.4843 40.9897 82.535 40.8808H82.9341C82.9952 40.7245 83.0388 40.5619 83.064 40.3959L82.7137 40.201C82.709 40.1361 82.7137 40.0827 82.7137 40.0224ZM80.6906 41.3958C80.419 41.3958 80.1534 41.3153 79.9276 41.1644C79.7017 41.0135 79.5257 40.799 79.4217 40.548C79.3178 40.297 79.2906 40.0209 79.3436 39.7545C79.3966 39.488 79.5274 39.2433 79.7194 39.0512C79.9115 38.8592 80.1562 38.7284 80.4227 38.6754C80.6891 38.6224 80.9652 38.6496 81.2162 38.7535C81.4672 38.8575 81.6817 39.0335 81.8326 39.2594C81.9835 39.4852 82.0641 39.7508 82.0641 40.0224C82.0641 40.3867 81.9194 40.736 81.6618 40.9936C81.4042 41.2511 81.0549 41.3958 80.6906 41.3958Z" fill="white"/>
<path d="M77.4258 46.9195C77.4258 46.829 77.4258 46.7408 77.4142 46.6527L77.9386 46.3627C77.8991 46.1137 77.8338 45.8696 77.7437 45.6342L77.1451 45.6458C77.0695 45.4834 76.9795 45.3281 76.876 45.1818L77.1846 44.6691C77.0265 44.4739 76.8484 44.2958 76.6533 44.1378L76.1406 44.444C75.9937 44.3422 75.8385 44.2529 75.6766 44.1772V43.5787C75.4421 43.4883 75.1986 43.4229 74.9504 43.3838L74.6604 43.9081C74.5722 43.9081 74.4841 43.9081 74.3936 43.9081C74.3031 43.9081 74.215 43.9081 74.1268 43.9081L73.8438 43.3838C73.5956 43.4235 73.3523 43.4888 73.1176 43.5787V44.1772C72.9556 44.2528 72.8004 44.3421 72.6536 44.444L72.1525 44.1378C71.9566 44.2958 71.7777 44.4739 71.6189 44.6691L71.9274 45.1818C71.8247 45.3281 71.7354 45.4834 71.6606 45.6458L71.0621 45.6342C70.9709 45.8692 70.9056 46.1135 70.8672 46.3627L71.3915 46.6527C71.3729 46.8301 71.3729 47.0089 71.3915 47.1863L70.8672 47.4786C70.9058 47.727 70.9712 47.9704 71.0621 48.2047L71.6606 48.1931C71.7349 48.3558 71.8242 48.5111 71.9274 48.6571L71.6189 49.1699C71.7777 49.3651 71.9566 49.5431 72.1525 49.7011L72.6652 49.3949C72.8114 49.4977 72.9667 49.587 73.1292 49.6617V50.2603C73.3635 50.3512 73.607 50.4165 73.8553 50.4551L74.1477 49.9308C74.3251 49.9494 74.5039 49.9494 74.6813 49.9308L74.9713 50.4551C75.2198 50.4171 75.4633 50.3517 75.6974 50.2603V49.6617C75.8598 49.5869 76.0151 49.4976 76.1614 49.3949L76.6741 49.7011C76.8693 49.5431 77.0474 49.365 77.2054 49.1699L76.8969 48.6571C77.0008 48.5112 77.0909 48.3559 77.166 48.1931L77.7646 48.2047C77.8544 47.9701 77.9197 47.7267 77.9594 47.4786L77.4351 47.1863C77.4212 47.0958 77.4258 47.01 77.4258 46.9195ZM74.4098 48.112C74.174 48.112 73.9434 48.042 73.7473 47.911C73.5512 47.7799 73.3984 47.5937 73.3081 47.3758C73.2179 47.1579 73.1942 46.9181 73.2403 46.6868C73.2863 46.4555 73.3998 46.243 73.5666 46.0763C73.7334 45.9095 73.9459 45.7959 74.1772 45.7499C74.4085 45.7039 74.6483 45.7275 74.8662 45.8178C75.0841 45.908 75.2703 46.0609 75.4013 46.257C75.5324 46.4531 75.6023 46.6836 75.6023 46.9195C75.6023 47.0767 75.5712 47.2323 75.5109 47.3774C75.4505 47.5226 75.3621 47.6543 75.2506 47.7652C75.1391 47.876 75.0068 47.9637 74.8614 48.0232C74.7159 48.0827 74.5601 48.1129 74.4029 48.112H74.4098Z" fill="#EF233C"/>
<path opacity="0.7" d="M77.4258 46.9195C77.4258 46.829 77.4258 46.7408 77.4142 46.6527L77.9386 46.3627C77.8991 46.1137 77.8338 45.8696 77.7437 45.6342L77.1451 45.6458C77.0695 45.4834 76.9795 45.3281 76.876 45.1818L77.1846 44.6691C77.0265 44.4739 76.8484 44.2958 76.6533 44.1378L76.1406 44.444C75.9937 44.3422 75.8385 44.2529 75.6766 44.1772V43.5787C75.4421 43.4883 75.1986 43.4229 74.9504 43.3838L74.6604 43.9081C74.5722 43.9081 74.4841 43.9081 74.3936 43.9081C74.3031 43.9081 74.215 43.9081 74.1268 43.9081L73.8438 43.3838C73.5956 43.4235 73.3523 43.4888 73.1176 43.5787V44.1772C72.9556 44.2528 72.8004 44.3421 72.6536 44.444L72.1525 44.1378C71.9566 44.2958 71.7777 44.4739 71.6189 44.6691L71.9274 45.1818C71.8247 45.3281 71.7354 45.4834 71.6606 45.6458L71.0621 45.6342C70.9709 45.8692 70.9056 46.1135 70.8672 46.3627L71.3915 46.6527C71.3729 46.8301 71.3729 47.0089 71.3915 47.1863L70.8672 47.4786C70.9058 47.727 70.9712 47.9704 71.0621 48.2047L71.6606 48.1931C71.7349 48.3558 71.8242 48.5111 71.9274 48.6571L71.6189 49.1699C71.7777 49.3651 71.9566 49.5431 72.1525 49.7011L72.6652 49.3949C72.8114 49.4977 72.9667 49.587 73.1292 49.6617V50.2603C73.3635 50.3512 73.607 50.4165 73.8553 50.4551L74.1477 49.9308C74.3251 49.9494 74.5039 49.9494 74.6813 49.9308L74.9713 50.4551C75.2198 50.4171 75.4633 50.3517 75.6974 50.2603V49.6617C75.8598 49.5869 76.0151 49.4976 76.1614 49.3949L76.6741 49.7011C76.8693 49.5431 77.0474 49.365 77.2054 49.1699L76.8969 48.6571C77.0008 48.5112 77.0909 48.3559 77.166 48.1931L77.7646 48.2047C77.8544 47.9701 77.9197 47.7267 77.9594 47.4786L77.4351 47.1863C77.4212 47.0958 77.4258 47.01 77.4258 46.9195ZM74.4098 48.112C74.174 48.112 73.9434 48.042 73.7473 47.911C73.5512 47.7799 73.3984 47.5937 73.3081 47.3758C73.2179 47.1579 73.1942 46.9181 73.2403 46.6868C73.2863 46.4555 73.3998 46.243 73.5666 46.0763C73.7334 45.9095 73.9459 45.7959 74.1772 45.7499C74.4085 45.7039 74.6483 45.7275 74.8662 45.8178C75.0841 45.908 75.2703 46.0609 75.4013 46.257C75.5324 46.4531 75.6023 46.6836 75.6023 46.9195C75.6023 47.0767 75.5712 47.2323 75.5109 47.3774C75.4505 47.5226 75.3621 47.6543 75.2506 47.7652C75.1391 47.876 75.0068 47.9637 74.8614 48.0232C74.7159 48.0827 74.5601 48.1129 74.4029 48.112H74.4098Z" fill="white"/>
<path d="M68.903 33.4684V34.6841L67.743 35.2942C67.6979 35.3184 67.6602 35.3544 67.6339 35.3983C67.6076 35.4422 67.5938 35.4925 67.5938 35.5436C67.5938 35.5948 67.6076 35.645 67.6339 35.689C67.6602 35.7329 67.6979 35.7688 67.743 35.793L68.903 36.4032V37.6189C68.903 37.7487 68.9545 37.8732 69.0463 37.965C69.1381 38.0568 69.2626 38.1084 69.3925 38.1084H73.543C73.673 38.1084 73.7977 38.0569 73.8899 37.9652C73.9821 37.8734 74.0342 37.7489 74.0348 37.6189V33.4684C74.0348 33.338 73.983 33.2129 73.8907 33.1206C73.7985 33.0284 73.6734 32.9766 73.543 32.9766H69.3855C69.2565 32.9784 69.1334 33.0311 69.043 33.1232C68.9527 33.2153 68.9023 33.3394 68.903 33.4684Z" fill="#EF233C"/>
<g opacity="0.9">
<path d="M70.3252 34.7353H72.6846C72.7615 34.7353 72.8353 34.7047 72.8897 34.6503C72.944 34.5959 72.9746 34.5222 72.9746 34.4453C72.9746 34.3684 72.944 34.2946 72.8897 34.2402C72.8353 34.1858 72.7615 34.1553 72.6846 34.1553H70.3252C70.2482 34.1553 70.1745 34.1858 70.1201 34.2402C70.0657 34.2946 70.0352 34.3684 70.0352 34.4453C70.0352 34.5222 70.0657 34.5959 70.1201 34.6503C70.1745 34.7047 70.2482 34.7353 70.3252 34.7353Z" fill="white"/>
<path d="M72.6846 35.2646H70.3252C70.2482 35.2646 70.1745 35.2952 70.1201 35.3496C70.0657 35.404 70.0352 35.4777 70.0352 35.5546C70.0352 35.6316 70.0657 35.7053 70.1201 35.7597C70.1745 35.8141 70.2482 35.8446 70.3252 35.8446H72.6846C72.7615 35.8446 72.8353 35.8141 72.8897 35.7597C72.944 35.7053 72.9746 35.6316 72.9746 35.5546C72.9746 35.4777 72.944 35.404 72.8897 35.3496C72.8353 35.2952 72.7615 35.2646 72.6846 35.2646Z" fill="white"/>
<path d="M72.6846 36.3525H70.3252C70.2482 36.3525 70.1745 36.3831 70.1201 36.4375C70.0657 36.4919 70.0352 36.5656 70.0352 36.6425C70.0352 36.7195 70.0657 36.7932 70.1201 36.8476C70.1745 36.902 70.2482 36.9325 70.3252 36.9325H72.6846C72.7615 36.9325 72.8353 36.902 72.8897 36.8476C72.944 36.7932 72.9746 36.7195 72.9746 36.6425C72.9746 36.5656 72.944 36.4919 72.8897 36.4375C72.8353 36.3831 72.7615 36.3525 72.6846 36.3525Z" fill="white"/>
</g>
<path d="M45.4489 31.5523H46.4396L46.95 32.5197C46.9836 32.5828 47.0338 32.6355 47.0951 32.6723C47.1564 32.7091 47.2265 32.7285 47.298 32.7285C47.3695 32.7285 47.4396 32.7091 47.5009 32.6723C47.5622 32.6355 47.6123 32.5828 47.646 32.5197L48.1564 31.5523H49.147C49.241 31.5523 49.3342 31.5337 49.421 31.4976C49.5079 31.4616 49.5867 31.4087 49.6531 31.3421C49.7195 31.2755 49.7721 31.1965 49.8079 31.1095C49.8436 31.0226 49.8619 30.9294 49.8616 30.8354V27.1443C49.8616 26.9547 49.7863 26.773 49.6523 26.639C49.5183 26.505 49.3365 26.4297 49.147 26.4297H45.4489C45.355 26.4294 45.262 26.4477 45.1751 26.4835C45.0883 26.5193 45.0094 26.5719 44.943 26.6383C44.8766 26.7047 44.8239 26.7836 44.7881 26.8704C44.7523 26.9573 44.7341 27.0503 44.7344 27.1443V30.8563C44.7392 31.0425 44.8166 31.2195 44.9501 31.3496C45.0836 31.4796 45.2626 31.5523 45.4489 31.5523Z" fill="#EF233C"/>
<path opacity="0.9" d="M47.3016 27.5361L46.1602 28.2043V30.1577H47.0093V28.8469H47.5962V30.1577H48.4454V28.2043L47.3016 27.5361Z" fill="white"/>
<path d="M56.5636 84.6312H55.682L55.1136 83.5501C55.0854 83.4977 55.0435 83.454 54.9925 83.4235C54.9414 83.393 54.8831 83.377 54.8236 83.377C54.7641 83.377 54.7058 83.393 54.6547 83.4235C54.6037 83.454 54.5618 83.4977 54.5336 83.5501L53.9652 84.6312H53.0604C52.8444 84.6312 52.6373 84.717 52.4846 84.8697C52.3319 85.0224 52.2461 85.2296 52.2461 85.4455V88.9487C52.2461 89.1647 52.3319 89.3718 52.4846 89.5245C52.6373 89.6773 52.8444 89.763 53.0604 89.763H56.5636C56.7796 89.763 56.9867 89.6773 57.1394 89.5245C57.2921 89.3718 57.3779 89.1647 57.3779 88.9487V85.4455C57.3779 85.2296 57.2921 85.0224 57.1394 84.8697C56.9867 84.717 56.7796 84.6312 56.5636 84.6312Z" fill="#EF233C"/>
<path opacity="0.9" d="M55.3072 85.9699C55.1371 85.7997 54.922 85.6814 54.6871 85.629C54.4522 85.5766 54.2072 85.5922 53.9809 85.674C53.7545 85.7557 53.5562 85.9003 53.409 86.0907C53.2618 86.2811 53.1719 86.5095 53.1499 86.7492C53.1278 86.9888 53.1745 87.2298 53.2844 87.4439C53.3943 87.658 53.5629 87.8363 53.7705 87.9581C53.9781 88.0798 54.2161 88.1399 54.4566 88.1313C54.6971 88.1226 54.9302 88.0457 55.1286 87.9094C55.1382 87.9669 55.1649 88.0203 55.2051 88.0625L55.9939 88.849C56.0471 88.9022 56.1193 88.9321 56.1946 88.9321C56.2699 88.9321 56.3421 88.9022 56.3953 88.849C56.4485 88.7958 56.4784 88.7236 56.4784 88.6483C56.4784 88.5731 56.4485 88.5009 56.3953 88.4476L55.6088 87.6612C55.5665 87.6193 55.5121 87.5917 55.4534 87.5823C55.6201 87.3384 55.6968 87.0441 55.6701 86.7498C55.6434 86.4556 55.5151 86.1798 55.3072 85.9699ZM55.0381 87.4941C54.9138 87.6183 54.7554 87.7028 54.5831 87.737C54.4108 87.7712 54.2322 87.7535 54.0699 87.6862C53.9076 87.6189 53.7689 87.505 53.6713 87.3589C53.5737 87.2128 53.5216 87.0411 53.5216 86.8654C53.5216 86.6897 53.5737 86.518 53.6713 86.3719C53.7689 86.2258 53.9076 86.1119 54.0699 86.0446C54.2322 85.9773 54.4108 85.9596 54.5831 85.9938C54.7554 86.028 54.9138 86.1125 55.0381 86.2367C55.1207 86.3192 55.1863 86.4172 55.231 86.5251C55.2757 86.633 55.2987 86.7486 55.2987 86.8654C55.2987 86.9822 55.2757 87.0978 55.231 87.2057C55.1863 87.3136 55.1207 87.4116 55.0381 87.4941Z" fill="white"/>
<path d="M94.0295 61.3012C94.0295 61.3012 92.1387 65.9876 90.2873 66.4934C88.436 66.9991 85.6473 66.5885 85.6473 66.5885L84.7843 66.8205L83.9375 66.6952H83.9073L82.9538 66.672C82.9194 66.6749 82.8849 66.6678 82.8544 66.6517C82.8239 66.6357 82.7986 66.6112 82.7815 66.5812C82.7644 66.5512 82.7563 66.5169 82.758 66.4825C82.7598 66.448 82.7714 66.4147 82.7914 66.3866L83.1324 65.9226C83.1611 65.8845 83.2008 65.8562 83.2461 65.8414L84.1556 65.5491C84.1915 65.5411 84.2287 65.5411 84.2646 65.5491L85.6566 65.7695C85.6566 65.7695 89.5194 65.1362 89.9138 64.7789C90.3082 64.4216 91.4705 60.6748 91.4705 60.6748L94.0295 61.3012Z" fill="#EEC1BB"/>
<path opacity="0.1" d="M85.7432 65.7388L85.6527 65.7528L84.2607 65.5324C84.2248 65.5244 84.1876 65.5244 84.1517 65.5324L83.2422 65.8247C83.1969 65.8394 83.1572 65.8678 83.1285 65.9059L82.7875 66.3699C82.7675 66.398 82.7559 66.4312 82.7541 66.4657C82.7524 66.5002 82.7605 66.5344 82.7776 66.5644C82.7947 66.5944 82.82 66.6189 82.8505 66.635C82.881 66.6511 82.9155 66.6581 82.9499 66.6552L83.9034 66.6785H83.9336L84.502 66.762C84.9868 66.5177 85.4109 66.1681 85.7432 65.7388Z" fill="black"/>
<path d="M95.1711 56.6584C93.7976 56.2083 91.8651 57.2407 91.125 61.5652L93.9763 62.4074C93.9763 62.4074 97.1338 57.3034 95.1711 56.6584Z" fill="#EF233C"/>
<path d="M87.1797 51.0076C87.1797 51.1514 87.2563 51.2651 87.3491 51.2651C87.4419 51.2651 87.5231 51.1421 87.5161 51.0029C87.5091 50.8637 87.4395 50.7477 87.3467 50.75C87.2539 50.7524 87.1797 50.866 87.1797 51.0076Z" fill="#263238"/>
<path d="M87.7415 51.1484L87.0664 52.2644C87.0664 52.2644 87.2984 52.5288 87.8065 52.334L87.7415 51.1484Z" fill="#D4827D"/>
<path d="M87.8685 50.1114C87.8603 50.1208 87.8497 50.1278 87.8379 50.1319C87.8262 50.136 87.8135 50.1369 87.8012 50.1346C87.7099 50.1189 87.6162 50.1253 87.5278 50.1531C87.4395 50.181 87.359 50.2295 87.2932 50.2947C87.279 50.3079 87.2603 50.3152 87.241 50.3152C87.2216 50.3152 87.2029 50.3079 87.1888 50.2947C87.1754 50.2801 87.168 50.2611 87.168 50.2413C87.168 50.2216 87.1754 50.2025 87.1888 50.188C87.2707 50.1041 87.3718 50.0415 87.4834 50.0055C87.5949 49.9695 87.7136 49.9613 87.8291 49.9815C87.8389 49.9826 87.8483 49.9857 87.8569 49.9905C87.8655 49.9954 87.873 50.0019 87.879 50.0096C87.8851 50.0174 87.8895 50.0263 87.8921 50.0358C87.8947 50.0453 87.8953 50.0552 87.894 50.065C87.8905 50.0827 87.8816 50.0989 87.8685 50.1114Z" fill="#263238"/>
<path d="M92.6406 49.9953C92.745 51.8814 92.8308 52.6795 91.998 53.7514C90.6686 54.8998 88.4043 55.083 87.7361 53.2665C87.1352 51.6425 87.0656 48.8283 88.8103 47.8562C89.1062 47.6913 89.4317 47.5864 89.7683 47.5474C90.1048 47.5084 90.4457 47.5361 90.7715 47.629C91.0973 47.7219 91.4016 47.8781 91.667 48.0886C91.9323 48.2992 92.1536 48.56 92.3181 48.8561C92.5111 49.2063 92.6214 49.5959 92.6406 49.9953Z" fill="#EEC1BB"/>
<path d="M90.0117 54.1226L90.4896 56.9182L92.8189 56.38L92.0046 53.5264L90.0117 54.1226Z" fill="#EEC1BB"/>
<path d="M88.3311 50.1349C88.4494 48.9099 88.0272 50.3251 87.4611 48.7081C86.895 47.091 89.57 45.7779 89.9969 46.0795C90.4237 46.3811 90.1801 46.8428 91.5953 47.105C91.9814 47.1663 92.3319 47.3661 92.5813 47.6672C92.8307 47.9682 92.9618 48.3498 92.9502 48.7406C92.9502 48.7406 93.7645 49.1164 93.4745 50.8657C93.2618 51.9865 92.7845 53.0404 92.0825 53.9397C92.0825 53.9397 91.5466 53.3875 90.6905 53.8956C90.3565 53.6775 90.0738 53.3894 89.8623 53.0511C89.4818 52.4804 89.3635 51.9375 88.8415 51.8911C87.7511 51.7914 88.2917 50.5386 88.3311 50.1349Z" fill="#263238"/>
<path d="M92.8008 48.952C92.8008 48.952 93.9608 48.2421 93.4457 47.4974C92.9307 46.7527 93.1789 48.3187 92.8008 48.952Z" fill="#263238"/>
<path d="M88.664 50.8467C88.4067 51.1343 88.2741 51.5123 88.2951 51.8976C88.3276 52.408 88.8287 52.4985 89.2231 52.2201C89.6175 51.9417 89.9911 51.3988 89.7637 50.9511C89.7133 50.8534 89.6391 50.7699 89.548 50.7083C89.4569 50.6467 89.3518 50.609 89.2424 50.5986C89.1329 50.5883 89.0226 50.6055 88.9215 50.6489C88.8205 50.6922 88.732 50.7602 88.664 50.8467Z" fill="#FFC3BD"/>
<path opacity="0.1" d="M90.0547 54.3874L90.2449 55.4964C90.2282 55.2218 90.2659 54.9466 90.3559 54.6866C90.4459 54.4266 90.5864 54.187 90.7692 53.9814C90.6272 53.9906 90.489 54.0318 90.3652 54.1022C90.2414 54.1725 90.1352 54.2701 90.0547 54.3874Z" fill="black"/>
<path d="M73.6776 61.5977H73.0117V65.5254H73.6776V61.5977Z" fill="#EF233C"/>
<path opacity="0.7" d="M73.6776 61.5977H73.0117V65.5254H73.6776V61.5977Z" fill="white"/>
<path d="M69.1043 53.7979H67.4455C67.1471 53.7979 66.8609 53.9164 66.6499 54.1274C66.4389 54.3384 66.3203 54.6246 66.3203 54.9231V62.6092C66.3203 62.757 66.3494 62.9033 66.406 63.0398C66.4625 63.1763 66.5454 63.3004 66.6499 63.4048C66.7544 63.5093 66.8784 63.5922 67.0149 63.6488C67.1514 63.7053 67.2978 63.7344 67.4455 63.7344H69.1043V53.7979Z" fill="#EF233C"/>
<path d="M79.2478 53.7979H68.0236C67.4022 53.7979 66.8984 54.3016 66.8984 54.9231V62.6069C66.8984 63.2283 67.4022 63.7321 68.0236 63.7321H79.2478C79.8692 63.7321 80.373 63.2283 80.373 62.6069V54.9231C80.373 54.3016 79.8692 53.7979 79.2478 53.7979Z" fill="#EF233C"/>
<path opacity="0.5" d="M79.2478 53.7979H68.0236C67.4022 53.7979 66.8984 54.3016 66.8984 54.9231V62.6069C66.8984 63.2283 67.4022 63.7321 68.0236 63.7321H79.2478C79.8692 63.7321 80.373 63.2283 80.373 62.6069V54.9231C80.373 54.3016 79.8692 53.7979 79.2478 53.7979Z" fill="white"/>
<path d="M79.2486 54.2617H68.0245C67.6593 54.2617 67.3633 54.5577 67.3633 54.9229V62.6068C67.3633 62.9719 67.6593 63.268 68.0245 63.268H79.2486C79.6138 63.268 79.9098 62.9719 79.9098 62.6068V54.9229C79.9098 54.5577 79.6138 54.2617 79.2486 54.2617Z" fill="#263238"/>
<path d="M70.9219 67.1727C70.9414 66.5429 71.2052 65.9456 71.6575 65.507C72.1098 65.0685 72.7151 64.8232 73.3451 64.8232C73.9751 64.8232 74.5804 65.0685 75.0327 65.507C75.485 65.9456 75.7489 66.5429 75.7684 67.1727H70.9219Z" fill="#EF233C"/>
<path d="M76.6394 66.3467H71.793V67.1332H81.4859V66.8107L76.6394 66.3467Z" fill="#EF233C"/>
<path opacity="0.8" d="M76.6394 66.3467H71.793V67.1332H81.4859V66.8107L76.6394 66.3467Z" fill="white"/>
<path d="M76.6394 67.1332H71.793V66.3467L76.6394 66.8107V67.1332Z" fill="#EF233C"/>
<path opacity="0.6" d="M76.6394 67.1332H71.793V66.3467L76.6394 66.8107V67.1332Z" fill="white"/>
<path d="M87.3251 94.2106H77.3282C77.1287 94.2109 76.9312 94.1719 76.7468 94.0957C76.5625 94.0196 76.3949 93.9079 76.2538 93.767C76.1127 93.6261 76.0007 93.4587 75.9243 93.2745C75.8479 93.0902 75.8086 92.8927 75.8086 92.6933V69.7067C75.8086 69.5073 75.8479 69.3098 75.9243 69.1256C76.0007 68.9413 76.1127 68.774 76.2538 68.633C76.3949 68.4921 76.5625 68.3804 76.7468 68.3043C76.9312 68.2282 77.1287 68.1891 77.3282 68.1895H87.3251C87.4327 68.1895 87.536 68.2322 87.6122 68.3084C87.6883 68.3845 87.7311 68.4878 87.7311 68.5955C87.7311 68.7031 87.6883 68.8064 87.6122 68.8825C87.536 68.9587 87.4327 69.0015 87.3251 69.0015H77.3282C77.2358 68.9999 77.1441 69.0168 77.0583 69.0511C76.9725 69.0854 76.8944 69.1364 76.8285 69.2012C76.7627 69.2659 76.7104 69.3432 76.6747 69.4284C76.639 69.5136 76.6206 69.6051 76.6206 69.6975V92.684C76.6206 92.7764 76.639 92.8679 76.6747 92.9531C76.7104 93.0383 76.7627 93.1155 76.8285 93.1803C76.8944 93.2451 76.9725 93.2961 77.0583 93.3304C77.1441 93.3647 77.2358 93.3816 77.3282 93.38H87.3251C87.4327 93.38 87.536 93.4228 87.6122 93.4989C87.6883 93.5751 87.7311 93.6783 87.7311 93.786C87.7336 93.8409 87.7249 93.8957 87.7057 93.9471C87.6864 93.9985 87.6569 94.0455 87.6189 94.0852C87.581 94.1249 87.5354 94.1564 87.4849 94.178C87.4343 94.1995 87.38 94.2106 87.3251 94.2106Z" fill="#263238"/>
<g opacity="0.5">
<path d="M87.3251 94.2106H77.3282C77.1287 94.2109 76.9312 94.1719 76.7468 94.0957C76.5625 94.0196 76.3949 93.9079 76.2538 93.767C76.1127 93.6261 76.0007 93.4587 75.9243 93.2745C75.8479 93.0902 75.8086 92.8927 75.8086 92.6933V69.7067C75.8086 69.5073 75.8479 69.3098 75.9243 69.1256C76.0007 68.9413 76.1127 68.774 76.2538 68.633C76.3949 68.4921 76.5625 68.3804 76.7468 68.3043C76.9312 68.2282 77.1287 68.1891 77.3282 68.1895H87.3251C87.4327 68.1895 87.536 68.2322 87.6122 68.3084C87.6883 68.3845 87.7311 68.4878 87.7311 68.5955C87.7311 68.7031 87.6883 68.8064 87.6122 68.8825C87.536 68.9587 87.4327 69.0015 87.3251 69.0015H77.3282C77.2358 68.9999 77.1441 69.0168 77.0583 69.0511C76.9725 69.0854 76.8944 69.1364 76.8285 69.2012C76.7627 69.2659 76.7104 69.3432 76.6747 69.4284C76.639 69.5136 76.6206 69.6051 76.6206 69.6975V92.684C76.6206 92.7764 76.639 92.8679 76.6747 92.9531C76.7104 93.0383 76.7627 93.1155 76.8285 93.1803C76.8944 93.2451 76.9725 93.2961 77.0583 93.3304C77.1441 93.3647 77.2358 93.3816 77.3282 93.38H87.3251C87.4327 93.38 87.536 93.4228 87.6122 93.4989C87.6883 93.5751 87.7311 93.6783 87.7311 93.786C87.7336 93.8409 87.7249 93.8957 87.7057 93.9471C87.6864 93.9985 87.6569 94.0455 87.6189 94.0852C87.581 94.1249 87.5354 94.1564 87.4849 94.178C87.4343 94.1995 87.38 94.2106 87.3251 94.2106Z" fill="white"/>
</g>
<path d="M77.2898 67.1338H63.0938V68.324H77.2898V67.1338Z" fill="#EF233C"/>
<path opacity="0.2" d="M77.2898 67.1338H63.0938V68.324H77.2898V67.1338Z" fill="white"/>
<path d="M88.7487 67.1338H76.6406V68.324H88.7487V67.1338Z" fill="#EF233C"/>
<path opacity="0.5" d="M88.7487 67.1338H76.6406V68.324H88.7487V67.1338Z" fill="white"/>
<path d="M84.5037 85.7773L85.1741 92.5564H83.5687L81.9609 85.9537L84.5037 85.7773Z" fill="#EEC1BB"/>
<path d="M83.4182 92.1034L85.4667 92.1382C85.5042 92.1391 85.5402 92.1526 85.5688 92.1766C85.5975 92.2007 85.6171 92.2338 85.6245 92.2704L85.9679 93.9432C85.9824 94.0142 85.9683 94.088 85.9288 94.1488C85.8893 94.2096 85.8275 94.2524 85.7567 94.268H85.6987C84.9587 94.2424 84.3067 94.1914 83.3787 94.1752C82.2953 94.1566 82.5667 94.2912 81.2907 94.2888C80.5228 94.2888 80.3975 93.4096 80.7223 93.3724C82.2187 93.21 82.3811 92.7623 82.9658 92.238C83.095 92.1392 83.256 92.0913 83.4182 92.1034Z" fill="#263238"/>
<path opacity="0.1" d="M85.0001 90.7862L84.5037 85.7773L81.9609 85.9537L83.1372 90.7862H85.0001Z" fill="black"/>
<path d="M95.494 70.1475L88.9098 70.3795C88.9098 70.3795 80.0405 73.4813 79.8085 75.8639C79.5533 78.3185 82.5322 89.596 82.5322 89.596H85.1793C85.1793 89.596 84.4485 81.3206 84.1701 78.7871C83.8917 76.2537 93.4014 77.0912 95.0532 74.9313C96.5635 72.95 95.494 70.1475 95.494 70.1475Z" fill="#263238"/>
<path opacity="0.2" d="M95.494 70.1475L88.9098 70.3795C88.9098 70.3795 80.0405 73.4813 79.8085 75.8639C79.5533 78.3185 82.5322 89.596 82.5322 89.596H85.1793C85.1793 89.596 84.4485 81.3206 84.1701 78.7871C83.8917 76.2537 93.4014 77.0912 95.0532 74.9313C96.5635 72.95 95.494 70.1475 95.494 70.1475Z" fill="black"/>
<path d="M85.6193 89.2246L85.6773 90.1596H82.4061L82.0859 89.2246H85.6193Z" fill="#EF233C"/>
<path d="M78.3753 86.0996L78.5516 92.5562H76.974L76.0391 86.0996H78.3753Z" fill="#EEC1BB"/>
<path d="M76.758 92.1035L78.8066 92.1383C78.844 92.1392 78.88 92.1527 78.9087 92.1768C78.9373 92.2008 78.957 92.2339 78.9643 92.2706L79.3077 93.9433C79.3222 94.0143 79.3082 94.0882 79.2687 94.1489C79.2292 94.2097 79.1674 94.2525 79.0966 94.2681H79.0386C78.2985 94.2426 77.6466 94.1915 76.7186 94.1753C75.6328 94.1567 75.9066 94.2913 74.6306 94.289C73.8627 94.289 73.7374 93.4097 74.0622 93.3726C75.5586 93.2102 75.721 92.7624 76.3056 92.2381C76.4346 92.1389 76.5958 92.091 76.758 92.1035Z" fill="#263238"/>
<path opacity="0.1" d="M78.5029 90.7814L78.3753 86.0996H76.0391L76.7188 90.786C77.2269 90.7883 77.9252 90.7837 78.5029 90.7814Z" fill="black"/>
<path d="M92.6312 70.6927C92.6312 70.6927 93.1787 75.6992 88.0863 75.9335C82.9939 76.1679 79.0174 76.7502 78.9014 78.5621C78.7854 80.374 78.9014 89.6053 78.9014 89.6053H76.1336C76.1336 89.6053 75.0572 83.7682 74.6372 80.149C74.2289 76.6342 73.4772 74.0845 77.0895 72.8943C80.9244 71.6276 87.7406 70.4583 87.7406 70.4583L92.6497 70.1475L92.6312 70.6927Z" fill="#263238"/>
<path d="M79.3107 89.2246L79.1367 90.1596H76.0975L75.7773 89.2246H79.3107Z" fill="#EF233C"/>
<path d="M93.7291 56.3293C93.7291 56.3293 93.7291 55.2018 91.4486 55.3317C89.0265 55.4709 89.4835 56.552 89.4835 56.552L93.7291 56.3293Z" fill="#EF233C"/>
<path opacity="0.3" d="M93.7291 56.3293C93.7291 56.3293 93.7291 55.2018 91.4486 55.3317C89.0265 55.4709 89.4835 56.552 89.4835 56.552L93.7291 56.3293Z" fill="black"/>
<path d="M95.8554 61.3866C95.7023 63.6161 95.7557 70.3233 95.7557 70.3233C95.7557 70.3233 90.8837 70.6434 87.0603 70.5181L86.6172 57.6166C86.6189 57.3885 86.6893 57.1662 86.8192 56.9787C86.9492 56.7912 87.1327 56.6473 87.3457 56.5657C88.4268 56.1457 90.9649 55.6701 94.9344 56.1921C96.3032 56.3754 96.0364 58.7511 95.8554 61.3866Z" fill="#EF233C"/>
<path d="M87.3967 61.3012C87.3967 61.3012 85.5036 65.9876 83.6545 66.4934C81.8055 66.9991 79.0145 66.5885 79.0145 66.5885L78.1515 66.8205L77.307 66.6952H77.2768L76.321 66.672C76.2866 66.6749 76.2521 66.6678 76.2216 66.6517C76.191 66.6357 76.1658 66.6112 76.1487 66.5812C76.1316 66.5512 76.1235 66.5169 76.1252 66.4825C76.127 66.448 76.1386 66.4147 76.1586 66.3866L76.502 65.9226C76.5306 65.8845 76.5703 65.8562 76.6156 65.8414L77.5228 65.5491C77.5594 65.5411 77.5974 65.5411 77.6341 65.5491L79.0261 65.7695C79.0261 65.7695 82.8889 65.1362 83.281 64.7789C83.6731 64.4216 84.84 60.6748 84.84 60.6748L87.3967 61.3012Z" fill="#EEC1BB"/>
<path opacity="0.1" d="M87.3511 59.1202C87.3511 59.1202 87.0565 59.4705 86.6992 59.9763L86.8268 63.7115C88.249 63.0828 88.8127 59.4218 88.8127 59.4218L87.8847 58.7676L87.3511 59.1202Z" fill="black"/>
<path d="M88.5406 56.6584C87.1672 56.2083 85.2323 57.2407 84.4922 61.5652L87.3458 62.3981C87.3458 62.3981 90.5033 57.3034 88.5406 56.6584Z" fill="#EF233C"/>
<path d="M90.3569 78.3623H88.2109V84.6518H90.3569V78.3623Z" fill="#263238"/>
<path opacity="0.6" d="M90.3569 78.3623H88.2109V84.6518H90.3569V78.3623Z" fill="white"/>
<path d="M90.6893 90.3495V82.3594H87.8774V90.3495L81.4766 91.238V92.1266L89.2834 91.4607L97.0902 92.1266V91.238L90.6893 90.3495Z" fill="#263238"/>
<path d="M81.382 94.3049C81.8496 94.3049 82.2288 93.9258 82.2288 93.4581C82.2288 92.9905 81.8496 92.6113 81.382 92.6113C80.9143 92.6113 80.5352 92.9905 80.5352 93.4581C80.5352 93.9258 80.9143 94.3049 81.382 94.3049Z" fill="#EF233C"/>
<path d="M97.089 94.3049C97.5567 94.3049 97.9358 93.9258 97.9358 93.4581C97.9358 92.9905 97.5567 92.6113 97.089 92.6113C96.6213 92.6113 96.2422 92.9905 96.2422 93.4581C96.2422 93.9258 96.6213 94.3049 97.089 94.3049Z" fill="#EF233C"/>
<path d="M89.2804 94.3049C89.7481 94.3049 90.1272 93.9258 90.1272 93.4581C90.1272 92.9905 89.7481 92.6113 89.2804 92.6113C88.8127 92.6113 88.4336 92.9905 88.4336 93.4581C88.4336 93.9258 88.8127 94.3049 89.2804 94.3049Z" fill="#EF233C"/>
<path opacity="0.3" d="M90.3569 78.3623H88.2109V79.9167H90.3569V78.3623Z" fill="black"/>
<path d="M97.7642 64.1055H90.7718C90.2221 64.1059 89.6923 64.3114 89.286 64.6816C88.8797 65.0519 88.6261 65.5603 88.5747 66.1076L87.9854 72.425C87.9201 73.1212 87.6063 73.7706 87.1015 74.2546C86.5967 74.7385 85.9346 75.0246 85.2362 75.0605L78.4874 75.3992C78.0924 75.4194 77.7203 75.5906 77.4479 75.8772C77.1755 76.1639 77.0235 76.5442 77.0234 76.9397V77.0812C77.0234 77.4203 77.1581 77.7454 77.3978 77.9851C77.6376 78.2249 77.9627 78.3595 78.3018 78.3595H98.8546L99.9613 66.5275C99.991 66.2211 99.9564 65.9117 99.8595 65.6194C99.7627 65.3271 99.6058 65.0583 99.3989 64.8302C99.192 64.6021 98.9397 64.4198 98.6582 64.295C98.3767 64.1702 98.0722 64.1056 97.7642 64.1055Z" fill="#EF233C"/>
<path opacity="0.3" d="M97.7642 64.1055H90.7718C90.2221 64.1059 89.6923 64.3114 89.286 64.6816C88.8797 65.0519 88.6261 65.5603 88.5747 66.1076L87.9854 72.425C87.9201 73.1212 87.6063 73.7706 87.1015 74.2546C86.5967 74.7385 85.9346 75.0246 85.2362 75.0605L78.4874 75.3992C78.0924 75.4194 77.7203 75.5906 77.4479 75.8772C77.1755 76.1639 77.0235 76.5442 77.0234 76.9397V77.0812C77.0234 77.4203 77.1581 77.7454 77.3978 77.9851C77.6376 78.2249 77.9627 78.3595 78.3018 78.3595H98.8546L99.9613 66.5275C99.991 66.2211 99.9564 65.9117 99.8595 65.6194C99.7627 65.3271 99.6058 65.0583 99.3989 64.8302C99.192 64.6021 98.9397 64.4198 98.6582 64.295C98.3767 64.1702 98.0722 64.1056 97.7642 64.1055Z" fill="white"/>
<path d="M81.7148 71.2236H82.6776V76.2604C82.6776 76.3834 82.6288 76.5014 82.5417 76.5884C82.4547 76.6755 82.3367 76.7244 82.2136 76.7244H82.1788C82.0558 76.7244 81.9378 76.6755 81.8507 76.5884C81.7637 76.5014 81.7148 76.3834 81.7148 76.2604V71.2236Z" fill="#263238"/>
<path opacity="0.2" d="M81.7148 71.2236H82.6776V76.2604C82.6776 76.3834 82.6288 76.5014 82.5417 76.5884C82.4547 76.6755 82.3367 76.7244 82.2136 76.7244H82.1788C82.0558 76.7244 81.9378 76.6755 81.8507 76.5884C81.7637 76.5014 81.7148 76.3834 81.7148 76.2604V71.2236Z" fill="white"/>
<path d="M86.3601 69.7785H84.2188V71.5533H86.3647C86.4851 71.5595 86.6054 71.5411 86.7185 71.4993C86.8315 71.4574 86.9348 71.3931 87.0222 71.3101C87.1095 71.2271 87.1791 71.1271 87.2267 71.0164C87.2742 70.9057 87.2987 70.7864 87.2987 70.6659C87.2987 70.5454 87.2742 70.4261 87.2267 70.3154C87.1791 70.2047 87.1095 70.1048 87.0222 70.0218C86.9348 69.9387 86.8315 69.8744 86.7185 69.8326C86.6054 69.7907 86.4851 69.7723 86.3647 69.7785H86.3601Z" fill="#EF233C"/>
<path opacity="0.5" d="M86.3601 69.7785H84.2188V71.5533H86.3647C86.4851 71.5595 86.6054 71.5411 86.7185 71.4993C86.8315 71.4574 86.9348 71.3931 87.0222 71.3101C87.1095 71.2271 87.1791 71.1271 87.2267 71.0164C87.2742 70.9057 87.2987 70.7864 87.2987 70.6659C87.2987 70.5454 87.2742 70.4261 87.2267 70.3154C87.1791 70.2047 87.1095 70.1048 87.0222 70.0218C86.9348 69.9387 86.8315 69.8744 86.7185 69.8326C86.6054 69.7907 86.4851 69.7723 86.3647 69.7785H86.3601Z" fill="white"/>
<path d="M85.5012 69.7783H78.0006C77.5278 69.7783 77.1445 70.1616 77.1445 70.6344V70.6994C77.1445 71.1722 77.5278 71.5554 78.0006 71.5554H85.5012C85.974 71.5554 86.3573 71.1722 86.3573 70.6994V70.6344C86.3573 70.1616 85.974 69.7783 85.5012 69.7783Z" fill="#EF233C"/>
<path opacity="0.3" d="M85.5012 69.7783H78.0006C77.5278 69.7783 77.1445 70.1616 77.1445 70.6344V70.6994C77.1445 71.1722 77.5278 71.5554 78.0006 71.5554H85.5012C85.974 71.5554 86.3573 71.1722 86.3573 70.6994V70.6344C86.3573 70.1616 85.974 69.7783 85.5012 69.7783Z" fill="white"/>
<path d="M99.3385 78.362H89.0586L90.2047 66.1193C90.2561 65.5721 90.5097 65.0636 90.916 64.6934C91.3223 64.3231 91.852 64.1177 92.4017 64.1172H99.3942C99.7013 64.1175 100.005 64.1818 100.286 64.3061C100.567 64.4303 100.818 64.6118 101.025 64.8388C101.232 65.0659 101.389 65.3335 101.486 65.6247C101.584 65.9159 101.62 66.2242 101.591 66.53L100.591 77.2345C100.559 77.544 100.413 77.8304 100.181 78.0386C99.9499 78.2468 99.6497 78.362 99.3385 78.362Z" fill="#EF233C"/>
<path opacity="0.5" d="M99.3385 78.362H89.0586L90.2047 66.1193C90.2561 65.5721 90.5097 65.0636 90.916 64.6934C91.3223 64.3231 91.852 64.1177 92.4017 64.1172H99.3942C99.7013 64.1175 100.005 64.1818 100.286 64.3061C100.567 64.4303 100.818 64.6118 101.025 64.8388C101.232 65.0659 101.389 65.3335 101.486 65.6247C101.584 65.9159 101.62 66.2242 101.591 66.53L100.591 77.2345C100.559 77.544 100.413 77.8304 100.181 78.0386C99.9499 78.2468 99.6497 78.362 99.3385 78.362Z" fill="white"/>
<path d="M75.3251 94.2106H65.3282C65.1287 94.2109 64.9312 94.1719 64.7468 94.0957C64.5625 94.0196 64.395 93.9079 64.2538 93.767C64.1127 93.6261 64.0007 93.4587 63.9243 93.2745C63.8479 93.0902 63.8086 92.8927 63.8086 92.6933V69.7067C63.8086 69.5073 63.8479 69.3098 63.9243 69.1256C64.0007 68.9413 64.1127 68.774 64.2538 68.633C64.395 68.4921 64.5625 68.3804 64.7468 68.3043C64.9312 68.2282 65.1287 68.1891 65.3282 68.1895H75.3251C75.4328 68.1895 75.536 68.2322 75.6122 68.3084C75.6883 68.3845 75.7311 68.4878 75.7311 68.5955C75.7311 68.7031 75.6883 68.8064 75.6122 68.8825C75.536 68.9587 75.4328 69.0015 75.3251 69.0015H65.3282C65.2358 68.9999 65.1441 69.0168 65.0583 69.0511C64.9725 69.0854 64.8944 69.1364 64.8285 69.2012C64.7627 69.2659 64.7104 69.3432 64.6747 69.4284C64.639 69.5136 64.6206 69.6051 64.6206 69.6975V92.684C64.6206 92.7764 64.639 92.8679 64.6747 92.9531C64.7104 93.0383 64.7627 93.1155 64.8285 93.1803C64.8944 93.2451 64.9725 93.2961 65.0583 93.3304C65.1441 93.3647 65.2358 93.3816 65.3282 93.38H75.3251C75.4328 93.38 75.536 93.4228 75.6122 93.4989C75.6883 93.5751 75.7311 93.6783 75.7311 93.786C75.7336 93.8409 75.7249 93.8957 75.7057 93.9471C75.6864 93.9985 75.6569 94.0455 75.6189 94.0852C75.581 94.1249 75.5354 94.1564 75.4849 94.178C75.4343 94.1995 75.38 94.2106 75.3251 94.2106Z" fill="#263238"/>
<g opacity="0.5">
<path d="M75.3251 94.2106H65.3282C65.1287 94.2109 64.9312 94.1719 64.7468 94.0957C64.5625 94.0196 64.395 93.9079 64.2538 93.767C64.1127 93.6261 64.0007 93.4587 63.9243 93.2745C63.8479 93.0902 63.8086 92.8927 63.8086 92.6933V69.7067C63.8086 69.5073 63.8479 69.3098 63.9243 69.1256C64.0007 68.9413 64.1127 68.774 64.2538 68.633C64.395 68.4921 64.5625 68.3804 64.7468 68.3043C64.9312 68.2282 65.1287 68.1891 65.3282 68.1895H75.3251C75.4328 68.1895 75.536 68.2322 75.6122 68.3084C75.6883 68.3845 75.7311 68.4878 75.7311 68.5955C75.7311 68.7031 75.6883 68.8064 75.6122 68.8825C75.536 68.9587 75.4328 69.0015 75.3251 69.0015H65.3282C65.2358 68.9999 65.1441 69.0168 65.0583 69.0511C64.9725 69.0854 64.8944 69.1364 64.8285 69.2012C64.7627 69.2659 64.7104 69.3432 64.6747 69.4284C64.639 69.5136 64.6206 69.6051 64.6206 69.6975V92.684C64.6206 92.7764 64.639 92.8679 64.6747 92.9531C64.7104 93.0383 64.7627 93.1155 64.8285 93.1803C64.8944 93.2451 64.9725 93.2961 65.0583 93.3304C65.1441 93.3647 65.2358 93.3816 65.3282 93.38H75.3251C75.4328 93.38 75.536 93.4228 75.6122 93.4989C75.6883 93.5751 75.7311 93.6783 75.7311 93.786C75.7336 93.8409 75.7249 93.8957 75.7057 93.9471C75.6864 93.9985 75.6569 94.0455 75.6189 94.0852C75.581 94.1249 75.5354 94.1564 75.4849 94.178C75.4343 94.1995 75.38 94.2106 75.3251 94.2106Z" fill="white"/>
</g>
<path d="M68.7187 56.0947L68.0227 55.6307C68.0049 55.6193 67.9903 55.6037 67.9802 55.5853C67.9701 55.5668 67.9648 55.5461 67.9648 55.5251C67.9648 55.5041 67.9701 55.4834 67.9802 55.4649C67.9903 55.4465 68.0049 55.4309 68.0227 55.4196L68.7187 54.9556C68.7442 54.9388 68.7754 54.9328 68.8054 54.9388C68.8354 54.9449 68.8617 54.9626 68.8787 54.988C68.8948 55.0134 68.9004 55.044 68.8943 55.0735C68.8883 55.1029 68.871 55.1288 68.8462 55.1458L68.2686 55.5286L68.8462 55.9114C68.871 55.9284 68.8883 55.9543 68.8943 55.9837C68.9004 56.0131 68.8948 56.0438 68.8787 56.0691C68.8603 56.093 68.8335 56.1089 68.8037 56.1136C68.774 56.1184 68.7436 56.1116 68.7187 56.0947Z" fill="white"/>
<path d="M70.2561 56.0621C70.2422 56.0367 70.2386 56.0069 70.2459 55.9789C70.2532 55.9509 70.271 55.9267 70.2955 55.9113L70.8732 55.5285L70.2955 55.1388C70.2706 55.1218 70.2535 55.0957 70.2478 55.0661C70.2422 55.0366 70.2485 55.006 70.2654 54.981C70.2736 54.9685 70.2842 54.9577 70.2965 54.9493C70.3089 54.9409 70.3228 54.935 70.3375 54.932C70.3522 54.929 70.3673 54.9289 70.382 54.9317C70.3966 54.9346 70.4106 54.9403 70.4231 54.9485L71.1191 55.4125C71.1368 55.4239 71.1514 55.4395 71.1615 55.4579C71.1716 55.4764 71.1769 55.4971 71.1769 55.5181C71.1769 55.5391 71.1716 55.5598 71.1615 55.5783C71.1514 55.5967 71.1368 55.6123 71.1191 55.6237L70.4231 56.0877C70.4107 56.0974 70.3963 56.1045 70.381 56.1085C70.3657 56.1126 70.3497 56.1134 70.3341 56.111C70.3184 56.1086 70.3034 56.103 70.29 56.0946C70.2766 56.0862 70.2651 56.0752 70.2561 56.0621Z" fill="white"/>
<path d="M69.3025 56.3757C69.2881 56.3712 69.2748 56.3639 69.2633 56.3542C69.2517 56.3445 69.2422 56.3327 69.2353 56.3193C69.2284 56.3059 69.2242 56.2913 69.223 56.2763C69.2218 56.2613 69.2236 56.2462 69.2283 56.2318L69.7085 54.7146C69.7127 54.7003 69.7198 54.687 69.7292 54.6755C69.7387 54.6639 69.7504 54.6544 69.7636 54.6475C69.7768 54.6406 69.7912 54.6364 69.8061 54.6351C69.8209 54.6339 69.8359 54.6357 69.85 54.6403C69.8643 54.6445 69.8776 54.6516 69.8891 54.6611C69.9007 54.6705 69.9102 54.6822 69.9171 54.6954C69.924 54.7086 69.9282 54.723 69.9294 54.7379C69.9307 54.7527 69.9289 54.7677 69.9243 54.7818L69.4464 56.3014C69.4419 56.3158 69.4346 56.3292 69.4249 56.3407C69.4152 56.3522 69.4033 56.3617 69.39 56.3686C69.3766 56.3755 69.362 56.3797 69.3469 56.3809C69.3319 56.3821 69.3168 56.3804 69.3025 56.3757Z" fill="white"/>
<path d="M73.242 57.5352H68.0754C68.0596 57.5352 68.0441 57.5321 68.0295 57.526C68.015 57.5199 68.0019 57.511 67.9909 57.4998C67.9799 57.4885 67.9712 57.4752 67.9654 57.4606C67.9596 57.446 67.9567 57.4303 67.9571 57.4146C67.9567 57.3989 67.9596 57.3832 67.9654 57.3686C67.9712 57.354 67.9799 57.3407 67.9909 57.3294C68.0019 57.3182 68.015 57.3093 68.0295 57.3032C68.0441 57.2971 68.0596 57.2939 68.0754 57.2939H73.242C73.274 57.2939 73.3047 57.3067 73.3273 57.3293C73.3499 57.3519 73.3627 57.3826 73.3627 57.4146C73.3627 57.4304 73.3595 57.4461 73.3535 57.4608C73.3474 57.4754 73.3385 57.4887 73.3273 57.4999C73.3161 57.5111 73.3028 57.52 73.2882 57.526C73.2735 57.5321 73.2579 57.5352 73.242 57.5352Z" fill="white"/>
<path d="M79.1802 57.5357H74.0113C73.9954 57.5357 73.9797 57.5326 73.9651 57.5265C73.9505 57.5205 73.9372 57.5116 73.926 57.5004C73.9148 57.4892 73.9059 57.4759 73.8998 57.4612C73.8937 57.4466 73.8906 57.4309 73.8906 57.4151C73.893 57.3847 73.9067 57.3564 73.9291 57.3357C73.9515 57.315 73.9808 57.3036 74.0113 57.3037H79.1756C79.2076 57.3037 79.2383 57.3164 79.2609 57.339C79.2835 57.3617 79.2962 57.3924 79.2962 57.4244C79.294 57.4539 79.2809 57.4816 79.2595 57.5022C79.2381 57.5227 79.2099 57.5347 79.1802 57.5357Z" fill="white"/>
<path d="M71.0287 58.5983H68.0754C68.0596 58.5983 68.0441 58.5952 68.0295 58.5891C68.015 58.583 68.0019 58.5741 67.9909 58.5629C67.9799 58.5516 67.9712 58.5383 67.9654 58.5237C67.9596 58.5091 67.9567 58.4934 67.9571 58.4777C67.9571 58.4463 67.9695 58.4162 67.9917 58.394C68.0139 58.3718 68.044 58.3594 68.0754 58.3594H71.0287C71.0603 58.3594 71.0907 58.3718 71.1132 58.3939C71.1358 58.416 71.1488 58.4461 71.1494 58.4777C71.1494 58.5097 71.1367 58.5404 71.114 58.563C71.0914 58.5856 71.0607 58.5983 71.0287 58.5983Z" fill="white"/>
<path d="M76.6352 58.5983H71.798C71.7823 58.5983 71.7667 58.5952 71.7522 58.5891C71.7377 58.583 71.7246 58.5741 71.7135 58.5629C71.7025 58.5516 71.6939 58.5383 71.688 58.5237C71.6822 58.5091 71.6794 58.4934 71.6797 58.4777C71.6797 58.4463 71.6922 58.4162 71.7144 58.394C71.7366 58.3718 71.7667 58.3594 71.798 58.3594H76.6352C76.6666 58.3594 76.6967 58.3718 76.7189 58.394C76.7411 58.4162 76.7535 58.4463 76.7535 58.4777C76.7539 58.4934 76.751 58.5091 76.7452 58.5237C76.7394 58.5383 76.7307 58.5516 76.7197 58.5629C76.7087 58.5741 76.6956 58.583 76.6811 58.5891C76.6665 58.5952 76.651 58.5983 76.6352 58.5983Z" fill="white"/>
<path d="M75.9448 59.6632H68.0754C68.0438 59.6625 68.0137 59.6496 67.9916 59.627C67.9694 59.6044 67.957 59.5741 67.9571 59.5425C67.9567 59.5268 67.9596 59.5111 67.9654 59.4965C67.9712 59.4819 67.9799 59.4686 67.9909 59.4573C68.0019 59.4461 68.015 59.4372 68.0295 59.4311C68.0441 59.425 68.0596 59.4219 68.0754 59.4219H75.9448C75.9768 59.4219 76.0075 59.4346 76.0301 59.4572C76.0527 59.4798 76.0654 59.5105 76.0654 59.5425C76.0654 59.5745 76.0527 59.6052 76.0301 59.6278C76.0075 59.6504 75.9768 59.6632 75.9448 59.6632Z" fill="white"/>
<path d="M78.3609 59.6632H76.7183C76.6863 59.6632 76.6556 59.6504 76.633 59.6278C76.6104 59.6052 76.5977 59.5745 76.5977 59.5425C76.5977 59.5105 76.6104 59.4798 76.633 59.4572C76.6556 59.4346 76.6863 59.4219 76.7183 59.4219H78.3609C78.3929 59.4219 78.4235 59.4346 78.4462 59.4572C78.4688 59.4798 78.4815 59.5105 78.4815 59.5425C78.4815 59.5745 78.4688 59.6052 78.4462 59.6278C78.4235 59.6504 78.3929 59.6632 78.3609 59.6632Z" fill="white"/>
<path d="M71.7502 60.7257H68.0754C68.0596 60.7257 68.0441 60.7225 68.0295 60.7164C68.015 60.7103 68.0019 60.7014 67.9909 60.6902C67.9799 60.679 67.9712 60.6656 67.9654 60.651C67.9596 60.6364 67.9567 60.6208 67.9571 60.605C67.9567 60.5893 67.9596 60.5737 67.9654 60.559C67.9712 60.5444 67.9799 60.5311 67.9909 60.5198C68.0019 60.5086 68.015 60.4997 68.0295 60.4936C68.0441 60.4875 68.0596 60.4844 68.0754 60.4844H71.7502C71.7822 60.4844 71.8129 60.4971 71.8356 60.5197C71.8582 60.5423 71.8709 60.573 71.8709 60.605C71.8709 60.637 71.8582 60.6677 71.8356 60.6903C71.8129 60.7129 71.7822 60.7257 71.7502 60.7257Z" fill="white"/>
<path d="M77.0957 60.7257H72.523C72.491 60.7257 72.4603 60.7129 72.4377 60.6903C72.415 60.6677 72.4023 60.637 72.4023 60.605C72.4023 60.573 72.415 60.5423 72.4377 60.5197C72.4603 60.4971 72.491 60.4844 72.523 60.4844H77.0957C77.1277 60.4844 77.1584 60.4971 77.181 60.5197C77.2036 60.5423 77.2163 60.573 77.2163 60.605C77.2163 60.637 77.2036 60.6677 77.181 60.6903C77.1584 60.7129 77.1277 60.7257 77.0957 60.7257Z" fill="white"/>
<path d="M73.242 61.7878H68.0754C68.0596 61.7878 68.0441 61.7847 68.0295 61.7786C68.015 61.7725 68.0019 61.7636 67.9909 61.7523C67.9799 61.7411 67.9712 61.7278 67.9654 61.7132C67.9596 61.6985 67.9567 61.6829 67.9571 61.6672C67.9571 61.6358 67.9695 61.6057 67.9917 61.5835C68.0139 61.5613 68.044 61.5489 68.0754 61.5489H73.242C73.2577 61.5485 73.2734 61.5514 73.288 61.5572C73.3026 61.563 73.3159 61.5717 73.3272 61.5827C73.3384 61.5937 73.3473 61.6068 73.3534 61.6214C73.3595 61.6359 73.3627 61.6514 73.3627 61.6672C73.3627 61.6992 73.3499 61.7299 73.3273 61.7525C73.3047 61.7751 73.274 61.7878 73.242 61.7878Z" fill="white"/>
<path d="M77.6606 61.7878H74.0113C73.9793 61.7878 73.9486 61.7751 73.926 61.7525C73.9033 61.7299 73.8906 61.6992 73.8906 61.6672C73.8906 61.6514 73.8938 61.6359 73.8998 61.6214C73.9059 61.6068 73.9149 61.5937 73.9261 61.5827C73.9373 61.5717 73.9506 61.563 73.9653 61.5572C73.9799 61.5514 73.9955 61.5485 74.0113 61.5489H77.656C77.6874 61.5489 77.7175 61.5613 77.7396 61.5835C77.7618 61.6057 77.7743 61.6358 77.7743 61.6672C77.7749 61.6982 77.7634 61.7282 77.7421 61.7507C77.7209 61.7733 77.6916 61.7866 77.6606 61.7878Z" fill="white"/>
<path d="M32.8206 41.0225C32.9157 42.1152 32.6791 44.0941 31.8555 44.7345C33.1987 45.2193 34.6232 46.0545 35.5327 47.1565C36.4352 45.8434 35.4097 45.0941 35.4097 45.0941C34.2497 44.6811 34.3727 43.8018 34.6719 42.9921L32.8206 41.0225Z" fill="#B97964"/>
<path d="M37.2128 40.0802C37.1989 40.2171 37.2639 40.3354 37.3543 40.3447C37.4448 40.354 37.526 40.2473 37.5399 40.1127C37.5539 39.9781 37.4889 39.8575 37.3984 39.8482C37.3079 39.839 37.2291 39.9434 37.2128 40.0802Z" fill="#263238"/>
<path d="M37.3633 39.8501L37.6997 39.7852C37.6997 39.7852 37.5071 40.0334 37.3633 39.8501Z" fill="#263238"/>
<path d="M37.2584 40.2266C37.3532 40.5529 37.4913 40.865 37.6691 41.1546C37.5939 41.1981 37.5101 41.2247 37.4236 41.2328C37.3371 41.2408 37.2499 41.2299 37.168 41.201L37.2584 40.2266Z" fill="#A24E3F"/>
<path d="M37.6006 39.3589C37.6221 39.3555 37.6417 39.3449 37.6563 39.3288C37.6707 39.3133 37.6786 39.293 37.6786 39.2719C37.6786 39.2509 37.6707 39.2305 37.6563 39.2151C37.5609 39.128 37.4461 39.0651 37.3213 39.0315C37.1966 38.998 37.0656 38.9949 36.9394 39.0225C36.9217 39.0348 36.9092 39.0533 36.9044 39.0744C36.8997 39.0955 36.9031 39.1175 36.9139 39.1362C36.921 39.1481 36.9313 39.1579 36.9436 39.1644C36.9558 39.171 36.9696 39.1741 36.9835 39.1733C37.0838 39.1542 37.1872 39.1586 37.2855 39.1864C37.3838 39.2142 37.4742 39.2645 37.5496 39.3334C37.5631 39.3477 37.5811 39.3567 37.6006 39.3589Z" fill="#263238"/>
<path d="M32.7118 39.208C32.6584 40.9039 32.6004 41.6254 33.3567 42.572C34.4958 43.9942 36.5583 43.6833 37.1105 42.0314C37.607 40.5443 37.6116 38.0109 36.0502 37.1896C34.4889 36.3683 32.7605 37.5074 32.7118 39.208Z" fill="#B97964"/>
<path d="M32.7843 42.4117C31.1162 42.1263 31.5941 41.0754 31.5941 41.0754C29.9516 40.7436 31.2206 39.9409 31.2206 39.9409C29.8541 39.3516 31.2206 38.8226 31.2206 38.8226C29.9028 37.7299 31.782 37.3518 31.782 37.3518C31.318 35.6466 32.942 36.3472 32.942 36.3472C33.8236 34.8809 34.5846 36.2799 34.5846 36.2799C36.1297 34.1919 36.5056 35.9528 36.5056 35.9528C38.0855 35.5375 37.48 37.1986 37.48 37.1986C38.7792 37.5466 37.7584 38.2055 37.7584 38.2055C38.2595 38.8389 36.4476 38.9479 36.4476 38.9479C36.4476 38.9479 37.3106 40.3399 36.4476 40.7227L34.2528 42.4047C34.2528 42.4047 33.239 41.9917 32.7843 42.4117Z" fill="#263238"/>
<path d="M34.4258 41.0429C34.4258 41.0429 35.5858 38.2589 34.6787 35.8833L35.4443 35.6211C35.4443 35.6211 36.4442 39.0756 34.4258 41.0429Z" fill="#EF233C"/>
<path d="M35.5838 40.7366C35.774 41.1356 35.8483 41.3096 36.122 41.4326C36.2066 41.4811 36.3035 41.5036 36.4008 41.4974C36.4981 41.4912 36.5914 41.4565 36.669 41.3976C36.7467 41.3387 36.8054 41.2583 36.8376 41.1663C36.8699 41.0744 36.8744 40.9749 36.8505 40.8804C36.7786 40.4814 36.4724 39.8944 36.0478 39.8828C35.9485 39.8833 35.8512 39.9105 35.766 39.9614C35.6808 40.0124 35.6108 40.0853 35.5634 40.1725C35.516 40.2597 35.4929 40.3581 35.4965 40.4573C35.5 40.5566 35.5302 40.653 35.5838 40.7366Z" fill="#B97964"/>
<path d="M34.3827 46.5317C34.3827 46.5317 35.9533 47.6917 36.5913 48.1557L41.1362 46.012C41.1298 45.7601 41.1994 45.512 41.3359 45.3001C41.4725 45.0883 41.6696 44.9224 41.9018 44.8242L42.2266 44.6896L42.911 44.3834C43.0385 44.3264 43.1788 44.3042 43.3178 44.3188C43.4567 44.3335 43.5893 44.3846 43.7021 44.4669C43.8346 44.5635 43.9341 44.6988 43.9868 44.8541C44.0396 45.0094 44.043 45.1772 43.9967 45.3346C43.9013 45.6608 43.7229 45.9567 43.4789 46.1934C43.2349 46.4301 42.9337 46.5994 42.6047 46.6848L41.9412 46.8588C41.9412 46.8588 38.0459 49.8099 36.6539 49.8795C35.2619 49.9491 33.2227 48.5826 33.2227 48.5826L34.3827 46.5317Z" fill="#B97964"/>
<path d="M30.6076 44.5762C31.807 44.5762 33.148 45.3232 35.2476 46.692C34.946 47.6787 34.3852 48.5665 33.6236 49.2626C33.6236 49.2626 32.4636 48.9517 30.9231 47.5017C29.0671 45.7455 29.8721 44.5785 30.6076 44.5762Z" fill="#263238"/>
<path d="M53.3899 48.0514H42.0219C41.9262 48.0529 41.8314 48.0341 41.7436 47.9962C41.6557 47.9584 41.577 47.9022 41.5125 47.8316C41.448 47.761 41.3993 47.6774 41.3695 47.5865C41.3397 47.4957 41.3296 47.3995 41.3398 47.3044L42.1959 37.5186C42.2163 37.3163 42.3102 37.1285 42.4599 36.9908C42.6096 36.8531 42.8045 36.7751 43.0079 36.7716H54.3759C54.4714 36.77 54.5662 36.7888 54.6539 36.8267C54.7416 36.8646 54.8203 36.9208 54.8846 36.9915C54.9489 37.0622 54.9974 37.1457 55.0269 37.2366C55.0564 37.3275 55.0662 37.4236 55.0556 37.5186L54.1995 47.3044C54.1792 47.5063 54.0856 47.6938 53.9364 47.8315C53.7872 47.9691 53.5928 48.0473 53.3899 48.0514Z" fill="#EF233C"/>
<path opacity="0.4" d="M53.3899 48.0514H42.0219C41.9262 48.0529 41.8314 48.0341 41.7436 47.9962C41.6557 47.9584 41.577 47.9022 41.5125 47.8316C41.448 47.761 41.3993 47.6774 41.3695 47.5865C41.3397 47.4957 41.3296 47.3995 41.3398 47.3044L42.1959 37.5186C42.2163 37.3163 42.3102 37.1285 42.4599 36.9908C42.6096 36.8531 42.8045 36.7751 43.0079 36.7716H54.3759C54.4714 36.77 54.5662 36.7888 54.6539 36.8267C54.7416 36.8646 54.8203 36.9208 54.8846 36.9915C54.9489 37.0622 54.9974 37.1457 55.0269 37.2366C55.0564 37.3275 55.0662 37.4236 55.0556 37.5186L54.1995 47.3044C54.1792 47.5063 54.0856 47.6938 53.9364 47.8315C53.7872 47.9691 53.5928 48.0473 53.3899 48.0514Z" fill="white"/>
<path opacity="0.7" d="M53.4317 47.5872C53.5086 47.5859 53.5823 47.5563 53.6388 47.5041C53.6953 47.4519 53.7306 47.3807 53.738 47.3042L54.5941 37.5184C54.598 37.4824 54.5943 37.446 54.5831 37.4116C54.5719 37.3772 54.5535 37.3456 54.5291 37.3188C54.5048 37.292 54.475 37.2708 54.4418 37.2564C54.4086 37.242 54.3727 37.2348 54.3365 37.2354H42.9685C42.8914 37.2367 42.8174 37.2662 42.7605 37.3183C42.7037 37.3705 42.6679 37.4417 42.66 37.5184L41.8062 47.3042C41.8023 47.3402 41.806 47.3766 41.8172 47.411C41.8284 47.4454 41.8468 47.477 41.8711 47.5038C41.8955 47.5306 41.9252 47.5518 41.9585 47.5662C41.9917 47.5806 42.0275 47.5878 42.0637 47.5872H53.4317Z" fill="white"/>
<path d="M45.5299 41.834L41.8179 47.2071V47.3045C41.814 47.3405 41.8177 47.3769 41.8289 47.4113C41.8401 47.4457 41.8585 47.4774 41.8828 47.5042C41.9072 47.5309 41.937 47.5522 41.9702 47.5666C42.0034 47.581 42.0393 47.5881 42.0755 47.5876H48.5158L45.5299 41.834Z" fill="#EF233C"/>
<path opacity="0.3" d="M45.5299 41.834L41.8179 47.2071V47.3045C41.814 47.3405 41.8177 47.3769 41.8289 47.4113C41.8401 47.4457 41.8585 47.4774 41.8828 47.5042C41.9072 47.5309 41.937 47.5522 41.9702 47.5666C42.0034 47.581 42.0393 47.5881 42.0755 47.5876H48.5158L45.5299 41.834Z" fill="white"/>
<path d="M53.7694 46.9315L50.6583 41.0225L46.0508 47.5881H53.4307C53.5076 47.5867 53.5813 47.5571 53.6378 47.5049C53.6943 47.4527 53.7295 47.3816 53.7369 47.305L53.7694 46.9315Z" fill="#EF233C"/>
<path d="M49.4568 39.9781C49.4285 40.2609 49.2973 40.5234 49.0881 40.7159C48.879 40.9083 48.6065 41.0173 48.3224 41.0221C48.1886 41.0246 48.0559 40.9985 47.933 40.9456C47.8101 40.8928 47.6999 40.8143 47.6097 40.7156C47.5195 40.6168 47.4514 40.5 47.4098 40.3728C47.3683 40.2456 47.3543 40.1111 47.3688 39.9781C47.3967 39.6949 47.5277 39.4318 47.7368 39.2389C47.946 39.046 48.2188 38.9367 48.5033 38.9318C48.6373 38.9293 48.7702 38.9555 48.8933 39.0084C49.0164 39.0614 49.1267 39.1401 49.2169 39.2391C49.3072 39.3381 49.3753 39.4553 49.4166 39.5827C49.458 39.7102 49.4717 39.845 49.4568 39.9781Z" fill="#EF233C"/>
<path opacity="0.4" d="M49.4568 39.9781C49.4285 40.2609 49.2973 40.5234 49.0881 40.7159C48.879 40.9083 48.6065 41.0173 48.3224 41.0221C48.1886 41.0246 48.0559 40.9985 47.933 40.9456C47.8101 40.8928 47.6999 40.8143 47.6097 40.7156C47.5195 40.6168 47.4514 40.5 47.4098 40.3728C47.3683 40.2456 47.3543 40.1111 47.3688 39.9781C47.3967 39.6949 47.5277 39.4318 47.7368 39.2389C47.946 39.046 48.2188 38.9367 48.5033 38.9318C48.6373 38.9293 48.7702 38.9555 48.8933 39.0084C49.0164 39.0614 49.1267 39.1401 49.2169 39.2391C49.3072 39.3381 49.3753 39.4553 49.4166 39.5827C49.458 39.7102 49.4717 39.845 49.4568 39.9781Z" fill="white"/>
<path d="M21.089 87.5498L19.9336 90.9741L21.7038 91.698L23.0888 88.5381L21.089 87.5498Z" fill="#B97964"/>
<path d="M22.3366 91.6124C22.3275 91.6069 22.3201 91.599 22.3152 91.5896C22.3103 91.5802 22.308 91.5696 22.3087 91.559C22.31 91.5488 22.3145 91.5392 22.3216 91.5317C22.3287 91.5242 22.338 91.5192 22.3482 91.5173C22.3853 91.5173 23.2205 91.3224 23.5314 91.5173C23.5901 91.5532 23.6326 91.6106 23.6497 91.6774C23.6627 91.7145 23.6638 91.7547 23.653 91.7925C23.6422 91.8303 23.62 91.8638 23.5894 91.8885C23.471 91.972 23.195 91.9372 22.9421 91.8583C22.7336 91.7938 22.531 91.7115 22.3366 91.6124ZM22.5129 91.5962C22.8771 91.7586 23.3922 91.914 23.5267 91.8119C23.5453 91.798 23.5685 91.7748 23.5499 91.7029C23.5463 91.6818 23.5377 91.662 23.5248 91.645C23.5118 91.6281 23.495 91.6145 23.4757 91.6054C23.4483 91.5881 23.4186 91.5749 23.3875 91.566C23.0967 91.5205 22.7999 91.5307 22.5129 91.5962Z" fill="#EF233C"/>
<path d="M22.3115 91.6007C22.307 91.593 22.3047 91.5842 22.3047 91.5752C22.3047 91.5663 22.307 91.5575 22.3115 91.5497C22.3115 91.5265 22.5435 90.9929 22.8706 90.8537C22.9173 90.8342 22.9674 90.8242 23.018 90.8242C23.0685 90.8242 23.1186 90.8342 23.1653 90.8537C23.2929 90.9071 23.3138 90.9883 23.3022 91.0439C23.2743 91.2875 22.6479 91.5775 22.3742 91.61C22.3709 91.6117 22.3674 91.6125 22.3637 91.6125C22.3601 91.6125 22.3565 91.6117 22.3533 91.61C22.3461 91.6121 22.3385 91.6124 22.3312 91.6108C22.3239 91.6092 22.3171 91.6057 22.3115 91.6007ZM23.098 90.9442C23.0381 90.9222 22.9723 90.9222 22.9124 90.9442C22.7059 91.0724 22.5439 91.2612 22.4484 91.4847C22.7477 91.4128 23.1746 91.1669 23.2047 91.0207C23.2047 91.0068 23.2047 90.9697 23.1258 90.9372H23.098V90.9442Z" fill="#EF233C"/>
<path d="M22.2172 91.2619L19.9946 90.5659C19.9539 90.5534 19.9102 90.5551 19.8706 90.5707C19.831 90.5863 19.7978 90.6149 19.7766 90.6518L18.8161 92.3361C18.7953 92.3715 18.7818 92.4107 18.7763 92.4514C18.7707 92.4921 18.7733 92.5335 18.7839 92.5732C18.7945 92.6129 18.8128 92.6501 18.8378 92.6827C18.8629 92.7153 18.8941 92.7425 18.9298 92.763C18.9487 92.7746 18.969 92.7839 18.9901 92.7908C19.7951 93.0228 20.5213 93.1991 21.5189 93.51C22.6974 93.8719 22.3541 93.9206 23.7322 94.3684C24.5627 94.6375 25.0082 93.735 24.6602 93.5796C23.1034 92.8836 23.0872 92.3361 22.6418 91.5635C22.541 91.4153 22.3903 91.3083 22.2172 91.2619Z" fill="#263238"/>
<path opacity="0.2" d="M20.5312 89.1924L22.3872 90.1296L23.0856 88.5381L21.0857 87.5498L20.5312 89.1924Z" fill="#263238"/>
<path d="M28.9328 55.877C28.9328 55.877 26.4388 57.7817 26.9724 63.7487C27.0235 64.3009 27.2044 64.8786 27.2044 65.5096C27.2044 65.9295 27.0884 66.2241 26.9515 67.1684C26.752 68.5418 26.3855 73.6644 25.998 74.3302C25.6106 74.9961 25.4528 74.8778 24.374 76.7152C23.214 78.6918 21.706 82.1579 20.5391 88.0322C21.3183 88.5821 22.2083 88.9551 23.1467 89.1249C23.1467 89.1249 29.5198 79.0746 30.8747 75.3325C32.088 71.9847 33.5334 61.3011 33.5334 61.3011L33.6494 56.6611L28.9328 55.877Z" fill="#EF233C"/>
<path opacity="0.1" d="M31.6628 63.749H29.8579C29.8579 63.749 29.2639 69.4284 31.2267 74.1658C31.4308 73.4049 31.6373 72.4931 31.8391 71.5071L32.621 66.5052C32.5096 65.6607 32.4238 65.0157 32.4099 64.974C32.3704 64.8417 31.6628 63.749 31.6628 63.749Z" fill="black"/>
<path d="M31.3633 88.9277L31.3749 92.5678L33.4281 92.4309L33.7436 88.9277H31.3633Z" fill="#B97964"/>
<path d="M33.668 92.3681C33.6578 92.3668 33.6482 92.3623 33.6407 92.3552C33.6332 92.3481 33.6282 92.3388 33.6263 92.3287C33.6239 92.3185 33.6249 92.3078 33.629 92.2982C33.6332 92.2886 33.6404 92.2805 33.6495 92.2753C33.682 92.2568 34.4081 91.8113 34.7677 91.8902C34.8347 91.9052 34.8936 91.945 34.9324 92.0016C34.9564 92.0328 34.9704 92.0706 34.9724 92.11C34.9745 92.1493 34.9646 92.1884 34.944 92.222C34.7656 92.3558 34.5448 92.4209 34.3223 92.4053C34.1035 92.4126 33.8846 92.4002 33.668 92.3681ZM33.8304 92.2962C34.2272 92.331 34.7584 92.3078 34.8582 92.1663C34.8721 92.1477 34.8837 92.1176 34.8443 92.0549C34.8335 92.0367 34.8187 92.0212 34.801 92.0095C34.7833 91.9978 34.7632 91.9904 34.7422 91.9877C34.7107 91.983 34.6786 91.983 34.6471 91.9877C34.3573 92.0362 34.0799 92.141 33.8304 92.2962Z" fill="#EF233C"/>
<path d="M33.6388 92.3686C33.631 92.3636 33.6246 92.3567 33.6202 92.3486C33.6157 92.3405 33.6133 92.3314 33.6133 92.3222C33.6133 92.2967 33.6527 91.719 33.9149 91.487C33.9522 91.4527 33.9962 91.4264 34.0441 91.4096C34.0919 91.3929 34.1427 91.3861 34.1933 91.3896C34.3325 91.3896 34.3789 91.4684 34.3858 91.5264C34.4392 91.7584 33.945 92.2433 33.6898 92.3663C33.6831 92.3686 33.6757 92.3686 33.669 92.3663C33.6595 92.3706 33.6488 92.3714 33.6388 92.3686ZM34.1631 91.487C34.0993 91.4883 34.0382 91.5131 33.9914 91.5566C33.8384 91.7457 33.7477 91.9774 33.7316 92.2201C33.9891 92.0554 34.3116 91.6819 34.293 91.538C34.293 91.5241 34.2814 91.487 34.191 91.4824H34.1631V91.487Z" fill="#EF233C"/>
<path d="M33.4406 92.0787L31.1206 92.1622C31.0782 92.1641 31.0377 92.1802 31.0057 92.208C30.9737 92.2358 30.9521 92.2736 30.9442 92.3153L30.5916 94.2223C30.5759 94.3033 30.5931 94.3871 30.6392 94.4554C30.6853 94.5237 30.7566 94.5709 30.8375 94.5866C30.8599 94.5889 30.8824 94.5889 30.9048 94.5866C31.7423 94.5402 32.4847 94.4683 33.5287 94.4335C34.7606 94.3894 34.4567 94.5471 35.9021 94.517C36.7767 94.4961 36.8997 93.4985 36.5285 93.4637C34.8279 93.3106 34.633 92.8048 33.9579 92.2225C33.8093 92.1121 33.6249 92.0608 33.4406 92.0787Z" fill="#263238"/>
<path opacity="0.2" d="M31.3702 90.8116L33.5789 90.7652L33.7436 88.9277H31.3633L31.3702 90.8116Z" fill="#263238"/>
<path d="M30.3215 55.2158C30.3215 55.2158 27.8322 58.5125 29.6766 64.9598L31.7646 74.3767C31.7646 74.3767 29.7833 78.6594 30.8366 89.9578C31.8575 90.1012 32.8949 90.0777 33.9082 89.8882C33.9082 89.8882 36.2282 77.9565 36.5786 73.9266C36.966 69.4861 36.734 56.1021 36.734 56.1021L30.3215 55.2158Z" fill="#EF233C"/>
<path d="M31.8264 44.5297C31.8264 44.5297 31.4413 42.8825 33.9144 43.6017C36.3875 44.3209 36.1787 45.7291 36.1787 45.7291L31.8264 44.5297Z" fill="#263238"/>
<path opacity="0.4" d="M31.8264 44.5297C31.8264 44.5297 31.4413 42.8825 33.9144 43.6017C36.3875 44.3209 36.1787 45.7291 36.1787 45.7291L31.8264 44.5297Z" fill="black"/>
<path d="M37.9609 48.6499C37.9609 49.2276 37.7289 50.0628 37.4969 50.9977C37.3902 51.4408 37.2927 51.9025 37.2278 52.3712C36.8774 54.9232 36.7638 57.612 36.7638 57.612C35.3985 57.9098 33.9865 57.9232 32.6158 57.6514C31.2452 57.3796 29.9452 56.8284 28.7969 56.0321C28.7969 56.0321 29.769 55.2085 29.5694 49.5036C29.479 46.9331 28.551 43.8776 32.7989 44.3579C36.3856 44.7639 37.592 45.8775 37.882 47.6198C37.882 47.6407 37.882 47.6639 37.882 47.6871L37.9029 47.8495C37.938 48.1149 37.9573 48.3822 37.9609 48.6499Z" fill="#263238"/>
<path opacity="0.4" d="M37.9605 48.6499C37.9605 49.2276 37.7285 50.0628 37.4965 50.9978C36.5268 49.8378 35.5547 47.6454 35.5547 47.6454L36.3551 46.4668L37.7656 47.1234C37.8144 47.2863 37.8531 47.4521 37.8816 47.6198C37.8816 47.6407 37.8816 47.6639 37.8816 47.6871L37.9025 47.8495C37.9376 48.1149 37.957 48.3822 37.9605 48.6499Z" fill="black"/>
<path d="M39.4397 47.6428C39.4397 47.6428 40.8317 49.0162 41.3816 49.5684L46.1933 48.1254C46.2248 47.8766 46.3301 47.6429 46.4954 47.4544C46.6608 47.2659 46.8787 47.1311 47.1213 47.0674L47.46 46.9793L48.1838 46.7797C48.3187 46.7433 48.4607 46.7427 48.5958 46.7781C48.731 46.8135 48.8545 46.8837 48.9541 46.9816C49.0707 47.0965 49.149 47.2447 49.178 47.4059C49.2071 47.5671 49.1856 47.7333 49.1165 47.8817C48.9732 48.1901 48.7527 48.4562 48.4763 48.6541C48.1998 48.8521 47.8769 48.9752 47.5389 49.0116L46.8568 49.0835C46.8568 49.0835 42.5625 51.429 41.1797 51.2991C39.797 51.1692 37.9805 49.5057 37.9805 49.5057L39.4397 47.6428Z" fill="#B97964"/>
<path d="M35.9801 45.1442C37.1679 45.3182 38.3813 46.2625 40.2651 47.9282C39.8188 48.8599 39.1306 49.6548 38.2722 50.2297C38.2722 50.2297 37.1749 49.7494 35.8664 48.086C34.2841 46.0722 35.2609 45.0375 35.9801 45.1442Z" fill="#263238"/>
</svg>
