<svg width="116" height="116" viewBox="0 0 116 116" fill="none" xmlns="http://www.w3.org/2000/svg">
<path d="M105.938 36.7626C105.448 36.0573 104.92 35.3721 104.354 34.707C98.5537 27.8932 91.0555 21.947 83.7823 16.727C73.3539 9.25663 60.1391 1.75607 46.7458 3.32903C19.8083 6.49583 -0.563661 58.2156 4.48698 69.6926C9.53762 81.1697 29.9095 110.276 51.293 112.613C72.6764 114.949 100.79 86.6588 105.671 75.6805C108.495 69.333 110.824 62.6445 111.096 55.6543C111.36 49.0052 109.787 42.2934 105.938 36.7626Z" fill="#EF233C"/>
<path opacity="0.7" d="M105.938 36.7626C105.448 36.0573 104.92 35.3721 104.354 34.707C98.5537 27.8932 91.0555 21.947 83.7823 16.727C73.3539 9.25663 60.1391 1.75607 46.7458 3.32903C19.8083 6.49583 -0.563661 58.2156 4.48698 69.6926C9.53762 81.1697 29.9095 110.276 51.293 112.613C72.6764 114.949 100.79 86.6588 105.671 75.6805C108.495 69.333 110.824 62.6445 111.096 55.6543C111.36 49.0052 109.787 42.2934 105.938 36.7626Z" fill="white"/>
<g opacity="0.3">
<path d="M60.7545 107.202V40.0546C60.7545 29.0624 51.9756 20.0074 40.668 18.7686" stroke="black" stroke-miterlimit="10"/>
<path d="M66.0579 107.202V40.0547C66.0579 28.2227 55.8778 18.6226 43.3219 18.6226C30.7638 18.6226 20.5859 28.2181 20.5859 40.0547V107.202" stroke="black" stroke-miterlimit="10"/>
</g>
<g opacity="0.3">
<path d="M108.695 21.6709H74.8457V66.3982H108.695V21.6709Z" stroke="black" stroke-miterlimit="10"/>
<path d="M107.261 23.564H76.2793V64.5027H107.261V23.564Z" stroke="black" stroke-miterlimit="10"/>
<path d="M106.314 24.8169H77.2285V63.25H106.314V24.8169Z" stroke="black" stroke-miterlimit="10"/>
<path d="M106.312 31.5518C103.41 33.5516 99.2291 34.9065 94.8118 37.5142C88.2508 41.3909 86.8055 49.8287 83.9217 56.8862C81.727 62.2477 79.0033 63.1502 77.8201 63.2638C77.6236 63.2877 77.425 63.2877 77.2285 63.2638" stroke="black" stroke-miterlimit="10"/>
<path d="M84.5543 24.8237C84.3084 27.1646 84.5288 29.4637 85.886 30.7281C89.431 34.0504 92.3171 33.0806 99.1402 27.5474C100.413 26.5261 101.77 25.6149 103.198 24.8237" stroke="black" stroke-miterlimit="10"/>
<path d="M77.2285 35.707C78.9987 36.6791 80.683 38.2358 81.0333 40.6857C81.4254 43.4535 79.4905 45.5972 77.2285 47.1377" stroke="black" stroke-miterlimit="10"/>
<path d="M100.497 63.2525C97.5385 60.0532 94.0005 55.1047 94.9448 50.5111C95.998 45.421 102.269 43.1172 106.313 42.1475" stroke="black" stroke-miterlimit="10"/>
<path d="M84.8385 40.4095C86.7233 40.4095 88.2512 38.7985 88.2512 36.8112C88.2512 34.8239 86.7233 33.2129 84.8385 33.2129C82.9537 33.2129 81.4258 34.8239 81.4258 36.8112C81.4258 38.7985 82.9537 40.4095 84.8385 40.4095Z" stroke="black" stroke-miterlimit="10"/>
<path d="M91.4631 52.1699C92.2959 52.1699 92.9711 51.4573 92.9711 50.5783C92.9711 49.6994 92.2959 48.9868 91.4631 48.9868C90.6302 48.9868 89.9551 49.6994 89.9551 50.5783C89.9551 51.4573 90.6302 52.1699 91.4631 52.1699Z" stroke="black" stroke-miterlimit="10"/>
<path d="M102.421 48.0237C102.409 48.2547 102.329 48.4771 102.192 48.6633C102.055 48.8495 101.866 48.9914 101.649 49.0713C101.432 49.1513 101.196 49.1658 100.97 49.1132C100.745 49.0605 100.54 48.9429 100.381 48.775C100.222 48.6071 100.115 48.3962 100.075 48.1684C100.034 47.9406 100.062 47.7059 100.153 47.4933C100.244 47.2808 100.396 47.0998 100.59 46.9726C100.783 46.8454 101.009 46.7777 101.241 46.7778C101.562 46.7869 101.867 46.9232 102.088 47.1567C102.31 47.3902 102.429 47.702 102.421 48.0237Z" stroke="black" stroke-miterlimit="10"/>
<path d="M80.5745 54.2461C81.046 54.2461 81.4282 53.8431 81.4282 53.346C81.4282 52.8488 81.046 52.4458 80.5745 52.4458C80.1029 52.4458 79.7207 52.8488 79.7207 53.346C79.7207 53.8431 80.1029 54.2461 80.5745 54.2461Z" stroke="black" stroke-miterlimit="10"/>
<path d="M94.9417 27.2646C94.9336 27.4187 94.8804 27.567 94.7888 27.6912C94.6972 27.8153 94.5712 27.9099 94.4264 27.9632C94.2816 28.0164 94.1244 28.0261 93.9742 27.9909C93.824 27.9557 93.6874 27.8773 93.5813 27.7652C93.4752 27.6532 93.4043 27.5125 93.3774 27.3606C93.3504 27.2087 93.3686 27.0522 93.4297 26.9106C93.4908 26.7689 93.5921 26.6482 93.721 26.5635C93.85 26.4789 94.001 26.4338 94.1552 26.4341C94.3696 26.4402 94.5728 26.531 94.7202 26.6867C94.8677 26.8424 94.9473 27.0503 94.9417 27.2646Z" stroke="black" stroke-miterlimit="10"/>
<path d="M74.8457 21.6709L77.2283 24.8168" stroke="black" stroke-miterlimit="10"/>
<path d="M108.695 21.6709L106.312 24.8168" stroke="black" stroke-miterlimit="10"/>
<path d="M106.312 63.25L108.695 66.3982" stroke="black" stroke-miterlimit="10"/>
<path d="M74.8457 66.3982L77.2283 63.25" stroke="black" stroke-miterlimit="10"/>
</g>
<path d="M95.4273 70.5999C95.4299 70.5966 95.4313 70.5925 95.4313 70.5883C95.4313 70.584 95.4299 70.58 95.4273 70.5767C95.4273 70.5767 95.4064 70.5767 95.4041 70.5767C94.876 71.8395 94.4591 73.1459 94.1582 74.4812C93.8498 75.8157 93.6175 77.1665 93.4622 78.5273L93.3648 79.5504C93.3485 79.7221 93.33 79.8915 93.3184 80.0631L93.2905 80.5759C93.2766 80.9192 93.2557 81.2719 93.2441 81.6036V82.6314L93.2557 83.1464C93.2557 83.3158 93.2766 83.4875 93.2882 83.6591C93.3137 84.0002 93.3346 84.3412 93.3671 84.6823C93.4321 85.3643 93.5341 86.0418 93.6385 86.7169C93.6391 86.7214 93.6413 86.7256 93.6447 86.7285C93.6482 86.7315 93.6526 86.7332 93.6571 86.7331C93.6619 86.7326 93.6663 86.7305 93.6697 86.7271C93.673 86.7238 93.6752 86.7193 93.6757 86.7146C93.6757 86.3735 93.6594 86.0325 93.6501 85.6915C93.6409 85.3504 93.6107 85.0117 93.6153 84.6707C93.62 84.3296 93.6153 83.9886 93.6153 83.6499V83.1395V82.6314V81.6129L93.6409 80.5944L93.6525 80.084C93.6525 79.9147 93.671 79.7453 93.6803 79.5759L93.7429 78.5575C93.86 77.2029 94.0529 75.856 94.3206 74.523C94.5748 73.1856 94.9451 71.8729 95.4273 70.5999Z" fill="#263238"/>
<path d="M95.5824 75.9269C95.5834 75.9241 95.5837 75.921 95.5834 75.9181C95.583 75.9151 95.5819 75.9123 95.5802 75.9098C95.5785 75.9074 95.5762 75.9054 95.5736 75.904C95.5709 75.9026 95.5679 75.9019 95.565 75.9019C95.562 75.9019 95.559 75.9026 95.5564 75.904C95.5537 75.9054 95.5514 75.9074 95.5497 75.9098C95.548 75.9123 95.5469 75.9151 95.5465 75.9181C95.5462 75.921 95.5465 75.9241 95.5476 75.9269C95.2591 76.7754 95.0166 77.6389 94.8214 78.5137C94.6303 79.3914 94.4878 80.279 94.3945 81.1724C94.304 82.0633 94.2043 82.9565 94.1927 83.852C94.1699 84.7494 94.2017 85.6473 94.2878 86.5409C94.2883 86.545 94.2902 86.5489 94.2931 86.5518C94.296 86.5548 94.2999 86.5566 94.304 86.5571C94.3086 86.5571 94.313 86.5555 94.3164 86.5525C94.3198 86.5495 94.322 86.5454 94.3226 86.5409C94.427 85.6477 94.4896 84.7568 94.5546 83.8682C94.6196 82.9797 94.6265 82.0865 94.6845 81.1956C94.7407 80.308 94.8468 79.4242 95.0024 78.5485C95.1451 77.6642 95.3388 76.7889 95.5824 75.9269Z" fill="#263238"/>
<path d="M98.5268 77.7988C98.5231 77.796 98.5187 77.7944 98.514 77.7944C98.5094 77.7944 98.5049 77.796 98.5013 77.7988C97.7628 78.2734 97.0977 78.8533 96.527 79.5202C96.2393 79.8556 95.9808 80.2149 95.7544 80.5944L95.5966 80.8937L95.4714 81.2045C95.4291 81.3076 95.3927 81.4129 95.3623 81.5201C95.3322 81.6245 95.295 81.7312 95.2672 81.8379C95.0401 82.6912 94.9033 83.566 94.8589 84.4479C94.8148 85.3237 94.8474 86.2017 94.9563 87.0718C94.9575 87.0754 94.9597 87.0786 94.9625 87.081C94.9654 87.0835 94.9688 87.0851 94.9726 87.0857C94.975 87.0861 94.9775 87.0859 94.9799 87.0853C94.9822 87.0846 94.9845 87.0835 94.9864 87.082C94.9883 87.0805 94.99 87.0786 94.9912 87.0765C94.9924 87.0743 94.9932 87.072 94.9934 87.0695L95.2254 84.4734C95.2866 83.6173 95.3958 82.7653 95.5526 81.9214C95.5758 81.817 95.6059 81.7149 95.6338 81.6105C95.6582 81.5069 95.6884 81.4046 95.7242 81.3043L95.8286 81.005L95.9655 80.722C96.1706 80.3446 96.4073 79.9852 96.6731 79.6478C97.2009 78.9593 97.8261 78.3513 98.5291 77.8429C98.535 77.8426 98.5405 77.8399 98.5444 77.8356C98.5483 77.8312 98.5503 77.8255 98.55 77.8197C98.5497 77.8138 98.5471 77.8083 98.5427 77.8044C98.5384 77.8005 98.5326 77.7985 98.5268 77.7988Z" fill="#263238"/>
<path d="M97.0983 81.1352C96.7137 81.4153 96.4051 81.7869 96.2004 82.2163C95.9834 82.6368 95.8145 83.0804 95.697 83.5387C95.6608 83.6505 95.6314 83.7644 95.6088 83.8797L95.5276 84.2254C95.4845 84.4555 95.4551 84.6879 95.4395 84.9214C95.4395 85.1534 95.4395 85.3854 95.4395 85.6174C95.4567 85.851 95.4877 86.0834 95.5323 86.3134C95.5323 86.3171 95.5337 86.3206 95.5363 86.3233C95.5389 86.3259 95.5425 86.3273 95.5462 86.3273C95.5508 86.328 95.5555 86.327 95.5593 86.3244C95.5632 86.3219 95.5659 86.3179 95.5671 86.3134C95.6221 86.084 95.6639 85.8516 95.6923 85.6174C95.7271 85.3854 95.7643 85.1534 95.7921 84.9214C95.8199 84.6894 95.8547 84.469 95.871 84.2416C95.8872 84.0143 95.9197 83.7777 95.9707 83.5642C96.0501 83.1146 96.1784 82.6751 96.3535 82.2534C96.5123 81.824 96.7707 81.4383 97.1075 81.1282C97.1102 81.1249 97.1116 81.1208 97.1116 81.1166C97.1116 81.1124 97.1102 81.1083 97.1075 81.105C97.1039 81.1048 97.1003 81.1058 97.0973 81.1079C97.0943 81.11 97.0921 81.113 97.091 81.1164C97.09 81.1199 97.0901 81.1237 97.0914 81.1271C97.0927 81.1305 97.0951 81.1333 97.0983 81.1352Z" fill="#263238"/>
<path d="M92.9536 83.7383C92.8585 82.5783 92.6683 81.4438 92.4896 80.3024C92.311 79.1609 92.1115 78.0241 91.9027 76.8897C91.6939 75.7552 91.4596 74.623 91.2067 73.4955C91.2054 73.4919 91.203 73.4889 91.1999 73.4867C91.1968 73.4846 91.1931 73.4834 91.1893 73.4834C91.1855 73.4834 91.1818 73.4846 91.1787 73.4867C91.1756 73.4889 91.1732 73.4919 91.1719 73.4955C91.3691 74.6323 91.5477 75.7714 91.7148 76.9129C91.8818 78.0543 92.0512 79.1934 92.195 80.3372C92.3388 81.4809 92.4456 82.627 92.5894 83.7685L93.0302 87.2067C93.0302 87.211 93.0319 87.2151 93.035 87.2182C93.038 87.2212 93.0421 87.2229 93.0464 87.2229C93.0488 87.2233 93.0511 87.2231 93.0534 87.2224C93.0556 87.2218 93.0577 87.2206 93.0595 87.2191C93.0612 87.2175 93.0626 87.2156 93.0636 87.2135C93.0645 87.2114 93.065 87.209 93.065 87.2067C93.0789 86.9167 93.0789 86.6267 93.0859 86.3367C93.0928 86.0467 93.0743 85.759 93.0696 85.469C93.0464 84.8913 92.9977 84.3137 92.9536 83.7383Z" fill="#263238"/>
<path d="M92.2637 83.7218C92.2034 83.2578 92.1199 82.81 92.0317 82.3576L91.8693 81.6848C91.8183 81.4528 91.7673 81.2347 91.7023 81.0143C91.4717 80.1204 91.1771 79.2443 90.8207 78.3927L90.6815 78.0749L90.5284 77.764C90.4309 77.5552 90.3126 77.3557 90.2013 77.1538C89.9745 76.7507 89.6943 76.38 89.3684 76.0518C89.3669 76.0494 89.3649 76.0474 89.3626 76.0459C89.3602 76.0444 89.3575 76.0434 89.3547 76.0431C89.3519 76.0428 89.3491 76.0431 89.3465 76.044C89.3438 76.0449 89.3414 76.0464 89.3394 76.0484C89.3374 76.0504 89.3359 76.0528 89.335 76.0554C89.3341 76.0581 89.3338 76.0609 89.3341 76.0637C89.3344 76.0665 89.3354 76.0692 89.3369 76.0715C89.3384 76.0739 89.3405 76.0759 89.3429 76.0774C89.6468 76.4167 89.9028 76.796 90.1038 77.2049C90.2036 77.409 90.3103 77.6109 90.3961 77.8243L90.5307 78.1375L90.6513 78.4577C90.9707 79.3117 91.2274 80.1879 91.4193 81.0793C91.5237 81.5224 91.5933 81.9748 91.6791 82.4226L91.7881 83.0977C91.8276 83.3297 91.874 83.5454 91.9065 83.7728C91.9784 84.2229 92.0619 84.673 92.1385 85.123C92.215 85.5731 92.2893 86.0278 92.3867 86.4779C92.3867 86.4822 92.3884 86.4864 92.3915 86.4894C92.3945 86.4924 92.3986 86.4942 92.4029 86.4942C92.4077 86.4937 92.4121 86.4915 92.4155 86.4882C92.4189 86.4848 92.421 86.4803 92.4215 86.4756C92.4215 86.0116 92.4215 85.5476 92.389 85.0952C92.3565 84.6428 92.3125 84.1788 92.2637 83.7218Z" fill="#263238"/>
<path d="M91.3099 83.7798C91.0965 83.1742 90.8459 82.5826 90.5814 82.0026C90.3053 81.4235 89.9954 80.8611 89.6534 80.3183C89.6498 80.3155 89.6453 80.314 89.6407 80.314C89.6361 80.314 89.6316 80.3155 89.6279 80.3183C89.6264 80.3198 89.6252 80.3216 89.6243 80.3236C89.6235 80.3256 89.623 80.3278 89.623 80.3299C89.623 80.3321 89.6235 80.3342 89.6243 80.3362C89.6252 80.3382 89.6264 80.34 89.6279 80.3415C89.9224 80.9041 90.1835 81.4835 90.4098 82.0769C90.6418 82.6685 90.8552 83.267 91.0315 83.8749C91.2078 84.4827 91.3424 85.0998 91.4955 85.71C91.6486 86.3202 91.8041 86.935 91.992 87.5521C91.9926 87.556 91.9945 87.5595 91.9975 87.5621C92.0005 87.5646 92.0043 87.566 92.0082 87.566C92.013 87.5655 92.0174 87.5634 92.0208 87.56C92.0242 87.5566 92.0263 87.5522 92.0268 87.5474C92.0347 86.9034 91.9748 86.2603 91.8482 85.6288C91.7191 84.9989 91.5391 84.3805 91.3099 83.7798Z" fill="#263238"/>
<path d="M91.2708 85.7937C91.1538 85.4167 90.9827 85.0588 90.7627 84.7311C90.5604 84.3895 90.3122 84.0772 90.0249 83.8031C89.8809 83.6715 89.7257 83.5527 89.5609 83.4482C89.3961 83.3454 89.2171 83.2673 89.0297 83.2162C89.0275 83.2154 89.0253 83.2152 89.023 83.2154C89.0208 83.2156 89.0186 83.2163 89.0167 83.2174C89.0147 83.2185 89.013 83.22 89.0116 83.2217C89.0103 83.2235 89.0093 83.2256 89.0088 83.2278C89.0072 83.2293 89.006 83.2311 89.0052 83.2331C89.0043 83.2351 89.0039 83.2372 89.0039 83.2394C89.0039 83.2415 89.0043 83.2437 89.0052 83.2456C89.006 83.2476 89.0072 83.2494 89.0088 83.251C89.3492 83.4181 89.6504 83.6553 89.8927 83.947C90.1365 84.2287 90.3431 84.5406 90.5075 84.875C90.6838 85.2067 90.7743 85.571 90.9251 85.9143C90.9924 86.0883 91.0597 86.2646 91.1362 86.4386C91.2023 86.6212 91.2798 86.7994 91.3682 86.9722C91.3682 86.9722 91.3682 86.9838 91.3845 86.9838C91.3894 86.9838 91.3941 86.9819 91.3976 86.9784C91.4011 86.9749 91.403 86.9702 91.403 86.9653C91.41 86.7686 91.403 86.5717 91.3821 86.376C91.3589 86.1788 91.3172 85.9862 91.2708 85.7937Z" fill="#263238"/>
<path d="M91.3414 75.1446C90.7665 74.9828 90.2467 74.6672 89.8378 74.2318C89.429 73.7964 89.1467 73.2578 89.0214 72.6739C88.5852 70.6392 89.9888 71.5138 88.729 68.3146C87.4693 65.1153 87.7616 64.3914 88.1978 63.4704C88.6339 62.5494 88.8752 62.8417 89.2627 64.0527C89.6501 65.2638 91.056 67.1523 91.5827 70.6879C92.1093 74.2236 91.3414 75.1446 91.3414 75.1446Z" fill="#EF233C"/>
<path d="M95.072 71.7066C95.072 71.7066 93.8122 71.2704 93.7635 68.8971C93.7148 66.5237 94.6915 67.0086 94.8284 64.0529C94.9652 61.0972 95.1671 59.0162 95.7007 58.9675C96.2343 58.9187 97.6379 60.4198 98.1228 63.7142C98.6076 67.0086 97.494 69.1871 96.5243 70.1568C95.5545 71.1266 95.072 71.7066 95.072 71.7066Z" fill="#EF233C"/>
<path d="M90.6651 78.0028C90.6651 78.0028 90.3728 76.2582 89.7928 75.4346C89.2128 74.611 87.9507 73.8848 87.1271 72.2863C86.3035 70.6879 85.3848 69.913 85.4335 72.1912C85.4822 74.4695 86.4984 75.6295 87.7535 76.4043C89.0086 77.1792 90.6651 78.0028 90.6651 78.0028Z" fill="#EF233C"/>
<path d="M90.1312 81.0054C89.3622 79.5879 88.4003 78.284 87.2729 77.1309C85.577 75.4837 84.2221 74.6601 84.707 75.4837C85.1919 76.3073 85.7719 76.2586 86.5955 77.7133C87.4191 79.1679 87.1755 80.2305 88.3378 81.0541C89.5001 81.8777 90.1312 81.0054 90.1312 81.0054Z" fill="#EF233C"/>
<path d="M89.9856 83.8633C89.9369 83.7195 89.8905 82.6523 88.2433 81.7753C86.5961 80.8984 85.0463 81.2417 85.2389 81.6779C85.4315 82.114 86.4499 82.8379 87.4684 83.2764C88.2792 83.5779 89.1251 83.7751 89.9856 83.8633Z" fill="#EF233C"/>
<path d="M94.976 78.1004C94.976 78.1004 94.2498 77.1724 94.6372 75.2422C95.0247 73.3119 95.8947 73.7899 96.8644 72.7714C97.8342 71.7529 97.6393 71.6114 98.6091 70.5442C99.5788 69.477 100.449 68.897 100.836 69.3331C101.224 69.7693 100.644 71.1242 100.061 71.8991C99.4791 72.6739 98.5604 73.0591 98.1242 74.0311C97.688 75.0032 97.8922 76.5507 96.767 77.2791C95.6418 78.0076 94.976 78.1004 94.976 78.1004Z" fill="#EF233C"/>
<path d="M97.3965 78.6319C97.3965 78.6319 99.1388 76.6459 100.399 75.1936C101.658 73.7413 102.143 72.6254 102.192 73.5951C102.241 74.5649 102.628 75.3398 101.61 76.5995C100.591 77.8593 97.3965 78.6319 97.3965 78.6319Z" fill="#EF233C"/>
<path d="M96.4766 81.8286C96.4766 81.8286 96.4279 81.0537 99.1887 79.2627C101.949 77.4716 103.112 77.1306 102.822 77.8567C102.532 78.5829 101.321 79.3114 100.012 80.6175C98.7038 81.9237 96.4766 81.8286 96.4766 81.8286Z" fill="#EF233C"/>
<path d="M91.4582 74.9361C91.4582 74.9361 90.8086 71.4561 90.1312 68.9922C89.4537 66.5284 89.0176 65.0181 89.0176 65.0181" stroke="#263238" stroke-linecap="round" stroke-linejoin="round"/>
<path d="M94.959 71.7439C94.959 71.7439 96.1375 67.9762 96.525 65.7003C96.9124 63.4244 96.4763 61.7284 96.293 60.71" stroke="#263238" stroke-linecap="round" stroke-linejoin="round"/>
<path d="M90.5113 77.9311C89.9904 77.0306 89.3927 76.1768 88.7249 75.3791C87.66 74.1193 86.8364 73.4396 86.3516 72.2285" stroke="#263238" stroke-linecap="round" stroke-linejoin="round"/>
<path d="M94.9746 78.1005C94.9746 78.1005 95.362 75.7805 96.2831 74.5648C97.2041 73.3492 99.0439 71.463 99.7631 70.252" stroke="#263238" stroke-linecap="round" stroke-linejoin="round"/>
<path d="M89.8719 83.8125C89.8719 83.8125 88.2479 82.7499 87.0879 82.1699" stroke="#263238" stroke-linecap="round" stroke-linejoin="round"/>
<path d="M99.205 93.5751C99.096 90.6357 95.8294 88.6753 95.8294 88.6753H90.8252C90.8252 88.6753 87.5586 90.6357 87.4496 93.5751C87.3405 96.5146 91.1616 107.291 91.1616 107.291H95.5139C95.5139 107.291 99.314 96.5123 99.205 93.5751Z" fill="#263238" stroke="#263238" stroke-linecap="round" stroke-linejoin="round"/>
<path d="M96.4749 85.7866H90.0879L90.8256 88.675H95.7394L96.4749 85.7866Z" fill="#263238" stroke="#263238" stroke-linecap="round" stroke-linejoin="round"/>
<path d="M40.6878 69.4604C40.6878 69.4604 40.6159 69.4952 40.0081 70.4604C39.4002 71.4255 39.1125 71.6784 39.1497 72.1076C39.1868 72.5368 39.1497 72.966 39.3283 73.0356C39.99 73.2252 40.6773 73.3098 41.3653 73.2861C42.2933 73.2513 42.5833 73.1794 42.7573 73.0008C43.0556 72.7019 43.2444 72.3112 43.2932 71.8918C43.3651 71.3188 43.437 69.5324 43.437 69.5324L40.6878 69.4604Z" fill="#969696" stroke="#263238" stroke-miterlimit="10"/>
<path d="M50.1276 69.4953C50.1276 69.4953 51.9534 70.8201 52.4894 70.9268C53.0253 71.0335 53.9904 71.356 54.0623 71.7481C54.1342 72.1402 54.2062 72.6436 53.9904 72.8222C53.7746 73.0009 52.3455 73.0797 51.3804 73.0797C50.8269 73.0875 50.2781 72.9776 49.7703 72.7573L49.2715 72.5786L49.1996 72.9359C49.1996 72.9359 48.9119 72.9359 48.5918 72.9011C48.2716 72.8663 47.339 72.6853 47.339 72.6853C47.339 72.6853 47.1951 70.8966 47.5547 69.8596C47.9143 68.8225 50.1276 69.4953 50.1276 69.4953Z" fill="#969696" stroke="#263238" stroke-miterlimit="10"/>
<path d="M40.368 44.6436L40.4886 57.972L40.6487 68.8899L40.368 69.4119L40.252 70.0314C40.252 70.0314 42.1335 70.3353 42.572 70.3353C42.8603 70.3385 43.1477 70.3688 43.4304 70.4258C43.4304 70.4258 43.7343 68.3679 43.8549 67.7253C43.9756 67.0826 44.0568 66.1593 44.298 64.5956C44.5393 63.0319 46.1424 51.1883 46.1424 51.1883L46.7851 50.6246L46.8663 56.2854C46.8663 56.2854 46.5438 62.7814 46.8268 64.6374C47.1099 66.4934 47.2676 69.0129 47.2676 69.0129C47.2235 69.2248 47.2235 69.4436 47.2676 69.6555C47.3391 69.9325 47.3925 70.2138 47.4277 70.4977C48.0079 70.4369 48.5842 70.3431 49.1538 70.217C49.757 70.0569 50.6804 69.855 50.6804 69.855C50.6804 69.855 51.04 69.173 51.0005 69.0523C50.8555 68.6621 50.7482 68.2589 50.6804 67.8482C50.6804 67.5675 51.2812 57.051 51.2812 57.051C51.2812 57.051 51.6826 50.5062 51.8032 48.2187C51.9239 45.9312 52.0956 43.8478 52.0956 43.8478L48.5228 43.2075L40.368 44.6436Z" fill="#263238" stroke="#263238" stroke-miterlimit="10"/>
<path d="M54.6009 30.9952C54.6009 30.9952 55.7447 30.3293 56.0788 28.2552C56.4129 26.1812 54.5661 26.1812 54.0627 26.6312C53.5593 27.0813 53.9629 29.5312 54.6009 30.9952Z" fill="#263238" stroke="#263238" stroke-miterlimit="10"/>
<path d="M50.1816 25.7056C50.7686 25.7253 51.3523 25.803 51.924 25.9376C52.359 26.0589 52.8005 26.1557 53.2464 26.2276L54.4388 26.0976C54.4388 26.0976 54.3112 28.7749 54.4064 29.4199C54.5015 30.0648 54.6012 30.9998 54.6012 30.9998L52.5132 30.4523C52.5132 30.4523 52.3532 30.7098 51.6432 28.935C50.9333 27.1602 50.1816 25.7056 50.1816 25.7056Z" fill="#969696" stroke="#263238" stroke-miterlimit="10"/>
<path d="M54.4387 26.0931C54.4387 26.0931 54.7914 17.5485 54.7914 17.4325C54.7914 17.3165 54.5895 16.1565 54.6754 15.9245C54.7612 15.6925 55.0814 14.7924 55.1695 14.4142C55.2577 14.036 55.9537 14.6184 55.8377 14.9942C55.74 15.415 55.6717 15.8422 55.6335 16.2725L56.2135 16.6205C56.6008 16.3796 57.0092 16.1745 57.4339 16.008C57.8399 15.892 57.4617 14.5279 57.8979 14.616C58.334 14.7042 58.3619 16.7922 58.3619 17.168C58.3619 17.5439 56.1277 19.1122 56.1277 19.1122C56.1277 19.1122 57.3735 26.2833 57.4385 27.1533C57.5035 28.0233 57.5359 28.2507 57.3735 28.5082C57.2111 28.7657 54.4062 29.4107 54.4062 29.4107L54.4387 26.0931Z" fill="white" stroke="#263238" stroke-miterlimit="10"/>
<path d="M55.7285 9.9434C55.7285 9.6302 56.1624 9.375 56.6983 9.375C57.2342 9.375 57.6657 9.6302 57.6657 9.9434C57.6657 10.2566 57.2319 10.5118 56.6983 10.5118C56.1647 10.5118 55.7285 10.2589 55.7285 9.9434Z" fill="white" stroke="#263238" stroke-miterlimit="10"/>
<path d="M55.0625 13.6483C55.0623 13.8974 55.119 14.1432 55.2282 14.367C55.3374 14.5908 55.4963 14.7867 55.6927 14.9398C55.8891 15.0929 56.1179 15.1991 56.3617 15.2503C56.6054 15.3016 56.8576 15.2965 57.099 15.2354C57.3405 15.1744 57.5648 15.059 57.7549 14.8981C57.9449 14.7372 58.0958 14.535 58.1958 14.3069C58.2959 14.0789 58.3426 13.831 58.3323 13.5822C58.322 13.3333 58.2551 13.0901 58.1365 12.8711C57.8451 12.3642 57.6855 11.7923 57.6725 11.2077V11.0615H55.7214V11.2077C55.7253 11.7717 55.577 12.3263 55.2922 12.8131C55.1414 13.0656 55.062 13.3543 55.0625 13.6483Z" fill="white" stroke="#263238" stroke-miterlimit="10"/>
<path d="M55.7265 11.064H57.666V10.5489H55.7265V11.064Z" fill="white" stroke="#263238" stroke-miterlimit="10"/>
<path d="M55.7265 10.5142H57.666V9.99912H55.7265V10.5142Z" fill="white" stroke="#263238" stroke-miterlimit="10"/>
<path d="M57.3187 15.6041C57.3187 15.6041 57.0264 14.3281 57.4046 14.3559C57.7827 14.3838 58.1586 16.6504 58.1586 16.9682C58.1586 17.2861 57.5206 17.5482 57.5206 17.5482L57.3187 15.6041Z" fill="white" stroke="#263238" stroke-miterlimit="10"/>
<path d="M55.6043 18.9729C55.6043 18.9729 55.1983 18.4208 55.6043 17.9266C56.0103 17.4324 57.0868 17.2584 57.0868 17.2584C57.0868 17.2584 56.5044 15.1983 56.9986 15.2864C57.4928 15.3746 57.7828 17.4324 57.7248 17.6366C57.6798 17.7712 57.5997 17.8914 57.4928 17.9846" fill="white"/>
<path d="M55.6043 18.9729C55.6043 18.9729 55.1983 18.4208 55.6043 17.9266C56.0103 17.4324 57.0868 17.2584 57.0868 17.2584C57.0868 17.2584 56.5044 15.1983 56.9986 15.2864C57.4928 15.3746 57.7828 17.4324 57.7248 17.6366C57.6798 17.7712 57.5997 17.8914 57.4928 17.9846" stroke="#263238" stroke-miterlimit="10"/>
<path d="M53.2458 26.2158C53.2458 26.2158 52.8282 26.5105 52.7168 27.6333" stroke="#263238" stroke-miterlimit="10"/>
<path d="M42.8943 24.1278C43.0086 24.3158 43.1802 24.4622 43.3839 24.5454C43.6297 24.6441 43.8942 24.6877 44.1587 24.673C44.1587 24.673 45.2236 24.7055 45.7387 23.9004C46.2537 23.0954 45.3187 21.0608 45.5461 19.9008C45.7735 18.7408 46.3999 18.1584 46.1516 17.8638C45.9034 17.5692 45.1842 17.3163 43.5996 19.0586C42.0151 20.8009 41.6044 22.8031 42.8943 24.1278Z" fill="#263238" stroke="#263238" stroke-miterlimit="10"/>
<path d="M43.0882 26.1252C43.0882 26.1252 39.411 27.8351 39.2509 28.1576C39.0908 28.48 40.0235 45.0564 40.0235 45.0564C40.0235 45.0564 40.0606 45.6921 42.5105 46.402C44.9604 47.112 47.1853 46.3788 47.5379 46.3464C47.8906 46.3139 48.3128 45.2838 48.3128 45.2838L48.5703 46.2118C48.5703 46.2118 48.9578 46.5018 50.5702 45.8893C52.1826 45.2768 52.8902 44.6319 52.8902 44.6319L52.7301 30.923C52.7301 30.923 51.8903 27.5381 51.4703 27.0208C51.0504 26.5034 51.1803 26.0208 50.1804 25.6984C49.1805 25.3759 46.9556 25.2808 45.8281 25.2808C44.7006 25.2808 43.0882 26.1252 43.0882 26.1252Z" fill="#EF233C" stroke="#263238" stroke-miterlimit="10"/>
<path d="M39.4629 34.4937C39.4861 34.9577 39.5093 35.4356 39.5348 35.9135C40.2413 35.9905 40.9516 36.0284 41.6622 36.0272C44.3117 36.0272 48.2302 35.5307 52.7588 33.3731L52.7402 31.8303C52.3598 32.0206 51.9839 32.1992 51.6127 32.3662C51.5176 29.1832 50.7543 26.9722 50.1442 25.6962C49.5724 25.544 48.9875 25.4469 48.3972 25.4062C48.8171 26.0605 50.2068 28.5568 50.23 32.9416C48.4657 33.6267 46.6298 34.1108 44.7571 34.3847C43.8454 29.856 42.7828 27.6242 42.1146 26.5871C41.7295 26.7727 41.2818 26.9931 40.8526 27.2089C41.356 27.949 42.4302 29.9488 43.3674 34.5424C42.0675 34.6556 40.7596 34.6392 39.4629 34.4937Z" fill="white" stroke="#263238" stroke-miterlimit="10"/>
<path d="M52.8466 40.8458L52.8281 39.252C46.9097 42.7714 41.9473 41.8759 39.8105 41.1938C39.8384 41.7251 39.8662 42.2192 39.8894 42.667C41.2413 43.035 42.6365 43.22 44.0376 43.2168C46.4829 43.2168 49.5197 42.6693 52.8466 40.8458Z" fill="white" stroke="#263238" stroke-miterlimit="10"/>
<path d="M47.7324 32.8652C47.7324 32.8652 48.7973 38.6397 48.4748 44.4768" stroke="#263238" stroke-miterlimit="10"/>
<path d="M45.1836 28.0928C45.4109 28.6783 45.7144 29.2314 46.0861 29.7377C46.7635 30.7051 47.6335 32.0925 47.6335 32.0925C47.6335 32.0925 48.6334 29.7725 48.7309 28.7702C48.7904 28.1795 48.7795 27.5837 48.6984 26.9954L46.6661 25.8354L45.1836 28.0928Z" fill="#969696" stroke="#263238" stroke-miterlimit="10"/>
<path d="M44.1518 24.6729L42.7598 26.2969L44.5021 29.1343L47.0541 27.6193L49.859 28.6169C49.859 28.6169 49.0864 26.0371 48.409 25.522C47.9572 25.1812 47.4703 24.8896 46.9566 24.652C46.829 24.5778 46.3442 23.9978 44.1518 24.6729Z" fill="#969696" stroke="#263238" stroke-miterlimit="10"/>
<path d="M48.3117 23.5454L47.9893 26.0974L47.8385 26.8491L47.3745 29.1691C47.3745 29.1691 45.8572 27.2342 45.1473 26.5568C44.7484 26.1864 44.4018 25.7633 44.1172 25.2993C44.2176 24.7348 44.2711 24.1629 44.2773 23.5895C44.2893 23.1901 44.2676 22.7904 44.2123 22.3947L44.1172 21.8472C44.6107 22.1732 45.1253 22.4662 45.6577 22.7241L45.8572 22.8146C46.6534 23.1266 47.4745 23.371 48.3117 23.5454Z" fill="white" stroke="#263238" stroke-miterlimit="10"/>
<path d="M48.311 23.5458L47.9885 26.0978L47.8377 26.8495C46.7914 25.8936 44.5039 22.6479 44.5039 22.6479L45.6639 22.7175L45.8634 22.808C46.6572 23.122 47.476 23.3688 48.311 23.5458Z" fill="#263238" stroke="#263238" stroke-miterlimit="10"/>
<path d="M48.8596 18.7086C48.8596 18.7086 49.5045 20.1261 49.5045 20.676C49.5045 21.2258 49.3444 22.5459 49.3769 22.9333C49.4094 23.3208 48.9129 23.7708 48.5046 23.9332C48.0963 24.0956 47.732 24.2232 46.6022 23.9332C45.4724 23.6432 44.5142 22.6433 44.5142 22.6433C44.5142 22.6433 43.6094 22.4113 43.3194 21.9334C43.0294 21.4555 43.0294 20.9335 43.6094 20.901C44.1894 20.8685 44.2544 21.3209 44.3518 21.1585C44.4492 20.9961 44.1917 20.2885 44.5838 19.9011C44.8481 19.6319 45.0376 19.2984 45.1336 18.9336C45.2311 18.6761 46.5512 18.2562 47.391 18.0312C48.2308 17.8061 48.8596 18.7086 48.8596 18.7086Z" fill="white" stroke="#263238" stroke-miterlimit="10"/>
<path d="M48.1526 18.8359C48.1526 18.8359 48.0227 19.0679 48.1526 19.1909C48.2826 19.3139 48.9577 19.9008 48.8927 20.0934C48.8278 20.2859 48.257 20.6479 47.9902 20.6479" stroke="#263238" stroke-miterlimit="10"/>
<path d="M48.667 21.1259C48.4215 21.2851 48.1315 21.3617 47.8394 21.3446C47.5472 21.3275 47.2682 21.2176 47.043 21.0308" stroke="#263238" stroke-miterlimit="10"/>
<path d="M46.9503 19.2977C46.9671 19.3287 46.9765 19.3632 46.978 19.3984C46.9794 19.4336 46.9728 19.4687 46.9587 19.501C46.9445 19.5333 46.9232 19.562 46.8963 19.5848C46.8694 19.6076 46.8377 19.624 46.8036 19.6327C46.7694 19.6414 46.7337 19.6422 46.6992 19.6351C46.6646 19.628 46.6322 19.613 46.6043 19.5915C46.5764 19.5699 46.5538 19.5423 46.5382 19.5107C46.5226 19.4791 46.5143 19.4443 46.5142 19.4091C46.4974 19.3781 46.488 19.3436 46.4865 19.3084C46.4851 19.2732 46.4917 19.2381 46.5058 19.2058C46.52 19.1735 46.5413 19.1449 46.5682 19.122C46.5951 19.0992 46.6268 19.0828 46.6609 19.0741C46.6951 19.0654 46.7308 19.0646 46.7653 19.0717C46.7998 19.0788 46.8323 19.0938 46.8602 19.1153C46.8881 19.1369 46.9107 19.1645 46.9263 19.1961C46.9419 19.2277 46.9501 19.2625 46.9503 19.2977Z" fill="#263238"/>
<path d="M48.9756 19.1443C48.9742 19.1873 48.9609 19.2292 48.9371 19.2651C48.9133 19.301 48.88 19.3295 48.8409 19.3476C48.8018 19.3656 48.7584 19.3724 48.7156 19.3672C48.6729 19.362 48.6324 19.345 48.5988 19.3181C48.5652 19.2912 48.5397 19.2554 48.5252 19.2148C48.5107 19.1743 48.5078 19.1305 48.5169 19.0884C48.5259 19.0462 48.5464 19.0075 48.5762 18.9764C48.606 18.9453 48.6439 18.9231 48.6856 18.9123C48.7199 18.9084 48.7546 18.9114 48.7877 18.9209C48.8209 18.9305 48.8518 18.9465 48.8788 18.9681C48.9057 18.9896 48.9281 19.0163 48.9447 19.0465C48.9614 19.0768 48.9719 19.11 48.9756 19.1443Z" fill="#263238"/>
<path d="M46.1523 19.0632C46.2015 18.9112 46.3027 18.7815 46.438 18.6966C46.5733 18.6118 46.7342 18.5773 46.8924 18.5992" stroke="#263238" stroke-miterlimit="10"/>
<path d="M44.8941 19.0632C44.0836 19.8099 43.3682 20.6538 42.7644 21.5758C41.957 22.8982 42.8943 24.1278 42.8943 24.1278C42.8943 24.1278 41.9269 23.7079 41.7343 22.9028C41.5417 22.0978 40.8968 21.9748 41.0244 20.323C41.152 18.6711 42.0243 17.1608 43.2817 16.5483C44.5392 15.9359 46.314 16.1307 46.6365 16.2908C46.9416 16.4175 47.225 16.5913 47.4763 16.8059C47.8178 17.061 48.1725 17.298 48.5389 17.5158L44.8941 19.0632Z" fill="white" stroke="#263238" stroke-miterlimit="10"/>
<path d="M44.8945 19.0633C44.8945 19.0633 45.9246 17.7734 46.3445 17.5136C46.7645 17.2537 48.2005 16.7364 49.0543 17.1586C49.5693 17.4185 49.7016 17.6226 49.4742 18.0309C49.2167 18.4949 49.0218 18.836 49.0218 18.836C49.0218 18.836 48.6993 18.5785 47.4744 18.5135C46.2494 18.4485 44.8945 19.0633 44.8945 19.0633Z" fill="white" stroke="#263238" stroke-miterlimit="10"/>
<path d="M36.5085 36.1919L36.1211 39.9039L37.3159 47.4509C37.3159 47.4509 37.186 49.0633 37.3159 49.2883C37.4458 49.5133 37.6709 49.9657 37.6709 49.9657V51.6756C37.6709 51.773 37.766 51.9656 37.9029 51.9331C37.9029 51.9331 38.1929 52.128 38.3854 52.063L38.5803 51.9981C38.5803 51.9981 38.9677 52.063 39.1278 51.9331C39.2343 51.8468 39.3315 51.7496 39.4178 51.6431C39.4961 51.5029 39.551 51.3509 39.5802 51.193C39.6553 50.6816 39.6864 50.1646 39.673 49.6479C39.5934 48.9469 39.4426 48.2558 39.2229 47.5854L39.1255 47.3534L38.9654 39.6139L39.6429 37.2591L36.5085 36.1919Z" fill="white" stroke="#263238" stroke-miterlimit="10"/>
<path d="M37.8945 51.9262C37.8945 51.9262 38.1126 50.859 38.1892 50.3022" stroke="#263238" stroke-miterlimit="10"/>
<path d="M38.5723 51.9911C38.5723 51.9911 38.9272 50.5202 38.9063 50.1606" stroke="#263238" stroke-miterlimit="10"/>
<path d="M39.1191 51.9261C39.1191 51.9261 39.3233 50.9354 39.3975 50.1211" stroke="#263238" stroke-miterlimit="10"/>
<path d="M40.345 28.2552C40.345 28.2552 40.055 27.5453 39.25 28.1578C38.4449 28.7702 35.5078 35.9297 35.5078 35.9297C35.5078 35.9297 36.1853 36.8972 37.8278 37.3496C39.4704 37.802 40.4077 37.6721 40.4077 37.6721C40.4077 37.6721 40.7951 32.705 40.7301 30.835C40.6652 28.9651 40.345 28.2552 40.345 28.2552Z" fill="#969696" stroke="#263238" stroke-miterlimit="10"/>
<path d="M55.0841 95.1062L13.8066 54.0167L14.6975 53.272L55.975 94.3638L55.0841 95.1062Z" fill="#EF233C" stroke="#263238" stroke-miterlimit="10"/>
<path d="M56.7577 48.0171H55.5977V103.103H56.7577V48.0171Z" fill="#EF233C" stroke="#263238" stroke-miterlimit="10"/>
<path d="M57.4801 101.885H55.123C54.9691 101.885 54.8216 101.824 54.7128 101.715C54.6041 101.606 54.543 101.459 54.543 101.305C54.543 101.151 54.6041 101.004 54.7128 100.895C54.8216 100.786 54.9691 100.725 55.123 100.725H57.4801C57.6339 100.725 57.7814 100.786 57.8902 100.895C57.999 101.004 58.0601 101.151 58.0601 101.305C58.0601 101.459 57.999 101.606 57.8902 101.715C57.7814 101.824 57.6339 101.885 57.4801 101.885Z" fill="#EF233C" stroke="#263238" stroke-miterlimit="10"/>
<path d="M56.4934 107.264C57.4964 107.101 58.1775 106.156 58.0146 105.153C57.8518 104.15 56.9068 103.469 55.9039 103.632C54.9009 103.795 54.2199 104.74 54.3827 105.743C54.5455 106.746 55.4905 107.427 56.4934 107.264Z" fill="#EF233C" stroke="#263238" stroke-miterlimit="10"/>
<path d="M57.2472 105.451C57.2476 105.243 57.1863 105.039 57.0708 104.865C56.9553 104.692 56.791 104.556 56.5986 104.476C56.4062 104.396 56.1943 104.375 55.9898 104.415C55.7854 104.456 55.5975 104.556 55.4499 104.703C55.3024 104.85 55.2019 105.038 55.161 105.242C55.1202 105.447 55.1409 105.659 55.2206 105.851C55.3002 106.044 55.4352 106.209 55.6085 106.324C55.7818 106.44 55.9855 106.502 56.1939 106.502C56.3321 106.502 56.469 106.475 56.5968 106.423C56.7246 106.37 56.8407 106.293 56.9385 106.195C57.0364 106.097 57.114 105.981 57.167 105.854C57.2199 105.726 57.2472 105.589 57.2472 105.451Z" fill="white" stroke="#263238" stroke-miterlimit="10"/>
<path d="M55.0742 103.374L55.8839 105.546C55.9102 105.614 55.9567 105.673 56.0172 105.715C56.0777 105.756 56.1493 105.778 56.2226 105.778C56.3 105.778 56.3754 105.753 56.4373 105.706C56.4992 105.66 56.5444 105.595 56.566 105.52L57.1993 103.372L55.0742 103.374Z" fill="white" stroke="#263238" stroke-miterlimit="10"/>
<path d="M57.6651 102.653H54.6328V103.44H57.6651V102.653Z" fill="white" stroke="#263238" stroke-miterlimit="10"/>
<path d="M76.7921 64.4823H56.9491C56.7953 64.4823 56.6478 64.4212 56.539 64.3124C56.4302 64.2036 56.3691 64.0561 56.3691 63.9023C56.3691 63.7484 56.4302 63.6009 56.539 63.4921C56.6478 63.3834 56.7953 63.3223 56.9491 63.3223H76.7921V64.4823Z" fill="#EF233C" stroke="#263238" stroke-miterlimit="10"/>
<path d="M76.7921 74.7874H56.9491C56.8729 74.7877 56.7973 74.773 56.7268 74.7439C56.6563 74.7149 56.5923 74.6722 56.5383 74.6182C56.4844 74.5643 56.4417 74.5003 56.4127 74.4298C56.3836 74.3593 56.3688 74.2837 56.3691 74.2074C56.3691 74.0536 56.4303 73.9061 56.539 73.7973C56.6478 73.6885 56.7953 73.6274 56.9491 73.6274H76.7921V74.7874Z" fill="#EF233C" stroke="#263238" stroke-miterlimit="10"/>
<path d="M76.7921 85.0955H56.9491C56.7953 85.0955 56.6478 85.0344 56.539 84.9257C56.4302 84.8169 56.3691 84.6694 56.3691 84.5155C56.3691 84.3617 56.4302 84.2142 56.539 84.1054C56.6478 83.9967 56.7953 83.9355 56.9491 83.9355H76.7921V85.0955Z" fill="#EF233C" stroke="#263238" stroke-miterlimit="10"/>
<path d="M76.7909 94.2407H34.8848V95.4007H76.7909V94.2407Z" fill="#EF233C" stroke="#263238" stroke-miterlimit="10"/>
<path d="M77.4666 48.0171H76.3066V103.103H77.4666V48.0171Z" fill="#EF233C" stroke="#263238" stroke-miterlimit="10"/>
<path d="M78.2012 101.885H75.8417C75.6879 101.885 75.5404 101.824 75.4316 101.715C75.3228 101.606 75.2617 101.459 75.2617 101.305C75.2617 101.151 75.3228 101.004 75.4316 100.895C75.5404 100.786 75.6879 100.725 75.8417 100.725H78.2012C78.355 100.725 78.5025 100.786 78.6113 100.895C78.7201 101.004 78.7812 101.151 78.7812 101.305C78.7812 101.459 78.7201 101.606 78.6113 101.715C78.5025 101.824 78.355 101.885 78.2012 101.885Z" fill="#EF233C" stroke="#263238" stroke-miterlimit="10"/>
<path d="M77.3354 107.275C78.3385 107.113 79.02 106.168 78.8578 105.165C78.6955 104.162 77.7508 103.48 76.7478 103.643C75.7448 103.805 75.0632 104.75 75.2255 105.753C75.3877 106.756 76.3324 107.437 77.3354 107.275Z" fill="#EF233C" stroke="#263238" stroke-miterlimit="10"/>
<path d="M78.1026 105.451C78.1031 105.243 78.0417 105.039 77.9263 104.865C77.8108 104.692 77.6465 104.556 77.454 104.476C77.2616 104.396 77.0498 104.375 76.8453 104.415C76.6408 104.456 76.4529 104.556 76.3054 104.703C76.1579 104.85 76.0573 105.038 76.0165 105.242C75.9757 105.447 75.9964 105.659 76.076 105.851C76.1557 106.044 76.2907 106.209 76.464 106.324C76.6372 106.44 76.8409 106.502 77.0494 106.502C77.1876 106.502 77.3245 106.475 77.4523 106.423C77.58 106.37 77.6962 106.293 77.794 106.195C77.8919 106.097 77.9695 105.981 78.0224 105.854C78.0754 105.726 78.1026 105.589 78.1026 105.451Z" fill="white" stroke="#263238" stroke-miterlimit="10"/>
<path d="M75.9277 103.374L76.7374 105.546C76.7637 105.614 76.8102 105.673 76.8707 105.715C76.9312 105.756 77.0028 105.778 77.0761 105.778C77.1535 105.778 77.2289 105.753 77.2908 105.706C77.3527 105.66 77.3979 105.595 77.4195 105.52L78.0529 103.372L75.9277 103.374Z" fill="white" stroke="#263238" stroke-miterlimit="10"/>
<path d="M78.5205 102.653H75.4883V103.44H78.5205V102.653Z" fill="white" stroke="#263238" stroke-miterlimit="10"/>
<path d="M74.3298 72.7158H17.2578V73.6137H74.3298V72.7158Z" fill="#EF233C" stroke="#263238" stroke-miterlimit="10"/>
<path d="M32.535 72.7158H17.2578V73.6137H32.535V72.7158Z" fill="#EF233C" stroke="#263238" stroke-miterlimit="10"/>
<path d="M34.4905 95.1016L33.5996 94.3569L75.5452 53.272L76.4361 54.0167L34.4905 95.1016Z" fill="#EF233C" stroke="#263238" stroke-miterlimit="10"/>
<path d="M76.2109 54.1766H34.8848V53.0166H76.2109C76.3639 53.0166 76.5108 53.0771 76.6194 53.1848C76.7281 53.2926 76.7897 53.4389 76.7909 53.592C76.7915 53.6685 76.777 53.7444 76.7481 53.8153C76.7192 53.8862 76.6766 53.9507 76.6227 54.0051C76.5688 54.0594 76.5046 54.1026 76.434 54.132C76.3633 54.1614 76.2875 54.1766 76.2109 54.1766Z" fill="#EF233C" stroke="#263238" stroke-miterlimit="10"/>
<path d="M14.8514 48.0171H13.6914V103.103H14.8514V48.0171Z" fill="#EF233C" stroke="#263238" stroke-miterlimit="10"/>
<path d="M15.5156 101.885H13.1562C13.0023 101.885 12.8548 101.824 12.7461 101.715C12.6373 101.606 12.5762 101.459 12.5762 101.305C12.5762 101.151 12.6373 101.004 12.7461 100.895C12.8548 100.786 13.0023 100.725 13.1562 100.725H15.5156C15.6694 100.725 15.817 100.786 15.9257 100.895C16.0345 101.004 16.0956 101.151 16.0956 101.305C16.0956 101.459 16.0345 101.606 15.9257 101.715C15.817 101.824 15.6694 101.885 15.5156 101.885Z" fill="#EF233C" stroke="#263238" stroke-miterlimit="10"/>
<path d="M14.5286 107.264C15.5315 107.102 16.2126 106.157 16.0498 105.154C15.887 104.151 14.942 103.47 13.939 103.632C12.9361 103.795 12.255 104.74 12.4178 105.743C12.5806 106.746 13.5256 107.427 14.5286 107.264Z" fill="#EF233C" stroke="#263238" stroke-miterlimit="10"/>
<path d="M15.2804 105.451C15.2808 105.243 15.2194 105.039 15.1038 104.865C14.9883 104.691 14.8238 104.556 14.6313 104.476C14.4387 104.396 14.2267 104.375 14.0222 104.416C13.8177 104.456 13.6298 104.557 13.4823 104.704C13.3349 104.851 13.2345 105.039 13.194 105.244C13.1534 105.448 13.1744 105.66 13.2544 105.853C13.3345 106.045 13.4698 106.21 13.6434 106.326C13.8169 106.441 14.0209 106.503 14.2294 106.502C14.5082 106.502 14.7755 106.391 14.9726 106.194C15.1697 105.997 15.2804 105.73 15.2804 105.451Z" fill="white" stroke="#263238" stroke-miterlimit="10"/>
<path d="M13.1094 103.374L13.9191 105.546C13.9444 105.615 13.9903 105.674 14.0505 105.715C14.1107 105.757 14.1823 105.779 14.2555 105.778C14.3332 105.778 14.4088 105.753 14.4712 105.707C14.5335 105.66 14.5791 105.595 14.6011 105.52L15.2322 103.372L13.1094 103.374Z" fill="white" stroke="#263238" stroke-miterlimit="10"/>
<path d="M15.6983 102.653H12.666V103.44H15.6983V102.653Z" fill="white" stroke="#263238" stroke-miterlimit="10"/>
<path d="M34.8859 54.1766H15.0429C14.8891 54.1766 14.7415 54.1155 14.6328 54.0067C14.524 53.898 14.4629 53.7504 14.4629 53.5966C14.4629 53.4428 14.524 53.2952 14.6328 53.1865C14.7415 53.0777 14.8891 53.0166 15.0429 53.0166H34.8859V54.1766Z" fill="#EF233C" stroke="#263238" stroke-miterlimit="10"/>
<path d="M34.8859 64.4823H15.0429C14.8891 64.4823 14.7415 64.4212 14.6328 64.3124C14.524 64.2036 14.4629 64.0561 14.4629 63.9023C14.4629 63.7484 14.524 63.6009 14.6328 63.4921C14.7415 63.3834 14.8891 63.3223 15.0429 63.3223H34.8859V64.4823Z" fill="#EF233C" stroke="#263238" stroke-miterlimit="10"/>
<path d="M34.8859 74.7874H15.0429C14.9666 74.7877 14.8911 74.773 14.8206 74.7439C14.7501 74.7149 14.686 74.6722 14.6321 74.6182C14.5782 74.5643 14.5355 74.5003 14.5064 74.4298C14.4774 74.3593 14.4626 74.2837 14.4629 74.2074C14.4629 74.0536 14.524 73.9061 14.6328 73.7973C14.7415 73.6885 14.8891 73.6274 15.0429 73.6274H34.8859V74.7874Z" fill="#EF233C" stroke="#263238" stroke-miterlimit="10"/>
<path d="M34.8859 85.0955H15.0429C14.8891 85.0955 14.7415 85.0344 14.6328 84.9257C14.524 84.8169 14.4629 84.6694 14.4629 84.5155C14.4629 84.3617 14.524 84.2142 14.6328 84.1054C14.7415 83.9967 14.8891 83.9355 15.0429 83.9355H34.8859V85.0955Z" fill="#EF233C" stroke="#263238" stroke-miterlimit="10"/>
<path d="M34.8859 95.4007H15.0429C14.8891 95.4007 14.7415 95.3396 14.6328 95.2308C14.524 95.1221 14.4629 94.9745 14.4629 94.8207C14.4629 94.6669 14.524 94.5194 14.6328 94.4106C14.7415 94.3018 14.8891 94.2407 15.0429 94.2407H34.8859V95.4007Z" fill="#EF233C" stroke="#263238" stroke-miterlimit="10"/>
<path d="M35.5584 48.0171H34.3984V103.103H35.5584V48.0171Z" fill="#EF233C" stroke="#263238" stroke-miterlimit="10"/>
<path d="M36.1905 101.885H33.8241C33.6703 101.885 33.5228 101.824 33.414 101.715C33.3052 101.606 33.2441 101.459 33.2441 101.305C33.2441 101.151 33.3052 101.004 33.414 100.895C33.5228 100.786 33.6703 100.725 33.8241 100.725H36.1905C36.3444 100.725 36.4919 100.786 36.6007 100.895C36.7094 101.004 36.7705 101.151 36.7705 101.305C36.7705 101.459 36.7094 101.606 36.6007 101.715C36.4919 101.824 36.3444 101.885 36.1905 101.885Z" fill="#EF233C" stroke="#263238" stroke-miterlimit="10"/>
<path d="M35.314 107.272C36.317 107.11 36.9985 106.165 36.8363 105.162C36.674 104.159 35.7293 103.477 34.7263 103.64C33.7233 103.802 33.0417 104.747 33.204 105.75C33.3663 106.753 34.3109 107.434 35.314 107.272Z" fill="#EF233C" stroke="#263238" stroke-miterlimit="10"/>
<path d="M36.0831 105.451C36.0836 105.243 36.0222 105.039 35.9067 104.865C35.7913 104.692 35.6269 104.556 35.4345 104.476C35.2421 104.396 35.0303 104.375 34.8258 104.415C34.6213 104.456 34.4334 104.556 34.2859 104.703C34.1383 104.85 34.0378 105.038 33.997 105.242C33.9561 105.447 33.9769 105.659 34.0565 105.851C34.1362 106.044 34.2712 106.209 34.4444 106.324C34.6177 106.44 34.8214 106.502 35.0298 106.502C35.1681 106.502 35.305 106.475 35.4327 106.423C35.5605 106.37 35.6766 106.293 35.7745 106.195C35.8723 106.097 35.9499 105.981 36.0029 105.854C36.0559 105.726 36.0831 105.589 36.0831 105.451Z" fill="white" stroke="#263238" stroke-miterlimit="10"/>
<path d="M33.9102 103.374L34.7175 105.546C34.7438 105.614 34.7903 105.673 34.8508 105.715C34.9113 105.756 34.9829 105.778 35.0562 105.778C35.1339 105.778 35.2096 105.753 35.2719 105.707C35.3343 105.66 35.3799 105.595 35.4019 105.52L36.033 103.372L33.9102 103.374Z" fill="white" stroke="#263238" stroke-miterlimit="10"/>
<path d="M36.501 102.653H33.4688V103.44H36.501V102.653Z" fill="white" stroke="#263238" stroke-miterlimit="10"/>
<path d="M6.21094 6.94824H109.353" stroke="#263238" stroke-miterlimit="10"/>
<path d="M57.9067 7.54443H55.4707V8.95499H57.9067V7.54443Z" fill="white" stroke="#263238" stroke-miterlimit="10"/>
<path d="M60.6865 6.94824H52.6895V7.69528H60.6865V6.94824Z" fill="white" stroke="#263238" stroke-miterlimit="10"/>
<path d="M5.32031 107.291H108.818" stroke="#263238" stroke-miterlimit="10"/>
</svg>
