<svg width="116" height="116" viewBox="0 0 116 116" fill="none" xmlns="http://www.w3.org/2000/svg">
<path d="M76.8423 92.8945H74.8262V92.9524H76.8423V92.8945Z" fill="#EBEBEB"/>
<path d="M96.4618 90.1162H92.0098V90.1741H96.4618V90.1162Z" fill="#EBEBEB"/>
<path d="M22.19 90.5054H12.1699V90.5633H22.19V90.5054Z" fill="#EBEBEB"/>
<path d="M25.7264 90.5054H24.2578V90.5633H25.7264V90.5054Z" fill="#EBEBEB"/>
<path d="M52.2357 91.4824H30.502V91.5403H52.2357V91.4824Z" fill="#EBEBEB"/>
<path d="M55.3095 78.213H10.5103C10.1589 78.213 9.82198 78.0737 9.57355 77.8258C9.32512 77.5779 9.18555 77.2416 9.18555 76.8909V14.0449C9.18861 13.6962 9.32952 13.3629 9.57763 13.1175C9.82573 12.8721 10.1609 12.7344 10.5103 12.7344H55.3095C55.4834 12.7344 55.6557 12.7686 55.8164 12.835C55.9771 12.9015 56.1232 12.9988 56.2462 13.1216C56.3692 13.2444 56.4668 13.3901 56.5334 13.5505C56.5999 13.7109 56.6342 13.8828 56.6342 14.0565V76.8909C56.6342 77.0646 56.5999 77.2365 56.5334 77.3969C56.4668 77.5573 56.3692 77.703 56.2462 77.8258C56.1232 77.9486 55.9771 78.0459 55.8164 78.1124C55.6557 78.1788 55.4834 78.213 55.3095 78.213ZM10.5103 12.7807C10.1745 12.7813 9.85266 12.9147 9.61524 13.1516C9.37781 13.3886 9.24416 13.7098 9.24355 14.0449V76.8909C9.24416 77.226 9.37781 77.5472 9.61524 77.7842C9.85266 78.0211 10.1745 78.1545 10.5103 78.1551H55.3095C55.6452 78.1545 55.9671 78.0211 56.2045 77.7842C56.4419 77.5472 56.5756 77.226 56.5762 76.8909V14.0449C56.5756 13.7098 56.4419 13.3886 56.2045 13.1516C55.9671 12.9147 55.6452 12.7813 55.3095 12.7807H10.5103Z" fill="#EBEBEB"/>
<path d="M105.491 78.213H60.6919C60.3406 78.213 60.0036 78.0737 59.7552 77.8258C59.5068 77.5779 59.3672 77.2416 59.3672 76.8909V14.0449C59.3702 13.6962 59.5112 13.3629 59.7593 13.1175C60.0074 12.8721 60.3426 12.7344 60.6919 12.7344H105.491C105.842 12.7344 106.179 12.8737 106.428 13.1216C106.676 13.3695 106.816 13.7058 106.816 14.0565V76.8909C106.816 77.2416 106.676 77.5779 106.428 77.8258C106.179 78.0737 105.842 78.213 105.491 78.213ZM60.6919 12.7807C60.3561 12.7813 60.0343 12.9147 59.7969 13.1516C59.5595 13.3886 59.4258 13.7098 59.4252 14.0449V76.8909C59.4258 77.226 59.5595 77.5472 59.7969 77.7842C60.0343 78.0211 60.3561 78.1545 60.6919 78.1551H105.491C105.827 78.1545 106.149 78.0211 106.386 77.7842C106.624 77.5472 106.757 77.226 106.758 76.8909V14.0449C106.757 13.7098 106.624 13.3886 106.386 13.1516C106.149 12.9147 105.827 12.7813 105.491 12.7807H60.6919Z" fill="#EBEBEB"/>
<path d="M116 88.5396H0V88.5974H116V88.5396Z" fill="#EBEBEB"/>
<path d="M61.1317 72.9966H42.5137V88.5906H61.1317V72.9966Z" fill="#F0F0F0"/>
<path d="M46.0877 74.9414H43.7051V77.3193H46.0877V74.9414Z" fill="#FAFAFA"/>
<path d="M50.703 74.9414H48.3203V77.3193H50.703V74.9414Z" fill="#FAFAFA"/>
<path d="M55.3221 74.9414H52.9395V77.3193H55.3221V74.9414Z" fill="#FAFAFA"/>
<path d="M59.9393 74.9414H57.5566V77.3193H59.9393V74.9414Z" fill="#FAFAFA"/>
<path d="M46.0877 79.2617H43.7051V81.6396H46.0877V79.2617Z" fill="#FAFAFA"/>
<path d="M50.703 79.2617H48.3203V81.6396H50.703V79.2617Z" fill="#FAFAFA"/>
<path d="M55.3221 79.2617H52.9395V81.6396H55.3221V79.2617Z" fill="#FAFAFA"/>
<path d="M59.9393 79.2617H57.5566V81.6396H59.9393V79.2617Z" fill="#FAFAFA"/>
<path d="M46.0877 83.5845H43.7051V85.9624H46.0877V83.5845Z" fill="#FAFAFA"/>
<path d="M50.703 83.5845H48.3203V85.9624H50.703V83.5845Z" fill="#FAFAFA"/>
<path d="M55.3221 83.5845H52.9395V85.9624H55.3221V83.5845Z" fill="#FAFAFA"/>
<path d="M59.9393 83.5845H57.5566V85.9624H59.9393V83.5845Z" fill="#FAFAFA"/>
<path d="M57.2012 45.9182V40.0742H56.6049V45.9182H57.2012Z" fill="#EBEBEB"/>
<path d="M43.709 45.9182V40.0742H43.1127V45.9182H43.709Z" fill="#EBEBEB"/>
<path d="M50.4551 45.9182V40.0742H49.8588V45.9182H50.4551Z" fill="#EBEBEB"/>
<path d="M42.5123 45.9185H57.7988V45.3234H42.5123V45.9185Z" fill="#F5F5F5"/>
<path d="M42.5123 40.373H57.7988V39.778H42.5123V40.373Z" fill="#F5F5F5"/>
<path d="M57.1992 40.3728V34.5288H56.603V40.3728H57.1992Z" fill="#EBEBEB"/>
<path d="M43.709 40.3708V34.5269H43.1127V40.3708H43.709Z" fill="#EBEBEB"/>
<path d="M50.4551 40.3708V34.5269H49.8588V40.3708H50.4551Z" fill="#EBEBEB"/>
<path d="M42.5123 34.8252H57.7988V34.2301H42.5123V34.8252Z" fill="#F5F5F5"/>
<path d="M61.1317 45.8721H42.5137V72.9966H61.1317V45.8721Z" fill="#FAFAFA"/>
<path d="M50.7068 47.062H43.7051V53.7627H50.7068V47.062Z" fill="#F0F0F0"/>
<path d="M59.9412 47.062H52.9395V53.7627H59.9412V47.062Z" fill="#F0F0F0"/>
<path d="M50.7068 55.7075H43.7051V62.4082H50.7068V55.7075Z" fill="#F0F0F0"/>
<path d="M59.9412 55.7075H52.9395V62.4082H59.9412V55.7075Z" fill="#F0F0F0"/>
<path d="M50.7068 64.353H43.7051V71.0537H50.7068V64.353Z" fill="#F0F0F0"/>
<path d="M59.9412 64.353H52.9395V71.0537H59.9412V64.353Z" fill="#F0F0F0"/>
<path d="M99.6512 58.1182H82.0215V88.5421H99.6512V58.1182Z" fill="#F0F0F0"/>
<path d="M85.4062 53.8647V58.1158H86.7959H94.8742H96.2662V53.8647H85.4062Z" fill="#F0F0F0"/>
<path d="M85.4058 59.2432H83.1484V61.496H85.4058V59.2432Z" fill="#FAFAFA"/>
<path d="M89.7788 59.2432H87.5215V61.496H89.7788V59.2432Z" fill="#FAFAFA"/>
<path d="M94.1499 59.2432H91.8926V61.496H94.1499V59.2432Z" fill="#FAFAFA"/>
<path d="M98.523 59.2432H96.2656V61.496H98.523V59.2432Z" fill="#FAFAFA"/>
<path d="M85.4058 63.3369H83.1484V65.5898H85.4058V63.3369Z" fill="#FAFAFA"/>
<path d="M89.7788 63.3369H87.5215V65.5898H89.7788V63.3369Z" fill="#FAFAFA"/>
<path d="M94.1499 63.3369H91.8926V65.5898H94.1499V63.3369Z" fill="#FAFAFA"/>
<path d="M98.523 63.3369H96.2656V65.5898H98.523V63.3369Z" fill="#FAFAFA"/>
<path d="M85.4058 67.4282H83.1484V69.6811H85.4058V67.4282Z" fill="#FAFAFA"/>
<path d="M89.7788 67.4282H87.5215V69.6811H89.7788V67.4282Z" fill="#FAFAFA"/>
<path d="M94.1499 67.4282H91.8926V69.6811H94.1499V67.4282Z" fill="#FAFAFA"/>
<path d="M89.7788 55.7051H87.5215V57.9579H89.7788V55.7051Z" fill="#FAFAFA"/>
<path d="M94.1499 55.7051H91.8926V57.9579H94.1499V55.7051Z" fill="#FAFAFA"/>
<path d="M98.523 67.4282H96.2656V69.6811H98.523V67.4282Z" fill="#FAFAFA"/>
<path d="M85.4058 71.5215H83.1484V73.7743H85.4058V71.5215Z" fill="#FAFAFA"/>
<path d="M89.7788 71.5215H87.5215V73.7743H89.7788V71.5215Z" fill="#FAFAFA"/>
<path d="M94.1499 71.5215H91.8926V73.7743H94.1499V71.5215Z" fill="#FAFAFA"/>
<path d="M98.523 71.5215H96.2656V73.7743H98.523V71.5215Z" fill="#FAFAFA"/>
<path d="M85.4058 75.6152H83.1484V77.8681H85.4058V75.6152Z" fill="#FAFAFA"/>
<path d="M89.7788 75.6152H87.5215V77.8681H89.7788V75.6152Z" fill="#FAFAFA"/>
<path d="M94.1499 75.6152H91.8926V77.8681H94.1499V75.6152Z" fill="#FAFAFA"/>
<path d="M98.523 75.6152H96.2656V77.8681H98.523V75.6152Z" fill="#FAFAFA"/>
<path d="M85.4058 79.7065H83.1484V81.9594H85.4058V79.7065Z" fill="#FAFAFA"/>
<path d="M89.7788 79.7065H87.5215V81.9594H89.7788V79.7065Z" fill="#FAFAFA"/>
<path d="M94.1499 79.7065H91.8926V81.9594H94.1499V79.7065Z" fill="#FAFAFA"/>
<path d="M98.523 79.7065H96.2656V81.9594H98.523V79.7065Z" fill="#FAFAFA"/>
<path d="M85.4058 83.7998H83.1484V86.0527H85.4058V83.7998Z" fill="#FAFAFA"/>
<path d="M89.7788 83.7998H87.5215V86.0527H89.7788V83.7998Z" fill="#FAFAFA"/>
<path d="M94.1499 83.7998H91.8926V86.0527H94.1499V83.7998Z" fill="#FAFAFA"/>
<path d="M98.523 83.7998H96.2656V86.0527H98.523V83.7998Z" fill="#FAFAFA"/>
<path d="M81.6575 58.1411H100.016V57.6827H81.6575V58.1411Z" fill="#F5F5F5"/>
<path d="M96.2656 53.8647V49.3613H95.8063V53.8647H96.2656Z" fill="#EBEBEB"/>
<path d="M85.8672 53.8647V49.3613H85.4078V53.8647H85.8672Z" fill="#EBEBEB"/>
<path d="M91.0664 53.8647V49.3613H90.607V53.8647H91.0664Z" fill="#EBEBEB"/>
<path d="M84.9476 53.8647H96.7285V53.4063H84.9476V53.8647Z" fill="#F5F5F5"/>
<path d="M84.9476 49.5903H96.7285V49.1319H84.9476V49.5903Z" fill="#F5F5F5"/>
<path d="M96.2656 49.5903V45.0869H95.8063V49.5903H96.2656Z" fill="#EBEBEB"/>
<path d="M85.8672 49.5903V45.0869H85.4078V49.5903H85.8672Z" fill="#EBEBEB"/>
<path d="M91.0664 49.5903V45.0869H90.607V49.5903H91.0664Z" fill="#EBEBEB"/>
<path d="M84.9476 45.3164H96.7285V44.858H84.9476V45.3164Z" fill="#F5F5F5"/>
<path d="M96.2656 45.3164V40.813H95.8063V45.3164H96.2656Z" fill="#EBEBEB"/>
<path d="M85.8672 45.3164V40.813H85.4078V45.3164H85.8672Z" fill="#EBEBEB"/>
<path d="M91.0664 45.3164V40.813H90.607V45.3164H91.0664Z" fill="#EBEBEB"/>
<path d="M84.9476 41.042H96.7285V40.5836H84.9476V41.042Z" fill="#F5F5F5"/>
<path d="M96.2656 41.042V36.5386H95.8063V41.042H96.2656Z" fill="#EBEBEB"/>
<path d="M85.8672 41.042V36.5386H85.4078V41.042H85.8672Z" fill="#EBEBEB"/>
<path d="M91.0664 41.042V36.5386H90.607V41.042H91.0664Z" fill="#EBEBEB"/>
<path d="M84.9476 36.7681H96.7285V36.3096H84.9476V36.7681Z" fill="#F5F5F5"/>
<path d="M82.2339 52.376H61.2773V88.542H82.2339V52.376Z" fill="#EBEBEB"/>
<path d="M65.3008 47.3213V52.3734H66.9549H76.5574H78.2093V47.3213H65.3008Z" fill="#EBEBEB"/>
<path d="M65.3034 53.7139H62.6191V56.3927H65.3034V53.7139Z" fill="#FAFAFA"/>
<path d="M70.4983 53.7139H67.8164V56.3927H70.4983V53.7139Z" fill="#FAFAFA"/>
<path d="M75.6956 53.7139H73.0137V56.3927H75.6956V53.7139Z" fill="#FAFAFA"/>
<path d="M80.8932 53.7139H78.209V56.3927H80.8932V53.7139Z" fill="#FAFAFA"/>
<path d="M65.3034 58.5786H62.6191V61.2575H65.3034V58.5786Z" fill="#FAFAFA"/>
<path d="M70.4983 58.5786H67.8164V61.2575H70.4983V58.5786Z" fill="#FAFAFA"/>
<path d="M75.6956 58.5786H73.0137V61.2575H75.6956V58.5786Z" fill="#FAFAFA"/>
<path d="M80.8932 58.5786H78.209V61.2575H80.8932V58.5786Z" fill="#FAFAFA"/>
<path d="M65.3034 63.4434H62.6191V66.1222H65.3034V63.4434Z" fill="#FAFAFA"/>
<path d="M70.4983 63.4434H67.8164V66.1222H70.4983V63.4434Z" fill="#FAFAFA"/>
<path d="M75.6956 63.4434H73.0137V66.1222H75.6956V63.4434Z" fill="#FAFAFA"/>
<path d="M70.4983 49.5093H67.8164V52.1858H70.4983V49.5093Z" fill="#FAFAFA"/>
<path d="M75.6956 49.5093H73.0137V52.1858H75.6956V49.5093Z" fill="#FAFAFA"/>
<path d="M80.8932 63.4434H78.209V66.1222H80.8932V63.4434Z" fill="#FAFAFA"/>
<path d="M65.3034 68.3101H62.6191V70.9889H65.3034V68.3101Z" fill="#FAFAFA"/>
<path d="M70.4983 68.3101H67.8164V70.9889H70.4983V68.3101Z" fill="#FAFAFA"/>
<path d="M75.6956 68.3101H73.0137V70.9889H75.6956V68.3101Z" fill="#FAFAFA"/>
<path d="M80.8932 68.3101H78.209V70.9889H80.8932V68.3101Z" fill="#FAFAFA"/>
<path d="M65.3034 73.1748H62.6191V75.8537H65.3034V73.1748Z" fill="#FAFAFA"/>
<path d="M70.4983 73.1748H67.8164V75.8537H70.4983V73.1748Z" fill="#FAFAFA"/>
<path d="M75.6956 73.1748H73.0137V75.8537H75.6956V73.1748Z" fill="#FAFAFA"/>
<path d="M80.8932 73.1748H78.209V75.8537H80.8932V73.1748Z" fill="#FAFAFA"/>
<path d="M65.3034 78.0396H62.6191V80.7161H65.3034V78.0396Z" fill="#FAFAFA"/>
<path d="M70.4983 78.0396H67.8164V80.7161H70.4983V78.0396Z" fill="#FAFAFA"/>
<path d="M75.6956 78.0396H73.0137V80.7161H75.6956V78.0396Z" fill="#FAFAFA"/>
<path d="M80.8932 78.0396H78.209V80.7161H80.8932V78.0396Z" fill="#FAFAFA"/>
<path d="M65.3034 82.9062H62.6191V85.5851H65.3034V82.9062Z" fill="#FAFAFA"/>
<path d="M70.4983 82.9062H67.8164V85.5851H70.4983V82.9062Z" fill="#FAFAFA"/>
<path d="M75.6956 82.9062H73.0137V85.5851H75.6956V82.9062Z" fill="#FAFAFA"/>
<path d="M80.8932 82.9062H78.209V85.5851H80.8932V82.9062Z" fill="#FAFAFA"/>
<path d="M60.8461 52.4014H82.668V51.8549H60.8461V52.4014Z" fill="#F5F5F5"/>
<path d="M78.209 47.3213V41.9658H77.6615V47.3213H78.209Z" fill="#EBEBEB"/>
<path d="M65.8477 47.3213V41.9658H65.3001V47.3213H65.8477Z" fill="#EBEBEB"/>
<path d="M72.0293 47.3213V41.9658H71.4818V47.3213H72.0293Z" fill="#EBEBEB"/>
<path d="M64.7562 47.3213H78.7598V46.7749H64.7562V47.3213Z" fill="#F5F5F5"/>
<path d="M64.7562 42.2393H78.7598V41.6928H64.7562V42.2393Z" fill="#F5F5F5"/>
<path d="M78.209 42.2417V36.8862H77.6615V42.2417H78.209Z" fill="#EBEBEB"/>
<path d="M65.8477 42.2417V36.8862H65.3001V42.2417H65.8477Z" fill="#EBEBEB"/>
<path d="M72.0293 42.2417V36.8862H71.4818V42.2417H72.0293Z" fill="#EBEBEB"/>
<path d="M64.7562 37.1567H78.7598V36.6103H64.7562V37.1567Z" fill="#F5F5F5"/>
<path d="M78.209 37.1592V31.8037H77.6615V37.1592H78.209Z" fill="#EBEBEB"/>
<path d="M65.8516 37.1592V31.8037H65.304V37.1592H65.8516Z" fill="#EBEBEB"/>
<path d="M72.0312 37.1592V31.8037H71.4837V37.1592H72.0312Z" fill="#EBEBEB"/>
<path d="M64.7562 32.0771H78.7598V31.5307H64.7562V32.0771Z" fill="#F5F5F5"/>
<path d="M65.8477 32.0771V26.7217H65.3001V32.0771H65.8477Z" fill="#EBEBEB"/>
<path d="M72.0293 32.0771V26.7217H71.4818V32.0771H72.0293Z" fill="#EBEBEB"/>
<path d="M72.8765 38.31V37.1755C72.8809 37.1426 72.897 37.1124 72.922 37.0906C72.947 37.0687 72.979 37.0566 73.0123 37.0566C73.0455 37.0566 73.0776 37.0687 73.1026 37.0906C73.1275 37.1124 73.1437 37.1426 73.148 37.1755V38.4212C73.1474 38.4568 73.1331 38.4909 73.1081 38.5163C73.083 38.5417 73.0491 38.5566 73.0134 38.5578C72.5842 38.5995 72.271 39.132 72.6283 39.4839C72.7065 39.554 72.803 39.6005 72.9066 39.6182C73.0102 39.6358 73.1166 39.6239 73.2137 39.5837C73.3108 39.5435 73.3944 39.4767 73.4551 39.391C73.5157 39.3053 73.5508 39.2043 73.5563 39.0996C73.5725 38.9282 73.844 38.9259 73.8277 39.0996C73.7581 39.771 72.9717 40.2179 72.4357 39.6761C71.9369 39.1737 72.278 38.4605 72.8765 38.31Z" fill="#EBEBEB"/>
<path d="M92.5 30.1669V53.5058H95.7642V30.1669H95.5833L95.4557 30.0396L92.8619 32.6258V30.1669H92.5ZM95.4023 50.2435H93.1171L95.4023 47.9651V50.2435ZM95.4023 44.455H93.1171L95.4023 42.1767V44.455ZM95.4023 38.6666H93.1171L95.4023 36.386V38.6666ZM95.4023 32.8782H93.1171L95.4023 30.5999V32.8782ZM95.4023 33.2394V35.5177L93.1171 33.2394H95.4023ZM95.1448 35.7724H92.8619V33.4941L95.1448 35.7724ZM95.4023 39.0278V41.3085L93.1171 39.0278H95.4023ZM95.1448 41.5747H92.8619V39.2964L95.1448 41.5747ZM95.4023 44.8301V47.1085L93.1171 44.8301H95.4023ZM95.1448 47.3631H92.8619V45.0848L95.1448 47.3631ZM95.4023 50.6209V52.8992L93.1171 50.6209H95.4023ZM92.8503 53.1539V50.8756L95.1332 53.1539H92.8503ZM92.8503 47.7243H95.1332L92.8503 50.005V47.7243ZM92.8503 41.9359H95.1332L92.8503 44.2142V41.9359ZM92.8503 36.1475H95.1332L92.8503 38.4258V36.1475Z" fill="#F0F0F0"/>
<path d="M92.8652 22.4775V27.0018H93.0462L93.1738 27.1291L95.0298 25.2768V27.0133H95.3917V22.4775H92.8652ZM95.0391 22.8387V24.3947L93.4824 22.8387H95.0391ZM93.2272 25.0059H94.7839L93.2272 26.5619V25.0059ZM93.2272 24.6447V23.0934L94.7839 24.6494L93.2272 24.6447Z" fill="#F0F0F0"/>
<path d="M101.359 34.5083H105.709V30.167H101.359V34.5083Z" fill="#E6E6E6"/>
<path d="M72.9551 36.4297H73.1964V28.0805L93.4546 21.3775H94.7956L105.644 28.0967L105.771 27.893L94.8652 21.1367H93.4175L93.3989 21.1413L72.9551 27.9069V36.4297Z" fill="#E6E6E6"/>
<path d="M75.4296 30.3475H105.887V27.8145H72.6387L75.1907 30.3614H75.4389L75.4296 30.3475ZM75.0677 29.7293L73.511 28.1757H75.0677V29.7293ZM103.968 29.9863L105.527 28.4303V29.9863H103.968ZM103.713 28.1757H105.269L103.703 29.7293L103.713 28.1757ZM103.351 29.7293L101.792 28.1757H103.351V29.7293ZM101.537 28.4303L103.096 29.9863H101.537V28.4303ZM99.618 29.9863L101.175 28.4303V29.9863H99.618ZM99.3604 28.1757H100.919L99.3604 29.7293V28.1757ZM98.9985 29.7293L97.4395 28.1757H98.9962L98.9985 29.7293ZM97.1866 28.4303L98.7433 29.9863H97.1866V28.4303ZM95.2656 29.9863L96.8247 28.4303V29.9863H95.2656ZM95.0104 28.1757H96.5671L95.0104 29.7293V28.1757ZM94.6555 29.7293L93.0964 28.1757H94.6555V29.7293ZM92.8412 28.4303L94.4003 29.9863H92.8412V28.4303ZM90.9226 29.9863L92.4793 28.4303V29.9863H90.9226ZM90.6651 28.1757H92.2241L90.6651 29.7293V28.1757ZM90.3055 29.7293L88.7464 28.1757H90.3055V29.7293ZM88.4912 28.4303L90.048 29.9863H88.4843L88.4912 28.4303ZM86.5703 29.9863L88.1293 28.4303V29.9863H86.5703ZM86.3151 28.1757H87.8741L86.3035 29.7293L86.3151 28.1757ZM85.9531 29.7293L84.3941 28.1757H85.9531V29.7293ZM84.1389 28.4303L85.698 29.9863H84.1389V28.4303ZM82.2203 29.9863L83.777 28.4303V29.9863H82.2203ZM81.9651 28.1757H83.5195L81.9628 29.7293L81.9651 28.1757ZM81.6031 29.7293L80.0395 28.1757H81.5985L81.6031 29.7293ZM79.7889 28.4303L81.3456 29.9863H79.7889V28.4303ZM79.427 29.7293L77.868 28.1757H79.427V29.7293ZM77.6128 28.4303L79.1718 29.9863H77.6128V28.4303ZM75.6941 29.9863L77.2508 28.4303V29.9863H75.6941ZM75.4366 29.7293V28.1757H76.9956L75.4366 29.7293Z" fill="#F0F0F0"/>
<path d="M90.8926 31.1506H97.5835L97.3399 28.3421C97.3079 27.976 97.1396 27.6352 96.8681 27.387C96.5967 27.1388 96.2418 27.0012 95.8736 27.0015H92.6859C92.3251 27.0013 91.9768 27.1336 91.7073 27.3731C91.4378 27.6126 91.2659 27.9426 91.2243 28.3004L90.8926 31.1506Z" fill="#F0F0F0"/>
<path d="M95.2206 29.4492H96.5059V28.1665H95.2206V29.4492Z" fill="#FAFAFA"/>
<path d="M93.5956 29.4492H94.8809V28.1665H93.5956V29.4492Z" fill="#FAFAFA"/>
<path d="M91.9725 29.4492H93.2578V28.1665H91.9725V29.4492Z" fill="#FAFAFA"/>
<path d="M94.1309 22.6606C94.6152 22.6606 95.0078 22.2687 95.0078 21.7854C95.0078 21.302 94.6152 20.9102 94.1309 20.9102C93.6465 20.9102 93.2539 21.302 93.2539 21.7854C93.2539 22.2687 93.6465 22.6606 94.1309 22.6606Z" fill="#E6E6E6"/>
<path d="M73.013 37.9231C73.1113 37.9231 73.2087 37.9037 73.2994 37.8661C73.3902 37.8285 73.4727 37.7734 73.5421 37.7039C73.6115 37.6344 73.6665 37.552 73.7039 37.4613C73.7413 37.3705 73.7604 37.2733 73.7601 37.1752V36.4297H72.2637V37.1752C72.2637 37.3736 72.3426 37.5638 72.4832 37.7041C72.6237 37.8443 72.8143 37.9231 73.013 37.9231Z" fill="#E6E6E6"/>
<path d="M69.9536 32.2807V31.3106C69.9536 31.2799 69.9414 31.2504 69.9196 31.2287C69.8979 31.207 69.8684 31.1948 69.8376 31.1948C69.8068 31.1948 69.7773 31.207 69.7556 31.2287C69.7338 31.2504 69.7216 31.2799 69.7216 31.3106V32.3757C69.7222 32.4062 69.7346 32.4353 69.7562 32.4569C69.7779 32.4785 69.807 32.4908 69.8376 32.4914C70.2041 32.5285 70.4733 32.9823 70.1694 33.2856C70.1023 33.3462 70.0195 33.3865 69.9304 33.402C69.8414 33.4174 69.7498 33.4074 69.6662 33.3729C69.5826 33.3385 69.5106 33.2812 69.4584 33.2075C69.4062 33.1338 69.376 33.0469 69.3713 32.9568C69.3574 32.8086 69.1254 32.8086 69.1393 32.9568C69.1973 33.531 69.8724 33.9131 70.3318 33.45C70.7911 32.9869 70.4663 32.415 69.9536 32.2807Z" fill="#EBEBEB"/>
<path d="M52.859 25.3139V27.4163L50.6434 25.2051L50.532 25.3139H50.3789V45.277H53.1629V25.3139H52.859ZM50.6875 40.5421L52.6409 42.4916H50.6875V40.5421ZM50.6875 35.5895L52.6409 37.5391H50.6875V35.5895ZM50.6875 30.6393L52.6409 32.5865H50.6875V30.6393ZM50.6875 25.6867L52.6409 27.6362H50.6875V25.6867ZM52.6409 27.9442L50.6875 29.8937V27.9442H52.6409ZM52.859 28.1618V30.1113H50.9055L52.859 28.1618ZM52.6409 32.8967L50.6875 34.844V32.8967H52.6409ZM52.859 33.1144V35.0639H50.9055L52.859 33.1144ZM52.6409 37.847L50.6875 39.7965V37.847H52.6409ZM52.859 38.067V40.0142H50.9055L52.859 38.067ZM52.6409 42.7996L50.6875 44.7491V42.7996H52.6409ZM50.9055 44.9668L52.859 43.0172V44.9668H50.9055ZM52.859 42.274L50.9055 40.3244H52.859V42.274ZM52.859 37.3214L50.9055 35.3719H52.859V37.3214ZM52.859 32.3688L50.9055 30.4193H52.859V32.3688Z" fill="#EBEBEB"/>
<path d="M50.6875 18.7383V22.6073H50.9984V21.1231L52.5945 22.7161L52.7036 22.6073H52.859V18.7383H50.6875ZM52.3301 19.0462L50.9984 20.3752V19.0462H52.3301ZM52.5481 22.2275L51.2165 20.8962H52.5481V22.2275ZM51.2165 20.6068L52.5481 19.2778V20.6068H51.2165Z" fill="#EBEBEB"/>
<path d="M45.5943 25.314H41.873V29.0278H45.5943V25.314Z" fill="#F0F0F0"/>
<path d="M69.8877 30.6717H69.6812V23.5311L52.3531 17.7959H51.207L41.927 23.545L41.8203 23.369L51.149 17.5898H52.3856L52.4018 17.5968L69.8877 23.3829V30.6717Z" fill="#E6E6E6"/>
<path d="M67.77 25.4687H67.9765L70.1527 23.2969H41.7188V25.4687H67.77ZM68.0786 23.6164H69.4126L68.0786 24.9454V23.6164ZM42.0296 25.1631V23.834L43.3613 25.1631H42.0296ZM43.5794 24.9454L42.2477 23.6164H43.5794V24.9454ZM43.8903 23.6164H45.2219L43.8903 24.9454V23.6164ZM45.44 25.1631H44.1083L45.44 23.834V25.1631ZM45.7509 25.1631V23.834L47.0826 25.1631H45.7509ZM47.3007 24.9454L45.969 23.6164H47.3007V24.9454ZM47.6115 23.6164H48.9525L47.6208 24.9454L47.6115 23.6164ZM49.1613 25.1631H47.8296L49.1613 23.834V25.1631ZM49.4722 25.1631V23.834L50.8039 25.1631H49.4722ZM51.0219 24.9454L49.6903 23.6164H51.0219V24.9454ZM51.3328 23.6164H52.6645L51.3328 24.9454V23.6164ZM52.8849 25.1631H51.5509L52.8849 23.834V25.1631ZM53.1935 25.1631V23.834L54.5251 25.1631H53.1935ZM54.7455 24.9454L53.4115 23.6164H54.7525L54.7455 24.9454ZM55.0541 23.6164H56.3765L55.0448 24.9454L55.0541 23.6164ZM56.6062 25.1631H55.2722L56.6062 23.834V25.1631ZM56.9147 25.1631V23.834L58.2464 25.1631H56.9147ZM58.4668 24.9454L57.1328 23.6164H58.4645L58.4668 24.9454ZM58.7754 23.6164H60.1071L58.7754 24.9454V23.6164ZM60.3275 25.1631H58.9935L60.3275 23.834V25.1631ZM60.636 25.1631V23.834L61.9677 25.1631H60.636ZM62.1881 24.9454L60.8541 23.6164H62.1881V24.9454ZM62.4967 23.6164H63.8283L62.4967 24.9454V23.6164ZM64.0487 25.1631H62.7148L64.0487 23.834V25.1631ZM64.3573 23.6164H65.689L64.3573 24.9454V23.6164ZM65.9094 25.1631H64.5754L65.9094 23.834V25.1631ZM66.218 25.1631V23.834L67.5496 25.1631H66.218ZM66.436 23.6164H67.77V24.9454L66.436 23.6164Z" fill="#EBEBEB"/>
<path d="M54.5434 26.1636H48.8223L49.0311 23.7602C49.0556 23.4453 49.1982 23.1512 49.4304 22.9367C49.6626 22.7221 49.9674 22.6028 50.2839 22.6025H53.0122C53.3207 22.6023 53.6186 22.7155 53.8488 22.9205C54.0791 23.1255 54.2256 23.4079 54.2603 23.7139L54.5434 26.1636Z" fill="#EBEBEB"/>
<path d="M50.8458 23.605H49.7461V24.7025H50.8458V23.605Z" fill="#FAFAFA"/>
<path d="M52.2325 23.605H51.1328V24.7025H52.2325V23.605Z" fill="#FAFAFA"/>
<path d="M53.6231 23.605H52.5234V24.7025H53.6231V23.605Z" fill="#FAFAFA"/>
<path d="M52.5222 18.1453C52.5222 18.2932 52.4782 18.4378 52.3959 18.5608C52.3135 18.6838 52.1965 18.7797 52.0596 18.8363C51.9226 18.8929 51.772 18.9077 51.6266 18.8788C51.4812 18.85 51.3477 18.7787 51.2429 18.6741C51.1381 18.5696 51.0668 18.4363 51.0378 18.2912C51.0089 18.1462 51.0238 17.9958 51.0805 17.8591C51.1372 17.7225 51.2332 17.6057 51.3565 17.5235C51.4797 17.4413 51.6246 17.3975 51.7728 17.3975C51.8712 17.3975 51.9686 17.4168 52.0596 17.4544C52.1505 17.492 52.2331 17.5471 52.3027 17.6165C52.3723 17.686 52.4275 17.7684 52.4651 17.8591C52.5028 17.9499 52.5222 18.0471 52.5222 18.1453Z" fill="#E6E6E6"/>
<path d="M69.8317 31.952C69.6623 31.952 69.4998 31.885 69.3798 31.7657C69.2598 31.6463 69.192 31.4844 69.1914 31.3153V30.6763H70.4721V31.3153C70.4721 31.3991 70.4555 31.4821 70.4233 31.5595C70.3911 31.6369 70.3439 31.7072 70.2844 31.7664C70.2249 31.8255 70.1543 31.8724 70.0766 31.9042C69.9989 31.9361 69.9157 31.9523 69.8317 31.952Z" fill="#E6E6E6"/>
<path d="M58.0001 98.8685C82.8432 98.8685 102.983 97.695 102.983 96.2475C102.983 94.7999 82.8432 93.6265 58.0001 93.6265C33.1569 93.6265 13.0176 94.7999 13.0176 96.2475C13.0176 97.695 33.1569 98.8685 58.0001 98.8685Z" fill="#F5F5F5"/>
<path d="M56.6336 15.2026H13.0176V96.2475H56.6336V15.2026Z" fill="#263238"/>
<path opacity="0.7" d="M56.6336 15.2026H13.0176V96.2475H56.6336V15.2026Z" fill="white"/>
<path d="M39.7848 72.9712H44.2067C45.0741 72.9712 45.7773 72.2694 45.7773 71.4037V70.5979C45.7773 69.7322 45.0741 69.0304 44.2067 69.0304H39.7848C38.9173 69.0304 38.2141 69.7322 38.2141 70.5979V71.4037C38.2141 72.2694 38.9173 72.9712 39.7848 72.9712Z" fill="#F0F0F0"/>
<path d="M36.5289 77.6274H40.9508C41.8183 77.6274 42.5215 76.9256 42.5215 76.0599V75.2542C42.5215 74.3885 41.8183 73.6867 40.9508 73.6867H36.5289C35.6615 73.6867 34.9583 74.3885 34.9583 75.2542V76.0599C34.9583 76.9256 35.6615 77.6274 36.5289 77.6274Z" fill="#E6E6E6"/>
<path d="M21.9488 53.9922H26.3708C27.2382 53.9922 27.9414 53.2904 27.9414 52.4247V51.6189C27.9414 50.7532 27.2382 50.0514 26.3708 50.0514H21.9488C21.0814 50.0514 20.3782 50.7532 20.3782 51.6189V52.4247C20.3782 53.2904 21.0814 53.9922 21.9488 53.9922Z" fill="#F0F0F0"/>
<path d="M18.6891 58.6484H23.111C23.9784 58.6484 24.6816 57.9466 24.6816 57.0809V56.2752C24.6816 55.4095 23.9784 54.7077 23.111 54.7077H18.6891C17.8216 54.7077 17.1184 55.4095 17.1184 56.2752V57.0809C17.1184 57.9466 17.8216 58.6484 18.6891 58.6484Z" fill="#E6E6E6"/>
<path d="M39.7848 25.7026H44.2067C45.0741 25.7026 45.7773 25.0008 45.7773 24.1351V23.3294C45.7773 22.4637 45.0741 21.7619 44.2067 21.7619H39.7848C38.9173 21.7619 38.2141 22.4637 38.2141 23.3294V24.1351C38.2141 25.0008 38.9173 25.7026 39.7848 25.7026Z" fill="#F0F0F0"/>
<path d="M36.5289 30.3589H40.9508C41.8183 30.3589 42.5215 29.6571 42.5215 28.7914V27.9856C42.5215 27.1199 41.8183 26.4181 40.9508 26.4181H36.5289C35.6615 26.4181 34.9583 27.1199 34.9583 27.9856V28.7914C34.9583 29.6571 35.6615 30.3589 36.5289 30.3589Z" fill="#E6E6E6"/>
<path d="M86.9629 49.5259H96.4958V60.253C96.4958 60.5379 96.3824 60.8112 96.1805 61.0127C95.9786 61.2141 95.7048 61.3273 95.4193 61.3273H88.0394C87.7539 61.3273 87.4801 61.2141 87.2782 61.0127C87.0763 60.8112 86.9629 60.5379 86.9629 60.253V49.5259Z" fill="#EF233C"/>
<path d="M86.8652 49.6138L87.3292 49.9402C87.4313 50.0114 87.5528 50.0495 87.6772 50.0495C87.8017 50.0495 87.9232 50.0114 88.0252 49.9402L88.1343 49.8615C88.2363 49.7904 88.3578 49.7523 88.4823 49.7523C88.6067 49.7523 88.7282 49.7904 88.8303 49.8615L88.9393 49.9402C89.0414 50.0114 89.1628 50.0495 89.2873 50.0495C89.4118 50.0495 89.5333 50.0114 89.6353 49.9402L89.7467 49.8615C89.8487 49.7904 89.9702 49.7523 90.0947 49.7523C90.2191 49.7523 90.3406 49.7904 90.4427 49.8615L90.5517 49.9402C90.6538 50.0114 90.7752 50.0495 90.8997 50.0495C91.0242 50.0495 91.1457 50.0114 91.2477 49.9402L91.3568 49.8615C91.4588 49.7904 91.5803 49.7523 91.7048 49.7523C91.8292 49.7523 91.9507 49.7904 92.0528 49.8615L92.1641 49.9402C92.2662 50.0114 92.3876 50.0495 92.5121 50.0495C92.6366 50.0495 92.7581 50.0114 92.8601 49.9402L92.9692 49.8615C93.0712 49.7904 93.1927 49.7523 93.3172 49.7523C93.4416 49.7523 93.5631 49.7904 93.6652 49.8615L93.7765 49.9402C93.8783 50.012 93.9999 50.0505 94.1245 50.0505C94.2491 50.0505 94.3707 50.012 94.4725 49.9402L94.5839 49.8615C94.6859 49.7904 94.8074 49.7523 94.9319 49.7523C95.0563 49.7523 95.1778 49.7904 95.2799 49.8615L95.3889 49.9402C95.491 50.0114 95.6124 50.0495 95.7369 50.0495C95.8614 50.0495 95.9829 50.0114 96.0849 49.9402L96.5489 49.6138H86.8652Z" fill="#263238"/>
<path opacity="0.7" d="M96.4958 54.2305C95.7325 54.7306 94.4611 55.0872 92.517 54.3022L92.4311 54.2675C91.8209 54.0336 91.1627 53.9516 90.5135 54.0285C89.8643 54.1054 89.2437 54.339 88.7053 54.709C88.1668 55.079 87.7268 55.5744 87.4232 56.1522C87.1196 56.73 86.9616 57.3729 86.9629 58.0254V58.1157C87.7981 57.4581 89.5938 56.4416 91.7282 57.6016L91.7908 57.6341C92.282 57.8895 92.8309 58.0141 93.3845 57.9958C93.938 57.9775 94.4775 57.817 94.9506 57.5296C95.4238 57.2423 95.8146 56.8379 96.0853 56.3557C96.356 55.8735 96.4974 55.3297 96.4958 54.7769V54.2305Z" fill="white"/>
<path d="M88.6936 56.0622C88.3594 56.0813 88.025 56.0304 87.7117 55.9128C87.3985 55.7951 87.1134 55.6134 86.8747 55.3792C85.3041 53.7284 86.6427 49.6741 86.6891 49.5005L86.9211 49.5537C86.9072 49.5931 85.5685 53.6867 87.0673 55.2588C87.2807 55.4671 87.5355 55.6284 87.8152 55.7325C88.0949 55.8366 88.3933 55.8811 88.6913 55.8631C92.5773 55.8631 94.2453 49.57 94.2593 49.5074L94.4913 49.5468C94.172 50.676 93.7212 51.7639 93.148 52.7883C91.9393 54.93 90.3941 56.0622 88.6936 56.0622Z" fill="#263238"/>
<path d="M96.6177 49.6924H86.8366C86.8148 49.6924 86.7932 49.6881 86.773 49.6797C86.7529 49.6713 86.7346 49.659 86.7193 49.6435C86.704 49.628 86.6919 49.6096 86.6838 49.5894C86.6756 49.5691 86.6716 49.5475 86.6719 49.5257C86.6719 49.4821 86.6892 49.4403 86.7201 49.4095C86.751 49.3787 86.7929 49.3613 86.8366 49.3613H96.6177C96.6396 49.361 96.6612 49.3651 96.6815 49.3732C96.7017 49.3813 96.7202 49.3934 96.7357 49.4087C96.7513 49.424 96.7636 49.4422 96.772 49.4623C96.7804 49.4824 96.7848 49.5039 96.7848 49.5257C96.7848 49.5476 96.7804 49.5693 96.7721 49.5895C96.7637 49.6098 96.7514 49.6281 96.7358 49.6436C96.7203 49.6591 96.7019 49.6714 96.6817 49.6798C96.6614 49.6881 96.6397 49.6924 96.6177 49.6924Z" fill="#263238"/>
<path d="M58.0678 21.1278L49.9545 21.3101C49.656 21.3168 49.4195 21.5637 49.4262 21.8616L49.4329 22.1556C49.4396 22.4535 49.687 22.6895 49.9855 22.6828L58.0988 22.5005C58.3972 22.4937 58.6337 22.2468 58.627 21.949L58.6204 21.655C58.6137 21.3571 58.3663 21.1211 58.0678 21.1278Z" fill="#263238"/>
<path opacity="0.1" d="M58.616 21.5116L49.4219 21.7183L49.4349 22.2946L58.629 22.088L58.616 21.5116Z" fill="white"/>
<path d="M50.6826 21.9801C50.6873 22.1183 50.6504 22.2548 50.5768 22.3721C50.5032 22.4893 50.3961 22.5819 50.2694 22.6381C50.1427 22.6942 50.0021 22.7113 49.8656 22.6872C49.7291 22.663 49.603 22.5988 49.5033 22.5026C49.4036 22.4065 49.335 22.2828 49.3062 22.1475C49.2774 22.0121 49.2898 21.8713 49.3417 21.743C49.3936 21.6147 49.4827 21.5049 49.5977 21.4275C49.7126 21.3501 49.848 21.3087 49.9866 21.3086C50.1673 21.3085 50.3409 21.3785 50.4708 21.5038C50.6006 21.6291 50.6766 21.7999 50.6826 21.9801Z" fill="#263238"/>
<path d="M55.2825 22.7094L51.0183 22.3806C50.8457 22.3843 50.6742 22.352 50.5149 22.2857L49.9117 22.0866C49.8809 22.0771 49.8552 22.0557 49.8402 22.0273C49.8252 21.9989 49.8221 21.9656 49.8316 21.9349C49.8412 21.9042 49.8625 21.8786 49.891 21.8636C49.9195 21.8486 49.9528 21.8455 49.9836 21.855L50.5891 22.0565C50.7278 22.1144 50.8773 22.142 51.0276 22.1375H51.2317L55.301 22.4547C55.3316 22.4577 55.3598 22.4724 55.3797 22.4957C55.3996 22.519 55.4097 22.5492 55.4077 22.5798C55.4099 22.5969 55.4082 22.6143 55.4027 22.6307C55.3972 22.6471 55.3881 22.662 55.3761 22.6745C55.3641 22.6869 55.3495 22.6965 55.3333 22.7025C55.3171 22.7086 55.2997 22.7109 55.2825 22.7094Z" fill="#EF233C"/>
<path d="M59.3014 21.79C59.3009 21.8163 59.2914 21.8416 59.2745 21.8618C59.2577 21.882 59.2344 21.8959 59.2086 21.9011L58.6217 22.0215L56.0952 22.5448L55.6312 22.6374L58.8096 24.1772C58.8403 24.1836 58.8673 24.202 58.8845 24.2282C58.9016 24.2545 58.9077 24.2865 58.9012 24.3172C58.8948 24.3479 58.8763 24.3748 58.85 24.392C58.8237 24.4091 58.7916 24.4151 58.7609 24.4087C58.7432 24.4085 58.7258 24.4045 58.7098 24.3971L55.2298 22.7092C55.2082 22.6987 55.1905 22.6816 55.1792 22.6603C55.168 22.6391 55.1637 22.6149 55.1672 22.5911C55.1662 22.5858 55.1662 22.5803 55.1672 22.5749C55.1718 22.5542 55.1823 22.5352 55.1976 22.5204C55.2129 22.5056 55.2321 22.4956 55.253 22.4916L58.6147 21.797V21.6789C58.6144 21.6373 58.6081 21.596 58.5961 21.5562L59.2086 21.6997C59.2315 21.7035 59.2526 21.7142 59.2692 21.7304C59.2858 21.7465 59.297 21.7673 59.3014 21.79Z" fill="#EF233C"/>
<path d="M83.4361 36.4692C83.5041 36.4667 83.5692 36.4416 83.6214 36.398C83.6735 36.3544 83.7095 36.2947 83.7239 36.2283C83.7383 36.162 83.7301 36.0928 83.7007 36.0316C83.6712 35.9704 83.6222 35.9207 83.5614 35.8904L57.1134 23.1697C57.0405 23.135 56.9567 23.1307 56.8806 23.1576C56.8045 23.1845 56.7421 23.2405 56.7074 23.3133C56.6726 23.386 56.6682 23.4696 56.6952 23.5456C56.7222 23.6216 56.7783 23.6838 56.8512 23.7185L83.2992 36.4391C83.3421 36.4589 83.3888 36.4692 83.4361 36.4692Z" fill="#263238"/>
<path d="M62.3532 28.4025L62.3416 28.2173L63.6895 28.9999C63.1082 29.3754 62.4083 29.523 61.7245 29.4143C61.3516 29.3586 60.9963 29.2192 60.6851 29.0068C60.5268 28.9012 60.384 28.7741 60.2606 28.6294C60.197 28.5571 60.1395 28.4797 60.0889 28.3979C60.0386 28.3293 59.9944 28.2564 59.9566 28.1802C59.7063 27.6797 59.5334 27.1441 59.4439 26.5919C59.3571 26.0749 59.3245 25.5504 59.3465 25.0267L60.01 24.9341C60.1886 25.3671 60.3835 25.8116 60.597 26.2145C60.7885 26.5984 61.0295 26.9557 61.3138 27.2772C61.3372 27.3071 61.3645 27.3336 61.395 27.356C61.4177 27.3758 61.4426 27.3929 61.4693 27.4069C61.5166 27.4357 61.5663 27.4605 61.6178 27.481C61.7267 27.5196 61.8409 27.5415 61.9565 27.5458C62.252 27.5403 62.5445 27.4855 62.8218 27.3837L64.1837 26.9207V28.1594V28.3446L62.3532 28.4025Z" fill="#B55B52"/>
<path d="M73.2301 30.5974L72.1629 31.1994L71.7871 29.6944L73.0561 29.3101L73.2301 30.5974Z" fill="#B55B52"/>
<path d="M71.8486 23.17C71.8486 23.17 73.3845 23.001 73.7858 24.9969C74.1872 26.9927 75.3541 29.2132 73.9088 30.4496L73.0805 30.9798C72.671 30.5222 72.3824 29.9699 72.2407 29.3729L72.7047 29.0279L72.3033 27.6572C72.3033 27.6572 71.2245 23.6516 71.8486 23.17Z" fill="#EF233C"/>
<path opacity="0.5" d="M71.8486 23.17C71.8486 23.17 73.3845 23.001 73.7858 24.9969C74.1872 26.9927 75.3541 29.2132 73.9088 30.4496L73.0805 30.9798C72.671 30.5222 72.3824 29.9699 72.2407 29.3729L72.7047 29.0279L72.3033 27.6572C72.3033 27.6572 71.2245 23.6516 71.8486 23.17Z" fill="white"/>
<path d="M72.9515 56.3211L74.5244 58.3309C74.5635 58.3844 74.5845 58.4488 74.5845 58.515C74.5845 58.5811 74.5635 58.6456 74.5244 58.699C74.3475 58.9573 74.1562 59.2054 73.9514 59.4423C73.664 59.6974 73.3618 59.9355 73.0466 60.1554C72.9931 60.1957 72.9542 60.2523 72.9357 60.3166C72.9173 60.381 72.9204 60.4495 72.9445 60.512C72.9722 60.5869 73.0285 60.648 73.101 60.6818C73.1736 60.7156 73.2566 60.7195 73.3319 60.6926L76.8537 59.3566C76.8942 59.3406 76.9308 59.316 76.9608 59.2845C76.9909 59.253 77.0138 59.2154 77.0279 59.1743C77.042 59.1331 77.047 59.0894 77.0426 59.0461C77.0381 59.0029 77.0244 58.9611 77.0022 58.9236L74.9142 55.2376C74.8772 55.17 74.8156 55.1193 74.7421 55.096C74.6687 55.0728 74.589 55.0787 74.5198 55.1125L73.0396 55.8581C73.0001 55.8798 72.9658 55.9099 72.9393 55.9463C72.9128 55.9828 72.8947 56.0246 72.8862 56.0689C72.8778 56.1131 72.8793 56.1587 72.8906 56.2023C72.9019 56.2459 72.9226 56.2865 72.9515 56.3211Z" fill="#EF233C"/>
<path d="M72.423 32.9985L68.2075 33.2486C68.2075 33.2486 68.1797 45.703 68.5439 48.8333C68.871 51.6442 72.1399 54.7746 72.7988 56.2819C72.8207 56.3496 72.865 56.4078 72.9244 56.4469C72.9839 56.4861 73.055 56.5038 73.1259 56.4972L74.9819 55.3951C75.2835 55.1265 74.8056 54.9019 74.729 54.7584C74.1838 53.735 72.9705 51.8572 71.7757 48.5231C71.5298 47.8401 71.662 42.01 71.8546 39.9284C72.0123 38.1155 73.4066 35.5871 72.423 32.9985Z" fill="#263238"/>
<path opacity="0.2" d="M69.4983 36.1802C69.4859 39.3797 69.0926 42.5663 68.3267 45.6732C68.2292 43.7931 68.2432 38.9355 68.2246 37.0322L68.7396 36.1964L69.4983 36.1802Z" fill="black"/>
<path d="M64.406 56.8935L64.6658 59.5585C64.6714 59.6139 64.6616 59.6698 64.6375 59.7201C64.6133 59.7703 64.5758 59.8129 64.529 59.8433C64.2238 60.0451 63.9087 60.2313 63.5847 60.4013C63.1982 60.5422 62.8049 60.6635 62.4061 60.7648C62.3409 60.783 62.2836 60.8225 62.2436 60.8771C62.2037 60.9317 62.1833 60.9982 62.1858 61.0658C62.187 61.1452 62.2196 61.2209 62.2765 61.2765C62.3335 61.332 62.4101 61.3628 62.4897 61.3622L66.3919 61.2742C66.4701 61.2712 66.5441 61.2382 66.5986 61.1822C66.653 61.1261 66.6837 61.0513 66.6842 60.9732L66.7074 56.9167C66.7093 56.8378 66.6799 56.7614 66.6255 56.7042C66.5712 56.6469 66.4964 56.6134 66.4174 56.611L64.7122 56.5601C64.6695 56.5595 64.627 56.568 64.5878 56.585C64.5485 56.6019 64.5133 56.6269 64.4844 56.6584C64.4555 56.6899 64.4335 56.7271 64.42 56.7676C64.4065 56.8081 64.4017 56.851 64.406 56.8935Z" fill="#EF233C"/>
<path d="M65.5661 33.2419C65.5661 33.2419 63.7379 45.5574 63.5825 47.9746C63.441 50.165 64.0256 55.2287 64.1323 56.8402C64.1365 56.9094 64.1673 56.9743 64.2184 57.0213C64.2694 57.0683 64.3367 57.0939 64.4061 57.0925L66.6565 57.0416C66.7265 57.0398 66.7929 57.0106 66.8415 56.9604C66.8901 56.9101 66.917 56.8428 66.9163 56.773C66.9163 55.5644 66.9001 52.6586 66.7215 49.7181C66.6554 48.5808 66.7849 47.4406 67.1043 46.3469C67.5172 44.9322 68.2828 41.6791 68.9603 39.5837C69.4915 37.9282 69.9741 37.4235 70.1203 36.1662C70.3291 34.2931 69.8071 33.1562 69.8071 33.1562L65.5661 33.2419Z" fill="#263238"/>
<path d="M70.411 22.8111C70.411 22.8111 69.5666 22.744 69.541 21.1904C69.541 21.1904 68.7546 20.857 68.2627 21.3247C67.7709 21.7924 68.7546 22.8389 68.1421 23.302C67.5296 23.7651 70.411 22.8111 70.411 22.8111Z" fill="#B55B52"/>
<path d="M65.3218 23.6376C65.3218 23.6376 64.6049 23.1745 63.4472 25.2583L62.1248 27.3422H61.4451C61.4451 27.3422 60.9811 28.6434 61.4915 29.389C61.4915 29.389 62.6677 30.7087 65.4007 27.1732L65.9296 24.8902L65.3218 23.6376Z" fill="#EF233C"/>
<path opacity="0.5" d="M65.3218 23.6376C65.3218 23.6376 64.6049 23.1745 63.4472 25.2583L62.1248 27.3422H61.4451C61.4451 27.3422 60.9811 28.6434 61.4915 29.389C61.4915 29.389 62.6677 30.7087 65.4007 27.1732L65.9296 24.8902L65.3218 23.6376Z" fill="white"/>
<path d="M72.6393 33.3251C72.6393 33.3251 68.0179 34.2003 65.4473 33.4872C65.4473 33.4872 65.8951 32.3874 64.9068 28.1341C64.9068 28.1341 65.7489 25.8604 64.8047 23.6237C64.8047 23.6237 68.3497 22.466 72.1104 23.0449C72.3704 24.3537 72.5394 25.679 72.6161 27.0111C72.7229 28.9421 72.8922 28.7476 72.6393 33.3251Z" fill="#EF233C"/>
<path d="M70.6642 23.1956C70.6642 23.1956 70.8197 22.1676 69.0843 22.3852C67.349 22.6029 67.0566 23.4989 67.0566 23.4989L70.6642 23.1956Z" fill="#EF233C"/>
<path d="M72.6955 32.3551C70.967 32.58 69.2276 32.7113 67.4848 32.7487C66.8631 32.7626 66.2065 32.7649 65.5291 32.7487C65.5291 32.5287 65.5175 32.2856 65.5059 32.0379C67.9178 32.0828 70.3296 31.9466 72.7211 31.6304C72.7141 31.8596 72.7048 32.1004 72.6955 32.3551Z" fill="#263238"/>
<path opacity="0.8" d="M72.7048 32.3551C70.9731 32.5788 69.2306 32.7102 67.4848 32.7487C66.8631 32.7626 66.2065 32.7649 65.5291 32.7487C65.5291 32.5287 65.5175 32.2856 65.5059 32.0379C67.9208 32.0827 70.3358 31.9465 72.7303 31.6304C72.7234 31.8596 72.7164 32.1004 72.7048 32.3551Z" fill="white"/>
<path d="M67.5126 29.8268C67.4987 28.1134 67.2806 24.4366 66.3062 23.4873C66.2288 23.4045 66.1301 23.3445 66.0209 23.3137C66.2923 23.2558 66.6032 23.1956 66.9489 23.1377C67.501 23.8207 67.8769 25.1729 68.081 27.1711C68.1901 28.2616 68.2179 29.2549 68.2249 29.7851C69.395 29.7039 70.5604 29.564 71.7165 29.366C71.6793 28.4816 71.5633 25.93 71.3545 24.682C71.2676 24.0814 71.1175 23.4916 70.9068 22.9224C71.1666 22.9386 71.4265 22.9617 71.6909 22.9941C71.8506 23.5102 71.9723 24.0372 72.0552 24.5709C72.264 25.8258 72.38 28.2616 72.4217 29.2387L72.7558 29.1669C72.7558 29.3985 72.7558 29.63 72.7558 29.8963C70.7256 30.3087 68.6628 30.5411 66.5916 30.5909C66.1833 30.5909 65.7657 30.5909 65.3365 30.5909C65.3063 30.3593 65.2738 30.1278 65.2344 29.8777C66.0348 29.88 66.7934 29.8685 67.5126 29.8268Z" fill="#263238"/>
<path opacity="0.8" d="M67.5115 29.8268C67.4976 28.1134 67.2795 24.4366 66.3051 23.4873C66.2277 23.4045 66.129 23.3445 66.0198 23.3137C66.2912 23.2558 66.6021 23.1956 66.9478 23.1377C67.4999 23.8207 67.8758 25.1729 68.0799 27.1711C68.189 28.2616 68.2168 29.2549 68.2238 29.7851C69.3939 29.7039 70.5593 29.564 71.7154 29.366C71.6782 28.4816 71.5622 25.93 71.3534 24.682C71.2665 24.0814 71.1164 23.4916 70.9057 22.9224C71.1655 22.9386 71.4254 22.9617 71.6898 22.9941C71.8495 23.5102 71.9712 24.0372 72.0541 24.5709C72.2629 25.8258 72.3789 28.2616 72.4206 29.2387L72.7501 29.1669C72.7501 29.3985 72.7617 29.63 72.7617 29.8963C70.7315 30.3087 68.6687 30.5411 66.5974 30.5909C66.1891 30.5909 65.7715 30.5909 65.3423 30.5909C65.3122 30.3593 65.2797 30.1278 65.2402 29.8777C66.0337 29.88 66.7923 29.8685 67.5115 29.8268Z" fill="white"/>
<path d="M71.1914 26.8608L68.5234 27.1618L68.607 28.8544L71.275 28.5256L71.1914 26.8608Z" fill="white"/>
<path d="M66.3848 19.4352C66.3848 19.5347 66.4242 19.6181 66.4892 19.6227C66.5541 19.6274 66.6168 19.5463 66.6191 19.4514C66.6214 19.3565 66.5796 19.2685 66.517 19.2662C66.4544 19.2639 66.394 19.3379 66.3848 19.4352Z" fill="#263238"/>
<path d="M66.7136 19.5952L66.2891 20.3963C66.384 20.4442 66.4889 20.4691 66.5953 20.4691C66.7017 20.4691 66.8066 20.4442 66.9015 20.3963L66.7136 19.5952Z" fill="#A02724"/>
<path d="M66.892 19.0116C66.8843 19.015 66.8761 19.0168 66.8677 19.0168C66.8593 19.0168 66.851 19.015 66.8433 19.0116C66.7848 18.9841 66.7206 18.971 66.656 18.9734C66.5914 18.9759 66.5283 18.9937 66.4721 19.0255C66.4665 19.0294 66.4602 19.0322 66.4535 19.0336C66.4468 19.035 66.4399 19.0351 66.4332 19.0338C66.4265 19.0325 66.4201 19.0299 66.4144 19.026C66.4088 19.0222 66.4039 19.0173 66.4002 19.0116C66.3931 18.9999 66.3909 18.9859 66.3939 18.9725C66.3969 18.9591 66.405 18.9474 66.4164 18.9399C66.4862 18.8993 66.5647 18.8758 66.6454 18.8714C66.726 18.8669 66.8066 18.8817 66.8804 18.9144C66.887 18.9169 66.893 18.9208 66.898 18.9257C66.903 18.9306 66.907 18.9365 66.9096 18.9431C66.9122 18.9496 66.9134 18.9566 66.9132 18.9636C66.913 18.9706 66.9113 18.9775 66.9083 18.9839C66.9056 18.9945 66.9 19.0041 66.892 19.0116Z" fill="#263238"/>
<path d="M70.2219 19.0346C70.1917 20.3451 70.208 20.9007 69.5723 21.5977C68.5863 22.3201 67.0064 22.3224 66.6445 21.0281C66.3173 19.8704 66.4125 17.9209 67.6838 17.3443C67.8981 17.246 68.1297 17.1908 68.3654 17.1819C68.6011 17.1731 68.8362 17.2107 69.0573 17.2926C69.2785 17.3746 69.4812 17.4992 69.6539 17.6595C69.8267 17.8197 69.9661 18.0124 70.0641 18.2265C70.1798 18.4797 70.2338 18.7566 70.2219 19.0346Z" fill="#B55B52"/>
<path d="M67.4146 19.9585C67.4146 19.9585 67.1687 18.9999 67.3868 18.7267C67.6048 18.4535 67.4749 18.3956 67.229 18.1664C66.9831 17.9372 66.6768 17.7589 66.997 17.3074C68.3078 15.3787 70.8134 16.7679 70.9271 18.1039C70.9688 18.604 70.6649 19.588 70.644 19.6482C70.397 20.3503 70.0391 21.0085 69.5838 21.5978C69.3609 21.6446 69.1313 21.6501 68.9064 21.614C68.9064 21.614 67.635 20.5327 67.4146 19.9585Z" fill="#263238"/>
<path d="M67.5126 19.4653C67.4337 19.5723 67.377 19.694 67.3459 19.8232C67.3148 19.9525 67.31 20.0866 67.3317 20.2178C67.3897 20.5674 67.7423 20.5952 67.9952 20.3752C68.2481 20.1552 68.4592 19.7547 68.2806 19.4491C68.2367 19.3874 68.1784 19.3374 68.1107 19.3034C68.043 19.2694 67.9681 19.2524 67.8923 19.254C67.8165 19.2556 67.7423 19.2757 67.6761 19.3125C67.61 19.3494 67.5538 19.4018 67.5126 19.4653Z" fill="#B55B52"/>
<path d="M70.8774 18.5229C70.8851 18.9158 70.8009 19.3051 70.6315 19.6598C69.555 19.5626 68.7036 19.1342 68.4785 18.5785L70.8774 18.5229Z" fill="#263238"/>
<path opacity="0.6" d="M70.8774 18.5229C70.8851 18.9158 70.8009 19.3051 70.6315 19.6598C69.555 19.5626 68.7036 19.1342 68.4785 18.5785L70.8774 18.5229Z" fill="white"/>
<path d="M70.8505 18.9397C70.8505 18.9397 70.7856 19.2546 70.7508 19.3472C70.7508 19.3472 70.4004 19.5509 69.375 18.9351" fill="#263238"/>
<path d="M66.3651 18.4211C66.391 17.8349 66.6404 17.2807 67.0621 16.8719C67.4839 16.463 68.0461 16.2304 68.634 16.2215C69.2214 16.2119 69.7915 16.4195 70.2348 16.8041C70.6781 17.1888 70.9632 17.7235 71.0352 18.3053H71.2672C71.315 18.3106 71.3591 18.3332 71.3911 18.3689C71.4232 18.4045 71.4409 18.4508 71.4409 18.4987C71.4409 18.5466 71.4232 18.5928 71.3911 18.6285C71.3591 18.6642 71.315 18.6868 71.2672 18.692L65.4232 18.8286C65.1726 18.8332 66.0542 18.4281 66.3651 18.4211Z" fill="#EF233C"/>
<path opacity="0.1" d="M71.0354 18.3146L66.3652 18.4188C66.3744 18.184 66.4102 17.951 66.472 17.7242L70.7988 17.627C70.9203 17.8393 71.0006 18.0726 71.0354 18.3146Z" fill="black"/>
<path d="M59.4536 25.2791L60.1334 25.3532C60.1185 25.1116 60.0554 24.8755 59.9478 24.6586C59.7877 24.4062 59.7158 24.2812 59.6833 24.2187C59.6641 24.1816 59.6319 24.1527 59.5928 24.1376L59.0987 23.9408C59.0671 23.9276 59.0324 23.9236 58.9986 23.9293C58.9649 23.9349 58.9334 23.95 58.9079 23.9728C58.8824 23.9956 58.8639 24.0251 58.8545 24.058C58.8452 24.0909 58.8454 24.1257 58.8551 24.1585C58.9122 24.3058 58.9352 24.4641 58.9223 24.6216L59.4536 25.2791Z" fill="#B55B52"/>
<path d="M85.3346 94.7727C85.2951 94.7735 85.2558 94.7672 85.2186 94.7541L15.4724 70.2112C15.3853 70.1805 15.3141 70.1166 15.2743 70.0334C15.2344 69.9503 15.2294 69.8547 15.2601 69.7678C15.2909 69.681 15.355 69.6098 15.4383 69.5701C15.5216 69.5304 15.6173 69.5253 15.7044 69.556L85.4482 94.0989C85.5248 94.1266 85.5892 94.1802 85.6302 94.2504C85.6712 94.3206 85.6863 94.4029 85.6728 94.4831C85.6593 94.5632 85.618 94.6361 85.5562 94.689C85.4944 94.7419 85.416 94.7715 85.3346 94.7727Z" fill="#EF233C"/>
<path d="M15.5883 94.296C15.5055 94.2969 15.4251 94.2684 15.3615 94.2155C15.2979 94.1626 15.2553 94.0888 15.2413 94.0073C15.2273 93.9259 15.2429 93.8421 15.2853 93.7711C15.3276 93.7001 15.3939 93.6465 15.4723 93.6199L84.6083 69.2923C84.6953 69.2616 84.791 69.2667 84.8744 69.3064C84.9577 69.3461 85.0218 69.4173 85.0525 69.5042C85.0833 69.5911 85.0782 69.6866 85.0384 69.7697C84.9986 69.8529 84.9273 69.9169 84.8403 69.9476L15.7043 94.2752C15.6672 94.289 15.6279 94.296 15.5883 94.296Z" fill="#EF233C"/>
<path opacity="0.4" d="M85.4481 94.0992L50.8291 81.9157L84.8379 69.9476C84.8811 69.9324 84.9207 69.9088 84.9547 69.8783C84.9887 69.8478 85.0164 69.8109 85.0361 69.7697C85.0558 69.7286 85.0672 69.6839 85.0696 69.6384C85.072 69.5928 85.0655 69.5472 85.0502 69.5042C85.035 69.4611 85.0114 69.4215 84.9808 69.3876C84.9503 69.3537 84.9133 69.3261 84.872 69.3064C84.8308 69.2867 84.7861 69.2754 84.7404 69.2729C84.6947 69.2705 84.649 69.2771 84.6059 69.2923L49.7827 81.5476L15.7043 69.5563C15.6172 69.5256 15.5215 69.5306 15.4382 69.5704C15.3548 69.6101 15.2907 69.6812 15.26 69.7681C15.2292 69.855 15.2343 69.9505 15.2741 70.0337C15.3139 70.1169 15.3852 70.1808 15.4723 70.2115L48.7364 81.9157L15.4723 93.6199C15.3939 93.6465 15.3276 93.7001 15.2853 93.7711C15.2429 93.8421 15.2273 93.9259 15.2413 94.0073C15.2553 94.0888 15.2979 94.1626 15.3615 94.2155C15.4251 94.2684 15.5055 94.2969 15.5883 94.296C15.6279 94.296 15.6672 94.289 15.7043 94.2752L49.7827 82.2839L85.2184 94.7544C85.2557 94.7675 85.295 94.7738 85.3344 94.773C85.4158 94.7718 85.4943 94.7422 85.5561 94.6893C85.6179 94.6364 85.6591 94.5635 85.6726 94.4834C85.6862 94.4032 85.6711 94.3209 85.6301 94.2507C85.589 94.1805 85.5247 94.1269 85.4481 94.0992Z" fill="white"/>
<path d="M84.5011 96.7107C84.378 96.7107 84.26 96.6619 84.173 96.575C84.086 96.4882 84.0371 96.3704 84.0371 96.2476V61.5402C84.0371 61.4174 84.086 61.2996 84.173 61.2128C84.26 61.1259 84.378 61.0771 84.5011 61.0771C84.6242 61.0771 84.7422 61.1259 84.8292 61.2128C84.9162 61.2996 84.9651 61.4174 84.9651 61.5402V96.2476C84.9651 96.3704 84.9162 96.4882 84.8292 96.575C84.7422 96.6619 84.6242 96.7107 84.5011 96.7107Z" fill="#EF233C"/>
<g opacity="0.4">
<path d="M84.5011 96.7107C84.378 96.7107 84.26 96.6619 84.173 96.575C84.086 96.4882 84.0371 96.3704 84.0371 96.2476V61.5402C84.0371 61.4174 84.086 61.2996 84.173 61.2128C84.26 61.1259 84.378 61.0771 84.5011 61.0771C84.6242 61.0771 84.7422 61.1259 84.8292 61.2128C84.9162 61.2996 84.9651 61.4174 84.9651 61.5402V96.2476C84.9651 96.3704 84.9162 96.4882 84.8292 96.575C84.7422 96.6619 84.6242 96.7107 84.5011 96.7107Z" fill="white"/>
</g>
<path d="M102.08 62.7723H84.5011C84.378 62.7723 84.26 62.7236 84.173 62.6367C84.086 62.5499 84.0371 62.4321 84.0371 62.3093C84.0371 62.1865 84.086 62.0687 84.173 61.9818C84.26 61.895 84.378 61.8462 84.5011 61.8462H102.08C102.203 61.8462 102.321 61.895 102.408 61.9818C102.495 62.0687 102.544 62.1865 102.544 62.3093C102.544 62.4321 102.495 62.5499 102.408 62.6367C102.321 62.7236 102.203 62.7723 102.08 62.7723Z" fill="#EF233C"/>
<path d="M102.08 70.8016H84.5011C84.378 70.8016 84.26 70.7528 84.173 70.666C84.086 70.5792 84.0371 70.4614 84.0371 70.3386C84.0371 70.2157 84.086 70.098 84.173 70.0111C84.26 69.9243 84.378 69.8755 84.5011 69.8755H102.08C102.203 69.8755 102.321 69.9243 102.408 70.0111C102.495 70.098 102.544 70.2157 102.544 70.3386C102.544 70.4614 102.495 70.5792 102.408 70.666C102.321 70.7528 102.203 70.8016 102.08 70.8016Z" fill="#EF233C"/>
<path d="M102.08 78.829H84.5011C84.378 78.829 84.26 78.7802 84.173 78.6933C84.086 78.6065 84.0371 78.4887 84.0371 78.3659C84.0371 78.2431 84.086 78.1253 84.173 78.0385C84.26 77.9516 84.378 77.9028 84.5011 77.9028H102.08C102.203 77.9028 102.321 77.9516 102.408 78.0385C102.495 78.1253 102.544 78.2431 102.544 78.3659C102.544 78.4887 102.495 78.6065 102.408 78.6933C102.321 78.7802 102.203 78.829 102.08 78.829Z" fill="#EF233C"/>
<path d="M102.08 86.8588H84.5011C84.378 86.8588 84.26 86.81 84.173 86.7231C84.086 86.6363 84.0371 86.5185 84.0371 86.3957C84.0371 86.2729 84.086 86.1551 84.173 86.0682C84.26 85.9814 84.378 85.9326 84.5011 85.9326H102.08C102.203 85.9326 102.321 85.9814 102.408 86.0682C102.495 86.1551 102.544 86.2729 102.544 86.3957C102.544 86.5185 102.495 86.6363 102.408 86.7231C102.321 86.81 102.203 86.8588 102.08 86.8588Z" fill="#EF233C"/>
<path d="M102.08 94.8886H84.5011C84.378 94.8886 84.26 94.8398 84.173 94.7529C84.086 94.6661 84.0371 94.5483 84.0371 94.4255C84.0371 94.3027 84.086 94.1849 84.173 94.098C84.26 94.0112 84.378 93.9624 84.5011 93.9624H102.08C102.203 93.9624 102.321 94.0112 102.408 94.098C102.495 94.1849 102.544 94.3027 102.544 94.4255C102.544 94.5483 102.495 94.6661 102.408 94.7529C102.321 94.8398 102.203 94.8886 102.08 94.8886Z" fill="#EF233C"/>
<path d="M102.08 70.8016H84.5011C84.378 70.8016 84.26 70.7528 84.173 70.666C84.086 70.5792 84.0371 70.4614 84.0371 70.3386C84.0371 70.2157 84.086 70.098 84.173 70.0111C84.26 69.9243 84.378 69.8755 84.5011 69.8755H102.08C102.203 69.8755 102.321 69.9243 102.408 70.0111C102.495 70.098 102.544 70.2157 102.544 70.3386C102.544 70.4614 102.495 70.5792 102.408 70.666C102.321 70.7528 102.203 70.8016 102.08 70.8016Z" fill="#EF233C"/>
<path d="M102.08 78.829H84.5011C84.378 78.829 84.26 78.7802 84.173 78.6933C84.086 78.6065 84.0371 78.4887 84.0371 78.3659C84.0371 78.2431 84.086 78.1253 84.173 78.0385C84.26 77.9516 84.378 77.9028 84.5011 77.9028H102.08C102.203 77.9028 102.321 77.9516 102.408 78.0385C102.495 78.1253 102.544 78.2431 102.544 78.3659C102.544 78.4887 102.495 78.6065 102.408 78.6933C102.321 78.7802 102.203 78.829 102.08 78.829Z" fill="#EF233C"/>
<path d="M102.08 86.8588H84.5011C84.378 86.8588 84.26 86.81 84.173 86.7231C84.086 86.6363 84.0371 86.5185 84.0371 86.3957C84.0371 86.2729 84.086 86.1551 84.173 86.0682C84.26 85.9814 84.378 85.9326 84.5011 85.9326H102.08C102.203 85.9326 102.321 85.9814 102.408 86.0682C102.495 86.1551 102.544 86.2729 102.544 86.3957C102.544 86.5185 102.495 86.6363 102.408 86.7231C102.321 86.81 102.203 86.8588 102.08 86.8588Z" fill="#EF233C"/>
<path d="M102.08 94.8886H84.5011C84.378 94.8886 84.26 94.8398 84.173 94.7529C84.086 94.6661 84.0371 94.5483 84.0371 94.4255C84.0371 94.3027 84.086 94.1849 84.173 94.098C84.26 94.0112 84.378 93.9624 84.5011 93.9624H102.08C102.203 93.9624 102.321 94.0112 102.408 94.098C102.495 94.1849 102.544 94.3027 102.544 94.4255C102.544 94.5483 102.495 94.6661 102.408 94.7529C102.321 94.8398 102.203 94.8886 102.08 94.8886Z" fill="#EF233C"/>
<g opacity="0.2">
<path d="M102.08 62.7723H84.5011C84.378 62.7723 84.26 62.7236 84.173 62.6367C84.086 62.5499 84.0371 62.4321 84.0371 62.3093C84.0371 62.1865 84.086 62.0687 84.173 61.9818C84.26 61.895 84.378 61.8462 84.5011 61.8462H102.08C102.203 61.8462 102.321 61.895 102.408 61.9818C102.495 62.0687 102.544 62.1865 102.544 62.3093C102.544 62.4321 102.495 62.5499 102.408 62.6367C102.321 62.7236 102.203 62.7723 102.08 62.7723Z" fill="white"/>
<path d="M102.08 70.8021H84.5011C84.378 70.8021 84.26 70.7533 84.173 70.6665C84.086 70.5797 84.0371 70.4619 84.0371 70.3391C84.0371 70.2162 84.086 70.0985 84.173 70.0116C84.26 69.9248 84.378 69.876 84.5011 69.876H102.08C102.203 69.876 102.321 69.9248 102.408 70.0116C102.495 70.0985 102.544 70.2162 102.544 70.3391C102.544 70.4619 102.495 70.5797 102.408 70.6665C102.321 70.7533 102.203 70.8021 102.08 70.8021Z" fill="white"/>
<path d="M102.08 78.8295H84.5011C84.378 78.8295 84.26 78.7807 84.173 78.6938C84.086 78.607 84.0371 78.4892 84.0371 78.3664C84.0371 78.2436 84.086 78.1258 84.173 78.039C84.26 77.9521 84.378 77.9033 84.5011 77.9033H102.08C102.203 77.9033 102.321 77.9521 102.408 78.039C102.495 78.1258 102.544 78.2436 102.544 78.3664C102.544 78.4892 102.495 78.607 102.408 78.6938C102.321 78.7807 102.203 78.8295 102.08 78.8295Z" fill="white"/>
<path d="M102.08 86.8593H84.5011C84.378 86.8593 84.26 86.8105 84.173 86.7236C84.086 86.6368 84.0371 86.519 84.0371 86.3962C84.0371 86.2734 84.086 86.1556 84.173 86.0687C84.26 85.9819 84.378 85.9331 84.5011 85.9331H102.08C102.203 85.9331 102.321 85.9819 102.408 86.0687C102.495 86.1556 102.544 86.2734 102.544 86.3962C102.544 86.519 102.495 86.6368 102.408 86.7236C102.321 86.8105 102.203 86.8593 102.08 86.8593Z" fill="white"/>
<path d="M102.08 94.889H84.5011C84.378 94.889 84.26 94.8403 84.173 94.7534C84.086 94.6666 84.0371 94.5488 84.0371 94.426C84.0371 94.3031 84.086 94.1854 84.173 94.0985C84.26 94.0117 84.378 93.9629 84.5011 93.9629H102.08C102.203 93.9629 102.321 94.0117 102.408 94.0985C102.495 94.1854 102.544 94.3031 102.544 94.426C102.544 94.5488 102.495 94.6666 102.408 94.7534C102.321 94.8403 102.203 94.889 102.08 94.889Z" fill="white"/>
<path d="M102.08 70.8021H84.5011C84.378 70.8021 84.26 70.7533 84.173 70.6665C84.086 70.5797 84.0371 70.4619 84.0371 70.3391C84.0371 70.2162 84.086 70.0985 84.173 70.0116C84.26 69.9248 84.378 69.876 84.5011 69.876H102.08C102.203 69.876 102.321 69.9248 102.408 70.0116C102.495 70.0985 102.544 70.2162 102.544 70.3391C102.544 70.4619 102.495 70.5797 102.408 70.6665C102.321 70.7533 102.203 70.8021 102.08 70.8021Z" fill="white"/>
<path d="M102.08 78.8295H84.5011C84.378 78.8295 84.26 78.7807 84.173 78.6938C84.086 78.607 84.0371 78.4892 84.0371 78.3664C84.0371 78.2436 84.086 78.1258 84.173 78.039C84.26 77.9521 84.378 77.9033 84.5011 77.9033H102.08C102.203 77.9033 102.321 77.9521 102.408 78.039C102.495 78.1258 102.544 78.2436 102.544 78.3664C102.544 78.4892 102.495 78.607 102.408 78.6938C102.321 78.7807 102.203 78.8295 102.08 78.8295Z" fill="white"/>
<path d="M102.08 86.8593H84.5011C84.378 86.8593 84.26 86.8105 84.173 86.7236C84.086 86.6368 84.0371 86.519 84.0371 86.3962C84.0371 86.2734 84.086 86.1556 84.173 86.0687C84.26 85.9819 84.378 85.9331 84.5011 85.9331H102.08C102.203 85.9331 102.321 85.9819 102.408 86.0687C102.495 86.1556 102.544 86.2734 102.544 86.3962C102.544 86.519 102.495 86.6368 102.408 86.7236C102.321 86.8105 102.203 86.8593 102.08 86.8593Z" fill="white"/>
<path d="M102.08 94.889H84.5011C84.378 94.889 84.26 94.8403 84.173 94.7534C84.086 94.6666 84.0371 94.5488 84.0371 94.426C84.0371 94.3031 84.086 94.1854 84.173 94.0985C84.26 94.0117 84.378 93.9629 84.5011 93.9629H102.08C102.203 93.9629 102.321 94.0117 102.408 94.0985C102.495 94.1854 102.544 94.3031 102.544 94.426C102.544 94.5488 102.495 94.6666 102.408 94.7534C102.321 94.8403 102.203 94.889 102.08 94.889Z" fill="white"/>
</g>
<path d="M102.081 96.7107C101.958 96.7107 101.84 96.6619 101.753 96.575C101.666 96.4882 101.617 96.3704 101.617 96.2476V61.5402C101.617 61.4174 101.666 61.2996 101.753 61.2128C101.84 61.1259 101.958 61.0771 102.081 61.0771C102.204 61.0771 102.322 61.1259 102.409 61.2128C102.496 61.2996 102.545 61.4174 102.545 61.5402V96.2476C102.545 96.3704 102.496 96.4882 102.409 96.575C102.322 96.6619 102.204 96.7107 102.081 96.7107Z" fill="#EF233C"/>
<path d="M102.08 62.4408H84.5011C84.378 62.4408 84.26 62.392 84.173 62.3052C84.086 62.2183 84.0371 62.1005 84.0371 61.9777C84.0371 61.8549 84.086 61.7371 84.173 61.6503C84.26 61.5634 84.378 61.5146 84.5011 61.5146H102.08C102.203 61.5146 102.321 61.5634 102.408 61.6503C102.495 61.7371 102.544 61.8549 102.544 61.9777C102.544 62.1005 102.495 62.2183 102.408 62.3052C102.321 62.392 102.203 62.4408 102.08 62.4408Z" fill="#EF233C"/>
<path d="M15.3702 96.7107C15.2472 96.7107 15.1292 96.6619 15.0422 96.575C14.9551 96.4882 14.9062 96.3704 14.9062 96.2476V62.0241C14.9062 61.9013 14.9551 61.7835 15.0422 61.6967C15.1292 61.6098 15.2472 61.561 15.3702 61.561C15.4933 61.561 15.6113 61.6098 15.6983 61.6967C15.7854 61.7835 15.8342 61.9013 15.8342 62.0241V96.2476C15.8342 96.3704 15.7854 96.4882 15.6983 96.575C15.6113 96.6619 15.4933 96.7107 15.3702 96.7107Z" fill="#EF233C"/>
<g opacity="0.2">
<path d="M15.3702 96.7107C15.2472 96.7107 15.1292 96.6619 15.0422 96.575C14.9551 96.4882 14.9062 96.3704 14.9062 96.2476V62.0241C14.9062 61.9013 14.9551 61.7835 15.0422 61.6967C15.1292 61.6098 15.2472 61.561 15.3702 61.561C15.4933 61.561 15.6113 61.6098 15.6983 61.6967C15.7854 61.7835 15.8342 61.9013 15.8342 62.0241V96.2476C15.8342 96.3704 15.7854 96.4882 15.6983 96.575C15.6113 96.6619 15.4933 96.7107 15.3702 96.7107Z" fill="white"/>
</g>
<path d="M84.9651 31.7209V61.3206H84.0371V31.7209C84.0371 31.5981 84.086 31.4803 84.173 31.3934C84.26 31.3066 84.378 31.2578 84.5011 31.2578C84.6242 31.2578 84.7422 31.3066 84.8292 31.3934C84.9162 31.4803 84.9651 31.5981 84.9651 31.7209Z" fill="#EF233C"/>
<path opacity="0.4" d="M84.9651 31.7209V61.3206H84.0371V31.7209C84.0371 31.5981 84.086 31.4803 84.173 31.3934C84.26 31.3066 84.378 31.2578 84.5011 31.2578C84.6242 31.2578 84.7422 31.3066 84.8292 31.3934C84.9162 31.4803 84.9651 31.5981 84.9651 31.7209Z" fill="white"/>
<path d="M102.08 33.5546H84.5011C84.378 33.5546 84.26 33.5058 84.173 33.4189C84.086 33.3321 84.0371 33.2143 84.0371 33.0915C84.0371 32.9687 84.086 32.8509 84.173 32.764C84.26 32.6772 84.378 32.6284 84.5011 32.6284H102.08C102.203 32.6284 102.321 32.6772 102.408 32.764C102.495 32.8509 102.544 32.9687 102.544 33.0915C102.544 33.2143 102.495 33.3321 102.408 33.4189C102.321 33.5058 102.203 33.5546 102.08 33.5546Z" fill="#EF233C"/>
<path d="M102.08 47.7499H84.5011C84.378 47.7499 84.26 47.7011 84.173 47.6142C84.086 47.5274 84.0371 47.4096 84.0371 47.2868C84.0371 47.164 84.086 47.0462 84.173 46.9594C84.26 46.8725 84.378 46.8237 84.5011 46.8237H102.08C102.203 46.8237 102.321 46.8725 102.408 46.9594C102.495 47.0462 102.544 47.164 102.544 47.2868C102.544 47.4096 102.495 47.5274 102.408 47.6142C102.321 47.7011 102.203 47.7499 102.08 47.7499Z" fill="#EF233C"/>
<g opacity="0.2">
<path d="M102.08 33.5546H84.5011C84.378 33.5546 84.26 33.5058 84.173 33.4189C84.086 33.3321 84.0371 33.2143 84.0371 33.0915C84.0371 32.9687 84.086 32.8509 84.173 32.764C84.26 32.6772 84.378 32.6284 84.5011 32.6284H102.08C102.203 32.6284 102.321 32.6772 102.408 32.764C102.495 32.8509 102.544 32.9687 102.544 33.0915C102.544 33.2143 102.495 33.3321 102.408 33.4189C102.321 33.5058 102.203 33.5546 102.08 33.5546Z" fill="white"/>
</g>
<g opacity="0.2">
<path d="M102.08 47.7499H84.5011C84.378 47.7499 84.26 47.7011 84.173 47.6142C84.086 47.5274 84.0371 47.4096 84.0371 47.2868C84.0371 47.164 84.086 47.0462 84.173 46.9594C84.26 46.8725 84.378 46.8237 84.5011 46.8237H102.08C102.203 46.8237 102.321 46.8725 102.408 46.9594C102.495 47.0462 102.544 47.164 102.544 47.2868C102.544 47.4096 102.495 47.5274 102.408 47.6142C102.321 47.7011 102.203 47.7499 102.08 47.7499Z" fill="white"/>
</g>
<path d="M84.8977 34.7421H73.6898C73.6826 34.6534 73.6422 34.5707 73.5766 34.5103C73.511 34.45 73.4251 34.4165 73.336 34.4165C73.2468 34.4165 73.1609 34.45 73.0953 34.5103C73.0298 34.5707 72.9894 34.6534 72.9822 34.7421H28.9996C28.9834 34.6619 28.94 34.5897 28.8765 34.5379C28.8131 34.486 28.7336 34.4577 28.6516 34.4577C28.5696 34.4577 28.4901 34.486 28.4267 34.5379C28.3633 34.5897 28.3198 34.6619 28.3036 34.7421H15.0332V45.3049H28.2827C28.2989 45.3851 28.3424 45.4573 28.4058 45.5091C28.4693 45.561 28.5487 45.5893 28.6307 45.5893C28.7127 45.5893 28.7922 45.561 28.8556 45.5091C28.9191 45.4573 28.9626 45.3851 28.9787 45.3049H72.9822C72.9894 45.3936 73.0298 45.4763 73.0953 45.5367C73.1609 45.597 73.2468 45.6305 73.336 45.6305C73.4251 45.6305 73.511 45.597 73.5766 45.5367C73.6422 45.4763 73.6826 45.3936 73.6898 45.3049H84.8977V34.7421ZM15.7408 44.6102V35.4368H28.2827V44.6102H15.7408ZM28.9903 44.6102V35.4368H72.9822V44.6102H28.9903ZM84.1901 44.6102H73.6898V35.4368H84.1901V44.6102Z" fill="#EF233C"/>
<path opacity="0.4" d="M84.8977 34.7421H73.6898C73.6826 34.6534 73.6422 34.5707 73.5766 34.5103C73.511 34.45 73.4251 34.4165 73.336 34.4165C73.2468 34.4165 73.1609 34.45 73.0953 34.5103C73.0298 34.5707 72.9894 34.6534 72.9822 34.7421H28.9996C28.9834 34.6619 28.94 34.5897 28.8765 34.5379C28.8131 34.486 28.7336 34.4577 28.6516 34.4577C28.5696 34.4577 28.4901 34.486 28.4267 34.5379C28.3633 34.5897 28.3198 34.6619 28.3036 34.7421H15.0332V45.3049H28.2827C28.2989 45.3851 28.3424 45.4573 28.4058 45.5091C28.4693 45.561 28.5487 45.5893 28.6307 45.5893C28.7127 45.5893 28.7922 45.561 28.8556 45.5091C28.9191 45.4573 28.9626 45.3851 28.9787 45.3049H72.9822C72.9894 45.3936 73.0298 45.4763 73.0953 45.5367C73.1609 45.597 73.2468 45.6305 73.336 45.6305C73.4251 45.6305 73.511 45.597 73.5766 45.5367C73.6422 45.4763 73.6826 45.3936 73.6898 45.3049H84.8977V34.7421ZM15.7408 44.6102V35.4368H28.2827V44.6102H15.7408ZM28.9903 44.6102V35.4368H72.9822V44.6102H28.9903ZM84.1901 44.6102H73.6898V35.4368H84.1901V44.6102Z" fill="white"/>
<path d="M15.3702 62.7723C15.2472 62.7723 15.1292 62.7235 15.0422 62.6367C14.9551 62.5498 14.9062 62.432 14.9062 62.3092V31.7209C14.9062 31.5981 14.9551 31.4803 15.0422 31.3934C15.1292 31.3066 15.2472 31.2578 15.3702 31.2578C15.4933 31.2578 15.6113 31.3066 15.6983 31.3934C15.7854 31.4803 15.8342 31.5981 15.8342 31.7209V62.3092C15.8342 62.432 15.7854 62.5498 15.6983 62.6367C15.6113 62.7235 15.4933 62.7723 15.3702 62.7723Z" fill="#EF233C"/>
<g opacity="0.2">
<path d="M15.3702 62.7723C15.2472 62.7723 15.1292 62.7235 15.0422 62.6367C14.9551 62.5498 14.9062 62.432 14.9062 62.3092V31.7209C14.9062 31.5981 14.9551 31.4803 15.0422 31.3934C15.1292 31.3066 15.2472 31.2578 15.3702 31.2578C15.4933 31.2578 15.6113 31.3066 15.6983 31.3934C15.7854 31.4803 15.8342 31.5981 15.8342 31.7209V62.3092C15.8342 62.432 15.7854 62.5498 15.6983 62.6367C15.6113 62.7235 15.4933 62.7723 15.3702 62.7723Z" fill="white"/>
</g>
<path d="M102.081 62.4412C101.958 62.4412 101.84 62.3924 101.753 62.3056C101.666 62.2187 101.617 62.1009 101.617 61.9781V31.7209C101.617 31.5981 101.666 31.4803 101.753 31.3934C101.84 31.3066 101.958 31.2578 102.081 31.2578C102.204 31.2578 102.322 31.3066 102.409 31.3934C102.496 31.4803 102.545 31.5981 102.545 31.7209V61.9828C102.544 62.1048 102.495 62.2214 102.408 62.3072C102.321 62.3931 102.203 62.4412 102.081 62.4412Z" fill="#EF233C"/>
<path d="M102.11 61.3203H15.5879V63.3046H102.11V61.3203Z" fill="#263238"/>
<path d="M32.9443 62.7723H15.3703C15.2472 62.7723 15.1292 62.7236 15.0422 62.6367C14.9551 62.5499 14.9062 62.4321 14.9062 62.3093C14.9062 62.1865 14.9551 62.0687 15.0422 61.9818C15.1292 61.895 15.2472 61.8462 15.3703 61.8462H32.9443C33.0673 61.8462 33.1853 61.895 33.2723 61.9818C33.3594 62.0687 33.4083 62.1865 33.4083 62.3093C33.4083 62.4321 33.3594 62.5499 33.2723 62.6367C33.1853 62.7236 33.0673 62.7723 32.9443 62.7723Z" fill="#EF233C"/>
<path d="M32.9443 70.8016H15.3703C15.2472 70.8016 15.1292 70.7528 15.0422 70.666C14.9551 70.5792 14.9062 70.4614 14.9062 70.3386C14.9062 70.2157 14.9551 70.098 15.0422 70.0111C15.1292 69.9243 15.2472 69.8755 15.3703 69.8755H32.9443C33.0673 69.8755 33.1853 69.9243 33.2723 70.0111C33.3594 70.098 33.4083 70.2157 33.4083 70.3386C33.4083 70.4614 33.3594 70.5792 33.2723 70.666C33.1853 70.7528 33.0673 70.8016 32.9443 70.8016Z" fill="#EF233C"/>
<path d="M32.9443 78.829H15.3703C15.2472 78.829 15.1292 78.7802 15.0422 78.6933C14.9551 78.6065 14.9062 78.4887 14.9062 78.3659C14.9062 78.2431 14.9551 78.1253 15.0422 78.0385C15.1292 77.9516 15.2472 77.9028 15.3703 77.9028H32.9443C33.0673 77.9028 33.1853 77.9516 33.2723 78.0385C33.3594 78.1253 33.4083 78.2431 33.4083 78.3659C33.4083 78.4887 33.3594 78.6065 33.2723 78.6933C33.1853 78.7802 33.0673 78.829 32.9443 78.829Z" fill="#EF233C"/>
<path d="M32.9443 86.8588H15.3703C15.2472 86.8588 15.1292 86.81 15.0422 86.7231C14.9551 86.6363 14.9062 86.5185 14.9062 86.3957C14.9062 86.2729 14.9551 86.1551 15.0422 86.0682C15.1292 85.9814 15.2472 85.9326 15.3703 85.9326H32.9443C33.0673 85.9326 33.1853 85.9814 33.2723 86.0682C33.3594 86.1551 33.4083 86.2729 33.4083 86.3957C33.4083 86.5185 33.3594 86.6363 33.2723 86.7231C33.1853 86.81 33.0673 86.8588 32.9443 86.8588Z" fill="#EF233C"/>
<path d="M32.9443 94.8886H15.3703C15.2472 94.8886 15.1292 94.8398 15.0422 94.7529C14.9551 94.6661 14.9062 94.5483 14.9062 94.4255C14.9062 94.3027 14.9551 94.1849 15.0422 94.098C15.1292 94.0112 15.2472 93.9624 15.3703 93.9624H32.9443C33.0673 93.9624 33.1853 94.0112 33.2723 94.098C33.3594 94.1849 33.4083 94.3027 33.4083 94.4255C33.4083 94.5483 33.3594 94.6661 33.2723 94.7529C33.1853 94.8398 33.0673 94.8886 32.9443 94.8886Z" fill="#EF233C"/>
<path d="M32.9445 96.7107C32.8214 96.7107 32.7034 96.6619 32.6164 96.575C32.5294 96.4882 32.4805 96.3704 32.4805 96.2476V61.5402C32.4805 61.4174 32.5294 61.2996 32.6164 61.2128C32.7034 61.1259 32.8214 61.0771 32.9445 61.0771C33.0675 61.0771 33.1855 61.1259 33.2726 61.2128C33.3596 61.2996 33.4085 61.4174 33.4085 61.5402V96.2476C33.4085 96.3704 33.3596 96.4882 33.2726 96.575C33.1855 96.6619 33.0675 96.7107 32.9445 96.7107Z" fill="#EF233C"/>
<path d="M32.9451 33.5546H15.8351C15.712 33.5546 15.594 33.5058 15.507 33.4189C15.42 33.3321 15.3711 33.2143 15.3711 33.0915C15.3711 32.9687 15.42 32.8509 15.507 32.764C15.594 32.6772 15.712 32.6284 15.8351 32.6284H32.9451C33.0682 32.6284 33.1862 32.6772 33.2732 32.764C33.3602 32.8509 33.4091 32.9687 33.4091 33.0915C33.4091 33.2143 33.3602 33.3321 33.2732 33.4189C33.1862 33.5058 33.0682 33.5546 32.9451 33.5546Z" fill="#EF233C"/>
<path d="M32.9449 47.7499H15.589C15.4659 47.7499 15.3479 47.7011 15.2609 47.6142C15.1739 47.5274 15.125 47.4096 15.125 47.2868C15.125 47.164 15.1739 47.0462 15.2609 46.9594C15.3479 46.8725 15.4659 46.8237 15.589 46.8237H32.9449C33.068 46.8237 33.186 46.8725 33.273 46.9594C33.36 47.0462 33.4089 47.164 33.4089 47.2868C33.4089 47.4096 33.36 47.5274 33.273 47.6142C33.186 47.7011 33.068 47.7499 32.9449 47.7499Z" fill="#EF233C"/>
<path d="M32.9445 64.8307C32.8214 64.8307 32.7034 64.7819 32.6164 64.695C32.5294 64.6082 32.4805 64.4904 32.4805 64.3676V31.7209C32.4805 31.5981 32.5294 31.4803 32.6164 31.3934C32.7034 31.3066 32.8214 31.2578 32.9445 31.2578C33.0675 31.2578 33.1855 31.3066 33.2726 31.3934C33.3596 31.4803 33.4085 31.5981 33.4085 31.7209V64.3676C33.4085 64.4904 33.3596 64.6082 33.2726 64.695C33.1855 64.7819 33.0675 64.8307 32.9445 64.8307Z" fill="#EF233C"/>
<path d="M102.079 94.8884C102.026 94.8892 101.974 94.8806 101.924 94.863L32.6487 70.4867C32.5893 70.4681 32.5343 70.4377 32.487 70.3973C32.4396 70.357 32.4009 70.3076 32.3731 70.252C32.3453 70.1964 32.329 70.1358 32.3251 70.0738C32.3213 70.0118 32.3299 69.9496 32.3506 69.891C32.3714 69.8325 32.4037 69.7786 32.4457 69.7328C32.4876 69.6869 32.5385 69.6499 32.5951 69.6241C32.6517 69.5982 32.7129 69.584 32.7751 69.5822C32.8373 69.5805 32.8993 69.5912 32.9573 69.6139L102.226 93.9901C102.328 94.0271 102.414 94.0987 102.468 94.1924C102.523 94.2862 102.543 94.3961 102.525 94.503C102.506 94.61 102.451 94.7071 102.369 94.7776C102.286 94.848 102.181 94.8872 102.072 94.8884H102.079Z" fill="#EF233C"/>
<path d="M32.9439 94.8888C32.8348 94.8887 32.7293 94.8502 32.6458 94.7802C32.5623 94.7101 32.5063 94.6129 32.4874 94.5057C32.4686 94.3985 32.4882 94.2881 32.5429 94.1938C32.5975 94.0996 32.6836 94.0276 32.7862 93.9905L101.811 69.1883C101.926 69.1463 102.053 69.1515 102.164 69.2027C102.275 69.2539 102.362 69.3469 102.405 69.4615C102.446 69.5766 102.44 69.7033 102.387 69.8139C102.335 69.9245 102.241 70.0101 102.126 70.0519L33.0947 94.8634C33.0462 94.8801 32.9953 94.8887 32.9439 94.8888Z" fill="#EF233C"/>
<g opacity="0.1">
<path d="M32.9439 94.8888C32.8348 94.8887 32.7293 94.8502 32.6458 94.7802C32.5623 94.7101 32.5063 94.6129 32.4874 94.5057C32.4686 94.3985 32.4882 94.2881 32.5429 94.1938C32.5975 94.0996 32.6836 94.0276 32.7862 93.9905L101.811 69.1883C101.926 69.1463 102.053 69.1515 102.164 69.2027C102.275 69.2539 102.362 69.3469 102.405 69.4615C102.446 69.5766 102.44 69.7033 102.387 69.8139C102.335 69.9245 102.241 70.0101 102.126 70.0519L33.0947 94.8634C33.0462 94.8801 32.9953 94.8887 32.9439 94.8888Z" fill="white"/>
</g>
<path opacity="0.1" d="M39.5409 21.6234C39.5409 21.6843 39.5229 21.7438 39.4889 21.7945C39.455 21.8451 39.4068 21.8846 39.3505 21.9079C39.2941 21.9312 39.232 21.9373 39.1722 21.9254C39.1123 21.9135 39.0574 21.8842 39.0142 21.8411C38.971 21.7981 38.9417 21.7432 38.9298 21.6835C38.9179 21.6237 38.924 21.5618 38.9473 21.5055C38.9707 21.4493 39.0102 21.4012 39.061 21.3673C39.1117 21.3335 39.1714 21.3154 39.2324 21.3154C39.314 21.316 39.3922 21.3487 39.4499 21.4063C39.5076 21.4639 39.5403 21.5419 39.5409 21.6234Z" fill="white"/>
<path d="M46.5226 45.7705C46.3995 45.7705 46.2815 45.7217 46.1945 45.6348C46.1075 45.548 46.0586 45.4302 46.0586 45.3074V34.7424C46.0586 34.6196 46.1075 34.5018 46.1945 34.4149C46.2815 34.3281 46.3995 34.2793 46.5226 34.2793C46.6457 34.2793 46.7637 34.3281 46.8507 34.4149C46.9377 34.5018 46.9866 34.6196 46.9866 34.7424V45.3074C46.9866 45.4302 46.9377 45.548 46.8507 45.6348C46.7637 45.7217 46.6457 45.7705 46.5226 45.7705Z" fill="#EF233C"/>
<path d="M90.1827 45.7705C90.0597 45.7705 89.9417 45.7217 89.8547 45.6348C89.7676 45.548 89.7188 45.4302 89.7188 45.3074V34.7424C89.7188 34.6196 89.7676 34.5018 89.8547 34.4149C89.9417 34.3281 90.0597 34.2793 90.1827 34.2793C90.3058 34.2793 90.4238 34.3281 90.5108 34.4149C90.5979 34.5018 90.6467 34.6196 90.6467 34.7424V45.3074C90.6467 45.4302 90.5979 45.548 90.5108 45.6348C90.4238 45.7217 90.3058 45.7705 90.1827 45.7705Z" fill="#EF233C"/>
<path d="M101.564 34.7421V45.3048H33.5296V34.7421H101.564ZM101.564 33.8159H33.5296C33.2834 33.8159 33.0474 33.9135 32.8734 34.0872C32.6993 34.2609 32.6016 34.4964 32.6016 34.7421V45.3048C32.6016 45.5504 32.6993 45.786 32.8734 45.9597C33.0474 46.1334 33.2834 46.2309 33.5296 46.2309H101.564C101.81 46.2309 102.046 46.1334 102.22 45.9597C102.394 45.786 102.492 45.5504 102.492 45.3048V34.7421C102.492 34.4964 102.394 34.2609 102.22 34.0872C102.046 33.9135 101.81 33.8159 101.564 33.8159Z" fill="#EF233C"/>
</svg>
