<svg width="130" height="130" viewBox="0 0 130 130" fill="none" xmlns="http://www.w3.org/2000/svg">
<path d="M64.9991 125.869C98.9792 125.869 126.525 110.221 126.525 90.9194C126.525 71.6175 98.9792 55.9702 64.9991 55.9702C31.019 55.9702 3.47266 71.6175 3.47266 90.9194C3.47266 110.221 31.019 125.869 64.9991 125.869Z" fill="#F5F5F5"/>
<path d="M31.8814 96.9255C42.2403 96.9255 50.6378 92.1052 50.6378 86.1589C50.6378 80.2127 42.2403 75.3923 31.8814 75.3923C21.5225 75.3923 13.125 80.2127 13.125 86.1589C13.125 92.1052 21.5225 96.9255 31.8814 96.9255Z" fill="#E0E0E0"/>
<path d="M53.3938 119.475C59.2496 119.475 63.9966 116.75 63.9966 113.389C63.9966 110.027 59.2496 107.302 53.3938 107.302C47.5381 107.302 42.791 110.027 42.791 113.389C42.791 116.75 47.5381 119.475 53.3938 119.475Z" fill="#E0E0E0"/>
<path d="M69.9995 113.906H76.5879L123.957 86.5827L77.2821 58.0503L55.8711 71.4533L87.9811 90.2669L58.6921 107.307L69.9995 113.906Z" fill="#E0E0E0"/>
<path d="M23.7509 79.4845L20.6101 81.2811C20.6101 81.2811 22.2429 76.2189 21.4291 71.0969C21.1223 69.1625 20.4385 68.1979 20.1993 67.6779C19.9601 67.1579 18.1193 63.9521 19.7885 62.5013C21.4577 61.0505 25.3161 64.0197 25.0509 71.8899C24.9363 74.4658 24.4996 77.0172 23.7509 79.4845Z" fill="#455A64"/>
<path d="M22.29 80.4439C22.2762 80.4464 22.2622 80.4464 22.2484 80.4439C22.2173 80.4322 22.192 80.4088 22.1779 80.3786C22.1638 80.3485 22.162 80.3141 22.173 80.2827C22.173 80.2515 23.3872 76.9937 23.3872 71.7339C23.3872 66.4741 20.717 63.6947 20.691 63.6739C20.6794 63.6623 20.6701 63.6485 20.6638 63.6333C20.6575 63.6182 20.6543 63.6019 20.6543 63.5855C20.6543 63.5691 20.6575 63.5528 20.6638 63.5376C20.6701 63.5225 20.6794 63.5087 20.691 63.4971C20.7147 63.4742 20.7464 63.4614 20.7794 63.4614C20.8124 63.4614 20.8441 63.4742 20.8678 63.4971C20.8964 63.5257 23.6368 66.4039 23.6368 71.7391C23.6368 77.0743 22.4174 80.3451 22.4044 80.3763C22.3942 80.3976 22.3778 80.4154 22.3575 80.4274C22.3371 80.4395 22.3136 80.4452 22.29 80.4439Z" fill="white"/>
<path d="M23.0569 79.8564L17.8569 82.8594C17.8569 82.8594 15.5013 82.4798 15.7067 80.236C15.9121 77.9922 16.8767 77.4748 15.7067 76.4738C14.5367 75.4728 14.2143 75.4026 14.2845 74.4354C14.3547 73.4682 15.0021 73.0548 15.3089 72.6752C15.6157 72.2956 16.4711 71.5026 15.8887 70.3352C15.3063 69.1678 14.5159 68.0264 15.7197 67.5064C16.4347 67.1944 17.6307 67.6078 18.4185 68.471C19.2063 69.3342 19.8511 69.9556 20.6025 70.1636C21.3539 70.3716 22.9269 70.4054 22.8593 71.7236C22.7917 73.0418 22.4485 73.4864 22.7553 74.0636C23.3299 75.1608 25.8597 75.7822 23.0569 79.8564Z" fill="#37474F"/>
<path d="M20.9439 81.2031C20.9275 81.2018 20.9115 81.1973 20.8969 81.1898C20.8822 81.1822 20.8692 81.1719 20.8586 81.1593C20.848 81.1468 20.8399 81.1322 20.8349 81.1165C20.8299 81.1009 20.8281 81.0843 20.8295 81.0679C20.8295 80.9899 21.4769 73.3511 16.2873 68.2759C16.2736 68.265 16.2624 68.2514 16.2543 68.2358C16.2462 68.2203 16.2415 68.2033 16.2405 68.1858C16.2394 68.1683 16.242 68.1508 16.2482 68.1344C16.2543 68.1181 16.2639 68.1031 16.2761 68.0907C16.2884 68.0782 16.3032 68.0685 16.3195 68.0621C16.3358 68.0557 16.3532 68.0528 16.3707 68.0536C16.3882 68.0544 16.4053 68.0589 16.421 68.0667C16.4366 68.0745 16.4504 68.0856 16.4615 68.0991C21.7369 73.2575 21.0869 81.0133 21.0791 81.0991C21.0746 81.1307 21.0579 81.1592 21.0327 81.1786C21.0074 81.198 20.9756 81.2068 20.9439 81.2031Z" fill="white"/>
<path d="M20.0951 74.5341C20.0623 74.5308 20.032 74.5149 20.0106 74.4896C19.9893 74.4644 19.9786 74.4319 19.9807 74.3989C20.0259 73.7642 20.2016 73.1456 20.4969 72.5818C20.7922 72.0181 21.2006 71.5214 21.6967 71.1229C21.7102 71.1135 21.7254 71.1068 21.7415 71.1033C21.7575 71.0997 21.7741 71.0994 21.7903 71.1023C21.8065 71.1052 21.822 71.1113 21.8358 71.1202C21.8496 71.129 21.8616 71.1406 21.8709 71.1541C21.8809 71.1673 21.888 71.1824 21.8919 71.1984C21.8959 71.2144 21.8965 71.231 21.8938 71.2473C21.8912 71.2636 21.8852 71.2792 21.8764 71.2931C21.8675 71.307 21.856 71.319 21.8423 71.3283C21.3794 71.7086 20.9981 72.1784 20.7211 72.7096C20.4441 73.2408 20.2772 73.8225 20.2303 74.4197C20.229 74.4361 20.2245 74.4521 20.217 74.4668C20.2095 74.4814 20.1991 74.4944 20.1866 74.5051C20.174 74.5157 20.1594 74.5237 20.1438 74.5287C20.1281 74.5337 20.1115 74.5355 20.0951 74.5341Z" fill="white"/>
<path d="M20.4612 75.8652C20.4433 75.8649 20.4257 75.8609 20.4096 75.8533C20.3934 75.8456 20.3791 75.8346 20.3676 75.821C20.3676 75.808 19.0676 74.3806 16.1036 74.7576C16.0691 74.7617 16.0344 74.752 16.0071 74.7305C15.9798 74.7091 15.9621 74.6777 15.958 74.6432C15.9538 74.6087 15.9636 74.574 15.985 74.5467C16.0065 74.5194 16.0379 74.5017 16.0724 74.4976C19.1768 74.105 20.4924 75.5844 20.5548 75.6468C20.5664 75.6584 20.5756 75.6722 20.5819 75.6873C20.5882 75.7025 20.5915 75.7188 20.5915 75.7352C20.5915 75.7516 20.5882 75.7679 20.5819 75.783C20.5756 75.7982 20.5664 75.812 20.5548 75.8236C20.5431 75.8369 20.5287 75.8475 20.5125 75.8547C20.4964 75.8619 20.4788 75.8654 20.4612 75.8652Z" fill="white"/>
<path d="M32.2168 91.2107C40.9617 91.2107 48.0508 87.1411 48.0508 82.1211C48.0508 77.101 40.9617 73.0315 32.2168 73.0315C23.4719 73.0315 16.3828 77.101 16.3828 82.1211C16.3828 87.1411 23.4719 91.2107 32.2168 91.2107Z" fill="#37474F"/>
<path d="M48.0515 82.1211C48.0515 87.1417 40.9639 91.2211 32.2175 91.2211C23.4711 91.2211 16.3809 87.1417 16.3809 82.1211V84.6613C16.3809 89.6793 23.4685 93.7483 32.2123 93.7483C40.9561 93.7483 48.0463 89.6793 48.0463 84.6613V82.1211H48.0515Z" fill="#253239"/>
<path d="M32.2166 90.1265C24.0968 90.1265 17.4902 86.5359 17.4902 82.1211C17.4902 77.7063 24.0968 74.1157 32.2166 74.1157C40.3364 74.1157 46.9456 77.7063 46.9456 82.1211C46.9456 86.5359 40.339 90.1265 32.2166 90.1265ZM32.2166 74.3913C24.2476 74.3913 17.7632 77.8571 17.7632 82.1211C17.7632 86.3851 24.2476 89.8509 32.2166 89.8509C40.1856 89.8509 46.67 86.3825 46.67 82.1211C46.67 77.8597 40.1882 74.3913 32.2166 74.3913Z" fill="#EF233C"/>
<path d="M32.2166 41.9719C24.0968 41.9719 17.4902 38.3787 17.4902 33.9639C17.4902 29.5491 24.0968 25.9585 32.2166 25.9585C40.3364 25.9585 46.9456 29.5491 46.9456 33.9639C46.9456 38.3787 40.339 41.9719 32.2166 41.9719ZM32.2166 26.2341C24.2476 26.2341 17.7632 29.7025 17.7632 33.9639C17.7632 38.2253 24.2476 41.6963 32.2166 41.6963C40.1856 41.6963 46.67 38.2201 46.67 33.9639C46.67 29.7077 40.1882 26.2341 32.2166 26.2341Z" fill="#EF233C"/>
<path d="M46.6699 82.1237V82.1211H46.9455L46.6699 82.1237Z" fill="#EF233C"/>
<path d="M17.4902 82.1237V82.1211H17.7658L17.4902 82.1237Z" fill="#EF233C"/>
<path d="M46.9457 82.1211H46.67C46.67 77.8571 40.1883 74.3913 32.2167 74.3913C24.2451 74.3913 17.7633 77.8571 17.7633 82.1211H17.5033V73.6893C17.496 71.3865 18.113 69.1248 19.2887 67.1447C20.4644 65.1646 22.1547 63.5402 24.1801 62.4443L28.2023 60.2785C28.5605 60.084 28.8596 59.7965 29.0681 59.4462C29.2765 59.0959 29.3865 58.6958 29.3865 58.2882C29.3865 57.8805 29.2765 57.4805 29.0681 57.1302C28.8596 56.7799 28.5605 56.4923 28.2023 56.2979L24.1801 54.1321C22.1543 53.0389 20.4625 51.4173 19.2846 49.4396C18.1067 47.4619 17.4866 45.202 17.4903 42.9001V34.3201H17.7815V34.4423C18.2469 38.5113 24.5805 41.6989 32.2037 41.6989C39.8269 41.6989 46.163 38.5113 46.6284 34.4423L46.6414 34.3201H46.9326V42.9001C46.9392 45.2027 46.3216 47.464 45.1454 49.4436C43.9693 51.4232 42.2787 53.0471 40.2533 54.1425L36.2284 56.3083C35.8709 56.5033 35.5725 56.7911 35.3646 57.1413C35.1567 57.4915 35.047 57.8913 35.047 58.2986C35.047 58.7058 35.1567 59.1056 35.3646 59.4558C35.5725 59.8061 35.8709 60.0938 36.2284 60.2889L40.2533 62.4547C44.3327 64.8545 46.891 69.1601 46.9326 73.6997L46.9457 82.1211ZM32.2167 74.1157C39.3667 74.1157 45.3414 76.8977 46.67 80.5741V73.6893C46.6311 69.2485 44.1247 65.0313 40.1311 62.6861L36.1115 60.5229C35.7099 60.3043 35.3747 59.9815 35.1411 59.5885C34.9075 59.1954 34.7843 58.7467 34.7843 58.2895C34.7843 57.8323 34.9075 57.3835 35.1411 56.9905C35.3747 56.5974 35.7099 56.2746 36.1115 56.0561L40.1362 53.8903C42.1165 52.8194 43.7696 51.2321 44.92 49.297C46.0705 47.3619 46.6752 45.1513 46.67 42.9001V35.5161C45.344 39.2159 39.3303 41.9823 32.2167 41.9823C25.1031 41.9823 19.0919 39.2159 17.7633 35.5161V42.9001C17.7567 45.1533 18.3611 47.3661 19.5121 49.3032C20.6631 51.2402 22.3176 52.8291 24.2997 53.9007L28.3245 56.0665C28.726 56.285 29.0612 56.6078 29.2948 57.0009C29.5284 57.3939 29.6516 57.8427 29.6516 58.2999C29.6516 58.7571 29.5284 59.2058 29.2948 59.5989C29.0612 59.9919 28.726 60.3147 28.3245 60.5333L24.2997 62.6991C22.3174 63.7705 20.6627 65.3592 19.5117 67.2964C18.3607 69.2335 17.7564 71.4464 17.7633 73.6997V80.5741C19.0919 76.8977 25.0693 74.1157 32.2167 74.1157Z" fill="#EF233C"/>
<path d="M33.4567 67.6599C33.0796 67.4439 32.6525 67.3303 32.2178 67.3303C31.7832 67.3303 31.3561 67.4439 30.9789 67.6599C27.7029 69.5345 19.0605 74.7735 19.0605 77.9481C19.0605 81.8663 24.9495 85.0435 32.2165 85.0435C39.4835 85.0435 45.3751 81.8663 45.3751 77.9481C45.3751 74.7735 36.7327 69.5345 33.4567 67.6599Z" fill="#EF233C"/>
<path opacity="0.3" d="M33.4567 67.6599C33.0796 67.4439 32.6525 67.3303 32.2178 67.3303C31.7832 67.3303 31.3561 67.4439 30.9789 67.6599C27.7029 69.5345 19.0605 74.7735 19.0605 77.9481C19.0605 81.8663 24.9495 85.0435 32.2165 85.0435C39.4835 85.0435 45.3751 81.8663 45.3751 77.9481C45.3751 74.7735 36.7327 69.5345 33.4567 67.6599Z" fill="white"/>
<path d="M32.2165 85.0434C24.9495 85.0434 19.0605 81.8662 19.0605 77.948V81.5438C19.0605 85.462 24.9521 88.6392 32.2165 88.6392C39.4809 88.6392 45.3751 85.462 45.3751 81.5438V77.948C45.3751 81.8662 39.4835 85.0434 32.2165 85.0434Z" fill="#EF233C"/>
<path d="M19.0606 34.4553V42.2553C19.0561 44.3095 19.6077 46.3265 20.6569 48.0925C21.7061 49.8585 23.2137 51.3076 25.0198 52.2861L28.6598 54.2387C28.7144 54.2699 28.769 54.3011 28.8184 54.3349C28.9484 54.4181 29.0784 54.4987 29.2136 54.5741C29.9578 55.0398 30.5713 55.6873 30.9961 56.4555C31.421 57.2238 31.6432 58.0876 31.642 58.9655V62.3455C31.6413 62.5023 31.7027 62.653 31.8128 62.7645C31.923 62.8761 32.0728 62.9395 32.2296 62.9409C32.3866 62.9395 32.5367 62.8762 32.6472 62.7647C32.7578 62.6532 32.8198 62.5025 32.8198 62.3455V58.9655C32.8185 58.0879 33.0405 57.2244 33.4648 56.4561C33.8892 55.6879 34.502 55.0403 35.2456 54.5741C35.3808 54.4987 35.5056 54.4181 35.6434 54.3349C35.6928 54.3011 35.7474 54.2699 35.802 54.2387L39.429 52.2861C41.2351 51.3076 42.7427 49.8585 43.7919 48.0925C44.841 46.3265 45.3926 44.3095 45.3882 42.2553V34.4553H19.0606Z" fill="#EF233C"/>
<path d="M32.8073 64.7688C32.8068 64.6521 32.7718 64.5383 32.7066 64.4416C32.6415 64.3449 32.5491 64.2696 32.4412 64.2253C32.3333 64.1811 32.2147 64.1697 32.1004 64.1928C31.9861 64.2159 31.8812 64.2723 31.7989 64.3549C31.7166 64.4376 31.6607 64.5427 31.6381 64.6572C31.6155 64.7716 31.6274 64.8901 31.6721 64.9978C31.7169 65.1055 31.7925 65.1975 31.8895 65.2623C31.9865 65.327 32.1005 65.3616 32.2171 65.3616C32.3737 65.3602 32.5234 65.2972 32.6339 65.1863C32.7444 65.0753 32.8067 64.9253 32.8073 64.7688Z" fill="#EF233C"/>
<path opacity="0.3" d="M19.0606 34.4553V42.2553C19.0561 44.3095 19.6077 46.3265 20.6569 48.0925C21.7061 49.8585 23.2137 51.3076 25.0198 52.2861L28.6598 54.2387C28.7144 54.2699 28.769 54.3011 28.8184 54.3349C28.9484 54.4181 29.0784 54.4987 29.2136 54.5741C29.9578 55.0398 30.5713 55.6873 30.9961 56.4555C31.421 57.2238 31.6432 58.0876 31.642 58.9655V62.3455C31.6413 62.5023 31.7027 62.653 31.8128 62.7645C31.923 62.8761 32.0728 62.9395 32.2296 62.9409C32.3866 62.9395 32.5367 62.8762 32.6472 62.7647C32.7578 62.6532 32.8198 62.5025 32.8198 62.3455V58.9655C32.8185 58.0879 33.0405 57.2244 33.4648 56.4561C33.8892 55.6879 34.502 55.0403 35.2456 54.5741C35.3808 54.4987 35.5056 54.4181 35.6434 54.3349C35.6928 54.3011 35.7474 54.2699 35.802 54.2387L39.429 52.2861C41.2351 51.3076 42.7427 49.8585 43.7919 48.0925C44.841 46.3265 45.3926 44.3095 45.3882 42.2553V34.4553H19.0606Z" fill="white"/>
<g opacity="0.3">
<path d="M32.8073 64.7688C32.8068 64.6521 32.7718 64.5383 32.7066 64.4416C32.6415 64.3449 32.5491 64.2696 32.4412 64.2253C32.3333 64.1811 32.2147 64.1697 32.1004 64.1928C31.9861 64.2159 31.8812 64.2723 31.7989 64.3549C31.7166 64.4376 31.6607 64.5427 31.6381 64.6572C31.6155 64.7716 31.6274 64.8901 31.6721 64.9978C31.7169 65.1055 31.7925 65.1975 31.8895 65.2623C31.9865 65.327 32.1005 65.3616 32.2171 65.3616C32.3737 65.3602 32.5234 65.2972 32.6339 65.1863C32.7444 65.0753 32.8067 64.9253 32.8073 64.7688Z" fill="white"/>
</g>
<path d="M32.2172 41.5507C39.4845 41.5507 45.3758 38.3739 45.3758 34.4553C45.3758 30.5366 39.4845 27.3599 32.2172 27.3599C24.9499 27.3599 19.0586 30.5366 19.0586 34.4553C19.0586 38.3739 24.9499 41.5507 32.2172 41.5507Z" fill="#EF233C"/>
<g style="mix-blend-mode:overlay" opacity="0.5">
<path d="M31.1365 60.4007L28.5781 62.5665C25.9781 64.7557 24.3765 69.0327 24.3765 73.6893V88.5249C23.5818 88.2532 22.8084 87.9229 22.0625 87.5369V73.6893C22.0625 69.0327 23.9111 64.7557 26.8751 62.5665L29.8001 60.4007C31.0195 59.4985 31.0195 57.0753 29.8001 56.1783L26.8751 54.0125C23.9215 51.8233 22.0625 47.5437 22.0625 42.9001V34.4553H24.3765V42.9001C24.3765 47.5567 25.9911 51.8363 28.5781 54.0255L31.1365 56.1913C32.1999 57.0753 32.1999 59.4985 31.1365 60.4007Z" fill="white"/>
</g>
<path d="M32.2168 43.0535C40.9617 43.0535 48.0508 38.9839 48.0508 33.9639C48.0508 28.9438 40.9617 24.8743 32.2168 24.8743C23.4719 24.8743 16.3828 28.9438 16.3828 33.9639C16.3828 38.9839 23.4719 43.0535 32.2168 43.0535Z" fill="#37474F"/>
<path d="M48.0515 33.9639C48.0515 38.9845 40.9639 43.0639 32.2175 43.0639C23.4711 43.0639 16.3809 38.9845 16.3809 33.9639V36.5041C16.3809 41.5247 23.4685 45.6041 32.2123 45.6041C40.9561 45.6041 48.0463 41.5351 48.0463 36.5041V33.9639H48.0515Z" fill="#253239"/>
<path d="M84.0286 59.2696V49.2388L70.0042 41.0592V31.0284L55.9824 22.8462V72.9976L70.0042 81.1798L84.0286 89.3594L98.0504 97.5416V67.4518L84.0286 59.2696Z" fill="#EF233C"/>
<path opacity="0.3" d="M84.0293 59.2698V69.3006L98.0511 77.4828V67.452L84.0293 59.2698Z" fill="white"/>
<path d="M98.0501 67.452V77.4828L84.0283 85.665V95.6932L70.0039 103.875V113.906L84.0283 105.724L98.0501 97.5418L112.075 89.3596V59.2698L98.0501 67.452Z" fill="#EF233C"/>
<path opacity="0.1" d="M98.0501 67.452V77.4828L84.0283 85.665V95.6932L70.0039 103.875V113.906L84.0283 105.724L98.0501 97.5418L112.075 89.3596V59.2698L98.0501 67.452Z" fill="white"/>
<path d="M70.0042 31.0285L55.9824 22.8463L70.0042 14.6641L84.0286 22.8463L70.0042 31.0285Z" fill="#EF233C"/>
<path opacity="0.7" d="M70.0042 31.0285L55.9824 22.8463L70.0042 14.6641L84.0286 22.8463L70.0042 31.0285Z" fill="white"/>
<path d="M70.0039 41.0592V31.0284L84.0283 22.8462V32.877L70.0039 41.0592Z" fill="#EF233C"/>
<path opacity="0.1" d="M70.0039 41.0592V31.0284L84.0283 22.8462V32.877L70.0039 41.0592Z" fill="black"/>
<path d="M84.0283 49.239L70.0039 41.0594L84.0283 32.8772L98.0501 41.0594L84.0283 49.239Z" fill="#EF233C"/>
<path d="M84.0293 59.2697V49.2389L98.0511 41.0593V51.0875L84.0293 59.2697Z" fill="#EF233C"/>
<path opacity="0.7" d="M84.0283 49.239L70.0039 41.0594L84.0283 32.8772L98.0501 41.0594L84.0283 49.239Z" fill="white"/>
<path opacity="0.1" d="M84.0293 59.2697V49.2389L98.0511 41.0593V51.0875L84.0293 59.2697Z" fill="black"/>
<path d="M98.0511 67.4518L84.0293 59.2696L98.0511 51.0874L112.075 59.2696L98.0511 67.4518Z" fill="#EF233C"/>
<g opacity="0.7">
<path d="M98.0511 67.4518L84.0293 59.2696L98.0511 51.0874L112.075 59.2696L98.0511 67.4518Z" fill="white"/>
</g>
<path d="M84.0283 85.6649L98.0501 77.4827L84.0283 69.3005L70.0039 77.4827L84.0283 85.6649Z" fill="#EF233C"/>
<path opacity="0.7" d="M84.0283 85.6649L98.0501 77.4827L84.0283 69.3005L70.0039 77.4827L84.0283 85.6649Z" fill="white"/>
<path d="M84.0283 95.6931V85.6649L70.0039 77.4827V87.5135L84.0283 95.6931Z" fill="#EF233C"/>
<path opacity="0.3" d="M84.0283 95.6931V85.6649L70.0039 77.4827V87.5135L84.0283 95.6931Z" fill="white"/>
<path d="M70.0042 103.875L84.0286 95.693L70.0042 87.5134L55.9824 95.693L70.0042 103.875Z" fill="#EF233C"/>
<path d="M70.0042 113.906V103.875L55.9824 95.6931V105.724L70.0042 113.906Z" fill="#EF233C"/>
<path opacity="0.7" d="M70.0042 103.875L84.0286 95.693L70.0042 87.5134L55.9824 95.693L70.0042 103.875Z" fill="white"/>
<path opacity="0.3" d="M70.0042 113.906V103.875L55.9824 95.6931V105.724L70.0042 113.906Z" fill="white"/>
<path d="M81.316 94.1122L67.2942 102.294L58.6934 97.2764L72.7178 89.0942L81.316 94.1122Z" fill="#EF233C"/>
<path opacity="0.4" d="M81.316 94.1122L67.2942 102.294L58.6934 97.2764L72.7178 89.0942L81.316 94.1122Z" fill="white"/>
<path d="M67.2948 102.295V112.323L58.6914 107.307V97.2766H58.694L67.2948 102.295Z" fill="#EF233C"/>
<path d="M95.3414 75.8992L81.317 84.0814L72.7188 79.066L86.7405 70.8838L95.3414 75.8992Z" fill="#EF233C"/>
<path opacity="0.4" d="M95.3414 75.8992L81.317 84.0814L72.7188 79.066L86.7405 70.8838L95.3414 75.8992Z" fill="white"/>
<path d="M81.3176 84.0816V94.1124L72.7168 89.0944V79.0662H72.7194L81.3176 84.0816Z" fill="#EF233C"/>
<path d="M95.3417 65.871V75.8992L86.7383 70.8838V60.853H86.7409L95.3417 65.871Z" fill="#EF233C"/>
<path d="M95.3417 65.871V75.8992L86.7383 70.8838V60.853H86.7409L95.3417 65.871Z" fill="#EF233C"/>
<path d="M72.7168 39.4758L86.7386 47.658L95.3394 42.6426L81.315 34.4578L72.7168 39.4758Z" fill="#EF233C"/>
<g style="mix-blend-mode:overlay" opacity="0.5">
<path d="M72.7168 39.4758L86.7386 47.658L95.3394 42.6426L81.315 34.4578L72.7168 39.4758Z" fill="white"/>
</g>
<path d="M86.7383 47.658V57.6888L95.3417 52.6708V42.6426H95.3391L86.7383 47.658Z" fill="#EF233C"/>
<path opacity="0.3" d="M86.7383 47.658V57.6888L95.3417 52.6708V42.6426H95.3391L86.7383 47.658Z" fill="black"/>
<path d="M58.6914 21.263L72.7158 29.4478L81.314 24.4298L67.2922 16.2476L58.6914 21.263Z" fill="#EF233C"/>
<g style="mix-blend-mode:overlay" opacity="0.5">
<path d="M58.6914 21.263L72.7158 29.4478L81.314 24.4298L67.2922 16.2476L58.6914 21.263Z" fill="white"/>
</g>
<path d="M72.7168 29.4477V39.4759L81.3176 34.4579V24.4297H81.315L72.7168 29.4477Z" fill="#EF233C"/>
<path opacity="0.3" d="M72.7168 29.4477V39.4759L81.3176 34.4579V24.4297H81.315L72.7168 29.4477Z" fill="black"/>
<path d="M98.0509 54.2542L95.3391 52.6682L86.7383 57.6862L89.4527 59.2696L86.7409 60.853L95.3417 65.8684L98.0509 64.2876L106.652 59.2696L98.0509 54.2542Z" fill="#EF233C"/>
<path opacity="0.4" d="M98.0509 54.2542L95.3391 52.6682L86.7383 57.6862L89.4527 59.2696L86.7409 60.853L95.3417 65.8684L98.0509 64.2876L106.652 59.2696L98.0509 54.2542Z" fill="white"/>
<path d="M64.4196 19.7134C64.3978 19.7131 64.3765 19.7078 64.3572 19.6978L63.8372 19.391C63.823 19.3826 63.8105 19.3716 63.8006 19.3584C63.7907 19.3453 63.7834 19.3303 63.7793 19.3144C63.7752 19.2984 63.7743 19.2818 63.7767 19.2655C63.779 19.2492 63.7845 19.2335 63.793 19.2193C63.8093 19.1909 63.8362 19.17 63.8679 19.1613C63.8995 19.1525 63.9333 19.1566 63.962 19.1725L64.482 19.4793C64.5106 19.4962 64.5315 19.5236 64.5403 19.5556C64.549 19.5877 64.5449 19.6219 64.5288 19.651C64.5179 19.6703 64.5021 19.6863 64.4828 19.6973C64.4636 19.7083 64.4417 19.7138 64.4196 19.7134Z" fill="#EF233C"/>
<path d="M74.7171 25.7244C74.695 25.7245 74.6733 25.7181 74.6547 25.7062L73.6147 25.1056C73.6004 25.0974 73.5878 25.0864 73.5777 25.0734C73.5675 25.0603 73.5601 25.0454 73.5558 25.0295C73.5514 25.0135 73.5502 24.9969 73.5523 24.9805C73.5544 24.9641 73.5597 24.9483 73.5679 24.934C73.5761 24.9196 73.587 24.9071 73.6001 24.8969C73.6131 24.8868 73.6281 24.8794 73.644 24.875C73.6599 24.8707 73.6766 24.8695 73.693 24.8716C73.7093 24.8737 73.7252 24.879 73.7395 24.8872L74.7795 25.4878C74.7937 25.4961 74.8062 25.5071 74.8161 25.5203C74.826 25.5334 74.8332 25.5484 74.8373 25.5644C74.8415 25.5803 74.8424 25.5969 74.84 25.6132C74.8377 25.6295 74.8321 25.6452 74.8237 25.6594C74.8136 25.679 74.7984 25.6954 74.7796 25.7069C74.7607 25.7184 74.7391 25.7244 74.7171 25.7244ZM72.6579 24.5206C72.6362 24.5204 72.6148 24.515 72.5955 24.505L71.5555 23.9044C71.5412 23.8962 71.5286 23.8852 71.5185 23.8722C71.5083 23.8591 71.5009 23.8442 71.4966 23.8283C71.4922 23.8123 71.4911 23.7957 71.4931 23.7793C71.4952 23.7629 71.5005 23.7471 71.5087 23.7328C71.5169 23.7184 71.5278 23.7058 71.5409 23.6957C71.554 23.6856 71.5689 23.6782 71.5848 23.6738C71.6007 23.6695 71.6174 23.6683 71.6338 23.6704C71.6501 23.6725 71.666 23.6778 71.6803 23.686L72.7203 24.2866C72.7345 24.2949 72.747 24.3059 72.7569 24.3191C72.7668 24.3322 72.774 24.3472 72.7781 24.3632C72.7822 24.3791 72.7832 24.3957 72.7808 24.412C72.7785 24.4283 72.7729 24.444 72.7645 24.4582C72.7543 24.4775 72.7389 24.4936 72.7201 24.5046C72.7013 24.5156 72.6797 24.5212 72.6579 24.5206ZM70.5987 23.3194C70.5769 23.3195 70.5555 23.3141 70.5363 23.3038L69.4963 22.7032C69.4675 22.6858 69.4465 22.658 69.4378 22.6255C69.429 22.593 69.4332 22.5584 69.4495 22.529C69.4578 22.5148 69.4689 22.5023 69.482 22.4924C69.4952 22.4825 69.5101 22.4752 69.5261 22.4711C69.542 22.467 69.5587 22.4661 69.575 22.4685C69.5913 22.4708 69.6069 22.4763 69.6211 22.4848L70.6611 23.0854C70.6855 23.0988 70.7046 23.1201 70.7155 23.1457C70.7264 23.1713 70.7285 23.1998 70.7213 23.2267C70.7141 23.2537 70.6982 23.2774 70.6759 23.2942C70.6537 23.311 70.6265 23.3198 70.5987 23.3194ZM68.5395 22.1182C68.5173 22.1189 68.4954 22.1126 68.4771 22.1L67.4371 21.4994C67.4085 21.4825 67.3875 21.4552 67.3788 21.4231C67.3701 21.391 67.3742 21.3568 67.3903 21.3278C67.3984 21.3136 67.4092 21.3013 67.4221 21.2914C67.435 21.2815 67.4498 21.2743 67.4655 21.2701C67.4812 21.266 67.4977 21.2651 67.5138 21.2674C67.5299 21.2697 67.5454 21.2752 67.5593 21.2836L68.5993 21.8842C68.6275 21.9014 68.6479 21.929 68.6561 21.961C68.6644 21.9931 68.6598 22.027 68.6435 22.0558C68.6327 22.074 68.6176 22.0893 68.5994 22.1001C68.5812 22.111 68.5607 22.1172 68.5395 22.1182ZM66.4777 20.917C66.4556 20.9171 66.4339 20.9107 66.4153 20.8988L65.3753 20.2982C65.3471 20.2809 65.3267 20.2533 65.3185 20.2213C65.3102 20.1893 65.3148 20.1553 65.3311 20.1266C65.3475 20.0981 65.3744 20.0773 65.406 20.0685C65.4376 20.0597 65.4714 20.0638 65.5001 20.0798L66.5401 20.6804C66.5687 20.6972 66.5897 20.7246 66.5984 20.7567C66.6071 20.7887 66.603 20.8229 66.5869 20.852C66.5762 20.8716 66.5604 20.888 66.5412 20.8994C66.522 20.9108 66.5001 20.9169 66.4777 20.917Z" fill="#EF233C"/>
<path d="M76.2731 26.6318C76.251 26.6319 76.2293 26.6255 76.2107 26.6136L75.6907 26.3068C75.6765 26.2984 75.664 26.2874 75.6541 26.2743C75.6442 26.2611 75.637 26.2461 75.6328 26.2302C75.6287 26.2142 75.6278 26.1976 75.6302 26.1813C75.6325 26.165 75.6381 26.1493 75.6465 26.1352C75.6543 26.1208 75.665 26.1081 75.6778 26.098C75.6907 26.0879 75.7056 26.0805 75.7214 26.0764C75.7373 26.0723 75.7538 26.0714 75.77 26.0739C75.7861 26.0764 75.8016 26.0822 75.8155 26.091L76.3355 26.3952C76.3641 26.412 76.3851 26.4394 76.3938 26.4714C76.4025 26.5035 76.3984 26.5377 76.3823 26.5668C76.3716 26.5864 76.3558 26.6028 76.3366 26.6142C76.3174 26.6256 76.2954 26.6317 76.2731 26.6318Z" fill="#EF233C"/>
<g opacity="0.3">
<path d="M64.4196 19.7134C64.3978 19.7131 64.3765 19.7078 64.3572 19.6978L63.8372 19.391C63.823 19.3826 63.8105 19.3716 63.8006 19.3584C63.7907 19.3453 63.7834 19.3303 63.7793 19.3144C63.7752 19.2984 63.7743 19.2818 63.7767 19.2655C63.779 19.2492 63.7845 19.2335 63.793 19.2193C63.8093 19.1909 63.8362 19.17 63.8679 19.1613C63.8995 19.1525 63.9333 19.1566 63.962 19.1725L64.482 19.4793C64.5106 19.4962 64.5315 19.5236 64.5403 19.5556C64.549 19.5877 64.5449 19.6219 64.5288 19.651C64.5179 19.6703 64.5021 19.6863 64.4828 19.6973C64.4636 19.7083 64.4417 19.7138 64.4196 19.7134Z" fill="black"/>
<path d="M74.7191 25.7246C74.6969 25.7247 74.6753 25.7184 74.6567 25.7064L73.6167 25.1058C73.6023 25.0976 73.5897 25.0867 73.5796 25.0736C73.5695 25.0606 73.5621 25.0456 73.5577 25.0297C73.5534 25.0138 73.5522 24.9971 73.5543 24.9808C73.5564 24.9644 73.5617 24.9486 73.5699 24.9342C73.578 24.9199 73.589 24.9073 73.602 24.8972C73.6151 24.8871 73.63 24.8796 73.646 24.8753C73.6619 24.8709 73.6785 24.8698 73.6949 24.8719C73.7113 24.8739 73.7271 24.8792 73.7415 24.8874L74.7815 25.488C74.7957 25.4963 74.8081 25.5074 74.818 25.5205C74.828 25.5337 74.8352 25.5487 74.8393 25.5646C74.8434 25.5806 74.8443 25.5972 74.842 25.6135C74.8396 25.6298 74.8341 25.6455 74.8257 25.6596C74.8156 25.6792 74.8003 25.6957 74.7815 25.7071C74.7627 25.7186 74.7411 25.7247 74.7191 25.7246ZM72.6599 24.5208C72.6381 24.5206 72.6167 24.5153 72.5975 24.5052L71.5575 23.9046C71.5431 23.8964 71.5305 23.8855 71.5204 23.8724C71.5103 23.8594 71.5029 23.8444 71.4985 23.8285C71.4942 23.8126 71.493 23.7959 71.4951 23.7796C71.4972 23.7632 71.5025 23.7474 71.5107 23.733C71.5189 23.7187 71.5298 23.7061 71.5428 23.696C71.5559 23.6859 71.5708 23.6784 71.5868 23.6741C71.6027 23.6697 71.6193 23.6686 71.6357 23.6707C71.6521 23.6727 71.6679 23.678 71.6823 23.6862L72.7223 24.2868C72.7365 24.2951 72.7489 24.3062 72.7588 24.3193C72.7688 24.3325 72.776 24.3475 72.7801 24.3634C72.7842 24.3794 72.7851 24.396 72.7828 24.4123C72.7804 24.4286 72.7749 24.4443 72.7665 24.4584C72.7563 24.4777 72.7409 24.4938 72.7221 24.5048C72.7032 24.5159 72.6817 24.5214 72.6599 24.5208ZM70.6007 23.3196C70.5789 23.3197 70.5574 23.3144 70.5383 23.304L69.4983 22.7034C69.4694 22.6861 69.4485 22.6582 69.4397 22.6258C69.431 22.5933 69.4352 22.5587 69.4515 22.5292C69.4598 22.515 69.4708 22.5026 69.484 22.4926C69.4971 22.4827 69.5121 22.4755 69.528 22.4714C69.544 22.4673 69.5606 22.4664 69.5769 22.4687C69.5932 22.471 69.6089 22.4766 69.6231 22.485L70.6631 23.0856C70.6874 23.0991 70.7066 23.1203 70.7175 23.1459C70.7284 23.1716 70.7304 23.2001 70.7233 23.227C70.7161 23.2539 70.7001 23.2776 70.6779 23.2944C70.6557 23.3112 70.6285 23.3201 70.6007 23.3196ZM68.5415 22.1184C68.5192 22.1192 68.4974 22.1128 68.4791 22.1002L67.4391 21.4996C67.4104 21.4828 67.3895 21.4554 67.3808 21.4233C67.372 21.3913 67.3761 21.3571 67.3923 21.328C67.4003 21.3139 67.4111 21.3015 67.424 21.2916C67.437 21.2817 67.4517 21.2745 67.4675 21.2704C67.4832 21.2663 67.4996 21.2653 67.5157 21.2676C67.5318 21.2699 67.5473 21.2754 67.5613 21.2838L68.6013 21.8844C68.6295 21.9017 68.6498 21.9293 68.6581 21.9613C68.6663 21.9933 68.6618 22.0273 68.6455 22.056C68.6347 22.0742 68.6195 22.0895 68.6014 22.1004C68.5832 22.1113 68.5626 22.1175 68.5415 22.1184ZM66.4797 20.9172C66.4575 20.9173 66.4359 20.911 66.4173 20.899L65.3773 20.2984C65.3491 20.2811 65.3287 20.2536 65.3204 20.2216C65.3122 20.1895 65.3167 20.1556 65.3331 20.1268C65.3494 20.0984 65.3763 20.0775 65.4079 20.0687C65.4396 20.06 65.4734 20.064 65.5021 20.08L66.5421 20.6806C66.5707 20.6975 66.5916 20.7248 66.6004 20.7569C66.6091 20.789 66.605 20.8232 66.5889 20.8522C66.5781 20.8718 66.5624 20.8882 66.5431 20.8997C66.5239 20.9111 66.502 20.9172 66.4797 20.9172Z" fill="black"/>
<path d="M76.2731 26.632C76.251 26.6321 76.2293 26.6258 76.2107 26.6138L75.6907 26.307C75.6765 26.2987 75.664 26.2876 75.6541 26.2745C75.6442 26.2613 75.637 26.2464 75.6328 26.2304C75.6287 26.2145 75.6278 26.1979 75.6302 26.1815C75.6325 26.1652 75.6381 26.1496 75.6465 26.1354C75.6543 26.121 75.665 26.1084 75.6778 26.0983C75.6907 26.0881 75.7056 26.0808 75.7214 26.0766C75.7373 26.0725 75.7538 26.0717 75.77 26.0742C75.7861 26.0767 75.8016 26.0825 75.8155 26.0912L76.3355 26.3954C76.3641 26.4123 76.3851 26.4396 76.3938 26.4717C76.4025 26.5037 76.3984 26.538 76.3823 26.567C76.3716 26.5866 76.3558 26.603 76.3366 26.6144C76.3174 26.6259 76.2954 26.6319 76.2731 26.632Z" fill="black"/>
</g>
<path d="M78.3688 37.8822C78.3467 37.8823 78.325 37.876 78.3064 37.864L77.7864 37.5572C77.7722 37.5489 77.7597 37.5378 77.7498 37.5247C77.7399 37.5115 77.7327 37.4965 77.7286 37.4806C77.7244 37.4646 77.7235 37.448 77.7259 37.4317C77.7282 37.4154 77.7338 37.3997 77.7422 37.3856C77.7503 37.3715 77.7611 37.3591 77.774 37.3492C77.7869 37.3393 77.8017 37.3321 77.8174 37.328C77.8331 37.3238 77.8495 37.3229 77.8657 37.3252C77.8818 37.3275 77.8972 37.333 77.9112 37.3414L78.4312 37.6482C78.4556 37.6617 78.4747 37.6829 78.4856 37.7085C78.4965 37.7341 78.4986 37.7627 78.4914 37.7896C78.4842 37.8165 78.4683 37.8402 78.446 37.857C78.4238 37.8738 78.3966 37.8826 78.3688 37.8822Z" fill="#EF233C"/>
<path d="M88.6766 43.8985C88.6553 43.8989 88.6344 43.8925 88.6168 43.8803L87.5768 43.2797C87.5625 43.2715 87.5499 43.2606 87.5398 43.2475C87.5297 43.2344 87.5223 43.2195 87.5179 43.2036C87.5136 43.1876 87.5124 43.171 87.5145 43.1546C87.5166 43.1382 87.5219 43.1224 87.53 43.1081C87.5382 43.0937 87.5492 43.0812 87.5622 43.0711C87.5753 43.0609 87.5902 43.0535 87.6062 43.0491C87.6221 43.0448 87.6387 43.0436 87.6551 43.0457C87.6715 43.0478 87.6873 43.0531 87.7016 43.0613L88.7416 43.6645C88.7703 43.6813 88.7912 43.7087 88.8 43.7408C88.8087 43.7728 88.8046 43.807 88.7884 43.8361C88.777 43.8554 88.7606 43.8714 88.741 43.8824C88.7213 43.8933 88.6991 43.8989 88.6766 43.8985ZM86.6149 42.6947C86.5931 42.6945 86.5717 42.6891 86.5524 42.6791L85.5124 42.0759C85.4835 42.0593 85.4623 42.032 85.4535 41.9998C85.4447 41.9676 85.4491 41.9332 85.4656 41.9043C85.4822 41.8753 85.5096 41.8541 85.5418 41.8453C85.5739 41.8366 85.6083 41.8409 85.6372 41.8575L86.6772 42.4607C86.7016 42.4742 86.7208 42.4954 86.7317 42.521C86.7426 42.5466 86.7446 42.5752 86.7374 42.6021C86.7303 42.629 86.7143 42.6527 86.6921 42.6695C86.6699 42.6863 86.6427 42.6951 86.6149 42.6947ZM84.553 41.4909C84.5313 41.4907 84.5099 41.4853 84.4906 41.4753L83.4506 40.8721C83.422 40.8552 83.4011 40.8279 83.3923 40.7958C83.3836 40.7638 83.3877 40.7295 83.4038 40.7005C83.4122 40.6863 83.4232 40.6738 83.4364 40.6639C83.4495 40.654 83.4645 40.6468 83.4804 40.6426C83.4964 40.6385 83.513 40.6376 83.5293 40.64C83.5456 40.6423 83.5613 40.6479 83.5754 40.6563L84.6154 41.2569C84.6441 41.2737 84.665 41.3011 84.6738 41.3332C84.6825 41.3652 84.6784 41.3994 84.6622 41.4285C84.6514 41.4478 84.6355 41.4638 84.6163 41.4748C84.5971 41.4858 84.5752 41.4914 84.553 41.4909ZM82.4912 40.3001C82.4695 40.2999 82.4481 40.2945 82.4288 40.2845L81.3888 39.6839C81.3602 39.667 81.3393 39.6397 81.3305 39.6076C81.3218 39.5755 81.3259 39.5413 81.342 39.5123C81.3501 39.4979 81.361 39.4852 81.3741 39.475C81.3871 39.4648 81.4021 39.4573 81.418 39.453C81.434 39.4486 81.4507 39.4475 81.4671 39.4496C81.4835 39.4518 81.4993 39.4572 81.5136 39.4655L82.5536 40.0661C82.5823 40.0829 82.6032 40.1103 82.6119 40.1424C82.6207 40.1744 82.6166 40.2086 82.6004 40.2377C82.5896 40.257 82.5737 40.273 82.5545 40.284C82.5353 40.295 82.5134 40.3006 82.4912 40.3001ZM80.4294 39.0989C80.4073 39.099 80.3856 39.0927 80.367 39.0807L79.327 38.4801C79.3127 38.4719 79.3001 38.461 79.29 38.4479C79.2799 38.4348 79.2724 38.4199 79.2681 38.404C79.2638 38.388 79.2626 38.3714 79.2647 38.355C79.2668 38.3386 79.272 38.3228 79.2802 38.3085C79.2884 38.2941 79.2994 38.2816 79.3124 38.2714C79.3255 38.2613 79.3404 38.2539 79.3564 38.2495C79.3723 38.2452 79.3889 38.244 79.4053 38.2461C79.4217 38.2482 79.4375 38.2535 79.4518 38.2617L80.4918 38.8623C80.5207 38.8796 80.5416 38.9075 80.5504 38.94C80.5591 38.9724 80.5549 39.007 80.5386 39.0365C80.5259 39.053 80.5093 39.0662 80.4902 39.0748C80.4712 39.0834 80.4503 39.0872 80.4294 39.0859V39.0989Z" fill="#EF233C"/>
<path d="M90.234 44.8059C90.2123 44.8057 90.1909 44.8003 90.1716 44.7903L89.6516 44.4835C89.6374 44.4751 89.625 44.4641 89.6151 44.4509C89.6051 44.4378 89.5979 44.4228 89.5938 44.4069C89.5897 44.3909 89.5888 44.3743 89.5911 44.358C89.5935 44.3417 89.599 44.326 89.6074 44.3119C89.6153 44.2975 89.6259 44.2849 89.6387 44.2747C89.6516 44.2646 89.6663 44.2571 89.682 44.2527C89.6978 44.2484 89.7143 44.2472 89.7305 44.2493C89.7467 44.2514 89.7623 44.2568 89.7764 44.2651L90.2964 44.5719C90.3106 44.5802 90.3231 44.5912 90.333 44.6044C90.3429 44.6175 90.3502 44.6325 90.3543 44.6485C90.3584 44.6644 90.3593 44.681 90.357 44.6973C90.3546 44.7136 90.3491 44.7293 90.3406 44.7435C90.3296 44.762 90.314 44.7775 90.2954 44.7884C90.2767 44.7994 90.2556 44.8054 90.234 44.8059Z" fill="#EF233C"/>
<g opacity="0.3">
<path d="M78.3688 37.8822C78.3467 37.8823 78.325 37.876 78.3064 37.864L77.7864 37.5572C77.7722 37.5489 77.7597 37.5378 77.7498 37.5247C77.7399 37.5115 77.7327 37.4965 77.7286 37.4806C77.7244 37.4646 77.7235 37.448 77.7259 37.4317C77.7282 37.4154 77.7338 37.3997 77.7422 37.3856C77.7503 37.3715 77.7611 37.3591 77.774 37.3492C77.7869 37.3393 77.8017 37.3321 77.8174 37.328C77.8331 37.3238 77.8495 37.3229 77.8657 37.3252C77.8818 37.3275 77.8972 37.333 77.9112 37.3414L78.4312 37.6482C78.4556 37.6617 78.4747 37.6829 78.4856 37.7085C78.4965 37.7341 78.4986 37.7627 78.4914 37.7896C78.4842 37.8165 78.4683 37.8402 78.446 37.857C78.4238 37.8738 78.3966 37.8826 78.3688 37.8822Z" fill="black"/>
<path d="M88.6786 43.8985C88.6572 43.8989 88.6363 43.8925 88.6188 43.8803L87.5788 43.2797C87.5645 43.2715 87.5519 43.2606 87.5418 43.2475C87.5316 43.2344 87.5242 43.2195 87.5199 43.2036C87.5155 43.1876 87.5143 43.171 87.5164 43.1546C87.5185 43.1382 87.5238 43.1224 87.532 43.1081C87.5402 43.0937 87.5511 43.0812 87.5642 43.0711C87.5772 43.0609 87.5922 43.0535 87.6081 43.0491C87.624 43.0448 87.6407 43.0436 87.6571 43.0457C87.6734 43.0478 87.6893 43.0531 87.7036 43.0613L88.7436 43.6645C88.7722 43.6813 88.7932 43.7087 88.8019 43.7408C88.8106 43.7728 88.8065 43.807 88.7904 43.8361C88.7789 43.8554 88.7625 43.8714 88.7429 43.8824C88.7233 43.8933 88.7011 43.8989 88.6786 43.8985ZM86.6168 42.6947C86.5951 42.6945 86.5737 42.6891 86.5544 42.6791L85.5144 42.0759C85.4854 42.0593 85.4642 42.032 85.4555 41.9998C85.4467 41.9676 85.451 41.9332 85.4676 41.9043C85.4841 41.8753 85.5115 41.8541 85.5437 41.8453C85.5759 41.8366 85.6102 41.8409 85.6392 41.8575L86.6792 42.4607C86.7036 42.4742 86.7227 42.4954 86.7336 42.521C86.7445 42.5466 86.7466 42.5752 86.7394 42.6021C86.7322 42.629 86.7163 42.6527 86.694 42.6695C86.6718 42.6863 86.6446 42.6951 86.6168 42.6947ZM84.555 41.4909C84.5333 41.4907 84.5119 41.4853 84.4926 41.4753L83.4526 40.8721C83.424 40.8552 83.403 40.8279 83.3943 40.7958C83.3856 40.7638 83.3897 40.7295 83.4058 40.7005C83.4141 40.6863 83.4252 40.6738 83.4383 40.6639C83.4515 40.654 83.4664 40.6468 83.4824 40.6426C83.4983 40.6385 83.515 40.6376 83.5313 40.64C83.5476 40.6423 83.5633 40.6479 83.5774 40.6563L84.6174 41.2569C84.646 41.2737 84.667 41.3011 84.6757 41.3332C84.6844 41.3652 84.6803 41.3994 84.6642 41.4285C84.6534 41.4478 84.6375 41.4638 84.6182 41.4748C84.599 41.4858 84.5771 41.4914 84.555 41.4909ZM82.4932 40.3001C82.4715 40.2999 82.4501 40.2945 82.4308 40.2845L81.3908 39.6839C81.3622 39.667 81.3412 39.6397 81.3325 39.6076C81.3238 39.5755 81.3279 39.5413 81.344 39.5123C81.3521 39.4979 81.363 39.4852 81.376 39.475C81.3891 39.4648 81.404 39.4573 81.42 39.453C81.436 39.4486 81.4526 39.4475 81.4691 39.4496C81.4855 39.4518 81.5013 39.4572 81.5156 39.4655L82.5556 40.0661C82.5842 40.0829 82.6052 40.1103 82.6139 40.1424C82.6226 40.1744 82.6185 40.2086 82.6024 40.2377C82.5916 40.257 82.5757 40.273 82.5564 40.284C82.5372 40.295 82.5153 40.3006 82.4932 40.3001ZM80.4314 39.0989C80.4093 39.099 80.3876 39.0927 80.369 39.0807L79.329 38.4801C79.3147 38.4719 79.3021 38.461 79.292 38.4479C79.2818 38.4348 79.2744 38.4199 79.2701 38.404C79.2657 38.388 79.2645 38.3714 79.2666 38.355C79.2687 38.3386 79.274 38.3228 79.2822 38.3085C79.2904 38.2941 79.3013 38.2816 79.3144 38.2714C79.3274 38.2613 79.3424 38.2539 79.3583 38.2495C79.3742 38.2452 79.3909 38.244 79.4073 38.2461C79.4236 38.2482 79.4395 38.2535 79.4538 38.2617L80.4938 38.8623C80.5226 38.8796 80.5436 38.9075 80.5523 38.94C80.5611 38.9724 80.5568 39.007 80.5406 39.0365C80.5278 39.053 80.5112 39.0662 80.4922 39.0748C80.4731 39.0834 80.4523 39.0872 80.4314 39.0859V39.0989Z" fill="black"/>
<path d="M90.236 44.8061C90.2142 44.8059 90.1929 44.8006 90.1736 44.7905L89.6536 44.4837C89.6394 44.4754 89.6269 44.4643 89.617 44.4512C89.6071 44.438 89.5999 44.4231 89.5957 44.4071C89.5916 44.3912 89.5907 44.3745 89.5931 44.3582C89.5954 44.3419 89.601 44.3263 89.6094 44.3121C89.6172 44.2978 89.6279 44.2851 89.6407 44.275C89.6535 44.2648 89.6682 44.2573 89.684 44.253C89.6998 44.2486 89.7162 44.2474 89.7324 44.2496C89.7487 44.2517 89.7643 44.257 89.7784 44.2653L90.2984 44.5721C90.3126 44.5804 90.325 44.5915 90.335 44.6046C90.3449 44.6178 90.3521 44.6327 90.3562 44.6487C90.3603 44.6647 90.3612 44.6813 90.3589 44.6976C90.3566 44.7139 90.351 44.7296 90.3426 44.7437C90.3316 44.7623 90.316 44.7778 90.2974 44.7887C90.2787 44.7996 90.2576 44.8056 90.236 44.8061Z" fill="black"/>
</g>
<path d="M91.0412 63.4843C91.0196 63.4838 90.9985 63.4778 90.9799 63.4669C90.9612 63.456 90.9456 63.4405 90.9346 63.4219C90.9183 63.3932 90.9137 63.3592 90.922 63.3272C90.9302 63.2952 90.9506 63.2676 90.9788 63.2503L91.4988 62.9435C91.5275 62.9276 91.5613 62.9235 91.5929 62.9323C91.6246 62.941 91.6515 62.9619 91.6678 62.9903C91.6839 63.0194 91.6881 63.0536 91.6793 63.0857C91.6706 63.1177 91.6497 63.1451 91.621 63.1619L91.101 63.4687C91.0827 63.4789 91.0621 63.4842 91.0412 63.4843Z" fill="#EF233C"/>
<path d="M92.76 62.4834C92.7382 62.4837 92.7168 62.478 92.698 62.467C92.6792 62.456 92.6638 62.4401 92.6534 62.421C92.6446 62.4069 92.6387 62.3912 92.6362 62.3749C92.6337 62.3585 92.6345 62.3418 92.6386 62.3257C92.6428 62.3096 92.6501 62.2946 92.6603 62.2815C92.6704 62.2684 92.6831 62.2574 92.6976 62.2494L93.8884 61.5526C93.9027 61.5443 93.9185 61.5389 93.9349 61.5367C93.9513 61.5346 93.968 61.5357 93.984 61.5401C93.9999 61.5444 94.0149 61.5519 94.0279 61.5621C94.041 61.5723 94.0519 61.585 94.06 61.5994C94.0761 61.6284 94.0802 61.6627 94.0715 61.6947C94.0627 61.7268 94.0418 61.7541 94.0132 61.771L92.8198 62.4652C92.8019 62.4767 92.7812 62.483 92.76 62.4834ZM95.1442 61.0924C95.1221 61.0923 95.1005 61.0865 95.0813 61.0756C95.0622 61.0647 95.0462 61.049 95.035 61.03C95.0188 61.0009 95.0147 60.9667 95.0235 60.9347C95.0322 60.9026 95.0531 60.8752 95.0818 60.8584L96.2726 60.1616C96.3015 60.145 96.3359 60.1407 96.3681 60.1495C96.4002 60.1582 96.4276 60.1794 96.4442 60.2084C96.4607 60.2374 96.4651 60.2717 96.4563 60.3039C96.4475 60.3361 96.4263 60.3634 96.3974 60.38L95.2066 61.0742C95.1889 61.0889 95.1671 61.098 95.1442 61.1002V61.0924Z" fill="#EF233C"/>
<path d="M97.5281 59.7013C97.5061 59.7013 97.4844 59.6955 97.4653 59.6845C97.4461 59.6736 97.4302 59.6579 97.4189 59.6389C97.4028 59.6099 97.3987 59.5757 97.4074 59.5436C97.4162 59.5116 97.4371 59.4842 97.4657 59.4673L97.8011 59.2697L97.4657 59.0721C97.4514 59.0639 97.4388 59.053 97.4287 59.0399C97.4186 59.0269 97.4111 59.012 97.4068 58.996C97.4024 58.9801 97.4013 58.9635 97.4033 58.9471C97.4054 58.9307 97.4107 58.9149 97.4189 58.9005C97.4271 58.8862 97.438 58.8736 97.4511 58.8635C97.4642 58.8534 97.4791 58.8459 97.495 58.8416C97.511 58.8372 97.5276 58.8361 97.544 58.8382C97.5604 58.8402 97.5762 58.8455 97.5905 58.8537L98.1105 59.1605C98.134 59.1752 98.1523 59.1969 98.1626 59.2226C98.1729 59.2484 98.1747 59.2767 98.1677 59.3035C98.1624 59.323 98.1526 59.3409 98.139 59.3558C98.1255 59.3707 98.1086 59.3822 98.0897 59.3893L97.5697 59.6831C97.5574 59.6923 97.5432 59.6985 97.5281 59.7013Z" fill="#EF233C"/>
<path d="M96.4926 58.4844C96.4708 58.4847 96.4493 58.4793 96.4302 58.4688L95.3902 57.8656C95.3616 57.8487 95.3406 57.8214 95.3319 57.7893C95.3232 57.7572 95.3273 57.723 95.3434 57.694C95.3512 57.6796 95.3619 57.667 95.3747 57.6568C95.3875 57.6467 95.4022 57.6392 95.418 57.6348C95.4338 57.6305 95.4502 57.6293 95.4665 57.6314C95.4827 57.6336 95.4983 57.6389 95.5124 57.6472L96.5524 58.2504C96.5806 58.2676 96.601 58.2952 96.6092 58.3272C96.6175 58.3593 96.6129 58.3932 96.5966 58.422C96.5862 58.4405 96.5711 58.456 96.5529 58.467C96.5346 58.4779 96.5139 58.4839 96.4926 58.4844ZM94.4126 57.278C94.3912 57.2784 94.3703 57.272 94.3528 57.2598L93.3128 56.6566C93.2846 56.6393 93.2642 56.6117 93.256 56.5797C93.2477 56.5477 93.2523 56.5137 93.2686 56.485C93.285 56.4565 93.3119 56.4356 93.3435 56.4269C93.3751 56.4181 93.4089 56.4222 93.4376 56.4382L94.4776 57.0414C94.5064 57.0587 94.5274 57.0866 94.5361 57.119C94.5449 57.1515 94.5407 57.1861 94.5244 57.2156C94.5136 57.2338 94.4985 57.249 94.4803 57.2599C94.4621 57.2708 94.4416 57.277 94.4204 57.278H94.4126Z" fill="#EF233C"/>
<path d="M92.3503 56.0691C92.3285 56.0689 92.3072 56.0635 92.2879 56.0535L91.7679 55.7467C91.7397 55.7294 91.7193 55.7018 91.7111 55.6698C91.7028 55.6378 91.7073 55.6038 91.7237 55.5751C91.74 55.5466 91.7669 55.5257 91.7986 55.517C91.8302 55.5082 91.864 55.5123 91.8927 55.5283L92.4127 55.8351C92.437 55.8485 92.4562 55.8698 92.4671 55.8954C92.478 55.921 92.4801 55.9495 92.4729 55.9764C92.4657 56.0033 92.4497 56.0271 92.4275 56.0439C92.4053 56.0606 92.3781 56.0695 92.3503 56.0691Z" fill="#EF233C"/>
<path d="M90.5132 73.8193C90.4915 73.8193 90.4702 73.8135 90.4515 73.8026C90.4327 73.7916 90.4172 73.7758 90.4066 73.7569C90.3905 73.7278 90.3864 73.6936 90.3951 73.6616C90.4039 73.6295 90.4248 73.6022 90.4534 73.5853L90.9734 73.2785C91.0021 73.2625 91.0359 73.2585 91.0675 73.2672C91.0992 73.276 91.1261 73.2968 91.1424 73.3253C91.1585 73.3544 91.1627 73.3886 91.1539 73.4206C91.1452 73.4527 91.1243 73.4801 91.0956 73.4969L90.5756 73.8037C90.5565 73.8143 90.535 73.8197 90.5132 73.8193Z" fill="#EF233C"/>
<path d="M78.5422 80.8055C78.5204 80.8055 78.4991 80.7997 78.4804 80.7887C78.4617 80.7778 78.4462 80.762 78.4356 80.7431C78.4271 80.7289 78.4216 80.7132 78.4192 80.6969C78.4169 80.6806 78.4178 80.664 78.4219 80.6481C78.426 80.6321 78.4332 80.6171 78.4432 80.604C78.4531 80.5908 78.4655 80.5798 78.4798 80.5715L79.4782 79.9891C79.5068 79.9731 79.5406 79.969 79.5723 79.9778C79.6039 79.9865 79.6308 80.0074 79.6472 80.0359C79.6556 80.05 79.6611 80.0657 79.6635 80.082C79.6658 80.0983 79.6649 80.1149 79.6608 80.1309C79.6567 80.1468 79.6495 80.1618 79.6395 80.175C79.6296 80.1881 79.6172 80.1991 79.603 80.2075L78.6045 80.7899C78.5854 80.8002 78.5639 80.8056 78.5422 80.8055ZM80.5389 79.6407C80.5168 79.6411 80.4949 79.6356 80.4757 79.6246C80.4565 79.6136 80.4406 79.5976 80.4298 79.5783C80.4136 79.5492 80.4095 79.515 80.4182 79.483C80.427 79.4509 80.4479 79.4235 80.4766 79.4067L81.4723 78.8243C81.4867 78.8161 81.5025 78.8108 81.5189 78.8087C81.5353 78.8066 81.5519 78.8078 81.5678 78.8121C81.5838 78.8165 81.5987 78.8239 81.6118 78.834C81.6248 78.8441 81.6358 78.8567 81.6439 78.8711C81.6521 78.8854 81.6574 78.9012 81.6595 78.9176C81.6616 78.934 81.6604 78.9506 81.6561 78.9666C81.6517 78.9825 81.6443 78.9974 81.6342 79.0105C81.6241 79.0235 81.6115 79.0345 81.5972 79.0427L80.5988 79.6251C80.5805 79.6354 80.5599 79.6408 80.5389 79.6407ZM82.5332 78.4785C82.5114 78.4788 82.49 78.4731 82.4712 78.4621C82.4524 78.4511 82.437 78.4352 82.4266 78.4161C82.4094 78.3871 82.4044 78.3525 82.4127 78.3198C82.421 78.2872 82.4419 78.2592 82.4708 78.2419L83.4588 77.6621C83.4727 77.6537 83.4882 77.6482 83.5043 77.6459C83.5204 77.6436 83.5368 77.6445 83.5525 77.6486C83.5683 77.6527 83.5831 77.66 83.596 77.6699C83.6089 77.6798 83.6197 77.6921 83.6278 77.7063C83.6441 77.735 83.6486 77.769 83.6404 77.801C83.6321 77.833 83.6118 77.8606 83.5836 77.8779L82.5852 78.4603C82.5696 78.4705 82.5517 78.4767 82.5332 78.4785ZM84.5273 77.3137C84.5057 77.3132 84.4846 77.3072 84.466 77.2962C84.4473 77.2853 84.4318 77.2699 84.4208 77.2513C84.4044 77.2225 84.3999 77.1886 84.4081 77.1565C84.4164 77.1245 84.4368 77.0969 84.465 77.0797L85.4634 76.4973C85.4772 76.4885 85.4927 76.4827 85.5089 76.4802C85.5251 76.4777 85.5416 76.4786 85.5574 76.4827C85.5733 76.4869 85.5881 76.4942 85.601 76.5043C85.6139 76.5144 85.6246 76.5271 85.6323 76.5415C85.6411 76.5555 85.647 76.5712 85.6495 76.5876C85.6521 76.604 85.6512 76.6207 85.6471 76.6368C85.643 76.6528 85.6356 76.6679 85.6255 76.681C85.6153 76.6941 85.6026 76.705 85.5882 76.7131L84.5898 77.2955C84.5713 77.3077 84.5495 77.3141 84.5273 77.3137ZM86.5242 76.1489C86.4963 76.1493 86.4691 76.1404 86.4469 76.1237C86.4247 76.1069 86.4087 76.0831 86.4016 76.0562C86.3944 76.0293 86.3964 76.0008 86.4073 75.9752C86.4182 75.9496 86.4374 75.9283 86.4618 75.9149L87.4602 75.3325C87.4743 75.3242 87.4899 75.3189 87.5061 75.3167C87.5223 75.3146 87.5388 75.3158 87.5545 75.3201C87.5703 75.3245 87.585 75.332 87.5978 75.3421C87.6107 75.3523 87.6213 75.3649 87.6292 75.3793C87.6453 75.4083 87.6494 75.4425 87.6407 75.4746C87.6319 75.5066 87.611 75.534 87.5823 75.5509L86.5788 76.1333C86.5618 76.1422 86.5432 76.1475 86.5242 76.1489ZM88.5184 74.9841C88.4965 74.9846 88.475 74.9791 88.4561 74.9681C88.4373 74.9571 88.4219 74.941 88.4117 74.9217C88.4033 74.9075 88.3978 74.8918 88.3954 74.8755C88.3931 74.8592 88.394 74.8426 88.3981 74.8267C88.4022 74.8107 88.4094 74.7957 88.4194 74.7826C88.4293 74.7694 88.4417 74.7584 88.456 74.7501L89.4544 74.1677C89.483 74.1517 89.5168 74.1476 89.5485 74.1564C89.5801 74.1651 89.607 74.186 89.6234 74.2145C89.6318 74.2286 89.6373 74.2443 89.6397 74.2606C89.642 74.2769 89.6411 74.2935 89.637 74.3095C89.6329 74.3254 89.6257 74.3404 89.6157 74.3536C89.6058 74.3667 89.5934 74.3778 89.5792 74.3861L88.5808 74.9685C88.5615 74.9785 88.5401 74.9839 88.5184 74.9841Z" fill="#EF233C"/>
<path d="M77.0197 81.6948C76.9981 81.6943 76.977 81.6883 76.9584 81.6774C76.9397 81.6664 76.9242 81.651 76.9131 81.6324C76.8968 81.6036 76.8923 81.5697 76.9005 81.5376C76.9088 81.5056 76.9291 81.4781 76.9573 81.4608L77.4773 81.154C77.4914 81.1457 77.5071 81.1404 77.5233 81.1382C77.5395 81.1361 77.556 81.1373 77.5717 81.1416C77.5875 81.146 77.6022 81.1535 77.615 81.1636C77.6278 81.1738 77.6385 81.1864 77.6463 81.2008C77.6625 81.2298 77.6666 81.264 77.6578 81.2961C77.6491 81.3282 77.6282 81.3555 77.5995 81.3724L77.0795 81.6792C77.0612 81.6893 77.0407 81.6947 77.0197 81.6948Z" fill="#EF233C"/>
<path d="M76.4915 92.04C76.4698 92.04 76.4485 92.0342 76.4298 92.0233C76.411 92.0123 76.3955 91.9965 76.3849 91.9776C76.3692 91.9487 76.365 91.915 76.3732 91.8831C76.3815 91.8513 76.4014 91.8237 76.4291 91.806L76.9491 91.4992C76.9778 91.4832 77.0116 91.4792 77.0432 91.4879C77.0749 91.4967 77.1018 91.5176 77.1181 91.546C77.1342 91.5751 77.1384 91.6093 77.1296 91.6413C77.1209 91.6734 77.1 91.7008 77.0713 91.7176L76.5513 92.0244C76.533 92.0345 76.5124 92.0399 76.4915 92.04Z" fill="#EF233C"/>
<path d="M64.5207 99.0159C64.4988 99.0165 64.4773 99.011 64.4585 98.9999C64.4396 98.9889 64.4242 98.9728 64.4141 98.9535C64.4056 98.9394 64.4001 98.9237 64.3978 98.9074C64.3954 98.8911 64.3963 98.8745 64.4004 98.8585C64.4045 98.8426 64.4118 98.8276 64.4217 98.8144C64.4316 98.8013 64.444 98.7902 64.4583 98.7819L65.4567 98.1995C65.4853 98.1835 65.5191 98.1795 65.5508 98.1882C65.5824 98.197 65.6093 98.2179 65.6257 98.2463C65.6341 98.2605 65.6396 98.2762 65.642 98.2925C65.6443 98.3088 65.6434 98.3254 65.6393 98.3413C65.6352 98.3573 65.628 98.3723 65.618 98.3854C65.6081 98.3985 65.5957 98.4096 65.5815 98.4179L64.5831 99.0003C64.5638 99.0104 64.5424 99.0157 64.5207 99.0159ZM66.5149 97.8511C66.4932 97.8511 66.4718 97.8453 66.4531 97.8344C66.4344 97.8234 66.4189 97.8076 66.4083 97.7887C66.3926 97.7598 66.3884 97.7261 66.3966 97.6942C66.4048 97.6624 66.4248 97.6348 66.4525 97.6171L67.4509 97.0347C67.4652 97.0265 67.481 97.0212 67.4974 97.0191C67.5138 97.0171 67.5304 97.0182 67.5464 97.0226C67.5623 97.0269 67.5772 97.0344 67.5903 97.0445C67.6033 97.0546 67.6143 97.0672 67.6225 97.0815C67.6307 97.0959 67.636 97.1117 67.638 97.1281C67.6401 97.1444 67.639 97.1611 67.6346 97.177C67.6303 97.1929 67.6228 97.2079 67.6127 97.2209C67.6026 97.234 67.59 97.2449 67.5757 97.2531L66.5773 97.8355C66.5582 97.8461 66.5367 97.8515 66.5149 97.8511ZM68.5117 96.6889C68.4893 96.6889 68.4674 96.6828 68.4482 96.6714C68.429 96.6599 68.4132 96.6435 68.4025 96.6239C68.3863 96.5949 68.3822 96.5607 68.391 96.5286C68.3997 96.4965 68.4206 96.4692 68.4493 96.4523L69.4477 95.8725C69.4616 95.8641 69.4771 95.8586 69.4932 95.8563C69.5093 95.854 69.5257 95.855 69.5415 95.8591C69.5572 95.8632 69.572 95.8704 69.5849 95.8803C69.5978 95.8902 69.6086 95.9026 69.6167 95.9167C69.6328 95.9458 69.6369 95.98 69.6282 96.012C69.6194 96.0441 69.5985 96.0715 69.5699 96.0883L68.5741 96.6707C68.5555 96.6827 68.5338 96.689 68.5117 96.6889ZM70.5059 95.5241C70.478 95.5246 70.4508 95.5157 70.4286 95.4989C70.4064 95.4821 70.3904 95.4584 70.3833 95.4315C70.3761 95.4046 70.3781 95.3761 70.389 95.3504C70.3999 95.3248 70.4191 95.3036 70.4435 95.2901L71.4419 94.7077C71.4557 94.699 71.4712 94.6932 71.4874 94.6907C71.5036 94.6882 71.5201 94.689 71.536 94.6932C71.5518 94.6973 71.5666 94.7047 71.5795 94.7148C71.5924 94.7249 71.6031 94.7375 71.6109 94.7519C71.6197 94.766 71.6255 94.7817 71.628 94.798C71.6306 94.8144 71.6297 94.8312 71.6256 94.8472C71.6215 94.8633 71.6141 94.8783 71.604 94.8914C71.5938 94.9045 71.5812 94.9155 71.5667 94.9235L70.5683 95.5059C70.5498 95.5182 70.528 95.5245 70.5059 95.5241ZM72.5027 94.3593C72.4748 94.3598 72.4476 94.3509 72.4254 94.3341C72.4032 94.3173 72.3872 94.2936 72.3801 94.2667C72.3729 94.2398 72.3749 94.2113 72.3858 94.1856C72.3967 94.16 72.4159 94.1388 72.4403 94.1253L73.4361 93.5429C73.4504 93.5346 73.4662 93.5292 73.4826 93.527C73.499 93.5249 73.5157 93.526 73.5317 93.5304C73.5476 93.5347 73.5626 93.5422 73.5756 93.5524C73.5887 93.5626 73.5996 93.5753 73.6077 93.5897C73.6238 93.6188 73.6279 93.653 73.6192 93.685C73.6104 93.7171 73.5895 93.7445 73.5609 93.7613L72.5625 94.3437C72.5442 94.3541 72.5236 94.3595 72.5027 94.3593ZM74.4969 93.1945C74.475 93.1951 74.4535 93.1896 74.4347 93.1785C74.4158 93.1675 74.4004 93.1514 74.3903 93.1321C74.3818 93.118 74.3763 93.1023 74.3739 93.086C74.3716 93.0697 74.3725 93.0531 74.3766 93.0371C74.3807 93.0212 74.388 93.0062 74.3979 92.993C74.4078 92.9799 74.4203 92.9688 74.4345 92.9605L75.4329 92.3781C75.4615 92.3621 75.4953 92.3581 75.527 92.3668C75.5586 92.3756 75.5855 92.3965 75.6019 92.4249C75.6176 92.4538 75.6217 92.4876 75.6135 92.5194C75.6053 92.5513 75.5854 92.5788 75.5577 92.5965L74.5593 93.1789C74.54 93.189 74.5186 93.1943 74.4969 93.1945Z" fill="#EF233C"/>
<path d="M62.9963 99.9051C62.9747 99.9046 62.9536 99.8986 62.9349 99.8877C62.9163 99.8768 62.9007 99.8613 62.8897 99.8427C62.8734 99.814 62.8688 99.78 62.8771 99.748C62.8853 99.716 62.9057 99.6884 62.9339 99.6711L63.4539 99.3643C63.4682 99.356 63.484 99.3506 63.5004 99.3485C63.5168 99.3463 63.5335 99.3475 63.5495 99.3518C63.5655 99.3562 63.5804 99.3637 63.5935 99.3738C63.6065 99.384 63.6174 99.3967 63.6255 99.4111C63.6416 99.4402 63.6457 99.4744 63.637 99.5065C63.6283 99.5385 63.6073 99.5659 63.5787 99.5827L63.0587 99.8895C63.0395 99.8999 63.0181 99.9053 62.9963 99.9051Z" fill="#EF233C"/>
<path d="M71.2037 23.5457C70.8325 23.7366 70.4212 23.8362 70.0038 23.8362C69.5864 23.8362 69.1751 23.7366 68.8039 23.5457C68.1435 23.1609 68.1435 22.5343 68.8039 22.1469C69.1751 21.956 69.5864 21.8564 70.0038 21.8564C70.4212 21.8564 70.8325 21.956 71.2037 22.1469C71.8667 22.5343 71.8667 23.1609 71.2037 23.5457Z" fill="#455A64"/>
<path d="M70.0039 16.1096V10.478L77.2813 13.2938L70.0039 16.1096Z" fill="#EF233C"/>
<path d="M70.0048 23.0985C69.9358 23.0985 69.8697 23.0711 69.8209 23.0223C69.7722 22.9736 69.7448 22.9074 69.7448 22.8385V9.37308C69.7335 9.33433 69.7313 9.29349 69.7386 9.25377C69.7458 9.21406 69.7622 9.17657 69.7864 9.14428C69.8106 9.11199 69.842 9.08578 69.8781 9.06773C69.9142 9.04968 69.954 9.04028 69.9944 9.04028C70.0347 9.04028 70.0746 9.04968 70.1107 9.06773C70.1468 9.08578 70.1782 9.11199 70.2024 9.14428C70.2266 9.17657 70.243 9.21406 70.2502 9.25377C70.2574 9.29349 70.2553 9.33433 70.244 9.37308V22.8463C70.2423 22.9104 70.2169 22.9717 70.1727 23.0182C70.1286 23.0648 70.0687 23.0934 70.0048 23.0985Z" fill="#263238"/>
<path d="M57.6182 66.2793H54.5762V71.1829H57.6182V66.2793Z" fill="#FFA8A7"/>
<path d="M59.4355 65.156L60.1583 66.196C60.1897 66.2407 60.2041 66.2951 60.1989 66.3495C60.1936 66.4039 60.1691 66.4545 60.1297 66.4924C59.9487 66.6899 59.7019 66.8146 59.4355 66.8434V65.156Z" fill="#F28F8F"/>
<path d="M56.3892 61.3107C56.3892 61.3107 58.7578 59.6311 59.5092 65.4707C60.128 70.3249 57.1146 69.2121 55.994 68.5413C54.8734 67.8705 52.731 65.8477 54.1402 63.0033C54.7772 61.7111 56.3892 61.3107 56.3892 61.3107Z" fill="#FFA8A7"/>
<path d="M58.5737 63.1801C58.5737 63.1801 58.5919 64.2435 57.6195 64.2955C57.8601 64.5746 57.9823 64.9365 57.9601 65.3043C57.9601 65.9959 57.7235 65.8633 57.6195 65.7307C57.5155 65.5981 56.4365 65.7307 56.4365 65.7307L56.9877 66.7707C57.0552 67.1647 57.0206 67.5695 56.8872 67.9464C56.7539 68.3232 56.5262 68.6596 56.2259 68.9235C56.2259 68.9235 54.7803 69.3213 54.1225 68.9235C54.1225 68.9235 52.3025 66.9033 51.9671 65.4707C51.6317 64.0381 51.6265 62.7875 52.4663 62.2025C52.4663 62.2025 52.7263 60.3955 54.6477 60.3955C56.5691 60.3955 57.1333 60.8895 58.1707 60.6555C58.5919 60.5619 59.2237 60.2577 59.2237 60.6815C59.2237 61.1053 58.7037 61.4615 58.7037 61.4615C58.7037 61.4615 59.2237 61.4329 59.5045 61.4069C59.7853 61.3809 60.4119 61.2873 60.3053 62.0985C60.1987 62.9097 59.4733 63.3205 58.5737 63.1801Z" fill="#263238"/>
<path d="M52.7198 62.2674C52.7198 62.2674 52.2154 61.2482 51.5862 61.8358C51.5812 61.8402 51.5772 61.8456 51.5745 61.8517C51.5717 61.8577 51.5703 61.8643 51.5703 61.8709C51.5703 61.8776 51.5717 61.8841 51.5745 61.8902C51.5772 61.8962 51.5812 61.9016 51.5862 61.906L52.712 62.5846L52.7198 62.2674Z" fill="#263238"/>
<path d="M57.6191 65.7384V67.3166C57.6191 67.3166 55.9863 67.2854 55.9863 66.0764C55.9863 64.9636 57.2993 65.2132 57.6191 65.7384Z" fill="#FFA8A7"/>
<path d="M45.6877 106.696C45.6877 106.696 45.6123 108.794 48.5243 109.655C48.5243 109.655 48.9585 106.696 45.6877 106.696Z" fill="#253239"/>
<path d="M47.957 111.418V110.154C47.9567 109.887 48.0175 109.624 48.1347 109.384C48.2519 109.145 48.4223 108.935 48.633 108.771C48.633 108.771 48.2014 106.928 46.4542 107.037C45.8895 107.255 45.4031 107.637 45.058 108.134C44.9309 108.304 44.842 108.499 44.7971 108.706C44.7522 108.914 44.7525 109.128 44.798 109.335C44.7865 109.288 44.7882 109.239 44.803 109.193C44.8178 109.148 44.8451 109.107 44.8817 109.075C44.9184 109.044 44.9631 109.024 45.0108 109.016C45.0584 109.009 45.1072 109.015 45.1516 109.034L45.5728 109.208C45.8355 109.316 46.0677 109.486 46.249 109.705C46.4304 109.923 46.5553 110.183 46.6128 110.461L47.1328 112.918C47.1761 113.147 47.2887 113.356 47.4552 113.518C47.6217 113.681 47.8341 113.788 48.0636 113.825H48.1C48.1476 113.828 48.1954 113.828 48.243 113.825H48.282C48.329 113.824 48.3759 113.819 48.4224 113.812H48.4614C48.5096 113.805 48.5573 113.794 48.6044 113.781H48.6356C48.6937 113.765 48.7503 113.743 48.8046 113.716C48.8633 113.69 48.9199 113.658 48.9736 113.623L49.4156 113.334C49.4798 113.293 49.532 113.235 49.5671 113.167C49.6022 113.099 49.619 113.023 49.6158 112.947C49.582 112.447 49.361 111.418 47.957 111.418Z" fill="#37474F"/>
<path d="M49.4005 113.329L48.9585 113.617C48.9047 113.653 48.8482 113.684 48.7895 113.711C48.7351 113.738 48.6786 113.759 48.6205 113.776H48.5893C48.5422 113.789 48.4945 113.799 48.4463 113.807H48.4073H48.3527H48.2669H48.1759H48.0849H48.0563C47.8309 113.77 47.6219 113.666 47.4568 113.508C47.2916 113.351 47.178 113.147 47.1307 112.923C47.1319 112.916 47.1319 112.908 47.1307 112.9L46.6107 110.443C46.5532 110.165 46.4283 109.905 46.2469 109.687C46.0656 109.468 45.8334 109.297 45.5707 109.19L45.1495 109.015C44.9649 108.932 44.8453 109.075 44.7699 109.148C44.7003 109.21 44.65 109.29 44.625 109.379C44.6001 109.469 44.6017 109.564 44.6295 109.652L45.1495 111.938C45.2657 112.46 45.5749 112.919 46.0153 113.222L47.1255 113.984C47.3063 114.099 47.5102 114.173 47.7227 114.2C47.9353 114.228 48.1512 114.208 48.3553 114.143H48.3605H48.3865C48.465 114.115 48.5414 114.082 48.6153 114.044L49.0911 113.784C49.1936 113.728 49.2823 113.65 49.3507 113.556C49.4191 113.461 49.4654 113.353 49.4863 113.238C49.4634 113.273 49.4343 113.304 49.4005 113.329Z" fill="#263238"/>
<path d="M46.0938 107.203C46.0938 107.203 48.0905 107.396 48.0827 109.507L49.3229 107.57L47.2871 105.443L46.0938 107.203Z" fill="#FFA8A7"/>
<path d="M50.5339 82.7634V86.1278C50.5339 87.4677 50.5946 88.8041 50.7159 90.137L51.1241 94.6402C51.1764 95.1895 51.1075 95.7435 50.9225 96.2632C50.7374 96.783 50.4406 97.2558 50.0529 97.6484C49.4334 98.2833 48.9175 99.0115 48.5241 99.8064C47.2891 102.237 45.6875 106.694 45.6875 106.694C45.6875 106.694 48.5241 106.694 48.5241 109.653L54.9851 98.8678C55.4426 98.1035 55.73 97.2495 55.8275 96.364L57.2003 84.0374L50.5339 82.7634Z" fill="#455A64"/>
<path d="M64.7559 102.162C64.8755 102.377 65.0629 102.547 65.2889 102.646H65.3149C65.7847 102.854 66.3169 102.871 66.7995 102.695L70.9127 101.2C71.2039 101.073 71.2091 100.638 71.1909 100.459H64.7559V102.162Z" fill="#263238"/>
<path d="M64.9996 99.7256C64.9996 99.7256 64.4198 100.329 64.633 101.47C64.6679 101.65 64.7459 101.819 64.8605 101.962C64.9751 102.105 65.1228 102.218 65.2908 102.292L65.3168 102.305C65.787 102.512 66.3192 102.529 66.8014 102.352L70.9146 100.857C71.015 100.818 71.0972 100.743 71.1453 100.647C71.1934 100.551 71.2039 100.44 71.1746 100.337C70.9848 99.6684 70.314 98.995 68.7592 99.4032C68.3665 99.5321 67.9612 99.6192 67.5502 99.6632L67.3396 99.32L64.9996 99.7256Z" fill="#37474F"/>
<path d="M67.5505 99.6502C67.3347 100.227 66.5105 100.43 65.5589 100.11C65.3417 100.036 65.1393 99.9245 64.9609 99.7802V97.5H67.5609L67.5505 99.6502Z" fill="#FFA8A7"/>
<path d="M53.4766 83.624V84.0088C53.4733 85.1704 53.8539 86.3006 54.5592 87.2235C55.2645 88.1465 56.2549 88.8106 57.3766 89.1126L64.0014 90.865C64.0955 90.8898 64.1787 90.9451 64.238 91.0223C64.2973 91.0994 64.3293 91.1941 64.329 91.2914V99.2006C64.329 99.2006 67.527 100.807 68.4526 98.3166V89.773C68.4551 89.0763 68.2475 88.3951 67.857 87.8181C67.4664 87.2411 66.9111 86.7952 66.2634 86.5386L59.3864 83.8398L53.4766 83.624Z" fill="#455A64"/>
<path d="M56.3735 91.4187L56.6335 88.8031C56.6335 88.8031 54.5015 88.0881 54.1739 87.1079C54.0647 88.1245 55.4921 89.0553 55.8509 89.2633C55.9835 90.0511 56.3735 91.4187 56.3735 91.4187Z" fill="#37474F"/>
<path d="M54.0137 71.0764C54.0137 71.0764 54.0735 69.8206 54.5051 69.8206C54.8509 69.8206 56.6033 70.3172 57.2793 70.5148C57.4638 70.5649 57.6225 70.6828 57.7239 70.845C57.9942 71.2373 58.1532 71.6955 58.1841 72.171L54.0137 71.0764Z" fill="#37474F"/>
<path d="M61.7559 75.3844C61.7559 75.3844 63.7137 73.3928 63.9893 73.5644C64.3273 73.7776 63.9191 74.5446 63.6097 74.8644L65.1463 73.8608C65.1941 73.8294 65.2479 73.8083 65.3043 73.7988C65.3606 73.7892 65.4184 73.7915 65.4739 73.8054C65.5294 73.8194 65.5813 73.8446 65.6265 73.8797C65.6717 73.9147 65.7092 73.9588 65.7365 74.009C66.1655 74.789 66.6283 76.609 62.5229 77.8154L61.7559 75.3844Z" fill="#FFA8A7"/>
<path d="M63.103 78.0522C63.103 78.0522 62.0838 78.5202 60.763 79.0922C58.5478 80.0594 55.4824 81.336 54.9208 81.245C53.4478 81.0082 51.9934 80.6676 50.5684 80.2258L50.8518 76.2842L55.095 77.5322L61.4546 75.0388L61.7146 74.9348C63.5086 75.5952 63.103 78.0522 63.103 78.0522Z" fill="#263238"/>
<path d="M53.4817 70.4236L51.8983 69.9894C51.6415 69.92 51.372 69.9109 51.1111 69.963C50.8502 70.0151 50.6049 70.1268 50.3944 70.2895C50.1839 70.4521 50.0139 70.6613 49.8977 70.9007C49.7815 71.14 49.7223 71.403 49.7247 71.669V72.2332C49.7233 72.9652 49.8927 73.6873 50.2195 74.3423C50.5463 74.9972 51.0214 75.5668 51.6071 76.0058L53.4505 77.3838L53.4817 70.4236Z" fill="#37474F"/>
<path d="M60.2625 81.2892L61.5027 86.8688C61.5027 86.8688 58.0681 88.5926 54.3475 87.5058C50.6269 86.419 50.1875 85.4856 50.1875 85.4856L50.5671 80.231L50.8505 76.2894L51.1833 71.6952C51.1979 71.4715 51.2612 71.2537 51.3688 71.057C51.4765 70.8604 51.6258 70.6897 51.8064 70.5569C51.987 70.4241 52.1945 70.3325 52.4143 70.2883C52.6341 70.2442 52.8608 70.2487 53.0787 70.3016L58.2943 71.6016C59.2169 71.8382 60.0341 72.3759 60.6167 73.1293C61.1992 73.8828 61.5138 74.8091 61.5105 75.7616L60.7617 79.1026L60.2625 81.2892Z" fill="#263238"/>
<path d="M62.7469 87.906C62.7469 87.906 64.7931 89.7624 64.6631 90.0614C64.5331 90.3604 63.6881 90.0406 63.3631 89.7494L64.4369 91.2444C64.4706 91.2911 64.4944 91.3442 64.5068 91.4004C64.5192 91.4566 64.52 91.5148 64.509 91.5713C64.498 91.6279 64.4756 91.6816 64.4431 91.7291C64.4105 91.7766 64.3686 91.8169 64.3199 91.8476C63.5763 92.3234 61.7953 92.8876 60.3887 88.8082L62.7469 87.906Z" fill="#FFA8A7"/>
<path d="M59.089 71.8875C59.089 71.8875 57.1936 75.5275 56.5878 81.3125C56.4916 82.2251 60.1836 89.4063 60.1836 89.4063C60.1836 89.4063 62.6328 89.6845 63.1866 87.8463L60.2642 81.2969L61.4888 76.0085C61.5986 75.5457 61.5897 75.0628 61.4628 74.6045C61.2106 73.6971 60.5814 72.3191 59.089 71.8875Z" fill="#37474F"/>
<path d="M97.6752 26.044L100.299 27.552V26.6134C100.299 26.5458 100.299 26.4808 100.299 26.4132C100.299 26.3456 100.299 26.2858 100.299 26.226V26.2026C100.395 24.9598 101.326 24.4814 102.464 25.147C102.983 25.4661 103.427 25.8936 103.764 26.4002C104.024 24.7102 105.384 24.1018 107.033 25.0638C108.866 26.1324 110.35 28.7298 110.35 30.867V32.8794C110.352 33.0368 110.394 33.191 110.472 33.3276C110.551 33.4641 110.663 33.5783 110.797 33.6594L112.342 34.5746C112.678 34.7746 112.956 35.0586 113.149 35.3987C113.341 35.7388 113.442 36.1233 113.442 36.5142C113.443 36.676 113.402 36.8353 113.322 36.9759C113.242 37.1165 113.127 37.2335 112.987 37.3149C112.847 37.3963 112.688 37.4391 112.527 37.4392C112.365 37.4392 112.206 37.3964 112.066 37.315L97.722 28.943C97.3397 28.7184 97.023 28.3977 96.8031 28.0127C96.5833 27.6278 96.468 27.1919 96.4688 26.7486C96.4694 26.6076 96.5069 26.4691 96.5774 26.347C96.6479 26.2248 96.749 26.1231 96.8708 26.052C96.9926 25.9808 97.1309 25.9427 97.2719 25.9413C97.413 25.9399 97.552 25.9753 97.6752 26.044Z" fill="#E6E6E6"/>
<path d="M95.8027 13.8137L97.5005 14.7887V14.1829C97.5005 14.1387 97.5005 14.0971 97.5005 14.0555C97.5005 14.0139 97.5005 13.9723 97.5005 13.9307C97.5629 13.1273 98.1635 12.8205 98.8993 13.2495C99.2294 13.4512 99.513 13.7206 99.7313 14.0399C99.8977 12.9479 100.771 12.5553 101.843 13.1767C103.026 13.8657 103.985 15.5453 103.985 16.9259V18.2259C103.983 18.3303 104.009 18.4333 104.06 18.5245C104.11 18.6158 104.184 18.6921 104.274 18.7459L105.272 19.3361C105.489 19.4655 105.668 19.6491 105.793 19.8688C105.917 20.0885 105.982 20.3368 105.982 20.5893C105.983 20.6939 105.956 20.797 105.905 20.888C105.853 20.9791 105.779 21.0549 105.688 21.1077C105.598 21.1605 105.495 21.1885 105.391 21.1888C105.286 21.189 105.183 21.1616 105.093 21.1093L95.8287 15.7013C95.5824 15.5564 95.3783 15.3497 95.2364 15.1016C95.0946 14.8535 95.02 14.5727 95.0201 14.2869C95.0157 14.1933 95.0366 14.1003 95.0806 14.0176C95.1247 13.9349 95.1903 13.8657 95.2705 13.8172C95.3507 13.7687 95.4424 13.7428 95.5361 13.7422C95.6298 13.7416 95.7219 13.7663 95.8027 13.8137Z" fill="#E6E6E6"/>
</svg>
