<svg width="136" height="136" viewBox="0 0 136 136" fill="none" xmlns="http://www.w3.org/2000/svg">
<path d="M136 104.013H0V104.081H136V104.013Z" fill="#EBEBEB"/>
<path d="M122.372 108.389H113.363V108.457H122.372V108.389Z" fill="#EBEBEB"/>
<path d="M90.0922 109.129H87.7285V109.197H90.0922V109.129Z" fill="#EBEBEB"/>
<path d="M113.093 105.865H107.873V105.933H113.093V105.865Z" fill="#EBEBEB"/>
<path d="M26.0172 106.322H14.2695V106.39H26.0172V106.322Z" fill="#EBEBEB"/>
<path d="M30.1612 106.322H28.4395V106.39H30.1612V106.322Z" fill="#EBEBEB"/>
<path d="M61.2407 107.47H35.7598V107.538H61.2407V107.47Z" fill="#EBEBEB"/>
<path d="M64.4635 91.8816H11.943C11.5315 91.8808 11.1372 91.7169 10.8465 91.4257C10.5558 91.1345 10.3926 90.7399 10.3926 90.3284V16.4995C10.3962 16.0904 10.561 15.6993 10.8513 15.411C11.1416 15.1227 11.5339 14.9607 11.943 14.96H64.4635C64.8754 14.96 65.2704 15.1236 65.5617 15.4149C65.853 15.7061 66.0166 16.1012 66.0166 16.5131V90.3284C66.0166 90.7403 65.853 91.1354 65.5617 91.4267C65.2704 91.7179 64.8754 91.8816 64.4635 91.8816ZM11.943 15.0144C11.5496 15.0151 11.1725 15.1719 10.8946 15.4503C10.6167 15.7287 10.4606 16.1061 10.4606 16.4995V90.3284C10.4606 90.7218 10.6167 91.0992 10.8946 91.3776C11.1725 91.6561 11.5496 91.8128 11.943 91.8136H64.4635C64.8571 91.8128 65.2344 91.6561 65.5128 91.3778C65.7912 91.0994 65.9479 90.7221 65.9486 90.3284V16.4995C65.9479 16.1058 65.7912 15.7285 65.5128 15.4501C65.2344 15.1718 64.8571 15.0151 64.4635 15.0144H11.943Z" fill="#EBEBEB"/>
<path d="M123.301 91.8816H70.7777C70.366 91.8808 69.9714 91.717 69.6803 91.4259C69.3892 91.1348 69.2253 90.7401 69.2246 90.3284V16.4995C69.2289 16.0902 69.3943 15.699 69.6851 15.4108C69.9758 15.1226 70.3684 14.9607 70.7777 14.96H123.301C123.71 14.9614 124.101 15.1238 124.391 15.412C124.681 15.7001 124.845 16.0909 124.849 16.4995V90.3284C124.849 90.7394 124.686 91.1336 124.396 91.4247C124.106 91.7159 123.712 91.8801 123.301 91.8816ZM70.7777 15.0144C70.3841 15.0151 70.0067 15.1718 69.7284 15.4501C69.45 15.7285 69.2933 16.1058 69.2926 16.4995V90.3284C69.2933 90.7221 69.45 91.0994 69.7284 91.3778C70.0067 91.6561 70.3841 91.8128 70.7777 91.8136H123.301C123.695 91.8128 124.072 91.6561 124.35 91.3778C124.629 91.0994 124.785 90.7221 124.786 90.3284V16.4995C124.785 16.1058 124.629 15.7285 124.35 15.4501C124.072 15.1718 123.695 15.0151 123.301 15.0144H70.7777Z" fill="#EBEBEB"/>
<path d="M76.4483 89.749H94.9688L94.9687 26.626H76.4483V89.749Z" fill="#FAFAFA"/>
<path d="M76.0192 28.8674L95.3965 28.8674V25.7694L76.0192 25.7694V28.8674Z" fill="#F0F0F0"/>
<path d="M76.0192 30.7578L95.3965 30.7578V29.2101L76.0192 29.2101V30.7578Z" fill="#F0F0F0"/>
<path d="M76.0192 33.0562H95.3965V31.5085L76.0192 31.5085V33.0562Z" fill="#F0F0F0"/>
<path d="M76.0192 35.3572H95.3965V33.8095H76.0192V35.3572Z" fill="#F0F0F0"/>
<path d="M76.0192 37.6555H95.3965V36.1078H76.0192V37.6555Z" fill="#F0F0F0"/>
<path d="M76.0192 39.9541H95.3965V38.4064H76.0192V39.9541Z" fill="#F0F0F0"/>
<path d="M76.0192 42.2524H95.3965V40.7048H76.0192V42.2524Z" fill="#F0F0F0"/>
<path d="M76.0192 44.5508H95.3965V43.0031H76.0192V44.5508Z" fill="#F0F0F0"/>
<path d="M76.0192 46.8491H95.3965V45.3014H76.0192V46.8491Z" fill="#F0F0F0"/>
<path d="M76.0192 49.1477H95.3965V47.6H76.0192V49.1477Z" fill="#F0F0F0"/>
<path d="M76.0192 51.446H95.3965V49.8984H76.0192V51.446Z" fill="#F0F0F0"/>
<path d="M76.0192 53.7444H95.3965V52.1967H76.0192V53.7444Z" fill="#F0F0F0"/>
<path d="M76.0192 56.0427H95.3965V54.495H76.0192V56.0427Z" fill="#F0F0F0"/>
<path d="M76.0192 58.3413H95.3965V56.7936H76.0192V58.3413Z" fill="#F0F0F0"/>
<path d="M76.0192 60.6396H95.3965V59.092H76.0192V60.6396Z" fill="#F0F0F0"/>
<path d="M76.0192 62.9407H95.3965V61.393H76.0192V62.9407Z" fill="#F0F0F0"/>
<path d="M76.0192 65.2393H95.3965V63.6916H76.0192V65.2393Z" fill="#F0F0F0"/>
<path d="M76.0192 67.5376H95.3965V65.9899H76.0192V67.5376Z" fill="#F0F0F0"/>
<path d="M76.0192 69.8359H95.3965V68.2883H76.0192V69.8359Z" fill="#F0F0F0"/>
<path d="M76.0192 72.1343H95.3965V70.5866H76.0192V72.1343Z" fill="#F0F0F0"/>
<path d="M76.0192 74.4329H95.3965V72.8852H76.0192V74.4329Z" fill="#F0F0F0"/>
<path d="M76.0192 76.7312H95.3965V75.1835H76.0192V76.7312Z" fill="#F0F0F0"/>
<path d="M76.0192 79.0295H95.3965V77.4819H76.0192V79.0295Z" fill="#F0F0F0"/>
<path d="M76.0192 81.3279H95.3965V79.7802H76.0192V81.3279Z" fill="#F0F0F0"/>
<path d="M76.0192 83.6265H95.3965V82.0788H76.0192V83.6265Z" fill="#F0F0F0"/>
<path d="M76.0192 85.9248H95.3965V84.3771H76.0192V85.9248Z" fill="#F0F0F0"/>
<path d="M76.0192 88.2258H95.3965V86.6781H76.0192V88.2258Z" fill="#F0F0F0"/>
<path d="M76.0192 90.5242H95.3965V88.9765H76.0192V90.5242Z" fill="#F0F0F0"/>
<path d="M99.5948 89.749H118.115L118.115 26.626H99.5948V89.749Z" fill="#FAFAFA"/>
<path d="M99.1657 28.8674L118.543 28.8674V25.7694L99.1657 25.7694V28.8674Z" fill="#F0F0F0"/>
<path d="M99.1657 30.7578L118.543 30.7578V29.2101L99.1657 29.2101V30.7578Z" fill="#F0F0F0"/>
<path d="M99.1657 33.0562H118.543V31.5085L99.1657 31.5085V33.0562Z" fill="#F0F0F0"/>
<path d="M99.1657 35.3572H118.543V33.8095H99.1657V35.3572Z" fill="#F0F0F0"/>
<path d="M99.1657 37.6555H118.543V36.1078H99.1657V37.6555Z" fill="#F0F0F0"/>
<path d="M99.1657 39.9541H118.543V38.4064H99.1657V39.9541Z" fill="#F0F0F0"/>
<path d="M99.1657 42.2524H118.543V40.7048H99.1657V42.2524Z" fill="#F0F0F0"/>
<path d="M99.1657 44.5508H118.543V43.0031H99.1657V44.5508Z" fill="#F0F0F0"/>
<path d="M99.1657 46.8491H118.543V45.3014H99.1657V46.8491Z" fill="#F0F0F0"/>
<path d="M99.1657 49.1477H118.543V47.6H99.1657V49.1477Z" fill="#F0F0F0"/>
<path d="M99.1657 51.446H118.543V49.8984H99.1657V51.446Z" fill="#F0F0F0"/>
<path d="M99.1657 53.7444H118.543V52.1967H99.1657V53.7444Z" fill="#F0F0F0"/>
<path d="M99.1657 56.0427H118.543V54.495H99.1657V56.0427Z" fill="#F0F0F0"/>
<path d="M99.1657 58.3413H118.543V56.7936H99.1657V58.3413Z" fill="#F0F0F0"/>
<path d="M99.1657 60.6396H118.543V59.092H99.1657V60.6396Z" fill="#F0F0F0"/>
<path d="M99.1657 62.9407H118.543V61.393H99.1657V62.9407Z" fill="#F0F0F0"/>
<path d="M99.1657 65.2393H118.543V63.6916H99.1657V65.2393Z" fill="#F0F0F0"/>
<path d="M99.1657 67.5376H118.543V65.9899H99.1657V67.5376Z" fill="#F0F0F0"/>
<path d="M99.1657 69.8359H118.543V68.2883H99.1657V69.8359Z" fill="#F0F0F0"/>
<path d="M99.1657 72.1343H118.543V70.5866H99.1657V72.1343Z" fill="#F0F0F0"/>
<path d="M99.1657 74.4329H118.543V72.8852H99.1657V74.4329Z" fill="#F0F0F0"/>
<path d="M99.1657 76.7312H118.543V75.1835H99.1657V76.7312Z" fill="#F0F0F0"/>
<path d="M99.1657 79.0295H118.543V77.4819H99.1657V79.0295Z" fill="#F0F0F0"/>
<path d="M99.1657 81.3279H118.543V79.7802H99.1657V81.3279Z" fill="#F0F0F0"/>
<path d="M99.1657 83.6265H118.543V82.0788H99.1657V83.6265Z" fill="#F0F0F0"/>
<path d="M99.1657 85.9248H118.543V84.3771H99.1657V85.9248Z" fill="#F0F0F0"/>
<path d="M99.1657 88.2258H118.543V86.6781H99.1657V88.2258Z" fill="#F0F0F0"/>
<path d="M99.1657 90.5242H118.543V88.9765H99.1657V90.5242Z" fill="#F0F0F0"/>
<path d="M42.0342 90.1353H60.5547L60.5547 27.0122H42.0342L42.0342 90.1353Z" fill="#FAFAFA"/>
<path d="M41.6051 29.2537L60.9824 29.2537V26.1556L41.6051 26.1556V29.2537Z" fill="#F0F0F0"/>
<path d="M41.6051 29.8818L60.9824 29.8818V29.5962L41.6051 29.5962V29.8818Z" fill="#F0F0F0"/>
<path d="M41.6051 30.5293L60.9824 30.5293V30.2437L41.6051 30.2437V30.5293Z" fill="#F0F0F0"/>
<path d="M41.6051 31.1738L60.9824 31.1738V30.8882L41.6051 30.8882V31.1738Z" fill="#F0F0F0"/>
<path d="M41.6051 31.8213L60.9824 31.8213V31.5357L41.6051 31.5357V31.8213Z" fill="#F0F0F0"/>
<path d="M41.6051 32.4685H60.9824V32.1829H41.6051V32.4685Z" fill="#F0F0F0"/>
<path d="M41.6051 33.116H60.9824V32.8304H41.6051V33.116Z" fill="#F0F0F0"/>
<path d="M41.6051 33.7605H60.9824V33.4749H41.6051V33.7605Z" fill="#F0F0F0"/>
<path d="M41.6051 34.408H60.9824V34.1224H41.6051V34.408Z" fill="#F0F0F0"/>
<path d="M41.6051 35.0581H60.9824V34.7725H41.6051V35.0581Z" fill="#F0F0F0"/>
<path d="M41.6051 35.7026H60.9824V35.417H41.6051V35.7026Z" fill="#F0F0F0"/>
<path d="M41.6051 36.3501H60.9824V36.0645H41.6051V36.3501Z" fill="#F0F0F0"/>
<path d="M41.6051 36.9946H60.9824V36.709H41.6051V36.9946Z" fill="#F0F0F0"/>
<path d="M41.6051 37.6448H60.9824V37.3592H41.6051V37.6448Z" fill="#F0F0F0"/>
<path d="M41.6051 38.2893H60.9824V38.0037H41.6051V38.2893Z" fill="#F0F0F0"/>
<path d="M41.6051 38.9368H60.9824V38.6512H41.6051V38.9368Z" fill="#F0F0F0"/>
<path d="M41.6051 39.5813H60.9824V39.2957H41.6051V39.5813Z" fill="#F0F0F0"/>
<path d="M41.6051 40.2288H60.9824V39.9432H41.6051V40.2288Z" fill="#F0F0F0"/>
<path d="M41.6051 40.8762H60.9824V40.5906H41.6051V40.8762Z" fill="#F0F0F0"/>
<path d="M18.8858 90.1353H37.4062L37.4062 27.0122H18.8858L18.8858 90.1353Z" fill="#FAFAFA"/>
<path d="M18.4548 29.2537L37.832 29.2537V26.1556L18.4548 26.1556V29.2537Z" fill="#F0F0F0"/>
<path d="M18.4548 29.8818L37.832 29.8818V29.5962L18.4548 29.5962V29.8818Z" fill="#F0F0F0"/>
<path d="M18.4548 30.5293L37.832 30.5293V30.2437L18.4548 30.2437V30.5293Z" fill="#F0F0F0"/>
<path d="M18.4548 31.1738L37.832 31.1738V30.8882L18.4548 30.8882V31.1738Z" fill="#F0F0F0"/>
<path d="M18.4548 31.8213L37.832 31.8213V31.5357L18.4548 31.5357V31.8213Z" fill="#F0F0F0"/>
<path d="M18.4548 32.4685H37.832V32.1829H18.4548V32.4685Z" fill="#F0F0F0"/>
<path d="M18.4548 33.116H37.832V32.8304H18.4548V33.116Z" fill="#F0F0F0"/>
<path d="M18.4548 33.7605H37.832V33.4749H18.4548V33.7605Z" fill="#F0F0F0"/>
<path d="M18.4548 34.408H37.832V34.1224H18.4548V34.408Z" fill="#F0F0F0"/>
<path d="M18.4548 35.0581H37.832V34.7725H18.4548V35.0581Z" fill="#F0F0F0"/>
<path d="M18.4548 35.7026H37.832V35.417H18.4548V35.7026Z" fill="#F0F0F0"/>
<path d="M18.4548 36.3501H37.832V36.0645H18.4548V36.3501Z" fill="#F0F0F0"/>
<path d="M18.4548 36.9946H37.832V36.709H18.4548V36.9946Z" fill="#F0F0F0"/>
<path d="M18.4548 37.6448H37.832V37.3592H18.4548V37.6448Z" fill="#F0F0F0"/>
<path d="M18.4548 38.2893H37.832V38.0037H18.4548V38.2893Z" fill="#F0F0F0"/>
<path d="M18.4548 38.9368H37.832V38.6512H18.4548V38.9368Z" fill="#F0F0F0"/>
<path d="M18.4548 39.5813H37.832V39.2957H18.4548V39.5813Z" fill="#F0F0F0"/>
<path d="M18.4548 40.2288H37.832V39.9432H18.4548V40.2288Z" fill="#F0F0F0"/>
<path d="M18.4548 40.8762H37.832V40.5906H18.4548V40.8762Z" fill="#F0F0F0"/>
<path d="M68.327 98.0015C68.327 98.0015 67.0377 95.1863 68.5119 92.4092C69.9862 89.6321 70.4159 88.982 69.4721 88.4135C68.5282 87.8451 68.1121 90.6331 68.1121 90.6331C67.646 89.3724 67.5983 87.9952 67.9761 86.7054C68.6289 84.698 69.0396 81.4286 68.1474 81.0777C67.2553 80.7268 67.9761 85.1577 67.2009 86.6673C66.8063 85.6069 66.5512 84.4996 66.442 83.3734C66.3359 81.7604 66.5018 79.1873 65.7974 78.5263C65.0929 77.8654 64.6414 78.3223 65.3322 81.8801C65.7491 84.0066 65.9793 86.1654 66.0204 88.3319C66.0204 88.3319 64.4918 83.6644 63.4636 83.5284C62.4354 83.3924 62.4354 84.9047 63.3167 86.2158C64.198 87.5268 65.8926 89.8742 66.17 91.0846C66.17 91.0846 64.489 87.5703 62.9767 88.6366C61.4644 89.7028 64.2932 91.8353 65.5553 92.6023C66.8174 93.3694 67.6796 98.1919 67.6796 98.1919L68.327 98.0015Z" fill="#E0E0E0"/>
<path d="M67.3095 99.1548C67.3095 99.1548 68.5661 96.3206 67.0592 93.568C65.5524 90.8153 65.1145 90.168 66.0474 89.5859C66.9804 89.0038 67.4455 91.7836 67.4455 91.7836C67.8973 90.5183 67.9297 89.1411 67.538 87.856C66.858 85.8595 66.4092 82.5955 67.2986 82.231C68.1881 81.8665 67.5189 86.311 68.3105 87.807C68.6925 86.7413 68.9339 85.6303 69.0285 84.5022C69.1183 82.8865 68.9197 80.3161 69.6161 79.6443C70.3124 78.9724 70.7721 79.424 70.1193 82.9926C69.7284 85.1241 69.5245 87.2856 69.51 89.4526C69.51 89.4526 70.9842 84.7633 72.0096 84.611C73.0351 84.4587 73.0541 85.971 72.1892 87.2956C71.3242 88.6203 69.6568 90.9948 69.393 92.208C69.393 92.208 71.025 88.672 72.5564 89.7219C74.0877 90.7718 71.2807 92.9424 70.0295 93.7257C68.7783 94.5091 67.9596 99.3316 67.9596 99.3316L67.3095 99.1548Z" fill="#EBEBEB"/>
<path d="M73.1022 97.1338H62.7227L63.5631 104.562H72.2617L73.1022 97.1338Z" fill="#EBEBEB"/>
<path d="M67.9998 116.296C97.1262 116.296 120.738 114.918 120.738 113.217C120.738 111.517 97.1262 110.138 67.9998 110.138C38.8734 110.138 15.2617 111.517 15.2617 113.217C15.2617 114.918 38.8734 116.296 67.9998 116.296Z" fill="#F5F5F5"/>
<path d="M105.715 82.3643C105.715 82.3643 98.9829 81.0043 92.4848 81.6626C85.9867 82.3208 95.5421 90.8126 95.5421 90.8126H96.8857C96.8857 90.8126 91.8211 85.4298 92.104 84.0888C92.3869 82.7478 105.138 84.5158 105.138 84.5158L105.715 82.3643Z" fill="#263238"/>
<path opacity="0.2" d="M105.715 82.3643C105.715 82.3643 98.9829 81.0043 92.4848 81.6626C85.9867 82.3208 95.5421 90.8126 95.5421 90.8126H96.8857C96.8857 90.8126 91.8211 85.4298 92.104 84.0888C92.3869 82.7478 105.138 84.5158 105.138 84.5158L105.715 82.3643Z" fill="white"/>
<path d="M103.285 90.5189C105.41 82.1999 106.641 73.678 106.957 65.0978C106.989 64.2819 107.336 63.5101 107.925 62.9443C108.514 62.3784 109.299 62.0623 110.115 62.0623H115.781C116.616 62.0622 117.418 62.393 118.01 62.9822C118.602 63.5714 118.937 64.3712 118.941 65.2066C118.963 70.3746 118.601 81.9455 115.677 90.5189H103.285Z" fill="#263238"/>
<path opacity="0.4" d="M103.285 90.5189C105.41 82.1999 106.641 73.678 106.957 65.0978C106.989 64.2819 107.336 63.5101 107.925 62.9443C108.514 62.3784 109.299 62.0623 110.115 62.0623H115.781C116.616 62.0622 117.418 62.393 118.01 62.9822C118.602 63.5714 118.937 64.3712 118.941 65.2066C118.963 70.3746 118.601 81.9455 115.677 90.5189H103.285Z" fill="white"/>
<path d="M101.631 89.08C102.551 85.5984 104.623 76.5952 105.061 64.7006C105.095 63.8159 105.47 62.9788 106.108 62.365C106.747 61.7513 107.598 61.4088 108.483 61.4094H114.625C115.53 61.4101 116.398 61.769 117.039 62.4076C117.68 63.0462 118.042 63.9127 118.047 64.8176C118.071 70.4099 117.679 81.8475 114.524 91.1417L102.828 90.712C102.634 90.703 102.445 90.6508 102.274 90.5591C102.103 90.4674 101.954 90.3386 101.84 90.1821C101.725 90.0256 101.647 89.8453 101.611 89.6546C101.574 89.4639 101.582 89.2676 101.631 89.08Z" fill="#EF233C"/>
<path opacity="0.2" d="M101.631 89.08C102.551 85.5984 104.623 76.5952 105.061 64.7006C105.095 63.8159 105.47 62.9788 106.108 62.365C106.747 61.7513 107.598 61.4088 108.483 61.4094H114.625C115.53 61.4101 116.398 61.769 117.039 62.4076C117.68 63.0462 118.042 63.9127 118.047 64.8176C118.071 70.4099 117.679 81.8475 114.524 91.1417L102.828 90.712C102.634 90.703 102.445 90.6508 102.274 90.5591C102.103 90.4674 101.954 90.3386 101.84 90.1821C101.725 90.0256 101.647 89.8453 101.611 89.6546C101.574 89.4639 101.582 89.2676 101.631 89.08Z" fill="black"/>
<path d="M113.783 90.7908H93.0106V87.5458C93.0106 87.1851 93.1538 86.8392 93.4089 86.5841C93.6639 86.3291 94.0099 86.1858 94.3706 86.1858H112.423C112.784 86.1858 113.13 86.3291 113.385 86.5841C113.64 86.8392 113.783 87.1851 113.783 87.5458V90.7908Z" fill="#EF233C"/>
<path d="M113.114 106.98L106.458 106.325V96.9707H103.819V106.322L97.1364 106.98C96.8161 107.011 96.5188 107.161 96.3026 107.399C96.0864 107.637 95.9666 107.948 95.9668 108.27V109.271H114.283V108.27C114.283 107.948 114.164 107.637 113.947 107.399C113.731 107.161 113.434 107.011 113.114 106.98Z" fill="#263238"/>
<path opacity="0.4" d="M113.114 106.98L106.458 106.325V96.9707H103.819V106.322L97.1364 106.98C96.8161 107.011 96.5188 107.161 96.3026 107.399C96.0864 107.637 95.9666 107.948 95.9668 108.27V109.271H114.283V108.27C114.283 107.948 114.164 107.637 113.947 107.399C113.731 107.161 113.434 107.011 113.114 106.98Z" fill="white"/>
<path d="M98.3962 110.508C98.3962 110.849 98.2951 111.183 98.1056 111.466C97.9161 111.75 97.6468 111.971 97.3317 112.101C97.0166 112.232 96.6698 112.266 96.3353 112.2C96.0008 112.133 95.6935 111.969 95.4524 111.728C95.2112 111.486 95.0469 111.179 94.9804 110.845C94.9139 110.51 94.948 110.163 95.0785 109.848C95.2091 109.533 95.4301 109.264 95.7137 109.074C95.9973 108.885 96.3307 108.784 96.6717 108.784C97.1291 108.784 97.5677 108.965 97.8911 109.289C98.2145 109.612 98.3962 110.051 98.3962 110.508Z" fill="#263238"/>
<path opacity="0.4" d="M96.6702 111.417C96.4905 111.417 96.3149 111.363 96.1655 111.263C96.0161 111.164 95.8996 111.022 95.8309 110.856C95.7621 110.69 95.7441 110.507 95.7792 110.331C95.8142 110.155 95.9007 109.993 96.0278 109.866C96.1549 109.739 96.3167 109.652 96.493 109.617C96.6692 109.582 96.8519 109.6 97.0179 109.669C97.1839 109.738 97.3257 109.854 97.4256 110.003C97.5254 110.153 97.5787 110.328 97.5787 110.508C97.578 110.749 97.482 110.979 97.3118 111.15C97.1416 111.32 96.9109 111.416 96.6702 111.417Z" fill="white"/>
<path d="M111.854 110.508C111.854 110.849 111.955 111.183 112.144 111.466C112.334 111.75 112.603 111.971 112.918 112.101C113.233 112.232 113.58 112.266 113.914 112.2C114.249 112.133 114.556 111.969 114.797 111.728C115.039 111.486 115.203 111.179 115.269 110.845C115.336 110.51 115.302 110.163 115.171 109.848C115.041 109.533 114.82 109.264 114.536 109.074C114.252 108.885 113.919 108.784 113.578 108.784C113.351 108.783 113.127 108.828 112.918 108.914C112.708 109.001 112.518 109.128 112.358 109.288C112.198 109.448 112.071 109.638 111.984 109.848C111.898 110.057 111.853 110.282 111.854 110.508Z" fill="#263238"/>
<path opacity="0.4" d="M113.578 111.417C113.399 111.417 113.223 111.363 113.074 111.263C112.924 111.164 112.808 111.022 112.739 110.856C112.67 110.69 112.652 110.507 112.687 110.331C112.722 110.155 112.809 109.993 112.936 109.866C113.063 109.739 113.225 109.652 113.401 109.617C113.577 109.582 113.76 109.6 113.926 109.669C114.092 109.738 114.234 109.854 114.334 110.003C114.434 110.153 114.487 110.328 114.487 110.508C114.487 110.749 114.391 110.98 114.221 111.15C114.05 111.321 113.819 111.417 113.578 111.417Z" fill="white"/>
<path d="M103.36 90.6494H106.896V97.8574C106.896 98.1553 106.777 98.4411 106.567 98.6517C106.356 98.8624 106.07 98.9808 105.772 98.9808H104.475C104.177 98.9808 103.891 98.8624 103.681 98.6517C103.47 98.4411 103.352 98.1553 103.352 97.8574V90.6494H103.36Z" fill="#263238"/>
<path opacity="0.2" d="M103.36 90.6494H106.896V97.8574C106.896 98.1553 106.777 98.4411 106.567 98.6517C106.356 98.8624 106.07 98.9808 105.772 98.9808H104.475C104.177 98.9808 103.891 98.8624 103.681 98.6517C103.47 98.4411 103.352 98.1553 103.352 97.8574V90.6494H103.36Z" fill="white"/>
<path d="M92.8252 91.6069H115.371C115.673 91.6069 115.918 91.3622 115.918 91.0602V90.8045C115.918 90.5026 115.673 90.2578 115.371 90.2578H92.8252C92.5232 90.2578 92.2785 90.5026 92.2785 90.8045V91.0602C92.2785 91.3622 92.5232 91.6069 92.8252 91.6069Z" fill="#263238"/>
<g opacity="0.4">
<path d="M92.8232 91.6069H115.369C115.671 91.6069 115.916 91.3622 115.916 91.0602V90.8045C115.916 90.5026 115.671 90.2578 115.369 90.2578H92.8232C92.5213 90.2578 92.2765 90.5026 92.2765 90.8045V91.0602C92.2765 91.3622 92.5213 91.6069 92.8232 91.6069Z" fill="white"/>
</g>
<path d="M117.684 82.3643C117.684 82.3643 110.952 81.0043 104.454 81.6626C97.9555 82.3208 107.511 90.8126 107.511 90.8126H108.854C108.854 90.8126 103.79 85.4298 104.073 84.0888C104.356 82.7478 117.107 84.5158 117.107 84.5158L117.684 82.3643Z" fill="#263238"/>
<path opacity="0.4" d="M117.684 82.3643C117.684 82.3643 110.952 81.0043 104.454 81.6626C97.9555 82.3208 107.511 90.8126 107.511 90.8126H108.854C108.854 90.8126 103.79 85.4298 104.073 84.0888C104.356 82.7478 117.107 84.5158 117.107 84.5158L117.684 82.3643Z" fill="white"/>
<path d="M34.6218 83.8223V84.0943H30.4766V83.8848C30.4766 83.3816 30.9988 82.9682 31.6679 82.941H31.8882L33.2918 82.8839C34.0153 82.8485 34.6218 83.2783 34.6218 83.8223Z" fill="#263238"/>
<path opacity="0.2" d="M32.7124 83.8222V84.0942H30.4766V83.8848C30.4766 83.3816 30.9988 82.9681 31.6679 82.9409H31.8882C32.367 83.066 32.7124 83.4142 32.7124 83.8222Z" fill="white"/>
<path d="M68.4241 112.219H68.8403C68.8653 112.219 68.8895 112.21 68.9077 112.192C68.9259 112.175 68.9368 112.152 68.9382 112.127L69.5964 86.5886H67.668L68.3289 112.127C68.3296 112.151 68.34 112.175 68.3578 112.192C68.3755 112.21 68.3993 112.219 68.4241 112.219Z" fill="#263238"/>
<path d="M83.2969 112.219H84.2598L81.5398 86.5886H79.6113L83.2969 112.219Z" fill="#263238"/>
<path d="M21.2098 112.219L24.9036 86.5886H22.9778L20.2578 112.219H21.2098Z" fill="#263238"/>
<path d="M35.3299 112.219H36.4369H36.4396L36.8476 86.5886H34.9219L35.3299 112.219Z" fill="#263238"/>
<g opacity="0.4">
<path d="M83.2969 112.219H84.2598L81.5398 86.5886H79.6113L83.2969 112.219Z" fill="white"/>
</g>
<path opacity="0.4" d="M35.3299 112.219H36.4369H36.4396L36.8476 86.5886H34.9219L35.3299 112.219Z" fill="white"/>
<g opacity="0.2">
<path d="M68.4241 112.219H68.8403C68.8653 112.219 68.8895 112.21 68.9077 112.192C68.9259 112.175 68.9368 112.152 68.9382 112.127L69.5964 86.5886H67.668L68.3289 112.127C68.3296 112.151 68.34 112.175 68.3578 112.192C68.3755 112.21 68.3993 112.219 68.4241 112.219Z" fill="white"/>
</g>
<path opacity="0.2" d="M21.2098 112.219L24.9036 86.5886H22.9778L20.2578 112.219H21.2098Z" fill="white"/>
<path d="M38.6855 84.2385H44.1718L45.0449 76.579C45.0366 76.4404 44.9756 76.3103 44.8745 76.2152C44.7733 76.1202 44.6397 76.0674 44.5009 76.0676H40.8316C40.6928 76.0674 40.5592 76.1202 40.4581 76.2152C40.3569 76.3103 40.296 76.4404 40.2876 76.579L38.6855 84.2385Z" fill="#263238"/>
<path d="M30.3139 64.8041H31.6739L33.2134 79.269H31.8534C31.7408 79.2672 31.6327 79.2245 31.5492 79.149C31.4656 79.0734 31.4123 78.9702 31.3992 78.8583L29.9467 65.2148C29.9396 65.1629 29.9439 65.11 29.9592 65.0599C29.9745 65.0098 30.0005 64.9637 30.0354 64.9246C30.0703 64.8855 30.1133 64.8545 30.1614 64.8337C30.2095 64.8129 30.2615 64.8028 30.3139 64.8041Z" fill="#263238"/>
<path d="M32.4335 79.269H52.9586C53.0109 79.2698 53.0627 79.2594 53.1105 79.2384C53.1584 79.2175 53.2012 79.1865 53.236 79.1475C53.2708 79.1086 53.2969 79.0626 53.3124 79.0127C53.3279 78.9628 53.3325 78.9101 53.3258 78.8583L51.8733 65.2148C51.8596 65.1032 51.8062 65.0002 51.7228 64.9248C51.6393 64.8493 51.5315 64.8065 51.4191 64.8041H30.894C30.8416 64.8028 30.7896 64.8129 30.7415 64.8337C30.6934 64.8545 30.6504 64.8855 30.6155 64.9246C30.5806 64.9637 30.5546 65.0098 30.5392 65.0599C30.5239 65.11 30.5197 65.1629 30.5268 65.2148L31.9765 78.8583C31.9909 78.9702 32.0449 79.0732 32.1287 79.1485C32.2126 79.2239 32.3208 79.2667 32.4335 79.269Z" fill="#263238"/>
<path d="M38.4433 84.2412H45.2623C45.4065 84.2412 45.5234 84.1243 45.5234 83.9801V83.9067C45.5234 83.7624 45.4065 83.6455 45.2623 83.6455H38.4433C38.2991 83.6455 38.1822 83.7624 38.1822 83.9067V83.9801C38.1822 84.1243 38.2991 84.2412 38.4433 84.2412Z" fill="#263238"/>
<path opacity="0.2" d="M32.4335 79.269H52.9586C53.0109 79.2698 53.0627 79.2594 53.1105 79.2384C53.1584 79.2175 53.2012 79.1865 53.236 79.1475C53.2708 79.1086 53.2969 79.0626 53.3124 79.0127C53.3279 78.9628 53.3325 78.9101 53.3258 78.8583L51.8733 65.2148C51.8596 65.1032 51.8062 65.0002 51.7228 64.9248C51.6393 64.8493 51.5315 64.8065 51.4191 64.8041H30.894C30.8416 64.8028 30.7896 64.8129 30.7415 64.8337C30.6934 64.8545 30.6504 64.8855 30.6155 64.9246C30.5806 64.9637 30.5546 65.0098 30.5392 65.0599C30.5239 65.11 30.5197 65.1629 30.5268 65.2148L31.9765 78.8583C31.9909 78.9702 32.0449 79.0732 32.1287 79.1485C32.2126 79.2239 32.3208 79.2667 32.4335 79.269Z" fill="white"/>
<path d="M32.8161 77.9334H52.1689C52.2152 77.9355 52.2613 77.9273 52.3041 77.9095C52.3468 77.8917 52.3852 77.8647 52.4163 77.8304C52.4475 77.7962 52.4707 77.7555 52.4844 77.7112C52.498 77.667 52.5017 77.6202 52.4953 77.5744L51.2305 65.6717C51.2187 65.574 51.172 65.4839 51.0991 65.4179C51.0261 65.3519 50.9317 65.3145 50.8334 65.3126H31.4724C31.4266 65.3114 31.3811 65.3202 31.339 65.3383C31.2969 65.3565 31.2593 65.3836 31.2287 65.4177C31.1982 65.4519 31.1754 65.4923 31.1621 65.5362C31.1488 65.58 31.1451 65.6263 31.1515 65.6717L32.419 77.5744C32.4308 77.672 32.4775 77.7622 32.5504 77.8281C32.6234 77.8941 32.7178 77.9315 32.8161 77.9334Z" fill="#EF233C"/>
<path opacity="0.2" d="M38.4433 84.2412H45.2623C45.4065 84.2412 45.5234 84.1243 45.5234 83.9801V83.9067C45.5234 83.7624 45.4065 83.6455 45.2623 83.6455H38.4433C38.2991 83.6455 38.1822 83.7624 38.1822 83.9067V83.9801C38.1822 84.1243 38.2991 84.2412 38.4433 84.2412Z" fill="white"/>
<path opacity="0.2" d="M32.8161 77.9334H52.1689C52.2152 77.9355 52.2613 77.9273 52.3041 77.9095C52.3468 77.8917 52.3852 77.8647 52.4163 77.8304C52.4475 77.7962 52.4707 77.7555 52.4844 77.7112C52.498 77.667 52.5017 77.6202 52.4953 77.5744L51.2305 65.6717C51.2187 65.574 51.172 65.4839 51.0991 65.4179C51.0261 65.3519 50.9317 65.3145 50.8334 65.3126H31.4724C31.4266 65.3114 31.3811 65.3202 31.339 65.3383C31.2969 65.3565 31.2593 65.3836 31.2287 65.4177C31.1982 65.4519 31.1754 65.4923 31.1621 65.5362C31.1488 65.58 31.1451 65.6263 31.1515 65.6717L32.419 77.5744C32.4308 77.672 32.4775 77.7622 32.5504 77.8281C32.6234 77.8941 32.7178 77.9315 32.8161 77.9334Z" fill="black"/>
<path d="M38.5722 84.0671H33.8068H21.8633V86.5886H33.8068H38.5722H82.6553V84.0671H38.5722Z" fill="#EF233C"/>
<path d="M50.9343 83.6129H51.4457C51.4586 83.6129 51.4713 83.6104 51.4832 83.6054C51.4951 83.6005 51.5059 83.5933 51.5149 83.5842C51.524 83.5751 51.5312 83.5643 51.5362 83.5524C51.5411 83.5406 51.5436 83.5278 51.5436 83.515V82.971C51.5436 82.9581 51.5411 82.9454 51.5362 82.9335C51.5312 82.9216 51.524 82.9108 51.5149 82.9017C51.5059 82.8926 51.4951 82.8854 51.4832 82.8805C51.4713 82.8756 51.4586 82.873 51.4457 82.873H51.0785C51.0571 82.8731 51.0363 82.8804 51.0195 82.8937C51.0027 82.907 50.9909 82.9256 50.986 82.9465L50.8419 83.4905C50.8376 83.5048 50.8368 83.5199 50.8394 83.5346C50.8421 83.5493 50.8481 83.5632 50.8571 83.5751C50.8661 83.587 50.8778 83.5966 50.8912 83.6032C50.9046 83.6098 50.9194 83.6131 50.9343 83.6129Z" fill="#EF233C"/>
<path d="M50.2272 83.6129H50.7386C50.7645 83.6129 50.7895 83.6026 50.8078 83.5842C50.8262 83.5658 50.8365 83.5409 50.8365 83.515V82.971C50.8365 82.945 50.8262 82.9201 50.8078 82.9017C50.7895 82.8834 50.7645 82.873 50.7386 82.873H50.3714C50.3499 82.8731 50.3292 82.8804 50.3124 82.8937C50.2956 82.907 50.2838 82.9256 50.2789 82.9465L50.132 83.4905C50.1283 83.505 50.1279 83.5202 50.1309 83.5348C50.134 83.5495 50.1403 83.5633 50.1495 83.5751C50.1587 83.5869 50.1705 83.5965 50.184 83.603C50.1974 83.6096 50.2122 83.6129 50.2272 83.6129Z" fill="#EF233C"/>
<path d="M49.5202 83.6129H50.0315C50.0444 83.6129 50.0571 83.6104 50.069 83.6054C50.0809 83.6005 50.0917 83.5933 50.1008 83.5842C50.1099 83.5751 50.1171 83.5643 50.122 83.5524C50.1269 83.5406 50.1295 83.5278 50.1295 83.515V82.971C50.1295 82.9581 50.1269 82.9454 50.122 82.9335C50.1171 82.9216 50.1099 82.9108 50.1008 82.9017C50.0917 82.8926 50.0809 82.8854 50.069 82.8805C50.0571 82.8756 50.0444 82.873 50.0315 82.873H49.6643C49.6427 82.8734 49.6217 82.8808 49.6046 82.894C49.5874 82.9072 49.575 82.9256 49.5691 82.9465L49.425 83.4905C49.4212 83.505 49.4209 83.5202 49.4239 83.5348C49.4269 83.5495 49.4333 83.5633 49.4425 83.5751C49.4517 83.5869 49.4635 83.5965 49.4769 83.603C49.4904 83.6096 49.5052 83.6129 49.5202 83.6129Z" fill="#EF233C"/>
<path d="M48.8124 83.6129H49.3238C49.3497 83.6129 49.3746 83.6026 49.393 83.5842C49.4114 83.5658 49.4217 83.5409 49.4217 83.515V82.971C49.4217 82.945 49.4114 82.9201 49.393 82.9017C49.3746 82.8834 49.3497 82.873 49.3238 82.873H48.9593C48.9376 82.8734 48.9167 82.8808 48.8995 82.894C48.8823 82.9072 48.8699 82.9256 48.8641 82.9465L48.7199 83.4905C48.7162 83.5048 48.7158 83.5197 48.7187 83.5342C48.7216 83.5486 48.7277 83.5623 48.7366 83.574C48.7455 83.5858 48.7569 83.5954 48.77 83.6021C48.7832 83.6089 48.7976 83.6125 48.8124 83.6129Z" fill="#EF233C"/>
<path d="M48.1061 83.6129H48.6175C48.6435 83.6129 48.6684 83.6026 48.6867 83.5842C48.7051 83.5658 48.7154 83.5409 48.7154 83.515V82.971C48.7154 82.945 48.7051 82.9201 48.6867 82.9017C48.6684 82.8834 48.6435 82.873 48.6175 82.873H48.2503C48.2286 82.8734 48.2077 82.8808 48.1905 82.894C48.1734 82.9072 48.1609 82.9256 48.1551 82.9465L48.0109 83.4905C48.0072 83.505 48.0068 83.5202 48.0098 83.5348C48.0129 83.5495 48.0192 83.5633 48.0284 83.5751C48.0376 83.5869 48.0494 83.5965 48.0629 83.603C48.0764 83.6096 48.0911 83.6129 48.1061 83.6129Z" fill="#EF233C"/>
<path d="M47.3971 83.6129H47.9085C47.9345 83.6129 47.9594 83.6026 47.9777 83.5842C47.9961 83.5658 48.0064 83.5409 48.0064 83.515V82.971C48.0064 82.945 47.9961 82.9201 47.9777 82.9017C47.9594 82.8834 47.9345 82.873 47.9085 82.873H47.5413C47.5196 82.8734 47.4987 82.8808 47.4815 82.894C47.4644 82.9072 47.4519 82.9256 47.4461 82.9465L47.3019 83.4905C47.2982 83.505 47.2978 83.5202 47.3009 83.5348C47.3039 83.5495 47.3103 83.5633 47.3195 83.5751C47.3286 83.5869 47.3404 83.5965 47.3539 83.603C47.3674 83.6096 47.3822 83.6129 47.3971 83.6129Z" fill="#EF233C"/>
<path d="M46.6901 83.6129H47.2015C47.2274 83.6129 47.2523 83.6026 47.2707 83.5842C47.2891 83.5658 47.2994 83.5409 47.2994 83.515V82.971C47.2994 82.945 47.2891 82.9201 47.2707 82.9017C47.2523 82.8834 47.2274 82.873 47.2015 82.873H46.8343C46.8125 82.873 46.7913 82.8801 46.7741 82.8934C46.7568 82.9067 46.7445 82.9254 46.7391 82.9465L46.5949 83.4905C46.5912 83.505 46.5908 83.5202 46.5938 83.5348C46.5969 83.5495 46.6032 83.5633 46.6124 83.5751C46.6216 83.5869 46.6334 83.5965 46.6469 83.603C46.6603 83.6096 46.6751 83.6129 46.6901 83.6129Z" fill="#EF233C"/>
<path d="M45.9831 83.6129H46.4944C46.5073 83.6129 46.52 83.6104 46.5319 83.6054C46.5438 83.6005 46.5546 83.5933 46.5637 83.5842C46.5728 83.5751 46.58 83.5643 46.5849 83.5524C46.5898 83.5406 46.5924 83.5278 46.5924 83.515V82.971C46.5924 82.9581 46.5898 82.9454 46.5849 82.9335C46.58 82.9216 46.5728 82.9108 46.5637 82.9017C46.5546 82.8926 46.5438 82.8854 46.5319 82.8805C46.52 82.8756 46.5073 82.873 46.4944 82.873H46.1272C46.1055 82.873 46.0843 82.8801 46.067 82.8934C46.0498 82.9067 46.0375 82.9254 46.032 82.9465L45.8879 83.4905C45.8841 83.505 45.8838 83.5202 45.8868 83.5348C45.8898 83.5495 45.8962 83.5633 45.9054 83.5751C45.9146 83.5869 45.9264 83.5965 45.9398 83.603C45.9533 83.6096 45.9681 83.6129 45.9831 83.6129Z" fill="#EF233C"/>
<path d="M45.2772 83.6129H45.7886C45.8146 83.6129 45.8395 83.6026 45.8578 83.5842C45.8762 83.5658 45.8865 83.5409 45.8865 83.515V82.971C45.8865 82.945 45.8762 82.9201 45.8578 82.9017C45.8395 82.8834 45.8146 82.873 45.7886 82.873H45.4241C45.4023 82.873 45.3812 82.8801 45.3639 82.8934C45.3467 82.9067 45.3344 82.9254 45.3289 82.9465L45.1848 83.4905C45.1811 83.5048 45.1806 83.5197 45.1835 83.5342C45.1864 83.5486 45.1925 83.5623 45.2014 83.574C45.2103 83.5858 45.2218 83.5954 45.2349 83.6021C45.248 83.6089 45.2625 83.6125 45.2772 83.6129Z" fill="#EF233C"/>
<path d="M44.569 83.6129H45.0804C45.1063 83.6129 45.1312 83.6026 45.1496 83.5842C45.168 83.5658 45.1783 83.5409 45.1783 83.515V82.971C45.1783 82.945 45.168 82.9201 45.1496 82.9017C45.1312 82.8834 45.1063 82.873 45.0804 82.873H44.7132C44.6914 82.873 44.6702 82.8801 44.653 82.8934C44.6357 82.9067 44.6234 82.9254 44.618 82.9465L44.4738 83.4905C44.4701 83.505 44.4697 83.5202 44.4727 83.5348C44.4758 83.5495 44.4821 83.5633 44.4913 83.5751C44.5005 83.5869 44.5123 83.5965 44.5258 83.603C44.5392 83.6096 44.554 83.6129 44.569 83.6129Z" fill="#EF233C"/>
<path d="M43.862 83.6129H44.3733C44.3993 83.6129 44.4242 83.6026 44.4426 83.5842C44.4609 83.5659 44.4713 83.541 44.4713 83.515V82.971C44.4713 82.945 44.4609 82.9201 44.4426 82.9018C44.4242 82.8834 44.3993 82.8731 44.3733 82.8731H44.0061C43.9842 82.8725 43.9628 82.8795 43.9455 82.8929C43.9281 82.9062 43.9159 82.9252 43.9109 82.9465L43.7668 83.4905C43.763 83.505 43.7627 83.5202 43.7657 83.5349C43.7687 83.5495 43.7751 83.5633 43.7843 83.5751C43.7935 83.5869 43.8053 83.5965 43.8187 83.6031C43.8322 83.6096 43.847 83.613 43.862 83.6129Z" fill="#EF233C"/>
<path d="M43.155 83.6129H43.6663C43.6792 83.6129 43.6919 83.6104 43.7038 83.6055C43.7157 83.6005 43.7265 83.5933 43.7355 83.5842C43.7446 83.5751 43.7519 83.5644 43.7568 83.5525C43.7617 83.5406 43.7642 83.5279 43.7642 83.515V82.971C43.7642 82.9581 43.7617 82.9454 43.7568 82.9335C43.7519 82.9216 43.7446 82.9109 43.7355 82.9018C43.7265 82.8927 43.7157 82.8855 43.7038 82.8805C43.6919 82.8756 43.6792 82.8731 43.6663 82.8731H43.2991C43.2772 82.8725 43.2558 82.8795 43.2384 82.8929C43.2211 82.9062 43.2089 82.9252 43.2039 82.9465L43.0597 83.4905C43.056 83.505 43.0556 83.5202 43.0587 83.5349C43.0617 83.5495 43.0681 83.5633 43.0773 83.5751C43.0865 83.5869 43.0982 83.5965 43.1117 83.6031C43.1252 83.6096 43.14 83.613 43.155 83.6129Z" fill="#EF233C"/>
<path d="M42.4479 83.6129H42.9593C42.9852 83.6129 43.0102 83.6026 43.0285 83.5842C43.0469 83.5659 43.0572 83.541 43.0572 83.515V82.971C43.0572 82.945 43.0469 82.9201 43.0285 82.9018C43.0102 82.8834 42.9852 82.8731 42.9593 82.8731H42.5921C42.5702 82.8725 42.5488 82.8795 42.5314 82.8929C42.5141 82.9062 42.5019 82.9252 42.4969 82.9465L42.3527 83.4905C42.349 83.505 42.3486 83.5202 42.3516 83.5349C42.3547 83.5495 42.361 83.5633 42.3702 83.5751C42.3794 83.5869 42.3912 83.5965 42.4047 83.6031C42.4182 83.6096 42.4329 83.613 42.4479 83.6129Z" fill="#EF233C"/>
<path d="M41.7374 83.6129H42.2515C42.2775 83.6129 42.3024 83.6026 42.3208 83.5842C42.3391 83.5659 42.3494 83.541 42.3494 83.515V82.971C42.3494 82.945 42.3391 82.9201 42.3208 82.9018C42.3024 82.8834 42.2775 82.8731 42.2515 82.8731H41.887C41.8651 82.8725 41.8437 82.8795 41.8264 82.8929C41.809 82.9062 41.7968 82.9252 41.7918 82.9465L41.6477 83.4905C41.644 83.5046 41.6435 83.5193 41.6463 83.5336C41.649 83.5478 41.6549 83.5613 41.6635 83.573C41.6721 83.5848 41.6832 83.5944 41.696 83.6013C41.7088 83.6082 41.7229 83.6122 41.7374 83.6129Z" fill="#EF233C"/>
<path d="M41.0311 83.6129H41.5452C41.5712 83.6129 41.5961 83.6026 41.6145 83.5842C41.6328 83.5658 41.6431 83.5409 41.6431 83.515V82.971C41.6431 82.945 41.6328 82.9201 41.6145 82.9017C41.5961 82.8834 41.5712 82.873 41.5452 82.873H41.1753C41.1539 82.8731 41.1331 82.8804 41.1163 82.8937C41.0995 82.907 41.0877 82.9256 41.0828 82.9465L40.9387 83.4905C40.935 83.5048 40.9346 83.5197 40.9374 83.5342C40.9403 83.5486 40.9464 83.5623 40.9553 83.574C40.9642 83.5858 40.9757 83.5954 40.9888 83.6021C41.0019 83.6089 41.0164 83.6125 41.0311 83.6129Z" fill="#EF233C"/>
<path d="M40.5171 84.0969H51.9629V83.2456H40.5171V84.0969Z" fill="#263238"/>
<path opacity="0.2" d="M40.5171 84.0969H51.9629V83.2456H40.5171V84.0969Z" fill="white"/>
<path opacity="0.2" d="M40.5192 84.0969H44.2266V83.2456H40.5192V84.0969Z" fill="white"/>
<path opacity="0.2" d="M33.8058 86.5859H82.6543V84.0645H33.8058V86.5859Z" fill="white"/>
<path d="M24.0023 108.123C24.0368 108.051 24.0535 107.972 24.051 107.893C24.0484 107.813 24.0268 107.735 23.9878 107.666C23.9488 107.596 23.8937 107.537 23.8271 107.494C23.7605 107.45 23.6844 107.423 23.6052 107.416C23.6736 107.212 23.6783 106.993 23.6185 106.787C23.5587 106.58 23.4373 106.398 23.2706 106.262C23.2312 106.225 23.1804 106.202 23.1264 106.197C23.0679 106.202 23.0125 106.226 22.9687 106.265L22.0439 106.929C21.9703 106.975 21.908 107.037 21.8616 107.111C21.6712 107.475 22.354 107.946 22.0738 108.248C21.9922 108.335 21.8644 108.351 21.7637 108.414C21.5434 108.553 21.5162 108.854 21.4156 109.094C21.3149 109.333 20.9532 109.515 20.8172 109.295C20.9178 109.067 20.6132 108.871 20.3656 108.841C20.1181 108.811 19.857 108.797 19.721 108.569C19.3674 108.876 18.5786 108.025 18.5976 107.671C18.46 107.698 18.3339 107.766 18.2365 107.867C18.1391 107.967 18.0752 108.096 18.0536 108.234C18.0137 108.521 18.0037 108.811 18.0237 109.099C18.0237 109.66 17.8333 110.209 17.8442 110.769C17.8442 111.205 18.021 111.689 18.4181 111.857C18.6167 111.928 18.8281 111.956 19.0383 111.939L23.5861 111.909C23.6957 111.918 23.8059 111.9 23.9071 111.857C24.1111 111.751 24.1546 111.482 24.1791 111.251L24.4239 108.286L24.0023 108.123Z" fill="#EF233C"/>
<path opacity="0.3" d="M24.0023 108.123C24.0368 108.051 24.0535 107.972 24.051 107.893C24.0484 107.813 24.0268 107.735 23.9878 107.666C23.9488 107.596 23.8937 107.537 23.8271 107.494C23.7605 107.45 23.6844 107.423 23.6052 107.416C23.6736 107.212 23.6783 106.993 23.6185 106.787C23.5587 106.58 23.4373 106.398 23.2706 106.262C23.2312 106.225 23.1804 106.202 23.1264 106.197C23.0679 106.202 23.0125 106.226 22.9687 106.265L22.0439 106.929C21.9703 106.975 21.908 107.037 21.8616 107.111C21.6712 107.475 22.354 107.946 22.0738 108.248C21.9922 108.335 21.8644 108.351 21.7637 108.414C21.5434 108.553 21.5162 108.854 21.4156 109.094C21.3149 109.333 20.9532 109.515 20.8172 109.295C20.9178 109.067 20.6132 108.871 20.3656 108.841C20.1181 108.811 19.857 108.797 19.721 108.569C19.3674 108.876 18.5786 108.025 18.5976 107.671C18.46 107.698 18.3339 107.766 18.2365 107.867C18.1391 107.967 18.0752 108.096 18.0536 108.234C18.0137 108.521 18.0037 108.811 18.0237 109.099C18.0237 109.66 17.8333 110.209 17.8442 110.769C17.8442 111.205 18.021 111.689 18.4181 111.857C18.6167 111.928 18.8281 111.956 19.0383 111.939L23.5861 111.909C23.6957 111.918 23.8059 111.9 23.9071 111.857C24.1111 111.751 24.1546 111.482 24.1791 111.251L24.4239 108.286L24.0023 108.123Z" fill="white"/>
<path d="M24.2666 103.316H17.2109L17.2681 104.029L17.3089 104.538L17.4177 105.862L17.4802 106.624L17.5618 107.638L17.5945 108.071V108.202L17.6353 108.713L17.6924 109.412L17.725 109.844L17.7631 110.288L17.8039 110.796L17.8365 111.183L17.8692 111.618L17.8855 111.808H24.3754V111.618L24.4108 111.185L24.4434 110.796L24.4842 110.285L24.5196 109.844L24.5549 109.412L24.6121 108.71L24.6529 108.202V108.071L24.6855 107.638L24.7698 106.624L24.8297 105.865L24.9357 104.538L24.9793 104.029L25.0364 103.316H24.2666ZM24.6909 103.784L24.5549 103.648H24.7018L24.6909 103.784ZM24.6556 104.217L24.642 104.388L24.0109 105.022L23.2874 104.296L23.9348 103.648H24.0871L24.6556 104.217ZM24.4733 106.474L24.0109 106.937L23.2874 106.213L24.0109 105.49L24.5114 105.99L24.4733 106.474ZM17.7604 105.99L18.2609 105.49L18.9844 106.213L18.2609 106.937L17.7985 106.474L17.7604 105.99ZM23.777 105.264L23.0535 105.987L22.33 105.264L23.0535 104.538L23.777 105.264ZM22.6401 103.656H23.4561L23.0426 104.07L22.6401 103.656ZM22.8169 106.221L22.0961 106.945L21.3698 106.221L22.0961 105.498L22.8169 106.221ZM20.4124 107.168L21.1359 106.447L21.8594 107.168L21.1359 107.894L20.4124 107.168ZM20.902 108.128L20.1757 108.852L19.4549 108.128L20.1785 107.405L20.902 108.128ZM22.0961 107.405L22.8169 108.128L22.0961 108.852L21.3698 108.128L22.0961 107.405ZM21.1359 105.977L20.4124 105.264L21.1359 104.538L21.8594 105.264L21.1359 105.977ZM20.902 106.21L20.1785 106.934L19.4549 106.21L20.1785 105.487L20.902 106.21ZM19.2183 105.977L18.4948 105.264L19.2183 104.538L19.9418 105.264L19.2183 105.977ZM19.2183 106.447L19.9418 107.168L19.2183 107.894L18.4948 107.168L19.2183 106.447ZM19.9418 109.088L19.2183 109.809L18.4948 109.091L19.2183 108.365L19.9418 109.088ZM20.1757 109.319L20.902 110.046L20.1785 110.769L19.4549 110.046L20.1757 109.319ZM20.4124 109.088L21.1359 108.362L21.8594 109.088L21.1359 109.809L20.4124 109.088ZM22.0961 109.319L22.8169 110.046L22.0961 110.769L21.3698 110.046L22.0961 109.319ZM23.0535 110.28L23.777 111.003L23.3092 111.474H22.7978L22.33 111.003L23.0535 110.28ZM22.33 109.088L23.0535 108.362L23.777 109.088L23.0535 109.809L22.33 109.088ZM22.33 107.168L23.0535 106.447L23.777 107.168L23.0535 107.894L22.33 107.168ZM22.8169 104.293L22.0961 105.019L21.3698 104.293L22.0308 103.648H22.1831L22.8169 104.293ZM21.1359 104.059L20.7225 103.646H21.5385L21.1359 104.059ZM20.902 104.293L20.1785 105.019L19.4549 104.293L20.1023 103.646H20.2546L20.902 104.293ZM19.6317 103.646L19.2183 104.059L18.8049 103.646H19.6317ZM18.337 103.646L18.9844 104.293L18.2609 105.019L17.6298 104.385V104.214L18.1983 103.646H18.337ZM17.7169 103.646L17.5809 103.779V103.646H17.7169ZM17.6706 104.897L18.0269 105.264L17.725 105.566L17.6706 104.897ZM17.8692 107.326L17.842 106.983L18.0269 107.168L17.8692 107.326ZM17.9045 107.761L18.2609 107.405L18.9844 108.128L18.2609 108.852L17.9671 108.561L17.9045 107.761ZM18.0106 109.102V109.072L18.0269 109.091L18.0106 109.105V109.102ZM18.1385 110.644L18.046 109.534L18.2609 109.319L18.9844 110.046L18.2609 110.769L18.1385 110.644ZM18.2037 111.46L18.1901 111.294L18.2609 111.223L18.4948 111.46H18.2037ZM18.4948 111.006L19.2183 110.282L19.9418 111.006L19.474 111.476H18.9626L18.4948 111.006ZM19.9418 111.476L20.1785 111.24L20.4151 111.476H19.9418ZM20.8802 111.476L20.4124 111.006L21.1359 110.282L21.8594 111.006L21.3916 111.476H20.8802ZM21.8594 111.476L22.0961 111.24L22.33 111.476H21.8594ZM24.0681 111.476H23.777L24.0109 111.24L24.0817 111.31L24.0681 111.476ZM24.1361 110.66L24.0109 110.786L23.2874 110.062L24.0109 109.336L24.2258 109.551L24.1361 110.66ZM24.2639 109.086V109.118L24.2476 109.105L24.2666 109.086H24.2639ZM24.3047 108.577L24.0109 108.868L23.2874 108.144L24.0109 107.421L24.37 107.777L24.3047 108.577ZM24.4053 107.345L24.2449 107.184L24.4325 106.999L24.4053 107.345ZM24.6012 104.913L24.5495 105.571L24.2449 105.264L24.6012 104.908V104.913Z" fill="#EF233C"/>
<g opacity="0.6">
<path d="M24.2666 103.316H17.2109L17.2681 104.029L17.3089 104.538L17.4177 105.862L17.4802 106.624L17.5618 107.638L17.5945 108.071V108.202L17.6353 108.713L17.6924 109.412L17.725 109.844L17.7631 110.288L17.8039 110.796L17.8365 111.183L17.8692 111.618L17.8855 111.808H24.3754V111.618L24.4108 111.185L24.4434 110.796L24.4842 110.285L24.5196 109.844L24.5549 109.412L24.6121 108.71L24.6529 108.202V108.071L24.6855 107.638L24.7698 106.624L24.8297 105.865L24.9357 104.538L24.9793 104.029L25.0364 103.316H24.2666ZM24.6909 103.784L24.5549 103.648H24.7018L24.6909 103.784ZM24.6556 104.217L24.642 104.388L24.0109 105.022L23.2874 104.296L23.9348 103.648H24.0871L24.6556 104.217ZM24.4733 106.474L24.0109 106.937L23.2874 106.213L24.0109 105.49L24.5114 105.99L24.4733 106.474ZM17.7604 105.99L18.2609 105.49L18.9844 106.213L18.2609 106.937L17.7985 106.474L17.7604 105.99ZM23.777 105.264L23.0535 105.987L22.33 105.264L23.0535 104.538L23.777 105.264ZM22.6401 103.656H23.4561L23.0426 104.07L22.6401 103.656ZM22.8169 106.221L22.0961 106.945L21.3698 106.221L22.0961 105.498L22.8169 106.221ZM20.4124 107.168L21.1359 106.447L21.8594 107.168L21.1359 107.894L20.4124 107.168ZM20.902 108.128L20.1757 108.852L19.4549 108.128L20.1785 107.405L20.902 108.128ZM22.0961 107.405L22.8169 108.128L22.0961 108.852L21.3698 108.128L22.0961 107.405ZM21.1359 105.977L20.4124 105.264L21.1359 104.538L21.8594 105.264L21.1359 105.977ZM20.902 106.21L20.1785 106.934L19.4549 106.21L20.1785 105.487L20.902 106.21ZM19.2183 105.977L18.4948 105.264L19.2183 104.538L19.9418 105.264L19.2183 105.977ZM19.2183 106.447L19.9418 107.168L19.2183 107.894L18.4948 107.168L19.2183 106.447ZM19.9418 109.088L19.2183 109.809L18.4948 109.091L19.2183 108.365L19.9418 109.088ZM20.1757 109.319L20.902 110.046L20.1785 110.769L19.4549 110.046L20.1757 109.319ZM20.4124 109.088L21.1359 108.362L21.8594 109.088L21.1359 109.809L20.4124 109.088ZM22.0961 109.319L22.8169 110.046L22.0961 110.769L21.3698 110.046L22.0961 109.319ZM23.0535 110.28L23.777 111.003L23.3092 111.474H22.7978L22.33 111.003L23.0535 110.28ZM22.33 109.088L23.0535 108.362L23.777 109.088L23.0535 109.809L22.33 109.088ZM22.33 107.168L23.0535 106.447L23.777 107.168L23.0535 107.894L22.33 107.168ZM22.8169 104.293L22.0961 105.019L21.3698 104.293L22.0308 103.648H22.1831L22.8169 104.293ZM21.1359 104.059L20.7225 103.646H21.5385L21.1359 104.059ZM20.902 104.293L20.1785 105.019L19.4549 104.293L20.1023 103.646H20.2546L20.902 104.293ZM19.6317 103.646L19.2183 104.059L18.8049 103.646H19.6317ZM18.337 103.646L18.9844 104.293L18.2609 105.019L17.6298 104.385V104.214L18.1983 103.646H18.337ZM17.7169 103.646L17.5809 103.779V103.646H17.7169ZM17.6706 104.897L18.0269 105.264L17.725 105.566L17.6706 104.897ZM17.8692 107.326L17.842 106.983L18.0269 107.168L17.8692 107.326ZM17.9045 107.761L18.2609 107.405L18.9844 108.128L18.2609 108.852L17.9671 108.561L17.9045 107.761ZM18.0106 109.102V109.072L18.0269 109.091L18.0106 109.105V109.102ZM18.1385 110.644L18.046 109.534L18.2609 109.319L18.9844 110.046L18.2609 110.769L18.1385 110.644ZM18.2037 111.46L18.1901 111.294L18.2609 111.223L18.4948 111.46H18.2037ZM18.4948 111.006L19.2183 110.282L19.9418 111.006L19.474 111.476H18.9626L18.4948 111.006ZM19.9418 111.476L20.1785 111.24L20.4151 111.476H19.9418ZM20.8802 111.476L20.4124 111.006L21.1359 110.282L21.8594 111.006L21.3916 111.476H20.8802ZM21.8594 111.476L22.0961 111.24L22.33 111.476H21.8594ZM24.0681 111.476H23.777L24.0109 111.24L24.0817 111.31L24.0681 111.476ZM24.1361 110.66L24.0109 110.786L23.2874 110.062L24.0109 109.336L24.2258 109.551L24.1361 110.66ZM24.2639 109.086V109.118L24.2476 109.105L24.2666 109.086H24.2639ZM24.3047 108.577L24.0109 108.868L23.2874 108.144L24.0109 107.421L24.37 107.777L24.3047 108.577ZM24.4053 107.345L24.2449 107.184L24.4325 106.999L24.4053 107.345ZM24.6012 104.913L24.5495 105.571L24.2449 105.264L24.6012 104.908V104.913Z" fill="white"/>
</g>
<path d="M17.2068 103.945H25.0676C25.314 103.945 25.5137 103.745 25.5137 103.499V103.469C25.5137 103.222 25.314 103.023 25.0676 103.023H17.2068C16.9604 103.023 16.7607 103.222 16.7607 103.469V103.499C16.7607 103.745 16.9604 103.945 17.2068 103.945Z" fill="#EF233C"/>
<path d="M24.4354 111.311H17.8367C17.5903 111.311 17.3906 111.51 17.3906 111.757V111.787C17.3906 112.033 17.5903 112.233 17.8367 112.233H24.4354C24.6818 112.233 24.8815 112.033 24.8815 111.787V111.757C24.8815 111.51 24.6818 111.311 24.4354 111.311Z" fill="#EF233C"/>
<path d="M65.6976 36.6785L73.722 35.2896C74.2682 35.195 74.6343 34.6756 74.5398 34.1294L73.1508 26.1051C73.0563 25.5589 72.5369 25.1927 71.9907 25.2873L63.9663 26.6762C63.4201 26.7708 63.054 27.2902 63.1485 27.8364L64.5374 35.8607C64.632 36.4069 65.1514 36.7731 65.6976 36.6785Z" fill="#EF233C"/>
<path d="M68.5039 35.3981C68.5039 35.3981 70.3345 38.1697 73.4353 38.5995C73.4353 38.5995 71.6482 37.944 71.2321 34.7915L68.5039 35.3981Z" fill="#EF233C"/>
<path d="M71.1529 30.2192L69.8582 30.3742C69.8582 30.3742 69.4339 29.5092 69.1646 27.5073C68.9396 27.5103 68.7162 27.5451 68.5009 27.6107C68.2915 27.7032 68.5227 29.9444 68.5227 29.9444C68.5227 29.9444 66.178 30.1076 66.0747 30.2164C66.004 30.2899 66.0312 30.6353 66.0747 30.8801C66.0803 30.9504 66.1107 31.0164 66.1606 31.0662C66.2104 31.1161 66.2764 31.1465 66.3467 31.1521H66.431L66.8472 33.3553C66.8606 33.4386 66.9058 33.5135 66.9732 33.5642C67.0407 33.6149 67.1252 33.6375 67.2089 33.6273L69.3849 33.3553C69.6009 33.3248 69.8028 33.23 69.9643 33.0833L70.1764 32.8902L71.5364 32.8032L71.1529 30.2192Z" fill="#EF233C"/>
<path opacity="0.7" d="M71.1529 30.2192L69.8582 30.3742C69.8582 30.3742 69.4339 29.5092 69.1646 27.5073C68.9396 27.5103 68.7162 27.5451 68.5009 27.6107C68.2915 27.7032 68.5227 29.9444 68.5227 29.9444C68.5227 29.9444 66.178 30.1076 66.0747 30.2164C66.004 30.2899 66.0312 30.6353 66.0747 30.8801C66.0803 30.9504 66.1107 31.0164 66.1606 31.0662C66.2104 31.1161 66.2764 31.1465 66.3467 31.1521H66.431L66.8472 33.3553C66.8606 33.4386 66.9058 33.5135 66.9732 33.5642C67.0407 33.6149 67.1252 33.6375 67.2089 33.6273L69.3849 33.3553C69.6009 33.3248 69.8028 33.23 69.9643 33.0833L70.1764 32.8902L71.5364 32.8032L71.1529 30.2192Z" fill="white"/>
<path d="M75.7625 46.1611C74.5765 46.1149 69.958 53.6384 69.958 53.6384L66.8191 53.04L66.1445 54.6448C66.1445 54.6448 68.9761 56.0265 70.113 56.1489C71.25 56.2713 75.6156 50.203 75.6156 50.203L75.7625 46.1611Z" fill="#EF233C"/>
<path opacity="0.2" d="M75.7633 46.1584L75.6164 50.203C75.6164 50.203 75.5103 50.3499 75.3281 50.5947C74.9963 51.049 74.4006 51.8459 73.7233 52.6973C72.3987 54.3565 70.7585 56.2333 70.1247 56.1517C68.985 56.0293 66.1562 54.6529 66.1562 54.6529L66.8308 53.0482L69.967 53.6411C69.967 53.6411 74.5774 46.1149 75.7633 46.1584Z" fill="white"/>
<path opacity="0.2" d="M75.3157 50.592C74.9839 51.0462 74.3882 51.8432 73.7109 52.6945C73.7354 51.0897 75.1389 49.0933 75.1389 49.0933C75.1389 49.0933 75.2396 49.7488 75.3157 50.592Z" fill="black"/>
<path d="M84.7711 112.004H87.4231C87.4667 112.004 87.509 112.019 87.543 112.046C87.5771 112.074 87.601 112.111 87.6108 112.154L88.0406 114.099C88.0584 114.182 88.0423 114.27 87.9959 114.342C87.9496 114.413 87.8766 114.464 87.7931 114.482H87.7223C86.8628 114.469 86.2372 114.417 85.1601 114.417C84.4964 114.417 82.4918 114.485 81.5751 114.485C80.6585 114.485 80.5388 113.579 80.9142 113.495C82.5979 113.13 83.8654 112.622 84.4039 112.135C84.5051 112.046 84.6365 111.999 84.7711 112.004Z" fill="#263238"/>
<path d="M73.5156 111.934H76.1595C76.2027 111.934 76.2446 111.949 76.2782 111.976C76.3118 112.003 76.3352 112.041 76.3444 112.083L76.7769 114.031C76.7938 114.114 76.777 114.201 76.7301 114.273C76.6833 114.344 76.6102 114.394 76.5267 114.411C76.5032 114.414 76.4794 114.414 76.4559 114.411C75.5991 114.395 74.9736 114.343 73.8937 114.343C73.23 114.343 71.2281 114.414 70.3115 114.414C69.3948 114.414 69.2752 113.508 69.6505 113.424C71.3342 113.057 72.599 112.548 73.1403 112.064C73.2444 111.975 73.3785 111.928 73.5156 111.934Z" fill="#263238"/>
<path d="M86.1766 62.8157H74.5839C73.4796 68.835 70.0307 93.2797 72.5059 112.257H76.4308C76.4308 112.257 76.0663 83.4251 79.5316 74.1173C79.9315 79.103 83.9843 112.235 83.9843 112.235H87.9799C87.9799 112.235 87.3815 99.7723 86.7831 87.9974C86.4078 80.5854 86.1929 64.3362 86.1766 62.8157Z" fill="#263238"/>
<path opacity="0.2" d="M79.5321 74.1174C78.962 75.7505 78.529 77.4282 78.2374 79.1331C77.9137 74.6968 79.2112 69.9939 79.2112 69.9939L79.5321 74.1174Z" fill="black"/>
<path d="M74.4875 62.9543H86.1563V64.3443L74.3379 64.2001L74.4875 62.9543Z" fill="black"/>
<path d="M82.4044 62.3289H81.9883V64.7959H82.4044V62.3289Z" fill="#263238"/>
<path d="M76.5001 62.3289H76.084V64.7959H76.5001V62.3289Z" fill="#263238"/>
<path d="M79.8062 62.7097H77.6465V64.2656H79.8062V62.7097Z" fill="white"/>
<path d="M86.1935 63.1775C86.5009 56.538 88.4539 47.1295 88.4539 47.1295C83.0356 45.8239 75.7623 46.1503 75.7623 46.1503C74.3452 51.2204 74.3697 59.4021 74.4921 63.1666L86.1935 63.1775Z" fill="#EF233C"/>
<path opacity="0.2" d="M88.4539 47.1377C88.4539 47.1377 88.2363 48.1903 87.9344 49.8359C87.7902 50.622 87.6243 51.5441 87.4584 52.5559C87.3605 53.1462 87.2598 53.7636 87.1646 54.4001C87.0694 55.0366 86.9715 55.6595 86.8926 56.3041C86.5717 58.6107 86.3024 61.0396 86.2018 63.1803H74.5058C74.3834 59.4158 74.3589 51.234 75.776 46.1612C75.7624 46.1585 83.0384 45.8321 88.4539 47.1377Z" fill="white"/>
<path opacity="0.2" d="M87.9348 49.836C87.7907 50.6221 87.6247 51.5442 87.4588 52.556C87.3609 53.1462 87.2603 53.7637 87.1651 54.4002C86.3055 52.1453 87.7689 49.0989 87.7689 49.0989L87.9348 49.836Z" fill="black"/>
<path d="M79.6139 47.0559L79.9049 48.4921C79.9049 48.4921 78.2321 55.4743 77.873 59.1001L78.4823 59.7094L79.4425 59.1001C79.4425 59.1001 79.5268 51.7262 80.3755 48.6281L81.8932 47.3851L80.6964 46.9961L79.6139 47.0559Z" fill="#263238"/>
<path d="M84.1559 46.4059C83.1549 47.3171 80.696 46.9798 80.696 46.9798C80.696 46.9798 79.1647 46.5609 79.4856 46.0822C80.3887 45.9326 80.8266 45.511 81.0061 44.9724C81.1061 44.6386 81.1376 44.2879 81.0986 43.9416C81.0841 43.7481 81.0587 43.5555 81.0224 43.3649L84.0607 41.1155C83.6608 42.6006 83.1739 45.3315 84.1559 46.4059Z" fill="#EEC1BB"/>
<path opacity="0.2" d="M83.3587 42.5464C83.2363 44.3688 81.7267 44.8693 81.0059 44.9726C81.1059 44.6388 81.1374 44.2881 81.0983 43.9417L83.3587 42.5464Z" fill="black"/>
<path d="M83.7112 45.25L80.8063 46.561L80.6376 45.5111L79.5687 45.8865C79.3829 45.9516 79.2246 46.0776 79.1194 46.244C79.0143 46.4103 78.9684 46.6074 78.9893 46.8031L79.109 47.9564L80.5805 47.1404L81.3149 48.1767L84.8019 46.5121L83.7112 45.25Z" fill="#EF233C"/>
<path opacity="0.3" d="M83.7112 45.25L80.8063 46.561L80.6376 45.5111L79.5687 45.8865C79.3829 45.9516 79.2246 46.0776 79.1194 46.244C79.0143 46.4103 78.9684 46.6074 78.9893 46.8031L79.109 47.9564L80.5805 47.1404L81.3149 48.1767L84.8019 46.5121L83.7112 45.25Z" fill="white"/>
<path d="M77.8359 36.8969C77.8359 36.8969 77.3816 39.8209 78.9239 40.9524C80.4661 42.0839 80.4906 36.6357 80.4906 36.6357L77.8359 36.8969Z" fill="#263238"/>
<path d="M83.4308 43.2888C83.1046 43.7702 82.629 44.1309 82.0775 44.3152C81.5259 44.4995 80.9291 44.4973 80.379 44.3088C79.6624 44.0806 79.0601 43.5873 78.6953 42.9298C78.6444 42.8415 78.5981 42.7507 78.5566 42.6578C77.7977 40.868 77.5638 37.74 79.4569 36.5731C80.1037 36.1693 80.8844 36.0387 81.6275 36.2101C82.3706 36.3814 83.0152 36.8407 83.4199 37.487C83.6613 37.8694 83.8078 38.304 83.847 38.7546C84.0727 40.8381 84.3039 42.0566 83.4308 43.2888Z" fill="#EEC1BB"/>
<path d="M80.7981 39.8535C80.8362 40.0195 80.76 40.1745 80.6485 40.1935C80.537 40.2126 80.4255 40.0875 80.3956 39.9215C80.3656 39.7556 80.4364 39.6033 80.5452 39.5843C80.654 39.5652 80.7682 39.6849 80.7981 39.8535Z" fill="#263238"/>
<path d="M78.8787 40.1745C78.9167 40.3404 78.8379 40.4955 78.7291 40.5118C78.6203 40.5281 78.506 40.4085 78.4788 40.2398C78.4516 40.0712 78.5169 39.9188 78.6257 39.9025C78.7345 39.8862 78.8596 40.014 78.8787 40.1745Z" fill="#263238"/>
<path d="M79.5072 40.1555C79.3928 40.706 79.2024 41.2379 78.9414 41.7358C79.0716 41.7989 79.2139 41.8331 79.3585 41.8359C79.5031 41.8387 79.6466 41.8101 79.7792 41.7522L79.5072 40.1555Z" fill="#D4827D"/>
<path d="M78.0422 39.4781C78.0596 39.4839 78.0783 39.4852 78.0963 39.4818C78.1144 39.4785 78.1313 39.4707 78.1456 39.459C78.2383 39.3732 78.3498 39.3101 78.4711 39.2747C78.5924 39.2393 78.7202 39.2326 78.8446 39.255C78.8571 39.2587 78.8702 39.2599 78.8832 39.2585C78.8962 39.2571 78.9087 39.2531 78.9201 39.2468C78.9315 39.2404 78.9415 39.2319 78.9496 39.2216C78.9576 39.2114 78.9636 39.1996 78.967 39.187C78.9738 39.1611 78.9701 39.1335 78.957 39.1101C78.9438 39.0868 78.922 39.0695 78.8963 39.0619C78.7405 39.0293 78.5792 39.0345 78.4259 39.0771C78.2725 39.1197 78.1316 39.1984 78.015 39.3067C77.9945 39.3237 77.9815 39.3481 77.979 39.3746C77.9764 39.4011 77.9845 39.4276 78.0014 39.4481C78.013 39.4606 78.0268 39.4708 78.0422 39.4781Z" fill="#263238"/>
<path d="M81.0565 39.0266C81.0751 39.0238 81.0924 39.015 81.1057 39.0015C81.1189 38.988 81.1274 38.9706 81.1299 38.9518C81.1323 38.9331 81.1286 38.914 81.1193 38.8976C81.11 38.8812 81.0955 38.8682 81.0782 38.8607C80.9435 38.7748 80.7901 38.7227 80.6309 38.709C80.4718 38.6953 80.3117 38.7202 80.1643 38.7818C80.1523 38.7873 80.1416 38.7952 80.1328 38.8049C80.1239 38.8147 80.1171 38.8261 80.1128 38.8386C80.1085 38.851 80.1068 38.8642 80.1076 38.8774C80.1085 38.8905 80.1121 38.9033 80.1181 38.9151C80.1298 38.9387 80.1503 38.9568 80.1752 38.9654C80.2002 38.9741 80.2275 38.9726 80.2513 38.9613C80.3694 38.9168 80.4962 38.9002 80.6217 38.913C80.7473 38.9257 80.8681 38.9674 80.9749 39.0347C80.9882 39.0397 81.0025 39.0416 81.0166 39.0402C81.0308 39.0388 81.0444 39.0341 81.0565 39.0266Z" fill="#263238"/>
<path d="M81.8906 36.4153V37.3483C82.0533 37.4044 82.1894 37.5189 82.2723 37.6698C82.3553 37.8206 82.3792 37.9968 82.3394 38.1643C82.1327 38.9803 82.7148 40.12 83.3676 40.528C83.3676 40.528 83.3458 40.1907 83.6396 40.2369C83.9333 40.2832 84.0639 42.0376 83.6097 42.9379C83.6097 42.9379 84.3549 42.0838 84.6079 40.1961C84.8418 38.4472 84.7276 37.0273 84.3033 36.4126L81.8906 36.4153Z" fill="#263238"/>
<path d="M85.0383 40.294C84.8868 40.8018 84.5406 41.2291 84.0754 41.4827C83.4552 41.8118 82.9874 41.295 83.0391 40.6313C83.0826 40.0411 83.4525 39.1408 84.1271 39.0918C84.8016 39.0428 85.2151 39.6684 85.0383 40.294Z" fill="#EEC1BB"/>
<path d="M80 42.2635C80.1458 42.4872 80.2758 42.7208 80.389 42.9626L80.525 42.9218C81.137 42.7423 81.36 42.4567 81.4253 42.1955C81.4558 42.0677 81.4558 41.9344 81.4253 41.8066C81.4085 41.7344 81.382 41.6649 81.3464 41.5999C81.0176 41.8783 80.6326 42.0824 80.2176 42.1983C80.0816 42.2418 80 42.2635 80 42.2635Z" fill="#263238"/>
<path d="M80.207 42.1983L80.3267 42.4023C80.9034 42.2309 81.2869 42.0351 81.4147 41.8066C81.3979 41.7344 81.3714 41.6649 81.3358 41.5999C81.007 41.8783 80.622 42.0824 80.207 42.1983Z" fill="white"/>
<path d="M80.5254 42.9216C81.1374 42.742 81.3604 42.4564 81.4257 42.1953C81.194 42.2689 80.9768 42.3821 80.7838 42.5299C80.6591 42.6305 80.5688 42.7674 80.5254 42.9216Z" fill="#DE5753"/>
<path d="M84.1571 36.8561C84.1571 36.8561 85.1608 35.6321 82.7536 34.8813C80.3464 34.1306 76.824 36.3665 77.5394 37.2505C78.2547 38.1345 80.7218 37.7645 80.7218 37.7645C80.3771 37.723 80.051 37.5854 79.7807 37.3674C79.7807 37.3674 83.3493 37.6068 84.1571 36.8561Z" fill="#263238"/>
<path d="M88.4531 47.1404C89.979 47.6572 91.0235 57.1445 91.0044 57.9687C90.9854 58.7929 88.6489 59.1492 88.4531 57.4247C88.2573 55.7002 87.4576 52.0337 87.4576 52.0337C87.4576 52.0337 87.2454 50.3745 87.4576 49.3681C87.6697 48.3617 88.4531 47.1404 88.4531 47.1404Z" fill="#EF233C"/>
<path opacity="0.2" d="M88.4531 47.1404C89.979 47.6572 91.0235 57.1445 91.0044 57.9687C90.9854 58.7929 88.6489 59.1492 88.4531 57.4247C88.2573 55.7002 87.4576 52.0337 87.4576 52.0337C87.4576 52.0337 87.2454 50.3745 87.4576 49.3681C87.6697 48.3617 88.4531 47.1404 88.4531 47.1404Z" fill="white"/>
<path d="M100.449 57.7286L47.2031 51.9631L43.1924 89.0025L96.438 94.768L100.449 57.7286Z" fill="#EF233C"/>
<path opacity="0.6" d="M100.449 57.7286L47.2031 51.9631L43.1924 89.0025L96.438 94.768L100.449 57.7286Z" fill="white"/>
<path d="M95.3498 93.5055L44.543 88.0084L48.3075 53.2114L99.1143 58.7085L95.3498 93.5055ZM44.8449 87.7663L95.1078 93.2063L98.8151 58.9506L48.5495 53.5106L44.8449 87.7663Z" fill="#EF233C"/>
<path d="M95.9182 94.1801L92.9561 93.8591L93.0703 92.8119L46.9201 87.818L46.8058 88.8652L43.8438 88.5469L44.1647 85.5849L45.2391 85.7018L48.5031 55.6159L47.4151 55.4989L47.7361 52.5369L50.6981 52.8578L50.5866 53.905L96.7369 58.8989L96.8484 57.8517L99.8241 58.17L99.5031 61.1321L98.4287 61.0178L95.1647 91.101L96.2527 91.218L95.9182 94.1801ZM93.2553 93.6197L95.6761 93.8917L95.9481 91.4709L94.8601 91.354L98.173 60.7268L99.261 60.8437L99.533 58.4229L97.1122 58.1509L96.998 59.1981L50.2874 54.1471L50.4017 53.0972L47.9809 52.8252L47.7089 55.246L48.7833 55.3629L45.4703 85.9902L44.3823 85.8732L44.1103 88.294L46.5311 88.566L46.6454 87.5188L93.3369 92.5698L93.2553 93.6197Z" fill="#EF233C"/>
<path d="M49.043 54.1635L49.6604 54.2315L49.5924 54.8489L48.975 54.7836L49.043 54.1635ZM48.8009 53.8643L48.771 54.1363L48.7057 54.7564L48.6758 55.0284L48.9478 55.0583L49.5679 55.1263L49.8399 55.1535L49.8699 54.8815L49.9351 54.2641L49.9651 53.9921L49.6931 53.9622L49.0729 53.8969L48.8009 53.867V53.8643Z" fill="#EF233C"/>
<path d="M45.5332 86.6183L46.1507 86.6836L46.0827 87.301L45.4652 87.2358L45.5332 86.6183ZM45.2911 86.3164L45.2612 86.5884L45.1959 87.2058L45.166 87.4778L45.438 87.505L46.0582 87.573L46.3302 87.603L46.3601 87.331L46.4254 86.7135L46.4553 86.4415L46.1833 86.4143L45.5631 86.3463L45.2911 86.3164Z" fill="#EF233C"/>
<path d="M97.5742 59.4157L98.1917 59.481L98.1264 60.1012L97.5062 60.0332L97.5742 59.4157ZM97.3321 59.1138L97.3022 59.3858L97.2369 60.0032L97.207 60.2752L97.479 60.3024L98.0992 60.3704L98.3712 60.4004L98.4011 60.1284L98.4691 59.5109L98.4963 59.2389L98.2243 59.209L97.6069 59.141L97.3349 59.1111L97.3321 59.1138Z" fill="#EF233C"/>
<path d="M94.0625 91.868L94.68 91.936L94.6147 92.5535L93.9945 92.4855L94.0625 91.868ZM93.8204 91.5688L93.7905 91.8408L93.7252 92.461L93.6953 92.733L93.9673 92.7629L94.5847 92.8282L94.8567 92.8581L94.8867 92.5861L94.9547 91.966L94.9819 91.694L94.7099 91.664L94.0924 91.5988L93.8204 91.5688Z" fill="#EF233C"/>
<path d="M58.9961 59.9025C59.0371 59.6393 59.1545 59.394 59.3337 59.197C59.5129 58.9999 59.746 58.8598 60.0041 58.7941C60.2622 58.7283 60.5339 58.7398 60.7856 58.8271C61.0372 58.9143 61.2577 59.0736 61.4196 59.2851L61.0878 59.5353C61.0141 59.4324 60.9191 59.3466 60.8093 59.2837C60.6994 59.2208 60.5773 59.1823 60.4513 59.1708C60.3343 59.1551 60.2154 59.1629 60.1015 59.1938C59.9876 59.2248 59.8811 59.2782 59.7882 59.351C59.6953 59.4238 59.6179 59.5144 59.5606 59.6176C59.5032 59.7208 59.4672 59.8344 59.4545 59.9517C59.4417 60.069 59.4526 60.1877 59.4865 60.3007C59.5204 60.4138 59.5766 60.5189 59.6518 60.6099C59.7269 60.7009 59.8195 60.7759 59.9242 60.8305C60.0288 60.8852 60.1433 60.9183 60.2609 60.9279C60.387 60.9434 60.515 60.9315 60.6361 60.893C60.7572 60.8545 60.8686 60.7903 60.9627 60.7049L61.2347 61.0231C61.0313 61.1952 60.7819 61.3037 60.5174 61.3352C60.253 61.3668 59.985 61.32 59.7469 61.2006C59.5088 61.0813 59.311 60.8947 59.178 60.6639C59.045 60.4331 58.9827 60.1684 58.9988 59.9025H58.9961Z" fill="#EF233C"/>
<path d="M63.5543 61.2654L63.5108 61.6571L61.6367 61.4531L61.9087 58.9507L63.7338 59.1492L63.693 59.5382L62.333 59.3913L62.2623 60.0414L63.4727 60.172L63.4292 60.5555L62.2215 60.4249L62.1481 61.1131L63.5543 61.2654Z" fill="#EF233C"/>
<path d="M65.666 61.8883L65.2362 61.1022H65.1383L64.5725 61.0424L64.4936 61.7713L64.0312 61.7197L64.3032 59.22L65.3314 59.3315C65.9896 59.4022 66.3623 59.7803 66.3024 60.3352C66.2896 60.507 66.2226 60.6703 66.1112 60.8017C65.9998 60.9332 65.8497 61.026 65.6823 61.0668L66.1692 61.9508L65.666 61.8883ZM65.2661 59.7123L64.7221 59.6552L64.616 60.6507L65.16 60.7105C65.568 60.754 65.7992 60.5909 65.8319 60.2753C65.8645 59.9598 65.6741 59.7558 65.2797 59.7123H65.2661Z" fill="#EF233C"/>
<path d="M67.3413 59.938L66.5117 59.8483L66.5552 59.4539L68.6768 59.6851L68.636 60.0767L67.8064 59.987L67.578 62.095L67.1128 62.046L67.3413 59.938Z" fill="#EF233C"/>
<path d="M69.0279 59.7231L69.493 59.7721L69.221 62.2745L68.7559 62.2228L69.0279 59.7231Z" fill="#EF233C"/>
<path d="M70.5881 60.2861L70.5065 61.045L71.7142 61.1755L71.6707 61.5699L70.463 61.4394L70.3596 62.3968L69.8945 62.3479L70.1665 59.8455L71.9916 60.044L71.9509 60.433L70.5881 60.2861Z" fill="#EF233C"/>
<path d="M72.4446 60.0903L72.907 60.142L72.635 62.6444L72.1699 62.5927L72.4446 60.0903Z" fill="#EF233C"/>
<path d="M73.2676 61.4477C73.2847 61.2734 73.3373 61.1045 73.4221 60.9513C73.5069 60.7982 73.6221 60.6639 73.7607 60.5569C73.8993 60.4499 74.0583 60.3724 74.228 60.3291C74.3976 60.2859 74.5743 60.2777 74.7473 60.3053C74.9335 60.3179 75.1147 60.3715 75.2779 60.4622C75.441 60.553 75.5821 60.6786 75.6911 60.8303L75.362 61.0805C75.2883 60.9774 75.1934 60.8912 75.0836 60.8279C74.9738 60.7645 74.8517 60.7255 74.7255 60.7133C74.579 60.699 74.4312 60.7215 74.2956 60.7788C74.16 60.8361 74.0408 60.9264 73.9489 61.0414C73.8571 61.1565 73.7954 61.2926 73.7695 61.4376C73.7436 61.5825 73.7542 61.7316 73.8006 61.8713C73.8469 62.0111 73.9274 62.137 74.0348 62.2378C74.1421 62.3385 74.273 62.4108 74.4154 62.4482C74.5578 62.4855 74.7072 62.4867 74.8502 62.4517C74.9932 62.4166 75.1252 62.3464 75.2341 62.2474L75.5061 62.5656C75.303 62.7374 75.0538 62.8459 74.7896 62.8775C74.5254 62.9091 74.2578 62.8626 74.0198 62.7436C73.7818 62.6246 73.5839 62.4384 73.4507 62.208C73.3175 61.9777 73.2548 61.7133 73.2703 61.4477H73.2676Z" fill="#EF233C"/>
<path d="M77.542 62.5874L76.2908 62.4541L75.9807 62.9981L75.502 62.9464L76.9 60.5664L77.357 60.6154L78.2138 63.2374L77.7296 63.1858L77.542 62.5874ZM77.4277 62.2066L77.0741 61.0614L76.4866 62.1059L77.4277 62.2066Z" fill="#EF233C"/>
<path d="M79.1519 61.2136L78.3223 61.1239L78.3631 60.7322L80.4874 60.9607L80.4439 61.3551L79.6143 61.2653L79.3885 63.3733L78.9234 63.3216L79.1519 61.2136Z" fill="#EF233C"/>
<path d="M80.8267 60.9988L81.2918 61.0505L81.0198 63.5501L80.5547 63.5012L80.8267 60.9988Z" fill="#EF233C"/>
<path d="M81.6532 62.3532C81.6695 62.0818 81.7668 61.8215 81.9325 61.606C82.0983 61.3904 82.3248 61.2295 82.5829 61.144C82.841 61.0585 83.1188 61.0523 83.3805 61.1262C83.6421 61.2001 83.8756 61.3507 84.0508 61.5587C84.226 61.7666 84.3348 62.0223 84.3632 62.2927C84.3917 62.5631 84.3384 62.8358 84.2103 63.0757C84.0822 63.3155 83.8852 63.5114 83.6446 63.6382C83.4041 63.7649 83.1311 63.8166 82.8608 63.7867C82.6855 63.7771 82.514 63.7317 82.3569 63.6533C82.1997 63.575 82.0603 63.4653 81.9472 63.331C81.834 63.1967 81.7496 63.0407 81.699 62.8725C81.6485 62.7044 81.6329 62.5276 81.6532 62.3532ZM83.8781 62.5953C83.8976 62.4214 83.865 62.2457 83.7845 62.0903C83.704 61.935 83.5792 61.807 83.4259 61.7227C83.2726 61.6383 83.0977 61.6013 82.9234 61.6164C82.7491 61.6315 82.5832 61.6979 82.4467 61.8074C82.3101 61.9168 82.2092 62.0643 82.1565 62.2312C82.1039 62.398 82.102 62.5768 82.151 62.7447C82.2 62.9127 82.2977 63.0623 82.4319 63.1747C82.566 63.2871 82.7304 63.3571 82.9044 63.376C83.0201 63.3919 83.1378 63.384 83.2504 63.3529C83.363 63.3218 83.468 63.2681 83.5591 63.1951C83.6503 63.122 83.7256 63.0312 83.7804 62.928C83.8352 62.8249 83.8685 62.7117 83.8781 62.5953Z" fill="#EF233C"/>
<path d="M87.1993 61.6869L86.9273 64.1893L86.5465 64.1485L85.3497 62.3043L85.1648 63.9989L84.7051 63.9499L84.9771 61.4475L85.3606 61.4883L86.5574 63.3325L86.7396 61.6379L87.1993 61.6869Z" fill="#EF233C"/>
<path opacity="0.6" d="M84.638 71.3401L59.7473 68.6473C59.4681 68.617 59.1883 68.6988 58.9695 68.8748C58.7507 69.0508 58.6107 69.3065 58.5804 69.5857C58.5501 69.8649 58.632 70.1447 58.8079 70.3635C58.9839 70.5823 59.2396 70.7223 59.5188 70.7526L84.4095 73.4454C84.5478 73.4604 84.6876 73.448 84.821 73.409C84.9545 73.3699 85.079 73.305 85.1873 73.2178C85.2957 73.1307 85.3858 73.0231 85.4526 72.9011C85.5193 72.7791 85.5614 72.6452 85.5764 72.507C85.5914 72.3687 85.579 72.2289 85.54 72.0955C85.501 71.962 85.436 71.8375 85.3489 71.7292C85.2617 71.6208 85.1541 71.5307 85.0321 71.4639C84.9102 71.3972 84.7762 71.3551 84.638 71.3401Z" fill="white"/>
<path d="M90.6897 76.8046H90.6734L52.6805 72.6947C52.6444 72.6907 52.6114 72.6726 52.5887 72.6443C52.566 72.616 52.5554 72.5798 52.5594 72.5437C52.5634 72.5077 52.5815 72.4746 52.6098 72.4519C52.6381 72.4292 52.6743 72.4187 52.7104 72.4227L90.7033 76.5353C90.7211 76.537 90.7384 76.5423 90.7541 76.5507C90.7699 76.5592 90.7837 76.5708 90.7949 76.5848C90.806 76.5987 90.8143 76.6148 90.8191 76.632C90.824 76.6492 90.8253 76.6672 90.823 76.6849C90.8191 76.7176 90.8034 76.7478 90.7789 76.7698C90.7543 76.7918 90.7227 76.8042 90.6897 76.8046Z" fill="#EF233C"/>
<path d="M90.8115 75.665H90.7952L55.7806 71.8761C55.745 71.872 55.7124 71.8539 55.69 71.8259C55.6675 71.7979 55.6571 71.7622 55.6609 71.7265C55.6626 71.7087 55.6679 71.6914 55.6763 71.6757C55.6848 71.6599 55.6964 71.6461 55.7104 71.6349C55.7243 71.6237 55.7404 71.6155 55.7576 71.6107C55.7748 71.6058 55.7928 71.6045 55.8105 71.6068L90.8251 75.393C90.8612 75.3948 90.895 75.4109 90.9193 75.4377C90.9435 75.4644 90.9561 75.4998 90.9543 75.5358C90.9525 75.5719 90.9364 75.6058 90.9096 75.63C90.8829 75.6542 90.8476 75.6668 90.8115 75.665Z" fill="#EF233C"/>
<path d="M75.6735 76.3858L52.5535 73.8861C52.5174 73.8821 52.4844 73.864 52.4617 73.8357C52.439 73.8074 52.4285 73.7712 52.4325 73.7351C52.4364 73.6991 52.4546 73.6661 52.4829 73.6434C52.5112 73.6207 52.5474 73.6101 52.5834 73.6141L75.6871 76.1138C75.705 76.1147 75.7225 76.1191 75.7386 76.1267C75.7548 76.1344 75.7693 76.1452 75.7813 76.1584C75.7933 76.1717 75.8025 76.1872 75.8086 76.204C75.8146 76.2209 75.8172 76.2387 75.8163 76.2566C75.8154 76.2744 75.811 76.2919 75.8034 76.3081C75.7957 76.3243 75.7849 76.3388 75.7717 76.3508C75.7584 76.3628 75.7429 76.372 75.7261 76.378C75.7092 76.384 75.6914 76.3867 75.6735 76.3858Z" fill="#EF233C"/>
<path d="M91.682 67.6275H91.663L56.6512 63.8385C56.6151 63.8345 56.5821 63.8164 56.5594 63.7881C56.5367 63.7598 56.5262 63.7236 56.5301 63.6875C56.5341 63.6515 56.5522 63.6185 56.5805 63.5958C56.6088 63.5731 56.645 63.5625 56.6811 63.5665L91.6956 67.3555C91.7313 67.3596 91.7639 67.3776 91.7863 67.4056C91.8087 67.4336 91.8191 67.4694 91.8153 67.5051C91.8126 67.5385 91.7973 67.5697 91.7726 67.5923C91.7479 67.615 91.7156 67.6276 91.682 67.6275Z" fill="#EF233C"/>
<path d="M91.5581 68.7671H91.5445L53.5516 64.6544C53.5155 64.6504 53.4825 64.6323 53.4598 64.604C53.4371 64.5757 53.4265 64.5395 53.4305 64.5035C53.4345 64.4674 53.4526 64.4344 53.4809 64.4117C53.5092 64.389 53.5454 64.3784 53.5815 64.3824L91.5744 68.4923C91.5923 68.4934 91.6098 68.498 91.6259 68.5058C91.6419 68.5136 91.6563 68.5246 91.6682 68.5379C91.6801 68.5513 91.6892 68.5669 91.695 68.5838C91.7009 68.6007 91.7033 68.6186 91.7023 68.6365C91.7012 68.6544 91.6966 68.6718 91.6888 68.6879C91.681 68.704 91.6701 68.7184 91.6567 68.7303C91.6433 68.7421 91.6277 68.7513 91.6108 68.7571C91.5939 68.7629 91.576 68.7654 91.5581 68.7643V68.7671Z" fill="#EF233C"/>
<path d="M70.448 68.8923L53.2957 67.0372C53.2596 67.0333 53.2266 67.0151 53.2039 66.9868C53.1812 66.9585 53.1707 66.9223 53.1746 66.8863C53.1786 66.8502 53.1968 66.8172 53.2251 66.7945C53.2534 66.7718 53.2895 66.7613 53.3256 66.7652L70.4779 68.623C70.5136 68.6271 70.5462 68.6451 70.5686 68.6731C70.591 68.7012 70.6014 68.7369 70.5976 68.7726C70.5928 68.8079 70.5746 68.8401 70.5468 68.8624C70.5189 68.8847 70.4836 68.8954 70.448 68.8923Z" fill="#EF233C"/>
<path d="M91.4292 69.9585H91.4156L53.4226 65.8458C53.4048 65.8439 53.3875 65.8384 53.3717 65.8297C53.356 65.8211 53.3421 65.8094 53.3309 65.7954C53.3196 65.7814 53.3112 65.7653 53.3062 65.748C53.3012 65.7308 53.2996 65.7127 53.3016 65.6949C53.3036 65.677 53.309 65.6597 53.3177 65.644C53.3263 65.6282 53.338 65.6143 53.352 65.6031C53.366 65.5918 53.3821 65.5835 53.3994 65.5784C53.4166 65.5734 53.4347 65.5719 53.4526 65.5738L91.4428 69.6865C91.4789 69.6883 91.5127 69.7043 91.537 69.7311C91.5612 69.7579 91.5738 69.7932 91.572 69.8293C91.5702 69.8653 91.5541 69.8992 91.5274 69.9234C91.5006 69.9477 91.4653 69.9603 91.4292 69.9585Z" fill="#EF233C"/>
<path d="M86.6347 89.3846L85.0653 88.3102L83.3027 89.0229L83.912 83.3816L87.2467 83.7434L86.6347 89.3846Z" fill="#EF233C"/>
<path opacity="0.2" d="M86.6347 89.3846L85.0653 88.3102L83.3027 89.0229L83.912 83.3816L87.2467 83.7434L86.6347 89.3846Z" fill="black"/>
<path d="M86.0474 79.2391L86.5968 78.9208L86.945 79.454L87.5597 79.2826L87.7637 79.8837L88.4002 79.8701L88.4491 80.5066L89.0693 80.648L88.9578 81.2764L89.5235 81.5701L89.2597 82.1495L89.733 82.5765L89.3331 83.0716L89.6867 83.602L89.1781 83.9828L89.3875 84.5839L88.7973 84.826L88.8544 85.4597L88.2234 85.5495L88.1173 86.1778L87.4835 86.1044L87.2251 86.6865L86.6322 86.4607L86.2378 86.9612L85.7155 86.594L85.2096 86.9802L84.7962 86.4933L84.2114 86.7408L83.9312 86.1696L83.3029 86.2621L83.175 85.6393L82.5413 85.574L82.5739 84.9375L81.9755 84.7172L82.1632 84.1079L81.641 83.7461L81.9755 83.2021L81.5566 82.7234L82.0163 82.28L81.7307 81.7088L82.2856 81.396L82.1523 80.7732L82.767 80.6073L82.7915 79.9708L83.4307 79.9626L83.613 79.3533L84.2331 79.5029L84.5595 78.9562L85.1226 79.2581L85.5768 78.8093L86.0474 79.2391Z" fill="#EF233C"/>
<path opacity="0.2" d="M85.9658 79.9816L86.4065 79.7259L86.6839 80.153L87.1735 80.0143L87.3367 80.4957L87.8453 80.4848L87.8834 80.9935L88.3812 81.1077L88.2914 81.6082L88.7429 81.8421L88.5308 82.3072L88.9116 82.6445L88.5906 83.0416L88.8735 83.466L88.4655 83.7706L88.6341 84.2493L88.1636 84.4424L88.2071 84.9484L87.7039 85.0191L87.6196 85.5223L87.1137 85.4624L86.9069 85.9303L86.4337 85.748L86.1181 86.1479L85.702 85.8541L85.2994 86.1615L84.9676 85.7752L84.4997 85.9711L84.2794 85.5141L83.7762 85.5903L83.6729 85.0925L83.1669 85.0381L83.1941 84.5322L82.7154 84.3554L82.8677 83.8685L82.4489 83.5802L82.7154 83.1477L82.3809 82.7615L82.7481 82.4106L82.5223 81.9536L82.9629 81.7034L82.8569 81.2056L83.3492 81.0724L83.3682 80.5664L83.8769 80.5583L84.0237 80.0714L84.5188 80.1911L84.7799 79.7559L85.2287 79.9952L85.5905 79.6389L85.9658 79.9816Z" fill="white"/>
<path d="M85.6503 83.1669L86.0311 83.2104L86.0039 83.4634L85.5932 83.4199L85.4817 83.8904L85.226 83.8632L85.3375 83.3927L84.8642 83.341L84.7554 83.8115L84.4997 83.7843L84.6113 83.3138L84.2305 83.273L84.2577 83.0173L84.6684 83.0608L84.7881 82.5685L84.4073 82.5277L84.4345 82.272L84.8452 82.3155L84.9567 81.845L85.2124 81.8722L85.1009 82.3454L85.5714 82.3944L85.6829 81.9239L85.9386 81.9511L85.8271 82.4216L86.2052 82.4624L86.1807 82.7181L85.77 82.6746L85.6503 83.1669ZM85.3946 83.1397L85.5116 82.6474L85.041 82.5957L84.9213 83.088L85.3946 83.1397Z" fill="#EF233C"/>
<path d="M87.1219 82.0814L86.9097 84.0452L86.5452 84.0072L86.7248 82.3452L86.3086 82.3017L86.3412 81.9971L87.1219 82.0814Z" fill="#EF233C"/>
<path d="M55.5278 77.2998C55.5921 77.2619 55.6684 77.2504 55.741 77.2676C55.8135 77.2849 55.8765 77.3295 55.9168 77.3922C55.9509 77.4441 56.0008 77.4837 56.059 77.5052C56.1172 77.5268 56.1808 77.5291 56.2405 77.5119C56.3122 77.492 56.3889 77.5004 56.4547 77.5353C56.5204 77.5702 56.5703 77.629 56.5941 77.6996C56.6137 77.7563 56.6504 77.8056 56.6991 77.8406C56.7477 77.8757 56.8061 77.8948 56.8661 77.8954C56.9408 77.8945 57.0131 77.9222 57.0682 77.9727C57.1233 78.0233 57.157 78.0929 57.1626 78.1674C57.1641 78.2312 57.1868 78.2926 57.2272 78.3419C57.2677 78.3911 57.3234 78.4255 57.3856 78.4394C57.4582 78.4564 57.5215 78.5005 57.5625 78.5628C57.6035 78.625 57.619 78.7006 57.6059 78.774C57.5946 78.8348 57.6033 78.8977 57.6308 78.9531C57.6583 79.0085 57.703 79.0535 57.7582 79.0814C57.8237 79.1162 57.8736 79.1746 57.8978 79.2448C57.922 79.3149 57.9188 79.3916 57.8888 79.4594C57.8627 79.5158 57.8555 79.579 57.8682 79.6398C57.881 79.7006 57.913 79.7556 57.9595 79.7967C58.0146 79.8468 58.0487 79.916 58.0547 79.9902C58.0608 80.0644 58.0384 80.1382 57.9922 80.1966C57.9527 80.2442 57.9297 80.3034 57.9268 80.3652C57.9239 80.427 57.9411 80.4881 57.9758 80.5393C58.0164 80.6014 58.032 80.6767 58.0194 80.7499C58.0068 80.823 57.9669 80.8887 57.9078 80.9337C57.8576 80.9701 57.8205 81.022 57.8024 81.0814C57.7842 81.1408 57.7859 81.2045 57.8072 81.2628C57.8323 81.3329 57.8293 81.4099 57.7989 81.4779C57.7685 81.5458 57.713 81.5993 57.644 81.6273C57.5867 81.6508 57.5384 81.6919 57.5061 81.7448C57.4739 81.7976 57.4593 81.8593 57.4645 81.921C57.4708 81.9953 57.4483 82.0691 57.4017 82.1273C57.3552 82.1855 57.2881 82.2237 57.2142 82.2338C57.1531 82.2419 57.0961 82.2696 57.052 82.3128C57.0079 82.3559 56.9789 82.4122 56.9694 82.4732C56.9567 82.5468 56.9165 82.6128 56.8569 82.6577C56.7972 82.7027 56.7227 82.7233 56.6485 82.7153C56.5869 82.7087 56.5248 82.7217 56.4711 82.7524C56.4174 82.7832 56.3747 82.8302 56.3493 82.8866C56.3198 82.9548 56.2651 83.0088 56.1965 83.0372C56.128 83.0656 56.0511 83.0663 55.9821 83.039C55.9241 83.0171 55.8607 83.0142 55.801 83.0308C55.7413 83.0475 55.6885 83.0827 55.6502 83.1314C55.604 83.1901 55.537 83.2287 55.4631 83.2394C55.3892 83.25 55.314 83.2318 55.2531 83.1886C55.2033 83.1523 55.1433 83.1328 55.0818 83.1328C55.0202 83.1328 54.9602 83.1523 54.9104 83.1886C54.851 83.2342 54.7762 83.2551 54.7018 83.247C54.6273 83.2389 54.5588 83.2024 54.5106 83.145C54.4701 83.0984 54.4161 83.0657 54.356 83.0516C54.296 83.0374 54.233 83.0425 54.176 83.0662C54.108 83.0953 54.0313 83.0971 53.9619 83.0713C53.8926 83.0455 53.8358 82.994 53.8034 82.9274C53.7763 82.8718 53.7321 82.8262 53.6773 82.7973C53.6225 82.7685 53.56 82.7578 53.4987 82.767C53.4247 82.7775 53.3495 82.7595 53.2884 82.7165C53.2272 82.6736 53.1848 82.6089 53.1696 82.5358C53.1573 82.4754 53.1262 82.4205 53.0808 82.379C53.0353 82.3374 52.9778 82.3114 52.9166 82.3046C52.8406 82.3003 52.7694 82.2662 52.7184 82.2097C52.6674 82.1531 52.6409 82.0787 52.6446 82.0026C52.6479 81.9406 52.6311 81.8791 52.5969 81.8272C52.5626 81.7753 52.5126 81.7357 52.4542 81.7143C52.3844 81.6884 52.3272 81.6368 52.2943 81.57C52.2614 81.5032 52.2554 81.4264 52.2774 81.3553C52.2959 81.2965 52.295 81.2334 52.2749 81.1751C52.2548 81.1169 52.2166 81.0666 52.1659 81.0316C52.1048 80.9891 52.0623 80.9249 52.0471 80.852C52.032 80.7792 52.0453 80.7033 52.0843 80.6399C52.1164 80.5872 52.131 80.5257 52.1261 80.4642C52.1212 80.4027 52.0971 80.3442 52.0571 80.2972C52.0076 80.2414 51.9816 80.1686 51.9846 80.094C51.9877 80.0194 52.0195 79.9489 52.0734 79.8974C52.1184 79.8545 52.1484 79.7984 52.1592 79.7372C52.17 79.676 52.1609 79.613 52.1333 79.5574C52.0992 79.4908 52.0924 79.4135 52.1142 79.3419C52.136 79.2704 52.1848 79.2101 52.2502 79.1738C52.3037 79.1433 52.3461 79.0965 52.371 79.0402C52.396 78.984 52.4023 78.9212 52.389 78.861C52.3732 78.7879 52.3861 78.7116 52.4251 78.6478C52.4641 78.584 52.5261 78.5376 52.5984 78.5183C52.6586 78.502 52.7121 78.4668 52.7507 78.4178C52.7894 78.3688 52.8114 78.3087 52.8133 78.2463C52.818 78.1734 52.8501 78.105 52.903 78.0546C52.9559 78.0042 53.0258 77.9755 53.0989 77.9743C53.1603 77.9734 53.2199 77.9528 53.2688 77.9156C53.3177 77.8784 53.3535 77.8266 53.3709 77.7676C53.3918 77.6958 53.4399 77.635 53.5048 77.5979C53.5698 77.5609 53.6466 77.5505 53.719 77.569C53.7794 77.5832 53.8426 77.578 53.8998 77.5541C53.9569 77.5301 54.0051 77.4887 54.0373 77.4358C54.0749 77.3717 54.1359 77.3248 54.2075 77.3049C54.2791 77.2851 54.3556 77.294 54.4208 77.3297C54.4752 77.3591 54.5377 77.3702 54.5989 77.3614C54.6601 77.3525 54.7169 77.3243 54.7608 77.2807C54.8153 77.2295 54.8873 77.2009 54.9621 77.2009C55.0369 77.2009 55.1089 77.2295 55.1634 77.2807C55.2126 77.3255 55.2758 77.3518 55.3422 77.3553C55.4086 77.3587 55.4742 77.3391 55.5278 77.2998Z" fill="#EF233C"/>
<path opacity="0.2" d="M55.0391 82.7398C56.4241 82.7398 57.5469 81.617 57.5469 80.232C57.5469 78.8469 56.4241 77.7241 55.0391 77.7241C53.654 77.7241 52.5312 78.8469 52.5312 80.232C52.5312 81.617 53.654 82.7398 55.0391 82.7398Z" fill="white"/>
<path d="M55.1714 78.9861L55.4897 79.851L56.3791 80.0795L55.6556 80.648L55.7127 81.5646L54.9484 81.0506L54.0943 81.3906L54.3473 80.5038L53.7598 79.7966L54.6791 79.764L55.1714 78.9861Z" fill="#EF233C"/>
<path d="M66.1508 83.5888C67.4603 82.5348 67.6674 80.6188 66.6134 79.3093C65.5594 77.9998 63.6434 77.7927 62.3339 78.8467C61.0244 79.9007 60.8173 81.8167 61.8713 83.1262C62.9253 84.4357 64.8413 84.6428 66.1508 83.5888Z" fill="#EF233C"/>
<path opacity="0.2" d="M66.5194 81.4749C66.4705 81.9263 66.2888 82.3531 65.9973 82.7012C65.7058 83.0494 65.3177 83.3033 64.8819 83.4308C64.4461 83.5584 63.9823 83.5538 63.5491 83.4177C63.1159 83.2817 62.7328 83.0202 62.4482 82.6664C62.1636 82.3125 61.9904 81.8823 61.9503 81.43C61.9103 80.9777 62.0053 80.5237 62.2233 80.1254C62.4413 79.7271 62.7725 79.4024 63.1751 79.1923C63.5776 78.9823 64.0334 78.8963 64.4848 78.9453C65.0901 79.011 65.6444 79.3144 66.026 79.7888C66.4075 80.2632 66.585 80.8697 66.5194 81.4749Z" fill="white"/>
<g opacity="0.2">
<path d="M63.9546 83.8468C63.4364 83.7905 62.9465 83.5818 62.5469 83.2471C62.1473 82.9124 61.8559 82.4668 61.7095 81.9665C61.5632 81.4662 61.5685 80.9338 61.7247 80.4365C61.8809 79.9392 62.1811 79.4994 62.5873 79.1727C62.9935 78.846 63.4874 78.6471 64.0066 78.6011C64.5259 78.5551 65.0471 78.6641 65.5043 78.9143C65.9616 79.1645 66.3344 79.5447 66.5757 80.0068C66.8169 80.4688 66.9157 80.9921 66.8596 81.5103C66.8223 81.8545 66.7176 82.1879 66.5514 82.4916C66.3852 82.7953 66.1608 83.0633 65.8911 83.2803C65.6213 83.4973 65.3115 83.659 64.9792 83.7562C64.6469 83.8534 64.2988 83.8842 63.9546 83.8468ZM64.4986 78.7658C64.0116 78.7131 63.5199 78.806 63.0857 79.0329C62.6515 79.2597 62.2945 79.6103 62.0597 80.0403C61.8249 80.4702 61.7229 80.9601 61.7668 81.448C61.8106 81.9359 61.9982 82.3999 62.3058 82.7811C62.6135 83.1623 63.0273 83.4436 63.4949 83.5895C63.9626 83.7354 64.463 83.7392 64.9328 83.6005C65.4026 83.4619 65.8207 83.1869 66.1342 82.8104C66.4476 82.434 66.6423 81.973 66.6936 81.4858C66.7616 80.8352 66.5695 80.1842 66.1593 79.6746C65.7491 79.1651 65.1541 78.8384 64.504 78.7658H64.4986Z" fill="white"/>
</g>
<path d="M64.723 81.3307L64.3395 80.2999L63.7438 81.2274L62.7891 80.2183L63.0203 82.0325L63.5887 82.0923L64.0838 82.1467L64.1953 82.1603L64.6903 82.212L65.2588 82.2746L65.8708 80.5501L64.723 81.3307Z" fill="#EF233C"/>
<path d="M65.7303 54.6504L66.4021 54.0357L66.9461 54.0955L67.0495 53.3122L66.0648 53.0864C66.0648 53.0864 64.7048 52.8987 64.2207 52.896C64.0221 52.896 63.7909 52.896 63.2388 54.1118C63.1463 54.3294 65.7303 54.6504 65.7303 54.6504Z" fill="#EEC1BB"/>
<path d="M87.9352 56.364C88.074 56.0529 88.2483 55.759 88.4547 55.4881C88.6369 55.3276 90.2961 55.6948 90.5736 55.9206C90.851 56.1464 90.7177 56.6577 90.7177 56.6577C90.7177 56.6577 90.2553 57.3812 89.9398 57.3432C89.6243 57.3051 88.0222 57.2235 87.9352 57.1065C87.8481 56.9896 87.9352 56.364 87.9352 56.364Z" fill="#EEC1BB"/>
</svg>
