<svg width="132" height="132" viewBox="0 0 132 132" fill="none" xmlns="http://www.w3.org/2000/svg">
<g clip-path="url(#clip0_1787_9390)">
<path d="M20.5058 119.991C-4.62172 105.484 -4.62172 81.9747 20.5058 67.4547C45.6333 52.9347 86.3712 52.9347 111.496 67.4547C136.621 81.9747 136.624 105.471 111.496 119.991C86.3685 134.511 45.6307 134.497 20.5058 119.991Z" fill="#F5F5F5"/>
<path d="M33.6177 118.929L31.1519 117.506C31.1078 117.492 31.0693 117.464 31.042 117.427C31.0147 117.389 31 117.344 31 117.298C31 117.252 31.0147 117.206 31.042 117.169C31.0693 117.131 31.1078 117.104 31.1519 117.089L48.8901 106.849C48.9365 106.822 48.977 106.786 49.009 106.743C49.041 106.7 49.0639 106.651 49.0763 106.599C49.0886 106.547 49.0902 106.492 49.0809 106.44C49.0716 106.387 49.0516 106.336 49.0221 106.292C48.4684 105.422 48.2437 104.382 48.3885 103.361C48.6234 101.754 49.8009 100.265 51.7043 99.1664C53.7609 97.9784 56.4801 97.3184 59.3603 97.3184C62.2406 97.3184 64.9598 97.9704 67.0163 99.1664C69.1864 100.418 70.3823 102.123 70.3823 103.969C70.3823 105.814 69.189 107.519 67.0163 108.773C64.965 109.959 62.2485 110.621 59.3603 110.621C58.1988 110.625 57.0396 110.515 55.8993 110.294C55.6365 110.254 55.3678 110.297 55.131 110.418L52.367 112.002C52.1298 112.122 51.8606 112.162 51.5987 112.118L49.7349 111.696C49.473 111.652 49.2038 111.693 48.9666 111.812L48.4043 112.137C48.2986 112.206 48.2097 112.299 48.1439 112.407C48.0782 112.515 48.0373 112.636 48.0242 112.762L47.9634 114.138C47.9509 114.264 47.9102 114.386 47.8444 114.494C47.7786 114.602 47.6894 114.694 47.5833 114.763L46.8758 115.173C46.6333 115.301 46.3693 115.384 46.097 115.418L44.4496 115.563C44.1779 115.596 43.9142 115.676 43.6708 115.801L42.9923 116.181C42.8885 116.245 42.8045 116.337 42.7495 116.446C42.6946 116.555 42.6708 116.677 42.6808 116.799L42.723 117.126C42.7326 117.248 42.709 117.37 42.6546 117.479C42.6002 117.589 42.5171 117.681 42.4142 117.747L40.3655 118.929C40.1249 119.057 39.8587 119.128 39.5867 119.138H34.3965C34.1245 119.128 33.8583 119.057 33.6177 118.929ZM62.0769 101.299C61.472 101.287 60.8736 101.426 60.3371 101.706C60.0098 101.896 59.8091 102.126 59.8091 102.324C59.8091 102.522 60.0071 102.754 60.3371 102.944C60.8781 103.212 61.4734 103.351 62.0769 103.351C62.6803 103.351 63.2757 103.212 63.8166 102.944C64.144 102.754 64.3446 102.522 64.3446 102.324C64.3446 102.126 64.1466 101.896 63.8166 101.706C63.2802 101.426 62.6818 101.286 62.0769 101.299Z" fill="#E0E0E0"/>
<path d="M99.1697 108.831C111.056 108.831 120.691 103.269 120.691 96.4075C120.691 89.546 111.056 83.9836 99.1697 83.9836C87.2838 83.9836 77.6484 89.546 77.6484 96.4075C77.6484 103.269 87.2838 108.831 99.1697 108.831Z" fill="#E0E0E0"/>
<path d="M100.941 36.7856L100.035 35.4287C99.9968 35.3853 99.9428 35.3588 99.8849 35.3548C99.679 35.3587 99.4734 35.3383 99.2724 35.294C99.2678 35.2919 99.2629 35.2908 99.2579 35.2908C99.2528 35.2908 99.2479 35.2919 99.2433 35.294C99.2396 35.2969 99.2366 35.3005 99.2343 35.3046C99.232 35.3086 99.2306 35.3132 99.2301 35.3178L99.1113 36.5058C99.1109 36.54 99.1011 36.5733 99.083 36.6023C99.065 36.6313 99.0394 36.6548 99.0089 36.6703C98.9785 36.6858 98.9444 36.6927 98.9103 36.6902C98.8763 36.6877 98.8435 36.676 98.8157 36.6563L97.5933 35.9514C97.5404 35.9177 97.4955 35.8728 97.4618 35.8199C97.428 35.767 97.4062 35.7074 97.398 35.6452L97.2765 34.2856C97.2651 34.2147 97.2318 34.1492 97.1815 34.0981C96.936 33.8707 96.7058 33.6273 96.4925 33.3695C96.4765 33.3518 96.456 33.339 96.4331 33.3324C96.4102 33.3259 96.386 33.3259 96.3631 33.3325L95.5711 33.5965C95.5087 33.6175 95.441 33.6167 95.3791 33.5941C95.3172 33.5716 95.2648 33.5287 95.2305 33.4724L94.3329 31.9148C94.3013 31.8573 94.29 31.7908 94.3011 31.726C94.3121 31.6613 94.3447 31.6022 94.3937 31.5584L95.022 31.0304C95.0383 31.0131 95.05 30.9919 95.0559 30.9688C95.0619 30.9458 95.0621 30.9216 95.0563 30.8984C94.9382 30.5852 94.842 30.2641 94.7685 29.9375C94.7482 29.8683 94.7077 29.8068 94.6524 29.7606L93.5357 28.9686C93.4863 28.9301 93.4459 28.8814 93.4172 28.8258C93.3885 28.7702 93.3721 28.709 93.3693 28.6465V27.2341C93.3678 27.2004 93.375 27.1669 93.3903 27.1369C93.4056 27.1068 93.4284 27.0812 93.4565 27.0625C93.4858 27.0456 93.519 27.0367 93.5528 27.0367C93.5866 27.0367 93.6199 27.0456 93.6492 27.0625L94.7369 27.5536C94.7369 27.5536 94.7553 27.5536 94.7633 27.5536C94.7712 27.5536 94.7633 27.5536 94.7817 27.5298C94.8458 27.332 94.9345 27.1431 95.0457 26.9675C95.0573 26.9413 95.0633 26.913 95.0633 26.8843C95.0633 26.8557 95.0573 26.8274 95.0457 26.8012L94.3303 25.3439C94.3011 25.2842 94.2956 25.2158 94.3146 25.1521C94.3337 25.0885 94.3761 25.0345 94.4333 25.0007L95.2253 24.5466C95.283 24.514 95.3509 24.5043 95.4155 24.5194C95.4801 24.5346 95.5365 24.5735 95.5737 24.6284L96.4766 25.988C96.516 26.0318 96.571 26.0584 96.6297 26.062C96.8347 26.0579 97.0394 26.0783 97.2396 26.1227C97.2497 26.1268 97.2611 26.1268 97.2713 26.1227C97.2731 26.119 97.2741 26.1149 97.2741 26.1108C97.2741 26.1067 97.2731 26.1026 97.2713 26.0989L97.3927 24.9109C97.3932 24.8768 97.4029 24.8434 97.421 24.8144C97.439 24.7854 97.4647 24.7619 97.4951 24.7464C97.5255 24.7309 97.5596 24.724 97.5937 24.7265C97.6278 24.729 97.6605 24.7407 97.6884 24.7604L98.9107 25.4653C98.9634 25.4986 99.0082 25.5431 99.042 25.5955C99.0757 25.6479 99.0976 25.7071 99.1061 25.7689L99.2275 27.1285C99.2394 27.2 99.2725 27.2662 99.3225 27.3186C99.5681 27.546 99.7982 27.7894 100.012 28.0472C100.028 28.064 100.049 28.0762 100.071 28.0827C100.094 28.0891 100.118 28.0897 100.141 28.0842L100.933 27.8202C100.996 27.8004 101.063 27.8021 101.125 27.8251C101.187 27.848 101.239 27.8909 101.273 27.9469L102.171 29.5019C102.203 29.5598 102.214 29.6268 102.203 29.692C102.192 29.7572 102.16 29.8167 102.11 29.8609L101.479 30.3889C101.463 30.4061 101.451 30.4274 101.446 30.4506C101.44 30.4738 101.441 30.4981 101.448 30.5209C101.564 30.8338 101.66 31.1539 101.735 31.4792C101.755 31.549 101.795 31.6109 101.852 31.6561L102.966 32.4481C103.016 32.4862 103.057 32.5348 103.086 32.5904C103.115 32.6461 103.132 32.7074 103.135 32.7702V34.18C103.136 34.214 103.129 34.2478 103.113 34.2782C103.098 34.3086 103.076 34.3348 103.048 34.3542C103.018 34.3699 102.985 34.3781 102.951 34.3781C102.918 34.3781 102.885 34.3699 102.855 34.3542L101.767 33.8632C101.763 33.8613 101.759 33.8603 101.754 33.8603C101.749 33.8603 101.745 33.8613 101.741 33.8632C101.736 33.866 101.732 33.8699 101.729 33.8744C101.726 33.8789 101.723 33.8841 101.722 33.8896C101.657 34.086 101.568 34.274 101.458 34.4492C101.447 34.4759 101.441 34.5047 101.441 34.5337C101.441 34.5628 101.447 34.5916 101.458 34.6182L102.182 36.0781C102.211 36.1378 102.216 36.2063 102.197 36.2699C102.178 36.3335 102.136 36.3876 102.079 36.4213L101.287 36.8754C101.247 36.8978 101.203 36.9096 101.157 36.9097C101.114 36.9085 101.071 36.8965 101.034 36.8749C100.996 36.8532 100.964 36.8226 100.941 36.7856ZM101.846 33.6757L102.931 34.1668V32.757C102.929 32.7264 102.921 32.6967 102.907 32.6694C102.893 32.6422 102.873 32.6181 102.85 32.5986L101.733 31.8066C101.637 31.7326 101.568 31.6285 101.537 31.5109C101.465 31.1935 101.372 30.8813 101.258 30.5764C101.237 30.5154 101.235 30.4499 101.251 30.3876C101.267 30.3254 101.3 30.269 101.347 30.2252L101.978 29.6814C101.992 29.6676 102 29.65 102.003 29.6311C102.006 29.6122 102.003 29.5929 101.994 29.5758L101.097 28.0208C101.086 28.0047 101.071 27.9925 101.053 27.9858C101.035 27.9791 101.015 27.9785 100.996 27.9839L100.204 28.2479C100.143 28.2675 100.077 28.2688 100.014 28.2514C99.9518 28.2341 99.8959 28.1989 99.8532 28.1502C99.6469 27.8994 99.4238 27.663 99.1853 27.4427C99.0984 27.3568 99.0427 27.2444 99.0269 27.1232L98.9028 25.7636C98.8979 25.7335 98.8869 25.7046 98.8706 25.6787C98.8543 25.6528 98.8329 25.6306 98.8077 25.6132L97.5881 24.9083L97.4693 26.0936C97.4663 26.1266 97.4563 26.1585 97.4399 26.1872C97.4235 26.2159 97.4011 26.2407 97.3742 26.26C97.3469 26.2791 97.3159 26.2923 97.2831 26.2987C97.2504 26.3051 97.2166 26.3045 97.1841 26.2969C96.9997 26.2549 96.8109 26.2354 96.6218 26.2388C96.5587 26.24 96.4963 26.226 96.4398 26.198C96.3833 26.1699 96.3343 26.1287 96.2971 26.0778L95.3942 24.7182C95.3852 24.7057 95.3719 24.6969 95.3568 24.6935C95.3417 24.6901 95.3259 24.6923 95.3124 24.6997L94.5204 25.1538C94.5065 25.1616 94.4961 25.1744 94.4912 25.1896C94.4863 25.2047 94.4873 25.2212 94.494 25.2356L95.22 26.6956C95.2447 26.7534 95.2556 26.8161 95.2519 26.8789C95.2483 26.9416 95.2301 27.0027 95.1989 27.0572C95.0997 27.2229 95.0217 27.4002 94.9665 27.5852C94.9566 27.6169 94.9402 27.6461 94.9184 27.6711C94.8966 27.6961 94.8698 27.7163 94.8398 27.7304C94.81 27.7442 94.7776 27.7513 94.7448 27.7513C94.712 27.7513 94.6795 27.7442 94.6497 27.7304L93.5647 27.2394V28.6518C93.5672 28.6823 93.5758 28.712 93.5898 28.7392C93.6039 28.7664 93.6231 28.7905 93.6465 28.8102L94.7633 29.6022C94.8592 29.6777 94.9278 29.7824 94.9586 29.9005C95.0302 30.2179 95.1228 30.5301 95.2358 30.8351C95.2574 30.8957 95.2607 30.9613 95.2452 31.0238C95.2297 31.0862 95.1961 31.1427 95.1487 31.1862L94.5177 31.7274C94.5042 31.7415 94.4951 31.7594 94.4918 31.7787C94.4886 31.798 94.4911 31.8178 94.4993 31.8356L95.3995 33.3906C95.41 33.4067 95.4255 33.419 95.4436 33.4256C95.4616 33.4323 95.4813 33.433 95.4998 33.4276L96.2918 33.1636C96.3534 33.1451 96.419 33.1448 96.4808 33.1625C96.5426 33.1803 96.5979 33.2155 96.6403 33.2639C96.8482 33.5141 97.0722 33.7504 97.3109 33.9714C97.3966 34.0581 97.4521 34.1701 97.4693 34.2908L97.5907 35.6478C97.5959 35.6782 97.6073 35.7072 97.624 35.7331C97.6408 35.759 97.6627 35.7812 97.6884 35.7983L98.9081 36.5058L99.0269 35.3178C99.0298 35.2855 99.0396 35.2543 99.0555 35.2261C99.0715 35.1979 99.0932 35.1733 99.1193 35.1541C99.1468 35.1344 99.1783 35.1209 99.2116 35.1146C99.2448 35.1082 99.2791 35.1091 99.312 35.1172C99.4964 35.1593 99.6852 35.1788 99.8743 35.1752C99.937 35.1738 99.9992 35.1878 100.055 35.2158C100.111 35.2439 100.16 35.2853 100.196 35.3363L101.099 36.6932C101.108 36.7064 101.122 36.7158 101.138 36.7197C101.153 36.7236 101.169 36.7217 101.184 36.7144L101.976 36.2603C101.989 36.252 101.999 36.2391 102.003 36.224C102.008 36.2088 102.006 36.1926 101.999 36.1784L101.276 34.7159C101.251 34.6587 101.24 34.5963 101.243 34.5338C101.247 34.4714 101.265 34.4107 101.297 34.3568C101.395 34.1907 101.473 34.0134 101.53 33.8288C101.539 33.7966 101.555 33.7668 101.577 33.7413C101.599 33.7159 101.626 33.6953 101.656 33.681C101.685 33.6683 101.717 33.662 101.749 33.6625C101.782 33.6608 101.815 33.6652 101.846 33.6757ZM98.2032 33.1741C97.0389 32.5009 96.0912 30.8588 96.0912 29.5124C96.0912 28.8392 96.3235 28.3324 96.7459 28.0895C97.1683 27.8466 97.7201 27.8968 98.3035 28.2347C99.4704 28.9079 100.415 30.55 100.415 31.8964C100.415 32.5696 100.183 33.0738 99.7608 33.3167C99.5827 33.4195 99.3803 33.4724 99.1747 33.4698C98.8326 33.4555 98.4999 33.3537 98.2085 33.1741H98.2032ZM96.8436 28.2637C96.4872 28.4696 96.2892 28.9132 96.2892 29.5124C96.328 30.211 96.5305 30.8906 96.8804 31.4964C97.2304 32.1022 97.7178 32.6172 98.3035 32.9999C98.8315 33.3008 99.3067 33.351 99.6631 33.1451C100.019 32.9392 100.217 32.4956 100.217 31.8964C100.18 31.1978 99.9784 30.5179 99.6294 29.9116C99.2804 29.3053 98.7936 28.7896 98.2085 28.4063C97.9457 28.2447 97.6456 28.1537 97.3373 28.1423C97.1648 28.1378 96.9943 28.1798 96.8436 28.2637Z" fill="#EBEBEB"/>
<path d="M91.0809 35.0537L91.638 35.7718C91.7059 35.8651 91.7453 35.976 91.7515 36.0912C91.75 36.2323 91.7561 36.3733 91.77 36.5136C91.7727 36.5357 91.7705 36.5581 91.7637 36.5792C91.7569 36.6004 91.7456 36.6198 91.7305 36.6361C91.7154 36.6524 91.697 36.6653 91.6764 36.6738C91.6559 36.6822 91.6338 36.6862 91.6116 36.6852H91.2129C91.1914 36.6836 91.1698 36.6875 91.1503 36.6966C91.1307 36.7057 91.1137 36.7196 91.1011 36.7371C91.0884 36.7545 91.0803 36.7749 91.0777 36.7963C91.0751 36.8178 91.0781 36.8395 91.0862 36.8595L91.3924 37.8336C91.4139 37.8871 91.4464 37.9354 91.4878 37.9754C91.5292 38.0155 91.5785 38.0463 91.6327 38.0659L92.0947 38.2085C92.2069 38.2504 92.3004 38.3309 92.3587 38.4355C92.4432 38.6019 92.5356 38.7655 92.6227 38.9239C92.682 39.0192 92.7062 39.1322 92.6913 39.2434L92.5593 39.8057C92.5527 39.8638 92.5587 39.9227 92.577 39.9783C92.5952 40.0339 92.6252 40.0849 92.6649 40.1278L93.3064 40.8564C93.3777 40.9383 93.4728 40.9462 93.515 40.8723L93.7473 40.4736C93.7896 40.3997 93.8952 40.3997 93.9849 40.4736C94.0754 40.5416 94.1697 40.6041 94.2674 40.6611C94.372 40.7239 94.4563 40.8156 94.5103 40.9251L94.8482 41.8095C94.8721 41.8622 94.9087 41.9082 94.9548 41.9432C95.0009 41.9782 95.055 42.0012 95.1122 42.0101L95.6032 42.0867C95.7062 42.1051 95.7722 42.0391 95.7484 41.9441L95.5399 41.0914C95.5296 41.0459 95.5352 40.9982 95.5559 40.9564C95.5766 40.9146 95.611 40.8812 95.6534 40.8617C95.7033 40.8377 95.751 40.8094 95.796 40.7772C95.8373 40.7509 95.8869 40.7403 95.9354 40.7476C95.9839 40.7549 96.0281 40.7795 96.06 40.8168L96.6381 41.3923C96.7173 41.4715 96.8071 41.4715 96.8361 41.3923L97.0447 40.8485C97.0577 40.7964 97.0587 40.742 97.0478 40.6895C97.0368 40.6369 97.0141 40.5875 96.9813 40.5449L96.4243 39.8295C96.3551 39.7357 96.3147 39.6238 96.3081 39.5074C96.311 39.3672 96.3048 39.227 96.2896 39.0876C96.2869 39.0653 96.2891 39.0427 96.296 39.0214C96.303 39 96.3146 38.9805 96.33 38.9641C96.3453 38.9477 96.3641 38.9349 96.385 38.9266C96.4058 38.9183 96.4283 38.9147 96.4507 38.916H96.8414C96.8631 38.9181 96.885 38.9146 96.905 38.9057C96.9249 38.8968 96.9423 38.883 96.9553 38.8654C96.9683 38.8479 96.9766 38.8273 96.9793 38.8056C96.982 38.784 96.9791 38.762 96.9708 38.7418L96.6619 37.7518C96.6406 37.6981 96.6078 37.6497 96.5659 37.6101C96.5239 37.5704 96.4738 37.5404 96.419 37.5221L95.957 37.3795C95.8459 37.3359 95.7528 37.2559 95.693 37.1525C95.6085 36.9862 95.5188 36.8225 95.429 36.6615C95.3719 36.5663 95.3478 36.4549 95.3604 36.3447L95.4924 35.7823C95.4986 35.7275 95.4934 35.672 95.477 35.6193C95.4606 35.5665 95.4335 35.5178 95.3973 35.4761L94.7558 34.7475C94.6819 34.663 94.5895 34.6577 94.5446 34.7316L94.3149 35.1276C94.2727 35.2015 94.1671 35.2042 94.0747 35.1276C93.9851 35.0606 93.8917 34.9989 93.7948 34.9428C93.6896 34.8799 93.6045 34.7883 93.5493 34.6788L93.1929 33.7918C93.1684 33.7392 93.1317 33.6933 93.0857 33.6579C93.0398 33.6226 92.986 33.5987 92.9289 33.5885L92.4379 33.5119C92.3349 33.4961 92.2689 33.5595 92.2927 33.6545L92.5012 34.5099C92.5097 34.5553 92.5032 34.6022 92.4827 34.6436C92.4622 34.685 92.4289 34.7187 92.3877 34.7395C92.3374 34.7626 92.2896 34.791 92.2452 34.824C92.2032 34.849 92.1538 34.8585 92.1055 34.8508C92.0573 34.8431 92.0133 34.8186 91.9812 34.7818L91.403 34.2063C91.3238 34.1271 91.234 34.1297 91.2024 34.2063L90.9938 34.7527C90.9842 34.8062 90.9871 34.8612 91.0022 34.9134C91.0173 34.9656 91.0443 35.0136 91.0809 35.0537ZM92.7732 36.3605C93.0187 35.719 93.7816 35.8325 94.476 36.6245C95.1703 37.4165 95.532 38.5755 95.2891 39.217C95.0462 39.8585 94.2806 39.745 93.5863 38.953C92.892 38.161 92.5224 37.002 92.7679 36.3605H92.7732Z" fill="#EBEBEB"/>
<path d="M61.1943 81.4993C58.8183 82.1646 56.9386 86.5417 56.928 90.7789C56.9046 92.9885 57.0653 95.1961 57.4085 97.3789L58.5358 98.031L58.8605 98.2185L59.9931 98.8705L60.69 99.2745C60.4459 97.5415 60.4459 95.7829 60.69 94.0499C60.8333 93.0849 61.0876 92.1397 61.4477 91.233C62.1552 89.4484 63.2957 87.6611 63.7392 86.4335C64.8401 83.3764 63.4171 80.8789 61.1943 81.4993Z" fill="#EF233C"/>
<g opacity="0.65">
<path d="M61.1943 81.4993C58.8183 82.1646 56.9386 86.5417 56.928 90.7789C56.9046 92.9885 57.0653 95.1961 57.4085 97.3789L58.5358 98.031L58.8605 98.2185L59.9931 98.8705L60.69 99.2745C60.4459 97.5415 60.4459 95.7829 60.69 94.0499C60.8333 93.0849 61.0876 92.1397 61.4477 91.233C62.1552 89.4484 63.2957 87.6611 63.7392 86.4335C64.8401 83.3764 63.4171 80.8789 61.1943 81.4993Z" fill="white"/>
</g>
<path d="M61.9762 83.1177C59.6002 85.792 57.8288 91.8297 58.861 98.2238L58.5363 98.0363C57.5701 91.6211 59.3626 85.6046 61.7571 82.9197C61.7839 82.8928 61.82 82.8773 61.858 82.8763C61.8959 82.8753 61.9328 82.8889 61.9609 82.9144C61.9891 82.9398 62.0064 82.9751 62.0092 83.013C62.0121 83.0508 62.0003 83.0883 61.9762 83.1177Z" fill="white"/>
<path d="M64.151 89.0947C63.623 89.3587 62.3743 90.4754 61.973 91.1882C61.4485 92.0995 61.0118 93.0587 60.6688 94.0526C60.1465 95.6039 59.9138 97.2379 59.9825 98.8733L60.6794 99.2772L61.0041 99.4646L61.2998 99.6336L62.4588 100.302C62.7096 99.221 63.0908 98.1749 63.594 97.1863C64.9562 94.4909 67.4668 92.5082 67.6569 91.0008C67.8945 89.1898 66.527 87.8698 64.151 89.0947Z" fill="#EF233C"/>
<path opacity="0.3" d="M64.151 89.0947C63.623 89.3587 62.3743 90.4754 61.973 91.1882C61.4485 92.0995 61.0118 93.0587 60.6688 94.0526C60.1465 95.6039 59.9138 97.2379 59.9825 98.8733L60.6794 99.2772L61.0041 99.4646L61.2998 99.6336L62.4588 100.302C62.7096 99.221 63.0908 98.1749 63.594 97.1863C64.9562 94.4909 67.4668 92.5082 67.6569 91.0008C67.8945 89.1898 66.527 87.8698 64.151 89.0947Z" fill="white"/>
<path d="M65.5617 90.7447C64.0437 91.7558 61.4961 94.7892 61.3113 99.6362L61.0156 99.4672C61.2321 94.6176 63.7375 91.6053 65.398 90.4912C65.4141 90.479 65.4325 90.4702 65.4521 90.4653C65.4717 90.4604 65.4921 90.4596 65.5121 90.463C65.532 90.4663 65.551 90.4737 65.568 90.4846C65.585 90.4956 65.5995 90.51 65.6107 90.5268C65.6219 90.5436 65.6296 90.5625 65.6332 90.5824C65.6368 90.6023 65.6363 90.6227 65.6317 90.6424C65.6271 90.6621 65.6185 90.6806 65.6065 90.6968C65.5944 90.7131 65.5792 90.7267 65.5617 90.7368V90.7447Z" fill="white"/>
<path d="M13.5826 101.79C13.5082 101.791 13.4351 101.771 13.3714 101.732C13.3067 101.696 13.2529 101.643 13.2157 101.579C13.1785 101.515 13.1593 101.442 13.1602 101.368V84.0258C13.168 83.8514 13.2176 83.6815 13.3049 83.5303C13.3922 83.3791 13.5146 83.2512 13.6618 83.1573L18.7702 80.2084C18.8509 80.1566 18.9441 80.1278 19.0399 80.125C19.1357 80.1222 19.2305 80.1456 19.314 80.1925C19.3779 80.2283 19.4341 80.2764 19.4794 80.3339C19.5247 80.3914 19.5582 80.4573 19.578 80.5278L19.9899 81.9033C19.9977 81.9344 20.0124 81.9634 20.033 81.9881C20.0536 82.0128 20.0794 82.0325 20.1087 82.0458C20.1387 82.0567 20.1709 82.0601 20.2026 82.056C20.2343 82.0519 20.2645 82.0402 20.2908 82.0221L31.3577 75.6359C31.42 75.5943 31.4913 75.5683 31.5657 75.56C31.6402 75.5517 31.7155 75.5615 31.7854 75.5884L31.8408 75.6174C31.9048 75.6639 31.956 75.7258 31.9897 75.7973C32.0233 75.8688 32.0384 75.9477 32.0335 76.0266V90.6232C32.0253 90.7975 31.9755 90.9673 31.8883 91.1184C31.801 91.2695 31.6788 91.3975 31.5319 91.4917L13.7938 101.732C13.7299 101.77 13.6569 101.79 13.5826 101.79ZM19.0606 80.475C19.0194 80.4756 18.9793 80.4875 18.9444 80.5093L13.836 83.4556C13.741 83.5191 13.6623 83.6041 13.6063 83.7037C13.5467 83.801 13.5131 83.9119 13.5087 84.0258V101.376C13.5085 101.389 13.5119 101.402 13.5184 101.413C13.5249 101.424 13.5343 101.433 13.5456 101.439C13.5568 101.446 13.5696 101.45 13.5826 101.45C13.5956 101.45 13.6084 101.446 13.6195 101.439L31.3551 91.1961C31.449 91.1324 31.5273 91.0482 31.584 90.9499C31.6407 90.8516 31.6744 90.7417 31.6824 90.6285V76.0319C31.6871 75.9918 31.6767 75.9513 31.6534 75.9184L31.6323 75.9052C31.5947 75.9092 31.5585 75.9219 31.5267 75.9421L20.4624 82.323C20.3906 82.3665 20.3099 82.3934 20.2263 82.4016C20.1427 82.4098 20.0583 82.3992 19.9793 82.3705C19.901 82.3384 19.8311 82.2885 19.7752 82.2248C19.7194 82.1612 19.679 82.0854 19.6572 82.0036L19.2427 80.6281C19.2292 80.5736 19.1951 80.5263 19.1477 80.4961C19.1212 80.4811 19.091 80.4738 19.0606 80.475Z" fill="#EF233C"/>
<path d="M37.4171 94.4591L37.2825 94.3826L37.1267 94.2928L36.9894 94.2136C36.877 94.1395 36.7805 94.0436 36.7057 93.9317C36.6308 93.8197 36.5792 93.6938 36.5538 93.5615L34.7058 79.6065C34.701 79.5131 34.6746 79.4221 34.6288 79.3406C34.583 79.2591 34.5191 79.1893 34.4418 79.1366L34.2042 78.9993C34.1107 78.9522 34.0063 78.9311 33.9018 78.9381C33.7974 78.945 33.6967 78.9799 33.6102 79.0389L24.0244 84.4799C23.9158 84.5426 23.795 84.5812 23.6702 84.593C23.5454 84.6048 23.4195 84.5897 23.301 84.5486C23.2294 84.4854 23.1679 84.4115 23.1189 84.3295L22.81 83.8015C22.7338 83.6685 22.6235 83.5583 22.4906 83.482L22.253 83.3447C22.12 83.2683 21.9694 83.2281 21.816 83.2281C21.6627 83.2281 21.512 83.2683 21.3791 83.3447L16.9756 85.8897C16.7584 86.0302 16.5838 86.2275 16.4707 86.4602C16.3577 86.6929 16.3104 86.9521 16.3341 87.2097L18.5543 103.871C18.5818 104.035 18.6429 104.192 18.7337 104.331C18.8246 104.471 18.9433 104.59 19.0823 104.681L19.51 104.929C19.5902 104.977 19.6808 105.004 19.774 105.009C19.8496 105.011 19.9245 104.993 19.9905 104.956L37.6785 94.4987C37.6353 94.5157 37.5884 94.521 37.5425 94.514C37.4966 94.5071 37.4534 94.4881 37.4171 94.4591Z" fill="#EF233C"/>
<path opacity="0.25" d="M37.4166 94.4592L36.9916 94.2137C36.8784 94.1401 36.7813 94.0444 36.706 93.9323C36.6307 93.8203 36.5788 93.6942 36.5533 93.5616L34.7053 79.6066C34.705 79.5054 34.6764 79.4062 34.6227 79.3204C34.5691 79.2345 34.4926 79.1654 34.4018 79.1206C34.311 79.0759 34.2095 79.0574 34.1087 79.0673C34.008 79.0771 33.912 79.1148 33.8315 79.1763L24.3275 84.6569C24.1265 84.7728 23.8877 84.8043 23.6635 84.7444C23.4393 84.6845 23.248 84.5382 23.1316 84.3375L22.8227 83.8095C22.7653 83.7098 22.6888 83.6225 22.5975 83.5525C22.5063 83.4825 22.4022 83.4312 22.2911 83.4015C22.18 83.3718 22.0641 83.3643 21.9501 83.3795C21.8361 83.3947 21.7262 83.4323 21.6268 83.49L17.2127 86.0376C16.9978 86.1767 16.8247 86.3714 16.7117 86.601C16.5987 86.8307 16.5502 87.0867 16.5712 87.3418L18.7703 103.839C18.7954 103.972 18.8468 104.098 18.9217 104.211C18.9965 104.323 19.0931 104.419 19.2059 104.494L19.6336 104.739C19.6713 104.767 19.7157 104.784 19.762 104.788C19.8084 104.793 19.8552 104.785 19.8976 104.766L37.6859 94.4962C37.6419 94.515 37.5936 94.5215 37.5461 94.515C37.4987 94.5085 37.4539 94.4892 37.4166 94.4592Z" fill="black"/>
<path opacity="0.25" d="M19.203 104.483L19.6307 104.729C19.6684 104.756 19.7127 104.773 19.7591 104.778C19.8055 104.782 19.8522 104.775 19.8947 104.755L37.683 94.4856C37.6406 94.5049 37.5938 94.5127 37.5474 94.508C37.5011 94.5034 37.4567 94.4865 37.419 94.4592L36.9939 94.2137C36.8811 94.1425 36.7848 94.048 36.7115 93.9365L18.9258 104.206C18.9975 104.317 19.092 104.412 19.203 104.483Z" fill="black"/>
<path d="M19.3066 88.6353V103.118C19.3087 103.153 19.3188 103.186 19.3362 103.216C19.3537 103.246 19.3779 103.271 19.407 103.29L19.5178 103.356C19.5485 103.371 19.5824 103.38 19.6168 103.38C19.6512 103.38 19.6852 103.371 19.7158 103.356L35.7618 94.0895C35.7908 94.0708 35.8151 94.0456 35.8325 94.0157C35.8499 93.9859 35.8601 93.9524 35.8621 93.9179V79.4349C35.8601 79.4004 35.8499 79.3669 35.8325 79.337C35.8151 79.3072 35.7908 79.2819 35.7618 79.2633L35.6403 79.1999C35.6096 79.1844 35.5757 79.1763 35.5413 79.1763C35.5069 79.1763 35.473 79.1844 35.4423 79.1999L19.407 88.4637C19.3779 88.4823 19.3537 88.5076 19.3362 88.5374C19.3188 88.5673 19.3087 88.6008 19.3066 88.6353Z" fill="#FAFAFA"/>
<path d="M35.859 79.4085C35.8602 79.3971 35.8602 79.3856 35.859 79.3741V79.3557C35.8516 79.3372 35.8409 79.3202 35.8273 79.3055C35.82 79.2946 35.8111 79.2848 35.8009 79.2765L35.7798 79.2633L35.6399 79.1999C35.6092 79.1844 35.5753 79.1763 35.5409 79.1763C35.5065 79.1763 35.4726 79.1844 35.4419 79.1999L19.4065 88.4637C19.3773 88.4816 19.3536 88.5071 19.3379 88.5376L19.6468 88.7171C19.6632 88.6872 19.6868 88.6618 19.7154 88.6432L35.7613 79.3794C35.8089 79.3504 35.8485 79.3662 35.859 79.4085Z" fill="#E0E0E0"/>
<path d="M19.6888 103.366C19.6465 103.366 19.6175 103.351 19.6175 103.298V88.8148C19.6181 88.7802 19.6281 88.7464 19.6465 88.7171L19.3376 88.5376C19.3184 88.5665 19.3083 88.6005 19.3086 88.6353V103.118C19.3094 103.153 19.3188 103.186 19.3358 103.216C19.3529 103.246 19.3771 103.272 19.4063 103.29L19.5172 103.356C19.5708 103.382 19.6324 103.386 19.6888 103.366Z" fill="#E0E0E0"/>
<g opacity="0.1">
<path d="M19.6888 103.366C19.6465 103.366 19.6175 103.351 19.6175 103.298V88.8148C19.6181 88.7802 19.6281 88.7464 19.6465 88.7171L19.3376 88.5376C19.3184 88.5665 19.3083 88.6005 19.3086 88.6353V103.118C19.3094 103.153 19.3188 103.186 19.3358 103.216C19.3529 103.246 19.3771 103.272 19.4063 103.29L19.5172 103.356C19.5708 103.382 19.6324 103.386 19.6888 103.366Z" fill="black"/>
</g>
<path d="M38.0168 80.6176C38.0268 80.5238 38.0115 80.429 37.9725 80.3431C37.9335 80.2572 37.8722 80.1833 37.795 80.1292L37.5759 80.0024C37.491 79.9639 37.3975 79.9484 37.3048 79.9577C37.212 79.967 37.1234 80.0006 37.0479 80.0552L20.7696 89.4484C20.5482 89.593 20.364 89.788 20.2324 90.0174C20.1007 90.2468 20.0251 90.5042 20.012 90.7684V104.515C20.0169 104.562 20.009 104.61 19.989 104.653C19.969 104.696 19.9377 104.733 19.8984 104.76L20.0067 104.948L37.9032 94.6175C37.9421 94.5903 37.9728 94.5531 37.9923 94.5099C38.0119 94.4667 38.0194 94.4191 38.0141 94.372L38.0168 80.6176Z" fill="#EF233C"/>
<path opacity="0.25" d="M20.0059 104.942C20.0783 104.897 20.137 104.833 20.1756 104.756C20.2142 104.68 20.2313 104.595 20.225 104.51V90.8871C20.2388 90.6231 20.3146 90.366 20.4462 90.1367C20.5778 89.9073 20.7616 89.7122 20.9827 89.5671L37.253 80.174C37.6727 79.9338 38.0133 80.1291 38.0133 80.6122V94.3614C38.0186 94.4085 38.011 94.4561 37.9915 94.4993C37.972 94.5425 37.9412 94.5797 37.9024 94.6069L20.0059 104.942Z" fill="white"/>
<path d="M32.8418 92.2838L31.0387 90.7579C30.9225 90.6602 30.7298 90.7579 30.611 90.9982L29.9563 92.2548C29.8401 92.4792 29.6527 92.5874 29.5365 92.5003L28.0001 91.344C27.8839 91.2542 27.6938 91.3651 27.5777 91.5869L25.1753 96.2095V97.7935L32.8313 93.3689L32.8418 92.2838ZM31.9257 89.7019C32.1363 89.5516 32.3085 89.3537 32.4282 89.1244C32.5479 88.895 32.6118 88.6406 32.6148 88.3819C32.6148 87.875 32.3085 87.6401 31.9257 87.8539C31.7158 88.0047 31.5443 88.2027 31.425 88.432C31.3058 88.6613 31.2422 88.9155 31.2393 89.1739C31.2393 89.6887 31.5456 89.921 31.9257 89.7019ZM33.7157 84.9684L24.3041 90.4068C24.1724 90.5012 24.0646 90.6251 23.9895 90.7686C23.9143 90.912 23.8737 91.0711 23.8711 91.2331V99.726C23.8711 100.043 24.0665 100.191 24.3041 100.053L33.7157 94.6123C33.847 94.5178 33.9543 94.3938 34.0291 94.2503C34.1038 94.1068 34.1438 93.9478 34.146 93.786V85.2931C34.146 84.9763 33.9533 84.8285 33.7157 84.9684ZM33.3883 93.7358L24.6314 98.7994V91.2833L33.3883 86.2198V93.7358Z" fill="white"/>
<path d="M13.5826 71.4596C13.5083 71.4587 13.4356 71.4387 13.3714 71.4015C13.307 71.365 13.2535 71.312 13.2164 71.2479C13.1793 71.1839 13.1599 71.1112 13.1602 71.0372V53.6924C13.1655 53.5181 13.2155 53.3481 13.3054 53.1987C13.3907 53.0464 13.5133 52.9183 13.6618 52.8264L18.7702 49.8776C18.8506 49.8254 18.9437 49.7961 19.0395 49.7929C19.1353 49.7896 19.2302 49.8125 19.314 49.8591C19.4424 49.932 19.5372 50.0524 19.578 50.1944L19.9898 51.5724C19.9977 51.6036 20.0124 51.6326 20.033 51.6573C20.0535 51.682 20.0794 51.7017 20.1086 51.715C20.1388 51.7252 20.1709 51.7284 20.2025 51.7243C20.2341 51.7201 20.2643 51.7089 20.2908 51.6912L31.3577 45.3051C31.4197 45.2629 31.4911 45.2364 31.5656 45.2282C31.6402 45.2199 31.7156 45.23 31.7854 45.2576L31.8408 45.2866C31.9047 45.3325 31.9559 45.3939 31.9897 45.465C32.0234 45.5361 32.0385 45.6146 32.0335 45.6932V60.2897C32.026 60.4642 31.9764 60.6342 31.8891 60.7854C31.8018 60.9367 31.6792 61.0646 31.5319 61.1583L13.7964 71.4015C13.7313 71.4388 13.6576 71.4588 13.5826 71.4596ZM19.0606 50.1416C19.0192 50.1432 18.9791 50.156 18.9444 50.1785L13.836 53.1248C13.741 53.1883 13.6623 53.2733 13.6063 53.3729C13.5467 53.4692 13.513 53.5792 13.5086 53.6924V71.0372C13.5088 71.0501 13.5123 71.0627 13.5188 71.0739C13.5253 71.085 13.5347 71.0943 13.5459 71.1007C13.5571 71.1071 13.5698 71.1105 13.5827 71.1104C13.5956 71.1104 13.6083 71.107 13.6195 71.1005L31.355 60.86C31.4491 60.7958 31.5274 60.7111 31.5841 60.6124C31.6407 60.5136 31.6744 60.4033 31.6824 60.2897V45.6932C31.6866 45.6531 31.6763 45.6128 31.6534 45.5796H31.6322C31.5947 45.5837 31.5585 45.5963 31.5266 45.6166L20.4624 51.9922C20.3905 52.0357 20.3098 52.0626 20.2262 52.0708C20.1426 52.079 20.0582 52.0684 19.9793 52.0397C19.9013 52.007 19.8317 51.957 19.7759 51.8934C19.7201 51.8298 19.6795 51.7544 19.6572 51.6728L19.2427 50.2947C19.229 50.2409 19.195 50.1945 19.1477 50.1653C19.1214 50.1495 19.0912 50.1413 19.0606 50.1416Z" fill="#EF233C"/>
<path d="M37.4159 64.181L37.2813 64.1018L37.1255 64.012L36.9883 63.9328C36.8756 63.859 36.7789 63.7632 36.7041 63.6511C36.6293 63.5391 36.5778 63.4131 36.5527 63.2808L34.7047 49.3257C34.6996 49.2324 34.6732 49.1415 34.6274 49.06C34.5816 48.9785 34.5177 48.9087 34.4407 48.8558L34.2031 48.7185C34.1095 48.6713 34.0048 48.6503 33.9002 48.6577C33.7957 48.6651 33.695 48.7008 33.6091 48.7608L24.0232 54.2097C23.9146 54.2724 23.7938 54.3109 23.669 54.3228C23.5442 54.3346 23.4183 54.3195 23.2999 54.2784C23.2281 54.2142 23.1667 54.1394 23.1177 54.0566L22.8088 53.5286C22.7334 53.395 22.623 53.2846 22.4894 53.2092L22.2518 53.0719C22.1202 52.9952 21.9709 52.9541 21.8186 52.9528C21.6662 52.9514 21.5162 52.9897 21.3832 53.064L16.9744 55.6116C16.7595 55.7506 16.5864 55.9453 16.4734 56.175C16.3605 56.4046 16.3119 56.6606 16.3329 56.9157L18.5531 73.5794C18.5809 73.7435 18.6421 73.9001 18.733 74.0395C18.8238 74.1789 18.9423 74.2982 19.0811 74.3899L19.5088 74.6354C19.5887 74.684 19.6794 74.7121 19.7728 74.7172C19.8485 74.7199 19.9234 74.7016 19.9893 74.6644L37.6773 64.2074C37.6352 64.2262 37.589 64.2336 37.5431 64.229C37.4973 64.2244 37.4534 64.2078 37.4159 64.181Z" fill="#EF233C"/>
<path opacity="0.25" d="M37.4165 64.1809L36.9915 63.9328C36.8778 63.8597 36.7803 63.7642 36.7049 63.652C36.6296 63.5399 36.5779 63.4135 36.5533 63.2807L34.7053 49.3256C34.7039 49.2248 34.6747 49.1263 34.6209 49.0411C34.5671 48.9558 34.4907 48.8871 34.4002 48.8426C34.3098 48.7981 34.2088 48.7794 34.1084 48.7887C34.008 48.798 33.9121 48.8349 33.8314 48.8953L24.3248 54.3839C24.2253 54.4416 24.1155 54.4792 24.0015 54.4944C23.8875 54.5095 23.7716 54.5021 23.6605 54.4724C23.5494 54.4427 23.4452 54.3914 23.354 54.3214C23.2628 54.2514 23.1863 54.1641 23.1289 54.0644L22.82 53.5364C22.704 53.3353 22.5129 53.1884 22.2886 53.128C22.0644 53.0676 21.8254 53.0987 21.6241 53.2144L17.21 55.762C16.9928 55.9025 16.8182 56.0998 16.7051 56.3325C16.592 56.5652 16.5448 56.8243 16.5685 57.082L18.7676 73.5793C18.7927 73.7117 18.8442 73.8377 18.919 73.9497C18.9939 74.0617 19.0905 74.1575 19.2032 74.2314L19.6309 74.4796C19.6686 74.5069 19.7129 74.5237 19.7593 74.5283C19.8057 74.533 19.8524 74.5252 19.8949 74.506L37.6832 64.2364C37.6379 64.2522 37.5891 64.2554 37.5422 64.2457C37.4952 64.2359 37.4517 64.2135 37.4165 64.1809Z" fill="black"/>
<path opacity="0.25" d="M19.2017 74.2025L19.6294 74.4507C19.6672 74.478 19.7115 74.4948 19.7578 74.4995C19.8042 74.5041 19.851 74.4964 19.8934 74.4771L37.6817 64.2075C37.6393 64.2268 37.5925 64.2345 37.5462 64.2299C37.4998 64.2252 37.4555 64.2084 37.4177 64.1811L36.9927 63.9329C36.8805 63.8665 36.7841 63.7764 36.7102 63.6689L18.9219 73.9201C18.9935 74.0335 19.089 74.1299 19.2017 74.2025Z" fill="black"/>
<path d="M19.3047 58.3439V72.8296C19.3067 72.8641 19.3168 72.8976 19.3343 72.9275C19.3517 72.9573 19.3759 72.9826 19.405 73.0012L19.5159 73.0646C19.5466 73.0801 19.5805 73.0882 19.6149 73.0882C19.6493 73.0882 19.6832 73.0801 19.7139 73.0646L35.7598 63.8008C35.7889 63.7822 35.8131 63.7569 35.8305 63.7271C35.848 63.6972 35.8581 63.6637 35.8601 63.6292V49.1567C35.8581 49.1223 35.848 49.0887 35.8305 49.0589C35.8131 49.0291 35.7889 49.0038 35.7598 48.9852L35.6489 48.9192C35.6182 48.9036 35.5843 48.8955 35.5499 48.8955C35.5155 48.8955 35.4816 48.9036 35.4509 48.9192L19.405 58.1829C19.3773 58.2005 19.3539 58.2241 19.3365 58.252C19.3192 58.2799 19.3083 58.3113 19.3047 58.3439Z" fill="#FAFAFA"/>
<path d="M35.859 49.1303C35.8602 49.118 35.8602 49.1057 35.859 49.0934V49.0749C35.8504 49.057 35.8397 49.0402 35.8273 49.0247C35.8199 49.0147 35.811 49.0058 35.8009 48.9983H35.7798L35.6689 48.9323C35.6382 48.9168 35.6043 48.9087 35.5699 48.9087C35.5355 48.9087 35.5016 48.9168 35.4709 48.9323L19.4065 58.1829C19.3779 58.2015 19.3543 58.2269 19.3379 58.2568L19.6468 58.4363C19.6632 58.4064 19.6868 58.381 19.7154 58.3624L35.7613 49.1039C35.8089 49.0723 35.8485 49.0855 35.859 49.1303Z" fill="#E0E0E0"/>
<path d="M19.6888 73.0857C19.6465 73.0857 19.6175 73.0699 19.6175 73.0171V58.534C19.6185 58.4995 19.6285 58.4658 19.6465 58.4364L19.3376 58.2568C19.3187 58.2859 19.3086 58.3198 19.3086 58.3545V72.8402C19.3094 72.8743 19.3188 72.9076 19.3358 72.9372C19.3529 72.9667 19.3771 72.9914 19.4063 73.0092L19.5172 73.0752C19.5435 73.0885 19.5723 73.0964 19.6019 73.0982C19.6314 73.1 19.6609 73.0958 19.6888 73.0857Z" fill="#E0E0E0"/>
<g opacity="0.1">
<path d="M19.6888 73.0857C19.6465 73.0857 19.6175 73.0699 19.6175 73.0171V58.534C19.6185 58.4995 19.6285 58.4658 19.6465 58.4364L19.3376 58.2568C19.3187 58.2859 19.3086 58.3198 19.3086 58.3545V72.8402C19.3094 72.8743 19.3188 72.9076 19.3358 72.9372C19.3529 72.9667 19.3771 72.9914 19.4063 73.0092L19.5172 73.0752C19.5435 73.0885 19.5723 73.0964 19.6019 73.0982C19.6314 73.1 19.6609 73.0958 19.6888 73.0857Z" fill="black"/>
</g>
<path d="M38.0148 50.3394C38.0253 50.2452 38.0103 50.1499 37.9713 50.0635C37.9322 49.9771 37.8707 49.9028 37.793 49.8484L37.5739 49.7216C37.4889 49.6834 37.3952 49.6684 37.3024 49.6782C37.2097 49.6879 37.1212 49.722 37.0459 49.7771L20.7677 59.1702C20.5458 59.3144 20.3613 59.5093 20.2296 59.7388C20.0978 59.9683 20.0226 60.2259 20.01 60.4902V74.2393C20.015 74.2867 20.0071 74.3345 19.9871 74.3777C19.9671 74.421 19.9358 74.458 19.8965 74.4848L20.0047 74.6723L37.9013 64.3393C37.9401 64.3121 37.9709 64.275 37.9904 64.2318C38.0099 64.1886 38.0174 64.1409 38.0122 64.0938L38.0148 50.3394Z" fill="#EF233C"/>
<path opacity="0.25" d="M20.0059 74.6643C20.0783 74.6189 20.137 74.5546 20.1756 74.4783C20.2142 74.402 20.2313 74.3166 20.225 74.2314V60.609C20.2386 60.3449 20.3143 60.0877 20.4459 59.8583C20.5776 59.629 20.7615 59.4339 20.9827 59.289L37.253 49.8958C37.6727 49.653 38.0133 49.8483 38.0133 50.3341V64.0806C38.0186 64.1277 38.011 64.1753 37.9915 64.2185C37.972 64.2617 37.9412 64.2989 37.9024 64.3261L20.0059 74.6643Z" fill="white"/>
<path d="M33.2337 59.0885L28.8408 61.6256C28.619 60.3768 27.7003 59.8726 26.6021 60.5062C25.3349 61.2375 24.3105 63.1964 24.3105 64.8833C24.3105 66.5703 25.3349 67.3464 26.6021 66.6152C27.7082 65.9763 28.6349 64.3923 28.8461 62.8769L31.3514 61.4302V62.568C31.3514 62.9139 31.5626 63.0749 31.824 62.9244C31.9671 62.8215 32.0842 62.6864 32.1658 62.5301C32.2474 62.3738 32.2913 62.2005 32.2939 62.0242V60.8916L33.2337 60.3478C33.3777 60.2454 33.4955 60.1105 33.5776 59.9541C33.6597 59.7977 33.7038 59.6242 33.7063 59.4476C33.7063 59.0964 33.4951 58.938 33.2337 59.0885ZM26.6021 65.5644C25.7705 66.0423 25.0999 65.5354 25.0999 64.4292C25.0999 63.3231 25.7705 62.0374 26.6021 61.5569C27.4337 61.0764 28.1042 61.586 28.1042 62.6921C28.1042 63.7983 27.431 65.084 26.6021 65.5644Z" fill="#FAFAFA"/>
<path d="M13.5826 41.1259C13.5085 41.126 13.4358 41.1069 13.3714 41.0705C13.3072 41.0337 13.2539 40.9807 13.2168 40.9167C13.1797 40.8528 13.1601 40.7801 13.1602 40.7062V23.3614C13.1655 23.1863 13.2155 23.0154 13.3054 22.865C13.3922 22.7139 13.5145 22.5861 13.6618 22.4928L18.7702 19.536C18.8523 19.4867 18.9463 19.4606 19.0421 19.4606C19.1379 19.4606 19.2319 19.4867 19.314 19.536C19.3779 19.5718 19.4341 19.6198 19.4794 19.6774C19.5247 19.7349 19.5582 19.8008 19.578 19.8713L19.9898 21.2467C19.9977 21.2782 20.0124 21.3076 20.0329 21.3327C20.0535 21.3578 20.0793 21.378 20.1086 21.3919C20.1388 21.4021 20.1709 21.4053 20.2025 21.4012C20.234 21.3971 20.2643 21.3858 20.2908 21.3682L31.3577 14.982C31.4198 14.9402 31.491 14.9138 31.5654 14.9051C31.6398 14.8963 31.7152 14.9055 31.7854 14.9318L31.8408 14.9609C31.9048 15.0074 31.9559 15.0692 31.9896 15.1408C32.0233 15.2123 32.0384 15.2912 32.0335 15.3701V29.9666C32.0257 30.141 31.9761 30.311 31.8888 30.4622C31.8015 30.6134 31.6791 30.7413 31.5319 30.8352L13.7964 41.0784C13.7303 41.1122 13.6567 41.1286 13.5826 41.1259ZM19.0606 19.8C19.0197 19.8023 18.9799 19.814 18.9444 19.8343L13.836 22.7938C13.741 22.8562 13.6623 22.9404 13.6063 23.0393C13.5467 23.1365 13.5131 23.2474 13.5086 23.3614V40.7062C13.5088 40.7191 13.5122 40.7317 13.5188 40.7429C13.5253 40.754 13.5347 40.7633 13.5459 40.7697C13.5571 40.7761 13.5698 40.7795 13.5827 40.7794C13.5956 40.7794 13.6083 40.776 13.6195 40.7695L31.355 30.5263C31.4493 30.463 31.5278 30.3789 31.5845 30.2805C31.6413 30.1821 31.6747 30.072 31.6824 29.9587V15.3622C31.6866 15.3221 31.6763 15.2818 31.6534 15.2486H31.6322C31.5943 15.2511 31.5578 15.2639 31.5266 15.2856L20.4624 21.6612C20.3906 21.705 20.3098 21.7318 20.226 21.7396C20.1423 21.7474 20.0579 21.7359 19.9793 21.7061C19.9007 21.6743 19.8307 21.6245 19.7747 21.5608C19.7188 21.4971 19.6786 21.4212 19.6572 21.3391L19.2427 19.9637C19.229 19.9099 19.195 19.8635 19.1477 19.8343C19.1225 19.8148 19.0923 19.8029 19.0606 19.8Z" fill="#EF233C"/>
<path d="M37.4171 33.9002L37.2825 33.8236L37.1267 33.7339L36.9894 33.6547C36.877 33.5806 36.7805 33.4847 36.7057 33.3727C36.6308 33.2607 36.5792 33.1348 36.5538 33.0026L34.7058 19.0475C34.7008 18.9538 34.6744 18.8626 34.6286 18.7807C34.5829 18.6987 34.519 18.6284 34.4418 18.575L34.2042 18.4403C34.1109 18.3927 34.0064 18.3713 33.9018 18.3782C33.7972 18.3852 33.6965 18.4204 33.6102 18.4799L24.0244 23.9289C23.9158 23.9916 23.795 24.0301 23.6702 24.042C23.5454 24.0538 23.4195 24.0387 23.301 23.9975C23.2287 23.934 23.1672 23.8591 23.1189 23.7758L22.81 23.2478C22.7338 23.1148 22.6235 23.0046 22.4906 22.9283L22.253 22.7911C22.12 22.7146 21.9694 22.6744 21.816 22.6744C21.6627 22.6744 21.512 22.7146 21.3791 22.7911L16.9756 25.3439C16.7584 25.4845 16.5838 25.6818 16.4707 25.9145C16.3577 26.1471 16.3104 26.4063 16.3341 26.6639L18.5543 43.2959C18.5818 43.4601 18.6429 43.6168 18.7337 43.7563C18.8246 43.8957 18.9433 44.0149 19.0823 44.1064L19.5364 44.3519C19.6166 44.3996 19.7072 44.4268 19.8004 44.4311C19.876 44.4338 19.9509 44.4155 20.0169 44.3783L37.7049 33.9213C37.66 33.9461 37.609 33.9573 37.5579 33.9535C37.5068 33.9498 37.4579 33.9312 37.4171 33.9002Z" fill="#EF233C"/>
<path opacity="0.25" d="M37.4173 33.9001L36.9923 33.6546C36.8791 33.581 36.782 33.4853 36.7067 33.3733C36.6314 33.2612 36.5794 33.1351 36.554 33.0025L34.706 19.0475C34.7057 18.9463 34.6771 18.8472 34.6234 18.7613C34.5698 18.6755 34.4933 18.6063 34.4025 18.5616C34.3116 18.5168 34.2102 18.4984 34.1094 18.5082C34.0087 18.518 33.9126 18.5558 33.8322 18.6172L24.3282 24.0978C24.2286 24.1555 24.1186 24.1928 24.0045 24.2078C23.8904 24.2229 23.7744 24.2152 23.6633 24.1852C23.5522 24.1553 23.4481 24.1037 23.3569 24.0335C23.2658 23.9632 23.1895 23.8756 23.1323 23.7757L22.8234 23.2477C22.766 23.1481 22.6895 23.0608 22.5982 22.9908C22.507 22.9207 22.4028 22.8694 22.2917 22.8398C22.1806 22.8101 22.0648 22.8026 21.9508 22.8178C21.8368 22.833 21.7269 22.8706 21.6275 22.9283L17.2107 25.468C16.9959 25.607 16.8227 25.8017 16.7098 26.0314C16.5968 26.2611 16.5482 26.5171 16.5692 26.7721L18.7683 43.2695C18.7934 43.4022 18.8449 43.5286 18.9197 43.6411C18.9945 43.7535 19.0912 43.8498 19.2039 43.9242L19.6316 44.1697C19.6694 44.1971 19.7137 44.2139 19.7601 44.2185C19.8064 44.2232 19.8532 44.2154 19.8956 44.1961L37.684 33.9265C37.6412 33.9463 37.5939 33.9543 37.547 33.9497C37.5001 33.945 37.4554 33.9279 37.4173 33.9001Z" fill="black"/>
<path opacity="0.25" d="M19.203 43.9242L19.6307 44.1697C19.6684 44.1971 19.7127 44.2139 19.7591 44.2185C19.8055 44.2232 19.8522 44.2154 19.8947 44.1961L37.683 33.9265C37.6406 33.9458 37.5938 33.9536 37.5474 33.9489C37.5011 33.9443 37.4567 33.9275 37.419 33.9001L36.9939 33.6546C36.8825 33.5872 36.7862 33.4973 36.7115 33.3906L18.9258 43.6602C18.9989 43.7665 19.0933 43.8564 19.203 43.9242Z" fill="black"/>
<path d="M19.3066 28.0764V42.5595C19.3087 42.594 19.3188 42.6275 19.3362 42.6573C19.3537 42.6871 19.3779 42.7124 19.407 42.7311L19.5178 42.7944C19.5485 42.81 19.5824 42.8181 19.6168 42.8181C19.6512 42.8181 19.6852 42.81 19.7158 42.7944L35.7618 33.528C35.7908 33.5094 35.8151 33.4841 35.8325 33.4543C35.8499 33.4244 35.8601 33.3909 35.8621 33.3564V18.876C35.8601 18.8415 35.8499 18.808 35.8325 18.7782C35.8151 18.7484 35.7908 18.7231 35.7618 18.7044L35.6509 18.6411C35.6202 18.6255 35.5863 18.6174 35.5519 18.6174C35.5175 18.6174 35.4836 18.6255 35.4529 18.6411L19.407 27.9048C19.3779 27.9235 19.3537 27.9488 19.3362 27.9786C19.3188 28.0084 19.3087 28.0419 19.3066 28.0764Z" fill="#FAFAFA"/>
<path d="M35.859 18.8496C35.8599 18.8373 35.8599 18.825 35.859 18.8127V18.7968C35.851 18.7778 35.8404 18.76 35.8273 18.744C35.8192 18.7346 35.8104 18.7258 35.8009 18.7176L35.7798 18.7044L35.6689 18.6411C35.6382 18.6255 35.6043 18.6174 35.5699 18.6174C35.5355 18.6174 35.5016 18.6255 35.4709 18.6411L19.4065 27.9048C19.3773 27.9227 19.3536 27.9483 19.3379 27.9788L19.6468 28.1583C19.6632 28.1283 19.6868 28.1029 19.7154 28.0844L35.7613 18.818C35.8089 18.7916 35.8485 18.8074 35.859 18.8496Z" fill="#E0E0E0"/>
<path d="M19.6888 42.8075C19.6465 42.8075 19.6175 42.7916 19.6175 42.7388V28.2479C19.6181 28.2133 19.6281 28.1795 19.6465 28.1502L19.3376 27.9839C19.3184 28.0128 19.3083 28.0468 19.3086 28.0816V42.5646C19.3094 42.5991 19.3188 42.6328 19.3358 42.6627C19.3529 42.6926 19.3771 42.7179 19.4063 42.7362L19.5172 42.8022C19.5715 42.8264 19.6331 42.8283 19.6888 42.8075Z" fill="#E0E0E0"/>
<g opacity="0.1">
<path d="M19.6888 42.8075C19.6465 42.8075 19.6175 42.7916 19.6175 42.7388V28.2479C19.6181 28.2133 19.6281 28.1795 19.6465 28.1502L19.3376 27.9839C19.3184 28.0128 19.3083 28.0468 19.3086 28.0816V42.5646C19.3094 42.5991 19.3188 42.6328 19.3358 42.6627C19.3529 42.6926 19.3771 42.7179 19.4063 42.7362L19.5172 42.8022C19.5715 42.8264 19.6331 42.8283 19.6888 42.8075Z" fill="black"/>
</g>
<path d="M38.0168 20.0639C38.0256 19.9698 38.0098 19.875 37.971 19.7889C37.9321 19.7028 37.8714 19.6283 37.795 19.5728L37.5759 19.4487C37.491 19.4102 37.3975 19.3947 37.3048 19.404C37.212 19.4133 37.1234 19.4469 37.0479 19.5015L20.7696 28.8894C20.5482 29.034 20.364 29.229 20.2324 29.4584C20.1007 29.6879 20.0251 29.9452 20.012 30.2094V43.9559C20.0169 44.0032 20.009 44.051 19.989 44.0943C19.969 44.1375 19.9377 44.1745 19.8984 44.2014L20.0067 44.3888L37.9032 34.0559C37.9416 34.0289 37.9722 33.9922 37.9916 33.9495C38.0111 33.9068 38.0189 33.8597 38.0141 33.813L38.0168 20.0639Z" fill="#EF233C"/>
<path opacity="0.25" d="M20.0059 44.3836C20.0783 44.3382 20.137 44.2739 20.1756 44.1976C20.2142 44.1213 20.2313 44.036 20.225 43.9507V30.3283C20.2388 30.0642 20.3146 29.8071 20.4462 29.5778C20.5778 29.3485 20.7616 29.1534 20.9827 29.0083L37.253 19.6152C37.6727 19.3749 38.0133 19.5703 38.0133 20.0534V33.8025C38.0181 33.8492 38.0103 33.8963 37.9908 33.939C37.9713 33.9817 37.9408 34.0184 37.9024 34.0454L20.0059 44.3836Z" fill="white"/>
<path d="M29.0079 31.3263C29.953 30.7798 30.7186 29.3173 30.7186 28.058C30.7186 26.7987 29.953 26.21 29.0079 26.7644C28.0628 27.3188 27.2972 28.7734 27.2972 30.0327C27.2972 31.292 28.0628 31.8728 29.0079 31.3263ZM31.8855 32.084C31.772 31.2445 31.1832 30.9224 30.4942 31.321L27.5216 33.037C26.8352 33.433 26.2464 34.4336 26.1303 35.413L25.9244 37.1449C25.9059 37.3059 25.993 37.4089 26.1092 37.327L31.9172 33.9795C31.9793 33.9349 32.029 33.875 32.0614 33.8057C32.0937 33.7363 32.1077 33.6598 32.102 33.5835L31.8855 32.084Z" fill="#FAFAFA"/>
<path d="M50.2649 38.5809C50.1325 38.5802 50.0026 38.5457 49.8873 38.4806C49.7724 38.4146 49.6771 38.3191 49.6112 38.204C49.5453 38.089 49.5112 37.9585 49.5125 37.8259V21.0513C49.5091 20.9619 49.4831 20.8747 49.4368 20.7981C49.3906 20.7215 49.3256 20.6579 49.248 20.6133C49.1703 20.5687 49.0827 20.5445 48.9932 20.5431C48.9037 20.5417 48.8153 20.563 48.7363 20.6052L41.1833 24.9717L41.0645 24.7658L48.6228 20.3993C48.7374 20.3331 48.8675 20.2982 48.9998 20.2981C49.1322 20.298 49.2623 20.3327 49.377 20.3988C49.4918 20.4649 49.5871 20.5599 49.6535 20.6744C49.7199 20.789 49.755 20.9189 49.7553 21.0513V37.8259C49.7585 37.9152 49.7842 38.0023 49.8301 38.0789C49.8761 38.1555 49.9407 38.2193 50.018 38.2641C50.0953 38.309 50.1827 38.3335 50.2721 38.3353C50.3614 38.3372 50.4498 38.3163 50.5289 38.2747L57.8681 34.0349L57.9869 34.2408L50.6477 38.4806C50.5309 38.5466 50.399 38.5811 50.2649 38.5809Z" fill="#455A64"/>
<path d="M41.1179 24.3092C41.3819 24.1561 41.601 24.2801 41.601 24.589C41.5929 24.7569 41.5448 24.9204 41.4608 25.066C41.3768 25.2115 41.2592 25.3349 41.1179 25.4259C40.8539 25.5817 40.6348 25.4549 40.6348 25.1619C40.6419 24.9916 40.6894 24.8255 40.7734 24.6773C40.8574 24.529 40.9755 24.4028 41.1179 24.3092Z" fill="#455A64"/>
<path d="M57.9206 33.5808C58.1846 33.425 58.4037 33.5491 58.4037 33.8448C58.3956 34.0126 58.3475 34.1761 58.2635 34.3217C58.1795 34.4673 58.0619 34.5906 57.9206 34.6816C57.6566 34.8374 57.4375 34.7107 57.4375 34.4176C57.4456 34.2498 57.4937 34.0862 57.5777 33.9407C57.6617 33.7951 57.7793 33.6717 57.9206 33.5808Z" fill="#455A64"/>
<path d="M41.1179 54.4474C41.3819 54.2942 41.601 54.4183 41.601 54.7272C41.5914 54.8947 41.5427 55.0577 41.4588 55.203C41.3749 55.3483 41.2582 55.472 41.1179 55.5641C40.8539 55.7172 40.6348 55.5931 40.6348 55.2842C40.6429 55.1164 40.691 54.9529 40.775 54.8073C40.859 54.6617 40.9766 54.5383 41.1179 54.4474Z" fill="#455A64"/>
<path d="M57.9206 39.159C58.1846 39.0059 58.4037 39.13 58.4037 39.4389C58.3956 39.6067 58.3475 39.7703 58.2635 39.9158C58.1795 40.0614 58.0619 40.1848 57.9206 40.2758C57.6566 40.4315 57.4375 40.3048 57.4375 39.9986C57.4467 39.8306 57.4952 39.6671 57.5791 39.5213C57.663 39.3755 57.78 39.2514 57.9206 39.159Z" fill="#455A64"/>
<path d="M41.1833 55.1072L41.0645 54.9013L48.8129 50.4133C49.0275 50.2894 49.2058 50.1113 49.33 49.8967C49.4542 49.6822 49.5198 49.4389 49.5204 49.191V45.392C49.5201 45.1026 49.5961 44.8182 49.7407 44.5675C49.8853 44.3167 50.0934 44.1085 50.3441 43.9638L57.8707 39.6157L57.9895 39.8216L50.4629 44.1697C50.2485 44.2938 50.0706 44.472 49.9468 44.6866C49.8231 44.9011 49.758 45.1444 49.758 45.392V49.2042C49.7577 49.4939 49.6812 49.7783 49.5362 50.029C49.3911 50.2797 49.1826 50.4879 48.9317 50.6324L41.1833 55.1072Z" fill="#455A64"/>
<path d="M41.1179 85.6996C41.3819 85.5464 41.601 85.6705 41.601 85.9794C41.5929 86.1473 41.5448 86.3108 41.4608 86.4563C41.3768 86.6019 41.2592 86.7253 41.1179 86.8163C40.8539 86.9694 40.6348 86.8453 40.6348 86.5364C40.6429 86.3686 40.691 86.2051 40.775 86.0595C40.859 85.9139 40.9766 85.7905 41.1179 85.6996Z" fill="#455A64"/>
<path d="M57.9206 50.3632C58.1846 50.2075 58.4037 50.3342 58.4037 50.6272C58.3966 50.7975 58.3491 50.9636 58.2651 51.1119C58.1811 51.2601 58.063 51.3863 57.9206 51.4799C57.6566 51.6331 57.4375 51.509 57.4375 51.2001C57.4456 51.0322 57.4937 50.8687 57.5777 50.7232C57.6617 50.5776 57.7793 50.4542 57.9206 50.3632Z" fill="#455A64"/>
<path d="M41.1833 86.3624L41.0645 86.1565L48.8102 81.6685C49.0249 81.5439 49.2032 81.3653 49.3273 81.1503C49.4515 80.9354 49.5171 80.6917 49.5177 80.4435V56.5542C49.5178 56.2644 49.5939 55.9798 49.7384 55.7287C49.883 55.4776 50.0909 55.2688 50.3414 55.1233L57.8681 50.7778L57.9869 50.9838L50.4602 55.3318C50.2459 55.4559 50.0679 55.6341 49.9442 55.8487C49.8205 56.0632 49.7553 56.3065 49.7553 56.5542V80.4567C49.7547 80.7466 49.6781 81.0314 49.5331 81.2824C49.3881 81.5335 49.1798 81.7422 48.929 81.8876L41.1833 86.3624Z" fill="#455A64"/>
<path d="M80.133 43.3936L62.709 53.452V59.4685L63.3795 59.854L80.8035 49.7956V43.779L80.133 43.3936Z" fill="#37474F"/>
<path d="M63.3789 53.8401L80.8029 43.7791V49.7956L63.3789 59.854V53.8401Z" fill="#455A64"/>
<path d="M62.709 53.4519L63.3795 53.84V59.8539L62.709 59.4685V53.4519Z" fill="#263238"/>
<path d="M66.5048 66.1858V56.0896L69.9665 54.119C70.632 53.7402 71.199 53.5637 71.6674 53.5896C72.1358 53.6122 72.4928 53.8116 72.7385 54.1877C72.987 54.559 73.1112 55.0798 73.1112 55.7503C73.1112 56.4207 72.9855 57.0838 72.7342 57.7396C72.4828 58.3954 72.1187 59.002 71.6417 59.5594C71.1675 60.1152 70.5935 60.585 69.9194 60.9687L67.713 62.2247V60.514L69.6195 59.4288C69.9765 59.2255 70.2707 58.9874 70.5021 58.7144C70.7363 58.4365 70.9105 58.1385 71.0247 57.8204C71.1418 57.4974 71.2004 57.1699 71.2004 56.838C71.2004 56.5027 71.1418 56.2436 71.0247 56.0604C70.9105 55.8724 70.7363 55.776 70.5021 55.7713C70.2678 55.7633 69.9708 55.8618 69.6109 56.0666L68.3599 56.7787V65.1298L66.5048 66.1858ZM66.5048 83.1858V73.0896L69.9665 71.119C70.6292 70.7419 71.1947 70.5563 71.6631 70.5625C72.1344 70.5637 72.4928 70.7425 72.7385 71.099C72.987 71.4505 73.1112 71.9599 73.1112 72.627C73.1112 73.2975 72.9855 73.9458 72.7342 74.572C72.4828 75.1949 72.1187 75.7703 71.6417 76.2982C71.1675 76.8244 70.5935 77.2794 69.9194 77.6631L67.6016 78.9824V77.2669L69.6195 76.1182C69.9737 75.9166 70.2678 75.6933 70.5021 75.4482C70.7363 75.2031 70.9105 74.9364 71.0247 74.6478C71.1418 74.3577 71.2004 74.0467 71.2004 73.7147C71.2004 73.3795 71.1418 73.1302 71.0247 72.9668C70.9105 72.8018 70.7348 72.7276 70.4978 72.7442C70.2636 72.7559 69.9679 72.8634 69.6109 73.0666L68.3599 73.7787V82.1298L66.5048 83.1858ZM71.2432 75.8939L73.4239 79.2472L71.3761 80.4129L69.2425 77.0328L71.2432 75.8939ZM76.2773 67.5268V77.623L74.4222 78.6789V68.5827L76.2773 67.5268ZM68.4569 89.4003L70.9091 96.8741L71.0033 96.8206L73.4604 86.5522L75.8383 85.1986L72.3408 98.8637L69.5765 100.437L66.0741 90.7567L68.4569 89.4003ZM68.3727 120.122L66.0741 121.431L69.5765 107.763L72.3408 106.19L75.8383 115.873L73.5397 117.181L70.9983 109.621L70.919 109.667L68.3727 120.122ZM68.2291 115.616L73.6586 112.525V114.452L68.2291 117.542V115.616ZM66.2376 130.699V128.664L74.5701 123.921V125.956L71.464 127.724V137.363L69.3437 138.57V128.931L66.2376 130.699ZM66.624 159.118V147.444L73.4604 143.552V145.587L68.769 148.258V151.039L73.1087 148.569V150.604L68.769 153.074V155.862L73.4802 153.18V155.215L66.624 159.118Z" fill="#FAFAFA"/>
<path d="M79.5908 15.6235C76.7792 18.15 74.3504 18.018 72.8297 16.8485C71.3144 19.7709 68.8856 22.704 66.074 23.43L64.4662 27.7649C64.4662 27.7649 65.3268 28.7575 65.3268 31.1309C65.3185 32.1248 65.1855 33.1137 64.9308 34.0745C64.6378 35.244 64.2603 36.4505 64.2603 38.478C64.2603 39.8481 64.4398 41.1813 65.1341 42.3957C65.5576 43.1252 66.1635 43.7321 66.8924 44.1566L64.4504 42.7469C63.682 42.3201 63.0434 41.6934 62.6024 40.9332C61.9107 39.7188 61.7285 38.3856 61.7285 37.0154C61.7285 34.9932 62.106 33.7814 62.3991 32.6093C62.656 31.6498 62.7899 30.6615 62.7977 29.6683C62.7977 27.2923 61.9371 26.3023 61.9371 26.3023L63.5422 21.9674C66.3538 21.2441 68.7826 18.3084 70.3006 15.3859C71.8186 16.5554 74.2606 16.6874 77.059 14.1636L79.5908 15.6235Z" fill="#EF233C"/>
<path opacity="0.8" d="M71.1885 15.9008L70.2988 15.386C70.5715 15.596 70.8706 15.7691 71.1885 15.9008Z" fill="white"/>
<path opacity="0.85" d="M77.0562 14.1636C74.7436 16.2413 72.6897 16.5185 71.1875 15.9007L72.8296 16.8485C74.3502 18.018 76.7896 18.15 79.5906 15.6235L77.0562 14.1636Z" fill="white"/>
<path opacity="0.65" d="M70.2994 15.386C68.7814 18.3085 66.3526 21.2441 63.541 21.9675L66.0754 23.4301C68.887 22.7067 71.3158 19.771 72.8312 16.8485L70.2994 15.386Z" fill="white"/>
<path opacity="0.55" d="M63.5407 21.9675L61.9355 26.3024L64.4673 27.765L66.0751 23.4301L63.5407 21.9675Z" fill="white"/>
<path opacity="0.4" d="M65.1348 42.3957C64.4405 41.1813 64.261 39.8481 64.261 38.4779C64.261 36.4557 64.6385 35.2439 64.9315 34.0744C65.1861 33.1136 65.3192 32.1247 65.3275 31.1308C65.3275 28.7548 64.4669 27.7648 64.4669 27.7648L61.9351 26.3022C61.9351 26.3022 62.7958 27.2949 62.7958 29.6682C62.788 30.6615 62.654 31.6497 62.3971 32.6092C62.1041 33.7814 61.7266 34.9852 61.7266 37.0154C61.7266 38.3855 61.9087 39.7187 62.6004 40.9331C63.0415 41.6933 63.68 42.32 64.4484 42.7468L66.8904 44.1566C66.1625 43.7317 65.5575 43.1249 65.1348 42.3957Z" fill="white"/>
<path d="M72.8338 45.3658C68.6309 45.4107 66.2338 44.3098 65.1356 42.3958C64.4412 41.1814 64.2617 39.8482 64.2617 38.478C64.2617 36.4558 64.6366 35.244 64.9323 34.0719C65.1879 33.1121 65.3219 32.1241 65.3309 31.1309C65.3309 28.7549 64.4703 27.7675 64.4703 27.7675L66.0728 23.43C68.887 22.7067 71.3158 19.771 72.8338 16.8485C74.3492 18.018 76.778 18.15 79.5922 15.6235L81.1973 18.1104C80.6467 19.4976 80.355 20.974 80.3367 22.4664C80.3204 23.3108 80.4554 24.1512 80.7353 24.948C81.216 26.097 81.4438 27.3359 81.4032 28.5807C81.3966 30.2614 81.0983 31.9282 80.5215 33.5069C79.4391 36.6749 77.034 40.561 72.8338 45.3658Z" fill="#EF233C"/>
<path opacity="0.75" d="M72.8338 45.3658C68.6309 45.4107 66.2338 44.3098 65.1356 42.3958C64.4412 41.1814 64.2617 39.8482 64.2617 38.478C64.2617 36.4558 64.6366 35.244 64.9323 34.0719C65.1879 33.1121 65.3219 32.1241 65.3309 31.1309C65.3309 28.7549 64.4703 27.7675 64.4703 27.7675L66.0728 23.43C68.887 22.7067 71.3158 19.771 72.8338 16.8485C74.3492 18.018 76.778 18.15 79.5922 15.6235L81.1973 18.1104C80.6467 19.4976 80.355 20.974 80.3367 22.4664C80.3204 23.3108 80.4554 24.1512 80.7353 24.948C81.216 26.097 81.4438 27.3359 81.4032 28.5807C81.3966 30.2614 81.0983 31.9282 80.5215 33.5069C79.4391 36.6749 77.034 40.561 72.8338 45.3658Z" fill="white"/>
<path opacity="0.75" d="M72.3363 44.2728C69.0838 44.2359 66.9798 43.4227 66.0848 41.8546C65.5806 40.9702 65.3535 39.9274 65.3535 38.478C65.3523 37.2115 65.5301 35.9512 65.8815 34.7345L65.9845 34.3385C66.2634 33.2919 66.408 32.214 66.4148 31.1309C66.4148 29.4017 66.0003 28.2691 65.673 27.6435L66.9032 24.3144C69.9128 23.2584 72.0882 20.2963 73.2392 18.348C73.8603 18.6117 74.5286 18.7464 75.2034 18.744C76.563 18.744 77.9463 18.2371 79.3244 17.2366L79.9712 18.2398C79.5006 19.5991 79.2519 21.0254 79.2346 22.4638C79.219 23.4323 79.3754 24.3959 79.6966 25.3097C79.7283 25.4047 79.7653 25.4998 79.7996 25.5975C80.1744 26.5447 80.3462 27.5602 80.3038 28.578C80.2982 30.137 80.0222 31.6832 79.4881 33.1479C78.4242 36.271 76.0138 40.0119 72.3363 44.2728Z" fill="#EF233C"/>
<path opacity="0.4" d="M72.3363 44.2728C69.0838 44.2359 66.9798 43.4227 66.0848 41.8546C65.5806 40.9702 65.3535 39.9274 65.3535 38.478C65.3523 37.2115 65.5301 35.9512 65.8815 34.7345L65.9845 34.3385C66.2634 33.2919 66.408 32.214 66.4148 31.1309C66.4148 29.4017 66.0003 28.2691 65.673 27.6435L66.9032 24.3144C69.9128 23.2584 72.0882 20.2963 73.2392 18.348C73.8603 18.6117 74.5286 18.7464 75.2034 18.744C76.563 18.744 77.9463 18.2371 79.3244 17.2366L79.9712 18.2398C79.5006 19.5991 79.2519 21.0254 79.2346 22.4638C79.219 23.4323 79.3754 24.3959 79.6966 25.3097C79.7283 25.4047 79.7653 25.4998 79.7996 25.5975C80.1744 26.5447 80.3462 27.5602 80.3038 28.578C80.2982 30.137 80.0222 31.6832 79.4881 33.1479C78.4242 36.271 76.0138 40.0119 72.3363 44.2728Z" fill="white"/>
<path opacity="0.15" d="M72.3363 44.2728C69.0838 44.2359 66.9798 43.4227 66.0848 41.8546C65.5806 40.9702 65.3535 39.9274 65.3535 38.478C65.3523 37.2115 65.5301 35.9512 65.8815 34.7345L65.9845 34.3385C66.2634 33.2919 66.408 32.214 66.4148 31.1309C66.4148 29.4017 66.0003 28.2691 65.673 27.6435L66.9032 24.3144C69.9128 23.2584 72.0882 20.2963 73.2392 18.348C73.8603 18.6117 74.5286 18.7464 75.2034 18.744C76.563 18.744 77.9463 18.2371 79.3244 17.2366L79.9712 18.2398C79.5006 19.5991 79.2519 21.0254 79.2346 22.4638C79.219 23.4323 79.3754 24.3959 79.6966 25.3097C79.7283 25.4047 79.7653 25.4998 79.7996 25.5975C80.1744 26.5447 80.3462 27.5602 80.3038 28.578C80.2982 30.137 80.0222 31.6832 79.4881 33.1479C78.4242 36.271 76.0138 40.0119 72.3363 44.2728Z" fill="#EF233C"/>
<path opacity="0.8" d="M66.8262 42.7681C67.935 43.7449 69.7777 44.257 72.3332 44.2861L70.7017 43.3568C69.3862 43.3765 68.0765 43.1776 66.8262 42.7681Z" fill="white"/>
<path opacity="0.25" d="M79.1312 17.7487L79.9786 18.2398L79.3318 17.2366L78.9648 17.4927L79.1312 17.7487Z" fill="#EF233C"/>
<path d="M78.8543 24.8159C78.5334 23.9029 78.3769 22.9402 78.3923 21.9726C78.4098 20.5342 78.6585 19.1081 79.1288 17.7486L78.9651 17.4846C77.7059 18.3162 76.4492 18.736 75.2111 18.736C74.5363 18.7384 73.8681 18.6036 73.2469 18.34C72.0932 20.2883 69.9179 23.2609 66.9109 24.3064L65.6807 27.6354C66.008 28.2611 66.4225 29.3937 66.4225 31.1229C66.4189 32.2083 66.277 33.2888 66.0001 34.3384L65.8971 34.7344C65.5457 35.9511 65.3679 37.2114 65.3691 38.4779C65.3691 39.9273 65.5962 40.9701 66.1004 41.8545C66.3659 42.3093 66.7261 42.7019 67.1564 43.0055C68.2441 43.5018 69.6917 43.7614 71.4992 43.7843C75.1794 39.5207 77.5897 35.7798 78.6642 32.662C79.192 31.1952 79.4626 29.6483 79.4641 28.0895C79.5065 27.0716 79.3347 26.0562 78.9599 25.1089L78.8543 24.8159Z" fill="#EF233C"/>
<path d="M74.3441 35.4102L70.4052 37.6859L71.015 30.5579C70.5425 30.2939 70.2441 29.6946 70.2441 28.8128C70.2441 27.2447 71.1972 25.4204 72.3746 24.742C73.5521 24.0635 74.5077 24.7816 74.5077 26.3524C74.4846 27.2848 74.2179 28.1949 73.7342 28.9924L74.3441 35.4102Z" fill="#EF233C"/>
<path opacity="0.25" d="M74.3441 35.4102L70.4052 37.6859L71.015 30.5579C70.5425 30.2939 70.2441 29.6946 70.2441 28.8128C70.2441 27.2447 71.1972 25.4204 72.3746 24.742C73.5521 24.0635 74.5077 24.7816 74.5077 26.3524C74.4846 27.2848 74.2179 28.1949 73.7342 28.9924L74.3441 35.4102Z" fill="black"/>
<path opacity="0.15" d="M74.3432 35.4103L70.7739 33.3511L70.4043 37.686L74.3432 35.4103Z" fill="black"/>
<path opacity="0.15" d="M72.373 24.742C71.6021 25.1855 70.9289 26.12 70.5566 27.1523L73.7246 29.0003C74.2084 28.2028 74.475 27.2927 74.4982 26.3603C74.5061 24.7816 73.5504 24.0608 72.373 24.742Z" fill="black"/>
<path d="M66.0843 99.6811C62.1401 97.4054 55.7513 97.4054 51.8071 99.6811C50.1571 100.634 49.1223 101.265 48.8556 102.516V103.805C48.8894 104.855 49.3284 105.851 50.0806 106.585L32.3926 115.516V116.799L34.3752 117.942H39.9192L42.0946 116.688V115.474L43.8291 114.505L46.2394 114.294L47.2003 113.739L47.298 111.585L49.08 110.555L51.691 111.147L55.0913 109.182C58.7503 110.059 63.1222 109.642 66.0975 107.923C68.0748 106.783 69.0595 105.283 69.0543 103.789V102.516C68.8615 101.178 67.8478 100.705 66.0843 99.6811ZM63.6211 103.377C62.994 103.694 62.3014 103.859 61.5989 103.859C60.8964 103.859 60.2038 103.694 59.5767 103.377C58.4599 102.73 58.4599 101.685 59.5767 101.041C60.2038 100.724 60.8964 100.559 61.5989 100.559C62.3014 100.559 62.994 100.724 63.6211 101.041C64.7379 101.674 64.7379 102.72 63.6238 103.367L63.6211 103.377Z" fill="#EF233C"/>
<path opacity="0.2" d="M66.0843 99.6811C62.1401 97.4054 55.7513 97.4054 51.8071 99.6811C50.1571 100.634 49.1223 101.265 48.8556 102.516V103.805C48.8894 104.855 49.3284 105.851 50.0806 106.585L32.3926 115.516V116.799L34.3752 117.942H39.9192L42.0946 116.688V115.474L43.8291 114.505L46.2394 114.294L47.2003 113.739L47.298 111.585L49.08 110.555L51.691 111.147L55.0913 109.182C58.7503 110.059 63.1222 109.642 66.0975 107.923C68.0748 106.783 69.0595 105.283 69.0543 103.789V102.516C68.8615 101.178 67.8478 100.705 66.0843 99.6811ZM63.6211 103.377C62.994 103.694 62.3014 103.859 61.5989 103.859C60.8964 103.859 60.2038 103.694 59.5767 103.377C58.4599 102.73 58.4599 101.685 59.5767 101.041C60.2038 100.724 60.8964 100.559 61.5989 100.559C62.3014 100.559 62.994 100.724 63.6211 101.041C64.7379 101.674 64.7379 102.72 63.6238 103.367L63.6211 103.377Z" fill="black"/>
<path d="M66.0843 98.3955C62.1401 96.1198 55.7513 96.1198 51.8071 98.3955C48.5679 100.267 47.9976 103.089 50.0806 105.299L32.3926 115.516L34.3752 116.659H39.9192L42.0946 115.402L41.9467 114.27L43.8291 113.214L46.2394 113.003L47.2003 112.448L47.298 110.291L49.08 109.264L51.691 109.853L55.0913 107.892C58.7503 108.768 63.1222 108.348 66.0975 106.63C70.0258 104.362 70.0258 100.671 66.0843 98.3955ZM63.6211 102.091C62.994 102.408 62.3014 102.573 61.5989 102.573C60.8964 102.573 60.2038 102.408 59.5767 102.091C58.4599 101.447 58.4599 100.402 59.5767 99.7577C60.203 99.4387 60.896 99.2725 61.5989 99.2725C62.3018 99.2725 62.9948 99.4387 63.6211 99.7577C64.7379 100.391 64.7379 101.437 63.6238 102.081L63.6211 102.091Z" fill="#EF233C"/>
<path opacity="0.3" d="M66.0843 98.3955C62.1401 96.1198 55.7513 96.1198 51.8071 98.3955C48.5679 100.267 47.9976 103.089 50.0806 105.299L32.3926 115.516L34.3752 116.659H39.9192L42.0946 115.402L41.9467 114.27L43.8291 113.214L46.2394 113.003L47.2003 112.448L47.298 110.291L49.08 109.264L51.691 109.853L55.0913 107.892C58.7503 108.768 63.1222 108.348 66.0975 106.63C70.0258 104.362 70.0258 100.671 66.0843 98.3955ZM63.6211 102.091C62.994 102.408 62.3014 102.573 61.5989 102.573C60.8964 102.573 60.2038 102.408 59.5767 102.091C58.4599 101.447 58.4599 100.402 59.5767 99.7577C60.203 99.4387 60.896 99.2725 61.5989 99.2725C62.3018 99.2725 62.9948 99.4387 63.6211 99.7577C64.7379 100.391 64.7379 101.437 63.6238 102.081L63.6211 102.091Z" fill="white"/>
<path d="M58.9455 107.184C56.4507 107.184 54.1222 106.632 52.3877 105.634C50.8776 104.761 50.0117 103.625 50.0117 102.517C50.0117 101.408 50.8776 100.273 52.3877 99.4014C54.1222 98.4009 56.4507 97.8491 58.9455 97.8491C61.4403 97.8491 63.7688 98.4009 65.5032 99.4014C67.0133 100.273 67.8792 101.41 67.8792 102.517C67.8792 103.623 67.0133 104.761 65.5032 105.634C63.7688 106.632 61.4403 107.184 58.9455 107.184ZM58.9455 98.2082C56.514 98.2082 54.2489 98.7362 52.5699 99.7103C51.176 100.516 50.376 101.537 50.376 102.511C50.376 103.486 51.168 104.507 52.5699 105.315C54.2489 106.284 56.5114 106.817 58.9455 106.817C61.3796 106.817 63.642 106.289 65.3211 105.315C66.715 104.507 67.5149 103.488 67.5149 102.511C67.5149 101.535 66.7229 100.516 65.3211 99.7103C63.642 98.7362 61.3769 98.2082 58.9455 98.2082Z" fill="#EF233C"/>
<path opacity="0.1" d="M62.5693 107.952V109.238C60.095 109.774 57.5325 109.755 55.0664 109.182V107.899C57.5326 108.473 60.0953 108.491 62.5693 107.952Z" fill="black"/>
<path opacity="0.1" d="M51.6754 109.861V111.147L49.0645 110.555V109.272L51.6754 109.861Z" fill="black"/>
<path opacity="0.1" d="M47.2832 110.302V111.585L47.1855 113.739V112.456L47.2832 110.302Z" fill="black"/>
<path opacity="0.1" d="M46.2248 113.01V114.294L43.8145 114.507V113.222L46.2248 113.01Z" fill="black"/>
<path opacity="0.1" d="M39.9038 116.659H34.373V117.945H39.9038V116.659Z" fill="black"/>
<path opacity="0.15" d="M32.3906 115.516V116.799L34.3733 117.942V116.659L33.5047 116.157V116.712L33.0242 116.435V115.875L32.3906 115.516Z" fill="black"/>
<path d="M33.0234 115.875L33.5039 116.157V116.712L33.0234 116.435V115.875Z" fill="#EF233C"/>
<path opacity="0.3" d="M33.0234 115.875L33.5039 116.157V116.712L33.0234 116.435V115.875Z" fill="white"/>
<path d="M33.0234 115.875V116.435L51.1655 105.959L50.6877 105.677L33.0234 115.875Z" fill="#EF233C"/>
<path opacity="0.15" d="M50.6875 105.677V106.236L51.1653 105.959L50.6875 105.677Z" fill="black"/>
<path d="M91.318 102.487L88.8285 97.5823L83.8125 100.515L89.9901 107.807C89.9901 107.807 93.0499 107.525 93.5435 105.927C94.0372 104.33 92.1602 103.018 91.318 102.487Z" fill="#C8856A"/>
<path d="M94.8478 104.415C95.128 104.618 95.3641 104.875 95.5422 105.172C95.7454 105.473 95.6821 106.925 95.8748 107.598C96.0675 108.272 96.2154 108.451 96.5374 109.296C96.8938 110.23 97.5538 111.086 96.8014 113.491C96.049 115.896 94.861 117.044 93.8526 117.63C93.4773 117.825 93.0608 117.926 92.6382 117.926C92.6382 117.926 91.3182 117.427 91.5188 116.646C91.7194 115.864 94.8478 104.415 94.8478 104.415Z" fill="#263238"/>
<path d="M89.0539 107.055C89.0909 107.303 89.4367 107.683 89.5819 107.886C90.0571 108.565 90.2736 109.486 90.4373 110.289C91.2161 114.095 89.7034 116.031 91.7573 117.459C92.3513 117.834 93.5842 117.723 95.4533 115.331C96.4116 114.106 96.9554 111.585 96.5832 110.444C96.211 109.304 95.6988 108.559 95.4586 107.683C95.2183 106.806 95.345 105.167 94.8593 104.415C94.5452 103.989 94.1391 103.64 93.6713 103.393C93.307 103.171 92.5123 102.881 92.1427 102.669C91.7731 102.458 91.5672 102.218 91.3296 102.487L91.7573 103.015C92.4252 103.942 92.2378 104.071 92.2219 104.568C92.2512 105.097 92.3344 105.623 92.4701 106.136C91.9949 105.537 91.8022 105.014 91.2821 105.106C90.762 105.199 90.7013 105.172 89.9621 105.869C89.2229 106.566 89.0223 106.835 89.0539 107.055Z" fill="#455A64"/>
<path d="M95.4424 115.331C96.4007 114.106 96.9446 111.585 96.5723 110.444C96.4468 110.068 96.3005 109.698 96.1341 109.338C96.1499 109.415 96.1711 109.494 96.1816 109.56C96.2054 109.708 96.2265 109.856 96.2397 110.003C96.327 110.587 96.2615 111.182 96.0496 111.733C95.8358 112.205 95.3368 113.396 94.6979 113.422C94.3336 113.438 94.0274 113.082 93.8875 112.678C93.8294 112.506 93.7317 112.044 93.7317 112.044C93.1442 112.18 92.5825 112.41 92.0685 112.725C91.1392 113.338 91.1709 113.475 91.1709 113.475C91.2271 113.743 91.2378 114.019 91.2026 114.291C91.1485 114.583 91.0304 114.86 90.8567 115.101C90.7858 115.174 90.706 115.238 90.6191 115.291C90.6587 116.17 90.8831 116.859 91.7464 117.459C92.3404 117.834 93.5733 117.744 95.4424 115.331Z" fill="#37474F"/>
<path d="M90.4317 110.289C90.6328 111.29 90.7126 112.312 90.6693 113.333C91.0204 114.307 91.3267 114.278 91.3689 113.773C91.4111 113.269 90.7379 111.173 90.2363 109.441C90.3129 109.726 90.3763 110.017 90.4317 110.289Z" fill="#37474F"/>
<path d="M92.7492 104.187C92.7911 103.694 92.6594 103.201 92.377 102.793C92.2846 102.751 92.2001 102.709 92.1315 102.669C91.7302 102.442 91.556 102.218 91.3184 102.487L91.746 103.015C92.414 103.942 92.2265 104.071 92.2107 104.568C92.24 105.097 92.3231 105.623 92.4588 106.136C92.8469 107.788 93.2007 108.34 93.3855 109.903C93.5703 111.466 93.2561 112.511 93.4752 112.601C93.6944 112.691 94.1405 112.511 94.2224 111.26C94.3042 110.009 93.7498 107.907 93.3617 106.912C92.9736 105.917 92.6648 104.853 92.7492 104.187Z" fill="#37474F"/>
<path d="M93.8423 112.152C93.8205 112.174 93.7931 112.19 93.7631 112.197C92.6675 112.422 92.0841 112.699 91.2683 113.66C91.2409 113.69 91.2028 113.709 91.162 113.712C91.1211 113.715 91.0807 113.702 91.0492 113.676C91.0178 113.649 90.9982 113.611 90.9947 113.57C90.9912 113.529 91.0042 113.488 91.0307 113.457C91.8914 112.443 92.5355 112.137 93.6998 111.891C93.7403 111.883 93.7823 111.892 93.8169 111.914C93.8514 111.937 93.8757 111.972 93.8846 112.013C93.8895 112.038 93.8882 112.063 93.8809 112.088C93.8735 112.112 93.8603 112.134 93.8423 112.152Z" fill="#EBEBEB"/>
<path d="M93.6442 110.851C93.6234 110.873 93.5969 110.888 93.5677 110.896C92.4325 111.16 91.8042 111.479 90.9277 112.48C90.9147 112.496 90.8983 112.51 90.8797 112.52C90.8611 112.53 90.8406 112.536 90.8195 112.538C90.7985 112.54 90.7772 112.537 90.7572 112.53C90.7372 112.523 90.7189 112.512 90.7033 112.498C90.6872 112.484 90.6739 112.468 90.6642 112.449C90.6546 112.43 90.6487 112.409 90.647 112.388C90.6453 112.367 90.6477 112.346 90.6542 112.326C90.6607 112.306 90.6711 112.287 90.6848 112.271C91.5982 111.215 92.2688 110.851 93.4858 110.574C93.5189 110.566 93.5534 110.57 93.5842 110.584C93.615 110.598 93.6405 110.622 93.657 110.651C93.6735 110.681 93.6802 110.715 93.676 110.748C93.6718 110.782 93.657 110.813 93.6337 110.838L93.6442 110.851Z" fill="#EBEBEB"/>
<path d="M93.6742 109.417C93.6503 109.441 93.62 109.458 93.5871 109.465C92.3383 109.755 91.6044 110.143 90.6487 111.26C90.6182 111.295 90.5749 111.317 90.5285 111.32C90.482 111.324 90.4361 111.309 90.4006 111.278C90.3655 111.248 90.3438 111.205 90.3403 111.158C90.3369 111.112 90.3519 111.066 90.3821 111.03C91.388 109.858 92.1826 109.43 93.5079 109.122C93.5534 109.111 93.6011 109.119 93.6406 109.144C93.6802 109.169 93.7084 109.208 93.7191 109.254C93.7254 109.282 93.7247 109.312 93.7169 109.341C93.709 109.369 93.6944 109.396 93.6742 109.417Z" fill="#EBEBEB"/>
<path d="M93.4567 108.192C93.4342 108.217 93.4047 108.233 93.3723 108.24C92.1473 108.522 91.4371 108.895 90.4999 109.99C90.4862 110.01 90.4683 110.027 90.4475 110.04C90.4267 110.053 90.4035 110.062 90.3792 110.065C90.355 110.068 90.3303 110.066 90.3069 110.059C90.2834 110.053 90.2617 110.041 90.243 110.025C90.2244 110.009 90.2093 109.99 90.1987 109.967C90.1882 109.945 90.1824 109.921 90.1817 109.897C90.181 109.872 90.1855 109.848 90.1949 109.826C90.2042 109.803 90.2182 109.783 90.2359 109.766C91.2207 108.617 91.9968 108.203 93.2957 107.918C93.3177 107.912 93.3406 107.911 93.363 107.915C93.3855 107.919 93.4069 107.927 93.4261 107.939C93.4454 107.951 93.4619 107.967 93.4749 107.985C93.4879 108.004 93.497 108.025 93.5016 108.047C93.5058 108.073 93.5039 108.1 93.4961 108.125C93.4883 108.15 93.4749 108.173 93.4567 108.192Z" fill="#EBEBEB"/>
<path d="M93.0166 106.999C92.9937 107.023 92.9643 107.039 92.9321 107.047C91.7072 107.332 90.997 107.704 90.0598 108.8C90.0286 108.829 89.9876 108.846 89.9446 108.847C89.9017 108.849 89.8598 108.834 89.827 108.806C89.7943 108.778 89.773 108.739 89.7672 108.697C89.7614 108.654 89.7716 108.611 89.7958 108.575C90.7832 107.424 91.554 107.012 92.8529 106.711C92.8894 106.702 92.9279 106.705 92.9625 106.72C92.9972 106.734 93.026 106.76 93.0446 106.793C93.0632 106.826 93.0705 106.863 93.0655 106.901C93.0604 106.938 93.0432 106.973 93.0166 106.999Z" fill="#EBEBEB"/>
<path d="M89.9661 102.881L86.7215 105.534L84.8867 106.685L86.9802 110.645L92.8833 107.82L89.9661 102.881Z" fill="#C8856A"/>
<path d="M96.5781 85.1689C96.5781 85.1689 84.7694 83.21 79.7164 83.2443C74.5605 83.276 74.0826 87.1463 75.3736 89.517C77.8446 94.0578 86.4326 103.686 86.4326 103.686C86.4326 103.686 89.3181 102.366 90.2051 99.8684L88.2436 95.3804L94.4106 97.3551L97.5575 95.2431L97.8215 93.6354L96.5781 85.1689Z" fill="#EF233C"/>
<path opacity="0.4" d="M96.5781 85.1689C96.5781 85.1689 84.7694 83.21 79.7164 83.2443C74.5605 83.276 74.0826 87.1463 75.3736 89.517C77.8446 94.0578 86.4326 103.686 86.4326 103.686C86.4326 103.686 89.3181 102.366 90.2051 99.8684L88.2436 95.3804L94.4106 97.3551L97.5575 95.2431L97.8215 93.6354L96.5781 85.1689Z" fill="black"/>
<path d="M96.5771 85.1689L117.016 88.5719C117.016 88.5719 117.219 93.4638 115.295 97.8462C114.614 99.3857 113.555 100.728 112.216 101.749C110.878 102.77 109.303 103.436 107.639 103.686C105.588 103.966 103.524 104.133 101.456 104.188C100.46 104.951 99.3752 105.591 98.2244 106.091C96.6061 106.735 89.4966 109.718 89.4966 109.718C89.4966 109.718 87.4955 108.026 87.6935 104.499L94.4175 97.3499C95.9382 95.5019 96.4715 94.8947 97.3215 94.4776C96.0121 91.9696 96.4319 87.9304 96.5771 85.1689Z" fill="#EF233C"/>
<path opacity="0.3" d="M96.5771 85.1689L117.016 88.5719C117.016 88.5719 117.219 93.4638 115.295 97.8462C114.614 99.3857 113.555 100.728 112.216 101.749C110.878 102.77 109.303 103.436 107.639 103.686C105.588 103.966 103.524 104.133 101.456 104.188C100.46 104.951 99.3752 105.591 98.2244 106.091C96.6061 106.735 89.4966 109.718 89.4966 109.718C89.4966 109.718 87.4955 108.026 87.6935 104.499L94.4175 97.3499C95.9382 95.5019 96.4715 94.8947 97.3215 94.4776C96.0121 91.9696 96.4319 87.9304 96.5771 85.1689Z" fill="black"/>
<g opacity="0.3">
<path d="M87.2152 91.5497C88.1641 92.9415 89.0332 94.3862 89.8182 95.8766L88.2342 95.375C86.4601 91.151 86.0958 89.9129 83.2578 87.9329C83.2657 87.9329 85.3012 88.7037 87.2152 91.5497Z" fill="black"/>
<path d="M102.959 101.817C102.959 101.817 102.983 102.854 101.452 104.193C100.456 104.957 99.3712 105.596 98.2204 106.096C96.6047 106.735 89.4952 109.718 89.4952 109.718C89.4952 109.718 89.1071 109.539 88.5527 108.493C90.4007 108.058 96.4569 105.684 98.4158 104.855C101.903 103.377 102.959 101.817 102.959 101.817Z" fill="black"/>
<path d="M95.4256 96.1511C94.7366 96.9589 94.4092 97.3497 94.4092 97.3497L93.4219 97.0249C93.4219 97.0249 95.1722 95.1215 96.2995 94.1209C96.4956 93.9285 96.7125 93.7584 96.9463 93.6141C96.376 92.1172 96.3972 89.6541 96.3972 89.6541C96.5872 90.9557 97.1 92.1891 97.8888 93.2418C98.821 93.0232 99.7899 93.0124 100.727 93.2101C102.704 93.5401 108.436 94.5169 108.436 94.5169C108.436 94.5169 102.942 94.0206 100.083 93.9097C97.2235 93.7989 96.1147 95.3432 95.4256 96.1511Z" fill="black"/>
</g>
<path d="M77.4479 108.747C76.0593 109.296 75.2039 109.845 74.5624 110.685C73.9209 111.524 73.7229 112.372 74.3327 113.388C74.9426 114.404 76.0619 115.595 77.3925 115.518C78.7231 115.442 79.5415 115.109 80.7743 114.441L77.4479 108.747Z" fill="#263238"/>
<path d="M88.5471 109.922C88.5682 110.339 86.8126 111.168 84.991 112.034C83.0374 112.965 82.5569 113.573 80.9624 114.357C79.1408 115.254 78.4491 115.307 77.0341 114.914C75.619 114.52 73.8661 112.496 75.091 110.634C76.081 109.119 77.3641 108.702 79.315 108.19C80.8634 107.798 82.3847 107.306 83.869 106.717C85.2761 106.17 86.4351 105.191 86.7255 105.531C86.5249 105.626 85.0544 106.534 85.3316 106.783C85.4002 106.909 85.6088 106.87 85.9705 106.719C86.0482 106.68 86.1332 106.658 86.2201 106.654C86.3069 106.65 86.3936 106.664 86.4747 106.695C86.6379 106.801 86.765 106.954 86.839 107.134C87.0077 107.496 87.1549 107.868 87.2799 108.248C87.3881 108.512 87.3433 108.356 87.4462 108.617C87.5492 108.879 87.7762 109.346 87.7472 109.613C87.7313 109.774 87.6125 109.824 87.4832 109.903C87.3538 109.982 87.1875 110.077 87.0687 110.167C87.0238 110.201 86.9393 110.323 86.9657 110.384C86.9921 110.444 87.2641 110.436 87.3697 110.384C87.4753 110.331 87.6521 110.296 87.7815 110.249C87.9109 110.201 88.225 110.072 88.5471 109.922Z" fill="#455A64"/>
<path d="M81.5778 114.048C81.3138 114.18 79.6612 114.948 79.1437 114.489C78.5814 113.99 79.9067 113.192 79.9067 113.192C79.9067 113.192 80.11 111.946 78.6052 110.109C78.3412 110.312 77.2561 110.302 77.2693 109.663C77.2825 109.024 79.1173 108.237 79.1332 108.227C77.2693 108.726 76.0418 109.153 75.0808 110.626C73.8664 112.488 75.6088 114.512 77.0238 114.906C78.4389 115.299 79.1358 115.246 80.9522 114.349C81.1449 114.272 81.4274 114.153 81.5778 114.048Z" fill="#37474F"/>
<path d="M79.7295 113.079C79.0405 113.309 79.513 113.937 80.5215 113.734C82.0342 113.427 83.2935 112.569 84.9778 112.036C86.7994 111.168 88.6553 110.357 88.5365 109.898C88.2118 110.019 87.5122 110.31 87.5122 110.31C87.3776 110.368 87.0238 110.5 87.0238 110.5C85.6431 111.096 84.1198 112.055 82.6203 112.461C81.3135 112.818 80.4291 112.849 79.7295 113.079Z" fill="#37474F"/>
<path d="M78.7155 110.352C79.3464 109.987 79.4547 109.673 80.6928 109.106C81.931 108.538 84.0245 107.321 85.3181 106.566C85.8038 106.245 86.2726 105.898 86.7226 105.528C86.5087 105.283 85.7194 105.507 84.93 106.006C84.1407 106.505 83.6602 106.819 82.8787 107.229C81.3581 108.142 79.6263 108.757 78.7577 109.317C77.8891 109.877 78.0819 110.721 78.7155 110.352Z" fill="#37474F"/>
<path d="M78.6206 110.188C78.6294 110.21 78.6419 110.229 78.6575 110.246C79.3519 111.121 79.7636 112.186 79.8376 113.301C79.8408 113.346 79.8602 113.388 79.8923 113.42C79.9244 113.451 79.9669 113.47 80.0119 113.472C80.033 113.471 80.0536 113.465 80.0723 113.455C80.0911 113.445 80.1075 113.431 80.1207 113.415C80.1338 113.398 80.1434 113.379 80.1487 113.358C80.1541 113.338 80.1551 113.316 80.1518 113.296C79.9591 111.205 78.9242 110.069 78.8661 110.006C78.8522 109.99 78.8352 109.978 78.816 109.969C78.7969 109.961 78.7762 109.956 78.7552 109.956C78.7342 109.956 78.7135 109.961 78.6944 109.969C78.6753 109.978 78.6582 109.99 78.6443 110.006C78.6241 110.031 78.6111 110.062 78.607 110.094C78.6028 110.126 78.6075 110.159 78.6206 110.188Z" fill="#F0F0F0"/>
<path d="M79.8458 109.296C79.8538 109.314 79.8645 109.331 79.8774 109.346C80.6725 110.4 81.1769 111.645 81.34 112.955C81.3445 112.999 81.3649 113.04 81.3975 113.07C81.4301 113.1 81.4725 113.118 81.5169 113.119C81.5383 113.117 81.559 113.111 81.5778 113.1C81.5965 113.09 81.6128 113.075 81.6255 113.058C81.6383 113.041 81.6472 113.021 81.6517 113C81.6562 112.979 81.6561 112.957 81.6515 112.936C81.4854 111.546 80.9473 110.226 80.0939 109.116C80.0812 109.1 80.0651 109.086 80.0466 109.076C80.0281 109.066 80.0076 109.06 79.9866 109.058C79.9656 109.057 79.9446 109.06 79.9248 109.067C79.9051 109.074 79.8871 109.086 79.8722 109.101C79.8492 109.127 79.8344 109.16 79.8297 109.194C79.8251 109.229 79.8306 109.264 79.8458 109.296Z" fill="#F0F0F0"/>
<path d="M82.5433 112.826C82.5554 112.855 82.5752 112.881 82.6007 112.901C82.6263 112.92 82.6566 112.933 82.6885 112.937C82.7098 112.937 82.7308 112.932 82.7503 112.924C82.7698 112.915 82.7873 112.903 82.8017 112.887C82.8161 112.871 82.8271 112.853 82.834 112.833C82.8409 112.813 82.8435 112.791 82.8416 112.77C82.7677 110.558 81.3421 108.483 81.2761 108.412C81.2625 108.395 81.2455 108.382 81.2263 108.374C81.2072 108.365 81.1863 108.36 81.1652 108.36C81.1441 108.36 81.1233 108.365 81.1041 108.374C81.085 108.382 81.068 108.395 81.0543 108.412C81.0271 108.447 81.0135 108.492 81.0159 108.537C81.0183 108.582 81.0366 108.624 81.0675 108.657C81.0834 108.673 82.4615 110.7 82.5248 112.76C82.5277 112.782 82.5339 112.805 82.5433 112.826Z" fill="#F0F0F0"/>
<path d="M83.6896 112.102C83.7008 112.132 83.7202 112.158 83.7454 112.177C83.7706 112.196 83.8006 112.208 83.8321 112.211C83.8531 112.212 83.8741 112.208 83.8938 112.201C83.9134 112.193 83.9311 112.182 83.9459 112.167C83.9606 112.152 83.972 112.134 83.9792 112.114C83.9865 112.094 83.9894 112.073 83.9879 112.052C83.9409 110.521 83.3568 109.056 82.3379 107.913C82.324 107.897 82.307 107.884 82.2879 107.876C82.2687 107.867 82.248 107.863 82.227 107.863C82.2061 107.863 82.1853 107.867 82.1662 107.876C82.1471 107.884 82.13 107.897 82.1161 107.913C82.0909 107.95 82.08 107.996 82.0853 108.041C82.0906 108.086 82.1119 108.127 82.1452 108.158C83.077 109.233 83.6152 110.594 83.6711 112.015C83.6723 112.045 83.6785 112.074 83.6896 112.102Z" fill="#F0F0F0"/>
<path d="M85.1441 111.482C85.1557 111.511 85.1747 111.536 85.1993 111.555C85.2239 111.574 85.2532 111.586 85.284 111.59C85.3051 111.592 85.3263 111.589 85.3462 111.581C85.366 111.574 85.3839 111.562 85.3988 111.547C85.4136 111.532 85.425 111.514 85.4321 111.494C85.4392 111.474 85.4418 111.453 85.4398 111.432C85.4398 109.132 83.8136 107.35 83.7396 107.279C83.726 107.263 83.7092 107.251 83.6903 107.242C83.6714 107.233 83.6509 107.229 83.6301 107.229C83.6093 107.229 83.5888 107.233 83.5699 107.242C83.551 107.251 83.5342 107.263 83.5205 107.279C83.4938 107.315 83.4812 107.361 83.4851 107.406C83.4889 107.451 83.5091 107.493 83.5416 107.524C83.5575 107.54 85.1256 109.264 85.1256 111.4C85.1257 111.428 85.132 111.456 85.1441 111.482Z" fill="#EBEBEB"/>
<path d="M96.3198 67.7581C95.3457 69.2154 91.6365 74.2815 91.6365 74.2815C90.5514 73.0275 89.2605 71.4831 88.1754 70.1447C86.7393 68.3891 86.169 68.0327 85.4061 65.2871C85.216 64.598 84.6906 63.8219 84.4398 63.4074C84.0779 62.7819 83.8328 62.0957 83.7165 61.3825C83.6769 61.0314 82.7793 61.1317 82.6129 62.2643C82.5021 62.8477 82.6948 63.4232 82.6948 64.0014C82.6948 64.1783 82.7925 64.5505 82.5707 64.5294C81.2322 64.3367 80.2475 62.816 78.6477 61.7389C78.0695 61.3535 76.5911 60.9469 76.2717 61.7917C76.2453 61.995 76.3905 62.1349 76.4459 62.3197C76.4499 62.3442 76.4499 62.3691 76.4459 62.3936C76.4473 62.4823 76.4384 62.5709 76.4195 62.6576C76.3825 62.8266 76.3113 62.985 76.2769 63.1539C76.2241 63.4113 76.2556 63.6788 76.3667 63.9169C76.4714 64.084 76.5598 64.2609 76.6307 64.4449C76.5785 64.8033 76.6278 65.1692 76.7733 65.5009C76.9108 65.7917 77.0818 66.0654 77.2828 66.3167C77.3911 66.4966 77.4797 66.6878 77.5468 66.8869C77.7157 67.2082 77.936 67.4998 78.1989 67.7502C79.0471 68.6946 80.0248 69.5141 81.1029 70.1843C81.5965 70.472 82.1219 70.7123 82.5892 71.0475C82.9372 71.2935 83.2475 71.5887 83.5105 71.924C83.8292 72.3582 84.1109 72.8183 84.3527 73.2995V73.3259C86.4964 77.0456 86.6865 78.4184 88.9437 81.3647C90.8497 83.7222 92.1777 82.7216 95.0553 79.9496C98.5929 76.5414 100.486 74.5799 100.486 74.5799L101.378 63.2516C99.2872 63.9512 97.2966 66.3008 96.3198 67.7581Z" fill="#C8856A"/>
<path d="M82.7349 65.4719C82.6324 66.059 82.6686 66.662 82.8405 67.2326C83.0124 67.8033 83.3152 68.3259 83.7249 68.7587C82.5025 68.4314 82.0089 66.8553 82.7349 65.4719Z" fill="#AF6152"/>
<path d="M102.46 62.9004C100.496 63.233 98.9674 64.0092 96.4963 67.2775C94.0253 70.5458 91.6361 74.1072 91.6361 74.1072L89.6482 71.9318C90.2791 72.2962 90.1762 75.0814 89.1545 76.3433C88.5141 77.1083 87.6273 77.6263 86.6465 77.8085C87.2171 78.913 87.8619 79.9775 88.5763 80.9949C89.5874 82.3809 90.2342 82.7347 91.1002 82.7347C91.9661 82.7347 92.9165 82.2358 95.1763 80.0947C97.4362 77.9537 101.024 74.519 101.024 74.519L102.46 62.9004Z" fill="#EF233C"/>
<path opacity="0.55" d="M102.46 62.9004C100.496 63.233 98.9674 64.0092 96.4963 67.2775C94.0253 70.5458 91.6361 74.1072 91.6361 74.1072L89.6482 71.9318C90.2791 72.2962 90.1762 75.0814 89.1545 76.3433C88.5141 77.1083 87.6273 77.6263 86.6465 77.8085C87.2171 78.913 87.8619 79.9775 88.5763 80.9949C89.5874 82.3809 90.2342 82.7347 91.1002 82.7347C91.9661 82.7347 92.9165 82.2358 95.1763 80.0947C97.4362 77.9537 101.024 74.519 101.024 74.519L102.46 62.9004Z" fill="white"/>
<path opacity="0.35" d="M91.6367 74.1074C92.6927 75.269 93.4293 77.2939 93.3554 78.3314C93.7962 77.1091 93.3554 75.0288 92.0354 73.5266L91.6367 74.1074Z" fill="#EF233C"/>
<path opacity="0.35" d="M87.5108 79.2975C87.7581 79.2443 88.0002 79.1692 88.2341 79.0731C88.7124 78.8779 89.1488 78.593 89.5198 78.2335C90.2324 77.5484 90.6968 76.6456 90.8398 75.6675C90.8398 75.6173 90.9005 75.6331 90.8979 75.6675C90.8436 76.7346 90.3769 77.7388 89.5964 78.4685C89.198 78.8307 88.7374 79.1178 88.2368 79.3159C88.0339 79.3948 87.8257 79.4592 87.6137 79.5087L87.4844 79.2922L87.5108 79.2975Z" fill="#EF233C"/>
<path d="M99.1363 70.034C99.4002 64.5454 100.652 63.03 103.437 62.7212L108.03 62.238C109.395 62.5179 114.087 64.0121 115.665 64.5612C116.684 64.9124 117.123 67.0745 117.339 70.459C117.519 73.2072 117.545 75.512 117.453 79.3109C117.379 82.4974 117.299 86.1248 116.328 90.552C112.524 91.9935 101.544 90.618 97.1562 85.5994C97.5074 84.4642 98.9145 82.4129 99.1363 80.132C99.0016 75.3536 99.0518 71.7579 99.1363 70.034Z" fill="#263238"/>
<path d="M115.767 64.4899L112.335 63.2808C112.335 63.2808 111.715 64.7248 110.384 67.5048C109.054 70.2847 109.009 71.5281 108.885 76.3567C108.761 81.1852 107.876 89.6728 107.301 91.6317C109.429 91.9274 111.261 95.0109 116.736 94.0552C116.736 94.0552 117.885 88.4637 118.056 78.936C118.159 73.986 118.186 65.8838 115.767 64.4899Z" fill="#EF233C"/>
<path opacity="0.35" d="M115.767 64.4899L112.335 63.2808C112.335 63.2808 111.715 64.7248 110.384 67.5048C109.054 70.2847 109.009 71.5281 108.885 76.3567C108.761 81.1852 107.876 89.6728 107.301 91.6317C109.429 91.9274 111.261 95.0109 116.736 94.0552C116.736 94.0552 117.885 88.4637 118.056 78.936C118.159 73.986 118.186 65.8838 115.767 64.4899Z" fill="white"/>
<path d="M109.078 72.0138C109.606 67.6789 111.43 67.4545 111.85 68.8775C113.434 66.5173 113.495 64.4898 113.468 63.6793C113.038 62.9348 112.703 62.3091 112.56 62.0267C112.37 61.6571 112.154 61.7336 112.154 61.7336L112.141 62.8345C112.141 62.8345 111.877 64.0964 110.593 65.6883C109.64 66.8605 109.297 68.3574 109.078 72.0138Z" fill="#EF233C"/>
<path opacity="0.55" d="M109.078 72.0138C109.606 67.6789 111.43 67.4545 111.85 68.8775C113.434 66.5173 113.495 64.4898 113.468 63.6793C113.038 62.9348 112.703 62.3091 112.56 62.0267C112.37 61.6571 112.154 61.7336 112.154 61.7336L112.141 62.8345C112.141 62.8345 111.877 64.0964 110.593 65.6883C109.64 66.8605 109.297 68.3574 109.078 72.0138Z" fill="white"/>
<path d="M105.952 62.8742C103.998 63.6345 102.565 65.8046 102.103 68.8063C101.641 71.808 101.266 79.4693 100.941 81.7423C100.617 84.0153 99.1698 87.9569 99.1698 87.9569C99.1698 87.9569 96.7701 86.9695 96.1074 85.0872C97.2109 83.6484 98.2353 81.6552 98.4253 79.7597C98.6154 77.8641 98.4412 71.8529 98.7263 69.5481C99.0114 67.2434 99.2543 64.0649 101.984 63.0009C103.159 62.5416 105.931 62.3621 105.931 62.3621L105.952 62.8742Z" fill="#EF233C"/>
<path opacity="0.35" d="M105.952 62.8742C103.998 63.6345 102.565 65.8046 102.103 68.8063C101.641 71.808 101.266 79.4693 100.941 81.7423C100.617 84.0153 99.1698 87.9569 99.1698 87.9569C99.1698 87.9569 96.7701 86.9695 96.1074 85.0872C97.2109 83.6484 98.2353 81.6552 98.4253 79.7597C98.6154 77.8641 98.4412 71.8529 98.7263 69.5481C99.0114 67.2434 99.2543 64.0649 101.984 63.0009C103.159 62.5416 105.931 62.3621 105.931 62.3621L105.952 62.8742Z" fill="white"/>
<path d="M101.905 70.5382C102.169 68.3311 103.428 64.379 105.82 63.5738C105.911 63.3517 105.96 63.1143 105.962 62.8742L105.941 61.7258C105.225 61.9771 104.54 62.3112 103.901 62.7211C102.868 63.389 101.086 65.5221 100.627 67.2408C101.641 66.3617 102.063 67.7926 101.905 70.5382Z" fill="#EF233C"/>
<path opacity="0.55" d="M101.905 70.5382C102.169 68.3311 103.428 64.379 105.82 63.5738C105.911 63.3517 105.96 63.1143 105.962 62.8742L105.941 61.7258C105.225 61.9771 104.54 62.3112 103.901 62.7211C102.868 63.389 101.086 65.5221 100.627 67.2408C101.641 66.3617 102.063 67.7926 101.905 70.5382Z" fill="white"/>
<path d="M112.138 60.0098C112.402 58.4654 113.952 56.8602 114.651 55.5218C115.324 54.2255 115.728 53.2197 115.66 51.9974C115.617 51.274 115.166 50.2919 114.63 50.0834C115.264 47.3985 113.252 46.1392 112.183 45.8805C111.68 45.7728 111.185 45.6317 110.702 45.4581C110.121 45.2126 109.992 44.7427 109.524 44.3414C108.719 43.6523 107.357 43.6286 106.834 44.6661C106.306 43.9665 105.57 43.9823 104.722 44.1909C104.365 44.2698 104.052 44.4815 103.846 44.783C103.639 45.0845 103.555 45.4533 103.611 45.8145C102.486 45.1782 101.446 45.9676 101.34 46.6302C101.261 47.1186 101.364 47.5331 101.042 47.9687C100.678 48.4624 99.986 48.4492 99.7906 48.0506C99.6718 48.7449 99.9411 49.2755 100.693 49.2412C100.566 49.4332 100.481 49.6507 100.446 49.8787C100.411 50.1067 100.426 50.3397 100.49 50.5612C100.58 50.84 100.752 51.085 100.984 51.2637C101.216 51.4424 101.497 51.5463 101.789 51.5618C101.866 51.9446 101.881 52.293 102.119 52.6178C102.344 52.9533 102.646 53.2296 103.001 53.423C104.139 53.9721 105.401 54.1542 106.628 54.4156L108.085 54.7245C108.17 54.743 108.613 54.772 108.661 54.8459L112.138 60.0098Z" fill="#263238"/>
<path d="M114.017 58.0193C112.929 58.6634 112.195 57.9586 112.195 57.9586L112.132 63.03C111.274 65.2054 107.837 66.293 105.925 66.2297C105.628 65.1297 105.637 63.9694 105.952 62.8742L105.931 61.4777C105.313 61.4865 104.696 61.4565 104.083 61.3879C102.874 61.2163 101.971 60.229 101.628 58.9142C101.252 57.2048 101.21 55.4389 101.503 53.7134C101.588 53.2948 101.612 52.8664 101.575 52.441C101.464 51.3137 101.67 50.659 101.965 49.7138C103.304 48.6578 106.39 48.2962 109.257 50.057C108.917 51.7678 109.574 53.1274 110.817 53.7847C110.757 54.2467 110.693 55.4136 111.451 55.3951C112 55.3819 112.04 54.6955 112.605 54.0936C113.17 53.4917 114.479 53.3359 114.981 54.2309C115.696 55.4796 115.213 57.3144 114.017 58.0193Z" fill="#C8856A"/>
<path d="M105.932 61.4777C107.854 61.2612 109.313 61.058 110.322 59.672C110.792 58.9582 111.184 58.1962 111.491 57.3989C111.491 57.3989 111.288 59.0991 110.655 60.2501C110.166 61.1372 108.954 61.8711 105.94 62.1166L105.932 61.4777Z" fill="#AF6152"/>
<path d="M106.897 54.0382C106.902 54.1443 106.939 54.2465 107.003 54.3318C107.066 54.4171 107.153 54.4819 107.253 54.518C107.353 54.5541 107.462 54.56 107.565 54.5348C107.668 54.5097 107.762 54.4547 107.834 54.3767C107.906 54.2987 107.954 54.2011 107.971 54.0961C107.988 53.9912 107.974 53.8836 107.931 53.7866C107.887 53.6897 107.816 53.6078 107.726 53.5511C107.636 53.4944 107.531 53.4655 107.425 53.4679C107.28 53.4748 107.143 53.5384 107.044 53.645C106.945 53.7517 106.892 53.8929 106.897 54.0382Z" fill="#263238"/>
<path d="M107.053 52.272L108.275 52.7763C108.339 52.6089 108.336 52.4234 108.267 52.2582C108.197 52.0931 108.067 51.9609 107.903 51.8892C107.822 51.8572 107.736 51.8417 107.649 51.8437C107.562 51.8457 107.476 51.8651 107.397 51.9008C107.318 51.9365 107.246 51.9877 107.187 52.0515C107.128 52.1153 107.082 52.1903 107.053 52.272Z" fill="#263238"/>
<path d="M102.391 52.602L103.64 52.1452C103.614 52.0622 103.572 51.9853 103.516 51.9192C103.46 51.8531 103.39 51.7993 103.312 51.7609C103.235 51.7226 103.15 51.7006 103.063 51.6963C102.976 51.6921 102.889 51.7056 102.808 51.736C102.641 51.7992 102.504 51.9244 102.426 52.0856C102.349 52.2468 102.336 52.4317 102.391 52.602Z" fill="#263238"/>
<path d="M102.698 53.8716C102.714 53.9727 102.76 54.0667 102.829 54.1422C102.898 54.2177 102.988 54.2715 103.087 54.2971C103.186 54.3227 103.29 54.3188 103.387 54.2861C103.484 54.2534 103.57 54.1932 103.633 54.1128C103.697 54.0324 103.735 53.9354 103.745 53.8334C103.754 53.7315 103.733 53.629 103.685 53.5386C103.637 53.4481 103.564 53.3735 103.475 53.3239C103.385 53.2743 103.283 53.2518 103.181 53.2592C103.109 53.267 103.039 53.2892 102.975 53.3243C102.912 53.3595 102.856 53.407 102.811 53.464C102.766 53.521 102.733 53.5865 102.713 53.6565C102.694 53.7264 102.689 53.7996 102.698 53.8716Z" fill="#263238"/>
<path d="M103.461 55.8597L105.338 56.7019L105.932 53.0059C105.232 52.763 104.327 54.4552 103.461 55.8597Z" fill="#AF6152"/>
<path d="M107.101 57.4753L104.836 57.9505C104.86 58.1015 104.915 58.246 104.996 58.3754C105.078 58.5048 105.185 58.6163 105.311 58.7033C105.436 58.7904 105.578 58.8511 105.728 58.8819C105.878 58.9127 106.032 58.9129 106.182 58.8825C106.487 58.8116 106.753 58.6257 106.924 58.3635C107.096 58.1013 107.159 57.7831 107.101 57.4753Z" fill="#AF6152"/>
<path d="M106.826 57.8424C106.919 57.8318 107.013 57.8318 107.106 57.8424C107.078 58.0893 106.974 58.3214 106.809 58.5067C106.643 58.6921 106.424 58.8215 106.182 58.8773C106.06 58.897 105.935 58.897 105.812 58.8773C105.818 58.6081 105.926 58.351 106.114 58.1586C106.302 57.9662 106.557 57.8531 106.826 57.8424Z" fill="#FFA8A7"/>
<path opacity="0.15" d="M83.6582 95.016C83.8155 94.7791 84.0008 94.5619 84.21 94.3692C86.322 92.4156 90.282 89.8311 93.6612 87.6821L108.997 96.5393C109.018 96.5519 109.036 96.5699 109.048 96.5914C109.061 96.6129 109.067 96.6373 109.067 96.6621C109.067 96.6869 109.061 96.7112 109.048 96.7328C109.036 96.7543 109.018 96.7722 108.997 96.7848L97.8588 103.224L83.6582 95.016Z" fill="black"/>
<path d="M79.0078 90.5122V90.7604C79.0077 90.9395 79.0548 91.1155 79.1442 91.2707C79.2336 91.426 79.3623 91.555 79.5173 91.6448L97.3479 101.941C97.5033 102.029 97.6788 102.075 97.8574 102.075C98.0372 102.076 98.2139 102.028 98.3696 101.938L108.09 96.344C108.244 96.2543 108.372 96.1256 108.461 95.9708C108.55 95.8161 108.597 95.6407 108.597 95.4622V95.119C108.597 95.142 108.591 95.1646 108.579 95.1846C108.567 95.2045 108.551 95.221 108.531 95.2325L97.8574 101.397L79.0078 90.5122Z" fill="#37474F"/>
<path d="M97.8581 101.397V102.075C97.6795 102.075 97.504 102.029 97.3486 101.941L79.518 91.6448C79.3625 91.5553 79.2333 91.4265 79.1434 91.2712C79.0535 91.116 79.0061 90.9398 79.0059 90.7604V90.5122L97.8581 101.397Z" fill="#263238"/>
<path d="M79.0059 90.5121L89.5791 84.4084C89.6719 84.3552 89.777 84.3271 89.884 84.3271C89.991 84.3271 90.0961 84.3552 90.1889 84.4084L108.532 95.0001C108.552 95.0124 108.569 95.0296 108.58 95.0502C108.592 95.0707 108.598 95.094 108.598 95.1176C108.598 95.1412 108.592 95.1645 108.58 95.185C108.569 95.2056 108.552 95.2229 108.532 95.2351L97.8581 101.397L79.0059 90.5121Z" fill="#455A64"/>
<path d="M97.9559 100.499L103.658 97.2099L86.9841 87.5818L81.25 90.8554L97.9559 100.499Z" fill="#37474F"/>
<path d="M81.25 90.8554L81.4691 90.9795L86.9841 87.8326L103.439 97.3366L103.658 97.2099L86.9841 87.5818L81.25 90.8554Z" fill="#263238"/>
<path d="M100.759 91.3491L100.653 91.4099L97.8573 93.0229L92.8862 90.1532L92.7832 90.0951L95.6846 88.4214L100.759 91.3491Z" fill="#263238"/>
<path d="M100.654 91.4097L97.8578 93.0228L92.8867 90.1531L95.6851 88.54L100.654 91.4097Z" fill="#37474F"/>
<path d="M95.1411 92.5635C96.0361 91.6765 97.3323 90.4515 98.4227 90.0872C98.6731 89.9902 98.9298 89.91 99.1909 89.847C98.8126 89.797 98.4378 89.7229 98.0689 89.6252C97.6994 89.5124 97.3709 89.294 97.1238 88.9969C97.0287 88.8755 96.9601 88.6801 97.0815 88.5824C97.1258 88.5468 97.1805 88.5264 97.2373 88.5244C98.0531 88.5006 98.6972 88.3739 99.4391 88.3184C99.7714 88.2715 100.109 88.2778 100.44 88.3369C100.743 88.4214 101.047 88.5085 101.345 88.6009C102.702 89.0708 103.985 88.9441 105.854 88.0888C107.723 87.2334 114.471 83.0728 114.471 83.0728L113.04 90.9928L107.713 93.0625L107.657 93.0836C107.232 93.242 106.847 93.5747 105.828 93.8888C104.619 94.2584 103.074 93.8202 102.024 93.7648C100.973 93.7093 99.1856 94.1951 98.2088 94.5884C97.232 94.9818 96.0678 93.4849 95.5688 93.6644C95.0699 93.844 94.2488 93.4559 95.1411 92.5635Z" fill="#C8856A"/>
<path d="M99.6424 89.2688C100.149 89.246 100.655 89.3287 101.129 89.5116C100.471 89.5432 99.8206 89.6558 99.1909 89.8469C98.8126 89.7969 98.4378 89.7229 98.0689 89.6252C97.7439 89.5224 97.4492 89.3411 97.2109 89.0972C97.797 89.4958 98.9349 89.3427 99.6424 89.2688Z" fill="#AF6152"/>
<path d="M97.5703 101.547C97.4019 101.613 97.2212 101.639 97.0412 101.626C96.8613 101.612 96.6867 101.558 96.5301 101.468L78.7761 91.2172C78.6222 91.1282 78.4899 91.0064 78.3886 90.8603C78.2873 90.7143 78.2195 90.5477 78.19 90.3724L76.2444 78.7801C76.2338 78.7146 76.2285 78.6484 76.2285 78.5821C76.2289 78.2602 76.3571 77.9516 76.5849 77.7241L95.0412 88.3792C95.1548 88.4447 95.2525 88.5345 95.3274 88.6422C95.4022 88.7499 95.4523 88.8729 95.4741 89.0022L97.5703 101.547Z" fill="#263238"/>
<path d="M97.8579 101.397L97.7365 101.468C97.6826 101.498 97.627 101.524 97.5701 101.547L95.4581 89.0021C95.4364 88.8728 95.3863 88.7499 95.3114 88.6422C95.2366 88.5344 95.1388 88.4446 95.0252 88.3791L76.5742 77.7241C76.649 77.6517 76.7323 77.5887 76.8224 77.5366L95.3024 88.2101C95.416 88.2764 95.5136 88.3667 95.5884 88.4748C95.6633 88.5829 95.7134 88.7062 95.7353 88.8358L97.8579 101.397Z" fill="#455A64"/>
<path d="M95.3047 88.6141L95.5898 88.4504C95.6766 88.5633 95.7346 88.6956 95.7588 88.8359L97.8708 101.397L97.7493 101.468C97.6954 101.498 97.6399 101.524 97.583 101.547L95.471 89.0022C95.4471 88.8615 95.3901 88.7285 95.3047 88.6141Z" fill="#37474F"/>
<path d="M87.573 90.8474C87.441 90.0712 86.6411 89.0416 85.7831 88.5453C84.9251 88.049 84.3337 88.2813 84.4631 89.0522C84.5924 89.8231 85.395 90.8606 86.253 91.3543C87.111 91.8479 87.7023 91.6235 87.573 90.8474Z" fill="#EF233C"/>
<path d="M109.297 86.7819C112.14 84.7227 114.482 83.0859 114.482 83.0859L113.669 74.3475C113.669 74.3475 113.054 70.0258 114.028 67.5786C115.039 65.0415 116.037 64.6746 116.037 64.6746C117.03 65.0393 117.959 65.5607 118.788 66.219C119.889 67.1826 120.414 69.4213 120.681 72.5787C120.913 75.3507 121.351 82.3018 121.42 83.9307C121.51 85.9899 121.42 87.6426 119.234 88.6378C116.934 89.6938 110.041 92.0434 110.041 92.0434L109.297 86.7819Z" fill="#C8856A"/>
<path d="M115.768 64.4897C118.004 65.2052 119.145 65.617 120.09 68.2359C121.035 70.8548 121.001 75.6649 121.288 79.5193C121.576 83.3737 121.79 85.8896 121.172 87.1066C120.834 87.7745 120.217 88.387 118.004 89.2186C115.792 90.0502 113.661 90.8026 113.661 90.8026C113.661 90.8026 113.45 87.397 111.021 85.1055L114.358 83.0753C114.358 83.0753 113.59 75.2055 113.405 73.0433C113.221 70.8812 112.994 66.3536 115.768 64.4897Z" fill="#EF233C"/>
<path opacity="0.55" d="M115.768 64.4897C118.004 65.2052 119.145 65.617 120.09 68.2359C121.035 70.8548 121.001 75.6649 121.288 79.5193C121.576 83.3737 121.79 85.8896 121.172 87.1066C120.834 87.7745 120.217 88.387 118.004 89.2186C115.792 90.0502 113.661 90.8026 113.661 90.8026C113.661 90.8026 113.45 87.397 111.021 85.1055L114.358 83.0753C114.358 83.0753 113.59 75.2055 113.405 73.0433C113.221 70.8812 112.994 66.3536 115.768 64.4897Z" fill="white"/>
<path opacity="0.35" d="M114.355 83.0887C115.659 82.4735 118.251 83.0279 118.806 83.4952C118.146 82.3547 116.382 81.9455 114.268 82.2095L114.355 83.0887Z" fill="#EF233C"/>
<path opacity="0.35" d="M113.521 85.4618C113.923 85.7574 114.249 86.1448 114.471 86.5917C114.703 87.0073 114.881 87.4509 114.999 87.9117C115.137 88.4441 115.212 88.9908 115.224 89.5406C115.236 89.7754 115.236 90.0107 115.224 90.2455L114.976 90.3353C115.046 89.5503 114.981 88.7591 114.783 87.9962C114.658 87.5417 114.481 87.1032 114.255 86.6894C114.013 86.2831 113.749 85.8909 113.463 85.5146C113.471 85.5014 113.476 85.4381 113.521 85.4618Z" fill="#EF233C"/>
<path d="M109.727 36.8175L110.917 34.5814L109.959 31.82V30.1304L112.887 31.82V33.5122L111.627 35.6902C111.608 35.7241 111.579 35.7509 111.543 35.7668L109.727 36.8175Z" fill="#EF233C"/>
<path opacity="0.3" d="M109.727 36.8175L110.917 34.5814L109.959 31.82V30.1304L112.887 31.82V33.5122L111.627 35.6902C111.608 35.7241 111.579 35.7509 111.543 35.7668L109.727 36.8175Z" fill="black"/>
<path d="M104.473 17.7117C104.489 17.4077 104.577 17.1118 104.73 16.8481C104.882 16.5844 105.094 16.3602 105.349 16.1937L106.065 15.7792C106.337 15.6412 106.637 15.5693 106.942 15.5693C107.247 15.5693 107.548 15.6412 107.82 15.7792L116.725 20.9114C116.981 21.0789 117.194 21.3048 117.347 21.5705C117.499 21.8361 117.586 22.1341 117.601 22.44V34.4995C117.585 34.8039 117.497 35.1002 117.345 35.3644C117.192 35.6286 116.98 35.8532 116.725 36.0201L116.009 36.432C115.737 36.5699 115.437 36.6419 115.132 36.6419C114.827 36.6419 114.526 36.5699 114.254 36.432L111.049 34.584L109.792 36.7593C109.774 36.7908 109.748 36.8164 109.716 36.8332C109.684 36.8499 109.648 36.8571 109.612 36.8537C109.576 36.8504 109.541 36.8367 109.513 36.8143C109.485 36.7919 109.463 36.7618 109.452 36.7276L108.132 32.8944L105.354 31.3104C105.099 31.1434 104.887 30.9188 104.735 30.6546C104.582 30.3905 104.494 30.0942 104.478 29.7897L104.473 17.7117Z" fill="#EF233C"/>
<path opacity="0.3" d="M117.601 34.489C117.585 34.7934 117.497 35.0897 117.345 35.3539C117.192 35.6181 116.98 35.8427 116.725 36.0096L116.009 36.432C115.762 36.5564 115.491 36.627 115.214 36.6393C114.938 36.6516 114.662 36.6052 114.404 36.5033C114.819 36.659 115.133 36.4267 115.133 35.9251V23.8577C115.12 23.5513 115.029 23.2533 114.869 22.9918L117.34 21.5662C117.5 21.8266 117.591 22.1239 117.604 22.4294L117.601 34.489Z" fill="black"/>
<path opacity="0.3" d="M104.502 17.4636C104.605 17.0914 104.943 16.9726 105.349 17.1996L114.254 22.3318C114.515 22.492 114.729 22.7178 114.875 22.9865L117.343 21.5609C117.196 21.294 116.983 21.0688 116.725 20.9062L107.823 15.7793C107.55 15.6425 107.249 15.5713 106.944 15.5713C106.639 15.5713 106.338 15.6425 106.065 15.7793L105.349 16.1938C105.13 16.3372 104.941 16.5236 104.796 16.7419C104.65 16.9601 104.55 17.2057 104.502 17.4636Z" fill="white"/>
<path d="M106.583 22.1127C106.66 24.3461 107.161 28.7787 109.946 31.4609C111.903 30.4049 112.85 27.3293 112.784 25.4285C112.781 25.3397 112.746 25.2551 112.684 25.1909C112.636 25.1409 112.579 25.1013 112.515 25.0748C111.665 24.7316 110.356 23.2901 109.717 21.846C109.672 21.7431 109.606 21.7114 109.537 21.7457C109.514 21.7601 109.494 21.7779 109.476 21.7985V21.8117C108.875 22.5615 107.644 22.6037 106.802 22.0018C106.739 21.9569 106.686 21.9437 106.652 21.9622C106.594 21.9912 106.578 22.0388 106.583 22.1127Z" fill="#FAFAFA"/>
</g>
<defs>
<clipPath id="clip0_1787_9390">
<rect width="132" height="132" fill="white"/>
</clipPath>
</defs>
</svg>
