<svg width="116" height="116" viewBox="0 0 116 116" fill="none" xmlns="http://www.w3.org/2000/svg">
<path d="M110.255 70.2195C106.798 79.5598 99.7407 89.6703 89.8064 92.6655C74.7961 97.1895 73.0027 109.402 46.1185 108.27C42.1921 108.123 38.2936 107.546 34.493 106.548C32.6343 106.055 30.8093 105.442 29.0294 104.713C13.323 98.2915 5.13341 84.158 4.44901 69.3703C3.55117 49.9195 16.9956 40.6487 25.7327 35.2199C34.4698 29.7911 45.0073 8.75803 71.4367 9.66051C75.4743 9.78243 79.484 10.3741 83.3847 11.4237C92.2819 13.8527 101.325 19.2305 106.585 27.0883C106.979 27.6807 107.356 28.2839 107.715 28.8979C114.742 40.9434 114.965 57.4827 110.255 70.2195Z" fill="#EF233C"/>
<path opacity="0.7" d="M110.255 70.2195C106.798 79.5598 99.7407 89.6703 89.8064 92.6655C74.7961 97.1895 73.0027 109.402 46.1185 108.27C42.1921 108.123 38.2936 107.546 34.493 106.548C32.6343 106.055 30.8093 105.442 29.0294 104.713C13.323 98.2915 5.13341 84.158 4.44901 69.3703C3.55117 49.9195 16.9956 40.6487 25.7327 35.2199C34.4698 29.7911 45.0073 8.75803 71.4367 9.66051C75.4743 9.78243 79.484 10.3741 83.3847 11.4237C92.2819 13.8527 101.325 19.2305 106.585 27.0883C106.979 27.6807 107.356 28.2839 107.715 28.8979C114.742 40.9434 114.965 57.4827 110.255 70.2195Z" fill="white"/>
<path opacity="0.3" d="M109.735 11.6C109.485 11.6006 109.242 11.6795 109.039 11.8256C108.837 11.9716 108.685 12.1775 108.605 12.4144H50.0115C49.9205 12.1449 49.7367 11.9166 49.4929 11.7702C49.2492 11.6237 48.9613 11.5686 48.6807 11.6148C48.4 11.6609 48.1449 11.8052 47.9609 12.022C47.7768 12.2388 47.6758 12.5139 47.6758 12.7983C47.6758 13.0827 47.7768 13.3578 47.9609 13.5746C48.1449 13.7914 48.4 13.9357 48.6807 13.9819C48.9613 14.028 49.2492 13.9729 49.4929 13.8265C49.7367 13.68 49.9205 13.4517 50.0115 13.1823H108.594C108.665 13.3904 108.791 13.5749 108.96 13.7158C109.128 13.8567 109.333 13.9485 109.55 13.981C109.767 14.0136 109.989 13.9857 110.192 13.9004C110.394 13.8151 110.57 13.6757 110.698 13.4975C110.827 13.3193 110.904 13.1091 110.921 12.89C110.938 12.6709 110.894 12.4514 110.795 12.2554C110.695 12.0594 110.544 11.8946 110.357 11.779C110.17 11.6634 109.955 11.6015 109.735 11.6Z" fill="black"/>
<g opacity="0.3">
<path d="M63.8681 13.4073C64.7033 33.7166 65.4341 54.2208 66.3088 74.4558L66.2229 78.423C66.2229 78.423 62.4669 78.423 60.4902 78.6202C58.5136 78.8174 55.4512 78.8174 53.2773 78.8174C51.1035 78.8174 49.918 78.0286 49.918 78.0286L50.0595 74.4512C50.498 54.2254 50.9712 33.7189 51.2798 13.4073" stroke="black" stroke-linecap="round" stroke-linejoin="round"/>
<path d="M54.5077 71.0989L54.4961 73.4908" stroke="black" stroke-linecap="round" stroke-linejoin="round"/>
<path d="M54.7144 24.5062L54.5195 68.976" stroke="black" stroke-linecap="round" stroke-linejoin="round"/>
<path d="M54.7651 12.9573L54.7188 23.1792" stroke="black" stroke-linecap="round" stroke-linejoin="round"/>
<path d="M58.129 36.3174L57.6836 65.9252" stroke="black" stroke-linecap="round" stroke-linejoin="round"/>
<path d="M58.4803 13.2241L58.1602 34.466" stroke="black" stroke-linecap="round" stroke-linejoin="round"/>
<path d="M61.2773 44.551L61.4026 72.0314" stroke="black" stroke-linecap="round" stroke-linejoin="round"/>
<path d="M61.1875 25.0375L61.2664 42.296" stroke="black" stroke-linecap="round" stroke-linejoin="round"/>
<path d="M61.1367 13.4885L61.1808 22.9147" stroke="black" stroke-linecap="round" stroke-linejoin="round"/>
</g>
<g opacity="0.3">
<path d="M94.1758 13.4073C93.3731 34.9114 92.35 56.6313 91.582 78.0217C92.9736 78.2352 94.3765 78.3669 95.7835 78.4161H104.168C105.472 78.3877 106.772 78.2534 108.054 78.0147C107.676 56.6382 107.421 34.9184 106.757 13.4143" stroke="black" stroke-linecap="round" stroke-linejoin="round"/>
<path d="M103.535 71.0989L103.544 73.4908" stroke="black" stroke-linecap="round" stroke-linejoin="round"/>
<path d="M103.332 24.5062L103.527 68.976" stroke="black" stroke-linecap="round" stroke-linejoin="round"/>
<path d="M103.281 12.9573L103.325 23.1792" stroke="black" stroke-linecap="round" stroke-linejoin="round"/>
<path d="M99.9141 36.3174L100.362 65.9252" stroke="black" stroke-linecap="round" stroke-linejoin="round"/>
<path d="M99.5664 13.2241L99.8866 34.466" stroke="black" stroke-linecap="round" stroke-linejoin="round"/>
<path d="M96.7698 44.551L96.6445 72.0314" stroke="black" stroke-linecap="round" stroke-linejoin="round"/>
<path d="M96.8562 25.0375L96.7773 42.296" stroke="black" stroke-linecap="round" stroke-linejoin="round"/>
<path d="M96.9089 13.4885L96.8672 22.9147" stroke="black" stroke-linecap="round" stroke-linejoin="round"/>
</g>
<g opacity="0.3">
<path d="M64.2383 19.1794H70.1334V26.0582H64.6327" stroke="black" stroke-linecap="round" stroke-linejoin="round"/>
<path d="M77.326 19.1957H71.1641V26.0954H77.326V19.1957Z" stroke="black" stroke-linecap="round" stroke-linejoin="round"/>
</g>
<g opacity="0.3">
<path d="M93.8857 19.1794H87.9883V26.0582H93.4913" stroke="black" stroke-linecap="round" stroke-linejoin="round"/>
<path d="M80.7951 26.0953H86.957V19.1957H80.7951V26.0953Z" stroke="black" stroke-linecap="round" stroke-linejoin="round"/>
</g>
<path opacity="0.3" d="M65.2163 50.4345H77.4868V29.812H64.6758" stroke="black" stroke-linecap="round" stroke-linejoin="round"/>
<path opacity="0.3" d="M93.2623 29.6379H80.7227V50.4344H92.318" stroke="black" stroke-linecap="round" stroke-linejoin="round"/>
<path opacity="0.3" d="M65.6172 55.3274H77.484V76.0566H66.515" stroke="black" stroke-linecap="round" stroke-linejoin="round"/>
<path opacity="0.3" d="M92.4526 55.1533H80.7227V76.2491H91.4179" stroke="black" stroke-linecap="round" stroke-linejoin="round"/>
<path opacity="0.3" d="M66.4609 77.5669H91.5796" stroke="black" stroke-linecap="round" stroke-linejoin="round"/>
<path opacity="0.3" d="M64.1914 16.7922H93.8665" stroke="black" stroke-linecap="round" stroke-linejoin="round"/>
<path opacity="0.3" d="M79.1016 16.9337V77.2816" stroke="black" stroke-linecap="round" stroke-linejoin="round"/>
<path opacity="0.3" d="M64.5664 28.2183H93.4342" stroke="black" stroke-linecap="round" stroke-linejoin="round"/>
<path d="M97.2383 64.3081L100.359 94.192" stroke="#263238" stroke-width="2" stroke-linecap="round" stroke-linejoin="round"/>
<path d="M99.9483 89.3385L98.4844 87.791" stroke="#263238" stroke-width="2" stroke-linecap="round" stroke-linejoin="round"/>
<path d="M98.9287 88.2551C98.9258 88.0186 98.8724 87.7855 98.7719 87.5714C98.6715 87.3573 98.5264 87.1672 98.3463 87.0139C97.9705 86.6775 95.9915 85.8539 95.7943 86.5499C95.5995 87.2992 97.6248 88.7887 98.9287 88.2551Z" fill="#EF233C" stroke="#263238" stroke-linecap="round" stroke-linejoin="round"/>
<path d="M98.9268 88.255L97.043 87.0811" stroke="#263238" stroke-width="0.5" stroke-linecap="round" stroke-linejoin="round"/>
<path d="M100.315 92.8579L98.8516 91.3127" stroke="#263238" stroke-width="2" stroke-linecap="round" stroke-linejoin="round"/>
<path d="M99.2962 91.7746C99.2933 91.5381 99.2399 91.305 99.1394 91.0909C99.039 90.8768 98.8939 90.6867 98.7138 90.5334C98.338 90.197 96.359 89.3734 96.1618 90.0694C95.9646 90.8187 97.99 92.3082 99.2962 91.7746Z" fill="#EF233C" stroke="#263238" stroke-linecap="round" stroke-linejoin="round"/>
<path d="M99.294 91.7745L97.4102 90.6006" stroke="#263238" stroke-width="0.5" stroke-linecap="round" stroke-linejoin="round"/>
<path d="M99.0499 80.7476L97.5859 79.2002" stroke="#263238" stroke-width="2" stroke-linecap="round" stroke-linejoin="round"/>
<path d="M98.0321 79.6641C98.0293 79.4257 97.975 79.1908 97.8728 78.9753C97.7707 78.7599 97.6233 78.5691 97.4405 78.416C97.0647 78.0796 95.088 77.256 94.9001 77.952C94.7029 78.7083 96.726 80.1977 98.0321 79.6641Z" fill="#EF233C" stroke="#263238" stroke-linecap="round" stroke-linejoin="round"/>
<path d="M98.0323 79.6642L96.1484 78.4902" stroke="#263238" stroke-width="0.5" stroke-linecap="round" stroke-linejoin="round"/>
<path d="M99.417 84.2694L97.9531 82.7219" stroke="#263238" stroke-width="2" stroke-linecap="round" stroke-linejoin="round"/>
<path d="M98.4013 83.1858C98.3984 82.9491 98.3449 82.7156 98.2445 82.5012C98.144 82.2867 97.999 82.0962 97.819 81.9423C97.4432 81.6059 95.4642 80.7823 95.267 81.4783C95.0721 82.23 97.0975 83.7171 98.4013 83.1858Z" fill="#EF233C" stroke="#263238" stroke-linecap="round" stroke-linejoin="round"/>
<path d="M98.3995 83.1859L96.5156 82.012" stroke="#263238" stroke-width="0.5" stroke-linecap="round" stroke-linejoin="round"/>
<path d="M98.4545 75.0288L96.9883 73.4836" stroke="#263238" stroke-width="2" stroke-linecap="round" stroke-linejoin="round"/>
<path d="M97.4413 73.9452C97.4385 73.7088 97.385 73.4757 97.2846 73.2616C97.1841 73.0475 97.039 72.8574 96.859 72.704C96.4831 72.3676 94.5042 71.544 94.307 72.24C94.1051 72.9894 96.1305 74.4719 97.4413 73.9452Z" fill="#EF233C" stroke="#263238" stroke-linecap="round" stroke-linejoin="round"/>
<path d="M97.4346 73.9454L95.5508 72.7715" stroke="#263238" stroke-width="0.5" stroke-linecap="round" stroke-linejoin="round"/>
<path d="M97.8545 69.2867L96.3906 67.7393" stroke="#263238" stroke-width="2" stroke-linecap="round" stroke-linejoin="round"/>
<path d="M96.8361 68.2078C96.8331 67.971 96.7796 67.7376 96.6792 67.5232C96.5788 67.3087 96.4337 67.1182 96.2538 66.9643C95.8779 66.6279 93.899 65.8043 93.7018 66.5003C93.4976 67.2473 95.5322 68.7344 96.8361 68.2078Z" fill="#EF233C" stroke="#263238" stroke-linecap="round" stroke-linejoin="round"/>
<path d="M96.837 68.2032L94.9531 67.0293" stroke="#263238" stroke-width="0.5" stroke-linecap="round" stroke-linejoin="round"/>
<path d="M99.7031 87.255L100.817 85.4385" stroke="#263238" stroke-width="2" stroke-linecap="round" stroke-linejoin="round"/>
<path d="M100.477 85.9838C100.431 85.752 100.435 85.513 100.489 85.2828C100.543 85.0527 100.646 84.8368 100.79 84.6498C101.09 84.2438 102.853 83.0258 103.18 83.6638C103.537 84.3622 101.862 86.2367 100.477 85.9838Z" fill="#EF233C" stroke="#263238" stroke-linecap="round" stroke-linejoin="round"/>
<path d="M100.477 85.9862L102.172 84.3645" stroke="#263238" stroke-width="0.5" stroke-linecap="round" stroke-linejoin="round"/>
<path d="M98.7344 77.9914L99.848 76.1748" stroke="#263238" stroke-width="2" stroke-linecap="round" stroke-linejoin="round"/>
<path d="M99.5079 76.7199C99.4622 76.4881 99.4665 76.2492 99.5205 76.0191C99.5745 75.7891 99.677 75.5732 99.8211 75.3859C100.12 74.9799 101.884 73.7619 102.213 74.3999C102.568 75.0983 100.895 76.9728 99.5079 76.7199Z" fill="#EF233C" stroke="#263238" stroke-linecap="round" stroke-linejoin="round"/>
<path d="M99.5078 76.7199L101.204 75.1006" stroke="#263238" stroke-width="0.5" stroke-linecap="round" stroke-linejoin="round"/>
<path d="M98.3086 73.9197L99.4222 72.1055" stroke="#263238" stroke-width="2" stroke-linecap="round" stroke-linejoin="round"/>
<path d="M99.0828 72.6507C99.0365 72.4185 99.0405 72.1791 99.0945 71.9486C99.1485 71.7181 99.2513 71.5018 99.396 71.3144C99.6953 70.9084 101.458 69.6904 101.786 70.3284C102.143 71.0267 100.468 72.9013 99.0828 72.6507Z" fill="#EF233C" stroke="#263238" stroke-linecap="round" stroke-linejoin="round"/>
<path d="M99.0859 72.6507L100.782 71.0291" stroke="#263238" stroke-width="0.5" stroke-linecap="round" stroke-linejoin="round"/>
<path d="M97.6875 67.9528L98.8011 66.1362" stroke="#263238" stroke-width="2" stroke-linecap="round" stroke-linejoin="round"/>
<path d="M98.4617 66.6815C98.4154 66.4493 98.4194 66.2099 98.4734 65.9794C98.5274 65.7488 98.6302 65.5326 98.7749 65.3452C99.0719 64.9392 100.837 63.7212 101.165 64.3592C101.519 65.0598 99.8467 66.9344 98.4617 66.6815Z" fill="#EF233C" stroke="#263238" stroke-linecap="round" stroke-linejoin="round"/>
<path d="M98.4609 66.6813L100.157 65.0596" stroke="#263238" stroke-width="0.5" stroke-linecap="round" stroke-linejoin="round"/>
<path d="M97.2078 64.1363C97.1615 63.9041 97.1655 63.6647 97.2195 63.4342C97.2735 63.2037 97.3763 62.9874 97.521 62.8C97.8203 62.394 99.5835 61.176 99.9106 61.814C100.27 62.5146 98.5998 64.3892 97.2078 64.1363Z" fill="#EF233C" stroke="#263238" stroke-linecap="round" stroke-linejoin="round"/>
<path d="M97.2109 64.1363L98.9069 62.5146" stroke="#263238" stroke-width="0.5" stroke-linecap="round" stroke-linejoin="round"/>
<path d="M97.3107 64.206C97.0751 64.2272 96.8377 64.1979 96.6145 64.1198C96.3912 64.0418 96.1872 63.9169 96.0161 63.7536C95.6426 63.4149 94.6125 61.531 95.2853 61.2735C96.0184 60.9928 97.7074 62.8534 97.3107 64.206Z" fill="#EF233C" stroke="#263238" stroke-linecap="round" stroke-linejoin="round"/>
<path d="M97.3088 64.2059L95.875 62.3499" stroke="#263238" stroke-width="0.5" stroke-linecap="round" stroke-linejoin="round"/>
<path d="M105.76 68.5698L103.09 94.3033" stroke="#263238" stroke-width="2" stroke-linecap="round" stroke-linejoin="round"/>
<path d="M103.257 93.6234L102.141 91.8069" stroke="#263238" stroke-width="2" stroke-linecap="round" stroke-linejoin="round"/>
<path d="M102.484 92.3523C102.53 92.1203 102.526 91.8812 102.471 91.6511C102.417 91.421 102.314 91.2052 102.169 91.0183C101.87 90.6123 100.106 89.3943 99.7793 90.0323C99.422 90.7329 101.097 92.6051 102.484 92.3523Z" fill="#EF233C" stroke="#263238" stroke-linecap="round" stroke-linejoin="round"/>
<path d="M102.482 92.3522L100.879 90.8164" stroke="#263238" stroke-width="0.5" stroke-linecap="round" stroke-linejoin="round"/>
<path d="M104.147 85.0326L103.031 83.2161" stroke="#263238" stroke-width="2" stroke-linecap="round" stroke-linejoin="round"/>
<path d="M103.375 83.7519C103.421 83.5199 103.416 83.2808 103.362 83.0507C103.307 82.8207 103.204 82.6049 103.06 82.4179C102.76 82.0119 100.997 80.7939 100.67 81.4319C100.313 82.1418 101.988 84.0141 103.375 83.7519Z" fill="#EF233C" stroke="#263238" stroke-linecap="round" stroke-linejoin="round"/>
<path d="M103.374 83.7612L101.773 82.2253" stroke="#263238" stroke-width="0.5" stroke-linecap="round" stroke-linejoin="round"/>
<path d="M103.782 88.552L102.668 86.7378" stroke="#263238" stroke-width="2" stroke-linecap="round" stroke-linejoin="round"/>
<path d="M103.008 87.2828C103.054 87.0507 103.05 86.8112 102.996 86.5807C102.942 86.3502 102.839 86.1339 102.695 85.9465C102.395 85.5405 100.63 84.3225 100.303 84.9628C99.9456 85.6612 101.616 87.5357 103.008 87.2828Z" fill="#EF233C" stroke="#263238" stroke-linecap="round" stroke-linejoin="round"/>
<path d="M103.007 87.2829L101.406 85.7471" stroke="#263238" stroke-width="0.5" stroke-linecap="round" stroke-linejoin="round"/>
<path d="M104.741 79.3139L103.625 77.4973" stroke="#263238" stroke-width="2" stroke-linecap="round" stroke-linejoin="round"/>
<path d="M103.969 78.0424C104.014 77.8104 104.01 77.5714 103.955 77.3413C103.901 77.1112 103.798 76.8954 103.653 76.7084C103.354 76.3024 101.591 75.0844 101.264 75.7224C100.906 76.4231 102.581 78.2953 103.969 78.0424Z" fill="#EF233C" stroke="#263238" stroke-linecap="round" stroke-linejoin="round"/>
<path d="M103.966 78.0424L102.363 76.5066" stroke="#263238" stroke-width="0.5" stroke-linecap="round" stroke-linejoin="round"/>
<path d="M105.336 73.5695L104.223 71.7529" stroke="#263238" stroke-width="2" stroke-linecap="round" stroke-linejoin="round"/>
<path d="M104.563 72.2981C104.608 72.0661 104.603 71.827 104.549 71.5969C104.495 71.3669 104.392 71.1511 104.247 70.9641C103.948 70.5581 102.185 69.3401 101.857 69.9781C101.5 70.6787 103.175 72.5509 104.563 72.2981Z" fill="#EF233C" stroke="#263238" stroke-linecap="round" stroke-linejoin="round"/>
<path d="M104.564 72.298L102.961 70.7622" stroke="#263238" stroke-width="0.5" stroke-linecap="round" stroke-linejoin="round"/>
<path d="M103.445 91.5333L104.907 89.9858" stroke="#263238" stroke-width="2" stroke-linecap="round" stroke-linejoin="round"/>
<path d="M104.465 90.4498C104.467 90.2129 104.52 89.9793 104.621 89.7647C104.721 89.5502 104.867 89.3597 105.047 89.2063C105.423 88.8722 107.4 88.0463 107.599 88.7423C107.792 89.4917 105.769 90.9811 104.465 90.4498Z" fill="#EF233C" stroke="#263238" stroke-linecap="round" stroke-linejoin="round"/>
<path d="M104.465 90.4497L106.458 89.2131" stroke="#263238" stroke-width="0.5" stroke-linecap="round" stroke-linejoin="round"/>
<path d="M104.406 82.2694L105.87 80.7219" stroke="#263238" stroke-width="2" stroke-linecap="round" stroke-linejoin="round"/>
<path d="M105.426 81.1861C105.429 80.9493 105.482 80.7159 105.583 80.5014C105.683 80.287 105.828 80.0964 106.008 79.9426C106.384 79.6062 108.361 78.7826 108.56 79.4786C108.755 80.2279 106.723 81.7174 105.426 81.1861Z" fill="#EF233C" stroke="#263238" stroke-linecap="round" stroke-linejoin="round"/>
<path d="M105.426 81.186L107.419 79.9495" stroke="#263238" stroke-width="0.5" stroke-linecap="round" stroke-linejoin="round"/>
<path d="M104.828 78.1978L106.292 76.6504" stroke="#263238" stroke-width="2" stroke-linecap="round" stroke-linejoin="round"/>
<path d="M105.848 77.1143C105.851 76.8775 105.904 76.6441 106.005 76.4297C106.105 76.2152 106.25 76.0247 106.43 75.8708C106.806 75.5344 108.785 74.7108 108.982 75.4068C109.177 76.1561 107.151 77.6456 105.848 77.1143Z" fill="#EF233C" stroke="#263238" stroke-linecap="round" stroke-linejoin="round"/>
<path d="M105.848 77.1145L107.841 75.8779" stroke="#263238" stroke-width="0.5" stroke-linecap="round" stroke-linejoin="round"/>
<path d="M105.449 72.2286L106.913 70.6812" stroke="#263238" stroke-width="2" stroke-linecap="round" stroke-linejoin="round"/>
<path d="M106.465 71.1449C106.468 70.9085 106.521 70.6754 106.622 70.4613C106.722 70.2472 106.867 70.0571 107.047 69.9037C107.423 69.5673 109.402 68.7437 109.599 69.4397C109.794 70.1868 107.769 71.6878 106.465 71.1449Z" fill="#EF233C" stroke="#263238" stroke-linecap="round" stroke-linejoin="round"/>
<path d="M106.465 71.145L108.458 69.9084" stroke="#263238" stroke-width="0.5" stroke-linecap="round" stroke-linejoin="round"/>
<path d="M105.77 68.3982C105.772 68.1615 105.826 67.928 105.926 67.7136C106.027 67.4991 106.172 67.3086 106.352 67.1547C106.728 66.8183 108.704 65.9947 108.904 66.6907C109.096 67.4401 107.073 68.9295 105.77 68.3982Z" fill="#EF233C" stroke="#263238" stroke-linecap="round" stroke-linejoin="round"/>
<path d="M105.77 68.3981L107.762 67.1592" stroke="#263238" stroke-width="0.5" stroke-linecap="round" stroke-linejoin="round"/>
<path d="M105.848 68.4863C105.613 68.4585 105.387 68.3808 105.184 68.2584C104.982 68.1359 104.808 67.9716 104.674 67.7764C104.379 67.3681 103.758 65.3125 104.47 65.1989C105.245 65.0759 106.514 67.2451 105.848 68.4863Z" fill="#EF233C" stroke="#263238" stroke-linecap="round" stroke-linejoin="round"/>
<path d="M105.849 68.4863L104.828 66.3728" stroke="#263238" stroke-width="0.5" stroke-linecap="round" stroke-linejoin="round"/>
<path d="M102.078 55.9653V94.3033" stroke="#263238" stroke-width="2" stroke-linecap="round" stroke-linejoin="round"/>
<path d="M102.109 89.2248L100.812 87.5359" stroke="#263238" stroke-width="2" stroke-linecap="round" stroke-linejoin="round"/>
<path d="M101.209 88.0417C101.231 87.8063 101.202 87.5689 101.124 87.3455C101.046 87.1222 100.922 86.9181 100.759 86.7471C100.42 86.3736 98.5383 85.3412 98.2784 86.014C97.9977 86.7471 99.856 88.4361 101.209 88.0417Z" fill="#EF233C" stroke="#263238" stroke-linecap="round" stroke-linejoin="round"/>
<path d="M101.209 88.0415L99.457 86.6797" stroke="#263238" stroke-width="0.5" stroke-linecap="round" stroke-linejoin="round"/>
<path d="M102.109 81.8682L100.812 80.1792" stroke="#263238" stroke-width="2" stroke-linecap="round" stroke-linejoin="round"/>
<path d="M101.209 80.685C101.231 80.4496 101.202 80.2122 101.124 79.9888C101.046 79.7655 100.922 79.5614 100.759 79.3904C100.42 79.0169 98.5383 77.9845 98.2784 78.6573C97.9977 79.3904 99.856 81.0794 101.209 80.685Z" fill="#EF233C" stroke="#263238" stroke-linecap="round" stroke-linejoin="round"/>
<path d="M101.209 80.6848L99.457 79.323" stroke="#263238" stroke-width="0.5" stroke-linecap="round" stroke-linejoin="round"/>
<path d="M102.109 73.233L100.812 71.5417" stroke="#263238" stroke-width="2" stroke-linecap="round" stroke-linejoin="round"/>
<path d="M101.209 72.0475C101.231 71.8121 101.202 71.5747 101.124 71.3514C101.046 71.128 100.922 70.924 100.759 70.753C100.42 70.3795 98.5383 69.3471 98.2784 70.0199C97.9977 70.7599 99.856 72.4419 101.209 72.0475Z" fill="#EF233C" stroke="#263238" stroke-linecap="round" stroke-linejoin="round"/>
<path d="M101.209 72.0476L99.457 70.6858" stroke="#263238" stroke-width="0.5" stroke-linecap="round" stroke-linejoin="round"/>
<path d="M102.109 67.4817L100.812 65.7927" stroke="#263238" stroke-width="2" stroke-linecap="round" stroke-linejoin="round"/>
<path d="M101.209 66.2985C101.231 66.0631 101.202 65.8257 101.124 65.6023C101.046 65.379 100.922 65.1749 100.759 65.0039C100.42 64.6304 98.5383 63.5957 98.2784 64.2708C97.9977 65.0039 99.856 66.6929 101.209 66.2985Z" fill="#EF233C" stroke="#263238" stroke-linecap="round" stroke-linejoin="round"/>
<path d="M101.209 66.2986L99.457 64.9368" stroke="#263238" stroke-width="0.5" stroke-linecap="round" stroke-linejoin="round"/>
<path d="M102.109 61.7074L100.812 60.0161" stroke="#263238" stroke-width="2" stroke-linecap="round" stroke-linejoin="round"/>
<path d="M101.209 60.5241C101.23 60.2884 101.202 60.0506 101.124 59.8269C101.046 59.6032 100.922 59.3988 100.759 59.2272C100.42 58.856 98.5383 57.8213 98.2784 58.4964C97.9977 59.2272 99.856 60.9185 101.209 60.5241Z" fill="#EF233C" stroke="#263238" stroke-linecap="round" stroke-linejoin="round"/>
<path d="M101.209 60.5242L99.457 59.1624" stroke="#263238" stroke-width="0.5" stroke-linecap="round" stroke-linejoin="round"/>
<path d="M102.078 91.4728L103.375 89.7815" stroke="#263238" stroke-width="2" stroke-linecap="round" stroke-linejoin="round"/>
<path d="M102.98 90.2896C102.958 90.0538 102.987 89.8161 103.064 89.5924C103.142 89.3686 103.267 89.1642 103.43 88.9927C103.769 88.6192 105.65 87.5868 105.91 88.2596C106.191 88.9927 104.332 90.684 102.98 90.2896Z" fill="#EF233C" stroke="#263238" stroke-linecap="round" stroke-linejoin="round"/>
<path d="M102.98 90.2896L104.836 88.8535" stroke="#263238" stroke-width="0.5" stroke-linecap="round" stroke-linejoin="round"/>
<path d="M102.078 79.7707L103.375 78.0818" stroke="#263238" stroke-width="2" stroke-linecap="round" stroke-linejoin="round"/>
<path d="M102.98 78.5876C102.958 78.3522 102.987 78.1148 103.064 77.8914C103.142 77.6681 103.267 77.464 103.43 77.293C103.769 76.9195 105.65 75.8871 105.91 76.5599C106.191 77.293 104.332 78.982 102.98 78.5876Z" fill="#EF233C" stroke="#263238" stroke-linecap="round" stroke-linejoin="round"/>
<path d="M102.98 78.5877L104.836 77.1516" stroke="#263238" stroke-width="0.5" stroke-linecap="round" stroke-linejoin="round"/>
<path d="M102.078 73.9963L103.375 72.3074" stroke="#263238" stroke-width="2" stroke-linecap="round" stroke-linejoin="round"/>
<path d="M102.98 72.8132C102.958 72.5777 102.987 72.3403 103.064 72.117C103.142 71.8937 103.267 71.6896 103.43 71.5186C103.769 71.1451 105.65 70.1127 105.91 70.7855C106.191 71.5186 104.332 73.2076 102.98 72.8132Z" fill="#EF233C" stroke="#263238" stroke-linecap="round" stroke-linejoin="round"/>
<path d="M102.98 72.813L104.836 71.377" stroke="#263238" stroke-width="0.5" stroke-linecap="round" stroke-linejoin="round"/>
<path d="M102.078 66.3635L103.375 64.6746" stroke="#263238" stroke-width="2" stroke-linecap="round" stroke-linejoin="round"/>
<path d="M102.98 65.1918C102.958 64.9564 102.987 64.719 103.064 64.4957C103.142 64.2723 103.267 64.0683 103.43 63.8973C103.769 63.5237 105.65 62.4913 105.91 63.1641C106.191 63.8857 104.332 65.5746 102.98 65.1918Z" fill="#EF233C" stroke="#263238" stroke-linecap="round" stroke-linejoin="round"/>
<path d="M102.98 65.1802L104.836 63.7441" stroke="#263238" stroke-width="0.5" stroke-linecap="round" stroke-linejoin="round"/>
<path d="M102.078 60.3639L103.375 58.6726" stroke="#263238" stroke-width="2" stroke-linecap="round" stroke-linejoin="round"/>
<path d="M102.98 59.1807C102.958 58.9449 102.987 58.7072 103.064 58.4835C103.142 58.2597 103.267 58.0553 103.43 57.8838C103.769 57.5103 105.65 56.4779 105.91 57.1507C106.191 57.8838 104.332 59.5751 102.98 59.1807Z" fill="#EF233C" stroke="#263238" stroke-linecap="round" stroke-linejoin="round"/>
<path d="M102.98 59.1807L104.836 57.7446" stroke="#263238" stroke-width="0.5" stroke-linecap="round" stroke-linejoin="round"/>
<path d="M102.004 56.5197C101.981 56.2828 102.009 56.0437 102.087 55.8187C102.164 55.5937 102.29 55.3881 102.454 55.2159C102.793 54.8424 104.674 53.81 104.934 54.4828C105.215 55.2159 103.356 56.9141 102.004 56.5197Z" fill="#EF233C" stroke="#263238" stroke-linecap="round" stroke-linejoin="round"/>
<path d="M102.004 56.5198L103.86 55.0837" stroke="#263238" stroke-width="0.5" stroke-linecap="round" stroke-linejoin="round"/>
<path d="M102.094 56.6079C101.857 56.6049 101.624 56.5512 101.41 56.4504C101.195 56.3495 101.005 56.2039 100.852 56.0233C100.516 55.6474 99.6925 53.6685 100.388 53.4713C101.154 53.2694 102.627 55.2948 102.094 56.6079Z" fill="#EF233C" stroke="#263238" stroke-linecap="round" stroke-linejoin="round"/>
<path d="M102.094 56.5987L100.859 54.6035" stroke="#263238" stroke-width="0.5" stroke-linecap="round" stroke-linejoin="round"/>
<path d="M2.32031 94.3127H111.001" stroke="#263238" stroke-linecap="round" stroke-linejoin="round"/>
<path d="M44.0503 25.3622H9.64699C9.11463 25.3616 8.58803 25.4724 8.101 25.6873C7.61397 25.9023 7.17726 26.2167 6.81891 26.6103C6.41327 26.9886 6.09467 27.4505 5.88516 27.964C5.67566 28.4776 5.58025 29.0305 5.60555 29.5846L6.33171 45.4186V87.856C6.33171 88.779 6.69835 89.6641 7.35097 90.3168C8.0036 90.9694 8.88875 91.336 9.81171 91.336H43.4749C44.4395 91.2951 45.3535 90.8935 46.0362 90.2108C46.7189 89.5282 47.1204 88.6141 47.1614 87.6495V45.2167L47.8875 29.3827C47.9114 28.8639 47.8298 28.3455 47.6477 27.859C47.4657 27.3726 47.1869 26.928 46.8283 26.5523C46.4697 26.1765 46.0386 25.8773 45.5611 25.6728C45.0837 25.4682 44.5697 25.3626 44.0503 25.3622Z" stroke="#263238" stroke-linecap="round" stroke-linejoin="round"/>
<path d="M9.71484 31.334V42.8713H43.8304V31.334H9.71484ZM42.1461 41.187H11.3992V33.016H42.1461V41.187Z" fill="#263238" stroke="#263238" stroke-linecap="round" stroke-linejoin="round"/>
<path d="M25.8387 49.4182H10.9304C10.2936 49.4182 9.77734 49.9344 9.77734 50.5713V53.3158C9.77734 53.9526 10.2936 54.4689 10.9304 54.4689H25.8387C26.4755 54.4689 26.9917 53.9526 26.9917 53.3158V50.5713C26.9917 49.9344 26.4755 49.4182 25.8387 49.4182Z" stroke="#263238" stroke-linecap="round" stroke-linejoin="round"/>
<path d="M13.3945 49.481V54.4713" stroke="#263238" stroke-linecap="round" stroke-linejoin="round"/>
<path d="M16.8672 49.481V54.4713" stroke="#263238" stroke-linecap="round" stroke-linejoin="round"/>
<path d="M20.3359 49.481V54.4713" stroke="#263238" stroke-linecap="round" stroke-linejoin="round"/>
<path d="M23.8125 49.481V54.4713" stroke="#263238" stroke-linecap="round" stroke-linejoin="round"/>
<path d="M36.5779 52.1953H32.2813C31.7764 52.1953 31.3672 52.6046 31.3672 53.1094V55.2461C31.3672 55.7509 31.7764 56.1602 32.2813 56.1602H36.5779C37.0827 56.1602 37.492 55.7509 37.492 55.2461V53.1094C37.492 52.6046 37.0827 52.1953 36.5779 52.1953Z" fill="#263238" stroke="#263238" stroke-linecap="round" stroke-linejoin="round"/>
<path d="M15.0935 57.6682H10.7969C10.2921 57.6682 9.88281 58.0775 9.88281 58.5823V61.422C9.88281 61.9268 10.2921 62.3361 10.7969 62.3361H15.0935C15.5984 62.3361 16.0076 61.9268 16.0076 61.422V58.5823C16.0076 58.0775 15.5984 57.6682 15.0935 57.6682Z" fill="#263238" stroke="#263238" stroke-linecap="round" stroke-linejoin="round"/>
<path d="M22.2693 57.6682H17.9727C17.4678 57.6682 17.0586 58.0775 17.0586 58.5823V61.422C17.0586 61.9268 17.4678 62.3361 17.9727 62.3361H22.2693C22.7741 62.3361 23.1834 61.9268 23.1834 61.422V58.5823C23.1834 58.0775 22.7741 57.6682 22.2693 57.6682Z" fill="#263238" stroke="#263238" stroke-linecap="round" stroke-linejoin="round"/>
<path d="M29.449 57.6682H25.1524C24.6475 57.6682 24.2383 58.0775 24.2383 58.5823V61.422C24.2383 61.9268 24.6475 62.3361 25.1524 62.3361H29.449C29.9538 62.3361 30.3631 61.9268 30.3631 61.422V58.5823C30.3631 58.0775 29.9538 57.6682 29.449 57.6682Z" fill="#263238" stroke="#263238" stroke-linecap="round" stroke-linejoin="round"/>
<path d="M36.6248 57.6682H32.3281C31.8233 57.6682 31.4141 58.0775 31.4141 58.5823V61.422C31.4141 61.9268 31.8233 62.3361 32.3281 62.3361H36.6248C37.1296 62.3361 37.5389 61.9268 37.5389 61.422V58.5823C37.5389 58.0775 37.1296 57.6682 36.6248 57.6682Z" fill="#263238" stroke="#263238" stroke-linecap="round" stroke-linejoin="round"/>
<path d="M43.8084 57.6682H39.5117C39.0069 57.6682 38.5977 58.0775 38.5977 58.5823V61.422C38.5977 61.9268 39.0069 62.3361 39.5117 62.3361H43.8084C44.3132 62.3361 44.7225 61.9268 44.7225 61.422V58.5823C44.7225 58.0775 44.3132 57.6682 43.8084 57.6682Z" fill="#263238" stroke="#263238" stroke-linecap="round" stroke-linejoin="round"/>
<path d="M15.0935 63.9414H10.7969C10.2921 63.9414 9.88281 64.3507 9.88281 64.8555V67.6952C9.88281 68.2 10.2921 68.6093 10.7969 68.6093H15.0935C15.5984 68.6093 16.0076 68.2 16.0076 67.6952V64.8555C16.0076 64.3507 15.5984 63.9414 15.0935 63.9414Z" fill="#263238" stroke="#263238" stroke-linecap="round" stroke-linejoin="round"/>
<path d="M22.2693 63.9414H17.9727C17.4678 63.9414 17.0586 64.3507 17.0586 64.8555V67.6952C17.0586 68.2 17.4678 68.6093 17.9727 68.6093H22.2693C22.7741 68.6093 23.1834 68.2 23.1834 67.6952V64.8555C23.1834 64.3507 22.7741 63.9414 22.2693 63.9414Z" fill="#263238" stroke="#263238" stroke-linecap="round" stroke-linejoin="round"/>
<path d="M29.449 63.9414H25.1524C24.6475 63.9414 24.2383 64.3507 24.2383 64.8555V67.6952C24.2383 68.2 24.6475 68.6093 25.1524 68.6093H29.449C29.9538 68.6093 30.3631 68.2 30.3631 67.6952V64.8555C30.3631 64.3507 29.9538 63.9414 29.449 63.9414Z" fill="#263238" stroke="#263238" stroke-linecap="round" stroke-linejoin="round"/>
<path d="M36.6248 63.9414H32.3281C31.8233 63.9414 31.4141 64.3507 31.4141 64.8555V67.6952C31.4141 68.2 31.8233 68.6093 32.3281 68.6093H36.6248C37.1296 68.6093 37.5389 68.2 37.5389 67.6952V64.8555C37.5389 64.3507 37.1296 63.9414 36.6248 63.9414Z" fill="#263238" stroke="#263238" stroke-linecap="round" stroke-linejoin="round"/>
<path d="M43.8084 63.9414H39.5117C39.0069 63.9414 38.5977 64.3507 38.5977 64.8555V67.6952C38.5977 68.2 39.0069 68.6093 39.5117 68.6093H43.8084C44.3132 68.6093 44.7225 68.2 44.7225 67.6952V64.8555C44.7225 64.3507 44.3132 63.9414 43.8084 63.9414Z" fill="#263238" stroke="#263238" stroke-linecap="round" stroke-linejoin="round"/>
<path d="M15.0935 70.217H10.7969C10.2921 70.217 9.88281 70.6263 9.88281 71.1311V73.9708C9.88281 74.4756 10.2921 74.8849 10.7969 74.8849H15.0935C15.5984 74.8849 16.0076 74.4756 16.0076 73.9708V71.1311C16.0076 70.6263 15.5984 70.217 15.0935 70.217Z" fill="#263238" stroke="#263238" stroke-linecap="round" stroke-linejoin="round"/>
<path d="M22.2693 70.217H17.9727C17.4678 70.217 17.0586 70.6263 17.0586 71.1311V73.9708C17.0586 74.4756 17.4678 74.8849 17.9727 74.8849H22.2693C22.7741 74.8849 23.1834 74.4756 23.1834 73.9708V71.1311C23.1834 70.6263 22.7741 70.217 22.2693 70.217Z" fill="#263238" stroke="#263238" stroke-linecap="round" stroke-linejoin="round"/>
<path d="M29.449 70.217H25.1524C24.6475 70.217 24.2383 70.6263 24.2383 71.1311V73.9708C24.2383 74.4756 24.6475 74.8849 25.1524 74.8849H29.449C29.9538 74.8849 30.3631 74.4756 30.3631 73.9708V71.1311C30.3631 70.6263 29.9538 70.217 29.449 70.217Z" fill="#263238" stroke="#263238" stroke-linecap="round" stroke-linejoin="round"/>
<path d="M36.6248 70.217H32.3281C31.8233 70.217 31.4141 70.6263 31.4141 71.1311V73.9708C31.4141 74.4756 31.8233 74.8849 32.3281 74.8849H36.6248C37.1296 74.8849 37.5389 74.4756 37.5389 73.9708V71.1311C37.5389 70.6263 37.1296 70.217 36.6248 70.217Z" fill="#263238" stroke="#263238" stroke-linecap="round" stroke-linejoin="round"/>
<path d="M43.8084 70.217H39.5117C39.0069 70.217 38.5977 70.6263 38.5977 71.1311V73.9708C38.5977 74.4756 39.0069 74.8849 39.5117 74.8849H43.8084C44.3132 74.8849 44.7225 74.4756 44.7225 73.9708V71.1311C44.7225 70.6263 44.3132 70.217 43.8084 70.217Z" fill="#263238" stroke="#263238" stroke-linecap="round" stroke-linejoin="round"/>
<path d="M15.0935 76.4927H10.7969C10.2921 76.4927 9.88281 76.9019 9.88281 77.4068V80.2464C9.88281 80.7513 10.2921 81.1605 10.7969 81.1605H15.0935C15.5984 81.1605 16.0076 80.7513 16.0076 80.2464V77.4068C16.0076 76.9019 15.5984 76.4927 15.0935 76.4927Z" fill="#263238" stroke="#263238" stroke-linecap="round" stroke-linejoin="round"/>
<path d="M22.2693 76.4927H17.9727C17.4678 76.4927 17.0586 76.9019 17.0586 77.4068V80.2464C17.0586 80.7513 17.4678 81.1605 17.9727 81.1605H22.2693C22.7741 81.1605 23.1834 80.7513 23.1834 80.2464V77.4068C23.1834 76.9019 22.7741 76.4927 22.2693 76.4927Z" fill="#263238" stroke="#263238" stroke-linecap="round" stroke-linejoin="round"/>
<path d="M29.449 76.4927H25.1524C24.6475 76.4927 24.2383 76.9019 24.2383 77.4068V80.2464C24.2383 80.7513 24.6475 81.1605 25.1524 81.1605H29.449C29.9538 81.1605 30.3631 80.7513 30.3631 80.2464V77.4068C30.3631 76.9019 29.9538 76.4927 29.449 76.4927Z" fill="#263238" stroke="#263238" stroke-linecap="round" stroke-linejoin="round"/>
<path d="M36.6248 76.4927H32.3281C31.8233 76.4927 31.4141 76.9019 31.4141 77.4068V80.2464C31.4141 80.7513 31.8233 81.1605 32.3281 81.1605H36.6248C37.1296 81.1605 37.5389 80.7513 37.5389 80.2464V77.4068C37.5389 76.9019 37.1296 76.4927 36.6248 76.4927Z" fill="#263238" stroke="#263238" stroke-linecap="round" stroke-linejoin="round"/>
<path d="M15.0935 82.7683H10.7969C10.2921 82.7683 9.88281 83.1776 9.88281 83.6824V86.5221C9.88281 87.0269 10.2921 87.4361 10.7969 87.4361H15.0935C15.5984 87.4361 16.0076 87.0269 16.0076 86.5221V83.6824C16.0076 83.1776 15.5984 82.7683 15.0935 82.7683Z" fill="#263238" stroke="#263238" stroke-linecap="round" stroke-linejoin="round"/>
<path d="M22.2693 82.7683H17.9727C17.4678 82.7683 17.0586 83.1776 17.0586 83.6824V86.5221C17.0586 87.0269 17.4678 87.4361 17.9727 87.4361H22.2693C22.7741 87.4361 23.1834 87.0269 23.1834 86.5221V83.6824C23.1834 83.1776 22.7741 82.7683 22.2693 82.7683Z" fill="#263238" stroke="#263238" stroke-linecap="round" stroke-linejoin="round"/>
<path d="M29.449 82.7683H25.1524C24.6475 82.7683 24.2383 83.1776 24.2383 83.6824V86.5221C24.2383 87.0269 24.6475 87.4361 25.1524 87.4361H29.449C29.9538 87.4361 30.3631 87.0269 30.3631 86.5221V83.6824C30.3631 83.1776 29.9538 82.7683 29.449 82.7683Z" fill="#263238" stroke="#263238" stroke-linecap="round" stroke-linejoin="round"/>
<path d="M36.6248 82.7683H32.3281C31.8233 82.7683 31.4141 83.1776 31.4141 83.6824V86.5221C31.4141 87.0269 31.8233 87.4361 32.3281 87.4361H36.6248C37.1296 87.4361 37.5389 87.0269 37.5389 86.5221V83.6824C37.5389 83.1776 37.1296 82.7683 36.6248 82.7683Z" fill="#263238" stroke="#263238" stroke-linecap="round" stroke-linejoin="round"/>
<path d="M43.7921 76.4927H39.5257C39.2795 76.4927 39.0435 76.5904 38.8695 76.7645C38.6954 76.9385 38.5977 77.1746 38.5977 77.4207V86.5081C38.5977 86.7542 38.6954 86.9903 38.8695 87.1643C39.0435 87.3383 39.2795 87.4361 39.5257 87.4361H43.7921C44.0383 87.4361 44.2743 87.3383 44.4483 87.1643C44.6224 86.9903 44.7201 86.7542 44.7201 86.5081V77.4207C44.7201 77.1746 44.6224 76.9385 44.4483 76.7645C44.2743 76.5904 44.0383 76.4927 43.7921 76.4927Z" fill="#263238" stroke="#263238" stroke-linecap="round" stroke-linejoin="round"/>
<path d="M43.8084 52.1953H39.5117C39.0069 52.1953 38.5977 52.6046 38.5977 53.1094V55.2461C38.5977 55.7509 39.0069 56.1602 39.5117 56.1602H43.8084C44.3132 56.1602 44.7225 55.7509 44.7225 55.2461V53.1094C44.7225 52.6046 44.3132 52.1953 43.8084 52.1953Z" fill="#263238" stroke="#263238" stroke-linecap="round" stroke-linejoin="round"/>
<path d="M27.3508 36.983C27.4059 36.8829 27.4879 36.8003 27.5875 36.7445C27.6872 36.6887 27.8005 36.662 27.9146 36.6675C28.4064 36.6675 28.6106 37.0271 28.6106 37.5699V38.3147C28.6106 38.897 28.3345 39.2798 27.7522 39.2798C27.1699 39.2798 26.8984 38.897 26.8984 38.3147V38.0595H27.2952V38.3425C27.2952 38.6859 27.4367 38.8923 27.7406 38.8923C28.0445 38.8923 28.186 38.6859 28.186 38.3425V37.6024C28.186 37.2591 28.0445 37.0526 27.7406 37.0526C27.6853 37.0501 27.6301 37.0588 27.5783 37.0781C27.5265 37.0975 27.4791 37.1272 27.439 37.1653C27.3989 37.2034 27.3669 37.2493 27.345 37.3001C27.3231 37.3509 27.3117 37.4056 27.3114 37.4609V37.5491H26.9147L27.0168 35.4309H28.534V35.8137H27.4135L27.3508 36.983Z" fill="#263238"/>
<path d="M29.2164 39.2405H29.0586V38.7139H29.4623V39.208L29.2488 39.7254H29.0748L29.2164 39.2405Z" fill="#263238"/>
<path d="M31.6472 36.3357V36.454C31.6472 36.8415 31.5104 37.1245 31.2111 37.2382C31.5266 37.3635 31.6472 37.6628 31.6472 38.0432V38.3263C31.6472 38.9132 31.341 39.2798 30.7494 39.2798C30.1578 39.2798 29.8516 38.9132 29.8516 38.3263V38.0479C29.8516 37.6628 29.9699 37.3728 30.2924 37.2428C29.9815 37.1245 29.8516 36.8461 29.8516 36.4587V36.3404C29.8516 35.7534 30.1624 35.3984 30.7494 35.3984C31.3364 35.3984 31.6472 35.7488 31.6472 36.3357ZM30.2692 36.3357V36.5213C30.2692 36.8925 30.4501 37.0549 30.7494 37.0549C31.0487 37.0549 31.2273 36.8925 31.2273 36.5213V36.3357C31.2273 35.946 31.0487 35.765 30.7494 35.765C30.4501 35.765 30.2692 35.9599 30.2692 36.345V36.3357ZM30.2692 37.9852V38.3054C30.2692 38.6975 30.4455 38.8831 30.7494 38.8831C31.0533 38.8831 31.2134 38.6975 31.2273 38.3054V37.9852C31.2273 37.6164 31.0649 37.4354 30.7494 37.4354C30.4339 37.4354 30.2692 37.6256 30.2692 37.9945V37.9852Z" fill="#263238"/>
<path d="M33.7391 36.352V38.2938C33.7391 38.897 33.4677 39.2798 32.8599 39.2798C32.252 39.2798 31.9991 38.904 31.9991 38.3216V38.2497H32.3959V38.3495C32.3959 38.6905 32.542 38.8924 32.8483 38.8924C33.1545 38.8924 33.3123 38.6859 33.3123 38.2822V37.4284C33.2684 37.5535 33.1847 37.6607 33.0741 37.7336C32.9635 37.8065 32.832 37.8411 32.6998 37.8321C32.2079 37.8321 31.9922 37.4841 31.9922 36.9343V36.352C31.9922 35.7696 32.2752 35.3938 32.8622 35.3938C33.4491 35.3938 33.7391 35.7696 33.7391 36.352ZM32.4121 36.3288V36.9018C32.4121 37.2428 32.5606 37.4516 32.8645 37.4516C33.1684 37.4516 33.3146 37.2428 33.3146 36.9018V36.3288C33.3146 35.9808 33.1754 35.7812 32.8645 35.7812C32.5536 35.7812 32.4121 35.9808 32.4121 36.3288Z" fill="#263238"/>
<path d="M35.8629 36.3566C35.8629 37.505 34.573 37.918 34.5684 38.7949V38.8552H35.8188V39.2404H34.1484V38.9132C34.1484 37.6836 35.4384 37.4447 35.4384 36.3728C35.4384 35.9808 35.3084 35.7743 34.9929 35.7743C34.6774 35.7743 34.5452 36.0063 34.5452 36.3357V36.6721H34.1484V36.3636C34.1484 35.7812 34.4152 35.3938 35.0022 35.3938C35.5892 35.3938 35.8629 35.7743 35.8629 36.3566Z" fill="#263238"/>
<path d="M36.6544 38.7139V39.2405H36.2461V38.7139H36.6544Z" fill="#263238"/>
<path d="M37.5204 36.983C37.5756 36.8825 37.658 36.7997 37.7581 36.7439C37.8582 36.6881 37.972 36.6616 38.0865 36.6675C38.576 36.6675 38.7825 37.0271 38.7825 37.5699V38.3147C38.7825 38.897 38.5064 39.2798 37.9241 39.2798C37.3418 39.2798 37.0703 38.897 37.0703 38.3147V38.0595H37.467V38.3425C37.467 38.6859 37.6086 38.8923 37.9125 38.8923C38.2164 38.8923 38.3602 38.6859 38.3602 38.3425V37.6024C38.3602 37.2591 38.2187 37.0526 37.9125 37.0526C37.8572 37.0501 37.802 37.0588 37.7502 37.0781C37.6983 37.0975 37.651 37.1272 37.6109 37.1653C37.5708 37.2034 37.5388 37.2493 37.5169 37.3001C37.495 37.3509 37.4835 37.4056 37.4833 37.4609V37.5491H37.0866L37.1886 35.4309H38.692V35.8137H37.5807L37.5204 36.983Z" fill="#263238"/>
<path d="M40.9094 36.3451V36.424H40.5104V36.3266C40.5104 35.9832 40.3689 35.7814 40.0603 35.7814C39.7518 35.7814 39.5963 35.9878 39.5963 36.3962V37.2499C39.6412 37.1249 39.7253 37.0178 39.8362 36.9446C39.947 36.8714 40.0785 36.8361 40.2111 36.8439C40.7006 36.8439 40.9071 37.1966 40.9071 37.7464V38.3218C40.9071 38.9041 40.6194 39.2869 40.0371 39.2869C39.4548 39.2869 39.1602 38.9041 39.1602 38.3218V36.3799C39.1602 35.7767 39.4339 35.4009 40.0371 35.4009C40.6403 35.4009 40.9094 35.7651 40.9094 36.3451ZM39.5963 37.7719V38.3426C39.5963 38.686 39.7378 38.8925 40.0487 38.8925C40.3596 38.8925 40.5127 38.686 40.5127 38.3426V37.7719C40.5127 37.4286 40.3642 37.2221 40.0487 37.2221C39.7332 37.2221 39.5963 37.4286 39.5963 37.7719Z" fill="#263238"/>
<path d="M38.671 94.3174L32.9336 99.3077L40.5641 99.7671L45.6124 94.6607L38.671 94.3174Z" fill="white" stroke="#263238" stroke-linecap="round" stroke-linejoin="round"/>
<path d="M45.6147 94.6606L52.9598 95.004L48.3686 100.34L40.5664 99.767L45.6147 94.6606Z" fill="white" stroke="#263238" stroke-linecap="round" stroke-linejoin="round"/>
<path d="M38.293 95.844L42.687 96.1688" stroke="#263238" stroke-linecap="round" stroke-linejoin="round"/>
<path d="M36.418 97.0085L41.9767 97.331" stroke="#263238" stroke-linecap="round" stroke-linejoin="round"/>
<path d="M35.5781 97.9783L40.942 98.3657" stroke="#263238" stroke-linecap="round" stroke-linejoin="round"/>
<path d="M42.8828 98.6233L48.4415 99.013" stroke="#263238" stroke-linecap="round" stroke-linejoin="round"/>
<path d="M32.934 99.3076L32.8203 99.767L40.5645 100.226V99.767L32.934 99.3076Z" fill="#263238" stroke="#263238" stroke-linecap="round" stroke-linejoin="round"/>
<path d="M40.5664 99.9388V100.226L48.5402 100.799L52.9018 95.4055L52.7302 95.1201L48.3686 100.34L40.5664 99.9388Z" fill="#263238" stroke="#263238" stroke-linecap="round" stroke-linejoin="round"/>
<path d="M58.2364 95.751L53.7031 101.602L62.997 102.003L66.1522 95.9807L58.2364 95.751Z" fill="#919191" stroke="#263238" stroke-linecap="round" stroke-linejoin="round"/>
<path d="M53.591 101.259L53.0156 101.89L62.5972 102.349L62.8849 101.602L53.591 101.259Z" fill="#919191" stroke="#263238" stroke-linecap="round" stroke-linejoin="round"/>
<path d="M62.8853 101.602L62.999 102.003L66.1542 95.9807L66.2517 96.2823L63.0524 102.706L62.5977 102.349L62.8853 101.602Z" fill="#263238" stroke="#263238" stroke-linecap="round" stroke-linejoin="round"/>
<path d="M60.3989 97.6441L61.0392 96.6998L60.0022 96.665L59.2969 97.5884L60.3989 97.6441Z" fill="white" stroke="#263238" stroke-linecap="round" stroke-linejoin="round"/>
<path d="M58.4302 97.9922L57.3491 97.9365L56.957 98.4168L58.0846 98.4446L58.4302 97.9922Z" fill="white" stroke="#263238" stroke-linecap="round" stroke-linejoin="round"/>
<path d="M57.7187 99.6602L57.3359 100.159L58.6699 100.205L59.0156 99.695L57.7187 99.6602Z" fill="white" stroke="#263238" stroke-linecap="round" stroke-linejoin="round"/>
<path d="M57.7496 98.8807L56.5965 98.8552L56.332 99.1777L57.5013 99.2079L57.7496 98.8807Z" fill="white" stroke="#263238" stroke-linecap="round" stroke-linejoin="round"/>
<path d="M59.1953 100.224L60.7799 100.277L61.1 99.7507L59.5433 99.709L59.1953 100.224Z" fill="white" stroke="#263238" stroke-linecap="round" stroke-linejoin="round"/>
<path d="M62.3516 98.5442L64.1728 98.5859L64.3398 98.2866L62.5627 98.1985L62.3516 98.5442Z" fill="white" stroke="#263238" stroke-linecap="round" stroke-linejoin="round"/>
<path d="M62.8242 97.7648L64.5828 97.853L65.1489 96.8345L63.4228 96.7788L62.8242 97.7648Z" fill="white" stroke="#263238" stroke-linecap="round" stroke-linejoin="round"/>
<path d="M61.8789 99.326L63.7326 99.3747L63.9275 99.0267L62.0854 98.9827L61.8789 99.326Z" fill="white" stroke="#263238" stroke-linecap="round" stroke-linejoin="round"/>
<path d="M58.0508 99.224L59.3129 99.2565L59.5379 98.9224L58.3013 98.8945L58.0508 99.224Z" fill="white" stroke="#263238" stroke-linecap="round" stroke-linejoin="round"/>
<path d="M62.3169 97.7392L62.9109 96.7601L61.5629 96.7161L60.918 97.6696L62.3169 97.7392Z" fill="white" stroke="#263238" stroke-linecap="round" stroke-linejoin="round"/>
<path d="M61.6115 99.7646L61.2891 100.296L63.1845 100.359L63.4884 99.8134L61.6115 99.7646Z" fill="white" stroke="#263238" stroke-linecap="round" stroke-linejoin="round"/>
<path d="M58.7587 97.5606L59.457 96.6465L58.4362 96.614L57.7031 97.5095L58.7587 97.5606Z" fill="white" stroke="#263238" stroke-linecap="round" stroke-linejoin="round"/>
<path d="M57.1673 99.6439L55.9772 99.6138L55.5781 100.099L56.7892 100.14L57.1673 99.6439Z" fill="white" stroke="#263238" stroke-linecap="round" stroke-linejoin="round"/>
<path d="M58.6328 98.4561L59.8299 98.4839L60.1083 98.0756L58.9692 98.0176L58.6328 98.4561Z" fill="white" stroke="#263238" stroke-linecap="round" stroke-linejoin="round"/>
<path d="M62.0553 98.173L60.6285 98.1011L60.3594 98.4978L61.8372 98.5326L62.0553 98.173Z" fill="white" stroke="#263238" stroke-linecap="round" stroke-linejoin="round"/>
<path d="M61.5729 98.9711L60.0649 98.9363L59.8398 99.2704L61.3664 99.3121L61.5729 98.9711Z" fill="white" stroke="#263238" stroke-linecap="round" stroke-linejoin="round"/>
<path d="M53.0156 101.89L53.6119 102.228L63.0519 102.706L62.5972 102.349L53.0156 101.89Z" fill="#263238" stroke="#263238" stroke-linecap="round" stroke-linejoin="round"/>
<path d="M54.5781 101.287L55.0236 100.656L62.8512 100.952L62.3316 101.621L54.5781 101.287Z" fill="white" stroke="#263238" stroke-linecap="round" stroke-linejoin="round"/>
<path d="M28.3582 92.3544C30.2776 92.3544 31.8335 91.8558 31.8335 91.2408C31.8335 90.6258 30.2776 90.1272 28.3582 90.1272C26.4388 90.1272 24.8828 90.6258 24.8828 91.2408C24.8828 91.8558 26.4388 92.3544 28.3582 92.3544Z" fill="white" stroke="#263238" stroke-linecap="round" stroke-linejoin="round"/>
<path d="M28.6953 87.0625L29.1593 86.0881L29.3611 87.1344L28.4934 95.331C28.4891 95.3747 28.4761 95.417 28.4553 95.4557C28.4345 95.4943 28.4062 95.5284 28.3721 95.556C28.338 95.5836 28.2988 95.6042 28.2567 95.6166C28.2146 95.6289 28.1705 95.6328 28.1269 95.628C28.0389 95.6186 27.9583 95.5748 27.9026 95.5061C27.847 95.4374 27.8208 95.3494 27.8299 95.2614L28.6953 87.0625Z" fill="white" stroke="#263238" stroke-linecap="round" stroke-linejoin="round"/>
<path d="M27.8403 95.2614C27.836 95.3467 27.8646 95.4304 27.9202 95.4953C27.9758 95.5602 28.0541 95.6014 28.1391 95.6103C28.224 95.6192 28.3092 95.5952 28.377 95.5433C28.4449 95.4913 28.4902 95.4154 28.5038 95.331L28.6546 93.9135L27.9911 93.8508L27.8403 95.2614Z" fill="white" stroke="#263238" stroke-linecap="round" stroke-linejoin="round"/>
<path d="M28.123 95.628C28.1666 95.6328 28.2107 95.6289 28.2528 95.6166C28.2949 95.6042 28.3341 95.5836 28.3682 95.556C28.4023 95.5284 28.4306 95.4943 28.4514 95.4557C28.4722 95.417 28.4852 95.3747 28.4895 95.331L28.6009 94.287L27.9374 94.2104L27.826 95.2614C27.8169 95.3494 27.8431 95.4374 27.8987 95.5061C27.9544 95.5748 28.035 95.6186 28.123 95.628Z" fill="white" stroke="#263238" stroke-linecap="round" stroke-linejoin="round"/>
<path d="M28.696 87.0625L28.6914 87.1159L29.3549 87.1924L29.3596 87.1344L29.1577 86.0881L28.696 87.0625Z" fill="white" stroke="#263238" stroke-linecap="round" stroke-linejoin="round"/>
<path d="M30.7663 87.7772L31.4948 86.9814L31.3811 88.0417L28.1331 95.6142C28.0979 95.6953 28.0321 95.7593 27.95 95.7923C27.868 95.8253 27.7762 95.8246 27.6946 95.7905C27.6135 95.7553 27.5495 95.6895 27.5165 95.6074C27.4835 95.5254 27.4841 95.4336 27.5183 95.352L30.7663 87.7772Z" fill="#263238" stroke="#263238" stroke-linecap="round" stroke-linejoin="round"/>
<path d="M27.5112 95.3519C27.4764 95.4335 27.4754 95.5255 27.5085 95.6077C27.5416 95.6899 27.6059 95.7557 27.6875 95.7904C27.769 95.8252 27.861 95.8261 27.9432 95.7931C28.0255 95.76 28.0912 95.6956 28.126 95.6141L28.6874 94.3056L28.0703 94.0481L27.5112 95.3519Z" fill="white" stroke="#263238" stroke-linecap="round" stroke-linejoin="round"/>
<path d="M27.6903 95.7903C27.7719 95.8245 27.8637 95.8251 27.9458 95.7921C28.0278 95.7591 28.0936 95.6951 28.1288 95.614L28.5371 94.6558L27.9247 94.3867L27.5071 95.3588C27.4755 95.4404 27.4769 95.5312 27.5111 95.6117C27.5454 95.6923 27.6096 95.7564 27.6903 95.7903Z" fill="white" stroke="#263238" stroke-linecap="round" stroke-linejoin="round"/>
<path d="M30.767 87.7772L30.7461 87.8259L31.3586 88.095L31.3818 88.0417L31.4955 86.9814L30.767 87.7772Z" fill="white" stroke="#263238" stroke-linecap="round" stroke-linejoin="round"/>
<path d="M27.7346 94.99L27.0664 94.9668L27.3286 86.7284C27.3298 86.6847 27.3396 86.6416 27.3576 86.6016C27.3755 86.5617 27.4012 86.5257 27.4331 86.4957C27.465 86.4657 27.5025 86.4424 27.5435 86.427C27.5845 86.4116 27.6282 86.4044 27.6719 86.406C27.7157 86.4072 27.7588 86.417 27.7988 86.435C27.8387 86.4529 27.8747 86.4786 27.9047 86.5105C27.9347 86.5424 27.958 86.5799 27.9734 86.6209C27.9888 86.6619 27.996 86.7056 27.9944 86.7493L27.7346 94.99Z" fill="#263238" stroke="#263238" stroke-linecap="round" stroke-linejoin="round"/>
<path d="M27.9935 86.7494C27.9896 86.6654 27.9542 86.5859 27.8943 86.5268C27.8343 86.4677 27.7543 86.4335 27.6702 86.4308C27.5861 86.4282 27.5041 86.4574 27.4406 86.5126C27.3771 86.5678 27.3368 86.6449 27.3277 86.7285L27.2812 88.153L27.9494 88.1669L27.9935 86.7494Z" fill="white" stroke="#263238" stroke-linecap="round" stroke-linejoin="round"/>
<path d="M27.6711 86.406C27.6274 86.4044 27.5837 86.4116 27.5427 86.427C27.5017 86.4424 27.4642 86.4657 27.4323 86.4957C27.4004 86.5257 27.3747 86.5617 27.3568 86.6016C27.3388 86.6416 27.329 86.6847 27.3278 86.7284L27.293 87.7794L27.9611 87.8049L27.9936 86.7493C27.9952 86.7056 27.988 86.6619 27.9726 86.6209C27.9572 86.5799 27.9339 86.5424 27.9039 86.5105C27.8739 86.4786 27.8379 86.4529 27.798 86.435C27.758 86.417 27.7149 86.4072 27.6711 86.406Z" fill="white" stroke="#263238" stroke-linecap="round" stroke-linejoin="round"/>
<path d="M28.3589 92.3546C26.4379 92.3546 24.8789 91.8558 24.8789 91.241V99.1081C24.8789 99.7229 26.4333 100.222 28.3589 100.222C30.2845 100.222 31.8389 99.7229 31.8389 99.1081V91.241C31.8319 91.8558 30.2775 92.3546 28.3589 92.3546Z" fill="white" stroke="#263238" stroke-linecap="round" stroke-linejoin="round"/>
<path d="M63.3615 81.7706C62.9439 85.5337 62.6864 90.8186 62.6655 94.3218H85.5778C85.5546 90.8093 85.2971 85.5337 84.8818 81.7706C84.4457 77.8382 85.6683 76.4346 86.4548 71.8085C87.2413 67.1825 86.8051 57.2993 86.1068 56.3365C85.7889 55.9003 85.0396 55.7704 84.3134 55.7588C83.7901 57.531 82.7835 59.1225 81.4065 60.3547C77.7664 63.6189 71.0314 64.5586 66.3265 60.1042C65.0867 58.9331 64.22 57.4224 63.8348 55.7611C63.1388 55.782 62.4428 55.9189 62.1319 56.3365C61.4359 57.2993 60.9951 67.1755 61.7816 71.8085C62.5681 76.4416 63.7977 77.8382 63.3615 81.7706Z" fill="#263238" stroke="#263238" stroke-linecap="round" stroke-linejoin="round"/>
<path d="M83.7519 50.1305C84.543 54.2299 83.4015 57.7355 80.8658 60.0091C77.5018 63.0251 71.2726 63.8927 66.9342 59.7771C62.5958 55.6614 64.7766 48.9983 66.4447 48.9983C68.1127 48.9983 83.4642 48.6666 83.7519 50.1305Z" fill="#263238" stroke="#263238" stroke-linecap="round" stroke-linejoin="round"/>
<path d="M60.6379 94.1084C60.6379 94.1084 58.246 94.3868 57.9119 94.3868C57.5778 94.3868 57.4108 94.7766 57.8562 95.1663C58.3017 95.5561 59.805 95.3334 59.805 95.3334L60.6379 94.1084Z" fill="white" stroke="#263238" stroke-linecap="round" stroke-linejoin="round"/>
<path d="M60.3966 63.3752V65.8878C60.3966 65.8878 56.1696 68.0384 54.3878 68.7066C52.6061 69.3748 51.3463 69.9687 51.1236 71.0057C50.9009 72.0428 48.7502 81.6916 48.6017 82.8772C48.4533 84.0627 47.3397 85.1786 47.3397 85.8444C47.3212 86.173 47.3718 86.5018 47.4881 86.8096C47.4881 86.8096 48.0078 89.2572 49.7873 90.2223C51.5667 91.1874 53.0515 89.9903 53.8681 89.3314C54.6848 88.6725 55.4921 86.958 55.4921 86.958C55.4921 86.958 54.8982 92.6722 54.824 93.1896C54.7768 93.5589 54.752 93.9308 54.7497 94.3032H76.0427C76.0001 89.8672 76.2232 85.4327 76.7109 81.0235C77.0032 78.2928 76.4789 69.746 75.6715 68.4955C74.8641 67.245 72.7042 66.5676 70.8505 66.0479C68.9969 65.5282 66.6212 65.0828 66.6212 65.0828L66.5469 64.1176L60.3966 63.3752Z" fill="white" stroke="#263238" stroke-linecap="round" stroke-linejoin="round"/>
<path d="M54.0034 77.8451L53.7227 76.1353" stroke="#263238" stroke-linecap="round" stroke-linejoin="round"/>
<path d="M55.5044 86.9674L54.1797 78.9124" stroke="#263238" stroke-linecap="round" stroke-linejoin="round"/>
<path d="M63.2941 71.9059C68.3981 72.5439 73.6923 67.7763 74.3558 67.3401C73.3536 66.7717 72.0474 66.3773 70.8619 66.0456C69.0059 65.5259 66.6325 65.0804 66.6325 65.0804L66.5583 64.1153L60.3987 63.3752V65.8878C60.3987 65.8878 57.6147 67.303 55.6172 68.1939C57.6831 70.2633 60.3891 71.5717 63.2941 71.9059Z" fill="white" stroke="#263238" stroke-linecap="round" stroke-linejoin="round"/>
<path d="M60.3962 65.8879C60.3274 66.9076 60.2043 67.9229 60.0273 68.9295" stroke="#263238" stroke-linecap="round" stroke-linejoin="round"/>
<path d="M66.6328 65.0806C66.6328 65.0806 66.7813 67.2312 67.004 67.9736" stroke="#263238" stroke-linecap="round" stroke-linejoin="round"/>
<path d="M68.7525 47.2514C67.3883 46.4718 64.5463 45.9104 63.0082 46.2282C61.3679 46.5646 59.2173 47.2746 57.5237 48.757C54.3522 51.541 55.5215 55.7704 55.7999 56.1578L56.0783 56.5476C55.9458 57.6181 55.7412 58.6784 55.4658 59.7214C54.9647 61.7235 57.4123 63.6653 60.4167 64.2268C63.4211 64.7882 68.263 64.3382 71.4344 63.3939C74.6058 62.4497 75.1673 59.9418 74.0514 56.2135C72.9354 52.4853 71.7314 49.1097 69.8962 47.9427C69.4856 47.6806 69.1028 47.4509 68.7525 47.2514Z" fill="#EF233C" stroke="#263238" stroke-linecap="round" stroke-linejoin="round"/>
<path d="M62.7812 50.7012C63.0093 50.6433 63.2424 50.6076 63.4772 50.5945" stroke="#263238" stroke-linecap="round" stroke-linejoin="round"/>
<path d="M56.8013 56.3249C56.8013 56.3249 56.0241 56.0488 56.3558 54.9329C56.6273 54.0281 59.6526 51.8032 62.0004 50.9402" stroke="#263238" stroke-linecap="round" stroke-linejoin="round"/>
<path d="M62.125 48.7593C62.3802 48.7315 62.6447 48.7129 62.9208 48.7036" stroke="#263238" stroke-linecap="round" stroke-linejoin="round"/>
<path d="M55.6797 54.0558C55.6797 54.0558 56.559 49.7963 61.4031 48.8799" stroke="#263238" stroke-linecap="round" stroke-linejoin="round"/>
<path d="M65.1163 47.8569C64.6801 48.6643 64.1604 49.7593 64.0352 50.5945" stroke="#263238" stroke-linecap="round" stroke-linejoin="round"/>
<path d="M65.7584 46.7549C65.7584 46.7549 65.6911 46.8593 65.582 47.0402" stroke="#263238" stroke-linecap="round" stroke-linejoin="round"/>
<path d="M68.8242 49.7756C70.5648 51.3823 71.8984 53.3799 72.7149 55.6035" stroke="#263238" stroke-linecap="round" stroke-linejoin="round"/>
<path d="M66.9844 48.4253C67.468 48.6932 67.9241 49.0079 68.3462 49.3649" stroke="#263238" stroke-linecap="round" stroke-linejoin="round"/>
<path d="M73.509 61.2966C73.0686 62.0712 72.3438 62.6437 71.4883 62.8928" stroke="#263238" stroke-linecap="round" stroke-linejoin="round"/>
<path d="M68.9883 52.1536C68.9883 52.1536 74.0528 56.9931 73.9415 59.6657C73.93 59.9715 73.8841 60.275 73.8046 60.5705" stroke="#263238" stroke-linecap="round" stroke-linejoin="round"/>
<path d="M69.9329 59.1599C69.9329 59.1599 71.4896 60.0485 70.8237 61.6632C70.1579 63.2779 69.0977 62.8232 69.0977 62.8232" stroke="#263238" stroke-linecap="round" stroke-linejoin="round"/>
<path d="M63.8764 51.6477C62.6271 52.9076 61.2093 53.9881 59.6632 54.8586L56.9883 56.3967C56.9883 56.3967 58.5937 62.3475 59.3292 63.4843C60.0646 64.6211 61.3336 66.2915 63.1409 66.2915C64.9482 66.2915 67.6208 63.6839 67.7531 63.2175C67.8853 62.7512 68.4885 60.3407 68.4885 60.3407C68.7902 60.1502 69.0241 59.8693 69.1567 59.538C69.2448 59.1655 69.2899 58.7841 69.2912 58.4012C69.2912 58.4012 66.2752 55.5267 65.2127 54.2554C64.5733 53.5001 64.1161 52.6079 63.8764 51.6477Z" fill="white" stroke="#263238" stroke-linecap="round" stroke-linejoin="round"/>
<path d="M61.7111 57.7842L57.2544 57.4873C57.2152 57.4844 57.1759 57.4906 57.1395 57.5054C57.1031 57.5202 57.0707 57.5432 57.0446 57.5726C57.0186 57.602 56.9997 57.637 56.9894 57.6749C56.9791 57.7129 56.9777 57.7526 56.9853 57.7912C57.1199 58.4663 57.4632 59.9813 57.9272 60.3432C58.5304 60.8072 60.3099 60.7353 60.6718 60.7353C61.4397 60.7353 61.8875 58.6589 61.9362 58.4269C61.9372 58.4122 61.9372 58.3975 61.9362 58.3828V58.0487C61.9384 57.9845 61.9166 57.9218 61.8749 57.8728C61.8333 57.8239 61.7749 57.7923 61.7111 57.7842Z" stroke="#263238" stroke-width="2" stroke-linecap="round" stroke-linejoin="round"/>
<path d="M63.1043 57.9118L67.5703 58.0324C67.609 58.0339 67.6469 58.0443 67.6809 58.0627C67.715 58.0812 67.7444 58.1072 67.7668 58.1388C67.7893 58.1704 67.8041 58.2068 67.8103 58.2451C67.8164 58.2833 67.8137 58.3225 67.8023 58.3595C67.6074 59.0184 67.1225 60.4939 66.626 60.8095C65.9834 61.2201 64.2179 60.9765 63.8583 60.944C63.0927 60.8721 62.8398 58.7632 62.8143 58.5266C62.8119 58.512 62.8119 58.4971 62.8143 58.4825L62.8375 58.1507C62.8392 58.1175 62.8476 58.085 62.8619 58.055C62.8763 58.025 62.8965 57.9981 62.9213 57.9759C62.946 57.9537 62.975 57.9366 63.0064 57.9256C63.0378 57.9146 63.071 57.9099 63.1043 57.9118Z" stroke="#263238" stroke-width="2" stroke-linecap="round" stroke-linejoin="round"/>
<path d="M61.707 57.7842L63.099 57.9118" stroke="#263238" stroke-width="2" stroke-linecap="round" stroke-linejoin="round"/>
<path d="M62.0273 58.3108L62.8185 58.3363" stroke="#263238" stroke-width="2" stroke-linecap="round" stroke-linejoin="round"/>
<path d="M67.8555 58.1879L68.5723 57.7192" stroke="#263238" stroke-width="2" stroke-linecap="round" stroke-linejoin="round"/>
<path d="M65.1895 58.9048C65.1895 59.218 65.0457 59.4732 64.8694 59.4732C64.693 59.4732 64.5469 59.218 64.5469 58.9048C64.5469 58.5916 64.6907 58.3364 64.8694 58.3364C65.048 58.3364 65.1895 58.5893 65.1895 58.9048Z" fill="#263238"/>
<path d="M60.2989 58.7795C60.2989 59.095 60.155 59.3479 59.9787 59.3479C59.8024 59.3479 59.6562 59.095 59.6562 58.7795C59.6562 58.4639 59.8001 58.2134 59.9787 58.2134C60.1574 58.2134 60.2989 58.4639 60.2989 58.7795Z" fill="#263238"/>
<path d="M61.9209 59.146C61.9209 59.146 61.3641 61.3709 61.2899 61.6307C61.2156 61.8906 61.624 62.1504 62.3664 61.8906" stroke="#263238" stroke-linecap="round" stroke-linejoin="round"/>
<path d="M61.2891 63.1155C61.2891 63.1155 62.6254 63.4473 63.6647 63.0413" stroke="#263238" stroke-linecap="round" stroke-linejoin="round"/>
<path d="M63.6641 57.5128C63.6641 57.5128 64.4041 56.659 66.7427 57.4756" stroke="#263238" stroke-linecap="round" stroke-linejoin="round"/>
<path d="M61.3989 57.3271C61.3989 57.3271 60.0278 56.2506 58.4688 57.0951" stroke="#263238" stroke-linecap="round" stroke-linejoin="round"/>
<path d="M72.8134 74.1077C72.8134 74.1077 72.7346 82.984 72.5814 84.7426C72.4283 86.5011 72.8134 88.0323 74.5395 88.951C76.2656 89.8698 78.458 89.7932 79.1633 89.5635C79.8686 89.3338 82.3765 88.0323 82.0633 86.0441C81.7501 84.0558 79.6343 77.3974 78.6923 74.2608C77.7504 71.1242 77.595 69.6695 76.3398 68.6719C75.0847 67.6743 74.7019 67.4052 73.6046 68.1708" fill="white"/>
<path d="M72.8134 74.1077C72.8134 74.1077 72.7346 82.984 72.5814 84.7426C72.4283 86.5011 72.8134 88.0323 74.5395 88.951C76.2656 89.8698 78.458 89.7932 79.1633 89.5635C79.8686 89.3338 82.3765 88.0323 82.0633 86.0441C81.7501 84.0558 79.6343 77.3974 78.6923 74.2608C77.7504 71.1242 77.595 69.6695 76.3398 68.6719C75.0847 67.6743 74.7019 67.4052 73.6046 68.1708" stroke="#263238" stroke-linecap="round" stroke-linejoin="round"/>
<path d="M45.3365 93.1248L46.3017 91.7166C46.3017 91.7166 48.9743 90.8999 50.0137 90.306C51.053 89.7121 51.7212 88.0069 50.6818 86.8933C49.6425 85.7797 47.9373 85.4108 46.7494 86.2994C45.5616 87.1879 45.1254 88.8235 44.4503 89.2667C43.7752 89.7098 41.0376 90.3803 40.2952 90.5287C39.5528 90.6772 39.2558 91.2711 39.4043 91.7908C39.5528 92.3105 40.0725 94.3869 40.4437 94.6839C40.8149 94.9808 42.0677 95.8717 42.9655 95.8717C43.8633 95.8717 44.7473 94.8323 45.0535 94.7581C45.3597 94.6839 46.1532 93.9415 45.3365 93.1248Z" fill="white" stroke="#263238" stroke-linecap="round" stroke-linejoin="round"/>
<path d="M43.5767 90.7491C43.5767 90.7491 43.2264 94.018 43.3447 94.1433C43.4761 94.2409 43.6272 94.3086 43.7876 94.3415C43.9479 94.3744 44.1135 94.3716 44.2727 94.3335C44.6532 94.2384 45.159 91.7653 45.159 91.2572C45.12 90.847 45.0018 90.4484 44.811 90.0833" stroke="#263238" stroke-linecap="round" stroke-linejoin="round"/>
<path d="M41.3516 91.002C41.3516 91.002 42.4304 92.9392 42.8433 93.2245L43.2563 93.5099" stroke="#263238" stroke-linecap="round" stroke-linejoin="round"/>
<path d="M40.1797 92.0505C40.1797 92.0505 41.2585 94.0481 41.8037 94.3033C42.3489 94.5585 43.5808 95.0317 44.8197 94.9366" stroke="#263238" stroke-linecap="round" stroke-linejoin="round"/>
<path d="M41.5253 87.8791L42.8454 93.2151L43.2259 93.3404L43.2908 92.7697L42.161 87.719C42.1501 87.6761 42.1305 87.6359 42.1036 87.6007C42.0766 87.5656 42.0428 87.5363 42.0042 87.5146C41.9656 87.4929 41.923 87.4793 41.8789 87.4745C41.8349 87.4698 41.7904 87.4741 41.748 87.487C41.6677 87.5114 41.5998 87.5656 41.5583 87.6386C41.5169 87.7116 41.505 87.7977 41.5253 87.8791Z" fill="#263238" stroke="#263238" stroke-linecap="round" stroke-linejoin="round"/>
<path d="M41.0391 95.0642C41.0391 95.0642 42.4311 95.5398 42.7837 95.6024C43.2308 95.6798 43.6905 95.6366 44.1154 95.4772" stroke="#263238" stroke-linecap="round" stroke-linejoin="round"/>
<path d="M45.3367 93.1248C45.2717 93.2305 45.1824 93.3193 45.0764 93.3839C44.9703 93.4484 44.8504 93.4868 44.7266 93.496" stroke="#263238" stroke-linecap="round" stroke-linejoin="round"/>
<path d="M74.0088 86.7679C74.0088 86.7679 65.8888 92.1039 65.4387 92.3359C64.9886 92.5679 60.5412 93.7813 59.8707 94.171C59.2002 94.5608 58.7571 96.2312 58.4787 96.7857C58.2003 97.3402 57.9219 98.9015 57.9219 98.9015C58.0214 99.0051 58.1436 99.0841 58.2789 99.1324C58.4141 99.1808 58.5588 99.197 58.7014 99.1799C59.2025 99.1242 59.7593 97.0084 59.7593 97.0084L60.8706 95.396C60.8706 95.396 60.1468 97.0084 60.1468 97.3982C60.1468 97.7879 59.8707 98.8458 59.8707 99.0222C59.8707 99.1985 60.2024 99.4119 60.6479 99.1892C61.0933 98.9665 61.4274 97.2961 61.4274 97.2961L62.374 95.7394C62.374 95.7394 61.6501 97.9086 61.4274 98.354C61.2047 98.7994 61.149 98.9665 61.7615 98.9108C62.374 98.8551 62.4296 98.187 62.5967 97.7508C62.7637 97.3146 63.1535 96.4725 63.1535 96.4725L64.2648 95.693C64.2648 95.693 63.5432 97.2497 63.3205 97.6394C63.0978 98.0292 62.8751 98.1406 63.6546 98.1406C64.4341 98.1406 64.9329 96.4168 64.9329 96.4168C65.2225 96.2085 65.5013 95.9855 65.7681 95.7486C66.0001 95.5166 66.826 94.2453 66.826 94.2453C66.826 94.2453 76.7301 90.9068 77.8994 90.35C79.0687 89.7932 79.1777 88.958 78.7323 88.2365C78.2868 87.515 76.3288 85.8167 74.0088 86.7679Z" fill="white" stroke="#263238" stroke-linecap="round" stroke-linejoin="round"/>
<path d="M74.8297 103.519L67.6562 97.533H80.4487L74.8297 103.519Z" fill="white" stroke="#263238" stroke-linecap="round" stroke-linejoin="round"/>
<path d="M75.1303 102.795L72.2188 100.168H76.8425L75.1303 102.795Z" fill="#263238" stroke="#263238" stroke-linecap="round" stroke-linejoin="round"/>
<path d="M96.5224 103.518H74.8281L78.1364 89.7539H99.8308L96.5224 103.518Z" fill="white" stroke="#263238" stroke-linecap="round" stroke-linejoin="round"/>
<path d="M98.0977 96.9761C94.0772 97.6141 90.2097 99.9921 85.4607 101.384C82.0093 102.389 78.4633 103.035 74.8792 103.312L74.8281 103.525H96.5224L98.0977 96.9761Z" fill="#263238" stroke="#263238" stroke-linecap="round" stroke-linejoin="round"/>
<path d="M87.879 97.9782C88.7182 97.9782 89.3986 97.4578 89.3986 96.8159C89.3986 96.174 88.7182 95.6536 87.879 95.6536C87.0397 95.6536 86.3594 96.174 86.3594 96.8159C86.3594 97.4578 87.0397 97.9782 87.879 97.9782Z" fill="white" stroke="#263238" stroke-linecap="round" stroke-linejoin="round"/>
</svg>
