<svg width="116" height="116" viewBox="0 0 116 116" fill="none" xmlns="http://www.w3.org/2000/svg">
<path opacity="0.7" d="M15.7624 38.7649C15.7624 38.7649 9.29424 55.4689 18.384 72.2889C27.4738 89.1089 46.1962 97.9945 61.181 105.593C76.1659 113.191 91.7262 109.49 99.12 97.0456C106.514 84.6012 96.3731 75.7179 96.3592 57.9722C96.3453 40.2265 99.0156 35.5285 89.3992 20.5367C79.7828 5.54485 56.2093 2.22493 38.3824 13.3447C20.5555 24.4645 15.7624 38.7649 15.7624 38.7649Z" fill="white"/>
<path d="M20.2491 103.778C20.2491 103.778 -0.491745 75.3838 12.3611 53.5596C25.2139 31.7354 50.7408 46.7133 55.6012 26.346C60.4616 5.97871 78.2027 2.64023 95.0273 28.1092C111.852 53.5782 107.827 88.9976 98.9179 103.778H20.2491Z" fill="#EF233C"/>
<path opacity="0.7" d="M20.1602 103.778C20.1602 103.778 -0.582949 75.3838 12.2722 53.5596C25.1273 31.7354 50.6519 46.7133 55.51 26.346C60.3681 5.97871 78.1115 2.64023 94.9361 28.1092C111.761 53.5782 107.733 88.9976 98.8337 103.778H20.1602Z" fill="white"/>
<path d="M7.42578 103.89H108.568" stroke="#263238" stroke-linecap="round" stroke-linejoin="round"/>
<path d="M87.6758 24.5688C90.0383 24.168 92.467 24.5793 94.5658 25.7357C96.6646 26.8921 98.3098 28.7254 99.2331 30.9367C100.156 33.1479 100.303 35.6068 99.6501 37.9123C98.9968 40.2178 97.5818 42.2341 95.6357 43.6323" stroke="#263238" stroke-linecap="round" stroke-linejoin="round"/>
<path d="M83.2539 26.4155C84.238 25.7061 85.3367 25.1709 86.5019 24.8333" stroke="#263238" stroke-linecap="round" stroke-linejoin="round"/>
<path d="M84.3175 44.2887C82.8879 43.4967 81.6609 42.3849 80.7324 41.04C79.8038 39.6952 79.1988 38.1539 78.9647 36.5364C78.7307 34.919 78.8738 33.2694 79.383 31.7165C79.8922 30.1636 80.7537 28.7495 81.9 27.5847" stroke="#263238" stroke-linecap="round" stroke-linejoin="round"/>
<path d="M83.8091 47.6344L83.1758 48.1935L84.1618 44.8225" stroke="#263238" stroke-linecap="round" stroke-linejoin="round"/>
<path d="M91.2301 45.4721C89.6703 45.7409 88.07 45.6545 86.5483 45.2192L84.5508 46.9824" stroke="#263238" stroke-linecap="round" stroke-linejoin="round"/>
<path d="M93.6626 44.7505C93.2673 44.9204 92.8621 45.066 92.4492 45.1866" stroke="#263238" stroke-linecap="round" stroke-linejoin="round"/>
<path d="M90.407 29.863C91.721 30.0877 92.9034 30.796 93.7214 31.8487C94.5394 32.9014 94.9337 34.2222 94.8267 35.551C94.7197 36.8799 94.1191 38.1205 93.1433 39.0288C92.1674 39.937 90.8869 40.4471 89.5538 40.4586C88.2207 40.47 86.9316 39.9821 85.9402 39.0907C84.9489 38.1994 84.3271 36.9692 84.1973 35.6424C84.0674 34.3156 84.4389 32.9883 85.2387 31.9217C86.0384 30.8551 87.2085 30.1265 88.5185 29.8793" stroke="#263238" stroke-linecap="round" stroke-linejoin="round"/>
<path d="M88.5201 40.9481C86.9749 40.6849 85.5975 39.8187 84.6908 38.54C83.7842 37.2614 83.4225 35.6749 83.6853 34.1296" stroke="#263238" stroke-linecap="round" stroke-linejoin="round"/>
<path d="M95.0706 37.1201C94.7067 38.1263 94.0768 39.015 93.2478 39.6916C92.4189 40.3681 91.422 40.8072 90.3633 40.962" stroke="#263238" stroke-linecap="round" stroke-linejoin="round"/>
<path d="M84.1406 32.6564C84.7397 31.3545 85.7914 30.3146 87.1 29.7302C88.4085 29.1458 89.8848 29.0566 91.2542 29.4793C92.6236 29.902 93.7927 30.8078 94.5442 32.0281C95.2956 33.2484 95.5782 34.7001 95.3393 36.1132" stroke="#263238" stroke-linecap="round" stroke-linejoin="round"/>
<path d="M93.0586 32.9927L93.1282 32.9185" stroke="#263238" stroke-width="2" stroke-linecap="round" stroke-linejoin="round"/>
<path d="M92.1094 34.0135L92.5827 33.5054" stroke="#263238" stroke-width="2" stroke-linecap="round" stroke-linejoin="round"/>
<path d="M86.332 34.7606L88.608 37.7859L91.6959 34.459" stroke="#263238" stroke-width="2" stroke-linecap="round" stroke-linejoin="round"/>
<path d="M96.8831 84.3669H69.5117V103.89H96.8831V84.3669Z" fill="#999999"/>
<mask id="mask0_2090_24033" style="mask-type:luminance" maskUnits="userSpaceOnUse" x="69" y="84" width="28" height="20">
<path d="M96.8831 84.3669H69.5117V103.89H96.8831V84.3669Z" fill="white"/>
</mask>
<g mask="url(#mask0_2090_24033)">
<path opacity="0.3" d="M69.5117 103.892H83.6962V92.7421L96.8854 92.1713V91.4614H69.5117V103.892Z" fill="black" fill-opacity="0.7"/>
</g>
<path d="M96.8831 84.3669H69.5117V103.89H96.8831V84.3669Z" stroke="#263238" stroke-linecap="round" stroke-linejoin="round"/>
<path d="M97.5362 84.0884H68.8633V91.3987H97.5362V84.0884Z" fill="#999999"/>
<mask id="mask1_2090_24033" style="mask-type:luminance" maskUnits="userSpaceOnUse" x="68" y="84" width="30" height="8">
<path d="M97.5362 84.0884H68.8633V91.3987H97.5362V84.0884Z" fill="white"/>
</mask>
<g mask="url(#mask1_2090_24033)">
<path opacity="0.3" d="M84.0639 84.0884H68.8633V91.3987H84.0639V84.0884Z" fill="black" fill-opacity="0.7"/>
</g>
<path d="M97.5362 84.0884H68.8633V91.3987H97.5362V84.0884Z" stroke="#263238" stroke-linecap="round" stroke-linejoin="round"/>
<path d="M84.0625 89.4988V90.5173" stroke="#263238" stroke-linecap="round" stroke-linejoin="round"/>
<path d="M84.0625 87.4756V88.6054" stroke="#263238" stroke-linecap="round" stroke-linejoin="round"/>
<path d="M84.0625 84.0884V86.6682" stroke="#263238" stroke-linecap="round" stroke-linejoin="round"/>
<path d="M83.6953 102.632V103.054" stroke="#263238" stroke-linecap="round" stroke-linejoin="round"/>
<path d="M83.6953 96.3914V101.716" stroke="#263238" stroke-linecap="round" stroke-linejoin="round"/>
<path d="M83.6953 91.459V94.5098" stroke="#263238" stroke-linecap="round" stroke-linejoin="round"/>
<path d="M92.493 89.8442H91.1172V93.4866H92.493V89.8442Z" fill="#BFBFBF" stroke="#263238" stroke-linecap="round" stroke-linejoin="round"/>
<path d="M72.3848 59.6241C70.9232 60.232 64.4388 60.9396 64.4388 60.9396C65.4633 58.6944 66.7132 56.5591 68.1693 54.5665L66.26 53.2905C66.26 53.2905 61.2163 58.717 59.9751 62.5404C59.9751 62.5404 59.6039 64.2688 59.8498 64.5147C60.0957 64.7606 62.1698 65.5262 66.0883 65.8162C70.0068 66.1062 72.8163 66.1781 72.8163 66.1781" fill="white"/>
<path d="M72.3848 59.6241C70.9232 60.232 64.4388 60.9396 64.4388 60.9396C65.4633 58.6944 66.7132 56.5591 68.1693 54.5665L66.26 53.2905C66.26 53.2905 61.2163 58.717 59.9751 62.5404C59.9751 62.5404 59.6039 64.2688 59.8498 64.5147C60.0957 64.7606 62.1698 65.5262 66.0883 65.8162C70.0068 66.1062 72.8163 66.1781 72.8163 66.1781" stroke="#263238" stroke-linecap="round" stroke-linejoin="round"/>
<path d="M64.9141 54.4179C64.9141 54.4179 66.4058 55.8609 67.5983 55.7867L68.5263 54.3274C68.5263 54.3274 71.5029 52.8449 71.1618 52.1025C70.8208 51.3601 70.5169 51.8705 70.5169 51.8705L71.8346 50.982C71.8346 50.982 70.1851 50.0006 69.8348 50.0029C69.4845 50.0053 68.5889 49.8359 67.9927 50.0818C67.3965 50.3277 66.3084 52.954 66.3084 52.954L64.9141 54.4179Z" fill="#EF233C" stroke="#263238" stroke-linecap="round" stroke-linejoin="round"/>
<path d="M68.207 53.8565C68.207 53.8565 68.8474 53.606 69.0562 53.1605C69.265 52.7151 69.0562 51.8752 69.0562 51.8752" fill="#EF233C"/>
<path d="M68.207 53.8565C68.207 53.8565 68.8474 53.606 69.0562 53.1605C69.265 52.7151 69.0562 51.8752 69.0562 51.8752" stroke="#263238" stroke-linecap="round" stroke-linejoin="round"/>
<path d="M68.793 51.3579C68.919 51.5384 69.109 51.6643 69.3244 51.7099C69.5398 51.7556 69.7645 51.7177 69.953 51.6038" fill="#EF233C"/>
<path d="M68.793 51.3579C68.919 51.5384 69.109 51.6643 69.3244 51.7099C69.5398 51.7556 69.7645 51.7177 69.953 51.6038" stroke="#263238" stroke-linecap="round" stroke-linejoin="round"/>
<path d="M69.2734 50.9773C69.7014 51.2498 70.1135 51.5465 70.5077 51.8659L69.2734 50.9773Z" fill="#EF233C"/>
<path d="M69.2734 50.9773C69.7014 51.2498 70.1135 51.5465 70.5077 51.8659" stroke="#263238" stroke-linecap="round" stroke-linejoin="round"/>
<path d="M71.0791 51.4809L70.1094 50.6782L71.0791 51.4809Z" fill="#EF233C"/>
<path d="M71.0791 51.4809L70.1094 50.6782" stroke="#263238" stroke-linecap="round" stroke-linejoin="round"/>
<path d="M64.4335 60.9395C64.3903 61.8699 64.1237 62.7763 63.6562 63.5819" stroke="#263238" stroke-linecap="round" stroke-linejoin="round"/>
<path d="M75.7898 58.7959C75.7898 58.7959 70.9178 59.2274 70.0037 59.7773C69.0896 60.3271 67.0039 60.5336 67.0039 60.5336C67.0039 60.5336 67.9319 63.1482 67.0039 65.8812L67.86 66.6282C67.86 66.6282 69.4515 66.4774 69.8181 66.6282C70.1846 66.779 73.9709 67.8787 73.9709 67.8787" fill="#EF233C"/>
<mask id="mask2_2090_24033" style="mask-type:luminance" maskUnits="userSpaceOnUse" x="67" y="58" width="9" height="10">
<path d="M75.7898 58.7959C75.7898 58.7959 70.9178 59.2274 70.0037 59.7773C69.0896 60.3271 67.0039 60.5336 67.0039 60.5336C67.0039 60.5336 67.9319 63.1482 67.0039 65.8812L67.86 66.6282C67.86 66.6282 69.4515 66.4774 69.8181 66.6282C70.1846 66.779 73.9709 67.8787 73.9709 67.8787" fill="white"/>
</mask>
<g mask="url(#mask2_2090_24033)">
<path opacity="0.2" d="M72.4226 67.4264C71.3322 67.1039 70.026 66.7142 69.8172 66.6283C69.4507 66.4775 67.8591 66.6283 67.8591 66.6283L67.3789 66.2084C68.0749 65.183 68.4902 63.8884 68.7709 63.8884C68.9217 63.8884 69.2488 64.3083 69.5551 64.7839C69.3231 63.3107 69.8451 61.3666 70.1049 63.0207C70.2975 64.2364 71.4575 66.0808 72.4226 67.4264Z" fill="black"/>
</g>
<path d="M75.7898 58.7959C75.7898 58.7959 70.9178 59.2274 70.0037 59.7773C69.0896 60.3271 67.0039 60.5336 67.0039 60.5336C67.0039 60.5336 67.9319 63.1482 67.0039 65.8812L67.86 66.6282C67.86 66.6282 69.4515 66.4774 69.8181 66.6282C70.1846 66.779 73.9709 67.8787 73.9709 67.8787" stroke="#263238" stroke-linecap="round" stroke-linejoin="round"/>
<path d="M72.0281 96.6163C72.0281 96.6163 73.8377 101.878 73.7588 103.53C73.7588 103.53 70.8124 104.265 69.309 104.082C67.8057 103.899 64.8082 104.14 63.2167 104.11C61.6252 104.08 61.4419 103.713 61.4419 103.713C61.4419 103.713 61.319 103.04 62.3699 102.43C63.4209 101.82 67.6317 101.502 67.9982 98.4491C68.3648 95.396 72.0281 96.6163 72.0281 96.6163Z" fill="#BFBFBF" stroke="#263238" stroke-linecap="round" stroke-linejoin="round"/>
<path d="M93.4761 76.792C93.4761 76.792 95.0746 81.1188 94.186 83.8587C93.2974 86.5986 86.9383 88.624 85.5254 88.624C84.1126 88.624 72.8142 85.7982 72.8142 85.7982L72.2481 86.4177L70.5081 85.7101L73.248 98.3402C73.248 98.3402 74.5727 99.0478 73.248 99.4886C71.9233 99.9294 66.8889 99.9317 66.8007 99.4886C66.7527 99.1073 66.7527 98.7215 66.8007 98.3402L66.0537 96.9273C66.0537 96.9273 66.1905 94.4542 66.0537 94.1015C65.9168 93.7489 60.2653 81.9958 62.641 79.17C65.0166 76.3442 79.113 78.6387 79.113 78.6387L80.911 76.7827L93.4761 76.792Z" fill="#263238"/>
<mask id="mask3_2090_24033" style="mask-type:luminance" maskUnits="userSpaceOnUse" x="62" y="76" width="33" height="24">
<path d="M93.4761 76.792C93.4761 76.792 95.0746 81.1188 94.186 83.8587C93.2974 86.5986 86.9383 88.624 85.5254 88.624C84.1126 88.624 72.8142 85.7982 72.8142 85.7982L72.2481 86.4177L70.5081 85.7101L73.248 98.3402C73.248 98.3402 74.5727 99.0478 73.248 99.4886C71.9233 99.9294 66.8889 99.9317 66.8007 99.4886C66.7527 99.1073 66.7527 98.7215 66.8007 98.3402L66.0537 96.9273C66.0537 96.9273 66.1905 94.4542 66.0537 94.1015C65.9168 93.7489 60.2653 81.9958 62.641 79.17C65.0166 76.3442 79.113 78.6387 79.113 78.6387L80.911 76.7827L93.4761 76.792Z" fill="white"/>
</mask>
<g mask="url(#mask3_2090_24033)">
<path opacity="0.2" d="M70.8555 85.84L72.2475 86.4061L72.8135 85.7867C72.8135 85.7867 84.112 88.624 85.5248 88.624C86.9377 88.624 93.2991 86.594 94.1854 83.8541C94.2534 83.6423 94.3069 83.426 94.3455 83.2068C93.3734 84.1673 91.4895 85.8145 89.5106 86.3806C89.5106 86.3806 90.0883 85.7751 88.5524 85.4526C87.0166 85.1301 82.3047 77.6597 82.3047 77.6597L80.2399 77.4973L79.1123 78.648C79.1123 78.648 76.9385 78.2931 74.1545 78.0355C73.2038 80.6975 72.1024 83.3033 70.8555 85.84Z" fill="black"/>
<path opacity="0.2" d="M66.0537 94.097C66.1906 94.4496 66.0537 96.9227 66.0537 96.9227L66.8007 98.3356C66.7527 98.7169 66.7527 99.1027 66.8007 99.484C66.8889 99.9248 71.9233 99.9248 73.248 99.484C74.5727 99.0432 73.248 98.3356 73.248 98.3356L70.6334 86.2878C69.2414 89.0231 67.5478 91.7259 65.7266 93.3731C65.9145 93.7907 66.0351 94.0482 66.0537 94.097Z" fill="black"/>
<path d="M70.5078 85.7055C70.5078 85.7055 71.3082 84.2602 70.8628 83.2185" stroke="white" stroke-linecap="round" stroke-linejoin="round"/>
<path d="M70.1445 83.52C70.1975 83.9455 70.2169 84.3745 70.2025 84.803" stroke="white" stroke-linecap="round" stroke-linejoin="round"/>
<path d="M69.7812 81.8542C69.8814 82.1624 69.9635 82.4761 70.0272 82.7938" stroke="white" stroke-linecap="round" stroke-linejoin="round"/>
<path d="M68.4165 87.7214C68.4165 87.7214 68.3422 91.9299 66.0547 94.0968" stroke="white" stroke-linecap="round" stroke-linejoin="round"/>
<path d="M69.2321 95.7859C68.6127 96.7139 67.8541 97.8507 66.8008 98.3379" stroke="white" stroke-linecap="round" stroke-linejoin="round"/>
<path d="M69.9962 94.5215C69.8779 94.7396 69.7526 94.953 69.625 95.1664" stroke="white" stroke-linecap="round" stroke-linejoin="round"/>
<path opacity="0.2" d="M94.1573 79.2535C93.9868 78.4185 93.7597 77.5961 93.4776 76.792H92.9277L90.3316 78.3C90.3316 78.3 89.8607 79.4298 94.1573 79.2535Z" fill="black"/>
<path d="M93 80.0192C93 80.0192 91.6544 79.4137 90.332 79.6712" stroke="white" stroke-linecap="round" stroke-linejoin="round"/>
</g>
<path d="M93.4761 76.792C93.4761 76.792 95.0746 81.1188 94.186 83.8587C93.2974 86.5986 86.9383 88.624 85.5254 88.624C84.1126 88.624 72.8142 85.7982 72.8142 85.7982L72.2481 86.4177L70.5081 85.7101L73.248 98.3402C73.248 98.3402 74.5727 99.0478 73.248 99.4886C71.9233 99.9294 66.8889 99.9317 66.8007 99.4886C66.7527 99.1073 66.7527 98.7215 66.8007 98.3402L66.0537 96.9273C66.0537 96.9273 66.1905 94.4542 66.0537 94.1015C65.9168 93.7489 60.2653 81.9958 62.641 79.17C65.0166 76.3442 79.113 78.6387 79.113 78.6387L80.911 76.7827L93.4761 76.792Z" stroke="#263238" stroke-miterlimit="10"/>
<path d="M83.101 99.3748C83.101 99.3748 83.3469 100.897 83.101 101.173C82.855 101.449 82.3609 104.692 82.3609 104.692C82.3609 104.692 75.9577 105.688 74.0506 105.551C71.4986 105.367 70.9024 104.623 70.9024 104.623C70.9024 104.623 70.8583 103.644 73.2595 102.876C76.2222 101.929 78.505 98.7646 78.505 98.7646L83.101 99.3748Z" fill="#BFBFBF" stroke="#263238" stroke-linecap="round" stroke-linejoin="round"/>
<path d="M71.3533 65.7441C73.5132 69.4863 79.065 75.3234 79.065 75.3234C79.065 75.3234 78.717 75.8524 79.4872 76.8245C79.2486 77.0662 79.0997 77.3821 79.065 77.72C79.0186 78.2489 83.5843 80.8984 87.9135 80.1931C92.2426 79.4878 94.0963 78.2489 94.1775 77.365C94.2587 76.4811 89.7973 64.6746 86.7952 61.0531C84.4052 59.3529 81.548 58.4332 78.6149 58.4199C75.1488 58.4013 72.446 59.5451 71.2188 61.2457" fill="#EF233C"/>
<mask id="mask4_2090_24033" style="mask-type:luminance" maskUnits="userSpaceOnUse" x="71" y="58" width="24" height="23">
<path d="M71.3533 65.7441C73.5132 69.4863 79.065 75.3234 79.065 75.3234C79.065 75.3234 78.717 75.8524 79.4872 76.8245C79.2486 77.0662 79.0997 77.3821 79.065 77.72C79.0186 78.2489 83.5843 80.8984 87.9135 80.1931C92.2426 79.4878 94.0963 78.2489 94.1775 77.365C94.2587 76.4811 89.7973 64.6746 86.7952 61.0531C84.4052 59.3529 81.548 58.4332 78.6149 58.4199C75.1488 58.4013 72.446 59.5451 71.2188 61.2457" fill="white"/>
</mask>
<g mask="url(#mask4_2090_24033)">
<path opacity="0.2" d="M88.6669 80.0401C88.4349 80.0865 88.1751 80.1329 87.9152 80.1746C83.5861 80.8706 79.0204 78.2305 79.0668 77.7015C79.104 77.3678 79.2528 77.0563 79.489 76.8176C79.4612 76.7805 79.4333 76.7457 79.4101 76.7109C81.5236 76.3026 83.4585 75.1681 82.57 75.2075C81.352 75.2632 80.6049 75.0822 81.9343 74.2911C83.2636 73.5 82.9296 68.7927 82.9296 68.7927C82.9296 68.7927 85.6254 66.7047 88.4419 72.1776C91.1006 77.3442 89.936 78.6318 88.6669 80.0401Z" fill="black"/>
</g>
<path d="M71.3533 65.7441C73.5132 69.4863 79.065 75.3234 79.065 75.3234C79.065 75.3234 78.717 75.8524 79.4872 76.8245C79.2486 77.0662 79.0997 77.3821 79.065 77.72C79.0186 78.2489 83.5843 80.8984 87.9135 80.1931C92.2426 79.4878 94.0963 78.2489 94.1775 77.365C94.2587 76.4811 89.7973 64.6746 86.7952 61.0531C84.4052 59.3529 81.548 58.4332 78.6149 58.4199C75.1488 58.4013 72.446 59.5451 71.2188 61.2457" stroke="#263238" stroke-linecap="round" stroke-linejoin="round"/>
<path d="M81.9323 59.1089C81.9323 59.1089 80.2642 56.5453 78.4732 56.8817C76.6821 57.2181 71.6292 51.664 71.1513 50.9773C70.6733 50.2906 70.0307 51.8659 70.0307 51.8659C70.0307 51.8659 69.2489 52.4807 69.0656 53.1511C68.8823 53.8216 69.3881 57.0789 69.0656 57.7679C68.8646 58.2744 68.7714 58.8173 68.7918 59.3618L70.1212 58.4059C70.1212 58.4059 71.0979 60.7515 71.8032 61.4846C72.5085 62.2177 74.2693 60.3571 75.6149 59.3618C76.9605 58.3665 78.8861 57.9025 79.9417 59.6239" fill="#BFBFBF"/>
<path d="M81.9323 59.1089C81.9323 59.1089 80.2642 56.5453 78.4732 56.8817C76.6821 57.2181 71.6292 51.664 71.1513 50.9773C70.6733 50.2906 70.0307 51.8659 70.0307 51.8659C70.0307 51.8659 69.2489 52.4807 69.0656 53.1511C68.8823 53.8216 69.3881 57.0789 69.0656 57.7679C68.8646 58.2744 68.7714 58.8173 68.7918 59.3618L70.1212 58.4059C70.1212 58.4059 71.0979 60.7515 71.8032 61.4846C72.5085 62.2177 74.2693 60.3571 75.6149 59.3618C76.9605 58.3665 78.8861 57.9025 79.9417 59.6239" stroke="#263238" stroke-linecap="round" stroke-linejoin="round"/>
<path d="M70.1232 58.4061L70.8192 58.2274C70.8192 58.2274 69.9933 54.991 70.1232 54.5665C70.2532 54.1419 70.8053 51.9054 70.8192 51.3579" stroke="#263238" stroke-linecap="round" stroke-linejoin="round"/>
<path d="M72.1797 59.8814C72.5973 60.3454 73.864 59.3618 74.2677 59.1089" stroke="#263238" stroke-linecap="round" stroke-linejoin="round"/>
<path d="M71.3945 57.9653C71.4843 58.3445 71.599 58.7172 71.7379 59.0813" stroke="#263238" stroke-linecap="round" stroke-linejoin="round"/>
<path d="M72.9386 58.6288C73.4142 58.7216 73.8225 59.2018 74.0986 59.624C74.2414 59.8457 74.3663 60.0785 74.4721 60.32C74.4721 60.32 73.7761 62.6145 76.0752 62.176C78.3743 61.7376 79.1237 59.392 79.1237 59.392C77.7526 58.3759 77.8848 57.0187 77.8848 57.0187C76.4186 56.506 73.623 57.7147 72.9571 58.3248C72.7808 58.464 72.7553 58.594 72.9386 58.6288Z" fill="white" stroke="#263238" stroke-linecap="round" stroke-linejoin="round"/>
<path d="M72.9381 58.6289C73.4137 58.7217 73.822 59.2019 74.0981 59.6241C75.0771 58.8748 75.1282 57.9653 75.1282 57.9653L72.9613 58.311C72.7803 58.4641 72.7548 58.5941 72.9381 58.6289Z" fill="#263238"/>
<path d="M79.9414 75.1681C79.9414 75.1681 84.1313 74.8665 85.1939 72.4607" stroke="#263238" stroke-linecap="round" stroke-linejoin="round"/>
<path d="M89.8701 77.6784C86.6685 78.0101 83.2743 77.922 80.2305 76.7852" stroke="#263238" stroke-linecap="round" stroke-linejoin="round"/>
<path d="M92.2312 77.3303C91.7231 77.4347 91.2104 77.5136 90.6953 77.5809" stroke="#263238" stroke-linecap="round" stroke-linejoin="round"/>
<path d="M77.447 57.2229C77.447 57.2229 78.491 55.9284 78.7787 55.0189C80.0106 51.1214 80.2264 48.6204 75.8091 47.6622C72.6887 46.9871 71.0856 51.1701 71.1575 52.6827C71.1992 53.5365 70.7793 54.3694 70.5682 55.0468C70.3362 55.8031 70.7816 58.7588 71.7491 59.0117C72.9856 59.3202 75.0272 58.8934 75.3474 58.209" fill="white"/>
<path d="M77.447 57.223C77.447 57.223 78.491 55.9284 78.7787 55.019C80.0106 51.1214 80.2264 48.6204 75.8091 47.6622C72.6887 46.9871 71.0856 51.1701 71.1575 52.6827C71.1992 53.5365 70.7793 54.3694 70.5682 55.0468C70.3362 55.8031 70.7816 58.7588 71.7491 59.0117C72.9856 59.3202 75.0272 58.8934 75.3474 58.209" stroke="#263238" stroke-linecap="round" stroke-linejoin="round"/>
<path d="M73.7461 53.787C73.6904 53.9912 73.7577 54.1884 73.8992 54.2278C74.0407 54.2673 74.2008 54.1327 74.2565 53.9285C74.3122 53.7244 74.2449 53.5272 74.1034 53.4877C73.9618 53.4483 73.8018 53.5921 73.7461 53.787Z" fill="#263238"/>
<path d="M71.6133 53.0794C71.5576 53.2836 71.6249 53.4808 71.7664 53.5202C71.9079 53.5596 72.068 53.4251 72.1237 53.2209C72.1793 53.0168 72.1121 52.8196 71.9705 52.7824C71.829 52.7453 71.6689 52.8752 71.6133 53.0794Z" fill="#263238"/>
<path d="M72.3859 53.6082C72.3859 53.6082 71.2816 54.5802 71.2259 54.7682C71.1702 54.9561 71.8454 55.4897 71.8454 55.4897" stroke="#263238" stroke-linecap="round" stroke-linejoin="round"/>
<path d="M71.457 56.2439C72.0056 56.5435 72.6479 56.6224 73.2527 56.4643" stroke="#263238" stroke-linecap="round" stroke-linejoin="round"/>
<path d="M73.9688 51.9101C73.9688 51.9101 74.4652 51.6641 75.1287 52.3369" stroke="#263238" stroke-linecap="round" stroke-linejoin="round"/>
<path d="M72.3865 51.6038C72.3865 51.6038 71.7809 51.0516 71.5977 51.6038" stroke="#263238" stroke-linecap="round" stroke-linejoin="round"/>
<path d="M76.0742 50.6852C76.0742 50.6852 76.6264 51.6642 76.5382 52.6433C76.4564 53.3535 76.3009 54.0533 76.0742 54.7313L76.3062 54.9145C76.3062 54.9145 77.2458 54.425 77.4894 54.9145C77.733 55.4041 76.8143 56.6894 76.8143 56.6894C76.8143 56.6894 77.3502 57.8493 78.1553 57.9723C78.1553 57.9723 78.1089 57.5454 78.3873 57.4225C78.6657 57.2995 79.6841 56.4225 79.6841 55.5015C79.6841 55.5015 79.8976 55.7892 79.6841 56.4295C79.6841 56.4295 81.3081 53.1467 79.7793 50.6991C78.2504 48.2515 76.0742 50.6852 76.0742 50.6852Z" fill="#263238"/>
<path d="M76.8236 55.0072C76.8236 55.0072 77.9975 54.0165 78.1483 55.0072C78.2991 55.9978 76.6473 57.3921 76.2505 56.9073C75.8538 56.4224 76.2505 56.3319 76.2505 56.3319" fill="white"/>
<path d="M76.8236 55.0072C76.8236 55.0072 77.9975 54.0165 78.1483 55.0072C78.2991 55.9978 76.6473 57.3921 76.2505 56.9073C75.8538 56.4224 76.2505 56.3319 76.2505 56.3319" stroke="#263238" stroke-linecap="round" stroke-linejoin="round"/>
<path d="M71.2241 58.5709C71.2241 58.5709 71.9433 58.4781 72.347 58.8029C72.7506 59.1277 72.275 59.6195 71.5883 59.2205C70.9016 58.8214 71.2241 58.5709 71.2241 58.5709Z" fill="#263238"/>
<path d="M72.2578 58.7957C72.2578 58.7957 75.768 58.8212 77.9024 50.9773H78.2643C78.2643 50.9773 78.1436 57.6055 72.4921 59.1089L72.2578 58.7957Z" fill="#263238"/>
<path d="M71.9017 48.9195C71.9017 48.9195 70.7417 49.4114 70.8159 49.6573C70.8902 49.9032 72.8181 51.2488 76.7041 51.2813C79.5809 51.3045 81.0471 53.8333 81.0471 53.8333C81.3232 53.0515 80.7989 52.0887 80.7989 52.0887C80.7989 52.0887 81.1701 49.4717 79.8546 48.3395C79.8546 48.3395 79.5739 47.212 77.8061 46.5044C75.4327 45.5555 74.7158 46.8733 74.7158 46.8733C74.0977 46.9006 73.5013 47.1092 73.0009 47.4731C72.5005 47.8369 72.1182 48.34 71.9017 48.9195Z" fill="#EF233C" stroke="#263238" stroke-linecap="round" stroke-linejoin="round"/>
<path d="M77.125 50.314C78.5379 50.4416 79.9438 50.8847 80.7952 52.0911" stroke="#263238" stroke-linecap="round" stroke-linejoin="round"/>
<path d="M75 50.2419C75.4454 50.2419 75.8909 50.2419 76.3363 50.2675" stroke="#263238" stroke-linecap="round" stroke-linejoin="round"/>
<path d="M71.8984 48.9194C72.1745 50.0794 73.193 50.1908 74.1999 50.2256" stroke="#263238" stroke-linecap="round" stroke-linejoin="round"/>
<path d="M77.5664 47.4717C77.9878 47.44 78.4111 47.5015 78.806 47.6519C79.201 47.8022 79.558 48.0378 79.8516 48.3417" stroke="#263238" stroke-linecap="round" stroke-linejoin="round"/>
<path d="M74.7055 46.8757C73.4921 48.7317 75.9444 47.8223 76.8399 47.5949" stroke="#263238" stroke-linecap="round" stroke-linejoin="round"/>
<path d="M76.0756 53.2486C76.0756 53.36 75.818 53.6778 75.9967 53.8356C76.1753 53.9933 76.3168 53.4992 76.1939 52.9609" stroke="#263238" stroke-width="0.5" stroke-linecap="round" stroke-linejoin="round"/>
<path d="M75.8633 51.7893C75.8633 51.9007 75.5083 52.4227 75.687 52.5781C75.8656 52.7335 76.0025 52.3763 75.919 52.1141" stroke="#263238" stroke-width="0.5" stroke-linecap="round" stroke-linejoin="round"/>
<path d="M87.8516 68.8646C87.8516 68.8646 82.4645 67.5979 82.7476 69.5119C83.0306 71.4259 84.3089 75.2841 84.3089 75.2841C84.3089 75.2841 77.1935 79.6411 76.7921 79.9635C76.6669 80.0633 78.27 81.6131 78.27 81.6131C79.5715 80.8776 88.6868 78.669 89.0394 77.0798C89.3921 75.4906 87.8516 68.8646 87.8516 68.8646Z" fill="white" stroke="#263238" stroke-linecap="round" stroke-linejoin="round"/>
<path d="M84.9953 60.5334C84.9953 60.5334 87.4684 62.8302 87.3803 64.5076C87.2921 66.185 88.4405 69.3541 88.4405 69.3541L87.9092 69.8946C87.9092 69.8946 84.3759 70.071 82.6985 71.0546C82.6985 71.0546 81.9608 71.5186 82.1696 69.8181C82.1515 69.3618 82.0432 68.9136 81.8509 68.4995C81.6585 68.0853 81.386 67.7134 81.049 67.4053C80.4296 66.8554 80.4899 63.7234 80.4899 63.7234" fill="#EF233C"/>
<path d="M84.9953 60.5334C84.9953 60.5334 87.4684 62.8302 87.3803 64.5076C87.2921 66.185 88.4405 69.3541 88.4405 69.3541L87.9092 69.8946C87.9092 69.8946 84.3759 70.071 82.6985 71.0546C82.6985 71.0546 81.9608 71.5186 82.1696 69.8181C82.1515 69.3618 82.0432 68.9136 81.8509 68.4995C81.6585 68.0853 81.386 67.7134 81.049 67.4053C80.4296 66.8554 80.4899 63.7234 80.4899 63.7234" stroke="#263238" stroke-linecap="round" stroke-linejoin="round"/>
<path d="M89.2363 85.0003C88.8836 86.6776 87.5589 89.0255 87.0299 89.9975C86.501 90.9696 84.29 98.6581 84.29 98.6581C84.29 98.6581 84.3782 100.071 82.3482 100.424C80.3182 100.776 76.467 99.4538 77.4901 98.8321C78.5132 98.2103 79.6175 91.0903 79.6175 91.0903C79.6175 91.0903 79.077 90.1205 80.0653 88.689C81.0536 87.2576 81.1348 79.1121 83.0581 78.5506C86.4151 77.5809 90.3359 79.6712 90.3359 79.6712C90.3359 79.6712 91.4449 80.0192 91.8115 81.0284" fill="#263238"/>
<mask id="mask5_2090_24033" style="mask-type:luminance" maskUnits="userSpaceOnUse" x="77" y="78" width="15" height="23">
<path d="M89.2363 85.0003C88.8836 86.6776 87.5589 89.0255 87.0299 89.9975C86.501 90.9696 84.29 98.6581 84.29 98.6581C84.29 98.6581 84.3782 100.071 82.3482 100.424C80.3182 100.776 76.467 99.4538 77.4901 98.8321C78.5132 98.2103 79.6175 91.0903 79.6175 91.0903C79.6175 91.0903 79.077 90.1205 80.0653 88.689C81.0536 87.2576 81.1348 79.1121 83.0581 78.5506C86.4151 77.5809 90.3359 79.6712 90.3359 79.6712C90.3359 79.6712 91.4449 80.0192 91.8115 81.0284" fill="white"/>
</mask>
<g mask="url(#mask5_2090_24033)">
<path d="M88.4932 81.5086C87.8853 80.2604 86.8692 79.1445 85.4609 78.873" stroke="white" stroke-linecap="round" stroke-linejoin="round"/>
<path d="M89.0908 83.1859C89.0175 82.8539 88.9205 82.5275 88.8008 82.2092" stroke="white" stroke-linecap="round" stroke-linejoin="round"/>
<path d="M80.4192 91.1064C80.1539 91.1402 79.8851 91.1355 79.6211 91.0925" stroke="white" stroke-linecap="round" stroke-linejoin="round"/>
<path d="M86.234 86.9722C84.907 88.5706 83.1716 90.2782 81.1602 90.937" stroke="white" stroke-linecap="round" stroke-linejoin="round"/>
</g>
<path d="M89.2363 85.0003C88.8836 86.6776 87.5589 89.0255 87.0299 89.9975C86.501 90.9696 84.29 98.6581 84.29 98.6581C84.29 98.6581 84.3782 100.071 82.3482 100.424C80.3182 100.776 76.467 99.4538 77.4901 98.8321C78.5132 98.2103 79.6175 91.0903 79.6175 91.0903C79.6175 91.0903 79.077 90.1205 80.0653 88.6891C81.0536 87.2576 81.1348 79.1121 83.0581 78.5506C86.4151 77.5809 90.3359 79.6712 90.3359 79.6712C90.3359 79.6712 91.4449 80.0192 91.8115 81.0284" stroke="#263238" stroke-miterlimit="10"/>
<path d="M80.1726 85.1278C80.1818 85.0836 80.1995 85.0417 80.2248 85.0044C80.2502 84.967 80.2826 84.9351 80.3203 84.9103C80.358 84.8855 80.4003 84.8684 80.4446 84.86C80.4889 84.8515 80.5345 84.8519 80.5786 84.861L81.6783 85.093C81.6618 84.8237 81.5603 84.5665 81.3884 84.3584C81.2165 84.1504 80.9831 84.0022 80.7216 83.9351C80.4602 83.8681 80.1843 83.8857 79.9335 83.9854C79.6827 84.085 79.4699 84.2617 79.3258 84.4898L71.1084 82.7962C71.0665 82.5297 70.9411 82.2832 70.7503 82.0924C70.5595 81.9015 70.3131 81.7761 70.0466 81.7341C69.78 81.6921 69.507 81.7356 69.2668 81.8585C69.0265 81.9814 68.8314 82.1773 68.7095 82.4181L69.8092 82.6501C69.8534 82.6592 69.8953 82.677 69.9326 82.7023C69.9699 82.7277 70.0019 82.7601 70.0267 82.7978C70.0515 82.8355 70.0686 82.8777 70.077 82.922C70.0855 82.9664 70.0851 83.0119 70.076 83.0561C70.0669 83.1003 70.0491 83.1422 70.0238 83.1795C69.9984 83.2168 69.966 83.2488 69.9283 83.2736C69.8905 83.2983 69.8483 83.3154 69.804 83.3239C69.7597 83.3324 69.7142 83.332 69.67 83.3229L68.5703 83.0909C68.5868 83.3602 68.6883 83.6174 68.8602 83.8255C69.0321 84.0335 69.2656 84.1817 69.527 84.2488C69.7884 84.3158 70.0644 84.2982 70.3152 84.1985C70.566 84.0989 70.7787 83.9223 70.9228 83.6941L79.1402 85.3761C79.1825 85.6425 79.3082 85.8887 79.4991 86.0792C79.69 86.2698 79.9364 86.3949 80.203 86.4367C80.4695 86.4784 80.7423 86.4346 80.9824 86.3116C81.2225 86.1886 81.4174 85.9926 81.5391 85.7519L80.4394 85.5199C80.3534 85.5009 80.2778 85.4497 80.2282 85.3768C80.1786 85.304 80.1587 85.2149 80.1726 85.1278Z" fill="#BFBFBF" stroke="#263238" stroke-linecap="round" stroke-linejoin="round"/>
<path d="M78.5901 78.416C77.8963 78.8389 77.2547 79.3419 76.6784 79.9147C76.2399 80.2604 73.7552 82.3345 73.7877 82.6477C73.8202 82.9609 73.5998 85.0582 73.7877 85.2484C73.9756 85.4387 74.7621 84.8169 74.7621 84.8169C74.7621 84.8169 74.9825 85.383 75.2261 85.4155C75.4679 85.4269 75.7102 85.416 75.9499 85.383C75.9499 85.383 76.3583 86.0117 76.7341 85.9491C77.1099 85.8864 77.6157 85.1626 77.2468 85.1324C77.1495 85.1175 77.05 85.13 76.9594 85.1685C76.8688 85.207 76.7908 85.27 76.7341 85.3505V84.5663C77.0496 84.3295 77.3446 84.0664 77.6157 83.7799C78.024 83.3391 78.2514 81.903 78.2514 81.903C78.4207 81.8079 79.5529 81.2835 79.9357 81.1467L78.5901 78.416Z" fill="#EF233C" stroke="#263238" stroke-linecap="round" stroke-linejoin="round"/>
<path d="M74.7617 84.8191L74.3789 83.3552" stroke="#263238" stroke-linecap="round" stroke-linejoin="round"/>
<path d="M75.9575 85.3853L75.6211 84.499" stroke="#263238" stroke-linecap="round" stroke-linejoin="round"/>
<path d="M74.5702 84.0884L74.25 84.6614" stroke="#263238" stroke-linecap="round" stroke-linejoin="round"/>
<path d="M75.4904 85.376C75.1633 85.144 74.9336 84.0791 74.9336 84.0791" stroke="#263238" stroke-linecap="round" stroke-linejoin="round"/>
<path d="M79.6572 57.0071C79.6572 57.0071 82.0514 57.7843 82.0422 59.8607C82.0422 60.7724 79.4902 66.5446 79.9426 69.3541C80.395 72.1636 80.4506 72.449 80.4506 72.449C80.4506 72.449 79.3556 72.4931 78.9612 72.449C78.5668 72.4049 78.7083 73.145 78.7083 73.145L77.3163 73.4095C77.3163 73.4095 76.901 68.8066 76.8523 66.8091C76.8036 64.8116 79.1282 58.6056 79.1282 58.6056C79.1518 58.413 79.124 58.2176 79.0479 58.0392C78.9717 57.8608 78.8498 57.7056 78.6944 57.5894" fill="#BFBFBF"/>
<path d="M79.6572 57.0071C79.6572 57.0071 82.0514 57.7843 82.0422 59.8607C82.0422 60.7724 79.4902 66.5446 79.9426 69.3541C80.395 72.1636 80.4506 72.449 80.4506 72.449C80.4506 72.449 79.3556 72.4931 78.9612 72.449C78.5668 72.4049 78.7083 73.145 78.7083 73.145L77.3163 73.4095C77.3163 73.4095 76.901 68.8066 76.8523 66.8091C76.8036 64.8116 79.1282 58.6056 79.1282 58.6056C79.1518 58.413 79.124 58.2176 79.0479 58.0392C78.9717 57.8608 78.8498 57.7056 78.6944 57.5894" stroke="#263238" stroke-linecap="round" stroke-linejoin="round"/>
<path d="M78.7921 67.8787C78.6413 69.2707 78.5392 70.6627 78.4766 72.0709" stroke="#263238" stroke-linecap="round" stroke-linejoin="round"/>
<path d="M79.2186 64.8093C79.0956 65.5285 78.9866 66.25 78.8984 66.9739" stroke="#263238" stroke-linecap="round" stroke-linejoin="round"/>
<path d="M80.2296 60.2366C79.8955 61.4399 79.6133 62.6563 79.3828 63.8859" stroke="#263238" stroke-linecap="round" stroke-linejoin="round"/>
<path d="M80.4501 57.9653C80.6542 58.4433 80.4687 58.9885 80.3828 59.4733" stroke="#263238" stroke-linecap="round" stroke-linejoin="round"/>
<path d="M68.6445 63.4172C68.8248 64.1811 69.118 64.9138 69.5145 65.5911" stroke="#263238" stroke-linecap="round" stroke-linejoin="round"/>
<path d="M68.207 60.8328C68.2349 61.2318 68.2859 61.6285 68.3462 62.0252" stroke="#263238" stroke-linecap="round" stroke-linejoin="round"/>
<path d="M84.2822 66.519C83.905 66.8808 83.4381 67.1355 82.9297 67.2568" stroke="#263238" stroke-linecap="round" stroke-linejoin="round"/>
<path d="M86.2323 63.3359C85.9223 64.2434 85.4679 65.095 84.8867 65.8578" stroke="#263238" stroke-linecap="round" stroke-linejoin="round"/>
<path d="M53.9725 52.7289V35.4519L52.5039 36.6119V52.7289H53.9725Z" fill="#999999" stroke="#263238" stroke-linecap="round" stroke-linejoin="round"/>
<path d="M46.2685 40.3681H42.125L42.3222 36.1921C42.3317 35.9972 42.4158 35.8134 42.5569 35.6787C42.6981 35.5439 42.8857 35.4686 43.0808 35.4683H45.3127C45.5078 35.4686 45.6954 35.5439 45.8366 35.6787C45.9778 35.8134 46.0618 35.9972 46.0713 36.1921L46.2685 40.3681Z" fill="#EF233C"/>
<mask id="mask6_2090_24033" style="mask-type:luminance" maskUnits="userSpaceOnUse" x="42" y="35" width="5" height="6">
<path d="M46.2685 40.3681H42.125L42.3222 36.1921C42.3317 35.9972 42.4158 35.8134 42.5569 35.6787C42.6981 35.5439 42.8857 35.4686 43.0808 35.4683H45.3127C45.5078 35.4686 45.6954 35.5439 45.8366 35.6787C45.9778 35.8134 46.0618 35.9972 46.0713 36.1921L46.2685 40.3681Z" fill="white"/>
</mask>
<g mask="url(#mask6_2090_24033)">
<path opacity="0.5" d="M46.0561 37.12C46.0566 37.3628 45.985 37.6003 45.8504 37.8024C45.7158 38.0046 45.5243 38.1622 45.3001 38.2555C45.0759 38.3487 44.8291 38.3734 44.5908 38.3263C44.3526 38.2792 44.1337 38.1625 43.9618 37.9909C43.79 37.8194 43.6729 37.6007 43.6253 37.3626C43.5778 37.1245 43.6019 36.8776 43.6948 36.6532C43.7876 36.4288 43.9449 36.237 44.1468 36.102C44.3486 35.9671 44.586 35.895 44.8288 35.895C45.1539 35.895 45.4657 36.024 45.6958 36.2537C45.9259 36.4833 46.0555 36.7949 46.0561 37.12Z" fill="white"/>
<path opacity="0.5" d="M45.8617 37.12C45.8617 37.3242 45.8011 37.5238 45.6877 37.6936C45.5742 37.8634 45.413 37.9957 45.2244 38.0739C45.0357 38.152 44.8281 38.1724 44.6279 38.1326C44.4276 38.0928 44.2436 37.9944 44.0993 37.8501C43.9549 37.7057 43.8565 37.5217 43.8167 37.3215C43.7769 37.1212 43.7973 36.9136 43.8755 36.725C43.9536 36.5363 44.0859 36.3751 44.2557 36.2616C44.4255 36.1482 44.6251 36.0876 44.8293 36.0876C45.1031 36.0876 45.3657 36.1964 45.5593 36.39C45.7529 36.5836 45.8617 36.8462 45.8617 37.12Z" fill="white"/>
<path opacity="0.2" d="M42.8357 37.7789C43.142 37.7789 43.3902 37.5306 43.3902 37.2244C43.3902 36.9182 43.142 36.6699 42.8357 36.6699C42.5295 36.6699 42.2812 36.9182 42.2812 37.2244C42.2812 37.5306 42.5295 37.7789 42.8357 37.7789Z" fill="white"/>
<path opacity="0.2" d="M42.8374 37.5422C43.0129 37.5422 43.1552 37.3999 43.1552 37.2243C43.1552 37.0488 43.0129 36.9065 42.8374 36.9065C42.6618 36.9065 42.5195 37.0488 42.5195 37.2243C42.5195 37.3999 42.6618 37.5422 42.8374 37.5422Z" fill="white"/>
<path opacity="0.2" d="M44.8048 38.9759C44.8048 39.186 44.7425 39.3915 44.6257 39.5662C44.509 39.741 44.343 39.8771 44.1489 39.9576C43.9547 40.038 43.7411 40.059 43.535 40.018C43.3288 39.977 43.1395 39.8758 42.9909 39.7272C42.8423 39.5786 42.7411 39.3893 42.7001 39.1832C42.6591 38.9771 42.6801 38.7634 42.7606 38.5693C42.841 38.3751 42.9772 38.2092 43.1519 38.0924C43.3267 37.9756 43.5321 37.9133 43.7422 37.9133C44.0239 37.9139 44.2938 38.0261 44.4929 38.2252C44.6921 38.4244 44.8042 38.6943 44.8048 38.9759Z" fill="white"/>
<path opacity="0.3" d="M44.5591 38.9761C44.5591 39.1376 44.5112 39.2955 44.4214 39.4298C44.3317 39.5641 44.2042 39.6687 44.0549 39.7305C43.9057 39.7924 43.7415 39.8085 43.5831 39.777C43.4247 39.7455 43.2792 39.6677 43.165 39.5535C43.0508 39.4393 42.973 39.2938 42.9415 39.1354C42.91 38.977 42.9261 38.8128 42.9879 38.6636C43.0498 38.5143 43.1544 38.3868 43.2887 38.2971C43.423 38.2073 43.5809 38.1594 43.7424 38.1594C43.959 38.1594 44.1667 38.2455 44.3199 38.3986C44.473 38.5518 44.5591 38.7595 44.5591 38.9761Z" fill="white"/>
</g>
<path d="M46.2685 40.3681H42.125L42.3222 36.1921C42.3317 35.9972 42.4158 35.8134 42.5569 35.6787C42.6981 35.5439 42.8857 35.4686 43.0808 35.4683H45.3127C45.5078 35.4686 45.6954 35.5439 45.8366 35.6787C45.9778 35.8134 46.0618 35.9972 46.0713 36.1921L46.2685 40.3681Z" stroke="#263238" stroke-linecap="round" stroke-linejoin="round"/>
<path d="M48.1204 42.1661H40.2695L41.1975 40.0503H47.1924L48.1204 42.1661Z" fill="#999999" stroke="#263238" stroke-linecap="round" stroke-linejoin="round"/>
<path d="M53.9699 72.572V92.0438C53.9699 92.3213 53.9152 92.5962 53.809 92.8526C53.7028 93.109 53.5471 93.342 53.3509 93.5383C53.1546 93.7345 52.9216 93.8902 52.6652 93.9964C52.4088 94.1026 52.1339 94.1573 51.8564 94.1573H48.207V92.5333H51.5826C51.8288 92.5333 52.0648 92.4355 52.2388 92.2615C52.4129 92.0875 52.5106 91.8514 52.5106 91.6053V72.572H53.9699Z" fill="#999999" stroke="#263238" stroke-linecap="round" stroke-linejoin="round"/>
<path d="M17.0312 52.1257V38.324C17.0312 37.9272 17.1889 37.5466 17.4695 37.2659C17.7502 36.9853 18.1308 36.8276 18.5277 36.8276H19.7178V37.9876H18.7225C18.637 37.9873 18.5523 38.0039 18.4732 38.0364C18.3941 38.0689 18.3223 38.1167 18.2617 38.1771C18.2011 38.2374 18.1531 38.3091 18.1203 38.3881C18.0875 38.4671 18.0706 38.5517 18.0706 38.6372V52.0283L17.0312 52.1257Z" fill="#999999" stroke="#263238" stroke-linecap="round" stroke-linejoin="round"/>
<path d="M22.5242 38.7766H21.6055V42.4933H22.5242V38.7766Z" fill="#999999" stroke="#263238" stroke-linecap="round" stroke-linejoin="round"/>
<path d="M29.4851 38.7766H28.5664V42.4933H29.4851V38.7766Z" fill="#999999" stroke="#263238" stroke-linecap="round" stroke-linejoin="round"/>
<path d="M30.9655 30.0488H20.1334C19.6606 30.0488 19.2773 30.4321 19.2773 30.9049V38.6143C19.2773 39.0871 19.6606 39.4703 20.1334 39.4703H30.9655C31.4383 39.4703 31.8216 39.0871 31.8216 38.6143V30.9049C31.8216 30.4321 31.4383 30.0488 30.9655 30.0488Z" fill="#BFBFBF" stroke="#263238" stroke-linecap="round" stroke-linejoin="round"/>
<path d="M30.6548 31.3618H20.4375V38.1525H30.6548V31.3618Z" fill="#263238"/>
<path d="M17.0313 60.0278V69.1872C17.0312 69.5843 17.1888 69.9651 17.4694 70.2461C17.75 70.5271 18.1306 70.6853 18.5277 70.6859H19.7178V69.5259H18.7225C18.5496 69.5259 18.3838 69.4572 18.2616 69.335C18.1393 69.2127 18.0706 69.0469 18.0706 68.874V60.1253L17.0313 60.0278Z" fill="#999999" stroke="#263238" stroke-linecap="round" stroke-linejoin="round"/>
<path d="M16.4944 49.9612H19.7169V62.6701H16.4944C16.2483 62.6701 16.0123 62.5724 15.8382 62.3983C15.6642 62.2243 15.5664 61.9883 15.5664 61.7421V50.8938C15.5658 50.7716 15.5894 50.6504 15.6357 50.5373C15.6821 50.4241 15.7503 50.3213 15.8366 50.2346C15.9228 50.148 16.0253 50.0792 16.1382 50.0323C16.2511 49.9853 16.3722 49.9612 16.4944 49.9612Z" fill="#999999" stroke="#263238" stroke-linecap="round" stroke-linejoin="round"/>
<path d="M49.7127 41.9341H19.6687C19.1613 41.9341 18.75 42.3454 18.75 42.8528V100.632C18.75 101.14 19.1613 101.551 19.6687 101.551H49.7127C50.2201 101.551 50.6314 101.14 50.6314 100.632V42.8528C50.6314 42.3454 50.2201 41.9341 49.7127 41.9341Z" fill="#757575" stroke="#263238" stroke-linecap="round" stroke-linejoin="round"/>
<path d="M48.1719 98.6349V44.8457H21.2042L21.2042 98.6349H48.1719Z" fill="#999999" stroke="#263238" stroke-linecap="round" stroke-linejoin="round"/>
<path d="M47.478 45.5439H21.9023V97.9411H47.478V45.5439Z" fill="#263238"/>
<path d="M34.1239 90.9951H33.3281V79.4601C33.3281 79.3546 33.3698 79.2535 33.4442 79.1787C33.5185 79.104 33.6194 79.0616 33.7248 79.061C33.8307 79.061 33.9322 79.1031 34.007 79.1779C34.0818 79.2527 34.1239 79.3542 34.1239 79.4601V90.9951Z" fill="#757575" stroke="#263238" stroke-linecap="round" stroke-linejoin="round"/>
<path d="M35.577 90.9951H34.7813V79.4601C34.7812 79.3546 34.823 79.2535 34.8973 79.1787C34.9716 79.104 35.0725 79.0616 35.178 79.061C35.2838 79.061 35.3853 79.1031 35.4601 79.1779C35.535 79.2527 35.577 79.3542 35.577 79.4601V90.9951Z" fill="#757575" stroke="#263238" stroke-linecap="round" stroke-linejoin="round"/>
<path d="M37.0301 90.9951H36.2344V79.4601C36.2344 79.3546 36.2761 79.2535 36.3504 79.1787C36.4248 79.104 36.5257 79.0616 36.6311 79.061C36.7369 79.061 36.8384 79.1031 36.9133 79.1779C36.9881 79.2527 37.0301 79.3542 37.0301 79.4601V90.9951Z" fill="#757575" stroke="#263238" stroke-linecap="round" stroke-linejoin="round"/>
<path d="M38.4794 90.9951H37.6836V79.4601C37.6836 79.3546 37.7253 79.2535 37.7996 79.1787C37.874 79.104 37.9749 79.0616 38.0803 79.061C38.1861 79.061 38.2876 79.1031 38.3625 79.1779C38.4373 79.2527 38.4794 79.3542 38.4794 79.4601V90.9951Z" fill="#757575" stroke="#263238" stroke-linecap="round" stroke-linejoin="round"/>
<path d="M39.9325 90.9951H39.1367V79.4601C39.1367 79.3546 39.1784 79.2535 39.2528 79.1787C39.3271 79.104 39.428 79.0616 39.5334 79.061C39.6393 79.061 39.7408 79.1031 39.8156 79.1779C39.8904 79.2527 39.9325 79.3542 39.9325 79.4601V90.9951Z" fill="#757575" stroke="#263238" stroke-linecap="round" stroke-linejoin="round"/>
<path d="M41.3841 90.9951H40.5977V79.4601C40.5977 79.3546 40.6394 79.2535 40.7137 79.1787C40.788 79.104 40.8889 79.0616 40.9944 79.061C41.1002 79.061 41.2017 79.1031 41.2765 79.1779C41.3514 79.2527 41.3934 79.3542 41.3934 79.4601L41.3841 90.9951Z" fill="#757575" stroke="#263238" stroke-linecap="round" stroke-linejoin="round"/>
<path d="M23.1719 76.7688H31.1875C31.3642 76.7688 31.5392 76.8036 31.7024 76.8712C31.8657 76.9388 32.014 77.038 32.139 77.1629C32.2639 77.2879 32.363 77.4362 32.4306 77.5995C32.4983 77.7627 32.5331 77.9377 32.5331 78.1144V90.995H23.1719V76.7688Z" fill="#757575" stroke="#263238" stroke-linecap="round" stroke-linejoin="round"/>
<path d="M30.3616 79.7339H23.1719V83.2835H30.3616V79.7339Z" fill="#999999" stroke="#263238" stroke-linecap="round" stroke-linejoin="round"/>
<path d="M29.2891 80.729V82.288" stroke="#263238" stroke-linecap="round" stroke-linejoin="round"/>
<path d="M28.5859 80.729V82.288" stroke="#263238" stroke-linecap="round" stroke-linejoin="round"/>
<path d="M27.8828 80.729V82.288" stroke="#263238" stroke-linecap="round" stroke-linejoin="round"/>
<path d="M27.1758 80.729V82.288" stroke="#263238" stroke-linecap="round" stroke-linejoin="round"/>
<path d="M26.4766 80.729V82.288" stroke="#263238" stroke-linecap="round" stroke-linejoin="round"/>
<path d="M31.8981 87.8608H29.8101C29.7486 87.8608 29.6896 87.8364 29.6461 87.7929C29.6026 87.7494 29.5781 87.6903 29.5781 87.6288C29.5781 87.5673 29.6026 87.5083 29.6461 87.4648C29.6896 87.4213 29.7486 87.3968 29.8101 87.3968H31.8981C33.3992 87.3968 33.9861 86.0257 34.5963 84.5711C35.0812 83.4227 35.5846 82.2348 36.5938 81.7592C37.1537 81.4815 37.7741 81.3478 38.3987 81.3701C39.0233 81.3923 39.6325 81.5699 40.1712 81.8868C40.5629 82.1258 40.8864 82.4615 41.1107 82.8618C41.335 83.262 41.4525 83.7132 41.4519 84.172C41.4519 84.2335 41.4274 84.2926 41.3839 84.3361C41.3404 84.3796 41.2814 84.404 41.2199 84.404C41.1584 84.404 41.0993 84.3796 41.0558 84.3361C41.0123 84.2926 40.9879 84.2335 40.9879 84.172C40.9906 83.7911 40.8938 83.416 40.707 83.084C40.5202 82.7519 40.25 82.4744 39.923 82.2789C39.4503 82.0035 38.9164 81.8502 38.3696 81.8328C37.8228 81.8154 37.2803 81.9344 36.791 82.1791C35.9419 82.5921 35.4941 83.6361 35.0301 84.752C34.3759 86.2809 33.7054 87.8608 31.8981 87.8608Z" fill="#BFBFBF" stroke="#263238" stroke-linecap="round" stroke-linejoin="round"/>
<path d="M44.6158 83.4041H38.5954C37.546 83.4041 36.6953 84.2547 36.6953 85.3041V88.6194C36.6953 89.6688 37.546 90.5195 38.5954 90.5195H44.6158C45.6652 90.5195 46.5159 89.6688 46.5159 88.6194V85.3041C46.5159 84.2547 45.6652 83.4041 44.6158 83.4041Z" fill="#999999" stroke="#263238" stroke-linecap="round" stroke-linejoin="round"/>
<path d="M23.7024 83.9075H28.3633C29.1287 83.9075 29.8628 84.2115 30.404 84.7528C30.9453 85.294 31.2494 86.0281 31.2494 86.7935V89.6819C31.2494 89.7916 31.2277 89.9002 31.1858 90.0016C31.1438 90.1029 31.0823 90.195 31.0047 90.2725C30.9272 90.3501 30.8351 90.4116 30.7338 90.4536C30.6324 90.4955 30.5238 90.5171 30.4142 90.5171H23.7024C23.5927 90.5171 23.4841 90.4955 23.3828 90.4536C23.2814 90.4116 23.1894 90.3501 23.1118 90.2725C23.0343 90.195 22.9727 90.1029 22.9308 90.0016C22.8888 89.9002 22.8672 89.7916 22.8672 89.6819V84.745C22.8669 84.6351 22.8883 84.5263 22.9301 84.4247C22.9719 84.3231 23.0334 84.2307 23.111 84.1529C23.1886 84.0751 23.2808 84.0134 23.3822 83.9713C23.4837 83.9291 23.5925 83.9075 23.7024 83.9075Z" fill="#999999" stroke="#263238" stroke-linecap="round" stroke-linejoin="round"/>
<path d="M45.7954 77.8708H42.1692C41.8989 77.8708 41.6797 78.09 41.6797 78.3604V81.9865C41.6797 82.2569 41.8989 82.4761 42.1692 82.4761H45.7954C46.0657 82.4761 46.2849 82.2569 46.2849 81.9865V78.3604C46.2849 78.09 46.0657 77.8708 45.7954 77.8708Z" fill="#999999" stroke="#263238" stroke-linecap="round" stroke-linejoin="round"/>
<path d="M45.0057 80.1724C45.0062 80.3739 44.9468 80.5711 44.8352 80.7389C44.7236 80.9067 44.5647 81.0376 44.3786 81.115C44.1925 81.1925 43.9877 81.213 43.79 81.1739C43.5922 81.1349 43.4105 81.0381 43.2679 80.8957C43.1252 80.7534 43.028 80.5719 42.9885 80.3743C42.949 80.1766 42.969 79.9718 43.0461 79.7855C43.1231 79.5993 43.2536 79.4401 43.4212 79.3281C43.5887 79.216 43.7857 79.1563 43.9872 79.1563C44.2569 79.1562 44.5156 79.2632 44.7066 79.4537C44.8975 79.6442 45.0051 79.9027 45.0057 80.1724Z" fill="#BFBFBF" stroke="#263238" stroke-linecap="round" stroke-linejoin="round"/>
<path d="M29.2911 86.7124H27.8828V90.9951H29.2911V86.7124Z" fill="#BFBFBF" stroke="#263238" stroke-linecap="round" stroke-linejoin="round"/>
<path d="M41.7779 85.427H44.4389C44.5123 85.427 44.585 85.4415 44.6529 85.4696C44.7207 85.4977 44.7824 85.5388 44.8343 85.5908C44.8862 85.6427 44.9274 85.7043 44.9555 85.7722C44.9836 85.84 44.998 85.9127 44.998 85.9861V90.995H41.2188V85.9861C41.2188 85.8378 41.2777 85.6956 41.3825 85.5908C41.4874 85.4859 41.6296 85.427 41.7779 85.427Z" fill="#BFBFBF" stroke="#263238" stroke-linecap="round" stroke-linejoin="round"/>
<path d="M24.2 84.7173H23.8427L23.6641 85.0282L23.8427 85.339H24.2L24.3809 85.0282L24.2 84.7173Z" fill="#BFBFBF" stroke="#263238" stroke-linecap="round" stroke-linejoin="round"/>
<path d="M24.2 88.9536H23.8427L23.6641 89.2645L23.8427 89.5754H24.2L24.3809 89.2645L24.2 88.9536Z" fill="#BFBFBF" stroke="#263238" stroke-linecap="round" stroke-linejoin="round"/>
<path d="M44.1632 79.8613H43.8036L43.625 80.1722L43.8036 80.4831H44.1632L44.3419 80.1722L44.1632 79.8613Z" fill="#BFBFBF" stroke="#263238" stroke-linecap="round" stroke-linejoin="round"/>
<path d="M24.2 77.437H23.8427L23.6641 77.7479L23.8427 78.0588H24.2L24.3809 77.7479L24.2 77.437Z" fill="#999999" stroke="#263238" stroke-linecap="round" stroke-linejoin="round"/>
<path d="M31.4289 77.437H31.0693L30.8906 77.7479L31.0693 78.0588H31.4289L31.6075 77.7479L31.4289 77.437Z" fill="#999999" stroke="#263238" stroke-linecap="round" stroke-linejoin="round"/>
<path d="M46.5127 91.6191H23.1758V96.8809H46.5127V91.6191Z" fill="#757575" stroke="#263238" stroke-linecap="round" stroke-linejoin="round"/>
<path d="M45.68 92.292H38.082V96.0852H45.68V92.292Z" fill="#999999" stroke="#263238" stroke-linecap="round" stroke-linejoin="round"/>
<path d="M39.3172 92.9207H38.9599L38.7812 93.2292L38.9599 93.5401H39.3172L39.4981 93.2292L39.3172 92.9207Z" fill="#BFBFBF" stroke="#263238" stroke-linecap="round" stroke-linejoin="round"/>
<path d="M39.3172 94.823H38.9599L38.7812 95.1339L38.9599 95.4448H39.3172L39.4981 95.1339L39.3172 94.823Z" fill="#BFBFBF" stroke="#263238" stroke-linecap="round" stroke-linejoin="round"/>
<path d="M44.8836 92.9207H44.5263L44.3477 93.2292L44.5263 93.5401H44.8836L45.0645 93.2292L44.8836 92.9207Z" fill="#BFBFBF" stroke="#263238" stroke-linecap="round" stroke-linejoin="round"/>
<path d="M44.8836 94.823H44.5263L44.3477 95.1339L44.5263 95.4448H44.8836L45.0645 95.1339L44.8836 94.823Z" fill="#BFBFBF" stroke="#263238" stroke-linecap="round" stroke-linejoin="round"/>
<path d="M25.2721 95.0898H24.3789V95.983H25.2721V95.0898Z" fill="#999999" stroke="#263238" stroke-linecap="round" stroke-linejoin="round"/>
<path d="M26.9674 95.0898H26.0742V95.983H26.9674V95.0898Z" fill="#999999" stroke="#263238" stroke-linecap="round" stroke-linejoin="round"/>
<path d="M28.6627 95.0898H27.7695V95.983H28.6627V95.0898Z" fill="#999999" stroke="#263238" stroke-linecap="round" stroke-linejoin="round"/>
<path d="M30.3565 95.5353C30.3569 95.6239 30.331 95.7107 30.2821 95.7847C30.2332 95.8586 30.1634 95.9164 30.0817 95.9506C29.9999 95.9849 29.9098 95.9941 29.8228 95.977C29.7358 95.96 29.6558 95.9176 29.5929 95.855C29.5301 95.7925 29.4872 95.7127 29.4697 95.6258C29.4522 95.5389 29.461 95.4488 29.4948 95.3668C29.5286 95.2848 29.586 95.2148 29.6597 95.1655C29.7334 95.1162 29.82 95.0899 29.9087 95.0898C29.9674 95.0895 30.0256 95.1008 30.0799 95.1231C30.1342 95.1453 30.1836 95.1781 30.2252 95.2195C30.2668 95.2609 30.2998 95.3101 30.3223 95.3643C30.3449 95.4185 30.3565 95.4766 30.3565 95.5353Z" fill="#999999" stroke="#263238" stroke-linecap="round" stroke-linejoin="round"/>
<path d="M32.0518 95.5353C32.0522 95.624 32.0263 95.7109 31.9773 95.7849C31.9282 95.8589 31.8583 95.9167 31.7764 95.9508C31.6945 95.985 31.6043 95.9941 31.5172 95.9769C31.4302 95.9597 31.3502 95.917 31.2874 95.8542C31.2246 95.7915 31.1819 95.7115 31.1647 95.6244C31.1475 95.5373 31.1566 95.4471 31.1908 95.3652C31.225 95.2833 31.2827 95.2134 31.3567 95.1643C31.4307 95.1153 31.5176 95.0894 31.6063 95.0898C31.7245 95.0898 31.8378 95.1368 31.9213 95.2203C32.0048 95.3039 32.0518 95.4172 32.0518 95.5353Z" fill="#999999" stroke="#263238" stroke-linecap="round" stroke-linejoin="round"/>
<path d="M23.4297 74.4072C31.0578 74.4072 38.9737 68.0203 45.9337 68.0203" stroke="#999999" stroke-linecap="round" stroke-linejoin="round"/>
<path d="M23.4297 48.8594C27.7542 48.8594 36.5168 58.441 45.9337 58.441" stroke="#EF233C" stroke-linecap="round" stroke-linejoin="round"/>
<path d="M45.9337 48.8594C40.7856 48.8594 31.0973 64.8279 23.4297 64.8279" stroke="#BFBFBF" stroke-linecap="round" stroke-linejoin="round"/>
<path d="M23.6641 68.0203C28.6196 68.0203 40.7485 55.1791 45.9361 55.2464" stroke="#757575" stroke-linecap="round" stroke-linejoin="round"/>
<path d="M23.4297 58.4409C32.1598 58.4409 39.5166 74.4072 45.9337 74.4072" stroke="#EF233C" stroke-linecap="round" stroke-linejoin="round"/>
<path d="M23.4297 71.2241C26.8354 71.2241 38.9737 64.8372 45.9337 64.8372" stroke="#757575" stroke-linecap="round" stroke-linejoin="round"/>
<path d="M45.9337 71.2241C41.5814 71.2241 30.3015 52.0632 23.4297 52.0632" stroke="#BFBFBF" stroke-linecap="round" stroke-linejoin="round"/>
<path d="M23.4297 55.2463C27.0187 55.2463 36.2129 52.054 45.9337 52.054" stroke="#EF233C" stroke-linecap="round" stroke-linejoin="round"/>
<path d="M23.4297 61.6333C27.9374 61.6333 32.306 63.7213 35.1689 63.7213C38.0318 63.7213 42.7599 61.6333 45.9337 61.6333" stroke="#999999" stroke-linecap="round" stroke-linejoin="round"/>
<path d="M46.2017 48.0959H45.6797V49.6248H46.2017V48.0959Z" fill="#757575" stroke="#263238" stroke-linecap="round" stroke-linejoin="round"/>
<path d="M46.2017 51.2883H45.6797V52.8172H46.2017V51.2883Z" fill="#757575" stroke="#263238" stroke-linecap="round" stroke-linejoin="round"/>
<path d="M46.2017 54.4829H45.6797V56.0118H46.2017V54.4829Z" fill="#757575" stroke="#263238" stroke-linecap="round" stroke-linejoin="round"/>
<path d="M46.2017 57.6753H45.6797V59.2042H46.2017V57.6753Z" fill="#757575" stroke="#263238" stroke-linecap="round" stroke-linejoin="round"/>
<path d="M46.2017 60.8699H45.6797V62.3988H46.2017V60.8699Z" fill="#757575" stroke="#263238" stroke-linecap="round" stroke-linejoin="round"/>
<path d="M46.2017 64.0623H45.6797V65.5911H46.2017V64.0623Z" fill="#757575" stroke="#263238" stroke-linecap="round" stroke-linejoin="round"/>
<path d="M46.2017 67.2568H45.6797V68.7857H46.2017V67.2568Z" fill="#757575" stroke="#263238" stroke-linecap="round" stroke-linejoin="round"/>
<path d="M46.2017 70.4492H45.6797V71.9781H46.2017V70.4492Z" fill="#757575" stroke="#263238" stroke-linecap="round" stroke-linejoin="round"/>
<path d="M46.2017 73.6438H45.6797V75.1727H46.2017V73.6438Z" fill="#757575" stroke="#263238" stroke-linecap="round" stroke-linejoin="round"/>
<path d="M23.6978 48.0959H23.1758V49.6248H23.6978V48.0959Z" fill="#757575" stroke="#263238" stroke-linecap="round" stroke-linejoin="round"/>
<path d="M23.6978 51.2883H23.1758V52.8172H23.6978V51.2883Z" fill="#757575" stroke="#263238" stroke-linecap="round" stroke-linejoin="round"/>
<path d="M23.6978 54.4829H23.1758V56.0118H23.6978V54.4829Z" fill="#757575" stroke="#263238" stroke-linecap="round" stroke-linejoin="round"/>
<path d="M23.6978 57.6753H23.1758V59.2042H23.6978V57.6753Z" fill="#757575" stroke="#263238" stroke-linecap="round" stroke-linejoin="round"/>
<path d="M23.6978 60.8699H23.1758V62.3988H23.6978V60.8699Z" fill="#757575" stroke="#263238" stroke-linecap="round" stroke-linejoin="round"/>
<path d="M23.6978 64.0623H23.1758V65.5911H23.6978V64.0623Z" fill="#757575" stroke="#263238" stroke-linecap="round" stroke-linejoin="round"/>
<path d="M23.6978 67.2568H23.1758V68.7857H23.6978V67.2568Z" fill="#757575" stroke="#263238" stroke-linecap="round" stroke-linejoin="round"/>
<path d="M23.6978 70.4492H23.1758V71.9781H23.6978V70.4492Z" fill="#757575" stroke="#263238" stroke-linecap="round" stroke-linejoin="round"/>
<path d="M23.6978 73.6438H23.1758V75.1727H23.6978V73.6438Z" fill="#757575" stroke="#263238" stroke-linecap="round" stroke-linejoin="round"/>
<path d="M17.2277 100.087H52.1483C52.4024 100.087 52.6462 100.188 52.8259 100.368C53.0055 100.547 53.1065 100.791 53.1065 101.045V104.133H16.2695V101.043C16.2701 100.789 16.3714 100.546 16.551 100.367C16.7306 100.188 16.974 100.087 17.2277 100.087Z" fill="#999999" stroke="#263238" stroke-linecap="round" stroke-linejoin="round"/>
<path d="M15.0185 103.528H54.3587C54.5298 103.528 54.6938 103.596 54.8148 103.717C54.9357 103.838 55.0037 104.002 55.0037 104.173V105.813H14.3828V104.168C14.384 104 14.4512 103.838 14.57 103.718C14.6889 103.599 14.8499 103.53 15.0185 103.528Z" fill="#BFBFBF" stroke="#263238" stroke-linecap="round" stroke-linejoin="round"/>
<path d="M22.0391 33.0786H22.8395C23.3475 33.0786 23.5958 33.3593 23.5958 33.8767V35.5007C23.5958 36.0157 23.3475 36.2965 22.8395 36.2965H22.0391V33.0786ZM22.5448 33.5426V35.8487H22.8302C22.9926 35.8487 23.09 35.7652 23.09 35.5355V33.8581C23.09 33.6261 22.9926 33.5426 22.8302 33.5426H22.5448Z" fill="#EF233C"/>
<path d="M23.8945 33.8535C23.8945 33.3361 24.166 33.0415 24.6648 33.0415C25.1636 33.0415 25.435 33.3361 25.435 33.8535V35.5309C25.435 36.0459 25.1613 36.3405 24.6648 36.3405C24.1683 36.3405 23.8945 36.0459 23.8945 35.5309V33.8535ZM24.4026 35.5633C24.4026 35.7953 24.5024 35.8812 24.6648 35.8812C24.8272 35.8812 24.9269 35.793 24.9269 35.5633V33.821C24.9269 33.589 24.8249 33.5032 24.6648 33.5032C24.5047 33.5032 24.4026 33.589 24.4026 33.821V35.5633Z" fill="#EF233C"/>
<path d="M26.214 33.9672V36.3034H25.75V33.0786H26.3857L26.8961 35.0089V33.0786H27.3601V36.3034H26.8381L26.214 33.9672Z" fill="#EF233C"/>
<path d="M28.226 34.4383H28.922V34.9023H28.226V35.8465H29.1029V36.3105H27.7109V33.0857H29.1029V33.5497H28.226V34.4383Z" fill="#EF233C"/>
<path d="M54.0897 47.5439H52.3845C52.0103 47.5439 51.707 47.8472 51.707 48.2214V89.5568C51.707 89.931 52.0103 90.2343 52.3845 90.2343H54.0897C54.4638 90.2343 54.7671 89.931 54.7671 89.5568V48.2214C54.7671 47.8472 54.4638 47.5439 54.0897 47.5439Z" fill="#BFBFBF" stroke="#263238" stroke-linecap="round" stroke-linejoin="round"/>
<path d="M52.2323 48.3535C52.1763 48.3535 52.1216 48.3701 52.075 48.4012C52.0285 48.4323 51.9922 48.4765 51.9708 48.5282C51.9493 48.58 51.9437 48.6369 51.9547 48.6918C51.9656 48.7467 51.9925 48.7971 52.0321 48.8367C52.0717 48.8763 52.1221 48.9032 52.177 48.9142C52.2319 48.9251 52.2889 48.9195 52.3406 48.8981C52.3923 48.8766 52.4365 48.8404 52.4676 48.7938C52.4987 48.7473 52.5153 48.6925 52.5153 48.6366C52.5153 48.5615 52.4855 48.4895 52.4324 48.4364C52.3793 48.3833 52.3073 48.3535 52.2323 48.3535Z" fill="#263238"/>
<path d="M52.2323 50.1863C52.1763 50.1863 52.1216 50.2029 52.075 50.234C52.0285 50.2651 51.9922 50.3093 51.9708 50.361C51.9493 50.4127 51.9437 50.4696 51.9547 50.5245C51.9656 50.5794 51.9925 50.6299 52.0321 50.6695C52.0717 50.709 52.1221 50.736 52.177 50.7469C52.2319 50.7578 52.2889 50.7522 52.3406 50.7308C52.3923 50.7094 52.4365 50.6731 52.4676 50.6266C52.4987 50.58 52.5153 50.5253 52.5153 50.4693C52.5153 50.3942 52.4855 50.3223 52.4324 50.2692C52.3793 50.2161 52.3073 50.1863 52.2323 50.1863Z" fill="#263238"/>
<path d="M52.2323 52.019C52.1763 52.019 52.1216 52.0356 52.075 52.0667C52.0285 52.0978 51.9922 52.142 51.9708 52.1938C51.9493 52.2455 51.9437 52.3024 51.9547 52.3573C51.9656 52.4122 51.9925 52.4626 52.0321 52.5022C52.0717 52.5418 52.1221 52.5688 52.177 52.5797C52.2319 52.5906 52.2889 52.585 52.3406 52.5636C52.3923 52.5422 52.4365 52.5059 52.4676 52.4593C52.4987 52.4128 52.5153 52.3581 52.5153 52.3021C52.5153 52.227 52.4855 52.155 52.4324 52.1019C52.3793 52.0489 52.3073 52.019 52.2323 52.019Z" fill="#263238"/>
<path d="M52.2323 53.8518C52.1763 53.8518 52.1216 53.8684 52.075 53.8995C52.0285 53.9306 51.9922 53.9748 51.9708 54.0265C51.9493 54.0783 51.9437 54.1352 51.9547 54.1901C51.9656 54.245 51.9925 54.2954 52.0321 54.335C52.0717 54.3746 52.1221 54.4015 52.177 54.4124C52.2319 54.4234 52.2889 54.4178 52.3406 54.3963C52.3923 54.3749 52.4365 54.3386 52.4676 54.2921C52.4987 54.2455 52.5153 54.1908 52.5153 54.1348C52.5153 54.0598 52.4855 53.9878 52.4324 53.9347C52.3793 53.8816 52.3073 53.8518 52.2323 53.8518Z" fill="#263238"/>
<path d="M52.234 55.6801C52.1637 55.6865 52.0982 55.719 52.0506 55.7711C52.003 55.8233 51.9766 55.8914 51.9766 55.962C51.9766 56.0326 52.003 56.1007 52.0506 56.1529C52.0982 56.205 52.1637 56.2375 52.234 56.2439C52.2732 56.2474 52.3126 56.2428 52.3499 56.2302C52.3872 56.2177 52.4214 56.1975 52.4505 56.171C52.4795 56.1445 52.5027 56.1122 52.5186 56.0762C52.5344 56.0402 52.5426 56.0013 52.5426 55.962C52.5426 55.9227 52.5344 55.8838 52.5186 55.8478C52.5027 55.8118 52.4795 55.7795 52.4505 55.753C52.4214 55.7265 52.3872 55.7063 52.3499 55.6938C52.3126 55.6812 52.2732 55.6766 52.234 55.6801Z" fill="#263238"/>
<path d="M52.234 57.5197C52.1637 57.5261 52.0982 57.5586 52.0506 57.6107C52.003 57.6629 51.9766 57.731 51.9766 57.8016C51.9766 57.8722 52.003 57.9403 52.0506 57.9925C52.0982 58.0446 52.1637 58.0771 52.234 58.0835C52.2732 58.087 52.3126 58.0824 52.3499 58.0698C52.3872 58.0573 52.4214 58.0371 52.4505 58.0106C52.4795 57.9841 52.5027 57.9518 52.5186 57.9158C52.5344 57.8798 52.5426 57.8409 52.5426 57.8016C52.5426 57.7623 52.5344 57.7234 52.5186 57.6874C52.5027 57.6514 52.4795 57.6191 52.4505 57.5926C52.4214 57.5661 52.3872 57.5459 52.3499 57.5334C52.3126 57.5208 52.2732 57.5162 52.234 57.5197Z" fill="#263238"/>
<path d="M52.234 59.3527C52.1637 59.3591 52.0982 59.3916 52.0506 59.4437C52.003 59.4959 51.9766 59.564 51.9766 59.6346C51.9766 59.7052 52.003 59.7733 52.0506 59.8255C52.0982 59.8776 52.1637 59.9101 52.234 59.9165C52.2732 59.92 52.3126 59.9154 52.3499 59.9028C52.3872 59.8903 52.4214 59.8701 52.4505 59.8436C52.4795 59.8171 52.5027 59.7848 52.5186 59.7488C52.5344 59.7128 52.5426 59.6739 52.5426 59.6346C52.5426 59.5953 52.5344 59.5564 52.5186 59.5204C52.5027 59.4844 52.4795 59.4521 52.4505 59.4256C52.4214 59.3991 52.3872 59.3789 52.3499 59.3664C52.3126 59.3538 52.2732 59.3492 52.234 59.3527Z" fill="#263238"/>
<path d="M52.234 61.1855C52.1637 61.1919 52.0982 61.2243 52.0506 61.2765C52.003 61.3286 51.9766 61.3967 51.9766 61.4674C51.9766 61.538 52.003 61.6061 52.0506 61.6582C52.0982 61.7104 52.1637 61.7429 52.234 61.7492C52.2732 61.7528 52.3126 61.7482 52.3499 61.7356C52.3872 61.7231 52.4214 61.7029 52.4505 61.6764C52.4795 61.6498 52.5027 61.6176 52.5186 61.5816C52.5344 61.5456 52.5426 61.5067 52.5426 61.4674C52.5426 61.428 52.5344 61.3891 52.5186 61.3532C52.5027 61.3172 52.4795 61.2849 52.4505 61.2584C52.4214 61.2318 52.3872 61.2117 52.3499 61.1991C52.3126 61.1866 52.2732 61.1819 52.234 61.1855Z" fill="#263238"/>
<path d="M52.2322 63.0183C52.1762 63.0183 52.1214 63.035 52.0748 63.0662C52.0282 63.0974 51.9919 63.1417 51.9705 63.1936C51.9492 63.2454 51.9437 63.3025 51.9548 63.3574C51.9659 63.4124 51.9931 63.4628 52.0329 63.5023C52.0728 63.5418 52.1234 63.5686 52.1785 63.5792C52.2335 63.5899 52.2905 63.584 52.3422 63.5622C52.3939 63.5404 52.4379 63.5038 52.4687 63.4569C52.4995 63.4101 52.5157 63.3551 52.5153 63.299C52.5153 63.262 52.508 63.2253 52.4937 63.1911C52.4794 63.1569 52.4586 63.1258 52.4322 63.0997C52.4059 63.0736 52.3747 63.053 52.3404 63.039C52.3061 63.025 52.2693 63.018 52.2322 63.0183Z" fill="#263238"/>
<path d="M52.2323 64.8511C52.1763 64.8511 52.1216 64.8677 52.075 64.8988C52.0285 64.9299 51.9922 64.9741 51.9708 65.0258C51.9493 65.0775 51.9437 65.1344 51.9547 65.1893C51.9656 65.2442 51.9925 65.2947 52.0321 65.3343C52.0717 65.3738 52.1221 65.4008 52.177 65.4117C52.2319 65.4226 52.2889 65.417 52.3406 65.3956C52.3923 65.3742 52.4365 65.3379 52.4676 65.2914C52.4987 65.2448 52.5153 65.1901 52.5153 65.1341C52.5153 65.059 52.4855 64.9871 52.4324 64.934C52.3793 64.8809 52.3073 64.8511 52.2323 64.8511Z" fill="#263238"/>
<path d="M52.2323 66.6838C52.1763 66.6838 52.1216 66.7004 52.075 66.7315C52.0285 66.7626 51.9922 66.8068 51.9708 66.8586C51.9493 66.9103 51.9437 66.9672 51.9547 67.0221C51.9656 67.077 51.9925 67.1274 52.0321 67.167C52.0717 67.2066 52.1221 67.2336 52.177 67.2445C52.2319 67.2554 52.2889 67.2498 52.3406 67.2284C52.3923 67.207 52.4365 67.1707 52.4676 67.1241C52.4987 67.0776 52.5153 67.0229 52.5153 66.9669C52.5153 66.8918 52.4855 66.8198 52.4324 66.7667C52.3793 66.7137 52.3073 66.6838 52.2323 66.6838Z" fill="#263238"/>
<path d="M52.2323 68.5166C52.1763 68.5166 52.1216 68.5332 52.075 68.5643C52.0285 68.5954 51.9922 68.6396 51.9708 68.6913C51.9493 68.743 51.9437 68.8 51.9547 68.8549C51.9656 68.9098 51.9925 68.9602 52.0321 68.9998C52.0717 69.0394 52.1221 69.0663 52.177 69.0772C52.2319 69.0882 52.2889 69.0826 52.3406 69.0611C52.3923 69.0397 52.4365 69.0034 52.4676 68.9569C52.4987 68.9103 52.5153 68.8556 52.5153 68.7996C52.5153 68.7625 52.508 68.7257 52.4938 68.6913C52.4795 68.657 52.4587 68.6258 52.4324 68.5995C52.4061 68.5732 52.3749 68.5524 52.3406 68.5382C52.3062 68.5239 52.2694 68.5166 52.2323 68.5166Z" fill="#263238"/>
<path d="M52.2323 70.3494C52.1763 70.3494 52.1216 70.366 52.075 70.3971C52.0285 70.4282 51.9922 70.4724 51.9708 70.5241C51.9493 70.5758 51.9437 70.6327 51.9547 70.6876C51.9656 70.7425 51.9925 70.793 52.0321 70.8325C52.0717 70.8721 52.1221 70.8991 52.177 70.91C52.2319 70.9209 52.2889 70.9153 52.3406 70.8939C52.3923 70.8725 52.4365 70.8362 52.4676 70.7897C52.4987 70.7431 52.5153 70.6884 52.5153 70.6324C52.5153 70.5573 52.4855 70.4853 52.4324 70.4323C52.3793 70.3792 52.3073 70.3494 52.2323 70.3494Z" fill="#263238"/>
<path d="M52.234 72.1845C52.1637 72.1909 52.0982 72.2234 52.0506 72.2755C52.003 72.3277 51.9766 72.3958 51.9766 72.4664C51.9766 72.537 52.003 72.6051 52.0506 72.6573C52.0982 72.7094 52.1637 72.7419 52.234 72.7483C52.2732 72.7518 52.3126 72.7472 52.3499 72.7346C52.3872 72.7221 52.4214 72.7019 52.4505 72.6754C52.4795 72.6489 52.5027 72.6166 52.5186 72.5806C52.5344 72.5446 52.5426 72.5057 52.5426 72.4664C52.5426 72.4271 52.5344 72.3882 52.5186 72.3522C52.5027 72.3162 52.4795 72.2839 52.4505 72.2574C52.4214 72.2309 52.3872 72.2107 52.3499 72.1981C52.3126 72.1856 52.2732 72.181 52.234 72.1845Z" fill="#263238"/>
<path d="M52.234 74.008C52.1637 74.0144 52.0982 74.0468 52.0506 74.099C52.003 74.1512 51.9766 74.2192 51.9766 74.2899C51.9766 74.3605 52.003 74.4286 52.0506 74.4807C52.0982 74.5329 52.1637 74.5654 52.234 74.5718C52.2732 74.5753 52.3126 74.5707 52.3499 74.5581C52.3872 74.5456 52.4214 74.5254 52.4505 74.4989C52.4795 74.4724 52.5027 74.4401 52.5186 74.4041C52.5344 74.3681 52.5426 74.3292 52.5426 74.2899C52.5426 74.2505 52.5344 74.2117 52.5186 74.1757C52.5027 74.1397 52.4795 74.1074 52.4505 74.0809C52.4214 74.0544 52.3872 74.0342 52.3499 74.0216C52.3126 74.0091 52.2732 74.0044 52.234 74.008Z" fill="#263238"/>
<path d="M52.234 75.85C52.1637 75.8564 52.0982 75.8889 52.0506 75.941C52.003 75.9932 51.9766 76.0613 51.9766 76.1319C51.9766 76.2026 52.003 76.2706 52.0506 76.3228C52.0982 76.3749 52.1637 76.4074 52.234 76.4138C52.2732 76.4174 52.3126 76.4127 52.3499 76.4002C52.3872 76.3876 52.4214 76.3674 52.4505 76.3409C52.4795 76.3144 52.5027 76.2821 52.5186 76.2461C52.5344 76.2101 52.5426 76.1712 52.5426 76.1319C52.5426 76.0926 52.5344 76.0537 52.5186 76.0177C52.5027 75.9817 52.4795 75.9494 52.4505 75.9229C52.4214 75.8964 52.3872 75.8762 52.3499 75.8637C52.3126 75.8511 52.2732 75.8465 52.234 75.85Z" fill="#263238"/>
<path d="M52.234 77.683C52.1637 77.6894 52.0982 77.7219 52.0506 77.7741C52.003 77.8262 51.9766 77.8943 51.9766 77.9649C51.9766 78.0356 52.003 78.1036 52.0506 78.1558C52.0982 78.208 52.1637 78.2404 52.234 78.2468C52.2732 78.2504 52.3126 78.2457 52.3499 78.2332C52.3872 78.2206 52.4214 78.2004 52.4505 78.1739C52.4795 78.1474 52.5027 78.1151 52.5186 78.0791C52.5344 78.0431 52.5426 78.0043 52.5426 77.9649C52.5426 77.9256 52.5344 77.8867 52.5186 77.8507C52.5027 77.8147 52.4795 77.7825 52.4505 77.7559C52.4214 77.7294 52.3872 77.7092 52.3499 77.6967C52.3126 77.6841 52.2732 77.6795 52.234 77.683Z" fill="#263238"/>
<path d="M52.2322 79.5156C52.1762 79.5156 52.1214 79.5323 52.0748 79.5635C52.0282 79.5947 51.9919 79.639 51.9705 79.6909C51.9492 79.7428 51.9437 79.7998 51.9548 79.8548C51.9659 79.9097 51.9931 79.9601 52.0329 79.9996C52.0728 80.0391 52.1234 80.0659 52.1785 80.0766C52.2335 80.0872 52.2905 80.0813 52.3422 80.0595C52.3939 80.0377 52.4379 80.0011 52.4687 79.9542C52.4995 79.9074 52.5157 79.8524 52.5153 79.7964C52.5153 79.7593 52.508 79.7226 52.4937 79.6884C52.4794 79.6542 52.4586 79.6231 52.4322 79.597C52.4059 79.5709 52.3747 79.5503 52.3404 79.5363C52.3061 79.5224 52.2693 79.5153 52.2322 79.5156Z" fill="#263238"/>
<path d="M52.2323 81.3486C52.1763 81.3486 52.1216 81.3652 52.075 81.3963C52.0285 81.4274 51.9922 81.4716 51.9708 81.5234C51.9493 81.5751 51.9437 81.632 51.9547 81.6869C51.9656 81.7418 51.9925 81.7922 52.0321 81.8318C52.0717 81.8714 52.1221 81.8984 52.177 81.9093C52.2319 81.9202 52.2889 81.9146 52.3406 81.8932C52.3923 81.8717 52.4365 81.8355 52.4676 81.7889C52.4987 81.7424 52.5153 81.6877 52.5153 81.6317C52.5156 81.5944 52.5085 81.5575 52.4944 81.523C52.4803 81.4885 52.4594 81.4572 52.4331 81.4308C52.4067 81.4045 52.3754 81.3837 52.3409 81.3696C52.3065 81.3554 52.2695 81.3483 52.2323 81.3486Z" fill="#263238"/>
<path d="M52.2323 83.1814C52.1763 83.1814 52.1216 83.198 52.075 83.2291C52.0285 83.2602 51.9922 83.3044 51.9708 83.3561C51.9493 83.4078 51.9437 83.4647 51.9547 83.5197C51.9656 83.5746 51.9925 83.625 52.0321 83.6646C52.0717 83.7042 52.1221 83.7311 52.177 83.742C52.2319 83.753 52.2889 83.7474 52.3406 83.7259C52.3923 83.7045 52.4365 83.6682 52.4676 83.6217C52.4987 83.5751 52.5153 83.5204 52.5153 83.4644C52.5153 83.3894 52.4855 83.3174 52.4324 83.2643C52.3793 83.2112 52.3073 83.1814 52.2323 83.1814Z" fill="#263238"/>
<path d="M52.2323 85.0142C52.1763 85.0142 52.1216 85.0308 52.075 85.0619C52.0285 85.093 51.9922 85.1372 51.9708 85.1889C51.9493 85.2406 51.9437 85.2975 51.9547 85.3524C51.9656 85.4073 51.9925 85.4578 52.0321 85.4973C52.0717 85.5369 52.1221 85.5639 52.177 85.5748C52.2319 85.5857 52.2889 85.5801 52.3406 85.5587C52.3923 85.5373 52.4365 85.501 52.4676 85.4544C52.4987 85.4079 52.5153 85.3532 52.5153 85.2972C52.5153 85.2221 52.4855 85.1501 52.4324 85.0971C52.3793 85.044 52.3073 85.0142 52.2323 85.0142Z" fill="#263238"/>
<path d="M52.2323 86.8469C52.1763 86.8469 52.1216 86.8635 52.075 86.8946C52.0285 86.9257 51.9922 86.9699 51.9708 87.0217C51.9493 87.0734 51.9437 87.1303 51.9547 87.1852C51.9656 87.2401 51.9925 87.2905 52.0321 87.3301C52.0717 87.3697 52.1221 87.3966 52.177 87.4076C52.2319 87.4185 52.2889 87.4129 52.3406 87.3915C52.3923 87.37 52.4365 87.3338 52.4676 87.2872C52.4987 87.2407 52.5153 87.1859 52.5153 87.13C52.5153 87.0549 52.4855 86.9829 52.4324 86.9298C52.3793 86.8767 52.3073 86.8469 52.2323 86.8469Z" fill="#263238"/>
<path d="M52.2354 88.6821C52.18 88.6826 52.126 88.6995 52.0801 88.7306C52.0342 88.7617 51.9986 88.8057 51.9777 88.857C51.9568 88.9084 51.9516 88.9647 51.9627 89.019C51.9738 89.0733 52.0007 89.1231 52.0401 89.1622C52.0794 89.2012 52.1294 89.2277 52.1838 89.2383C52.2382 89.249 52.2945 89.2433 52.3457 89.222C52.3969 89.2007 52.4406 89.1647 52.4713 89.1186C52.5021 89.0725 52.5185 89.0183 52.5185 88.9629C52.5185 88.9258 52.5111 88.8891 52.4969 88.8549C52.4826 88.8207 52.4617 88.7896 52.4354 88.7635C52.4091 88.7374 52.3779 88.7168 52.3436 88.7028C52.3092 88.6889 52.2725 88.6818 52.2354 88.6821Z" fill="#263238"/>
<path d="M53.2378 49.8337C53.3928 49.8337 53.5185 49.708 53.5185 49.5529C53.5185 49.3979 53.3928 49.2722 53.2378 49.2722C53.0827 49.2722 52.957 49.3979 52.957 49.5529C52.957 49.708 53.0827 49.8337 53.2378 49.8337Z" fill="#263238"/>
<path d="M53.2362 51.1028C53.1802 51.1028 53.1255 51.1194 53.0789 51.1505C53.0324 51.1816 52.9961 51.2258 52.9747 51.2775C52.9532 51.3292 52.9476 51.3861 52.9586 51.441C52.9695 51.4959 52.9964 51.5464 53.036 51.586C53.0756 51.6255 53.126 51.6525 53.1809 51.6634C53.2359 51.6743 53.2928 51.6687 53.3445 51.6473C53.3962 51.6259 53.4404 51.5896 53.4715 51.5431C53.5026 51.4965 53.5192 51.4418 53.5192 51.3858C53.5192 51.3108 53.4894 51.2388 53.4363 51.1857C53.3832 51.1326 53.3112 51.1028 53.2362 51.1028Z" fill="#263238"/>
<path d="M53.2378 53.4992C53.3928 53.4992 53.5185 53.3735 53.5185 53.2185C53.5185 53.0634 53.3928 52.9377 53.2378 52.9377C53.0827 52.9377 52.957 53.0634 52.957 53.2185C52.957 53.3735 53.0827 53.4992 53.2378 53.4992Z" fill="#263238"/>
<path d="M53.2378 55.3322C53.3928 55.3322 53.5185 55.2065 53.5185 55.0515C53.5185 54.8964 53.3928 54.7708 53.2378 54.7708C53.0827 54.7708 52.957 54.8964 52.957 55.0515C52.957 55.2065 53.0827 55.3322 53.2378 55.3322Z" fill="#263238"/>
<path d="M53.2362 56.6082C53.1801 56.6082 53.1253 56.6248 53.0787 56.656C53.0321 56.6872 52.9958 56.7316 52.9744 56.7834C52.9531 56.8353 52.9476 56.8923 52.9587 56.9473C52.9698 57.0022 52.997 57.0527 53.0369 57.0922C53.0767 57.1317 53.1273 57.1584 53.1824 57.1691C53.2374 57.1797 53.2944 57.1738 53.3461 57.152C53.3978 57.1302 53.4418 57.0936 53.4726 57.0468C53.5034 56.9999 53.5197 56.945 53.5192 56.8889C53.5192 56.8518 53.5119 56.8151 53.4976 56.7809C53.4834 56.7467 53.4625 56.7157 53.4362 56.6896C53.4098 56.6635 53.3786 56.6428 53.3443 56.6289C53.31 56.6149 53.2732 56.6079 53.2362 56.6082Z" fill="#263238"/>
<path d="M53.2378 58.9977C53.3928 58.9977 53.5185 58.872 53.5185 58.717C53.5185 58.562 53.3928 58.4363 53.2378 58.4363C53.0827 58.4363 52.957 58.562 52.957 58.717C52.957 58.872 53.0827 58.9977 53.2378 58.9977Z" fill="#263238"/>
<path d="M53.2362 60.2691C53.1801 60.2691 53.1253 60.2857 53.0787 60.3169C53.0321 60.3481 52.9958 60.3925 52.9744 60.4443C52.9531 60.4962 52.9476 60.5532 52.9587 60.6082C52.9698 60.6631 52.997 60.7136 53.0369 60.7531C53.0767 60.7925 53.1273 60.8193 53.1824 60.83C53.2374 60.8406 53.2944 60.8347 53.3461 60.8129C53.3978 60.7911 53.4418 60.7545 53.4726 60.7076C53.5034 60.6608 53.5197 60.6058 53.5192 60.5498C53.5192 60.5127 53.5119 60.476 53.4976 60.4418C53.4834 60.4076 53.4625 60.3766 53.4362 60.3505C53.4098 60.3244 53.3786 60.3037 53.3443 60.2898C53.31 60.2758 53.2732 60.2687 53.2362 60.2691Z" fill="#263238"/>
<path d="M53.2378 62.6632C53.3928 62.6632 53.5185 62.5376 53.5185 62.3825C53.5185 62.2275 53.3928 62.1018 53.2378 62.1018C53.0827 62.1018 52.957 62.2275 52.957 62.3825C52.957 62.5376 53.0827 62.6632 53.2378 62.6632Z" fill="#263238"/>
<path d="M53.2378 64.4985C53.3928 64.4985 53.5185 64.3728 53.5185 64.2177C53.5185 64.0627 53.3928 63.937 53.2378 63.937C53.0827 63.937 52.957 64.0627 52.957 64.2177C52.957 64.3728 53.0827 64.4985 53.2378 64.4985Z" fill="#263238"/>
<path d="M53.2362 65.7673C53.1802 65.7673 53.1255 65.7839 53.0789 65.815C53.0324 65.8461 52.9961 65.8903 52.9747 65.9421C52.9532 65.9938 52.9476 66.0507 52.9586 66.1056C52.9695 66.1605 52.9964 66.2109 53.036 66.2505C53.0756 66.2901 53.126 66.317 53.1809 66.328C53.2359 66.3389 53.2928 66.3333 53.3445 66.3119C53.3962 66.2904 53.4404 66.2542 53.4715 66.2076C53.5026 66.1611 53.5192 66.1064 53.5192 66.0504C53.5192 65.9753 53.4894 65.9033 53.4363 65.8502C53.3832 65.7972 53.3112 65.7673 53.2362 65.7673Z" fill="#263238"/>
<path d="M53.2378 68.164C53.3928 68.164 53.5185 68.0383 53.5185 67.8833C53.5185 67.7282 53.3928 67.6025 53.2378 67.6025C53.0827 67.6025 52.957 67.7282 52.957 67.8833C52.957 68.0383 53.0827 68.164 53.2378 68.164Z" fill="#263238"/>
<path d="M53.2378 69.9967C53.3928 69.9967 53.5185 69.8711 53.5185 69.716C53.5185 69.561 53.3928 69.4353 53.2378 69.4353C53.0827 69.4353 52.957 69.561 52.957 69.716C52.957 69.8711 53.0827 69.9967 53.2378 69.9967Z" fill="#263238"/>
<path d="M53.2378 71.8295C53.3928 71.8295 53.5185 71.7038 53.5185 71.5488C53.5185 71.3937 53.3928 71.2681 53.2378 71.2681C53.0827 71.2681 52.957 71.3937 52.957 71.5488C52.957 71.7038 53.0827 71.8295 53.2378 71.8295Z" fill="#263238"/>
<path d="M53.2378 73.6625C53.3928 73.6625 53.5185 73.5368 53.5185 73.3818C53.5185 73.2268 53.3928 73.1011 53.2378 73.1011C53.0827 73.1011 52.957 73.2268 52.957 73.3818C52.957 73.5368 53.0827 73.6625 53.2378 73.6625Z" fill="#263238"/>
<path d="M53.2362 74.936C53.1801 74.936 53.1253 74.9527 53.0787 74.9839C53.0321 75.0151 52.9958 75.0595 52.9744 75.1113C52.9531 75.1632 52.9476 75.2202 52.9587 75.2752C52.9698 75.3301 52.997 75.3806 53.0369 75.42C53.0767 75.4595 53.1273 75.4863 53.1824 75.497C53.2374 75.5076 53.2944 75.5017 53.3461 75.4799C53.3978 75.4581 53.4418 75.4215 53.4726 75.3746C53.5034 75.3278 53.5197 75.2728 53.5192 75.2168C53.5192 75.1797 53.5119 75.143 53.4976 75.1088C53.4834 75.0746 53.4625 75.0435 53.4362 75.0174C53.4098 74.9913 53.3786 74.9707 53.3443 74.9567C53.31 74.9428 53.2732 74.9357 53.2362 74.936Z" fill="#263238"/>
<path d="M53.2378 77.328C53.3928 77.328 53.5185 77.2024 53.5185 77.0473C53.5185 76.8923 53.3928 76.7666 53.2378 76.7666C53.0827 76.7666 52.957 76.8923 52.957 77.0473C52.957 77.2024 53.0827 77.328 53.2378 77.328Z" fill="#263238"/>
<path d="M53.2362 78.5994C53.1801 78.5994 53.1253 78.616 53.0787 78.6472C53.0321 78.6784 52.9958 78.7228 52.9744 78.7746C52.9531 78.8265 52.9476 78.8835 52.9587 78.9385C52.9698 78.9935 52.997 79.0439 53.0369 79.0834C53.0767 79.1229 53.1273 79.1496 53.1824 79.1603C53.2374 79.171 53.2944 79.165 53.3461 79.1432C53.3978 79.1215 53.4418 79.0848 53.4726 79.038C53.5034 78.9911 53.5197 78.9362 53.5192 78.8801C53.5192 78.843 53.5119 78.8063 53.4976 78.7721C53.4834 78.7379 53.4625 78.7069 53.4362 78.6808C53.4098 78.6547 53.3786 78.634 53.3443 78.6201C53.31 78.6061 53.2732 78.5991 53.2362 78.5994Z" fill="#263238"/>
<path d="M53.2362 80.4321C53.1802 80.4321 53.1255 80.4487 53.0789 80.4798C53.0324 80.5109 52.9961 80.5551 52.9747 80.6069C52.9532 80.6586 52.9476 80.7155 52.9586 80.7704C52.9695 80.8253 52.9964 80.8757 53.036 80.9153C53.0756 80.9549 53.126 80.9819 53.1809 80.9928C53.2359 81.0037 53.2928 80.9981 53.3445 80.9767C53.3962 80.9553 53.4404 80.919 53.4715 80.8724C53.5026 80.8259 53.5192 80.7712 53.5192 80.7152C53.5195 80.6779 53.5124 80.641 53.4983 80.6065C53.4842 80.572 53.4633 80.5407 53.437 80.5144C53.4107 80.488 53.3793 80.4672 53.3448 80.4531C53.3104 80.4389 53.2734 80.4318 53.2362 80.4321Z" fill="#263238"/>
<path d="M53.2378 82.8288C53.3928 82.8288 53.5185 82.7031 53.5185 82.5481C53.5185 82.393 53.3928 82.2673 53.2378 82.2673C53.0827 82.2673 52.957 82.393 52.957 82.5481C52.957 82.7031 53.0827 82.8288 53.2378 82.8288Z" fill="#263238"/>
<path d="M53.2362 84.0977C53.1802 84.0977 53.1255 84.1143 53.0789 84.1454C53.0324 84.1765 52.9961 84.2207 52.9747 84.2724C52.9532 84.3241 52.9476 84.381 52.9586 84.4359C52.9695 84.4908 52.9964 84.5413 53.036 84.5808C53.0756 84.6204 53.126 84.6474 53.1809 84.6583C53.2359 84.6692 53.2928 84.6636 53.3445 84.6422C53.3962 84.6208 53.4404 84.5845 53.4715 84.5379C53.5026 84.4914 53.5192 84.4367 53.5192 84.3807C53.5192 84.3056 53.4894 84.2336 53.4363 84.1806C53.3832 84.1275 53.3112 84.0977 53.2362 84.0977Z" fill="#263238"/>
<path d="M53.2378 86.4943C53.3928 86.4943 53.5185 86.3686 53.5185 86.2136C53.5185 86.0585 53.3928 85.9329 53.2378 85.9329C53.0827 85.9329 52.957 86.0585 52.957 86.2136C52.957 86.3686 53.0827 86.4943 53.2378 86.4943Z" fill="#263238"/>
<path d="M53.2378 88.3271C53.3928 88.3271 53.5185 88.2014 53.5185 88.0464C53.5185 87.8913 53.3928 87.7656 53.2378 87.7656C53.0827 87.7656 52.957 87.8913 52.957 88.0464C52.957 88.2014 53.0827 88.3271 53.2378 88.3271Z" fill="#263238"/>
<path d="M54.2401 48.9172C54.2962 48.9172 54.351 48.9005 54.3976 48.8693C54.4442 48.8381 54.4804 48.7937 54.5018 48.7419C54.5231 48.69 54.5286 48.633 54.5175 48.578C54.5064 48.5231 54.4792 48.4726 54.4394 48.4332C54.3996 48.3937 54.3489 48.3669 54.2939 48.3562C54.2388 48.3456 54.1818 48.3515 54.1301 48.3733C54.0785 48.3951 54.0344 48.4317 54.0036 48.4786C53.9728 48.5254 53.9566 48.5804 53.957 48.6364C53.957 48.6735 53.9644 48.7102 53.9786 48.7444C53.9929 48.7786 54.0138 48.8097 54.0401 48.8358C54.0664 48.8619 54.0976 48.8825 54.1319 48.8965C54.1663 48.9104 54.203 48.9175 54.2401 48.9172Z" fill="#263238"/>
<path d="M54.2417 50.7502C54.3967 50.7502 54.5224 50.6245 54.5224 50.4694C54.5224 50.3144 54.3967 50.1887 54.2417 50.1887C54.0866 50.1887 53.9609 50.3144 53.9609 50.4694C53.9609 50.6245 54.0866 50.7502 54.2417 50.7502Z" fill="#263238"/>
<path d="M54.2417 52.5829C54.3967 52.5829 54.5224 52.4572 54.5224 52.3022C54.5224 52.1472 54.3967 52.0215 54.2417 52.0215C54.0866 52.0215 53.9609 52.1472 53.9609 52.3022C53.9609 52.4572 54.0866 52.5829 54.2417 52.5829Z" fill="#263238"/>
<path d="M54.2385 53.8518C54.1824 53.8514 54.1275 53.8676 54.0806 53.8984C54.0338 53.9292 53.9971 53.9732 53.9753 54.0249C53.9536 54.0766 53.9476 54.1336 53.9583 54.1886C53.9689 54.2437 53.9957 54.2943 54.0352 54.3342C54.0747 54.374 54.1251 54.4012 54.1801 54.4123C54.2351 54.4234 54.2921 54.4179 54.3439 54.3966C54.3958 54.3752 54.4401 54.3389 54.4713 54.2923C54.5025 54.2458 54.5192 54.1909 54.5192 54.1349C54.5192 54.0602 54.4897 53.9885 54.4371 53.9355C54.3845 53.8825 54.3131 53.8524 54.2385 53.8518Z" fill="#263238"/>
<path d="M54.2417 56.2485C54.3967 56.2485 54.5224 56.1228 54.5224 55.9677C54.5224 55.8127 54.3967 55.687 54.2417 55.687C54.0866 55.687 53.9609 55.8127 53.9609 55.9677C53.9609 56.1228 54.0866 56.2485 54.2417 56.2485Z" fill="#263238"/>
<path d="M54.2385 57.5198C54.1823 57.5193 54.1273 57.5356 54.0804 57.5665C54.0335 57.5974 53.9968 57.6416 53.9751 57.6934C53.9534 57.7452 53.9476 57.8023 53.9585 57.8575C53.9693 57.9126 53.9963 57.9632 54.036 58.003C54.0757 58.0427 54.1264 58.0697 54.1815 58.0805C54.2366 58.0914 54.2937 58.0856 54.3455 58.0639C54.3974 58.0422 54.4415 58.0055 54.4725 57.9586C54.5034 57.9117 54.5197 57.8567 54.5192 57.8005C54.5192 57.7261 54.4896 57.6547 54.437 57.602C54.3843 57.5494 54.3129 57.5198 54.2385 57.5198Z" fill="#263238"/>
<path d="M54.2406 59.3526C54.1839 59.3517 54.1283 59.3678 54.0809 59.3989C54.0335 59.43 53.9966 59.4746 53.9748 59.5269C53.9531 59.5792 53.9475 59.6368 53.9589 59.6923C53.9702 59.7479 53.998 59.7987 54.0386 59.8382C54.0791 59.8778 54.1306 59.9043 54.1864 59.9142C54.2422 59.9242 54.2997 59.9172 54.3514 59.8941C54.4032 59.871 54.4468 59.8329 54.4767 59.7848C54.5066 59.7366 54.5213 59.6806 54.519 59.624C54.5166 59.5516 54.4863 59.4829 54.4344 59.4323C54.3825 59.3817 54.313 59.3531 54.2406 59.3526Z" fill="#263238"/>
<path d="M54.2417 61.747C54.3967 61.747 54.5224 61.6213 54.5224 61.4663C54.5224 61.3112 54.3967 61.1855 54.2417 61.1855C54.0866 61.1855 53.9609 61.3112 53.9609 61.4663C53.9609 61.6213 54.0866 61.747 54.2417 61.747Z" fill="#263238"/>
<path d="M54.2385 63.0183C54.1823 63.0179 54.1273 63.0341 54.0804 63.065C54.0335 63.096 53.9968 63.1402 53.9751 63.192C53.9534 63.2438 53.9476 63.3009 53.9585 63.356C53.9693 63.4111 53.9963 63.4618 54.036 63.5015C54.0757 63.5412 54.1264 63.5682 54.1815 63.5791C54.2366 63.5899 54.2937 63.5841 54.3455 63.5624C54.3974 63.5407 54.4415 63.5041 54.4725 63.4572C54.5034 63.4103 54.5197 63.3552 54.5192 63.299C54.5192 63.2246 54.4896 63.1532 54.437 63.1005C54.3843 63.0479 54.3129 63.0183 54.2385 63.0183Z" fill="#263238"/>
<path d="M54.2417 65.4147C54.3967 65.4147 54.5224 65.289 54.5224 65.134C54.5224 64.979 54.3967 64.8533 54.2417 64.8533C54.0866 64.8533 53.9609 64.979 53.9609 65.134C53.9609 65.289 54.0866 65.4147 54.2417 65.4147Z" fill="#263238"/>
<path d="M54.2385 66.6838C54.1824 66.6834 54.1275 66.6996 54.0806 66.7304C54.0338 66.7612 53.9971 66.8053 53.9753 66.857C53.9536 66.9086 53.9476 66.9656 53.9583 67.0207C53.9689 67.0757 53.9957 67.1264 54.0352 67.1662C54.0747 67.206 54.1251 67.2332 54.1801 67.2443C54.2351 67.2554 54.2921 67.2499 54.3439 67.2286C54.3958 67.2072 54.4401 67.171 54.4713 67.1244C54.5025 67.0778 54.5192 67.023 54.5192 66.9669C54.5192 66.8922 54.4897 66.8206 54.4371 66.7676C54.3845 66.7145 54.3131 66.6845 54.2385 66.6838Z" fill="#263238"/>
<path d="M54.2385 68.5166C54.1824 68.5162 54.1275 68.5324 54.0806 68.5632C54.0338 68.594 53.9971 68.638 53.9753 68.6897C53.9536 68.7414 53.9476 68.7984 53.9583 68.8534C53.9689 68.9085 53.9957 68.9591 54.0352 68.999C54.0747 69.0388 54.1251 69.066 54.1801 69.0771C54.2351 69.0882 54.2921 69.0827 54.3439 69.0614C54.3958 69.04 54.4401 69.0037 54.4713 68.9571C54.5025 68.9105 54.5192 68.8557 54.5192 68.7997C54.5192 68.725 54.4897 68.6533 54.4371 68.6003C54.3845 68.5473 54.3131 68.5172 54.2385 68.5166Z" fill="#263238"/>
<path d="M54.2417 70.9132C54.3967 70.9132 54.5224 70.7876 54.5224 70.6325C54.5224 70.4775 54.3967 70.3518 54.2417 70.3518C54.0866 70.3518 53.9609 70.4775 53.9609 70.6325C53.9609 70.7876 54.0866 70.9132 54.2417 70.9132Z" fill="#263238"/>
<path d="M54.2385 72.1846C54.1823 72.1841 54.1273 72.2004 54.0804 72.2313C54.0335 72.2622 53.9968 72.3064 53.9751 72.3582C53.9534 72.41 53.9476 72.4671 53.9585 72.5223C53.9693 72.5774 53.9963 72.628 54.036 72.6677C54.0757 72.7075 54.1264 72.7345 54.1815 72.7453C54.2366 72.7562 54.2937 72.7504 54.3455 72.7287C54.3974 72.7069 54.4415 72.6703 54.4725 72.6234C54.5034 72.5765 54.5197 72.5215 54.5192 72.4653C54.5192 72.3908 54.4896 72.3194 54.437 72.2668C54.3843 72.2142 54.3129 72.1846 54.2385 72.1846Z" fill="#263238"/>
<path d="M54.2385 74.0081C54.1823 74.0076 54.1273 74.0239 54.0804 74.0548C54.0335 74.0857 53.9968 74.1299 53.9751 74.1817C53.9534 74.2335 53.9476 74.2906 53.9585 74.3458C53.9693 74.4009 53.9963 74.4515 54.036 74.4912C54.0757 74.531 54.1264 74.558 54.1815 74.5688C54.2366 74.5797 54.2937 74.5739 54.3455 74.5521C54.3974 74.5304 54.4415 74.4938 54.4725 74.4469C54.5034 74.4 54.5197 74.345 54.5192 74.2888C54.5192 74.2143 54.4896 74.1429 54.437 74.0903C54.3843 74.0376 54.3129 74.0081 54.2385 74.0081Z" fill="#263238"/>
<path d="M54.2417 76.4115C54.3967 76.4115 54.5224 76.2859 54.5224 76.1308C54.5224 75.9758 54.3967 75.8501 54.2417 75.8501C54.0866 75.8501 53.9609 75.9758 53.9609 76.1308C53.9609 76.2859 54.0866 76.4115 54.2417 76.4115Z" fill="#263238"/>
<path d="M54.2385 77.6829C54.1823 77.6824 54.1273 77.6987 54.0804 77.7296C54.0335 77.7605 53.9968 77.8047 53.9751 77.8565C53.9534 77.9083 53.9476 77.9654 53.9585 78.0206C53.9693 78.0757 53.9963 78.1263 54.036 78.166C54.0757 78.2058 54.1264 78.2328 54.1815 78.2436C54.2366 78.2545 54.2937 78.2487 54.3455 78.227C54.3974 78.2052 54.4415 78.1686 54.4725 78.1217C54.5034 78.0748 54.5197 78.0198 54.5192 77.9636C54.5192 77.8891 54.4896 77.8177 54.437 77.7651C54.3843 77.7124 54.3129 77.6829 54.2385 77.6829Z" fill="#263238"/>
<path d="M54.2417 80.0773C54.3967 80.0773 54.5224 79.9516 54.5224 79.7966C54.5224 79.6416 54.3967 79.5159 54.2417 79.5159C54.0866 79.5159 53.9609 79.6416 53.9609 79.7966C53.9609 79.9516 54.0866 80.0773 54.2417 80.0773Z" fill="#263238"/>
<path d="M54.2385 81.3486C54.1824 81.3482 54.1275 81.3644 54.0806 81.3952C54.0338 81.426 53.9971 81.4701 53.9753 81.5218C53.9536 81.5734 53.9476 81.6304 53.9583 81.6855C53.9689 81.7405 53.9957 81.7912 54.0352 81.831C54.0747 81.8708 54.1251 81.898 54.1801 81.9091C54.2351 81.9202 54.2921 81.9147 54.3439 81.8934C54.3958 81.872 54.4401 81.8358 54.4713 81.7892C54.5025 81.7426 54.5192 81.6878 54.5192 81.6317C54.5195 81.5946 54.5125 81.5579 54.4985 81.5235C54.4845 81.4892 54.4639 81.458 54.4378 81.4317C54.4117 81.4054 54.3807 81.3845 54.3464 81.3702C54.3122 81.356 54.2755 81.3486 54.2385 81.3486Z" fill="#263238"/>
<path d="M54.2417 83.745C54.3967 83.745 54.5224 83.6194 54.5224 83.4643C54.5224 83.3093 54.3967 83.1836 54.2417 83.1836C54.0866 83.1836 53.9609 83.3093 53.9609 83.4643C53.9609 83.6194 54.0866 83.745 54.2417 83.745Z" fill="#263238"/>
<path d="M54.2417 85.5778C54.3967 85.5778 54.5224 85.4521 54.5224 85.2971C54.5224 85.142 54.3967 85.0164 54.2417 85.0164C54.0866 85.0164 53.9609 85.142 53.9609 85.2971C53.9609 85.4521 54.0866 85.5778 54.2417 85.5778Z" fill="#263238"/>
<path d="M54.2385 86.8469C54.1824 86.8465 54.1275 86.8627 54.0806 86.8935C54.0338 86.9243 53.9971 86.9684 53.9753 87.02C53.9536 87.0717 53.9476 87.1287 53.9583 87.1838C53.9689 87.2388 53.9957 87.2895 54.0352 87.3293C54.0747 87.3691 54.1251 87.3963 54.1801 87.4074C54.2351 87.4185 54.2921 87.413 54.3439 87.3917C54.3958 87.3703 54.4401 87.3341 54.4713 87.2875C54.5025 87.2409 54.5192 87.1861 54.5192 87.13C54.5192 87.0553 54.4897 86.9837 54.4371 86.9306C54.3845 86.8776 54.3131 86.8475 54.2385 86.8469Z" fill="#263238"/>
<path d="M54.2417 89.2436C54.3967 89.2436 54.5224 89.1179 54.5224 88.9628C54.5224 88.8078 54.3967 88.6821 54.2417 88.6821C54.0866 88.6821 53.9609 88.8078 53.9609 88.9628C53.9609 89.1179 54.0866 89.2436 54.2417 89.2436Z" fill="#263238"/>
<path d="M50.9126 28.1787C50.6992 28.1775 50.4905 28.242 50.315 28.3635C50.1395 28.4849 50.0057 28.6575 49.9317 28.8577C49.8576 29.0579 49.8471 29.2761 49.9014 29.4825C49.9557 29.689 50.0723 29.8737 50.2352 30.0115C50.0723 30.1494 49.9557 30.3341 49.9014 30.5405C49.8471 30.747 49.8576 30.9651 49.9317 31.1653C50.0057 31.3655 50.1395 31.5381 50.315 31.6596C50.4905 31.7811 50.6992 31.8456 50.9126 31.8443H50.9358C51.0222 32.0434 51.1648 32.2129 51.3461 32.332C51.5275 32.4511 51.7397 32.5146 51.9566 32.5148C52.222 32.5141 52.4782 32.4178 52.6782 32.2434C52.7608 32.2647 52.8457 32.2756 52.931 32.2758" stroke="#263238" stroke-linecap="round" stroke-linejoin="round"/>
<path d="M54.5588 29.5128C54.5588 29.2181 54.4417 28.9354 54.2333 28.727C54.0249 28.5186 53.7422 28.4015 53.4475 28.4015C53.4055 28.4039 53.3637 28.4085 53.3222 28.4154C53.2616 28.2111 53.1397 28.0303 52.9731 27.8974C52.8064 27.7645 52.603 27.686 52.3903 27.6723C52.1777 27.6587 51.9659 27.7106 51.7836 27.821C51.6014 27.9315 51.4574 28.0953 51.3711 28.2901" stroke="#263238" stroke-linecap="round" stroke-linejoin="round"/>
<path d="M53.75 31.9094C53.9241 31.862 54.0839 31.7725 54.2153 31.6488C54.3468 31.5251 54.4458 31.3711 54.5038 31.2002C54.5617 31.0293 54.5768 30.8467 54.5477 30.6686C54.5187 30.4905 54.4463 30.3223 54.337 30.1787" stroke="#263238" stroke-linecap="round" stroke-linejoin="round"/>
<path d="M59.1719 29.0791C59.27 29.1022 59.3703 29.1147 59.4712 29.1162C59.6542 29.1153 59.8351 29.0765 60.0024 29.0023C60.1697 28.928 60.3198 28.8199 60.4432 28.6847C60.6504 28.628 60.8405 28.5214 60.9968 28.3741C61.153 28.2267 61.2707 28.0433 61.3395 27.8398C61.4082 27.6363 61.4259 27.4191 61.391 27.2072C61.3561 26.9953 61.2696 26.7952 61.1392 26.6245" stroke="#263238" stroke-linecap="round" stroke-linejoin="round"/>
<path d="M55.8281 27.3621C55.8281 27.6919 55.9591 28.0082 56.1923 28.2414C56.4256 28.4746 56.7418 28.6056 57.0716 28.6056H57.0995C57.2012 28.8431 57.3704 29.0455 57.5861 29.1878C57.8018 29.3301 58.0545 29.406 58.3128 29.406" stroke="#263238" stroke-linecap="round" stroke-linejoin="round"/>
<path d="M61.4154 25.8309C61.4154 25.4802 61.2761 25.1438 61.0281 24.8958C60.7801 24.6478 60.4437 24.5085 60.093 24.5085C60.0396 24.5085 59.9909 24.5085 59.9422 24.5224C59.8696 24.2797 59.7244 24.0651 59.5261 23.9075C59.3278 23.7499 59.0859 23.6568 58.8331 23.6409C58.5803 23.625 58.3287 23.6869 58.1122 23.8184C57.8957 23.9499 57.7247 24.1446 57.6222 24.3763C57.4519 24.2891 57.2636 24.243 57.0724 24.2417C56.8183 24.2406 56.57 24.3176 56.3612 24.4624C56.1524 24.6071 55.9932 24.8126 55.905 25.0509C55.8169 25.2891 55.8042 25.5488 55.8686 25.7945C55.933 26.0403 56.0714 26.2603 56.265 26.4248" stroke="#263238" stroke-linecap="round" stroke-linejoin="round"/>
<path d="M49.7148 22.5645C49.7291 22.8589 49.8254 23.1435 49.993 23.386C50.1605 23.6285 50.3926 23.8194 50.6629 23.9369C50.9332 24.0544 51.2311 24.094 51.5227 24.0511C51.8143 24.0083 52.0882 23.8847 52.3132 23.6943C52.3573 23.6533 52.3992 23.6099 52.4385 23.5644" stroke="#263238" stroke-linecap="round" stroke-linejoin="round"/>
<path d="M49.3295 18.9893C49.1614 19.1301 49.0248 19.3047 48.9285 19.5018C48.8322 19.6988 48.7783 19.9138 48.7704 20.133C48.5751 20.417 48.478 20.7571 48.4939 21.1014C48.5098 21.4457 48.6379 21.7753 48.8586 22.0401" stroke="#263238" stroke-linecap="round" stroke-linejoin="round"/>
<path d="M54.3556 18.9823C54.4059 18.6825 54.363 18.3744 54.2326 18.0997C54.1022 17.8251 53.8906 17.5971 53.6265 17.4465C53.3623 17.296 53.0583 17.2301 52.7556 17.2579C52.4528 17.2857 52.1659 17.4058 51.9335 17.6019L51.9103 17.6251C51.6884 17.5122 51.443 17.4535 51.1941 17.4536C50.9451 17.4538 50.6998 17.5128 50.478 17.626C50.2563 17.7391 50.0645 17.9031 49.9182 18.1046C49.772 18.306 49.6756 18.5392 49.6367 18.7851" stroke="#263238" stroke-linecap="round" stroke-linejoin="round"/>
<path d="M53.0391 23.7939C53.2467 23.8268 53.4591 23.8146 53.6616 23.7581C53.8642 23.7017 54.0522 23.6023 54.213 23.4668C54.4329 23.2803 54.5939 23.0338 54.6763 22.7574C54.7587 22.481 54.7589 22.1866 54.677 21.9101C54.9004 21.8584 55.1085 21.7551 55.2848 21.6085C55.5849 21.3552 55.7725 20.9935 55.8068 20.6023C55.8412 20.2111 55.7194 19.8222 55.4681 19.5205" stroke="#263238" stroke-linecap="round" stroke-linejoin="round"/>
</svg>
