<svg width="116" height="116" viewBox="0 0 116 116" fill="none" xmlns="http://www.w3.org/2000/svg">
<path d="M76.5725 10.6348C66.216 4.90211 53.6323 4.37083 41.8746 8.77883C31.6248 12.6207 19.881 34.8278 14.7561 40.8064C9.63119 46.7851 0.664393 60.8791 5.14663 70.9131C9.62887 80.9471 23.2009 81.664 29.8662 93.264C36.5316 104.864 60.88 112.752 75.612 105.289C90.344 97.8251 89.2791 83.5084 100.169 78.3765C111.059 73.2447 110.419 56.3829 106.575 45.9197C104.081 39.1291 98.8955 33.1829 94.3344 27.6961C91.9286 24.8239 89.4508 21.9866 87.0009 19.1376C84.0391 15.7252 80.5113 12.8488 76.5725 10.6348Z" fill="#EF233C"/>
<path opacity="0.7" d="M76.5725 10.6348C66.216 4.90211 53.6323 4.37083 41.8746 8.77883C31.6248 12.6207 19.881 34.8278 14.7561 40.8064C9.63119 46.7851 0.664393 60.8791 5.14663 70.9131C9.62887 80.9471 23.2009 81.664 29.8662 93.264C36.5316 104.864 60.88 112.752 75.612 105.289C90.344 97.8251 89.2791 83.5084 100.169 78.3765C111.059 73.2447 110.419 56.3829 106.575 45.9197C104.081 39.1291 98.8955 33.1829 94.3344 27.6961C91.9286 24.8239 89.4508 21.9866 87.0009 19.1376C84.0391 15.7252 80.5113 12.8488 76.5725 10.6348Z" fill="white"/>
<path d="M86.6534 84.4481C87.23 84.4481 87.6974 83.9807 87.6974 83.4041C87.6974 82.8275 87.23 82.3601 86.6534 82.3601C86.0768 82.3601 85.6094 82.8275 85.6094 83.4041C85.6094 83.9807 86.0768 84.4481 86.6534 84.4481Z" stroke="#263238" stroke-linejoin="round"/>
<path d="M100.224 94.888C100.8 94.888 101.268 94.4206 101.268 93.844C101.268 93.2675 100.8 92.8 100.224 92.8C99.6471 92.8 99.1797 93.2675 99.1797 93.844C99.1797 94.4206 99.6471 94.888 100.224 94.888Z" stroke="#263238" stroke-linejoin="round"/>
<path d="M81.6651 94.192C82.2417 94.192 82.7091 93.7246 82.7091 93.148C82.7091 92.5714 82.2417 92.104 81.6651 92.104C81.0885 92.104 80.6211 92.5714 80.6211 93.148C80.6211 93.7246 81.0885 94.192 81.6651 94.192Z" stroke="#263238" stroke-miterlimit="10"/>
<path d="M87.8142 93.4961C88.7752 93.4961 89.5542 92.7171 89.5542 91.7561C89.5542 90.7951 88.7752 90.0161 87.8142 90.0161C86.8532 90.0161 86.0742 90.7951 86.0742 91.7561C86.0742 92.7171 86.8532 93.4961 87.8142 93.4961Z" stroke="#263238" stroke-linejoin="round"/>
<path d="M85.7237 100.572C86.3003 100.572 86.7677 100.105 86.7677 99.5281C86.7677 98.9515 86.3003 98.4841 85.7237 98.4841C85.1471 98.4841 84.6797 98.9515 84.6797 99.5281C84.6797 100.105 85.1471 100.572 85.7237 100.572Z" stroke="#263238" stroke-linejoin="round"/>
<path d="M107.767 102.428C108.343 102.428 108.811 101.961 108.811 101.384C108.811 100.808 108.343 100.34 107.767 100.34C107.19 100.34 106.723 100.808 106.723 101.384C106.723 101.961 107.19 102.428 107.767 102.428Z" stroke="#263238" stroke-linejoin="round"/>
<path d="M108.81 84.68C109.386 84.68 109.854 84.2126 109.854 83.636C109.854 83.0595 109.386 82.592 108.81 82.592C108.233 82.592 107.766 83.0595 107.766 83.636C107.766 84.2126 108.233 84.68 108.81 84.68Z" stroke="#263238" stroke-linejoin="round"/>
<path d="M100.341 82.0121C100.917 82.0121 101.385 81.5447 101.385 80.9681C101.385 80.3915 100.917 79.9241 100.341 79.9241C99.7643 79.9241 99.2969 80.3915 99.2969 80.9681C99.2969 81.5447 99.7643 82.0121 100.341 82.0121Z" stroke="#263238" stroke-linejoin="round"/>
<path d="M103.822 87.5801C104.783 87.5801 105.562 86.8011 105.562 85.8401C105.562 84.8791 104.783 84.1001 103.822 84.1001C102.861 84.1001 102.082 84.8791 102.082 85.8401C102.082 86.8011 102.861 87.5801 103.822 87.5801Z" stroke="#263238" stroke-linejoin="round"/>
<path d="M87.4648 83.8682L99.4128 93.1482" stroke="#263238" stroke-linejoin="round"/>
<path d="M100.688 93.0321L103.24 87.5801" stroke="#263238" stroke-linejoin="round"/>
<path d="M104.402 87.5802L107.766 100.34L108.81 84.6802" stroke="#263238" stroke-linejoin="round"/>
<path d="M99.1815 94.4241L86.7695 99.5281" stroke="#263238" stroke-linejoin="round"/>
<path d="M89.5547 91.7562L102.199 86.4202" stroke="#263238" stroke-linejoin="round"/>
<path d="M87.3483 90.016L86.6523 84.448" stroke="#263238" stroke-linejoin="round"/>
<path d="M105.562 85.2601L107.882 84.2161" stroke="#263238" stroke-linejoin="round"/>
<path d="M82.2461 94.0762L85.0301 98.6002" stroke="#263238" stroke-linejoin="round"/>
<path d="M81.6641 92.1041L85.9561 84.2161" stroke="#263238" stroke-linejoin="round"/>
<path d="M89.0898 93.032L106.722 101.384" stroke="#263238" stroke-linejoin="round"/>
<path d="M100.227 94.8882L107.187 100.688" stroke="#263238" stroke-linejoin="round"/>
<path d="M87.6953 83.4041L102.079 85.8401" stroke="#263238" stroke-linejoin="round"/>
<path d="M107.765 83.6362L87.4648 82.9402" stroke="#263238" stroke-linejoin="round"/>
<path d="M107.883 83.1721L101.387 81.5481" stroke="#263238" stroke-linejoin="round"/>
<path d="M99.2979 81.4321L86.4219 98.7161" stroke="#263238" stroke-linejoin="round"/>
<path d="M86.0749 92.3362L82.7109 93.1482" stroke="#263238" stroke-linejoin="round"/>
<path d="M93.4556 84.281C93.4556 84.1841 93.4268 84.0894 93.3729 84.0088C93.319 83.9283 93.2425 83.8655 93.1529 83.8285C93.0633 83.7916 92.9647 83.782 92.8697 83.8011C92.7747 83.8202 92.6875 83.867 92.6191 83.9357C92.5508 84.0044 92.5043 84.0918 92.4857 84.1869C92.4671 84.2821 92.4771 84.3806 92.5145 84.47C92.5519 84.5594 92.615 84.6357 92.6958 84.6892C92.7766 84.7427 92.8715 84.771 92.9684 84.7705C93.0326 84.7705 93.0961 84.7579 93.1554 84.7332C93.2146 84.7086 93.2685 84.6725 93.3137 84.627C93.359 84.5815 93.3948 84.5276 93.4192 84.4682C93.4435 84.4088 93.4559 84.3452 93.4556 84.281Z" fill="#263238"/>
<path d="M88.5806 96.4193C88.5811 96.3224 88.5527 96.2276 88.4992 96.1467C88.4457 96.0659 88.3694 96.0028 88.28 95.9654C88.1906 95.928 88.0921 95.918 87.997 95.9366C87.9019 95.9552 87.8145 96.0017 87.7458 96.07C87.6771 96.1384 87.6302 96.2256 87.6111 96.3207C87.5921 96.4157 87.6016 96.5142 87.6386 96.6038C87.6756 96.6934 87.7383 96.77 87.8189 96.8239C87.8994 96.8778 87.9942 96.9065 88.0911 96.9065C88.1553 96.9068 88.2189 96.8945 88.2782 96.8701C88.3376 96.8458 88.3916 96.8099 88.4371 96.7647C88.4826 96.7194 88.5187 96.6656 88.5433 96.6063C88.5679 96.5471 88.5806 96.4835 88.5806 96.4193Z" fill="#263238"/>
<path d="M102.26 90.6981C102.261 90.6011 102.232 90.5062 102.179 90.4253C102.125 90.3444 102.049 90.2813 101.959 90.244C101.87 90.2067 101.771 90.1968 101.676 90.2156C101.581 90.2344 101.493 90.2811 101.425 90.3497C101.356 90.4183 101.309 90.5057 101.291 90.6009C101.272 90.6961 101.282 90.7947 101.319 90.8842C101.356 90.9738 101.419 91.0502 101.5 91.1038C101.581 91.1574 101.676 91.1858 101.773 91.1853C101.902 91.1853 102.026 91.134 102.118 91.0426C102.209 90.9513 102.26 90.8273 102.26 90.6981Z" fill="#263238"/>
<path d="M102.131 98.9389C102.132 98.8419 102.104 98.7471 102.05 98.6663C101.997 98.5855 101.92 98.5224 101.831 98.485C101.741 98.4475 101.643 98.4375 101.548 98.4561C101.453 98.4748 101.365 98.5212 101.297 98.5896C101.228 98.6579 101.181 98.7452 101.162 98.8402C101.143 98.9352 101.152 99.0337 101.189 99.1233C101.226 99.2129 101.289 99.2895 101.37 99.3434C101.45 99.3973 101.545 99.4261 101.642 99.4261C101.771 99.4255 101.895 99.374 101.987 99.2828C102.078 99.1917 102.13 99.0681 102.131 98.9389Z" fill="#263238"/>
<path d="M84.6822 87.5962C84.6822 87.4993 84.6534 87.4046 84.5995 87.324C84.5456 87.2435 84.469 87.1807 84.3794 87.1437C84.2899 87.1067 84.1913 87.0972 84.0963 87.1163C84.0013 87.1353 83.914 87.1822 83.8457 87.2509C83.7773 87.3196 83.7309 87.407 83.7122 87.5021C83.6936 87.5972 83.7037 87.6957 83.7411 87.7851C83.7785 87.8746 83.8416 87.9508 83.9224 88.0044C84.0032 88.0579 84.098 88.0862 84.195 88.0857C84.2591 88.0857 84.3227 88.073 84.3819 88.0484C84.4412 88.0238 84.495 87.9877 84.5403 87.9422C84.5856 87.8967 84.6214 87.8427 84.6457 87.7834C84.6701 87.724 84.6825 87.6604 84.6822 87.5962Z" fill="#263238"/>
<path d="M108.561 87.2994C108.83 87.2994 109.049 87.0812 109.049 86.8122C109.049 86.5431 108.83 86.325 108.561 86.325C108.292 86.325 108.074 86.5431 108.074 86.8122C108.074 87.0812 108.292 87.2994 108.561 87.2994Z" fill="#263238"/>
<path d="M90.8984 67.679V55.7844C90.8981 55.7057 90.9134 55.6277 90.9434 55.5549C90.9734 55.4822 91.0174 55.4161 91.0731 55.3604C91.1287 55.3048 91.1948 55.2607 91.2676 55.2307C91.3403 55.2008 91.4183 55.1855 91.497 55.1858H103.986C104.064 55.1855 104.142 55.2007 104.215 55.2307C104.288 55.2606 104.354 55.3047 104.41 55.3603C104.466 55.4159 104.51 55.482 104.541 55.5548C104.571 55.6275 104.586 55.7056 104.586 55.7844V56.2484" stroke="#263238" stroke-miterlimit="10"/>
<path d="M91.9571 69.1058H91.4931C91.4143 69.1058 91.3363 69.0902 91.2635 69.06C91.1907 69.0298 91.1246 68.9855 91.069 68.9296C91.0134 68.8738 90.9694 68.8075 90.9394 68.7347C90.9095 68.6618 90.8942 68.5837 90.8945 68.5049" stroke="#263238" stroke-miterlimit="10"/>
<path d="M104.584 57.051V68.5049C104.584 68.6642 104.521 68.8171 104.408 68.9298C104.296 69.0424 104.143 69.1057 103.983 69.1057H92.8125" stroke="#263238" stroke-miterlimit="10"/>
<path d="M94.7734 60.4428V59.1296H100.706V65.1616H98.8729" stroke="#263238" stroke-miterlimit="10"/>
<path d="M94.7734 62.1619V61.2571" stroke="#263238" stroke-miterlimit="10"/>
<path d="M98.149 65.1618H94.7734V62.9763" stroke="#263238" stroke-miterlimit="10"/>
<path d="M93.707 55.2925V51.5271" stroke="#263238" stroke-miterlimit="10"/>
<path d="M96.3945 55.2925V51.5271" stroke="#263238" stroke-miterlimit="10"/>
<path d="M99.0859 55.2925V51.5271" stroke="#263238" stroke-miterlimit="10"/>
<path d="M101.773 55.2925V51.5271" stroke="#263238" stroke-miterlimit="10"/>
<path d="M93.707 72.9059V69.1428" stroke="#263238" stroke-miterlimit="10"/>
<path d="M96.3945 72.9059V69.1428" stroke="#263238" stroke-miterlimit="10"/>
<path d="M99.0859 72.9059V69.1428" stroke="#263238" stroke-miterlimit="10"/>
<path d="M101.773 72.9059V69.1428" stroke="#263238" stroke-miterlimit="10"/>
<path d="M104.664 58.1831H108.429" stroke="#263238" stroke-miterlimit="10"/>
<path d="M104.664 60.8721H108.429" stroke="#263238" stroke-miterlimit="10"/>
<path d="M104.664 63.561H108.429" stroke="#263238" stroke-miterlimit="10"/>
<path d="M104.664 66.2498H108.429" stroke="#263238" stroke-miterlimit="10"/>
<path d="M87.0508 58.1831H90.8161" stroke="#263238" stroke-miterlimit="10"/>
<path d="M87.0508 60.8721H90.8161" stroke="#263238" stroke-miterlimit="10"/>
<path d="M87.0508 63.561H90.8161" stroke="#263238" stroke-miterlimit="10"/>
<path d="M87.0508 66.2498H90.8161" stroke="#263238" stroke-miterlimit="10"/>
<path d="M108.92 63.5679C108.92 63.4711 108.892 63.3764 108.838 63.2959C108.784 63.2154 108.708 63.1527 108.618 63.1156C108.529 63.0786 108.43 63.0689 108.335 63.0878C108.24 63.1067 108.153 63.1533 108.085 63.2217C108.016 63.2902 107.97 63.3774 107.951 63.4724C107.932 63.5673 107.942 63.6658 107.979 63.7552C108.016 63.8447 108.078 63.9211 108.159 63.9749C108.239 64.0287 108.334 64.0574 108.431 64.0574C108.561 64.0574 108.685 64.0058 108.777 63.914C108.869 63.8222 108.92 63.6977 108.92 63.5679Z" fill="#263238"/>
<path d="M92.6775 55.2924C92.6775 55.196 92.649 55.1018 92.5954 55.0217C92.5419 54.9416 92.4658 54.8791 92.3768 54.8423C92.2877 54.8054 92.1898 54.7957 92.0953 54.8145C92.0008 54.8333 91.914 54.8797 91.8458 54.9479C91.7777 55.016 91.7313 55.1028 91.7125 55.1973C91.6937 55.2918 91.7033 55.3898 91.7402 55.4788C91.7771 55.5678 91.8395 55.6439 91.9197 55.6975C91.9998 55.751 92.094 55.7796 92.1903 55.7796C92.3195 55.7796 92.4435 55.7282 92.5348 55.6369C92.6262 55.5455 92.6775 55.4216 92.6775 55.2924Z" fill="#263238"/>
<path d="M89.3064 66.1408C89.3064 66.0444 89.2779 65.9502 89.2243 65.8701C89.1708 65.79 89.0947 65.7275 89.0057 65.6906C88.9167 65.6538 88.8187 65.6441 88.7242 65.6629C88.6297 65.6817 88.5429 65.7281 88.4747 65.7963C88.4066 65.8644 88.3602 65.9512 88.3414 66.0457C88.3226 66.1402 88.3322 66.2382 88.3691 66.3272C88.406 66.4162 88.4684 66.4923 88.5486 66.5459C88.6287 66.5994 88.7229 66.628 88.8192 66.628C88.8832 66.628 88.9466 66.6154 89.0057 66.5909C89.0648 66.5664 89.1185 66.5305 89.1637 66.4853C89.209 66.44 89.2449 66.3863 89.2693 66.3272C89.2938 66.2681 89.3064 66.2047 89.3064 66.1408Z" fill="#263238"/>
<path d="M99.0849 53.23C99.3539 53.23 99.5721 53.0119 99.5721 52.7428C99.5721 52.4737 99.3539 52.2556 99.0849 52.2556C98.8158 52.2556 98.5977 52.4737 98.5977 52.7428C98.5977 53.0119 98.8158 53.23 99.0849 53.23Z" fill="#263238"/>
<path d="M98.1346 69.1359C98.1346 69.0395 98.106 68.9453 98.0524 68.8652C97.9989 68.7851 97.9228 68.7226 97.8338 68.6858C97.7448 68.6489 97.6468 68.6392 97.5523 68.658C97.4578 68.6768 97.371 68.7232 97.3029 68.7914C97.2347 68.8595 97.1883 68.9463 97.1695 69.0408C97.1507 69.1353 97.1604 69.2333 97.1972 69.3223C97.2341 69.4114 97.2966 69.4874 97.3767 69.541C97.4568 69.5945 97.551 69.6231 97.6474 69.6231C97.7764 69.6225 97.8999 69.571 97.9912 69.4797C98.0824 69.3885 98.1339 69.2649 98.1346 69.1359Z" fill="#263238"/>
<path d="M102.268 71.7482C102.269 71.6512 102.24 71.5562 102.187 71.4753C102.133 71.3945 102.057 71.3314 101.967 71.2941C101.877 71.2567 101.779 71.2468 101.684 71.2656C101.588 71.2845 101.501 71.3311 101.432 71.3997C101.364 71.4683 101.317 71.5558 101.298 71.6509C101.28 71.7461 101.289 71.8447 101.327 71.9343C101.364 72.0238 101.427 72.1002 101.508 72.1539C101.589 72.2075 101.684 72.2358 101.781 72.2354C101.91 72.2354 102.034 72.1841 102.125 72.0927C102.217 72.0013 102.268 71.8774 102.268 71.7482Z" fill="#263238"/>
<path d="M80.9373 17.7991C80.9373 17.7991 79.9629 18.0311 79.6613 18.7758C79.3597 19.5205 77.2578 24.5596 77.2578 25.1604C77.2788 25.5536 77.4382 25.9267 77.7079 26.2137L82.6657 28.2414C82.6657 28.2414 83.7167 27.9398 84.5426 28.0906C85.3685 28.2414 85.8952 29.6682 86.7211 29.819C87.547 29.9698 91.0038 29.7424 92.6557 28.9908C94.3075 28.2391 94.8341 25.9121 94.8341 24.3345C94.8341 22.7569 94.3075 21.1793 93.8574 20.88L93.1823 20.43" stroke="#263238" stroke-miterlimit="10"/>
<path d="M92.0552 19.6782C92.0552 19.6782 91.5286 19.2281 92.8812 19.4462C94.2337 19.6643 97.614 24.1024 98.7415 25.5292C99.869 26.956 100.994 27.0326 101.894 26.1301C102.795 25.2276 102.126 24.1024 101.82 23.5015C101.514 22.9007 100.243 21.3973 99.7924 20.3463C99.3424 19.2954 98.064 16.5903 97.0084 15.9151C95.9528 15.24 94.3799 15.0892 91.9764 16.0659C89.5728 17.0427 88.4453 17.8686 88.4453 17.8686" stroke="#263238" stroke-miterlimit="10"/>
<path d="M81.8398 17.7248L86.5726 17.4255" stroke="#263238" stroke-miterlimit="10"/>
<path d="M84.3164 26.7379C85.2189 26.4387 85.1423 25.9863 86.0448 24.7845C86.9473 23.5827 87.9982 19.5274 88.0725 19.0007C88.1135 18.682 88.0304 18.3598 87.8405 18.1006L92.3482 20.3672" stroke="#263238" stroke-miterlimit="10"/>
<path d="M78.8359 26.216H82.9679C83.7025 25.6809 84.2743 24.9524 84.6197 24.1118C85.144 22.7592 86.1973 19.6806 86.4966 19.0078C86.5886 18.8345 86.6367 18.6413 86.6367 18.4452C86.6367 18.249 86.5886 18.0558 86.4966 17.8826" stroke="#263238" stroke-miterlimit="10"/>
<path d="M83.4174 28.0163C83.4174 28.0163 81.3132 26.8888 82.2899 27.0396C83.2666 27.1904 85.4451 28.5406 87.0227 28.5406C88.6003 28.5406 89.2012 27.6404 89.9529 26.4387C90.7045 25.2369 92.5049 22.0052 92.5049 21.0308" stroke="#263238" stroke-miterlimit="10"/>
<path d="M99.1917 28.3898C99.1917 28.3898 100.468 26.738 101.67 28.2413C102.871 29.7447 101.219 32.0717 100.544 32.7468C99.8692 33.4219 97.9923 33.4242 97.6884 33.2734C97.4968 33.1735 97.3203 33.0469 97.1641 32.8976" stroke="#263238" stroke-miterlimit="10"/>
<path d="M100.457 26.738L104.364 31.2458C104.364 31.2458 104.438 30.044 105.116 29.5174C105.42 29.2647 105.746 29.0388 106.09 28.8423L102.485 25.0862" stroke="#263238" stroke-miterlimit="10"/>
<path d="M106.551 29H107.075C107.075 29 108.428 30.6542 108.428 31.1042C108.428 31.5543 106.326 34.5587 105.644 34.5587C104.962 34.5587 103.992 34.0344 103.992 34.0344C103.992 34.0344 104.368 33.5078 104.667 32.9811C104.967 32.4545 104.667 31.7051 104.667 31.7051C104.667 31.7051 106.02 32.6818 105.795 33.9578" stroke="#263238" stroke-miterlimit="10"/>
<path d="M84.4062 38.2383C85.7704 38.5399 88.2551 38.584 88.7516 38.8322C89.3525 39.1315 90.7027 42.8876 90.7027 42.8876" stroke="#263238" stroke-miterlimit="10"/>
<path d="M83.2647 28.4663C83.2647 28.4663 82.5896 28.9164 82.9654 29.5173C83.3412 30.1182 84.1672 30.494 84.1672 30.494C84.1672 30.494 83.0396 31.6957 83.2647 32.2224C83.395 32.5606 83.395 32.9351 83.2647 33.2733C83.2647 33.2733 83.0327 33.9485 83.1139 34.3243C83.1951 34.7001 83.2647 35.301 83.2647 35.301C83.2647 35.301 82.8146 37.4795 83.7148 38.0062" stroke="#263238" stroke-miterlimit="10"/>
<path d="M103.997 34.0251C103.997 34.0251 102.57 35.3011 102.494 36.8787C102.417 38.4563 102.262 38.9064 102.262 38.9064" stroke="#263238" stroke-miterlimit="10"/>
<path d="M107.851 26.8494C107.754 27.4766 107.599 28.0934 107.387 28.6914" stroke="#263238" stroke-miterlimit="10"/>
<path d="M107.988 24.592C108.002 24.9168 108 25.2324 107.988 25.5363" stroke="#263238" stroke-miterlimit="10"/>
<path d="M96.7109 15.247C96.7109 15.247 101.293 14.4188 105.274 18.3999C106.723 19.8227 107.651 21.6915 107.91 23.7058" stroke="#263238" stroke-miterlimit="10"/>
<path d="M78.7593 21.3926C79.0579 21.3926 79.2999 21.1506 79.2999 20.8521C79.2999 20.5535 79.0579 20.3115 78.7593 20.3115C78.4608 20.3115 78.2188 20.5535 78.2188 20.8521C78.2188 21.1506 78.4608 21.3926 78.7593 21.3926Z" fill="#263238"/>
<path d="M89.8374 30.1068C90.136 30.1068 90.378 29.8647 90.378 29.5662C90.378 29.2677 90.136 29.0256 89.8374 29.0256C89.5389 29.0256 89.2969 29.2677 89.2969 29.5662C89.2969 29.8647 89.5389 30.1068 89.8374 30.1068Z" fill="#263238"/>
<path d="M88.9624 39.2938C89.261 39.2938 89.503 39.0517 89.503 38.7532C89.503 38.4547 89.261 38.2126 88.9624 38.2126C88.6639 38.2126 88.4219 38.4547 88.4219 38.7532C88.4219 39.0517 88.6639 39.2938 88.9624 39.2938Z" fill="#263238"/>
<path d="M99.2803 25.5362C99.2803 25.4291 99.2486 25.3245 99.1891 25.2356C99.1296 25.1467 99.045 25.0774 98.9461 25.0365C98.8472 24.9957 98.7384 24.9851 98.6335 25.0062C98.5285 25.0272 98.4322 25.0789 98.3567 25.1548C98.2812 25.2306 98.2299 25.3271 98.2093 25.4321C98.1887 25.5371 98.1998 25.6459 98.241 25.7446C98.2823 25.8434 98.3519 25.9276 98.4411 25.9867C98.5303 26.0459 98.6351 26.0772 98.7421 26.0767C98.813 26.0767 98.8832 26.0627 98.9486 26.0355C99.0141 26.0083 99.0735 25.9685 99.1235 25.9183C99.1735 25.868 99.2131 25.8084 99.24 25.7428C99.2669 25.6773 99.2806 25.607 99.2803 25.5362Z" fill="#263238"/>
<path d="M98.0132 17.6087C98.3118 17.6087 98.5538 17.3667 98.5538 17.0681C98.5538 16.7696 98.3118 16.5276 98.0132 16.5276C97.7147 16.5276 97.4727 16.7696 97.4727 17.0681C97.4727 17.3667 97.7147 17.6087 98.0132 17.6087Z" fill="#263238"/>
<path d="M88.7202 18.2816C89.0188 18.2816 89.2608 18.0395 89.2608 17.741C89.2608 17.4425 89.0188 17.2004 88.7202 17.2004C88.4217 17.2004 88.1797 17.4425 88.1797 17.741C88.1797 18.0395 88.4217 18.2816 88.7202 18.2816Z" fill="#263238"/>
<path d="M106.794 29.566C107.093 29.566 107.335 29.324 107.335 29.0254C107.335 28.7269 107.093 28.4849 106.794 28.4849C106.496 28.4849 106.254 28.7269 106.254 29.0254C106.254 29.324 106.496 29.566 106.794 29.566Z" fill="#263238"/>
<path d="M17.1934 16.3862H16.2422" stroke="#263238" stroke-miterlimit="10"/>
<path d="M12.9336 27.3066H17.1954C17.3832 27.3077 17.568 27.2592 17.731 27.1658C17.8939 27.0725 18.0293 26.9378 18.1234 26.7753L20.6499 22.3789C20.7434 22.217 20.7926 22.0334 20.7926 21.8464C20.7926 21.6595 20.7434 21.4759 20.6499 21.314L18.1188 16.9199" stroke="#263238" stroke-miterlimit="10"/>
<path d="M15.3561 16.3862H12.1081C11.9202 16.3856 11.7353 16.4346 11.5724 16.5283C11.4094 16.622 11.2741 16.757 11.1801 16.9198L8.65829 21.3139C8.56483 21.4758 8.51563 21.6594 8.51562 21.8464C8.51563 22.0333 8.56483 22.2169 8.65829 22.3788L11.1964 26.7868C11.2905 26.9493 11.4259 27.0841 11.5889 27.1774C11.7518 27.2707 11.9366 27.3192 12.1244 27.3181" stroke="#263238" stroke-miterlimit="10"/>
<path d="M20.6172 31.3595L21.3457 32.6169C21.4396 32.7796 21.5749 32.9145 21.738 33.0078C21.901 33.1011 22.0858 33.1496 22.2737 33.1482H27.3498C27.5377 33.1496 27.7225 33.1011 27.8855 33.0078C28.0485 32.9145 28.1839 32.7796 28.2778 32.6169L30.8159 28.2089C30.9094 28.0475 30.9586 27.8642 30.9586 27.6777C30.9586 27.4911 30.9094 27.3078 30.8159 27.1464L29.3172 24.5503" stroke="#263238" stroke-miterlimit="10"/>
<path d="M19.9648 30.2273L20.3384 30.8746" stroke="#263238" stroke-miterlimit="10"/>
<path d="M28.8361 23.7546L28.2631 22.7616C28.1693 22.5987 28.034 22.4635 27.871 22.3698C27.708 22.276 27.5231 22.2271 27.3351 22.228H22.2729C22.0848 22.2271 21.8999 22.276 21.7369 22.3698C21.5739 22.4635 21.4387 22.5987 21.3449 22.7616L18.8068 27.1696C18.7133 27.3311 18.6641 27.5144 18.6641 27.7009C18.6641 27.8875 18.7133 28.0707 18.8068 28.2322L19.5561 29.5337" stroke="#263238" stroke-miterlimit="10"/>
<path d="M20.4725 12.4331L18.8067 15.3122C18.7133 15.4741 18.6641 15.6577 18.6641 15.8447C18.6641 16.0316 18.7133 16.2152 18.8067 16.3771L21.3448 20.7805C21.4387 20.9431 21.5741 21.078 21.7371 21.1713C21.9001 21.2647 22.085 21.3131 22.2728 21.3117H27.349C27.5368 21.3131 27.7217 21.2647 27.8847 21.1713C28.0477 21.078 28.1831 20.9431 28.277 20.7805L30.8151 16.3841C30.9085 16.2222 30.9577 16.0386 30.9577 15.8516C30.9577 15.6647 30.9085 15.4811 30.8151 15.3192L30.6248 15.0245" stroke="#263238" stroke-miterlimit="10"/>
<path d="M21.3444 10.9226L20.9453 11.614" stroke="#263238" stroke-miterlimit="10"/>
<path d="M30.3522 14.5419L28.2642 10.9227C28.1703 10.76 28.035 10.6251 27.8719 10.5318C27.7089 10.4385 27.5241 10.39 27.3362 10.3914H22.2717C22.188 10.391 22.1046 10.4011 22.0234 10.4215" stroke="#263238" stroke-miterlimit="10"/>
<path d="M37.4865 16.24H32.4104C32.2225 16.2386 32.0377 16.2871 31.8747 16.3804C31.7117 16.4737 31.5763 16.6086 31.4824 16.7713L28.9513 21.1607C28.8578 21.3226 28.8086 21.5063 28.8086 21.6932C28.8086 21.8801 28.8578 22.0637 28.9513 22.2256L31.4893 26.6336C31.5833 26.7963 31.7186 26.9312 31.8816 27.0245C32.0447 27.1178 32.2295 27.1663 32.4173 27.1649H37.4935C37.6813 27.166 37.866 27.1175 38.029 27.0242C38.192 26.9309 38.3274 26.7961 38.4215 26.6336L40.9573 22.2256C41.0507 22.0637 41.0999 21.8801 41.0999 21.6932C41.0999 21.5063 41.0507 21.3226 40.9573 21.1607L38.4099 16.7643C38.3153 16.6038 38.1803 16.4709 38.0182 16.3789C37.8562 16.2869 37.6729 16.239 37.4865 16.24Z" stroke="#263238" stroke-miterlimit="10"/>
<path d="M27.2787 34.3362H22.2025C22.0147 34.3348 21.8298 34.3833 21.6668 34.4766C21.5038 34.5699 21.3684 34.7048 21.2745 34.8675L18.7364 39.2755C18.643 39.4374 18.5938 39.621 18.5938 39.8079C18.5938 39.9949 18.643 40.1785 18.7364 40.3404L21.2745 44.7368C21.3684 44.8994 21.5038 45.0343 21.6668 45.1277C21.8298 45.221 22.0147 45.2694 22.2025 45.268H27.2787C27.4664 45.2692 27.6512 45.2206 27.8142 45.1273C27.9772 45.034 28.1126 44.8993 28.2067 44.7368L30.7424 40.3404C30.8359 40.1785 30.8851 39.9949 30.8851 39.8079C30.8851 39.621 30.8359 39.4374 30.7424 39.2755L28.2067 34.8675C28.1126 34.705 27.9772 34.5702 27.8142 34.4769C27.6512 34.3836 27.4664 34.3351 27.2787 34.3362Z" stroke="#263238" stroke-miterlimit="10"/>
<path d="M39.2381 37.4935L41.1753 34.1365C41.2688 33.975 41.318 33.7918 41.318 33.6052C41.318 33.4187 41.2688 33.2354 41.1753 33.0739L38.6372 28.6659C38.5434 28.503 38.4082 28.3678 38.2452 28.2741C38.0822 28.1803 37.8973 28.1314 37.7092 28.1323H32.64C32.452 28.1314 32.2671 28.1803 32.1041 28.2741C31.9411 28.3678 31.8059 28.503 31.712 28.6659L29.174 33.0739C29.0805 33.2354 29.0312 33.4187 29.0312 33.6052C29.0312 33.7918 29.0805 33.975 29.174 34.1365L31.712 38.5445C31.8059 38.7074 31.9411 38.8427 32.1041 38.9364C32.2671 39.0301 32.452 39.079 32.64 39.0781H36.7047" stroke="#263238" stroke-miterlimit="10"/>
<path d="M37.7148 39.0666C37.9029 39.0675 38.0878 39.0186 38.2508 38.9249C38.4138 38.8312 38.549 38.696 38.6428 38.533L38.796 38.2686" stroke="#263238" stroke-miterlimit="10"/>
<path d="M27.3308 29.3296L27.9502 29.4688L28.094 28.8424L27.5001 28.7079C27.5001 28.6893 27.5001 28.6707 27.5001 28.6545C27.501 28.4638 27.4623 28.275 27.3864 28.1L27.869 27.7149L27.4676 27.2115L27.0036 27.5803C26.8432 27.44 26.6527 27.3384 26.4468 27.2834V26.6802H25.8019V27.2555C25.5907 27.2984 25.3917 27.388 25.2196 27.5177L24.7556 27.1465L24.3588 27.6523L24.8228 28.0165C24.7264 28.2064 24.6748 28.416 24.672 28.629L24.0781 28.7659L24.222 29.3923L24.8066 29.2577C24.8945 29.4465 25.0228 29.6136 25.1824 29.7472L24.911 30.311L25.491 30.5917L25.7578 30.0349C25.8671 30.0619 25.9793 30.0759 26.0919 30.0767C26.1823 30.0758 26.2724 30.0665 26.361 30.0488L26.6394 30.6242L27.2194 30.3458L26.948 29.7867C27.1067 29.6634 27.2372 29.5075 27.3308 29.3296ZM25.4492 28.6545C25.4492 28.5297 25.4863 28.4077 25.5556 28.3039C25.6249 28.2001 25.7235 28.1193 25.8388 28.0715C25.9541 28.0237 26.081 28.0112 26.2034 28.0356C26.3258 28.0599 26.4382 28.12 26.5265 28.2083C26.6147 28.2965 26.6749 28.409 26.6992 28.5314C26.7235 28.6538 26.7111 28.7807 26.6633 28.896C26.6155 29.0113 26.5346 29.1098 26.4309 29.1792C26.3271 29.2485 26.2051 29.2855 26.0803 29.2855C25.9129 29.2855 25.7524 29.2191 25.6341 29.1007C25.5157 28.9824 25.4492 28.8219 25.4492 28.6545Z" stroke="#263238" stroke-miterlimit="10"/>
<path d="M24.3151 26.7915L24.9323 26.933L25.0761 26.3066L24.4822 26.1698C24.4822 26.1512 24.4822 26.135 24.4822 26.1164C24.4825 25.926 24.4446 25.7375 24.3708 25.5619L24.8511 25.1791L24.4497 24.6757L23.9857 25.0422C23.8238 24.9028 23.6328 24.8013 23.4266 24.7453V24.1467H22.7886V24.7221C22.577 24.764 22.3779 24.8536 22.2063 24.9842L21.7423 24.613L21.3432 25.1165L21.8072 25.4784C21.7109 25.6692 21.6593 25.8795 21.6564 26.0932L21.0625 26.2278L21.2063 26.8542L21.791 26.7219C21.8795 26.9096 22.0078 27.0758 22.1668 27.2091L21.8954 27.7752L22.4754 28.0536L22.7422 27.4968C22.8513 27.525 22.9636 27.539 23.0763 27.5386C23.1666 27.5385 23.2567 27.5299 23.3454 27.513L23.6238 28.0884L24.2038 27.81L23.9347 27.2486C24.0924 27.1249 24.2221 26.9691 24.3151 26.7915ZM22.4313 26.1164C22.4313 25.9916 22.4683 25.8696 22.5376 25.7658C22.607 25.662 22.7055 25.5812 22.8209 25.5334C22.9362 25.4856 23.063 25.4731 23.1854 25.4975C23.3079 25.5218 23.4203 25.5819 23.5086 25.6702C23.5968 25.7584 23.6569 25.8709 23.6813 25.9933C23.7056 26.1157 23.6931 26.2426 23.6453 26.3579C23.5976 26.4732 23.5167 26.5718 23.4129 26.6411C23.3092 26.7104 23.1871 26.7474 23.0623 26.7474C22.895 26.7474 22.7345 26.681 22.6161 26.5626C22.4978 26.4443 22.4313 26.2838 22.4313 26.1164Z" stroke="#263238" stroke-miterlimit="10"/>
<path d="M36.2102 22.0534C36.6514 20.995 36.151 19.7792 35.0926 19.338C34.0341 18.8967 32.8183 19.3971 32.3771 20.4555C31.9358 21.514 32.4362 22.7298 33.4947 23.171C34.5531 23.6123 35.7689 23.1119 36.2102 22.0534Z" stroke="#263238" stroke-miterlimit="10"/>
<path d="M34.2905 23.0191C35.2643 23.0191 36.0537 22.2297 36.0537 21.2559C36.0537 20.2821 35.2643 19.4927 34.2905 19.4927C33.3168 19.4927 32.5273 20.2821 32.5273 21.2559C32.5273 22.2297 33.3168 23.0191 34.2905 23.0191Z" stroke="#263238" stroke-miterlimit="10"/>
<path d="M36.6289 23.4507L38.0047 24.5921" stroke="#263238" stroke-width="3" stroke-miterlimit="10"/>
<path d="M35.8008 22.7664L36.6267 23.4508" stroke="#263238" stroke-width="2" stroke-miterlimit="10"/>
<path d="M11.5 20.4578H17.6712" stroke="#263238" stroke-miterlimit="10"/>
<path d="M12.8216 20.1169H12.1836V20.7549H12.8216V20.1169Z" fill="#263238"/>
<path d="M11.5 21.9033H17.6712" stroke="#263238" stroke-miterlimit="10"/>
<path d="M16.1185 21.5645H15.4805V22.2025H16.1185V21.5645Z" fill="#263238"/>
<path d="M11.5 23.3508H17.6712" stroke="#263238" stroke-miterlimit="10"/>
<path d="M14.6497 23.0098H14.0117V23.6478H14.6497V23.0098Z" fill="#263238"/>
<path d="M35.0302 39.5166C35.2992 39.5166 35.5174 39.2985 35.5174 39.0294C35.5174 38.7604 35.2992 38.5422 35.0302 38.5422C34.7611 38.5422 34.543 38.7604 34.543 39.0294C34.543 39.2985 34.7611 39.5166 35.0302 39.5166Z" fill="#263238"/>
<path d="M38.831 29.5035C39.1 29.5035 39.3181 29.2853 39.3181 29.0163C39.3181 28.7472 39.1 28.5291 38.831 28.5291C38.5619 28.5291 38.3438 28.7472 38.3438 29.0163C38.3438 29.2853 38.5619 29.5035 38.831 29.5035Z" fill="#263238"/>
<path d="M24.5376 22.3349C24.5381 22.2378 24.5097 22.1429 24.4561 22.062C24.4025 21.9812 24.3261 21.9181 24.2365 21.8807C24.147 21.8434 24.0484 21.8335 23.9532 21.8523C23.858 21.8711 23.7706 21.9178 23.702 21.9864C23.6334 22.055 23.5867 22.1424 23.5679 22.2376C23.5491 22.3328 23.559 22.4314 23.5963 22.5209C23.6336 22.6105 23.6967 22.6869 23.7776 22.7405C23.8585 22.7941 23.9534 22.8225 24.0504 22.8221C24.1796 22.8221 24.3036 22.7707 24.3949 22.6794C24.4863 22.588 24.5376 22.4641 24.5376 22.3349Z" fill="#263238"/>
<path d="M29.74 12.6952C29.74 12.5988 29.7115 12.5047 29.6579 12.4245C29.6044 12.3444 29.5283 12.282 29.4393 12.2451C29.3502 12.2082 29.2523 12.1986 29.1578 12.2174C29.0633 12.2362 28.9765 12.2826 28.9083 12.3507C28.8402 12.4188 28.7938 12.5057 28.775 12.6002C28.7562 12.6947 28.7658 12.7926 28.8027 12.8817C28.8396 12.9707 28.902 13.0468 28.9822 13.1003C29.0623 13.1538 29.1565 13.1824 29.2528 13.1824C29.3818 13.1818 29.5054 13.1303 29.5967 13.039C29.6879 12.9478 29.7394 12.8242 29.74 12.6952Z" fill="#263238"/>
<path d="M10.9947 25.6454C10.9951 25.5484 10.9667 25.4534 10.9131 25.3726C10.8595 25.2917 10.7831 25.2286 10.6935 25.1913C10.604 25.1539 10.5054 25.144 10.4102 25.1629C10.315 25.1817 10.2276 25.2283 10.159 25.2969C10.0904 25.3655 10.0437 25.453 10.0249 25.5482C10.0061 25.6433 10.016 25.7419 10.0533 25.8315C10.0907 25.921 10.1538 25.9975 10.2346 26.0511C10.3155 26.1047 10.4104 26.1331 10.5075 26.1326C10.6367 26.1326 10.7606 26.0813 10.852 25.9899C10.9433 25.8985 10.9947 25.7746 10.9947 25.6454Z" fill="#263238"/>
<path d="M26.1306 33.0973C26.1306 33.0009 26.1021 32.9068 26.0485 32.8266C25.995 32.7465 25.9189 32.6841 25.8299 32.6472C25.7409 32.6103 25.6429 32.6007 25.5484 32.6195C25.4539 32.6383 25.3671 32.6847 25.2989 32.7528C25.2308 32.8209 25.1844 32.9078 25.1656 33.0023C25.1468 33.0968 25.1565 33.1947 25.1933 33.2838C25.2302 33.3728 25.2927 33.4489 25.3728 33.5024C25.4529 33.5559 25.5471 33.5845 25.6434 33.5845C25.7725 33.5839 25.896 33.5324 25.9873 33.4411C26.0785 33.3499 26.13 33.2263 26.1306 33.0973Z" fill="#263238"/>
<path d="M19.7908 41.2057C19.7908 41.1093 19.7622 41.0152 19.7087 40.935C19.6552 40.8549 19.5791 40.7925 19.49 40.7556C19.401 40.7187 19.3031 40.7091 19.2086 40.7279C19.1141 40.7467 19.0272 40.7931 18.9591 40.8612C18.891 40.9293 18.8446 41.0162 18.8258 41.1107C18.807 41.2052 18.8166 41.3031 18.8535 41.3921C18.8904 41.4812 18.9528 41.5573 19.0329 41.6108C19.1131 41.6643 19.2072 41.6929 19.3036 41.6929C19.4328 41.6929 19.5567 41.6416 19.6481 41.5502C19.7395 41.4588 19.7908 41.3349 19.7908 41.2057Z" fill="#263238"/>
<path d="M29.663 37.8973C29.9321 37.8973 30.1502 37.6791 30.1502 37.4101C30.1502 37.141 29.9321 36.9229 29.663 36.9229C29.3939 36.9229 29.1758 37.141 29.1758 37.4101C29.1758 37.6791 29.3939 37.8973 29.663 37.8973Z" fill="#263238"/>
<path d="M39.5419 19.3326C39.811 19.3326 40.0291 19.1144 40.0291 18.8454C40.0291 18.5763 39.811 18.3582 39.5419 18.3582C39.2728 18.3582 39.0547 18.5763 39.0547 18.8454C39.0547 19.1144 39.2728 19.3326 39.5419 19.3326Z" fill="#263238"/>
<path d="M33.5259 27.1233C33.5268 27.0263 33.4989 26.9312 33.4457 26.8501C33.3924 26.769 33.3163 26.7055 33.2269 26.6678C33.1376 26.63 33.039 26.6196 32.9438 26.638C32.8485 26.6564 32.7608 26.7026 32.6919 26.7709C32.623 26.8392 32.5759 26.9264 32.5566 27.0215C32.5374 27.1165 32.5468 27.2152 32.5837 27.3049C32.6206 27.3946 32.6833 27.4714 32.7639 27.5254C32.8445 27.5794 32.9394 27.6082 33.0364 27.6082C33.1004 27.6085 33.1638 27.5962 33.223 27.572C33.2822 27.5478 33.3361 27.5122 33.3816 27.4671C33.427 27.4221 33.4632 27.3686 33.4879 27.3096C33.5127 27.2506 33.5256 27.1873 33.5259 27.1233Z" fill="#263238"/>
<path d="M20.1626 17.9568C20.1626 17.8599 20.1339 17.7651 20.08 17.6846C20.0261 17.604 19.9495 17.5413 19.8599 17.5043C19.7703 17.4673 19.6718 17.4578 19.5768 17.4769C19.4817 17.4959 19.3945 17.5428 19.3261 17.6115C19.2578 17.6802 19.2113 17.7676 19.1927 17.8627C19.1741 17.9578 19.1841 18.0563 19.2215 18.1457C19.2589 18.2352 19.322 18.3114 19.4028 18.365C19.4836 18.4185 19.5785 18.4468 19.6754 18.4463C19.7396 18.4463 19.8032 18.4336 19.8624 18.409C19.9217 18.3844 19.9755 18.3483 20.0208 18.3028C20.066 18.2573 20.1019 18.2033 20.1262 18.144C20.1506 18.0846 20.1629 18.021 20.1626 17.9568Z" fill="#263238"/>
<path d="M7.22266 95.2012V82.418C7.22235 82.2756 7.25015 82.1344 7.30446 82.0027C7.35878 81.871 7.43853 81.7513 7.53917 81.6504C7.63981 81.5496 7.75935 81.4696 7.89095 81.415C8.02255 81.3604 8.16362 81.3323 8.3061 81.3323H27.9774C28.2653 81.3323 28.5415 81.4467 28.7451 81.6503C28.9487 81.8539 29.0631 82.1301 29.0631 82.418V95.2569" stroke="#263238" stroke-miterlimit="10"/>
<path d="M15.4004 96.665H14.375" stroke="#263238" stroke-miterlimit="10"/>
<path d="M13.0801 96.665H6.33354C6.20275 96.6656 6.07313 96.6403 5.95212 96.5907C5.83112 96.5411 5.7211 96.468 5.62841 96.3758C5.53571 96.2835 5.46215 96.1738 5.41196 96.0531C5.36177 95.9323 5.33594 95.8028 5.33594 95.672V95.208H30.9418V95.672C30.9418 95.935 30.8375 96.1872 30.6518 96.3733C30.4661 96.5595 30.2141 96.6644 29.9511 96.665H16.3722" stroke="#263238" stroke-miterlimit="10"/>
<path d="M16.5898 82.1372H17.6686" stroke="#263238" stroke-miterlimit="10"/>
<path d="M18.4751 82.1372H28.3559V95.041H7.94922V82.1372H15.1296" stroke="#263238" stroke-miterlimit="10"/>
<path d="M11.4908 81.2579C11.4912 81.1609 11.4628 81.066 11.4092 80.9851C11.3556 80.9043 11.2792 80.8412 11.1896 80.8038C11.1001 80.7665 11.0015 80.7566 10.9063 80.7754C10.8111 80.7942 10.7237 80.8409 10.6551 80.9095C10.5865 80.9781 10.5398 81.0655 10.521 81.1607C10.5022 81.2559 10.5121 81.3545 10.5494 81.444C10.5868 81.5336 10.6499 81.61 10.7307 81.6636C10.8116 81.7172 10.9065 81.7456 11.0036 81.7452C11.1326 81.7445 11.2561 81.693 11.3474 81.6018C11.4386 81.5105 11.4901 81.387 11.4908 81.2579Z" fill="#263238"/>
<path d="M30.7642 95.2383C30.7642 95.1414 30.7354 95.0466 30.6815 94.9661C30.6276 94.8855 30.5511 94.8228 30.4615 94.7858C30.3719 94.7488 30.2733 94.7393 30.1783 94.7584C30.0833 94.7774 29.9961 94.8243 29.9277 94.893C29.8593 94.9617 29.8129 95.0491 29.7943 95.1442C29.7757 95.2393 29.7857 95.3378 29.8231 95.4272C29.8605 95.5166 29.9236 95.5929 30.0044 95.6464C30.0852 95.7 30.1801 95.7283 30.277 95.7278C30.3412 95.7278 30.4047 95.7151 30.464 95.6905C30.5232 95.6659 30.577 95.6298 30.6223 95.5843C30.6676 95.5388 30.7034 95.4848 30.7278 95.4255C30.7521 95.3661 30.7645 95.3025 30.7642 95.2383Z" fill="#263238"/>
<path d="M27.1704 82.193C27.1709 82.0961 27.1426 82.0012 27.0891 81.9204C27.0356 81.8396 26.9593 81.7765 26.8699 81.7391C26.7805 81.7017 26.682 81.6917 26.5868 81.7103C26.4917 81.7289 26.4043 81.7754 26.3356 81.8437C26.2669 81.9121 26.2201 81.9993 26.201 82.0943C26.1819 82.1894 26.1915 82.2879 26.2284 82.3775C26.2654 82.4671 26.3282 82.5437 26.4087 82.5975C26.4893 82.6514 26.584 82.6802 26.6809 82.6802C26.8103 82.6802 26.9345 82.629 27.0262 82.5377C27.118 82.4464 27.1698 82.3224 27.1704 82.193Z" fill="#263238"/>
<path d="M9.51029 96.6048C9.51029 96.5079 9.48158 96.4133 9.42779 96.3328C9.374 96.2523 9.29755 96.1896 9.2081 96.1525C9.11865 96.1154 9.02023 96.1058 8.92527 96.1246C8.83031 96.1435 8.74309 96.1901 8.67463 96.2586C8.60617 96.3271 8.55954 96.4143 8.54066 96.5093C8.52177 96.6042 8.53146 96.7026 8.56851 96.7921C8.60556 96.8815 8.66831 96.958 8.74881 97.0118C8.82931 97.0656 8.92395 97.0943 9.02077 97.0943C9.08514 97.0946 9.14894 97.0821 9.20847 97.0576C9.268 97.0331 9.32208 96.9971 9.3676 96.9516C9.41312 96.9061 9.44916 96.852 9.47365 96.7924C9.49815 96.7329 9.5106 96.6691 9.51029 96.6048Z" fill="#263238"/>
<path d="M24.004 73.2584C24.004 73.4258 23.9375 73.5863 23.8192 73.7046C23.7008 73.823 23.5403 73.8895 23.373 73.8895H12.7404C12.5731 73.8895 12.4125 73.823 12.2942 73.7046C12.1759 73.5863 12.1094 73.4258 12.1094 73.2584V53.434C12.1094 53.2667 12.1759 53.1061 12.2942 52.9878C12.4125 52.8695 12.5731 52.803 12.7404 52.803H23.373C23.5403 52.803 23.7008 52.8695 23.8192 52.9878C23.9375 53.1061 24.004 53.2667 24.004 53.434V71.3189" stroke="#263238" stroke-miterlimit="10"/>
<path d="M20.9318 54.717H23.2935V71.9755H12.8164V69.3725" stroke="#263238" stroke-miterlimit="10"/>
<path d="M18.7422 54.717H19.9579" stroke="#263238" stroke-miterlimit="10"/>
<path d="M12.8164 68.1568V54.717H17.7673" stroke="#263238" stroke-miterlimit="10"/>
<path d="M18.428 72.755C18.428 72.6779 18.4051 72.6026 18.3623 72.5385C18.3194 72.4744 18.2586 72.4244 18.1874 72.3949C18.1161 72.3654 18.0378 72.3577 17.9622 72.3727C17.8866 72.3878 17.8171 72.4249 17.7626 72.4794C17.7081 72.5339 17.671 72.6034 17.6559 72.679C17.6409 72.7546 17.6486 72.8329 17.6781 72.9042C17.7076 72.9754 17.7576 73.0362 17.8217 73.0791C17.8858 73.1219 17.9611 73.1448 18.0382 73.1448C18.1416 73.1448 18.2407 73.1037 18.3138 73.0306C18.3869 72.9575 18.428 72.8584 18.428 72.755Z" stroke="#263238" stroke-miterlimit="10"/>
<path d="M18.2212 52.8959C18.2217 52.7989 18.1933 52.7039 18.1397 52.6231C18.0861 52.5422 18.0097 52.4791 17.9201 52.4418C17.8306 52.4044 17.7319 52.3945 17.6368 52.4133C17.5416 52.4322 17.4542 52.4788 17.3856 52.5474C17.317 52.616 17.2703 52.7035 17.2515 52.7986C17.2327 52.8938 17.2426 52.9924 17.2799 53.082C17.3172 53.1715 17.3803 53.2479 17.4612 53.3016C17.542 53.3552 17.637 53.3835 17.734 53.3831C17.8632 53.3831 17.9872 53.3318 18.0785 53.2404C18.1699 53.149 18.2212 53.0251 18.2212 52.8959Z" fill="#263238"/>
<path d="M21.6626 71.8873C21.6631 71.7904 21.6348 71.6956 21.5813 71.6148C21.5277 71.5339 21.4515 71.4708 21.3621 71.4334C21.2726 71.396 21.1741 71.386 21.079 71.4046C20.9839 71.4233 20.8965 71.4697 20.8278 71.5381C20.7591 71.6064 20.7122 71.6936 20.6932 71.7887C20.6741 71.8837 20.6837 71.9822 20.7206 72.0718C20.7576 72.1614 20.8204 72.238 20.9009 72.2919C20.9815 72.3458 21.0762 72.3745 21.1731 72.3745C21.3025 72.3745 21.4267 72.3233 21.5184 72.232C21.6102 72.1407 21.662 72.0168 21.6626 71.8873Z" fill="#263238"/>
<path d="M24.0106 63.1316C24.2797 63.1316 24.4978 62.9135 24.4978 62.6444C24.4978 62.3753 24.2797 62.1572 24.0106 62.1572C23.7416 62.1572 23.5234 62.3753 23.5234 62.6444C23.5234 62.9135 23.7416 63.1316 24.0106 63.1316Z" fill="#263238"/>
<path d="M14.9322 73.7503C14.9322 73.6533 14.9034 73.5586 14.8495 73.4781C14.7956 73.3975 14.719 73.3348 14.6294 73.2978C14.5399 73.2608 14.4413 73.2512 14.3463 73.2703C14.2513 73.2894 14.164 73.3362 14.0957 73.4049C14.0273 73.4736 13.9809 73.5611 13.9623 73.6562C13.9436 73.7513 13.9536 73.8498 13.9911 73.9392C14.0285 74.0286 14.0916 74.1049 14.1724 74.1584C14.2532 74.2119 14.348 74.2402 14.445 74.2398C14.5091 74.2398 14.5727 74.2271 14.6319 74.2025C14.6912 74.1778 14.745 74.1417 14.7903 74.0963C14.8356 74.0508 14.8714 73.9968 14.8957 73.9374C14.9201 73.878 14.9325 73.8144 14.9322 73.7503Z" fill="#263238"/>
<path d="M14.69 54.6173C14.6904 54.5203 14.6621 54.4253 14.6084 54.3445C14.5548 54.2636 14.4784 54.2005 14.3889 54.1632C14.2993 54.1259 14.2007 54.116 14.1055 54.1348C14.0104 54.1536 13.9229 54.2003 13.8543 54.2689C13.7857 54.3375 13.739 54.4249 13.7202 54.5201C13.7014 54.6152 13.7113 54.7139 13.7486 54.8034C13.786 54.8929 13.8491 54.9694 13.9299 55.023C14.0108 55.0766 14.1058 55.105 14.2028 55.1045C14.332 55.1045 14.4559 55.0532 14.5473 54.9618C14.6386 54.8705 14.69 54.7465 14.69 54.6173Z" fill="#263238"/>
<path d="M73.5841 9.06665H59.8822C59.7836 9.06665 59.6859 9.08611 59.5949 9.12391C59.5038 9.16172 59.4211 9.21712 59.3515 9.28695C59.2819 9.35678 59.2267 9.43967 59.1892 9.53085C59.1517 9.62203 59.1325 9.71973 59.1328 9.81833V16.8294C59.1325 16.9279 59.1517 17.0254 59.1892 17.1165C59.2268 17.2076 59.282 17.2903 59.3516 17.3599C59.4213 17.4296 59.504 17.4848 59.595 17.5223C59.6861 17.5599 59.7837 17.579 59.8822 17.5787H67.3758L66.2158 21.0262L69.1459 17.5787H73.5748C73.7736 17.5787 73.9642 17.4998 74.1047 17.3592C74.2452 17.2187 74.3242 17.0281 74.3242 16.8294V9.81833C74.3242 9.62097 74.2466 9.43151 74.1081 9.29087C73.9697 9.15023 73.7814 9.0697 73.5841 9.06665Z" stroke="#263238" stroke-miterlimit="10"/>
<path d="M69.8711 11.4888H72.5646" stroke="#263238" stroke-miterlimit="10"/>
<path d="M68.043 11.4888H69.1496" stroke="#263238" stroke-miterlimit="10"/>
<path d="M63.5703 11.4888H66.983" stroke="#263238" stroke-miterlimit="10"/>
<path d="M61.3711 11.4888H62.7074" stroke="#263238" stroke-miterlimit="10"/>
<path d="M71.7461 13.2566H72.5651" stroke="#263238" stroke-miterlimit="10"/>
<path d="M64.582 13.2566H71.1685" stroke="#263238" stroke-miterlimit="10"/>
<path d="M61.3711 13.2566H63.9092" stroke="#263238" stroke-miterlimit="10"/>
<path d="M71.5508 15.0244H72.5623" stroke="#263238" stroke-miterlimit="10"/>
<path d="M69.4375 15.0244H70.4954" stroke="#263238" stroke-miterlimit="10"/>
<path d="M63.5234 15.0244H68.523" stroke="#263238" stroke-miterlimit="10"/>
<path d="M61.3711 15.0244H62.9487" stroke="#263238" stroke-miterlimit="10"/>
<path d="M70.9036 79.0471H44.625V90.7028H70.9036V79.0471Z" fill="#263238" stroke="#263238" stroke-miterlimit="10"/>
<path d="M59.7788 79.4392H55.8047V80.9588H59.7788V79.4392Z" fill="white" stroke="#263238" stroke-miterlimit="10"/>
<path d="M75.6482 48.5064C75.6482 48.2304 75.0218 47.8104 74.0498 47.256C73.0777 46.7015 63.9044 42.5301 63.9044 42.5301L58.4826 42.2494V42.1821L57.8562 42.2169L57.2321 42.1821V42.2494L51.8102 42.5301C51.8102 42.5301 42.637 46.7061 41.6649 47.256C40.6928 47.8058 40.0664 48.2304 40.0664 48.5064C40.0664 48.7825 44.138 74.9359 44.2122 75.669C44.2865 76.4021 44.2122 78.5156 44.2122 79.026C44.2122 79.5364 45.3073 79.8288 45.3073 79.8288H70.4074C70.4074 79.8288 71.5024 79.5364 71.5024 79.026C71.5024 78.5156 71.4305 76.3998 71.5024 75.669C71.5743 74.9382 75.6482 48.7848 75.6482 48.5064Z" fill="#EF233C" stroke="#263238" stroke-miterlimit="10"/>
<path d="M74.0498 47.256C73.0777 46.7015 63.9044 42.5301 63.9044 42.5301L58.4826 42.2494V42.1821L57.8562 42.2169L57.2321 42.1821V42.2494L51.8102 42.5301C51.8102 42.5301 42.637 46.7061 41.6649 47.256C40.6928 47.8058 40.0664 48.2304 40.0664 48.5064C40.0664 48.6016 40.5304 51.6129 41.1382 55.601L41.4282 55.833C41.4282 55.833 43.0662 50.265 47.9799 47.9728C52.8937 45.6807 54.8564 45.0241 59.6054 45.0241C64.0598 45.0241 72.1102 51.5016 74.5834 55.55C75.1912 51.5851 75.6482 48.59 75.6482 48.4995C75.6482 48.2304 75.0218 47.8128 74.0498 47.256Z" fill="#263238" stroke="#263238" stroke-miterlimit="10"/>
<path d="M55.0087 47.604L57.6511 50.1746L54.1758 74.0126L57.7022 79.4228L61.7645 73.9476L59.1104 50.105L61.6114 47.4648L58.4144 44.0591L55.0087 47.604Z" fill="#263238" stroke="#263238" stroke-miterlimit="10"/>
<path d="M63.1806 22.4159C62.422 22.2535 60.733 21.9101 59.3804 21.6387V21.2466L58.406 21.4415L57.434 21.2466V21.6387C56.0814 21.9101 54.3901 22.2535 53.6338 22.4159C52.2696 22.7082 51.4414 22.7082 51.4414 24.0723C51.4414 24.0723 51.8312 33.8627 52.026 34.7884C52.2209 35.7141 52.3671 36.9298 53.0004 37.4657C53.6338 38.0016 53.6825 38.1965 53.6825 38.1965V41.1197C53.6825 41.1197 56.0211 46.1355 56.4665 46.4789C57.011 46.9394 57.7011 47.1921 58.4142 47.1921C59.1273 47.1921 59.8173 46.9394 60.3618 46.4789C60.8003 46.1379 63.1458 41.1197 63.1458 41.1197V38.1965C63.1458 38.1965 63.1945 38.0016 63.8279 37.4657C64.4612 36.9298 64.6074 35.7141 64.8023 34.7884C64.9972 33.8627 65.3869 24.0723 65.3869 24.0723C65.373 22.7082 64.5448 22.7082 63.1806 22.4159Z" fill="white" stroke="#263238" stroke-miterlimit="10"/>
<path d="M54.2168 23.9749C54.2168 23.9749 59.0377 25.9701 60.4019 25.9701C61.7661 25.9701 60.2557 25.339 60.2557 25.339C60.2557 25.339 62.1558 25.9701 62.8866 25.9701H63.6174C63.6174 25.9701 63.7149 27.3342 63.8123 27.4804C63.9097 27.6266 63.861 27.8214 64.0072 27.9189C64.1282 28.0074 64.2422 28.1051 64.3482 28.2112C64.3482 28.2112 64.6893 33.5217 64.8841 34.0576C65.079 34.5935 65.4247 26.216 65.4247 26.216C65.6613 25.9558 65.8367 25.6459 65.9378 25.3091C66.039 24.9722 66.0634 24.617 66.0093 24.2695C65.8632 23.0028 63.1349 20.9078 60.2604 19.9334C59.2432 19.5688 58.1468 19.4841 57.0857 19.6881C56.0246 19.8922 55.0377 20.3775 54.2284 21.0934C53.254 21.9704 53.1078 22.3602 53.1078 22.3602C53.1078 22.3602 51.5975 22.2627 51.3539 22.8474C51.1103 23.432 52.1334 33.807 52.1334 33.807L52.377 28.2042C52.377 28.2042 53.1565 27.376 53.2053 26.9375C53.254 26.499 53.7412 24.5526 53.7412 24.5526C53.7412 24.5526 54.472 24.991 54.6692 24.8449C54.8664 24.6987 54.2168 23.9749 54.2168 23.9749Z" fill="#263238" stroke="#263238" stroke-miterlimit="10"/>
<path d="M51.8297 30.7933C51.8297 30.7933 51.5374 30.3548 51.1963 30.6471C50.8553 30.9394 50.563 32.8882 50.7579 33.3754C50.9527 33.8626 51.2451 34.5934 51.4887 34.6422C51.6697 34.6816 51.8486 34.7303 52.0246 34.7883L51.8297 30.7933Z" fill="#263238" stroke="#263238" stroke-miterlimit="10"/>
<path d="M65.0152 30.7933C65.0152 30.7933 65.3075 30.3548 65.6486 30.6471C65.9896 30.9394 66.2819 32.8882 66.087 33.3754C65.8922 33.8626 65.5998 34.5934 65.3562 34.6422C65.1752 34.6816 64.9963 34.7303 64.8203 34.7883L65.0152 30.7933Z" fill="#263238" stroke="#263238" stroke-miterlimit="10"/>
<path d="M53.1953 27.8703C53.1953 27.8703 53.6825 26.9423 54.5108 26.8472C55.339 26.752 57.2948 27.2369 57.1416 27.8703C56.9885 28.5036 53.1953 27.8703 53.1953 27.8703Z" fill="#263238" stroke="#263238" stroke-miterlimit="10"/>
<path d="M63.6246 27.8703C63.6246 27.8703 63.1374 26.9423 62.3092 26.8472C61.481 26.752 59.5252 27.2369 59.6806 27.8703C59.8361 28.5036 63.6246 27.8703 63.6246 27.8703Z" fill="#263238" stroke="#263238" stroke-miterlimit="10"/>
<path d="M57.2088 30.7932H53.1279C52.9923 30.7932 52.8622 30.7395 52.7662 30.6439C52.6701 30.5482 52.6158 30.4184 52.6152 30.2828L52.418 28.2366C52.418 28.101 52.4717 27.971 52.5673 27.8749C52.663 27.7788 52.7928 27.7245 52.9284 27.7239H57.4106C57.4778 27.7239 57.5444 27.7372 57.6065 27.763C57.6685 27.7887 57.7249 27.8265 57.7723 27.8742C57.8198 27.9218 57.8573 27.9784 57.8828 28.0406C57.9083 28.1028 57.9213 28.1694 57.921 28.2366L57.7238 30.2828C57.7238 30.3503 57.7105 30.417 57.6845 30.4792C57.6586 30.5415 57.6206 30.5979 57.5727 30.6454C57.5248 30.6928 57.468 30.7304 57.4055 30.7557C57.3431 30.7811 57.2762 30.7938 57.2088 30.7932Z" fill="white" stroke="#263238" stroke-miterlimit="10"/>
<path d="M63.5415 30.7932H59.456C59.3206 30.7932 59.1908 30.7395 59.0951 30.6437C58.9994 30.548 58.9456 30.4182 58.9456 30.2828L58.7461 28.2366C58.7461 28.1006 58.8001 27.9702 58.8963 27.874C58.9924 27.7779 59.1228 27.7239 59.2588 27.7239H63.7387C63.8747 27.7239 64.0051 27.7779 64.1013 27.874C64.1974 27.9702 64.2515 28.1006 64.2515 28.2366L64.0543 30.2828C64.0536 30.4184 63.9993 30.5482 63.9033 30.6439C63.8072 30.7395 63.6771 30.7932 63.5415 30.7932Z" fill="white" stroke="#263238" stroke-miterlimit="10"/>
<path d="M59.2576 27.7239H57.4062" stroke="#263238" stroke-miterlimit="10"/>
<path d="M57.918 28.2368H58.7462" stroke="#263238" stroke-miterlimit="10"/>
<path d="M57.8673 28.6496C57.8673 28.6496 57.1876 31.0856 57.1876 31.3779C57.1859 31.4595 57.2081 31.5399 57.2513 31.6091C57.2946 31.6783 57.3571 31.7334 57.4312 31.7677C57.4312 31.7677 57.6632 30.9394 57.9161 30.8397C58.1689 30.7399 58.9392 30.7909 58.9392 30.7909L59.4264 31.7653C59.4873 31.708 59.5362 31.6391 59.5701 31.5626C59.6039 31.4861 59.6221 31.4036 59.6236 31.3199C59.6723 30.9789 58.7953 28.5916 58.7953 28.5916C58.7953 28.5916 58.1109 28.406 57.8673 28.6496Z" fill="#263238" stroke="#263238" stroke-miterlimit="10"/>
<path d="M55.9883 39.2637C56.1108 39.3047 56.2355 39.3388 56.3618 39.3657" stroke="#263238" stroke-miterlimit="10"/>
<path d="M53.6797 38.1965C54.2826 38.5267 54.9021 38.8256 55.5357 39.0921" stroke="#263238" stroke-miterlimit="10"/>
<path d="M63.132 38.0481C63.132 38.0481 62.0114 39.0225 60.9883 39.1687" stroke="#263238" stroke-miterlimit="10"/>
<path d="M56.0703 34.8371C56.9205 34.6591 57.7829 34.5451 58.6502 34.4961C59.3508 34.5354 60.0411 34.6834 60.6964 34.9345C60.6964 34.9345 59.6733 33.5217 59.2835 33.3755C58.8938 33.2293 57.8219 33.3755 57.4832 33.3755C57.1445 33.3755 56.0703 34.8371 56.0703 34.8371Z" fill="#263238" stroke="#263238" stroke-linejoin="round"/>
<path d="M59.8168 35.8022C59.8168 35.8022 58.0142 35.7535 57.3831 35.8022C56.7521 35.8509 56.6523 36.6304 56.6523 36.6304C57.2571 36.4511 57.8793 36.3367 58.5083 36.2894C59.1149 36.3214 59.7177 36.4028 60.311 36.533C60.311 36.533 60.4015 36.1432 59.8168 35.8022Z" fill="#263238" stroke="#263238" stroke-linejoin="round"/>
<path d="M40.069 48.5066L32.8398 67.6187L39.3034 70.6069L42.8483 63.7977L40.069 48.5066Z" fill="#EF233C" stroke="#263238" stroke-miterlimit="10"/>
<path d="M41.706 65.9923C41.4578 65.5562 41.0889 64.946 40.546 64.1363C39.8065 63.0233 38.9434 61.9975 37.9732 61.0786C38.4905 61.2698 38.981 61.5272 39.4324 61.8442C40.4068 62.4682 40.9613 62.8162 40.7525 61.9834C40.5437 61.1505 38.53 58.4384 38.3908 57.9512C38.2516 57.464 39.0868 57.3967 39.2932 56.5592C39.4603 55.8934 40.0728 51.5805 40.3094 49.8822L40.0588 48.4902L32.832 67.6024L34.6347 68.4376H36.9315L41.0773 67.1662L41.706 65.9923Z" fill="#263238" stroke="#263238" stroke-miterlimit="10"/>
<path d="M40.6917 65.3961C40.6917 65.3961 37.7731 65.1919 36.6572 65.1919C35.5413 65.1919 33.8732 65.3311 33.2515 66.3728C32.6297 67.4145 32.4186 70.681 33.2515 72.4883C34.0843 74.2956 36.4484 74.7828 37.7685 74.7132C39.0886 74.6436 41.5919 72.6971 41.9445 71.725C42.2971 70.7529 41.8749 68.5281 41.5269 67.3449C41.3327 66.6623 41.052 66.0074 40.6917 65.3961Z" fill="#EF233C" stroke="#263238" stroke-miterlimit="10"/>
<path d="M40.6931 65.3962C40.6931 65.3962 38.2617 65.8811 38.2617 67.41C38.2617 68.9389 39.0273 70.4678 39.9298 70.7462C40.8323 71.0246 42.0851 70.1917 42.0851 70.1917C42.0851 70.1917 42.918 69.6349 42.57 67.9668C42.222 66.2987 41.3195 65.4658 40.6931 65.3962Z" fill="#EF233C" stroke="#263238" stroke-miterlimit="10"/>
<path d="M42.358 62.5448C42.358 62.5448 43.1236 61.3639 43.3324 61.0855C43.5412 60.8071 44.3045 60.0439 44.7244 59.3479C45.1443 58.6519 45.6269 57.9559 45.7661 58.9326C45.9053 59.9093 44.9332 60.9463 44.7244 61.2247L43.6827 62.6167C43.6827 62.6167 42.2884 63.38 42.358 62.5448Z" fill="white" stroke="#263238" stroke-miterlimit="10"/>
<path d="M40.417 66.6467C40.417 66.6467 40.9019 63.8627 41.3195 63.3105C41.7371 62.7584 44.7253 60.8096 45.3517 60.4616C45.9781 60.1136 49.9383 60.1832 49.9383 60.1832C49.9383 60.1832 50.98 60.4616 50.3536 60.8792C49.7272 61.2968 48.2006 61.1553 48.2006 61.1553L45.8366 62.3385L48.2006 61.8513L50.5624 62.1993C50.5624 62.1993 51.0496 62.6145 50.8408 62.9625C50.632 63.3105 49.1727 63.3105 49.1727 63.3105H48.0614L45.4886 64.4961L48.3398 64.0785C48.3398 64.0785 50.1448 63.7328 50.2144 64.2176C50.284 64.7025 49.7295 65.1225 49.3815 65.1225C48.957 65.1766 48.5384 65.2698 48.131 65.4009L46.4026 66.0203L49.0428 65.6027C49.0428 65.6027 49.182 66.0203 48.9732 66.2291C48.7644 66.4379 46.1892 67.41 46.1892 67.41C46.1892 67.41 43.7578 68.3844 43.4052 68.6628C43.0526 68.9412 42.4308 69.7045 41.2499 69.5653C40.069 69.4261 40.1386 67.0643 40.417 66.6467Z" fill="white" stroke="#263238" stroke-miterlimit="10"/>
<path d="M46.3931 66.0203L45.4883 66.3683" stroke="#263238" stroke-miterlimit="10"/>
<path d="M45.8354 62.3384L44.8633 62.6841" stroke="#263238" stroke-miterlimit="10"/>
<path d="M75.6387 48.5066L82.8655 67.6187L76.402 70.6069L72.8594 63.7977L75.6387 48.5066Z" fill="#EF233C" stroke="#263238" stroke-miterlimit="10"/>
<path d="M74.0078 65.9924C74.2561 65.5563 74.6249 64.9461 75.1678 64.1364C75.9012 63.0269 76.7573 62.0035 77.7198 61.0856C77.2024 61.2769 76.712 61.5342 76.2605 61.8512C75.2861 62.4753 74.7317 62.8233 74.9381 61.9904C75.1446 61.1576 77.163 58.4455 77.3022 57.9583C77.4414 57.4711 76.6062 57.4038 76.3997 56.5663C76.2327 55.9004 75.6202 51.5876 75.3836 49.8893L75.6341 48.4973L82.8609 67.6095L81.0583 68.4447H78.7615L74.6157 67.1733L74.0078 65.9924Z" fill="#263238" stroke="#263238" stroke-miterlimit="10"/>
<path d="M53.5482 39.8901L56.954 45.7969L54.105 49.9682L51.4648 42.4607L53.5482 39.8901Z" fill="#EF233C" stroke="#263238" stroke-miterlimit="10"/>
<path d="M63.2105 39.8901L59.8047 45.7969L62.6536 49.9682L65.2961 42.4607L63.2105 39.8901Z" fill="#EF233C" stroke="#263238" stroke-miterlimit="10"/>
<path d="M75.013 65.3961C75.013 65.3961 77.9339 65.1873 79.0452 65.1873C80.1565 65.1873 81.8292 65.3265 82.4509 66.3681C83.0727 67.4098 83.2838 70.6764 82.4509 72.4837C81.6181 74.2909 79.254 74.7781 77.9339 74.7085C76.6138 74.6389 74.1105 72.6925 73.7579 71.7204C73.4053 70.7483 73.8275 68.5234 74.1755 67.3402C74.3714 66.6594 74.6528 66.0061 75.013 65.3961Z" fill="#EF233C" stroke="#263238" stroke-miterlimit="10"/>
<path d="M75.0104 65.3962C75.0104 65.3962 77.444 65.8811 77.444 67.41C77.444 68.9389 76.6784 70.4678 75.776 70.7462C74.8735 71.0246 73.6207 70.1917 73.6207 70.1917C73.6207 70.1917 72.7878 69.6349 73.1358 67.9668C73.4838 66.2987 74.3863 65.4658 75.0104 65.3962Z" fill="#EF233C" stroke="#263238" stroke-miterlimit="10"/>
<path d="M73.3474 62.5448C73.3474 62.5448 72.5818 61.3639 72.373 61.0855C72.1642 60.8071 71.401 60.0439 70.981 59.3479C70.5611 58.6519 70.0786 57.9559 69.9394 58.9326C69.8002 59.9093 70.7722 60.9463 70.981 61.2247L72.0227 62.6167C72.0227 62.6167 73.4147 63.38 73.3474 62.5448Z" fill="white" stroke="#263238" stroke-miterlimit="10"/>
<path d="M75.2891 66.6467C75.2891 66.6467 74.8043 63.8627 74.3867 63.3105C73.9691 62.7584 70.9925 60.8096 70.3545 60.4616C69.7165 60.1136 65.7679 60.1832 65.7679 60.1832C65.7679 60.1832 64.7262 60.4616 65.3526 60.8792C65.979 61.2968 67.5125 61.1553 67.5125 61.1553L69.8766 62.3385L67.5125 61.8513L65.1507 62.1993C65.1507 62.1993 64.6635 62.6145 64.8723 62.9625C65.0811 63.3105 66.5404 63.3105 66.5404 63.3105H67.6517L70.2176 64.4961L67.3663 64.0785C67.3663 64.0785 65.5614 63.7328 65.4918 64.2176C65.4222 64.7025 65.9767 65.1225 66.3247 65.1225C66.7492 65.1766 67.1677 65.2698 67.5751 65.4009L69.3128 66.0249L66.6727 65.6073C66.6727 65.6073 66.5335 66.0249 66.7423 66.2337C66.9511 66.4425 69.5263 67.4146 69.5263 67.4146C69.5263 67.4146 71.9576 68.389 72.3103 68.6674C72.6629 68.9458 73.2847 69.7091 74.4655 69.5699C75.6464 69.4307 75.5675 67.0643 75.2891 66.6467Z" fill="white" stroke="#263238" stroke-miterlimit="10"/>
<path d="M69.3125 66.0203L70.2173 66.3683" stroke="#263238" stroke-miterlimit="10"/>
<path d="M69.8711 62.3384L70.8432 62.6841" stroke="#263238" stroke-miterlimit="10"/>
<path d="M46.8047 90.1947V91.4799H60.7131V92.4149H52.5304V93.1155H63.8683V91.9463H61.9984V91.2456H69.7124V89.4917" fill="#263238"/>
<path d="M46.8047 90.1947V91.4799H60.7131V92.4149H52.5304V93.1155H63.8683V91.9463H61.9984V91.2456H69.7124V89.4917" stroke="#263238" stroke-miterlimit="10"/>
<path d="M51.1303 92.6492H48.4414V93.2338H51.1303V92.6492Z" fill="#263238" stroke="#263238" stroke-miterlimit="10"/>
<path d="M50.0757 95.6118H48.2383V96.9574H50.0757V95.6118Z" stroke="#263238" stroke-miterlimit="10"/>
<path d="M55.3382 97.0803H54.1133V97.8158H55.3382V97.0803Z" stroke="#263238" stroke-miterlimit="10"/>
<path d="M60.7237 96.7139H58.7656V97.3264H60.7237V96.7139Z" stroke="#263238" stroke-miterlimit="10"/>
<path d="M57.5414 100.143H56.3164V100.878H57.5414V100.143Z" stroke="#263238" stroke-miterlimit="10"/>
<path d="M62.3131 98.1824H61.457V98.6719H62.3131V98.1824Z" stroke="#263238" stroke-miterlimit="10"/>
<path d="M67.0899 95.3682H63.0508V96.5931H67.0899V95.3682Z" stroke="#263238" stroke-miterlimit="10"/>
<path d="M53.376 99.897H51.418V100.876H53.376V99.897Z" stroke="#263238" stroke-miterlimit="10"/>
<path d="M58.1509 103.323H57.1719V103.813H58.1509V103.323Z" stroke="#263238" stroke-miterlimit="10"/>
<path d="M56.9742 94.1687H53V94.8693H56.9742V94.1687Z" fill="#263238" stroke="#263238" stroke-miterlimit="10"/>
<path d="M62.935 93.7002H60.4805V94.0505H62.935V93.7002Z" fill="#263238" stroke="#263238" stroke-miterlimit="10"/>
<path d="M67.1421 91.8303H64.6875V92.299H67.1421V91.8303Z" fill="#263238" stroke="#263238" stroke-miterlimit="10"/>
<path d="M46.4544 91.8303H45.2852V92.9996H46.4544V91.8303Z" fill="#263238" stroke="#263238" stroke-miterlimit="10"/>
<path d="M69.5951 92.6492H68.4258V93.8185H69.5951V92.6492Z" fill="#263238" stroke="#263238" stroke-miterlimit="10"/>
<path d="M43.7969 102.753L46.1679 109.968" stroke="#263238" stroke-miterlimit="10"/>
<path d="M43.1445 100.767L43.4995 101.848" stroke="#263238" stroke-miterlimit="10"/>
<path d="M35.7305 78.1841L42.7809 99.651" stroke="#263238" stroke-miterlimit="10"/>
<path d="M50.1133 102.08L51.2733 108.112" stroke="#263238" stroke-miterlimit="10"/>
<path d="M78.1794 84.5525L69.832 109.968" stroke="#263238" stroke-miterlimit="10"/>
<path d="M78.9683 82.1558L78.4648 83.687" stroke="#263238" stroke-miterlimit="10"/>
<path d="M80.2722 78.1841L79.5391 80.4159" stroke="#263238" stroke-miterlimit="10"/>
<path d="M65.8905 102.08L64.7305 108.112" stroke="#263238" stroke-miterlimit="10"/>
</svg>
