<svg width="116" height="78" viewBox="0 0 116 78" fill="none" xmlns="http://www.w3.org/2000/svg">
<path d="M97.7697 21.6533C97.7697 21.6533 81.873 5.36998 61.2142 4.11254C40.5554 2.8551 28.5084 16.2013 22.7997 24.1604C17.0909 32.1196 2.84766 45.3807 4.52734 57.5236C6.20702 69.6665 22.6744 78.88 46.2641 74.8323C69.8539 70.7847 76.6933 69.2489 87.4411 72.3205C98.1888 75.3922 112.147 70.7847 112.426 53.3368C112.704 35.8888 97.7697 21.6533 97.7697 21.6533Z" fill="#EF233C"/>
<path opacity="0.7" d="M97.7697 21.6533C97.7697 21.6533 81.873 5.36998 61.2142 4.11254C40.5554 2.8551 28.5084 16.2013 22.7997 24.1604C17.0909 32.1196 2.84766 45.3807 4.52734 57.5236C6.20702 69.6665 22.6744 78.88 46.2641 74.8323C69.8539 70.7847 76.6933 69.2489 87.4411 72.3205C98.1888 75.3922 112.147 70.7847 112.426 53.3368C112.704 35.8888 97.7697 21.6533 97.7697 21.6533Z" fill="white"/>
<path d="M7.56641 70.6285H108.397" stroke="#263238" stroke-miterlimit="10"/>
<path d="M11.957 44.7806L13.9971 64.315" stroke="#263238" stroke-width="2" stroke-miterlimit="10"/>
<path d="M13.6695 60.5768L12.7461 59.6008" stroke="#263238" stroke-width="2" stroke-miterlimit="10"/>
<path d="M13.0239 59.8932C13.0221 59.7438 12.9883 59.5965 12.9248 59.4613C12.8613 59.326 12.7696 59.2059 12.6558 59.109C12.4192 58.8971 11.171 58.3728 11.0519 58.8121C10.9236 59.29 12.2011 60.2304 13.0239 59.8932Z" fill="#EF233C" stroke="#263238" stroke-miterlimit="10"/>
<path d="M13.0238 59.8932L11.8359 59.1523" stroke="#263238" stroke-width="0.5" stroke-miterlimit="10"/>
<path d="M13.8999 62.7993L12.9766 61.8234" stroke="#263238" stroke-width="2" stroke-miterlimit="10"/>
<path d="M13.2583 62.1158C13.2566 61.9663 13.2228 61.819 13.1593 61.6838C13.0958 61.5485 13.004 61.4284 12.8902 61.3316C12.6536 61.1197 11.4054 60.5938 11.2863 61.0331C11.1579 61.5126 12.4355 62.4514 13.2583 62.1158Z" fill="#EF233C" stroke="#263238" stroke-miterlimit="10"/>
<path d="M13.2582 62.1157L12.0703 61.3749" stroke="#263238" stroke-width="0.5" stroke-miterlimit="10"/>
<path d="M13.103 55.1558L12.1797 54.1798" stroke="#263238" stroke-width="2" stroke-miterlimit="10"/>
<path d="M12.4571 54.4721C12.4553 54.3229 12.4216 54.1757 12.3584 54.0405C12.2952 53.9053 12.2039 53.7851 12.0906 53.688C11.8524 53.4761 10.6042 52.9502 10.4851 53.391C10.3599 53.8689 11.6343 54.8077 12.4571 54.4721Z" fill="#EF233C" stroke="#263238" stroke-miterlimit="10"/>
<path d="M12.4574 54.4721L11.2695 53.7312" stroke="#263238" stroke-width="0.5" stroke-miterlimit="10"/>
<path d="M13.3335 57.3767L12.4102 56.4008" stroke="#263238" stroke-width="2" stroke-miterlimit="10"/>
<path d="M12.6919 56.6931C12.6901 56.5437 12.6562 56.3964 12.5928 56.2612C12.5293 56.1259 12.4376 56.0058 12.3238 55.909C12.0872 55.6971 10.839 55.1727 10.7199 55.612C10.5915 56.0899 11.8691 57.0303 12.6919 56.6931Z" fill="#EF233C" stroke="#263238" stroke-miterlimit="10"/>
<path d="M12.6917 56.6931L11.5039 55.9523" stroke="#263238" stroke-width="0.5" stroke-miterlimit="10"/>
<path d="M12.7257 51.5458L11.8008 50.5698" stroke="#263238" stroke-width="2" stroke-miterlimit="10"/>
<path d="M12.0827 50.8622C12.0809 50.7128 12.0471 50.5655 11.9836 50.4302C11.9201 50.295 11.8284 50.1749 11.7146 50.078C11.478 49.8677 10.2283 49.3418 10.1107 49.7811C9.98082 50.2667 11.2599 51.1947 12.0827 50.8622Z" fill="#EF233C" stroke="#263238" stroke-miterlimit="10"/>
<path d="M12.0839 50.8622L10.8945 50.1213" stroke="#263238" stroke-width="0.5" stroke-miterlimit="10"/>
<path d="M12.3452 47.922L11.4219 46.946" stroke="#263238" stroke-width="2" stroke-miterlimit="10"/>
<path d="M11.7036 47.2384C11.7018 47.089 11.668 46.9417 11.6045 46.8064C11.541 46.6712 11.4493 46.5511 11.3355 46.4542C11.0989 46.2423 9.85073 45.7164 9.73163 46.1572C9.60326 46.6352 10.8808 47.574 11.7036 47.2384Z" fill="#EF233C" stroke="#263238" stroke-miterlimit="10"/>
<path d="M11.7035 47.2384L10.5156 46.4976" stroke="#263238" stroke-width="0.5" stroke-miterlimit="10"/>
<path d="M13.5117 59.2622L14.2139 58.1161" stroke="#263238" stroke-width="2" stroke-miterlimit="10"/>
<path d="M14.0008 58.4641C13.9714 58.3176 13.9739 58.1665 14.0081 58.0211C14.0422 57.8757 14.1073 57.7393 14.1987 57.6212C14.3859 57.3644 15.4995 56.5926 15.7067 57.0025C15.9279 57.4371 14.8746 58.6188 14.0008 58.4641Z" fill="#EF233C" stroke="#263238" stroke-miterlimit="10"/>
<path d="M14.0039 58.4609L15.0742 57.437" stroke="#263238" stroke-width="0.5" stroke-miterlimit="10"/>
<path d="M12.9023 53.4157L13.6061 52.2697" stroke="#263238" stroke-width="2" stroke-miterlimit="10"/>
<path d="M13.3909 52.6146C13.362 52.4681 13.3647 52.3171 13.3989 52.1717C13.433 52.0264 13.4978 51.89 13.5889 51.7717C13.7776 51.5149 14.8912 50.7431 15.0969 51.153C15.3227 51.5907 14.2664 52.7724 13.3909 52.6146Z" fill="#EF233C" stroke="#263238" stroke-miterlimit="10"/>
<path d="M13.3906 52.6146L14.4609 51.5907" stroke="#263238" stroke-width="0.5" stroke-miterlimit="10"/>
<path d="M12.6328 50.8468L13.335 49.7007" stroke="#263238" stroke-width="2" stroke-miterlimit="10"/>
<path d="M13.1218 50.044C13.0925 49.8975 13.095 49.7465 13.1292 49.601C13.1633 49.4556 13.2283 49.3192 13.3198 49.2011C13.5085 48.9459 14.6206 48.1741 14.8278 48.5824C15.0521 49.0201 13.9957 50.2033 13.1218 50.044Z" fill="#EF233C" stroke="#263238" stroke-miterlimit="10"/>
<path d="M13.125 50.044L14.1953 49.0216" stroke="#263238" stroke-width="0.5" stroke-miterlimit="10"/>
<path d="M12.2422 47.0807L12.9444 45.9346" stroke="#263238" stroke-width="2" stroke-miterlimit="10"/>
<path d="M12.7312 46.2779C12.7019 46.1314 12.7044 45.9804 12.7386 45.8349C12.7727 45.6895 12.8377 45.5531 12.9292 45.435C13.1163 45.1782 14.2299 44.4065 14.4372 44.8163C14.6615 45.254 13.6097 46.4372 12.7312 46.2779Z" fill="#EF233C" stroke="#263238" stroke-miterlimit="10"/>
<path d="M12.7305 46.2778L13.8008 45.2555" stroke="#263238" stroke-width="0.5" stroke-miterlimit="10"/>
<path d="M11.9417 44.6709C11.9128 44.5244 11.9155 44.3734 11.9497 44.228C11.9838 44.0826 12.0486 43.9462 12.1397 43.8279C12.3284 43.5727 13.442 42.8009 13.6492 43.2093C13.8735 43.647 12.8171 44.8302 11.9417 44.6709Z" fill="#EF233C" stroke="#263238" stroke-miterlimit="10"/>
<path d="M11.9414 44.6709L13.0117 43.6486" stroke="#263238" stroke-width="0.5" stroke-miterlimit="10"/>
<path d="M12.0034 44.7157C11.8545 44.7294 11.7044 44.7109 11.5632 44.6615C11.422 44.6122 11.2931 44.5331 11.1852 44.4295C10.9501 44.2161 10.299 43.0283 10.7212 42.8643C11.1868 42.688 12.2524 43.8619 12.0034 44.7157Z" fill="#EF233C" stroke="#263238" stroke-miterlimit="10"/>
<path d="M12.004 44.7157L11.0977 43.5433" stroke="#263238" stroke-width="0.5" stroke-miterlimit="10"/>
<path d="M17.3363 47.4703L15.3086 67.0078" stroke="#263238" stroke-width="2" stroke-miterlimit="10"/>
<path d="M15.7545 63.2819L15.0508 62.1359" stroke="#263238" stroke-width="2" stroke-miterlimit="10"/>
<path d="M15.2653 62.4854C15.2943 62.3389 15.2916 62.1879 15.2574 62.0426C15.2233 61.8972 15.1585 61.7608 15.0674 61.6425C14.8787 61.3873 13.7651 60.6155 13.5578 61.0238C13.3336 61.4569 14.3915 62.6401 15.2653 62.4854Z" fill="#EF233C" stroke="#263238" stroke-miterlimit="10"/>
<path d="M15.2678 62.4792L14.2578 61.5094" stroke="#263238" stroke-width="0.5" stroke-miterlimit="10"/>
<path d="M16.317 57.8593L15.6133 56.7133" stroke="#263238" stroke-width="2" stroke-miterlimit="10"/>
<path d="M15.8318 57.0581C15.8607 56.9116 15.858 56.7606 15.8239 56.6152C15.7897 56.4699 15.7249 56.3335 15.6338 56.2152C15.4451 55.9584 14.3315 55.1882 14.1243 55.5965C13.9 56.0342 14.9564 57.2174 15.8318 57.0581Z" fill="#EF233C" stroke="#263238" stroke-miterlimit="10"/>
<path d="M15.8318 57.0581L14.8203 56.0884" stroke="#263238" stroke-width="0.5" stroke-miterlimit="10"/>
<path d="M16.0865 60.0819L15.3828 58.9358" stroke="#263238" stroke-width="2" stroke-miterlimit="10"/>
<path d="M15.6013 59.2791C15.6302 59.1326 15.6275 58.9816 15.5934 58.8363C15.5593 58.6909 15.4945 58.5545 15.4033 58.4362C15.2147 58.181 14.1011 57.4092 13.8938 57.8175C13.6695 58.2568 14.7259 59.4384 15.6013 59.2791Z" fill="#EF233C" stroke="#263238" stroke-miterlimit="10"/>
<path d="M15.6014 59.2792L14.5898 58.3094" stroke="#263238" stroke-width="0.5" stroke-miterlimit="10"/>
<path d="M16.692 54.2494L15.9883 53.1049" stroke="#263238" stroke-width="2" stroke-miterlimit="10"/>
<path d="M16.2028 53.4482C16.2318 53.3017 16.2291 53.1507 16.1949 53.0054C16.1608 52.86 16.096 52.7236 16.0049 52.6053C15.8162 52.3485 14.7026 51.5783 14.4953 51.9866C14.2711 52.4321 15.329 53.6075 16.2028 53.4482Z" fill="#EF233C" stroke="#263238" stroke-miterlimit="10"/>
<path d="M16.2053 53.4483L15.1953 52.4785" stroke="#263238" stroke-width="0.5" stroke-miterlimit="10"/>
<path d="M17.0694 50.6256L16.3672 49.4795" stroke="#263238" stroke-width="2" stroke-miterlimit="10"/>
<path d="M16.5818 49.8228C16.6111 49.6763 16.6086 49.5253 16.5744 49.3798C16.5403 49.2344 16.4753 49.098 16.3838 48.9799C16.1951 48.7247 15.0815 47.9529 14.8742 48.3612C14.65 48.8005 15.7079 49.9821 16.5818 49.8228Z" fill="#EF233C" stroke="#263238" stroke-miterlimit="10"/>
<path d="M16.5803 49.8228L15.5703 48.853" stroke="#263238" stroke-width="0.5" stroke-miterlimit="10"/>
<path d="M15.875 61.9626L16.7984 60.9867" stroke="#263238" stroke-width="2" stroke-miterlimit="10"/>
<path d="M16.5195 61.279C16.5209 61.1296 16.5543 60.9823 16.6176 60.847C16.6808 60.7118 16.7724 60.5916 16.8861 60.4948C17.1243 60.2829 18.3724 59.757 18.49 60.1963C18.6199 60.6742 17.3424 61.6146 16.5195 61.279Z" fill="#EF233C" stroke="#263238" stroke-miterlimit="10"/>
<path d="M16.5195 61.279L17.777 60.4979" stroke="#263238" stroke-width="0.5" stroke-miterlimit="10"/>
<path d="M16.4805 56.1162L17.4038 55.1387" stroke="#263238" stroke-width="2" stroke-miterlimit="10"/>
<path d="M17.125 55.4311C17.1269 55.2817 17.1607 55.1344 17.2242 54.9992C17.2877 54.8639 17.3794 54.7438 17.4931 54.6469C17.7297 54.435 18.9779 53.9092 19.097 54.35C19.2254 54.8279 17.9478 55.7667 17.125 55.4311Z" fill="#EF233C" stroke="#263238" stroke-miterlimit="10"/>
<path d="M17.125 55.431L18.3824 54.6515" stroke="#263238" stroke-width="0.5" stroke-miterlimit="10"/>
<path d="M16.75 53.5456L17.6734 52.5697" stroke="#263238" stroke-width="2" stroke-miterlimit="10"/>
<path d="M17.3906 52.862C17.3925 52.7126 17.4263 52.5653 17.4898 52.43C17.5533 52.2948 17.645 52.1747 17.7587 52.0778C17.9954 51.8659 19.2435 51.3401 19.3626 51.7793C19.4864 52.2572 18.215 53.2053 17.3906 52.862Z" fill="#EF233C" stroke="#263238" stroke-miterlimit="10"/>
<path d="M17.3906 52.862L18.6496 52.0809" stroke="#263238" stroke-width="0.5" stroke-miterlimit="10"/>
<path d="M17.1367 49.7795L18.0616 48.802" stroke="#263238" stroke-width="2" stroke-miterlimit="10"/>
<path d="M17.7852 49.0959C17.7869 48.9465 17.8207 48.7992 17.8842 48.6639C17.9477 48.5287 18.0394 48.4086 18.1533 48.3118C18.3899 48.0983 19.6381 47.5725 19.7572 48.0133C19.8824 48.4912 18.6049 49.4316 17.7852 49.0959Z" fill="#EF233C" stroke="#263238" stroke-miterlimit="10"/>
<path d="M17.7812 49.0959L19.0402 48.3148" stroke="#263238" stroke-width="0.5" stroke-miterlimit="10"/>
<path d="M17.3398 47.3605C17.3417 47.2113 17.3754 47.0641 17.4386 46.9289C17.5018 46.7937 17.5931 46.6735 17.7064 46.5764C17.9446 46.3645 19.1928 45.8386 19.3103 46.2778C19.4402 46.7558 18.1627 47.6961 17.3398 47.3605Z" fill="#EF233C" stroke="#263238" stroke-miterlimit="10"/>
<path d="M17.3398 47.3605L18.5973 46.5795" stroke="#263238" stroke-width="0.5" stroke-miterlimit="10"/>
<path d="M17.3937 47.4162C17.2454 47.3989 17.1026 47.35 16.9748 47.2729C16.847 47.1958 16.7372 47.0923 16.6528 46.9692C16.4672 46.7109 16.0744 45.4148 16.5244 45.3421C17.0132 45.2648 17.8144 46.6336 17.3937 47.4162Z" fill="#EF233C" stroke="#263238" stroke-miterlimit="10"/>
<path d="M17.3911 47.4163L16.7461 46.0846" stroke="#263238" stroke-width="0.5" stroke-miterlimit="10"/>
<path d="M15.0117 39.5143V64.2207" stroke="#263238" stroke-width="2" stroke-miterlimit="10"/>
<path d="M15.033 60.5057L14.2148 59.4385" stroke="#263238" stroke-width="2" stroke-miterlimit="10"/>
<path d="M14.4616 59.7586C14.4753 59.6099 14.457 59.4599 14.4079 59.3187C14.3588 59.1776 14.2801 59.0486 14.177 58.9405C13.9636 58.7054 12.7758 58.0542 12.6118 58.4765C12.4339 58.9405 13.6079 60.0108 14.4616 59.7586Z" fill="#EF233C" stroke="#263238" stroke-miterlimit="10"/>
<path d="M14.4613 59.7586L13.3555 58.8987" stroke="#263238" stroke-width="0.5" stroke-miterlimit="10"/>
<path d="M15.033 55.8625L14.2148 54.7969" stroke="#263238" stroke-width="2" stroke-miterlimit="10"/>
<path d="M14.4616 55.1155C14.4753 54.9669 14.457 54.8172 14.4079 54.6763C14.3588 54.5354 14.2801 54.4067 14.177 54.2988C13.9636 54.0622 12.7758 53.411 12.6118 53.8348C12.4339 54.2988 13.6079 55.3707 14.4616 55.1155Z" fill="#EF233C" stroke="#263238" stroke-miterlimit="10"/>
<path d="M14.4613 55.1156L13.3555 54.2556" stroke="#263238" stroke-width="0.5" stroke-miterlimit="10"/>
<path d="M15.033 50.4122L14.2148 49.345" stroke="#263238" stroke-width="2" stroke-miterlimit="10"/>
<path d="M14.4616 49.665C14.4753 49.5162 14.457 49.3662 14.4079 49.2251C14.3588 49.084 14.2801 48.955 14.177 48.8468C13.9636 48.6117 12.7758 47.9606 12.6118 48.3828C12.4339 48.8468 13.6079 49.914 14.4616 49.665Z" fill="#EF233C" stroke="#263238" stroke-miterlimit="10"/>
<path d="M14.4613 49.6651L13.3555 48.8052" stroke="#263238" stroke-width="0.5" stroke-miterlimit="10"/>
<path d="M15.033 46.7836L14.2148 45.7164" stroke="#263238" stroke-width="2" stroke-miterlimit="10"/>
<path d="M14.4616 46.0366C14.4753 45.8878 14.457 45.7378 14.4079 45.5967C14.3588 45.4556 14.2801 45.3266 14.177 45.2184C13.9636 44.9833 12.7758 44.3307 12.6118 44.7544C12.4339 45.2184 13.6079 46.2856 14.4616 46.0366Z" fill="#EF233C" stroke="#263238" stroke-miterlimit="10"/>
<path d="M14.4613 46.0366L13.3555 45.1766" stroke="#263238" stroke-width="0.5" stroke-miterlimit="10"/>
<path d="M15.033 43.1382L14.2148 42.0725" stroke="#263238" stroke-width="2" stroke-miterlimit="10"/>
<path d="M14.4616 42.3927C14.4753 42.2439 14.457 42.0939 14.4079 41.9528C14.3588 41.8117 14.2801 41.6827 14.177 41.5745C13.9636 41.3394 12.7758 40.6867 12.6118 41.1105C12.4339 41.5745 13.6079 42.6417 14.4616 42.3927Z" fill="#EF233C" stroke="#263238" stroke-miterlimit="10"/>
<path d="M14.4613 42.3927L13.3555 41.5327" stroke="#263238" stroke-width="0.5" stroke-miterlimit="10"/>
<path d="M15.0117 61.924L15.8299 60.8568" stroke="#263238" stroke-width="2" stroke-miterlimit="10"/>
<path d="M15.5825 61.1769C15.5688 61.0281 15.5872 60.8781 15.6362 60.737C15.6853 60.5959 15.764 60.4669 15.8671 60.3587C16.0806 60.1236 17.2684 59.4709 17.4323 59.8947C17.6102 60.3587 16.4363 61.4259 15.5825 61.1769Z" fill="#EF233C" stroke="#263238" stroke-miterlimit="10"/>
<path d="M15.582 61.1769L16.7529 60.2705" stroke="#263238" stroke-width="0.5" stroke-miterlimit="10"/>
<path d="M15.0117 54.5402L15.8299 53.473" stroke="#263238" stroke-width="2" stroke-miterlimit="10"/>
<path d="M15.5825 53.7931C15.5688 53.6443 15.5872 53.4943 15.6362 53.3532C15.6853 53.2121 15.764 53.0831 15.8671 52.9749C16.0806 52.7398 17.2684 52.0871 17.4323 52.5109C17.6102 52.9749 16.4363 54.0421 15.5825 53.7931Z" fill="#EF233C" stroke="#263238" stroke-miterlimit="10"/>
<path d="M15.582 53.7931L16.7529 52.8867" stroke="#263238" stroke-width="0.5" stroke-miterlimit="10"/>
<path d="M15.0117 50.8947L15.8299 49.8275" stroke="#263238" stroke-width="2" stroke-miterlimit="10"/>
<path d="M15.5825 50.1477C15.5688 49.9989 15.5872 49.8489 15.6362 49.7078C15.6853 49.5667 15.764 49.4377 15.8671 49.3295C16.0806 49.0944 17.2684 48.4433 17.4323 48.8655C17.6102 49.3295 16.4363 50.3967 15.5825 50.1477Z" fill="#EF233C" stroke="#263238" stroke-miterlimit="10"/>
<path d="M15.582 50.1477L16.7529 49.2413" stroke="#263238" stroke-width="0.5" stroke-miterlimit="10"/>
<path d="M15.0117 46.0783L15.8299 45.0111" stroke="#263238" stroke-width="2" stroke-miterlimit="10"/>
<path d="M15.5825 45.3313C15.5688 45.1825 15.5872 45.0325 15.6362 44.8914C15.6853 44.7503 15.764 44.6213 15.8671 44.5131C16.0806 44.278 17.2684 43.6253 17.4323 44.0491C17.6102 44.5131 16.4363 45.5803 15.5825 45.3313Z" fill="#EF233C" stroke="#263238" stroke-miterlimit="10"/>
<path d="M15.582 45.3313L16.7529 44.4249" stroke="#263238" stroke-width="0.5" stroke-miterlimit="10"/>
<path d="M15.0117 42.2906L15.8299 41.2234" stroke="#263238" stroke-width="2" stroke-miterlimit="10"/>
<path d="M15.5825 41.5436C15.5688 41.3948 15.5872 41.2448 15.6362 41.1037C15.6853 40.9625 15.764 40.8335 15.8671 40.7254C16.0806 40.4903 17.2684 39.8391 17.4323 40.2614C17.6102 40.7254 16.4363 41.7926 15.5825 41.5436Z" fill="#EF233C" stroke="#263238" stroke-miterlimit="10"/>
<path d="M15.582 41.5436L16.7529 40.6372" stroke="#263238" stroke-width="0.5" stroke-miterlimit="10"/>
<path d="M14.9654 39.8639C14.9516 39.7152 14.9697 39.5653 15.0186 39.4242C15.0674 39.2831 15.1458 39.154 15.2485 39.0457C15.4634 38.8106 16.6497 38.1594 16.8137 38.5817C16.9916 39.0457 15.8176 40.1129 14.9654 39.8639Z" fill="#EF233C" stroke="#263238" stroke-miterlimit="10"/>
<path d="M14.9648 39.8639L16.1341 38.9575" stroke="#263238" stroke-width="0.5" stroke-miterlimit="10"/>
<path d="M15.0228 39.9149C14.8735 39.9129 14.7263 39.8789 14.5913 39.8151C14.4563 39.7513 14.3365 39.6593 14.2402 39.5452C14.0283 39.3086 13.504 38.0589 13.9448 37.9413C14.4227 37.813 15.36 39.0921 15.0228 39.9149Z" fill="#EF233C" stroke="#263238" stroke-miterlimit="10"/>
<path d="M15.0202 39.9149L14.2422 38.6559" stroke="#263238" stroke-width="0.5" stroke-miterlimit="10"/>
<path d="M16.0292 70.6286H13.4138L13.0859 64.0197H16.3571L16.0292 70.6286Z" fill="#263238" stroke="#263238" stroke-miterlimit="10"/>
<path d="M99.6211 44.7806L101.66 64.315" stroke="#263238" stroke-width="2" stroke-miterlimit="10"/>
<path d="M101.331 60.5768L100.406 59.6008" stroke="#263238" stroke-width="2" stroke-miterlimit="10"/>
<path d="M100.688 59.8932C100.686 59.7438 100.652 59.5965 100.589 59.4613C100.525 59.326 100.434 59.2059 100.32 59.109C100.083 58.8971 98.8335 58.3728 98.716 58.8121C98.5876 59.29 99.8667 60.2304 100.688 59.8932Z" fill="#EF233C" stroke="#263238" stroke-miterlimit="10"/>
<path d="M100.689 59.8932L99.5 59.1523" stroke="#263238" stroke-width="0.5" stroke-miterlimit="10"/>
<path d="M101.562 62.7993L100.637 61.8234" stroke="#263238" stroke-width="2" stroke-miterlimit="10"/>
<path d="M100.919 62.1158C100.917 61.9663 100.883 61.819 100.82 61.6838C100.756 61.5485 100.664 61.4284 100.551 61.3316C100.312 61.1197 99.0642 60.5938 98.9467 61.0331C98.8168 61.5126 100.096 62.4514 100.919 62.1158Z" fill="#EF233C" stroke="#263238" stroke-miterlimit="10"/>
<path d="M100.92 62.1157L99.7305 61.3749" stroke="#263238" stroke-width="0.5" stroke-miterlimit="10"/>
<path d="M100.765 55.1558L99.8398 54.1798" stroke="#263238" stroke-width="2" stroke-miterlimit="10"/>
<path d="M100.122 54.4721C100.12 54.3227 100.086 54.1754 100.022 54.0402C99.959 53.9049 99.8673 53.7848 99.7535 53.688C99.5169 53.4761 98.2672 52.9502 98.1496 53.391C98.0213 53.8689 99.2942 54.8077 100.122 54.4721Z" fill="#EF233C" stroke="#263238" stroke-miterlimit="10"/>
<path d="M100.123 54.4721L98.9336 53.7312" stroke="#263238" stroke-width="0.5" stroke-miterlimit="10"/>
<path d="M100.999 57.3767L100.074 56.4008" stroke="#263238" stroke-width="2" stroke-miterlimit="10"/>
<path d="M100.352 56.6931C100.35 56.5437 100.317 56.3964 100.253 56.2612C100.19 56.1259 100.098 56.0058 99.9842 55.909C99.7475 55.6971 98.4978 55.1727 98.3803 55.612C98.2504 56.0899 99.5294 57.0303 100.352 56.6931Z" fill="#EF233C" stroke="#263238" stroke-miterlimit="10"/>
<path d="M100.353 56.6931L99.1641 55.9523" stroke="#263238" stroke-width="0.5" stroke-miterlimit="10"/>
<path d="M100.388 51.5458L99.4648 50.5698" stroke="#263238" stroke-width="2" stroke-miterlimit="10"/>
<path d="M99.7427 50.8622C99.7408 50.7129 99.7072 50.5658 99.644 50.4306C99.5808 50.2954 99.4895 50.1752 99.3761 50.078C99.1379 49.8677 97.8898 49.3418 97.7707 49.7811C97.6423 50.2667 98.9199 51.1947 99.7427 50.8622Z" fill="#EF233C" stroke="#263238" stroke-miterlimit="10"/>
<path d="M99.7464 50.8622L98.5586 50.1213" stroke="#263238" stroke-width="0.5" stroke-miterlimit="10"/>
<path d="M100.011 47.922L99.0859 46.946" stroke="#263238" stroke-width="2" stroke-miterlimit="10"/>
<path d="M99.3679 47.2384C99.366 47.089 99.3322 46.9417 99.2687 46.8064C99.2052 46.6712 99.1135 46.5511 98.9998 46.4542C98.7632 46.2423 97.5134 45.7164 97.3959 46.1572C97.266 46.6352 98.5451 47.574 99.3679 47.2384Z" fill="#EF233C" stroke="#263238" stroke-miterlimit="10"/>
<path d="M99.3691 47.2384L98.1797 46.4976" stroke="#263238" stroke-width="0.5" stroke-miterlimit="10"/>
<path d="M101.176 59.2622L101.88 58.1161" stroke="#263238" stroke-width="2" stroke-miterlimit="10"/>
<path d="M101.664 58.4641C101.635 58.3176 101.638 58.1666 101.672 58.0212C101.706 57.8759 101.771 57.7395 101.862 57.6212C102.051 57.3644 103.165 56.5926 103.37 57.0025C103.596 57.4371 102.543 58.6188 101.664 58.4641Z" fill="#EF233C" stroke="#263238" stroke-miterlimit="10"/>
<path d="M101.664 58.4609L102.734 57.437" stroke="#263238" stroke-width="0.5" stroke-miterlimit="10"/>
<path d="M100.566 53.4157L101.269 52.2697" stroke="#263238" stroke-width="2" stroke-miterlimit="10"/>
<path d="M101.055 52.6146C101.026 52.4681 101.029 52.317 101.063 52.1716C101.097 52.0262 101.162 51.8898 101.253 51.7717C101.441 51.5149 102.554 50.7431 102.761 51.153C102.986 51.5907 101.925 52.7724 101.055 52.6146Z" fill="#EF233C" stroke="#263238" stroke-miterlimit="10"/>
<path d="M101.055 52.6146L102.125 51.5907" stroke="#263238" stroke-width="0.5" stroke-miterlimit="10"/>
<path d="M100.297 50.8468L101.001 49.7007" stroke="#263238" stroke-width="2" stroke-miterlimit="10"/>
<path d="M100.785 50.044C100.757 49.8975 100.759 49.7465 100.793 49.6012C100.828 49.4558 100.892 49.3194 100.983 49.2011C101.172 48.9459 102.286 48.1741 102.491 48.5824C102.717 49.0201 101.661 50.2033 100.785 50.044Z" fill="#EF233C" stroke="#263238" stroke-miterlimit="10"/>
<path d="M100.785 50.044L101.855 49.0216" stroke="#263238" stroke-width="0.5" stroke-miterlimit="10"/>
<path d="M99.9023 47.0807L100.606 45.9346" stroke="#263238" stroke-width="2" stroke-miterlimit="10"/>
<path d="M100.391 46.2779C100.362 46.1314 100.365 45.9804 100.399 45.8351C100.433 45.6897 100.498 45.5533 100.589 45.435C100.778 45.1782 101.891 44.4065 102.097 44.8163C102.323 45.254 101.266 46.4372 100.391 46.2779Z" fill="#EF233C" stroke="#263238" stroke-miterlimit="10"/>
<path d="M100.395 46.2778L101.465 45.2555" stroke="#263238" stroke-width="0.5" stroke-miterlimit="10"/>
<path d="M99.6019 44.6709C99.573 44.5244 99.5757 44.3734 99.6098 44.228C99.6439 44.0826 99.7088 43.9462 99.7999 43.8279C99.9886 43.5727 101.102 42.8009 101.308 43.2093C101.534 43.647 100.477 44.8302 99.6019 44.6709Z" fill="#EF233C" stroke="#263238" stroke-miterlimit="10"/>
<path d="M99.6055 44.6709L100.676 43.6486" stroke="#263238" stroke-width="0.5" stroke-miterlimit="10"/>
<path d="M99.6668 44.7157C99.5179 44.7294 99.3678 44.7109 99.2266 44.6615C99.0855 44.6122 98.9566 44.5331 98.8486 44.4295C98.6135 44.2161 97.9639 43.0283 98.3846 42.8643C98.8517 42.688 99.9143 43.8619 99.6668 44.7157Z" fill="#EF233C" stroke="#263238" stroke-miterlimit="10"/>
<path d="M99.6665 44.7157L98.7617 43.5433" stroke="#263238" stroke-width="0.5" stroke-miterlimit="10"/>
<path d="M105 47.4703L102.973 67.0078" stroke="#263238" stroke-width="2" stroke-miterlimit="10"/>
<path d="M103.419 63.2819L102.715 62.1359" stroke="#263238" stroke-width="2" stroke-miterlimit="10"/>
<path d="M102.93 62.4854C102.959 62.3388 102.956 62.1878 102.922 62.0424C102.887 61.897 102.822 61.7606 102.731 61.6425C102.542 61.3873 101.428 60.6155 101.223 61.0238C100.995 61.4569 102.055 62.6401 102.93 62.4854Z" fill="#EF233C" stroke="#263238" stroke-miterlimit="10"/>
<path d="M102.929 62.4792L101.918 61.5094" stroke="#263238" stroke-width="0.5" stroke-miterlimit="10"/>
<path d="M103.981 57.8593L103.277 56.7133" stroke="#263238" stroke-width="2" stroke-miterlimit="10"/>
<path d="M103.491 57.0581C103.52 56.9116 103.518 56.7605 103.483 56.6151C103.449 56.4697 103.384 56.3333 103.293 56.2152C103.104 55.9584 101.99 55.1882 101.785 55.5965C101.559 56.0342 102.617 57.2174 103.491 57.0581Z" fill="#EF233C" stroke="#263238" stroke-miterlimit="10"/>
<path d="M103.49 57.0581L102.48 56.0884" stroke="#263238" stroke-width="0.5" stroke-miterlimit="10"/>
<path d="M103.751 60.0819L103.047 58.9358" stroke="#263238" stroke-width="2" stroke-miterlimit="10"/>
<path d="M103.26 59.2791C103.29 59.1326 103.287 58.9816 103.253 58.8361C103.219 58.6907 103.154 58.5543 103.062 58.4362C102.874 58.181 101.76 57.4092 101.554 57.8175C101.328 58.2568 102.386 59.4384 103.26 59.2791Z" fill="#EF233C" stroke="#263238" stroke-miterlimit="10"/>
<path d="M103.26 59.2792L102.25 58.3094" stroke="#263238" stroke-width="0.5" stroke-miterlimit="10"/>
<path d="M104.356 54.2494L103.652 53.1049" stroke="#263238" stroke-width="2" stroke-miterlimit="10"/>
<path d="M103.867 53.4482C103.896 53.3016 103.893 53.1506 103.858 53.0052C103.824 52.8598 103.759 52.7234 103.667 52.6053C103.479 52.3485 102.365 51.5783 102.159 51.9866C101.935 52.4321 102.992 53.6075 103.867 53.4482Z" fill="#EF233C" stroke="#263238" stroke-miterlimit="10"/>
<path d="M103.867 53.4483L102.855 52.4785" stroke="#263238" stroke-width="0.5" stroke-miterlimit="10"/>
<path d="M104.731 50.6256L104.027 49.4795" stroke="#263238" stroke-width="2" stroke-miterlimit="10"/>
<path d="M104.242 49.8228C104.271 49.6762 104.268 49.5252 104.233 49.3798C104.199 49.2344 104.134 49.098 104.042 48.9799C103.855 48.7247 102.742 47.9529 102.534 48.3612C102.31 48.8005 103.367 49.9821 104.242 49.8228Z" fill="#EF233C" stroke="#263238" stroke-miterlimit="10"/>
<path d="M104.242 49.8228L103.23 48.853" stroke="#263238" stroke-width="0.5" stroke-miterlimit="10"/>
<path d="M103.539 61.9626L104.462 60.9867" stroke="#263238" stroke-width="2" stroke-miterlimit="10"/>
<path d="M104.18 61.279C104.182 61.1296 104.215 60.9823 104.279 60.847C104.342 60.7118 104.434 60.5917 104.548 60.4948C104.784 60.2829 106.033 59.757 106.152 60.1963C106.28 60.6742 105.004 61.6146 104.18 61.279Z" fill="#EF233C" stroke="#263238" stroke-miterlimit="10"/>
<path d="M104.18 61.279L105.439 60.4979" stroke="#263238" stroke-width="0.5" stroke-miterlimit="10"/>
<path d="M104.145 56.1162L105.068 55.1387" stroke="#263238" stroke-width="2" stroke-miterlimit="10"/>
<path d="M104.789 55.4311C104.79 55.2818 104.824 55.1345 104.887 54.9992C104.95 54.8639 105.042 54.7438 105.156 54.6469C105.392 54.435 106.64 53.9092 106.76 54.35C106.889 54.8279 105.612 55.7667 104.789 55.4311Z" fill="#EF233C" stroke="#263238" stroke-miterlimit="10"/>
<path d="M104.789 55.431L106.047 54.6515" stroke="#263238" stroke-width="0.5" stroke-miterlimit="10"/>
<path d="M104.41 53.5456L105.334 52.5697" stroke="#263238" stroke-width="2" stroke-miterlimit="10"/>
<path d="M105.055 52.862C105.057 52.7126 105.09 52.5653 105.154 52.43C105.217 52.2948 105.309 52.1747 105.423 52.0778C105.659 51.8659 106.908 51.3401 107.027 51.7793C107.155 52.2572 105.878 53.2053 105.055 52.862Z" fill="#EF233C" stroke="#263238" stroke-miterlimit="10"/>
<path d="M105.055 52.862L106.312 52.0809" stroke="#263238" stroke-width="0.5" stroke-miterlimit="10"/>
<path d="M104.801 49.7795L105.724 48.802" stroke="#263238" stroke-width="2" stroke-miterlimit="10"/>
<path d="M105.445 49.0959C105.447 48.9466 105.48 48.7993 105.543 48.664C105.606 48.5286 105.698 48.4085 105.812 48.3118C106.05 48.0983 107.298 47.5725 107.416 48.0133C107.546 48.4912 106.268 49.4316 105.445 49.0959Z" fill="#EF233C" stroke="#263238" stroke-miterlimit="10"/>
<path d="M105.445 49.0959L106.703 48.3148" stroke="#263238" stroke-width="0.5" stroke-miterlimit="10"/>
<path d="M105.004 47.3605C105.006 47.2111 105.04 47.0638 105.103 46.9286C105.167 46.7933 105.258 46.6732 105.372 46.5764C105.609 46.3645 106.857 45.8386 106.976 46.2778C107.106 46.7558 105.828 47.6961 105.004 47.3605Z" fill="#EF233C" stroke="#263238" stroke-miterlimit="10"/>
<path d="M105.004 47.3605L106.263 46.5795" stroke="#263238" stroke-width="0.5" stroke-miterlimit="10"/>
<path d="M105.055 47.4162C104.906 47.3989 104.763 47.3501 104.635 47.273C104.507 47.1959 104.397 47.0923 104.312 46.9692C104.127 46.7109 103.735 45.4148 104.184 45.3421C104.674 45.2648 105.48 46.6336 105.055 47.4162Z" fill="#EF233C" stroke="#263238" stroke-miterlimit="10"/>
<path d="M105.055 47.4163L104.41 46.0846" stroke="#263238" stroke-width="0.5" stroke-miterlimit="10"/>
<path d="M102.676 39.5143V64.2207" stroke="#263238" stroke-width="2" stroke-miterlimit="10"/>
<path d="M102.696 60.5057L101.879 59.4385" stroke="#263238" stroke-width="2" stroke-miterlimit="10"/>
<path d="M102.126 59.7586C102.139 59.6099 102.121 59.4599 102.072 59.3187C102.023 59.1776 101.944 59.0486 101.841 58.9405C101.626 58.7054 100.44 58.0542 100.276 58.4765C100.098 58.9405 101.272 60.0108 102.126 59.7586Z" fill="#EF233C" stroke="#263238" stroke-miterlimit="10"/>
<path d="M102.125 59.7586L101.02 58.8987" stroke="#263238" stroke-width="0.5" stroke-miterlimit="10"/>
<path d="M102.696 55.8625L101.879 54.7969" stroke="#263238" stroke-width="2" stroke-miterlimit="10"/>
<path d="M102.126 55.1155C102.139 54.9669 102.121 54.8172 102.072 54.6763C102.023 54.5354 101.944 54.4067 101.841 54.2988C101.626 54.0622 100.44 53.411 100.276 53.8348C100.098 54.2988 101.272 55.3707 102.126 55.1155Z" fill="#EF233C" stroke="#263238" stroke-miterlimit="10"/>
<path d="M102.125 55.1156L101.02 54.2556" stroke="#263238" stroke-width="0.5" stroke-miterlimit="10"/>
<path d="M102.696 50.4122L101.879 49.345" stroke="#263238" stroke-width="2" stroke-miterlimit="10"/>
<path d="M102.126 49.665C102.139 49.5162 102.121 49.3662 102.072 49.2251C102.023 49.084 101.944 48.955 101.841 48.8468C101.626 48.6117 100.44 47.9606 100.276 48.3828C100.098 48.8468 101.272 49.914 102.126 49.665Z" fill="#EF233C" stroke="#263238" stroke-miterlimit="10"/>
<path d="M102.125 49.6651L101.02 48.8052" stroke="#263238" stroke-width="0.5" stroke-miterlimit="10"/>
<path d="M102.696 46.7836L101.879 45.7164" stroke="#263238" stroke-width="2" stroke-miterlimit="10"/>
<path d="M102.126 46.0366C102.139 45.8878 102.121 45.7378 102.072 45.5967C102.023 45.4556 101.944 45.3266 101.841 45.2184C101.626 44.9833 100.44 44.3307 100.276 44.7544C100.098 45.2184 101.272 46.2856 102.126 46.0366Z" fill="#EF233C" stroke="#263238" stroke-miterlimit="10"/>
<path d="M102.125 46.0366L101.02 45.1766" stroke="#263238" stroke-width="0.5" stroke-miterlimit="10"/>
<path d="M102.696 43.1382L101.879 42.0725" stroke="#263238" stroke-width="2" stroke-miterlimit="10"/>
<path d="M102.126 42.3927C102.139 42.2439 102.121 42.0939 102.072 41.9528C102.023 41.8117 101.944 41.6827 101.841 41.5745C101.626 41.3394 100.44 40.6867 100.276 41.1105C100.098 41.5745 101.272 42.6417 102.126 42.3927Z" fill="#EF233C" stroke="#263238" stroke-miterlimit="10"/>
<path d="M102.125 42.3927L101.02 41.5327" stroke="#263238" stroke-width="0.5" stroke-miterlimit="10"/>
<path d="M102.676 61.924L103.494 60.8568" stroke="#263238" stroke-width="2" stroke-miterlimit="10"/>
<path d="M103.247 61.1769C103.233 61.0281 103.251 60.8781 103.3 60.737C103.349 60.5959 103.428 60.4669 103.531 60.3587C103.745 60.1236 104.932 59.4709 105.095 59.8947C105.273 60.3587 104.099 61.4259 103.247 61.1769Z" fill="#EF233C" stroke="#263238" stroke-miterlimit="10"/>
<path d="M103.246 61.1769L104.417 60.2705" stroke="#263238" stroke-width="0.5" stroke-miterlimit="10"/>
<path d="M102.676 54.5402L103.494 53.473" stroke="#263238" stroke-width="2" stroke-miterlimit="10"/>
<path d="M103.247 53.7931C103.233 53.6443 103.251 53.4943 103.3 53.3532C103.349 53.2121 103.428 53.0831 103.531 52.9749C103.745 52.7398 104.932 52.0871 105.095 52.5109C105.273 52.9749 104.099 54.0421 103.247 53.7931Z" fill="#EF233C" stroke="#263238" stroke-miterlimit="10"/>
<path d="M103.246 53.7931L104.417 52.8867" stroke="#263238" stroke-width="0.5" stroke-miterlimit="10"/>
<path d="M102.676 50.8947L103.494 49.8275" stroke="#263238" stroke-width="2" stroke-miterlimit="10"/>
<path d="M103.247 50.1477C103.233 49.9989 103.251 49.8489 103.3 49.7078C103.349 49.5667 103.428 49.4377 103.531 49.3295C103.745 49.0944 104.932 48.4433 105.095 48.8655C105.273 49.3295 104.099 50.3967 103.247 50.1477Z" fill="#EF233C" stroke="#263238" stroke-miterlimit="10"/>
<path d="M103.246 50.1477L104.417 49.2413" stroke="#263238" stroke-width="0.5" stroke-miterlimit="10"/>
<path d="M102.676 46.0783L103.494 45.0111" stroke="#263238" stroke-width="2" stroke-miterlimit="10"/>
<path d="M103.247 45.3313C103.233 45.1825 103.251 45.0325 103.3 44.8914C103.349 44.7503 103.428 44.6213 103.531 44.5131C103.745 44.278 104.932 43.6253 105.095 44.0491C105.273 44.5131 104.099 45.5803 103.247 45.3313Z" fill="#EF233C" stroke="#263238" stroke-miterlimit="10"/>
<path d="M103.246 45.3313L104.417 44.4249" stroke="#263238" stroke-width="0.5" stroke-miterlimit="10"/>
<path d="M102.676 42.2906L103.494 41.2234" stroke="#263238" stroke-width="2" stroke-miterlimit="10"/>
<path d="M103.247 41.5436C103.233 41.3948 103.251 41.2448 103.3 41.1037C103.349 40.9625 103.428 40.8335 103.531 40.7254C103.745 40.4903 104.932 39.8391 105.095 40.2614C105.273 40.7254 104.099 41.7926 103.247 41.5436Z" fill="#EF233C" stroke="#263238" stroke-miterlimit="10"/>
<path d="M103.246 41.5436L104.417 40.6372" stroke="#263238" stroke-width="0.5" stroke-miterlimit="10"/>
<path d="M102.629 39.8639C102.616 39.7151 102.634 39.5651 102.683 39.424C102.732 39.2828 102.811 39.1539 102.914 39.0457C103.127 38.8106 104.315 38.1594 104.479 38.5817C104.657 39.0457 103.483 40.1129 102.629 39.8639Z" fill="#EF233C" stroke="#263238" stroke-miterlimit="10"/>
<path d="M102.629 39.8639L103.8 38.9575" stroke="#263238" stroke-width="0.5" stroke-miterlimit="10"/>
<path d="M102.684 39.9149C102.534 39.9129 102.387 39.8789 102.251 39.8152C102.116 39.7514 101.996 39.6593 101.899 39.5452C101.689 39.3086 101.165 38.0589 101.604 37.9413C102.077 37.813 103.021 39.0921 102.684 39.9149Z" fill="#EF233C" stroke="#263238" stroke-miterlimit="10"/>
<path d="M102.684 39.9149L101.906 38.6559" stroke="#263238" stroke-width="0.5" stroke-miterlimit="10"/>
<path d="M103.693 70.6286H101.076L100.75 64.0197H104.02L103.693 70.6286Z" fill="#263238" stroke="#263238" stroke-miterlimit="10"/>
<path d="M104.711 18.4054C104.711 17.5266 104.5 16.6606 104.095 15.8808C103.689 15.101 103.102 14.4302 102.383 13.9254C101.664 13.4205 100.833 13.0963 99.9624 12.9803C99.0913 12.8642 98.205 12.9598 97.3787 13.2588C96.5523 13.5578 95.8102 14.0515 95.215 14.6981C94.6199 15.3447 94.1893 16.1251 93.9596 16.9734C93.73 17.8216 93.7081 18.7127 93.8957 19.5712C94.0834 20.4297 94.4752 21.2304 95.0378 21.9055C95.8435 22.8712 96.2847 24.0891 96.2844 25.3468V26.0954H102.19V25.3468C102.186 24.0911 102.624 22.8742 103.427 21.9086C104.254 20.9282 104.708 19.6878 104.711 18.4054Z" fill="white" stroke="#263238" stroke-linecap="round" stroke-linejoin="round"/>
<path d="M102.19 26.0969H96.2773V27.5601H102.19V26.0969Z" fill="#EF233C" stroke="#263238" stroke-linecap="round" stroke-linejoin="round"/>
<path d="M96.275 27.5632H102.188V28.2948C102.188 28.4888 102.111 28.6749 101.974 28.8121C101.836 28.9493 101.65 29.0264 101.456 29.0264H97.005C96.811 29.0264 96.6249 28.9493 96.4877 28.8121C96.3505 28.6749 96.2734 28.4888 96.2734 28.2948V27.5632H96.275Z" fill="#EF233C" stroke="#263238" stroke-linecap="round" stroke-linejoin="round"/>
<path d="M97.0234 29.0248H101.444V29.4888C101.444 29.7517 101.339 30.0039 101.153 30.1898C100.968 30.3757 100.715 30.4802 100.452 30.4802H98.0149C97.7519 30.4802 97.4997 30.3757 97.3138 30.1898C97.1279 30.0039 97.0234 29.7517 97.0234 29.4888V29.0248Z" fill="#263238" stroke="#263238" stroke-linecap="round" stroke-linejoin="round"/>
<path d="M105.48 18.4347H107.986" stroke="#263238" stroke-linecap="round" stroke-linejoin="round"/>
<path d="M90.2461 18.4347H92.7842" stroke="#263238" stroke-linecap="round" stroke-linejoin="round"/>
<path d="M99.1172 12.0779V9.56616" stroke="#263238" stroke-linecap="round" stroke-linejoin="round"/>
<path d="M103.656 13.8921L105.385 12.163" stroke="#263238" stroke-linecap="round" stroke-linejoin="round"/>
<path d="M92.8438 24.705L94.5977 22.951" stroke="#263238" stroke-linecap="round" stroke-linejoin="round"/>
<path d="M94.5234 13.8426L92.8438 12.163" stroke="#263238" stroke-linecap="round" stroke-linejoin="round"/>
<path d="M105.387 24.7049L103.715 23.033" stroke="#263238" stroke-linecap="round" stroke-linejoin="round"/>
<path d="M66.8994 16.5678L59.6595 6.55627L52.418 16.5678H55.3968V27.6899H63.9221V16.5678H66.8994Z" fill="#EF233C" stroke="#263238" stroke-linecap="round" stroke-linejoin="round"/>
<path d="M60.801 33.6781C64.8706 33.0205 67.6365 29.1883 66.9788 25.1187C66.3212 21.0491 62.489 18.2832 58.4194 18.9409C54.3498 19.5986 51.5839 23.4308 52.2416 27.5003C52.8993 31.5699 56.7315 34.3358 60.801 33.6781Z" fill="white" stroke="#263238" stroke-linecap="round" stroke-linejoin="round"/>
<path d="M65.2944 29.1755C66.8767 26.0377 65.6157 22.2113 62.4778 20.629C59.34 19.0467 55.5136 20.3077 53.9314 23.4456C52.3491 26.5834 53.6101 30.4098 56.7479 31.992C59.8857 33.5743 63.7121 32.3133 65.2944 29.1755Z" fill="white" stroke="#263238" stroke-linecap="round" stroke-linejoin="round"/>
<path d="M61.7364 27.2631C61.7364 25.5974 59.3761 25.5618 59.3761 24.8658C59.3761 24.5008 59.5679 24.391 59.9623 24.391C60.3011 24.391 60.581 24.5363 60.9135 24.8302L61.6869 23.9331C61.3273 23.5264 60.8404 23.2538 60.3057 23.1598V22.2318H59.2849V23.2C58.4033 23.3903 57.8759 24.0182 57.8759 24.9431C57.8759 26.5455 60.2361 26.6445 60.2361 27.3776C60.2361 27.7349 60.0536 27.8895 59.5958 27.8895C59.2122 27.8895 58.8224 27.7441 58.3337 27.3776L57.6562 28.4386C58.1205 28.8223 58.6864 29.0625 59.2849 29.1299V30.0487H60.3103V29.065C61.2646 28.833 61.7364 28.1494 61.7364 27.2631Z" fill="#EF233C" stroke="#263238" stroke-linecap="round" stroke-linejoin="round"/>
<path d="M22.6763 20.9323C25.3171 20.4534 27.0696 17.9243 26.5906 15.2835C26.1117 12.6426 23.5826 10.8901 20.9418 11.3691C18.301 11.8481 16.5484 14.3771 17.0274 17.0179C17.5064 19.6588 20.0354 21.4113 22.6763 20.9323Z" fill="white" stroke="#263238" stroke-linecap="round" stroke-linejoin="round"/>
<path d="M23.1805 11.4933L21.8086 16.1518H26.6682C26.6677 15.1029 26.3277 14.0823 25.6991 13.2425C25.0704 12.4028 24.1869 11.7892 23.1805 11.4933Z" fill="#EF233C" stroke="#263238" stroke-linecap="round" stroke-linejoin="round"/>
<path d="M24.8281 13.0863L26.7568 10.8127H28.4118" stroke="#263238" stroke-width="0.5" stroke-linecap="round" stroke-linejoin="round"/>
<path d="M29.582 10.8807H32.0629" stroke="#263238" stroke-width="0.5" stroke-linecap="round" stroke-linejoin="round"/>
<path d="M29.582 11.501H32.0629" stroke="#263238" stroke-width="0.5" stroke-linecap="round" stroke-linejoin="round"/>
<path d="M29.582 12.1212H32.0629" stroke="#263238" stroke-width="0.5" stroke-linecap="round" stroke-linejoin="round"/>
<path d="M29.582 12.7415H32.0629" stroke="#263238" stroke-width="0.5" stroke-linecap="round" stroke-linejoin="round"/>
<path d="M17.1597 26.1494H15.7461V30.3672H17.1597V26.1494Z" fill="#263238" stroke="#263238" stroke-width="0.5" stroke-linecap="round" stroke-linejoin="round"/>
<path d="M19.3824 27.6667H17.9688V30.3672H19.3824V27.6667Z" fill="#EF233C" stroke="#263238" stroke-linecap="round" stroke-linejoin="round"/>
<path d="M21.6051 25.2261H20.1914V30.3672H21.6051V25.2261Z" fill="#263238" stroke="#263238" stroke-width="0.5" stroke-linecap="round" stroke-linejoin="round"/>
<path d="M23.8277 26.2902H22.4141V30.3687H23.8277V26.2902Z" fill="#EF233C" stroke="#263238" stroke-linecap="round" stroke-linejoin="round"/>
<path d="M26.0465 25.3575H24.6328V30.3672H26.0465V25.3575Z" fill="#263238" stroke="#263238" stroke-width="0.5" stroke-linecap="round" stroke-linejoin="round"/>
<path d="M28.2691 22.3895H26.8555V30.3688H28.2691V22.3895Z" fill="#EF233C" stroke="#263238" stroke-linecap="round" stroke-linejoin="round"/>
<path d="M29.8594 22.306H30.6868" stroke="#263238" stroke-width="0.5" stroke-linecap="round" stroke-linejoin="round"/>
<path d="M29.8594 23.9176H30.6868" stroke="#263238" stroke-width="0.5" stroke-linecap="round" stroke-linejoin="round"/>
<path d="M29.8594 25.5308H30.6868" stroke="#263238" stroke-width="0.5" stroke-linecap="round" stroke-linejoin="round"/>
<path d="M29.8594 27.1439H30.6868" stroke="#263238" stroke-width="0.5" stroke-linecap="round" stroke-linejoin="round"/>
<path d="M29.8594 28.7572H30.6868" stroke="#263238" stroke-width="0.5" stroke-linecap="round" stroke-linejoin="round"/>
<path d="M29.8594 30.3688H30.6868" stroke="#263238" stroke-width="0.5" stroke-linecap="round" stroke-linejoin="round"/>
<path d="M16.5547 24.5951L18.72 25.9051L20.9735 23.4923L23.1992 23.6795L25.3552 22.8242L27.7959 19.6133" stroke="#263238" stroke-linecap="round" stroke-linejoin="round"/>
<path d="M16.8288 24.592C16.8288 24.5378 16.8127 24.4848 16.7825 24.4397C16.7524 24.3947 16.7095 24.3596 16.6594 24.3389C16.6093 24.3183 16.5542 24.3129 16.501 24.3236C16.4479 24.3343 16.3991 24.3605 16.3609 24.399C16.3227 24.4374 16.2967 24.4863 16.2863 24.5395C16.2759 24.5927 16.2816 24.6478 16.3025 24.6978C16.3235 24.7478 16.3588 24.7905 16.404 24.8204C16.4493 24.8503 16.5023 24.8661 16.5566 24.8658C16.5924 24.8658 16.628 24.8587 16.6611 24.8449C16.6942 24.8311 16.7243 24.8109 16.7496 24.7855C16.7749 24.76 16.7949 24.7298 16.8085 24.6966C16.8221 24.6634 16.829 24.6279 16.8288 24.592Z" fill="#263238"/>
<path d="M18.9928 25.9051C18.9928 25.851 18.9768 25.798 18.9467 25.753C18.9166 25.708 18.8739 25.6729 18.8238 25.6522C18.7738 25.6315 18.7188 25.626 18.6657 25.6366C18.6126 25.6472 18.5638 25.6732 18.5255 25.7115C18.4872 25.7498 18.4611 25.7986 18.4506 25.8517C18.44 25.9048 18.4454 25.9598 18.4662 26.0099C18.4869 26.0599 18.522 26.1026 18.567 26.1327C18.612 26.1628 18.6649 26.1789 18.7191 26.1789C18.7551 26.1791 18.7908 26.1721 18.8241 26.1584C18.8574 26.1448 18.8876 26.1246 18.9131 26.0991C18.9386 26.0737 18.9587 26.0434 18.9724 26.0101C18.9861 25.9768 18.993 25.9411 18.9928 25.9051Z" fill="#263238"/>
<path d="M21.2467 23.4923C21.2467 23.4381 21.2306 23.3851 21.2005 23.34C21.1703 23.295 21.1275 23.2599 21.0774 23.2392C21.0273 23.2185 20.9721 23.2132 20.919 23.2239C20.8659 23.2346 20.8171 23.2608 20.7789 23.2992C20.7406 23.3377 20.7147 23.3866 20.7043 23.4398C20.6939 23.493 20.6995 23.5481 20.7205 23.5981C20.7415 23.6481 20.7768 23.6907 20.822 23.7206C20.8672 23.7505 20.9203 23.7663 20.9745 23.766C21.0104 23.766 21.0459 23.7589 21.0791 23.7452C21.1122 23.7314 21.1423 23.7112 21.1676 23.6857C21.1929 23.6603 21.2129 23.6301 21.2265 23.5969C21.2401 23.5637 21.2469 23.5281 21.2467 23.4923Z" fill="#263238"/>
<path d="M23.4733 23.6794C23.4733 23.6252 23.4572 23.5722 23.4271 23.5271C23.3969 23.4821 23.3541 23.447 23.3039 23.4263C23.2538 23.4057 23.1987 23.4003 23.1456 23.411C23.0924 23.4217 23.0436 23.4479 23.0054 23.4864C22.9672 23.5248 22.9412 23.5737 22.9309 23.6269C22.9205 23.6801 22.9261 23.7352 22.9471 23.7852C22.968 23.8352 23.0034 23.8779 23.0486 23.9078C23.0938 23.9377 23.1469 23.9535 23.2011 23.9532C23.237 23.9532 23.2725 23.9461 23.3056 23.9323C23.3387 23.9185 23.3688 23.8983 23.3941 23.8729C23.4194 23.8474 23.4394 23.8172 23.453 23.784C23.4666 23.7508 23.4735 23.7153 23.4733 23.6794Z" fill="#263238"/>
<path d="M25.6296 22.7808C25.6296 22.7267 25.6135 22.6738 25.5834 22.6287C25.5533 22.5837 25.5106 22.5486 25.4606 22.5279C25.4105 22.5072 25.3555 22.5018 25.3024 22.5123C25.2493 22.5229 25.2005 22.549 25.1622 22.5873C25.1239 22.6255 25.0979 22.6743 25.0873 22.7274C25.0767 22.7805 25.0821 22.8356 25.1029 22.8856C25.1236 22.9356 25.1587 22.9784 25.2037 23.0085C25.2487 23.0385 25.3016 23.0546 25.3558 23.0546C25.4284 23.0546 25.498 23.0258 25.5494 22.9744C25.6007 22.9231 25.6296 22.8534 25.6296 22.7808Z" fill="#263238"/>
<path d="M28.0671 19.6132C28.0671 19.559 28.051 19.506 28.0208 19.461C27.9907 19.4159 27.9478 19.3808 27.8977 19.3602C27.8476 19.3395 27.7925 19.3342 27.7393 19.3449C27.6862 19.3555 27.6374 19.3818 27.5992 19.4202C27.5609 19.4586 27.535 19.5076 27.5246 19.5608C27.5142 19.614 27.5199 19.6691 27.5408 19.7191C27.5618 19.7691 27.5971 19.8117 27.6423 19.8416C27.6875 19.8715 27.7406 19.8873 27.7948 19.887C27.8672 19.8866 27.9364 19.8576 27.9874 19.8063C28.0384 19.755 28.0671 19.6856 28.0671 19.6132Z" fill="#263238"/>
<path d="M81.9739 63.9423H82.8555V55.448H81.9739V63.9423Z" fill="#263238" stroke="#263238" stroke-linecap="round" stroke-linejoin="round"/>
<path d="M86.3633 55.7462L87.918 55.928L88.9046 47.4912L87.35 47.3094L86.3633 55.7462Z" fill="#263238" stroke="#263238" stroke-linecap="round" stroke-linejoin="round"/>
<path d="M81.2948 64.2904V62.8582H83.5328V64.3027L92.485 67.8956V69.5908H91.874V68.3024L82.3821 66.1417L73.1408 68.3024V69.5908H72.5469V67.8956L81.2948 64.2904Z" fill="#8C8C8C" stroke="#263238" stroke-linecap="round" stroke-linejoin="round"/>
<path d="M80.2092 58.1609H84.6172V55.448H80.2092V58.1609Z" fill="#263238" stroke="#263238" stroke-linecap="round" stroke-linejoin="round"/>
<path d="M92.4922 69.6588C92.4922 69.4709 92.5479 69.2872 92.6523 69.131C92.7568 68.9748 92.9052 68.8531 93.0788 68.7812C93.2524 68.7094 93.4434 68.6907 93.6277 68.7275C93.8119 68.7642 93.9811 68.8548 94.1139 68.9878C94.2466 69.1208 94.337 69.2901 94.3734 69.4744C94.4099 69.6588 94.3909 69.8497 94.3188 70.0232C94.2466 70.1967 94.1247 70.345 93.9683 70.4491C93.8119 70.5533 93.6282 70.6087 93.4403 70.6084C93.3157 70.6084 93.1922 70.5838 93.0771 70.5361C92.962 70.4883 92.8574 70.4184 92.7693 70.3302C92.6813 70.242 92.6115 70.1373 92.5639 70.0221C92.5164 69.9068 92.492 69.7834 92.4922 69.6588Z" fill="#263238" stroke="#263238" stroke-linecap="round" stroke-linejoin="round"/>
<path d="M93.0234 69.6587C93.0234 69.5783 93.0473 69.4996 93.092 69.4327C93.1367 69.3658 93.2002 69.3137 93.2745 69.2829C93.3489 69.2521 93.4307 69.2441 93.5096 69.2598C93.5885 69.2755 93.661 69.3142 93.7178 69.3711C93.7747 69.428 93.8135 69.5005 93.8292 69.5794C93.8449 69.6583 93.8368 69.7401 93.806 69.8144C93.7752 69.8887 93.7231 69.9523 93.6562 69.9969C93.5893 70.0416 93.5107 70.0655 93.4302 70.0655C93.3223 70.0655 93.2189 70.0226 93.1426 69.9464C93.0663 69.8701 93.0234 69.7666 93.0234 69.6587Z" fill="white" stroke="#263238" stroke-linecap="round" stroke-linejoin="round"/>
<path d="M70.5781 69.6588C70.5781 69.4709 70.6338 69.2873 70.7382 69.1312C70.8425 68.975 70.9908 68.8533 71.1644 68.7814C71.3379 68.7095 71.5288 68.6907 71.713 68.7274C71.8973 68.764 72.0665 68.8544 72.1993 68.9873C72.3321 69.1201 72.4225 69.2893 72.4592 69.4735C72.4958 69.6577 72.477 69.8487 72.4051 70.0222C72.3333 70.1957 72.2115 70.344 72.0554 70.4484C71.8992 70.5527 71.7156 70.6084 71.5278 70.6084C71.2759 70.6084 71.0344 70.5084 70.8563 70.3303C70.6782 70.1522 70.5781 69.9106 70.5781 69.6588Z" fill="#263238" stroke="#263238" stroke-linecap="round" stroke-linejoin="round"/>
<path d="M71.5279 70.0655C71.7525 70.0655 71.9346 69.8834 71.9346 69.6587C71.9346 69.4341 71.7525 69.252 71.5279 69.252C71.3032 69.252 71.1211 69.4341 71.1211 69.6587C71.1211 69.8834 71.3032 70.0655 71.5279 70.0655Z" fill="white" stroke="#263238" stroke-linecap="round" stroke-linejoin="round"/>
<path d="M82.0056 69.6402H82.7511L83.1253 64.5532H81.6328L82.0056 69.6402Z" fill="#8C8C8C" stroke="#263238" stroke-linecap="round" stroke-linejoin="round"/>
<path d="M82.0397 70.6564H82.7852V68.5545H82.0397V70.6564Z" fill="#263238" stroke="#263238" stroke-linecap="round" stroke-linejoin="round"/>
<path d="M88.2857 51.5442C88.7206 51.5862 89.1596 51.5421 89.5776 51.4145C89.9955 51.2868 90.3842 51.078 90.7215 50.8001C91.0587 50.5222 91.3379 50.1806 91.5431 49.7947C91.7482 49.4089 91.8754 48.9864 91.9172 48.5514L92.9566 37.7386C93.0411 36.8602 92.7733 35.9842 92.212 35.3032C91.6508 34.6222 90.8422 34.192 89.9638 34.1071C89.0852 34.023 88.2093 34.2912 87.5283 34.8527C86.8474 35.4141 86.4172 36.2229 86.3322 37.1014L85.2913 47.9281C85.2108 48.8043 85.4806 49.6767 86.0418 50.3544C86.603 51.0321 87.4098 51.4599 88.2857 51.5442Z" fill="#8C8C8C" stroke="#263238" stroke-linecap="round" stroke-linejoin="round"/>
<path d="M87.4964 51.4685C88.3748 51.553 89.2508 51.2852 89.9318 50.7239C90.6128 50.1627 91.043 49.3541 91.1279 48.4757L92.1688 37.649C92.2507 36.7719 91.9815 35.8981 91.4202 35.2191C90.8589 34.5401 90.0514 34.1113 89.1745 34.0267C88.7395 33.9849 88.3006 34.0292 87.8827 34.1571C87.4649 34.2849 87.0763 34.4939 86.7392 34.7719C86.4021 35.05 86.1231 35.3918 85.9181 35.7777C85.7131 36.1636 85.5862 36.5861 85.5445 37.0211L84.5036 47.8385C84.4191 48.7167 84.687 49.5925 85.2482 50.2733C85.8095 50.954 86.6182 51.3839 87.4964 51.4685Z" fill="#8C8C8C" stroke="#263238" stroke-linecap="round" stroke-linejoin="round"/>
<path d="M73.0157 56.2987L88.5381 56.707C88.6242 56.7097 88.71 56.6954 88.7906 56.6649C88.8712 56.6344 88.945 56.5883 89.0078 56.5293C89.0705 56.4702 89.121 56.3994 89.1564 56.3208C89.1918 56.2422 89.2114 56.1575 89.214 56.0713L89.2928 53.5874C89.2955 53.5013 89.2812 53.4154 89.2507 53.3349C89.2202 53.2543 89.1741 53.1805 89.1151 53.1177C89.056 53.0549 88.9852 53.0044 88.9066 52.969C88.8281 52.9336 88.7433 52.9141 88.6572 52.9115L73.1364 52.5032C73.0503 52.5003 72.9645 52.5144 72.8839 52.5447C72.8034 52.5751 72.7296 52.621 72.6668 52.6799C72.604 52.7388 72.5534 52.8096 72.518 52.8881C72.4826 52.9665 72.4631 53.0512 72.4605 53.1373L72.3831 55.6228C72.3777 55.7962 72.4412 55.9647 72.5598 56.0914C72.6784 56.2181 72.8423 56.2926 73.0157 56.2987Z" fill="#8C8C8C" stroke="#263238" stroke-linecap="round" stroke-linejoin="round"/>
<path d="M79.5056 56.4188L88.5399 56.7043C88.9019 56.7157 89.2046 56.4315 89.216 56.0695L89.2945 53.5853C89.306 53.2233 89.0218 52.9205 88.6598 52.9091L79.6256 52.6236C79.2636 52.6122 78.9608 52.8963 78.9494 53.2583L78.8709 55.7426C78.8595 56.1046 79.1436 56.4073 79.5056 56.4188Z" fill="#8C8C8C" stroke="#263238" stroke-linecap="round" stroke-linejoin="round"/>
<path d="M71.9812 66.9274L71.9054 67.4997C71.9054 67.4997 71.2187 68.8731 70.9511 69.102C70.6835 69.3309 69.0054 70.0548 68.7007 70.1692C68.396 70.2837 68.9296 70.6332 69.655 70.6657C70.3804 70.6982 71.7152 70.7044 72.173 70.5899C72.6308 70.4755 73.5077 69.8259 73.6995 69.7887L73.8542 70.2837C73.8542 70.2837 74.694 69.9743 74.9987 69.9032C75.3034 69.832 75.7999 69.4392 75.7999 69.4392C75.6265 68.9063 75.4231 68.3838 75.1905 67.874C75.0496 67.6182 74.869 67.3864 74.6554 67.1872L74.0846 66.5067L71.9812 66.9274Z" fill="#263238" stroke="#263238" stroke-linecap="round" stroke-linejoin="round"/>
<path d="M76.5993 45.1317L75.3403 45.8942L72.5934 46.6954C72.5934 46.6954 63.8949 48.2977 63.3985 48.8746C62.902 49.4516 63.0891 49.9434 63.5129 50.6688C63.9367 51.3942 71.3019 67.4609 71.3019 67.4609L74.3551 66.85L69.2418 51.4653C69.2418 51.4653 78.8574 53.411 80.5324 53.1048C82.2075 52.7985 84.3481 51.0075 84.7285 49.6341C85.109 48.2606 83.3551 46.0767 83.3551 46.0767L76.5993 45.1317Z" fill="#EF233C" stroke="#263238" stroke-linecap="round" stroke-linejoin="round"/>
<path d="M67.0781 49.9728C67.0781 49.9728 69.0006 50.9008 69.3455 51.9448" stroke="#263238" stroke-linecap="round" stroke-linejoin="round"/>
<path d="M86.5578 32.3887L82.4375 32.0067L76.4102 45.6653L80.3774 46.352L86.5578 32.3887Z" fill="white" stroke="#263238" stroke-linecap="round" stroke-linejoin="round"/>
<path d="M82.5117 33.2827C82.5117 33.2827 76.4844 45.472 76.4055 45.6653C76.3266 45.8587 74.6129 46.3521 74.2309 46.4279C73.8488 46.5036 72.5898 46.6954 72.5898 46.6954L74.7273 45.2462L76.2508 41.3161L74.3948 40.368C74.3948 40.368 77.8284 35.2176 78.5909 33.4621C79.3534 31.7067 79.6535 31.2427 80.4144 31.2056C81.1754 31.1684 83.3531 31.32 83.3531 31.32L82.5117 33.2827Z" fill="#EF233C" stroke="#263238" stroke-linecap="round" stroke-linejoin="round"/>
<path d="M81.6731 35.8595L81.7489 36.738C81.7489 36.738 77.743 43.9099 77.7059 44.063C77.6688 44.2161 78.0152 45.2833 78.0152 45.2833L79.4273 44.2532L82.0969 36.8911L82.8223 36.4704V35.1078L81.6731 35.8595Z" fill="#263238" stroke="#263238" stroke-linecap="round" stroke-linejoin="round"/>
<path d="M83.2667 22.6757C83.2667 22.6757 81.8499 26.1062 81.536 27.1456C81.222 28.1849 81.0008 29.8832 81.072 30.0719C81.1431 30.2606 81.536 30.921 82.2675 30.9535C82.9991 30.9859 83.6209 30.9844 83.6209 30.9844L82.5197 33.2827C82.5197 33.2827 82.6449 35.0769 82.829 35.1078C83.013 35.1387 85.7878 32.9997 85.8512 32.9038C85.9146 32.8079 87.6762 29.0371 87.6762 29.0371C87.6762 29.0371 89.2507 28.2499 89.3451 27.557C89.3759 27.3632 89.3541 27.1646 89.282 26.9821C89.2099 26.7995 89.0902 26.6397 88.9352 26.5192V25.6685L89.6281 23.5913C89.6281 23.5913 87.8974 22.4592 85.9764 21.9859C84.0555 21.5126 83.6472 21.8312 83.6472 21.8312L83.2667 22.6757Z" fill="white" stroke="#263238" stroke-linecap="round" stroke-linejoin="round"/>
<path d="M86.4468 20.7563C86.4468 20.7563 83.6149 20 82.3559 21.1027C81.0969 22.2055 84.3697 23.9733 85.44 24.128C86.5103 24.2827 87.8327 24.0646 87.5171 24.3492C87.2016 24.6338 86.5102 25.073 86.8567 25.3561C87.0741 25.5307 87.3186 25.6686 87.5805 25.7644C87.5805 25.7644 86.1019 29.0124 85.8498 29.3836C85.5977 29.7548 85.126 29.73 84.8429 29.6357C84.5599 29.5413 83.2066 28.6922 82.7658 28.5345C82.325 28.3767 81.5068 27.905 81.3181 28.4092C81.1294 28.9134 80.6561 31.0524 81.349 31.5242C82.0419 31.9959 85.409 30.8003 85.9132 30.4539C86.4175 30.1074 86.5737 29.4779 86.668 29.3527C86.7624 29.2274 88.1157 26.9924 88.241 26.8347C88.3662 26.6769 88.9339 26.5253 88.9339 26.5253C88.9339 26.5253 90.0676 24.2579 90.1619 23.3779C90.2563 22.4978 87.2975 20.7253 86.4468 20.7563Z" fill="#263238" stroke="#263238" stroke-linecap="round" stroke-linejoin="round"/>
<path d="M83.4873 25.1302L83.4239 26.5222C83.4239 26.5222 81.9453 28.1896 81.9453 28.3782C81.9453 28.5669 83.707 28.3473 83.707 28.3473" stroke="#263238" stroke-linecap="round" stroke-linejoin="round"/>
<path d="M83.2689 24.8163C83.2149 24.7108 83.1254 24.6277 83.0163 24.5816C82.9071 24.5355 82.7851 24.5293 82.6719 24.5642" stroke="#263238" stroke-linecap="round" stroke-linejoin="round"/>
<path d="M84.5898 25.602C84.5898 25.602 85.5024 25.5076 85.7854 26.2005" stroke="#263238" stroke-linecap="round" stroke-linejoin="round"/>
<path d="M82.1289 29.0959C82.1289 29.0959 82.9471 29.6002 83.4822 29.6002" stroke="white" stroke-linecap="round" stroke-linejoin="round"/>
<path d="M84.9006 26.9662C84.814 27.1379 84.6562 27.2307 84.548 27.1765C84.4397 27.1224 84.4211 26.9384 84.5078 26.7682C84.5944 26.5981 84.7521 26.5037 84.8604 26.5579C84.9687 26.612 84.9872 26.7961 84.9006 26.9662Z" fill="#263238"/>
<path d="M82.9279 26.2006C82.8429 26.3707 82.6836 26.4651 82.5753 26.4094C82.467 26.3537 82.4485 26.1728 82.5351 26.0011C82.6217 25.8294 82.7795 25.7366 82.8877 25.7923C82.996 25.848 83.0146 26.0289 82.9279 26.2006Z" fill="#263238"/>
<path d="M69.2758 65.6514L69.0082 67.2537L68.4359 67.4084C68.4359 67.4084 67.9008 68.0533 67.7879 68.208C67.675 68.3627 66.2613 69.3897 65.8808 69.5814C65.5003 69.7732 64.5445 69.8475 64.5832 70.115C64.6218 70.3826 66.6433 70.6115 67.941 70.6486C69.2386 70.6858 69.9625 70.2682 69.9625 70.2682L70.0769 70.5342L71.4117 70.4197C71.4117 70.4197 71.3359 69.1608 71.3746 68.6272C71.3867 68.1932 71.3609 67.759 71.2973 67.3295L71.2215 66.2236L69.2758 65.6514Z" fill="#263238" stroke="#263238" stroke-linecap="round" stroke-linejoin="round"/>
<path d="M79.9953 46.9243C79.9953 46.9243 69.1594 48.2591 68.9305 48.5267C68.7016 48.7942 68.8918 56.6915 68.8918 56.6915L67.6328 65.9344L71.5242 67.1253C71.5242 67.1253 72.7461 59.3317 73.1652 57.2267C73.4518 55.6614 73.6557 54.0821 73.7762 52.4954C73.7762 52.4954 79.7664 53.8689 81.8188 52.7243C83.8713 51.5798 83.4583 50.1677 83.4583 50.1677" fill="#EF233C"/>
<path d="M79.9953 46.9243C79.9953 46.9243 69.1594 48.2591 68.9305 48.5267C68.7016 48.7942 68.8918 56.6915 68.8918 56.6915L67.6328 65.9344L71.5242 67.1253C71.5242 67.1253 72.7461 59.3317 73.1652 57.2267C73.4518 55.6614 73.6557 54.0821 73.7762 52.4954C73.7762 52.4954 79.7664 53.8689 81.8188 52.7243C83.8713 51.5798 83.4583 50.1677 83.4583 50.1677" stroke="#263238" stroke-linecap="round" stroke-linejoin="round"/>
<path d="M69.0977 56.3822C69.0977 56.3822 69.591 54.1642 69.6885 52.9795" stroke="#263238" stroke-linecap="round" stroke-linejoin="round"/>
<path d="M72.9699 51.2195C72.8525 51.0622 72.7111 50.9244 72.5508 50.8112" stroke="#263238" stroke-linecap="round" stroke-linejoin="round"/>
<path d="M73.7768 52.4954C73.7768 52.4954 73.5572 52.0655 73.2695 51.6309" stroke="#263238" stroke-linecap="round" stroke-linejoin="round"/>
<path d="M86.4035 31.6633C86.4035 31.6633 82.0914 39.5946 81.1757 41.6208C80.2601 43.6469 79.0336 46.4665 79.0336 46.7712C79.0336 47.0759 78.2324 54.8989 78.5 55.0505C78.7676 55.2021 82.7719 53.9059 84.6418 53.1821C86.5117 52.4583 86.5875 51.9231 86.7407 51.5024C86.8938 51.0817 86.8551 45.6653 86.8551 45.6653C86.8551 45.6653 90.7465 34.6004 90.7078 34.1055C90.6692 33.6106 86.4035 31.6633 86.4035 31.6633Z" fill="#EF233C" stroke="#263238" stroke-linecap="round" stroke-linejoin="round"/>
<path d="M83.1289 39.6875C82.4221 40.3804 81.8281 40.897 81.8281 40.897" stroke="#263238" stroke-linecap="round" stroke-linejoin="round"/>
<path d="M87.7777 32.5403C87.7777 32.5403 85.9852 36.0512 85.068 37.4633C84.6155 38.1105 84.105 38.7151 83.543 39.2698" stroke="#263238" stroke-linecap="round" stroke-linejoin="round"/>
<path d="M82.0447 31.8041C82.0447 31.8041 80.1887 34.9067 79.6535 36.7379C79.1184 38.5692 79.0039 39.5219 79.0039 39.5219" stroke="#263238" stroke-linecap="round" stroke-linejoin="round"/>
<path d="M81.0625 36.2415L82.8257 35.1078L82.8938 37.7681" stroke="#263238" stroke-linecap="round" stroke-linejoin="round"/>
<path d="M84.8242 48.1616L85.4135 48.0688" stroke="#263238" stroke-linecap="round" stroke-linejoin="round"/>
<path d="M85.2215 47.3822L81.0625 47.8787V48.7556L84.0321 48.287" stroke="#263238" stroke-linecap="round" stroke-linejoin="round"/>
<path d="M79.4219 32.9982C79.4219 32.9982 80.1086 31.549 80.452 31.5103C80.7953 31.4716 81.5578 31.5103 81.5578 31.8196C81.5578 32.129 81.1387 32.163 81.1387 32.163H80.5664L80.2988 32.8497L79.4219 32.9982Z" fill="white" stroke="#263238" stroke-linecap="round" stroke-linejoin="round"/>
<path d="M78.4676 35.7451L78.7352 34.2572C78.7352 34.2572 78.8497 32.9611 79.0445 32.8838C79.2394 32.8064 80.9902 32.8466 80.9902 32.8466C80.9902 32.8466 81.0289 34.3716 80.8758 34.7537C80.7227 35.1357 80.0359 35.2873 80.0359 35.2873C79.9726 35.5252 79.8834 35.7555 79.7699 35.974C79.6555 36.1287 79.2348 36.3174 79.2348 36.3174L79.1203 36.6267L78.1289 35.9771L78.4676 35.7451Z" fill="white" stroke="#263238" stroke-linecap="round" stroke-linejoin="round"/>
<path d="M80.034 35.2887L79.8438 34.5633L80.5691 34.5247" fill="white"/>
<path d="M80.034 35.2887L79.8438 34.5633L80.5691 34.5247" stroke="#263238" stroke-linecap="round" stroke-linejoin="round"/>
<path d="M78.0875 35.6321L79.6527 36.7379L79.0418 37.386L77.707 36.1657L78.0875 35.6321Z" fill="white" stroke="#263238" stroke-linecap="round" stroke-linejoin="round"/>
<path d="M77.7063 36.1658L79.4988 37.5005L76.0652 42.7283C75.6591 42.8146 75.237 42.7878 74.8449 42.6509C74.1953 42.422 73.5859 41.1259 73.5859 40.9728C73.5859 40.8197 77.7063 36.1658 77.7063 36.1658Z" fill="#EF233C" stroke="#263238" stroke-linecap="round" stroke-linejoin="round"/>
<path d="M76.3347 42.2318C76.3347 42.2318 75.7625 41.1631 75.7238 40.8584C75.6851 40.5537 75.648 39.9427 75.4562 39.7138C75.2644 39.4849 75.0371 39.3318 74.9613 38.9884C74.8855 38.6451 74.5406 38.7982 74.4973 39.1431C74.454 39.488 74.7633 39.8298 74.7633 39.8298C74.7633 39.8298 73.8106 39.5205 73.6575 39.6009C73.5043 39.6813 73.1935 39.7912 73.2754 40.0649C73.3264 40.2329 73.391 40.3963 73.4688 40.5537C73.4688 40.5537 72.8594 41.3548 72.8594 41.7353C72.8594 42.1158 73.2785 42.7283 73.5848 42.9572C73.891 43.1861 74.9582 43.4212 74.9582 43.4212L76.3347 42.2318Z" fill="white" stroke="#263238" stroke-linecap="round" stroke-linejoin="round"/>
<path d="M87.3408 34.3809L83.8871 41.545L75.4547 42.009C75.2421 42.0605 75.0478 42.1696 74.8931 42.3243C74.7384 42.479 74.6293 42.6734 74.5778 42.886C74.4891 43.235 74.4506 43.5949 74.4633 43.9547C74.4633 43.9547 80.0715 44.6414 81.827 44.7559C83.5824 44.8704 85.7184 45.0993 85.986 44.8317C86.2535 44.5641 89.4196 38.0032 89.4196 38.0032" fill="#EF233C"/>
<path d="M87.3408 34.3809L83.8871 41.545L75.4547 42.009C75.2421 42.0605 75.0478 42.1696 74.8931 42.3243C74.7384 42.479 74.6293 42.6734 74.5778 42.886C74.4891 43.235 74.4506 43.5949 74.4633 43.9547C74.4633 43.9547 80.0715 44.6414 81.827 44.7559C83.5824 44.8704 85.7184 45.0993 85.986 44.8317C86.2535 44.5641 89.4196 38.0032 89.4196 38.0032" stroke="#263238" stroke-linecap="round" stroke-linejoin="round"/>
<path d="M36.866 55.4496H35.9844V63.9439H36.866V55.4496Z" fill="#263238" stroke="#263238" stroke-linecap="round" stroke-linejoin="round"/>
<path d="M31.496 47.3111L29.9414 47.4929L30.928 55.9297L32.4827 55.7479L31.496 47.3111Z" fill="#263238" stroke="#263238" stroke-linecap="round" stroke-linejoin="round"/>
<path d="M37.5456 64.2902V62.858H35.3076V64.3026L26.3555 67.8955V69.5907H26.9664V68.3023L36.4583 66.1416L45.6996 68.3023V69.5907H46.2935V67.8955L37.5456 64.2902Z" fill="#8C8C8C" stroke="#263238" stroke-linecap="round" stroke-linejoin="round"/>
<path d="M38.6307 55.4496H34.2227V58.1624H38.6307V55.4496Z" fill="#263238" stroke="#263238" stroke-linecap="round" stroke-linejoin="round"/>
<path d="M26.3563 69.6588C26.3563 69.4709 26.3006 69.2873 26.1963 69.1312C26.0919 68.975 25.9436 68.8533 25.7701 68.7814C25.5966 68.7095 25.4056 68.6907 25.2214 68.7274C25.0372 68.764 24.868 68.8544 24.7352 68.9873C24.6024 69.1201 24.5119 69.2893 24.4753 69.4735C24.4386 69.6577 24.4574 69.8487 24.5293 70.0222C24.6012 70.1957 24.7229 70.344 24.8791 70.4484C25.0353 70.5527 25.2189 70.6084 25.4067 70.6084C25.6585 70.6084 25.9001 70.5084 26.0782 70.3303C26.2563 70.1522 26.3563 69.9106 26.3563 69.6588Z" fill="#263238" stroke="#263238" stroke-linecap="round" stroke-linejoin="round"/>
<path d="M25.8135 69.6587C25.8135 69.5783 25.7897 69.4996 25.745 69.4327C25.7003 69.3658 25.6368 69.3137 25.5624 69.2829C25.4881 69.2521 25.4063 69.2441 25.3274 69.2598C25.2485 69.2755 25.176 69.3142 25.1191 69.3711C25.0623 69.428 25.0235 69.5005 25.0078 69.5794C24.9921 69.6583 25.0002 69.7401 25.031 69.8144C25.0618 69.8887 25.1139 69.9523 25.1808 69.9969C25.2477 70.0416 25.3263 70.0655 25.4068 70.0655C25.5147 70.0655 25.6181 70.0226 25.6944 69.9464C25.7707 69.8701 25.8135 69.7666 25.8135 69.6587Z" fill="white" stroke="#263238" stroke-linecap="round" stroke-linejoin="round"/>
<path d="M48.2548 69.6588C48.2548 69.4709 48.1991 69.2873 48.0947 69.1312C47.9904 68.975 47.8421 68.8533 47.6685 68.7814C47.495 68.7095 47.3041 68.6907 47.1199 68.7274C46.9356 68.764 46.7664 68.8544 46.6336 68.9873C46.5008 69.1201 46.4104 69.2893 46.3737 69.4735C46.3371 69.6577 46.3559 69.8487 46.4278 70.0222C46.4996 70.1957 46.6214 70.344 46.7775 70.4484C46.9337 70.5527 47.1173 70.6084 47.3051 70.6084C47.557 70.6084 47.7985 70.5084 47.9766 70.3303C48.1547 70.1522 48.2548 69.9106 48.2548 69.6588Z" fill="#263238" stroke="#263238" stroke-linecap="round" stroke-linejoin="round"/>
<path d="M47.313 70.0655C47.5377 70.0655 47.7198 69.8834 47.7198 69.6587C47.7198 69.4341 47.5377 69.252 47.313 69.252C47.0884 69.252 46.9062 69.4341 46.9062 69.6587C46.9062 69.8834 47.0884 70.0655 47.313 70.0655Z" fill="white" stroke="#263238" stroke-linecap="round" stroke-linejoin="round"/>
<path d="M36.8331 69.6402H36.0876L35.7148 64.5532H37.2074L36.8331 69.6402Z" fill="#8C8C8C" stroke="#263238" stroke-linecap="round" stroke-linejoin="round"/>
<path d="M36.8002 68.5544H36.0547V70.6564H36.8002V68.5544Z" fill="#263238" stroke="#263238" stroke-linecap="round" stroke-linejoin="round"/>
<path d="M30.5551 51.5442C30.1201 51.5862 29.6811 51.5421 29.2632 51.4145C28.8452 51.2868 28.4565 51.078 28.1193 50.8001C27.7821 50.5222 27.5029 50.1806 27.2977 49.7947C27.0925 49.4089 26.9654 48.9864 26.9235 48.5514L25.8826 37.7247C25.8406 37.2897 25.8847 36.8507 26.0123 36.4328C26.14 36.0149 26.3488 35.6262 26.6267 35.2889C26.9046 34.9517 27.2462 34.6725 27.6321 34.4673C28.0179 34.2621 28.4404 34.135 28.8754 34.0931C29.754 34.0091 30.6299 34.2773 31.3109 34.8387C31.9918 35.4002 32.422 36.209 32.507 37.0875L33.5479 47.9142C33.6323 48.7924 33.3645 49.6682 32.8032 50.349C32.242 51.0297 31.4333 51.4596 30.5551 51.5442Z" fill="#8C8C8C" stroke="#263238" stroke-linecap="round" stroke-linejoin="round"/>
<path d="M31.3432 51.4684C30.4648 51.5529 29.5888 51.285 28.9078 50.7238C28.2268 50.1626 27.7965 49.3539 27.7116 48.4756L26.6707 37.6489C26.5888 36.772 26.8578 35.8985 27.4188 35.2195C27.9797 34.5406 28.7869 34.1116 29.6635 34.0266C30.5421 33.9422 31.4183 34.2102 32.0994 34.7717C32.7804 35.3333 33.2105 36.1423 33.295 37.021L34.3344 47.8368C34.4189 48.715 34.1513 49.5907 33.5904 50.2717C33.0295 50.9527 32.2212 51.3831 31.3432 51.4684Z" fill="#8C8C8C" stroke="#263238" stroke-linecap="round" stroke-linejoin="round"/>
<path d="M46.3578 56.2987L30.2988 56.707C30.2127 56.7097 30.1269 56.6954 30.0463 56.6649C29.9657 56.6344 29.8919 56.5883 29.8291 56.5293C29.7663 56.4702 29.7158 56.3994 29.6804 56.3208C29.6451 56.2422 29.6255 56.1575 29.6229 56.0713L29.5394 53.5874C29.534 53.4137 29.5977 53.245 29.7166 53.1182C29.8355 52.9915 29.9998 52.9172 30.1735 52.9115L46.2434 52.5032C46.3294 52.5003 46.4152 52.5144 46.4958 52.5447C46.5764 52.5751 46.6502 52.621 46.713 52.6799C46.7758 52.7388 46.8263 52.8096 46.8617 52.8881C46.8971 52.9665 46.9167 53.0512 46.9193 53.1373L46.9982 55.6228C47.0008 55.7093 46.9864 55.7955 46.9556 55.8764C46.9248 55.9573 46.8783 56.0313 46.8188 56.0941C46.7592 56.1569 46.6879 56.2074 46.6087 56.2425C46.5296 56.2776 46.4444 56.2967 46.3578 56.2987Z" fill="#8C8C8C" stroke="#263238" stroke-linecap="round" stroke-linejoin="round"/>
<path d="M39.217 52.6252L30.1828 52.9107C29.8208 52.9221 29.5366 53.2249 29.5481 53.5869L29.6266 56.0711C29.638 56.4331 29.9407 56.7173 30.3027 56.7059L39.3369 56.4204C39.6989 56.4089 39.9831 56.1062 39.9717 55.7442L39.8932 53.2599C39.8817 52.8979 39.579 52.6138 39.217 52.6252Z" fill="#8C8C8C" stroke="#263238" stroke-linecap="round" stroke-linejoin="round"/>
<path d="M48.4092 51.2395C48.4092 51.2395 48.5468 53.8936 48.9119 56.2708C49.2769 58.648 49.8816 65.8601 49.8816 65.8601C50.0718 66.5843 50.3308 67.2887 50.6549 67.9636C50.8714 68.4117 51.1482 68.8281 51.4778 69.2009C51.4778 69.2009 52.6672 70.3903 52.6208 70.5728C52.5744 70.7553 51.8289 70.7368 51.0973 70.5991C50.3657 70.4615 50.2157 70.2898 49.8043 70.0129C49.3929 69.7361 48.4571 69.3819 48.0457 69.2396C47.6343 69.0973 47.4982 68.7385 47.6359 68.3271C47.7735 67.9157 48.2313 66.9552 48.2313 66.3613C48.2313 65.7673 47.8648 62.9493 46.8625 61.0732C45.8603 59.1971 45.2617 55.9506 45.2617 55.9506L48.4092 51.2395Z" fill="white" stroke="#263238" stroke-linecap="round" stroke-linejoin="round"/>
<path d="M48.6523 68.4648C48.3615 68.2389 48.0893 68.0008 47.8573 67.7765C47.7707 67.9977 47.6903 68.1925 47.6454 68.3271C47.5078 68.7385 47.6454 69.1004 48.0553 69.2396C48.4652 69.3788 49.4024 69.7346 49.8138 70.013C50.2253 70.2914 50.3753 70.4615 51.1069 70.5992C51.8384 70.7368 52.5855 70.7538 52.6303 70.5729C52.6752 70.3919 51.4873 69.201 51.4873 69.201L50.8934 69.4763C50.8934 69.4763 49.4751 69.1051 48.6523 68.4648Z" fill="#EF233C" stroke="#263238" stroke-linecap="round" stroke-linejoin="round"/>
<path d="M30.8634 45.789C30.8634 45.789 30.452 47.4007 30.6763 48.4184C30.9005 49.4361 32.4379 51.7901 35.0982 52.3531C37.7585 52.9161 44.4447 52.732 44.4447 52.732C44.4447 52.732 42.8331 55.1804 42.233 58.1283C41.837 60.0802 40.6229 62.8116 40.4357 63.2246C40.2486 63.6376 38.0369 64.3862 38.1157 64.7233C38.1946 65.0605 38.4529 67.1578 39.0144 68.0208C39.5758 68.8839 40.5131 69.2582 40.8874 69.3695C41.2617 69.4809 41.3375 69.4809 41.3375 69.1066C41.3375 68.7323 41.0745 68.208 41.0745 67.8692C41.0745 67.5305 41.0374 65.2399 41.1874 64.946C41.3375 64.6522 46.2435 56.9173 46.9921 55.649C47.7407 54.3808 48.9037 51.9015 49.2409 51.49C49.5781 51.0786 49.9895 50.5156 49.6523 49.8042C49.3152 49.0927 41.5741 46.7108 41.5741 46.7108L41.1673 45.2709L37.3007 45.0466L30.8634 45.789Z" fill="white" stroke="#263238" stroke-linecap="round" stroke-linejoin="round"/>
<path d="M41.5738 46.7094L41.167 45.2694L37.3004 45.0452L30.8554 45.7938C30.8554 45.7938 30.4347 47.4069 30.6683 48.4231C31.0395 50.0301 32.4299 51.7948 35.0902 52.3578C37.7504 52.9208 44.4367 52.7367 44.4367 52.7367C44.4367 52.7367 45.0708 49.5676 46.3097 48.3318C44.8218 47.8245 41.5738 46.7094 41.5738 46.7094Z" fill="#263238" stroke="#263238" stroke-linecap="round" stroke-linejoin="round"/>
<path d="M44.4453 52.7259C45.3376 52.4895 46.2036 52.1631 47.0298 51.7515L44.4453 52.7259Z" fill="white"/>
<path d="M44.4453 52.7259C45.3376 52.4895 46.2036 52.1631 47.0298 51.7515" stroke="#263238" stroke-linecap="round" stroke-linejoin="round"/>
<path d="M39.3882 66.5159C39.1222 65.8972 39.1392 64.6599 39.1732 63.9979C38.6071 64.2779 38.0766 64.5485 38.1153 64.7171C38.1895 65.0543 38.4524 67.1516 39.0139 68.0146C39.5753 68.8777 40.5126 69.252 40.8869 69.3633C41.2612 69.4747 41.337 69.4747 41.337 69.1004C41.337 68.7261 41.0756 68.2033 41.074 67.863C40.6822 67.8132 40.2942 67.7372 39.9125 67.6357C39.9125 67.6357 39.7625 67.3774 39.3882 66.5159Z" fill="#EF233C" stroke="#263238" stroke-linecap="round" stroke-linejoin="round"/>
<path d="M38.8451 30.9519L37.6836 31.4391C37.6836 31.4391 38.6209 40.2133 38.5838 41.4507C38.5466 42.688 38.4708 45.1627 38.4708 45.1627C38.4708 45.1627 40.0825 45.6499 41.1682 45.2756L41.094 41.0424C41.094 41.0424 41.8812 36.9947 41.5812 35.6832C41.2811 34.3716 40.3439 32.0485 40.3439 32.0485C40.3439 32.0485 39.9031 30.989 38.8451 30.9519Z" fill="white" stroke="#263238" stroke-linecap="round" stroke-linejoin="round"/>
<path d="M38.5119 34.7366L39.6378 33.0213L41.0221 35.032C41.0221 35.032 40.4236 32.2217 40.3478 32.0345C40.1683 31.6818 39.8968 31.3842 39.5621 31.173C39.112 30.873 38.5861 30.8637 38.2876 30.8359C37.9891 30.808 37.6875 31.436 37.6875 31.436L38.5119 34.7366Z" fill="white" stroke="#263238" stroke-linecap="round" stroke-linejoin="round"/>
<path d="M37.9867 30.8142C37.9867 30.8142 34.2206 31.6386 33.8973 31.8737C33.5741 32.1088 33.4333 32.8744 33.5137 33.1682C33.5942 33.4621 34.4557 39.8189 34.4557 39.8189L30.125 46.1448C30.125 46.1448 31.5387 47.3218 32.8626 47.5569C34.1865 47.792 37.0108 47.4393 38.0115 47.0279L39.0121 46.6165C39.0121 46.6165 39.4761 38.9358 38.9828 35.9043C38.4894 32.8728 37.9867 30.8142 37.9867 30.8142Z" fill="#EF233C" stroke="#263238" stroke-linecap="round" stroke-linejoin="round"/>
<path d="M49.5508 40.583L51.0217 39.9365C51.0217 39.9365 51.464 38.9652 51.5228 38.877C51.5816 38.7889 52.0811 38.6419 52.3162 38.4347C52.5513 38.2274 52.8761 37.8763 52.9643 37.847C53.0524 37.8176 53.1994 38.0821 52.9643 38.4347C52.7861 38.6846 52.5784 38.9121 52.3456 39.1121L53.7886 38.5832C53.7886 38.5832 54.347 37.6413 54.4939 38.0527C54.6409 38.4641 53.8753 39.7308 53.7005 40.1422C53.5257 40.5536 53.3463 40.7609 53.0231 40.8197C52.6998 40.8784 51.6991 41.0547 51.4934 41.0841C51.2877 41.1135 50.021 41.8482 50.021 41.8482L49.5508 40.583Z" fill="white" stroke="#263238" stroke-linecap="round" stroke-linejoin="round"/>
<path d="M51.5898 40.2891C51.8512 40.068 52.1528 39.8483 52.3137 39.8483C52.6385 39.8483 53.3438 39.9071 53.3438 39.9071C53.3438 39.9071 53.7567 38.9652 53.9624 38.8244C54.1681 38.6837 54.3445 38.8832 54.1681 39.1771" fill="white"/>
<path d="M51.5898 40.2891C51.8512 40.068 52.1528 39.8483 52.3137 39.8483C52.6385 39.8483 53.3438 39.9071 53.3438 39.9071C53.3438 39.9071 53.7567 38.9652 53.9624 38.8244C54.1681 38.6837 54.3445 38.8832 54.1681 39.1771" stroke="#263238" stroke-linecap="round" stroke-linejoin="round"/>
<path d="M39.957 31.5211C39.957 31.5211 40.899 35.6105 40.8696 37.1402C40.8402 38.6698 40.3669 39.4401 40.4566 39.9659C40.5463 40.4918 40.7505 46.6754 40.7505 46.6754L41.5748 46.7047C41.5748 46.7047 41.3691 44.3507 41.3985 43.9084C41.4279 43.466 41.7218 41.7013 41.7218 41.7013C41.7218 41.7013 43.1942 44.6152 43.3999 44.7621C43.6056 44.9091 50.4326 41.9967 50.4326 41.9967L49.9315 40.3186L44.7239 41.378C44.7239 41.378 43.6938 37.9645 43.5468 37.2283C43.3999 36.4921 43.2824 33.9045 42.8694 33.2565C42.4564 32.6084 39.957 31.5211 39.957 31.5211Z" fill="#EF233C" stroke="#263238" stroke-linecap="round" stroke-linejoin="round"/>
<path d="M41.7227 41.7013C41.7227 41.7013 41.899 40.9666 42.1944 39.024C42.3719 37.8642 42.3818 36.6849 42.2238 35.5223" stroke="#263238" stroke-linecap="round" stroke-linejoin="round"/>
<path d="M41.4 33.8116C41.5407 34.8711 41.6459 36.1796 41.4572 36.905C41.2418 37.7283 40.9663 38.5348 40.6328 39.3178" stroke="#263238" stroke-linecap="round" stroke-linejoin="round"/>
<path d="M41.1406 32.1707C41.1406 32.1707 41.2288 32.6145 41.3262 33.2533" stroke="#263238" stroke-linecap="round" stroke-linejoin="round"/>
<path d="M38.3242 37.8933C38.7062 38.8399 39.0434 39.7632 39.0434 39.7632" stroke="#263238" stroke-linecap="round" stroke-linejoin="round"/>
<path d="M36.543 31.2844C36.543 31.2844 37.2189 35.4341 37.7494 36.5524C37.8576 36.7797 37.9752 37.0489 38.0943 37.3257" stroke="#263238" stroke-linecap="round" stroke-linejoin="round"/>
<path d="M44.9023 39.7013L46.05 39.3765C46.05 39.3765 46.7862 38.4346 46.9625 38.1995C47.1388 37.9644 47.5502 37.9644 47.8457 37.7881C48.1411 37.6118 48.5215 36.9637 48.6685 37.0813C48.8154 37.1988 48.6685 37.7293 48.5138 37.8763C48.3168 38.0357 48.1102 38.1829 47.8951 38.3171C47.7776 38.4052 49.2779 38.0526 49.2779 38.0526C49.2779 38.0526 50.2492 37.1988 50.3079 37.4339C50.3667 37.669 49.8656 38.4934 49.8656 38.4934C49.8656 38.4934 49.1603 39.1693 48.8061 39.4632C48.4519 39.757 47.5997 39.8761 47.3646 39.9272C47.1295 39.9782 46.7181 40.0447 46.7181 40.0447L44.9518 40.6912L44.9023 39.7013Z" fill="white" stroke="#263238" stroke-linecap="round" stroke-linejoin="round"/>
<path d="M49.6372 38.6666C49.6372 38.6666 49.0186 38.9605 48.6953 39.1074L49.6372 38.6666Z" fill="white"/>
<path d="M49.6372 38.6666C49.6372 38.6666 49.0186 38.9605 48.6953 39.1074" stroke="#263238" stroke-linecap="round" stroke-linejoin="round"/>
<path d="M47.9016 38.3171L47.3711 38.4347" stroke="#263238" stroke-linecap="round" stroke-linejoin="round"/>
<path d="M34.5435 31.6387C34.5435 31.6387 32.8081 32.2264 32.5421 32.6688C32.2761 33.1111 33.2196 36.7288 33.9264 38.7301C34.6332 40.7315 36.5155 44.0847 36.7506 44.2022C36.9857 44.3198 43.1368 42.1436 44.5443 41.7013C45.9517 41.2589 46.1915 41.0254 46.1915 41.0254L45.5728 39.4354L38.5123 40.7006L36.3469 33.9045" fill="#EF233C"/>
<path d="M34.5435 31.6387C34.5435 31.6387 32.8081 32.2264 32.5421 32.6688C32.2761 33.1111 33.2196 36.7288 33.9264 38.7301C34.6332 40.7315 36.5155 44.0847 36.7506 44.2022C36.9857 44.3198 43.1368 42.1436 44.5443 41.7013C45.9517 41.2589 46.1915 41.0254 46.1915 41.0254L45.5728 39.4354L38.5123 40.7006L36.3469 33.9045" stroke="#263238" stroke-linecap="round" stroke-linejoin="round"/>
<path d="M43.0694 22.6772C43.0694 22.6772 43.7561 23.1412 43.4081 23.6408C43.0601 24.1403 42.3255 24.1744 42.3255 24.1744L41.6836 23.1629C41.6836 23.1629 42.4476 22.2565 43.0694 22.6772Z" fill="#263238" stroke="#263238" stroke-linecap="round" stroke-linejoin="round"/>
<path d="M42.3483 23.2804C42.3483 23.2804 43.4016 25.7798 43.3428 25.9948C43.284 26.2098 42.7938 26.5454 43.0165 26.8717C43.2392 27.1981 43.8919 27.8508 43.8749 27.942C43.8579 28.0333 43.0598 28.4988 43.0598 28.4988C43.0598 28.4988 42.5014 30.5095 42.2741 30.8034C42.0467 31.0972 40.1273 30.74 40.1273 30.74L39.7221 32.9919L37.4423 30.8668L36.5901 30.0625C36.5901 30.0625 35.826 26.632 37.4469 24.5703C39.0678 22.5086 42.3483 23.2804 42.3483 23.2804Z" fill="white" stroke="#263238" stroke-linecap="round" stroke-linejoin="round"/>
<path d="M42.2044 26.8022C42.2044 27.0126 42.1178 27.1827 42.0204 27.1811C41.9229 27.1796 41.8471 27.0064 41.8518 26.7945C41.8564 26.5826 41.9368 26.414 42.0343 26.4155C42.1317 26.4171 42.2075 26.5903 42.2044 26.8022Z" fill="#263238"/>
<path d="M42.2091 29.0016C42.0269 28.993 41.8483 28.9474 41.6843 28.8676C41.5202 28.7879 41.3741 28.6756 41.2548 28.5376C41.2548 28.5376 41.1976 29.4424 41.479 29.495C41.7605 29.5476 42.2091 29.0016 42.2091 29.0016Z" fill="#263238" stroke="#263238" stroke-linecap="round" stroke-linejoin="round"/>
<path d="M41.6172 25.9639C41.6172 25.9639 42.2034 25.4675 42.7277 26.049" stroke="#263238" stroke-linecap="round" stroke-linejoin="round"/>
<path d="M40.127 30.7401L39.1758 30.5127L39.8919 31.8413L40.127 30.7401Z" fill="#263238" stroke="#263238" stroke-linecap="round" stroke-linejoin="round"/>
<path d="M42.3502 23.2804C42.3502 23.2804 42.1429 23.9316 41.1299 24.7822C40.1168 25.6329 39.2104 26.1742 39.2135 26.4093C39.2166 26.6444 39.3682 26.8641 39.164 26.9213C38.9976 26.9425 38.8286 26.914 38.6784 26.8393C38.6784 26.8393 38.1866 28.2421 38.1123 29.232C38.0822 29.8853 38.1815 30.5382 38.4046 31.153C38.4046 31.153 36.2223 31.2705 34.9633 30.3147C33.7043 29.3588 33.3501 28.2762 33.4893 27.3373C33.6285 26.3985 34.0276 23.4335 35.964 21.9812C37.9004 20.5289 40.6751 20.5892 41.6171 21.1816C42.559 21.774 43.2411 22.2086 43.0678 22.6772C42.8946 23.1459 42.3502 23.2804 42.3502 23.2804Z" fill="#263238" stroke="#263238" stroke-linecap="round" stroke-linejoin="round"/>
<path d="M37.7757 52.8202C37.718 52.8205 37.6609 52.8078 37.6087 52.7831C37.4983 52.7228 37.4137 52.6244 37.3707 52.5062C37.3277 52.3881 37.3293 52.2583 37.3751 52.1412C38.0742 50.2326 38.8754 46.8284 38.0541 45.8122C37.8623 45.6576 36.707 45.3482 30.4832 45.9917L30.03 46.0381C29.5954 46.0752 29.2242 46.7031 29.1283 46.9197C29.1079 46.9749 29.0758 47.0252 29.0343 47.0671C28.9928 47.1089 28.9429 47.1414 28.8878 47.1624C28.8327 47.1833 28.7738 47.1923 28.7149 47.1885C28.6561 47.1848 28.5988 47.1686 28.5468 47.1408C28.4403 47.0726 28.362 46.9682 28.3262 46.8469C28.2904 46.7256 28.2995 46.5955 28.3519 46.4804C28.4122 46.3443 28.9705 45.1441 29.9635 45.0575L30.4043 45.0126C37.0364 44.3228 38.3078 44.6708 38.6944 45.1472C40.1545 46.9537 38.3851 51.9525 38.1763 52.517C38.1491 52.6028 38.096 52.6781 38.0242 52.7324C37.9525 52.7867 37.8657 52.8173 37.7757 52.8202Z" fill="white" stroke="#263238" stroke-linecap="round" stroke-linejoin="round"/>
<path d="M65.1156 38.2861H54.9525L52.6016 46.2499H62.7647L65.1156 38.2861Z" fill="#D9D9D9" stroke="#263238" stroke-linecap="round" stroke-linejoin="round"/>
<path d="M45.1674 45.8137L45.0391 46.2499H62.7654L62.8953 45.8137H45.1674Z" fill="#D9D9D9" stroke="#263238" stroke-linecap="round" stroke-linejoin="round"/>
<path d="M52.7495 45.8137L52.6211 46.2499H62.7657L62.8956 45.8137H52.7495Z" fill="#263238" stroke="#263238" stroke-linecap="round" stroke-linejoin="round"/>
<path d="M62.6183 47.4456H60.8984V70.4414H62.6183V47.4456Z" fill="white" stroke="#263238" stroke-linecap="round" stroke-linejoin="round"/>
<path d="M62.6183 47.4456H60.8984V51.2442H62.6183V47.4456Z" fill="#263238" stroke="#263238" stroke-linecap="round" stroke-linejoin="round"/>
<path d="M83.514 46.2546H39.8516V47.5322H83.514V46.2546Z" fill="white" stroke="#263238" stroke-linecap="round" stroke-linejoin="round"/>
<path d="M70.7327 70.6286H52.6367C54.427 69.7867 56.381 69.3504 58.3594 69.3511H65.0302C67.0085 69.3501 68.9627 69.7863 70.7528 70.6286H70.7327Z" fill="white" stroke="#263238" stroke-linecap="round" stroke-linejoin="round"/>
</svg>
