<svg width="116" height="78" viewBox="0 0 116 78" fill="none" xmlns="http://www.w3.org/2000/svg">
<path d="M104.206 50.3714H76.2504C75.7505 50.3714 75.3438 49.9646 75.3438 49.4647V8.74503C75.3438 8.24515 75.7505 7.83838 76.2504 7.83838H104.206C104.706 7.83838 105.112 8.245 105.112 8.74503V49.4647C105.112 49.9648 104.706 50.3714 104.206 50.3714ZM76.2504 7.87705C75.7717 7.87705 75.3824 8.26634 75.3824 8.74503V49.4647C75.3824 49.9434 75.7719 50.3327 76.2504 50.3327H104.206C104.684 50.3327 105.074 49.9433 105.074 49.4647V8.74503C105.074 8.2665 104.684 7.87705 104.206 7.87705H76.2504Z" fill="#E0E0E0"/>
<path d="M71.9677 50.3714H44.0121C43.5122 50.3714 43.1055 49.9646 43.1055 49.4647V8.74503C43.1055 8.24515 43.5121 7.83838 44.0121 7.83838H71.9677C72.4675 7.83838 72.8743 8.245 72.8743 8.74503V49.4647C72.8743 49.9648 72.4675 50.3714 71.9677 50.3714ZM44.0121 7.87705C43.5336 7.87705 43.1441 8.26634 43.1441 8.74503V49.4647C43.1441 49.9434 43.5336 50.3327 44.0121 50.3327H71.9677C72.4464 50.3327 72.8357 49.9433 72.8357 49.4647V8.74503C72.8357 8.2665 72.4462 7.87705 71.9677 7.87705H44.0121Z" fill="#E0E0E0"/>
<path d="M39.7527 50.3714H11.7973C11.2974 50.3714 10.8906 49.9646 10.8906 49.4647V8.74503C10.8906 8.24515 11.2972 7.83838 11.7973 7.83838H39.7527C40.2525 7.83838 40.6593 8.245 40.6593 8.74503V49.4647C40.6593 49.9648 40.2525 50.3714 39.7527 50.3714ZM11.7973 7.87705C11.3187 7.87705 10.9293 8.26634 10.9293 8.74503V49.4647C10.9293 49.9434 11.3187 50.3327 11.7973 50.3327H39.7527C40.2314 50.3327 40.6207 49.9433 40.6207 49.4647V8.74503C40.6207 8.2665 40.2314 7.87705 39.7527 7.87705H11.7973Z" fill="#E0E0E0"/>
<path d="M116 59.8167H0V59.8352H116V59.8167Z" fill="#E0E0E0"/>
<path d="M109.713 64.3601H101.094V64.4252H109.713V64.3601Z" fill="#EBEBEB"/>
<path d="M78.8287 65.0664H76.5664V65.1315H78.8287V65.0664Z" fill="#EBEBEB"/>
<path d="M17.5256 62.3809H6.28516V62.446H17.5256V62.3809Z" fill="#EBEBEB"/>
<path d="M21.4917 62.3809H19.8438V62.446H21.4917V62.3809Z" fill="#EBEBEB"/>
<path d="M51.2251 63.4795H26.8477V63.5446H51.2251V63.4795Z" fill="#EBEBEB"/>
<path d="M31.5512 11.4482H16.9375V26.6681H31.5512V11.4482Z" fill="#E0E0E0"/>
<path d="M30.8759 12.1667H17.6094V25.9496H30.8759V12.1667Z" fill="white"/>
<path d="M27.7927 17.2498L25.375 18.9856L25.4427 19.0798L27.8603 17.3441L27.7927 17.2498Z" fill="#E0E0E0"/>
<path d="M25.3141 19.3989L25.2539 19.498L27.7431 21.0087L27.8033 20.9096L25.3141 19.3989Z" fill="#E0E0E0"/>
<path d="M24.3387 20.5007H24.2227V22.1385H24.3387V20.5007Z" fill="#E0E0E0"/>
<path d="M24.2807 23.098C24.7075 23.098 25.0536 22.752 25.0536 22.3251C25.0536 21.8983 24.7075 21.5522 24.2807 21.5522C23.8538 21.5522 23.5078 21.8983 23.5078 22.3251C23.5078 22.752 23.8538 23.098 24.2807 23.098Z" fill="#E6E6E6"/>
<path d="M28.7744 21.1558C28.7744 21.6986 28.3344 22.1387 27.7915 22.1387C27.2486 22.1387 26.8086 21.6986 26.8086 21.1558C26.8086 20.6129 27.2486 20.1729 27.7915 20.1729C28.3344 20.1729 28.7744 20.6129 28.7744 21.1558Z" fill="#F0F0F0"/>
<path d="M28.3119 17.3005C28.3119 17.5991 28.0698 17.8412 27.7712 17.8412C27.4725 17.8412 27.2305 17.5991 27.2305 17.3005C27.2305 17.0018 27.4725 16.7598 27.7712 16.7598C28.0698 16.7598 28.3119 17.0018 28.3119 17.3005Z" fill="#E6E6E6"/>
<path d="M23.9589 19.2332L21.6328 21.0208L21.7035 21.1127L24.0296 19.3252L23.9589 19.2332Z" fill="#E0E0E0"/>
<path d="M24.3655 19.0041L21.25 16.9396L21.314 16.8429L24.2244 18.7716L23.8954 15.6141L24.0108 15.6021L24.3655 19.0041Z" fill="#E0E0E0"/>
<path d="M24.5429 15.6081C24.5429 15.9338 24.2789 16.1978 23.953 16.1978C23.6271 16.1978 23.3633 15.9338 23.3633 15.6081C23.3633 15.2823 23.6273 15.0183 23.953 15.0183C24.2788 15.0183 24.5429 15.2823 24.5429 15.6081Z" fill="#F0F0F0"/>
<path d="M22.1488 21.067C22.1488 21.5449 21.7614 21.9325 21.2835 21.9325C20.8056 21.9325 20.418 21.5451 20.418 21.067C20.418 20.5889 20.8054 20.2017 21.2835 20.2017C21.7616 20.2017 22.1488 20.5891 22.1488 21.067Z" fill="#E6E6E6"/>
<path d="M22.0575 16.8344C22.153 16.19 21.708 15.5901 21.0635 15.4946C20.4191 15.3991 19.8192 15.8442 19.7237 16.4886C19.6282 17.1331 20.0732 17.7329 20.7177 17.8284C21.3621 17.9239 21.962 17.4789 22.0575 16.8344Z" fill="#E6E6E6"/>
<path d="M24.4569 20.7378C25.4061 20.7378 26.1756 19.9684 26.1756 19.0192C26.1756 18.07 25.4061 17.3005 24.4569 17.3005C23.5077 17.3005 22.7383 18.07 22.7383 19.0192C22.7383 19.9684 23.5077 20.7378 24.4569 20.7378Z" fill="#F0F0F0"/>
<g opacity="0.2">
<path d="M21.4062 15.8689C21.3437 15.7818 21.1257 15.6064 20.6811 15.7226C20.4153 15.8151 20.2628 15.937 20.1025 16.1683C19.9423 16.3997 19.8998 16.7784 20.03 17.028C20.0708 17.1062 20.1301 17.1777 20.209 17.2175C20.2878 17.2572 20.3879 17.2606 20.4618 17.2123C20.6035 17.1199 20.586 16.9077 20.6675 16.7593C20.7477 16.6136 20.9147 16.5437 21.0678 16.4789C21.2209 16.4141 21.3855 16.3301 21.4454 16.175C21.484 16.0749 21.4687 15.956 21.4062 15.8689Z" fill="white"/>
</g>
<g opacity="0.2">
<path d="M24.0813 15.2446C24.0564 15.2099 23.9699 15.1403 23.7932 15.1864C23.6875 15.2232 23.6269 15.2716 23.5633 15.3635C23.4996 15.4555 23.4827 15.6059 23.5344 15.705C23.5506 15.7361 23.5741 15.7644 23.6055 15.7802C23.6369 15.796 23.6767 15.7974 23.7059 15.7782C23.7622 15.7414 23.7553 15.6571 23.7877 15.5981C23.8196 15.5403 23.886 15.5125 23.9467 15.4868C24.0075 15.461 24.0729 15.4277 24.0968 15.366C24.1121 15.3262 24.106 15.2789 24.0811 15.2443L24.0813 15.2446Z" fill="white"/>
</g>
<g opacity="0.2">
<path d="M27.964 16.9396C27.9391 16.905 27.8527 16.8354 27.6759 16.8815C27.5702 16.9183 27.5096 16.9667 27.4461 17.0586C27.3825 17.1505 27.3655 17.3009 27.4173 17.4001C27.4335 17.4312 27.457 17.4595 27.4884 17.4753C27.5198 17.491 27.5596 17.4924 27.5888 17.4732C27.6451 17.4364 27.6381 17.3521 27.6706 17.2932C27.7025 17.2354 27.7688 17.2077 27.8296 17.1819C27.8904 17.1562 27.9558 17.1228 27.9797 17.0612C27.995 17.0215 27.9889 16.9743 27.964 16.9396Z" fill="white"/>
</g>
<g opacity="0.2">
<path d="M28.0531 20.5566C28.0108 20.498 27.8641 20.3798 27.5646 20.4581C27.3855 20.5204 27.2828 20.6025 27.1749 20.7584C27.0669 20.9143 27.0383 21.1694 27.126 21.3375C27.1535 21.3903 27.1934 21.4384 27.2465 21.4651C27.2995 21.4919 27.3671 21.4942 27.4169 21.4617C27.5124 21.3994 27.5006 21.2565 27.5555 21.1566C27.6095 21.0583 27.7221 21.0113 27.8251 20.9677C27.9281 20.9241 28.0391 20.8675 28.0795 20.7629C28.1055 20.6955 28.0953 20.6154 28.0531 20.5566Z" fill="white"/>
</g>
<g opacity="0.2">
<path d="M24.5685 21.8062C24.5294 21.7518 24.3931 21.6421 24.1152 21.7148C23.9491 21.7726 23.8536 21.8489 23.7536 21.9935C23.6535 22.1381 23.6267 22.3749 23.7082 22.5308C23.7338 22.5797 23.7709 22.6244 23.8201 22.6493C23.8692 22.6742 23.9319 22.6764 23.9781 22.6462C24.0668 22.5884 24.0558 22.4556 24.1068 22.363C24.1569 22.2719 24.2613 22.2283 24.3571 22.1878C24.4528 22.1472 24.5557 22.0948 24.5931 21.9978C24.6172 21.9353 24.6078 21.8608 24.5686 21.8064L24.5685 21.8062Z" fill="white"/>
</g>
<g opacity="0.2">
<path d="M21.553 20.553C21.5139 20.4985 21.3776 20.389 21.0997 20.4616C20.9336 20.5194 20.8382 20.5957 20.7379 20.7403C20.6379 20.8849 20.6111 21.1217 20.6926 21.2776C20.7181 21.3265 20.7553 21.3712 20.8044 21.3961C20.8536 21.421 20.9163 21.4231 20.9625 21.393C21.0511 21.3351 21.0401 21.2024 21.0912 21.1098C21.1413 21.0187 21.2457 20.9751 21.3414 20.9345C21.4372 20.894 21.54 20.8416 21.5775 20.7446C21.6016 20.6821 21.5922 20.6074 21.553 20.553Z" fill="white"/>
</g>
<g opacity="0.2">
<path d="M24.8957 17.8087C24.8148 17.6959 24.5327 17.4692 23.9575 17.6194C23.6135 17.7391 23.4162 17.8967 23.2089 18.1961C23.0017 18.4956 22.9466 18.9856 23.115 19.3083C23.1679 19.4096 23.2445 19.502 23.3466 19.5533C23.4485 19.6047 23.5781 19.6092 23.6737 19.5468C23.8571 19.4271 23.8344 19.1526 23.9399 18.9607C24.0435 18.7723 24.2597 18.6818 24.4577 18.598C24.6557 18.5141 24.8688 18.4054 24.9463 18.2048C24.9962 18.0753 24.9766 17.9213 24.8956 17.8085L24.8957 17.8087Z" fill="white"/>
</g>
<path d="M52.5263 33.3396H36.5938V34.2311H52.5263V33.3396Z" fill="#E6E6E6"/>
<path d="M39.0103 34.0171H38.2305V35.3961H39.0103V34.0171Z" fill="#E6E6E6"/>
<path d="M50.7447 34.0171H49.9648V35.3961H50.7447V34.0171Z" fill="#E6E6E6"/>
<path d="M44.5394 32.5717L43.4479 27.2664H39.3367L38.2452 32.5717C38.1646 32.9638 38.4243 33.3397 38.776 33.3397H44.0084C44.3601 33.3397 44.6198 32.9638 44.5392 32.5717H44.5394Z" fill="#EBEBEB"/>
<path d="M41.4989 27.2663H39.2313C39.1079 27.2663 39.0078 27.1663 39.0078 27.0428C39.0078 26.9194 39.1079 26.8193 39.2313 26.8193H41.4989V27.2663Z" fill="#E6E6E6"/>
<path d="M41.2812 27.2663H43.5488C43.6722 27.2663 43.7723 27.1663 43.7723 27.0428C43.7723 26.9194 43.6722 26.8193 43.5488 26.8193H41.2812V27.2663Z" fill="#E6E6E6"/>
<path d="M43.2122 27.2664H39.5909L38.5781 32.5178C38.5331 32.7513 38.6882 32.9728 38.8972 32.9728H43.9061C44.1149 32.9728 44.2702 32.7515 44.2252 32.5178L43.2124 27.2664H43.2122Z" fill="#EBEBEB"/>
<path opacity="0.3" d="M40.1876 27.0718H39.3744C39.3337 27.0718 39.3008 27.0389 39.3008 26.9982C39.3008 26.9575 39.3337 26.9246 39.3744 26.9246H40.1876C40.2283 26.9246 40.2613 26.9575 40.2613 26.9982C40.2613 27.0389 40.2283 27.0718 40.1876 27.0718Z" fill="white"/>
<path opacity="0.3" d="M40.4804 27.0718H40.3978C40.3572 27.0718 40.3242 27.0389 40.3242 26.9982C40.3242 26.9575 40.3572 26.9246 40.3978 26.9246H40.4804C40.5211 26.9246 40.5541 26.9575 40.5541 26.9982C40.5541 27.0389 40.5211 27.0718 40.4804 27.0718Z" fill="white"/>
<path d="M44.225 32.5178L43.7426 30.0164L39.055 30.0451L38.5781 32.5179C38.5331 32.7515 38.6882 32.973 38.8972 32.973H43.9061C44.1149 32.973 44.2702 32.7516 44.2252 32.5179L44.225 32.5178Z" fill="#E0E0E0"/>
<path d="M41.4038 29.916C40.1064 29.916 39.0547 29.9737 39.0547 30.045C39.0547 30.1163 40.1064 30.174 41.4038 30.174C42.7011 30.174 43.7528 30.1163 43.7528 30.045C43.7528 29.9737 42.7011 29.916 41.4038 29.916Z" fill="#F5F5F5"/>
<g opacity="0.3">
<path d="M40.3435 28.138C40.4839 28.2101 40.445 28.4022 40.433 28.4793C40.3475 29.0329 40.3204 29.442 40.2043 29.9929C40.1684 30.1629 40.1067 30.3347 39.9865 30.4603C39.8663 30.5859 39.654 30.6414 39.5173 30.5342C39.3691 30.4181 39.3844 30.1934 39.4139 30.0073C39.475 29.6226 39.5361 29.238 39.5972 28.8533C39.6218 28.698 39.6475 28.5398 39.7186 28.3997C39.7899 28.2596 39.9157 28.1378 40.0708 28.1126C40.0708 28.1126 40.2587 28.0945 40.3435 28.138Z" fill="white"/>
</g>
<path opacity="0.3" d="M39.9064 31.7113C39.8504 31.9665 39.6617 32.1421 39.4848 32.1032C39.3078 32.0644 39.2098 31.8261 39.2657 31.5709C39.3217 31.3157 39.5104 31.1401 39.6874 31.179C39.8643 31.2178 39.9624 31.4561 39.9064 31.7113Z" fill="white"/>
<path d="M51.3285 32.5717L50.237 27.2664H46.1258L45.0343 32.5717C44.9536 32.9638 45.2134 33.3397 45.5651 33.3397H50.7975C51.1492 33.3397 51.4089 32.9638 51.3283 32.5717H51.3285Z" fill="#F0F0F0"/>
<path d="M48.2879 27.2663H46.0204C45.8969 27.2663 45.7969 27.1663 45.7969 27.0428C45.7969 26.9194 45.8969 26.8193 46.0204 26.8193H48.2879V27.2663Z" fill="#F0F0F0"/>
<path d="M48.0703 27.2663H50.3379C50.4613 27.2663 50.5614 27.1663 50.5614 27.0428C50.5614 26.9194 50.4613 26.8193 50.3379 26.8193H48.0703V27.2663Z" fill="#F0F0F0"/>
<path d="M50.0013 27.2664H46.3799L45.3672 32.5178C45.3222 32.7513 45.4773 32.9728 45.6863 32.9728H50.6951C50.9039 32.9728 51.0592 32.7515 51.0142 32.5178L50.0013 27.2664Z" fill="#F5F5F5"/>
<path opacity="0.3" d="M46.9767 27.0718H46.1635C46.1228 27.0718 46.0898 27.0389 46.0898 26.9982C46.0898 26.9575 46.1228 26.9246 46.1635 26.9246H46.9767C47.0174 26.9246 47.0503 26.9575 47.0503 26.9982C47.0503 27.0389 47.0174 27.0718 46.9767 27.0718Z" fill="white"/>
<path opacity="0.3" d="M47.2695 27.0718H47.1869C47.1462 27.0718 47.1133 27.0389 47.1133 26.9982C47.1133 26.9575 47.1462 26.9246 47.1869 26.9246H47.2695C47.3102 26.9246 47.3431 26.9575 47.3431 26.9982C47.3431 27.0389 47.3102 27.0718 47.2695 27.0718Z" fill="white"/>
<path d="M47.1326 28.138C47.273 28.2101 47.2342 28.4022 47.2221 28.4793C47.1366 29.0329 47.1095 29.442 46.9934 29.9929C46.9575 30.1629 46.8958 30.3347 46.7756 30.4603C46.6554 30.5857 46.443 30.6414 46.3063 30.5342C46.1581 30.4181 46.1735 30.1934 46.203 30.0073C46.2641 29.6226 46.3252 29.238 46.3861 28.8533C46.4107 28.698 46.4364 28.5398 46.5075 28.3997C46.5788 28.2596 46.7046 28.1378 46.8597 28.1126C46.8597 28.1126 47.0476 28.0945 47.1322 28.138H47.1326Z" fill="#FAFAFA"/>
<path d="M46.504 31.5648C46.448 31.82 46.2593 31.9956 46.0824 31.9568C45.9055 31.9179 45.8074 31.6796 45.8634 31.4244C45.9194 31.1692 46.1081 30.9937 46.285 31.0325C46.462 31.0713 46.56 31.3096 46.504 31.5648Z" fill="#FAFAFA"/>
<path d="M100.145 50.5407C99.3332 50.7968 98.8152 51.7496 99.0416 52.5699C99.2681 53.3903 100.201 53.9426 101.029 53.7462C101.196 54.5013 102.034 55.037 102.789 54.8718C103.544 54.7068 104.082 53.8704 103.919 53.1145C104.951 53.5106 106.25 52.9335 106.649 51.9024C107.047 50.8711 106.473 49.5706 105.442 49.17C105.929 48.2894 105.768 47.0983 105.065 46.3783C104.362 45.6583 103.175 45.4687 102.283 45.934C101.391 46.3992 100.867 47.4808 101.055 48.4692C100.506 48.223 99.7842 48.4921 99.5302 49.0373C99.2764 49.5824 99.5353 50.3085 100.077 50.5699" fill="#F0F0F0"/>
<path d="M108.811 48.1671C109.404 48.1671 109.884 47.6867 109.884 47.0942C109.884 46.5016 109.404 46.0212 108.811 46.0212C108.219 46.0212 107.738 46.5016 107.738 47.0942C107.738 47.6867 108.219 48.1671 108.811 48.1671Z" fill="#F0F0F0"/>
<path d="M109.808 29.7947H102.078V32.394H109.808V29.7947Z" fill="#F0F0F0"/>
<path d="M108.066 32.394H100.336V34.9934H108.066V32.394Z" fill="#E6E6E6"/>
<path d="M58.7574 9.90356H51.0273V12.5029H58.7574V9.90356Z" fill="#F0F0F0"/>
<path d="M57.0152 12.5029H49.2852V15.1023H57.0152V12.5029Z" fill="#E6E6E6"/>
<path d="M72.2145 53.5918H64.4844V56.1911H72.2145V53.5918Z" fill="#E6E6E6"/>
<path d="M95.027 6.19092H87.2969V8.79025H95.027V6.19092Z" fill="#E6E6E6"/>
<path d="M14.7926 36.3708H7.0625V38.9702H14.7926V36.3708Z" fill="#E6E6E6"/>
<path d="M110.418 69.8063C110.418 70.3302 87.5865 70.7547 59.422 70.7547C31.2575 70.7547 8.42578 70.3302 8.42578 69.8063C8.42578 69.2825 31.2575 68.8579 59.422 68.8579C87.5865 68.8579 110.418 69.2825 110.418 69.8063Z" fill="#F5F5F5"/>
<path d="M57.1769 63.5434C57.1569 63.5434 57.1399 63.528 57.1384 63.5077C57.0972 62.962 55.8619 62.496 55.8494 62.4914C55.8294 62.484 55.8192 62.4617 55.8266 62.4417C55.8341 62.4218 55.8565 62.4114 55.8764 62.419C55.9292 62.4386 57.1707 62.9073 57.2157 63.5021C57.2172 63.5235 57.2013 63.542 57.1801 63.5436H57.177L57.1769 63.5434Z" fill="#263238"/>
<path d="M52.957 56.1594V59.7194C52.957 61.1154 54.0448 62.2545 55.4186 62.3427V66.6304C55.4035 67.3871 54.828 67.6827 54.551 67.7815H53.9446V68.0183H57.41V67.7815H56.7312C56.4542 67.6827 55.8787 67.3871 55.8637 66.6304V62.337C57.1882 62.1996 58.2211 61.0803 58.2211 59.7194V56.1594H52.9572H52.957Z" fill="#EF233C"/>
<path opacity="0.7" d="M58.221 59.7194V56.1594H52.957V59.7194C52.957 61.1154 54.0448 62.2545 55.4186 62.3427V66.6304C55.4035 67.3871 54.828 67.6827 54.551 67.7815H53.9446V68.0183H57.41V67.7815H56.7312C56.4542 67.6827 55.8787 67.3871 55.8637 66.6304V62.3368C57.1882 62.1995 58.2211 61.0801 58.2211 59.7192L58.221 59.7194Z" fill="white"/>
<path opacity="0.5" d="M58.221 56.1232C58.221 56.2543 57.0426 56.3606 55.589 56.3606C54.1354 56.3606 52.957 56.2543 52.957 56.1232C52.957 55.992 54.1354 55.8857 55.589 55.8857C57.0426 55.8857 58.221 55.992 58.221 56.1232Z" fill="white"/>
<path d="M53.4406 56.2603C53.4129 56.2581 53.3946 56.9052 53.9606 56.9951C54.5266 57.0849 54.4996 56.5908 54.7871 56.8154C55.0746 57.0399 54.9218 57.3544 55.3711 57.3814C55.8204 57.4083 55.7306 56.7345 56.1708 56.6896C56.6109 56.6448 56.8835 56.3354 56.8835 56.3354C56.8835 56.3354 55.1487 56.3948 53.4406 56.2603Z" fill="#EF233C"/>
<path d="M56.5905 63.3881L56.4102 64.3683L57.525 66.7259L59.3035 65.8848L58.1152 63.6112L57.138 63.1431L56.5905 63.3881Z" fill="#EF233C"/>
<path d="M57.1019 63.5883C57.1005 63.5883 57.099 63.5883 57.0976 63.588C56.6816 63.5419 56.2788 63.4271 55.9008 63.2469C55.7501 63.1752 55.5794 63.0819 55.4547 62.9339C55.3209 62.7749 55.2693 62.5713 55.3199 62.4026C55.326 62.3823 55.3477 62.3703 55.368 62.3768C55.3884 62.3828 55.4001 62.4044 55.3938 62.425C55.3506 62.5689 55.3967 62.7447 55.5138 62.8841C55.6289 63.0208 55.7908 63.109 55.9339 63.1773C56.3042 63.3538 56.6984 63.4661 57.106 63.5114C57.1271 63.5137 57.1425 63.5329 57.1401 63.5539C57.138 63.5737 57.1211 63.5884 57.1018 63.5884L57.1019 63.5883Z" fill="#263238"/>
<path d="M57.2401 63.6362C57.2401 63.7294 57.1645 63.8051 57.0712 63.8051C56.978 63.8051 56.9023 63.7294 56.9023 63.6362C56.9023 63.5429 56.978 63.4673 57.0712 63.4673C57.1645 63.4673 57.2401 63.5429 57.2401 63.6362Z" fill="#263238"/>
<path d="M58.2214 65.6805C58.207 65.6805 58.1931 65.6723 58.1864 65.6586L57.5077 64.2438C57.4984 64.2245 57.5066 64.2014 57.526 64.1922C57.5452 64.1832 57.5684 64.1911 57.5775 64.2103L58.2562 65.625C58.2654 65.6443 58.2572 65.6674 58.2381 65.6767C58.2327 65.6793 58.2269 65.6804 58.2214 65.6804V65.6805Z" fill="#263238"/>
<path d="M57.8574 65.6154C57.8437 65.6154 57.8302 65.6078 57.8233 65.5949L57.3248 64.6522C57.3149 64.6333 57.322 64.6099 57.3409 64.5999C57.3596 64.5901 57.3829 64.5969 57.3931 64.616L57.8916 65.5587C57.9015 65.5775 57.8944 65.6009 57.8755 65.6109C57.8698 65.614 57.8636 65.6154 57.8574 65.6154Z" fill="#263238"/>
<path d="M103.474 58.6509V53.9521H101.485V58.6522C99.8229 59.0922 98.5977 60.6064 98.5977 62.4068C98.5977 63.7327 99.2619 64.9033 100.276 65.6041L104.709 65.5893C105.711 64.8868 106.366 63.7234 106.366 62.407C106.366 60.6048 105.138 59.0894 103.474 58.6509Z" fill="#EF233C"/>
<path opacity="0.7" d="M103.474 58.6509V53.9521H101.485V58.6522C99.8229 59.0922 98.5977 60.6064 98.5977 62.4068C98.5977 63.7327 99.2619 64.9033 100.276 65.6041L104.709 65.5893C105.711 64.8868 106.366 63.7234 106.366 62.407C106.366 60.6048 105.138 59.0894 103.474 58.6509Z" fill="white"/>
<path opacity="0.3" d="M100.384 65.264C99.4762 64.5965 98.9375 63.5362 98.9375 62.407C98.9375 60.8005 100.021 59.3916 101.572 58.9808L101.825 58.9138V54.0732H103.134V58.9131L103.387 58.9799C104.941 59.3893 106.026 60.7986 106.026 62.4071C106.026 63.5269 105.494 64.5818 104.599 65.2499L100.384 65.2642V65.264Z" fill="#EF233C"/>
<path d="M103.661 53.5393H101.269C101.203 53.5393 101.148 53.5935 101.148 53.6603V53.9523C101.148 54.0191 101.203 54.0732 101.269 54.0732H103.661C103.728 54.0732 103.782 54.0191 103.782 53.9523V53.6603C103.782 53.5935 103.728 53.5393 103.661 53.5393Z" fill="#EF233C"/>
<path opacity="0.7" d="M103.661 53.5393H101.269C101.203 53.5393 101.148 53.5935 101.148 53.6603V53.9523C101.148 54.0191 101.203 54.0732 101.269 54.0732H103.661C103.728 54.0732 103.782 54.0191 103.782 53.9523V53.6603C103.782 53.5935 103.728 53.5393 103.661 53.5393Z" fill="white"/>
<path d="M98.9375 62.407C98.9375 63.5362 99.4762 64.5964 100.384 65.264L104.599 65.2498C105.494 64.5816 106.026 63.5268 106.026 62.407H98.9375Z" fill="#EF233C"/>
<path d="M106.016 62.407C106.016 62.5063 104.431 62.5867 102.477 62.5867C100.522 62.5867 98.9375 62.5063 98.9375 62.407C98.9375 62.3077 100.522 62.2273 102.477 62.2273C104.431 62.2273 106.016 62.3077 106.016 62.407Z" fill="#EF233C"/>
<path opacity="0.3" d="M106.016 62.407C106.016 62.5063 104.431 62.5867 102.477 62.5867C100.522 62.5867 98.9375 62.5063 98.9375 62.407C98.9375 62.3077 100.522 62.2273 102.477 62.2273C104.431 62.2273 106.016 62.3077 106.016 62.407Z" fill="black"/>
<path opacity="0.3" d="M103.473 54.0732H101.484V54.2523H103.473V54.0732Z" fill="black"/>
<g opacity="0.3">
<path d="M101.522 59.6461C101.695 59.714 101.829 59.8686 101.84 60.0541C101.851 60.2395 101.77 60.419 101.666 60.5728C101.562 60.7267 101.434 60.8632 101.332 61.0183C101.21 61.203 101.128 61.4102 101.026 61.6065C100.924 61.8028 100.797 61.9941 100.612 62.115C100.427 62.236 100.173 62.2726 99.9848 62.1568C99.7555 62.0159 99.6939 61.7083 99.7092 61.4394C99.7546 60.6394 100.325 59.8943 101.085 59.6416C101.085 59.6416 101.329 59.5701 101.522 59.6459V59.6461Z" fill="white"/>
</g>
<path opacity="0.3" d="M100.563 63.2688C100.563 63.5333 100.349 63.7478 100.084 63.7478C99.8198 63.7478 99.6055 63.5333 99.6055 63.2688C99.6055 63.0043 99.8198 62.7898 100.084 62.7898C100.349 62.7898 100.563 63.0043 100.563 63.2688Z" fill="white"/>
<path opacity="0.3" d="M104.59 64.8672C104.785 64.4226 105.084 63.7665 105.236 63.3172C105.399 62.8744 105.584 62.1713 105.711 61.7065C106.335 62.7965 105.759 64.4124 104.59 64.8672Z" fill="white"/>
<path opacity="0.1" d="M101.489 63.4746C101.489 63.5784 101.405 63.6624 101.301 63.6624C101.197 63.6624 101.113 63.5783 101.113 63.4746C101.113 63.371 101.197 63.2869 101.301 63.2869C101.405 63.2869 101.489 63.3708 101.489 63.4746Z" fill="black"/>
<path opacity="0.1" d="M103.258 64.3382C103.258 64.4419 103.174 64.5259 103.071 64.5259C102.967 64.5259 102.883 64.4418 102.883 64.3382C102.883 64.2345 102.967 64.1504 103.071 64.1504C103.174 64.1504 103.258 64.2345 103.258 64.3382Z" fill="black"/>
<path opacity="0.1" d="M103.537 64.1117C103.537 64.1833 103.479 64.2415 103.407 64.2415C103.335 64.2415 103.277 64.1833 103.277 64.1117C103.277 64.0401 103.335 63.9819 103.407 63.9819C103.479 63.9819 103.537 64.0401 103.537 64.1117Z" fill="black"/>
<path opacity="0.1" d="M101.804 64.4416C101.996 64.4416 102.151 64.2863 102.151 64.0947C102.151 63.9031 101.996 63.7478 101.804 63.7478C101.612 63.7478 101.457 63.9031 101.457 64.0947C101.457 64.2863 101.612 64.4416 101.804 64.4416Z" fill="black"/>
<path d="M106.639 67.6323L105.516 64.9081H105.918C106.045 64.9081 106.148 64.8051 106.148 64.678V64.5895C106.148 64.4624 106.045 64.3594 105.918 64.3594H99.0431C98.916 64.3594 98.813 64.4624 98.813 64.5895V64.678C98.813 64.8051 98.916 64.9081 99.0431 64.9081H99.4452L98.3298 67.6374C98.2817 67.7487 98.3703 67.7967 98.4841 67.8423C98.598 67.8878 98.6915 67.9181 98.737 67.8069L99.9258 64.9081H102.258V67.7436C102.258 67.865 102.357 67.8751 102.48 67.8751C102.604 67.8751 102.701 67.8751 102.701 67.7436V64.9081H105.035L106.232 67.7917C106.277 67.9031 106.373 67.8753 106.484 67.8272C106.596 67.7791 106.677 67.7436 106.639 67.6324L106.639 67.6323Z" fill="#263238"/>
<g opacity="0.6">
<path d="M106.639 67.6323L105.516 64.9081H105.918C106.045 64.9081 106.148 64.8051 106.148 64.678V64.5895C106.148 64.4624 106.045 64.3594 105.918 64.3594H99.0431C98.916 64.3594 98.813 64.4624 98.813 64.5895V64.678C98.813 64.8051 98.916 64.9081 99.0431 64.9081H99.4452L98.3298 67.6374C98.2817 67.7487 98.3703 67.7967 98.4841 67.8423C98.598 67.8878 98.6915 67.9181 98.737 67.8069L99.9258 64.9081H102.258V67.7436C102.258 67.865 102.357 67.8751 102.48 67.8751C102.604 67.8751 102.701 67.8751 102.701 67.7436V64.9081H105.035L106.232 67.7917C106.277 67.9031 106.373 67.8753 106.484 67.8272C106.596 67.7791 106.677 67.7436 106.639 67.6324L106.639 67.6323Z" fill="white"/>
</g>
<path d="M67.4549 60.6934C67.4549 60.4124 67.2271 60.1846 66.9462 60.1846H65.3917C65.1106 60.1846 64.8828 60.4124 64.8828 60.6934C64.8828 60.9475 65.0697 61.1563 65.3133 61.1942V65.943C65.3133 66.4155 65.6964 66.7986 66.1689 66.7986C66.6414 66.7986 67.0245 66.4155 67.0245 65.943V61.1942C67.2679 61.1563 67.4549 60.9475 67.4549 60.6934Z" fill="#EF233C"/>
<path opacity="0.6" d="M67.4549 60.6934C67.4549 60.4124 67.2271 60.1846 66.9462 60.1846H65.3917C65.1106 60.1846 64.8828 60.4124 64.8828 60.6934C64.8828 60.9475 65.0697 61.1563 65.3133 61.1942V65.943C65.3133 66.4155 65.6964 66.7986 66.1689 66.7986C66.6414 66.7986 67.0245 66.4155 67.0245 65.943V61.1942C67.2679 61.1563 67.4549 60.9475 67.4549 60.6934Z" fill="white"/>
<path opacity="0.2" d="M65.4922 61.1912H66.8446V66.1855C66.8446 66.3886 66.6797 66.5533 66.4768 66.5533H65.86C65.6569 66.5533 65.4922 66.3884 65.4922 66.1855V61.1912Z" fill="white"/>
<path d="M66.1684 66.5534C65.7949 66.5534 65.4922 66.2507 65.4922 65.8772V63.9312H66.8446V65.8772C66.8446 66.2507 66.5419 66.5534 66.1684 66.5534Z" fill="#EF233C"/>
<path opacity="0.2" d="M67.0239 61.1943H65.3125V61.3558H67.0239V61.1943Z" fill="black"/>
<path d="M70.693 60.6934C70.693 60.4124 70.4652 60.1846 70.1843 60.1846H68.6298C68.3488 60.1846 68.1211 60.4124 68.1211 60.6934C68.1211 60.9475 68.3079 61.1563 68.5515 61.1942V65.943C68.5515 66.4155 68.9346 66.7986 69.4071 66.7986C69.8797 66.7986 70.2628 66.4155 70.2628 65.943V61.1942C70.5062 61.1563 70.6932 60.9475 70.6932 60.6934H70.693Z" fill="#EF233C"/>
<path opacity="0.6" d="M70.693 60.6934C70.693 60.4124 70.4652 60.1846 70.1843 60.1846H68.6298C68.3488 60.1846 68.1211 60.4124 68.1211 60.6934C68.1211 60.9475 68.3079 61.1563 68.5515 61.1942V65.943C68.5515 66.4155 68.9346 66.7986 69.4071 66.7986C69.8797 66.7986 70.2628 66.4155 70.2628 65.943V61.1942C70.5062 61.1563 70.6932 60.9475 70.6932 60.6934H70.693Z" fill="white"/>
<path opacity="0.2" d="M68.7305 61.1912H70.0829V66.1855C70.0829 66.3886 69.918 66.5533 69.7151 66.5533H69.0983C68.8952 66.5533 68.7305 66.3884 68.7305 66.1855V61.1912Z" fill="white"/>
<path d="M68.7305 62.9412H70.0829V65.8774C70.0829 66.2506 69.7799 66.5536 69.4067 66.5536C69.0335 66.5536 68.7305 66.2506 68.7305 65.8774V62.9412Z" fill="#EF233C"/>
<path opacity="0.2" d="M70.2622 61.1943H68.5508V61.3558H70.2622V61.1943Z" fill="black"/>
<path d="M73.5798 60.6934C73.5798 60.4124 73.3519 60.1846 73.0711 60.1846H71.5165C71.2355 60.1846 71.0078 60.4124 71.0078 60.6934C71.0078 60.9475 71.1947 61.1563 71.4383 61.1942V65.943C71.4383 66.4155 71.8214 66.7986 72.2939 66.7986C72.7664 66.7986 73.1495 66.4155 73.1495 65.943V61.1942C73.3929 61.1563 73.5798 60.9475 73.5798 60.6934Z" fill="#EF233C"/>
<path opacity="0.6" d="M73.5798 60.6934C73.5798 60.4124 73.3519 60.1846 73.0711 60.1846H71.5165C71.2355 60.1846 71.0078 60.4124 71.0078 60.6934C71.0078 60.9475 71.1947 61.1563 71.4383 61.1942V65.943C71.4383 66.4155 71.8214 66.7986 72.2939 66.7986C72.7664 66.7986 73.1495 66.4155 73.1495 65.943V61.1942C73.3929 61.1563 73.5798 60.9475 73.5798 60.6934Z" fill="white"/>
<path opacity="0.2" d="M71.6172 61.1912H72.9696V66.1855C72.9696 66.3886 72.8047 66.5533 72.6018 66.5533H71.985C71.7819 66.5533 71.6172 66.3884 71.6172 66.1855V61.1912Z" fill="white"/>
<path d="M72.2934 66.5534C71.9199 66.5534 71.6172 66.2507 71.6172 65.8772V64.9541H72.9696V65.8772C72.9696 66.2507 72.6669 66.5534 72.2934 66.5534Z" fill="#EF233C"/>
<path opacity="0.2" d="M73.1489 61.1943H71.4375V61.3558H73.1489V61.1943Z" fill="black"/>
<path d="M74.7943 61.9523C74.9041 61.9523 74.993 61.8633 74.993 61.7535V61.5546C74.993 61.4448 74.9041 61.3557 74.7943 61.3557H63.6597C63.5499 61.3557 63.4609 61.4448 63.4609 61.5546V61.7535C63.4609 61.8633 63.5499 61.9523 63.6597 61.9523H63.9738V67.5196H63.6597C63.5499 67.5196 63.4609 67.6086 63.4609 67.7184V67.9173C63.4609 68.0271 63.5499 68.116 63.6597 68.116H74.7943C74.9041 68.116 74.993 68.0271 74.993 67.9173V67.7184C74.993 67.6086 74.9041 67.5196 74.7943 67.5196H74.4901V61.9523H74.7943ZM73.9732 67.5196H64.4709V61.9523H73.9732V67.5196Z" fill="#263238"/>
<path d="M78.6953 67.4924L81.6609 56.1731H97.4536L94.2084 67.3351L78.6953 67.4924Z" fill="#263238"/>
<path opacity="0.7" d="M78.6953 67.4924L81.6609 56.1731H97.4536L94.2084 67.3351L78.6953 67.4924Z" fill="white"/>
<path d="M94.2381 67.2195H72.0156V67.9238H94.2381V67.2195Z" fill="#263238"/>
<path opacity="0.7" d="M94.2381 67.2195H72.0156V67.9238H94.2381V67.2195Z" fill="white"/>
<path d="M88.8253 63.2197C89.3328 63.2197 89.7443 62.8082 89.7443 62.3006C89.7443 61.7931 89.3328 61.3816 88.8253 61.3816C88.3177 61.3816 87.9062 61.7931 87.9062 62.3006C87.9062 62.8082 88.3177 63.2197 88.8253 63.2197Z" fill="#263238"/>
<path opacity="0.2" d="M78.7656 67.2195H79.481L82.3828 56.1731H81.6596L78.7656 67.2195Z" fill="black"/>
<path d="M98.8406 12.5027H55.7344V47.8046H98.8406V12.5027Z" fill="#263238"/>
<path d="M97.6521 13.8701H57.1523V46.4369H97.6521V13.8701Z" fill="white"/>
<path opacity="0.2" d="M97.6523 13.8701V46.437L98.8416 47.8044V12.5027L97.6523 13.8701Z" fill="white"/>
<path d="M92.0418 20.5125H82.9844V28.5936H92.0418V20.5125Z" fill="#EF233C"/>
<g opacity="0.6">
<path d="M92.0418 20.5125H82.9844V28.5936H92.0418V20.5125Z" fill="white"/>
</g>
<path d="M91.7507 20.8704H83.3047V28.2356H91.7507V20.8704Z" fill="#EF233C"/>
<path opacity="0.2" d="M91.7506 28.2356V24.9633L90.0217 23.4912L87.9929 25.6929L85.8691 24.5859C85.8476 24.5747 85.8211 24.5787 85.8038 24.5957L83.3047 26.4282V28.2355H91.7507L91.7506 28.2356Z" fill="black"/>
<path opacity="0.2" d="M88.4825 22.814C88.4825 23.318 88.0833 23.7268 87.5909 23.7268C87.0984 23.7268 86.6992 23.3182 86.6992 22.814C86.6992 22.3098 87.0984 21.9011 87.5909 21.9011C88.0833 21.9011 88.4825 22.3098 88.4825 22.814Z" fill="black"/>
<path d="M77.2034 38.2373H70.3945V44.3121H77.2034V38.2373Z" fill="#EF233C"/>
<g opacity="0.6">
<path d="M77.2034 38.2373H70.3945V44.3121H77.2034V38.2373Z" fill="white"/>
</g>
<path d="M76.9859 38.5063H70.6367V44.0431H76.9859V38.5063Z" fill="#EF233C"/>
<path opacity="0.2" d="M76.9859 44.0432V41.5832L75.6863 40.4766L74.1613 42.1317L72.5646 41.2995C72.5484 41.291 72.5286 41.294 72.5155 41.3068L70.6367 42.6844V44.043L76.9859 44.0432Z" fill="black"/>
<path opacity="0.2" d="M74.5282 39.9676C74.5282 40.3465 74.2281 40.6537 73.8578 40.6537C73.4876 40.6537 73.1875 40.3465 73.1875 39.9676C73.1875 39.5887 73.4876 39.2815 73.8578 39.2815C74.2281 39.2815 74.5282 39.5887 74.5282 39.9676Z" fill="black"/>
<path d="M69.6902 26.6741H60.6328V34.7551H69.6902V26.6741Z" fill="#EF233C"/>
<g opacity="0.6">
<path d="M69.6902 26.6741H60.6328V34.7551H69.6902V26.6741Z" fill="white"/>
</g>
<path d="M69.3992 27.0322H60.9531V34.3975H69.3992V27.0322Z" fill="#EF233C"/>
<path opacity="0.2" d="M69.399 34.3973V31.125L67.6701 29.6531L65.6414 31.8548L63.5175 30.7478C63.4958 30.7365 63.4696 30.7405 63.4522 30.7575L60.9531 32.59V34.3973H69.3992H69.399Z" fill="black"/>
<path opacity="0.2" d="M66.131 28.9758C66.131 29.4799 65.7318 29.8885 65.2393 29.8885C64.7468 29.8885 64.3477 29.4799 64.3477 28.9758C64.3477 28.4718 64.7468 28.063 65.2393 28.063C65.7318 28.063 66.131 28.4716 66.131 28.9758Z" fill="black"/>
<path d="M67.7277 17.5469H61.043V24.2316H67.7277V17.5469Z" fill="#EF233C"/>
<path d="M66.619 19.5353H62.1832C62.1619 19.5353 62.1445 19.518 62.1445 19.4967C62.1445 19.4753 62.1619 19.458 62.1832 19.458H66.619C66.6404 19.458 66.6577 19.4753 66.6577 19.4967C66.6577 19.518 66.6404 19.5353 66.619 19.5353Z" fill="#263238"/>
<path d="M66.619 20.3449H62.1832C62.1619 20.3449 62.1445 20.3276 62.1445 20.3062C62.1445 20.2849 62.1619 20.2676 62.1832 20.2676H66.619C66.6404 20.2676 66.6577 20.2849 66.6577 20.3062C66.6577 20.3276 66.6404 20.3449 66.619 20.3449Z" fill="#263238"/>
<path d="M66.619 21.1542H62.1832C62.1619 21.1542 62.1445 21.1369 62.1445 21.1156C62.1445 21.0942 62.1619 21.0769 62.1832 21.0769H66.619C66.6404 21.0769 66.6577 21.0942 66.6577 21.1156C66.6577 21.1369 66.6404 21.1542 66.619 21.1542Z" fill="#263238"/>
<path d="M66.619 21.9638H62.1832C62.1619 21.9638 62.1445 21.9465 62.1445 21.9251C62.1445 21.9038 62.1619 21.8865 62.1832 21.8865H66.619C66.6404 21.8865 66.6577 21.9038 66.6577 21.9251C66.6577 21.9465 66.6404 21.9638 66.619 21.9638Z" fill="#263238"/>
<path d="M88.5686 19.2063H87.5156V21.406H88.5686V19.2063Z" fill="#263238"/>
<path d="M94.5725 35.4949H78.332V45.1332H94.5725V35.4949Z" fill="#EF233C"/>
<path opacity="0.7" d="M94.5725 35.4949H78.332V45.1332H94.5725V35.4949Z" fill="white"/>
<path d="M80.7977 40.8772L80.7461 40.8198C80.8149 40.7576 82.6969 38.8995 82.7159 38.8808L82.7356 38.8614L84.608 39.7829L86.4536 37.6116L86.4822 37.6529L88.3354 40.3235L90.1324 39.1508L90.1746 39.2155L88.3149 40.4293L86.4473 37.7384L84.6279 39.8791L82.7506 38.9552C82.5381 39.1649 80.8649 40.8167 80.7976 40.8774L80.7977 40.8772Z" fill="#263238"/>
<path d="M81.3594 41.6936H80.4805V43.641H81.3594V41.6936Z" fill="#EF233C"/>
<path d="M83.1719 40.4067H82.293V43.6411H83.1719V40.4067Z" fill="#EF233C"/>
<path d="M85.0157 40.7319H84.1367V43.6411H85.0157V40.7319Z" fill="#EF233C"/>
<path d="M86.8907 38.9084H86.0117V43.6411H86.8907V38.9084Z" fill="#EF233C"/>
<path d="M88.7891 41.4177H87.9102V43.6409H88.7891V41.4177Z" fill="#EF233C"/>
<path d="M81.3936 40.628C81.3936 40.8887 81.1822 41.1002 80.9214 41.1002C80.6606 41.1002 80.4492 40.8887 80.4492 40.628C80.4492 40.3672 80.6606 40.1558 80.9214 40.1558C81.1822 40.1558 81.3936 40.3672 81.3936 40.628Z" fill="#EF233C"/>
<path d="M83.2022 38.9085C83.2022 39.1692 82.9908 39.3807 82.73 39.3807C82.4692 39.3807 82.2578 39.1692 82.2578 38.9085C82.2578 38.6477 82.4692 38.4363 82.73 38.4363C82.9908 38.4363 83.2022 38.6477 83.2022 38.9085Z" fill="#EF233C"/>
<path d="M85.0928 39.6836C85.0928 39.9444 84.8814 40.1558 84.6206 40.1558C84.3599 40.1558 84.1484 39.9444 84.1484 39.6836C84.1484 39.4229 84.3599 39.2114 84.6206 39.2114C84.8814 39.2114 85.0928 39.4229 85.0928 39.6836Z" fill="#EF233C"/>
<path d="M86.9249 37.6748C86.9249 37.9356 86.7134 38.147 86.4527 38.147C86.1919 38.147 85.9805 37.9356 85.9805 37.6748C85.9805 37.4141 86.1919 37.2026 86.4527 37.2026C86.7134 37.2026 86.9249 37.4141 86.9249 37.6748Z" fill="#EF233C"/>
<path d="M88.3277 40.8484C88.5885 40.8484 88.7999 40.637 88.7999 40.3762C88.7999 40.1155 88.5885 39.9041 88.3277 39.9041C88.0669 39.9041 87.8555 40.1155 87.8555 40.3762C87.8555 40.637 88.0669 40.8484 88.3277 40.8484Z" fill="#EF233C"/>
<path d="M90.668 40.3032H89.7891V43.6411H90.668V40.3032Z" fill="#EF233C"/>
<path opacity="0.3" d="M83.1719 40.4067H82.293V43.6411H83.1719V40.4067Z" fill="black"/>
<path opacity="0.3" d="M86.8907 38.9084H86.0117V43.6411H86.8907V38.9084Z" fill="black"/>
<path opacity="0.3" d="M90.668 40.3032H89.7891V43.6411H90.668V40.3032Z" fill="black"/>
<path d="M92.6134 41.4177H91.7344V43.6409H92.6134V41.4177Z" fill="#EF233C"/>
<path d="M92.1537 40.3371L90.1367 39.2172L90.1743 39.1494L92.1913 40.2694L92.1537 40.3371Z" fill="#263238"/>
<path d="M90.7335 39.1831C90.7335 39.4439 90.522 39.6553 90.2613 39.6553C90.0005 39.6553 89.7891 39.4439 89.7891 39.1831C89.7891 38.9224 90.0005 38.7109 90.2613 38.7109C90.522 38.7109 90.7335 38.9224 90.7335 39.1831Z" fill="#EF233C"/>
<path d="M92.6436 40.3033C92.6436 40.564 92.4322 40.7755 92.1714 40.7755C91.9107 40.7755 91.6992 40.564 91.6992 40.3033C91.6992 40.0425 91.9107 39.8311 92.1714 39.8311C92.4322 39.8311 92.6436 40.0425 92.6436 40.3033Z" fill="#EF233C"/>
<path d="M62.9385 25.8635H62.2578V27.6224H62.9385V25.8635Z" fill="#263238"/>
<path d="M68.8838 33.876H68.2031V35.6348H68.8838V33.876Z" fill="#263238"/>
<path d="M81.5641 16.6777H70.7031V31.483H81.5641V16.6777Z" fill="#EF233C"/>
<path opacity="0.7" d="M81.5641 16.6777H70.7031V31.483H81.5641V16.6777Z" fill="white"/>
<path d="M77.6147 17.8989H74.4332C74.4119 17.8989 74.3945 17.8815 74.3945 17.8602C74.3945 17.8389 74.4119 17.8215 74.4332 17.8215H77.6147C77.636 17.8215 77.6534 17.8389 77.6534 17.8602C77.6534 17.8815 77.636 17.8989 77.6147 17.8989Z" fill="#263238"/>
<path d="M73.4824 21.1848H72.2144C72.1931 21.1848 72.1758 21.1674 72.1758 21.1461C72.1758 21.1247 72.1931 21.1074 72.2144 21.1074H73.4824C73.5037 21.1074 73.5211 21.1247 73.5211 21.1461C73.5211 21.1674 73.5037 21.1848 73.4824 21.1848Z" fill="#263238"/>
<path d="M79.7871 19.0231H78.5191C78.4978 19.0231 78.4805 19.0058 78.4805 18.9845C78.4805 18.9631 78.4978 18.9458 78.5191 18.9458H79.7871C79.8084 18.9458 79.8258 18.9631 79.8258 18.9845C79.8258 19.0058 79.8084 19.0231 79.7871 19.0231Z" fill="#263238"/>
<path d="M79.7871 19.3962H78.5191C78.4978 19.3962 78.4805 19.3789 78.4805 19.3575C78.4805 19.3362 78.4978 19.3188 78.5191 19.3188H79.7871C79.8084 19.3188 79.8258 19.3362 79.8258 19.3575C79.8258 19.3789 79.8084 19.3962 79.7871 19.3962Z" fill="#263238"/>
<path d="M73.5722 19.0231H72.3043C72.2829 19.0231 72.2656 19.0058 72.2656 18.9845C72.2656 18.9631 72.2829 18.9458 72.3043 18.9458H73.5722C73.5936 18.9458 73.6109 18.9631 73.6109 18.9845C73.6109 19.0058 73.5936 19.0231 73.5722 19.0231Z" fill="#263238"/>
<path d="M79.8834 22.0866H72.2144C72.1931 22.0866 72.1758 22.0693 72.1758 22.0479C72.1758 22.0266 72.1931 22.0093 72.2144 22.0093H79.8834C79.9048 22.0093 79.9221 22.0266 79.9221 22.0479C79.9221 22.0693 79.9048 22.0866 79.8834 22.0866Z" fill="#263238"/>
<path d="M79.8834 22.7109H72.2144C72.1931 22.7109 72.1758 22.6936 72.1758 22.6722C72.1758 22.6509 72.1931 22.6335 72.2144 22.6335H79.8834C79.9048 22.6335 79.9221 22.6509 79.9221 22.6722C79.9221 22.6936 79.9048 22.7109 79.8834 22.7109Z" fill="#263238"/>
<path d="M79.8834 23.3351H72.2144C72.1931 23.3351 72.1758 23.3178 72.1758 23.2965C72.1758 23.2751 72.1931 23.2578 72.2144 23.2578H79.8834C79.9048 23.2578 79.9221 23.2751 79.9221 23.2965C79.9221 23.3178 79.9048 23.3351 79.8834 23.3351Z" fill="#263238"/>
<path d="M79.8834 23.9594H72.2144C72.1931 23.9594 72.1758 23.9421 72.1758 23.9207C72.1758 23.8994 72.1931 23.8821 72.2144 23.8821H79.8834C79.9048 23.8821 79.9221 23.8994 79.9221 23.9207C79.9221 23.9421 79.9048 23.9594 79.8834 23.9594Z" fill="#263238"/>
<path d="M79.8834 24.5837H72.2144C72.1931 24.5837 72.1758 24.5664 72.1758 24.545C72.1758 24.5237 72.1931 24.5063 72.2144 24.5063H79.8834C79.9048 24.5063 79.9221 24.5237 79.9221 24.545C79.9221 24.5664 79.9048 24.5837 79.8834 24.5837Z" fill="#263238"/>
<path d="M79.8834 25.2079H72.2144C72.1931 25.2079 72.1758 25.1906 72.1758 25.1693C72.1758 25.1479 72.1931 25.1306 72.2144 25.1306H79.8834C79.9048 25.1306 79.9221 25.1479 79.9221 25.1693C79.9221 25.1906 79.9048 25.2079 79.8834 25.2079Z" fill="#263238"/>
<path d="M79.8834 25.8322H72.2144C72.1931 25.8322 72.1758 25.8149 72.1758 25.7935C72.1758 25.7722 72.1931 25.7549 72.2144 25.7549H79.8834C79.9048 25.7549 79.9221 25.7722 79.9221 25.7935C79.9221 25.8149 79.9048 25.8322 79.8834 25.8322Z" fill="#263238"/>
<path d="M76.0247 26.4565H72.2144C72.1931 26.4565 72.1758 26.4392 72.1758 26.4178C72.1758 26.3965 72.1931 26.3792 72.2144 26.3792H76.0247C76.046 26.3792 76.0633 26.3965 76.0633 26.4178C76.0633 26.4392 76.046 26.4565 76.0247 26.4565Z" fill="#263238"/>
<path d="M80.0491 30.4421H72.2144C72.1931 30.4421 72.1758 30.4248 72.1758 30.4034C72.1758 30.3821 72.1931 30.3647 72.2144 30.3647H80.0491C80.0704 30.3647 80.0878 30.3821 80.0878 30.4034C80.0878 30.4248 80.0704 30.4421 80.0491 30.4421Z" fill="#263238"/>
<path d="M79.5845 28.8488H77.6793C77.6579 28.8488 77.6406 28.8315 77.6406 28.8102C77.6406 28.7888 77.6579 28.7715 77.6793 28.7715H79.5845C79.6058 28.7715 79.6231 28.7888 79.6231 28.8102C79.6231 28.8315 79.6058 28.8488 79.5845 28.8488Z" fill="#263238"/>
<path d="M77.3847 29.586C77.1552 29.586 76.9217 29.5181 76.7169 29.3882C76.5822 29.3028 76.4076 29.1551 76.3417 28.9367C76.267 28.6887 76.3616 28.3849 76.5771 28.1812C76.7509 28.0169 76.9971 27.9068 77.3088 27.8536C77.3308 27.8497 77.3498 27.8643 77.3533 27.8853C77.3569 27.9064 77.3428 27.9263 77.3218 27.93C77.0253 27.9804 76.7927 28.0839 76.6301 28.2375C76.4352 28.4217 76.3491 28.6938 76.4154 28.9145C76.4745 29.1101 76.6343 29.2445 76.758 29.3231C77.0242 29.4917 77.3411 29.5492 77.6276 29.4806C77.929 29.4085 78.1828 29.194 78.2898 28.9207C78.4018 28.6348 78.3426 28.2989 78.1426 28.0847C77.9966 27.9283 77.7756 27.8301 77.5202 27.8078C77.2658 27.786 77.0104 27.8403 76.8165 27.8904C76.7953 27.8958 76.7746 27.8833 76.7693 27.8626C76.7641 27.8419 76.7764 27.8208 76.7972 27.8154C76.997 27.7639 77.2601 27.7081 77.5269 27.7308C77.8013 27.7545 78.0401 27.8615 78.1992 28.0319C78.4192 28.2675 78.4846 28.6361 78.3619 28.949C78.2458 29.2455 77.9714 29.4779 77.6458 29.5557C77.5604 29.5761 77.4729 29.5862 77.3847 29.5862V29.586Z" fill="#EF233C"/>
<path d="M79.4123 23.1475C79.1828 23.1475 78.9491 23.0796 78.7442 22.9497C78.6093 22.8642 78.4348 22.7164 78.3691 22.4984C78.2942 22.2503 78.3889 21.9467 78.6045 21.7427C78.7782 21.5784 79.0244 21.4683 79.3361 21.4151C79.3583 21.4112 79.3772 21.4258 79.3806 21.4468C79.3842 21.4678 79.3701 21.4878 79.3491 21.4915C79.0526 21.5419 78.8199 21.6454 78.6575 21.799C78.4625 21.9832 78.3764 22.2554 78.4429 22.4761C78.5018 22.6716 78.6616 22.8062 78.7853 22.8846C79.0515 23.0532 79.3685 23.1108 79.6548 23.0422C79.9564 22.9699 80.2102 22.7554 80.3171 22.4823C80.4291 22.1966 80.37 21.8605 80.17 21.6463C80.024 21.4899 79.8029 21.3917 79.5475 21.3696C79.2925 21.3475 79.0376 21.4021 78.8438 21.452C78.8223 21.4575 78.802 21.4449 78.7966 21.4242C78.7913 21.4035 78.8037 21.3824 78.8244 21.377C79.0243 21.3255 79.2875 21.2694 79.5541 21.2924C79.8287 21.3161 80.0675 21.423 80.2266 21.5934C80.4466 21.829 80.5118 22.1975 80.3892 22.5104C80.2732 22.8068 79.999 23.0392 79.6731 23.1173C79.5879 23.1378 79.5003 23.1477 79.4122 23.1477L79.4123 23.1475Z" fill="#EF233C"/>
<path d="M72.7988 20.0848C72.5694 20.0848 72.3357 20.0169 72.1308 19.8868C71.9959 19.8013 71.8215 19.6536 71.7557 19.4355C71.681 19.1874 71.7755 18.8838 71.9911 18.6798C72.1648 18.5155 72.4111 18.4054 72.7227 18.3522C72.7447 18.3488 72.7637 18.3629 72.7673 18.3839C72.7708 18.4049 72.7568 18.4249 72.7357 18.4286C72.4392 18.479 72.2066 18.5825 72.0442 18.7361C71.8492 18.9204 71.763 19.1925 71.8295 19.4132C71.8885 19.6087 72.0482 19.7433 72.172 19.8217C72.4384 19.9904 72.7557 20.0476 73.0415 19.9793C73.3431 19.907 73.5969 19.6925 73.7039 19.4194C73.8158 19.1336 73.7567 18.7975 73.5567 18.5834C73.4107 18.427 73.1897 18.3288 72.9343 18.3067C72.6799 18.2844 72.4242 18.3392 72.2304 18.3893C72.21 18.3946 72.1885 18.3822 72.1832 18.3615C72.178 18.3407 72.1904 18.3197 72.2111 18.3143C72.4108 18.2628 72.6751 18.2066 72.941 18.2297C73.2153 18.2534 73.4541 18.3602 73.6133 18.5307C73.8332 18.7661 73.8985 19.1346 73.776 19.4477C73.6598 19.744 73.3855 19.9765 73.0597 20.0546C72.9745 20.075 72.887 20.0851 72.7987 20.0851L72.7988 20.0848Z" fill="#EF233C"/>
<path d="M72.4632 16.7707L72.0625 16.2205L70.1325 17.6257L70.5331 18.176L72.4632 16.7707Z" fill="#263238"/>
<path d="M82.7288 31.0556L82.3281 30.5054L80.3981 31.9107L80.7988 32.4609L82.7288 31.0556Z" fill="#263238"/>
<path d="M85.1896 34.3371L84.5117 34.3984L84.7267 36.7762L85.4047 36.7149L85.1896 34.3371Z" fill="#263238"/>
<path d="M83.9723 17.7631C83.9703 17.7631 83.9683 17.7631 83.9661 17.7627C83.9451 17.7593 83.9307 17.7395 83.9341 17.7183C83.9612 17.5502 84.0801 17.3992 84.2374 17.3338C84.3942 17.2684 84.5854 17.29 84.724 17.3895C84.7656 17.4193 84.8016 17.4547 84.8364 17.4891C84.8698 17.5219 84.9012 17.5528 84.9365 17.5788C85.0004 17.6256 85.0935 17.6546 85.1581 17.6142C85.2051 17.5848 85.2279 17.5267 85.2519 17.4653C85.2785 17.3977 85.3058 17.3279 85.3686 17.2834C85.4877 17.1988 85.6173 17.2643 85.7434 17.3278C85.8486 17.3806 85.9475 17.4311 86.0368 17.3981C86.0711 17.3856 86.1018 17.3605 86.1342 17.3341C86.1785 17.2981 86.2244 17.2606 86.2857 17.2496C86.3863 17.2314 86.4671 17.2911 86.5455 17.3483C86.6129 17.3977 86.6788 17.4448 86.7432 17.4352C86.7906 17.4292 86.8319 17.3961 86.8755 17.361C86.9213 17.3244 86.9687 17.2865 87.0296 17.2725C87.1603 17.2432 87.2752 17.3381 87.3674 17.415L87.3816 17.4267C87.4644 17.4954 87.5869 17.5534 87.6599 17.4912C87.6761 17.4773 87.7007 17.4793 87.7143 17.4954C87.7282 17.5117 87.7264 17.5361 87.7101 17.55C87.6008 17.6436 87.4433 17.5785 87.3323 17.4863L87.318 17.4744C87.2311 17.4017 87.1425 17.3264 87.0471 17.3479C87.0035 17.3578 86.9649 17.3887 86.9243 17.4213C86.874 17.4615 86.8222 17.5031 86.7534 17.512C86.6556 17.5245 86.5761 17.4668 86.4999 17.4107C86.4318 17.3607 86.3682 17.3137 86.2994 17.3257C86.2578 17.3332 86.2216 17.3627 86.1833 17.3941C86.1472 17.4235 86.1099 17.4538 86.0635 17.4708C85.9441 17.5149 85.8241 17.4549 85.7087 17.3969C85.5938 17.3389 85.4945 17.2889 85.4135 17.3465C85.3696 17.3777 85.3474 17.434 85.3241 17.4936C85.2964 17.5641 85.2679 17.6368 85.1993 17.6799C85.0975 17.7437 84.9699 17.6991 84.8909 17.6413C84.851 17.612 84.8162 17.5775 84.7823 17.5443C84.7479 17.5106 84.7156 17.4787 84.6791 17.4524C84.5619 17.3683 84.4004 17.3499 84.2672 17.4054C84.1344 17.4608 84.0335 17.5885 84.0108 17.7308C84.0077 17.7498 83.9913 17.7633 83.9726 17.7633L83.9723 17.7631Z" fill="#263238"/>
<path d="M83.9723 18.3701C83.9703 18.3701 83.9683 18.3701 83.9661 18.3696C83.9451 18.3662 83.9307 18.3464 83.9341 18.3252C83.9612 18.1571 84.0801 18.0063 84.2374 17.9407C84.3942 17.8753 84.5854 17.8971 84.724 17.9964C84.7657 18.0263 84.8018 18.0617 84.8367 18.0962C84.8698 18.1288 84.9012 18.1597 84.9366 18.1857C85.0005 18.2326 85.0938 18.2618 85.1583 18.2211C85.2053 18.1917 85.228 18.1336 85.252 18.0722C85.2786 18.0046 85.306 17.9348 85.3688 17.8903C85.4879 17.8057 85.6178 17.8713 85.7435 17.9345C85.8489 17.9876 85.948 18.0377 86.0369 18.0051C86.0713 17.9925 86.1019 17.9675 86.1344 17.941C86.1786 17.905 86.2246 17.8676 86.2858 17.8566C86.3865 17.8383 86.4672 17.8979 86.5456 17.9553C86.6131 18.0046 86.679 18.0519 86.7433 18.0422C86.7908 18.036 86.8321 18.0029 86.8757 17.9679C86.9215 17.9313 86.9688 17.8934 87.0297 17.8795C87.1614 17.8499 87.2754 17.9449 87.3672 18.0216L87.3818 18.0337C87.4644 18.1025 87.5873 18.161 87.6599 18.0982C87.6764 18.0843 87.7008 18.0863 87.7145 18.1024C87.7284 18.1186 87.7265 18.143 87.7104 18.1569C87.6006 18.2507 87.4433 18.1856 87.3324 18.0932L87.3179 18.0812C87.231 18.0086 87.1402 17.9331 87.0472 17.955C87.0036 17.965 86.9651 17.9958 86.9244 18.0284C86.8742 18.0686 86.8223 18.1102 86.7535 18.1191C86.6558 18.1311 86.5763 18.0737 86.5 18.0177C86.432 17.9678 86.3684 17.9208 86.2996 17.9328C86.258 17.9403 86.2218 17.9698 86.1834 18.0012C86.1474 18.0306 86.1101 18.0609 86.0637 18.0779C85.9435 18.1223 85.8241 18.062 85.7089 18.0038C85.594 17.9458 85.4947 17.8959 85.4136 17.9534C85.3697 17.9847 85.3476 18.0409 85.3242 18.1007C85.2966 18.171 85.2681 18.2439 85.1994 18.287C85.0973 18.3511 84.9697 18.3062 84.8912 18.2484C84.8511 18.2191 84.8165 18.1848 84.7826 18.1515C84.7483 18.1178 84.7159 18.086 84.6793 18.0595C84.562 17.9754 84.4006 17.957 84.2674 18.0125C84.1345 18.0679 84.0337 18.1956 84.011 18.3378C84.0079 18.3568 83.9915 18.3702 83.9728 18.3702L83.9723 18.3701Z" fill="#263238"/>
<path d="M89.4719 19.553C89.467 19.553 89.462 19.5521 89.4571 19.5501C89.4374 19.5419 89.428 19.5193 89.4361 19.4995C89.5569 19.2075 89.5576 18.8723 89.4382 18.58C89.3188 18.2875 89.0837 18.0487 88.7931 17.9248C88.7735 17.9165 88.7642 17.8937 88.7727 17.8741C88.781 17.8545 88.8042 17.8453 88.8233 17.8537C89.1325 17.9856 89.3827 18.2396 89.5097 18.5508C89.6368 18.8618 89.6359 19.2183 89.5075 19.5292C89.5013 19.544 89.4869 19.553 89.4719 19.553Z" fill="#263238"/>
<path d="M89.45 19.5803C89.4473 19.5803 89.4449 19.5801 89.4424 19.5795C89.4303 19.577 89.4201 19.5691 89.415 19.5581C89.3166 19.3501 89.2455 19.1303 89.2037 18.9048C89.2 18.8838 89.2136 18.8637 89.2347 18.8598C89.2562 18.8558 89.276 18.8697 89.2798 18.8908C89.3173 19.0928 89.3788 19.29 89.4631 19.4777C89.594 19.3614 89.7298 19.2482 89.8676 19.1407C89.884 19.1274 89.9086 19.1306 89.9219 19.1473C89.935 19.1642 89.9319 19.1885 89.915 19.2016C89.7649 19.3187 89.6172 19.4428 89.4758 19.5701C89.4687 19.5765 89.4596 19.58 89.45 19.58V19.5803Z" fill="#263238"/>
<path d="M76.9499 31.1831H71.918V36.215H76.9499V31.1831Z" fill="#EF233C"/>
<path d="M76.1159 32.6896H72.7769C72.7556 32.6896 72.7383 32.6723 72.7383 32.651C72.7383 32.6296 72.7556 32.6123 72.7769 32.6123H76.1159C76.1372 32.6123 76.1546 32.6296 76.1546 32.651C76.1546 32.6723 76.1372 32.6896 76.1159 32.6896Z" fill="#263238"/>
<path d="M76.1159 33.299H72.7769C72.7556 33.299 72.7383 33.2817 72.7383 33.2603C72.7383 33.239 72.7556 33.2217 72.7769 33.2217H76.1159C76.1372 33.2217 76.1546 33.239 76.1546 33.2603C76.1546 33.2817 76.1372 33.299 76.1159 33.299Z" fill="#263238"/>
<path d="M76.1159 33.9081H72.7769C72.7556 33.9081 72.7383 33.8908 72.7383 33.8695C72.7383 33.8481 72.7556 33.8308 72.7769 33.8308H76.1159C76.1372 33.8308 76.1546 33.8481 76.1546 33.8695C76.1546 33.8908 76.1372 33.9081 76.1159 33.9081Z" fill="#263238"/>
<path d="M76.1159 34.5178H72.7769C72.7556 34.5178 72.7383 34.5004 72.7383 34.4791C72.7383 34.4578 72.7556 34.4404 72.7769 34.4404H76.1159C76.1372 34.4404 76.1546 34.4578 76.1546 34.4791C76.1546 34.5004 76.1372 34.5178 76.1159 34.5178Z" fill="#263238"/>
<path d="M90.8249 27.4795H85.793V32.5114H90.8249V27.4795Z" fill="#EF233C"/>
<path opacity="0.7" d="M90.8249 27.4795H85.793V32.5114H90.8249V27.4795Z" fill="white"/>
<path d="M89.991 28.986H86.6519C86.6306 28.986 86.6133 28.9687 86.6133 28.9474C86.6133 28.926 86.6306 28.9087 86.6519 28.9087H89.991C90.0124 28.9087 90.0297 28.926 90.0297 28.9474C90.0297 28.9687 90.0124 28.986 89.991 28.986Z" fill="#263238"/>
<path d="M89.991 29.5954H86.6519C86.6306 29.5954 86.6133 29.5781 86.6133 29.5567C86.6133 29.5354 86.6306 29.5181 86.6519 29.5181H89.991C90.0124 29.5181 90.0297 29.5354 90.0297 29.5567C90.0297 29.5781 90.0124 29.5954 89.991 29.5954Z" fill="#263238"/>
<path d="M89.991 30.2045H86.6519C86.6306 30.2045 86.6133 30.1872 86.6133 30.1659C86.6133 30.1445 86.6306 30.1272 86.6519 30.1272H89.991C90.0124 30.1272 90.0297 30.1445 90.0297 30.1659C90.0297 30.1872 90.0124 30.2045 89.991 30.2045Z" fill="#263238"/>
<path d="M89.991 30.8141H86.6519C86.6306 30.8141 86.6133 30.7968 86.6133 30.7755C86.6133 30.7541 86.6306 30.7368 86.6519 30.7368H89.991C90.0124 30.7368 90.0297 30.7541 90.0297 30.7755C90.0297 30.7968 90.0124 30.8141 89.991 30.8141Z" fill="#263238"/>
<path d="M68.4929 37.1206H63.4609V42.1525H68.4929V37.1206Z" fill="#EF233C"/>
<path opacity="0.7" d="M68.4929 37.1206H63.4609V42.1525H68.4929V37.1206Z" fill="white"/>
<path d="M67.6589 38.6271H64.3199C64.2986 38.6271 64.2812 38.6098 64.2812 38.5885C64.2812 38.5671 64.2986 38.5498 64.3199 38.5498H67.6589C67.6802 38.5498 67.6975 38.5671 67.6975 38.5885C67.6975 38.6098 67.6802 38.6271 67.6589 38.6271Z" fill="#263238"/>
<path d="M67.6589 39.2365H64.3199C64.2986 39.2365 64.2812 39.2192 64.2812 39.1978C64.2812 39.1765 64.2986 39.1592 64.3199 39.1592H67.6589C67.6802 39.1592 67.6975 39.1765 67.6975 39.1978C67.6975 39.2192 67.6802 39.2365 67.6589 39.2365Z" fill="#263238"/>
<path d="M67.6589 39.8456H64.3199C64.2986 39.8456 64.2812 39.8283 64.2812 39.807C64.2812 39.7856 64.2986 39.7683 64.3199 39.7683H67.6589C67.6802 39.7683 67.6975 39.7856 67.6975 39.807C67.6975 39.8283 67.6802 39.8456 67.6589 39.8456Z" fill="#263238"/>
<path d="M67.6589 40.4553H64.3199C64.2986 40.4553 64.2812 40.4379 64.2812 40.4166C64.2812 40.3953 64.2986 40.3779 64.3199 40.3779H67.6589C67.6802 40.3779 67.6975 40.3953 67.6975 40.4166C67.6975 40.4379 67.6802 40.4553 67.6589 40.4553Z" fill="#263238"/>
<path d="M96.6218 29.8696H91.5898V34.9016H96.6218V29.8696Z" fill="#EF233C"/>
<path opacity="0.7" d="M96.6218 29.8696H91.5898V34.9016H96.6218V29.8696Z" fill="white"/>
<path d="M95.7879 31.3759H92.4488C92.4275 31.3759 92.4102 31.3586 92.4102 31.3373C92.4102 31.3159 92.4275 31.2986 92.4488 31.2986H95.7879C95.8093 31.2986 95.8266 31.3159 95.8266 31.3373C95.8266 31.3586 95.8093 31.3759 95.7879 31.3759Z" fill="#263238"/>
<path d="M95.7879 31.9853H92.4488C92.4275 31.9853 92.4102 31.968 92.4102 31.9466C92.4102 31.9253 92.4275 31.908 92.4488 31.908H95.7879C95.8093 31.908 95.8266 31.9253 95.8266 31.9466C95.8266 31.968 95.8093 31.9853 95.7879 31.9853Z" fill="#263238"/>
<path d="M95.7879 32.5947H92.4488C92.4275 32.5947 92.4102 32.5773 92.4102 32.556C92.4102 32.5347 92.4275 32.5173 92.4488 32.5173H95.7879C95.8093 32.5173 95.8266 32.5347 95.8266 32.556C95.8266 32.5773 95.8093 32.5947 95.7879 32.5947Z" fill="#263238"/>
<path d="M95.7879 33.204H92.4488C92.4275 33.204 92.4102 33.1867 92.4102 33.1654C92.4102 33.144 92.4275 33.1267 92.4488 33.1267H95.7879C95.8093 33.1267 95.8266 33.144 95.8266 33.1654C95.8266 33.1867 95.8093 33.204 95.7879 33.204Z" fill="#263238"/>
<path opacity="0.3" d="M55.7344 12.5027L57.1516 13.8701H97.6514L98.8406 12.5027H55.7344Z" fill="white"/>
<path opacity="0.3" d="M55.7344 47.8044L57.1516 46.437H97.6514L98.8406 47.8044H55.7344Z" fill="white"/>
<path d="M93.5241 19.0231C93.5043 19.0231 93.4876 19.0081 93.4856 18.988L93.4827 18.9569C93.4445 18.5504 93.4465 18.5433 93.6837 18.1987L93.7068 18.165C93.7745 18.0666 93.8596 17.9779 93.942 17.8919C94.0523 17.7768 94.1564 17.6682 94.223 17.5383C94.3172 17.355 94.309 17.1321 94.2005 16.9263C94.0696 16.6782 93.8175 16.5028 93.5428 16.4683C93.2626 16.4329 92.9588 16.5433 92.7515 16.7568C92.5873 16.9261 92.5104 17.1348 92.5409 17.3293C92.5441 17.3504 92.5298 17.3702 92.5086 17.3736C92.488 17.3773 92.4677 17.3624 92.4645 17.3414C92.4303 17.1226 92.5147 16.8899 92.6962 16.7031C92.9198 16.4728 93.2477 16.3537 93.5526 16.3918C93.852 16.4293 94.1265 16.6205 94.269 16.8904C94.3895 17.1188 94.3978 17.3679 94.292 17.5737C94.2201 17.7137 94.1072 17.8316 93.9978 17.9454C93.9176 18.0291 93.8347 18.1157 93.7705 18.2088L93.7473 18.2425C93.5983 18.459 93.5358 18.6947 93.5597 18.9496L93.5626 18.9807C93.5646 19.0021 93.549 19.0208 93.5277 19.0228H93.5241V19.0231Z" fill="#263238"/>
<path d="M93.5972 19.5732C93.6659 19.5732 93.7217 19.5175 93.7217 19.4487C93.7217 19.38 93.6659 19.3242 93.5972 19.3242C93.5284 19.3242 93.4727 19.38 93.4727 19.4487C93.4727 19.5175 93.5284 19.5732 93.5972 19.5732Z" fill="#263238"/>
<path d="M93.5079 20.0534C93.0493 20.0534 92.5827 19.8938 92.1733 19.5885C91.9063 19.3894 91.5613 19.0464 91.432 18.5423C91.2858 17.9716 91.4727 17.2713 91.8969 16.7995C92.2429 16.4146 92.7352 16.156 93.3599 16.0308C93.3816 16.0262 93.4014 16.0404 93.4054 16.0612C93.4096 16.0822 93.3959 16.1026 93.3751 16.1066C92.7671 16.2284 92.2892 16.4789 91.9543 16.851C91.5466 17.3044 91.3669 17.9761 91.5068 18.523C91.6306 19.0051 91.9627 19.3347 92.2194 19.5263C92.7665 19.9345 93.4181 20.0737 94.0081 19.9073C94.6311 19.7317 95.1562 19.2086 95.3783 18.5419C95.6122 17.8404 95.4884 17.0156 95.0708 16.4893C94.7683 16.108 94.3119 15.8686 93.7854 15.8152C93.2648 15.7627 92.7437 15.8932 92.3481 16.0131C92.3287 16.0192 92.3062 16.0078 92.2998 15.9872C92.2936 15.9668 92.3051 15.9452 92.3257 15.939C92.7279 15.8171 93.2583 15.6839 93.7931 15.7384C94.3403 15.7939 94.8155 16.0435 95.1313 16.4413C95.5645 16.9873 95.6932 17.8414 95.4515 18.5664C95.2213 19.257 94.6761 19.7995 94.0287 19.9818C93.8586 20.0297 93.6836 20.0533 93.5075 20.0533L93.5079 20.0534Z" fill="#EF233C"/>
<path d="M93.1207 22.0715C93.107 22.0715 93.0937 22.0642 93.0868 22.0516C93.0766 22.0328 93.0834 22.0093 93.1019 21.9991C93.9286 21.5435 94.7958 21.1463 95.6796 20.8184C95.6992 20.8108 95.7218 20.8212 95.7293 20.8411C95.7367 20.8611 95.7265 20.8834 95.7065 20.8908C94.8263 21.2173 93.9627 21.6129 93.1394 22.0667C93.1333 22.07 93.127 22.0715 93.1207 22.0715Z" fill="#EF233C"/>
<path d="M93.4099 22.5864C93.3956 22.5864 93.3819 22.5785 93.3751 22.5647C93.3656 22.5455 93.3735 22.5225 93.3927 22.5131C94.1699 22.132 94.9785 21.7951 95.7959 21.5119C95.8162 21.5049 95.838 21.5156 95.8451 21.5357C95.8521 21.556 95.8414 21.5779 95.8213 21.5849C95.0067 21.867 94.201 22.2026 93.4269 22.5823C93.4213 22.585 93.4156 22.5862 93.4099 22.5862V22.5864Z" fill="#EF233C"/>
<path d="M93.6872 23.3156C93.673 23.3156 93.6592 23.3077 93.6524 23.2939C93.643 23.2747 93.6509 23.2517 93.67 23.2422C94.4468 22.8613 95.2554 22.5244 96.0733 22.2411C96.0934 22.2343 96.1153 22.2448 96.1224 22.2649C96.1294 22.2852 96.1187 22.3071 96.0986 22.3141C95.2837 22.5964 94.478 22.932 93.7042 23.3115C93.6987 23.3142 93.6929 23.3154 93.6872 23.3154V23.3156Z" fill="#EF233C"/>
<path opacity="0.2" d="M55.7344 12.5027L57.1516 13.8701V46.437L55.7344 47.8044V12.5027Z" fill="white"/>
<path d="M44.5759 13.7486C42.1927 11.9901 38.835 12.4965 37.0765 14.8797C35.7188 16.7196 35.7163 19.1375 36.88 20.9549L36.4468 22.5062L38.1389 22.3229C38.1625 22.341 38.1836 22.3614 38.2077 22.3792C40.5909 24.1378 43.9486 23.6314 45.7072 21.2481C47.4657 18.8649 46.9593 15.5072 44.5761 13.7486H44.5759Z" fill="#EF233C"/>
<path opacity="0.7" d="M44.5759 13.7486C42.1927 11.9901 38.835 12.4965 37.0765 14.8797C35.7188 16.7196 35.7163 19.1375 36.88 20.9549L36.4468 22.5062L38.1389 22.3229C38.1625 22.341 38.1836 22.3614 38.2077 22.3792C40.5909 24.1378 43.9486 23.6314 45.7072 21.2481C47.4657 18.8649 46.9593 15.5072 44.5761 13.7486H44.5759Z" fill="white"/>
<path d="M47.4309 17.9074H47.4298C47.4084 17.9068 47.3916 17.889 47.3922 17.8677C47.4433 16.1444 46.5553 14.4041 45.1302 13.4339C45.1126 13.4218 45.1079 13.3978 45.12 13.3802C45.1321 13.3624 45.1562 13.3581 45.1737 13.37C46.62 14.3547 47.521 16.121 47.4694 17.87C47.4688 17.891 47.4516 17.9076 47.4307 17.9076L47.4309 17.9074Z" fill="#EF233C"/>
<path d="M47.2497 19.4876C47.245 19.4876 47.2402 19.4869 47.2358 19.485C47.2158 19.4773 47.2059 19.455 47.2135 19.435C47.3069 19.1928 47.3501 18.9279 47.3385 18.6688C47.3375 18.6475 47.3541 18.6294 47.3753 18.6285C47.3992 18.6257 47.4147 18.6441 47.4156 18.6653C47.4277 18.935 47.3828 19.2108 47.2857 19.4627C47.2797 19.478 47.2651 19.4876 47.2497 19.4876Z" fill="#EF233C"/>
<path d="M41.0439 18.3274C41.1342 18.1739 41.2658 18.0047 41.4386 17.8196C41.5654 17.6841 41.6585 17.5701 41.7179 17.4776C41.7776 17.3851 41.8073 17.2803 41.8073 17.1627C41.8073 16.9958 41.7507 16.8639 41.6373 16.7668C41.524 16.6696 41.3732 16.6212 41.1851 16.6212C41.0044 16.6212 40.844 16.6653 40.7039 16.7533C40.5636 16.8412 40.4456 16.9643 40.3496 17.1222L39.6523 16.6416C39.8138 16.3527 40.0316 16.1292 40.3064 15.9713C40.581 15.8133 40.9067 15.7344 41.2832 15.7344C41.725 15.7344 42.0794 15.8451 42.3463 16.0661C42.6133 16.2873 42.7468 16.5942 42.7468 16.987C42.7468 17.1722 42.7208 17.3346 42.669 17.4744C42.6171 17.6143 42.5537 17.7328 42.4789 17.8298C42.4042 17.9269 42.307 18.0386 42.1879 18.1651C42.0458 18.3141 41.9422 18.4393 41.8768 18.5408C41.8115 18.6423 41.7787 18.7654 41.7787 18.9098H40.9087C40.9087 18.6751 40.9537 18.4811 41.044 18.3275L41.0439 18.3274ZM40.9518 20.3795C40.8461 20.2724 40.7933 20.1422 40.7933 19.9885C40.7933 19.8347 40.8451 19.7067 40.9489 19.6037C41.0527 19.5008 41.1852 19.4492 41.3466 19.4492C41.5079 19.4492 41.6404 19.5008 41.7442 19.6037C41.848 19.7068 41.8998 19.8351 41.8998 19.9885C41.8998 20.1419 41.8471 20.2724 41.7414 20.3795C41.6356 20.4865 41.5042 20.54 41.3466 20.54C41.189 20.54 41.0575 20.4865 40.952 20.3795H40.9518Z" fill="#EF233C"/>
<path d="M31.8416 37.5841L29.1811 37.0728L24.8065 37.1272C24.5247 37.2007 21.8384 37.8892 21.8384 37.8892L17.5469 69.2558H37.4519L36.3978 58.4155C35.9041 47.4585 34.6799 41.5165 33.6095 39.0022C33.2964 38.2668 32.6337 37.7363 31.8416 37.5841Z" fill="#EF233C"/>
<path d="M24.8088 38.1885C24.8088 38.1885 25.1511 35.7337 23.7137 31.4782C23.7137 31.4735 23.9363 31.3629 23.9363 31.3583C23.7379 30.763 23.5303 30.2141 23.3365 29.7388C23.332 29.7249 23.332 29.7202 23.332 29.7202L29.386 33.1071C29.3076 34.4914 29.9182 37.1329 30.2622 38.2448C30.2622 38.2448 31.0951 40.2493 28.3896 40.4562C26.4127 40.6075 24.8089 38.1885 24.8089 38.1885H24.8088Z" fill="#FFBFB8"/>
<path opacity="0.2" d="M29.5748 35.0405L26.1484 34.4233C26.5023 35.4652 27.4905 36.6751 29.8561 36.6745C29.8561 36.6745 29.5692 35.5037 29.5748 35.0405Z" fill="black"/>
<path d="M22.6268 26.8582C23.187 30.5784 23.428 32.6879 25.4889 34.4231C28.5891 37.0334 32.9581 34.9635 33.522 31.1397C34.0295 27.6979 33.0282 22.1924 29.2309 21.063C25.4899 19.9503 22.0666 23.138 22.6268 26.8584V26.8582Z" fill="#FFBFB8"/>
<path d="M32.1556 18.3481C30.8566 18.113 30.4186 18.817 30.4186 18.817C29.5186 19.3649 28.372 19.0792 27.3193 19.134C25.8035 19.2319 24.4286 20.0572 23.6293 21.3488C22.5507 21.3251 21.5739 21.9834 21.1915 22.9923C20.815 23.9729 20.7107 25.037 20.8902 26.0718C21.3141 28.4093 22.8379 31.853 24.4579 33.5905L22.7097 27.8797C23.4952 27.8205 24.2348 28.2559 24.5644 28.9715V26.5689C24.6662 26.4515 25.4248 25.7517 24.9625 23.7701C24.9625 23.7701 28.536 25.2391 32.4345 23.3622C35.7366 20.9354 33.6457 18.6178 32.1555 18.3481H32.1556Z" fill="#263238"/>
<path d="M28.3479 28.0003C28.3816 28.3831 28.6121 28.6734 28.8625 28.6488C29.1129 28.6242 29.2884 28.294 29.2546 27.9112C29.2208 27.5284 28.9904 27.2381 28.7401 27.2627C28.4897 27.2873 28.3142 27.6175 28.3479 28.0003Z" fill="#263238"/>
<path d="M31.9142 27.7119C31.9479 28.0947 32.1784 28.385 32.4286 28.3604C32.679 28.3358 32.8546 28.0056 32.8208 27.6226C32.7871 27.2398 32.5567 26.9495 32.3064 26.9741C32.056 26.9987 31.8805 27.3289 31.9143 27.7117L31.9142 27.7119Z" fill="#263238"/>
<path d="M30.2383 27.2141C30.2383 27.2141 31.6181 29.009 32.0748 29.7491C31.5845 30.2774 30.6472 30.1367 30.6472 30.1367L30.2383 27.2141Z" fill="#FA7C76"/>
<path d="M27.1566 26.4552C27.2165 26.4736 27.2847 26.4603 27.3342 26.4141C27.9233 25.8647 28.5692 26.0116 28.5758 26.0132C28.6723 26.0362 28.7703 25.977 28.7944 25.881C28.8184 25.7847 28.7591 25.6879 28.6632 25.6646C28.6292 25.6562 27.8197 25.4719 27.0889 26.1536C27.0159 26.2217 27.0117 26.3352 27.0794 26.4071C27.1014 26.4305 27.128 26.4466 27.1566 26.4552Z" fill="#263238"/>
<path d="M33.2012 24.6728C33.2292 24.6532 33.2519 24.6254 33.2654 24.5909C33.3017 24.4981 33.2568 24.393 33.165 24.3565C32.2433 23.9898 31.5694 24.4691 31.5365 24.4868C31.4559 24.5448 31.4367 24.6575 31.4938 24.7387C31.5507 24.8198 31.6615 24.8389 31.742 24.7822C31.7693 24.7612 32.2931 24.3985 33.0329 24.6928C33.0909 24.716 33.1537 24.7062 33.2012 24.6728Z" fill="#263238"/>
<path d="M29.4419 31.9876C29.4216 31.9876 29.4014 31.9797 29.3862 31.9639C29.0463 31.611 28.4291 31.4262 27.9953 31.4262C27.9526 31.4262 27.918 31.3915 27.918 31.3488C27.918 31.3061 27.9526 31.2715 27.9953 31.2715C28.4619 31.2715 29.1278 31.4724 29.4977 31.8566C29.5273 31.8874 29.5265 31.9362 29.4956 31.9659C29.4806 31.9803 29.4612 31.9876 29.4419 31.9876Z" fill="#263238"/>
<path d="M21.4249 30.1068C21.8089 31.0435 22.5914 31.711 23.3659 32.014C24.5312 32.4699 24.8396 31.2127 24.6296 30.0435C24.4405 28.9912 24.0169 27.7265 22.7926 27.7704C21.5863 27.8137 20.9856 29.036 21.4247 30.1069L21.4249 30.1068Z" fill="#FFBFB8"/>
<path opacity="0.2" d="M23.9974 30.0439C23.9614 30.0439 23.9292 30.0187 23.9218 29.982C23.8595 29.6759 23.7173 29.3901 23.5107 29.1555C23.3764 29.003 23.1574 28.8121 22.8772 28.7688C22.6249 28.7301 22.3649 28.8418 22.2583 29.0345C22.2376 29.072 22.1904 29.0854 22.1532 29.0647C22.1157 29.044 22.1023 28.9969 22.123 28.9595C22.2622 28.7082 22.5818 28.5668 22.9008 28.6158C23.2269 28.6663 23.4757 28.8816 23.6268 29.0532C23.8513 29.3081 24.0058 29.6187 24.0734 29.9512C24.0819 29.9932 24.055 30.034 24.013 30.0423C24.0078 30.0434 24.0027 30.0439 23.9976 30.0439H23.9974Z" fill="black"/>
<path d="M22.4102 27.7692C22.5095 27.5669 26.5115 26.6738 26.5115 26.6738L26.6437 27.6L23.3312 27.8488L22.4102 27.7692Z" fill="#EF233C"/>
<path opacity="0.3" d="M26.5117 26.6738L33.4791 25.7517C33.4791 25.7517 34.243 28.3297 33.2727 28.972C32.8874 29.2271 31.5916 29.3253 30.9271 28.1251C30.9271 28.1251 30.5864 27.7577 30.5392 28.4636C30.491 29.1839 29.5775 29.9586 28.4891 29.72C27.4007 29.4813 26.7764 28.5258 26.6441 27.5998L26.5119 26.6737L26.5117 26.6738Z" fill="#EF233C"/>
<path d="M26.3002 51.3997C25.9089 39.0108 24.5987 36.29 24.5987 36.29L23.0825 37.5755C23.0825 37.5755 17.6449 38.6676 16.3843 39.6602C14.5608 41.0963 17.4056 55.4497 16.9087 60.6619C16.4782 65.1895 16.2863 64.6174 15.6328 69.3718L25.6527 69.2555C25.6527 69.2555 26.6915 63.7884 26.3002 51.3994V51.3997Z" fill="#EF233C"/>
<path opacity="0.8" d="M26.3002 51.3997C25.9089 39.0108 24.5987 36.29 24.5987 36.29L23.0825 37.5755C23.0825 37.5755 17.6449 38.6676 16.3843 39.6602C14.5608 41.0963 17.4056 55.4497 16.9087 60.6619C16.4782 65.1895 16.2863 64.6174 15.6328 69.3718L25.6527 69.2555C25.6527 69.2555 26.6915 63.7884 26.3002 51.3994V51.3997Z" fill="white"/>
<path d="M28.3343 62.6126C28.3343 62.6126 28.9499 62.9896 29.6804 63.6744C30.3864 64.3362 28.9463 65.3887 28.1976 65.441C28.1976 65.441 27.7153 66.3399 26.8008 66.141L26.2413 65.9394C26.2413 65.9394 26.4047 67.0042 24.9797 66.8337C23.5549 66.6633 22.203 65.5299 21.4304 64.6288C20.658 63.7276 22.4993 60.7478 22.697 60.6924L23.9497 61.3115C25.926 60.8535 29.1373 62.2848 29.1953 62.397L28.3343 62.6127V62.6126Z" fill="#263238"/>
<path d="M15.3872 56.1969C15.4849 55.1207 18.197 49.0505 19.5024 45.1467C20.7824 41.3187 21.4541 37.8022 18.0184 38.9761C18.0184 38.9761 15.4834 39.3914 13.7616 42.522C12.2199 45.3199 7.03626 56.4832 9.87331 59.418C11.9101 61.4648 20.2559 65.0924 21.7234 65.245L23.6983 60.5891C22.1761 60.096 15.387 56.197 15.387 56.197L15.3872 56.1969Z" fill="#EF233C"/>
<path opacity="0.8" d="M15.3872 56.1969C15.4849 55.1207 18.197 49.0505 19.5024 45.1467C20.7824 41.3187 21.4541 37.8022 18.0184 38.9761C18.0184 38.9761 15.4834 39.3914 13.7616 42.522C12.2199 45.3199 7.03626 56.4832 9.87331 59.418C11.9101 61.4648 20.2559 65.0924 21.7234 65.245L23.6983 60.5891C22.1761 60.096 15.387 56.197 15.387 56.197L15.3872 56.1969Z" fill="white"/>
<path opacity="0.3" d="M23.0833 37.5755C23.0833 37.5755 21.2707 42.5915 21.7142 42.9019C22.1578 43.2123 23.1844 44.2325 23.1844 44.2325C23.1844 44.2325 21.9736 44.7203 21.6443 45.3413C21.315 45.9623 26.389 59.256 26.389 59.256C26.389 59.256 26.703 48.7475 26.0083 43.6358C25.3793 39.0066 25.3714 38.5794 24.5993 36.29L23.0833 37.5755Z" fill="#EF233C"/>
<path d="M16.9455 39.9331C18.2966 40.0828 19.4767 41.0854 19.8466 42.3937C19.9058 42.575 19.9435 42.7618 19.9802 42.9474C19.9097 42.7706 19.8578 42.5898 19.7754 42.42C19.2992 41.1811 18.2198 40.2752 16.9455 39.9331Z" fill="#263238"/>
<path d="M53.4951 38.3684C53.2909 39.5382 52.1772 40.3211 51.0074 40.1169C49.8377 39.9128 49.0548 38.799 49.2589 37.6293C49.4631 36.4595 50.5768 35.6766 51.7466 35.8808C52.9163 36.0849 53.6993 37.1987 53.4951 38.3684Z" fill="#EF233C"/>
<path opacity="0.8" d="M53.4951 38.3684C53.2909 39.5382 52.1772 40.3211 51.0074 40.1169C49.8377 39.9128 49.0548 38.799 49.2589 37.6293C49.4631 36.4595 50.5768 35.6766 51.7466 35.8808C52.9163 36.0849 53.6993 37.1987 53.4951 38.3684Z" fill="white"/>
<path d="M52.3683 38.9364C52.8863 38.3893 52.8627 37.5259 52.3157 37.0079C51.7686 36.4899 50.9052 36.5134 50.3872 37.0605C49.8692 37.6075 49.8927 38.471 50.4398 38.989C50.9868 39.507 51.8502 39.4835 52.3683 38.9364Z" fill="#EF233C"/>
<path opacity="0.2" d="M51.3758 38.8707C51.8573 38.8707 52.2476 38.4803 52.2476 37.9988C52.2476 37.5173 51.8573 37.127 51.3758 37.127C50.8942 37.127 50.5039 37.5173 50.5039 37.9988C50.5039 38.4803 50.8942 38.8707 51.3758 38.8707Z" fill="black"/>
<path d="M53.853 45.6617C53.853 45.6617 54.338 43.8453 53.6757 43.0673C53.0134 42.2892 51.4759 40.7839 51.062 41.3504C50.6481 41.9169 51.3067 42.2202 51.3067 42.2202C51.3067 42.2202 49.981 41.761 49.7464 42.2489C49.5118 42.7367 50.4874 43.2061 50.4874 43.2061L50.9168 43.6483C50.9168 43.6483 49.7085 43.1847 49.4292 43.8633C49.1499 44.5418 50.0412 44.7702 50.0412 44.7702C50.0412 44.7702 49.1576 44.6694 49.5865 45.5912C50.0155 46.513 50.7983 46.5982 50.7983 46.5982C50.7983 46.5982 53.6921 47.2652 53.853 45.6616V45.6617Z" fill="#263238"/>
<path d="M46.4922 48.0816C46.4922 48.0816 47.5645 45.8556 48.5762 44.7522C49.5877 43.649 50.7401 43.9289 50.7401 43.9289L53.949 45.191C53.949 45.191 52.9277 47.8706 52.2266 48.3034C51.5255 48.7361 49.8215 48.4582 49.8215 48.4582L49.1515 50.2916L46.4923 48.0816H46.4922Z" fill="#263238"/>
<path d="M50.4782 45.1615C50.3364 44.9979 51.1141 38.4177 51.1141 38.4177L51.3765 38.4635L51.1221 45.2738L50.4782 45.1615Z" fill="#263238"/>
<path d="M32.1447 37.6707C32.3216 37.6694 35.6009 38.2834 37.3795 40.9071C38.4104 42.4276 42.5166 51.1398 42.7789 51.0877L46.6886 46.3431L50.7523 48.7555C50.7523 48.7555 43.8949 59.5538 41.8262 59.4321C39.7575 59.3104 36.1069 52.6173 36.1069 52.6173L32.1445 37.6707H32.1447Z" fill="#EF233C"/>
<path opacity="0.8" d="M32.1447 37.6707C32.3216 37.6694 35.6009 38.2834 37.3795 40.9071C38.4104 42.4276 42.5166 51.1398 42.7789 51.0877L46.6886 46.3431L50.7523 48.7555C50.7523 48.7555 43.8949 59.5538 41.8262 59.4321C39.7575 59.3104 36.1069 52.6173 36.1069 52.6173L32.1445 37.6707H32.1447Z" fill="white"/>
<path d="M29.9828 37.2269L29.7969 36.4082L31.43 37.3478L34.3323 38.3842C35.6909 39.1767 38.5663 69.516 38.2853 69.2557C38.248 69.2212 35.5047 69.2557 35.359 69.2557C35.2133 69.2557 33.1771 48.7894 32.4977 44.3244C31.8182 39.8593 29.9828 37.2269 29.9828 37.2269Z" fill="#EF233C"/>
<path opacity="0.8" d="M29.9808 37.1968L29.7969 36.4082L31.43 37.3478L34.3323 38.3842C35.6909 39.1767 38.5663 69.516 38.2853 69.2557C38.248 69.2212 35.5047 69.2557 35.359 69.2557C35.2133 69.2557 33.1771 48.7894 32.4977 44.3244C31.8182 39.8593 29.9808 37.1968 29.9808 37.1968Z" fill="white"/>
<path opacity="0.3" d="M33.4857 58.3798C33.4857 58.3798 34.8042 46.2071 34.4687 44.2438C34.1475 42.364 32.6706 42.2608 32.6706 42.2608C32.6706 42.2608 33.3732 40.4543 33.1818 40.1392C32.4963 39.0105 31.43 37.3478 31.43 37.3478L29.7969 36.4082L29.9828 37.2269C30.6157 38.2599 31.6649 40.4484 32.0081 42.0455C32.4978 44.3244 32.7634 46.5158 32.9563 49.5126C33.1491 52.5095 33.4857 58.3798 33.4857 58.3798Z" fill="#EF233C"/>
<path opacity="0.2" d="M36.9405 54.9883L35.6445 44.6355C35.6445 44.6355 38.2033 49.7887 36.9405 54.9883Z" fill="black"/>
<path opacity="0.2" d="M42.7801 51.0873C42.7801 51.0873 42.6948 54.7335 42.7801 54.6447C42.8653 54.5559 43.6348 51.91 43.4128 50.3196L42.7801 51.0873Z" fill="black"/>
<path d="M38.5289 54.9638L39.4951 56.423L38.6171 57.0258L37.4492 55.5863C37.4492 55.5863 37.8973 54.8035 38.5289 54.9638Z" fill="#263238"/>
<path d="M39.0855 52.9448L41.3221 53.724L41.0468 54.7461L38.8983 54.2763C38.8983 54.2763 38.5457 53.4792 39.0855 52.9448Z" fill="#263238"/>
<path d="M38.2791 53.5262L37.9984 54.4259L36.9456 55.2337L35.7203 55.3256L32.4669 50.9924L32.2024 50.6379L32.4705 49.8282L29.9531 46.4183L31.4754 45.2739L33.9262 48.7737L34.8403 48.8529L35.0581 49.148L38.2791 53.5262Z" fill="#263238"/>
<path opacity="0.5" d="M38.2791 53.5262L37.9984 54.4259L36.9456 55.2337L35.7203 55.3256L32.4669 50.9924L32.2024 50.6379L32.4705 49.8282L29.9531 46.4183L31.4754 45.2739L33.9262 48.7737L34.8403 48.8529L35.0581 49.148L38.2791 53.5262Z" fill="white"/>
<path d="M35.0581 49.148L32.4669 50.9924L32.2024 50.6379L32.4705 49.8282L29.9531 46.4183L31.4754 45.2739L33.9262 48.7737L34.8403 48.8529L35.0581 49.148Z" fill="#263238"/>
<path d="M37.8398 55.1564L38.6981 55.0197L39.1138 54.4186L38.7612 53.1626L37.8398 55.1564Z" fill="#263238"/>
<path opacity="0.1" d="M37.8398 55.1564L38.6981 55.0197L39.1138 54.4186L38.7612 53.1626L37.8398 55.1564Z" fill="white"/>
<path d="M36.7305 55.4696L38.6468 52.2L39.4116 52.657L37.4772 56.0382L36.7305 55.4696Z" fill="#263238"/>
<path opacity="0.2" d="M36.7305 55.4696L38.6468 52.2L39.4116 52.657L37.4772 56.0382L36.7305 55.4696Z" fill="white"/>
<path d="M38.9102 65.6309L43.6607 62.9048L43.9325 63.4122L39.3024 66.0952L38.9102 65.6309Z" fill="#263238"/>
<path opacity="0.1" d="M38.9102 65.6309L43.6607 62.9048L43.9325 63.4122L39.3024 66.0952L38.9102 65.6309Z" fill="white"/>
<path d="M41.2569 58.9927L41.73 59.8546L39.4519 61.1053L38.8438 60.2668L41.2569 58.9927Z" fill="#263238"/>
<path opacity="0.05" d="M41.2569 58.9927L41.73 59.8546L39.4519 61.1053L38.8438 60.2668L41.2569 58.9927Z" fill="white"/>
<path d="M35.8008 60.7888L36.5008 61.9709L44.3175 57.6415L43.4987 56.4646L35.8008 60.7888Z" fill="#263238"/>
<path d="M38.9766 61.1737L41.8665 59.5867L42.2354 60.2542L39.4085 61.8324L38.9766 61.1737Z" fill="#263238"/>
<path opacity="0.2" d="M35.8008 60.7888L36.5008 61.9709L44.3175 57.6415L43.4987 56.4646L35.8008 60.7888Z" fill="white"/>
<path opacity="0.1" d="M38.9766 61.1737L41.8665 59.5867L42.2354 60.2542L39.4085 61.8324L38.9766 61.1737Z" fill="white"/>
<path d="M31.4426 53.6684L33.9762 52.4646L36.3983 57.0099L34.1742 58.3002L34.1022 58.2624C33.7119 58.0526 33.2406 58.0601 32.857 58.2822L32.4377 58.5252C32.1714 58.679 32.045 58.9949 32.1318 59.29C32.5738 60.7807 33.4587 62.1017 34.6689 63.0778C34.8534 63.2288 35.1131 63.2469 35.3167 63.1228L35.9411 62.7089C36.2318 62.5125 36.4089 62.1871 36.416 61.8362L39.7864 59.9899L40.0257 60.4271L38.4151 61.3395V63.3531L39.8223 66.2052L38.4224 67.0042C38.4224 67.0042 33.1141 66.0378 31.1634 62.0072C29.2128 57.9765 31.4423 53.6687 31.4423 53.6687L31.4426 53.6684Z" fill="#263238"/>
<path opacity="0.7" d="M31.4426 53.6684L33.9762 52.4646L36.3983 57.0099L34.1742 58.3002L34.1022 58.2624C33.7119 58.0526 33.2406 58.0601 32.857 58.2822L32.4377 58.5252C32.1714 58.679 32.045 58.9949 32.1318 59.29C32.5738 60.7807 33.4587 62.1017 34.6689 63.0778C34.8534 63.2288 35.1131 63.2469 35.3167 63.1228L35.9411 62.7089C36.2318 62.5125 36.4089 62.1871 36.416 61.8362L39.7864 59.9899L40.0257 60.4271L38.4151 61.3395V63.3531L39.8223 66.2052L38.4224 67.0042C38.4224 67.0042 33.1141 66.0378 31.1634 62.0072C29.2128 57.9765 31.4423 53.6687 31.4423 53.6687L31.4426 53.6684Z" fill="white"/>
<path opacity="0.2" d="M34.951 57.8475L30.5886 56.2271L30.5273 56.5446L34.5768 58.0645L34.951 57.8475Z" fill="white"/>
<path opacity="0.2" d="M36.3964 57.0098L30.9985 54.7461C30.8655 55.1122 30.7563 55.4899 30.668 55.8779L35.1929 57.708L36.3964 57.0098Z" fill="white"/>
<path d="M35.2394 56.5072C35.2986 56.9164 35.015 57.296 34.6059 57.3554C34.1968 57.4146 33.8171 57.1309 33.7578 56.7218C33.6986 56.3132 33.9816 55.9338 34.3901 55.874C34.7994 55.815 35.1792 56.0982 35.2394 56.5073V56.5072Z" fill="#263238"/>
<path d="M40.793 64.2903L41.3509 65.1289L44.1741 63.5273L43.6577 62.7068L40.793 64.2903Z" fill="#263238"/>
<path d="M35.3968 53.364C35.4998 54.0631 35.0168 54.7133 34.3177 54.8163C33.6186 54.9193 32.9684 54.4363 32.8654 53.7372C32.7624 53.0381 33.2454 52.3879 33.9445 52.2849L33.9482 52.2843C34.6461 52.1836 35.294 52.6663 35.3968 53.364Z" fill="#263238"/>
<path opacity="0.2" d="M40.793 64.2903L41.3509 65.1289L44.1741 63.5273L43.6577 62.7068L40.793 64.2903Z" fill="white"/>
<path opacity="0.5" d="M34.7632 53.4594C34.8145 53.8085 34.5731 54.133 34.224 54.1843C33.8749 54.2357 33.5504 53.9943 33.4991 53.6452C33.4477 53.2961 33.6892 52.9716 34.0382 52.9203L34.0433 52.9195C34.3906 52.8723 34.7112 53.1128 34.7632 53.4593V53.4594Z" fill="white"/>
<path d="M29.7617 67.8965H44.9161C44.9161 67.4483 44.1999 67.085 43.3161 67.085H30.5733C30.125 67.085 29.7617 67.4483 29.7617 67.8965Z" fill="#263238"/>
<path d="M33.4414 67.8983L35.5899 64.1609C35.8261 63.7506 36.2723 63.5073 36.7451 63.5311C37.395 63.565 37.912 64.0884 37.9382 64.7386L38.0641 67.8949L33.4414 67.8983Z" fill="#263238"/>
<path opacity="0.5" d="M33.4414 67.8983L35.5899 64.1609C35.8261 63.7506 36.2723 63.5073 36.7451 63.5311C37.395 63.565 37.912 64.0884 37.9382 64.7386L38.0641 67.8949L33.4414 67.8983Z" fill="white"/>
<path d="M37.3639 64.9111C37.3639 65.3254 37.0279 65.6614 36.6136 65.6614C36.1992 65.6614 35.8633 65.3254 35.8633 64.9109C35.8633 64.4966 36.1992 64.1606 36.6137 64.1606H36.6154C37.0292 64.1616 37.364 64.4974 37.364 64.9111H37.3639Z" fill="#263238"/>
<path d="M42.6886 56.0058L38.2266 58.4751L38.6282 59.2009L43.0902 56.7316L42.6886 56.0058Z" fill="#EF233C"/>
<path d="M110.418 67.928H8.42578V69.5814H110.418V67.928Z" fill="#EF233C"/>
<path opacity="0.4" d="M110.418 67.928H8.42578V69.5814H110.418V67.928Z" fill="black"/>
<path opacity="0.4" d="M23.4291 67.928H8.42578V69.5814H23.4291V67.928Z" fill="black"/>
</svg>
