<svg width="116" height="116" viewBox="0 0 116 116" fill="none" xmlns="http://www.w3.org/2000/svg">
<path d="M116 88.7168H0V88.7748H116V88.7168Z" fill="#EBEBEB"/>
<path d="M77.4495 90.7283H69.7656V90.7863H77.4495V90.7283Z" fill="#EBEBEB"/>
<path d="M93.7036 92.6028H91.6875V92.6608H93.7036V92.6028Z" fill="#EBEBEB"/>
<path d="M82.3075 91.7328H77.8555V91.7908H82.3075V91.7328Z" fill="#EBEBEB"/>
<path d="M22.192 90.6865H12.1719V90.7445H22.192V90.6865Z" fill="#EBEBEB"/>
<path d="M58.2303 90.6865H56.7617V90.7445H58.2303V90.6865Z" fill="#EBEBEB"/>
<path d="M43.383 91.6957H32.8711V91.7537H43.383V91.6957Z" fill="#EBEBEB"/>
<path d="M54.9826 78.3696H10.1857C9.83475 78.369 9.49839 78.2292 9.25046 77.9808C9.00253 77.7324 8.86328 77.3958 8.86328 77.0449V14.0731C8.86634 13.7242 9.00693 13.3906 9.25454 13.1447C9.50214 12.8989 9.83675 12.7606 10.1857 12.76H54.9826C55.3339 12.76 55.6709 12.8996 55.9193 13.148C56.1677 13.3964 56.3073 13.7334 56.3073 14.0847V77.0449C56.3073 77.3962 56.1677 77.7332 55.9193 77.9816C55.6709 78.23 55.3339 78.3696 54.9826 78.3696ZM10.1857 12.8064C9.85013 12.807 9.52853 12.9408 9.29147 13.1782C9.05442 13.4157 8.92128 13.7376 8.92128 14.0731V77.0449C8.92128 77.3804 9.05442 77.7023 9.29147 77.9398C9.52853 78.1773 9.85013 78.311 10.1857 78.3116H54.9826C55.3183 78.311 55.6402 78.1773 55.8776 77.9399C56.115 77.7025 56.2487 77.3807 56.2493 77.0449V14.0731C56.2487 13.7374 56.115 13.4155 55.8776 13.1781C55.6402 12.9407 55.3183 12.807 54.9826 12.8064H10.1857Z" fill="#EBEBEB"/>
<path d="M105.167 78.3696H60.3677C60.0165 78.369 59.68 78.2292 59.4317 77.9809C59.1834 77.7326 59.0436 77.396 59.043 77.0449V14.0731C59.0466 13.724 59.1877 13.3904 59.4357 13.1446C59.6837 12.8988 60.0185 12.7606 60.3677 12.76H105.167C105.515 12.7612 105.849 12.8997 106.097 13.1455C106.344 13.3913 106.484 13.7246 106.487 14.0731V77.0449C106.487 77.3954 106.348 77.7317 106.101 77.98C105.853 78.2283 105.517 78.3684 105.167 78.3696ZM60.3677 12.8064C60.0319 12.807 59.7101 12.9407 59.4727 13.1781C59.2352 13.4155 59.1016 13.7374 59.101 14.0731V77.0449C59.1016 77.3807 59.2352 77.7025 59.4727 77.9399C59.7101 78.1773 60.0319 78.311 60.3677 78.3116H105.167C105.503 78.311 105.824 78.1773 106.062 77.9399C106.299 77.7025 106.433 77.3807 106.434 77.0449V14.0731C106.433 13.7374 106.299 13.4155 106.062 13.1781C105.824 12.9407 105.503 12.807 105.167 12.8064H60.3677Z" fill="#EBEBEB"/>
<path d="M49.8378 20.0819H16.9727V57.1068H49.8378V20.0819Z" fill="#EBEBEB"/>
<path d="M48.1023 22.04H18.7148V55.1488H48.1023V22.04Z" fill="#FAFAFA"/>
<path d="M28.8968 55.1488H23.9297L28.6068 22.04H33.5739L28.8968 55.1488Z" fill="white"/>
<path d="M39.055 55.1488H36.5703L41.2474 22.04H43.7322L39.055 55.1488Z" fill="white"/>
<path d="M34.5792 22.04H32.2383V55.1488H34.5792V22.04Z" fill="#EBEBEB"/>
<path d="M34.5757 55.1487H35.0977L35.0977 22.04H34.5757L34.5757 55.1487Z" fill="#E0E0E0"/>
<path d="M49.8374 57.1068H50.2109L50.2109 20.0819H49.8374L49.8374 57.1068Z" fill="#E0E0E0"/>
<path d="M18.5297 60.8861H17.0379C15.5003 60.8861 14.2539 62.1325 14.2539 63.6701V82.7962C14.2539 84.3337 15.5003 85.5802 17.0379 85.5802H18.5297C20.0672 85.5802 21.3137 84.3337 21.3137 82.7962V63.6701C21.3137 62.1325 20.0672 60.8861 18.5297 60.8861Z" fill="#F5F5F5"/>
<path d="M20.0388 61.712H19.5772C18.3868 61.712 17.4219 62.677 17.4219 63.8673V82.6013C17.4219 83.7916 18.3868 84.7566 19.5772 84.7566H20.0388C21.2292 84.7566 22.1941 83.7916 22.1941 82.6013V63.8673C22.1941 62.677 21.2292 61.712 20.0388 61.712Z" fill="#EBEBEB"/>
<path d="M23.6586 60.8861H22.1668C20.6293 60.8861 19.3828 62.1325 19.3828 63.6701V82.7962C19.3828 84.3337 20.6293 85.5802 22.1668 85.5802H23.6586C25.1961 85.5802 26.4426 84.3337 26.4426 82.7962V63.6701C26.4426 62.1325 25.1961 60.8861 23.6586 60.8861Z" fill="#F5F5F5"/>
<path d="M25.1615 61.712H24.7022C23.5118 61.712 22.5469 62.677 22.5469 63.8673V82.6013C22.5469 83.7916 23.5118 84.7566 24.7022 84.7566H25.1615C26.3518 84.7566 27.3168 83.7916 27.3168 82.6013V63.8673C27.3168 62.677 26.3518 61.712 25.1615 61.712Z" fill="#EBEBEB"/>
<path d="M28.7875 60.8861H27.2957C25.7582 60.8861 24.5117 62.1325 24.5117 63.6701V82.7962C24.5117 84.3337 25.7582 85.5802 27.2957 85.5802H28.7875C30.325 85.5802 31.5715 84.3337 31.5715 82.7962V63.6701C31.5715 62.1325 30.325 60.8861 28.7875 60.8861Z" fill="#F5F5F5"/>
<path d="M30.2904 61.712H29.8311C28.6407 61.712 27.6758 62.677 27.6758 63.8673V82.6013C27.6758 83.7916 28.6407 84.7566 29.8311 84.7566H30.2904C31.4807 84.7566 32.4457 83.7916 32.4457 82.6013V63.8673C32.4457 62.677 31.4807 61.712 30.2904 61.712Z" fill="#EBEBEB"/>
<path d="M33.9125 60.8861H32.4207C30.8832 60.8861 29.6367 62.1325 29.6367 63.6701V82.7962C29.6367 84.3337 30.8832 85.5802 32.4207 85.5802H33.9125C35.45 85.5802 36.6965 84.3337 36.6965 82.7962V63.6701C36.6965 62.1325 35.45 60.8861 33.9125 60.8861Z" fill="#F5F5F5"/>
<path d="M35.4154 61.712H34.9561C33.7657 61.712 32.8008 62.677 32.8008 63.8673V82.6013C32.8008 83.7916 33.7657 84.7566 34.9561 84.7566H35.4154C36.6058 84.7566 37.5707 83.7916 37.5707 82.6013V63.8673C37.5707 62.677 36.6058 61.712 35.4154 61.712Z" fill="#EBEBEB"/>
<path d="M39.0414 60.8861H37.5496C36.0121 60.8861 34.7656 62.1325 34.7656 63.6701V82.7962C34.7656 84.3337 36.0121 85.5802 37.5496 85.5802H39.0414C40.5789 85.5802 41.8254 84.3337 41.8254 82.7962V63.6701C41.8254 62.1325 40.5789 60.8861 39.0414 60.8861Z" fill="#F5F5F5"/>
<path d="M40.5506 61.712H40.0889C38.8985 61.712 37.9336 62.677 37.9336 63.8673V82.6013C37.9336 83.7916 38.8985 84.7566 40.0889 84.7566H40.5506C41.7409 84.7566 42.7058 83.7916 42.7058 82.6013V63.8673C42.7058 62.677 41.7409 61.712 40.5506 61.712Z" fill="#EBEBEB"/>
<path d="M44.1703 60.8861H42.6785C41.141 60.8861 39.8945 62.1325 39.8945 63.6701V82.7962C39.8945 84.3337 41.141 85.5802 42.6785 85.5802H44.1703C45.7078 85.5802 46.9543 84.3337 46.9543 82.7962V63.6701C46.9543 62.1325 45.7078 60.8861 44.1703 60.8861Z" fill="#F5F5F5"/>
<path d="M45.6756 61.712H45.2139C44.0235 61.712 43.0586 62.677 43.0586 63.8673V82.6013C43.0586 83.7916 44.0235 84.7566 45.2139 84.7566H45.6756C46.8659 84.7566 47.8308 83.7916 47.8308 82.6013V63.8673C47.8308 62.677 46.8659 61.712 45.6756 61.712Z" fill="#EBEBEB"/>
<path d="M49.2992 60.8861H47.8074C46.2699 60.8861 45.0234 62.1325 45.0234 63.6701V82.7962C45.0234 84.3337 46.2699 85.5802 47.8074 85.5802H49.2992C50.8368 85.5802 52.0832 84.3337 52.0832 82.7962V63.6701C52.0832 62.1325 50.8368 60.8861 49.2992 60.8861Z" fill="#F5F5F5"/>
<path d="M52.5566 82.8379H46.4132C46.2902 82.8379 46.1721 82.789 46.0851 82.702C45.9981 82.615 45.9492 82.497 45.9492 82.3739C45.9492 82.2509 45.9981 82.1328 46.0851 82.0458C46.1721 81.9588 46.2902 81.9099 46.4132 81.9099H52.5566C52.6796 81.9099 52.7977 81.9588 52.8847 82.0458C52.9717 82.1328 53.0206 82.2509 53.0206 82.3739C53.0206 82.497 52.9717 82.615 52.8847 82.702C52.7977 82.789 52.6796 82.8379 52.5566 82.8379Z" fill="#F5F5F5"/>
<path d="M52.5566 65.1665H46.4132C46.2902 65.1665 46.1721 65.1176 46.0851 65.0306C45.9981 64.9436 45.9492 64.8256 45.9492 64.7025C45.9492 64.5795 45.9981 64.4614 46.0851 64.3744C46.1721 64.2874 46.2902 64.2385 46.4132 64.2385H52.5566C52.6796 64.2385 52.7977 64.2874 52.8847 64.3744C52.9717 64.4614 53.0206 64.5795 53.0206 64.7025C53.0206 64.8256 52.9717 64.9436 52.8847 65.0306C52.7977 65.1176 52.6796 65.1665 52.5566 65.1665Z" fill="#F5F5F5"/>
<path d="M102.634 47.509H84.0742L85.7191 32.248H100.989L102.634 47.509Z" fill="#EBEBEB"/>
<path d="M98.5604 47.509H95.3704L94.6953 32.248H97.6394L98.5604 47.509Z" fill="#F5F5F5"/>
<path d="M94.2818 47.5089H92.4258V88.7168H94.2818V47.5089Z" fill="#F0F0F0"/>
<path d="M94.2659 62.9695H92.4424C91.9888 62.9695 91.6211 63.3372 91.6211 63.7908V65.6143C91.6211 66.0679 91.9888 66.4356 92.4424 66.4356H94.2659C94.7195 66.4356 95.0872 66.0679 95.0872 65.6143V63.7908C95.0872 63.3372 94.7195 62.9695 94.2659 62.9695Z" fill="#F0F0F0"/>
<path d="M96.2906 88.7168H90.4141C90.4141 88.3845 90.5461 88.0659 90.781 87.8309C91.0159 87.596 91.3346 87.464 91.6669 87.464H95.0401C95.2046 87.464 95.3674 87.4964 95.5192 87.5594C95.6711 87.6224 95.809 87.7147 95.9252 87.8311C96.0413 87.9474 96.1334 88.0856 96.1961 88.2375C96.2588 88.3895 96.2909 88.5524 96.2906 88.7168Z" fill="#F0F0F0"/>
<path d="M94.2818 47.5089H92.4258V48.6434H94.2818V47.5089Z" fill="#E0E0E0"/>
<path d="M78.6275 22.6594H64.6055V54.0049H78.6275V22.6594Z" fill="#F0F0F0"/>
<path d="M78.6258 54.0027H79.0898V22.6572H78.6258V54.0027Z" fill="#E0E0E0"/>
<path d="M76.2566 24.36H66.9766V52.3021H76.2566V24.36Z" fill="#FAFAFA"/>
<path d="M73.2562 38.048C73.3117 38.3724 73.2697 38.7059 73.1356 39.0064C73.0014 39.3068 72.7812 39.5608 72.5027 39.7361C72.2243 39.9114 71.9001 40.0002 71.5711 39.9912C71.2422 39.9822 70.9233 39.8759 70.6548 39.6856C70.3864 39.4954 70.1803 39.2298 70.0628 38.9224C69.9453 38.6151 69.9216 38.2798 69.9947 37.9589C70.0678 37.6381 70.2344 37.3461 70.4734 37.12C70.7124 36.8939 71.0132 36.7437 71.3376 36.6885C71.7722 36.6152 72.2181 36.7171 72.5777 36.9719C72.9374 37.2267 73.1813 37.6137 73.2562 38.048Z" fill="#F0F0F0"/>
<path d="M72.1511 31.5705C72.2061 31.8949 72.1637 32.2282 72.0293 32.5285C71.8948 32.8287 71.6743 33.0824 71.3958 33.2573C71.1172 33.4323 70.7929 33.5207 70.4641 33.5114C70.1353 33.5021 69.8165 33.3955 69.5483 33.2051C69.28 33.0147 69.0742 32.749 68.957 32.4416C68.8397 32.1343 68.8162 31.799 68.8894 31.4783C68.9626 31.1576 69.1293 30.8658 69.3684 30.6398C69.6074 30.4138 69.9082 30.2638 70.2325 30.2087C70.4479 30.1718 70.6685 30.1777 70.8817 30.2262C71.0948 30.2747 71.2962 30.3648 71.4745 30.4914C71.6527 30.6179 71.8042 30.7783 71.9203 30.9635C72.0365 31.1487 72.1149 31.355 72.1511 31.5705Z" fill="#F0F0F0"/>
<path d="M74.3581 44.544C74.4132 44.8684 74.3708 45.2019 74.2363 45.5023C74.1018 45.8026 73.8813 46.0564 73.6025 46.2313C73.3238 46.4063 72.9995 46.4947 72.6705 46.4852C72.3416 46.4758 72.0228 46.369 71.7545 46.1784C71.4863 45.9878 71.2806 45.7218 71.1635 45.4143C71.0464 45.1067 71.0232 44.7714 71.0968 44.4506C71.1704 44.1298 71.3374 43.8381 71.5768 43.6123C71.8162 43.3865 72.1173 43.2368 72.4418 43.1822C72.6571 43.1453 72.8775 43.1513 73.0905 43.1998C73.3035 43.2483 73.5048 43.3384 73.6828 43.465C73.8609 43.5915 74.0122 43.752 74.1281 43.9371C74.244 44.1223 74.3221 44.3285 74.3581 44.544Z" fill="#F0F0F0"/>
<path d="M57.9981 99.1939C82.8412 99.1939 102.981 98.0181 102.981 96.5676C102.981 95.1172 82.8412 93.9414 57.9981 93.9414C33.155 93.9414 13.0156 95.1172 13.0156 96.5676C13.0156 98.0181 33.155 99.1939 57.9981 99.1939Z" fill="#F5F5F5"/>
<path d="M70.5543 36.5817C70.617 36.408 70.7301 36.257 70.8791 36.1479C70.8269 36.0491 70.7958 35.9406 70.7878 35.8291C70.7798 35.7177 70.7951 35.6058 70.8327 35.5006C70.869 35.3992 70.925 35.3061 70.9975 35.2264C71.07 35.1468 71.1575 35.0823 71.255 35.0366C71.1652 34.9296 71.109 34.7984 71.0937 34.6595C71.0783 34.5206 71.1044 34.3803 71.1687 34.2563C71.2329 34.1322 71.3325 34.03 71.4548 33.9624C71.5771 33.8948 71.7166 33.865 71.8558 33.8766C71.8498 33.7985 71.8577 33.72 71.879 33.6446C71.9306 33.4781 72.0449 33.3381 72.1976 33.2542C72.3504 33.1702 72.5298 33.1488 72.698 33.1945C72.6422 33.0581 72.6348 32.9066 72.6771 32.7653C72.7286 32.5964 72.8448 32.4547 73.0005 32.3712C73.1561 32.2878 73.3385 32.2693 73.5077 32.3199H73.5332C73.5335 32.2579 73.5421 32.1963 73.5587 32.1366C73.6102 31.9676 73.7264 31.8257 73.8819 31.7419C74.0374 31.658 74.2198 31.639 74.3893 31.6888C74.4377 31.7049 74.4843 31.7259 74.5285 31.7515C74.5164 31.6267 74.5455 31.5013 74.6112 31.3945C74.677 31.2877 74.7758 31.2053 74.8927 31.1598C75.0096 31.1144 75.1381 31.1084 75.2587 31.1427C75.3794 31.1771 75.4855 31.2499 75.5609 31.3501C75.602 31.2472 75.6721 31.1583 75.7626 31.0942C75.8531 31.0301 75.9602 30.9936 76.0709 30.9889C76.1817 30.9843 76.2915 31.0117 76.387 31.068C76.4826 31.1242 76.5598 31.2069 76.6095 31.306C76.6557 31.2704 76.7098 31.2465 76.7673 31.2364C76.8185 31.2264 76.8712 31.2266 76.9223 31.237C76.9735 31.2474 77.022 31.2679 77.0652 31.2973C77.1083 31.3266 77.1452 31.3643 77.1738 31.408C77.2023 31.4517 77.2218 31.5006 77.2313 31.552C77.2359 31.5835 77.2359 31.6155 77.2313 31.6471C77.3137 31.568 77.4165 31.5133 77.5282 31.4892C77.6399 31.465 77.7561 31.4724 77.8638 31.5104C77.9716 31.5484 78.0667 31.6155 78.1385 31.7044C78.2103 31.7933 78.2561 31.9003 78.2706 32.0136L78.317 32.002C78.5042 31.979 78.6929 32.0305 78.8423 32.1456C78.9917 32.2607 79.0897 32.43 79.1151 32.6168C79.1245 32.6822 79.1245 32.7486 79.1151 32.814C79.1251 32.8127 79.1353 32.8127 79.1453 32.814C79.3325 32.7903 79.5216 32.8417 79.6711 32.9569C79.8206 33.0721 79.9185 33.2417 79.9434 33.4288C79.963 33.5846 79.9295 33.7423 79.8482 33.8766C80.0335 33.8568 80.2193 33.9099 80.3661 34.0246C80.5129 34.1394 80.6092 34.3068 80.6347 34.4914C80.6558 34.6589 80.6163 34.8284 80.5234 34.9693C80.6712 34.9866 80.8098 35.05 80.9197 35.1504C81.0296 35.2508 81.1051 35.3832 81.1356 35.5289C81.1661 35.6745 81.1501 35.8261 81.0898 35.9622C81.0294 36.0982 80.9279 36.2119 80.7994 36.2871C80.8978 36.3512 80.9783 36.4392 81.0335 36.5428C81.0887 36.6464 81.1168 36.7623 81.1152 36.8797C81.1136 36.9971 81.0823 37.1121 81.0242 37.2142C80.9662 37.3162 80.8833 37.4019 80.7832 37.4633C80.9176 37.5758 81.0046 37.7349 81.0268 37.9088C81.0505 38.0957 80.9995 38.2844 80.8848 38.4339C80.7701 38.5833 80.601 38.6814 80.4143 38.7068C80.2526 38.7262 80.089 38.6902 79.9503 38.6048C79.9232 38.7326 79.8612 38.8505 79.7713 38.9454C79.6815 39.0404 79.5671 39.1086 79.4409 39.1427C79.3147 39.1768 79.1815 39.1753 79.0561 39.1385C78.9307 39.1017 78.8178 39.031 78.73 38.9342C78.6923 39.0664 78.6172 39.1848 78.5135 39.275C78.4099 39.3653 78.2823 39.4235 78.1462 39.4427C78.0101 39.4619 77.8714 39.4411 77.7469 39.383C77.6224 39.3248 77.5174 39.2318 77.4447 39.1152C77.3301 39.2589 77.1633 39.3515 76.9807 39.3727C76.879 39.3865 76.7755 39.3776 76.6777 39.3467C76.5798 39.3159 76.49 39.2637 76.4146 39.194C76.358 39.3653 76.2383 39.5086 76.0799 39.5948C75.9215 39.6811 75.7361 39.7037 75.5616 39.6582C75.387 39.6127 75.2363 39.5025 75.1401 39.3499C75.0439 39.1974 75.0093 39.0139 75.0435 38.8368C74.9601 38.8952 74.8651 38.9349 74.7649 38.9532C74.6648 38.9715 74.5619 38.968 74.4632 38.9429C74.3645 38.9177 74.2724 38.8716 74.1932 38.8077C74.114 38.7437 74.0495 38.6634 74.0042 38.5723C73.9095 38.67 73.7888 38.7384 73.6563 38.7693C73.5238 38.8001 73.3852 38.7922 73.2571 38.7463C73.1279 38.6979 73.0154 38.6133 72.9331 38.5026C72.8508 38.3919 72.8022 38.2598 72.7931 38.1222C72.7032 38.1902 72.5982 38.2354 72.4869 38.2539C72.3757 38.2723 72.2617 38.2635 72.1547 38.2281C72.0476 38.1927 71.9508 38.1319 71.8725 38.0508C71.7941 37.9697 71.7367 37.8708 71.705 37.7626C71.5402 37.8134 71.3645 37.8172 71.1977 37.7737C71.0308 37.7301 70.8794 37.641 70.7603 37.5162C70.6413 37.3914 70.5594 37.2359 70.5239 37.0671C70.4883 36.8984 70.5004 36.7231 70.559 36.5608L70.5543 36.5817Z" fill="#263238"/>
<path d="M72.3853 44.0382C72.3853 44.3491 72.3853 44.6205 72.3598 44.9082C72.3343 45.1959 72.3227 45.472 72.2972 45.755C72.2461 46.3164 72.1626 46.8756 72.0652 47.4324C71.8797 48.5572 71.5876 49.6619 71.1928 50.7314L71.1186 50.9332C71.0908 51.0052 71.0792 51.0469 71.0165 51.1861C70.901 51.4392 70.7229 51.6588 70.4992 51.8241C70.2928 51.9762 70.055 52.08 69.8032 52.128C69.6041 52.1692 69.4005 52.184 69.1976 52.1721C68.5651 52.117 67.9471 51.9513 67.3718 51.6826C66.3389 51.2112 65.3635 50.6227 64.4648 49.9287L64.9706 49.1306C65.4346 49.3626 65.9334 49.583 66.4183 49.7848C66.895 49.9902 67.383 50.1684 67.8799 50.3184C68.311 50.4663 68.7628 50.5446 69.2185 50.5504C69.3972 50.5504 69.4969 50.4809 69.4668 50.4832C69.4366 50.4855 69.4436 50.5017 69.4436 50.4832L69.5387 50.1677C69.8309 49.1725 70.0511 48.1576 70.1976 47.1308C70.2718 46.6134 70.3252 46.0937 70.3739 45.574C70.4226 45.0544 70.4528 44.5161 70.469 44.0336L72.3853 44.0382Z" fill="#FFB573"/>
<path d="M70.9274 41.855C70.1757 42.1056 69.8672 45.3002 69.8672 45.3002L72.0851 46.5832C72.0851 46.5832 73.8785 43.254 73.2289 42.4536C72.5793 41.6532 72.0248 41.4885 70.9274 41.855Z" fill="#EF233C"/>
<path opacity="0.7" d="M70.9274 41.855C70.1757 42.1056 69.8672 45.3002 69.8672 45.3002L72.0851 46.5832C72.0851 46.5832 73.8785 43.254 73.2289 42.4536C72.5793 41.6532 72.0248 41.4885 70.9274 41.855Z" fill="black"/>
<path opacity="0.2" d="M71.0487 42.5557L70.6914 45.7781L71.9372 46.4973L71.0487 42.5557Z" fill="black"/>
<path d="M65.3036 49.235L64.0322 47.5367L63.5195 49.3626C63.5195 49.3626 64.3756 50.2024 65.1157 49.9704L65.3036 49.235Z" fill="#FFB573"/>
<path d="M62.7777 46.9568L62.1211 48.4068L63.5247 49.3626L64.0374 47.5368L62.7777 46.9568Z" fill="#FFB573"/>
<path d="M77.9007 94.663H76.0354L75.6016 90.3431H77.4668L77.9007 94.663Z" fill="#FFB573"/>
<path d="M92.8274 86.8492L91.2614 87.863L88.4102 84.5663L89.9738 83.5502L92.8274 86.8492Z" fill="#FFB573"/>
<path d="M90.8957 87.6704L92.4663 86.2784C92.4931 86.2545 92.5278 86.2412 92.5638 86.2412C92.5997 86.2412 92.6344 86.2545 92.6612 86.2784L93.9372 87.3642C93.9688 87.3921 93.9941 87.4263 94.0114 87.4647C94.0288 87.5031 94.0377 87.5448 94.0377 87.5869C94.0377 87.629 94.0288 87.6707 94.0114 87.7091C93.9941 87.7475 93.9688 87.7818 93.9372 87.8096C93.3827 88.2852 93.0904 88.4847 92.399 89.0949C91.9745 89.4707 91.3922 90.0623 90.8075 90.582C90.2229 91.1017 89.6754 90.5472 89.8795 90.2804C90.7658 89.0764 90.6521 88.5984 90.7472 87.9604C90.7614 87.8494 90.8139 87.7468 90.8957 87.6704Z" fill="#263238"/>
<path d="M75.8191 94.4472H77.9071C77.9432 94.4469 77.9781 94.4596 78.0054 94.4831C78.0327 94.5065 78.0506 94.5391 78.0556 94.5748L78.2876 96.2313C78.2922 96.2732 78.2879 96.3157 78.2749 96.3558C78.2619 96.396 78.2406 96.4329 78.2123 96.4642C78.1841 96.4956 78.1495 96.5206 78.1109 96.5376C78.0723 96.5546 78.0305 96.5633 77.9883 96.563C77.2575 96.5514 76.9049 96.5074 75.9839 96.5074C75.4178 96.5074 73.7891 96.5677 73.0073 96.5677C72.2255 96.5677 72.1814 95.7928 72.5085 95.7232C73.9701 95.4077 75.0002 94.9762 75.492 94.5632C75.5836 94.4864 75.6997 94.4453 75.8191 94.4472Z" fill="#263238"/>
<g opacity="0.2">
<path d="M75.6016 90.3455L75.8243 92.5703H77.6919L77.4668 90.3455H75.6016Z" fill="black"/>
<path d="M89.9722 83.5525L88.4062 84.5663L89.8771 86.2669L91.4431 85.2507L89.9722 83.5525Z" fill="black"/>
</g>
<path d="M70.9285 41.855C70.9285 41.855 70.0655 42.2239 72.6337 53.0166L80.1876 52.469C79.8373 49.402 79.6958 47.5066 80.7073 41.101C79.6307 40.9589 78.5451 40.8961 77.4593 40.9131C76.3111 40.9136 75.1643 40.9965 74.028 41.1614C72.5734 41.391 70.9285 41.855 70.9285 41.855Z" fill="#EF233C"/>
<path opacity="0.7" d="M70.9285 41.855C70.9285 41.855 70.0655 42.2239 72.6337 53.0166L80.1876 52.469C79.8373 49.402 79.6958 47.5066 80.7073 41.101C79.6307 40.9589 78.5451 40.8961 77.4593 40.9131C76.3111 40.9136 75.1643 40.9965 74.028 41.1614C72.5734 41.391 70.9285 41.855 70.9285 41.855Z" fill="black"/>
<path d="M76.8488 37.062C76.7142 38.1826 76.6446 40.2195 77.4705 40.9016C77.4705 40.9016 77.2385 42.0431 75.1993 42.1915C72.9442 42.3563 74.0393 41.1499 74.0393 41.1499C75.2503 40.7671 75.1505 39.8553 74.8745 39.0131L76.8488 37.062Z" fill="#FFB573"/>
<path opacity="0.2" d="M76.0428 37.8577L74.8828 39.0177C74.9515 39.2129 75.002 39.414 75.0336 39.6185C75.4976 39.5165 76.1078 38.9527 76.1217 38.4585C76.1324 38.2551 76.1056 38.0515 76.0428 37.8577Z" fill="black"/>
<path d="M78.1071 35.1991C77.6849 37.0017 77.5457 37.7743 76.4646 38.5515C74.8406 39.7115 72.7201 38.8067 72.5971 36.9275C72.4858 35.2246 73.1957 32.5635 75.1004 32.1436C75.519 32.0496 75.9547 32.0638 76.3663 32.185C76.7778 32.3061 77.1518 32.5302 77.4527 32.836C77.7536 33.1418 77.9716 33.5192 78.0861 33.9327C78.2006 34.3462 78.2079 34.782 78.1071 35.1991Z" fill="#FFB573"/>
<path d="M72.6328 53.0166C72.6328 53.0166 72.2082 67.454 72.7418 73.1171C73.2963 79.0076 75.426 92.1411 75.426 92.1411H77.9525C77.9525 92.1411 77.6068 79.04 77.4073 73.2308C77.1892 66.8948 78.1683 52.6152 78.1683 52.6152L72.6328 53.0166Z" fill="#EF233C"/>
<path d="M78.1683 92.2316H75.2079L74.9922 91.2874L78.3051 91.1714L78.1683 92.2316Z" fill="#263238"/>
<path opacity="0.2" d="M76.1514 56.3458C74.5668 60.2133 76.5458 66.9157 77.3856 69.4005C77.446 65.5701 77.6756 60.8791 77.8682 57.4316C77.4483 55.5199 76.8822 54.5617 76.1514 56.3458Z" fill="black"/>
<path d="M74.6289 52.8728C74.6289 52.8728 77.4129 67.6442 79.0624 72.333C81.0089 77.901 89.2704 86.1486 89.2704 86.1486L91.4048 84.7566C91.4048 84.7566 85.4007 75.2585 84.011 72.3515C81.0437 66.1502 82.4937 56.4804 80.1899 52.4598L74.6289 52.8728Z" fill="#EF233C"/>
<path d="M91.7223 84.7194L89.0752 86.4339L88.2539 85.7843L91.2769 83.6244L91.7223 84.7194Z" fill="#263238"/>
<path d="M75.0009 35.1875C74.9753 35.3359 74.8779 35.4427 74.7805 35.4195C74.683 35.3963 74.625 35.2687 74.6505 35.1202C74.6761 34.9717 74.7758 34.865 74.8825 34.8882C74.9893 34.9114 75.0264 35.032 75.0009 35.1875Z" fill="#263238"/>
<path d="M73.3288 34.9021C73.3033 35.0505 73.2036 35.1573 73.1084 35.1341C73.0133 35.1109 72.953 34.9856 72.9785 34.8371C73.004 34.6886 73.1015 34.5819 73.1989 34.6051C73.2964 34.6283 73.3544 34.7536 73.3288 34.9021Z" fill="#263238"/>
<path d="M73.2411 34.6189L72.9023 34.4542C72.9023 34.4542 73.0369 34.7651 73.2411 34.6189Z" fill="#263238"/>
<path d="M73.9187 35.2639C73.7265 35.5795 73.4923 35.8675 73.2227 36.12C73.2892 36.1869 73.3696 36.2386 73.4581 36.2715C73.5466 36.3043 73.6412 36.3175 73.7354 36.3102L73.9187 35.2639Z" fill="#ED893E"/>
<path d="M74.4496 37.0202C74.3757 37.0198 74.3019 37.0129 74.2292 36.9993C74.2193 36.996 74.2109 36.9893 74.2055 36.9803C74.2002 36.9714 74.1981 36.9608 74.1998 36.9505C74.2015 36.9402 74.2067 36.9308 74.2147 36.9241C74.2226 36.9173 74.2327 36.9135 74.2431 36.9135C74.4271 36.9495 74.6171 36.9414 74.7974 36.8898C74.9776 36.8382 75.1431 36.7445 75.2801 36.6165C75.2887 36.6087 75.2999 36.6044 75.3115 36.6044C75.3231 36.6044 75.3342 36.6087 75.3428 36.6165C75.3469 36.6206 75.3502 36.6255 75.3525 36.6309C75.3547 36.6363 75.3559 36.642 75.3559 36.6479C75.3559 36.6537 75.3547 36.6594 75.3525 36.6648C75.3502 36.6702 75.3469 36.6751 75.3428 36.6792C75.2241 36.7926 75.0839 36.8811 74.9306 36.9397C74.7772 36.9983 74.6137 37.0256 74.4496 37.0202Z" fill="#263238"/>
<path d="M72.8477 32.9068L75.9541 31.77C76.0115 31.8326 76.0542 31.9071 76.0794 31.9881C76.1376 31.9166 76.2107 31.8588 76.2937 31.8187C76.3767 31.7786 76.4675 31.7572 76.5597 31.7561C76.639 31.7544 76.7179 31.7686 76.7917 31.7979C76.9213 31.8135 77.0412 31.8742 77.1304 31.9696C77.2085 32.0539 77.2594 32.1598 77.2765 32.2735C77.3912 32.3218 77.489 32.4028 77.5579 32.5063C77.6268 32.6099 77.6637 32.7314 77.664 32.8558C77.6651 32.8736 77.6651 32.8914 77.664 32.9092C77.7276 32.912 77.7903 32.9253 77.8496 32.9486C77.998 33.0075 78.1185 33.1204 78.187 33.2646C78.2554 33.4088 78.2667 33.5736 78.2185 33.7258C78.3386 33.8067 78.4272 33.9266 78.4695 34.0651C78.5117 34.2037 78.505 34.3526 78.4505 34.4868L78.4389 34.51C78.5292 34.5986 78.5911 34.7121 78.6167 34.8361C78.6423 34.96 78.6305 35.0888 78.5827 35.206C78.5284 35.3376 78.4322 35.4477 78.3089 35.5192C78.3089 35.547 78.3229 35.5772 78.3275 35.6073C78.4109 35.605 78.4938 35.62 78.5711 35.6514C78.7174 35.72 78.8321 35.8417 78.8919 35.9918C78.9517 36.1419 78.9521 36.3091 78.893 36.4595C78.8339 36.6099 78.7198 36.7321 78.5738 36.8013C78.4278 36.8706 78.2609 36.8816 78.1071 36.8323C78.0022 36.7912 77.9103 36.7225 77.8413 36.6335C77.7723 36.5444 77.7286 36.4384 77.715 36.3265C77.6308 36.3269 77.5474 36.3112 77.4691 36.2801C77.329 36.2242 77.2134 36.1201 77.1433 35.9865C77.0731 35.853 77.0529 35.6988 77.0863 35.5516C76.9836 35.586 76.8737 35.5933 76.7673 35.5729C76.6609 35.5525 76.5616 35.5051 76.4788 35.4352C76.3961 35.3652 76.3328 35.2752 76.2949 35.1737C76.257 35.0722 76.246 34.9627 76.2627 34.8556L76.1977 34.8371C76.041 34.7741 75.9156 34.6516 75.849 34.4963C75.7825 34.3411 75.7802 34.1658 75.8428 34.0088C75.8716 33.9389 75.9124 33.8745 75.9634 33.8186C75.8706 33.7875 75.7862 33.7352 75.717 33.666C75.6478 33.5967 75.5955 33.5124 75.5644 33.4196C75.5477 33.4421 75.5291 33.463 75.5087 33.4822C75.414 33.5711 75.2919 33.6251 75.1624 33.6353C75.0329 33.6454 74.9038 33.611 74.7965 33.5379L74.757 33.582C74.6904 33.6465 74.609 33.6936 74.5199 33.7191C74.4308 33.7446 74.3367 33.7477 74.2461 33.7282C74.1555 33.7087 74.0711 33.6672 74.0004 33.6073C73.9296 33.5474 73.8748 33.4709 73.8406 33.3848C73.7579 33.4711 73.6502 33.5291 73.5326 33.5506C73.4151 33.5722 73.2937 33.5561 73.1858 33.5047C73.0779 33.4533 72.989 33.3693 72.9316 33.2644C72.8742 33.1596 72.8513 33.0393 72.8662 32.9208L72.8477 32.9068Z" fill="#263238"/>
<path d="M78.318 36.953C78.2286 37.1077 78.1093 37.2432 77.9672 37.3515C77.825 37.4599 77.6627 37.5389 77.4898 37.584C77.0258 37.7023 76.81 37.2894 76.9469 36.8602C77.0699 36.475 77.4573 35.9484 77.9143 36.0203C78.0136 36.0376 78.1071 36.0793 78.1863 36.1417C78.2654 36.2041 78.3278 36.2852 78.3679 36.3777C78.4079 36.4702 78.4243 36.5712 78.4156 36.6716C78.4069 36.772 78.3734 36.8687 78.318 36.953Z" fill="#FFB573"/>
<path d="M75.7318 34.96C75.7132 34.9601 75.6952 34.954 75.6805 34.9426C75.6658 34.9313 75.6553 34.9154 75.6506 34.8974C75.53 34.5076 75.0312 34.3406 75.0265 34.3383C75.0043 34.3308 74.9859 34.3151 74.9751 34.2943C74.9643 34.2735 74.9619 34.2494 74.9685 34.2269C74.9759 34.2048 74.9918 34.1865 75.0127 34.1761C75.0336 34.1656 75.0577 34.1639 75.0799 34.1712C75.1054 34.1712 75.6715 34.3684 75.82 34.8464C75.8259 34.8691 75.823 34.8933 75.8118 34.9139C75.8006 34.9346 75.7819 34.9502 75.7597 34.9577L75.7318 34.96Z" fill="#263238"/>
<path d="M72.9557 34.0413C72.9362 34.0414 72.9173 34.035 72.9018 34.0232C72.8863 34.0114 72.8752 33.9947 72.8702 33.9759C72.8652 33.9571 72.8665 33.9372 72.874 33.9192C72.8815 33.9012 72.8947 33.8862 72.9116 33.8766C73.0315 33.8033 73.1674 33.7602 73.3076 33.7509C73.4478 33.7416 73.5882 33.7664 73.7167 33.8232C73.727 33.8284 73.7363 33.8356 73.7439 33.8443C73.7514 33.8531 73.7572 33.8632 73.7609 33.8742C73.7646 33.8852 73.766 33.8968 73.7652 33.9083C73.7644 33.9199 73.7613 33.9312 73.7561 33.9415C73.7509 33.9519 73.7438 33.9611 73.735 33.9687C73.7263 33.9763 73.7161 33.9821 73.7051 33.9858C73.6941 33.9894 73.6825 33.9909 73.671 33.9901C73.6594 33.9892 73.6482 33.9862 73.6378 33.981C73.5353 33.9375 73.4239 33.9192 73.3129 33.9277C73.2019 33.9361 73.0945 33.9711 72.9998 34.0297C72.9861 34.0368 72.9711 34.0407 72.9557 34.0413Z" fill="#263238"/>
<path d="M81.735 43.1937C82.0459 44.3027 82.2895 45.4 82.5029 46.5229C82.6143 47.082 82.7048 47.6481 82.7836 48.2165C82.8254 48.4996 82.8579 48.7872 82.8904 49.0726L82.9321 49.5064V49.6155V49.6828C82.9321 49.7361 82.9321 49.7918 82.9321 49.8452C82.9192 50.0992 82.8267 50.3427 82.6676 50.5412C82.54 50.6906 82.3818 50.8109 82.2036 50.8938C82.0875 50.9471 81.9663 50.9883 81.8417 51.0168C81.6533 51.0579 81.4615 51.0812 81.2687 51.0864C80.9508 51.0932 80.6329 51.0769 80.3175 51.0376C79.7358 50.9654 79.1587 50.8601 78.5891 50.7221C78.0292 50.5845 77.477 50.436 76.9326 50.2767C76.3874 50.105 75.8515 49.9356 75.3086 49.7338L75.5592 48.822C76.102 48.9125 76.6519 49.0123 77.1994 49.0935C77.7469 49.1747 78.2921 49.2628 78.835 49.3255C79.3779 49.3881 79.9161 49.4461 80.4335 49.4624C80.6757 49.4718 80.9182 49.4656 81.1596 49.4438C81.2472 49.4358 81.3336 49.4179 81.4172 49.3904C81.4496 49.3904 81.4566 49.3719 81.4496 49.3742C81.4008 49.3975 81.358 49.4316 81.3244 49.474C81.252 49.5641 81.2091 49.6742 81.2014 49.7895C81.2002 49.8088 81.2002 49.8282 81.2014 49.8475C81.2005 49.8351 81.2005 49.8227 81.2014 49.8104L81.1852 49.7106L81.1202 49.3092L80.9717 48.5065C80.8673 47.9706 80.7513 47.4347 80.6353 46.8964C80.5193 46.3582 80.3871 45.8246 80.2572 45.2887C80.1272 44.7528 79.9927 44.2122 79.8651 43.6879L81.735 43.1937Z" fill="#FFB573"/>
<path d="M80.7075 41.0894C81.48 41.2658 82.5797 43.8062 82.5797 43.8062L79.7957 46.1262C79.7957 46.1262 78.5661 44.0382 78.8143 43.0266C79.0719 41.9757 79.8235 40.8899 80.7075 41.0894Z" fill="#EF233C"/>
<path opacity="0.7" d="M80.7075 41.0894C81.48 41.2658 82.5797 43.8062 82.5797 43.8062L79.7957 46.1262C79.7957 46.1262 78.5661 44.0382 78.8143 43.0266C79.0719 41.9757 79.8235 40.8899 80.7075 41.0894Z" fill="black"/>
<path d="M90.3252 88.4986H90.302C90.2587 88.4974 90.2166 88.485 90.1796 88.4626C90.1426 88.4403 90.112 88.4087 90.0908 88.371C90.0757 88.3493 90.0662 88.3241 90.0634 88.2977C90.0606 88.2714 90.0644 88.2447 90.0746 88.2202C90.172 88.0045 90.8402 87.9024 90.9144 87.8908C90.9229 87.8901 90.9314 87.8917 90.939 87.8954C90.9466 87.8992 90.9531 87.905 90.9576 87.9122C90.9622 87.9194 90.9647 87.9277 90.9648 87.9362C90.965 87.9447 90.9628 87.9531 90.9585 87.9604C90.8193 88.1599 90.5572 88.4824 90.3252 88.4986ZM90.8216 87.9952C90.5572 88.0439 90.2068 88.1414 90.1558 88.2574C90.1493 88.267 90.1458 88.2783 90.1458 88.2898C90.1458 88.3014 90.1493 88.3127 90.1558 88.3223C90.1694 88.3478 90.1894 88.3693 90.2138 88.3848C90.2382 88.4002 90.2662 88.4091 90.295 88.4105C90.4296 88.4128 90.6221 88.2597 90.8216 87.9952Z" fill="#EF233C"/>
<path d="M90.8635 87.9883C90.6315 88.0046 90.1999 87.9257 90.1025 87.7563C90.085 87.7259 90.0784 87.6905 90.0839 87.6559C90.0894 87.6212 90.1066 87.5895 90.1327 87.5661C90.1547 87.5403 90.1821 87.5197 90.213 87.5057C90.2438 87.4916 90.2774 87.4845 90.3113 87.4849C90.5827 87.4849 90.94 87.8862 90.9539 87.9025C90.9576 87.9093 90.9595 87.9168 90.9595 87.9245C90.9595 87.9322 90.9576 87.9398 90.9539 87.9466C90.9515 87.9539 90.9472 87.9605 90.9415 87.9658C90.9359 87.971 90.929 87.9748 90.9215 87.9767L90.8635 87.9883ZM90.2974 87.5777C90.2783 87.5787 90.2597 87.5835 90.2425 87.5918C90.2254 87.6002 90.2101 87.612 90.1976 87.6264C90.1605 87.6682 90.1675 87.696 90.1791 87.7146C90.244 87.8259 90.6036 87.9141 90.8287 87.9025C90.7034 87.7749 90.4737 87.5754 90.3113 87.5754L90.2974 87.5777Z" fill="#EF233C"/>
<path d="M75.1196 94.772C74.9602 94.7873 74.8005 94.7472 74.6672 94.6583C74.6373 94.6316 74.6145 94.598 74.6007 94.5603C74.587 94.5227 74.5827 94.4823 74.5883 94.4426C74.5896 94.4185 74.5971 94.3951 74.6101 94.3748C74.6231 94.3544 74.6412 94.3378 74.6626 94.3266C74.8946 94.2013 75.6347 94.5795 75.7182 94.6235C75.7262 94.6281 75.7327 94.6349 75.7369 94.6432C75.741 94.6515 75.7426 94.6608 75.7414 94.6699C75.7401 94.679 75.7361 94.6874 75.7299 94.694C75.7236 94.7007 75.7155 94.7052 75.7066 94.7071C75.5133 94.7463 75.3168 94.768 75.1196 94.772ZM74.7879 94.3869C74.7591 94.3852 74.7304 94.3908 74.7043 94.4031C74.6952 94.4074 74.6877 94.4144 74.6827 94.4231C74.6777 94.4318 74.6756 94.4419 74.6765 94.4519C74.6723 94.4776 74.6745 94.5041 74.683 94.5288C74.6915 94.5535 74.706 94.5757 74.7252 94.5934C74.8389 94.6931 75.1451 94.7117 75.5604 94.6444C75.3193 94.5156 75.0581 94.4285 74.7879 94.3869Z" fill="#EF233C"/>
<path d="M75.6977 94.707H75.6791C75.4587 94.6072 75.0179 94.2058 75.0527 93.9947C75.0527 93.9437 75.0968 93.881 75.2175 93.8694C75.2615 93.8645 75.3061 93.8687 75.3484 93.8819C75.3908 93.8951 75.4299 93.9169 75.4634 93.946C75.6954 94.1409 75.7394 94.642 75.7418 94.6629C75.7431 94.6709 75.742 94.6791 75.7387 94.6865C75.7354 94.6939 75.73 94.7002 75.7232 94.7046C75.7151 94.7078 75.7062 94.7086 75.6977 94.707ZM75.2546 93.9599H75.2267C75.1478 93.9599 75.1409 93.9994 75.1409 94.011C75.12 94.1362 75.417 94.4541 75.6443 94.591C75.6295 94.3795 75.5483 94.1782 75.4123 94.0156C75.3685 93.9781 75.3122 93.9582 75.2546 93.9599Z" fill="#EF233C"/>
<path d="M74.9129 34.9043L74.5742 34.7419C74.5742 34.7419 74.7041 35.0505 74.9129 34.9043Z" fill="#263238"/>
<path d="M80.2737 52.0167L80.5057 52.6779C80.5359 52.7289 80.4756 52.7869 80.3897 52.7939L72.6177 53.36C72.5505 53.36 72.4925 53.3344 72.4855 53.2927L72.3672 52.6199C72.3672 52.5735 72.4159 52.5294 72.4901 52.5248L80.1461 51.968C80.1698 51.9644 80.194 51.9671 80.2163 51.9756C80.2387 51.9841 80.2585 51.9983 80.2737 52.0167Z" fill="white"/>
<path d="M79.3027 52.947L79.5068 52.9308C79.5486 52.9308 79.5787 52.9053 79.5741 52.8798L79.414 52.0074C79.414 51.9819 79.3723 51.9657 79.3305 51.968L79.1263 51.9819C79.0846 51.9819 79.0544 52.0098 79.0591 52.0353L79.2191 52.9053C79.2238 52.9308 79.2609 52.9494 79.3027 52.947Z" fill="#EF233C"/>
<path d="M73.2011 53.3901L73.4053 53.3762C73.447 53.3762 73.4772 53.3484 73.4725 53.3228L73.3125 52.4528C73.3125 52.4273 73.2707 52.4088 73.2289 52.4111L73.0248 52.425C72.983 52.425 72.9529 52.4528 72.9575 52.4784L73.1176 53.3484C73.1222 53.3739 73.1593 53.3924 73.2011 53.3901Z" fill="#EF233C"/>
<path d="M76.2519 53.1673L76.456 53.1534C76.4978 53.1534 76.528 53.1279 76.5233 53.1024L76.3632 52.2301C76.3632 52.2045 76.3215 52.186 76.2797 52.1883L76.0756 52.2045C76.0338 52.2045 76.0036 52.2301 76.0083 52.2556L76.1684 53.1279C76.173 53.1534 76.2101 53.172 76.2519 53.1673Z" fill="#EF233C"/>
<path d="M64.9414 41.9084L75.1726 44.7412L70.9015 58.6681L60.668 55.8354L64.9414 41.9084Z" fill="#EF233C"/>
<g opacity="0.3">
<path d="M64.9414 41.9084L75.1726 44.7412L70.9015 58.6681L60.668 55.8354L64.9414 41.9084Z" fill="black"/>
</g>
<path d="M64.8688 41.8876L75.1023 44.7203L70.8312 58.6473L60.5977 55.8145L64.8688 41.8876Z" fill="#EF233C"/>
<path d="M74.4892 45.059L70.7494 57.2552L61.4531 54.6823L65.193 42.4861L74.4892 45.059Z" fill="white"/>
<path d="M66.9541 43.0244C67.1268 42.8283 67.3522 42.6858 67.6034 42.6138C67.8547 42.5418 68.1213 42.5434 68.3716 42.6184L68.7776 42.7298C68.8503 42.7545 68.9284 42.7586 69.0033 42.7419C69.0782 42.7251 69.147 42.688 69.2022 42.6347C69.3381 42.506 69.5062 42.4166 69.6887 42.3757C69.8713 42.3349 70.0615 42.3442 70.2392 42.4027C70.4193 42.442 70.5846 42.5315 70.716 42.6608C70.8474 42.7901 70.9395 42.954 70.9816 43.1335C70.9991 43.2064 71.0369 43.2728 71.0907 43.325C71.1446 43.3772 71.2121 43.4129 71.2856 43.4281L71.6916 43.5418C71.9408 43.6025 72.1661 43.7367 72.3382 43.927C72.5103 44.1173 72.6212 44.3549 72.6567 44.609C72.6612 44.6257 72.6612 44.6433 72.6567 44.66C72.6464 44.6937 72.6236 44.7221 72.5929 44.7394C72.5622 44.7567 72.5261 44.7615 72.492 44.7528L67.026 43.2402C67.0036 43.2353 66.9829 43.2247 66.9658 43.2094C66.9487 43.194 66.9359 43.1745 66.9287 43.1528C66.9214 43.131 66.9199 43.1077 66.9244 43.0852C66.9289 43.0627 66.9391 43.0418 66.9541 43.0244Z" fill="#EF233C"/>
<path opacity="0.4" d="M66.9541 43.0244C67.1268 42.8283 67.3522 42.6858 67.6034 42.6138C67.8547 42.5418 68.1213 42.5434 68.3716 42.6184L68.7776 42.7298C68.8503 42.7545 68.9284 42.7586 69.0033 42.7419C69.0782 42.7251 69.147 42.688 69.2022 42.6347C69.3381 42.506 69.5062 42.4166 69.6887 42.3757C69.8713 42.3349 70.0615 42.3442 70.2392 42.4027C70.4193 42.442 70.5846 42.5315 70.716 42.6608C70.8474 42.7901 70.9395 42.954 70.9816 43.1335C70.9991 43.2064 71.0369 43.2728 71.0907 43.325C71.1446 43.3772 71.2121 43.4129 71.2856 43.4281L71.6916 43.5418C71.9408 43.6025 72.1661 43.7367 72.3382 43.927C72.5103 44.1173 72.6212 44.3549 72.6567 44.609C72.6612 44.6257 72.6612 44.6433 72.6567 44.66C72.6464 44.6937 72.6236 44.7221 72.5929 44.7394C72.5622 44.7567 72.5261 44.7615 72.492 44.7528L67.026 43.2402C67.0036 43.2353 66.9829 43.2247 66.9658 43.2094C66.9487 43.194 66.9359 43.1745 66.9287 43.1528C66.9214 43.131 66.9199 43.1077 66.9244 43.0852C66.9289 43.0627 66.9391 43.0418 66.9541 43.0244Z" fill="#FAFAFA"/>
<path d="M73.4576 46.0868L73.3231 46.523L65.3516 44.3167L65.4861 43.8805L73.4576 46.0868Z" fill="#E0E0E0"/>
<path d="M73.1333 47.1423L73.0011 47.5785L65.4727 45.4951L65.6049 45.0566L73.1333 47.1423Z" fill="#E0E0E0"/>
<path d="M72.8117 48.1979L72.6772 48.6341L68.6914 47.5298L68.826 47.0936L72.8117 48.1979Z" fill="#E0E0E0"/>
<path d="M68.1825 46.915L68.048 47.3534L65.9414 46.7688L66.0736 46.3326L68.1825 46.915Z" fill="#E0E0E0"/>
<path d="M72.485 49.2512L72.3527 49.6897L64.3789 47.4834L64.5135 47.0449L72.485 49.2512Z" fill="#E0E0E0"/>
<path d="M72.1619 50.3068L72.0274 50.7453L65.0859 48.822L65.2205 48.3859L72.1619 50.3068Z" fill="#E0E0E0"/>
<path d="M71.5162 52.418L71.3817 52.8542L63.4102 50.6478L63.5447 50.2117L71.5162 52.418Z" fill="#E0E0E0"/>
<path d="M71.1898 53.4737L71.0576 53.9098L64.3203 52.0469L64.4549 51.6084L71.1898 53.4737Z" fill="#E0E0E0"/>
<path d="M65.7315 55.311C64.4694 55.311 63.9567 54.615 63.7572 54.151C63.3187 53.1418 63.6667 51.6338 64.488 50.9842C65.0077 50.5759 65.6062 50.5852 66.1746 51.0121C66.1901 51.0224 66.2034 51.0358 66.2135 51.0515C66.2236 51.0671 66.2305 51.0847 66.2336 51.1031C66.2367 51.1215 66.236 51.1403 66.2316 51.1584C66.2271 51.1765 66.2191 51.1935 66.2078 51.2084C66.1966 51.2233 66.1824 51.2357 66.1662 51.2449C66.15 51.2541 66.1321 51.2599 66.1136 51.262C66.095 51.264 66.0763 51.2622 66.0584 51.2568C66.0406 51.2513 66.0241 51.2422 66.0099 51.2302C65.4206 50.787 64.9497 50.968 64.6573 51.2C63.9961 51.722 63.5762 53.056 64.0077 54.042C64.2397 54.5965 64.8429 55.202 66.3045 54.9886C66.6945 54.9493 67.0658 54.8018 67.3765 54.5629C67.6873 54.3239 67.925 54.0029 68.0631 53.636C68.2076 53.2125 68.2408 52.759 68.1596 52.3191C68.0783 51.8791 67.8853 51.4673 67.5991 51.1234C67.3737 50.86 67.0792 50.665 66.7487 50.5605C66.4182 50.4559 66.065 50.446 65.7292 50.5318C65.6941 50.5395 65.6575 50.5331 65.6271 50.514C65.5967 50.4949 65.5751 50.4647 65.5668 50.4298C65.5591 50.3941 65.5658 50.3569 65.5853 50.3261C65.6048 50.2952 65.6357 50.2733 65.6712 50.265C66.0544 50.1674 66.4572 50.1792 66.8341 50.2989C67.2109 50.4187 67.5467 50.6416 67.8033 50.9425C68.1197 51.3239 68.3331 51.7801 68.4233 52.2674C68.5134 52.7548 68.4773 53.2571 68.3183 53.7265C68.1646 54.1403 67.8983 54.503 67.5494 54.7735C67.2006 55.0441 66.7831 55.2118 66.344 55.2577C66.1414 55.2901 65.9367 55.308 65.7315 55.311Z" fill="#EF233C"/>
<path d="M65.8878 54.7798C65.8687 54.7793 65.8498 54.7754 65.8321 54.7682C65.8156 54.7609 65.8008 54.7504 65.7883 54.7374C65.7759 54.7243 65.7662 54.709 65.7597 54.6922C65.7533 54.6753 65.7502 54.6574 65.7507 54.6394C65.7511 54.6214 65.7552 54.6037 65.7625 54.5872C66.1907 53.674 66.5219 52.7183 66.7508 51.736C66.7647 51.6617 66.781 51.5782 66.7926 51.504C66.2265 52.4711 65.415 53.2714 64.4401 53.824C64.4083 53.8417 64.3709 53.8463 64.3357 53.8368C64.3006 53.8272 64.2706 53.8043 64.2522 53.7729C64.2432 53.7573 64.2375 53.74 64.2353 53.7221C64.2332 53.7043 64.2346 53.6861 64.2396 53.6688C64.2446 53.6515 64.253 53.6354 64.2643 53.6214C64.2756 53.6074 64.2897 53.5958 64.3055 53.5873C65.2896 53.0269 66.0972 52.2024 66.6371 51.207C66.6616 51.1582 66.7024 51.1197 66.7525 51.098C66.8026 51.0764 66.8586 51.0731 66.9109 51.0887C66.9615 51.1023 67.006 51.1326 67.0372 51.1747C67.0684 51.2169 67.0844 51.2683 67.0826 51.3207C67.0728 51.4768 67.0511 51.6319 67.0176 51.7847C66.7841 52.7846 66.4466 53.7573 66.0107 54.687C66.0017 54.7128 65.9851 54.7354 65.9633 54.752C65.9414 54.7685 65.9151 54.7781 65.8878 54.7798Z" fill="#EF233C"/>
<path d="M66.7066 53.7521C66.6733 53.7517 66.6412 53.7393 66.6161 53.7173C66.0426 53.22 65.4357 52.7627 64.7996 52.3485C64.7695 52.3282 64.7485 52.2969 64.7412 52.2614C64.7338 52.2258 64.7406 52.1888 64.7601 52.1582C64.7805 52.1281 64.8117 52.1072 64.8472 52.0998C64.8828 52.0925 64.9198 52.0993 64.9504 52.1188C65.6002 52.5396 66.2204 53.0047 66.8064 53.5108C66.8331 53.5348 66.8496 53.5684 66.8521 53.6043C66.8547 53.6402 66.8433 53.6757 66.8203 53.7033C66.8066 53.72 66.7892 53.7331 66.7694 53.7415C66.7496 53.75 66.7281 53.7536 66.7066 53.7521Z" fill="#EF233C"/>
<path d="M75.8138 48.8568L74.3035 47.5251L74.2617 49.4206C74.2617 49.4206 75.2964 50.0215 75.9576 49.6131L75.8138 48.8568Z" fill="#FFB573"/>
<path d="M72.7344 47.4324L72.7854 49.0216L74.2586 49.4206L74.3004 47.5252L72.7344 47.4324Z" fill="#FFB573"/>
<path d="M42.1822 24.9655C42.7854 25.5896 43.3886 27.3435 42.8782 28.1764C41.8806 27.1788 41.7345 24.7498 42.1822 24.9655Z" fill="#263238"/>
<path d="M48.4 93.1457L50.263 92.7165L49.8106 88.2969L47.9453 88.7238L48.4 93.1457Z" fill="#FFB573"/>
<path d="M35.0156 94.6189H36.925L37.4655 90.1993H35.5562L35.0156 94.6189Z" fill="#FFB573"/>
<path d="M37.1731 94.3985H34.8531C34.8153 94.3986 34.7787 94.4115 34.7492 94.4351C34.7197 94.4587 34.6991 94.4916 34.6907 94.5284L34.2963 96.2244C34.2867 96.2654 34.2867 96.3082 34.2962 96.3493C34.3057 96.3904 34.3245 96.4288 34.3511 96.4615C34.3778 96.4942 34.4116 96.5204 34.45 96.538C34.4883 96.5556 34.5302 96.5642 34.5724 96.5631C35.3217 96.5515 35.8669 96.5074 36.8112 96.5074C37.3912 96.5074 39.1312 96.5677 39.9408 96.5677C40.7505 96.5677 40.8549 95.7743 40.5278 95.7024C39.0592 95.3822 37.9572 94.9391 37.4886 94.5145C37.4016 94.4378 37.2891 94.3964 37.1731 94.3985Z" fill="#263238"/>
<path d="M50.2021 92.5054L48.1674 92.9694C48.1302 92.9782 48.0969 92.9992 48.073 93.029C48.049 93.0588 48.0357 93.0958 48.0352 93.1341V94.8718C48.0346 94.9138 48.0437 94.9553 48.0618 94.9933C48.0798 95.0312 48.1064 95.0644 48.1393 95.0904C48.1723 95.1165 48.2108 95.1345 48.2519 95.1433C48.293 95.152 48.3355 95.1512 48.3762 95.1409C49.107 94.9599 50.158 94.6769 51.0813 94.4611C52.1601 94.2129 53.1972 93.9971 54.4616 93.7002C55.2272 93.5262 55.2689 92.7049 54.9256 92.7072C53.3967 92.7258 52.1068 93.0297 50.6753 92.5448C50.5243 92.4882 50.3604 92.4745 50.2021 92.5054Z" fill="#263238"/>
<path d="M46.3994 35.7535C46.6569 36.2175 46.8982 36.7094 47.1418 37.1896C47.3854 37.6699 47.6267 38.1524 47.861 38.6373C48.325 39.6071 48.789 40.5838 49.2298 41.5767C49.4618 42.0732 49.6613 42.572 49.8748 43.0917C49.9243 43.2302 49.9816 43.3657 50.0465 43.4977C50.0952 43.5928 50.1207 43.6253 50.1439 43.6647C50.1671 43.7042 50.2297 43.7459 50.362 43.7529C50.5323 43.7619 50.7029 43.7399 50.8654 43.6879C51.0747 43.6272 51.2788 43.5496 51.4756 43.4559C51.58 43.4072 51.6867 43.3539 51.7911 43.2982L52.0904 43.1358L53.1112 44.1403C53.0021 44.2865 52.9186 44.3979 52.8142 44.5162C52.715 44.6352 52.6088 44.7483 52.4964 44.8549C52.2648 45.0821 52.0106 45.285 51.7377 45.4604C51.4245 45.6633 51.0806 45.8145 50.7193 45.9082C50.5063 45.9589 50.2885 45.9861 50.0697 45.9894C49.827 45.9864 49.5858 45.9505 49.3528 45.8827C48.8942 45.7399 48.4808 45.48 48.1533 45.1287C47.8873 44.841 47.6639 44.5168 47.4898 44.1659C47.2578 43.7019 47.0073 43.2379 46.7637 42.7739L45.2765 39.9435C44.7878 38.9892 44.3037 38.0333 43.8242 37.0759L46.3994 35.7535Z" fill="#FFB573"/>
<path d="M43.0059 35.8254C42.4793 37.577 46.0683 42.34 46.0683 42.34L49.7385 39.9782C49.0613 38.4637 48.222 37.0269 47.2353 35.6932C45.7528 33.7908 43.5836 33.9022 43.0059 35.8254Z" fill="#EF233C"/>
<path opacity="0.2" d="M45.3571 38.222C46.2851 38.6466 47.2804 40.2195 47.4266 41.47L46.0671 42.3446C45.2107 41.1909 44.4414 39.9749 43.7656 38.7069C44.0463 38.2568 44.2946 37.7371 45.3571 38.222Z" fill="black"/>
<path opacity="0.2" d="M49.8106 88.2969L50.0449 90.5751L48.1796 91.0043L47.9453 88.7261L49.8106 88.2969Z" fill="black"/>
<path opacity="0.2" d="M35.5581 90.1993H37.4674L37.1867 92.4776H35.2773L35.5581 90.1993Z" fill="black"/>
<path d="M34.5039 35.0784C35.0596 37.1335 35.4605 39.2274 35.7033 41.3424C35.8797 42.8203 35.9841 44.2308 36.049 45.5184C36.2021 48.5182 36.1302 50.8057 36.2184 51.5783L46.4032 50.7918C47.8137 39.9249 45.1782 34.3523 45.1782 34.3523C44.3728 34.2082 43.5592 34.1137 42.7422 34.0692C42.5682 34.0692 42.3942 34.0553 42.2156 34.053C40.7665 34.0809 39.3203 34.1925 37.8841 34.3871C37.6127 34.4219 37.3366 34.4636 37.0698 34.51C35.7057 34.7374 34.5039 35.0784 34.5039 35.0784Z" fill="#EF233C"/>
<path d="M41.1641 35.9229C41.7649 37.3775 41.2801 37.5214 41.7789 39.4771C42.0735 39.8622 42.3519 40.252 42.6164 40.6371C42.7509 40.2087 42.8669 39.7834 42.9644 39.3611C42.5259 37.403 41.8833 36.837 41.758 35.7976" fill="#263238"/>
<path d="M41.6775 36.6792L42.0556 35.6955L41.3457 35.4473L40.8516 35.8022L41.6775 36.6792Z" fill="#263238"/>
<path opacity="0.5" d="M37.0698 34.5054C39.3272 36.5029 41.2017 38.5468 42.6169 40.6418C43.3361 38.3774 43.5009 36.1827 42.9765 34.0785C43.7148 34.1276 44.4498 34.2174 45.1782 34.3476C45.1782 34.3476 47.8137 39.9156 46.4032 50.7871L36.2184 51.5736C36.1302 50.8011 36.2021 48.5135 36.049 45.5138C35.9841 44.2354 35.8797 42.8249 35.7033 41.3378C35.4605 39.2228 35.0596 37.1289 34.5039 35.0738C34.5039 35.0738 35.7057 34.7374 37.0698 34.5054Z" fill="black"/>
<path d="M37.9865 29.4779C38.353 30.849 38.7985 33.3778 37.8867 34.3824C38.3472 34.7969 38.8917 35.1071 39.4831 35.2917C40.0746 35.4763 40.6989 35.5309 41.3134 35.4519C42.5105 35.3313 42.5151 34.4914 42.2158 34.0483C40.6359 33.7977 40.5918 32.6424 40.796 31.5404L37.9865 29.4779Z" fill="#FFB573"/>
<path d="M41.3444 35.4473C41.3444 35.4473 40.1681 36.4147 39.8039 37.3682C38.9803 37.0179 37.4537 35.3034 37.4375 34.2617C37.6232 34.0591 37.8471 33.8951 38.0964 33.7792C39.0842 34.5032 40.1804 35.0662 41.3444 35.4473Z" fill="#EF233C"/>
<path opacity="0.2" d="M41.3444 35.4473C41.3444 35.4473 40.1681 36.4147 39.8039 37.3682C38.9803 37.0179 37.4537 35.3034 37.4375 34.2617C37.6232 34.0591 37.8471 33.8951 38.0964 33.7792C39.0842 34.5032 40.1804 35.0662 41.3444 35.4473Z" fill="#FAFAFA"/>
<path d="M41.3438 35.4473C41.3438 35.4473 42.7566 36.076 43.3877 37.178C44.2159 36.8277 42.9237 34.1434 42.3181 33.8952C42.0683 33.7471 41.7738 33.6928 41.4876 33.7421C41.4876 33.7421 42.223 35.1457 41.3438 35.4473Z" fill="#EF233C"/>
<path opacity="0.2" d="M41.3438 35.4473C41.3438 35.4473 42.7566 36.076 43.3877 37.178C44.2159 36.8277 42.9237 34.1434 42.3181 33.8952C42.0683 33.7471 41.7738 33.6928 41.4876 33.7421C41.4876 33.7421 42.223 35.1457 41.3438 35.4473Z" fill="#FAFAFA"/>
<path opacity="0.2" d="M39.1319 30.3201L40.7953 31.5381C40.7446 31.7949 40.7174 32.0558 40.7141 32.3176C40.1132 32.2781 39.2548 31.6889 39.1504 31.0741C39.0975 30.8261 39.0912 30.5704 39.1319 30.3201Z" fill="black"/>
<path d="M37.6774 27.3969C37.9094 29.2715 37.9674 30.3827 38.9859 31.2783C40.5171 32.6215 42.7884 31.5775 43.1108 29.6543C43.4008 27.9282 42.9554 25.1511 41.0576 24.5503C40.6371 24.4157 40.1894 24.3901 39.7563 24.4757C39.3231 24.5613 38.9188 24.7554 38.5811 25.0398C38.2434 25.3242 37.9834 25.6896 37.8253 26.1018C37.6673 26.514 37.6164 26.9596 37.6774 27.3969Z" fill="#FFB573"/>
<path d="M42.2079 25.2393C41.7091 25.6128 40.28 25.4922 39.4007 25.2393C38.5214 24.9864 37.8834 26.6823 38.5748 27.6869C39.2661 28.6915 39.5492 28.7611 38.6885 29.3109C37.8277 29.8607 35.4103 27.4711 36.6005 25.7056C36.5378 24.2162 39.6281 23.2209 41.2799 23.9169C42.9317 24.6129 42.2079 25.2393 42.2079 25.2393Z" fill="#263238"/>
<path d="M37.0577 29.0163C37.144 29.2348 37.2729 29.4339 37.4371 29.602C37.6012 29.7701 37.7972 29.9038 38.0135 29.9953C38.5935 30.2273 38.9647 29.7332 38.8719 29.1416C38.7884 28.6103 38.3847 27.847 37.7676 27.8563C37.6329 27.8608 37.5014 27.8987 37.3849 27.9665C37.2684 28.0344 37.1706 28.1301 37.1002 28.2451C37.0299 28.3601 36.9891 28.4907 36.9817 28.6253C36.9743 28.7599 37.0004 28.8943 37.0577 29.0163Z" fill="#FFB573"/>
<path d="M50.6482 89.9858L47.4906 90.712C47.4906 90.712 45.3725 79.2303 44.8273 73.312C44.6602 71.5117 44.1893 69.0084 43.5977 66.3288C42.8483 62.9509 41.9087 59.3015 41.1385 56.4456C40.3265 53.4296 39.707 51.3045 39.707 51.3045L46.4002 50.7871C46.4002 50.7871 50.4231 66.5794 50.6064 72.4002C50.8082 78.4508 50.6482 89.9858 50.6482 89.9858Z" fill="#263238"/>
<path opacity="0.2" d="M43.5998 66.3288C42.8505 62.9509 41.9109 59.3015 41.1406 56.4456L41.8366 54.9423C43.4954 56.9027 43.9269 63.0066 43.5998 66.3288Z" fill="black"/>
<path d="M42.789 51.0656C42.789 51.0656 42.0304 67.41 41.2114 72.9501C40.3159 79.0169 38.0701 92.0368 38.0701 92.0368H34.5669C34.5669 92.0368 34.5089 79.7408 35.6179 73.8712C36.88 67.1756 36.2072 51.576 36.2072 51.576L42.789 51.0656Z" fill="#263238"/>
<path d="M38.493 92.1133H34.375L34.3889 90.8837L38.9895 90.8025L38.493 92.1133Z" fill="#EF233C"/>
<path d="M51.0611 89.9673L47.3004 90.8327L47.0312 89.6193L51.2212 88.5892L51.0611 89.9673Z" fill="#EF233C"/>
<path d="M40.5754 27.7008C40.5754 27.8539 40.6752 27.9723 40.7749 27.9653C40.8747 27.9583 40.9489 27.8261 40.9373 27.673C40.9257 27.5199 40.8376 27.4015 40.7378 27.4085C40.6381 27.4155 40.5638 27.5477 40.5754 27.7008Z" fill="#263238"/>
<path d="M42.3094 27.5663C42.3094 27.7194 42.4092 27.8377 42.5113 27.8308C42.6133 27.8238 42.6829 27.6916 42.6737 27.5385C42.6644 27.3853 42.5739 27.267 42.4718 27.274C42.3697 27.2809 42.3001 27.4132 42.3094 27.5663Z" fill="#263238"/>
<path d="M41.8733 29.0742C41.637 29.0249 41.3918 29.0379 41.162 29.1119C40.9322 29.1859 40.7256 29.3184 40.5625 29.4965C41.2214 29.6403 42.9289 29.4733 42.9289 29.4733C42.8305 29.2908 42.6696 29.1499 42.4756 29.0766C42.2817 29.0033 42.0678 29.0024 41.8733 29.0742Z" fill="#263238"/>
<path d="M41.7617 27.6869C41.9825 28.1254 42.2628 28.5314 42.5946 28.8933C42.494 28.9727 42.3776 29.0299 42.2532 29.0611C42.1289 29.0923 41.9993 29.0968 41.8731 29.0743L41.7617 27.6869Z" fill="#ED893E"/>
<path d="M40.9643 30.1345C41.0307 30.1403 41.0975 30.1403 41.1638 30.1345C41.1755 30.1345 41.1867 30.1299 41.195 30.1216C41.2033 30.1134 41.2079 30.1021 41.2079 30.0905C41.2079 30.0788 41.2033 30.0676 41.195 30.0593C41.1867 30.051 41.1755 30.0464 41.1638 30.0464C40.9736 30.0654 40.7815 30.0391 40.6033 29.9698C40.4251 29.9004 40.2658 29.79 40.1384 29.6473C40.1343 29.6432 40.1294 29.6399 40.1241 29.6377C40.1187 29.6354 40.1129 29.6343 40.1071 29.6343C40.1013 29.6343 40.0955 29.6354 40.0901 29.6377C40.0847 29.6399 40.0799 29.6432 40.0758 29.6473C40.0673 29.656 40.0625 29.6677 40.0625 29.6798C40.0625 29.692 40.0673 29.7036 40.0758 29.7123C40.1881 29.8386 40.3246 29.941 40.4772 30.0136C40.6298 30.0861 40.7955 30.1272 40.9643 30.1345Z" fill="#263238"/>
<path d="M40.0027 27.1834C40.0186 27.1836 40.0343 27.1799 40.0485 27.1726C40.0626 27.1654 40.0748 27.1547 40.0839 27.1417C40.1434 27.0447 40.2247 26.9629 40.3213 26.9029C40.418 26.8429 40.5274 26.8063 40.6407 26.796C40.6647 26.796 40.6877 26.7864 40.7046 26.7695C40.7216 26.7525 40.7311 26.7295 40.7311 26.7055C40.7315 26.6935 40.7293 26.6816 40.7249 26.6705C40.7205 26.6594 40.7138 26.6493 40.7054 26.6408C40.6969 26.6323 40.6868 26.6257 40.6757 26.6213C40.6645 26.6168 40.6526 26.6147 40.6407 26.615C40.4991 26.6267 40.3622 26.6717 40.2413 26.7463C40.1203 26.8209 40.0187 26.9229 39.9447 27.0442C39.9315 27.0642 39.9267 27.0887 39.9315 27.1121C39.9363 27.1356 39.9502 27.1563 39.9702 27.1695C39.9804 27.1755 39.9913 27.1802 40.0027 27.1834Z" fill="#263238"/>
<path d="M43.0182 26.9121C43.0349 26.9166 43.0525 26.9166 43.0692 26.9121C43.0903 26.8999 43.1057 26.88 43.1122 26.8565C43.1187 26.8331 43.1158 26.8081 43.104 26.7868C43.0352 26.6605 42.9371 26.5525 42.8181 26.4718C42.699 26.3911 42.5624 26.34 42.4196 26.3228C42.3958 26.3221 42.3726 26.3307 42.3549 26.3467C42.3372 26.3626 42.3263 26.3848 42.3245 26.4086C42.3235 26.4206 42.325 26.4326 42.3289 26.444C42.3328 26.4553 42.3389 26.4658 42.3469 26.4747C42.355 26.4836 42.3647 26.4908 42.3756 26.4958C42.3865 26.5007 42.3983 26.5035 42.4103 26.5037C42.523 26.5169 42.6307 26.5574 42.7241 26.6217C42.8175 26.686 42.8937 26.7721 42.9463 26.8726C42.9543 26.8844 42.965 26.8941 42.9775 26.901C42.99 26.9078 43.0039 26.9116 43.0182 26.9121Z" fill="#263238"/>
<path d="M37.8016 94.7303C37.9321 94.7409 38.0623 94.7065 38.1705 94.6328C38.2038 94.6046 38.2299 94.5688 38.2465 94.5285C38.263 94.4881 38.2696 94.4443 38.2656 94.4008C38.2655 94.3746 38.2583 94.349 38.2448 94.3266C38.2313 94.3041 38.2121 94.2857 38.1891 94.2732C37.9803 94.1642 37.3608 94.5447 37.2912 94.5864C37.2834 94.5911 37.2772 94.598 37.2734 94.6063C37.2697 94.6146 37.2686 94.6239 37.2703 94.6328C37.2711 94.6417 37.2747 94.65 37.2805 94.6567C37.2864 94.6634 37.2942 94.668 37.3028 94.6699C37.4663 94.7089 37.6336 94.7291 37.8016 94.7303ZM38.0893 94.3359C38.1093 94.3354 38.1291 94.3393 38.1473 94.3475C38.1564 94.353 38.1638 94.3608 38.1687 94.3702C38.1736 94.3797 38.1758 94.3902 38.1751 94.4008C38.1792 94.4313 38.1756 94.4623 38.1646 94.4911C38.1537 94.5198 38.1358 94.5454 38.1125 94.5655C38.0081 94.6514 37.7575 94.663 37.4351 94.598C37.6344 94.4697 37.8565 94.3807 38.0893 94.3359Z" fill="#EF233C"/>
<path d="M37.316 94.656C37.3228 94.6581 37.33 94.6581 37.3368 94.656C37.5364 94.5493 37.9215 94.1294 37.882 93.9182C37.8765 93.8849 37.8592 93.8546 37.8332 93.8329C37.8072 93.8112 37.7744 93.7995 37.7405 93.7999C37.7061 93.7945 37.671 93.7969 37.6376 93.807C37.6043 93.817 37.5737 93.8344 37.548 93.8579C37.316 94.0389 37.2719 94.5887 37.2696 94.6119C37.2693 94.6201 37.271 94.6282 37.2747 94.6355C37.2783 94.6428 37.2837 94.649 37.2904 94.6537C37.2986 94.6568 37.3074 94.6576 37.316 94.656ZM37.708 93.8834H37.7289C37.7869 93.8834 37.7916 93.9182 37.7939 93.9298C37.8171 94.0551 37.5619 94.3706 37.3716 94.5214C37.388 94.3034 37.4687 94.095 37.6036 93.9229C37.6334 93.8998 37.6705 93.8882 37.708 93.8904V93.8834Z" fill="#EF233C"/>
<path d="M50.4441 92.7188C50.7573 92.7188 51.3094 92.6608 51.4741 92.4335C51.4977 92.4003 51.5132 92.3619 51.5192 92.3216C51.5253 92.2813 51.5217 92.2402 51.5089 92.2015C51.5023 92.1777 51.4896 92.156 51.4721 92.1385C51.4547 92.1211 51.433 92.1084 51.4092 92.1017C51.154 92.0252 50.4812 92.5796 50.4139 92.6423C50.4089 92.6499 50.4062 92.6587 50.4062 92.6678C50.4063 92.6769 50.4089 92.6858 50.4139 92.6933C50.4162 92.6999 50.4203 92.7057 50.4256 92.7101C50.4308 92.7146 50.4372 92.7176 50.4441 92.7188ZM51.3721 92.1829H51.3906C51.4004 92.1856 51.4092 92.191 51.4161 92.1983C51.4231 92.2057 51.4279 92.2148 51.4301 92.2247C51.4386 92.2502 51.441 92.2774 51.437 92.304C51.433 92.3307 51.4226 92.356 51.4069 92.3778C51.3141 92.5054 51.0125 92.5936 50.5856 92.6214C50.8477 92.4149 51.2189 92.1667 51.3697 92.1829H51.3721Z" fill="#EF233C"/>
<path d="M50.4448 92.7188C50.4553 92.7227 50.4668 92.7227 50.4773 92.7188C50.6791 92.568 51.0364 92.0622 50.9552 91.8604C50.9366 91.8117 50.8879 91.7606 50.7649 91.7745C50.7193 91.7796 50.6752 91.7939 50.6353 91.8167C50.5954 91.8394 50.5605 91.8701 50.5329 91.9068C50.3381 92.155 50.3984 92.6677 50.403 92.6886C50.4035 92.6965 50.4062 92.7042 50.4107 92.7107C50.4152 92.7172 50.4213 92.7224 50.4285 92.7257L50.4448 92.7188ZM50.8206 91.8534C50.8601 91.8534 50.8693 91.8766 50.8717 91.8859C50.9204 92.0065 50.6861 92.3917 50.4865 92.5819C50.4619 92.3649 50.504 92.1456 50.6072 91.9532C50.6264 91.9259 50.6512 91.903 50.6801 91.8862C50.7089 91.8694 50.741 91.859 50.7742 91.8557L50.8206 91.8534Z" fill="#EF233C"/>
<path d="M35.9607 37.9644C35.6568 38.4632 35.332 39.0038 35.0327 39.5304C34.7334 40.0571 34.4295 40.5953 34.1488 41.1312C33.8681 41.6672 33.5943 42.2008 33.3553 42.7367C33.1183 43.2465 32.919 43.773 32.7591 44.312C32.6974 44.5261 32.6532 44.7449 32.6269 44.9662C32.6269 45.0497 32.6269 45.117 32.6269 45.1425H32.6106C32.599 45.1425 32.599 45.1588 32.6106 45.1912C32.6518 45.2388 32.7004 45.2796 32.7545 45.3119C32.9413 45.418 33.1408 45.4999 33.3484 45.5555C33.8887 45.6948 34.441 45.7826 34.9979 45.8176C35.2925 45.8408 35.5918 45.8548 35.8934 45.8687C36.195 45.8826 36.5082 45.8803 36.7936 45.8872L37.0557 47.2955C36.717 47.4115 36.4061 47.4927 36.0744 47.5716C35.7462 47.6534 35.414 47.7185 35.0791 47.7664C34.3735 47.8799 33.6564 47.9041 32.9447 47.8384C32.5261 47.7991 32.1153 47.7007 31.7244 47.546C31.4876 47.4509 31.2626 47.3287 31.0539 47.1818C30.6737 46.9107 30.3758 46.5397 30.1932 46.11C30.1323 45.9646 30.0849 45.8139 30.0517 45.6599C29.9971 45.4076 29.9706 45.1501 29.9728 44.892C29.9795 44.4812 30.0285 44.0723 30.1189 43.6716C30.2794 42.9824 30.4935 42.3068 30.7593 41.6509C31.0145 41.0222 31.2882 40.4167 31.5805 39.8251C31.8729 39.2335 32.1814 38.6651 32.5085 38.092C32.8357 37.519 33.1605 36.9738 33.5363 36.4077L35.9607 37.9644Z" fill="#FFB573"/>
<path d="M34.5048 35.0784C32.7578 35.6213 30.6211 40.6464 30.6211 40.6464L34.8713 42.6068C35.6857 41.2177 36.3729 39.7579 36.9245 38.2452C37.7667 35.8092 36.6206 34.4195 34.5048 35.0784Z" fill="#EF233C"/>
<path d="M36.3516 46.0613L37.8688 44.8618L38.4303 47.2445C38.4303 47.2445 36.913 47.9753 36.4397 47.2073L36.3516 46.0613Z" fill="#FFB573"/>
<path d="M39.458 44.8525L39.8292 46.8454L38.4325 47.2445L37.8711 44.8618L39.458 44.8525Z" fill="#FFB573"/>
<path d="M52.0156 43.1288L53.5793 41.9688L53.9899 44.0869C53.9899 44.0869 52.533 45.0335 52.0759 44.2632L52.0156 43.1288Z" fill="#FFB573"/>
<path d="M55.4968 41.7994L55.2323 43.7413L53.9888 44.0916L53.5781 41.9734L55.4968 41.7994Z" fill="#FFB573"/>
</svg>
